<svg width="3000" height="3000" viewBox="0 0 3000 3000" fill="none" xmlns="http://www.w3.org/2000/svg">
<defs>
<linearGradient id="paint0_linear_2302_18234" x1="1500" y1="0" x2="1500" y2="4217" gradientUnits="userSpaceOnUse">
<stop stop-color="#216CB3"/>
<stop offset="1" stop-color="#CCDBE9" stop-opacity="0"/>
</linearGradient>
</defs>
<path fill-rule="evenodd" clip-rule="evenodd" d="M1500 3000C2328.43 3000 3000 2328.43 3000 1500C3000 671.573 2328.43 0 1500 0C671.573 0 0 671.573 0 1500C0 2328.43 671.573 3000 1500 3000ZM312.5 771C149.7 983 104 1345.33 101.5 1500C101.5 1934.81 323.5 2284.5 434.5 2405C516.167 2510.33 765.8 2745.5 1111 2843.5C1456.2 2941.5 1768.83 2884.33 1882 2843.5C1920.5 2841.17 2056.6 2799.8 2293 2653C2529.4 2506.2 2699.5 2224.83 2755 2102.5C2798 2025.5 2887.4 1797.2 2901 1500C2914.6 1202.8 2768.67 890.167 2694 771C2651 711 2537.1 562.4 2425.5 448C2313.9 333.6 2084.67 223.667 1984 183C1935.33 166 1770.4 125.9 1500 101.5C1229.6 77.1 896.667 229.667 764 309C671.167 361 450.9 526.2 312.5 771Z" fill="url(#paint0_linear_2302_18234)"/>
<path d="M2831.38 1346.09L2843.94 1409.73C2845.87 1422.02 2852.15 1441.96 2842.66 1456.28C2846.73 1476.55 2834.79 1499.42 2828.31 1508.32C2807.74 1511.52 2764.01 1518.56 2677.04 1542.1C2590.07 1565.64 2558.4 1597.56 2553.44 1610.58C2549.43 1623.01 2497.57 1655.2 2502.34 1669.16C2475.61 1686.76 2469.12 1756.58 2469.22 1789.29C2466.4 1798.84 2489.87 1840.43 2502.82 1861.47C2519.01 1887.77 2498.18 1922.76 2470.87 1990.61C2424.14 2031.58 2377.91 2075.66 2348.22 2097.66C2337.7 2109.36 2266.84 2142.53 2147.58 2176.81C2095.24 2211.32 2047.11 2274.35 2029.59 2301.55C2023.65 2315.48 2037.99 2365.18 2038.02 2383.91C2044.14 2404.76 2037.1 2423.83 2032.81 2430.77C2031.78 2443.96 2014.13 2470.78 1951.72 2472.55C1971.51 2477.33 2014.72 2482.04 2029.28 2462.58C2043.83 2443.13 2054.82 2425.45 2058.5 2419.05C2059.53 2409.76 2060.6 2390.05 2056.62 2385.52C2052.64 2380.99 2057.12 2364.23 2059.85 2356.42L2067.98 2333.72C2068.31 2322.37 2079.98 2288.74 2123.97 2244.94C2167.96 2201.15 2205.54 2195.32 2218.83 2197.88L2297.71 2158.16L2368.68 2121.48L2403.26 2109.78L2423.72 2091.64C2431.89 2086.37 2454.07 2071.76 2477.5 2055.46C2500.89 2032.39 2523.6 1999.36 2532.04 1985.73C2538.72 1977.02 2553.95 1949.88 2561.42 1911.09C2568.89 1872.29 2551.47 1836.52 2541.83 1823.49C2538.06 1820.84 2531 1811.19 2532.93 1793.83C2521.52 1777.9 2533.53 1739.02 2540.96 1721.57C2542.69 1718.9 2554.97 1701.02 2590.33 1650.9C2634.53 1588.25 2696.16 1591.1 2744.99 1572.67C2784.06 1557.93 2838.77 1545.19 2861.24 1540.66C2887.12 1491.61 2891.29 1451.13 2883.58 1428.55C2878.7 1414.25 2837.87 1370.17 2831.38 1346.09Z" fill="#543E30"/>
<path d="M2592.75 1437.94C2581.51 1445.38 2561.05 1455.48 2556.21 1471.51C2537.04 1483.22 2527.05 1506.81 2524.45 1517.14C2536.35 1532.29 2561.47 1564.68 2603.75 1635.8C2646.02 1706.92 2642.64 1749.25 2635.66 1761.52C2628.48 1772.8 2639.09 1827.98 2624.5 1834.81C2629.16 1863.97 2577.56 1917.18 2551.17 1940.14C2545.47 1948.63 2495.5 1963.18 2469.46 1969.87C2436.91 1978.23 2423.43 2015.92 2388.07 2080.81L2339.79 2207.1L2339.98 2181.49C2338.47 2172.66 2334.61 2148.46 2331.23 2122.29C2333.33 2091.38 2343.91 2053.89 2348.94 2039.01C2351.25 2028.68 2362.35 2000.03 2388.3 1968.04C2414.25 1936.04 2455.29 1921.79 2472.56 1918.67C2477.35 1919.17 2490.07 1916.81 2502.68 1903.37C2523.52 1899.32 2546.35 1864.42 2555.16 1847.48C2556.09 1844.51 2561.82 1824.22 2577.26 1766.77C2596.55 1694.94 2550.88 1658.29 2531.33 1614.69C2515.69 1579.81 2487.43 1536.52 2475.26 1519.24C2496.5 1468.48 2526.12 1437.38 2549.71 1426.32C2564.65 1419.32 2628.85 1413.9 2652.79 1401.02L2592.75 1437.94Z" fill="#543E30"/>
<path d="M151.63 1488.05L145.604 1552.44C144.934 1564.83 140.711 1585.19 151.63 1598.69C149.639 1619.21 163.863 1641.04 171.225 1649.39C192.032 1650.94 236.306 1654.48 325.321 1671.01C414.336 1687.55 449.124 1716.82 455.392 1729.39C460.66 1741.45 515.589 1769.39 512.256 1783.67C540.676 1799.08 554.248 1868.1 557.482 1900.69C561.262 1909.97 542.127 1953.26 531.372 1975.24C517.929 2002.72 542.245 2035.91 576.358 2101.32C627.072 2138.41 677.604 2178.64 709.408 2198.19C721.084 2209.01 795.03 2236.41 917.309 2261.08C972.95 2291.29 1027.3 2350.24 1047.52 2375.94C1054.86 2389.34 1045.64 2439.98 1047.52 2458.63C1043.55 2479.88 1052.51 2498.32 1057.48 2504.89C1059.85 2517.94 1080.17 2543.25 1142.5 2540.05C1123.28 2546.39 1080.72 2554.51 1064.25 2536.29C1047.77 2518.07 1035.02 2501.34 1030.71 2495.26C1028.73 2486.09 1025.66 2466.54 1029.16 2461.71C1032.66 2456.89 1026.5 2440.55 1022.97 2432.99L1012.57 2411.02C1011.08 2399.75 996.03 2367.18 947.757 2327.06C899.485 2286.93 861.467 2284.12 848.492 2287.73L765.882 2254.43L691.467 2223.53L655.836 2214.63L633.601 2198.19C624.933 2193.59 601.35 2180.8 576.358 2166.43C550.713 2145.31 524.725 2114.22 514.937 2101.32C507.396 2093.17 489.464 2067.36 478.068 2029.31C466.671 1991.27 480.377 1954.26 488.654 1940.51C492.138 1937.57 498.184 1927.41 494.493 1910.27C504.234 1893.5 488.312 1855.73 479.133 1838.94C477.143 1836.41 463.083 1819.59 422.762 1772.48C372.361 1713.59 311.271 1721.32 260.754 1706.85C220.341 1695.27 164.557 1686.93 141.717 1684.21C110.944 1637.41 102.669 1597.43 108.042 1574.33C111.446 1559.7 147.619 1512.56 151.63 1488.05Z" fill="#543E30"/>
<path d="M335.935 1551.97C349.047 1558.37 372.299 1566.42 380.253 1582.62C402.445 1592.52 417.165 1616 421.751 1626.5C412.026 1643.85 391.578 1680.9 360.158 1760.66C328.738 1840.42 339.93 1884.36 349.453 1896.35C359 1907.27 357.858 1966.41 374.368 1971.76C374.758 2002.89 438.397 2052.26 470.167 2073.05C477.666 2081.24 532.613 2090.3 561.087 2094.08C596.68 2098.8 617.6 2136.63 666.341 2200.24L734.867 2299.78C734.852 2290.34 734.523 2264.5 733.336 2236.67C725.557 2204.54 707.711 2166.56 699.76 2151.59C695.476 2141.06 678.672 2112.41 645.728 2082.1C612.784 2051.79 567.244 2041.94 548.592 2040.81C543.672 2041.92 529.925 2041.03 514.298 2028.52C491.741 2026.85 461.54 1993.11 449.259 1976.44C447.744 1973.46 438.08 1952.9 411.544 1894.61C378.373 1821.74 419.571 1777.68 432.166 1729.57C442.242 1691.08 464.011 1642.22 473.636 1622.61C442.228 1572.05 405.593 1543.13 378.9 1534.47C361.992 1528.98 293.805 1531.26 266.409 1520.73L335.935 1551.97Z" fill="#543E30"/>
<path d="M840.525 2198.02C843.371 2208.69 852.093 2210.77 856.099 2210.47L859.711 2198.39C855.951 2197.31 848.357 2194.25 848.066 2190.66C847.776 2187.07 838.475 2180.55 833.862 2177.74L831.967 2177.31L826.518 2176.07L810.911 2176.19L802.85 2172.38L795.456 2169.62L789.194 2164.61L786.004 2165.16L779.192 2166.33L757.295 2170.09L736.82 2155.31C732.384 2152.99 722.659 2145.98 719.252 2136.54C714.993 2124.74 691.856 2102.58 681.931 2088.61C673.991 2077.44 653.522 2053.92 644.281 2043.56C636.66 2038.57 624.54 2031.08 613.647 2025.3C612.709 2024.8 611.78 2024.31 610.864 2023.84C602.087 2019.34 594.48 2016.25 591.256 2016.94C583.786 2018.53 571.451 2015.46 566.218 2013.73C555.285 2012.43 528.641 2011.47 509.53 2018.03C508.401 2018.42 507.267 2018.83 506.131 2019.25C488.045 2026.02 469.49 2037.11 462.109 2042.08L448.796 2041.68L453.832 2053.57C452.733 2072.03 456.226 2114.33 478.994 2135.88C501.763 2157.44 525.473 2166.9 534.483 2168.94C542.747 2170.47 562.42 2174.68 575.001 2179.27C587.582 2183.87 619.961 2186.5 634.579 2187.25C646.769 2187.89 672.193 2189.64 676.36 2191.5C680.528 2193.36 713.089 2193.47 728.848 2193.29L777.398 2173.56L788.746 2171.6L796.935 2178.15C806.101 2175.81 819.753 2182.38 825.433 2185.96C829.278 2185.53 837.679 2187.35 840.525 2198.02Z" fill="#B59460"/>
<path d="M509.53 2018.03C528.641 2011.47 555.285 2012.43 566.218 2013.73C571.451 2015.46 583.786 2018.53 591.256 2016.94C594.48 2016.25 602.087 2019.34 610.864 2023.84L617.616 2019.3L591.445 1991.11L578.17 1972.71C564.919 1978.8 534.584 1989.03 519.256 1981.19C530.643 1986.72 562.392 1976.62 576.843 1970.87L545.344 1927.23L593.811 1988.8L607.837 2003.61C613.928 1985.91 625.21 1947.64 622.896 1932.69C622.831 1932.31 622.76 1931.93 622.684 1931.56C622.765 1931.92 622.835 1932.3 622.896 1932.69C626.282 1952.58 615.892 1989.7 610.161 2006.06L622.424 2019.01L630.452 2025.43C641.653 2008.13 661.734 1969.48 652.446 1953.24C664.036 1971.11 643.897 2009.84 632.378 2026.97L655.98 2045.83L666.98 2058.74C672.564 2046.14 683.047 2018.94 683.39 2004.53C683.38 2003.51 683.347 2002.51 683.29 2001.51C683.385 2002.44 683.416 2003.45 683.39 2004.53C683.597 2025.71 673.754 2050.48 668.571 2060.61L697.819 2088.21C700.336 2077.96 705.211 2056.03 704.572 2050.27C706.158 2055.11 701.82 2078.61 699.452 2089.75L722.424 2114.35L743.195 2132.84L767.666 2149.14C757.749 2139.97 748.746 2130.59 748.962 2127.22C749.32 2121.62 734.751 2093.11 727.422 2079.56C722.112 2062.89 709.545 2026.9 701.753 2016.26C693.962 2005.63 685.735 1980.98 682.596 1969.99C679.723 1961.39 666.596 1938.41 637.074 1915.24C607.552 1892.07 583.942 1885.2 575.827 1884.67C567.705 1881.76 546.508 1877.14 526.694 1881.89C515.638 1880.82 508.468 1876.68 506.266 1874.75L506.794 1892.75C500.795 1900.03 488.623 1918.18 487.93 1932.53C487.064 1950.48 502.732 2020.47 506.131 2019.25C507.267 2018.83 508.401 2018.42 509.53 2018.03Z" fill="#CAA672"/>
<path d="M644.281 2043.56C653.522 2053.92 673.991 2077.44 681.931 2088.61C691.856 2102.58 714.993 2124.74 719.252 2136.54L739.761 2148.73L779.192 2166.33L786.004 2165.16C781.057 2161.08 774.165 2155.16 767.666 2149.14L740.534 2135.44L720.029 2116.69L696.701 2092.44L666.057 2063.06L653.318 2048.42L619.762 2021.61L613.647 2025.3C624.54 2031.08 636.66 2038.57 644.281 2043.56Z" fill="#CAA672"/>
<path d="M767.666 2149.14L743.195 2132.84L722.424 2114.35L699.452 2089.75L697.819 2088.21L668.571 2060.61L666.98 2058.74L655.98 2045.83L632.378 2026.97L630.452 2025.43L622.424 2019.01L610.161 2006.06L607.837 2003.61L593.811 1988.8L545.344 1927.23L576.843 1970.87L578.17 1972.71L591.445 1991.11L617.616 2019.3L619.762 2021.61L653.318 2048.42L666.057 2063.06L696.701 2092.44L720.029 2116.69L740.534 2135.44L767.666 2149.14Z" fill="#715D58"/>
<path d="M795.901 1876.81C793.809 1877.03 788.098 1885.18 785.504 1889.23L800.693 1900.06L805.108 1927.38C808.857 1926.38 822.005 1918.87 844.6 1896.83C825.669 1919.91 810.59 1928.09 805.416 1929.29L805.903 1932.31L810.754 1970.32C821.966 1963.61 847.57 1945.5 862.898 1925.4C863.395 1924.74 863.891 1924.07 864.386 1923.4C863.902 1924.07 863.406 1924.74 862.898 1925.4C842.142 1952.99 819.775 1968.15 811.012 1972.34L815.084 2011.4C828.368 2005.18 857.563 1989.39 868.067 1975.94C854.548 1993.7 827.274 2008.53 815.327 2013.73L815.758 2017.87L818.882 2050.73L819.008 2061.15L819.532 2091.13C828.055 2088.06 845.538 2080.98 850.417 2076.18C850.645 2075.94 850.858 2075.7 851.055 2075.47C850.876 2075.7 850.663 2075.93 850.417 2076.18C844.285 2082.57 827.48 2090.4 819.576 2093.62L819.659 2098.41L828.732 2160.51L830.093 2163.18L834.753 2160.34C835.772 2160.1 838.19 2158.47 839.704 2153.8C839.244 2133.27 856.595 2111.48 865.328 2103.15C868.852 2095.81 876.06 2077.97 876.705 2065.26C879.058 2032.76 907.838 2000.11 906.736 1996.35C902.882 1993.27 902.041 1961.89 900.672 1952.39C899.303 1942.9 902.496 1931.81 902.948 1928.23C903.31 1925.37 896.026 1914.56 892.339 1909.52L876.845 1892.15C870.709 1888.73 855.876 1880.69 845.634 1875.87C835.528 1864.64 798.517 1876.54 795.901 1876.81Z" fill="#CAA672"/>
<path d="M825.403 2162.05L828.732 2160.51L819.659 2098.41L819.576 2093.62L819.532 2091.13L819.008 2061.15L818.882 2050.73L815.758 2017.87L815.327 2013.73L815.084 2011.4L811.012 1972.34L810.754 1970.32L805.903 1932.31L805.416 1929.29L805.108 1927.38L800.693 1900.06L785.504 1889.23L798.179 1902.51L802.65 1935.48L803.802 1945.47L804.216 1949.07L807.315 1975.95L808.643 1990.14L809.002 1993.97L811.617 2021.91L812.314 2030.35L812.531 2032.99L815.163 2064.9L815.575 2075.73L815.99 2077.29L816.897 2101.11L818.302 2113.41L825.403 2162.05Z" fill="#715D58"/>
<path d="M830.093 2163.18L828.732 2160.51L825.403 2162.05L826.518 2176.07L831.967 2177.31L830.093 2163.18Z" fill="#715D58"/>
<path d="M818.444 2162L825.403 2162.05L818.302 2113.41L816.897 2101.11L815.99 2077.29C815.879 2077.25 815.766 2077.22 815.652 2077.19C804.987 2074.17 781.411 2066.98 775.836 2060.24C785.321 2067.4 806.281 2073.55 815.575 2075.73L815.163 2064.9L812.531 2032.99C793.124 2029.6 750.647 2017.23 736.001 1994.81C755.589 2014.46 795.038 2026.69 812.314 2030.35L811.617 2021.91L809.002 1993.97C794.299 1990.36 759.75 1977.85 739.173 1956.67C755.88 1973.05 792.448 1985.81 808.643 1990.14L807.315 1975.95L804.216 1949.07C796.762 1948.45 779.124 1945.04 768.207 1936.32C782.629 1943.45 797.946 1945.39 803.802 1945.47L802.65 1935.48L798.179 1902.51L785.504 1889.23C784.231 1887.34 780.055 1883.09 773.538 1881.25C753.964 1885.81 734.077 1906.93 725.196 1918.73C718.091 1928.17 715.91 1948.4 715.707 1957.34C715.425 1964.55 715.519 1983.85 718.159 2003.39C720.799 2022.93 736.574 2051.44 744.132 2063.25C747.724 2065.16 755.774 2071.61 759.232 2082.14C762.69 2092.68 771.571 2105.91 775.58 2111.22C782.547 2118.1 796.717 2132.94 797.66 2137.26C798.604 2141.58 811.909 2155.56 818.444 2162Z" fill="#CAA672"/>
<path d="M819.532 2091.13L819.576 2093.62C827.48 2090.4 844.285 2082.57 850.417 2076.18C845.538 2080.98 828.055 2088.06 819.532 2091.13Z" fill="#715D58"/>
<path d="M775.836 2060.24C781.411 2066.98 804.987 2074.17 815.652 2077.19L815.575 2075.73C806.281 2073.55 785.321 2067.4 775.836 2060.24Z" fill="#715D58"/>
<path d="M736.001 1994.81C750.647 2017.23 793.124 2029.6 812.531 2032.99L812.314 2030.35C795.038 2026.69 755.589 2014.46 736.001 1994.81Z" fill="#715D58"/>
<path d="M815.327 2013.73C827.274 2008.53 854.548 1993.7 868.067 1975.94C857.563 1989.39 828.368 2005.18 815.084 2011.4L815.327 2013.73Z" fill="#715D58"/>
<path d="M739.173 1956.67C759.75 1977.85 794.299 1990.36 809.002 1993.97L808.643 1990.14C792.448 1985.81 755.88 1973.05 739.173 1956.67Z" fill="#715D58"/>
<path d="M810.754 1970.32L811.012 1972.34C819.775 1968.15 842.142 1952.99 862.898 1925.4C847.57 1945.5 821.966 1963.61 810.754 1970.32Z" fill="#715D58"/>
<path d="M768.207 1936.32C779.124 1945.04 796.762 1948.45 804.216 1949.07L803.802 1945.47C797.946 1945.39 782.629 1943.45 768.207 1936.32Z" fill="#715D58"/>
<path d="M805.416 1929.29C810.59 1928.09 825.669 1919.91 844.6 1896.83C822.005 1918.87 808.857 1926.38 805.108 1927.38L805.416 1929.29Z" fill="#715D58"/>
<path d="M699.452 2089.75C701.82 2078.61 706.158 2055.11 704.572 2050.27C705.211 2056.03 700.336 2077.96 697.819 2088.21L699.452 2089.75Z" fill="#715D58"/>
<path d="M666.98 2058.74L668.571 2060.61C673.754 2050.48 683.597 2025.71 683.39 2004.53C683.047 2018.94 672.564 2046.14 666.98 2058.74Z" fill="#715D58"/>
<path d="M632.378 2026.97C643.897 2009.84 664.036 1971.11 652.446 1953.24C661.734 1969.48 641.653 2008.13 630.452 2025.43L632.378 2026.97Z" fill="#715D58"/>
<path d="M613.647 2025.3L619.762 2021.61L617.616 2019.3L610.864 2023.84C611.78 2024.31 612.709 2024.8 613.647 2025.3Z" fill="#715D58"/>
<path d="M607.837 2003.61L610.161 2006.06C615.892 1989.7 626.282 1952.58 622.896 1932.69C625.21 1947.64 613.928 1985.91 607.837 2003.61Z" fill="#715D58"/>
<path d="M519.256 1981.19C534.584 1989.03 564.919 1978.8 578.17 1972.71L576.843 1970.87C562.392 1976.62 530.643 1986.72 519.256 1981.19Z" fill="#715D58"/>
<path d="M889.922 2263C902.122 2265.05 907.81 2258.85 909.129 2255.5L898.106 2247.68C895.459 2250.27 889.208 2255.15 885.374 2253.93C881.539 2252.7 871.01 2257.56 866.225 2260.13L865.009 2261.49L861.514 2265.38L855.3 2278.02L848.073 2282.98L842.213 2287.82L834.49 2290.84L833.76 2293.63L832.202 2299.61L827.193 2318.8L803.57 2329.31C799.366 2331.94 788.169 2336.94 777.015 2335.85C763.072 2334.49 730.735 2344.15 712.249 2346.48C697.46 2348.34 664.811 2355.3 650.335 2358.54C642.074 2362.66 629.393 2369.4 618.982 2375.83C618.086 2376.39 617.206 2376.94 616.348 2377.49C608.123 2382.74 601.833 2387.62 601.232 2390.5C599.841 2397.17 591.653 2405.88 587.733 2409.4C581.943 2417.69 570.12 2438.79 569.144 2456.88C569.086 2457.95 569.047 2459.03 569.025 2460.12C568.67 2477.46 572.607 2496.94 574.746 2504.91L568.918 2515.49L583.276 2516.26C601.925 2524.65 647.111 2539.03 678.668 2529.42C710.225 2519.82 729.655 2504.53 735.425 2498.09C740.368 2492.05 752.719 2477.89 762.586 2469.6C772.454 2461.32 788.346 2436.27 795.059 2424.78C800.68 2415.21 812.827 2395.41 816.446 2392.8C820.065 2390.19 833.411 2363.97 839.632 2351.18L838.951 2303.99L841.542 2294.04L851.64 2290.09C852.952 2281.75 865.299 2273.41 871.309 2270.28C872.43 2267 877.722 2260.96 889.922 2263Z" fill="#B59460"/>
<path d="M569.144 2456.88C570.12 2438.79 581.943 2417.69 587.733 2409.4C591.653 2405.88 599.841 2397.17 601.232 2390.5C601.833 2387.62 608.123 2382.74 616.348 2377.49L614.388 2370.19L574.582 2379.85L550.155 2383.08C551.071 2396.25 549.316 2424.88 534.973 2434.06C545.324 2427.12 547.779 2397.4 547.713 2383.4L489.755 2391.08L573.155 2377L594.181 2371.7C578.347 2359.6 543.338 2334.94 526.93 2330.73C526.504 2330.62 526.083 2330.53 525.667 2330.44C526.075 2330.52 526.496 2330.62 526.93 2330.73C548.881 2336.08 583.066 2359.55 597.665 2370.83L616.047 2366.2L625.948 2362.33C612.607 2346.26 580.781 2314.35 560.2 2315.24C583.402 2313.15 615.284 2345.14 628.324 2361.4L657.432 2350.02L675.27 2346.4C664.497 2336.77 640.616 2317.26 625.844 2311.12C624.79 2310.72 623.735 2310.34 622.681 2309.98C623.678 2310.28 624.735 2310.66 625.844 2311.12C647.846 2319.57 669.47 2337.58 677.849 2345.88L718.293 2333.5C708.716 2327.3 688.007 2314.46 681.788 2312.63C687.436 2313.32 709.984 2326.37 720.552 2332.81L755.347 2324.28L782.919 2315.03L809.734 2301.92C796.213 2306.19 782.849 2309.64 779.441 2308.09C773.799 2305.53 738.379 2305.7 721.374 2306.1C701.971 2303.61 659.624 2299.12 645.453 2301.08C631.281 2303.04 602.434 2299.66 589.782 2297.72C579.721 2296.55 550.605 2297.79 514.63 2312.19C478.655 2326.59 461.955 2342.85 458.102 2349.18C451.796 2354.55 438.398 2369.77 435.252 2387.69C429.654 2396.17 422.46 2400.28 419.562 2401.27L438.408 2408.16C443.501 2415.96 457.329 2433.16 471.899 2439.55C490.112 2447.54 568.906 2463.36 569.025 2460.12C569.047 2459.03 569.086 2457.95 569.144 2456.88Z" fill="#CAA672"/>
<path d="M650.335 2358.54C664.811 2355.3 697.46 2348.34 712.249 2346.48C730.735 2344.15 763.072 2334.49 777.015 2335.85L797.964 2324.26L832.202 2299.61L833.76 2293.63C827.523 2295.96 818.594 2299.12 809.734 2301.92L784.524 2318.24L756.792 2327.16L722.211 2336.12L679.365 2348.9L659.037 2353.23L617.652 2369.4L618.982 2375.83C629.393 2369.4 642.074 2362.66 650.335 2358.54Z" fill="#CAA672"/>
<path d="M809.734 2301.92L782.919 2315.03L755.347 2324.28L720.552 2332.81L718.293 2333.5L677.849 2345.88L675.27 2346.4L657.432 2350.02L628.324 2361.4L625.948 2362.33L616.047 2366.2L597.665 2370.83L594.181 2371.7L573.155 2377L489.755 2391.08L547.713 2383.4L550.155 2383.08L574.582 2379.85L614.388 2370.19L617.652 2369.4L659.037 2353.23L679.365 2348.9L722.211 2336.12L756.792 2327.16L784.524 2318.24L809.734 2301.92Z" fill="#715D58"/>
<path d="M539.432 2168.43C538.807 2170.21 544.924 2178.13 548.061 2181.87L565.437 2174.02L595.502 2181.56C595.993 2178.13 593.567 2164.47 579.94 2137.28C596.132 2161.94 598.462 2177.43 597.603 2182.09L600.919 2182.92L642.221 2194.46C639.835 2182.69 631.513 2154.67 616.945 2134.13C616.463 2133.46 615.974 2132.79 615.477 2132.12C615.973 2132.78 616.462 2133.45 616.945 2134.13C637.053 2162.09 643.65 2186.3 644.424 2195.08L686.49 2207.67C685.456 2194.42 680.979 2164.45 671.341 2150.51C684.213 2168.63 688.475 2196.67 688.997 2208.42L693.455 2209.75L728.721 2220.59L739.554 2224.72L770.787 2236.49C771.074 2228.36 770.857 2211.38 767.873 2205.49C767.72 2205.21 767.563 2204.95 767.402 2204.69C767.566 2204.93 767.723 2205.2 767.873 2205.49C772 2213.04 773.27 2229.78 773.385 2237.47L778.376 2239.35L846.321 2257.27L849.628 2257.26L848.587 2252.34C848.758 2251.43 848.047 2248.81 843.831 2245.69C822.408 2237.72 806.912 2214.86 801.841 2204.43C795.687 2198.6 780.155 2185.53 767.264 2179.85C734.591 2164.74 712.516 2128.25 708.169 2127.61C703.417 2129.46 670.607 2117.39 660.228 2114.63C649.85 2111.88 639.668 2104.79 636.152 2102.97C633.339 2101.52 619.196 2103 612.476 2103.92L588.208 2109.36C582.179 2112.93 567.832 2121.63 558.677 2127.93C542.953 2131.52 540.213 2166.21 539.432 2168.43Z" fill="#CAA672"/>
<path d="M846.56 2260.58L846.321 2257.27L778.376 2239.35L773.385 2237.47L770.787 2236.49L739.554 2224.72L728.721 2220.59L693.455 2209.75L688.997 2208.42L686.49 2207.67L644.424 2195.08L642.221 2194.46L600.919 2182.92L597.603 2182.09L595.502 2181.56L565.437 2174.02L548.061 2181.87L566.953 2177.04L602.881 2186.84L613.686 2189.97L617.576 2191.1L646.653 2199.53L661.869 2204.22L665.981 2205.49L695.952 2214.74L704.967 2217.61L707.784 2218.5L741.873 2229.35L753.244 2233.42L755.027 2233.72L780.042 2242.67L793.347 2246.54L846.56 2260.58Z" fill="#715D58"/>
<path d="M849.628 2257.26L846.321 2257.27L846.56 2260.58L861.514 2265.38L865.009 2261.49L849.628 2257.26Z" fill="#715D58"/>
<path d="M843.68 2266.18L846.56 2260.58L793.347 2246.54L780.042 2242.67L755.027 2233.72C754.949 2233.8 754.87 2233.87 754.79 2233.95C747.329 2241.33 730.31 2257.43 721.07 2259.19C732.333 2254.45 747.212 2240.03 753.244 2233.42L741.873 2229.35L707.784 2218.5C696.393 2232.78 666.324 2262.02 637.181 2264.73C665.467 2256.91 694.157 2230.06 704.967 2217.61L695.952 2214.74L665.981 2205.49C656.273 2215.89 629.286 2238.67 599.002 2246.66C622.747 2239.84 650.807 2215.53 661.869 2204.22L646.653 2199.53L617.576 2191.1C613.91 2196.86 603.212 2209.71 589.747 2214.97C602.986 2206.23 611.222 2194.66 613.686 2189.97L602.881 2186.84L566.953 2177.04L548.061 2181.87C545.586 2182.13 539.495 2183.77 534.934 2188.28C531.702 2205.93 545.465 2230.56 554.064 2242.52C560.944 2252.09 580.992 2262.07 590.156 2265.87C597.501 2269.03 617.514 2276.8 638.802 2282.61C660.089 2288.42 696.001 2287.28 711.296 2285.99C714.731 2283.87 724.678 2279.99 736.981 2281.49C749.284 2282.98 766.591 2281.19 773.707 2280.11C783.658 2277.29 804.773 2271.89 809.629 2272.89C814.486 2273.88 834.353 2268.83 843.68 2266.18Z" fill="#CAA672"/>
<path d="M770.787 2236.49L773.385 2237.47C773.27 2229.78 772 2213.04 767.873 2205.49C770.857 2211.38 771.074 2228.36 770.787 2236.49Z" fill="#715D58"/>
<path d="M721.07 2259.19C730.31 2257.43 747.329 2241.33 754.79 2233.95L753.244 2233.42C747.212 2240.03 732.333 2254.45 721.07 2259.19Z" fill="#715D58"/>
<path d="M637.181 2264.73C666.324 2262.02 696.393 2232.78 707.784 2218.5L704.967 2217.61C694.157 2230.06 665.467 2256.91 637.181 2264.73Z" fill="#715D58"/>
<path d="M688.997 2208.42C688.475 2196.67 684.213 2168.63 671.341 2150.51C680.979 2164.45 685.456 2194.42 686.49 2207.67L688.997 2208.42Z" fill="#715D58"/>
<path d="M599.002 2246.66C629.286 2238.67 656.273 2215.89 665.981 2205.49L661.869 2204.22C650.807 2215.53 622.747 2239.84 599.002 2246.66Z" fill="#715D58"/>
<path d="M642.221 2194.46L644.424 2195.08C643.65 2186.3 637.053 2162.09 616.945 2134.13C631.513 2154.67 639.835 2182.69 642.221 2194.46Z" fill="#715D58"/>
<path d="M589.747 2214.97C603.212 2209.71 613.91 2196.86 617.576 2191.1L613.686 2189.97C611.222 2194.66 602.986 2206.23 589.747 2214.97Z" fill="#715D58"/>
<path d="M597.603 2182.09C598.462 2177.43 596.132 2161.94 579.94 2137.28C593.567 2164.47 595.993 2178.13 595.502 2181.56L597.603 2182.09Z" fill="#715D58"/>
<path d="M720.552 2332.81C709.984 2326.37 687.436 2313.32 681.788 2312.63C688.007 2314.46 708.716 2327.3 718.293 2333.5L720.552 2332.81Z" fill="#715D58"/>
<path d="M675.27 2346.4L677.849 2345.88C669.47 2337.58 647.846 2319.57 625.844 2311.12C640.616 2317.26 664.497 2336.77 675.27 2346.4Z" fill="#715D58"/>
<path d="M628.324 2361.4C615.284 2345.14 583.402 2313.15 560.2 2315.24C580.781 2314.35 612.607 2346.26 625.948 2362.33L628.324 2361.4Z" fill="#715D58"/>
<path d="M618.982 2375.83L617.652 2369.4L614.388 2370.19L616.348 2377.49C617.206 2376.94 618.086 2376.39 618.982 2375.83Z" fill="#715D58"/>
<path d="M594.181 2371.7L597.665 2370.83C583.066 2359.55 548.881 2336.08 526.93 2330.73C543.338 2334.94 578.347 2359.6 594.181 2371.7Z" fill="#715D58"/>
<path d="M534.973 2434.06C549.316 2424.88 551.071 2396.25 550.155 2383.08L547.713 2383.4C547.779 2397.4 545.324 2427.12 534.973 2434.06Z" fill="#715D58"/>
<path d="M2043.62 2148.13C2040.77 2158.81 2032.05 2160.88 2028.04 2160.58L2024.43 2148.5C2028.19 2147.42 2035.78 2144.37 2036.07 2140.77C2036.36 2137.18 2045.66 2130.66 2050.28 2127.85L2052.17 2127.42L2057.62 2126.18L2073.23 2126.3L2081.29 2122.49L2088.68 2119.73L2094.95 2114.72L2098.14 2115.27L2104.95 2116.44L2126.85 2120.2L2147.32 2105.42C2151.76 2103.1 2161.48 2096.1 2164.89 2086.65C2169.15 2074.85 2192.28 2052.69 2202.21 2038.72C2210.15 2027.55 2230.62 2004.03 2239.86 1993.67C2247.48 1988.68 2259.6 1981.19 2270.49 1975.41C2271.43 1974.91 2272.36 1974.42 2273.28 1973.95C2282.05 1969.45 2289.66 1966.36 2292.88 1967.05C2300.35 1968.64 2312.69 1965.57 2317.92 1963.84C2328.86 1962.54 2355.5 1961.58 2374.61 1968.14C2375.74 1968.53 2376.87 1968.94 2378.01 1969.36C2396.1 1976.13 2414.65 1987.22 2422.03 1992.19L2435.34 1991.79L2430.31 2003.69C2431.41 2022.14 2427.91 2064.44 2405.15 2086C2382.38 2107.55 2358.67 2117.01 2349.66 2119.05C2341.39 2120.58 2321.72 2124.79 2309.14 2129.38C2296.56 2133.98 2264.18 2136.62 2249.56 2137.36C2237.37 2138 2211.95 2139.75 2207.78 2141.62C2203.61 2143.48 2171.05 2143.58 2155.29 2143.4L2106.74 2123.67L2095.39 2121.72L2087.21 2128.26C2078.04 2125.93 2064.39 2132.5 2058.71 2136.07C2054.86 2135.65 2046.46 2137.46 2043.62 2148.13Z" fill="#B59460"/>
<path d="M2374.61 1968.14C2355.5 1961.58 2328.86 1962.54 2317.92 1963.84C2312.69 1965.57 2300.35 1968.64 2292.88 1967.05C2289.66 1966.36 2282.05 1969.45 2273.28 1973.95L2266.52 1969.41L2292.7 1941.22L2305.97 1922.83C2319.22 1928.92 2349.56 1939.14 2364.88 1931.3C2353.5 1936.83 2321.75 1926.73 2307.3 1920.99L2338.8 1877.35L2290.33 1938.91L2276.3 1953.72C2270.21 1936.02 2258.93 1897.76 2261.24 1882.81C2261.31 1882.42 2261.38 1882.04 2261.46 1881.67C2261.38 1882.03 2261.31 1882.41 2261.24 1882.81C2257.86 1902.69 2268.25 1939.81 2273.98 1956.17L2261.72 1969.12L2253.69 1975.54C2242.49 1958.24 2222.41 1919.59 2231.69 1903.35C2220.1 1921.22 2240.24 1959.95 2251.76 1977.08L2228.16 1995.94L2217.16 2008.86C2211.58 1996.25 2201.09 1969.05 2200.75 1954.64C2200.76 1953.62 2200.79 1952.62 2200.85 1951.62C2200.76 1952.55 2200.72 1953.56 2200.75 1954.64C2200.54 1975.82 2210.39 2000.59 2215.57 2010.72L2186.32 2038.32C2183.8 2028.08 2178.93 2006.15 2179.57 2000.39C2177.98 2005.22 2182.32 2028.72 2184.69 2039.86L2161.72 2064.47L2140.95 2082.95L2116.47 2099.26C2126.39 2090.08 2135.39 2080.71 2135.18 2077.33C2134.82 2071.73 2149.39 2043.22 2156.72 2029.67C2162.03 2013 2174.6 1977.01 2182.39 1966.38C2190.18 1955.74 2198.4 1931.09 2201.54 1920.1C2204.42 1911.5 2217.54 1888.52 2247.07 1865.35C2276.59 1842.18 2300.2 1835.31 2308.31 1834.78C2316.44 1831.87 2337.63 1827.25 2357.45 1832C2368.5 1830.93 2375.67 1826.79 2377.87 1824.86L2377.35 1842.87C2383.35 1850.14 2395.52 1868.29 2396.21 1882.64C2397.08 1900.59 2381.41 1970.59 2378.01 1969.36C2376.87 1968.94 2375.74 1968.53 2374.61 1968.14Z" fill="#CAA672"/>
<path d="M2239.86 1993.67C2230.62 2004.03 2210.15 2027.55 2202.21 2038.72C2192.28 2052.69 2169.15 2074.85 2164.89 2086.65L2144.38 2098.84L2104.95 2116.44L2098.14 2115.27C2103.08 2111.19 2109.98 2105.27 2116.47 2099.26L2143.61 2085.55L2164.11 2066.8L2187.44 2042.55L2218.08 2013.18L2230.82 1998.53L2264.38 1971.72L2270.49 1975.41C2259.6 1981.19 2247.48 1988.68 2239.86 1993.67Z" fill="#CAA672"/>
<path d="M2116.47 2099.26L2140.95 2082.95L2161.72 2064.47L2184.69 2039.86L2186.32 2038.32L2215.57 2010.72L2217.16 2008.86L2228.16 1995.94L2251.76 1977.08L2253.69 1975.54L2261.72 1969.12L2273.98 1956.17L2276.3 1953.72L2290.33 1938.91L2338.8 1877.35L2307.3 1920.99L2305.97 1922.83L2292.7 1941.22L2266.52 1969.41L2264.38 1971.72L2230.82 1998.53L2218.08 2013.18L2187.44 2042.55L2164.11 2066.8L2143.61 2085.55L2116.47 2099.26Z" fill="#715D58"/>
<path d="M2088.24 1826.92C2090.33 1827.14 2096.04 1835.29 2098.64 1839.34L2083.45 1850.17L2079.03 1877.49C2075.28 1876.49 2062.14 1868.98 2039.54 1846.94C2058.47 1870.02 2073.55 1878.2 2078.72 1879.4L2078.24 1882.42L2073.39 1920.43C2062.17 1913.72 2036.57 1895.61 2021.24 1875.51C2020.75 1874.85 2020.25 1874.18 2019.75 1873.51C2020.24 1874.18 2020.73 1874.85 2021.24 1875.51C2042 1903.1 2064.37 1918.27 2073.13 1922.46L2069.06 1961.51C2055.77 1955.29 2026.58 1939.5 2016.07 1926.06C2029.59 1943.81 2056.87 1958.64 2068.81 1963.84L2068.38 1967.98L2065.26 2000.84L2065.13 2011.26L2064.61 2041.24C2056.09 2038.17 2038.6 2031.09 2033.72 2026.29C2033.5 2026.05 2033.28 2025.81 2033.09 2025.58C2033.26 2025.81 2033.48 2026.05 2033.72 2026.29C2039.86 2032.68 2056.66 2040.52 2064.56 2043.73L2064.48 2048.52L2055.41 2110.63L2054.05 2113.29L2049.39 2110.45C2048.37 2110.21 2045.95 2108.58 2044.44 2103.91C2044.9 2083.38 2027.55 2061.59 2018.81 2053.26C2015.29 2045.93 2008.08 2028.08 2007.44 2015.37C2005.08 1982.87 1976.3 1950.23 1977.4 1946.46C1981.26 1943.38 1982.1 1912 1983.47 1902.51C1984.84 1893.01 1981.64 1881.92 1981.19 1878.34C1980.83 1875.48 1988.11 1864.67 1991.8 1859.63L2007.3 1842.26C2013.43 1838.84 2028.26 1830.8 2038.51 1825.98C2048.61 1814.75 2085.62 1826.65 2088.24 1826.92Z" fill="#CAA672"/>
<path d="M2058.74 2112.16L2055.41 2110.63L2064.48 2048.52L2064.56 2043.73L2064.61 2041.24L2065.13 2011.26L2065.26 2000.84L2068.38 1967.98L2068.81 1963.84L2069.06 1961.51L2073.13 1922.46L2073.39 1920.43L2078.24 1882.42L2078.72 1879.4L2079.03 1877.49L2083.45 1850.17L2098.64 1839.34L2085.96 1852.62L2081.49 1885.59L2080.34 1895.58L2079.92 1899.18L2076.82 1926.06L2075.5 1940.25L2075.14 1944.08L2072.52 1972.02L2071.83 1980.46L2071.61 1983.1L2068.98 2015.01L2068.57 2025.84L2068.15 2027.4L2067.24 2051.22L2065.84 2063.52L2058.74 2112.16Z" fill="#715D58"/>
<path d="M2054.05 2113.29L2055.41 2110.63L2058.74 2112.16L2057.62 2126.18L2052.17 2127.42L2054.05 2113.29Z" fill="#715D58"/>
<path d="M2065.7 2112.12L2058.74 2112.16L2065.84 2063.52L2067.24 2051.22L2068.15 2027.4C2068.26 2027.37 2068.37 2027.33 2068.49 2027.3C2079.15 2024.28 2102.73 2017.09 2108.3 2010.35C2098.82 2017.51 2077.86 2023.66 2068.57 2025.84L2068.98 2015.01L2071.61 1983.1C2091.02 1979.71 2133.49 1967.34 2148.14 1944.93C2128.55 1964.57 2089.1 1976.8 2071.83 1980.46L2072.52 1972.02L2075.14 1944.08C2089.84 1940.47 2124.39 1927.96 2144.97 1906.78C2128.26 1923.17 2091.69 1935.92 2075.5 1940.25L2076.82 1926.06L2079.92 1899.18C2087.38 1898.56 2105.02 1895.15 2115.93 1886.43C2101.51 1893.56 2086.19 1895.5 2080.34 1895.58L2081.49 1885.59L2085.96 1852.62L2098.64 1839.34C2099.91 1837.45 2104.09 1833.21 2110.6 1831.36C2130.18 1835.92 2150.06 1857.04 2158.94 1868.84C2166.05 1878.28 2168.23 1898.51 2168.43 1907.45C2168.72 1914.66 2168.62 1933.97 2165.98 1953.5C2163.34 1973.04 2147.57 2001.55 2140.01 2013.36C2136.42 2015.27 2128.37 2021.72 2124.91 2032.25C2121.45 2042.79 2112.57 2056.02 2108.56 2061.33C2101.59 2068.21 2087.42 2083.05 2086.48 2087.37C2085.54 2091.69 2072.23 2105.67 2065.7 2112.12Z" fill="#CAA672"/>
<path d="M2064.61 2041.24L2064.56 2043.73C2056.66 2040.52 2039.86 2032.68 2033.72 2026.29C2038.6 2031.09 2056.09 2038.17 2064.61 2041.24Z" fill="#715D58"/>
<path d="M2108.3 2010.35C2102.73 2017.09 2079.15 2024.28 2068.49 2027.3L2068.57 2025.84C2077.86 2023.66 2098.82 2017.51 2108.3 2010.35Z" fill="#715D58"/>
<path d="M2148.14 1944.93C2133.49 1967.34 2091.02 1979.71 2071.61 1983.1L2071.83 1980.46C2089.1 1976.8 2128.55 1964.57 2148.14 1944.93Z" fill="#715D58"/>
<path d="M2068.81 1963.84C2056.87 1958.64 2029.59 1943.81 2016.07 1926.06C2026.58 1939.5 2055.77 1955.29 2069.06 1961.51L2068.81 1963.84Z" fill="#715D58"/>
<path d="M2144.97 1906.78C2124.39 1927.96 2089.84 1940.47 2075.14 1944.08L2075.5 1940.25C2091.69 1935.92 2128.26 1923.17 2144.97 1906.78Z" fill="#715D58"/>
<path d="M2073.39 1920.43L2073.13 1922.46C2064.37 1918.27 2042 1903.1 2021.24 1875.51C2036.57 1895.61 2062.17 1913.72 2073.39 1920.43Z" fill="#715D58"/>
<path d="M2115.93 1886.43C2105.02 1895.15 2087.38 1898.56 2079.92 1899.18L2080.34 1895.58C2086.19 1895.5 2101.51 1893.56 2115.93 1886.43Z" fill="#715D58"/>
<path d="M2078.72 1879.4C2073.55 1878.2 2058.47 1870.02 2039.54 1846.94C2062.14 1868.98 2075.28 1876.49 2079.03 1877.49L2078.72 1879.4Z" fill="#715D58"/>
<path d="M2184.69 2039.86C2182.32 2028.72 2177.98 2005.22 2179.57 2000.39C2178.93 2006.15 2183.8 2028.08 2186.32 2038.32L2184.69 2039.86Z" fill="#715D58"/>
<path d="M2217.16 2008.86L2215.57 2010.72C2210.39 2000.59 2200.54 1975.82 2200.75 1954.64C2201.09 1969.05 2211.58 1996.25 2217.16 2008.86Z" fill="#715D58"/>
<path d="M2251.76 1977.08C2240.24 1959.95 2220.1 1921.22 2231.69 1903.35C2222.41 1919.59 2242.49 1958.24 2253.69 1975.54L2251.76 1977.08Z" fill="#715D58"/>
<path d="M2270.49 1975.41L2264.38 1971.72L2266.52 1969.41L2273.28 1973.95C2272.36 1974.42 2271.43 1974.91 2270.49 1975.41Z" fill="#715D58"/>
<path d="M2276.3 1953.72L2273.98 1956.17C2268.25 1939.81 2257.86 1902.69 2261.24 1882.81C2258.93 1897.76 2270.21 1936.02 2276.3 1953.72Z" fill="#715D58"/>
<path d="M2364.88 1931.3C2349.56 1939.14 2319.22 1928.92 2305.97 1922.83L2307.3 1920.99C2321.75 1926.73 2353.5 1936.83 2364.88 1931.3Z" fill="#715D58"/>
<path d="M2063.46 2304.62C2053.72 2311.42 2045.43 2308.26 2042.5 2305.83L2048.16 2294.39C2051.87 2295.6 2059.97 2297.37 2062.73 2294.72C2065.48 2292.06 2077.36 2292.05 2082.95 2292.38L2084.74 2293.08L2089.88 2295.1L2102.02 2303.76L2111.02 2305.19L2118.76 2307.09L2127.19 2306.6L2129.3 2308.78L2133.82 2313.43L2148.33 2328.39L2174.78 2328.04C2179.89 2328.65 2192.43 2328.5 2201.74 2322.97C2213.38 2316.06 2247.11 2311.38 2264.71 2305.88C2278.79 2301.48 2311.38 2294.28 2325.91 2291.23C2335.39 2291.5 2350.16 2292.28 2362.76 2293.72C2363.85 2293.85 2364.92 2293.98 2365.97 2294.11C2376.01 2295.4 2384.14 2297.15 2386.19 2299.46C2390.92 2304.8 2402.75 2309.16 2408.07 2310.68C2417.55 2315.66 2439.1 2329.52 2449.46 2345.15C2450.07 2346.07 2450.68 2347.01 2451.27 2347.97C2460.68 2363.19 2467.42 2382.06 2469.71 2390L2480.42 2396.99L2468.1 2403.55C2455.98 2418.62 2423.49 2449.85 2390.48 2454.25C2357.48 2458.65 2332.24 2453.06 2323.74 2449.71C2316.19 2446.38 2297.81 2438.89 2284.72 2435.58C2271.63 2432.28 2244.4 2416.59 2232.42 2409.15C2222.42 2402.97 2201.26 2390.4 2196.69 2389.57C2192.11 2388.74 2166.52 2370.96 2154.3 2362.18L2130.14 2320.08L2122.62 2312.32L2111.6 2312.96C2106.06 2306.1 2090.74 2303.76 2083.77 2303.45C2081.06 2301.01 2073.2 2297.82 2063.46 2304.62Z" fill="#B59460"/>
<path d="M2449.46 2345.15C2439.1 2329.52 2417.55 2315.66 2408.07 2310.68C2402.75 2309.16 2390.92 2304.8 2386.19 2299.46C2384.14 2297.15 2376.01 2295.4 2365.97 2294.11L2363.87 2286.85L2404.21 2279.11L2427.56 2271.98C2433.65 2284.02 2450.23 2308.67 2467.76 2310.94C2454.95 2309.03 2437.17 2283.69 2429.89 2271.27L2485.27 2254.35L2403.98 2276L2382.57 2279.92C2390.25 2262.71 2408.33 2226.53 2420.66 2216.08C2420.98 2215.82 2421.31 2215.56 2421.63 2215.31C2421.31 2215.55 2420.99 2215.81 2420.66 2216.08C2404.02 2229.81 2386.04 2264.6 2379.03 2280.56L2360.31 2283.98L2349.5 2284.61C2352.89 2264.91 2364.35 2223.61 2383.05 2215.98C2361.4 2223.62 2349.93 2265.02 2346.91 2284.76L2315.15 2286.59L2297.44 2290.68C2301.93 2277.74 2312.85 2250.67 2322.72 2239.19C2323.44 2238.4 2324.18 2237.63 2324.92 2236.88C2324.2 2237.56 2323.46 2238.33 2322.72 2239.19C2307.66 2255.68 2297.95 2280.48 2294.88 2291.27L2252.54 2296.85C2257.78 2287.44 2269.39 2267.58 2273.94 2263.42C2269.29 2266.34 2256.16 2287.13 2250.18 2297.16L2214.87 2303.84L2185.58 2306.94L2154.94 2306.29C2169.16 2304.54 2182.82 2302.13 2185.02 2299.36C2188.68 2294.78 2220.15 2280.43 2235.43 2273.83C2251.32 2263.69 2286.49 2242.38 2300.07 2238.32C2313.66 2234.25 2337.45 2219.45 2347.64 2212.56C2355.94 2207.4 2382.4 2196.59 2421.83 2194.63C2461.27 2192.66 2484.6 2200.24 2491.33 2204.27C2499.74 2206.45 2519.6 2214.46 2531.79 2229.04C2541.21 2234.27 2549.74 2234.96 2552.82 2234.65L2539.74 2248.48C2539.32 2257.47 2536.09 2278.37 2526.54 2290C2514.59 2304.53 2453.07 2350.79 2451.27 2347.97C2450.68 2347.01 2450.07 2346.07 2449.46 2345.15Z" fill="#CAA672"/>
<path d="M2325.91 2291.23C2311.38 2294.28 2278.79 2301.48 2264.71 2305.88C2247.11 2311.38 2213.38 2316.06 2201.74 2322.97L2177.1 2321.27L2133.82 2313.43L2129.3 2308.78C2136.05 2308.29 2145.62 2307.43 2154.94 2306.29L2185.84 2310.43L2215.1 2306.99L2250.45 2300.78L2295.12 2294.57L2315.4 2290.09L2360.56 2287.48L2362.76 2293.72C2350.16 2292.28 2335.39 2291.5 2325.91 2291.23Z" fill="#CAA672"/>
<path d="M2154.94 2306.29L2185.58 2306.94L2214.87 2303.84L2250.18 2297.16L2252.54 2296.85L2294.88 2291.27L2297.44 2290.68L2315.15 2286.59L2346.91 2284.76L2349.5 2284.61L2360.31 2283.98L2379.03 2280.56L2382.57 2279.92L2403.98 2276L2485.27 2254.35L2429.89 2271.27L2427.56 2271.98L2404.21 2279.11L2363.87 2286.85L2360.56 2287.48L2315.4 2290.09L2295.12 2294.57L2250.45 2300.78L2215.1 2306.99L2185.84 2310.43L2154.94 2306.29Z" fill="#715D58"/>
<path d="M2324.41 2077.39C2325.89 2078.7 2324.63 2088.23 2323.81 2092.83L2304.29 2092.98L2281.61 2111.97C2279.38 2109.13 2274.36 2096.03 2272.16 2066.36C2270.75 2094.84 2276.82 2109.51 2280.03 2113.29L2277.52 2115.39L2246.98 2142.52C2242.92 2131.11 2235.59 2102.88 2237.72 2078.71C2237.79 2077.92 2237.87 2077.13 2237.96 2076.33C2237.87 2077.12 2237.79 2077.91 2237.72 2078.71C2234.57 2111.72 2241.43 2135.87 2245.35 2143.96L2214.68 2172.34C2208.65 2160.18 2196.88 2131.78 2198.11 2115.49C2196.22 2136.81 2207.15 2163.4 2212.86 2174.03L2209.61 2177.03L2184.04 2201.07L2176.61 2209.16L2155.11 2232.37C2150.59 2225.29 2141.87 2210.15 2141.43 2203.71C2141.42 2203.4 2141.41 2203.1 2141.42 2202.81C2141.4 2203.09 2141.4 2203.39 2141.43 2203.71C2141.73 2212.09 2149.39 2227.44 2153.32 2234.3L2149.89 2238.01L2099.09 2281.7L2096.15 2283.04L2094.49 2278.26C2093.86 2277.52 2093.12 2274.91 2095.21 2270.42C2110.01 2254.58 2111.75 2227.99 2110.77 2216.67C2113.17 2208.99 2120.07 2191.05 2128.51 2180.74C2149.53 2153.98 2149.94 2112.61 2153.46 2110.26C2158.64 2109.96 2181.38 2085.83 2189.13 2079.15C2196.88 2072.46 2202.18 2062.01 2204.34 2058.96C2206.07 2056.52 2219.38 2052.05 2225.82 2050.12L2250.18 2045.01C2257.39 2045.69 2274.67 2047.53 2286.09 2049.37C2301.91 2046.12 2322.55 2075.74 2324.41 2077.39Z" fill="#CAA672"/>
<path d="M2100.61 2284.73L2099.09 2281.7L2149.89 2238.01L2153.32 2234.3L2155.11 2232.37L2176.61 2209.16L2184.04 2201.07L2209.61 2177.03L2212.86 2174.03L2214.68 2172.34L2245.35 2143.96L2246.98 2142.52L2277.52 2115.39L2280.03 2113.29L2281.61 2111.97L2304.29 2092.98L2323.81 2092.83L2304.54 2096.28L2277.84 2119.66L2269.91 2126.86L2267.05 2129.45L2245.71 2148.82L2234.69 2159.2L2231.71 2162.01L2210.01 2182.47L2203.53 2188.7L2201.5 2190.65L2176.99 2214.21L2169.05 2222.47L2167.62 2223.47L2150.16 2241.64L2140.4 2250.51L2100.61 2284.73Z" fill="#715D58"/>
<path d="M2096.15 2283.04L2099.09 2281.7L2100.61 2284.73L2089.88 2295.1L2084.74 2293.08L2096.15 2283.04Z" fill="#715D58"/>
<path d="M2106.1 2288.51L2100.61 2284.73L2140.4 2250.51L2150.16 2241.64L2167.62 2223.47C2167.73 2223.5 2167.84 2223.54 2167.96 2223.58C2178.44 2227.06 2201.97 2234.36 2211.08 2232.14C2198.61 2232.55 2177.86 2225.86 2169.05 2222.47L2176.99 2214.21L2201.5 2190.65C2219.09 2198.64 2261.08 2212.25 2288.33 2202.72C2259.16 2207.37 2219.64 2195.31 2203.53 2188.7L2210.01 2182.47L2231.71 2162.01C2245.77 2167.25 2281.65 2176.4 2312.68 2171.09C2288.06 2174.76 2250.43 2164.7 2234.69 2159.2L2245.71 2148.82L2267.05 2129.45C2273.33 2133.06 2289.55 2140.06 2304.24 2139.21C2287.92 2136.89 2274.56 2130.01 2269.91 2126.86L2277.84 2119.66L2304.54 2096.28L2323.81 2092.83C2326.14 2092.04 2332.4 2091.01 2338.81 2093.13C2350.93 2107.45 2351.66 2134.9 2350.32 2149.02C2349.25 2160.32 2336.72 2177.37 2330.59 2184.48C2325.74 2190.29 2312.09 2205.37 2296.27 2219.23C2280.46 2233.09 2248.04 2246.78 2233.81 2251.89C2229.65 2251.41 2218.8 2252.05 2208.68 2258.41C2198.57 2264.77 2182.29 2270.27 2175.42 2272.22C2165.12 2273.79 2143.58 2277.65 2139.8 2280.52C2136.02 2283.39 2115.76 2287.04 2106.1 2288.51Z" fill="#CAA672"/>
<path d="M2155.11 2232.37L2153.32 2234.3C2149.39 2227.44 2141.73 2212.09 2141.43 2203.71C2141.87 2210.15 2150.59 2225.29 2155.11 2232.37Z" fill="#715D58"/>
<path d="M2211.08 2232.14C2201.97 2234.36 2178.44 2227.06 2167.96 2223.58L2169.05 2222.47C2177.86 2225.86 2198.61 2232.55 2211.08 2232.14Z" fill="#715D58"/>
<path d="M2288.33 2202.72C2261.08 2212.25 2219.09 2198.64 2201.5 2190.65L2203.53 2188.7C2219.64 2195.31 2259.16 2207.37 2288.33 2202.72Z" fill="#715D58"/>
<path d="M2212.86 2174.03C2207.15 2163.4 2196.22 2136.81 2198.11 2115.49C2196.88 2131.78 2208.65 2160.18 2214.68 2172.34L2212.86 2174.03Z" fill="#715D58"/>
<path d="M2312.68 2171.09C2281.65 2176.4 2245.77 2167.25 2231.71 2162.01L2234.69 2159.2C2250.43 2164.7 2288.06 2174.76 2312.68 2171.09Z" fill="#715D58"/>
<path d="M2246.98 2142.52L2245.35 2143.96C2241.43 2135.87 2234.57 2111.72 2237.72 2078.71C2235.59 2102.88 2242.92 2131.11 2246.98 2142.52Z" fill="#715D58"/>
<path d="M2304.24 2139.21C2289.55 2140.06 2273.33 2133.06 2267.05 2129.45L2269.91 2126.86C2274.56 2130.01 2287.92 2136.89 2304.24 2139.21Z" fill="#715D58"/>
<path d="M2280.03 2113.29C2276.82 2109.51 2270.75 2094.84 2272.16 2066.36C2274.36 2096.03 2279.38 2109.13 2281.61 2111.97L2280.03 2113.29Z" fill="#715D58"/>
<path d="M2250.18 2297.16C2256.16 2287.13 2269.29 2266.34 2273.94 2263.42C2269.39 2267.58 2257.78 2287.44 2252.54 2296.85L2250.18 2297.16Z" fill="#715D58"/>
<path d="M2297.44 2290.68L2294.88 2291.27C2297.95 2280.48 2307.66 2255.68 2322.72 2239.19C2312.85 2250.67 2301.93 2277.74 2297.44 2290.68Z" fill="#715D58"/>
<path d="M2346.91 2284.76C2349.93 2265.02 2361.4 2223.62 2383.05 2215.98C2364.35 2223.61 2352.89 2264.91 2349.5 2284.61L2346.91 2284.76Z" fill="#715D58"/>
<path d="M2362.76 2293.72L2360.56 2287.48L2363.87 2286.85L2365.97 2294.11C2364.92 2293.98 2363.85 2293.85 2362.76 2293.72Z" fill="#715D58"/>
<path d="M2382.57 2279.92L2379.03 2280.56C2386.04 2264.6 2404.02 2229.81 2420.66 2216.08C2408.33 2226.53 2390.25 2262.71 2382.57 2279.92Z" fill="#715D58"/>
<path d="M2467.76 2310.94C2450.23 2308.67 2433.65 2284.02 2427.56 2271.98L2429.89 2271.27C2437.17 2283.69 2454.95 2309.03 2467.76 2310.94Z" fill="#715D58"/>
<path d="M1868.17 2280.62L1907.84 2262.58C1907.23 2261.96 1906.64 2261.37 1906.07 2260.82C1905.19 2259.96 1904.36 2259.19 1903.65 2258.53C1893.39 2263.7 1872.41 2273.99 1870.58 2273.82C1868.74 2273.65 1843.09 2288.68 1830.49 2296.22C1813.82 2306.17 1778.68 2327.6 1771.56 2333.71C1763.62 2338.19 1762.56 2342.4 1763.03 2343.94C1764.69 2344.21 1767.95 2344.23 1767.65 2342.15C1767.35 2340.08 1795.71 2322.44 1809.93 2313.88L1836.53 2297.59L1868.17 2280.62Z" fill="#514842"/>
<path d="M1767.65 2342.15C1767.95 2344.23 1764.69 2344.21 1763.03 2343.94L1694.48 2355.85L1702.92 2363.52L1748.66 2353.37L1796.64 2346.01L1805.54 2351.48L1822.18 2356.85L1846.94 2363.61L1867.33 2369.02L1903.76 2378.51L1934.79 2385.35L1958.94 2391.18L1963.96 2391.24L1965.25 2388.67L1964.43 2387.92L1963.6 2387.18L1935.7 2380.93L1904.25 2373.72L1869.07 2364.98L1849.71 2360.13L1826.2 2353.39L1809.36 2348.2L1804.42 2343.71L1818.85 2343.33L1854.63 2340.63L1873.04 2340.11L1897.96 2336.91L1965.98 2331.65L2018.3 2327.85L2080.42 2325.84L2077.95 2323.6L2078.82 2321.39L2018.58 2323.61L1964.8 2327.2L1896.58 2332.28L1873.95 2335.7L1856.6 2335.67L1821.02 2338.19L1767.65 2342.15Z" fill="#514842"/>
<path d="M1966.5 2376.32C1971.44 2381.11 1969.99 2384.61 1968.64 2385.76L1975.56 2384.55L1996.45 2372.81L2009.75 2364.66L2012.02 2366.72L2000.57 2376.55L1978.24 2386.98L2012.34 2385.37L2058.05 2389.43L2136.17 2392.6L2135.92 2394.99L2055.88 2394.2L2016.87 2389.48L1988.63 2390.43L1979.64 2390.51L1987.3 2395.22L2011.38 2405.11L2031.85 2418.83L2051.34 2428.66L2072.59 2432.98L2074.85 2435.04L2051.72 2430.88L2033.69 2421.62L2011.34 2408.06L1986.82 2398.9L1978.94 2395.11L1973.55 2392.46L1981.76 2401.42L1979.82 2404.91L1976.37 2398.77C1968.58 2402.19 1955.77 2411.07 1966.84 2419.33C1977.9 2427.59 2016.9 2446.58 2035.02 2455.04C2039.53 2456.02 2051.74 2457.65 2064.47 2456.33C2090.17 2459.3 2127.02 2448.72 2142.24 2443.06L2209.05 2422.46L2272.17 2397.02L2309.84 2382.16L2269.2 2387.57L2177.81 2364.49C2173.93 2363.74 2169.28 2362.83 2164.15 2361.82C2141.33 2357.35 2109.1 2350.96 2092.89 2347.52C2090.95 2347.11 2089.25 2346.74 2087.81 2346.42C2073.01 2341.66 2042.17 2338.3 2028.6 2337.21C2016.12 2337.86 1989.72 2339.58 1984.01 2341.28C1978.84 2340.77 1965.67 2350.84 1959.73 2355.93L1958.92 2366.81C1959.39 2367.99 1961.56 2371.54 1966.5 2376.32Z" fill="#B59E7F"/>
<path d="M1965.25 2388.67L1963.96 2391.24L1976.37 2398.77L1979.82 2404.91L1981.76 2401.42L1973.55 2392.46L1978.94 2395.11L1986.82 2398.9L2011.34 2408.06L2033.69 2421.62L2051.72 2430.88L2074.85 2435.04L2072.59 2432.98L2051.34 2428.66L2031.85 2418.83L2011.38 2405.11L1987.3 2395.22L1979.64 2390.51L1988.63 2390.43L2016.87 2389.48L2055.88 2394.2L2135.92 2394.99L2136.17 2392.6L2058.05 2389.43L2012.34 2385.37L1978.24 2386.98L2000.57 2376.55L2012.02 2366.72L2009.75 2364.66L1996.45 2372.81L1975.56 2384.55L1968.64 2385.76L1964.43 2387.92L1965.25 2388.67Z" fill="#A89076"/>
<path d="M2078.82 2321.39L2077.95 2323.6L2080.42 2325.84L2088.24 2332.95L2092.89 2347.52C2109.1 2350.96 2141.33 2357.35 2164.15 2361.82L2179.25 2353.44L2208.61 2347.52L2249.6 2333.8L2272.73 2325.23L2294.31 2322.35L2251.02 2311.12L2225.59 2306.75C2221.44 2304.61 2211.44 2300.56 2204.56 2301.51C2197.69 2302.46 2186.7 2298.77 2182.07 2296.81C2178.07 2293.93 2167.32 2288.51 2156.26 2289.85C2146.8 2285.75 2132.98 2286.06 2127.26 2286.73L2105.32 2298.64L2085.37 2317.23L2078.82 2321.39Z" fill="#B59E7F"/>
<path d="M1983.22 2237.54C1981.61 2234.59 1967.71 2235.88 1953.39 2238.17C1951.72 2240.89 1949.99 2247.06 1956.46 2249.95C1962.94 2252.83 1980.77 2244.31 1988.88 2239.69C1985.99 2239.46 1983.9 2238.8 1983.22 2237.54Z" fill="#A89076"/>
<path d="M1982.25 2232.54C1973.81 2227.57 1945.84 2234.8 1932.91 2239.04L1929.52 2242.71C1935.87 2241.31 1944.71 2239.56 1953.39 2238.17C1967.71 2235.88 1981.61 2234.59 1983.22 2237.54C1983.9 2238.8 1985.99 2239.46 1988.88 2239.69C1996.87 2240.34 2011.02 2237.78 2018.99 2235.94C2027.89 2232.3 2046.94 2226.65 2051.85 2233.21C2056.76 2239.76 2079.83 2226.53 2090.75 2219.1L2088.28 2216.85C2078.35 2223.44 2056.49 2235.33 2048.55 2230.21C2040.61 2225.09 2023.34 2229.9 2015.69 2232.95C2008.06 2234.89 1990.7 2237.52 1982.25 2232.54Z" fill="#A89076"/>
<path d="M1920.63 2280.71L2008.25 2270.63C2013.18 2274.4 2025.65 2282.68 2036.14 2285.62C2046.63 2288.55 2024.93 2276.93 2012.77 2270.75L2042.32 2266.13C2042.55 2264.59 2042.27 2261.37 2039.27 2260.74C2036.27 2260.11 2015.14 2265.07 2004.95 2267.63L1919.48 2277.41C1920.06 2278.6 1920.46 2279.71 1920.63 2280.71Z" fill="#A89076"/>
<path d="M1879.55 2236.65C1887.35 2240.43 1898.86 2252.82 1903.65 2258.53L1895.67 2222.81L1899.83 2223.6L1906.07 2260.82C1906.64 2261.37 1907.23 2261.96 1907.84 2262.58L1971.21 2192.54L1973.68 2194.79L1932.91 2239.04C1945.84 2234.8 1973.81 2227.57 1982.25 2232.54C1990.7 2237.52 2008.06 2234.89 2015.69 2232.95C2023.34 2229.9 2040.61 2225.09 2048.55 2230.21C2056.49 2235.33 2078.35 2223.44 2088.28 2216.85L2090.75 2219.1C2079.83 2226.53 2056.76 2239.76 2051.85 2233.21C2046.94 2226.65 2027.89 2232.3 2018.99 2235.94C2011.02 2237.78 1996.87 2240.34 1988.88 2239.69C1980.77 2244.31 1962.94 2252.83 1956.46 2249.95C1949.99 2247.06 1951.72 2240.89 1953.39 2238.17C1944.71 2239.56 1935.87 2241.31 1929.52 2242.71L1909.57 2264.37C1913.41 2268.44 1917.49 2273.35 1919.48 2277.41L2004.95 2267.63C2015.14 2265.07 2036.27 2260.11 2039.27 2260.74C2042.27 2261.37 2042.55 2264.59 2042.32 2266.13L2012.77 2270.75C2024.93 2276.93 2046.63 2288.55 2036.14 2285.62C2025.65 2282.68 2013.18 2274.4 2008.25 2270.63L1920.63 2280.71C1921.7 2287.07 1930.34 2296.02 1934.53 2299.7C1940.39 2303.4 1953.9 2311.68 1961.03 2315.16C1969.95 2319.51 1995.06 2317.97 2008.21 2318.69C2018.74 2319.26 2038.98 2316.42 2047.78 2314.92C2054.64 2309.04 2070.75 2296.15 2080.35 2291.69C2099.36 2284.98 2117.38 2273.13 2124.01 2268.04C2126.9 2266.3 2133.72 2262.33 2137.93 2260.46C2143.3 2259.35 2156.43 2246.04 2162.32 2239.53L2166 2232.01C2171.88 2229.87 2184.3 2225.03 2186.84 2222.85C2200.35 2214.74 2206.94 2204.14 2208.54 2199.86L2212.07 2188.83L2223.52 2179L2241.41 2171.65L2253.49 2161.27L2236.88 2167.53L2185.12 2175.21C2177.16 2176.1 2159.58 2177.33 2152.93 2175.19C2146.17 2169.34 2135.59 2174.54 2131.15 2177.87L2105.24 2176.82C2098.66 2174.59 2084.15 2170.47 2078.78 2171.88C2073.41 2173.3 2068.44 2173.36 2066.63 2173.21C2062.4 2171.99 2051.91 2171.3 2043.77 2178.29C2032.18 2180.95 2006.88 2180.24 1995.67 2179.55C1981.74 2179.13 1951.12 2178.34 1940.09 2178.5C1929.05 2178.66 1909.7 2195.61 1901.41 2204.06L1903.62 2209.81L1893.86 2218.18L1886.04 2211.07C1880.63 2218.02 1871.76 2232.86 1879.55 2236.65Z" fill="#B59E7F"/>
<path d="M1895.67 2222.81L1903.65 2258.53C1904.36 2259.19 1905.19 2259.96 1906.07 2260.82L1899.83 2223.6L1895.67 2222.81Z" fill="#A89076"/>
<path d="M1971.21 2192.54L1907.84 2262.58C1908.4 2263.15 1908.98 2263.75 1909.57 2264.37L1929.52 2242.71L1932.91 2239.04L1973.68 2194.79L1971.21 2192.54Z" fill="#A89076"/>
<path d="M2086.8 2306.54L2085.37 2317.23L2105.32 2298.64C2105.06 2297.78 2103.95 2295.89 2101.62 2295.27C2099.29 2294.66 2090.77 2302.53 2086.8 2306.54Z" fill="#A4896E"/>
<path d="M1762.61 2191.63L1774.67 2153.69C1773.74 2153.67 1772.85 2153.65 1772.01 2153.64C1770.69 2153.62 1769.49 2153.63 1768.46 2153.65C1765.76 2163.8 1760.01 2184.37 1758.62 2185.44C1757.22 2186.52 1752.22 2213.34 1749.89 2226.62C1746.78 2244.18 1740.62 2281.49 1740.84 2290.26C1739.16 2298.44 1741.92 2301.99 1743.52 2302.74C1744.88 2301.85 1747.11 2299.75 1745.19 2298.53C1743.27 2297.32 1747.95 2266.96 1750.53 2251.94L1755.14 2223.64L1762.61 2191.63Z" fill="#514842"/>
<path d="M1745.19 2298.53C1747.11 2299.75 1744.88 2301.85 1743.52 2302.74L1706.71 2355.17L1718.82 2354.94L1741.55 2318.45L1768.13 2282.42L1778.72 2280.38L1794.5 2273.28L1816.97 2261.88L1835.35 2252.38L1868.03 2235.29L1894.83 2219.88L1916.11 2208.23L1919.58 2205.03L1918.33 2202.44L1917.15 2202.47L1915.97 2202.49L1891.78 2216.28L1864.39 2231.7L1833.19 2248.5L1815.98 2257.72L1794.38 2268.32L1778.6 2275.68L1771.51 2275.82L1781.03 2266.23L1803.16 2241.25L1815.26 2229L1829.58 2210.7L1871.54 2163.13L1904.03 2126.72L1944.66 2085.19L1941.12 2085.25L1939.88 2083.19L1900.7 2123.65L1867.05 2160.87L1824.8 2208.44L1812.22 2225.4L1800.38 2236.6L1778.24 2261.32L1745.19 2298.53Z" fill="#514842"/>
<path d="M1908.94 2193.22C1916.27 2193.29 1918.19 2196.61 1918.23 2198.27L1921.94 2192.97L1926.42 2171.47L1928.73 2157.32L1931.98 2157.26L1932.33 2171.35L1925.78 2192.9L1947.66 2169.75L1982.16 2142.96L2037.99 2094.6L2039.81 2096.39L1984.64 2147.61L1954.16 2169.62L1935.72 2188.52L1929.66 2194.39L1938.77 2192.64L1963.38 2183.81L1988.7 2179.92L2010.12 2174.01L2028.18 2163.22L2031.43 2163.15L2012.22 2175.28L1992.26 2180.63L1965.79 2185.85L1941.5 2195.46L1933 2197.98L1927.13 2199.66L1940.15 2200.45L1941.72 2204.08L1934.28 2202.13C1931.81 2209.49 1930.45 2223.83 1944.83 2222.3C1959.22 2220.76 2001.53 2208.48 2020.88 2202.53C2024.77 2200.28 2034.43 2193.49 2042 2184.36C2061.97 2169.77 2078.3 2138.73 2083.96 2125.04L2112.38 2067.81L2134.28 2009.67L2147.6 1975.2L2124.41 2005.16L2043.04 2048.53C2039.77 2050.53 2035.85 2052.92 2031.53 2055.55C2012.28 2067.26 1985.03 2083.75 1971.13 2091.88C1969.47 2092.86 1968 2093.71 1966.76 2094.42C1952.73 2100.75 1928.94 2118.4 1918.8 2126.43C1910.83 2134.95 1894.29 2153.18 1891.81 2158.04C1887.86 2161.04 1887.24 2176.41 1887.42 2183.72L1895.9 2191.65C1897.19 2192.15 1901.61 2193.16 1908.94 2193.22Z" fill="#B59E7F"/>
<path d="M1918.33 2202.44L1919.58 2205.03L1934.28 2202.13L1941.72 2204.08L1940.15 2200.45L1927.13 2199.66L1933 2197.98L1941.5 2195.46L1965.79 2185.85L1992.26 2180.63L2012.22 2175.28L2031.43 2163.15L2028.18 2163.22L2010.12 2174.01L1988.7 2179.92L1963.38 2183.81L1938.77 2192.64L1929.66 2194.39L1935.72 2188.52L1954.16 2169.62L1984.64 2147.61L2039.81 2096.39L2037.99 2094.6L1982.16 2142.96L1947.66 2169.75L1925.78 2192.9L1932.33 2171.35L1931.98 2157.26L1928.73 2157.32L1926.42 2171.47L1921.94 2192.97L1918.23 2198.27L1917.15 2202.47L1918.33 2202.44Z" fill="#A89076"/>
<path d="M1939.88 2083.19L1941.12 2085.25L1944.66 2085.19L1955.88 2084.97L1971.13 2091.88C1985.03 2083.75 2012.28 2067.26 2031.53 2055.55L2034.85 2040.07L2049.94 2017.06L2066.48 1981.22L2075.12 1960.42L2087.43 1944.5L2048.64 1964.85L2027.69 1978.32C2023.09 1979.54 2012.92 1983.25 2009.03 1988.34C2005.14 1993.43 1994.59 1998.03 1989.81 1999.69C1984.7 2000.31 1972.88 2003.57 1966.46 2011.63C1956.62 2014.96 1947.47 2024.1 1944.12 2028.26L1939.07 2050.56L1940.89 2076.12L1939.88 2083.19Z" fill="#B59E7F"/>
<path d="M1805.24 2087.9C1801.69 2086.93 1793.3 2096.8 1785.45 2107.61C1786.57 2110.55 1790.51 2115.87 1797.31 2113.65C1804.11 2111.43 1809.19 2094.09 1810.88 2085.7C1808.72 2087.41 1806.75 2088.32 1805.24 2087.9Z" fill="#A89076"/>
<path d="M1800.44 2085.12C1790.56 2087.2 1777.51 2110.21 1772.22 2121.45L1772.96 2126.14C1776.13 2121.08 1780.69 2114.17 1785.45 2107.61C1793.3 2096.8 1801.69 2086.93 1805.24 2087.9C1806.75 2088.32 1808.72 2087.41 1810.88 2085.7C1816.86 2080.98 1824.38 2070.09 1828.27 2063.69C1831.32 2055.44 1839.6 2039.28 1848.38 2040.57C1857.16 2041.86 1861.91 2017.94 1863.18 2005.81L1859.63 2005.88C1858.33 2016.79 1853.31 2039.01 1843.66 2040.66C1834.01 2042.32 1826.23 2056.76 1823.55 2063.78C1819.96 2070.03 1810.32 2083.05 1800.44 2085.12Z" fill="#A89076"/>
<path d="M1798.41 2157.77L1849.73 2094.25C1856.21 2093.63 1871.58 2091.21 1881.15 2086.42C1890.73 2081.64 1866.31 2087.76 1852.91 2091.41L1869.19 2069.16C1868.08 2067.96 1865.21 2065.94 1862.65 2067.46C1860.09 2068.97 1849.82 2086.01 1845 2094.34L1794.9 2156.27C1796.28 2156.7 1797.47 2157.2 1798.41 2157.77Z" fill="#A89076"/>
<path d="M1733.9 2154.32C1742.35 2151.86 1760.46 2152.85 1768.46 2153.65L1733.41 2134.48L1736.9 2132.33L1772.01 2153.64C1772.85 2153.65 1773.74 2153.67 1774.67 2153.69L1759.74 2065.02L1763.29 2064.95L1772.22 2121.45C1777.51 2110.21 1790.56 2087.2 1800.44 2085.12C1810.32 2083.05 1819.96 2070.03 1823.55 2063.78C1826.23 2056.76 1834.01 2042.32 1843.66 2040.66C1853.31 2039.01 1858.33 2016.79 1859.63 2005.88L1863.18 2005.81C1861.91 2017.94 1857.16 2041.86 1848.38 2040.57C1839.6 2039.28 1831.32 2055.44 1828.27 2063.69C1824.38 2070.09 1816.86 2080.98 1810.88 2085.7C1809.19 2094.09 1804.11 2111.43 1797.31 2113.65C1790.51 2115.87 1786.57 2110.55 1785.45 2107.61C1780.69 2114.17 1776.13 2121.08 1772.96 2126.14L1777.33 2153.8C1783.32 2154.09 1790.17 2154.79 1794.9 2156.27L1845 2094.34C1849.82 2086.01 1860.09 2068.97 1862.65 2067.46C1865.21 2065.94 1868.08 2067.96 1869.19 2069.16L1852.91 2091.41C1866.31 2087.76 1890.73 2081.64 1881.15 2086.42C1871.58 2091.21 1856.21 2093.63 1849.73 2094.25L1798.41 2157.77C1804.41 2161.41 1817.73 2161.92 1823.63 2161.72C1830.69 2160.45 1846.75 2157.35 1854.5 2155.11C1864.18 2152.31 1880 2135.02 1889.55 2127C1897.2 2120.59 1908.62 2105.56 1913.38 2098.85C1913.17 2090.41 1913.46 2071.22 1916.3 2061.97C1923.68 2045.11 1926.12 2025.39 1926.42 2017.64C1926.94 2014.58 1928.3 2007.47 1929.61 2003.47C1932.35 1999.24 1930.25 1981.69 1928.86 1973.45L1925.13 1965.95C1927.36 1960.68 1931.81 1949.36 1931.73 1946.23C1934.21 1931.98 1929.91 1920.5 1927.44 1916.54L1920.7 1906.75L1920.34 1892.65L1926.43 1876.08L1926.06 1861.2L1919.93 1876.21L1891.05 1914.9C1886.37 1920.65 1875.42 1932.86 1869.11 1935.7C1859.66 1936.09 1856.77 1946.47 1856.51 1951.62L1837.99 1967.65C1831.66 1970.38 1818.37 1976.96 1815.88 1981.4C1813.39 1985.83 1810.06 1989.08 1808.71 1990.16C1804.81 1992.06 1797.09 1998.37 1797.34 2008.4C1791.66 2017.7 1773.83 2033.58 1765.63 2040.36C1755.8 2049.08 1734.29 2068.34 1726.91 2075.59C1719.53 2082.83 1720.4 2106.88 1721.76 2118L1728.03 2120.49L1728.33 2132.49L1717.11 2132.71C1719.18 2140.94 1725.45 2156.79 1733.9 2154.32Z" fill="#B59E7F"/>
<path d="M1733.41 2134.48L1768.46 2153.65C1769.49 2153.63 1770.69 2153.62 1772.01 2153.64L1736.9 2132.33L1733.41 2134.48Z" fill="#A89076"/>
<path d="M1759.74 2065.02L1774.67 2153.69C1775.53 2153.72 1776.42 2153.75 1777.33 2153.8L1772.96 2126.14L1772.22 2121.45L1763.29 2064.95L1759.74 2065.02Z" fill="#A89076"/>
<path d="M1933 2067.91L1940.89 2076.12L1939.07 2050.56C1938.17 2050.14 1935.85 2049.58 1933.75 2050.66C1931.65 2051.75 1932.37 2062.62 1933 2067.91Z" fill="#A4896E"/>
<path d="M1096.27 2285.37L1051.72 2283C1052 2282.22 1052.27 2281.47 1052.54 2280.76C1052.95 2279.66 1053.35 2278.66 1053.71 2277.8C1065.46 2278.88 1089.35 2280.81 1090.95 2280C1092.56 2279.19 1122.9 2283.8 1137.87 2286.21C1157.67 2289.37 1199.61 2296.45 1208.93 2299.5C1218.23 2300.77 1221.13 2304.25 1221.41 2305.82C1220 2306.66 1217.03 2307.84 1216.36 2305.84C1215.68 2303.83 1181.67 2297.8 1164.75 2295.03L1132.96 2289.61L1096.27 2285.37Z" fill="#514842"/>
<path d="M1216.36 2305.84C1217.03 2307.84 1220 2306.66 1221.41 2305.82L1289.56 2292.28L1285.35 2302.31L1238.86 2309.32L1191.6 2319.7L1185.95 2327.87L1173.19 2338.71L1153.62 2353.72L1137.44 2365.95L1108.45 2387.61L1083.19 2404.93L1063.76 2418.87L1059.19 2420.71L1056.83 2418.83L1057.25 2417.85L1057.66 2416.87L1080.33 2401.21L1105.81 2383.4L1134 2362.87L1149.5 2351.53L1167.92 2336.98L1180.96 2326.23L1183.43 2320.36L1170.06 2325.16L1136.08 2335.44L1119.01 2341.53L1094.74 2347.49L1030.1 2366.92L980.495 2382.09L922.745 2402.39L923.98 2399.46L922.174 2397.75L978.3 2378.31L1029.15 2362.43L1093.89 2342.75L1116.15 2337.81L1132.02 2331.61L1165.72 2321.23L1216.36 2305.84Z" fill="#514842"/>
<path d="M1050.04 2407.97C1047.71 2414.11 1050.64 2416.8 1052.4 2417.37L1045.52 2418.73L1021.04 2415.43L1005.15 2412.72L1004.01 2415.41L1018.98 2420.32L1044.18 2421.91L1012.24 2432.59L972.281 2452.6L902.252 2483.34L903.574 2485.44L976.447 2456.19L1009.98 2437.97L1036.25 2428.77L1044.51 2425.64L1039.65 2432.67L1022.14 2450.31L1009.69 2470.16L996.354 2486.1L978.887 2497.63L977.755 2500.32L997.02 2488.27L1009.28 2473.36L1023.53 2452.99L1041.78 2435.87L1047.25 2429.6L1050.97 2425.25L1047.56 2436.38L1050.92 2438.88L1051.28 2432.03C1059.96 2432.38 1075.75 2435.94 1069.4 2447.44C1063.05 2458.94 1036.05 2490.22 1023.35 2504.42C1019.66 2506.92 1009.24 2512.76 996.986 2516.09C974.827 2527.97 936.276 2531.43 919.77 2531.67L849.229 2536.64L779.842 2535.86L738.592 2535.69L778.248 2526.16L851.306 2472.47C854.517 2470.39 858.355 2467.91 862.584 2465.16C881.417 2452.93 907.986 2435.6 921.244 2426.67C922.827 2425.6 924.219 2424.66 925.387 2423.85C936.757 2414.22 963.433 2400.15 975.35 2394.32C987.067 2390.46 1012 2382.63 1018.01 2382.15C1022.51 2379.85 1039.16 2384.36 1046.92 2386.91L1052.63 2396.57C1052.74 2397.82 1052.38 2401.83 1050.04 2407.97Z" fill="#B59E7F"/>
<path d="M1056.83 2418.83L1059.19 2420.71L1051.28 2432.03L1050.92 2438.88L1047.56 2436.38L1050.97 2425.25L1047.25 2429.6L1041.78 2435.87L1023.53 2452.99L1009.28 2473.36L997.02 2488.27L977.755 2500.32L978.887 2497.63L996.354 2486.1L1009.69 2470.16L1022.14 2450.31L1039.65 2432.67L1044.51 2425.64L1036.25 2428.77L1009.98 2437.97L976.447 2456.19L903.574 2485.44L902.252 2483.34L972.281 2452.6L1012.24 2432.59L1044.18 2421.91L1018.98 2420.32L1004.01 2415.41L1005.15 2412.72L1021.04 2415.43L1045.52 2418.73L1052.4 2417.37L1057.25 2417.85L1056.83 2418.83Z" fill="#A89076"/>
<path d="M922.174 2397.75L923.98 2399.46L922.745 2402.39L918.835 2411.68L921.244 2426.67C907.986 2435.6 881.417 2452.93 862.584 2465.16L844.937 2462.87L815.369 2467.92L771.601 2469.98L746.513 2470.38L725.458 2475.44L759.932 2449.73L781.2 2436.67C784.013 2433.23 791.32 2425.96 798.041 2424.38C804.762 2422.8 813.13 2415.51 816.474 2412.06C818.812 2408 826.171 2399.21 836.902 2396.49C843.686 2389.37 856.467 2384.73 862.01 2383.3L887.526 2386.38L914.279 2396.27L922.174 2397.75Z" fill="#B59E7F"/>
<path d="M971.313 2286.96C971.434 2283.68 984.738 2279.91 998.886 2276.9C1001.66 2278.8 1006.07 2283.83 1001.46 2288.77C996.857 2293.72 976.643 2292.28 967.111 2290.94C969.653 2289.7 971.261 2288.36 971.313 2286.96Z" fill="#A89076"/>
<path d="M969.911 2282.04C975.364 2274.48 1004.26 2271.13 1018.03 2270.4L1022.8 2272.55C1016.35 2273.53 1007.46 2275.08 998.886 2276.9C984.738 2279.91 971.434 2283.68 971.313 2286.96C971.261 2288.36 969.653 2289.7 967.111 2290.94C960.099 2294.38 945.983 2297.09 937.858 2298.25C928.041 2298.09 908.033 2299.71 906.54 2307.45C905.046 2315.2 877.889 2311.32 864.498 2308.41L865.733 2305.48C877.831 2307.96 903.259 2311.05 908.186 2303.54C913.113 2296.03 931.118 2294.27 939.504 2294.33C947.367 2293.39 964.457 2289.6 969.911 2282.04Z" fill="#A89076"/>
<path d="M1048.31 2304.14L963.535 2326.15C960.752 2331.36 953.122 2343.39 944.868 2349.81C936.615 2356.23 951.156 2337.86 959.459 2327.88L930.31 2334.18C929.394 2332.86 928.176 2329.8 930.634 2328.16C933.091 2326.52 954.69 2323.53 965.182 2322.24L1047.85 2300.72C1047.86 2302.01 1048 2303.17 1048.31 2304.14Z" fill="#A89076"/>
<path d="M1065.75 2249.19C1060.35 2255.43 1055.47 2270.87 1053.71 2277.8L1044.68 2242.28L1041.23 2244.49L1052.54 2280.76C1052.27 2281.47 1052 2282.22 1051.72 2283L961.73 2241.51L960.495 2244.44L1018.03 2270.4C1004.26 2271.13 975.364 2274.48 969.911 2282.04C964.457 2289.6 947.367 2293.39 939.504 2294.33C931.118 2294.27 913.113 2296.03 908.186 2303.54C903.259 2311.05 877.831 2307.96 865.733 2305.48L864.498 2308.41C877.889 2311.32 905.046 2315.2 906.54 2307.45C908.033 2299.71 928.041 2298.09 937.858 2298.25C945.983 2297.09 960.099 2294.38 967.111 2290.94C976.643 2292.28 996.857 2293.72 1001.46 2288.77C1006.07 2283.83 1001.66 2278.8 998.886 2276.9C1007.46 2275.08 1016.35 2273.53 1022.8 2272.55L1050.96 2285.25C1049.31 2290.34 1047.82 2296.3 1047.85 2300.72L965.182 2322.24C954.69 2323.53 933.091 2326.52 930.634 2328.16C928.176 2329.8 929.394 2332.86 930.31 2334.18L959.459 2327.88C951.156 2337.86 936.615 2356.23 944.868 2349.81C953.122 2343.39 960.752 2331.36 963.535 2326.15L1048.31 2304.14C1050.24 2310.34 1046.42 2321.62 1044.27 2326.48C1040.6 2331.95 1032.03 2344.34 1027.09 2350.06C1020.92 2357.23 997.248 2364.77 985.537 2370.11C976.168 2374.38 956.352 2379 947.615 2380.77C938.652 2377.83 918.021 2371.78 907.194 2371.13C886.738 2371.76 864.834 2367.34 856.44 2365.05C853 2364.48 844.944 2363.28 840.237 2363.08C834.814 2363.97 816.727 2356.48 808.361 2352.62L801.557 2347.05C795.19 2347.18 781.625 2347.19 778.299 2346.1C762.232 2343.5 751.362 2336.15 747.935 2332.79L739.665 2323.96L724.697 2319.05L704.971 2318.7L689.172 2313.52L707.235 2313.32L758.096 2301.89C765.783 2299.87 782.432 2294.74 787.537 2290.4C791.051 2282.65 803.107 2283.63 808.696 2285.1L831.912 2274.9C836.913 2270.51 848.307 2261.57 853.869 2260.95C859.431 2260.33 863.999 2258.61 865.588 2257.84C868.901 2255.21 878.186 2250.84 888.83 2254.33C900.645 2252.64 923.473 2242.96 933.411 2238.34C945.964 2232.99 973.614 2221.36 983.787 2217.57C993.961 2213.78 1019.4 2222.39 1030.85 2227.17L1031.46 2233.21L1044.21 2237.39L1048.12 2228.1C1056.25 2232.53 1071.15 2242.95 1065.75 2249.19Z" fill="#B59E7F"/>
<path d="M1044.68 2242.28L1053.71 2277.8C1053.35 2278.66 1052.95 2279.66 1052.54 2280.76L1041.23 2244.49L1044.68 2242.28Z" fill="#A89076"/>
<path d="M961.73 2241.51L1051.72 2283C1051.47 2283.72 1051.21 2284.48 1050.96 2285.25L1022.8 2272.55L1018.03 2270.4L960.495 2244.44L961.73 2241.51Z" fill="#A89076"/>
<path d="M908.084 2387L914.279 2396.27L887.526 2386.38C887.373 2385.5 887.529 2383.38 889.378 2381.98C891.228 2380.58 902.62 2384.75 908.084 2387Z" fill="#A4896E"/>
<path d="M1106.65 2259.21L1079.81 2227.73C1080.67 2227.41 1081.49 2227.1 1082.27 2226.83C1083.49 2226.39 1084.61 2226.01 1085.58 2225.7C1092.27 2234.29 1106.09 2251.61 1107.83 2252.16C1109.57 2252.71 1125.26 2276.1 1132.9 2287.72C1143.01 2303.09 1164.1 2335.87 1167.51 2344.12C1172.44 2351.2 1171.33 2355.39 1170.15 2356.61C1168.52 2356.21 1165.57 2354.97 1166.86 2353.22C1168.15 2351.47 1151.31 2324.69 1142.72 2311.52L1126.79 2286.64L1106.65 2259.21Z" fill="#514842"/>
<path d="M1166.86 2353.22C1165.57 2354.97 1168.52 2356.21 1170.15 2356.61L1226.02 2393.64L1214.64 2397.31L1178.45 2370.61L1138.86 2345.56L1128.15 2347.06L1110.53 2345.51L1084.9 2342.09L1063.87 2339.14L1026.4 2333.69L995.087 2327.94L970.467 2323.91L965.921 2322.04L966.018 2319.23L967.128 2318.87L968.238 2318.52L996.444 2323.61L1028.31 2329.19L1064.29 2334.83L1084.11 2337.9L1108.61 2340.85L1126.33 2342.65L1132.99 2340.5L1120.19 2334.62L1089.29 2318.44L1072.97 2310.91L1052.1 2298.46L993.44 2267.6L948.194 2244.09L893.251 2218.43L896.582 2217.36L896.882 2215.04L950.031 2240.17L996.692 2264.05L1055.63 2294.82L1074.33 2306.59L1089.96 2313.22L1120.76 2329.15L1166.86 2353.22Z" fill="#514842"/>
<path d="M970.975 2307.63C964.173 2310.04 963.755 2313.75 964.397 2315.31L958.762 2311.56L945.736 2292.97L937.767 2280.53L934.713 2281.51L940.184 2294.76L955.154 2312.73L925.244 2298.18L882.081 2284.28L810.171 2257.14L809.215 2259.39L881.684 2289.41L919.137 2300.14L944.095 2311.84L952.153 2315.36L942.94 2316.66L916.382 2316.32L891.193 2320.82L868.803 2322.19L847.541 2317.92L844.487 2318.9L867.366 2324.04L888.166 2322.62L914.972 2318.99L941.557 2320.16L950.518 2319.78L956.677 2319.46L944.869 2324.38L944.9 2328.26L951.029 2324.06C956.364 2330.12 963.525 2343.05 949.494 2346.23C935.462 2349.42 890.991 2351.55 870.51 2352.21C865.964 2351.36 854.171 2348.14 843.357 2342.06C818.749 2334.86 790.772 2311.19 779.86 2300.25L729.84 2256.05L685.521 2208.9L658.926 2181.05L692.858 2201.53L786.511 2215.84C790.384 2216.65 795.018 2217.62 800.126 2218.68C822.879 2223.42 855.05 2230.04 871.345 2233.16C873.29 2233.53 875.009 2233.86 876.459 2234.12C892.133 2235.52 921.561 2244.33 934.315 2248.56C945.237 2253.94 968.157 2265.62 972.463 2269.35C977.373 2270.88 984.274 2285 987.111 2291.87L982.479 2301.98C981.479 2302.86 977.778 2305.22 970.975 2307.63Z" fill="#B59E7F"/>
<path d="M966.018 2319.23L965.921 2322.04L951.029 2324.06L944.9 2328.26L944.869 2324.38L956.677 2319.46L950.518 2319.78L941.557 2320.16L914.972 2318.99L888.166 2322.62L867.366 2324.04L844.487 2318.9L847.541 2317.92L868.803 2322.19L891.193 2320.82L916.382 2316.32L942.94 2316.66L952.153 2315.36L944.095 2311.84L919.137 2300.14L881.684 2289.41L809.215 2259.39L810.171 2257.14L882.081 2284.28L925.244 2298.18L955.154 2312.73L940.184 2294.76L934.713 2281.51L937.767 2280.53L945.736 2292.97L958.762 2311.56L964.397 2315.31L967.128 2318.87L966.018 2319.23Z" fill="#A89076"/>
<path d="M896.882 2215.04L896.582 2217.36L893.251 2218.43L882.703 2221.83L871.345 2233.16C855.05 2230.04 822.879 2223.42 800.126 2218.68L790.662 2205.33L767.137 2188.73L736.981 2160.64L720.373 2144.03L702.358 2133.16L746.874 2139.67L771.925 2145.5C776.713 2145.16 787.718 2145.36 793.439 2148.85C799.159 2152.34 810.872 2153.24 816.014 2153.25C821.028 2152.2 833.38 2151.44 842.677 2156.9C853.22 2156.84 865.506 2162.42 870.332 2165.22L884.218 2184.37L893.036 2208.77L896.882 2215.04Z" fill="#B59E7F"/>
<path d="M1024.27 2176.24C1027.17 2174.2 1039.04 2180.7 1050.81 2188.26C1050.98 2191.35 1049.49 2197.57 1042.24 2197.69C1034.99 2197.8 1023.13 2183.27 1018.1 2176C1020.83 2176.9 1023.03 2177.11 1024.27 2176.24Z" fill="#A89076"/>
<path d="M1027.59 2172.11C1037.65 2170.87 1059.28 2188.12 1068.83 2196.91L1070.07 2201.51C1065.04 2197.81 1057.95 2192.84 1050.81 2188.26C1039.04 2180.7 1027.17 2174.2 1024.27 2176.24C1023.03 2177.11 1020.83 2176.9 1018.1 2176C1010.59 2173.51 999.104 2165.78 992.841 2161.07C986.613 2154.36 972.245 2141.96 964.596 2145.98C956.948 2150 942.686 2129.23 936.512 2118.34L939.843 2117.27C945.544 2127.01 959.366 2146.11 969.038 2144.55C978.71 2142.99 991.897 2153.96 997.282 2159.64C1003.2 2164.31 1017.54 2173.35 1027.59 2172.11Z" fill="#A89076"/>
<path d="M1059.37 2239.14L985.429 2196.42C979.132 2197.93 963.817 2200.6 952.93 2199.21C942.042 2197.83 967.306 2195.69 981.299 2194.8L956.967 2179.29C957.512 2177.82 959.355 2175.02 962.365 2175.61C965.375 2176.19 981.956 2188.77 989.87 2194.99L1062.03 2236.62C1060.92 2237.46 1060.01 2238.31 1059.37 2239.14Z" fill="#A89076"/>
<path d="M1118.05 2215.24C1109.17 2215.66 1092.7 2222.38 1085.58 2225.7L1110.35 2196.6L1106.21 2195.71L1082.27 2226.83C1081.49 2227.1 1080.67 2227.41 1079.81 2227.73L1057.24 2140.33L1053.91 2141.4L1068.83 2196.91C1059.28 2188.12 1037.65 2170.87 1027.59 2172.11C1017.54 2173.35 1003.2 2164.31 997.282 2159.64C991.897 2153.96 978.71 2142.99 969.038 2144.55C959.366 2146.11 945.544 2127.01 939.843 2117.27L936.512 2118.34C942.686 2129.23 956.948 2150 964.596 2145.98C972.245 2141.96 986.613 2154.36 992.841 2161.07C999.104 2165.78 1010.59 2173.51 1018.1 2176C1023.13 2183.27 1034.99 2197.8 1042.24 2197.69C1049.49 2197.57 1050.98 2191.35 1050.81 2188.26C1057.95 2192.84 1065.04 2197.81 1070.07 2201.51L1077.38 2228.68C1071.91 2230.87 1065.82 2233.73 1062.03 2236.62L989.87 2194.99C981.956 2188.77 965.375 2176.19 962.365 2175.61C959.355 2175.02 957.512 2177.82 956.967 2179.29L981.299 2194.8C967.306 2195.69 942.042 2197.83 952.93 2199.21C963.817 2200.6 979.132 2197.93 985.429 2196.42L1059.37 2239.14C1055.27 2244.46 1043.08 2249.2 1037.5 2250.91C1030.39 2251.99 1014.16 2254.26 1006.02 2254.65C995.846 2255.15 973.994 2244.12 961.795 2239.71C952.036 2236.19 935.21 2225.86 928.017 2221.13C924.741 2213.2 916.577 2195.41 910.124 2187.7C896.312 2174.36 885.922 2156.77 882.454 2149.65C880.717 2146.96 876.524 2140.77 873.652 2137.47C869.366 2134.4 864.099 2117.39 862.001 2109.26L862.394 2101.07C858.147 2096.88 849.349 2087.77 848.134 2084.82C839.958 2072.34 839.248 2060.26 839.915 2055.78L842.172 2044.5L836.701 2031.25L824.211 2017.76L818.437 2003.78L830.318 2015.8L873.145 2042.58C879.874 2046.44 895.094 2054.3 902.143 2054.92C911.106 2052.26 918.072 2061 920.435 2065.71L944.279 2074.7C951.306 2075.22 966.397 2077.09 970.541 2080.42C974.686 2083.76 979.123 2085.72 980.824 2086.28C985.234 2086.81 995.027 2090.21 998.918 2099.63C1008.04 2106.48 1031.18 2115.55 1041.61 2119.24C1054.36 2124.21 1082.32 2135.25 1092.18 2139.64C1102.04 2144.02 1111.11 2166.71 1114.42 2177.5L1109.6 2181.83L1114.26 2193.11L1124.81 2189.72C1126.26 2198.05 1126.94 2214.82 1118.05 2215.24Z" fill="#B59E7F"/>
<path d="M1110.35 2196.6L1085.58 2225.7C1084.61 2226.01 1083.49 2226.39 1082.27 2226.83L1106.21 2195.71L1110.35 2196.6Z" fill="#A89076"/>
<path d="M1057.24 2140.33L1079.81 2227.73C1079.02 2228.03 1078.21 2228.35 1077.38 2228.68L1070.07 2201.51L1068.83 2196.91L1053.91 2141.4L1057.24 2140.33Z" fill="#A89076"/>
<path d="M897.011 2198.6L893.036 2208.77L884.218 2184.37C884.881 2183.7 886.81 2182.43 889.214 2182.77C891.618 2183.1 895.414 2193.46 897.011 2198.6Z" fill="#A4896E"/>
<path d="M1589.05 2353.72C1597.05 2346.18 1597.89 2341.16 1597.31 2339.59C1590.79 2318.74 1566.46 2283.43 1556.03 2269.65C1547.68 2258.62 1514.02 2237.7 1498.24 2228.62C1478.25 2219.99 1434.71 2200.91 1420.46 2193.65C1406.21 2186.38 1395.69 2178.06 1392.21 2174.81L1367.01 2151.61C1363.54 2148.81 1354.84 2142.06 1347.89 2137.49C1340.94 2132.91 1334.57 2131.32 1332.25 2131.1H1317.48L1310.52 2132.44H1288.36C1286.19 2131.66 1280.19 2130.09 1273.59 2130.09C1259.34 2131.43 1248.53 2139.39 1244.91 2143.2C1234.34 2152.39 1210.67 2173.27 1200.59 2183.22C1190.51 2193.17 1170.03 2204.63 1161.05 2209.11L1121.51 2229.63C1110.36 2234.67 1084.92 2248.39 1072.41 2262.92C1056.76 2273.14 1042.43 2296.1 1037.21 2306.3L1022.87 2350.02C1035.73 2361.59 1059.52 2368.06 1069.8 2369.86L1154.1 2383.31L1231.01 2389.7H1328.77L1402.64 2387.34L1480.86 2380.62C1513.59 2374.79 1581.06 2361.25 1589.05 2353.72Z" fill="#EBB31F"/>
<path d="M1288.36 2132.44H1310.52C1311.22 2130.56 1303.86 2120 1300.1 2114.96C1298.21 2113.5 1293.75 2110.31 1290.97 2109.24C1288.54 2106.82 1280.98 2105.99 1277.5 2105.88L1270.55 2109.24C1269.82 2109.46 1268.46 2110.58 1268.81 2113.27C1269.16 2115.96 1271.27 2117.53 1272.29 2117.98C1274.75 2118.99 1280.46 2121.75 1283.58 2124.71C1286.71 2127.67 1288.07 2131.1 1288.36 2132.44Z" fill="#AF7B20"/>
<path d="M1014.51 2361.45C1011.53 2366.78 1009.36 2372.89 1010.27 2378.27C1010.44 2379.25 1011 2380.26 1011.91 2381.29L1031.13 2371.51C1020.43 2366.91 1015.66 2363.19 1014.51 2361.45Z" fill="#483320"/>
<path d="M1161.48 2420.13C1164.22 2420.47 1166.98 2420.8 1169.74 2421.12C1200.85 2424.75 1233.27 2427.31 1258.82 2426.69C1260.39 2426.65 1261.98 2426.61 1263.6 2426.58C1251.08 2424.07 1232.02 2410.57 1224.05 2404.13C1215.72 2403.22 1206.3 2402.16 1196.25 2400.98C1185.38 2405.17 1178.86 2410.39 1142.8 2417.7C1148.89 2418.54 1155.15 2419.35 1161.48 2420.13Z" fill="#87622D"/>
<path d="M1265.33 2426.54C1307.08 2425.62 1360.23 2425.3 1403.35 2423.75C1391.11 2424.13 1364.21 2410.97 1352.24 2404.32C1340.54 2404.58 1328.68 2404.78 1317.04 2404.93C1308.64 2411.52 1286.54 2425.07 1265.33 2426.54Z" fill="#87622D"/>
<path d="M1413.07 2423.37C1437.01 2422.36 1457.07 2420.89 1469.12 2418.62C1483 2418.62 1502.38 2414.78 1522.13 2409.57C1512.4 2410.67 1490.56 2400.44 1480.86 2395.18C1472.91 2396.45 1465.15 2397.46 1457.83 2398.11C1446.09 2405.42 1420.72 2420.72 1413.07 2423.37Z" fill="#87622D"/>
<path d="M1522.13 2409.57C1548.41 2402.64 1575.33 2393.3 1590.79 2387.34C1583.14 2387.34 1568.77 2380.01 1562.55 2376.35C1560.05 2377.07 1557.44 2377.81 1554.72 2378.56C1551.97 2385.32 1541.6 2400.99 1522.13 2409.57Z" fill="#87622D"/>
<path d="M1590.79 2387.34C1596.15 2383.65 1607.39 2373.62 1609.47 2363.13C1610.28 2359.09 1609.38 2355.18 1607.7 2351.7C1605.36 2354.95 1602.3 2357.89 1599.06 2360.44C1599.92 2365.82 1599.48 2378.74 1590.79 2387.34Z" fill="#87622D"/>
<path d="M1597.31 2339.59C1597.89 2341.16 1597.05 2346.18 1589.05 2353.72C1581.06 2361.25 1513.59 2374.79 1480.86 2380.62L1402.64 2387.34L1328.77 2389.7H1231.01L1154.1 2383.31L1069.8 2369.86C1059.52 2368.06 1035.73 2361.59 1022.87 2350.02C1020.54 2352.46 1017.19 2356.64 1014.51 2361.45C1015.66 2363.19 1020.43 2366.91 1031.13 2371.51C1033.21 2372.41 1035.53 2373.34 1038.08 2374.3C1042.64 2376 1047.96 2377.79 1054.16 2379.61C1063.03 2382.22 1079.87 2385.27 1100.22 2388.39C1129.35 2392.84 1165.7 2397.42 1196.25 2400.98C1206.3 2402.16 1215.72 2403.22 1224.05 2404.13C1227.43 2404.5 1230.63 2404.85 1233.61 2405.17C1254.78 2405.33 1285.11 2405.33 1317.04 2404.93C1328.68 2404.78 1340.54 2404.58 1352.24 2404.32C1395.85 2403.34 1437.36 2401.46 1457.83 2398.11C1465.15 2397.46 1472.91 2396.45 1480.86 2395.18C1506.21 2391.14 1533.5 2384.46 1554.72 2378.56C1557.44 2377.81 1560.05 2377.07 1562.55 2376.35C1570.15 2374.16 1576.68 2372.15 1581.66 2370.53C1585.5 2369.04 1592.65 2365.49 1599.06 2360.44C1602.3 2357.89 1605.36 2354.95 1607.7 2351.7C1605.02 2346.16 1600.33 2341.73 1597.31 2339.59Z" fill="#483320"/>
<path fill-rule="evenodd" clip-rule="evenodd" d="M1100.22 2388.39L1077.19 2388.69C1074 2392.17 1065.37 2399.54 1056.33 2401.14C1064.83 2403.75 1073.02 2405.96 1079.36 2407.52C1092.45 2409.99 1111.94 2413.3 1134.11 2416.48C1130.29 2415.94 1109.92 2397.52 1100.22 2388.39Z" fill="#87622D"/>
<path d="M1054.16 2379.61C1047.96 2377.79 1042.64 2376 1038.08 2374.3C1040.25 2382.01 1045.55 2397.73 1049.38 2398.95C1051.7 2399.7 1054.03 2400.44 1056.33 2401.14C1065.37 2399.54 1074 2392.17 1077.19 2388.69L1100.22 2388.39C1079.87 2385.27 1063.03 2382.22 1054.16 2379.61Z" fill="#483320"/>
<path d="M1100.22 2388.39C1109.92 2397.52 1130.29 2415.94 1134.11 2416.48C1136.96 2416.89 1139.86 2417.3 1142.8 2417.7C1178.86 2410.39 1185.38 2405.17 1196.25 2400.98C1165.7 2397.42 1129.35 2392.84 1100.22 2388.39Z" fill="#483320"/>
<path d="M1233.61 2405.17C1230.63 2404.85 1227.43 2404.5 1224.05 2404.13C1232.02 2410.57 1251.08 2424.07 1263.6 2426.58C1264.17 2426.57 1264.75 2426.55 1265.33 2426.54C1286.54 2425.07 1308.64 2411.52 1317.04 2404.93C1285.11 2405.33 1254.78 2405.33 1233.61 2405.17Z" fill="#483320"/>
<path d="M1403.51 2423.74C1406.76 2423.63 1409.95 2423.5 1413.07 2423.37C1420.72 2420.72 1446.09 2405.42 1457.83 2398.11C1437.36 2401.46 1395.85 2403.34 1352.24 2404.32C1364.21 2410.97 1391.11 2424.13 1403.35 2423.75C1403.41 2423.75 1403.46 2423.75 1403.51 2423.74Z" fill="#483320"/>
<path d="M1480.86 2395.18C1490.56 2400.44 1512.4 2410.67 1522.13 2409.57C1541.6 2400.99 1551.97 2385.32 1554.72 2378.56C1533.5 2384.46 1506.21 2391.14 1480.86 2395.18Z" fill="#483320"/>
<path d="M1581.66 2370.53C1576.68 2372.15 1570.15 2374.16 1562.55 2376.35C1568.77 2380.01 1583.14 2387.34 1590.79 2387.34C1599.48 2378.74 1599.92 2365.82 1599.06 2360.44C1592.65 2365.49 1585.5 2369.04 1581.66 2370.53Z" fill="#483320"/>
<path d="M1031.13 2371.51L1011.91 2381.29C1017.04 2387.13 1033.04 2393.62 1049.38 2398.95C1045.55 2397.73 1040.25 2382.01 1038.08 2374.3C1035.53 2373.34 1033.21 2372.41 1031.13 2371.51Z" fill="#87622D"/>
<path d="M1927.28 2399.85C1937.78 2394.49 1940.49 2389.88 1940.54 2388.25C1942.25 2366.86 1932.47 2327.6 1927.76 2312.06C1924 2299.63 1899.83 2271.98 1888.22 2259.71C1872.43 2246.91 1838.14 2218.77 1827.3 2208.58C1816.46 2198.4 1809.59 2188.06 1807.51 2184.17L1792.29 2156.26C1790.04 2152.8 1784.31 2144.37 1779.42 2138.42C1774.52 2132.47 1769.04 2129.5 1766.92 2128.75L1752.82 2125.38L1745.67 2125.08L1724.52 2120.03C1722.74 2118.78 1717.62 2115.92 1711.31 2114.41C1697.2 2112.45 1683.86 2117.58 1678.95 2120.39C1665.36 2126.76 1634.83 2141.29 1621.42 2148.49C1608.01 2155.7 1584.1 2161.96 1573.82 2164.2L1528.27 2174.76C1515.71 2177.04 1486.21 2184.34 1468.74 2195.35C1449.92 2201.54 1427.49 2220.19 1418.64 2228.74L1388.31 2267.21C1396.18 2281.19 1416.42 2292.79 1425.55 2296.85L1500.88 2328.92L1571.86 2352.56L1665.17 2374.85L1736.57 2389.45L1813.78 2400.87C1847.24 2402.77 1916.78 2405.22 1927.28 2399.85Z" fill="#831A01"/>
<path d="M1724.52 2120.03L1745.67 2125.08C1747.05 2123.44 1744.05 2111.68 1742.37 2106.01C1741.13 2104.19 1738.08 2100.13 1735.84 2098.47C1734.44 2095.6 1727.54 2093.09 1724.26 2092.19L1716.35 2093.81C1715.57 2093.86 1713.84 2094.62 1713.15 2097.27C1712.46 2099.92 1713.88 2101.9 1714.68 2102.56C1716.64 2104.08 1721.04 2108.02 1722.9 2111.55C1724.76 2115.09 1724.75 2118.68 1724.52 2120.03Z" fill="#590101"/>
<path d="M1375.97 2276.22C1371.1 2280.63 1366.7 2285.96 1365.53 2291.3C1365.32 2292.28 1365.47 2293.37 1365.94 2294.57L1388.01 2289.61C1379.55 2282.78 1376.41 2278.14 1375.97 2276.22Z" fill="#1F1B0E"/>
<path d="M1493.92 2365.76C1496.4 2366.71 1498.9 2367.65 1501.42 2368.59C1529.73 2379.14 1559.7 2388.98 1584.32 2394.22C1585.84 2394.54 1587.37 2394.87 1588.92 2395.2C1577.93 2389.95 1564.88 2372.71 1559.73 2364.75C1552.12 2361.98 1543.53 2358.82 1534.38 2355.4C1522.42 2356.92 1514.21 2360.42 1477.01 2359.17C1482.51 2361.36 1488.17 2363.57 1493.92 2365.76Z" fill="#9A7531"/>
<path d="M1590.6 2395.56C1630.79 2404.2 1681.64 2416.02 1723.39 2424.37C1711.56 2421.94 1690.89 2403.25 1682 2394.16C1670.73 2391.75 1659.34 2389.23 1648.17 2386.72C1637.65 2391.1 1611.39 2398.99 1590.6 2395.56Z" fill="#9A7531"/>
<path d="M1732.81 2426.22C1756.04 2430.72 1775.75 2433.89 1788.11 2434.47C1801.36 2437.63 1821.32 2438.39 1842.15 2437.92C1832.45 2436.75 1815.49 2422 1808.23 2414.77C1800.16 2414.17 1792.37 2413.36 1785.14 2412.31C1771.16 2416.62 1741.12 2425.43 1732.81 2426.22Z" fill="#9A7531"/>
<path d="M1842.15 2437.92C1869.87 2437.3 1899.12 2434.51 1916.14 2432.36C1908.84 2430.61 1897.92 2420.34 1893.37 2415.42C1890.71 2415.54 1887.94 2415.65 1885.06 2415.75C1879.86 2421.57 1864 2434.16 1842.15 2437.92Z" fill="#9A7531"/>
<path d="M1916.14 2432.36C1922.66 2430.05 1937.2 2423.04 1943.19 2413.5C1945.5 2409.82 1946.13 2405.88 1945.85 2402.18C1942.37 2404.75 1938.34 2406.86 1934.27 2408.56C1933.05 2413.89 1927.71 2426.12 1916.14 2432.36Z" fill="#9A7531"/>
<path d="M1940.54 2388.25C1940.49 2389.88 1937.78 2394.49 1927.28 2399.85C1916.78 2405.22 1847.24 2402.77 1813.78 2400.87L1736.57 2389.45L1665.17 2374.85L1571.86 2352.56L1500.88 2328.92L1425.55 2296.85C1416.42 2292.79 1396.18 2281.19 1388.31 2267.21C1385.15 2269.01 1380.37 2272.24 1375.97 2276.22C1376.41 2278.14 1379.55 2282.78 1388.01 2289.61C1389.66 2290.95 1391.51 2292.36 1393.58 2293.86C1397.28 2296.52 1401.69 2299.44 1406.91 2302.6C1414.38 2307.11 1429.29 2313.86 1447.53 2321.48C1473.64 2332.38 1506.59 2345.03 1534.38 2355.4C1543.53 2358.82 1552.12 2361.98 1559.73 2364.75C1562.81 2365.88 1565.73 2366.94 1568.46 2367.92C1588.6 2372.9 1617.54 2379.82 1648.17 2386.72C1659.34 2389.23 1670.73 2391.75 1682 2394.16C1724 2403.17 1764.33 2410.85 1785.14 2412.31C1792.37 2413.36 1800.16 2414.17 1808.23 2414.77C1833.97 2416.69 1862.56 2416.53 1885.06 2415.75C1887.94 2415.65 1890.71 2415.54 1893.37 2415.42C1901.46 2415.06 1908.45 2414.63 1913.83 2414.22C1918.06 2413.68 1926.23 2411.92 1934.27 2408.56C1938.34 2406.86 1942.37 2404.75 1945.85 2402.18C1945.4 2396.28 1942.61 2390.98 1940.54 2388.25Z" fill="#0E0302"/>
<path fill-rule="evenodd" clip-rule="evenodd" d="M1447.53 2321.48L1425.43 2316.52C1421.06 2319.11 1410.02 2324.18 1400.78 2323.65C1407.91 2328.07 1414.88 2332.05 1420.34 2334.99C1431.89 2340.34 1449.23 2347.94 1469.18 2356.03C1465.74 2354.64 1453.31 2332.42 1447.53 2321.48Z" fill="#9A7531"/>
<path d="M1406.91 2302.6C1401.69 2299.44 1397.28 2296.52 1393.58 2293.86C1392.72 2301.71 1391.8 2317.93 1394.98 2319.97C1396.91 2321.22 1398.85 2322.45 1400.78 2323.65C1410.02 2324.18 1421.06 2319.11 1425.43 2316.52L1447.53 2321.48C1429.29 2313.86 1414.38 2307.11 1406.91 2302.6Z" fill="#1F1B0E"/>
<path d="M1447.53 2321.48C1453.31 2332.42 1465.74 2354.64 1469.18 2356.03C1471.75 2357.07 1474.36 2358.12 1477.01 2359.17C1514.21 2360.42 1522.42 2356.92 1534.38 2355.4C1506.59 2345.03 1473.64 2332.38 1447.53 2321.48Z" fill="#1F1B0E"/>
<path d="M1568.46 2367.92C1565.73 2366.94 1562.81 2365.88 1559.73 2364.75C1564.88 2372.71 1577.93 2389.95 1588.92 2395.2C1589.48 2395.32 1590.04 2395.44 1590.6 2395.56C1611.39 2398.99 1637.65 2391.1 1648.17 2386.72C1617.54 2379.82 1588.6 2372.9 1568.46 2367.92Z" fill="#1F1B0E"/>
<path d="M1723.54 2424.4C1726.68 2425.03 1729.78 2425.64 1732.81 2426.22C1741.12 2425.43 1771.16 2416.62 1785.14 2412.31C1764.33 2410.85 1724 2403.17 1682 2394.16C1690.89 2403.25 1711.56 2421.94 1723.39 2424.37C1723.44 2424.38 1723.49 2424.39 1723.54 2424.4Z" fill="#1F1B0E"/>
<path d="M1808.23 2414.77C1815.49 2422 1832.45 2436.75 1842.15 2437.92C1864 2434.16 1879.86 2421.57 1885.06 2415.75C1862.56 2416.53 1833.97 2416.69 1808.23 2414.77Z" fill="#1F1B0E"/>
<path d="M1913.83 2414.22C1908.45 2414.63 1901.46 2415.06 1893.37 2415.42C1897.92 2420.34 1908.84 2430.61 1916.14 2432.36C1927.71 2426.12 1933.05 2413.89 1934.27 2408.56C1926.23 2411.92 1918.06 2413.68 1913.83 2414.22Z" fill="#1F1B0E"/>
<path d="M1388.01 2289.61L1365.94 2294.57C1368.61 2301.31 1381.42 2311.15 1394.98 2319.97C1391.8 2317.93 1392.72 2301.71 1393.58 2293.86C1391.51 2292.36 1389.66 2290.95 1388.01 2289.61Z" fill="#9A7531"/>
<path fill-rule="evenodd" clip-rule="evenodd" d="M236.682 1804.7C302.759 1982.95 818.988 1943.82 839.638 2082.95L785.95 2278.59C1330.62 2446.78 1647.13 2438.16 2227.26 2278.59L2161.18 2087.29C2264.43 1917.73 2648.5 2000.34 2776.53 1796C2859.13 1887.3 2780.66 2056.86 2797.18 2161.2L2999.54 2330.76C2902.36 2421.55 2840.87 2460.81 2718.71 2513.36L2743.49 2643.79C2313.97 2938.79 2046.28 2997.86 1541.71 2995.96C909.258 2983.39 618.489 2918.41 269.721 2648.14C269.121 2593.97 269.737 2563.58 298.629 2509.02C168.255 2454.36 96.4434 2422.64 9.54102 2330.76C98.0063 2276.86 151.543 2253.9 211.903 2148.16C195.263 1954.79 183.683 1841.3 236.682 1804.7ZM269.721 2135.12C251.036 2041.45 248.303 1993.49 253.201 1913.39C381.226 2022.08 600.107 2004.69 757.041 2069.9C803.293 2119.11 796.553 2132.31 736.392 2135.12C631.598 2096.5 576.551 2091.15 480.342 2091.64C455.803 2082.74 337.976 2329.65 315.149 2456.85C218.891 2412.21 172.474 2384.38 100.397 2330.76C198.85 2280.01 232.066 2234.03 269.721 2135.12ZM728.132 2269.9L757.041 2191.64C653.746 2164.06 601.546 2157.89 509.251 2148.16C573.943 2212.69 620.285 2239.28 728.132 2269.9ZM327.538 2613.36C370.786 2430.12 406.29 2342.56 480.342 2200.33C852.257 2411.96 1098.03 2432.96 1541.71 2456.85C1945.21 2408.07 2181.72 2413.95 2537 2209.03C2618.05 2363.89 2639.39 2458.2 2677.41 2626.4C2275.39 2880.35 2022.1 2934.01 1541.71 2939.44C926.947 2965.36 583.588 2800.31 327.538 2613.36ZM2256.17 2191.64C2260.49 2225.5 2266.26 2241.52 2280.95 2265.55C2400.99 2230.33 2432.88 2197.95 2499.83 2143.81C2403.4 2154.73 2349.47 2162.45 2256.17 2191.64ZM2755.88 1909.04C2615.47 2013.38 2293.34 1995.28 2227.26 2104.68C2208.78 2147.18 2375.94 2095.99 2520.48 2095.99C2580.5 2131.56 2619.73 2243.9 2689.8 2448.15C2751.32 2443.19 2806.7 2407.1 2912.81 2330.76C2843.51 2294.71 2804.98 2271.3 2743.49 2161.2C2718.71 2065.56 2763.1 2002.94 2755.88 1909.04Z" fill="black"/>
<path d="M480.342 2200.33C406.29 2342.56 370.786 2430.12 327.538 2613.36C583.588 2800.31 926.947 2965.36 1541.71 2939.44C2022.1 2934.01 2275.39 2880.35 2677.41 2626.4C2639.39 2458.2 2618.05 2363.89 2537 2209.03C2181.72 2413.95 1945.21 2408.07 1541.71 2456.85C1098.03 2432.96 852.257 2411.96 480.342 2200.33Z" fill="#3A73AB"/>
<path d="M757.041 2191.64L728.132 2269.9C620.285 2239.28 573.943 2212.69 509.251 2148.16C601.546 2157.89 653.746 2164.06 757.041 2191.64Z" fill="#3A73AB"/>
<path d="M253.201 1913.39C248.303 1993.49 251.036 2041.45 269.721 2135.12C232.066 2234.03 198.85 2280.01 100.397 2330.76C172.474 2384.38 218.891 2412.21 315.149 2456.85C337.976 2329.65 455.803 2082.74 480.342 2091.64C576.551 2091.15 631.598 2096.5 736.392 2135.12C796.553 2132.31 803.293 2119.11 757.041 2069.9C600.107 2004.69 381.226 2022.08 253.201 1913.39Z" fill="#3A73AB"/>
<path d="M2227.26 2104.68C2293.34 1995.28 2615.47 2013.38 2755.88 1909.04C2763.1 2002.94 2718.71 2065.56 2743.49 2161.2C2804.98 2271.3 2843.51 2294.71 2912.81 2330.76C2806.7 2407.1 2751.32 2443.19 2689.8 2448.15C2619.73 2243.9 2580.5 2131.56 2520.48 2095.99C2375.94 2095.99 2208.78 2147.18 2227.26 2104.68Z" fill="#3A73AB"/>
<path d="M2280.95 2265.55C2266.26 2241.52 2260.49 2225.5 2256.17 2191.64C2349.47 2162.45 2403.4 2154.73 2499.83 2143.81C2432.88 2197.95 2400.99 2230.33 2280.95 2265.55Z" fill="#3A73AB"/>
<path d="M1232.45 2788.4L1218.45 2790.8C1215.25 2791.33 1211.92 2791.33 1208.45 2790.8C1204.98 2790.27 1201.38 2790 1197.65 2790C1196.85 2790 1195.65 2790 1194.05 2790C1192.45 2790 1190.58 2790 1188.45 2790C1186.58 2790 1184.72 2790.13 1182.85 2790.4C1180.98 2790.4 1179.38 2790.4 1178.05 2790.4L1169.25 2784.4C1170.05 2779.07 1169.78 2775.2 1168.45 2772.8C1167.38 2770.4 1166.58 2768.13 1166.05 2766C1165.52 2764.4 1164.45 2761.87 1162.85 2758.4C1161.25 2754.93 1159.78 2750.93 1158.45 2746.4C1158.45 2745.6 1157.12 2743.2 1154.45 2739.2C1151.78 2735.2 1149.65 2731.6 1148.05 2728.4L1143.25 2730.4C1141.92 2730.4 1140.45 2730.8 1138.85 2731.6C1137.25 2732.4 1133.25 2732.8 1126.85 2732.8C1126.05 2731.2 1124.72 2730.13 1122.85 2729.6C1120.98 2728.8 1118.85 2728.67 1116.45 2729.2C1114.32 2729.47 1112.05 2730.27 1109.65 2731.6C1107.52 2732.93 1105.65 2734.53 1104.05 2736.4L1087.65 2738.8C1086.58 2736.4 1085.38 2734.53 1084.05 2733.2C1082.98 2731.6 1081.78 2730.13 1080.45 2728.8C1079.38 2727.47 1078.45 2726 1077.65 2724.4C1076.85 2722.8 1076.45 2720.67 1076.45 2718C1081.78 2716.67 1084.85 2714.93 1085.65 2712.8C1086.72 2710.67 1087.52 2709.73 1088.05 2710C1089.65 2710.8 1091.12 2711.2 1092.45 2711.2C1090.58 2711.2 1090.05 2710.93 1090.85 2710.4C1091.65 2709.87 1095.25 2708.53 1101.65 2706.4L1130.85 2702.8L1136.85 2707.2C1141.12 2708.27 1144.32 2708.53 1146.45 2708C1148.58 2707.47 1150.05 2706.53 1150.85 2705.2C1151.65 2703.6 1152.05 2701.87 1152.05 2700C1152.32 2698.13 1152.58 2696.53 1152.85 2695.2C1153.38 2692.27 1152.72 2689.87 1150.85 2688C1149.25 2685.87 1146.98 2684 1144.05 2682.4C1143.52 2679.47 1142.45 2676.13 1140.85 2672.4C1139.52 2668.4 1137.78 2663.73 1135.65 2658.4C1133.78 2653.33 1132.05 2648 1130.45 2642.4C1129.12 2636.53 1127.92 2631.2 1126.85 2626.4C1125.78 2621.6 1124.98 2617.6 1124.45 2614.4C1123.92 2611.2 1123.52 2609.33 1123.25 2608.8C1119.52 2606.4 1116.45 2606.27 1114.05 2608.4C1111.65 2610.27 1109.65 2613.07 1108.05 2616.8C1106.72 2620.53 1105.78 2624.53 1105.25 2628.8C1104.98 2632.8 1104.98 2635.6 1105.25 2637.2C1104.98 2637.73 1104.32 2638.67 1103.25 2640C1102.18 2641.07 1100.98 2642.27 1099.65 2643.6C1098.32 2644.93 1097.12 2646.27 1096.05 2647.6C1094.98 2648.67 1094.32 2649.47 1094.05 2650C1092.98 2651.87 1092.72 2653.87 1093.25 2656C1093.78 2658.13 1093.38 2660 1092.05 2661.6C1086.72 2671.2 1080.45 2678.8 1073.25 2684.4C1071.38 2686 1069.92 2688.27 1068.85 2691.2C1067.78 2694.13 1067.12 2697.2 1066.85 2700.4C1066.58 2703.6 1066.85 2706.8 1067.65 2710C1068.45 2712.93 1069.92 2715.33 1072.05 2717.2C1069.38 2718.8 1067.25 2720.53 1065.65 2722.4C1064.32 2724 1063.12 2725.87 1062.05 2728C1061.25 2729.87 1060.45 2732 1059.65 2734.4C1058.85 2736.53 1057.92 2738.93 1056.85 2741.6C1052.32 2753.6 1050.05 2759.87 1050.05 2760.4L1044.45 2772L1039.25 2793.2C1039.52 2797.2 1038.05 2799.6 1034.85 2800.4C1031.92 2801.2 1027.12 2801.6 1020.45 2801.6C1014.05 2803.2 1008.45 2804 1003.65 2804C998.851 2803.73 997.251 2801.2 998.851 2796.4C1005.78 2779.87 1010.85 2767.6 1014.05 2759.6C1017.52 2751.33 1019.25 2745.07 1019.25 2740.8C1019.25 2739.47 1019.78 2738.4 1020.85 2737.6C1022.18 2736.53 1023.25 2735.73 1024.05 2735.2C1024.32 2734.67 1025.25 2731.87 1026.85 2726.8C1028.72 2721.73 1030.72 2716.13 1032.85 2710C1034.98 2703.6 1036.98 2697.6 1038.85 2692C1040.98 2686.13 1042.58 2682.13 1043.65 2680C1046.05 2674.93 1048.85 2669.2 1052.05 2662.8C1055.52 2656.4 1059.52 2650.27 1064.05 2644.4C1066.45 2641.2 1068.45 2636.8 1070.05 2631.2C1071.92 2625.6 1073.65 2619.47 1075.25 2612.8C1076.85 2606.13 1078.58 2599.33 1080.45 2592.4C1082.32 2585.47 1084.72 2579.07 1087.65 2573.2C1089.25 2572.67 1093.92 2566.8 1101.65 2555.6C1102.18 2555.07 1102.58 2554.53 1102.85 2554C1103.38 2553.2 1103.92 2552.53 1104.45 2552L1155.65 2548.8C1156.72 2550.13 1157.92 2551.73 1159.25 2553.6C1160.58 2555.47 1162.05 2557.47 1163.65 2559.6C1168.72 2566 1171.78 2571.07 1172.85 2574.8C1173.92 2578.53 1174.58 2581.07 1174.85 2582.4C1174.32 2583.2 1177.12 2592.27 1183.25 2609.6C1184.85 2613.87 1186.18 2618.67 1187.25 2624C1188.32 2629.33 1189.12 2634.4 1189.65 2639.2C1190.18 2643.73 1190.45 2647.73 1190.45 2651.2C1190.45 2654.4 1190.32 2656.13 1190.05 2656.4C1189.52 2656.67 1193.78 2660 1202.85 2666.4C1204.98 2668 1206.18 2669.47 1206.45 2670.8C1206.98 2672.13 1206.98 2673.33 1206.45 2674.4C1206.18 2675.47 1205.65 2676.4 1204.85 2677.2C1204.05 2678 1203.65 2678.53 1203.65 2678.8L1214.45 2693.2C1214.45 2693.2 1217.52 2704.8 1223.65 2728C1227.12 2739.2 1229.65 2748.8 1231.25 2756.8C1232.85 2764.53 1233.65 2770.53 1233.65 2774.8C1233.65 2775.33 1233.78 2775.73 1234.05 2776C1234.05 2775.73 1234.32 2776.4 1234.85 2778L1232.45 2788.4Z" fill="black"/>
<path d="M1379.46 2540.8L1369.86 2557.6C1365.06 2561.33 1362.8 2565.2 1363.06 2569.2C1363.33 2573.2 1364.93 2577.47 1367.86 2582C1367.33 2586 1366.93 2589.2 1366.66 2591.6C1366.66 2594 1366.66 2596.27 1366.66 2598.4C1366.93 2600.27 1367.2 2602.4 1367.46 2604.8C1368 2606.93 1368.66 2609.73 1369.46 2613.2L1365.46 2629.6L1364.66 2648.8L1370.26 2652L1378.26 2650.4C1380.13 2649.07 1381.86 2647.47 1383.46 2645.6C1385.06 2643.47 1386.4 2641.47 1387.46 2639.6C1388.8 2637.73 1389.73 2636.13 1390.26 2634.8C1391.06 2633.47 1391.6 2632.8 1391.86 2632.8C1392.13 2632.8 1392.93 2632.8 1394.26 2632.8C1395.86 2632.53 1397.6 2632.27 1399.46 2632C1401.6 2631.47 1403.73 2630.93 1405.86 2630.4C1408.26 2629.87 1410.26 2629.2 1411.86 2628.4C1412.66 2628.4 1415.73 2628.8 1421.06 2629.6C1426.66 2630.13 1432.93 2631.87 1439.86 2634.8C1441.73 2635.33 1443.6 2636.13 1445.46 2637.2C1447.33 2638 1449.33 2638.93 1451.46 2640L1462.66 2645.6C1466.13 2647.2 1469.06 2648.67 1471.46 2650C1473.86 2651.33 1475.46 2652 1476.26 2652L1483.06 2674.4C1482 2675.2 1481.06 2676.4 1480.26 2678C1479.73 2679.6 1479.2 2681.2 1478.66 2682.8C1478.4 2684.4 1478.4 2685.87 1478.66 2687.2C1478.93 2688.53 1479.46 2689.33 1480.26 2689.6C1480.8 2692.27 1481.2 2694.13 1481.46 2695.2C1481.73 2696.27 1482.13 2697.07 1482.66 2697.6C1483.2 2698.13 1483.86 2698.67 1484.66 2699.2C1485.73 2699.73 1487.2 2700.8 1489.06 2702.4L1484.26 2739.6L1462.66 2775.6C1460.8 2777.2 1457.86 2779.2 1453.86 2781.6C1449.86 2783.73 1445.2 2785.87 1439.86 2788C1434.8 2790.13 1429.33 2792 1423.46 2793.6C1417.6 2794.93 1411.73 2795.6 1405.86 2795.6C1401.86 2797.2 1399.33 2798.4 1398.26 2799.2C1397.2 2799.73 1396.13 2800 1395.06 2800C1394.26 2799.73 1392.53 2799.2 1389.86 2798.4C1387.46 2797.33 1382.93 2796.13 1376.26 2794.8C1374.66 2793.2 1373.2 2792 1371.86 2791.2C1370.8 2790.4 1369.73 2789.6 1368.66 2788.8C1367.86 2788 1367.06 2786.93 1366.26 2785.6C1365.46 2784.27 1364.66 2782.13 1363.86 2779.2C1361.2 2776.53 1357.73 2774.13 1353.46 2772C1349.2 2769.6 1345.6 2768.8 1342.66 2769.6C1338.93 2774.93 1335.2 2779.2 1331.46 2782.4C1327.73 2785.6 1323.6 2787.07 1319.06 2786.8C1316.13 2785.2 1312.93 2784.27 1309.46 2784C1306.26 2783.73 1303.33 2783.73 1300.66 2784C1298 2784 1295.73 2784 1293.86 2784C1292.26 2783.73 1291.46 2782.93 1291.46 2781.6C1291.73 2780.53 1292.53 2779.2 1293.86 2777.6C1294.4 2776.53 1295.2 2775.2 1296.26 2773.6C1297.6 2771.73 1298.93 2769.6 1300.26 2767.2L1299.46 2760.4L1306.66 2711.6C1305.6 2708.67 1305.2 2703.87 1305.46 2697.2C1305.73 2690.27 1306.13 2680.93 1306.66 2669.2C1307.46 2657.47 1308.13 2642.93 1308.66 2625.6C1309.46 2608 1309.73 2587.07 1309.46 2562.8C1309.73 2558.8 1310.26 2554.93 1311.06 2551.2C1312.13 2547.47 1313.06 2544 1313.86 2540.8C1314.66 2537.33 1315.2 2534.27 1315.46 2531.6C1315.73 2528.67 1315.46 2526 1314.66 2523.6C1314.4 2521.2 1314.8 2519.33 1315.86 2518C1316.93 2516.4 1318.93 2515.87 1321.86 2516.4L1362.26 2518L1371.86 2521.2L1379.46 2540.8ZM1369.06 2766.4C1372.26 2768 1374.8 2769.2 1376.66 2770C1378.53 2770.53 1380.13 2770.8 1381.46 2770.8C1383.06 2770.8 1384.53 2770.53 1385.86 2770C1387.2 2769.47 1388.66 2768.8 1390.26 2768L1403.06 2764L1419.46 2748C1424 2746.67 1427.46 2744.53 1429.86 2741.6C1432.53 2738.4 1434 2734.13 1434.26 2728.8C1435.33 2724.27 1436.53 2720.13 1437.86 2716.4C1439.2 2712.4 1440.13 2708.53 1440.66 2704.8C1441.2 2701.07 1441.2 2697.33 1440.66 2693.6C1440.4 2689.6 1439.2 2685.33 1437.06 2680.8L1431.86 2667.6L1410.66 2657.2C1406.93 2656.4 1402.93 2655.87 1398.66 2655.6C1394.4 2655.33 1390.4 2655.6 1386.66 2656.4C1382.93 2657.2 1379.73 2658.67 1377.06 2660.8C1374.4 2662.67 1372.93 2665.47 1372.66 2669.2L1365.06 2677.2C1363.73 2688.13 1362.93 2696.93 1362.66 2703.6C1362.13 2710.53 1361.46 2717.2 1360.66 2723.6C1360.13 2730 1359.6 2734.13 1359.06 2736C1358 2739.73 1358 2743.2 1359.06 2746.4C1360.13 2749.33 1360.13 2751.2 1359.06 2752L1369.06 2766.4Z" fill="black"/>
<path d="M1674.31 2622V2640.4H1663.91L1648.71 2652.4C1635.64 2654.27 1624.98 2656.93 1616.71 2660.4C1608.44 2663.6 1604.58 2668.13 1605.11 2674C1604.58 2675.33 1604.31 2676.93 1604.31 2678.8C1604.31 2680.4 1605.24 2681.2 1607.11 2681.2L1599.11 2721.2L1595.51 2725.6V2770L1593.11 2792.4L1585.11 2800.4L1539.51 2797.2L1529.51 2783.6L1532.31 2776.4L1530.71 2754.4L1535.51 2714L1539.51 2684.4C1539.51 2683.6 1539.64 2682.93 1539.91 2682.4C1539.91 2681.87 1539.91 2681.2 1539.91 2680.4C1540.18 2679.6 1540.31 2678.93 1540.31 2678.4C1541.64 2677.33 1542.44 2674.93 1542.71 2671.2C1543.24 2667.47 1543.38 2665.07 1543.11 2664C1543.11 2662.13 1542.98 2660.4 1542.71 2658.8C1542.71 2657.2 1542.18 2653.73 1541.11 2648.4C1540.84 2646.8 1539.91 2644.93 1538.31 2642.8C1536.98 2640.4 1535.51 2638.27 1533.91 2636.4L1539.11 2624H1546.71L1587.91 2616.4L1597.91 2621.2C1597.11 2625.73 1596.98 2629.6 1597.51 2632.8C1598.31 2635.73 1599.38 2638 1600.71 2639.6C1602.31 2641.2 1604.04 2642.27 1605.91 2642.8C1607.78 2643.07 1609.38 2642.8 1610.71 2642L1617.91 2638C1619.24 2637.47 1619.64 2636 1619.11 2633.6C1618.84 2631.2 1618.98 2628.13 1619.51 2624.4L1669.11 2615.6L1674.31 2622Z" fill="black"/>
<path d="M1906.2 2779.2L1850.2 2786L1838.6 2767.2C1838.6 2763.73 1835.93 2763.87 1830.6 2767.6C1829.27 2768.4 1827.93 2769.73 1826.6 2771.6C1825.27 2773.47 1823.93 2775.33 1822.6 2777.2C1821.8 2778.27 1821 2779.33 1820.2 2780.4C1819.4 2781.47 1818.6 2782.67 1817.8 2784C1809.53 2790.13 1801 2794.13 1792.2 2796C1783.67 2797.87 1776.33 2796.67 1770.2 2792.4C1765.67 2791.87 1762.6 2790.8 1761 2789.2C1760.2 2788.67 1759.13 2787.73 1757.8 2786.4L1732.2 2784.8L1721.4 2779.6L1711.4 2754.4L1713.4 2746L1704.6 2710.8L1721.4 2682.8L1735 2670.4C1740.07 2667.73 1745.93 2665.6 1752.6 2664C1759.27 2662.4 1765.93 2661.33 1772.6 2660.8C1779.27 2660 1785.67 2659.87 1791.8 2660.4C1797.93 2660.67 1803 2661.47 1807 2662.8C1807 2667.07 1808.33 2669.87 1811 2671.2C1813.67 2672.53 1818.87 2674 1826.6 2675.6C1829.27 2671.07 1830.6 2665.6 1830.6 2659.2C1830.6 2652.53 1829.4 2645.6 1827 2638.4L1820.6 2618C1818.47 2617.2 1815.13 2615.87 1810.6 2614C1806.33 2611.87 1802.73 2610.13 1799.8 2608.8L1782.6 2611.6L1765 2615.2L1761 2608.8L1765.4 2598.4L1768.2 2592L1773.8 2590.8L1792.2 2587.6L1808.6 2593.2L1826.6 2590.4L1861.4 2600.8L1876.2 2623.2L1881.4 2686.8L1880.2 2706.8L1889 2753.6L1894.2 2756H1906.6L1911.8 2770L1906.2 2779.2ZM1759.4 2714C1758.07 2720.93 1758.07 2726.8 1759.4 2731.6C1761 2736.4 1763.53 2740.4 1767 2743.6L1773 2756C1777.8 2757.6 1782.33 2758.8 1786.6 2759.6C1790.87 2760.4 1795.27 2760.53 1799.8 2760C1804.6 2759.2 1809.53 2757.73 1814.6 2755.6C1819.93 2753.2 1826.07 2749.73 1833 2745.2L1833.8 2724.8L1826.6 2689.2C1822.87 2687.87 1819.53 2687.2 1816.6 2687.2C1813.93 2687.2 1811.27 2687.47 1808.6 2688C1805.4 2688.8 1801.67 2689.47 1797.4 2690C1793.13 2690.53 1788.73 2691.2 1784.2 2692C1779.93 2692.53 1775.93 2693.33 1772.2 2694.4C1768.73 2695.2 1766.2 2696.4 1764.6 2698L1759.4 2714Z" fill="black"/>
</svg>
