<svg width="3290" height="3273" viewBox="0 0 3290 3273" fill="none" xmlns="http://www.w3.org/2000/svg">
<defs>
<linearGradient id="paint0_linear_2267_18024" x1="1644.56" y1="0" x2="1644.56" y2="4600.67" gradientUnits="userSpaceOnUse">
<stop stop-color="#216CB3"/>
<stop offset="1" stop-color="#CCDBE9" stop-opacity="0"/>
</linearGradient>
</defs>
<path fill-rule="evenodd" clip-rule="evenodd" d="M1614.47 3000C2442.9 3000 3114.47 2328.43 3114.47 1500C3114.47 671.573 2442.9 0 1614.47 0C786.046 0 114.473 671.573 114.473 1500C114.473 2328.43 786.046 3000 1614.47 3000ZM426.973 771C264.173 983 218.473 1345.33 215.973 1500C215.973 1934.81 437.973 2284.5 548.973 2405C630.64 2510.33 880.273 2745.5 1225.47 2843.5C1570.67 2941.5 1883.31 2884.33 1996.47 2843.5C2034.97 2841.17 2171.07 2799.8 2407.47 2653C2643.87 2506.2 2813.97 2224.83 2869.47 2102.5C2912.47 2025.5 3001.87 1797.2 3015.47 1500C3029.07 1202.8 2883.14 890.167 2808.47 771C2765.47 711 2651.57 562.4 2539.97 448C2428.37 333.6 2199.14 223.667 2098.47 183C2049.81 166 1884.87 125.9 1614.47 101.5C1344.07 77.1 1011.14 229.667 878.473 309C785.64 361 565.373 526.2 426.973 771Z" fill="url(#paint0_linear_2267_18024)"/>
<path fill-rule="evenodd" clip-rule="evenodd" d="M245.297 1609.92C316.656 1792.78 874.149 1752.64 896.449 1895.36L838.47 2096.06C1426.68 2268.59 1768.49 2259.75 2394.99 2096.06L2323.63 1899.82C2435.13 1725.88 2849.9 1810.62 2988.16 1601C3077.36 1694.66 2992.62 1868.6 3010.46 1975.64L3229 2149.58C3124.05 2242.71 3057.65 2282.99 2925.72 2336.9L2952.48 2470.7C2488.63 2773.31 2199.54 2833.91 1654.64 2831.95C971.634 2819.07 657.624 2752.4 280.977 2475.16C280.329 2419.58 280.995 2388.41 312.196 2332.44C171.4 2276.37 93.8488 2243.83 0 2149.58C95.5366 2094.29 153.353 2070.73 218.537 1962.26C200.567 1763.89 188.062 1647.47 245.297 1609.92ZM280.977 1948.88C260.798 1852.79 257.847 1803.59 263.137 1721.42C401.395 1832.92 637.772 1815.08 807.25 1881.98C857.199 1932.46 849.92 1945.99 784.95 1948.88C671.78 1909.27 612.333 1903.77 508.434 1904.28C481.933 1895.15 354.688 2148.44 330.036 2278.92C226.084 2233.13 175.957 2204.58 98.1188 2149.58C204.442 2097.51 240.312 2050.35 280.977 1948.88ZM776.03 2087.14L807.25 2006.86C695.698 1978.56 639.326 1972.23 539.653 1962.26C609.517 2028.46 659.563 2055.73 776.03 2087.14ZM343.416 2439.48C390.121 2251.5 428.463 2161.68 508.434 2015.78C910.077 2232.87 1175.49 2254.42 1654.64 2278.92C2090.4 2228.88 2345.81 2234.92 2729.49 2024.7C2817.02 2183.56 2840.06 2280.3 2881.12 2452.86C2446.97 2713.36 2173.43 2768.41 1654.64 2773.97C990.737 2800.57 619.932 2631.26 343.416 2439.48ZM2426.21 2006.86C2430.88 2041.6 2437.11 2058.03 2452.97 2082.68C2582.61 2046.55 2617.04 2013.33 2689.35 1957.8C2585.2 1968.99 2526.97 1976.92 2426.21 2006.86ZM2965.86 1716.96C2814.23 1824 2466.35 1805.42 2394.99 1917.66C2375.03 1961.25 2555.55 1908.74 2711.65 1908.74C2776.46 1945.23 2818.83 2060.47 2894.5 2270C2960.94 2264.91 3020.74 2227.89 3135.34 2149.58C3060.49 2112.59 3018.89 2088.58 2952.48 1975.64C2925.72 1877.52 2973.66 1813.29 2965.86 1716.96Z" fill="black"/>
<path d="M508.434 2015.78C428.463 2161.68 390.121 2251.5 343.416 2439.48C619.932 2631.26 990.737 2800.57 1654.64 2773.97C2173.43 2768.41 2446.97 2713.36 2881.12 2452.86C2840.06 2280.3 2817.02 2183.56 2729.49 2024.7C2345.81 2234.92 2090.4 2228.88 1654.64 2278.92C1175.49 2254.42 910.077 2232.87 508.434 2015.78Z" fill="#5CA4EF"/>
<path d="M807.25 2006.86L776.03 2087.14C659.563 2055.73 609.517 2028.46 539.653 1962.26C639.326 1972.23 695.698 1978.56 807.25 2006.86Z" fill="#5CA4EF"/>
<path d="M263.137 1721.42C257.847 1803.59 260.798 1852.79 280.977 1948.88C240.312 2050.35 204.442 2097.51 98.1188 2149.58C175.957 2204.58 226.084 2233.13 330.036 2278.92C354.688 2148.44 481.933 1895.15 508.434 1904.28C612.333 1903.77 671.78 1909.27 784.95 1948.88C849.92 1945.99 857.199 1932.46 807.25 1881.98C637.772 1815.08 401.395 1832.92 263.137 1721.42Z" fill="#5CA4EF"/>
<path d="M2394.99 1917.66C2466.35 1805.42 2814.23 1824 2965.86 1716.96C2973.66 1813.29 2925.72 1877.52 2952.48 1975.64C3018.89 2088.58 3060.49 2112.59 3135.34 2149.58C3020.74 2227.89 2960.94 2264.91 2894.5 2270C2818.83 2060.47 2776.46 1945.23 2711.65 1908.74C2555.55 1908.74 2375.03 1961.25 2394.99 1917.66Z" fill="#5CA4EF"/>
<path d="M2452.97 2082.68C2437.11 2058.03 2430.88 2041.6 2426.21 2006.86C2526.97 1976.92 2585.2 1968.99 2689.35 1957.8C2617.04 2013.33 2582.61 2046.55 2452.97 2082.68Z" fill="#5CA4EF"/>
<path d="M3218.02 1369.04L3234.07 1461.07C3236.53 1478.84 3244.55 1507.68 3232.42 1528.39C3237.62 1557.7 3222.37 1590.78 3214.1 1603.65C3187.83 1608.27 3131.99 1618.46 3020.93 1652.5C2909.87 1686.54 2869.44 1732.7 2863.1 1751.52C2857.97 1769.5 2791.74 1816.05 2797.84 1836.24C2763.7 1861.69 2755.42 1962.67 2755.55 2009.97C2751.95 2023.78 2781.92 2083.92 2798.46 2114.35C2819.13 2152.39 2792.52 2202.98 2757.65 2301.11C2697.98 2360.35 2638.94 2424.1 2601.04 2455.91C2587.6 2472.83 2497.12 2520.79 2344.81 2570.38C2277.98 2620.28 2216.52 2711.43 2194.15 2750.76C2186.56 2770.9 2204.87 2842.78 2204.91 2869.86C2212.72 2900.01 2203.73 2927.6 2198.26 2937.63C2196.95 2956.71 2174.4 2995.5 2094.71 2998.05C2119.98 3004.97 2175.16 3011.77 2193.75 2983.64C2212.33 2955.5 2226.36 2929.94 2231.06 2920.68C2232.38 2907.25 2233.74 2878.74 2228.66 2872.2C2223.58 2865.65 2229.3 2841.41 2232.79 2830.11L2243.17 2797.28C2243.6 2780.88 2258.5 2732.24 2314.67 2668.9C2370.84 2605.57 2418.83 2597.14 2435.8 2600.85L2536.53 2543.4L2627.15 2490.35L2671.31 2473.44L2697.45 2447.2C2707.88 2439.58 2736.21 2418.45 2766.12 2394.88C2795.99 2361.51 2824.99 2313.76 2835.76 2294.05C2844.29 2281.44 2863.74 2242.2 2873.29 2186.1C2882.83 2130 2860.58 2078.27 2848.27 2059.42C2843.45 2055.58 2834.44 2041.64 2836.91 2016.53C2822.34 1993.5 2837.67 1937.27 2847.16 1912.03C2849.36 1908.17 2865.05 1882.32 2910.2 1809.83C2966.64 1719.23 3045.34 1723.35 3107.71 1696.7C3157.6 1675.38 3227.46 1656.96 3256.16 1650.41C3289.2 1579.47 3294.53 1520.94 3284.69 1488.29C3278.45 1467.61 3226.31 1403.87 3218.02 1369.04Z" fill="#543E30"/>
<path d="M2990.76 1447.39C2976.41 1458.14 2950.27 1472.75 2944.1 1495.94C2919.62 1512.88 2906.86 1546.99 2903.54 1561.93C2918.74 1583.84 2950.81 1630.68 3004.8 1733.53C3058.79 1836.38 3054.46 1897.59 3045.55 1915.34C3036.39 1931.64 3049.94 2011.44 3031.31 2021.32C3037.25 2063.49 2971.36 2140.44 2937.66 2173.64C2930.39 2185.92 2866.57 2206.96 2833.32 2216.63C2791.75 2228.72 2774.54 2283.23 2729.38 2377.07L2667.73 2559.7L2667.98 2522.66C2666.05 2509.89 2661.12 2474.9 2656.8 2437.06C2659.48 2392.36 2672.99 2338.14 2679.41 2316.61C2682.36 2301.68 2696.55 2260.25 2729.68 2213.98C2762.81 2167.72 2815.22 2147.11 2837.28 2142.59C2843.39 2143.31 2859.64 2139.9 2875.74 2120.47C2902.36 2114.61 2931.51 2064.14 2942.75 2039.64C2943.95 2035.35 2951.27 2006.01 2970.97 1922.92C2995.61 1819.05 2937.29 1766.05 2912.32 1702.99C2892.35 1652.55 2856.27 1589.95 2840.72 1564.96C2867.85 1491.56 2905.68 1446.58 2935.8 1430.59C2954.88 1420.46 3036.85 1412.63 3067.43 1394L2990.76 1447.39Z" fill="#543E30"/>
<path d="M66.6996 1604.31L59.0044 1697.41C58.1484 1715.33 52.7561 1744.78 66.6996 1764.31C64.1563 1793.97 82.3212 1825.54 91.7216 1837.61C118.292 1839.86 174.83 1844.98 288.501 1868.89C402.172 1892.8 446.596 1935.13 454.599 1953.31C461.326 1970.75 531.47 2011.15 527.213 2031.81C563.505 2054.09 580.837 2153.91 584.967 2201.03C589.794 2214.46 565.358 2277.05 551.625 2308.85C534.459 2348.59 565.51 2396.59 609.071 2491.17C673.832 2544.81 738.361 2602.99 778.974 2631.26C793.885 2646.9 888.313 2686.53 1044.46 2722.21C1115.51 2765.9 1184.92 2851.14 1210.74 2888.31C1220.11 2907.68 1208.34 2980.92 1210.74 3007.89C1205.67 3038.62 1217.11 3065.29 1223.46 3074.78C1226.48 3093.67 1252.43 3130.27 1332.03 3125.64C1307.48 3134.81 1253.14 3146.55 1232.1 3120.2C1211.06 3093.85 1194.78 3069.66 1189.27 3060.86C1186.75 3047.6 1182.82 3019.33 1187.29 3012.35C1191.76 3005.37 1183.89 2981.75 1179.39 2970.81L1166.11 2939.05C1164.2 2922.75 1144.99 2875.65 1083.34 2817.62C1021.7 2759.6 973.152 2755.53 956.583 2760.74L851.09 2712.59L756.063 2667.91L710.563 2655.04L682.17 2631.26C671.101 2624.61 640.985 2606.11 609.071 2585.33C576.323 2554.79 543.137 2509.83 530.637 2491.17C521.007 2479.39 498.109 2442.06 483.556 2387.04C469.003 2332.03 486.505 2278.5 497.075 2258.62C501.524 2254.37 509.244 2239.67 504.531 2214.89C516.97 2190.63 496.638 2136.01 484.917 2111.73C482.375 2108.08 464.42 2083.75 412.931 2015.62C348.57 1930.46 270.559 1941.64 206.05 1920.72C154.442 1903.97 83.2069 1891.91 54.0402 1887.97C14.7437 1820.3 4.17644 1762.48 11.0386 1729.07C15.3851 1707.91 61.5769 1639.74 66.6996 1604.31Z" fill="#543E30"/>
<path d="M251.538 1715.33C268.283 1724.58 297.976 1736.22 308.132 1759.65C336.471 1773.97 355.268 1807.92 361.124 1823.11C348.705 1848.2 322.594 1901.78 282.471 2017.12C242.348 2132.47 256.64 2196 268.801 2213.35C280.992 2229.14 279.534 2314.66 300.617 2322.4C301.116 2367.42 382.381 2438.81 422.951 2468.88C432.527 2480.72 502.694 2493.82 539.055 2499.28C584.506 2506.12 611.221 2560.82 673.462 2652.82L760.97 2796.76C760.95 2783.11 760.531 2745.74 759.015 2705.49C749.08 2659.03 726.291 2604.11 716.138 2582.46C710.668 2567.22 689.209 2525.8 647.14 2481.97C605.071 2438.14 546.917 2423.89 523.099 2422.25C516.816 2423.86 499.261 2422.57 479.306 2404.47C450.501 2402.06 411.935 2353.27 396.252 2329.17C394.317 2324.85 381.977 2295.13 348.09 2210.83C305.732 2105.45 358.341 2041.73 374.425 1972.15C387.291 1916.49 415.09 1845.84 427.381 1817.48C387.273 1744.37 340.491 1702.54 306.404 1690.01C284.814 1682.07 197.739 1685.37 162.755 1670.14L251.538 1715.33Z" fill="#543E30"/>
<path d="M840.98 2783.25C844.615 2798.68 855.753 2801.68 860.868 2801.25L865.48 2783.79C860.679 2782.22 850.982 2777.8 850.611 2772.61C850.239 2767.41 838.363 2757.98 832.471 2753.91L830.051 2753.29L823.094 2751.5L803.164 2751.68L792.869 2746.16L783.427 2742.17L775.431 2734.94L771.358 2735.73L762.659 2737.42L734.697 2742.86L708.551 2721.48C702.885 2718.12 690.467 2708 686.116 2694.34C680.677 2677.28 651.132 2645.22 638.458 2625.02C628.319 2608.87 602.181 2574.86 590.379 2559.88C580.648 2552.66 565.171 2541.83 551.26 2533.46C550.062 2532.74 548.876 2532.04 547.706 2531.36C536.498 2524.85 526.784 2520.39 522.667 2521.38C513.128 2523.68 497.377 2519.24 490.694 2516.74C476.733 2514.85 442.709 2513.47 418.305 2522.96C416.863 2523.52 415.414 2524.11 413.964 2524.73C390.868 2534.51 367.174 2550.55 357.748 2557.73L340.748 2557.15L347.179 2574.36C345.775 2601.05 350.236 2662.22 379.311 2693.39C408.386 2724.56 438.664 2738.25 450.168 2741.19C460.722 2743.4 485.845 2749.49 501.91 2756.13C517.975 2762.78 559.324 2766.59 577.99 2767.67C593.557 2768.6 626.022 2771.13 631.344 2773.82C636.666 2776.51 678.246 2776.67 698.371 2776.41L760.368 2747.87L774.86 2745.05L785.316 2754.51C797.022 2751.13 814.455 2760.64 821.708 2765.81C826.617 2765.19 837.346 2767.81 840.98 2783.25Z" fill="#B59460"/>
<path d="M418.305 2522.96C442.709 2513.47 476.733 2514.85 490.694 2516.74C497.377 2519.24 513.128 2523.68 522.667 2521.38C526.784 2520.39 536.498 2524.85 547.706 2531.36L556.329 2524.79L522.909 2484.02L505.957 2457.42C489.035 2466.23 450.298 2481.01 430.724 2469.68C445.266 2477.67 485.808 2463.07 504.261 2454.76L464.039 2391.65L525.93 2480.68L543.841 2502.1C551.619 2476.51 566.026 2421.17 563.072 2399.55C562.988 2398.99 562.898 2398.44 562.8 2397.91C562.903 2398.43 562.994 2398.98 563.072 2399.55C567.395 2428.31 554.127 2481.99 546.809 2505.65L562.468 2524.38L572.72 2533.65C587.024 2508.64 612.667 2452.75 600.806 2429.26C615.607 2455.11 589.889 2511.11 575.18 2535.88L605.319 2563.15L619.366 2581.83C626.496 2563.61 639.883 2524.27 640.321 2503.43C640.309 2501.96 640.267 2500.51 640.193 2499.07C640.314 2500.41 640.354 2501.87 640.321 2503.43C640.586 2534.06 628.016 2569.88 621.397 2584.54L658.747 2624.45C661.961 2609.63 668.186 2577.92 667.371 2569.59C669.395 2576.58 663.855 2610.56 660.833 2626.67L690.168 2662.26L716.692 2688.99L747.94 2712.57C735.276 2699.3 723.78 2685.74 724.056 2680.85C724.513 2672.76 705.909 2631.54 696.549 2611.93C689.769 2587.83 673.72 2535.78 663.771 2520.4C653.822 2505.02 643.316 2469.38 639.307 2453.48C635.638 2441.05 618.875 2407.81 581.176 2374.3C543.477 2340.79 513.327 2330.87 502.965 2330.09C492.593 2325.9 465.524 2319.21 440.222 2326.07C426.104 2324.53 416.949 2318.55 414.136 2315.75L414.811 2341.79C407.15 2352.32 391.606 2378.56 390.722 2399.32C389.616 2425.26 409.623 2526.49 413.964 2524.73C415.414 2524.11 416.863 2523.52 418.305 2522.96Z" fill="#CAA672"/>
<path d="M590.379 2559.88C602.181 2574.86 628.319 2608.87 638.458 2625.02C651.132 2645.22 680.677 2677.28 686.116 2694.34L712.306 2711.97L762.659 2737.42L771.358 2735.73C765.04 2729.82 756.24 2721.26 747.94 2712.57L713.293 2692.75L687.109 2665.64L657.319 2630.56L618.187 2588.08L601.92 2566.91L559.069 2528.13L551.26 2533.46C565.171 2541.83 580.648 2552.66 590.379 2559.88Z" fill="#CAA672"/>
<path d="M747.94 2712.57L716.692 2688.99L690.168 2662.26L660.833 2626.67L658.747 2624.45L621.397 2584.54L619.366 2581.83L605.319 2563.15L575.18 2535.88L572.72 2533.65L562.468 2524.38L546.809 2505.65L543.841 2502.1L525.93 2480.68L464.039 2391.65L504.261 2454.76L505.957 2457.42L522.909 2484.02L556.329 2524.79L559.069 2528.13L601.92 2566.91L618.187 2588.08L657.319 2630.56L687.109 2665.64L713.293 2692.75L747.94 2712.57Z" fill="#715D58"/>
<path d="M783.997 2318.73C781.325 2319.04 774.032 2330.84 770.719 2336.7L790.116 2352.35L795.753 2391.87C800.541 2390.42 817.33 2379.56 846.184 2347.68C822.01 2381.07 802.754 2392.89 796.147 2394.63L796.769 2398.99L802.963 2453.96C817.281 2444.25 849.977 2418.07 869.551 2389C870.185 2388.05 870.819 2387.08 871.451 2386.11C870.833 2387.07 870.199 2388.04 869.551 2389C843.046 2428.9 814.483 2450.83 803.293 2456.89L808.492 2513.37C825.456 2504.38 862.737 2481.53 876.152 2462.09C858.887 2487.77 824.059 2509.22 808.802 2516.74L809.353 2522.72L813.342 2570.24L813.503 2585.31L814.173 2628.66C825.056 2624.22 847.382 2613.99 853.613 2607.04C853.904 2606.7 854.175 2606.36 854.427 2606.02C854.199 2606.35 853.926 2606.69 853.613 2607.04C845.782 2616.29 824.322 2627.62 814.228 2632.27L814.335 2639.2L825.921 2729.01L827.658 2732.86L833.609 2728.75C834.911 2728.41 837.999 2726.05 839.932 2719.29C839.345 2689.61 861.502 2658.1 872.654 2646.05C877.153 2635.44 886.358 2609.64 887.182 2591.26C890.187 2544.25 926.939 2497.05 925.53 2491.6C920.61 2487.15 919.535 2441.77 917.787 2428.04C916.039 2414.31 920.117 2398.26 920.694 2393.09C921.156 2388.96 911.855 2373.33 907.146 2366.03L887.361 2340.91C879.525 2335.97 860.584 2324.35 847.505 2317.37C834.599 2301.14 787.336 2318.34 783.997 2318.73Z" fill="#CAA672"/>
<path d="M821.669 2731.23L825.921 2729.01L814.335 2639.2L814.228 2632.27L814.173 2628.66L813.503 2585.31L813.342 2570.24L809.353 2522.72L808.802 2516.74L808.492 2513.37L803.293 2456.89L802.963 2453.96L796.769 2398.99L796.147 2394.63L795.753 2391.87L790.116 2352.35L770.719 2336.7L786.905 2355.9L792.615 2403.58L794.085 2418.02L794.615 2423.23L798.572 2462.11L800.268 2482.62L800.726 2488.16L804.066 2528.56L804.955 2540.77L805.233 2544.58L808.594 2590.73L809.12 2606.39L809.65 2608.65L810.808 2643.1L812.602 2660.89L821.669 2731.23Z" fill="#715D58"/>
<path d="M827.658 2732.86L825.921 2729.01L821.669 2731.23L823.094 2751.5L830.051 2753.29L827.658 2732.86Z" fill="#715D58"/>
<path d="M812.783 2731.16L821.669 2731.23L812.602 2660.89L810.808 2643.1L809.65 2608.65C809.508 2608.6 809.364 2608.56 809.217 2608.51C795.599 2604.14 765.493 2593.75 758.374 2584C770.486 2594.35 797.251 2603.24 809.12 2606.39L808.594 2590.73L805.233 2544.58C780.45 2539.69 726.208 2521.8 707.505 2489.38C732.518 2517.79 782.894 2535.48 804.955 2540.77L804.066 2528.56L800.726 2488.16C781.951 2482.95 737.832 2464.86 711.556 2434.22C732.89 2457.92 779.587 2476.36 800.268 2482.62L798.572 2462.11L794.615 2423.23C785.096 2422.34 762.573 2417.41 748.631 2404.79C767.048 2415.1 786.607 2417.91 794.085 2418.02L792.615 2403.58L786.905 2355.9L770.719 2336.7C769.093 2333.96 763.761 2327.82 755.439 2325.15C730.443 2331.75 705.048 2362.29 693.707 2379.35C684.634 2393 681.849 2422.27 681.59 2435.19C681.229 2445.62 681.349 2473.53 684.721 2501.79C688.092 2530.04 708.237 2571.27 717.887 2588.35C722.475 2591.11 732.755 2600.44 737.171 2615.67C741.587 2630.9 752.928 2650.05 758.046 2657.72C766.943 2667.67 785.039 2689.13 786.243 2695.38C787.447 2701.63 804.438 2721.84 812.783 2731.16Z" fill="#CAA672"/>
<path d="M814.173 2628.66L814.228 2632.27C824.322 2627.62 845.782 2616.29 853.613 2607.04C847.382 2613.99 825.056 2624.22 814.173 2628.66Z" fill="#715D58"/>
<path d="M758.374 2584C765.493 2593.75 795.599 2604.14 809.217 2608.51L809.12 2606.39C797.251 2603.24 770.486 2594.35 758.374 2584Z" fill="#715D58"/>
<path d="M707.505 2489.38C726.208 2521.8 780.45 2539.69 805.233 2544.58L804.955 2540.77C782.894 2535.48 732.518 2517.79 707.505 2489.38Z" fill="#715D58"/>
<path d="M808.802 2516.74C824.059 2509.22 858.887 2487.77 876.152 2462.09C862.737 2481.53 825.456 2504.38 808.492 2513.37L808.802 2516.74Z" fill="#715D58"/>
<path d="M711.556 2434.22C737.832 2464.86 781.951 2482.95 800.726 2488.16L800.268 2482.62C779.587 2476.36 732.89 2457.92 711.556 2434.22Z" fill="#715D58"/>
<path d="M802.963 2453.96L803.293 2456.89C814.483 2450.83 843.046 2428.9 869.551 2389C849.977 2418.07 817.281 2444.25 802.963 2453.96Z" fill="#715D58"/>
<path d="M748.631 2404.79C762.573 2417.41 785.096 2422.34 794.615 2423.23L794.085 2418.02C786.607 2417.91 767.048 2415.1 748.631 2404.79Z" fill="#715D58"/>
<path d="M796.147 2394.63C802.754 2392.89 822.01 2381.07 846.184 2347.68C817.33 2379.56 800.541 2390.42 795.753 2391.87L796.147 2394.63Z" fill="#715D58"/>
<path d="M660.833 2626.67C663.855 2610.56 669.395 2576.58 667.371 2569.59C668.186 2577.92 661.961 2609.63 658.747 2624.45L660.833 2626.67Z" fill="#715D58"/>
<path d="M619.366 2581.83L621.397 2584.54C628.016 2569.88 640.586 2534.06 640.321 2503.43C639.883 2524.27 626.496 2563.61 619.366 2581.83Z" fill="#715D58"/>
<path d="M575.18 2535.88C589.889 2511.11 615.607 2455.11 600.806 2429.26C612.667 2452.75 587.024 2508.64 572.72 2533.65L575.18 2535.88Z" fill="#715D58"/>
<path d="M551.26 2533.46L559.069 2528.13L556.329 2524.79L547.706 2531.36C548.876 2532.04 550.062 2532.74 551.26 2533.46Z" fill="#715D58"/>
<path d="M543.841 2502.1L546.809 2505.65C554.127 2481.99 567.395 2428.31 563.072 2399.55C566.026 2421.17 551.619 2476.51 543.841 2502.1Z" fill="#715D58"/>
<path d="M430.724 2469.68C450.298 2481.01 489.035 2466.23 505.957 2457.42L504.261 2454.76C485.808 2463.07 445.266 2477.67 430.724 2469.68Z" fill="#715D58"/>
<path d="M904.062 2877.23C919.641 2880.19 926.905 2871.23 928.59 2866.38L914.512 2855.07C911.133 2858.82 903.15 2865.88 898.254 2864.11C893.357 2862.34 879.912 2869.35 873.801 2873.08L872.249 2875.04L867.785 2880.67L859.85 2898.95L850.621 2906.11L843.138 2913.12L833.276 2917.48L832.344 2921.53L830.354 2930.16L823.957 2957.92L793.791 2973.12C788.423 2976.93 774.125 2984.16 759.881 2982.58C742.076 2980.62 700.783 2994.58 677.176 2997.95C658.29 3000.64 616.598 3010.7 598.113 3015.4C587.563 3021.35 571.37 3031.09 558.075 3040.4C556.93 3041.2 555.807 3042 554.711 3042.79C544.208 3050.39 536.176 3057.44 535.409 3061.61C533.632 3071.26 523.176 3083.85 518.17 3088.93C510.777 3100.93 495.679 3131.45 494.433 3157.6C494.359 3159.15 494.309 3160.71 494.28 3162.29C493.827 3187.36 498.854 3215.53 501.587 3227.07L494.144 3242.36L512.479 3243.48C536.293 3255.61 593.996 3276.4 634.293 3262.51C674.591 3248.62 699.403 3226.52 706.772 3217.2C713.083 3208.46 728.856 3187.98 741.456 3176C754.057 3164.02 774.351 3127.8 782.923 3111.18C790.101 3097.34 805.612 3068.7 810.234 3064.94C814.856 3061.17 831.898 3023.24 839.842 3004.75L838.973 2936.5L842.281 2922.11L855.177 2916.41C856.852 2904.34 872.619 2892.28 880.293 2887.75C881.725 2883.01 888.483 2874.28 904.062 2877.23Z" fill="#B59460"/>
<path d="M494.433 3157.6C495.679 3131.45 510.777 3100.93 518.17 3088.93C523.176 3083.85 533.632 3071.26 535.409 3061.61C536.176 3057.44 544.208 3050.39 554.711 3042.79L552.209 3032.24L501.377 3046.2L470.184 3050.88C471.353 3069.92 469.113 3111.32 450.797 3124.6C464.016 3114.56 467.15 3071.58 467.065 3051.35L393.053 3062.44L499.555 3042.08L526.404 3034.43C506.185 3016.92 461.479 2981.26 440.526 2975.17C439.983 2975.02 439.445 2974.88 438.914 2974.75C439.434 2974.87 439.972 2975.01 440.526 2975.17C468.558 2982.91 512.211 3016.85 530.853 3033.16L554.327 3026.46L566.97 3020.87C549.935 2997.63 509.293 2951.48 483.012 2952.77C512.64 2949.76 553.352 2996.02 570.005 3019.53L607.175 3003.08L629.954 2997.84C616.198 2983.91 585.702 2955.69 566.838 2946.82C565.492 2946.23 564.145 2945.68 562.799 2945.16C564.071 2945.6 565.422 2946.15 566.838 2946.82C594.934 2959.03 622.548 2985.07 633.247 2997.08L684.895 2979.18C672.664 2970.22 646.219 2951.64 638.277 2949C645.49 2949.99 674.283 2968.86 687.778 2978.18L732.211 2965.84L767.42 2952.47L801.662 2933.51C784.396 2939.69 767.331 2944.68 762.979 2942.44C755.775 2938.73 710.544 2938.97 688.828 2939.55C664.052 2935.95 609.974 2929.46 591.878 2932.29C573.781 2935.13 536.943 2930.24 520.787 2927.44C507.939 2925.74 470.759 2927.54 424.819 2948.37C378.879 2969.19 357.554 2992.7 352.634 3001.85C344.581 3009.62 327.472 3031.64 323.455 3057.54C316.307 3069.82 307.119 3075.75 303.419 3077.18L327.485 3087.15C333.988 3098.43 351.646 3123.3 370.252 3132.54C393.51 3144.1 494.128 3166.97 494.28 3162.29C494.309 3160.71 494.359 3159.15 494.433 3157.6Z" fill="#CAA672"/>
<path d="M598.113 3015.4C616.598 3010.7 658.29 3000.64 677.176 2997.95C700.783 2994.58 742.076 2980.62 759.881 2982.58L786.632 2965.82L830.354 2930.16L832.344 2921.53C824.379 2924.9 812.978 2929.46 801.662 2933.51L769.47 2957.11L734.056 2970.01L689.898 2982.97L635.183 3001.45L609.225 3007.71L556.377 3031.1L558.075 3040.4C571.37 3031.09 587.563 3021.35 598.113 3015.4Z" fill="#CAA672"/>
<path d="M801.662 2933.51L767.42 2952.47L732.211 2965.84L687.778 2978.18L684.895 2979.18L633.247 2997.08L629.954 2997.84L607.175 3003.08L570.005 3019.53L566.97 3020.87L554.327 3026.46L530.853 3033.16L526.404 3034.43L499.555 3042.08L393.053 3062.44L467.065 3051.35L470.184 3050.88L501.377 3046.2L552.209 3032.24L556.377 3031.1L609.225 3007.71L635.183 3001.45L689.898 2982.97L734.056 2970.01L769.47 2957.11L801.662 2933.51Z" fill="#715D58"/>
<path d="M456.491 2740.47C455.692 2743.04 463.505 2754.5 467.511 2759.9L489.699 2748.55L528.092 2759.46C528.718 2754.5 525.621 2734.74 508.219 2695.42C528.896 2731.08 531.872 2753.48 530.775 2760.22L535.009 2761.42L587.751 2778.11C584.704 2761.08 574.077 2720.57 555.473 2690.87C554.859 2689.9 554.234 2688.93 553.599 2687.95C554.233 2688.91 554.857 2689.88 555.473 2690.87C581.151 2731.3 589.576 2766.31 590.564 2779L644.282 2797.21C642.962 2778.06 637.245 2734.71 624.937 2714.55C641.374 2740.76 646.817 2781.3 647.484 2798.29L653.176 2800.22L698.211 2815.9L712.044 2821.87L751.928 2838.89C752.295 2827.14 752.017 2802.58 748.207 2794.06C748.012 2793.66 747.811 2793.27 747.605 2792.9C747.815 2793.25 748.016 2793.64 748.207 2794.06C753.477 2804.98 755.099 2829.19 755.245 2840.3L761.619 2843.02L848.384 2868.94L852.607 2868.92L851.277 2861.82C851.496 2860.49 850.588 2856.7 845.205 2852.19C817.848 2840.66 798.059 2807.61 791.584 2792.52C783.725 2784.1 763.89 2765.2 747.429 2756.98C705.707 2735.12 677.517 2682.36 671.966 2681.43C665.897 2684.11 623.999 2666.65 610.746 2662.67C597.493 2658.68 584.491 2648.43 580.001 2645.8C576.409 2643.7 558.349 2645.85 549.767 2647.18L518.777 2655.05C511.078 2660.2 492.757 2672.78 481.066 2681.89C460.988 2687.08 457.489 2737.26 456.491 2740.47Z" fill="#CAA672"/>
<path d="M848.689 2873.73L848.384 2868.94L761.619 2843.02L755.245 2840.3L751.928 2838.89L712.044 2821.87L698.211 2815.9L653.176 2800.22L647.484 2798.29L644.282 2797.21L590.564 2779L587.751 2778.11L535.009 2761.42L530.775 2760.22L528.092 2759.46L489.699 2748.55L467.511 2759.9L491.635 2752.92L537.515 2767.09L551.312 2771.61L556.28 2773.25L593.411 2785.43L612.841 2792.22L618.092 2794.06L656.364 2807.43L667.877 2811.58L671.474 2812.88L715.005 2828.57L729.526 2834.45L731.802 2834.88L763.747 2847.83L780.737 2853.42L848.689 2873.73Z" fill="#715D58"/>
<path d="M852.607 2868.92L848.384 2868.94L848.689 2873.73L867.785 2880.67L872.249 2875.04L852.607 2868.92Z" fill="#715D58"/>
<path d="M845.012 2881.82L848.689 2873.73L780.737 2853.42L763.747 2847.83L731.802 2834.88C731.703 2834.99 731.602 2835.11 731.5 2835.22C721.973 2845.89 700.239 2869.17 688.44 2871.71C702.822 2864.85 721.823 2844.01 729.526 2834.45L715.005 2828.57L671.474 2812.88C656.928 2833.53 618.53 2875.81 581.315 2879.73C617.435 2868.42 654.073 2829.58 667.877 2811.58L656.364 2807.43L618.092 2794.06C605.695 2809.09 571.233 2842.05 532.561 2853.6C562.883 2843.74 598.715 2808.57 612.841 2792.22L593.411 2785.43L556.28 2773.25C551.599 2781.58 537.937 2800.15 520.743 2807.76C537.648 2795.13 548.166 2778.4 551.312 2771.61L537.515 2767.09L491.635 2752.92L467.511 2759.9C464.35 2760.28 456.571 2762.65 450.747 2769.17C446.62 2794.69 464.195 2830.31 475.176 2847.61C483.961 2861.44 509.563 2875.88 521.265 2881.37C530.645 2885.94 556.2 2897.18 583.384 2905.58C610.568 2913.99 656.428 2912.34 675.959 2910.47C680.346 2907.4 693.047 2901.8 708.758 2903.96C724.469 2906.12 746.57 2903.54 755.657 2901.98C768.364 2897.89 795.328 2890.08 801.529 2891.52C807.731 2892.97 833.102 2885.66 845.012 2881.82Z" fill="#CAA672"/>
<path d="M751.928 2838.89L755.245 2840.3C755.099 2829.19 753.477 2804.98 748.207 2794.06C752.017 2802.58 752.295 2827.14 751.928 2838.89Z" fill="#715D58"/>
<path d="M688.44 2871.71C700.239 2869.17 721.973 2845.89 731.5 2835.22L729.526 2834.45C721.823 2844.01 702.822 2864.85 688.44 2871.71Z" fill="#715D58"/>
<path d="M581.315 2879.73C618.53 2875.81 656.928 2833.53 671.474 2812.88L667.877 2811.58C654.073 2829.58 617.435 2868.42 581.315 2879.73Z" fill="#715D58"/>
<path d="M647.484 2798.29C646.817 2781.3 641.374 2740.76 624.937 2714.55C637.245 2734.71 642.962 2778.06 644.282 2797.21L647.484 2798.29Z" fill="#715D58"/>
<path d="M532.561 2853.6C571.233 2842.05 605.695 2809.09 618.092 2794.06L612.841 2792.22C598.715 2808.57 562.883 2843.74 532.561 2853.6Z" fill="#715D58"/>
<path d="M587.751 2778.11L590.564 2779C589.576 2766.31 581.151 2731.3 555.473 2690.87C574.077 2720.57 584.704 2761.08 587.751 2778.11Z" fill="#715D58"/>
<path d="M520.743 2807.76C537.937 2800.15 551.599 2781.58 556.28 2773.25L551.312 2771.61C548.166 2778.4 537.648 2795.13 520.743 2807.76Z" fill="#715D58"/>
<path d="M530.775 2760.22C531.872 2753.48 528.896 2731.08 508.219 2695.42C525.621 2734.74 528.718 2754.5 528.092 2759.46L530.775 2760.22Z" fill="#715D58"/>
<path d="M687.778 2978.18C674.283 2968.86 645.49 2949.99 638.277 2949C646.219 2951.64 672.664 2970.22 684.895 2979.18L687.778 2978.18Z" fill="#715D58"/>
<path d="M629.954 2997.84L633.247 2997.08C622.548 2985.07 594.934 2959.03 566.838 2946.82C585.702 2955.69 616.198 2983.91 629.954 2997.84Z" fill="#715D58"/>
<path d="M570.005 3019.53C553.352 2996.02 512.64 2949.76 483.012 2952.77C509.293 2951.48 549.935 2997.63 566.97 3020.87L570.005 3019.53Z" fill="#715D58"/>
<path d="M558.075 3040.4L556.377 3031.1L552.209 3032.24L554.711 3042.79C555.807 3042 556.93 3041.2 558.075 3040.4Z" fill="#715D58"/>
<path d="M526.404 3034.43L530.853 3033.16C512.211 3016.85 468.558 2982.91 440.526 2975.17C461.479 2981.26 506.185 3016.92 526.404 3034.43Z" fill="#715D58"/>
<path d="M450.797 3124.6C469.113 3111.32 471.353 3069.92 470.184 3050.88L467.065 3051.35C467.15 3071.58 464.016 3114.56 450.797 3124.6Z" fill="#715D58"/>
<path d="M2377.31 2711.1C2373.68 2726.54 2362.54 2729.53 2357.43 2729.1L2352.81 2711.64C2357.62 2710.08 2367.31 2705.65 2367.68 2700.46C2368.05 2695.26 2379.93 2685.83 2385.82 2681.77L2388.24 2681.14L2395.2 2679.35L2415.13 2679.54L2425.42 2674.02L2434.87 2670.03L2442.86 2662.79L2446.94 2663.58L2455.64 2665.27L2483.6 2670.71L2509.74 2649.33C2515.41 2645.97 2527.83 2635.85 2532.18 2622.2C2537.62 2605.13 2567.16 2573.08 2579.84 2552.88C2589.98 2536.72 2616.11 2502.72 2627.92 2487.73C2637.65 2480.52 2653.12 2469.68 2667.03 2461.32C2668.23 2460.6 2669.42 2459.9 2670.59 2459.22C2681.8 2452.71 2691.51 2448.24 2695.63 2449.23C2705.17 2451.53 2720.92 2447.09 2727.6 2444.59C2741.56 2442.71 2775.58 2441.32 2799.99 2450.81C2801.43 2451.38 2802.88 2451.96 2804.33 2452.58C2827.43 2462.36 2851.12 2478.4 2860.55 2485.59L2877.55 2485L2871.11 2502.21C2872.52 2528.9 2868.06 2590.07 2838.98 2621.24C2809.91 2652.41 2779.63 2666.1 2768.13 2669.05C2757.57 2671.26 2732.45 2677.34 2716.38 2683.99C2700.32 2690.63 2658.97 2694.45 2640.3 2695.52C2624.74 2696.45 2592.27 2698.99 2586.95 2701.68C2581.63 2704.37 2540.05 2704.52 2519.92 2704.26L2457.93 2675.73L2443.43 2672.9L2432.98 2682.36C2421.27 2678.99 2403.84 2688.49 2396.59 2693.66C2391.68 2693.04 2380.95 2695.67 2377.31 2711.1Z" fill="#B59460"/>
<path d="M2799.99 2450.81C2775.58 2441.32 2741.56 2442.71 2727.6 2444.59C2720.92 2447.09 2705.17 2451.53 2695.63 2449.23C2691.51 2448.24 2681.8 2452.71 2670.59 2459.22L2661.97 2452.64L2695.39 2411.87L2712.34 2385.28C2729.26 2394.08 2768 2408.87 2787.57 2397.53C2773.03 2405.53 2732.49 2390.92 2714.03 2382.62L2754.26 2319.51L2692.36 2408.54L2674.45 2429.95C2666.68 2404.36 2652.27 2349.02 2655.22 2327.4C2655.31 2326.85 2655.4 2326.3 2655.49 2325.76C2655.39 2326.28 2655.3 2326.83 2655.22 2327.4C2650.9 2356.16 2664.17 2409.84 2671.48 2433.5L2655.83 2452.23L2645.57 2461.51C2631.27 2436.5 2605.63 2380.6 2617.49 2357.12C2602.69 2382.96 2628.41 2438.96 2643.11 2463.73L2612.98 2491.01L2598.93 2509.69C2591.8 2491.46 2578.41 2452.12 2577.97 2431.28C2577.99 2429.82 2578.03 2428.36 2578.1 2426.92C2577.98 2428.26 2577.94 2429.72 2577.97 2431.28C2577.71 2461.92 2590.28 2497.73 2596.9 2512.39L2559.55 2552.3C2556.33 2537.48 2550.11 2505.77 2550.92 2497.44C2548.9 2504.43 2554.44 2538.41 2557.46 2554.53L2528.13 2590.11L2501.6 2616.84L2470.35 2640.42C2483.02 2627.16 2494.51 2613.59 2494.24 2608.71C2493.78 2600.62 2512.39 2559.39 2521.74 2539.79C2528.53 2515.68 2544.57 2463.64 2554.52 2448.26C2564.47 2432.88 2574.98 2397.23 2578.99 2381.33C2582.66 2368.9 2599.42 2335.66 2637.12 2302.16C2674.82 2268.65 2704.97 2258.72 2715.33 2257.95C2725.7 2253.75 2752.77 2247.07 2778.07 2253.93C2792.19 2252.38 2801.35 2246.4 2804.16 2243.6L2803.48 2269.64C2811.14 2280.17 2826.69 2306.41 2827.57 2327.17C2828.68 2353.12 2808.67 2454.34 2804.33 2452.58C2802.88 2451.96 2801.43 2451.38 2799.99 2450.81Z" fill="#CAA672"/>
<path d="M2627.92 2487.73C2616.11 2502.72 2589.98 2536.72 2579.84 2552.88C2567.16 2573.08 2537.62 2605.13 2532.18 2622.2L2505.99 2639.82L2455.64 2665.27L2446.94 2663.58C2453.25 2657.67 2462.05 2649.11 2470.35 2640.42L2505 2620.6L2531.19 2593.49L2560.98 2558.41L2600.11 2515.94L2616.37 2494.76L2659.22 2455.98L2667.03 2461.32C2653.12 2469.68 2637.65 2480.52 2627.92 2487.73Z" fill="#CAA672"/>
<path d="M2470.35 2640.42L2501.6 2616.84L2528.13 2590.11L2557.46 2554.53L2559.55 2552.3L2596.9 2512.39L2598.93 2509.69L2612.98 2491.01L2643.11 2463.73L2645.57 2461.51L2655.83 2452.23L2671.48 2433.5L2674.45 2429.95L2692.36 2408.54L2754.26 2319.51L2714.03 2382.62L2712.34 2385.28L2695.39 2411.87L2661.97 2452.64L2659.22 2455.98L2616.37 2494.76L2600.11 2515.94L2560.98 2558.41L2531.19 2593.49L2505 2620.6L2470.35 2640.42Z" fill="#715D58"/>
<path d="M2434.3 2246.58C2436.97 2246.9 2444.26 2258.69 2447.57 2264.55L2428.18 2280.21L2422.54 2319.72C2417.75 2318.28 2400.96 2307.42 2372.11 2275.53C2396.28 2308.92 2415.54 2320.74 2422.15 2322.48L2421.52 2326.84L2415.33 2381.81C2401.01 2372.1 2368.32 2345.93 2348.74 2316.86C2348.11 2315.9 2347.48 2314.93 2346.84 2313.96C2347.46 2314.93 2348.09 2315.89 2348.74 2316.86C2375.25 2356.75 2403.81 2378.68 2415 2384.74L2409.8 2441.22C2392.84 2432.23 2355.56 2409.39 2342.14 2389.95C2359.41 2415.62 2394.24 2437.07 2409.49 2444.59L2408.94 2450.57L2404.95 2498.09L2404.79 2513.16L2404.12 2556.52C2393.24 2552.07 2370.91 2541.84 2364.68 2534.9C2364.39 2534.55 2364.12 2534.21 2363.87 2533.87C2364.09 2534.21 2364.37 2534.55 2364.68 2534.9C2372.51 2544.15 2393.97 2555.47 2404.07 2560.12L2403.96 2567.05L2392.37 2656.86L2390.64 2660.71L2384.68 2656.61C2383.38 2656.27 2380.3 2653.9 2378.36 2647.15C2378.95 2617.47 2356.79 2585.95 2345.64 2573.9C2341.14 2563.3 2331.94 2537.49 2331.11 2519.11C2328.11 2472.11 2291.36 2424.9 2292.76 2419.45C2297.68 2415 2298.76 2369.62 2300.51 2355.89C2302.26 2342.16 2298.18 2326.12 2297.6 2320.95C2297.14 2316.81 2306.44 2301.18 2311.15 2293.88L2330.93 2268.77C2338.77 2263.83 2357.71 2252.2 2370.79 2245.22C2383.69 2228.99 2430.96 2246.19 2434.3 2246.58Z" fill="#CAA672"/>
<path d="M2396.62 2659.09L2392.37 2656.86L2403.96 2567.05L2404.07 2560.12L2404.12 2556.52L2404.79 2513.16L2404.95 2498.09L2408.94 2450.57L2409.49 2444.59L2409.8 2441.22L2415 2384.74L2415.33 2381.81L2421.52 2326.84L2422.15 2322.48L2422.54 2319.72L2428.18 2280.21L2447.57 2264.55L2431.39 2283.75L2425.68 2331.43L2424.21 2345.88L2423.68 2351.08L2419.72 2389.96L2418.03 2410.47L2417.57 2416.01L2414.23 2456.42L2413.34 2468.62L2413.06 2472.44L2409.7 2518.59L2409.17 2534.24L2408.64 2536.5L2407.49 2570.95L2405.69 2588.75L2396.62 2659.09Z" fill="#715D58"/>
<path d="M2390.64 2660.71L2392.37 2656.86L2396.62 2659.09L2395.2 2679.35L2388.24 2681.14L2390.64 2660.71Z" fill="#715D58"/>
<path d="M2405.51 2659.02L2396.62 2659.09L2405.69 2588.75L2407.49 2570.95L2408.64 2536.5C2408.79 2536.46 2408.93 2536.41 2409.08 2536.36C2422.69 2531.99 2452.8 2521.6 2459.92 2511.85C2447.81 2522.21 2421.04 2531.09 2409.17 2534.24L2409.7 2518.59L2413.06 2472.44C2437.84 2467.54 2492.09 2449.65 2510.79 2417.24C2485.78 2445.64 2435.4 2463.33 2413.34 2468.62L2414.23 2456.42L2417.57 2416.01C2436.34 2410.8 2480.46 2392.71 2506.74 2362.07C2485.4 2385.77 2438.71 2404.21 2418.03 2410.47L2419.72 2389.96L2423.68 2351.08C2433.2 2350.19 2455.72 2345.26 2469.66 2332.64C2451.25 2342.95 2431.69 2345.76 2424.21 2345.88L2425.68 2331.43L2431.39 2283.75L2447.57 2264.55C2449.2 2261.82 2454.53 2255.67 2462.85 2253C2487.85 2259.61 2513.25 2290.14 2524.59 2307.21C2533.66 2320.86 2536.45 2350.12 2536.7 2363.04C2537.07 2373.47 2536.94 2401.39 2533.57 2429.64C2530.2 2457.89 2510.06 2499.12 2500.41 2516.21C2495.82 2518.97 2485.54 2528.29 2481.12 2543.53C2476.71 2558.76 2465.37 2577.9 2460.25 2585.57C2451.35 2595.52 2433.26 2616.98 2432.05 2623.23C2430.85 2629.48 2413.86 2649.69 2405.51 2659.02Z" fill="#CAA672"/>
<path d="M2404.12 2556.52L2404.07 2560.12C2393.97 2555.47 2372.51 2544.15 2364.68 2534.9C2370.91 2541.84 2393.24 2552.07 2404.12 2556.52Z" fill="#715D58"/>
<path d="M2459.92 2511.85C2452.8 2521.6 2422.69 2531.99 2409.08 2536.36L2409.17 2534.24C2421.04 2531.09 2447.81 2522.21 2459.92 2511.85Z" fill="#715D58"/>
<path d="M2510.79 2417.24C2492.09 2449.65 2437.84 2467.54 2413.06 2472.44L2413.34 2468.62C2435.4 2463.33 2485.78 2445.64 2510.79 2417.24Z" fill="#715D58"/>
<path d="M2409.49 2444.59C2394.24 2437.07 2359.41 2415.62 2342.14 2389.95C2355.56 2409.39 2392.84 2432.23 2409.8 2441.22L2409.49 2444.59Z" fill="#715D58"/>
<path d="M2506.74 2362.07C2480.46 2392.71 2436.34 2410.8 2417.57 2416.01L2418.03 2410.47C2438.71 2404.21 2485.4 2385.77 2506.74 2362.07Z" fill="#715D58"/>
<path d="M2415.33 2381.81L2415 2384.74C2403.81 2378.68 2375.25 2356.75 2348.74 2316.86C2368.32 2345.93 2401.01 2372.1 2415.33 2381.81Z" fill="#715D58"/>
<path d="M2469.66 2332.64C2455.72 2345.26 2433.2 2350.19 2423.68 2351.08L2424.21 2345.88C2431.69 2345.76 2451.25 2342.95 2469.66 2332.64Z" fill="#715D58"/>
<path d="M2422.15 2322.48C2415.54 2320.74 2396.28 2308.92 2372.11 2275.53C2400.96 2307.42 2417.75 2318.28 2422.54 2319.72L2422.15 2322.48Z" fill="#715D58"/>
<path d="M2557.46 2554.53C2554.44 2538.41 2548.9 2504.43 2550.92 2497.44C2550.11 2505.77 2556.33 2537.48 2559.55 2552.3L2557.46 2554.53Z" fill="#715D58"/>
<path d="M2598.93 2509.69L2596.9 2512.39C2590.28 2497.73 2577.71 2461.92 2577.97 2431.28C2578.41 2452.12 2591.8 2491.46 2598.93 2509.69Z" fill="#715D58"/>
<path d="M2643.11 2463.73C2628.41 2438.96 2602.69 2382.96 2617.49 2357.12C2605.63 2380.6 2631.27 2436.5 2645.57 2461.51L2643.11 2463.73Z" fill="#715D58"/>
<path d="M2667.03 2461.32L2659.22 2455.98L2661.97 2452.64L2670.59 2459.22C2669.42 2459.9 2668.23 2460.6 2667.03 2461.32Z" fill="#715D58"/>
<path d="M2674.45 2429.95L2671.48 2433.5C2664.17 2409.84 2650.9 2356.16 2655.22 2327.4C2652.27 2349.02 2666.68 2404.36 2674.45 2429.95Z" fill="#715D58"/>
<path d="M2787.57 2397.53C2768 2408.87 2729.26 2394.08 2712.34 2385.28L2714.03 2382.62C2732.49 2390.92 2773.03 2405.53 2787.57 2397.53Z" fill="#715D58"/>
<path d="M2402.65 2937.42C2390.22 2947.26 2379.63 2942.68 2375.89 2939.17L2383.12 2922.62C2387.85 2924.38 2398.2 2926.94 2401.72 2923.1C2405.23 2919.26 2420.4 2919.24 2427.54 2919.72L2429.83 2920.73L2436.39 2923.65L2451.9 2936.17L2463.39 2938.24L2473.27 2940.98L2484.03 2940.28L2486.73 2943.43L2492.5 2950.16L2511.03 2971.79L2544.8 2971.28C2551.33 2972.17 2567.35 2971.95 2579.24 2963.95C2594.1 2953.96 2637.17 2947.2 2659.65 2939.24C2677.63 2932.88 2719.24 2922.47 2737.79 2918.06C2749.9 2918.45 2768.76 2919.57 2784.86 2921.66C2786.24 2921.84 2787.61 2922.03 2788.95 2922.22C2801.78 2924.08 2812.16 2926.62 2814.77 2929.95C2820.82 2937.68 2835.92 2943.99 2842.71 2946.18C2854.82 2953.37 2882.35 2973.42 2895.57 2996.02C2896.35 2997.36 2897.12 2998.72 2897.88 3000.1C2909.9 3022.11 2918.5 3049.41 2921.42 3060.89L2935.11 3071L2919.38 3080.49C2903.9 3102.27 2862.4 3147.44 2820.26 3153.8C2778.11 3160.17 2745.88 3152.08 2735.03 3147.24C2725.39 3142.42 2701.92 3131.58 2685.2 3126.81C2668.49 3122.03 2633.72 3099.34 2618.42 3088.59C2605.64 3079.64 2578.63 3061.46 2572.79 3060.26C2566.94 3059.07 2534.26 3033.36 2518.66 3020.65L2487.8 2959.78L2478.2 2948.56L2464.13 2949.48C2457.05 2939.56 2437.49 2936.18 2428.59 2935.72C2425.13 2932.19 2415.09 2927.58 2402.65 2937.42Z" fill="#B59460"/>
<path d="M2895.57 2996.02C2882.35 2973.42 2854.82 2953.37 2842.71 2946.18C2835.92 2943.99 2820.82 2937.68 2814.77 2929.95C2812.16 2926.62 2801.78 2924.08 2788.95 2922.22L2786.28 2911.71L2837.79 2900.53L2867.6 2890.21C2875.39 2907.63 2896.56 2943.28 2918.94 2946.55C2902.58 2943.79 2879.88 2907.15 2870.58 2889.18L2941.31 2864.72L2837.5 2896.03L2810.16 2901.69C2819.96 2876.81 2843.05 2824.49 2858.79 2809.38C2859.21 2809 2859.62 2808.62 2860.03 2808.26C2859.62 2808.61 2859.21 2808.98 2858.79 2809.38C2837.54 2829.23 2814.59 2879.54 2805.63 2902.63L2781.72 2907.57L2767.93 2908.48C2772.25 2879.99 2786.88 2820.26 2810.77 2809.23C2783.11 2820.28 2768.48 2880.14 2764.61 2908.69L2724.05 2911.34L2701.44 2917.26C2707.18 2898.54 2721.12 2859.4 2733.73 2842.8C2734.65 2841.65 2735.58 2840.54 2736.54 2839.46C2735.61 2840.43 2734.67 2841.55 2733.73 2842.8C2714.49 2866.64 2702.09 2902.51 2698.17 2918.11L2644.11 2926.18C2650.79 2912.58 2665.62 2883.86 2671.43 2877.84C2665.5 2882.06 2648.73 2912.13 2641.09 2926.63L2596 2936.29L2558.6 2940.77L2519.47 2939.83C2537.64 2937.3 2555.07 2933.81 2557.89 2929.81C2562.55 2923.19 2602.75 2902.44 2622.26 2892.89C2642.54 2878.22 2687.45 2847.4 2704.81 2841.53C2722.16 2835.66 2752.53 2814.25 2765.55 2804.28C2776.15 2796.82 2809.93 2781.19 2860.29 2778.35C2910.65 2775.51 2940.44 2786.46 2949.04 2792.29C2959.78 2795.45 2985.14 2807.03 3000.71 2828.12C3012.73 2835.68 3023.62 2836.68 3027.56 2836.24L3010.86 2856.22C3010.32 2869.23 3006.2 2899.45 2994 2916.27C2978.75 2937.29 2900.18 3004.18 2897.88 3000.1C2897.12 2998.72 2896.35 2997.36 2895.57 2996.02Z" fill="#CAA672"/>
<path d="M2737.79 2918.06C2719.24 2922.47 2677.63 2932.88 2659.65 2939.24C2637.17 2947.2 2594.1 2953.96 2579.24 2963.95L2547.77 2961.5L2492.5 2950.16L2486.73 2943.43C2495.35 2942.73 2507.57 2941.48 2519.47 2939.83L2558.93 2945.82L2596.3 2940.84L2641.43 2931.86L2698.48 2922.88L2724.38 2916.4L2782.05 2912.63L2784.86 2921.66C2768.76 2919.57 2749.9 2918.45 2737.79 2918.06Z" fill="#CAA672"/>
<path d="M2519.47 2939.83L2558.6 2940.77L2596 2936.29L2641.09 2926.63L2644.11 2926.18L2698.17 2918.11L2701.44 2917.26L2724.05 2911.34L2764.61 2908.69L2767.93 2908.48L2781.72 2907.57L2805.63 2902.63L2810.16 2901.69L2837.5 2896.03L2941.31 2864.72L2870.58 2889.18L2867.6 2890.21L2837.79 2900.53L2786.28 2911.71L2782.05 2912.63L2724.38 2916.4L2698.48 2922.88L2641.43 2931.86L2596.3 2940.84L2558.93 2945.82L2519.47 2939.83Z" fill="#715D58"/>
<path d="M2735.88 2608.81C2737.77 2610.71 2736.16 2624.49 2735.12 2631.13L2710.19 2631.35L2681.23 2658.81C2678.37 2654.71 2671.96 2635.77 2669.16 2592.86C2667.36 2634.04 2675.11 2655.27 2679.21 2660.73L2676.01 2663.76L2637.01 2702.99C2631.82 2686.49 2622.46 2645.67 2625.18 2610.73C2625.27 2609.58 2625.38 2608.43 2625.49 2607.27C2625.37 2608.42 2625.27 2609.57 2625.18 2610.73C2621.16 2658.46 2629.92 2693.38 2634.93 2705.08L2595.77 2746.11C2588.06 2728.53 2573.04 2687.47 2574.6 2663.9C2572.18 2694.74 2586.15 2733.19 2593.43 2748.56L2589.28 2752.91L2556.64 2787.67L2547.15 2799.37L2519.69 2832.93C2513.92 2822.69 2502.79 2800.8 2502.22 2791.49C2502.2 2791.04 2502.2 2790.6 2502.21 2790.18C2502.19 2790.59 2502.19 2791.02 2502.22 2791.49C2502.6 2803.6 2512.39 2825.81 2517.41 2835.72L2513.02 2841.09L2448.15 2904.27L2444.4 2906.21L2442.28 2899.29C2441.47 2898.22 2440.52 2894.45 2443.2 2887.95C2462.1 2865.06 2464.32 2826.6 2463.06 2810.23C2466.13 2799.12 2474.94 2773.18 2485.72 2758.26C2512.56 2719.57 2513.09 2659.74 2517.58 2656.35C2524.2 2655.91 2553.23 2621.02 2563.13 2611.35C2573.03 2601.68 2579.8 2586.57 2582.56 2582.16C2584.77 2578.63 2601.77 2572.16 2609.99 2569.37L2641.1 2561.98C2650.3 2562.97 2672.37 2565.63 2686.95 2568.29C2707.15 2563.58 2733.5 2606.42 2735.88 2608.81Z" fill="#CAA672"/>
<path d="M2450.1 2908.65L2448.15 2904.27L2513.02 2841.09L2517.41 2835.72L2519.69 2832.93L2547.15 2799.37L2556.64 2787.67L2589.28 2752.91L2593.43 2748.56L2595.77 2746.11L2634.93 2705.08L2637.01 2702.99L2676.01 2663.76L2679.21 2660.73L2681.23 2658.81L2710.19 2631.35L2735.12 2631.13L2710.51 2636.13L2676.41 2669.94L2666.29 2680.35L2662.64 2684.1L2635.39 2712.1L2621.31 2727.13L2617.51 2731.18L2589.8 2760.77L2581.52 2769.78L2578.93 2772.6L2547.63 2806.68L2537.49 2818.62L2535.67 2820.06L2513.36 2846.33L2500.9 2859.17L2450.1 2908.65Z" fill="#715D58"/>
<path d="M2444.4 2906.21L2448.15 2904.27L2450.1 2908.65L2436.39 2923.65L2429.83 2920.73L2444.4 2906.21Z" fill="#715D58"/>
<path d="M2457.11 2914.12L2450.1 2908.65L2500.9 2859.17L2513.36 2846.33L2535.67 2820.06C2535.81 2820.11 2535.95 2820.16 2536.1 2820.22C2549.48 2825.25 2579.53 2835.81 2591.16 2832.6C2575.24 2833.19 2548.74 2823.52 2537.49 2818.62L2547.63 2806.68L2578.93 2772.6C2601.39 2784.16 2655.01 2803.83 2689.8 2790.05C2652.56 2796.77 2602.09 2779.34 2581.52 2769.78L2589.8 2760.77L2617.51 2731.18C2635.47 2738.76 2681.28 2751.99 2720.9 2744.31C2689.46 2749.62 2641.41 2735.07 2621.31 2727.13L2635.39 2712.1L2662.64 2684.1C2670.65 2689.31 2691.37 2699.44 2710.13 2698.21C2689.29 2694.85 2672.22 2684.9 2666.29 2680.35L2676.41 2669.94L2710.51 2636.13L2735.12 2631.13C2738.09 2630 2746.09 2628.5 2754.27 2631.58C2769.75 2652.28 2770.68 2691.98 2768.97 2712.4C2767.6 2728.74 2751.6 2753.4 2743.78 2763.68C2737.58 2772.08 2720.15 2793.88 2699.95 2813.93C2679.76 2833.97 2638.36 2853.77 2620.19 2861.16C2614.88 2860.47 2601.03 2861.4 2588.1 2870.59C2575.18 2879.78 2554.4 2887.74 2545.63 2890.57C2532.47 2892.84 2504.96 2898.41 2500.13 2902.56C2495.31 2906.72 2469.44 2912 2457.11 2914.12Z" fill="#CAA672"/>
<path d="M2519.69 2832.93L2517.41 2835.72C2512.39 2825.81 2502.6 2803.6 2502.22 2791.49C2502.79 2800.8 2513.92 2822.69 2519.69 2832.93Z" fill="#715D58"/>
<path d="M2591.16 2832.6C2579.53 2835.81 2549.48 2825.25 2536.1 2820.22L2537.49 2818.62C2548.74 2823.52 2575.24 2833.19 2591.16 2832.6Z" fill="#715D58"/>
<path d="M2689.8 2790.05C2655.01 2803.83 2601.39 2784.16 2578.93 2772.6L2581.52 2769.78C2602.09 2779.34 2652.56 2796.77 2689.8 2790.05Z" fill="#715D58"/>
<path d="M2593.43 2748.56C2586.15 2733.19 2572.18 2694.74 2574.6 2663.9C2573.04 2687.47 2588.06 2728.53 2595.77 2746.11L2593.43 2748.56Z" fill="#715D58"/>
<path d="M2720.9 2744.31C2681.28 2751.99 2635.47 2738.76 2617.51 2731.18L2621.31 2727.13C2641.41 2735.07 2689.46 2749.62 2720.9 2744.31Z" fill="#715D58"/>
<path d="M2637.01 2702.99L2634.93 2705.08C2629.92 2693.38 2621.16 2658.46 2625.18 2610.73C2622.46 2645.67 2631.82 2686.49 2637.01 2702.99Z" fill="#715D58"/>
<path d="M2710.13 2698.21C2691.37 2699.44 2670.65 2689.31 2662.64 2684.1L2666.29 2680.35C2672.22 2684.9 2689.29 2694.85 2710.13 2698.21Z" fill="#715D58"/>
<path d="M2679.21 2660.73C2675.11 2655.27 2667.36 2634.04 2669.16 2592.86C2671.96 2635.77 2678.37 2654.71 2681.23 2658.81L2679.21 2660.73Z" fill="#715D58"/>
<path d="M2641.09 2926.63C2648.73 2912.13 2665.5 2882.06 2671.43 2877.84C2665.62 2883.86 2650.79 2912.58 2644.11 2926.18L2641.09 2926.63Z" fill="#715D58"/>
<path d="M2701.44 2917.26L2698.17 2918.11C2702.09 2902.51 2714.49 2866.64 2733.73 2842.8C2721.12 2859.4 2707.18 2898.54 2701.44 2917.26Z" fill="#715D58"/>
<path d="M2764.61 2908.69C2768.48 2880.14 2783.11 2820.28 2810.77 2809.23C2786.88 2820.26 2772.25 2879.99 2767.93 2908.48L2764.61 2908.69Z" fill="#715D58"/>
<path d="M2784.86 2921.66L2782.05 2912.63L2786.28 2911.71L2788.95 2922.22C2787.61 2922.03 2786.24 2921.84 2784.86 2921.66Z" fill="#715D58"/>
<path d="M2810.16 2901.69L2805.63 2902.63C2814.59 2879.54 2837.54 2829.23 2858.79 2809.38C2843.05 2824.49 2819.96 2876.81 2810.16 2901.69Z" fill="#715D58"/>
<path d="M2918.94 2946.55C2896.56 2943.28 2875.39 2907.63 2867.6 2890.21L2870.58 2889.18C2879.88 2907.15 2902.58 2943.79 2918.94 2946.55Z" fill="#715D58"/>
<path d="M2153.27 2902.7L2203.94 2876.61C2203.16 2875.71 2202.4 2874.86 2201.68 2874.06C2200.55 2872.82 2199.5 2871.7 2198.58 2870.76C2185.48 2878.23 2158.7 2893.11 2156.35 2892.87C2154.01 2892.62 2121.25 2914.36 2105.17 2925.26C2083.87 2939.65 2039 2970.63 2029.9 2979.48C2019.77 2985.96 2018.42 2992.04 2019.01 2994.27C2021.14 2994.66 2025.3 2994.68 2024.92 2991.69C2024.54 2988.69 2060.75 2963.17 2078.9 2950.79L2112.88 2927.23L2153.27 2902.7Z" fill="#514842"/>
<path d="M2024.92 2991.69C2025.3 2994.68 2021.14 2994.66 2019.01 2994.27L1931.48 3011.48L1942.26 3022.58L2000.66 3007.9L2061.94 2997.27L2073.3 3005.16L2094.55 3012.93L2126.17 3022.71L2152.21 3030.54L2198.72 3044.26L2238.35 3054.15L2269.19 3062.58L2275.6 3062.67L2277.25 3058.96L2276.2 3057.87L2275.15 3056.79L2239.51 3047.76L2199.36 3037.33L2154.43 3024.7L2129.71 3017.69L2099.69 3007.93L2078.18 3000.43L2071.87 2993.93L2090.29 2993.39L2135.99 2989.48L2159.49 2988.73L2191.33 2984.1L2278.19 2976.49L2345 2971L2424.32 2968.09L2421.16 2964.85L2422.28 2961.66L2345.35 2964.87L2276.68 2970.06L2189.55 2977.4L2160.66 2982.34L2138.5 2982.31L2093.07 2985.95L2024.92 2991.69Z" fill="#514842"/>
<path d="M2278.85 3041.09C2285.15 3048.01 2283.3 3053.08 2281.58 3054.74L2290.42 3053L2317.09 3036.01L2334.08 3024.24L2336.97 3027.21L2322.35 3041.43L2293.84 3056.51L2337.38 3054.18L2395.75 3060.05L2495.51 3064.63L2495.2 3068.1L2392.98 3066.96L2343.17 3060.13L2307.11 3061.5L2295.63 3061.61L2305.41 3068.42L2336.16 3082.72L2362.3 3102.57L2387.18 3116.79L2414.32 3123.04L2417.21 3126.01L2387.67 3120L2364.64 3106.6L2336.1 3086.99L2304.8 3073.75L2294.73 3068.27L2287.85 3064.44L2298.34 3077.4L2295.86 3082.43L2291.45 3073.56C2281.5 3078.5 2265.14 3091.35 2279.27 3103.29C2293.41 3115.23 2343.21 3142.7 2366.34 3154.94C2372.1 3156.35 2387.69 3158.7 2403.95 3156.79C2436.77 3161.09 2483.83 3145.79 2503.26 3137.61L2588.57 3107.82L2669.19 3071.03L2717.28 3049.53L2665.38 3057.36L2548.69 3023.99C2543.73 3022.9 2537.79 3021.58 2531.25 3020.13C2502.11 3013.66 2460.95 3004.42 2440.24 2999.44C2437.77 2998.85 2435.59 2998.31 2433.76 2997.85C2414.85 2990.97 2375.47 2986.1 2358.15 2984.53C2342.21 2985.47 2308.5 2987.96 2301.21 2990.42C2294.6 2989.69 2277.78 3004.24 2270.2 3011.61L2269.17 3027.35C2269.77 3029.05 2272.54 3034.17 2278.85 3041.09Z" fill="#B59E7F"/>
<path d="M2277.25 3058.96L2275.6 3062.67L2291.45 3073.56L2295.86 3082.43L2298.34 3077.4L2287.85 3064.44L2294.73 3068.27L2304.8 3073.75L2336.1 3086.99L2364.64 3106.6L2387.67 3120L2417.21 3126.01L2414.32 3123.04L2387.18 3116.79L2362.3 3102.57L2336.16 3082.72L2305.41 3068.42L2295.63 3061.61L2307.11 3061.5L2343.17 3060.13L2392.98 3066.96L2495.2 3068.1L2495.51 3064.63L2395.75 3060.05L2337.38 3054.18L2293.84 3056.51L2322.35 3041.43L2336.97 3027.21L2334.08 3024.24L2317.09 3036.01L2290.42 3053L2281.58 3054.74L2276.2 3057.87L2277.25 3058.96Z" fill="#A89076"/>
<path d="M2422.28 2961.66L2421.16 2964.85L2424.32 2968.09L2434.31 2978.37L2440.24 2999.44C2460.95 3004.42 2502.11 3013.66 2531.25 3020.13L2550.52 3008L2588.02 2999.44L2640.36 2979.61L2669.9 2967.2L2697.45 2963.05L2642.17 2946.8L2609.7 2940.48C2604.41 2937.39 2591.62 2931.53 2582.85 2932.91C2574.07 2934.28 2560.04 2928.95 2554.12 2926.11C2549.02 2921.94 2535.29 2914.1 2521.17 2916.04C2509.08 2910.11 2491.44 2910.56 2484.13 2911.53L2456.12 2928.76L2430.64 2955.63L2422.28 2961.66Z" fill="#B59E7F"/>
<path d="M2300.19 2840.4C2298.14 2836.12 2280.39 2838 2262.11 2841.31C2259.97 2845.25 2257.76 2854.17 2266.03 2858.34C2274.3 2862.51 2297.07 2850.19 2307.43 2843.51C2303.73 2843.17 2301.07 2842.22 2300.19 2840.4Z" fill="#A89076"/>
<path d="M2298.96 2833.17C2288.18 2825.98 2252.46 2836.43 2235.95 2842.56L2231.63 2847.87C2239.74 2845.85 2251.02 2843.31 2262.11 2841.31C2280.39 2838 2298.14 2836.12 2300.19 2840.4C2301.07 2842.22 2303.73 2843.17 2307.43 2843.51C2317.63 2844.44 2335.7 2840.75 2345.87 2838.09C2357.25 2832.82 2381.57 2824.65 2387.83 2834.13C2394.1 2843.61 2423.56 2824.48 2437.51 2813.73L2434.36 2810.48C2421.67 2820 2393.77 2837.2 2383.63 2829.8C2373.48 2822.4 2351.42 2829.36 2341.66 2833.76C2331.92 2836.56 2309.75 2840.37 2298.96 2833.17Z" fill="#A89076"/>
<path d="M2220.27 2902.82L2332.16 2888.25C2338.45 2893.71 2354.39 2905.68 2367.78 2909.93C2381.17 2914.17 2353.46 2897.36 2337.93 2888.43L2375.66 2881.74C2375.96 2879.52 2375.6 2874.85 2371.77 2873.95C2367.94 2873.04 2340.96 2880.22 2327.95 2883.92L2218.8 2898.06C2219.54 2899.77 2220.06 2901.38 2220.27 2902.82Z" fill="#A89076"/>
<path d="M2167.81 2839.11C2177.77 2844.58 2192.48 2862.49 2198.58 2870.76L2188.39 2819.1L2193.71 2820.24L2201.68 2874.06C2202.4 2874.86 2203.16 2875.71 2203.94 2876.61L2284.86 2775.32L2288.01 2778.57L2235.95 2842.56C2252.46 2836.43 2288.18 2825.98 2298.96 2833.17C2309.75 2840.37 2331.92 2836.56 2341.66 2833.76C2351.42 2829.36 2373.48 2822.4 2383.63 2829.8C2393.77 2837.2 2421.67 2820 2434.36 2810.48L2437.51 2813.73C2423.56 2824.48 2394.1 2843.61 2387.83 2834.13C2381.57 2824.65 2357.25 2832.82 2345.87 2838.09C2335.7 2840.75 2317.63 2844.44 2307.43 2843.51C2297.07 2850.19 2274.3 2862.51 2266.03 2858.34C2257.76 2854.17 2259.97 2845.25 2262.11 2841.31C2251.02 2843.31 2239.74 2845.85 2231.63 2847.87L2206.14 2879.2C2211.04 2885.08 2216.26 2892.19 2218.8 2898.06L2327.95 2883.92C2340.96 2880.22 2367.94 2873.04 2371.77 2873.95C2375.6 2874.85 2375.96 2879.52 2375.66 2881.74L2337.93 2888.43C2353.46 2897.36 2381.17 2914.17 2367.78 2909.93C2354.39 2905.68 2338.45 2893.71 2332.16 2888.25L2220.27 2902.82C2221.63 2912.02 2232.67 2924.97 2238.02 2930.29C2245.51 2935.65 2262.75 2947.61 2271.86 2952.65C2283.25 2958.94 2315.31 2956.71 2332.11 2957.75C2345.55 2958.57 2371.4 2954.46 2382.64 2952.3C2391.4 2943.79 2411.97 2925.16 2424.24 2918.71C2448.51 2909.01 2471.52 2891.87 2479.99 2884.51C2483.67 2881.98 2492.39 2876.25 2497.77 2873.55C2504.62 2871.93 2521.38 2852.7 2528.9 2843.28L2533.6 2832.4C2541.12 2829.3 2556.97 2822.31 2560.22 2819.15C2577.47 2807.43 2585.88 2792.1 2587.93 2785.9L2592.43 2769.95L2607.05 2755.74L2629.9 2745.11L2645.33 2730.11L2624.11 2739.16L2558.02 2750.26C2547.86 2751.54 2525.41 2753.33 2516.91 2750.23C2508.28 2741.78 2494.77 2749.3 2489.1 2754.11L2456.02 2752.59C2447.61 2749.36 2429.09 2743.41 2422.22 2745.45C2415.36 2747.49 2409.03 2747.58 2406.72 2747.37C2401.31 2745.61 2387.91 2744.6 2377.51 2754.71C2362.72 2758.56 2330.4 2757.53 2316.09 2756.53C2298.31 2755.93 2259.21 2754.79 2245.11 2755.02C2231.02 2755.26 2206.32 2779.76 2195.73 2791.98L2198.54 2800.29L2186.09 2812.4L2176.09 2802.12C2169.19 2812.17 2157.86 2833.63 2167.81 2839.11Z" fill="#B59E7F"/>
<path d="M2188.39 2819.1L2198.58 2870.76C2199.5 2871.7 2200.55 2872.82 2201.68 2874.06L2193.71 2820.24L2188.39 2819.1Z" fill="#A89076"/>
<path d="M2284.86 2775.32L2203.94 2876.61C2204.66 2877.44 2205.4 2878.3 2206.14 2879.2L2231.63 2847.87L2235.95 2842.56L2288.01 2778.57L2284.86 2775.32Z" fill="#A89076"/>
<path d="M2432.47 2940.18L2430.64 2955.63L2456.12 2928.76C2455.78 2927.51 2454.36 2924.78 2451.39 2923.89C2448.41 2922.99 2437.53 2934.38 2432.47 2940.18Z" fill="#A4896E"/>
<path d="M2018.48 2774.01L2033.88 2719.14C2032.7 2719.1 2031.56 2719.08 2030.48 2719.07C2028.8 2719.04 2027.27 2719.05 2025.95 2719.08C2022.5 2733.76 2015.16 2763.51 2013.38 2765.06C2011.6 2766.61 2005.21 2805.4 2002.24 2824.6C1998.27 2850 1990.41 2903.95 1990.69 2916.64C1988.53 2928.47 1992.07 2933.6 1994.1 2934.69C1995.84 2933.39 1998.69 2930.36 1996.23 2928.6C1993.78 2926.84 1999.75 2882.95 2003.05 2861.22L2008.94 2820.3L2018.48 2774.01Z" fill="#514842"/>
<path d="M1996.23 2928.6C1998.69 2930.36 1995.84 2933.39 1994.1 2934.69L1947.09 3010.51L1962.56 3010.17L1991.58 2957.41L2025.53 2905.29L2039.05 2902.35L2059.21 2892.09L2087.9 2875.59L2111.37 2861.85L2153.1 2837.14L2187.32 2814.85L2214.5 2798.01L2218.93 2793.38L2217.34 2789.64L2215.83 2789.68L2214.32 2789.71L2183.43 2809.65L2148.45 2831.95L2108.61 2856.25L2086.64 2869.57L2059.05 2884.91L2038.9 2895.56L2029.85 2895.76L2042 2881.89L2070.26 2845.76L2085.72 2828.05L2104.01 2801.58L2157.59 2732.8L2199.07 2680.14L2250.96 2620.07L2246.43 2620.17L2244.85 2617.19L2194.82 2675.7L2151.85 2729.52L2097.9 2798.32L2081.83 2822.85L2066.72 2839.04L2038.45 2874.79L1996.23 2928.6Z" fill="#514842"/>
<path d="M2205.34 2776.31C2214.7 2776.41 2217.15 2781.21 2217.2 2783.6L2221.94 2775.94L2227.67 2744.85L2230.61 2724.39L2234.76 2724.29L2235.21 2744.68L2226.84 2775.84L2254.79 2742.36L2298.84 2703.62L2370.13 2633.68L2372.46 2636.28L2302.01 2710.35L2263.08 2742.18L2239.53 2769.51L2231.8 2777.99L2243.44 2775.47L2274.86 2762.69L2307.19 2757.07L2334.55 2748.53L2357.6 2732.92L2361.75 2732.82L2337.23 2750.36L2311.74 2758.1L2277.94 2765.64L2246.93 2779.55L2236.06 2783.19L2228.57 2785.62L2245.2 2786.76L2247.2 2792L2237.7 2789.19C2234.54 2799.84 2232.81 2820.57 2251.18 2818.36C2269.55 2816.14 2323.57 2798.38 2348.29 2789.77C2353.25 2786.52 2365.59 2776.7 2375.26 2763.5C2400.76 2742.39 2421.61 2697.51 2428.85 2677.71L2465.14 2594.95L2493.09 2510.86L2510.11 2461.01L2480.5 2504.34L2376.59 2567.07C2372.41 2569.96 2367.4 2573.41 2361.88 2577.21C2337.3 2594.14 2302.5 2617.99 2284.76 2629.76C2282.64 2631.16 2280.76 2632.4 2279.18 2633.42C2261.26 2642.58 2230.88 2668.1 2217.93 2679.72C2207.76 2692.03 2186.63 2718.41 2183.46 2725.43C2178.43 2729.77 2177.63 2751.99 2177.87 2762.56L2188.69 2774.03C2190.34 2774.75 2195.98 2776.21 2205.34 2776.31Z" fill="#B59E7F"/>
<path d="M2217.34 2789.64L2218.93 2793.38L2237.7 2789.19L2247.2 2792L2245.2 2786.76L2228.57 2785.62L2236.06 2783.19L2246.93 2779.55L2277.94 2765.64L2311.74 2758.1L2337.23 2750.36L2361.75 2732.82L2357.6 2732.92L2334.55 2748.53L2307.19 2757.07L2274.86 2762.69L2243.44 2775.47L2231.8 2777.99L2239.53 2769.51L2263.08 2742.18L2302.01 2710.35L2372.46 2636.28L2370.13 2633.68L2298.84 2703.62L2254.79 2742.36L2226.84 2775.84L2235.21 2744.68L2234.76 2724.29L2230.61 2724.39L2227.67 2744.85L2221.94 2775.94L2217.2 2783.6L2215.83 2789.68L2217.34 2789.64Z" fill="#A89076"/>
<path d="M2244.85 2617.19L2246.43 2620.17L2250.96 2620.07L2265.29 2619.76L2284.76 2629.76C2302.5 2617.99 2337.3 2594.14 2361.88 2577.21L2366.13 2554.83L2385.4 2521.55L2406.52 2469.72L2417.55 2439.64L2433.27 2416.63L2383.73 2446.05L2356.99 2465.52C2351.12 2467.29 2338.13 2472.66 2333.16 2480.02C2328.19 2487.38 2314.72 2494.03 2308.61 2496.43C2302.09 2497.33 2287 2502.04 2278.8 2513.7C2266.23 2518.51 2254.54 2531.74 2250.27 2537.75L2243.81 2570L2246.14 2606.96L2244.85 2617.19Z" fill="#B59E7F"/>
<path d="M2072.92 2624C2068.39 2622.59 2057.68 2636.86 2047.65 2652.51C2049.08 2656.76 2054.11 2664.45 2062.79 2661.24C2071.48 2658.02 2077.96 2632.95 2080.12 2620.82C2077.36 2623.3 2074.85 2624.6 2072.92 2624Z" fill="#A89076"/>
<path d="M2066.79 2619.98C2054.17 2622.98 2037.51 2656.26 2030.75 2672.52L2031.7 2679.3C2035.74 2671.98 2041.57 2661.99 2047.65 2652.51C2057.68 2636.86 2068.39 2622.59 2072.92 2624C2074.85 2624.6 2077.36 2623.3 2080.12 2620.82C2087.76 2613.99 2097.36 2598.24 2102.33 2588.98C2106.22 2577.06 2116.8 2553.69 2128.01 2555.56C2139.23 2557.42 2145.28 2522.82 2146.91 2505.28L2142.38 2505.38C2140.71 2521.16 2134.3 2553.3 2121.98 2555.69C2109.65 2558.08 2099.72 2578.97 2096.3 2589.11C2091.72 2598.15 2079.4 2616.98 2066.79 2619.98Z" fill="#A89076"/>
<path d="M2064.2 2725.04L2129.73 2633.18C2138.01 2632.29 2157.63 2628.78 2169.86 2621.86C2182.08 2614.94 2150.9 2623.79 2133.79 2629.08L2154.59 2596.89C2153.17 2595.16 2149.5 2592.25 2146.23 2594.43C2142.96 2596.62 2129.84 2621.26 2123.69 2633.31L2059.71 2722.87C2061.47 2723.49 2063 2724.21 2064.2 2725.04Z" fill="#A89076"/>
<path d="M1981.82 2720.05C1992.61 2716.49 2015.74 2717.92 2025.95 2719.08L1981.19 2691.36L1985.65 2688.24L2030.48 2719.07C2031.56 2719.08 2032.7 2719.1 2033.88 2719.14L2014.82 2590.91L2019.35 2590.81L2030.75 2672.52C2037.51 2656.26 2054.17 2622.98 2066.79 2619.98C2079.4 2616.98 2091.72 2598.15 2096.3 2589.11C2099.72 2578.97 2109.65 2558.08 2121.98 2555.69C2134.3 2553.3 2140.71 2521.16 2142.38 2505.38L2146.91 2505.28C2145.28 2522.82 2139.23 2557.42 2128.01 2555.56C2116.8 2553.69 2106.22 2577.06 2102.33 2588.98C2097.36 2598.24 2087.76 2613.99 2080.12 2620.82C2077.96 2632.95 2071.48 2658.02 2062.79 2661.24C2054.11 2664.45 2049.08 2656.76 2047.65 2652.51C2041.57 2661.99 2035.74 2671.98 2031.7 2679.3L2037.28 2719.29C2044.93 2719.71 2053.68 2720.73 2059.71 2722.87L2123.69 2633.31C2129.84 2621.26 2142.96 2596.62 2146.23 2594.43C2149.5 2592.25 2153.17 2595.16 2154.59 2596.89L2133.79 2629.08C2150.9 2623.79 2182.08 2614.94 2169.86 2621.86C2157.63 2628.78 2138.01 2632.29 2129.73 2633.18L2064.2 2725.04C2071.86 2730.31 2088.86 2731.04 2096.4 2730.75C2105.42 2728.91 2125.93 2724.43 2135.82 2721.19C2148.18 2717.14 2168.39 2692.14 2180.59 2680.54C2190.34 2671.26 2204.94 2649.54 2211.01 2639.84C2210.74 2627.63 2211.11 2599.88 2214.74 2586.5C2224.17 2562.12 2227.29 2533.6 2227.67 2522.39C2228.32 2517.96 2230.06 2507.68 2231.74 2501.9C2235.23 2495.78 2232.56 2470.41 2230.79 2458.49L2226.02 2447.64C2228.87 2440.02 2234.55 2423.66 2234.45 2419.13C2237.61 2398.51 2232.12 2381.91 2228.97 2376.19L2220.36 2362.03L2219.91 2341.64L2227.68 2317.68L2227.2 2296.16L2219.38 2317.86L2182.5 2373.82C2176.52 2382.13 2162.54 2399.79 2154.48 2403.89C2142.42 2404.46 2138.72 2419.48 2138.38 2426.91L2114.74 2450.09C2106.65 2454.05 2089.68 2463.56 2086.5 2469.98C2083.32 2476.4 2079.07 2481.1 2077.34 2482.65C2072.37 2485.4 2062.51 2494.53 2062.83 2509.03C2055.58 2522.48 2032.81 2545.44 2022.34 2555.24C2009.79 2567.86 1982.32 2595.71 1972.89 2606.19C1963.46 2616.67 1964.58 2651.44 1966.32 2667.52L1974.32 2671.12L1974.71 2688.49L1960.37 2688.8C1963.03 2700.7 1971.03 2723.62 1981.82 2720.05Z" fill="#B59E7F"/>
<path d="M1981.19 2691.36L2025.95 2719.08C2027.27 2719.05 2028.8 2719.04 2030.48 2719.07L1985.65 2688.24L1981.19 2691.36Z" fill="#A89076"/>
<path d="M2014.82 2590.91L2033.88 2719.14C2034.98 2719.18 2036.12 2719.23 2037.28 2719.29L2031.7 2679.3L2030.75 2672.52L2019.35 2590.81L2014.82 2590.91Z" fill="#A89076"/>
<path d="M2236.06 2595.1L2246.14 2606.96L2243.81 2570C2242.67 2569.39 2239.71 2568.58 2237.02 2570.15C2234.34 2571.72 2235.27 2587.43 2236.06 2595.1Z" fill="#A4896E"/>
<path d="M1167.56 2909.57L1110.68 2906.15C1111.03 2905.02 1111.38 2903.93 1111.72 2902.91C1112.25 2901.31 1112.76 2899.87 1113.22 2898.64C1128.22 2900.19 1158.73 2902.99 1160.78 2901.82C1162.82 2900.65 1201.57 2907.31 1220.68 2910.79C1245.98 2915.36 1299.53 2925.6 1311.43 2930.02C1323.31 2931.86 1327 2936.88 1327.37 2939.16C1325.57 2940.37 1321.77 2942.07 1320.91 2939.18C1320.06 2936.28 1276.63 2927.55 1255.02 2923.55L1214.43 2915.71L1167.56 2909.57Z" fill="#514842"/>
<path d="M1320.91 2939.18C1321.77 2942.07 1325.57 2940.37 1327.37 2939.16L1414.4 2919.57L1409.01 2934.07L1349.65 2944.22L1289.3 2959.23L1282.09 2971.04L1265.79 2986.72L1240.81 3008.43L1220.14 3026.11L1183.12 3057.43L1150.86 3082.48L1126.05 3102.64L1120.22 3105.31L1117.21 3102.58L1117.73 3101.16L1118.26 3099.75L1147.22 3077.1L1179.74 3051.35L1215.75 3021.66L1235.54 3005.26L1259.06 2984.22L1275.72 2968.67L1278.87 2960.18L1261.79 2967.12L1218.4 2981.99L1196.6 2990.8L1165.61 2999.41L1083.06 3027.5L1019.72 3049.45L945.978 3078.81L947.555 3074.56L945.249 3072.1L1016.92 3043.98L1081.85 3021.02L1164.52 2992.56L1192.96 2985.42L1213.21 2976.44L1256.25 2961.44L1320.91 2939.18Z" fill="#514842"/>
<path d="M1108.54 3086.88C1105.56 3095.75 1109.3 3099.64 1111.54 3100.47L1102.76 3102.44L1071.5 3097.67L1051.2 3093.75L1049.76 3097.64L1068.87 3104.74L1101.05 3107.04L1060.27 3122.48L1009.23 3151.41L919.807 3195.87L921.497 3198.91L1014.55 3156.61L1057.38 3130.26L1090.92 3116.96L1101.46 3112.42L1095.27 3122.6L1072.9 3148.1L1057 3176.81L1039.97 3199.86L1017.67 3216.53L1016.22 3220.42L1040.82 3203L1056.49 3181.44L1074.68 3151.98L1097.98 3127.23L1104.97 3118.16L1109.73 3111.87L1105.36 3127.96L1109.66 3131.57L1110.11 3121.67C1121.2 3122.17 1141.36 3127.33 1133.25 3143.96C1125.14 3160.58 1090.67 3205.82 1074.44 3226.35C1069.74 3229.97 1056.43 3238.42 1040.78 3243.23C1012.49 3260.41 963.256 3265.41 942.179 3265.76L852.098 3272.95L763.492 3271.83L710.816 3271.57L761.457 3257.79L854.751 3180.15C858.851 3177.15 863.753 3173.55 869.152 3169.58C893.203 3151.9 927.131 3126.83 944.061 3113.92C946.082 3112.38 947.86 3111.01 949.351 3109.84C963.87 3095.92 997.935 3075.57 1013.15 3067.14C1028.12 3061.56 1059.96 3050.23 1067.63 3049.54C1073.38 3046.2 1094.64 3052.73 1104.55 3056.42L1111.84 3070.4C1111.98 3072.19 1111.51 3078 1108.54 3086.88Z" fill="#B59E7F"/>
<path d="M1117.21 3102.58L1120.22 3105.31L1110.11 3121.67L1109.66 3131.57L1105.36 3127.96L1109.73 3111.87L1104.97 3118.16L1097.98 3127.23L1074.68 3151.98L1056.49 3181.44L1040.82 3203L1016.22 3220.42L1017.67 3216.53L1039.97 3199.86L1057 3176.81L1072.9 3148.1L1095.27 3122.6L1101.46 3112.42L1090.92 3116.96L1057.38 3130.26L1014.55 3156.61L921.497 3198.91L919.807 3195.87L1009.23 3151.41L1060.27 3122.48L1101.05 3107.04L1068.87 3104.74L1049.76 3097.64L1051.2 3093.75L1071.5 3097.67L1102.76 3102.44L1111.54 3100.47L1117.73 3101.16L1117.21 3102.58Z" fill="#A89076"/>
<path d="M945.249 3072.1L947.555 3074.56L945.978 3078.81L940.985 3092.25L944.061 3113.92C927.131 3126.83 893.203 3151.9 869.152 3169.58L846.618 3166.26L808.859 3173.57L752.968 3176.55L720.932 3177.12L694.044 3184.44L738.067 3147.27L765.226 3128.38C768.818 3123.41 778.149 3112.89 786.732 3110.61C795.315 3108.32 806.001 3097.78 810.271 3092.79C813.256 3086.92 822.653 3074.2 836.357 3070.28C845.019 3059.97 861.342 3053.27 868.42 3051.2L901.004 3055.66L935.166 3069.96L945.249 3072.1Z" fill="#B59E7F"/>
<path d="M1008 2911.87C1008.15 2907.14 1025.14 2901.68 1043.21 2897.33C1046.75 2900.08 1052.38 2907.35 1046.5 2914.5C1040.62 2921.66 1014.8 2919.57 1002.63 2917.64C1005.88 2915.84 1007.93 2913.9 1008 2911.87Z" fill="#A89076"/>
<path d="M1006.21 2904.77C1013.17 2893.83 1050.07 2888.98 1067.65 2887.92L1073.74 2891.04C1065.51 2892.46 1054.16 2894.7 1043.21 2897.33C1025.14 2901.68 1008.15 2907.14 1008 2911.87C1007.93 2913.9 1005.88 2915.84 1002.63 2917.64C993.678 2922.61 975.652 2926.53 965.276 2928.2C952.74 2927.97 927.191 2930.31 925.283 2941.52C923.376 2952.72 888.697 2947.11 871.596 2942.9L873.173 2938.66C888.622 2942.25 921.094 2946.72 927.386 2935.86C933.678 2924.99 956.669 2922.45 967.378 2922.54C977.42 2921.17 999.244 2915.7 1006.21 2904.77Z" fill="#A89076"/>
<path d="M1106.32 2936.73L998.066 2968.56C994.512 2976.09 984.768 2993.48 974.229 3002.77C963.689 3012.05 982.258 2985.49 992.86 2971.05L955.638 2980.16C954.468 2978.25 952.912 2973.84 956.051 2971.46C959.189 2969.08 986.77 2964.76 1000.17 2962.9L1105.74 2931.77C1105.75 2933.64 1105.93 2935.32 1106.32 2936.73Z" fill="#A89076"/>
<path d="M1128.59 2857.26C1121.69 2866.29 1115.47 2888.61 1113.22 2898.64L1101.69 2847.26L1097.28 2850.46L1111.72 2902.91C1111.38 2903.93 1111.03 2905.02 1110.68 2906.15L995.761 2846.15L994.184 2850.39L1067.65 2887.92C1050.07 2888.98 1013.17 2893.83 1006.21 2904.77C999.244 2915.7 977.42 2921.17 967.378 2922.54C956.669 2922.45 933.678 2924.99 927.386 2935.86C921.094 2946.72 888.622 2942.25 873.173 2938.66L871.596 2942.9C888.697 2947.11 923.376 2952.72 925.283 2941.52C927.191 2930.31 952.74 2927.97 965.276 2928.2C975.652 2926.53 993.678 2922.61 1002.63 2917.64C1014.8 2919.57 1040.62 2921.66 1046.5 2914.5C1052.38 2907.35 1046.75 2900.08 1043.21 2897.33C1054.16 2894.7 1065.51 2892.46 1073.74 2891.04L1109.71 2909.41C1107.6 2916.77 1105.7 2925.38 1105.74 2931.77L1000.17 2962.9C986.77 2964.76 959.189 2969.08 956.051 2971.46C952.912 2973.84 954.468 2978.25 955.638 2980.16L992.86 2971.05C982.258 2985.49 963.689 3012.05 974.229 3002.77C984.768 2993.48 994.512 2976.09 998.066 2968.56L1106.32 2936.73C1108.79 2945.69 1103.91 2961.99 1101.16 2969.02C1096.48 2976.94 1085.53 2994.85 1079.23 3003.14C1071.35 3013.49 1041.12 3024.4 1026.16 3032.12C1014.2 3038.3 988.893 3044.98 977.736 3047.54C966.291 3043.29 939.945 3034.54 926.119 3033.59C899.997 3034.51 872.026 3028.12 861.306 3024.81C856.914 3023.98 846.627 3022.25 840.616 3021.95C833.691 3023.24 810.593 3012.41 799.91 3006.83L791.222 2998.77C783.092 2998.97 765.769 2998.98 761.522 2997.4C741.005 2993.64 727.123 2983.01 722.747 2978.16L712.187 2965.38L693.073 2958.28L667.883 2957.78L647.707 2950.28L670.774 2950L735.723 2933.48C745.539 2930.55 766.799 2923.13 773.319 2916.85C777.806 2905.64 793.201 2907.07 800.338 2909.18L829.985 2894.44C836.372 2888.09 850.92 2875.17 858.023 2874.26C865.126 2873.36 870.96 2870.89 872.989 2869.76C877.219 2865.97 889.076 2859.64 902.668 2864.69C917.756 2862.24 946.907 2848.25 959.597 2841.57C975.628 2833.84 1010.94 2817.01 1023.93 2811.53C1036.92 2806.05 1069.41 2818.5 1084.03 2825.41L1084.81 2834.15L1101.09 2840.2L1106.08 2826.76C1116.46 2833.16 1135.49 2848.23 1128.59 2857.26Z" fill="#B59E7F"/>
<path d="M1101.69 2847.26L1113.22 2898.64C1112.76 2899.87 1112.25 2901.31 1111.72 2902.91L1097.28 2850.46L1101.69 2847.26Z" fill="#A89076"/>
<path d="M995.761 2846.15L1110.68 2906.15C1110.36 2907.2 1110.03 2908.29 1109.71 2909.41L1073.74 2891.04L1067.65 2887.92L994.184 2850.39L995.761 2846.15Z" fill="#A89076"/>
<path d="M927.256 3056.56L935.166 3069.96L901.004 3055.66C900.808 3054.38 901.007 3051.31 903.369 3049.29C905.731 3047.27 920.278 3053.29 927.256 3056.56Z" fill="#A4896E"/>
<path d="M1180.82 2871.74L1146.55 2826.21C1147.64 2825.74 1148.69 2825.31 1149.69 2824.9C1151.25 2824.27 1152.68 2823.72 1153.91 2823.27C1162.46 2835.7 1180.11 2860.74 1182.33 2861.54C1184.55 2862.34 1204.59 2896.16 1214.34 2912.97C1227.26 2935.19 1254.19 2982.6 1258.54 2994.52C1264.84 3004.76 1263.41 3010.83 1261.91 3012.58C1259.82 3012 1256.07 3010.21 1257.71 3007.68C1259.36 3005.15 1237.85 2966.43 1226.89 2947.38L1206.53 2911.4L1180.82 2871.74Z" fill="#514842"/>
<path d="M1257.71 3007.68C1256.07 3010.21 1259.82 3012 1261.91 3012.58L1333.25 3066.15L1318.72 3071.45L1272.51 3032.83L1221.95 2996.61L1208.28 2998.78L1185.78 2996.54L1153.05 2991.59L1126.19 2987.32L1078.34 2979.45L1038.36 2971.12L1006.92 2965.31L1001.11 2962.6L1001.24 2958.54L1002.65 2958.02L1004.07 2957.5L1040.09 2964.86L1080.78 2972.93L1126.73 2981.09L1152.04 2985.53L1183.32 2989.8L1205.95 2992.4L1214.46 2989.29L1198.11 2980.79L1158.65 2957.4L1137.81 2946.51L1111.16 2928.49L1036.25 2883.87L978.475 2849.88L908.314 2812.76L912.567 2811.21L912.95 2807.86L980.822 2844.2L1040.41 2878.74L1115.67 2923.23L1139.55 2940.25L1159.51 2949.85L1198.84 2972.88L1257.71 3007.68Z" fill="#514842"/>
<path d="M1007.57 2941.76C998.88 2945.25 998.347 2950.61 999.166 2952.86L991.971 2947.45L975.336 2920.55L965.16 2902.56L961.261 2903.98L968.247 2923.14L987.363 2949.13L949.168 2928.09L894.05 2908L802.222 2868.74L801.001 2872L893.543 2915.42L941.37 2930.93L973.241 2947.84L983.531 2952.93L971.766 2954.81L937.852 2954.32L905.686 2960.83L877.094 2962.81L849.942 2956.64L846.043 2958.06L875.26 2965.49L901.821 2963.44L936.051 2958.19L969.999 2959.88L981.443 2959.32L989.309 2958.87L974.23 2965.97L974.269 2971.59L982.095 2965.52C988.908 2974.29 998.054 2992.98 980.135 2997.58C962.216 3002.19 905.428 3005.27 879.274 3006.23C873.469 3005 858.409 3000.33 844.6 2991.54C813.176 2981.14 777.45 2946.9 763.515 2931.08L699.64 2867.16L643.046 2798.98L609.084 2758.71L652.414 2788.32L772.009 2809.02C776.954 2810.19 782.871 2811.59 789.395 2813.13C818.45 2819.97 859.531 2829.55 880.341 2834.07C882.825 2834.61 885.019 2835.07 886.871 2835.45C906.886 2837.48 944.465 2850.22 960.752 2856.34C974.699 2864.11 1003.97 2881.01 1009.47 2886.4C1015.74 2888.62 1024.55 2909.04 1028.17 2918.97L1022.26 2933.59C1020.98 2934.86 1016.25 2938.27 1007.57 2941.76Z" fill="#B59E7F"/>
<path d="M1001.24 2958.54L1001.11 2962.6L982.095 2965.52L974.269 2971.59L974.23 2965.97L989.309 2958.87L981.443 2959.32L969.999 2959.88L936.051 2958.19L901.821 2963.44L875.26 2965.49L846.043 2958.06L849.942 2956.64L877.094 2962.81L905.686 2960.83L937.852 2954.32L971.766 2954.81L983.531 2952.93L973.241 2947.84L941.37 2930.93L893.543 2915.42L801.001 2872L802.222 2868.74L894.05 2908L949.168 2928.09L987.363 2949.13L968.247 2923.14L961.261 2903.98L965.16 2902.56L975.336 2920.55L991.971 2947.45L999.166 2952.86L1002.65 2958.02L1001.24 2958.54Z" fill="#A89076"/>
<path d="M912.95 2807.86L912.567 2811.21L908.314 2812.76L894.844 2817.67L880.341 2834.07C859.531 2829.55 818.45 2819.97 789.395 2813.13L777.31 2793.82L747.268 2769.81L708.759 2729.19L687.551 2705.17L664.546 2689.45L721.393 2698.86L753.382 2707.29C759.496 2706.8 773.55 2707.09 780.855 2712.14C788.159 2717.19 803.117 2718.49 809.683 2718.51C816.086 2716.98 831.859 2715.89 843.732 2723.78C857.194 2723.69 872.885 2731.77 879.047 2735.82L896.778 2763.51L908.039 2798.79L912.95 2807.86Z" fill="#B59E7F"/>
<path d="M1075.62 2751.75C1079.32 2748.79 1094.49 2758.19 1109.52 2769.13C1109.73 2773.6 1107.84 2782.6 1098.58 2782.76C1089.32 2782.92 1074.17 2761.92 1067.75 2751.4C1071.23 2752.7 1074.04 2753.01 1075.62 2751.75Z" fill="#A89076"/>
<path d="M1079.87 2745.78C1092.71 2743.99 1120.32 2768.94 1132.53 2781.63L1134.11 2788.29C1127.69 2782.95 1118.63 2775.76 1109.52 2769.13C1094.49 2758.19 1079.32 2748.79 1075.62 2751.75C1074.04 2753.01 1071.23 2752.7 1067.75 2751.4C1058.16 2747.81 1043.49 2736.62 1035.49 2729.81C1027.54 2720.11 1009.19 2702.18 999.421 2707.99C989.654 2713.81 971.442 2683.76 963.557 2668.02L967.811 2666.47C975.092 2680.56 992.742 2708.18 1005.09 2705.92C1017.44 2703.67 1034.28 2719.53 1041.16 2727.74C1048.71 2734.5 1067.03 2747.57 1079.87 2745.78Z" fill="#A89076"/>
<path d="M1120.44 2842.71L1026.02 2780.94C1017.98 2783.11 998.426 2786.97 984.523 2784.97C970.619 2782.97 1002.88 2779.88 1020.75 2778.59L989.679 2756.16C990.374 2754.03 992.727 2749.98 996.571 2750.83C1000.41 2751.68 1021.59 2769.88 1031.69 2778.87L1123.84 2839.06C1122.42 2840.28 1121.26 2841.51 1120.44 2842.71Z" fill="#A89076"/>
<path d="M1195.38 2808.15C1184.04 2808.75 1163.01 2818.48 1153.91 2823.27L1185.55 2781.19L1180.26 2779.9L1149.69 2824.9C1148.69 2825.31 1147.64 2825.74 1146.55 2826.21L1117.72 2699.82L1113.47 2701.37L1132.53 2781.63C1120.32 2768.94 1092.71 2743.99 1079.87 2745.78C1067.03 2747.57 1048.71 2734.5 1041.16 2727.74C1034.28 2719.53 1017.44 2703.67 1005.09 2705.92C992.742 2708.18 975.092 2680.56 967.811 2666.47L963.557 2668.02C971.442 2683.76 989.654 2713.81 999.421 2707.99C1009.19 2702.18 1027.54 2720.11 1035.49 2729.81C1043.49 2736.62 1058.16 2747.81 1067.75 2751.4C1074.17 2761.92 1089.32 2782.92 1098.58 2782.76C1107.84 2782.6 1109.73 2773.6 1109.52 2769.13C1118.63 2775.76 1127.69 2782.95 1134.11 2788.29L1143.44 2827.59C1136.46 2830.75 1128.68 2834.89 1123.84 2839.06L1031.69 2778.87C1021.59 2769.88 1000.41 2751.68 996.571 2750.83C992.727 2749.98 990.374 2754.03 989.679 2756.16L1020.75 2778.59C1002.88 2779.88 970.619 2782.97 984.523 2784.97C998.426 2786.97 1017.98 2783.11 1026.02 2780.94L1120.44 2842.71C1115.22 2850.41 1099.64 2857.27 1092.51 2859.73C1083.44 2861.3 1062.71 2864.57 1052.32 2865.15C1039.33 2865.87 1011.42 2849.92 995.844 2843.54C983.381 2838.44 961.895 2823.5 952.71 2816.67C948.527 2805.2 938.1 2779.47 929.86 2768.33C912.222 2749.04 898.955 2723.6 894.526 2713.29C892.308 2709.41 886.954 2700.46 883.286 2695.68C877.813 2691.25 871.087 2666.64 868.408 2654.89L868.91 2643.05C863.487 2636.99 852.252 2623.8 850.7 2619.55C840.259 2601.49 839.352 2584.03 840.204 2577.55L843.086 2561.23L836.1 2542.07L820.151 2522.57L812.777 2502.35L827.949 2519.73L882.639 2558.46C891.231 2564.04 910.667 2575.41 919.669 2576.31C931.115 2572.45 940.011 2585.1 943.028 2591.9L973.475 2604.92C982.449 2605.66 1001.72 2608.36 1007.01 2613.18C1012.31 2618 1017.97 2620.84 1020.14 2621.66C1025.78 2622.42 1038.28 2627.34 1043.25 2640.96C1054.89 2650.87 1084.44 2663.99 1097.76 2669.31C1114.04 2676.51 1149.75 2692.48 1162.34 2698.82C1174.93 2705.16 1186.52 2737.96 1190.74 2753.57L1184.59 2759.83L1190.54 2776.15L1204.01 2771.24C1205.86 2783.29 1206.73 2807.55 1195.38 2808.15Z" fill="#B59E7F"/>
<path d="M1185.55 2781.19L1153.91 2823.27C1152.68 2823.72 1151.25 2824.27 1149.69 2824.9L1180.26 2779.9L1185.55 2781.19Z" fill="#A89076"/>
<path d="M1117.72 2699.82L1146.55 2826.21C1145.54 2826.64 1144.5 2827.1 1143.44 2827.59L1134.11 2788.29L1132.53 2781.63L1113.47 2701.37L1117.72 2699.82Z" fill="#A89076"/>
<path d="M913.115 2784.08L908.039 2798.79L896.778 2763.51C897.626 2762.53 900.089 2760.7 903.159 2761.19C906.228 2761.67 911.075 2776.65 913.115 2784.08Z" fill="#A4896E"/>
<path d="M1796.84 3008.4C1807.05 2997.51 1808.12 2990.25 1807.38 2987.98C1799.06 2957.83 1767.99 2906.76 1754.67 2886.82C1744.02 2870.87 1701.03 2840.62 1680.87 2827.49C1655.35 2815.01 1599.75 2787.42 1581.55 2776.92C1563.35 2766.41 1549.92 2754.39 1545.48 2749.68L1513.3 2716.13C1508.86 2712.08 1497.76 2702.32 1488.88 2695.7C1480.01 2689.09 1471.87 2686.79 1468.91 2686.46H1450.04L1441.16 2688.41H1412.87C1410.09 2687.27 1402.43 2685 1394 2685C1375.8 2686.95 1362 2698.46 1357.38 2703.97C1343.88 2717.26 1313.65 2747.45 1300.78 2761.84C1287.91 2776.24 1261.75 2792.8 1250.29 2799.29L1199.79 2828.95C1185.55 2836.25 1153.07 2856.09 1137.09 2877.1C1117.12 2891.88 1098.81 2925.08 1092.15 2939.83L1073.84 3003.05C1090.26 3019.78 1120.63 3029.15 1133.76 3031.75L1241.41 3051.2L1339.62 3060.44H1464.47L1558.8 3057.03L1658.68 3047.31C1700.48 3038.88 1786.63 3019.3 1796.84 3008.4Z" fill="#EBB31F"/>
<path d="M1412.87 2688.41H1441.16C1442.05 2685.69 1432.66 2670.42 1427.85 2663.12C1425.44 2661.01 1419.75 2656.41 1416.2 2654.85C1413.09 2651.35 1403.43 2650.15 1398.99 2649.99L1390.12 2654.85C1389.19 2655.18 1387.45 2656.8 1387.9 2660.69C1388.34 2664.58 1391.04 2666.85 1392.34 2667.5C1395.48 2668.96 1402.77 2672.94 1406.76 2677.22C1410.76 2681.5 1412.5 2686.46 1412.87 2688.41Z" fill="#AF7B20"/>
<path d="M1063.15 3019.59C1059.35 3027.3 1056.58 3036.13 1057.75 3043.9C1057.96 3045.32 1058.68 3046.79 1059.84 3048.28L1084.38 3034.14C1070.72 3027.49 1064.62 3022.11 1063.15 3019.59Z" fill="#483320"/>
<path d="M1250.84 3104.45C1254.34 3104.94 1257.86 3105.42 1261.39 3105.88C1301.11 3111.12 1342.51 3114.83 1375.13 3113.93C1377.15 3113.88 1379.18 3113.82 1381.24 3113.77C1365.26 3110.14 1340.92 3090.62 1330.74 3081.31C1320.11 3079.99 1308.07 3078.45 1295.23 3076.76C1281.36 3082.81 1273.04 3090.36 1226.98 3100.93C1234.77 3102.14 1242.75 3103.32 1250.84 3104.45Z" fill="#87622D"/>
<path d="M1383.46 3113.71C1436.77 3112.39 1504.63 3111.92 1559.71 3109.68C1544.08 3110.23 1509.72 3091.21 1494.43 3081.58C1479.49 3081.96 1464.35 3082.25 1449.49 3082.46C1438.76 3092 1410.54 3111.59 1383.46 3113.71Z" fill="#87622D"/>
<path d="M1572.11 3109.13C1602.69 3107.67 1628.3 3105.55 1643.69 3102.26C1661.41 3102.26 1686.17 3096.71 1711.39 3089.18C1698.96 3090.77 1671.07 3075.97 1658.68 3068.37C1648.53 3070.2 1638.62 3071.66 1629.27 3072.6C1614.29 3083.18 1581.88 3105.29 1572.11 3109.13Z" fill="#87622D"/>
<path d="M1711.39 3089.18C1744.94 3079.16 1779.32 3065.64 1799.06 3057.03C1789.29 3057.03 1770.95 3046.43 1762.99 3041.13C1759.8 3042.17 1756.47 3043.24 1753 3044.33C1749.49 3054.11 1736.25 3076.76 1711.39 3089.18Z" fill="#87622D"/>
<path d="M1799.06 3057.03C1805.9 3051.68 1820.26 3037.19 1822.92 3022.02C1823.95 3016.17 1822.8 3010.51 1820.65 3005.48C1817.66 3010.19 1813.76 3014.44 1809.62 3018.13C1810.72 3025.91 1810.16 3044.58 1799.06 3057.03Z" fill="#87622D"/>
<path d="M1807.38 2987.98C1808.12 2990.25 1807.05 2997.51 1796.84 3008.4C1786.63 3019.3 1700.48 3038.88 1658.68 3047.31L1558.8 3057.03L1464.47 3060.44H1339.62L1241.41 3051.2L1133.76 3031.75C1120.63 3029.15 1090.26 3019.78 1073.84 3003.05C1070.86 3006.59 1066.58 3012.63 1063.15 3019.59C1064.62 3022.11 1070.72 3027.49 1084.38 3034.14C1087.04 3035.44 1090 3036.78 1093.26 3038.17C1099.08 3040.63 1105.88 3043.22 1113.79 3045.85C1125.12 3049.62 1146.62 3054.04 1172.61 3058.54C1209.81 3064.98 1256.23 3071.6 1295.23 3076.76C1308.07 3078.45 1320.11 3079.99 1330.74 3081.31C1335.06 3081.85 1339.14 3082.35 1342.95 3082.81C1369.98 3083.05 1408.71 3083.04 1449.49 3082.46C1464.35 3082.25 1479.49 3081.96 1494.43 3081.58C1550.13 3080.16 1603.13 3077.45 1629.27 3072.6C1638.62 3071.66 1648.53 3070.2 1658.68 3068.37C1691.06 3062.52 1725.9 3052.86 1753 3044.33C1756.47 3043.24 1759.8 3042.17 1762.99 3041.13C1772.7 3037.96 1781.04 3035.06 1787.41 3032.72C1792.3 3030.56 1801.43 3025.44 1809.62 3018.13C1813.76 3014.44 1817.66 3010.19 1820.65 3005.48C1817.23 2997.48 1811.24 2991.06 1807.38 2987.98Z" fill="#483320"/>
<path fill-rule="evenodd" clip-rule="evenodd" d="M1172.61 3058.54L1143.2 3058.98C1139.13 3064.02 1128.1 3074.67 1116.56 3076.99C1127.42 3080.75 1137.87 3083.95 1145.97 3086.21C1162.68 3089.79 1187.57 3094.57 1215.89 3099.17C1211 3098.38 1185 3071.75 1172.61 3058.54Z" fill="#87622D"/>
<path d="M1113.79 3045.85C1105.88 3043.22 1099.08 3040.63 1093.26 3038.17C1096.03 3049.31 1102.8 3072.05 1107.68 3073.81C1110.65 3074.91 1113.62 3075.97 1116.56 3076.99C1128.1 3074.67 1139.13 3064.02 1143.2 3058.98L1172.61 3058.54C1146.62 3054.04 1125.12 3049.62 1113.79 3045.85Z" fill="#483320"/>
<path d="M1172.61 3058.54C1185 3071.75 1211 3098.38 1215.89 3099.17C1219.53 3099.76 1223.23 3100.35 1226.98 3100.93C1273.04 3090.36 1281.36 3082.81 1295.23 3076.76C1256.23 3071.6 1209.81 3064.98 1172.61 3058.54Z" fill="#483320"/>
<path d="M1342.95 3082.81C1339.14 3082.35 1335.06 3081.85 1330.74 3081.31C1340.92 3090.62 1365.26 3110.14 1381.24 3113.77C1381.97 3113.75 1382.71 3113.73 1383.46 3113.71C1410.54 3111.59 1438.76 3092 1449.49 3082.46C1408.71 3083.04 1369.98 3083.05 1342.95 3082.81Z" fill="#483320"/>
<path d="M1559.91 3109.67C1564.05 3109.5 1568.13 3109.32 1572.11 3109.13C1581.88 3105.29 1614.29 3083.18 1629.27 3072.6C1603.13 3077.45 1550.13 3080.16 1494.43 3081.58C1509.72 3091.21 1544.08 3110.23 1559.71 3109.68C1559.78 3109.68 1559.84 3109.68 1559.91 3109.67Z" fill="#483320"/>
<path d="M1658.68 3068.37C1671.07 3075.97 1698.96 3090.77 1711.39 3089.18C1736.25 3076.76 1749.49 3054.11 1753 3044.33C1725.9 3052.86 1691.06 3062.52 1658.68 3068.37Z" fill="#483320"/>
<path d="M1787.41 3032.72C1781.04 3035.06 1772.7 3037.96 1762.99 3041.13C1770.95 3046.43 1789.29 3057.03 1799.06 3057.03C1810.16 3044.58 1810.72 3025.91 1809.62 3018.13C1801.43 3025.44 1792.3 3030.56 1787.41 3032.72Z" fill="#483320"/>
<path d="M1084.38 3034.14L1059.84 3048.28C1066.38 3056.72 1086.82 3066.1 1107.68 3073.81C1102.8 3072.05 1096.03 3049.31 1093.26 3038.17C1090 3036.78 1087.04 3035.44 1084.38 3034.14Z" fill="#87622D"/>
<path d="M2228.76 3075.13C2242.16 3067.36 2245.63 3060.71 2245.68 3058.35C2247.87 3027.41 2235.38 2970.64 2229.37 2948.16C2224.56 2930.18 2193.7 2890.2 2178.88 2872.46C2158.71 2853.95 2114.92 2813.25 2101.08 2798.52C2087.24 2783.79 2078.46 2768.84 2075.81 2763.21L2056.37 2722.86C2053.5 2717.85 2046.18 2705.66 2039.93 2697.06C2033.68 2688.45 2026.69 2684.15 2023.97 2683.08L2005.97 2678.2L1996.84 2677.77L1969.83 2670.46C1967.56 2668.66 1961.02 2664.52 1952.97 2662.34C1934.94 2659.49 1917.91 2666.92 1911.64 2670.99C1894.29 2680.19 1855.3 2701.2 1838.17 2711.62C1821.05 2722.04 1790.52 2731.1 1777.39 2734.33L1719.23 2749.61C1703.19 2752.9 1665.52 2763.45 1643.2 2779.39C1619.17 2788.34 1590.54 2815.31 1579.22 2827.67L1540.5 2883.3C1550.55 2903.51 1576.39 2920.3 1588.05 2926.17L1684.25 2972.54L1774.88 3006.73L1894.04 3038.97L1985.22 3060.08L2083.81 3076.59C2126.54 3079.34 2215.35 3082.89 2228.76 3075.13Z" fill="#831A01"/>
<path d="M1969.83 2670.46L1996.84 2677.77C1998.6 2675.4 1994.77 2658.39 1992.63 2650.19C1991.04 2647.55 1987.15 2641.69 1984.29 2639.28C1982.5 2635.14 1973.69 2631.5 1969.5 2630.2L1959.4 2632.55C1958.4 2632.62 1956.2 2633.72 1955.32 2637.55C1954.43 2641.38 1956.25 2644.24 1957.26 2645.19C1959.78 2647.4 1965.39 2653.09 1967.76 2658.2C1970.14 2663.32 1970.13 2668.51 1969.83 2670.46Z" fill="#590101"/>
<path d="M1524.74 2896.33C1518.52 2902.71 1512.91 2910.42 1511.41 2918.15C1511.13 2919.56 1511.33 2921.14 1511.94 2922.86L1540.11 2915.7C1529.31 2905.83 1525.3 2899.11 1524.74 2896.33Z" fill="#1F1B0E"/>
<path d="M1675.36 3025.82C1678.53 3027.19 1681.72 3028.55 1684.94 3029.91C1721.09 3045.17 1759.35 3059.4 1790.8 3066.97C1792.74 3067.44 1794.7 3067.91 1796.68 3068.39C1782.65 3060.8 1765.97 3035.88 1759.39 3024.36C1749.68 3020.35 1738.71 3015.78 1727.03 3010.84C1711.76 3013.04 1701.28 3018.1 1653.77 3016.3C1660.79 3019.46 1668.01 3022.65 1675.36 3025.82Z" fill="#9A7531"/>
<path d="M1798.81 3068.91C1850.14 3081.41 1915.07 3098.5 1968.39 3110.58C1953.29 3107.07 1926.89 3080.03 1915.53 3066.9C1901.14 3063.4 1886.6 3059.77 1872.34 3056.13C1858.9 3062.46 1825.37 3073.88 1798.81 3068.91Z" fill="#9A7531"/>
<path d="M1980.42 3113.26C2010.09 3119.76 2035.25 3124.35 2051.04 3125.18C2067.95 3129.76 2093.45 3130.85 2120.05 3130.17C2107.65 3128.48 2086.01 3107.15 2076.73 3096.7C2066.43 3095.83 2056.48 3094.66 2047.24 3093.14C2029.39 3099.37 1991.03 3112.12 1980.42 3113.26Z" fill="#9A7531"/>
<path d="M2120.05 3130.17C2155.44 3129.27 2192.79 3125.25 2214.53 3122.13C2205.21 3119.61 2191.26 3104.75 2185.45 3097.63C2182.06 3097.8 2178.51 3097.96 2174.84 3098.11C2168.2 3106.53 2147.95 3124.74 2120.05 3130.17Z" fill="#9A7531"/>
<path d="M2214.53 3122.13C2222.86 3118.79 2241.43 3108.66 2249.07 3094.86C2252.02 3089.54 2252.83 3083.85 2252.47 3078.49C2248.03 3082.21 2242.88 3085.26 2237.69 3087.71C2236.12 3095.43 2229.31 3113.11 2214.53 3122.13Z" fill="#9A7531"/>
<path d="M2245.68 3058.35C2245.63 3060.71 2242.16 3067.36 2228.76 3075.13C2215.35 3082.89 2126.54 3079.34 2083.81 3076.59L1985.22 3060.08L1894.04 3038.97L1774.88 3006.73L1684.25 2972.54L1588.05 2926.17C1576.39 2920.3 1550.55 2903.51 1540.5 2883.3C1536.46 2885.91 1530.35 2890.57 1524.74 2896.33C1525.3 2899.11 1529.31 2905.83 1540.11 2915.7C1542.22 2917.63 1544.58 2919.68 1547.23 2921.84C1551.95 2925.7 1557.58 2929.92 1564.24 2934.48C1573.79 2941 1592.82 2950.77 1616.11 2961.78C1649.46 2977.54 1691.54 2995.85 1727.03 3010.84C1738.71 3015.78 1749.68 3020.35 1759.39 3024.36C1763.33 3025.99 1767.06 3027.52 1770.54 3028.94C1796.26 3036.15 1833.22 3046.15 1872.34 3056.13C1886.6 3059.77 1901.14 3063.4 1915.53 3066.9C1969.17 3079.92 2020.67 3091.02 2047.24 3093.14C2056.48 3094.66 2066.43 3095.83 2076.73 3096.7C2109.6 3099.47 2146.11 3099.25 2174.84 3098.11C2178.51 3097.96 2182.06 3097.8 2185.45 3097.63C2195.78 3097.11 2204.71 3096.5 2211.58 3095.9C2216.98 3095.11 2227.41 3092.57 2237.69 3087.71C2242.88 3085.26 2248.03 3082.21 2252.47 3078.49C2251.89 3069.96 2248.33 3062.29 2245.68 3058.35Z" fill="#0E0302"/>
<path fill-rule="evenodd" clip-rule="evenodd" d="M1616.11 2961.78L1587.9 2954.61C1582.32 2958.36 1568.22 2965.69 1556.42 2964.92C1565.52 2971.32 1574.42 2977.07 1581.39 2981.32C1596.14 2989.05 1618.29 3000.05 1643.77 3011.75C1639.37 3009.74 1623.5 2977.6 1616.11 2961.78Z" fill="#9A7531"/>
<path d="M1564.24 2934.48C1557.58 2929.92 1551.95 2925.7 1547.23 2921.84C1546.13 2933.2 1544.95 2956.65 1549.02 2959.6C1551.48 2961.41 1553.96 2963.19 1556.42 2964.92C1568.22 2965.69 1582.32 2958.36 1587.9 2954.61L1616.11 2961.78C1592.82 2950.77 1573.79 2941 1564.24 2934.48Z" fill="#1F1B0E"/>
<path d="M1616.11 2961.78C1623.5 2977.6 1639.37 3009.74 1643.77 3011.75C1647.05 3013.25 1650.38 3014.77 1653.77 3016.3C1701.28 3018.1 1711.76 3013.04 1727.03 3010.84C1691.54 2995.85 1649.46 2977.54 1616.11 2961.78Z" fill="#1F1B0E"/>
<path d="M1770.54 3028.94C1767.06 3027.52 1763.33 3025.99 1759.39 3024.36C1765.97 3035.88 1782.65 3060.8 1796.68 3068.39C1797.39 3068.56 1798.1 3068.74 1798.81 3068.91C1825.37 3073.88 1858.9 3062.46 1872.34 3056.13C1833.22 3046.15 1796.26 3036.15 1770.54 3028.94Z" fill="#1F1B0E"/>
<path d="M1968.58 3110.62C1972.6 3111.53 1976.54 3112.41 1980.42 3113.26C1991.03 3112.12 2029.39 3099.37 2047.24 3093.14C2020.67 3091.02 1969.17 3079.92 1915.53 3066.9C1926.89 3080.03 1953.29 3107.07 1968.39 3110.58C1968.45 3110.59 1968.52 3110.61 1968.58 3110.62Z" fill="#1F1B0E"/>
<path d="M2076.73 3096.7C2086.01 3107.15 2107.65 3128.48 2120.05 3130.17C2147.95 3124.74 2168.2 3106.53 2174.84 3098.11C2146.11 3099.25 2109.6 3099.47 2076.73 3096.7Z" fill="#1F1B0E"/>
<path d="M2211.58 3095.9C2204.71 3096.5 2195.78 3097.11 2185.45 3097.63C2191.26 3104.75 2205.21 3119.61 2214.53 3122.13C2229.31 3113.11 2236.12 3095.43 2237.69 3087.71C2227.41 3092.57 2216.98 3095.11 2211.58 3095.9Z" fill="#1F1B0E"/>
<path d="M1540.11 2915.7L1511.94 2922.86C1515.35 2932.61 1531.7 2946.85 1549.02 2959.6C1544.95 2956.65 1546.13 2933.2 1547.23 2921.84C1544.58 2919.68 1542.22 2917.63 1540.11 2915.7Z" fill="#9A7531"/>
<path d="M1296.2 2617.4L1282.2 2619.8C1279 2620.33 1275.67 2620.33 1272.2 2619.8C1268.73 2619.27 1265.13 2619 1261.4 2619C1260.6 2619 1259.4 2619 1257.8 2619C1256.2 2619 1254.33 2619 1252.2 2619C1250.33 2619 1248.47 2619.13 1246.6 2619.4C1244.73 2619.4 1243.13 2619.4 1241.8 2619.4L1233 2613.4C1233.8 2608.07 1233.53 2604.2 1232.2 2601.8C1231.13 2599.4 1230.33 2597.13 1229.8 2595C1229.27 2593.4 1228.2 2590.87 1226.6 2587.4C1225 2583.93 1223.53 2579.93 1222.2 2575.4C1222.2 2574.6 1220.87 2572.2 1218.2 2568.2C1215.53 2564.2 1213.4 2560.6 1211.8 2557.4L1207 2559.4C1205.67 2559.4 1204.2 2559.8 1202.6 2560.6C1201 2561.4 1197 2561.8 1190.6 2561.8C1189.8 2560.2 1188.47 2559.13 1186.6 2558.6C1184.73 2557.8 1182.6 2557.67 1180.2 2558.2C1178.07 2558.47 1175.8 2559.27 1173.4 2560.6C1171.27 2561.93 1169.4 2563.53 1167.8 2565.4L1151.4 2567.8C1150.33 2565.4 1149.13 2563.53 1147.8 2562.2C1146.73 2560.6 1145.53 2559.13 1144.2 2557.8C1143.13 2556.47 1142.2 2555 1141.4 2553.4C1140.6 2551.8 1140.2 2549.67 1140.2 2547C1145.53 2545.67 1148.6 2543.93 1149.4 2541.8C1150.47 2539.67 1151.27 2538.73 1151.8 2539C1153.4 2539.8 1154.87 2540.2 1156.2 2540.2C1154.33 2540.2 1153.8 2539.93 1154.6 2539.4C1155.4 2538.87 1159 2537.53 1165.4 2535.4L1194.6 2531.8L1200.6 2536.2C1204.87 2537.27 1208.07 2537.53 1210.2 2537C1212.33 2536.47 1213.8 2535.53 1214.6 2534.2C1215.4 2532.6 1215.8 2530.87 1215.8 2529C1216.07 2527.13 1216.33 2525.53 1216.6 2524.2C1217.13 2521.27 1216.47 2518.87 1214.6 2517C1213 2514.87 1210.73 2513 1207.8 2511.4C1207.27 2508.47 1206.2 2505.13 1204.6 2501.4C1203.27 2497.4 1201.53 2492.73 1199.4 2487.4C1197.53 2482.33 1195.8 2477 1194.2 2471.4C1192.87 2465.53 1191.67 2460.2 1190.6 2455.4C1189.53 2450.6 1188.73 2446.6 1188.2 2443.4C1187.67 2440.2 1187.27 2438.33 1187 2437.8C1183.27 2435.4 1180.2 2435.27 1177.8 2437.4C1175.4 2439.27 1173.4 2442.07 1171.8 2445.8C1170.47 2449.53 1169.53 2453.53 1169 2457.8C1168.73 2461.8 1168.73 2464.6 1169 2466.2C1168.73 2466.73 1168.07 2467.67 1167 2469C1165.93 2470.07 1164.73 2471.27 1163.4 2472.6C1162.07 2473.93 1160.87 2475.27 1159.8 2476.6C1158.73 2477.67 1158.07 2478.47 1157.8 2479C1156.73 2480.87 1156.47 2482.87 1157 2485C1157.53 2487.13 1157.13 2489 1155.8 2490.6C1150.47 2500.2 1144.2 2507.8 1137 2513.4C1135.13 2515 1133.67 2517.27 1132.6 2520.2C1131.53 2523.13 1130.87 2526.2 1130.6 2529.4C1130.33 2532.6 1130.6 2535.8 1131.4 2539C1132.2 2541.93 1133.67 2544.33 1135.8 2546.2C1133.13 2547.8 1131 2549.53 1129.4 2551.4C1128.07 2553 1126.87 2554.87 1125.8 2557C1125 2558.87 1124.2 2561 1123.4 2563.4C1122.6 2565.53 1121.67 2567.93 1120.6 2570.6C1116.07 2582.6 1113.8 2588.87 1113.8 2589.4L1108.2 2601L1103 2622.2C1103.27 2626.2 1101.8 2628.6 1098.6 2629.4C1095.67 2630.2 1090.87 2630.6 1084.2 2630.6C1077.8 2632.2 1072.2 2633 1067.4 2633C1062.6 2632.73 1061 2630.2 1062.6 2625.4C1069.53 2608.87 1074.6 2596.6 1077.8 2588.6C1081.27 2580.33 1083 2574.07 1083 2569.8C1083 2568.47 1083.53 2567.4 1084.6 2566.6C1085.93 2565.53 1087 2564.73 1087.8 2564.2C1088.07 2563.67 1089 2560.87 1090.6 2555.8C1092.47 2550.73 1094.47 2545.13 1096.6 2539C1098.73 2532.6 1100.73 2526.6 1102.6 2521C1104.73 2515.13 1106.33 2511.13 1107.4 2509C1109.8 2503.93 1112.6 2498.2 1115.8 2491.8C1119.27 2485.4 1123.27 2479.27 1127.8 2473.4C1130.2 2470.2 1132.2 2465.8 1133.8 2460.2C1135.67 2454.6 1137.4 2448.47 1139 2441.8C1140.6 2435.13 1142.33 2428.33 1144.2 2421.4C1146.07 2414.47 1148.47 2408.07 1151.4 2402.2C1153 2401.67 1157.67 2395.8 1165.4 2384.6C1165.93 2384.07 1166.33 2383.53 1166.6 2383C1167.13 2382.2 1167.67 2381.53 1168.2 2381L1219.4 2377.8C1220.47 2379.13 1221.67 2380.73 1223 2382.6C1224.33 2384.47 1225.8 2386.47 1227.4 2388.6C1232.47 2395 1235.53 2400.07 1236.6 2403.8C1237.67 2407.53 1238.33 2410.07 1238.6 2411.4C1238.07 2412.2 1240.87 2421.27 1247 2438.6C1248.6 2442.87 1249.93 2447.67 1251 2453C1252.07 2458.33 1252.87 2463.4 1253.4 2468.2C1253.93 2472.73 1254.2 2476.73 1254.2 2480.2C1254.2 2483.4 1254.07 2485.13 1253.8 2485.4C1253.27 2485.67 1257.53 2489 1266.6 2495.4C1268.73 2497 1269.93 2498.47 1270.2 2499.8C1270.73 2501.13 1270.73 2502.33 1270.2 2503.4C1269.93 2504.47 1269.4 2505.4 1268.6 2506.2C1267.8 2507 1267.4 2507.53 1267.4 2507.8L1278.2 2522.2C1278.2 2522.2 1281.27 2533.8 1287.4 2557C1290.87 2568.2 1293.4 2577.8 1295 2585.8C1296.6 2593.53 1297.4 2599.53 1297.4 2603.8C1297.4 2604.33 1297.53 2604.73 1297.8 2605C1297.8 2604.73 1298.07 2605.4 1298.6 2607L1296.2 2617.4Z" fill="black"/>
<path d="M1443.21 2369.8L1433.61 2386.6C1428.81 2390.33 1426.55 2394.2 1426.81 2398.2C1427.08 2402.2 1428.68 2406.47 1431.61 2411C1431.08 2415 1430.68 2418.2 1430.41 2420.6C1430.41 2423 1430.41 2425.27 1430.41 2427.4C1430.68 2429.27 1430.95 2431.4 1431.21 2433.8C1431.75 2435.93 1432.41 2438.73 1433.21 2442.2L1429.21 2458.6L1428.41 2477.8L1434.01 2481L1442.01 2479.4C1443.88 2478.07 1445.61 2476.47 1447.21 2474.6C1448.81 2472.47 1450.15 2470.47 1451.21 2468.6C1452.55 2466.73 1453.48 2465.13 1454.01 2463.8C1454.81 2462.47 1455.35 2461.8 1455.61 2461.8C1455.88 2461.8 1456.68 2461.8 1458.01 2461.8C1459.61 2461.53 1461.35 2461.27 1463.21 2461C1465.35 2460.47 1467.48 2459.93 1469.61 2459.4C1472.01 2458.87 1474.01 2458.2 1475.61 2457.4C1476.41 2457.4 1479.48 2457.8 1484.81 2458.6C1490.41 2459.13 1496.68 2460.87 1503.61 2463.8C1505.48 2464.33 1507.35 2465.13 1509.21 2466.2C1511.08 2467 1513.08 2467.93 1515.21 2469L1526.41 2474.6C1529.88 2476.2 1532.81 2477.67 1535.21 2479C1537.61 2480.33 1539.21 2481 1540.01 2481L1546.81 2503.4C1545.75 2504.2 1544.81 2505.4 1544.01 2507C1543.48 2508.6 1542.95 2510.2 1542.41 2511.8C1542.15 2513.4 1542.15 2514.87 1542.41 2516.2C1542.68 2517.53 1543.21 2518.33 1544.01 2518.6C1544.55 2521.27 1544.95 2523.13 1545.21 2524.2C1545.48 2525.27 1545.88 2526.07 1546.41 2526.6C1546.95 2527.13 1547.61 2527.67 1548.41 2528.2C1549.48 2528.73 1550.95 2529.8 1552.81 2531.4L1548.01 2568.6L1526.41 2604.6C1524.55 2606.2 1521.61 2608.2 1517.61 2610.6C1513.61 2612.73 1508.95 2614.87 1503.61 2617C1498.55 2619.13 1493.08 2621 1487.21 2622.6C1481.35 2623.93 1475.48 2624.6 1469.61 2624.6C1465.61 2626.2 1463.08 2627.4 1462.01 2628.2C1460.95 2628.73 1459.88 2629 1458.81 2629C1458.01 2628.73 1456.28 2628.2 1453.61 2627.4C1451.21 2626.33 1446.68 2625.13 1440.01 2623.8C1438.41 2622.2 1436.95 2621 1435.61 2620.2C1434.55 2619.4 1433.48 2618.6 1432.41 2617.8C1431.61 2617 1430.81 2615.93 1430.01 2614.6C1429.21 2613.27 1428.41 2611.13 1427.61 2608.2C1424.95 2605.53 1421.48 2603.13 1417.21 2601C1412.95 2598.6 1409.35 2597.8 1406.41 2598.6C1402.68 2603.93 1398.95 2608.2 1395.21 2611.4C1391.48 2614.6 1387.35 2616.07 1382.81 2615.8C1379.88 2614.2 1376.68 2613.27 1373.21 2613C1370.01 2612.73 1367.08 2612.73 1364.41 2613C1361.75 2613 1359.48 2613 1357.61 2613C1356.01 2612.73 1355.21 2611.93 1355.21 2610.6C1355.48 2609.53 1356.28 2608.2 1357.61 2606.6C1358.15 2605.53 1358.95 2604.2 1360.01 2602.6C1361.35 2600.73 1362.68 2598.6 1364.01 2596.2L1363.21 2589.4L1370.41 2540.6C1369.35 2537.67 1368.95 2532.87 1369.21 2526.2C1369.48 2519.27 1369.88 2509.93 1370.41 2498.2C1371.21 2486.47 1371.88 2471.93 1372.41 2454.6C1373.21 2437 1373.48 2416.07 1373.21 2391.8C1373.48 2387.8 1374.01 2383.93 1374.81 2380.2C1375.88 2376.47 1376.81 2373 1377.61 2369.8C1378.41 2366.33 1378.95 2363.27 1379.21 2360.6C1379.48 2357.67 1379.21 2355 1378.41 2352.6C1378.15 2350.2 1378.55 2348.33 1379.61 2347C1380.68 2345.4 1382.68 2344.87 1385.61 2345.4L1426.01 2347L1435.61 2350.2L1443.21 2369.8ZM1432.81 2595.4C1436.01 2597 1438.55 2598.2 1440.41 2599C1442.28 2599.53 1443.88 2599.8 1445.21 2599.8C1446.81 2599.8 1448.28 2599.53 1449.61 2599C1450.95 2598.47 1452.41 2597.8 1454.01 2597L1466.81 2593L1483.21 2577C1487.75 2575.67 1491.21 2573.53 1493.61 2570.6C1496.28 2567.4 1497.75 2563.13 1498.01 2557.8C1499.08 2553.27 1500.28 2549.13 1501.61 2545.4C1502.95 2541.4 1503.88 2537.53 1504.41 2533.8C1504.95 2530.07 1504.95 2526.33 1504.41 2522.6C1504.15 2518.6 1502.95 2514.33 1500.81 2509.8L1495.61 2496.6L1474.41 2486.2C1470.68 2485.4 1466.68 2484.87 1462.41 2484.6C1458.15 2484.33 1454.15 2484.6 1450.41 2485.4C1446.68 2486.2 1443.48 2487.67 1440.81 2489.8C1438.15 2491.67 1436.68 2494.47 1436.41 2498.2L1428.81 2506.2C1427.48 2517.13 1426.68 2525.93 1426.41 2532.6C1425.88 2539.53 1425.21 2546.2 1424.41 2552.6C1423.88 2559 1423.35 2563.13 1422.81 2565C1421.75 2568.73 1421.75 2572.2 1422.81 2575.4C1423.88 2578.33 1423.88 2580.2 1422.81 2581L1432.81 2595.4Z" fill="black"/>
<path d="M1738.06 2451V2469.4H1727.66L1712.46 2481.4C1699.39 2483.27 1688.73 2485.93 1680.46 2489.4C1672.19 2492.6 1668.33 2497.13 1668.86 2503C1668.33 2504.33 1668.06 2505.93 1668.06 2507.8C1668.06 2509.4 1668.99 2510.2 1670.86 2510.2L1662.86 2550.2L1659.26 2554.6V2599L1656.86 2621.4L1648.86 2629.4L1603.26 2626.2L1593.26 2612.6L1596.06 2605.4L1594.46 2583.4L1599.26 2543L1603.26 2513.4C1603.26 2512.6 1603.39 2511.93 1603.66 2511.4C1603.66 2510.87 1603.66 2510.2 1603.66 2509.4C1603.93 2508.6 1604.06 2507.93 1604.06 2507.4C1605.39 2506.33 1606.19 2503.93 1606.46 2500.2C1606.99 2496.47 1607.13 2494.07 1606.86 2493C1606.86 2491.13 1606.73 2489.4 1606.46 2487.8C1606.46 2486.2 1605.93 2482.73 1604.86 2477.4C1604.59 2475.8 1603.66 2473.93 1602.06 2471.8C1600.73 2469.4 1599.26 2467.27 1597.66 2465.4L1602.86 2453H1610.46L1651.66 2445.4L1661.66 2450.2C1660.86 2454.73 1660.73 2458.6 1661.26 2461.8C1662.06 2464.73 1663.13 2467 1664.46 2468.6C1666.06 2470.2 1667.79 2471.27 1669.66 2471.8C1671.53 2472.07 1673.13 2471.8 1674.46 2471L1681.66 2467C1682.99 2466.47 1683.39 2465 1682.86 2462.6C1682.59 2460.2 1682.73 2457.13 1683.26 2453.4L1732.86 2444.6L1738.06 2451Z" fill="black"/>
<path d="M1969.95 2608.2L1913.95 2615L1902.35 2596.2C1902.35 2592.73 1899.68 2592.87 1894.35 2596.6C1893.02 2597.4 1891.68 2598.73 1890.35 2600.6C1889.02 2602.47 1887.68 2604.33 1886.35 2606.2C1885.55 2607.27 1884.75 2608.33 1883.95 2609.4C1883.15 2610.47 1882.35 2611.67 1881.55 2613C1873.28 2619.13 1864.75 2623.13 1855.95 2625C1847.42 2626.87 1840.08 2625.67 1833.95 2621.4C1829.42 2620.87 1826.35 2619.8 1824.75 2618.2C1823.95 2617.67 1822.88 2616.73 1821.55 2615.4L1795.95 2613.8L1785.15 2608.6L1775.15 2583.4L1777.15 2575L1768.35 2539.8L1785.15 2511.8L1798.75 2499.4C1803.82 2496.73 1809.68 2494.6 1816.35 2493C1823.02 2491.4 1829.68 2490.33 1836.35 2489.8C1843.02 2489 1849.42 2488.87 1855.55 2489.4C1861.68 2489.67 1866.75 2490.47 1870.75 2491.8C1870.75 2496.07 1872.08 2498.87 1874.75 2500.2C1877.42 2501.53 1882.62 2503 1890.35 2504.6C1893.02 2500.07 1894.35 2494.6 1894.35 2488.2C1894.35 2481.53 1893.15 2474.6 1890.75 2467.4L1884.35 2447C1882.22 2446.2 1878.88 2444.87 1874.35 2443C1870.08 2440.87 1866.48 2439.13 1863.55 2437.8L1846.35 2440.6L1828.75 2444.2L1824.75 2437.8L1829.15 2427.4L1831.95 2421L1837.55 2419.8L1855.95 2416.6L1872.35 2422.2L1890.35 2419.4L1925.15 2429.8L1939.95 2452.2L1945.15 2515.8L1943.95 2535.8L1952.75 2582.6L1957.95 2585H1970.35L1975.55 2599L1969.95 2608.2ZM1823.15 2543C1821.82 2549.93 1821.82 2555.8 1823.15 2560.6C1824.75 2565.4 1827.28 2569.4 1830.75 2572.6L1836.75 2585C1841.55 2586.6 1846.08 2587.8 1850.35 2588.6C1854.62 2589.4 1859.02 2589.53 1863.55 2589C1868.35 2588.2 1873.28 2586.73 1878.35 2584.6C1883.68 2582.2 1889.82 2578.73 1896.75 2574.2L1897.55 2553.8L1890.35 2518.2C1886.62 2516.87 1883.28 2516.2 1880.35 2516.2C1877.68 2516.2 1875.02 2516.47 1872.35 2517C1869.15 2517.8 1865.42 2518.47 1861.15 2519C1856.88 2519.53 1852.48 2520.2 1847.95 2521C1843.68 2521.53 1839.68 2522.33 1835.95 2523.4C1832.48 2524.2 1829.95 2525.4 1828.35 2527L1823.15 2543Z" fill="black"/>
</svg>
