<svg width="3000" height="3000" viewBox="0 0 3000 3000" fill="none" xmlns="http://www.w3.org/2000/svg">
<defs>
<linearGradient id="paint0_linear_2267_17388" x1="1500" y1="0" x2="1500" y2="3000" gradientUnits="userSpaceOnUse">
<stop stop-color="#216CB2"/>
<stop offset="1" stop-color="white" stop-opacity="0"/>
</linearGradient>
</defs>
<path fill-rule="evenodd" clip-rule="evenodd" d="M1500 2900C2273.2 2900 2900 2273.2 2900 1500C2900 726.801 2273.2 100 1500 100C726.801 100 100 726.801 100 1500C100 2273.2 726.801 2900 1500 2900ZM1500 3000C2328.43 3000 3000 2328.43 3000 1500C3000 671.573 2328.43 0 1500 0C671.573 0 0 671.573 0 1500C0 2328.43 671.573 3000 1500 3000Z" fill="url(#paint0_linear_2267_17388)"/>
<path d="M2823.45 1444.54L2836.16 1511.91C2838.11 1524.91 2844.46 1546.03 2834.85 1561.18C2838.97 1582.64 2826.9 1606.85 2820.34 1616.27C2799.55 1619.66 2755.32 1627.11 2667.37 1652.03C2579.43 1676.95 2547.41 1710.73 2542.39 1724.51C2538.33 1737.67 2485.89 1771.74 2490.71 1786.52C2463.68 1805.15 2457.12 1879.06 2457.22 1913.69C2454.37 1923.8 2478.1 1967.81 2491.2 1990.09C2507.57 2017.93 2486.5 2054.97 2458.89 2126.79C2411.63 2170.16 2364.88 2216.81 2334.87 2240.1C2324.22 2252.49 2252.57 2287.59 2131.96 2323.89C2079.04 2360.42 2030.37 2427.13 2012.65 2455.92C2006.65 2470.67 2021.15 2523.28 2021.18 2543.1C2027.36 2565.17 2020.24 2585.36 2015.91 2592.7C2014.87 2606.67 1997.02 2635.06 1933.91 2636.93C1953.92 2641.99 1997.62 2646.97 2012.34 2626.38C2027.05 2605.79 2038.17 2587.08 2041.88 2580.3C2042.93 2570.47 2044.01 2549.6 2039.99 2544.81C2035.96 2540.01 2040.49 2522.27 2043.26 2514L2051.47 2489.97C2051.81 2477.97 2063.61 2442.36 2108.1 2396C2152.58 2349.64 2190.58 2343.48 2204.02 2346.19L2283.79 2304.14L2355.55 2265.31L2390.52 2252.93L2411.21 2233.72C2419.47 2228.15 2441.9 2212.68 2465.59 2195.43C2489.25 2171.01 2512.22 2136.05 2520.74 2121.62C2527.5 2112.39 2542.9 2083.67 2550.46 2042.61C2558.01 2001.55 2540.4 1963.68 2530.64 1949.88C2526.83 1947.07 2519.7 1936.87 2521.65 1918.49C2510.11 1901.63 2522.25 1860.47 2529.77 1842C2531.51 1839.17 2543.94 1820.25 2579.69 1767.19C2624.39 1700.87 2686.71 1703.89 2736.09 1684.38C2775.6 1668.78 2830.93 1655.29 2853.65 1650.5C2879.82 1598.58 2884.03 1555.73 2876.24 1531.83C2871.31 1516.69 2830.02 1470.04 2823.45 1444.54Z" fill="#543E30"/>
<path d="M2692 1721.67C2682.06 1728.56 2663.97 1737.9 2659.7 1752.74C2642.75 1763.58 2633.91 1785.41 2631.62 1794.96C2642.14 1808.98 2664.34 1838.96 2701.71 1904.77C2739.09 1970.58 2736.09 2009.74 2729.92 2021.1C2723.58 2031.53 2732.96 2082.6 2720.06 2088.92C2724.18 2115.9 2678.56 2165.14 2655.24 2186.39C2650.2 2194.24 2606.03 2207.71 2583 2213.89C2554.23 2221.63 2542.31 2256.51 2511.05 2316.55L2468.38 2433.41L2468.55 2409.71C2467.21 2401.54 2463.8 2379.15 2460.81 2354.94C2462.67 2326.33 2472.02 2291.64 2476.46 2277.87C2478.5 2268.31 2488.32 2241.8 2511.26 2212.2C2534.2 2182.59 2570.48 2169.41 2585.75 2166.51C2589.98 2166.97 2601.22 2164.79 2612.37 2152.36C2630.8 2148.61 2650.98 2116.32 2658.76 2100.64C2659.59 2097.9 2664.65 2079.12 2678.3 2025.95C2695.35 1959.49 2654.98 1925.58 2637.7 1885.23C2623.87 1852.95 2598.89 1812.9 2588.13 1796.91C2606.91 1749.94 2633.1 1721.16 2653.95 1710.92C2667.16 1704.44 2723.9 1699.43 2745.07 1687.51L2692 1721.67Z" fill="#543E30"/>
<path d="M131.703 1704.51L125.884 1769.58C125.237 1782.1 121.16 1802.68 131.703 1816.33C129.78 1837.07 143.515 1859.13 150.623 1867.57C170.715 1869.14 213.465 1872.71 299.416 1889.43C385.367 1906.14 418.958 1935.73 425.01 1948.43C430.097 1960.62 483.135 1988.86 479.917 2003.3C507.359 2018.87 520.464 2088.63 523.586 2121.57C527.236 2130.96 508.76 2174.7 498.375 2196.93C485.395 2224.7 508.874 2258.25 541.813 2324.36C590.781 2361.85 639.574 2402.51 670.283 2422.27C681.558 2433.2 752.959 2460.9 871.029 2485.83C924.755 2516.37 977.237 2575.95 996.762 2601.92C1003.85 2615.47 994.946 2666.65 996.762 2685.51C992.929 2706.98 1001.58 2725.62 1006.38 2732.26C1008.66 2745.45 1028.28 2771.04 1088.47 2767.8C1069.91 2774.21 1028.82 2782.42 1012.91 2764C997.001 2745.58 984.692 2728.68 980.526 2722.52C978.619 2713.26 975.651 2693.5 979.031 2688.62C982.411 2683.74 976.457 2667.23 973.058 2659.59L963.012 2637.39C961.572 2626 947.041 2593.08 900.429 2552.52C853.818 2511.97 817.109 2509.12 804.581 2512.77L724.813 2479.11L652.96 2447.88L618.555 2438.89L597.086 2422.27C588.716 2417.62 565.944 2404.69 541.813 2390.17C517.051 2368.82 491.957 2337.4 482.506 2324.36C475.224 2316.12 457.91 2290.03 446.905 2251.58C435.901 2213.13 449.135 2175.72 457.127 2161.82C460.492 2158.85 466.329 2148.58 462.765 2131.25C472.171 2114.3 456.797 2076.13 447.934 2059.16C446.013 2056.61 432.436 2039.6 393.503 1991.98C344.837 1932.46 285.85 1940.28 237.071 1925.65C198.049 1913.95 144.185 1905.52 122.131 1902.76C92.417 1855.47 84.4267 1815.06 89.6155 1791.71C92.9021 1776.92 127.83 1729.27 131.703 1704.51Z" fill="#543E30"/>
<path d="M303.884 1863.28C316.164 1869.55 337.941 1877.44 345.389 1893.33C366.173 1903.03 379.959 1926.05 384.254 1936.35C375.146 1953.35 355.996 1989.68 326.57 2067.87C297.144 2146.06 307.626 2189.13 316.544 2200.89C325.486 2211.59 324.416 2269.57 339.878 2274.81C340.244 2305.33 399.843 2353.73 429.597 2374.11C436.62 2382.14 488.08 2391.02 514.746 2394.72C548.08 2399.36 567.673 2436.44 613.32 2498.8L677.497 2596.38C677.482 2587.13 677.175 2561.8 676.063 2534.51C668.778 2503.01 652.064 2465.78 644.618 2451.11C640.606 2440.78 624.868 2412.7 594.015 2382.99C563.162 2353.27 520.513 2343.62 503.044 2342.5C498.437 2343.6 485.562 2342.72 470.927 2330.45C449.802 2328.82 421.518 2295.74 410.016 2279.4C408.597 2276.47 399.547 2256.33 374.694 2199.18C343.629 2127.75 382.213 2084.55 394.008 2037.38C403.444 1999.65 423.832 1951.76 432.846 1932.53C403.431 1882.97 369.121 1854.62 344.122 1846.12C328.288 1840.74 264.428 1842.97 238.771 1832.65L303.884 1863.28Z" fill="#543E30"/>
<path d="M844.574 2394.85C847.641 2406.89 857.04 2409.23 861.356 2408.89L865.248 2395.27C861.196 2394.05 853.014 2390.6 852.701 2386.55C852.387 2382.5 842.366 2375.14 837.394 2371.97L835.352 2371.49L829.482 2370.09L812.665 2370.23L803.978 2365.93L796.011 2362.81L789.264 2357.17L785.827 2357.79L778.486 2359.11L754.892 2363.35L732.829 2346.67C728.049 2344.06 717.57 2336.16 713.899 2325.51C709.31 2312.2 684.379 2287.2 673.684 2271.44C665.129 2258.84 643.073 2232.32 633.115 2220.64C624.903 2215.01 611.844 2206.55 600.106 2200.03C599.095 2199.47 598.094 2198.92 597.107 2198.39C587.65 2193.32 579.453 2189.83 575.979 2190.6C567.93 2192.4 554.639 2188.94 549 2186.98C537.219 2185.52 508.51 2184.43 487.917 2191.84C486.7 2192.28 485.478 2192.74 484.254 2193.22C464.766 2200.84 444.772 2213.36 436.819 2218.96L422.474 2218.51L427.901 2231.93C426.716 2252.74 430.48 2300.45 455.014 2324.77C479.547 2349.08 505.096 2359.75 514.804 2362.05C523.709 2363.78 544.908 2368.52 558.464 2373.7C572.02 2378.89 606.91 2381.86 622.661 2382.7C635.797 2383.43 663.191 2385.4 667.682 2387.5C672.173 2389.6 707.258 2389.72 724.239 2389.52L776.553 2367.26L788.781 2365.06L797.604 2372.44C807.482 2369.8 822.192 2377.21 828.312 2381.25C832.455 2380.77 841.507 2382.81 844.574 2394.85Z" fill="#B59460"/>
<path d="M487.917 2191.84C508.51 2184.43 537.219 2185.52 549 2186.98C554.639 2188.94 567.93 2192.4 575.979 2190.6C579.453 2189.83 587.65 2193.32 597.107 2198.39L604.383 2193.26L576.183 2161.47L561.879 2140.72C547.6 2147.59 514.914 2159.12 498.397 2150.28C510.667 2156.52 544.877 2145.12 560.448 2138.65L526.508 2089.42L578.732 2158.86L593.846 2175.57C600.409 2155.61 612.566 2112.45 610.073 2095.58C610.002 2095.15 609.926 2094.72 609.844 2094.3C609.931 2094.71 610.007 2095.14 610.073 2095.58C613.721 2118.01 602.525 2159.88 596.35 2178.34L609.564 2192.94L618.214 2200.18C630.284 2180.67 651.922 2137.08 641.913 2118.76C654.402 2138.92 632.701 2182.59 620.29 2201.91L645.721 2223.19L657.575 2237.76C663.591 2223.54 674.887 2192.86 675.257 2176.61C675.246 2175.46 675.21 2174.33 675.148 2173.2C675.251 2174.25 675.284 2175.39 675.257 2176.61C675.48 2200.5 664.874 2228.43 659.288 2239.86L690.804 2270.99C693.517 2259.44 698.77 2234.7 698.081 2228.2C699.789 2233.66 695.115 2260.16 692.564 2272.73L717.317 2300.48L739.699 2321.34L766.066 2339.72C755.38 2329.38 745.68 2318.8 745.913 2314.99C746.299 2308.68 730.6 2276.52 722.702 2261.23C716.981 2242.43 703.439 2201.84 695.044 2189.84C686.648 2177.85 677.784 2150.05 674.401 2137.64C671.305 2127.95 657.16 2102.03 625.35 2075.89C593.539 2049.76 568.098 2042.01 559.354 2041.41C550.602 2038.14 527.761 2032.92 506.411 2038.27C494.498 2037.07 486.773 2032.41 484.399 2030.22L484.969 2050.53C478.504 2058.74 465.389 2079.21 464.642 2095.4C463.709 2115.64 480.591 2194.59 484.254 2193.22C485.478 2192.74 486.7 2192.28 487.917 2191.84Z" fill="#CAA672"/>
<path d="M633.115 2220.64C643.073 2232.32 665.129 2258.84 673.684 2271.44C684.379 2287.2 709.31 2312.2 713.899 2325.51L735.998 2339.26L778.486 2359.11L785.827 2357.79C780.496 2353.18 773.069 2346.5 766.066 2339.72L736.83 2324.26L714.736 2303.12L689.599 2275.76L656.58 2242.63L642.853 2226.12L606.695 2195.87L600.106 2200.03C611.844 2206.55 624.903 2215.01 633.115 2220.64Z" fill="#CAA672"/>
<path d="M766.066 2339.72L739.699 2321.34L717.317 2300.48L692.564 2272.73L690.804 2270.99L659.288 2239.86L657.575 2237.76L645.721 2223.19L620.29 2201.91L618.214 2200.18L609.564 2192.94L596.35 2178.34L593.846 2175.57L578.732 2158.86L526.508 2089.42L560.448 2138.65L561.879 2140.72L576.183 2161.47L604.383 2193.26L606.695 2195.87L642.853 2226.12L656.58 2242.63L689.599 2275.76L714.736 2303.12L736.83 2324.26L766.066 2339.72Z" fill="#715D58"/>
<path d="M796.491 2032.55C794.237 2032.79 788.083 2041.99 785.287 2046.56L801.654 2058.77L806.411 2089.59C810.451 2088.46 824.618 2079.99 848.965 2055.13C828.567 2081.17 812.318 2090.39 806.744 2091.75L807.268 2095.14L812.495 2138.02C824.577 2130.45 852.166 2110.03 868.682 2087.36C869.218 2086.61 869.752 2085.86 870.286 2085.1C869.764 2085.85 869.229 2086.61 868.682 2087.36C846.317 2118.48 822.216 2135.58 812.774 2140.31L817.161 2184.36C831.475 2177.35 862.933 2159.53 874.252 2144.37C859.684 2164.39 830.296 2181.12 817.422 2186.98L817.887 2191.65L821.253 2228.71L821.389 2240.47L821.954 2274.28C831.137 2270.82 849.976 2262.83 855.234 2257.42C855.479 2257.15 855.709 2256.89 855.921 2256.62C855.728 2256.88 855.498 2257.15 855.234 2257.42C848.626 2264.64 830.518 2273.47 822.001 2277.09L822.091 2282.5L831.867 2352.55L833.333 2355.55L838.355 2352.35C839.453 2352.08 842.059 2350.24 843.69 2344.97C843.194 2321.82 861.891 2297.24 871.301 2287.84C875.097 2279.57 882.865 2259.44 883.56 2245.11C886.095 2208.45 917.107 2171.63 915.918 2167.38C911.766 2163.9 910.86 2128.51 909.384 2117.8C907.909 2107.1 911.351 2094.58 911.838 2090.55C912.227 2087.32 904.379 2075.13 900.406 2069.44L883.711 2049.85C877.099 2046 861.116 2036.93 850.08 2031.49C839.19 2018.83 799.309 2032.24 796.491 2032.55Z" fill="#CAA672"/>
<path d="M828.28 2354.28L831.867 2352.55L822.091 2282.5L822.001 2277.09L821.954 2274.28L821.389 2240.47L821.253 2228.71L817.887 2191.65L817.422 2186.98L817.161 2184.36L812.774 2140.31L812.495 2138.02L807.268 2095.14L806.744 2091.75L806.411 2089.59L801.654 2058.77L785.287 2046.56L798.946 2061.54L803.763 2098.72L805.004 2109.99L805.451 2114.05L808.79 2144.37L810.221 2160.37L810.607 2164.7L813.426 2196.21L814.176 2205.73L814.41 2208.7L817.246 2244.7L817.69 2256.91L818.138 2258.67L819.115 2285.54L820.628 2299.42L828.28 2354.28Z" fill="#715D58"/>
<path d="M833.333 2355.55L831.867 2352.55L828.28 2354.28L829.482 2370.09L835.352 2371.49L833.333 2355.55Z" fill="#715D58"/>
<path d="M820.782 2354.23L828.28 2354.28L820.628 2299.42L819.115 2285.54L818.138 2258.67C818.018 2258.64 817.896 2258.6 817.773 2258.56C806.281 2255.16 780.877 2247.05 774.87 2239.45C785.09 2247.52 807.675 2254.45 817.69 2256.91L817.246 2244.7L814.41 2208.7C793.498 2204.89 747.728 2190.93 731.947 2165.65C753.053 2187.81 795.56 2201.6 814.176 2205.73L813.426 2196.21L810.607 2164.7C794.765 2160.63 757.537 2146.52 735.365 2122.62C753.367 2141.11 792.77 2155.49 810.221 2160.37L808.79 2144.37L805.451 2114.05C797.419 2113.36 778.413 2109.51 766.649 2099.67C782.189 2107.71 798.694 2109.9 805.004 2109.99L803.763 2098.72L798.946 2061.54L785.287 2046.56C783.915 2044.43 779.416 2039.64 772.394 2037.55C751.302 2042.7 729.873 2066.52 720.304 2079.83C712.648 2090.48 710.298 2113.3 710.08 2123.38C709.775 2131.51 709.876 2153.29 712.721 2175.32C715.566 2197.36 732.564 2229.52 740.708 2242.84C744.579 2245 753.253 2252.27 756.979 2264.15C760.705 2276.03 770.275 2290.96 774.594 2296.94C782.101 2304.7 797.37 2321.44 798.387 2326.32C799.403 2331.19 813.74 2346.96 820.782 2354.23Z" fill="#CAA672"/>
<path d="M821.954 2274.28L822.001 2277.09C830.518 2273.47 848.626 2264.64 855.234 2257.42C849.976 2262.83 831.137 2270.82 821.954 2274.28Z" fill="#715D58"/>
<path d="M774.87 2239.45C780.877 2247.05 806.281 2255.16 817.773 2258.56L817.69 2256.91C807.675 2254.45 785.09 2247.52 774.87 2239.45Z" fill="#715D58"/>
<path d="M731.947 2165.65C747.728 2190.93 793.498 2204.89 814.41 2208.7L814.176 2205.73C795.56 2201.6 753.053 2187.81 731.947 2165.65Z" fill="#715D58"/>
<path d="M817.422 2186.98C830.296 2181.12 859.684 2164.39 874.252 2144.37C862.933 2159.53 831.475 2177.35 817.161 2184.36L817.422 2186.98Z" fill="#715D58"/>
<path d="M735.365 2122.62C757.537 2146.52 794.765 2160.63 810.607 2164.7L810.221 2160.37C792.77 2155.49 753.367 2141.11 735.365 2122.62Z" fill="#715D58"/>
<path d="M812.495 2138.02L812.774 2140.31C822.216 2135.58 846.317 2118.48 868.682 2087.36C852.166 2110.03 824.577 2130.45 812.495 2138.02Z" fill="#715D58"/>
<path d="M766.649 2099.67C778.413 2109.51 797.419 2113.36 805.451 2114.05L805.004 2109.99C798.694 2109.9 782.189 2107.71 766.649 2099.67Z" fill="#715D58"/>
<path d="M806.744 2091.75C812.318 2090.39 828.567 2081.17 848.965 2055.13C824.618 2079.99 810.451 2088.46 806.411 2089.59L806.744 2091.75Z" fill="#715D58"/>
<path d="M692.564 2272.73C695.115 2260.16 699.789 2233.66 698.081 2228.2C698.77 2234.7 693.517 2259.44 690.804 2270.99L692.564 2272.73Z" fill="#715D58"/>
<path d="M657.575 2237.76L659.288 2239.86C664.874 2228.43 675.48 2200.5 675.257 2176.61C674.887 2192.86 663.591 2223.54 657.575 2237.76Z" fill="#715D58"/>
<path d="M620.29 2201.91C632.701 2182.59 654.402 2138.92 641.913 2118.76C651.922 2137.08 630.284 2180.67 618.214 2200.18L620.29 2201.91Z" fill="#715D58"/>
<path d="M600.106 2200.03L606.695 2195.87L604.383 2193.26L597.107 2198.39C598.094 2198.92 599.095 2199.47 600.106 2200.03Z" fill="#715D58"/>
<path d="M593.846 2175.57L596.35 2178.34C602.525 2159.88 613.721 2118.01 610.073 2095.58C612.566 2112.45 600.409 2155.61 593.846 2175.57Z" fill="#715D58"/>
<path d="M498.397 2150.28C514.914 2159.12 547.6 2147.59 561.879 2140.72L560.448 2138.65C544.877 2145.12 510.667 2156.52 498.397 2150.28Z" fill="#715D58"/>
<path d="M897.805 2468.15C910.951 2470.46 917.081 2463.47 918.502 2459.69L906.623 2450.86C903.772 2453.79 897.036 2459.3 892.904 2457.92C888.773 2456.53 877.427 2462.01 872.271 2464.92L870.961 2466.44L867.195 2470.83L860.499 2485.09L852.712 2490.68L846.397 2496.14L838.076 2499.55L837.289 2502.7L835.61 2509.44L830.212 2531.09L804.758 2542.94C800.228 2545.91 788.163 2551.55 776.144 2550.32C761.121 2548.79 726.277 2559.68 706.357 2562.31C690.421 2564.41 655.241 2572.25 639.643 2575.91C630.741 2580.56 617.077 2588.15 605.859 2595.42C604.893 2596.04 603.945 2596.66 603.02 2597.28C594.157 2603.2 587.38 2608.71 586.733 2611.96C585.233 2619.49 576.411 2629.3 572.187 2633.27C565.948 2642.62 553.208 2666.43 552.157 2686.83C552.095 2688.04 552.052 2689.26 552.028 2690.48C551.646 2710.04 555.888 2732.01 558.193 2741.01L551.913 2752.94L567.384 2753.81C587.479 2763.27 636.169 2779.49 670.172 2768.65C704.176 2757.82 725.112 2740.58 731.33 2733.32C736.656 2726.5 749.965 2710.52 760.597 2701.18C771.23 2691.84 788.354 2663.58 795.588 2650.62C801.644 2639.83 814.733 2617.49 818.633 2614.55C822.532 2611.61 836.913 2582.03 843.616 2567.61L842.882 2514.38L845.674 2503.16L856.556 2498.71C857.969 2489.3 871.274 2479.89 877.749 2476.36C878.957 2472.66 884.659 2465.85 897.805 2468.15Z" fill="#B59460"/>
<path d="M552.157 2686.83C553.208 2666.43 565.948 2642.62 572.187 2633.27C576.411 2629.3 585.233 2619.49 586.733 2611.96C587.38 2608.71 594.157 2603.2 603.02 2597.28L600.909 2589.05L558.016 2599.94L531.696 2603.59C532.682 2618.44 530.792 2650.73 515.337 2661.09C526.49 2653.26 529.135 2619.74 529.064 2603.95L466.612 2612.61L556.479 2596.73L579.134 2590.76C562.073 2577.1 524.35 2549.29 506.67 2544.54C506.211 2544.42 505.758 2544.31 505.309 2544.21C505.748 2544.31 506.202 2544.41 506.67 2544.54C530.323 2550.58 567.158 2577.05 582.889 2589.77L602.696 2584.55L613.365 2580.18C598.99 2562.06 564.696 2526.07 542.52 2527.07C567.521 2524.72 601.874 2560.8 615.925 2579.14L647.29 2566.31L666.511 2562.22C654.903 2551.36 629.17 2529.35 613.253 2522.43C612.117 2521.97 610.98 2521.54 609.844 2521.14C610.919 2521.47 612.058 2521.91 613.253 2522.43C636.961 2531.95 660.262 2552.26 669.29 2561.63L712.87 2547.67C702.55 2540.68 680.235 2526.19 673.534 2524.13C679.62 2524.9 703.916 2539.62 715.304 2546.89L752.796 2537.26L782.506 2526.84L811.4 2512.04C796.83 2516.86 782.43 2520.76 778.758 2519.01C772.68 2516.12 734.513 2516.31 716.189 2516.76C695.283 2513.95 649.652 2508.88 634.382 2511.1C619.112 2513.31 588.028 2509.5 574.394 2507.31C563.553 2505.99 532.18 2507.39 493.416 2523.63C454.652 2539.88 436.657 2558.21 432.506 2565.35C425.711 2571.41 411.274 2588.58 407.884 2608.79C401.852 2618.36 394.1 2622.99 390.977 2624.1L411.285 2631.88C416.772 2640.68 431.672 2660.07 447.372 2667.28C466.997 2676.3 551.9 2694.14 552.028 2690.48C552.052 2689.26 552.095 2688.04 552.157 2686.83Z" fill="#CAA672"/>
<path d="M639.643 2575.91C655.241 2572.25 690.421 2564.41 706.357 2562.31C726.277 2559.68 761.121 2548.79 776.144 2550.32L798.717 2537.25L835.61 2509.44L837.289 2502.7C830.568 2505.33 820.948 2508.89 811.4 2512.04L784.236 2530.45L754.353 2540.51L717.092 2550.62L670.923 2565.04L649.02 2569.92L604.426 2588.16L605.859 2595.42C617.077 2588.15 630.741 2580.56 639.643 2575.91Z" fill="#CAA672"/>
<path d="M811.4 2512.04L782.506 2526.84L752.796 2537.26L715.304 2546.89L712.87 2547.67L669.29 2561.63L666.511 2562.22L647.29 2566.31L615.925 2579.14L613.365 2580.18L602.696 2584.55L582.889 2589.77L579.134 2590.76L556.479 2596.73L466.612 2612.61L529.064 2603.95L531.696 2603.59L558.016 2599.94L600.909 2589.05L604.426 2588.16L649.02 2569.92L670.923 2565.04L717.092 2550.62L754.353 2540.51L784.236 2530.45L811.4 2512.04Z" fill="#715D58"/>
<path d="M520.141 2361.48C519.467 2363.49 526.059 2372.42 529.44 2376.64L548.162 2367.78L580.559 2376.29C581.087 2372.42 578.474 2357.02 563.79 2326.35C581.237 2354.16 583.748 2371.63 582.823 2376.89L586.396 2377.83L630.9 2390.84C628.328 2377.56 619.361 2345.96 603.663 2322.8C603.145 2322.04 602.617 2321.28 602.082 2320.52C602.616 2321.27 603.144 2322.03 603.663 2322.8C625.33 2354.33 632.44 2381.64 633.273 2391.54L678.601 2405.74C677.487 2390.8 672.663 2356.99 662.278 2341.27C676.147 2361.71 680.74 2393.33 681.302 2406.59L686.105 2408.09L724.106 2420.31L735.779 2424.98L769.433 2438.24C769.743 2429.08 769.509 2409.93 766.294 2403.29C766.129 2402.97 765.96 2402.67 765.786 2402.38C765.963 2402.65 766.132 2402.95 766.294 2403.29C770.74 2411.8 772.11 2430.68 772.233 2439.35L777.611 2441.47L850.824 2461.69L854.388 2461.67L853.265 2456.13C853.45 2455.09 852.683 2452.14 848.141 2448.62C825.057 2439.63 808.359 2413.85 802.895 2402.08C796.264 2395.51 779.528 2380.77 765.637 2374.36C730.432 2357.31 706.645 2316.16 701.961 2315.43C696.84 2317.53 661.486 2303.91 650.303 2300.8C639.12 2297.69 628.148 2289.7 624.36 2287.65C621.329 2286.01 606.09 2287.68 598.849 2288.72L572.699 2294.86C566.202 2298.88 550.743 2308.69 540.878 2315.8C523.936 2319.85 520.983 2358.98 520.141 2361.48Z" fill="#CAA672"/>
<path d="M851.081 2465.42L850.824 2461.69L777.611 2441.47L772.233 2439.35L769.433 2438.24L735.779 2424.98L724.106 2420.31L686.105 2408.09L681.302 2406.59L678.601 2405.74L633.273 2391.54L630.9 2390.84L586.396 2377.83L582.823 2376.89L580.559 2376.29L548.162 2367.78L529.44 2376.64L549.796 2371.2L588.51 2382.24L600.152 2385.78L604.344 2387.05L635.676 2396.55L652.071 2401.85L656.501 2403.28L688.796 2413.71L698.51 2416.95L701.546 2417.96L738.278 2430.19L750.53 2434.78L752.451 2435.12L779.406 2445.22L793.743 2449.58L851.081 2465.42Z" fill="#715D58"/>
<path d="M854.388 2461.67L850.824 2461.69L851.081 2465.42L867.195 2470.83L870.961 2466.44L854.388 2461.67Z" fill="#715D58"/>
<path d="M847.978 2471.73L851.081 2465.42L793.743 2449.58L779.406 2445.22L752.451 2435.12C752.368 2435.21 752.282 2435.3 752.196 2435.39C744.157 2443.71 725.818 2461.86 715.862 2463.85C727.998 2458.5 744.031 2442.24 750.53 2434.78L738.278 2430.19L701.546 2417.96C689.271 2434.07 656.871 2467.05 625.469 2470.1C655.947 2461.28 686.863 2430.99 698.51 2416.95L688.796 2413.71L656.501 2403.28C646.041 2415.01 616.961 2440.71 584.329 2449.72C609.916 2442.03 640.151 2414.6 652.071 2401.85L635.676 2396.55L604.344 2387.05C600.394 2393.55 588.866 2408.04 574.357 2413.97C588.622 2404.12 597.498 2391.07 600.152 2385.78L588.51 2382.24L549.796 2371.2L529.44 2376.64C526.772 2376.93 520.209 2378.79 515.294 2383.87C511.812 2403.78 526.642 2431.55 535.908 2445.05C543.321 2455.84 564.923 2467.1 574.798 2471.38C582.713 2474.95 604.277 2483.71 627.215 2490.27C650.153 2496.82 688.849 2495.54 705.33 2494.08C709.032 2491.68 719.749 2487.32 733.006 2489C746.263 2490.68 764.912 2488.67 772.58 2487.45C783.302 2484.27 806.055 2478.18 811.287 2479.3C816.52 2480.42 837.928 2474.72 847.978 2471.73Z" fill="#CAA672"/>
<path d="M769.433 2438.24L772.233 2439.35C772.11 2430.68 770.74 2411.8 766.294 2403.29C769.509 2409.93 769.743 2429.08 769.433 2438.24Z" fill="#715D58"/>
<path d="M715.862 2463.85C725.818 2461.86 744.157 2443.71 752.196 2435.39L750.53 2434.78C744.031 2442.24 727.998 2458.5 715.862 2463.85Z" fill="#715D58"/>
<path d="M625.469 2470.1C656.871 2467.05 689.271 2434.07 701.546 2417.96L698.51 2416.95C686.863 2430.99 655.947 2461.28 625.469 2470.1Z" fill="#715D58"/>
<path d="M681.302 2406.59C680.74 2393.33 676.147 2361.71 662.278 2341.27C672.663 2356.99 677.487 2390.8 678.601 2405.74L681.302 2406.59Z" fill="#715D58"/>
<path d="M584.329 2449.72C616.961 2440.71 646.041 2415.01 656.501 2403.28L652.071 2401.85C640.151 2414.6 609.916 2442.03 584.329 2449.72Z" fill="#715D58"/>
<path d="M630.9 2390.84L633.273 2391.54C632.44 2381.64 625.33 2354.33 603.663 2322.8C619.361 2345.96 628.328 2377.56 630.9 2390.84Z" fill="#715D58"/>
<path d="M574.357 2413.97C588.866 2408.04 600.394 2393.55 604.344 2387.05L600.152 2385.78C597.498 2391.07 588.622 2404.12 574.357 2413.97Z" fill="#715D58"/>
<path d="M582.823 2376.89C583.748 2371.63 581.237 2354.16 563.79 2326.35C578.474 2357.02 581.087 2372.42 580.559 2376.29L582.823 2376.89Z" fill="#715D58"/>
<path d="M715.304 2546.89C703.916 2539.62 679.62 2524.9 673.534 2524.13C680.235 2526.19 702.55 2540.68 712.87 2547.67L715.304 2546.89Z" fill="#715D58"/>
<path d="M666.511 2562.22L669.29 2561.63C660.262 2552.26 636.961 2531.95 613.253 2522.43C629.17 2529.35 654.903 2551.36 666.511 2562.22Z" fill="#715D58"/>
<path d="M615.925 2579.14C601.874 2560.8 567.521 2524.72 542.52 2527.07C564.696 2526.07 598.99 2562.06 613.365 2580.18L615.925 2579.14Z" fill="#715D58"/>
<path d="M605.859 2595.42L604.426 2588.16L600.909 2589.05L603.02 2597.28C603.945 2596.66 604.893 2596.04 605.859 2595.42Z" fill="#715D58"/>
<path d="M579.134 2590.76L582.889 2589.77C567.158 2577.05 530.323 2550.58 506.67 2544.54C524.35 2549.29 562.073 2577.1 579.134 2590.76Z" fill="#715D58"/>
<path d="M515.337 2661.09C530.792 2650.73 532.682 2618.44 531.696 2603.59L529.064 2603.95C529.135 2619.74 526.49 2653.26 515.337 2661.09Z" fill="#715D58"/>
<path d="M2140.96 2338.58C2137.89 2350.62 2128.5 2352.95 2124.18 2352.62L2120.29 2339C2124.34 2337.78 2132.52 2334.33 2132.84 2330.28C2133.15 2326.23 2143.17 2318.87 2148.14 2315.7L2150.18 2315.21L2156.05 2313.82L2172.87 2313.96L2181.56 2309.65L2189.53 2306.54L2196.27 2300.9L2199.71 2301.52L2207.05 2302.84L2230.64 2307.08L2252.71 2290.4C2257.49 2287.78 2267.97 2279.89 2271.64 2269.24C2276.23 2255.93 2301.16 2230.93 2311.85 2215.17C2320.41 2202.57 2342.46 2176.05 2352.42 2164.36C2360.63 2158.73 2373.69 2150.28 2385.43 2143.76C2386.44 2143.2 2387.44 2142.65 2388.43 2142.12C2397.89 2137.04 2406.08 2133.56 2409.56 2134.33C2417.61 2136.13 2430.9 2132.67 2436.54 2130.71C2448.32 2129.24 2477.03 2128.16 2497.62 2135.57C2498.84 2136.01 2500.06 2136.46 2501.28 2136.94C2520.77 2144.57 2540.76 2157.09 2548.72 2162.69L2563.06 2162.23L2557.64 2175.66C2558.82 2196.47 2555.06 2244.18 2530.52 2268.49C2505.99 2292.81 2480.44 2303.48 2470.73 2305.78C2461.83 2307.5 2440.63 2312.25 2427.07 2317.43C2413.52 2322.61 2378.63 2325.59 2362.88 2326.43C2349.74 2327.16 2322.35 2329.13 2317.85 2331.23C2313.36 2333.33 2278.28 2333.45 2261.3 2333.25L2208.98 2310.99L2196.75 2308.78L2187.93 2316.16C2178.05 2313.53 2163.34 2320.94 2157.22 2324.98C2153.08 2324.5 2144.03 2326.54 2140.96 2338.58Z" fill="#B59460"/>
<path d="M2497.62 2135.57C2477.03 2128.16 2448.32 2129.24 2436.54 2130.71C2430.9 2132.67 2417.61 2136.13 2409.56 2134.33C2406.08 2133.56 2397.89 2137.04 2388.43 2142.12L2381.15 2136.99L2409.35 2105.2L2423.66 2084.45C2437.94 2091.32 2470.62 2102.85 2487.14 2094.01C2474.87 2100.25 2440.66 2088.85 2425.09 2082.38L2459.03 2033.15L2406.8 2102.59L2391.69 2119.3C2385.13 2099.34 2372.97 2056.17 2375.46 2039.31C2375.53 2038.88 2375.61 2038.45 2375.69 2038.03C2375.61 2038.44 2375.53 2038.87 2375.46 2039.31C2371.82 2061.74 2383.01 2103.61 2389.19 2122.07L2375.97 2136.67L2367.32 2143.91C2355.25 2124.4 2333.61 2080.81 2343.62 2062.49C2331.13 2082.64 2352.83 2126.32 2365.25 2145.64L2339.81 2166.92L2327.96 2181.49C2321.95 2167.27 2310.65 2136.59 2310.28 2120.33C2310.29 2119.19 2310.33 2118.05 2310.39 2116.93C2310.29 2117.97 2310.25 2119.11 2310.28 2120.33C2310.06 2144.23 2320.66 2172.16 2326.25 2183.59L2294.73 2214.72C2292.02 2203.17 2286.77 2178.43 2287.46 2171.93C2285.75 2177.39 2290.42 2203.89 2292.97 2216.46L2268.22 2244.21L2245.84 2265.06L2219.47 2283.45C2230.16 2273.11 2239.86 2262.53 2239.62 2258.72C2239.24 2252.41 2254.94 2220.25 2262.83 2204.96C2268.56 2186.16 2282.1 2145.57 2290.49 2133.57C2298.89 2121.58 2307.75 2093.77 2311.14 2081.37C2314.23 2071.68 2328.38 2045.76 2360.19 2019.62C2392 1993.49 2417.44 1985.74 2426.18 1985.14C2434.93 1981.86 2457.77 1976.65 2479.12 1982C2491.04 1980.8 2498.76 1976.13 2501.14 1973.95L2500.57 1994.26C2507.03 2002.47 2520.15 2022.94 2520.89 2039.13C2521.83 2059.37 2504.94 2138.32 2501.28 2136.94C2500.06 2136.46 2498.84 2136.01 2497.62 2135.57Z" fill="#CAA672"/>
<path d="M2352.42 2164.36C2342.46 2176.05 2320.41 2202.57 2311.85 2215.17C2301.16 2230.93 2276.23 2255.93 2271.64 2269.24L2249.54 2282.99L2207.05 2302.84L2199.71 2301.52C2205.04 2296.91 2212.47 2290.23 2219.47 2283.45L2248.71 2267.99L2270.8 2246.85L2295.94 2219.49L2328.96 2186.36L2342.68 2169.85L2378.84 2139.6L2385.43 2143.76C2373.69 2150.28 2360.63 2158.73 2352.42 2164.36Z" fill="#CAA672"/>
<path d="M2219.47 2283.45L2245.84 2265.06L2268.22 2244.21L2292.97 2216.46L2294.73 2214.72L2326.25 2183.59L2327.96 2181.49L2339.81 2166.92L2365.25 2145.64L2367.32 2143.91L2375.97 2136.67L2389.19 2122.07L2391.69 2119.3L2406.8 2102.59L2459.03 2033.15L2425.09 2082.38L2423.66 2084.45L2409.35 2105.2L2381.15 2136.99L2378.84 2139.6L2342.68 2169.85L2328.96 2186.36L2295.94 2219.49L2270.8 2246.85L2248.71 2267.99L2219.47 2283.45Z" fill="#715D58"/>
<path d="M2189.05 1976.28C2191.3 1976.52 2197.45 1985.72 2200.25 1990.29L2183.88 2002.5L2179.12 2033.32C2175.08 2032.19 2160.92 2023.72 2136.57 1998.85C2156.97 2024.89 2173.22 2034.12 2178.79 2035.47L2178.27 2038.87L2173.04 2081.75C2160.96 2074.18 2133.37 2053.76 2116.85 2031.09C2116.32 2030.34 2115.78 2029.59 2115.25 2028.83C2115.77 2029.58 2116.31 2030.33 2116.85 2031.09C2139.22 2062.2 2163.32 2079.31 2172.76 2084.03L2168.38 2128.09C2154.06 2121.07 2122.6 2103.26 2111.28 2088.09C2125.85 2108.12 2155.24 2124.85 2168.11 2130.71L2167.65 2135.38L2164.28 2172.44L2164.15 2184.2L2163.58 2218.01C2154.4 2214.55 2135.56 2206.56 2130.3 2201.15C2130.06 2200.88 2129.83 2200.61 2129.61 2200.35C2129.81 2200.61 2130.04 2200.88 2130.3 2201.15C2136.91 2208.36 2155.02 2217.2 2163.54 2220.82L2163.44 2226.23L2153.67 2296.28L2152.2 2299.28L2147.18 2296.08C2146.08 2295.81 2143.48 2293.97 2141.85 2288.7C2142.34 2265.55 2123.65 2240.97 2114.24 2231.57C2110.44 2223.3 2102.67 2203.17 2101.98 2188.83C2099.44 2152.17 2068.43 2115.36 2069.62 2111.11C2073.77 2107.63 2074.68 2072.24 2076.15 2061.53C2077.63 2050.82 2074.19 2038.31 2073.7 2034.28C2073.31 2031.05 2081.16 2018.86 2085.13 2013.17L2101.83 1993.58C2108.44 1989.73 2124.42 1980.66 2135.46 1975.22C2146.35 1962.55 2186.23 1975.97 2189.05 1976.28Z" fill="#CAA672"/>
<path d="M2157.26 2298.01L2153.67 2296.28L2163.44 2226.23L2163.54 2220.82L2163.58 2218.01L2164.15 2184.2L2164.28 2172.44L2167.65 2135.38L2168.11 2130.71L2168.38 2128.09L2172.76 2084.03L2173.04 2081.75L2178.27 2038.87L2178.79 2035.47L2179.12 2033.32L2183.88 2002.5L2200.25 1990.29L2186.59 2005.27L2181.77 2042.45L2180.53 2053.72L2180.09 2057.78L2176.75 2088.1L2175.32 2104.1L2174.93 2108.42L2172.11 2139.94L2171.36 2149.46L2171.13 2152.43L2168.29 2188.43L2167.85 2200.64L2167.4 2202.4L2166.42 2229.27L2164.91 2243.15L2157.26 2298.01Z" fill="#715D58"/>
<path d="M2152.2 2299.28L2153.67 2296.28L2157.26 2298.01L2156.05 2313.82L2150.18 2315.21L2152.2 2299.28Z" fill="#715D58"/>
<path d="M2164.75 2297.96L2157.26 2298.01L2164.91 2243.15L2166.42 2229.27L2167.4 2202.4C2167.52 2202.36 2167.64 2202.33 2167.76 2202.29C2179.25 2198.88 2204.66 2190.78 2210.67 2183.18C2200.45 2191.25 2177.86 2198.18 2167.85 2200.64L2168.29 2188.43L2171.13 2152.43C2192.04 2148.61 2237.81 2134.66 2253.59 2109.38C2232.48 2131.53 2189.98 2145.33 2171.36 2149.46L2172.11 2139.94L2174.93 2108.42C2190.77 2104.36 2228 2090.25 2250.17 2066.35C2232.17 2084.83 2192.77 2099.22 2175.32 2104.1L2176.75 2088.1L2180.09 2057.78C2188.12 2057.09 2207.12 2053.24 2218.89 2043.4C2203.35 2051.44 2186.84 2053.63 2180.53 2053.72L2181.77 2042.45L2186.59 2005.27L2200.25 1990.29C2201.62 1988.16 2206.12 1983.37 2213.14 1981.28C2234.23 1986.43 2255.66 2010.25 2265.23 2023.56C2272.89 2034.21 2275.24 2057.03 2275.46 2067.11C2275.76 2075.24 2275.66 2097.02 2272.81 2119.05C2269.97 2141.09 2252.97 2173.25 2244.83 2186.57C2240.96 2188.72 2232.28 2196 2228.56 2207.88C2224.83 2219.76 2215.26 2234.69 2210.94 2240.67C2203.43 2248.43 2188.17 2265.17 2187.15 2270.05C2186.13 2274.92 2171.8 2290.68 2164.75 2297.96Z" fill="#CAA672"/>
<path d="M2163.58 2218.01L2163.54 2220.82C2155.02 2217.2 2136.91 2208.36 2130.3 2201.15C2135.56 2206.56 2154.4 2214.55 2163.58 2218.01Z" fill="#715D58"/>
<path d="M2210.67 2183.18C2204.66 2190.78 2179.25 2198.88 2167.76 2202.29L2167.85 2200.64C2177.86 2198.18 2200.45 2191.25 2210.67 2183.18Z" fill="#715D58"/>
<path d="M2253.59 2109.38C2237.81 2134.66 2192.04 2148.61 2171.13 2152.43L2171.36 2149.46C2189.98 2145.33 2232.48 2131.53 2253.59 2109.38Z" fill="#715D58"/>
<path d="M2168.11 2130.71C2155.24 2124.85 2125.85 2108.12 2111.28 2088.09C2122.6 2103.26 2154.06 2121.07 2168.38 2128.09L2168.11 2130.71Z" fill="#715D58"/>
<path d="M2250.17 2066.35C2228 2090.25 2190.77 2104.36 2174.93 2108.42L2175.32 2104.1C2192.77 2099.22 2232.17 2084.83 2250.17 2066.35Z" fill="#715D58"/>
<path d="M2173.04 2081.75L2172.76 2084.03C2163.32 2079.31 2139.22 2062.2 2116.85 2031.09C2133.37 2053.76 2160.96 2074.18 2173.04 2081.75Z" fill="#715D58"/>
<path d="M2218.89 2043.4C2207.12 2053.24 2188.12 2057.09 2180.09 2057.78L2180.53 2053.72C2186.84 2053.63 2203.35 2051.44 2218.89 2043.4Z" fill="#715D58"/>
<path d="M2178.79 2035.47C2173.22 2034.12 2156.97 2024.89 2136.57 1998.85C2160.92 2023.72 2175.08 2032.19 2179.12 2033.32L2178.79 2035.47Z" fill="#715D58"/>
<path d="M2292.97 2216.46C2290.42 2203.89 2285.75 2177.39 2287.46 2171.93C2286.77 2178.43 2292.02 2203.17 2294.73 2214.72L2292.97 2216.46Z" fill="#715D58"/>
<path d="M2327.96 2181.49L2326.25 2183.59C2320.66 2172.16 2310.06 2144.23 2310.28 2120.33C2310.65 2136.59 2321.95 2167.27 2327.96 2181.49Z" fill="#715D58"/>
<path d="M2365.25 2145.64C2352.83 2126.32 2331.13 2082.64 2343.62 2062.49C2333.61 2080.81 2355.25 2124.4 2367.32 2143.91L2365.25 2145.64Z" fill="#715D58"/>
<path d="M2385.43 2143.76L2378.84 2139.6L2381.15 2136.99L2388.43 2142.12C2387.44 2142.65 2386.44 2143.2 2385.43 2143.76Z" fill="#715D58"/>
<path d="M2391.69 2119.3L2389.19 2122.07C2383.01 2103.61 2371.82 2061.74 2375.46 2039.31C2372.97 2056.17 2385.13 2099.34 2391.69 2119.3Z" fill="#715D58"/>
<path d="M2487.14 2094.01C2470.62 2102.85 2437.94 2091.32 2423.66 2084.45L2425.09 2082.38C2440.66 2088.85 2474.87 2100.25 2487.14 2094.01Z" fill="#715D58"/>
<path d="M2162.34 2515.09C2151.85 2522.77 2142.92 2519.2 2139.76 2516.46L2145.86 2503.55C2149.86 2504.92 2158.59 2506.92 2161.55 2503.92C2164.52 2500.93 2177.32 2500.92 2183.35 2501.29L2185.27 2502.08L2190.81 2504.36L2203.9 2514.12L2213.6 2515.74L2221.93 2517.87L2231.01 2517.33L2233.29 2519.78L2238.16 2525.03L2253.79 2541.91L2282.29 2541.51C2287.8 2542.2 2301.32 2542.03 2311.35 2535.79C2323.89 2527.99 2360.23 2522.72 2379.2 2516.52C2394.37 2511.55 2429.48 2503.43 2445.14 2500C2455.36 2500.3 2471.27 2501.17 2484.85 2502.8C2486.02 2502.94 2487.17 2503.09 2488.3 2503.24C2499.13 2504.69 2507.89 2506.67 2510.1 2509.27C2515.2 2515.3 2527.94 2520.22 2533.67 2521.92C2543.89 2527.54 2567.11 2543.18 2578.27 2560.8C2578.93 2561.85 2579.58 2562.91 2580.22 2563.99C2590.36 2581.15 2597.62 2602.44 2600.09 2611.4L2611.63 2619.28L2598.36 2626.68C2585.3 2643.67 2550.29 2678.9 2514.72 2683.86C2479.16 2688.83 2451.96 2682.52 2442.81 2678.75C2434.67 2674.99 2414.87 2666.53 2400.76 2662.81C2386.66 2659.09 2357.32 2641.38 2344.41 2633C2333.63 2626.02 2310.83 2611.84 2305.9 2610.91C2300.97 2609.97 2273.4 2589.92 2260.23 2580.01L2234.19 2532.53L2226.09 2523.78L2214.22 2524.5C2208.25 2516.77 2191.74 2514.13 2184.23 2513.77C2181.31 2511.02 2172.84 2507.42 2162.34 2515.09Z" fill="#B59460"/>
<path d="M2578.27 2560.8C2567.11 2543.18 2543.89 2527.54 2533.67 2521.92C2527.94 2520.22 2515.2 2515.3 2510.1 2509.27C2507.89 2506.67 2499.13 2504.69 2488.3 2503.24L2486.05 2495.04L2529.52 2486.32L2554.67 2478.28C2561.24 2491.86 2579.11 2519.66 2597.99 2522.22C2584.19 2520.06 2565.03 2491.49 2557.18 2477.47L2616.86 2458.39L2529.27 2482.82L2506.2 2487.23C2514.47 2467.82 2533.95 2427.01 2547.24 2415.23C2547.59 2414.93 2547.93 2414.64 2548.28 2414.36C2547.94 2414.63 2547.59 2414.92 2547.24 2415.23C2529.31 2430.71 2509.94 2469.95 2502.38 2487.96L2482.21 2491.82L2470.56 2492.52C2474.22 2470.3 2486.56 2423.72 2506.71 2415.11C2483.38 2423.73 2471.03 2470.42 2467.77 2492.69L2433.54 2494.76L2414.46 2499.37C2419.3 2484.77 2431.07 2454.24 2441.71 2441.29C2442.48 2440.4 2443.27 2439.53 2444.08 2438.69C2443.3 2439.45 2442.5 2440.32 2441.71 2441.29C2425.47 2459.89 2415.01 2487.87 2411.7 2500.03L2366.09 2506.33C2371.73 2495.72 2384.24 2473.32 2389.14 2468.62C2384.14 2471.92 2369.99 2495.37 2363.54 2506.68L2325.49 2514.22L2293.94 2517.71L2260.92 2516.97C2276.24 2515 2290.96 2512.28 2293.33 2509.16C2297.27 2504 2331.19 2487.81 2347.65 2480.37C2364.77 2468.92 2402.66 2444.89 2417.3 2440.31C2431.94 2435.73 2457.58 2419.03 2468.56 2411.25C2477.5 2405.43 2506.01 2393.24 2548.5 2391.03C2591 2388.81 2616.13 2397.36 2623.39 2401.9C2632.45 2404.36 2653.85 2413.39 2666.99 2429.85C2677.13 2435.74 2686.32 2436.52 2689.65 2436.18L2675.55 2451.77C2675.1 2461.91 2671.62 2485.48 2661.33 2498.6C2648.46 2514.99 2582.16 2567.17 2580.22 2563.99C2579.58 2562.91 2578.93 2561.85 2578.27 2560.8Z" fill="#CAA672"/>
<path d="M2445.14 2500C2429.48 2503.43 2394.37 2511.55 2379.2 2516.52C2360.23 2522.72 2323.89 2527.99 2311.35 2535.79L2284.79 2533.88L2238.16 2525.03L2233.29 2519.78C2240.56 2519.23 2250.87 2518.26 2260.92 2516.97L2294.22 2521.65L2325.74 2517.76L2363.83 2510.76L2411.97 2503.76L2433.82 2498.7L2482.48 2495.76L2484.85 2502.8C2471.27 2501.17 2455.36 2500.3 2445.14 2500Z" fill="#CAA672"/>
<path d="M2260.92 2516.97L2293.94 2517.71L2325.49 2514.22L2363.54 2506.68L2366.09 2506.33L2411.7 2500.03L2414.46 2499.37L2433.54 2494.76L2467.77 2492.69L2470.56 2492.52L2482.21 2491.82L2502.38 2487.96L2506.2 2487.23L2529.27 2482.82L2616.86 2458.39L2557.18 2477.47L2554.67 2478.28L2529.52 2486.32L2486.05 2495.04L2482.48 2495.76L2433.82 2498.7L2411.97 2503.76L2363.83 2510.76L2325.74 2517.76L2294.22 2521.65L2260.92 2516.97Z" fill="#715D58"/>
<path d="M2443.52 2258.79C2445.12 2260.28 2443.76 2271.02 2442.88 2276.21L2421.85 2276.38L2397.41 2297.8C2395 2294.59 2389.59 2279.82 2387.23 2246.35C2385.71 2278.47 2392.24 2295.03 2395.7 2299.29L2393.01 2301.65L2360.1 2332.25C2355.71 2319.38 2347.82 2287.54 2350.11 2260.29C2350.19 2259.4 2350.28 2258.5 2350.38 2257.6C2350.28 2258.49 2350.19 2259.39 2350.11 2260.29C2346.73 2297.52 2354.12 2324.76 2358.34 2333.88L2325.29 2365.89C2318.79 2352.17 2306.11 2320.14 2307.43 2301.76C2305.39 2325.82 2317.18 2355.81 2323.32 2367.79L2319.82 2371.18L2292.28 2398.29L2284.27 2407.43L2261.1 2433.6C2256.23 2425.61 2246.84 2408.54 2246.36 2401.28C2246.34 2400.93 2246.34 2400.59 2246.35 2400.26C2246.33 2400.57 2246.33 2400.91 2246.36 2401.28C2246.69 2410.73 2254.94 2428.04 2259.18 2435.78L2255.47 2439.96L2200.73 2489.24L2197.57 2490.75L2195.78 2485.36C2195.1 2484.52 2194.3 2481.58 2196.56 2476.51C2212.51 2458.66 2214.38 2428.66 2213.32 2415.89C2215.9 2407.23 2223.34 2387 2232.44 2375.36C2255.09 2345.18 2255.53 2298.52 2259.32 2295.87C2264.91 2295.53 2289.4 2268.32 2297.76 2260.77C2306.11 2253.23 2311.82 2241.45 2314.15 2238.01C2316.01 2235.26 2330.36 2230.21 2337.3 2228.03L2363.54 2222.27C2371.32 2223.04 2389.93 2225.12 2402.24 2227.19C2419.28 2223.52 2441.52 2256.93 2443.52 2258.79Z" fill="#CAA672"/>
<path d="M2202.38 2492.66L2200.73 2489.24L2255.47 2439.96L2259.18 2435.78L2261.1 2433.6L2284.27 2407.43L2292.28 2398.29L2319.82 2371.18L2323.32 2367.79L2325.29 2365.89L2358.34 2333.88L2360.1 2332.25L2393.01 2301.65L2395.7 2299.29L2397.41 2297.8L2421.85 2276.38L2442.88 2276.21L2422.11 2280.1L2393.35 2306.47L2384.8 2314.59L2381.72 2317.51L2358.73 2339.36L2346.85 2351.07L2343.64 2354.24L2320.26 2377.32L2313.27 2384.35L2311.09 2386.54L2284.67 2413.12L2276.12 2422.44L2274.59 2423.56L2255.76 2444.05L2245.25 2454.06L2202.38 2492.66Z" fill="#715D58"/>
<path d="M2197.57 2490.75L2200.73 2489.24L2202.38 2492.66L2190.81 2504.36L2185.27 2502.08L2197.57 2490.75Z" fill="#715D58"/>
<path d="M2208.29 2496.92L2202.38 2492.66L2245.25 2454.06L2255.76 2444.05L2274.59 2423.56C2274.7 2423.6 2274.82 2423.64 2274.94 2423.68C2286.24 2427.61 2311.59 2435.85 2321.41 2433.34C2307.98 2433.8 2285.62 2426.26 2276.12 2422.44L2284.67 2413.12L2311.09 2386.54C2330.04 2395.56 2375.29 2410.9 2404.64 2400.16C2373.22 2405.4 2330.63 2391.8 2313.27 2384.35L2320.26 2377.32L2343.64 2354.24C2358.79 2360.15 2397.45 2370.47 2430.88 2364.48C2404.35 2368.62 2363.81 2357.27 2346.85 2351.07L2358.73 2339.36L2381.72 2317.51C2388.48 2321.58 2405.96 2329.48 2421.79 2328.53C2404.21 2325.9 2389.81 2318.14 2384.8 2314.59L2393.35 2306.47L2422.11 2280.1L2442.88 2276.21C2445.39 2275.32 2452.14 2274.15 2459.04 2276.55C2472.11 2292.7 2472.89 2323.67 2471.45 2339.59C2470.29 2352.33 2456.79 2371.56 2450.19 2379.59C2444.96 2386.14 2430.25 2403.14 2413.21 2418.78C2396.17 2434.41 2361.24 2449.85 2345.9 2455.62C2341.42 2455.08 2329.73 2455.8 2318.83 2462.97C2307.93 2470.14 2290.39 2476.35 2282.99 2478.55C2271.89 2480.32 2248.67 2484.67 2244.6 2487.91C2240.53 2491.15 2218.7 2495.27 2208.29 2496.92Z" fill="#CAA672"/>
<path d="M2261.1 2433.6L2259.18 2435.78C2254.94 2428.04 2246.69 2410.73 2246.36 2401.28C2246.84 2408.54 2256.23 2425.61 2261.1 2433.6Z" fill="#715D58"/>
<path d="M2321.41 2433.34C2311.59 2435.85 2286.24 2427.61 2274.94 2423.68L2276.12 2422.44C2285.62 2426.26 2307.98 2433.8 2321.41 2433.34Z" fill="#715D58"/>
<path d="M2404.64 2400.16C2375.29 2410.9 2330.04 2395.56 2311.09 2386.54L2313.27 2384.35C2330.63 2391.8 2373.22 2405.4 2404.64 2400.16Z" fill="#715D58"/>
<path d="M2323.32 2367.79C2317.18 2355.81 2305.39 2325.82 2307.43 2301.76C2306.11 2320.14 2318.79 2352.17 2325.29 2365.89L2323.32 2367.79Z" fill="#715D58"/>
<path d="M2430.88 2364.48C2397.45 2370.47 2358.79 2360.15 2343.64 2354.24L2346.85 2351.07C2363.81 2357.27 2404.35 2368.62 2430.88 2364.48Z" fill="#715D58"/>
<path d="M2360.1 2332.25L2358.34 2333.88C2354.12 2324.76 2346.73 2297.52 2350.11 2260.29C2347.82 2287.54 2355.71 2319.38 2360.1 2332.25Z" fill="#715D58"/>
<path d="M2421.79 2328.53C2405.96 2329.48 2388.48 2321.58 2381.72 2317.51L2384.8 2314.59C2389.81 2318.14 2404.21 2325.9 2421.79 2328.53Z" fill="#715D58"/>
<path d="M2395.7 2299.29C2392.24 2295.03 2385.71 2278.47 2387.23 2246.35C2389.59 2279.82 2395 2294.59 2397.41 2297.8L2395.7 2299.29Z" fill="#715D58"/>
<path d="M2363.54 2506.68C2369.99 2495.37 2384.14 2471.92 2389.14 2468.62C2384.24 2473.32 2371.73 2495.72 2366.09 2506.33L2363.54 2506.68Z" fill="#715D58"/>
<path d="M2414.46 2499.37L2411.7 2500.03C2415.01 2487.87 2425.47 2459.89 2441.71 2441.29C2431.07 2454.24 2419.3 2484.77 2414.46 2499.37Z" fill="#715D58"/>
<path d="M2467.77 2492.69C2471.03 2470.42 2483.38 2423.73 2506.71 2415.11C2486.56 2423.72 2474.22 2470.3 2470.56 2492.52L2467.77 2492.69Z" fill="#715D58"/>
<path d="M2484.85 2502.8L2482.48 2495.76L2486.05 2495.04L2488.3 2503.24C2487.17 2503.09 2486.02 2502.94 2484.85 2502.8Z" fill="#715D58"/>
<path d="M2506.2 2487.23L2502.38 2487.96C2509.94 2469.95 2529.31 2430.71 2547.24 2415.23C2533.95 2427.01 2514.47 2467.82 2506.2 2487.23Z" fill="#715D58"/>
<path d="M2597.99 2522.22C2579.11 2519.66 2561.24 2491.86 2554.67 2478.28L2557.18 2477.47C2565.03 2491.49 2584.19 2520.06 2597.99 2522.22Z" fill="#715D58"/>
<path d="M1951.92 2488.02L1994.66 2467.67C1994.01 2466.97 1993.37 2466.31 1992.76 2465.69C1991.81 2464.71 1990.92 2463.84 1990.15 2463.11C1979.09 2468.93 1956.49 2480.54 1954.51 2480.35C1952.53 2480.16 1924.89 2497.11 1911.32 2505.61C1893.35 2516.84 1855.49 2541 1847.81 2547.9C1839.27 2552.96 1838.12 2557.7 1838.62 2559.44C1840.42 2559.74 1843.93 2559.76 1843.61 2557.42C1843.29 2555.09 1873.84 2535.19 1889.16 2525.53L1917.83 2507.15L1951.92 2488.02Z" fill="#514842"/>
<path d="M1843.61 2557.42C1843.93 2559.76 1840.42 2559.74 1838.62 2559.44L1764.76 2572.87L1773.86 2581.52L1823.14 2570.07L1874.85 2561.78L1884.44 2567.94L1902.36 2573.99L1929.04 2581.62L1951.02 2587.73L1990.27 2598.43L2023.7 2606.14L2049.73 2612.72L2055.13 2612.79L2056.53 2609.89L2055.64 2609.05L2054.75 2608.2L2024.68 2601.16L1990.8 2593.02L1952.89 2583.17L1932.03 2577.7L1906.7 2570.09L1888.55 2564.24L1883.22 2559.18L1898.77 2558.75L1937.33 2555.7L1957.16 2555.12L1984.02 2551.51L2057.32 2545.57L2113.69 2541.29L2180.62 2539.02L2177.96 2536.49L2178.9 2534L2113.99 2536.51L2056.05 2540.56L1982.53 2546.29L1958.14 2550.14L1939.45 2550.11L1901.11 2552.95L1843.61 2557.42Z" fill="#514842"/>
<path d="M2057.87 2595.96C2063.19 2601.36 2061.63 2605.31 2060.18 2606.61L2067.64 2605.24L2090.15 2592L2104.48 2582.81L2106.92 2585.13L2094.58 2596.22L2070.52 2607.99L2107.26 2606.17L2156.52 2610.75L2240.7 2614.32L2240.43 2617.02L2154.18 2616.13L2112.15 2610.81L2081.72 2611.88L2072.04 2611.96L2080.29 2617.27L2106.24 2628.43L2128.29 2643.91L2149.29 2655L2172.19 2659.87L2174.63 2662.19L2149.7 2657.5L2130.27 2647.06L2106.19 2631.76L2079.77 2621.43L2071.28 2617.16L2065.47 2614.17L2074.32 2624.27L2072.23 2628.2L2068.51 2621.29C2060.12 2625.14 2046.31 2635.16 2058.24 2644.47C2070.16 2653.78 2112.18 2675.21 2131.7 2684.76C2136.56 2685.86 2149.72 2687.69 2163.44 2686.2C2191.13 2689.55 2230.84 2677.62 2247.23 2671.24L2319.22 2648L2387.25 2619.31L2427.83 2602.54L2384.04 2608.65L2285.57 2582.62C2281.38 2581.77 2276.37 2580.74 2270.85 2579.61C2246.26 2574.56 2211.53 2567.36 2194.06 2563.47C2191.98 2563.01 2190.14 2562.59 2188.59 2562.23C2172.64 2556.87 2139.41 2553.07 2124.79 2551.84C2111.34 2552.57 2082.9 2554.52 2076.74 2556.44C2071.16 2555.87 2056.98 2567.22 2050.58 2572.97L2049.71 2585.24C2050.21 2586.56 2052.55 2590.56 2057.87 2595.96Z" fill="#B59E7F"/>
<path d="M2056.53 2609.89L2055.13 2612.79L2068.51 2621.29L2072.23 2628.2L2074.32 2624.27L2065.47 2614.17L2071.28 2617.16L2079.77 2621.43L2106.19 2631.76L2130.27 2647.06L2149.7 2657.5L2174.63 2662.19L2172.19 2659.87L2149.29 2655L2128.29 2643.91L2106.24 2628.43L2080.29 2617.27L2072.04 2611.96L2081.72 2611.88L2112.15 2610.81L2154.18 2616.13L2240.43 2617.02L2240.7 2614.32L2156.52 2610.75L2107.26 2606.17L2070.52 2607.99L2094.58 2596.22L2106.92 2585.13L2104.48 2582.81L2090.15 2592L2067.64 2605.24L2060.18 2606.61L2055.64 2609.05L2056.53 2609.89Z" fill="#A89076"/>
<path d="M2178.9 2534L2177.96 2536.49L2180.62 2539.02L2189.06 2547.04L2194.06 2563.47C2211.53 2567.36 2246.26 2574.56 2270.85 2579.61L2287.12 2570.15L2318.76 2563.47L2362.92 2548.01L2387.85 2538.33L2411.1 2535.09L2364.45 2522.42L2337.05 2517.49C2332.58 2515.07 2321.8 2510.51 2314.39 2511.58C2306.99 2512.65 2295.15 2508.49 2290.15 2506.27C2285.85 2503.03 2274.26 2496.91 2262.35 2498.43C2252.15 2493.8 2237.26 2494.15 2231.1 2494.9L2207.46 2508.34L2185.96 2529.31L2178.9 2534Z" fill="#B59E7F"/>
<path d="M2075.88 2439.42C2074.15 2436.09 2059.18 2437.55 2043.75 2440.14C2041.95 2443.21 2040.08 2450.17 2047.06 2453.42C2054.03 2456.68 2073.25 2447.06 2081.99 2441.85C2078.87 2441.59 2076.62 2440.85 2075.88 2439.42Z" fill="#A89076"/>
<path d="M2074.85 2433.79C2065.75 2428.18 2035.61 2436.34 2021.67 2441.12L2018.03 2445.26C2024.87 2443.68 2034.4 2441.7 2043.75 2440.14C2059.18 2437.55 2074.15 2436.09 2075.88 2439.42C2076.62 2440.85 2078.87 2441.59 2081.99 2441.85C2090.6 2442.58 2105.85 2439.7 2114.43 2437.63C2124.03 2433.51 2144.55 2427.14 2149.84 2434.54C2155.13 2441.93 2179.99 2427.01 2191.76 2418.62L2189.09 2416.09C2178.39 2423.52 2154.85 2436.93 2146.29 2431.16C2137.73 2425.39 2119.11 2430.81 2110.88 2434.25C2102.66 2436.43 2083.95 2439.4 2074.85 2433.79Z" fill="#A89076"/>
<path d="M2008.45 2488.11L2102.86 2476.75C2108.17 2481 2121.61 2490.35 2132.91 2493.65C2144.21 2496.96 2120.83 2483.85 2107.73 2476.89L2139.57 2471.67C2139.82 2469.94 2139.52 2466.3 2136.28 2465.59C2133.05 2464.88 2110.29 2470.48 2099.31 2473.37L2007.21 2484.4C2007.83 2485.74 2008.27 2486.99 2008.45 2488.11Z" fill="#A89076"/>
<path d="M1964.18 2438.42C1972.59 2442.69 1984.99 2456.66 1990.15 2463.11L1981.55 2422.82L1986.04 2423.71L1992.76 2465.69C1993.37 2466.31 1994.01 2466.97 1994.66 2467.67L2062.95 2388.67L2065.61 2391.2L2021.67 2441.12C2035.61 2436.34 2065.75 2428.18 2074.85 2433.79C2083.95 2439.4 2102.66 2436.43 2110.88 2434.25C2119.11 2430.81 2137.73 2425.39 2146.29 2431.16C2154.85 2436.93 2178.39 2423.52 2189.09 2416.09L2191.76 2418.62C2179.99 2427.01 2155.13 2441.93 2149.84 2434.54C2144.55 2427.14 2124.03 2433.51 2114.43 2437.63C2105.85 2439.7 2090.6 2442.58 2081.99 2441.85C2073.25 2447.06 2054.03 2456.68 2047.06 2453.42C2040.08 2450.17 2041.95 2443.21 2043.75 2440.14C2034.4 2441.7 2024.87 2443.68 2018.03 2445.26L1996.52 2469.69C2000.66 2474.28 2005.06 2479.82 2007.21 2484.4L2099.31 2473.37C2110.29 2470.48 2133.05 2464.88 2136.28 2465.59C2139.52 2466.3 2139.82 2469.94 2139.57 2471.67L2107.73 2476.89C2120.83 2483.85 2144.21 2496.96 2132.91 2493.65C2121.61 2490.35 2108.17 2481 2102.86 2476.75L2008.45 2488.11C2009.6 2495.29 2018.91 2505.39 2023.43 2509.54C2029.74 2513.71 2044.29 2523.05 2051.98 2526.98C2061.59 2531.89 2088.64 2530.15 2102.82 2530.95C2114.16 2531.6 2135.97 2528.39 2145.46 2526.71C2152.84 2520.07 2170.21 2505.54 2180.56 2500.51C2201.04 2492.94 2220.45 2479.57 2227.6 2473.83C2230.71 2471.86 2238.06 2467.39 2242.6 2465.28C2248.39 2464.02 2262.53 2449.02 2268.87 2441.67L2272.84 2433.19C2279.18 2430.77 2292.56 2425.32 2295.3 2422.86C2309.86 2413.72 2316.95 2401.76 2318.68 2396.92L2322.48 2384.48L2334.82 2373.39L2354.09 2365.1L2367.12 2353.4L2349.21 2360.46L2293.44 2369.12C2284.87 2370.12 2265.93 2371.52 2258.76 2369.1C2251.47 2362.51 2240.07 2368.37 2235.28 2372.13L2207.37 2370.94C2200.28 2368.42 2184.65 2363.78 2178.86 2365.37C2173.07 2366.96 2167.72 2367.03 2165.77 2366.87C2161.21 2365.49 2149.9 2364.71 2141.13 2372.59C2128.65 2375.6 2101.38 2374.79 2089.3 2374.02C2074.3 2373.55 2041.31 2372.66 2029.41 2372.84C2017.52 2373.02 1996.67 2392.13 1987.74 2401.66L1990.11 2408.15L1979.6 2417.59L1971.17 2409.57C1965.34 2417.41 1955.78 2434.15 1964.18 2438.42Z" fill="#B59E7F"/>
<path d="M1981.55 2422.82L1990.15 2463.11C1990.92 2463.84 1991.81 2464.71 1992.76 2465.69L1986.04 2423.71L1981.55 2422.82Z" fill="#A89076"/>
<path d="M2062.95 2388.67L1994.66 2467.67C1995.27 2468.32 1995.89 2468.99 1996.52 2469.69L2018.03 2445.26L2021.67 2441.12L2065.61 2391.2L2062.95 2388.67Z" fill="#A89076"/>
<path d="M2187.5 2517.25L2185.96 2529.31L2207.46 2508.34C2207.17 2507.37 2205.98 2505.24 2203.47 2504.55C2200.95 2503.85 2191.77 2512.72 2187.5 2517.25Z" fill="#A4896E"/>
<path d="M1838.16 2387.65L1851.15 2344.85C1850.16 2344.82 1849.2 2344.8 1848.29 2344.79C1846.87 2344.78 1845.58 2344.78 1844.47 2344.81C1841.56 2356.26 1835.36 2379.46 1833.86 2380.67C1832.36 2381.87 1826.97 2412.13 1824.46 2427.11C1821.11 2446.91 1814.47 2489 1814.71 2498.89C1812.89 2508.12 1815.87 2512.12 1817.59 2512.97C1819.05 2511.96 1821.46 2509.59 1819.39 2508.22C1817.32 2506.85 1822.36 2472.61 1825.14 2455.67L1830.11 2423.75L1838.16 2387.65Z" fill="#514842"/>
<path d="M1819.39 2508.22C1821.46 2509.59 1819.05 2511.96 1817.59 2512.97L1777.92 2572.11L1790.97 2571.84L1815.47 2530.69L1844.11 2490.04L1855.52 2487.75L1872.53 2479.74L1896.74 2466.88L1916.54 2456.16L1951.75 2436.88L1980.63 2419.5L2003.57 2406.37L2007.3 2402.76L2005.96 2399.84L2004.68 2399.87L2003.41 2399.89L1977.35 2415.45L1947.83 2432.84L1914.21 2451.79L1895.67 2462.18L1872.39 2474.15L1855.39 2482.45L1847.76 2482.6L1858.01 2471.79L1881.85 2443.61L1894.9 2429.8L1910.33 2409.15L1955.54 2355.5L1990.54 2314.43L2034.33 2267.58L2030.51 2267.66L2029.18 2265.33L1986.96 2310.97L1950.7 2352.95L1905.17 2406.61L1891.62 2425.74L1878.86 2438.37L1855.01 2466.25L1819.39 2508.22Z" fill="#514842"/>
<path d="M1995.84 2389.44C2003.74 2389.52 2005.8 2393.26 2005.84 2395.13L2009.84 2389.16L2014.68 2364.9L2017.16 2348.94L2020.66 2348.87L2021.04 2364.77L2013.98 2389.07L2037.56 2362.96L2074.73 2332.74L2134.89 2278.2L2136.85 2280.22L2077.4 2337.99L2044.56 2362.82L2024.69 2384.14L2018.16 2390.75L2027.98 2388.79L2054.5 2378.82L2081.78 2374.43L2104.86 2367.77L2124.32 2355.59L2127.82 2355.52L2107.13 2369.2L2085.62 2375.24L2057.1 2381.12L2030.93 2391.97L2021.76 2394.8L2015.44 2396.7L2029.47 2397.59L2031.16 2401.68L2023.14 2399.49C2020.48 2407.79 2019.02 2423.96 2034.51 2422.23C2050.01 2420.5 2095.6 2406.65 2116.46 2399.94C2120.64 2397.4 2131.06 2389.75 2139.22 2379.45C2160.73 2362.98 2178.32 2327.98 2184.43 2312.54L2215.05 2247.99L2238.64 2182.4L2253 2143.52L2228.01 2177.32L2140.34 2226.24C2136.81 2228.49 2132.58 2231.19 2127.93 2234.15C2107.18 2247.36 2077.82 2265.96 2062.85 2275.14C2061.06 2276.23 2059.48 2277.19 2058.14 2278C2043.02 2285.14 2017.39 2305.04 2006.46 2314.11C1997.88 2323.71 1980.05 2344.28 1977.38 2349.75C1973.13 2353.14 1972.46 2370.48 1972.65 2378.72L1981.78 2387.67C1983.18 2388.23 1987.94 2389.37 1995.84 2389.44Z" fill="#B59E7F"/>
<path d="M2005.96 2399.84L2007.3 2402.76L2023.14 2399.49L2031.16 2401.68L2029.47 2397.59L2015.44 2396.7L2021.76 2394.8L2030.93 2391.97L2057.1 2381.12L2085.62 2375.24L2107.13 2369.2L2127.82 2355.52L2124.32 2355.59L2104.86 2367.77L2081.78 2374.43L2054.5 2378.82L2027.98 2388.79L2018.16 2390.75L2024.69 2384.14L2044.56 2362.82L2077.4 2337.99L2136.85 2280.22L2134.89 2278.2L2074.73 2332.74L2037.56 2362.96L2013.98 2389.07L2021.04 2364.77L2020.66 2348.87L2017.16 2348.94L2014.68 2364.9L2009.84 2389.16L2005.84 2395.13L2004.68 2399.87L2005.96 2399.84Z" fill="#A89076"/>
<path d="M2029.18 2265.33L2030.51 2267.66L2034.33 2267.58L2046.42 2267.34L2062.85 2275.14C2077.82 2265.96 2107.18 2247.36 2127.93 2234.15L2131.51 2216.7L2147.77 2190.74L2165.59 2150.31L2174.9 2126.85L2188.17 2108.9L2146.36 2131.85L2123.8 2147.04C2118.84 2148.42 2107.88 2152.61 2103.69 2158.35C2099.49 2164.09 2088.13 2169.27 2082.98 2171.14C2077.47 2171.85 2064.74 2175.52 2057.82 2184.62C2047.21 2188.37 2037.35 2198.69 2033.75 2203.37L2028.3 2228.53L2030.26 2257.35L2029.18 2265.33Z" fill="#B59E7F"/>
<path d="M1884.09 2270.65C1880.28 2269.55 1871.23 2280.68 1862.77 2292.88C1863.98 2296.19 1868.22 2302.2 1875.55 2299.69C1882.88 2297.18 1888.35 2277.63 1890.18 2268.16C1887.84 2270.1 1885.73 2271.11 1884.09 2270.65Z" fill="#A89076"/>
<path d="M1878.92 2267.51C1868.28 2269.85 1854.22 2295.8 1848.52 2308.49L1849.31 2313.77C1852.72 2308.07 1857.64 2300.28 1862.77 2292.88C1871.23 2280.68 1880.28 2269.55 1884.09 2270.65C1885.73 2271.11 1887.84 2270.1 1890.18 2268.16C1896.62 2262.84 1904.72 2250.55 1908.92 2243.33C1912.2 2234.04 1921.13 2215.8 1930.59 2217.26C1940.05 2218.72 1945.16 2191.73 1946.53 2178.05L1942.71 2178.13C1941.3 2190.43 1935.89 2215.5 1925.49 2217.37C1915.09 2219.23 1906.71 2235.52 1903.82 2243.44C1899.96 2250.49 1889.57 2265.17 1878.92 2267.51Z" fill="#A89076"/>
<path d="M1876.74 2349.45L1932.03 2277.81C1939.02 2277.11 1955.58 2274.37 1965.89 2268.98C1976.21 2263.58 1949.9 2270.48 1935.46 2274.61L1953.01 2249.5C1951.81 2248.15 1948.72 2245.88 1945.96 2247.58C1943.2 2249.29 1932.13 2268.51 1926.94 2277.91L1872.95 2347.76C1874.44 2348.25 1875.73 2348.81 1876.74 2349.45Z" fill="#A89076"/>
<path d="M1807.23 2345.56C1816.33 2342.79 1835.85 2343.9 1844.47 2344.81L1806.69 2323.19L1810.46 2320.75L1848.29 2344.79C1849.2 2344.8 1850.16 2344.82 1851.15 2344.85L1835.07 2244.84L1838.89 2244.76L1848.52 2308.49C1854.22 2295.8 1868.28 2269.85 1878.92 2267.51C1889.57 2265.17 1899.96 2250.49 1903.82 2243.44C1906.71 2235.52 1915.09 2219.23 1925.49 2217.37C1935.89 2215.5 1941.3 2190.43 1942.71 2178.13L1946.53 2178.05C1945.16 2191.73 1940.05 2218.72 1930.59 2217.26C1921.13 2215.8 1912.2 2234.04 1908.92 2243.33C1904.72 2250.55 1896.62 2262.84 1890.18 2268.16C1888.35 2277.63 1882.88 2297.18 1875.55 2299.69C1868.22 2302.2 1863.98 2296.19 1862.77 2292.88C1857.64 2300.28 1852.72 2308.07 1849.31 2313.77L1854.02 2344.97C1860.48 2345.3 1867.86 2346.09 1872.95 2347.76L1926.94 2277.91C1932.13 2268.51 1943.2 2249.29 1945.96 2247.58C1948.72 2245.88 1951.81 2248.15 1953.01 2249.5L1935.46 2274.61C1949.9 2270.48 1976.21 2263.58 1965.89 2268.98C1955.58 2274.37 1939.02 2277.11 1932.03 2277.81L1876.74 2349.45C1883.21 2353.56 1897.55 2354.13 1903.91 2353.9C1911.52 2352.47 1928.83 2348.98 1937.17 2346.45C1947.61 2343.29 1964.65 2323.8 1974.95 2314.75C1983.18 2307.51 1995.49 2290.57 2000.62 2283C2000.39 2273.48 2000.7 2251.83 2003.77 2241.4C2011.72 2222.38 2014.35 2200.14 2014.67 2191.39C2015.23 2187.94 2016.69 2179.92 2018.11 2175.41C2021.06 2170.64 2018.8 2150.85 2017.31 2141.55L2013.28 2133.09C2015.69 2127.15 2020.48 2114.39 2020.39 2110.85C2023.07 2094.77 2018.43 2081.83 2015.77 2077.36L2008.5 2066.32L2008.13 2050.42L2014.69 2031.73L2014.28 2014.94L2007.68 2031.87L1976.56 2075.51C1971.52 2082 1959.72 2095.77 1952.92 2098.97C1942.74 2099.42 1939.62 2111.13 1939.34 2116.92L1919.39 2135.01C1912.56 2138.09 1898.24 2145.51 1895.56 2150.52C1892.87 2155.52 1889.29 2159.19 1887.83 2160.4C1883.64 2162.54 1875.31 2169.66 1875.58 2180.97C1869.47 2191.47 1850.26 2209.37 1841.42 2217.02C1830.82 2226.86 1807.65 2248.58 1799.69 2256.75C1791.74 2264.93 1792.68 2292.05 1794.15 2304.59L1800.9 2307.4L1801.23 2320.94L1789.13 2321.19C1791.37 2330.47 1798.12 2348.34 1807.23 2345.56Z" fill="#B59E7F"/>
<path d="M1806.69 2323.19L1844.47 2344.81C1845.58 2344.78 1846.87 2344.78 1848.29 2344.79L1810.46 2320.75L1806.69 2323.19Z" fill="#A89076"/>
<path d="M1835.07 2244.84L1851.15 2344.85C1852.08 2344.88 1853.04 2344.92 1854.02 2344.97L1849.31 2313.77L1848.52 2308.49L1838.89 2244.76L1835.07 2244.84Z" fill="#A89076"/>
<path d="M2021.76 2248.1L2030.26 2257.35L2028.3 2228.53C2027.33 2228.05 2024.83 2227.42 2022.57 2228.64C2020.31 2229.87 2021.09 2242.13 2021.76 2248.1Z" fill="#A4896E"/>
<path d="M1120.15 2493.38L1072.15 2490.71C1072.45 2489.82 1072.74 2488.98 1073.03 2488.18C1073.48 2486.94 1073.91 2485.81 1074.29 2484.85C1086.95 2486.06 1112.7 2488.24 1114.42 2487.33C1116.15 2486.42 1148.84 2491.62 1164.98 2494.33C1186.32 2497.89 1231.51 2505.88 1241.54 2509.32C1251.57 2510.76 1254.69 2514.67 1254.99 2516.45C1253.48 2517.4 1250.27 2518.72 1249.55 2516.47C1248.83 2514.21 1212.18 2507.4 1193.95 2504.28L1159.69 2498.17L1120.15 2493.38Z" fill="#514842"/>
<path d="M1249.55 2516.47C1250.27 2518.72 1253.48 2517.4 1254.99 2516.45L1328.43 2501.18L1323.89 2512.49L1273.8 2520.4L1222.87 2532.11L1216.79 2541.32L1203.04 2553.55L1181.95 2570.48L1164.51 2584.27L1133.28 2608.7L1106.06 2628.23L1085.12 2643.96L1080.2 2646.04L1077.66 2643.91L1078.1 2642.81L1078.55 2641.71L1102.98 2624.04L1130.43 2603.96L1160.81 2580.8L1177.51 2568.01L1197.36 2551.6L1211.41 2539.47L1214.07 2532.85L1199.66 2538.26L1163.05 2549.86L1144.65 2556.73L1118.5 2563.44L1048.85 2585.36L995.403 2602.48L933.176 2625.37L934.506 2622.06L932.56 2620.14L993.038 2598.21L1047.83 2580.3L1117.59 2558.11L1141.58 2552.53L1158.67 2545.53L1194.98 2533.83L1249.55 2516.47Z" fill="#514842"/>
<path d="M1070.35 2631.67C1067.83 2638.59 1070.99 2641.62 1072.88 2642.27L1065.47 2643.81L1039.09 2640.08L1021.96 2637.03L1020.74 2640.06L1036.87 2645.6L1064.03 2647.39L1029.61 2659.43L986.552 2682L911.093 2716.68L912.518 2719.05L991.041 2686.06L1027.17 2665.5L1055.48 2655.13L1064.38 2651.59L1059.15 2659.53L1040.28 2679.42L1026.86 2701.81L1012.49 2719.79L993.67 2732.79L992.45 2735.83L1013.21 2722.24L1026.42 2705.43L1041.78 2682.45L1061.43 2663.14L1067.34 2656.06L1071.35 2651.16L1067.66 2663.71L1071.29 2666.52L1071.67 2658.81C1081.03 2659.2 1098.04 2663.22 1091.2 2676.19C1084.36 2689.16 1055.27 2724.44 1041.58 2740.45C1037.61 2743.28 1026.37 2749.86 1013.17 2753.62C989.296 2767.01 947.756 2770.92 929.97 2771.19L853.959 2776.79L779.193 2775.92L734.744 2775.72L777.475 2764.97L856.198 2704.42C859.657 2702.07 863.793 2699.27 868.35 2696.17C888.644 2682.38 917.272 2662.83 931.558 2652.76C933.263 2651.56 934.764 2650.49 936.022 2649.58C948.273 2638.72 977.018 2622.85 989.859 2616.27C1002.48 2611.92 1029.35 2603.09 1035.82 2602.55C1040.68 2599.94 1058.62 2605.04 1066.98 2607.91L1073.13 2618.81C1073.25 2620.21 1072.86 2624.74 1070.35 2631.67Z" fill="#B59E7F"/>
<path d="M1077.66 2643.91L1080.2 2646.04L1071.67 2658.81L1071.29 2666.52L1067.66 2663.71L1071.35 2651.16L1067.34 2656.06L1061.43 2663.14L1041.78 2682.45L1026.42 2705.43L1013.21 2722.24L992.45 2735.83L993.67 2732.79L1012.49 2719.79L1026.86 2701.81L1040.28 2679.42L1059.15 2659.53L1064.38 2651.59L1055.48 2655.13L1027.17 2665.5L991.041 2686.06L912.518 2719.05L911.093 2716.68L986.552 2682L1029.61 2659.43L1064.03 2647.39L1036.87 2645.6L1020.74 2640.06L1021.96 2637.03L1039.09 2640.08L1065.47 2643.81L1072.88 2642.27L1078.1 2642.81L1077.66 2643.91Z" fill="#A89076"/>
<path d="M932.56 2620.14L934.506 2622.06L933.176 2625.37L928.963 2635.86L931.558 2652.76C917.272 2662.83 888.644 2682.38 868.35 2696.17L849.335 2693.59L817.474 2699.28L770.313 2701.61L743.28 2702.06L720.592 2707.76L757.739 2678.77L780.656 2664.04C783.687 2660.16 791.56 2651.96 798.803 2650.18C806.045 2648.39 815.062 2640.17 818.665 2636.28C821.184 2631.7 829.113 2621.78 840.677 2618.72C847.986 2610.68 861.759 2605.45 867.732 2603.84L895.226 2607.32L924.053 2618.47L932.56 2620.14Z" fill="#B59E7F"/>
<path d="M985.509 2495.17C985.64 2491.48 999.975 2487.23 1015.22 2483.83C1018.21 2485.97 1022.96 2491.64 1017.99 2497.22C1013.03 2502.8 991.252 2501.18 980.982 2499.67C983.72 2498.26 985.453 2496.75 985.509 2495.17Z" fill="#A89076"/>
<path d="M983.998 2489.63C989.874 2481.1 1021.01 2477.32 1035.84 2476.49L1040.99 2478.92C1034.04 2480.03 1024.46 2481.77 1015.22 2483.83C999.975 2487.23 985.64 2491.48 985.509 2495.17C985.453 2496.75 983.72 2498.26 980.982 2499.67C973.426 2503.55 958.215 2506.6 949.46 2507.91C938.882 2507.73 917.323 2509.55 915.714 2518.29C914.104 2527.03 884.842 2522.65 870.412 2519.37L871.743 2516.06C884.779 2518.87 912.178 2522.35 917.488 2513.88C922.797 2505.4 942.197 2503.42 951.234 2503.49C959.707 2502.43 978.122 2498.16 983.998 2489.63Z" fill="#A89076"/>
<path d="M1068.47 2514.56L977.128 2539.38C974.129 2545.26 965.908 2558.82 957.014 2566.06C948.121 2573.31 963.79 2552.59 972.736 2541.33L941.327 2548.43C940.34 2546.94 939.027 2543.5 941.676 2541.65C944.324 2539.79 967.597 2536.42 978.902 2534.97L1067.98 2510.69C1067.99 2512.15 1068.14 2513.46 1068.47 2514.56Z" fill="#A89076"/>
<path d="M1087.27 2452.57C1081.44 2459.62 1076.19 2477.03 1074.29 2484.85L1064.57 2444.78L1060.85 2447.27L1073.03 2488.18C1072.74 2488.98 1072.45 2489.82 1072.15 2490.71L975.183 2443.91L973.852 2447.22L1035.84 2476.49C1021.01 2477.32 989.874 2481.1 983.998 2489.63C978.122 2498.16 959.707 2502.43 951.234 2503.49C942.197 2503.42 922.797 2505.4 917.488 2513.88C912.178 2522.35 884.779 2518.87 871.743 2516.06L870.412 2519.37C884.842 2522.65 914.104 2527.03 915.714 2518.29C917.323 2509.55 938.882 2507.73 949.46 2507.91C958.215 2506.6 973.426 2503.55 980.982 2499.67C991.252 2501.18 1013.03 2502.8 1017.99 2497.22C1022.96 2491.64 1018.21 2485.97 1015.22 2483.83C1024.46 2481.77 1034.04 2480.03 1040.99 2478.92L1071.33 2493.25C1069.55 2498.99 1067.95 2505.71 1067.98 2510.69L978.902 2534.97C967.597 2536.42 944.324 2539.79 941.676 2541.65C939.027 2543.5 940.34 2546.94 941.327 2548.43L972.736 2541.33C963.79 2552.59 948.121 2573.31 957.014 2566.06C965.908 2558.82 974.129 2545.26 977.128 2539.38L1068.47 2514.56C1070.55 2521.55 1066.44 2534.27 1064.12 2539.75C1060.17 2545.92 1050.93 2559.89 1045.61 2566.35C1038.97 2574.43 1013.45 2582.94 1000.84 2588.96C990.74 2593.78 969.388 2598.99 959.973 2600.99C950.316 2597.67 928.085 2590.85 916.419 2590.11C894.376 2590.83 870.775 2585.84 861.729 2583.26C858.023 2582.61 849.342 2581.26 844.27 2581.03C838.427 2582.04 818.937 2573.59 809.923 2569.23L802.592 2562.95C795.731 2563.1 781.114 2563.11 777.53 2561.88C760.218 2558.95 748.504 2550.65 744.812 2546.87L735.901 2536.91L719.773 2531.37L698.517 2530.98L681.492 2525.13L700.956 2524.91L755.761 2512.02C764.043 2509.74 781.983 2503.95 787.484 2499.06C791.271 2490.31 804.262 2491.42 810.283 2493.07L835.3 2481.57C840.689 2476.62 852.966 2466.54 858.959 2465.84C864.952 2465.13 869.875 2463.2 871.587 2462.33C875.156 2459.37 885.162 2454.43 896.631 2458.37C909.362 2456.46 933.96 2445.55 944.668 2440.33C958.195 2434.31 987.988 2421.18 998.951 2416.91C1009.91 2412.64 1037.33 2422.35 1049.66 2427.73L1050.32 2434.55L1064.06 2439.27L1068.28 2428.79C1077.03 2433.78 1093.09 2445.53 1087.27 2452.57Z" fill="#B59E7F"/>
<path d="M1064.57 2444.78L1074.29 2484.85C1073.91 2485.81 1073.48 2486.94 1073.03 2488.18L1060.85 2447.27L1064.57 2444.78Z" fill="#A89076"/>
<path d="M975.183 2443.91L1072.15 2490.71C1071.88 2491.53 1071.6 2492.38 1071.33 2493.25L1040.99 2478.92L1035.84 2476.49L973.852 2447.22L975.183 2443.91Z" fill="#A89076"/>
<path d="M917.378 2608.02L924.053 2618.47L895.226 2607.32C895.061 2606.32 895.229 2603.93 897.222 2602.35C899.215 2600.78 911.49 2605.47 917.378 2608.02Z" fill="#A4896E"/>
<path d="M1131.34 2463.87L1102.42 2428.36C1103.34 2428 1104.23 2427.65 1105.07 2427.34C1106.38 2426.85 1107.59 2426.42 1108.63 2426.07C1115.84 2435.76 1130.74 2455.29 1132.61 2455.92C1134.48 2456.54 1151.4 2482.92 1159.62 2496.03C1170.52 2513.36 1193.25 2550.34 1196.91 2559.63C1202.23 2567.62 1201.03 2572.35 1199.76 2573.72C1198 2573.27 1194.83 2571.87 1196.22 2569.9C1197.61 2567.93 1179.46 2537.72 1170.21 2522.87L1153.03 2494.8L1131.34 2463.87Z" fill="#514842"/>
<path d="M1196.22 2569.9C1194.83 2571.87 1198 2573.27 1199.76 2573.72L1259.96 2615.5L1247.7 2619.63L1208.7 2589.52L1166.04 2561.26L1154.51 2562.96L1135.52 2561.21L1107.9 2557.35L1085.24 2554.02L1044.86 2547.88L1011.13 2541.39L984.597 2536.85L979.698 2534.74L979.803 2531.57L980.999 2531.16L982.195 2530.76L1012.59 2536.5L1046.93 2542.8L1085.7 2549.16L1107.06 2552.62L1133.45 2555.95L1152.54 2557.98L1159.72 2555.56L1145.92 2548.92L1112.63 2530.68L1095.05 2522.19L1072.56 2508.14L1009.35 2473.33L960.597 2446.82L901.394 2417.87L904.983 2416.66L905.306 2414.04L962.577 2442.39L1012.85 2469.33L1076.36 2504.03L1096.51 2517.3L1113.36 2524.79L1146.54 2542.76L1196.22 2569.9Z" fill="#514842"/>
<path d="M985.145 2518.48C977.814 2521.2 977.364 2525.39 978.056 2527.14L971.984 2522.92L957.948 2501.94L949.361 2487.91L946.071 2489.02L951.966 2503.96L968.096 2524.23L935.867 2507.82L889.358 2492.15L811.873 2461.53L810.843 2464.07L888.93 2497.94L929.287 2510.04L956.18 2523.23L964.863 2527.2L954.936 2528.66L926.318 2528.28L899.177 2533.35L875.05 2534.9L852.14 2530.09L848.85 2531.2L873.502 2536.99L895.915 2535.39L924.799 2531.3L953.445 2532.62L963.101 2532.18L969.738 2531.83L957.014 2537.37L957.047 2541.75L963.651 2537.01C969.4 2543.85 977.117 2558.43 961.997 2562.02C946.877 2565.61 898.959 2568.02 876.89 2568.77C871.992 2567.81 859.284 2564.17 847.632 2557.31C821.116 2549.2 790.97 2522.49 779.211 2510.16L725.313 2460.3L677.559 2407.12L648.901 2375.71L685.464 2398.81L786.378 2414.95C790.551 2415.86 795.544 2416.96 801.049 2418.15C825.566 2423.49 860.231 2430.96 877.79 2434.49C879.886 2434.91 881.738 2435.27 883.3 2435.57C900.189 2437.15 931.899 2447.09 945.642 2451.86C957.41 2457.92 982.107 2471.1 986.748 2475.31C992.038 2477.03 999.474 2492.96 1002.53 2500.71L997.541 2512.11C996.463 2513.1 992.475 2515.76 985.145 2518.48Z" fill="#B59E7F"/>
<path d="M979.803 2531.57L979.698 2534.74L963.651 2537.01L957.047 2541.75L957.014 2537.37L969.738 2531.83L963.101 2532.18L953.445 2532.62L924.799 2531.3L895.915 2535.39L873.502 2536.99L848.85 2531.2L852.14 2530.09L875.05 2534.9L899.177 2533.35L926.318 2528.28L954.936 2528.66L964.863 2527.2L956.18 2523.23L929.287 2510.04L888.93 2497.94L810.843 2464.07L811.873 2461.53L889.358 2492.15L935.867 2507.82L968.096 2524.23L951.966 2503.96L946.071 2489.02L949.361 2487.91L957.948 2501.94L971.984 2522.92L978.056 2527.14L980.999 2531.16L979.803 2531.57Z" fill="#A89076"/>
<path d="M905.306 2414.04L904.983 2416.66L901.394 2417.87L890.028 2421.7L877.79 2434.49C860.231 2430.96 825.566 2423.49 801.049 2418.15L790.851 2403.1L765.502 2384.37L733.008 2352.69L715.112 2333.96L695.701 2321.69L743.668 2329.03L770.662 2335.61C775.82 2335.23 787.679 2335.45 793.843 2339.39C800.007 2343.33 812.628 2344.34 818.168 2344.36C823.571 2343.16 836.881 2342.31 846.899 2348.46C858.259 2348.4 871.498 2354.7 876.698 2357.86L891.66 2379.46L901.162 2406.98L905.306 2414.04Z" fill="#B59E7F"/>
<path d="M1042.57 2370.28C1045.69 2367.98 1058.49 2375.31 1071.17 2383.84C1071.35 2387.33 1069.75 2394.35 1061.94 2394.47C1054.13 2394.6 1041.34 2378.22 1035.93 2370.01C1038.86 2371.03 1041.23 2371.27 1042.57 2370.28Z" fill="#A89076"/>
<path d="M1046.15 2365.62C1056.99 2364.23 1080.29 2383.69 1090.59 2393.59L1091.92 2398.79C1086.5 2394.62 1078.86 2389.01 1071.17 2383.84C1058.49 2375.31 1045.69 2367.98 1042.57 2370.28C1041.23 2371.27 1038.86 2371.03 1035.93 2370.01C1027.83 2367.21 1015.45 2358.49 1008.71 2353.17C1001.99 2345.61 986.513 2331.62 978.271 2336.15C970.029 2340.69 954.662 2317.26 948.009 2304.98L951.598 2303.77C957.742 2314.76 972.635 2336.3 983.057 2334.54C993.478 2332.78 1007.69 2345.15 1013.49 2351.56C1019.86 2356.83 1035.32 2367.02 1046.15 2365.62Z" fill="#A89076"/>
<path d="M1080.39 2441.23L1000.72 2393.05C993.934 2394.75 977.431 2397.76 965.7 2396.19C953.968 2394.63 981.191 2392.23 996.269 2391.22L970.05 2373.72C970.637 2372.06 972.623 2368.91 975.866 2369.57C979.11 2370.23 996.976 2384.42 1005.5 2391.43L1083.25 2438.39C1082.06 2439.34 1081.08 2440.29 1080.39 2441.23Z" fill="#A89076"/>
<path d="M1143.63 2414.27C1134.05 2414.74 1116.31 2422.33 1108.63 2426.07L1135.33 2393.24L1130.87 2392.24L1105.07 2427.34C1104.23 2427.65 1103.34 2428 1102.42 2428.36L1078.1 2329.78L1074.51 2330.99L1090.59 2393.59C1080.29 2383.69 1056.99 2364.23 1046.15 2365.62C1035.32 2367.02 1019.86 2356.83 1013.49 2351.56C1007.69 2345.15 993.478 2332.78 983.057 2334.54C972.635 2336.3 957.742 2314.76 951.598 2303.77L948.009 2304.98C954.662 2317.26 970.029 2340.69 978.271 2336.15C986.513 2331.62 1001.99 2345.61 1008.71 2353.17C1015.45 2358.49 1027.83 2367.21 1035.93 2370.01C1041.34 2378.22 1054.13 2394.6 1061.94 2394.47C1069.75 2394.35 1071.35 2387.33 1071.17 2383.84C1078.86 2389.01 1086.5 2394.62 1091.92 2398.79L1099.79 2429.43C1093.91 2431.9 1087.34 2435.13 1083.25 2438.39L1005.5 2391.43C996.976 2384.42 979.11 2370.23 975.866 2369.57C972.623 2368.91 970.637 2372.06 970.05 2373.72L996.269 2391.22C981.191 2392.23 953.968 2394.63 965.7 2396.19C977.431 2397.76 993.934 2394.75 1000.72 2393.05L1080.39 2441.23C1075.98 2447.23 1062.84 2452.58 1056.82 2454.51C1049.17 2455.73 1031.68 2458.28 1022.91 2458.73C1011.94 2459.29 988.398 2446.85 975.252 2441.88C964.736 2437.9 946.606 2426.25 938.856 2420.92C935.326 2411.97 926.528 2391.91 919.575 2383.21C904.692 2368.17 893.497 2348.33 889.76 2340.29C887.888 2337.26 883.371 2330.28 880.276 2326.56C875.658 2323.1 869.982 2303.9 867.721 2294.74L868.145 2285.5C863.568 2280.78 854.089 2270.49 852.779 2267.17C843.969 2253.09 843.204 2239.47 843.923 2234.42L846.354 2221.69L840.459 2206.75L827.002 2191.53L820.779 2175.76L833.582 2189.31L879.729 2219.53C886.98 2223.88 903.38 2232.75 910.975 2233.45C920.634 2230.44 928.14 2240.3 930.686 2245.61L956.378 2255.76C963.95 2256.34 980.211 2258.45 984.677 2262.21C989.143 2265.97 993.924 2268.18 995.757 2268.82C1000.51 2269.41 1011.06 2273.25 1015.25 2283.88C1025.08 2291.6 1050.01 2301.83 1061.25 2305.99C1074.99 2311.6 1105.12 2324.05 1115.74 2329C1126.37 2333.94 1136.15 2359.53 1139.71 2371.7L1134.52 2376.59L1139.54 2389.32L1150.91 2385.48C1152.47 2394.88 1153.2 2413.8 1143.63 2414.27Z" fill="#B59E7F"/>
<path d="M1135.33 2393.24L1108.63 2426.07C1107.59 2426.42 1106.38 2426.85 1105.07 2427.34L1130.87 2392.24L1135.33 2393.24Z" fill="#A89076"/>
<path d="M1078.1 2329.78L1102.42 2428.36C1101.57 2428.7 1100.69 2429.06 1099.79 2429.43L1091.92 2398.79L1090.59 2393.59L1074.51 2330.99L1078.1 2329.78Z" fill="#A89076"/>
<path d="M905.445 2395.5L901.162 2406.98L891.66 2379.46C892.376 2378.69 894.454 2377.26 897.044 2377.64C899.634 2378.02 903.724 2389.71 905.445 2395.5Z" fill="#A4896E"/>
<path d="M1632.71 2785.77C1641.33 2777.28 1642.23 2771.61 1641.61 2769.84C1634.59 2746.33 1608.37 2706.5 1597.13 2690.95C1588.14 2678.51 1551.87 2654.91 1534.86 2644.67C1513.32 2634.94 1466.41 2613.42 1451.05 2605.23C1435.69 2597.03 1424.36 2587.65 1420.61 2583.98L1393.46 2557.81C1389.71 2554.65 1380.35 2547.04 1372.86 2541.88C1365.37 2536.72 1358.5 2534.93 1356 2534.68H1340.08L1332.59 2536.19H1308.71C1306.37 2535.31 1299.91 2533.54 1292.79 2533.54C1277.44 2535.05 1265.79 2544.03 1261.89 2548.33C1250.5 2558.7 1225 2582.24 1214.13 2593.47C1203.27 2604.69 1181.2 2617.62 1171.53 2622.67L1128.92 2645.81C1116.9 2651.5 1089.5 2666.98 1076.01 2683.36C1059.16 2694.89 1043.71 2720.79 1038.09 2732.29L1022.64 2781.6C1036.5 2794.65 1062.12 2801.96 1073.2 2803.98L1164.04 2819.15L1246.91 2826.36H1352.26L1431.85 2823.7L1516.13 2816.12C1551.4 2809.54 1624.1 2794.27 1632.71 2785.77Z" fill="#EBB31F"/>
<path d="M1308.71 2536.19H1332.59C1333.34 2534.07 1325.41 2522.16 1321.35 2516.47C1319.33 2514.83 1314.52 2511.23 1311.52 2510.02C1308.9 2507.29 1300.75 2506.35 1297.01 2506.23L1289.52 2510.02C1288.74 2510.27 1287.27 2511.54 1287.64 2514.57C1288.02 2517.61 1290.3 2519.38 1291.39 2519.88C1294.04 2521.02 1300.19 2524.13 1303.56 2527.47C1306.93 2530.81 1308.4 2534.68 1308.71 2536.19Z" fill="#AF7B20"/>
<path d="M1013.62 2794.5C1010.41 2800.51 1008.07 2807.4 1009.06 2813.46C1009.24 2814.57 1009.85 2815.71 1010.83 2816.88L1031.53 2805.85C1020.01 2800.66 1014.86 2796.46 1013.62 2794.5Z" fill="#483320"/>
<path d="M1172 2860.69C1174.95 2861.07 1177.91 2861.44 1180.89 2861.8C1214.41 2865.89 1249.34 2868.78 1276.87 2868.08C1278.57 2868.04 1280.29 2868 1282.03 2867.96C1268.54 2865.12 1248 2849.9 1239.42 2842.64C1230.44 2841.61 1220.29 2840.41 1209.45 2839.09C1197.75 2843.81 1190.72 2849.7 1151.86 2857.94C1158.43 2858.88 1165.17 2859.81 1172 2860.69Z" fill="#87622D"/>
<path d="M1283.9 2867.91C1328.88 2866.88 1386.15 2866.52 1432.62 2864.77C1419.43 2865.2 1390.44 2850.36 1377.54 2842.85C1364.93 2843.15 1352.16 2843.37 1339.61 2843.54C1330.56 2850.97 1306.75 2866.26 1283.9 2867.91Z" fill="#87622D"/>
<path d="M1443.09 2864.34C1468.89 2863.2 1490.5 2861.55 1503.49 2858.98C1518.44 2858.98 1539.33 2854.65 1560.61 2848.77C1550.12 2850.02 1526.59 2838.47 1516.13 2832.55C1507.56 2833.98 1499.2 2835.11 1491.31 2835.84C1478.67 2844.09 1451.33 2861.35 1443.09 2864.34Z" fill="#87622D"/>
<path d="M1560.61 2848.77C1588.92 2840.96 1617.93 2830.42 1634.59 2823.7C1626.35 2823.7 1610.86 2815.44 1604.15 2811.3C1601.46 2812.11 1598.65 2812.95 1595.72 2813.8C1592.76 2821.42 1581.58 2839.09 1560.61 2848.77Z" fill="#87622D"/>
<path d="M1634.59 2823.7C1640.36 2819.53 1652.47 2808.23 1654.72 2796.39C1655.59 2791.83 1654.62 2787.42 1652.81 2783.5C1650.28 2787.17 1646.99 2790.48 1643.5 2793.36C1644.43 2799.43 1643.95 2813.99 1634.59 2823.7Z" fill="#87622D"/>
<path d="M1641.61 2769.84C1642.23 2771.61 1641.33 2777.28 1632.71 2785.77C1624.1 2794.27 1551.4 2809.54 1516.13 2816.12L1431.85 2823.7L1352.26 2826.36H1246.91L1164.04 2819.15L1073.2 2803.98C1062.12 2801.96 1036.5 2794.65 1022.64 2781.6C1020.12 2784.36 1016.52 2789.07 1013.62 2794.5C1014.86 2796.46 1020.01 2800.66 1031.53 2805.85C1033.78 2806.86 1036.27 2807.91 1039.03 2808.99C1043.93 2810.91 1049.67 2812.93 1056.35 2814.98C1065.91 2817.92 1084.05 2821.37 1105.98 2824.88C1137.37 2829.9 1176.54 2835.07 1209.45 2839.09C1220.29 2840.41 1230.44 2841.61 1239.42 2842.64C1243.06 2843.06 1246.5 2843.45 1249.72 2843.81C1272.53 2843.99 1305.21 2843.99 1339.61 2843.54C1352.16 2843.37 1364.93 2843.15 1377.54 2842.85C1424.54 2841.74 1469.26 2839.63 1491.31 2835.84C1499.2 2835.11 1507.56 2833.98 1516.13 2832.55C1543.45 2827.98 1572.86 2820.45 1595.72 2813.8C1598.65 2812.95 1601.46 2812.11 1604.15 2811.3C1612.34 2808.83 1619.38 2806.57 1624.75 2804.74C1628.88 2803.06 1636.59 2799.06 1643.5 2793.36C1646.99 2790.48 1650.28 2787.17 1652.81 2783.5C1649.92 2777.25 1644.87 2772.25 1641.61 2769.84Z" fill="#483320"/>
<path fill-rule="evenodd" clip-rule="evenodd" d="M1105.98 2824.88L1081.16 2825.22C1077.73 2829.15 1068.43 2837.46 1058.69 2839.27C1067.85 2842.2 1076.67 2844.7 1083.5 2846.46C1097.61 2849.25 1118.61 2852.98 1142.5 2856.57C1138.38 2855.96 1116.44 2835.19 1105.98 2824.88Z" fill="#87622D"/>
<path d="M1056.35 2814.98C1049.67 2812.93 1043.93 2810.91 1039.03 2808.99C1041.37 2817.68 1047.08 2835.42 1051.2 2836.79C1053.7 2837.65 1056.21 2838.47 1058.69 2839.27C1068.43 2837.46 1077.73 2829.15 1081.16 2825.22L1105.98 2824.88C1084.05 2821.37 1065.91 2817.92 1056.35 2814.98Z" fill="#483320"/>
<path d="M1105.98 2824.88C1116.44 2835.19 1138.38 2855.96 1142.5 2856.57C1145.58 2857.03 1148.7 2857.49 1151.86 2857.94C1190.72 2849.7 1197.75 2843.81 1209.45 2839.09C1176.54 2835.07 1137.37 2829.9 1105.98 2824.88Z" fill="#483320"/>
<path d="M1249.72 2843.81C1246.5 2843.45 1243.06 2843.06 1239.42 2842.64C1248 2849.9 1268.54 2865.12 1282.03 2867.96C1282.65 2867.94 1283.27 2867.93 1283.9 2867.91C1306.75 2866.26 1330.56 2850.97 1339.61 2843.54C1305.21 2843.99 1272.53 2843.99 1249.72 2843.81Z" fill="#483320"/>
<path d="M1432.79 2864.76C1436.29 2864.63 1439.72 2864.49 1443.09 2864.34C1451.33 2861.35 1478.67 2844.09 1491.31 2835.84C1469.26 2839.63 1424.54 2841.74 1377.54 2842.85C1390.44 2850.36 1419.43 2865.2 1432.62 2864.77C1432.68 2864.76 1432.73 2864.76 1432.79 2864.76Z" fill="#483320"/>
<path d="M1516.13 2832.55C1526.59 2838.47 1550.12 2850.02 1560.61 2848.77C1581.58 2839.09 1592.76 2821.42 1595.72 2813.8C1572.86 2820.45 1543.45 2827.98 1516.13 2832.55Z" fill="#483320"/>
<path d="M1624.75 2804.74C1619.38 2806.57 1612.34 2808.83 1604.15 2811.3C1610.86 2815.44 1626.35 2823.7 1634.59 2823.7C1643.95 2813.99 1644.43 2799.43 1643.5 2793.36C1636.59 2799.06 1628.88 2803.06 1624.75 2804.74Z" fill="#483320"/>
<path d="M1031.53 2805.85L1010.83 2816.88C1016.35 2823.46 1033.59 2830.78 1051.2 2836.79C1047.08 2835.42 1041.37 2817.68 1039.03 2808.99C1036.27 2807.91 1033.78 2806.86 1031.53 2805.85Z" fill="#87622D"/>
<path d="M1997.17 2837.82C2008.48 2831.76 2011.4 2826.57 2011.45 2824.73C2013.3 2800.6 2002.76 2756.32 1997.69 2738.79C1993.63 2724.77 1967.59 2693.58 1955.08 2679.74C1938.06 2665.31 1901.11 2633.57 1889.43 2622.08C1877.75 2610.59 1870.35 2598.93 1868.11 2594.53L1851.71 2563.06C1849.28 2559.15 1843.11 2549.65 1837.84 2542.94C1832.56 2536.22 1826.66 2532.87 1824.37 2532.03L1809.18 2528.23L1801.48 2527.89L1778.68 2522.19C1776.77 2520.79 1771.25 2517.56 1764.46 2515.86C1749.25 2513.64 1734.87 2519.43 1729.58 2522.6C1714.94 2529.78 1682.04 2546.17 1667.59 2554.3C1653.14 2562.42 1627.38 2569.49 1616.3 2572.01L1567.23 2583.93C1553.69 2586.49 1521.9 2594.73 1503.07 2607.15C1482.79 2614.14 1458.63 2635.17 1449.09 2644.81L1416.41 2688.2C1424.89 2703.97 1446.69 2717.06 1456.53 2721.64L1537.71 2757.8L1614.19 2784.47L1714.73 2809.61L1791.67 2826.08L1874.86 2838.96C1910.92 2841.1 1985.86 2843.87 1997.17 2837.82Z" fill="#831A01"/>
<path d="M1778.68 2522.19L1801.48 2527.89C1802.96 2526.04 1799.73 2512.78 1797.92 2506.38C1796.58 2504.33 1793.3 2499.75 1790.88 2497.88C1789.37 2494.64 1781.94 2491.81 1778.41 2490.79L1769.88 2492.62C1769.04 2492.68 1767.18 2493.54 1766.44 2496.52C1765.69 2499.51 1767.22 2501.74 1768.08 2502.49C1770.2 2504.21 1774.94 2508.64 1776.94 2512.63C1778.95 2516.63 1778.94 2520.67 1778.68 2522.19Z" fill="#590101"/>
<path d="M1403.11 2698.36C1397.86 2703.34 1393.13 2709.35 1391.86 2715.38C1391.63 2716.48 1391.8 2717.71 1392.31 2719.06L1416.08 2713.47C1406.97 2705.77 1403.58 2700.53 1403.11 2698.36Z" fill="#1F1B0E"/>
<path d="M1530.2 2799.36C1532.88 2800.43 1535.58 2801.49 1538.29 2802.55C1568.8 2814.45 1601.08 2825.55 1627.61 2831.45C1629.25 2831.82 1630.9 2832.19 1632.58 2832.56C1620.74 2826.64 1606.67 2807.2 1601.12 2798.22C1592.92 2795.1 1583.67 2791.53 1573.81 2787.68C1560.92 2789.39 1552.08 2793.34 1511.99 2791.93C1517.91 2794.4 1524.01 2796.89 1530.2 2799.36Z" fill="#9A7531"/>
<path d="M1634.38 2832.97C1677.69 2842.72 1732.48 2856.04 1777.47 2865.47C1764.72 2862.73 1742.45 2841.64 1732.87 2831.4C1720.72 2828.67 1708.45 2825.84 1696.42 2823C1685.08 2827.94 1656.79 2836.84 1634.38 2832.97Z" fill="#9A7531"/>
<path d="M1787.62 2867.56C1812.65 2872.63 1833.88 2876.21 1847.21 2876.86C1861.48 2880.43 1882.99 2881.28 1905.44 2880.75C1894.98 2879.43 1876.71 2862.79 1868.89 2854.64C1860.2 2853.96 1851.8 2853.05 1844.01 2851.86C1828.94 2856.72 1796.57 2866.67 1787.62 2867.56Z" fill="#9A7531"/>
<path d="M1905.44 2880.75C1935.3 2880.05 1966.82 2876.91 1985.16 2874.48C1977.3 2872.51 1965.53 2860.92 1960.63 2855.37C1957.76 2855.5 1954.77 2855.63 1951.67 2855.74C1946.07 2862.31 1928.98 2876.51 1905.44 2880.75Z" fill="#9A7531"/>
<path d="M1985.16 2874.48C1992.19 2871.87 2007.86 2863.97 2014.31 2853.21C2016.8 2849.06 2017.48 2844.62 2017.18 2840.44C2013.43 2843.34 2009.09 2845.72 2004.7 2847.63C2003.39 2853.65 1997.63 2867.44 1985.16 2874.48Z" fill="#9A7531"/>
<path d="M2011.45 2824.73C2011.4 2826.57 2008.48 2831.76 1997.17 2837.82C1985.86 2843.87 1910.92 2841.1 1874.86 2838.96L1791.67 2826.08L1714.73 2809.61L1614.19 2784.47L1537.71 2757.8L1456.53 2721.64C1446.69 2717.06 1424.89 2703.97 1416.41 2688.2C1413 2690.23 1407.85 2693.87 1403.11 2698.36C1403.58 2700.53 1406.97 2705.77 1416.08 2713.47C1417.86 2714.97 1419.86 2716.57 1422.09 2718.26C1426.08 2721.27 1430.82 2724.56 1436.45 2728.11C1444.51 2733.21 1460.56 2740.82 1480.22 2749.41C1508.35 2761.7 1543.86 2775.98 1573.81 2787.68C1583.67 2791.53 1592.92 2795.1 1601.12 2798.22C1604.44 2799.49 1607.58 2800.68 1610.52 2801.8C1632.23 2807.42 1663.41 2815.22 1696.42 2823C1708.45 2825.84 1720.72 2828.67 1732.87 2831.4C1778.13 2841.56 1821.58 2850.21 1844.01 2851.86C1851.8 2853.05 1860.2 2853.96 1868.89 2854.64C1896.63 2856.8 1927.43 2856.63 1951.67 2855.74C1954.77 2855.63 1957.76 2855.5 1960.63 2855.37C1969.34 2854.97 1976.88 2854.48 1982.68 2854.02C1987.23 2853.4 1996.04 2851.42 2004.7 2847.63C2009.09 2845.72 2013.43 2843.34 2017.18 2840.44C2016.69 2833.79 2013.69 2827.81 2011.45 2824.73Z" fill="#0E0302"/>
<path fill-rule="evenodd" clip-rule="evenodd" d="M1480.22 2749.41L1456.41 2743.82C1451.7 2746.75 1439.8 2752.46 1429.85 2751.86C1437.53 2756.85 1445.03 2761.34 1450.92 2764.65C1463.36 2770.68 1482.05 2779.26 1503.55 2788.38C1499.84 2786.82 1486.45 2761.75 1480.22 2749.41Z" fill="#9A7531"/>
<path d="M1436.45 2728.11C1430.82 2724.56 1426.08 2721.27 1422.09 2718.26C1421.16 2727.12 1420.17 2745.41 1423.6 2747.71C1425.68 2749.12 1427.77 2750.51 1429.85 2751.86C1439.8 2752.46 1451.7 2746.75 1456.41 2743.82L1480.22 2749.41C1460.56 2740.82 1444.51 2733.21 1436.45 2728.11Z" fill="#1F1B0E"/>
<path d="M1480.22 2749.41C1486.45 2761.75 1499.84 2786.82 1503.55 2788.38C1506.32 2789.56 1509.13 2790.74 1511.99 2791.93C1552.08 2793.34 1560.92 2789.39 1573.81 2787.68C1543.86 2775.98 1508.35 2761.7 1480.22 2749.41Z" fill="#1F1B0E"/>
<path d="M1610.52 2801.8C1607.58 2800.68 1604.44 2799.49 1601.12 2798.22C1606.67 2807.2 1620.74 2826.64 1632.58 2832.56C1633.18 2832.7 1633.78 2832.83 1634.38 2832.97C1656.79 2836.84 1685.08 2827.94 1696.42 2823C1663.41 2815.22 1632.23 2807.42 1610.52 2801.8Z" fill="#1F1B0E"/>
<path d="M1777.63 2865.5C1781.02 2866.21 1784.35 2866.9 1787.62 2867.56C1796.57 2866.67 1828.94 2856.72 1844.01 2851.86C1821.58 2850.21 1778.13 2841.56 1732.87 2831.4C1742.45 2841.64 1764.72 2862.73 1777.47 2865.47C1777.52 2865.48 1777.58 2865.49 1777.63 2865.5Z" fill="#1F1B0E"/>
<path d="M1868.89 2854.64C1876.71 2862.79 1894.98 2879.43 1905.44 2880.75C1928.98 2876.51 1946.07 2862.31 1951.67 2855.74C1927.43 2856.63 1896.63 2856.8 1868.89 2854.64Z" fill="#1F1B0E"/>
<path d="M1982.68 2854.02C1976.88 2854.48 1969.34 2854.97 1960.63 2855.37C1965.53 2860.92 1977.3 2872.51 1985.16 2874.48C1997.63 2867.44 2003.39 2853.65 2004.7 2847.63C1996.04 2851.42 1987.23 2853.4 1982.68 2854.02Z" fill="#1F1B0E"/>
<path d="M1416.08 2713.47L1392.31 2719.06C1395.19 2726.66 1408.98 2737.77 1423.6 2747.71C1420.17 2745.41 1421.16 2727.12 1422.09 2718.26C1419.86 2716.57 1417.86 2714.97 1416.08 2713.47Z" fill="#9A7531"/>
</svg>
