<svg width="3000" height="3000" viewBox="0 0 3000 3000" fill="none" xmlns="http://www.w3.org/2000/svg">
<defs>
<linearGradient id="paint0_linear_2267_17825" x1="1500" y1="0" x2="1500" y2="3000" gradientUnits="userSpaceOnUse">
<stop stop-color="#216CB2"/>
<stop offset="1" stop-color="white" stop-opacity="0"/>
</linearGradient>
</defs>
<path fill-rule="evenodd" clip-rule="evenodd" d="M1500 2900C2273.2 2900 2900 2273.2 2900 1500C2900 726.801 2273.2 100 1500 100C726.801 100 100 726.801 100 1500C100 2273.2 726.801 2900 1500 2900ZM1500 3000C2328.43 3000 3000 2328.43 3000 1500C3000 671.573 2328.43 0 1500 0C671.573 0 0 671.573 0 1500C0 2328.43 671.573 3000 1500 3000Z" fill="url(#paint0_linear_2267_17825)"/>
<path d="M2831.84 1346.09L2844.4 1409.73C2846.33 1422.02 2852.61 1441.96 2843.11 1456.28C2847.19 1476.55 2835.25 1499.42 2828.76 1508.32C2808.2 1511.52 2764.47 1518.56 2677.5 1542.1C2590.53 1565.64 2558.86 1597.56 2553.9 1610.58C2549.88 1623.01 2498.02 1655.2 2502.8 1669.16C2476.06 1686.76 2469.58 1756.58 2469.68 1789.29C2466.86 1798.84 2490.33 1840.43 2503.28 1861.47C2519.47 1887.77 2498.63 1922.76 2471.32 1990.61C2424.59 2031.58 2378.37 2075.66 2348.68 2097.66C2338.16 2109.36 2267.3 2142.53 2148.03 2176.81C2095.7 2211.32 2047.57 2274.35 2030.05 2301.55C2024.11 2315.48 2038.45 2365.18 2038.48 2383.91C2044.6 2404.76 2037.55 2423.83 2033.27 2430.77C2032.24 2443.96 2014.59 2470.78 1952.18 2472.55C1971.97 2477.33 2015.18 2482.04 2029.73 2462.58C2044.29 2443.13 2055.28 2425.45 2058.96 2419.05C2059.99 2409.76 2061.06 2390.05 2057.08 2385.52C2053.1 2380.99 2057.58 2364.23 2060.31 2356.42L2068.44 2333.72C2068.77 2322.37 2080.44 2288.74 2124.43 2244.94C2168.42 2201.15 2206 2195.32 2219.29 2197.88L2298.17 2158.16L2369.13 2121.48L2403.71 2109.78L2424.18 2091.64C2432.35 2086.37 2454.53 2071.76 2477.96 2055.46C2501.35 2032.39 2524.06 1999.36 2532.5 1985.73C2539.18 1977.02 2554.4 1949.88 2561.88 1911.09C2569.35 1872.29 2551.93 1836.52 2542.29 1823.49C2538.52 1820.84 2531.46 1811.19 2533.39 1793.83C2521.98 1777.9 2533.99 1739.02 2541.42 1721.57C2543.14 1718.9 2555.43 1701.02 2590.79 1650.9C2634.99 1588.25 2696.62 1591.1 2745.45 1572.67C2784.52 1557.93 2839.23 1545.19 2861.7 1540.66C2887.58 1491.61 2891.75 1451.13 2884.04 1428.55C2879.16 1414.25 2838.33 1370.17 2831.84 1346.09Z" fill="#543E30"/>
<path d="M2593.21 1437.94C2581.97 1445.38 2561.5 1455.48 2556.67 1471.51C2537.5 1483.22 2527.51 1506.81 2524.91 1517.14C2536.81 1532.29 2561.93 1564.68 2604.21 1635.8C2646.48 1706.92 2643.09 1749.25 2636.12 1761.52C2628.94 1772.8 2639.55 1827.98 2624.96 1834.81C2629.62 1863.97 2578.01 1917.18 2551.63 1940.14C2545.93 1948.63 2495.96 1963.18 2469.92 1969.87C2437.37 1978.23 2423.89 2015.92 2388.53 2080.81L2340.25 2207.1L2340.44 2181.49C2338.93 2172.66 2335.07 2148.46 2331.69 2122.29C2333.79 2091.38 2344.37 2053.89 2349.39 2039.01C2351.71 2028.68 2362.81 2000.03 2388.76 1968.04C2414.71 1936.04 2455.74 1921.79 2473.02 1918.67C2477.81 1919.17 2490.53 1916.81 2503.14 1903.37C2523.98 1899.32 2546.81 1864.42 2555.62 1847.48C2556.55 1844.51 2562.28 1824.22 2577.72 1766.77C2597.01 1694.94 2551.34 1658.29 2531.79 1614.69C2516.15 1579.81 2487.89 1536.52 2475.71 1519.24C2496.96 1468.48 2526.58 1437.38 2550.17 1426.32C2565.11 1419.32 2629.31 1413.9 2653.25 1401.02L2593.21 1437.94Z" fill="#543E30"/>
<path d="M152.089 1488.05L146.063 1552.44C145.392 1564.83 141.17 1585.19 152.089 1598.69C150.097 1619.21 164.322 1641.04 171.683 1649.39C192.491 1650.94 236.765 1654.48 325.78 1671.01C414.795 1687.55 449.583 1716.82 455.85 1729.39C461.118 1741.45 516.048 1769.39 512.714 1783.67C541.134 1799.08 554.707 1868.1 557.94 1900.69C561.72 1909.97 542.585 1953.26 531.831 1975.24C518.388 2002.72 542.704 2035.91 576.816 2101.32C627.531 2138.41 678.062 2178.64 709.866 2198.19C721.543 2209.01 795.489 2236.41 917.767 2261.08C973.409 2291.29 1027.76 2350.24 1047.98 2375.94C1055.32 2389.34 1046.1 2439.98 1047.98 2458.63C1044.01 2479.88 1052.97 2498.32 1057.94 2504.89C1060.31 2517.94 1080.62 2543.25 1142.96 2540.05C1123.74 2546.39 1081.18 2554.51 1064.7 2536.29C1048.23 2518.07 1035.48 2501.34 1031.17 2495.26C1029.19 2486.09 1026.12 2466.54 1029.62 2461.71C1033.12 2456.89 1026.95 2440.55 1023.43 2432.99L1013.03 2411.02C1011.54 2399.75 996.489 2367.18 948.216 2327.06C899.943 2286.93 861.926 2284.12 848.951 2287.73L766.34 2254.43L691.925 2223.53L656.294 2214.63L634.06 2198.19C625.392 2193.59 601.808 2180.8 576.816 2166.43C551.172 2145.31 525.184 2114.22 515.395 2101.32C507.854 2093.17 489.923 2067.36 478.526 2029.31C467.13 1991.27 480.835 1954.26 489.113 1940.51C492.597 1937.57 498.642 1927.41 494.952 1910.27C504.693 1893.5 488.77 1855.73 479.592 1838.94C477.602 1836.41 463.541 1819.59 423.221 1772.48C372.82 1713.59 311.73 1721.32 261.213 1706.85C220.799 1695.27 165.015 1686.93 142.175 1684.21C111.402 1637.41 103.127 1597.43 108.501 1574.33C111.905 1559.7 148.077 1512.56 152.089 1488.05Z" fill="#543E30"/>
<path d="M336.393 1551.97C349.505 1558.37 372.758 1566.42 380.711 1582.62C402.903 1592.52 417.623 1616 422.209 1626.5C412.484 1643.85 392.036 1680.9 360.616 1760.66C329.196 1840.42 340.388 1884.35 349.911 1896.35C359.458 1907.27 358.316 1966.41 374.826 1971.76C375.217 2002.89 438.855 2052.26 470.625 2073.05C478.124 2081.24 533.071 2090.3 561.545 2094.08C597.138 2098.8 618.058 2136.63 666.799 2200.24L735.325 2299.78C735.31 2290.34 734.982 2264.5 733.794 2236.67C726.015 2204.54 708.169 2166.56 700.218 2151.59C695.934 2141.06 679.13 2112.41 646.186 2082.1C613.242 2051.79 567.702 2041.94 549.05 2040.81C544.13 2041.92 530.383 2041.03 514.756 2028.52C492.2 2026.85 461.998 1993.11 449.717 1976.44C448.202 1973.46 438.538 1952.9 412.002 1894.61C378.831 1821.74 420.03 1777.68 432.624 1729.57C442.7 1691.08 464.469 1642.22 474.094 1622.61C442.686 1572.05 406.051 1543.13 379.358 1534.47C362.451 1528.98 294.263 1531.26 266.867 1520.73L336.393 1551.97Z" fill="#543E30"/>
<path d="M840.983 2198.02C843.83 2208.69 852.552 2210.76 856.557 2210.47L860.169 2198.39C856.409 2197.31 848.816 2194.25 848.525 2190.66C848.234 2187.07 838.934 2180.55 834.32 2177.74L832.425 2177.31L826.977 2176.07L811.37 2176.19L803.308 2172.38L795.914 2169.62L789.653 2164.61L786.463 2165.16L779.65 2166.33L757.754 2170.09L737.279 2155.31C732.842 2152.99 723.118 2145.98 719.71 2136.54C715.451 2124.74 692.315 2102.58 682.39 2088.61C674.45 2077.44 653.981 2053.92 644.739 2043.56C637.119 2038.57 624.999 2031.08 614.105 2025.3C613.167 2024.8 612.238 2024.31 611.322 2023.84C602.546 2019.34 594.939 2016.25 591.714 2016.94C584.244 2018.53 571.91 2015.46 566.676 2013.73C555.743 2012.43 529.1 2011.47 509.989 2018.03C508.86 2018.42 507.726 2018.83 506.59 2019.25C488.504 2026.02 469.948 2037.11 462.568 2042.08L449.254 2041.68L454.291 2053.57C453.191 2072.03 456.684 2114.33 479.453 2135.88C502.221 2157.44 525.932 2166.9 534.941 2168.94C543.205 2170.47 562.879 2174.68 575.46 2179.27C588.04 2183.87 620.42 2186.5 635.037 2187.25C647.228 2187.89 672.651 2189.64 676.819 2191.5C680.987 2193.36 713.547 2193.47 729.307 2193.29L777.856 2173.56L789.205 2171.6L797.393 2178.15C806.56 2175.81 820.211 2182.38 825.891 2185.96C829.736 2185.53 838.137 2187.35 840.983 2198.02Z" fill="#B59460"/>
<path d="M509.989 2018.03C529.1 2011.47 555.743 2012.43 566.676 2013.73C571.91 2015.46 584.244 2018.53 591.714 2016.94C594.939 2016.25 602.546 2019.34 611.322 2023.84L618.075 2019.3L591.904 1991.11L578.629 1972.71C565.377 1978.8 535.043 1989.03 519.714 1981.19C531.102 1986.72 562.85 1976.62 577.301 1970.87L545.803 1927.23L594.27 1988.8L608.296 2003.61C614.386 1985.91 625.669 1947.64 623.355 1932.69C623.289 1932.31 623.219 1931.93 623.143 1931.56C623.223 1931.92 623.294 1932.3 623.355 1932.69C626.74 1952.58 616.351 1989.7 610.62 2006.06L622.882 2019.01L630.91 2025.43C642.112 2008.13 662.193 1969.48 652.904 1953.24C664.495 1971.11 644.355 2009.84 632.837 2026.97L656.438 2045.83L667.439 2058.74C673.023 2046.14 683.506 2018.94 683.849 2004.53C683.839 2003.51 683.806 2002.51 683.748 2001.51C683.843 2002.44 683.874 2003.45 683.849 2004.53C684.056 2025.71 674.213 2050.48 669.029 2060.61L698.278 2088.21C700.795 2077.96 705.67 2056.03 705.031 2050.27C706.616 2055.11 702.278 2078.61 699.911 2089.75L722.883 2114.35L743.654 2132.84L768.124 2149.14C758.207 2139.97 749.205 2130.59 749.421 2127.21C749.779 2121.62 735.21 2093.11 727.881 2079.56C722.571 2062.89 710.003 2026.9 702.212 2016.26C694.421 2005.63 686.194 1980.98 683.055 1969.99C680.181 1961.39 667.054 1938.41 637.533 1915.24C608.011 1892.07 584.401 1885.2 576.286 1884.67C568.164 1881.76 546.966 1877.14 527.152 1881.88C516.096 1880.82 508.927 1876.68 506.724 1874.75L507.253 1892.75C501.253 1900.03 489.081 1918.18 488.389 1932.53C487.523 1950.48 503.19 2020.47 506.59 2019.25C507.726 2018.83 508.86 2018.42 509.989 2018.03Z" fill="#CAA672"/>
<path d="M644.739 2043.56C653.981 2053.92 674.45 2077.44 682.39 2088.61C692.315 2102.58 715.451 2124.74 719.71 2136.54L740.219 2148.73L779.65 2166.33L786.463 2165.16C781.515 2161.08 774.624 2155.15 768.124 2149.14L740.992 2135.44L720.487 2116.69L697.159 2092.44L666.516 2063.06L653.777 2048.42L620.221 2021.61L614.105 2025.3C624.999 2031.08 637.119 2038.57 644.739 2043.56Z" fill="#CAA672"/>
<path d="M768.124 2149.14L743.654 2132.84L722.883 2114.35L699.911 2089.75L698.278 2088.21L669.029 2060.61L667.439 2058.74L656.438 2045.83L632.837 2026.97L630.91 2025.43L622.882 2019.01L610.62 2006.06L608.296 2003.61L594.27 1988.8L545.803 1927.23L577.301 1970.87L578.629 1972.71L591.904 1991.11L618.075 2019.3L620.221 2021.61L653.777 2048.42L666.516 2063.06L697.159 2092.44L720.487 2116.69L740.992 2135.44L768.124 2149.14Z" fill="#715D58"/>
<path d="M796.36 1876.81C794.268 1877.03 788.556 1885.18 785.962 1889.23L801.152 1900.06L805.566 1927.38C809.316 1926.38 822.463 1918.87 845.058 1896.83C826.128 1919.91 811.048 1928.09 805.875 1929.29L806.362 1932.31L811.212 1970.32C822.425 1963.61 848.029 1945.5 863.357 1925.4C863.854 1924.74 864.35 1924.07 864.845 1923.4C864.361 1924.07 863.864 1924.74 863.357 1925.4C842.601 1952.99 820.234 1968.15 811.471 1972.34L815.542 2011.4C828.827 2005.18 858.021 1989.39 868.526 1975.94C855.006 1993.7 827.732 2008.53 815.785 2013.73L816.217 2017.87L819.34 2050.73L819.467 2061.15L819.991 2091.13C828.513 2088.05 845.997 2080.98 850.876 2076.18C851.104 2075.94 851.317 2075.7 851.514 2075.47C851.335 2075.7 851.121 2075.93 850.876 2076.18C844.744 2082.57 827.938 2090.4 820.034 2093.62L820.118 2098.41L829.191 2160.51L830.551 2163.18L835.211 2160.34C836.231 2160.1 838.649 2158.47 840.163 2153.8C839.703 2133.27 857.054 2111.48 865.787 2103.15C869.31 2095.81 876.519 2077.97 877.164 2065.26C879.517 2032.76 908.297 2000.11 907.194 1996.35C903.341 1993.27 902.499 1961.89 901.13 1952.39C899.761 1942.9 902.955 1931.81 903.407 1928.23C903.769 1925.37 896.485 1914.56 892.797 1909.52L877.304 1892.15C871.168 1888.73 856.335 1880.69 846.093 1875.87C835.986 1864.64 798.975 1876.54 796.36 1876.81Z" fill="#CAA672"/>
<path d="M825.861 2162.05L829.191 2160.51L820.118 2098.41L820.034 2093.62L819.991 2091.13L819.467 2061.15L819.34 2050.73L816.217 2017.87L815.785 2013.73L815.542 2011.4L811.471 1972.34L811.212 1970.32L806.362 1932.31L805.875 1929.29L805.566 1927.38L801.152 1900.06L785.962 1889.23L798.638 1902.51L803.109 1935.48L804.26 1945.47L804.675 1949.07L807.774 1975.95L809.102 1990.14L809.461 1993.97L812.076 2021.91L812.772 2030.35L812.99 2032.98L815.622 2064.9L816.034 2075.72L816.449 2077.29L817.356 2101.11L818.761 2113.41L825.861 2162.05Z" fill="#715D58"/>
<path d="M830.551 2163.18L829.191 2160.51L825.861 2162.05L826.977 2176.07L832.425 2177.31L830.551 2163.18Z" fill="#715D58"/>
<path d="M818.903 2162L825.861 2162.05L818.761 2113.41L817.356 2101.11L816.449 2077.29C816.338 2077.25 816.225 2077.22 816.11 2077.19C805.446 2074.17 781.87 2066.98 776.295 2060.24C785.779 2067.4 806.74 2073.55 816.034 2075.72L815.622 2064.9L812.99 2032.98C793.582 2029.6 751.106 2017.23 736.46 1994.81C756.048 2014.46 795.496 2026.69 812.772 2030.35L812.076 2021.91L809.461 1993.97C794.758 1990.36 760.208 1977.85 739.632 1956.67C756.339 1973.05 792.906 1985.81 809.102 1990.14L807.774 1975.95L804.675 1949.07C797.221 1948.45 779.583 1945.04 768.665 1936.32C783.087 1943.45 798.404 1945.39 804.26 1945.47L803.109 1935.48L798.638 1902.51L785.962 1889.23C784.689 1887.34 780.514 1883.09 773.997 1881.25C754.422 1885.81 734.535 1906.93 725.655 1918.73C718.55 1928.17 716.369 1948.4 716.166 1957.34C715.883 1964.55 715.977 1983.85 718.618 2003.39C721.258 2022.93 737.033 2051.44 744.59 2063.25C748.183 2065.16 756.233 2071.61 759.691 2082.14C763.149 2092.67 772.03 2105.91 776.038 2111.22C783.006 2118.1 797.176 2132.94 798.119 2137.26C799.062 2141.58 812.368 2155.56 818.903 2162Z" fill="#CAA672"/>
<path d="M819.991 2091.13L820.034 2093.62C827.938 2090.4 844.744 2082.57 850.876 2076.18C845.997 2080.98 828.513 2088.05 819.991 2091.13Z" fill="#715D58"/>
<path d="M776.295 2060.24C781.87 2066.98 805.446 2074.17 816.11 2077.19L816.034 2075.72C806.74 2073.55 785.779 2067.4 776.295 2060.24Z" fill="#715D58"/>
<path d="M736.46 1994.81C751.106 2017.23 793.582 2029.6 812.99 2032.98L812.772 2030.35C795.496 2026.69 756.048 2014.46 736.46 1994.81Z" fill="#715D58"/>
<path d="M815.785 2013.73C827.732 2008.53 855.006 1993.7 868.526 1975.94C858.021 1989.39 828.827 2005.18 815.542 2011.4L815.785 2013.73Z" fill="#715D58"/>
<path d="M739.632 1956.67C760.208 1977.85 794.758 1990.36 809.461 1993.97L809.102 1990.14C792.906 1985.81 756.339 1973.05 739.632 1956.67Z" fill="#715D58"/>
<path d="M811.212 1970.32L811.471 1972.34C820.234 1968.15 842.601 1952.99 863.357 1925.4C848.029 1945.5 822.425 1963.61 811.212 1970.32Z" fill="#715D58"/>
<path d="M768.665 1936.32C779.583 1945.04 797.221 1948.45 804.675 1949.07L804.26 1945.47C798.404 1945.39 783.087 1943.45 768.665 1936.32Z" fill="#715D58"/>
<path d="M805.875 1929.29C811.048 1928.09 826.128 1919.91 845.058 1896.83C822.463 1918.87 809.316 1926.38 805.566 1927.38L805.875 1929.29Z" fill="#715D58"/>
<path d="M699.911 2089.75C702.278 2078.61 706.616 2055.11 705.031 2050.27C705.67 2056.03 700.795 2077.96 698.278 2088.21L699.911 2089.75Z" fill="#715D58"/>
<path d="M667.439 2058.74L669.029 2060.61C674.213 2050.48 684.056 2025.71 683.849 2004.53C683.506 2018.94 673.023 2046.14 667.439 2058.74Z" fill="#715D58"/>
<path d="M632.837 2026.97C644.355 2009.84 664.495 1971.11 652.904 1953.24C662.193 1969.48 642.112 2008.13 630.91 2025.43L632.837 2026.97Z" fill="#715D58"/>
<path d="M614.105 2025.3L620.221 2021.61L618.075 2019.3L611.322 2023.84C612.238 2024.31 613.167 2024.8 614.105 2025.3Z" fill="#715D58"/>
<path d="M608.296 2003.61L610.62 2006.06C616.351 1989.7 626.74 1952.58 623.355 1932.69C625.669 1947.64 614.386 1985.91 608.296 2003.61Z" fill="#715D58"/>
<path d="M519.714 1981.19C535.043 1989.03 565.377 1978.8 578.629 1972.71L577.301 1970.87C562.85 1976.62 531.102 1986.72 519.714 1981.19Z" fill="#715D58"/>
<path d="M890.38 2263C902.58 2265.05 908.269 2258.85 909.588 2255.5L898.564 2247.68C895.917 2250.27 889.666 2255.15 885.832 2253.93C881.997 2252.7 871.468 2257.56 866.683 2260.13L865.467 2261.49L861.972 2265.38L855.758 2278.02L848.531 2282.98L842.671 2287.82L834.948 2290.84L834.219 2293.63L832.66 2299.61L827.651 2318.8L804.028 2329.31C799.824 2331.94 788.627 2336.94 777.473 2335.85C763.53 2334.49 731.193 2344.15 712.707 2346.48C697.918 2348.34 665.269 2355.3 650.793 2358.54C642.532 2362.66 629.852 2369.39 619.44 2375.83C618.544 2376.39 617.664 2376.94 616.806 2377.49C608.581 2382.74 602.291 2387.62 601.691 2390.5C600.299 2397.17 592.111 2405.88 588.191 2409.4C582.401 2417.69 570.578 2438.79 569.602 2456.88C569.544 2457.95 569.505 2459.03 569.483 2460.12C569.128 2477.46 573.065 2496.94 575.204 2504.91L569.376 2515.49L583.734 2516.26C602.383 2524.65 647.57 2539.03 679.126 2529.42C710.683 2519.81 730.113 2504.53 735.884 2498.09C740.826 2492.05 753.177 2477.88 763.045 2469.6C772.912 2461.32 788.804 2436.27 795.517 2424.78C801.138 2415.21 813.285 2395.41 816.904 2392.8C820.523 2390.19 833.869 2363.97 840.09 2351.18L839.409 2303.99L842 2294.04L852.099 2290.09C853.411 2281.75 865.757 2273.41 871.767 2270.28C872.888 2267 878.18 2260.96 890.38 2263Z" fill="#B59460"/>
<path d="M569.602 2456.88C570.578 2438.79 582.401 2417.69 588.191 2409.4C592.111 2405.88 600.299 2397.17 601.691 2390.5C602.291 2387.62 608.581 2382.74 616.806 2377.49L614.846 2370.19L575.04 2379.85L550.613 2383.08C551.529 2396.25 549.774 2424.88 535.431 2434.06C545.783 2427.12 548.237 2397.4 548.171 2383.4L490.213 2391.08L573.613 2377L594.639 2371.7C578.805 2359.6 543.796 2334.94 527.388 2330.73C526.963 2330.62 526.542 2330.53 526.125 2330.44C526.533 2330.52 526.954 2330.62 527.388 2330.73C549.34 2336.08 583.524 2359.55 598.123 2370.83L616.505 2366.2L626.406 2362.33C613.065 2346.26 581.239 2314.35 560.659 2315.24C583.86 2313.15 615.742 2345.14 628.782 2361.4L657.89 2350.02L675.728 2346.4C664.955 2336.77 641.074 2317.26 626.302 2311.12C625.248 2310.72 624.193 2310.34 623.139 2309.98C624.136 2310.28 625.193 2310.66 626.302 2311.12C648.304 2319.57 669.928 2337.58 678.307 2345.88L718.752 2333.5C709.174 2327.3 688.465 2314.46 682.246 2312.63C687.894 2313.32 710.442 2326.37 721.01 2332.81L755.805 2324.28L783.377 2315.03L810.192 2301.92C796.671 2306.19 783.307 2309.64 779.899 2308.09C774.258 2305.53 738.837 2305.7 721.832 2306.1C702.43 2303.61 660.082 2299.12 645.911 2301.08C631.739 2303.04 602.892 2299.66 590.24 2297.72C580.179 2296.55 551.063 2297.79 515.088 2312.19C479.113 2326.59 462.413 2342.85 458.56 2349.18C452.254 2354.55 438.857 2369.77 435.71 2387.69C430.113 2396.17 422.918 2400.28 420.02 2401.27L438.866 2408.16C443.959 2415.96 457.787 2433.16 472.357 2439.55C490.57 2447.54 569.364 2463.36 569.483 2460.12C569.505 2459.03 569.544 2457.95 569.602 2456.88Z" fill="#CAA672"/>
<path d="M650.793 2358.54C665.269 2355.3 697.918 2348.34 712.707 2346.48C731.193 2344.15 763.53 2334.49 777.473 2335.85L798.422 2324.26L832.66 2299.61L834.219 2293.63C827.981 2295.96 819.053 2299.12 810.192 2301.92L784.982 2318.24L757.25 2327.16L722.669 2336.12L679.823 2348.9L659.496 2353.23L618.111 2369.4L619.44 2375.83C629.852 2369.39 642.532 2362.66 650.793 2358.54Z" fill="#CAA672"/>
<path d="M810.192 2301.92L783.377 2315.03L755.805 2324.28L721.01 2332.81L718.752 2333.5L678.307 2345.88L675.728 2346.4L657.89 2350.02L628.782 2361.4L626.406 2362.33L616.505 2366.2L598.123 2370.83L594.639 2371.7L573.613 2377L490.213 2391.08L548.171 2383.4L550.613 2383.08L575.04 2379.85L614.846 2370.19L618.111 2369.4L659.496 2353.23L679.823 2348.9L722.669 2336.12L757.25 2327.16L784.982 2318.24L810.192 2301.92Z" fill="#715D58"/>
<path d="M539.89 2168.43C539.265 2170.21 545.383 2178.13 548.52 2181.87L565.895 2174.02L595.96 2181.56C596.451 2178.13 594.025 2164.47 580.398 2137.28C596.59 2161.94 598.92 2177.43 598.061 2182.09L601.378 2182.92L642.679 2194.46C640.293 2182.69 631.971 2154.67 617.403 2134.13C616.921 2133.46 616.432 2132.79 615.935 2132.12C616.431 2132.78 616.92 2133.45 617.403 2134.13C637.511 2162.09 644.108 2186.3 644.882 2195.08L686.948 2207.67C685.914 2194.42 681.437 2164.45 671.8 2150.51C684.671 2168.63 688.933 2196.67 689.455 2208.42L693.913 2209.75L729.179 2220.59L740.012 2224.72L771.245 2236.49C771.532 2228.36 771.315 2211.38 768.332 2205.49C768.178 2205.21 768.021 2204.95 767.86 2204.69C768.024 2204.93 768.181 2205.2 768.332 2205.49C772.458 2213.04 773.729 2229.78 773.843 2237.47L778.834 2239.35L846.779 2257.27L850.086 2257.26L849.045 2252.34C849.216 2251.43 848.505 2248.81 844.289 2245.69C822.866 2237.72 807.37 2214.86 802.299 2204.43C796.145 2198.6 780.613 2185.53 767.722 2179.85C735.05 2164.74 712.974 2128.25 708.627 2127.61C703.875 2129.46 671.065 2117.39 660.686 2114.63C650.308 2111.88 640.126 2104.79 636.61 2102.97C633.797 2101.52 619.654 2103 612.934 2103.92L588.666 2109.36C582.637 2112.93 568.29 2121.63 559.135 2127.93C543.412 2131.52 540.671 2166.21 539.89 2168.43Z" fill="#CAA672"/>
<path d="M847.018 2260.58L846.779 2257.27L778.834 2239.35L773.843 2237.47L771.245 2236.49L740.012 2224.72L729.179 2220.59L693.913 2209.75L689.455 2208.42L686.948 2207.67L644.882 2195.08L642.679 2194.46L601.378 2182.92L598.061 2182.09L595.96 2181.56L565.895 2174.02L548.52 2181.87L567.411 2177.04L603.34 2186.84L614.144 2189.97L618.034 2191.1L647.112 2199.53L662.327 2204.22L666.439 2205.49L696.41 2214.74L705.425 2217.61L708.242 2218.5L742.331 2229.35L753.702 2233.42L755.485 2233.72L780.5 2242.67L793.805 2246.54L847.018 2260.58Z" fill="#715D58"/>
<path d="M850.086 2257.26L846.779 2257.27L847.018 2260.58L861.972 2265.38L865.467 2261.49L850.086 2257.26Z" fill="#715D58"/>
<path d="M844.138 2266.18L847.018 2260.58L793.805 2246.54L780.5 2242.67L755.485 2233.72C755.407 2233.8 755.328 2233.87 755.248 2233.95C747.787 2241.33 730.768 2257.43 721.528 2259.19C732.791 2254.44 747.67 2240.03 753.702 2233.42L742.331 2229.35L708.242 2218.5C696.851 2232.78 666.782 2262.02 637.639 2264.73C665.925 2256.91 694.615 2230.06 705.425 2217.61L696.41 2214.74L666.439 2205.49C656.731 2215.88 629.744 2238.67 599.46 2246.66C623.205 2239.84 651.265 2215.53 662.327 2204.22L647.112 2199.53L618.034 2191.1C614.369 2196.86 603.67 2209.71 590.205 2214.97C603.444 2206.23 611.681 2194.66 614.144 2189.97L603.34 2186.84L567.411 2177.04L548.52 2181.87C546.044 2182.13 539.953 2183.77 535.392 2188.28C532.16 2205.93 545.923 2230.56 554.523 2242.52C561.402 2252.09 581.45 2262.07 590.614 2265.87C597.96 2269.03 617.972 2276.8 639.26 2282.61C660.547 2288.42 696.459 2287.28 711.754 2285.99C715.19 2283.87 725.136 2279.99 737.439 2281.49C749.742 2282.98 767.049 2281.19 774.165 2280.11C784.116 2277.29 805.231 2271.89 810.087 2272.89C814.944 2273.88 834.812 2268.83 844.138 2266.18Z" fill="#CAA672"/>
<path d="M771.245 2236.49L773.843 2237.47C773.729 2229.78 772.458 2213.04 768.332 2205.49C771.315 2211.38 771.532 2228.36 771.245 2236.49Z" fill="#715D58"/>
<path d="M721.528 2259.19C730.768 2257.43 747.787 2241.33 755.248 2233.95L753.702 2233.42C747.67 2240.03 732.791 2254.44 721.528 2259.19Z" fill="#715D58"/>
<path d="M637.639 2264.73C666.782 2262.02 696.851 2232.78 708.242 2218.5L705.425 2217.61C694.615 2230.06 665.925 2256.91 637.639 2264.73Z" fill="#715D58"/>
<path d="M689.455 2208.42C688.933 2196.67 684.671 2168.63 671.8 2150.51C681.437 2164.45 685.914 2194.42 686.948 2207.67L689.455 2208.42Z" fill="#715D58"/>
<path d="M599.46 2246.66C629.744 2238.67 656.731 2215.88 666.439 2205.49L662.327 2204.22C651.265 2215.53 623.205 2239.84 599.46 2246.66Z" fill="#715D58"/>
<path d="M642.679 2194.46L644.882 2195.08C644.108 2186.3 637.511 2162.09 617.403 2134.13C631.971 2154.67 640.293 2182.69 642.679 2194.46Z" fill="#715D58"/>
<path d="M590.205 2214.97C603.67 2209.71 614.369 2196.86 618.034 2191.1L614.144 2189.97C611.681 2194.66 603.444 2206.23 590.205 2214.97Z" fill="#715D58"/>
<path d="M598.061 2182.09C598.92 2177.43 596.59 2161.94 580.398 2137.28C594.025 2164.47 596.451 2178.13 595.96 2181.56L598.061 2182.09Z" fill="#715D58"/>
<path d="M721.01 2332.81C710.442 2326.37 687.894 2313.32 682.246 2312.63C688.465 2314.46 709.174 2327.3 718.752 2333.5L721.01 2332.81Z" fill="#715D58"/>
<path d="M675.728 2346.4L678.307 2345.88C669.928 2337.58 648.304 2319.57 626.302 2311.12C641.074 2317.26 664.955 2336.77 675.728 2346.4Z" fill="#715D58"/>
<path d="M628.782 2361.4C615.742 2345.14 583.86 2313.15 560.659 2315.24C581.239 2314.35 613.065 2346.26 626.406 2362.33L628.782 2361.4Z" fill="#715D58"/>
<path d="M619.44 2375.83L618.111 2369.4L614.846 2370.19L616.806 2377.49C617.664 2376.94 618.544 2376.39 619.44 2375.83Z" fill="#715D58"/>
<path d="M594.639 2371.7L598.123 2370.83C583.524 2359.55 549.34 2336.08 527.388 2330.73C543.796 2334.94 578.805 2359.6 594.639 2371.7Z" fill="#715D58"/>
<path d="M535.431 2434.06C549.774 2424.88 551.529 2396.25 550.613 2383.08L548.171 2383.4C548.237 2397.4 545.783 2427.12 535.431 2434.06Z" fill="#715D58"/>
<path d="M2044.07 2148.13C2041.23 2158.81 2032.51 2160.88 2028.5 2160.58L2024.89 2148.5C2028.65 2147.42 2036.24 2144.37 2036.53 2140.77C2036.82 2137.18 2046.12 2130.66 2050.74 2127.85L2052.63 2127.42L2058.08 2126.18L2073.69 2126.3L2081.75 2122.49L2089.14 2119.73L2095.41 2114.72L2098.59 2115.27L2105.41 2116.44L2127.3 2120.2L2147.78 2105.42C2152.22 2103.1 2161.94 2096.1 2165.35 2086.65C2169.61 2074.85 2192.74 2052.69 2202.67 2038.72C2210.61 2027.55 2231.08 2004.03 2240.32 1993.67C2247.94 1988.68 2260.06 1981.19 2270.95 1975.41C2271.89 1974.91 2272.82 1974.42 2273.74 1973.95C2282.51 1969.45 2290.12 1966.36 2293.34 1967.05C2300.81 1968.64 2313.15 1965.57 2318.38 1963.84C2329.31 1962.54 2355.96 1961.58 2375.07 1968.14C2376.2 1968.53 2377.33 1968.94 2378.47 1969.36C2396.55 1976.13 2415.11 1987.22 2422.49 1992.19L2435.8 1991.79L2430.77 2003.69C2431.87 2022.14 2428.37 2064.44 2405.6 2086C2382.84 2107.55 2359.13 2117.01 2350.12 2119.05C2341.85 2120.58 2322.18 2124.79 2309.6 2129.38C2297.02 2133.98 2264.64 2136.62 2250.02 2137.36C2237.83 2138 2212.41 2139.75 2208.24 2141.62C2204.07 2143.48 2171.51 2143.58 2155.75 2143.4L2107.2 2123.67L2095.85 2121.72L2087.66 2128.26C2078.5 2125.93 2064.85 2132.5 2059.17 2136.07C2055.32 2135.64 2046.92 2137.46 2044.07 2148.13Z" fill="#B59460"/>
<path d="M2375.07 1968.14C2355.96 1961.58 2329.31 1962.54 2318.38 1963.84C2313.15 1965.57 2300.81 1968.64 2293.34 1967.05C2290.12 1966.36 2282.51 1969.45 2273.74 1973.95L2266.98 1969.41L2293.15 1941.22L2306.43 1922.82C2319.68 1928.92 2350.01 1939.14 2365.34 1931.3C2353.96 1936.83 2322.21 1926.73 2307.76 1920.99L2339.25 1877.34L2290.79 1938.91L2276.76 1953.72C2270.67 1936.02 2259.39 1897.76 2261.7 1882.81C2261.77 1882.42 2261.84 1882.04 2261.92 1881.67C2261.83 1882.03 2261.76 1882.41 2261.7 1882.81C2258.32 1902.69 2268.71 1939.81 2274.44 1956.17L2262.18 1969.12L2254.15 1975.54C2242.95 1958.24 2222.86 1919.59 2232.15 1903.35C2220.56 1921.22 2240.7 1959.95 2252.22 1977.08L2228.62 1995.94L2217.62 2008.86C2212.04 1996.25 2201.55 1969.05 2201.21 1954.64C2201.22 1953.62 2201.25 1952.62 2201.31 1951.62C2201.21 1952.55 2201.18 1953.56 2201.21 1954.64C2201 1975.82 2210.84 2000.59 2216.03 2010.72L2186.78 2038.32C2184.26 2028.08 2179.39 2006.15 2180.03 2000.39C2178.44 2005.22 2182.78 2028.72 2185.15 2039.86L2162.17 2064.47L2141.4 2082.95L2116.93 2099.26C2126.85 2090.08 2135.85 2080.7 2135.64 2077.33C2135.28 2071.73 2149.85 2043.22 2157.18 2029.67C2162.49 2013 2175.05 1977.01 2182.85 1966.38C2190.64 1955.74 2198.86 1931.09 2202 1920.1C2204.88 1911.5 2218 1888.52 2247.52 1865.35C2277.05 1842.18 2300.66 1835.31 2308.77 1834.78C2316.89 1831.87 2338.09 1827.25 2357.91 1832C2368.96 1830.93 2376.13 1826.79 2378.33 1824.86L2377.8 1842.86C2383.8 1850.14 2395.98 1868.29 2396.67 1882.64C2397.53 1900.59 2381.87 1970.59 2378.47 1969.36C2377.33 1968.94 2376.2 1968.53 2375.07 1968.14Z" fill="#CAA672"/>
<path d="M2240.32 1993.67C2231.08 2004.03 2210.61 2027.55 2202.67 2038.72C2192.74 2052.69 2169.61 2074.85 2165.35 2086.65L2144.84 2098.84L2105.41 2116.44L2098.59 2115.27C2103.54 2111.19 2110.43 2105.27 2116.93 2099.26L2144.07 2085.55L2164.57 2066.8L2187.9 2042.55L2218.54 2013.18L2231.28 1998.53L2264.84 1971.72L2270.95 1975.41C2260.06 1981.19 2247.94 1988.68 2240.32 1993.67Z" fill="#CAA672"/>
<path d="M2116.93 2099.26L2141.4 2082.95L2162.17 2064.47L2185.15 2039.86L2186.78 2038.32L2216.03 2010.72L2217.62 2008.86L2228.62 1995.94L2252.22 1977.08L2254.15 1975.54L2262.18 1969.12L2274.44 1956.17L2276.76 1953.72L2290.79 1938.91L2339.25 1877.34L2307.76 1920.99L2306.43 1922.82L2293.15 1941.22L2266.98 1969.41L2264.84 1971.72L2231.28 1998.53L2218.54 2013.18L2187.9 2042.55L2164.57 2066.8L2144.07 2085.55L2116.93 2099.26Z" fill="#715D58"/>
<path d="M2088.7 1826.92C2090.79 1827.14 2096.5 1835.29 2099.1 1839.34L2083.91 1850.17L2079.49 1877.49C2075.74 1876.49 2062.59 1868.98 2040 1846.94C2058.93 1870.02 2074.01 1878.2 2079.18 1879.4L2078.7 1882.42L2073.85 1920.43C2062.63 1913.72 2037.03 1895.61 2021.7 1875.51C2021.2 1874.85 2020.71 1874.18 2020.21 1873.51C2020.7 1874.18 2021.19 1874.85 2021.7 1875.51C2042.46 1903.1 2064.82 1918.27 2073.59 1922.46L2069.52 1961.51C2056.23 1955.29 2027.04 1939.5 2016.53 1926.06C2030.05 1943.81 2057.33 1958.64 2069.27 1963.84L2068.84 1967.98L2065.72 2000.84L2065.59 2011.26L2065.07 2041.24C2056.54 2038.17 2039.06 2031.09 2034.18 2026.29C2033.95 2026.05 2033.74 2025.81 2033.54 2025.58C2033.72 2025.81 2033.94 2026.05 2034.18 2026.29C2040.31 2032.68 2057.12 2040.51 2065.02 2043.73L2064.94 2048.52L2055.87 2110.63L2054.51 2113.29L2049.85 2110.45C2048.83 2110.21 2046.41 2108.58 2044.89 2103.91C2045.35 2083.38 2028 2061.59 2019.27 2053.26C2015.75 2045.93 2008.54 2028.08 2007.89 2015.37C2005.54 1982.87 1976.76 1950.23 1977.86 1946.46C1981.72 1943.38 1982.56 1912 1983.93 1902.51C1985.3 1893.01 1982.1 1881.92 1981.65 1878.34C1981.29 1875.48 1988.57 1864.67 1992.26 1859.63L2007.75 1842.26C2013.89 1838.84 2028.72 1830.8 2038.96 1825.98C2049.07 1814.75 2086.08 1826.65 2088.7 1826.92Z" fill="#CAA672"/>
<path d="M2059.2 2112.16L2055.87 2110.63L2064.94 2048.52L2065.02 2043.73L2065.07 2041.24L2065.59 2011.26L2065.72 2000.84L2068.84 1967.98L2069.27 1963.84L2069.52 1961.51L2073.59 1922.46L2073.85 1920.43L2078.7 1882.42L2079.18 1879.4L2079.49 1877.49L2083.91 1850.17L2099.1 1839.34L2086.42 1852.62L2081.95 1885.59L2080.8 1895.58L2080.38 1899.18L2077.28 1926.06L2075.96 1940.25L2075.6 1944.08L2072.98 1972.02L2072.29 1980.46L2072.07 1983.1L2069.44 2015.01L2069.02 2025.84L2068.61 2027.4L2067.7 2051.22L2066.3 2063.52L2059.2 2112.16Z" fill="#715D58"/>
<path d="M2054.51 2113.29L2055.87 2110.63L2059.2 2112.16L2058.08 2126.18L2052.63 2127.42L2054.51 2113.29Z" fill="#715D58"/>
<path d="M2066.16 2112.12L2059.2 2112.16L2066.3 2063.52L2067.7 2051.22L2068.61 2027.4C2068.72 2027.36 2068.83 2027.33 2068.95 2027.3C2079.61 2024.28 2103.19 2017.09 2108.76 2010.35C2099.28 2017.51 2078.32 2023.66 2069.02 2025.84L2069.44 2015.01L2072.07 1983.1C2091.48 1979.71 2133.95 1967.34 2148.6 1944.93C2129.01 1964.57 2089.56 1976.8 2072.29 1980.46L2072.98 1972.02L2075.6 1944.08C2090.3 1940.47 2124.85 1927.96 2145.43 1906.78C2128.72 1923.17 2092.15 1935.92 2075.96 1940.25L2077.28 1926.06L2080.38 1899.18C2087.84 1898.56 2105.47 1895.15 2116.39 1886.43C2101.97 1893.56 2086.65 1895.5 2080.8 1895.58L2081.95 1885.59L2086.42 1852.62L2099.1 1839.34C2100.37 1837.45 2104.54 1833.21 2111.06 1831.36C2130.64 1835.92 2150.52 1857.04 2159.4 1868.84C2166.51 1878.28 2168.69 1898.51 2168.89 1907.45C2169.17 1914.66 2169.08 1933.96 2166.44 1953.5C2163.8 1973.04 2148.02 2001.55 2140.47 2013.36C2136.87 2015.27 2128.82 2021.72 2125.37 2032.25C2121.91 2042.79 2113.03 2056.02 2109.02 2061.33C2102.05 2068.21 2087.88 2083.05 2086.94 2087.37C2086 2091.69 2072.69 2105.67 2066.16 2112.12Z" fill="#CAA672"/>
<path d="M2065.07 2041.24L2065.02 2043.73C2057.12 2040.51 2040.31 2032.68 2034.18 2026.29C2039.06 2031.09 2056.54 2038.17 2065.07 2041.24Z" fill="#715D58"/>
<path d="M2108.76 2010.35C2103.19 2017.09 2079.61 2024.28 2068.95 2027.3L2069.02 2025.84C2078.32 2023.66 2099.28 2017.51 2108.76 2010.35Z" fill="#715D58"/>
<path d="M2148.6 1944.93C2133.95 1967.34 2091.48 1979.71 2072.07 1983.1L2072.29 1980.46C2089.56 1976.8 2129.01 1964.57 2148.6 1944.93Z" fill="#715D58"/>
<path d="M2069.27 1963.84C2057.33 1958.64 2030.05 1943.81 2016.53 1926.06C2027.04 1939.5 2056.23 1955.29 2069.52 1961.51L2069.27 1963.84Z" fill="#715D58"/>
<path d="M2145.43 1906.78C2124.85 1927.96 2090.3 1940.47 2075.6 1944.08L2075.96 1940.25C2092.15 1935.92 2128.72 1923.17 2145.43 1906.78Z" fill="#715D58"/>
<path d="M2073.85 1920.43L2073.59 1922.46C2064.82 1918.27 2042.46 1903.1 2021.7 1875.51C2037.03 1895.61 2062.63 1913.72 2073.85 1920.43Z" fill="#715D58"/>
<path d="M2116.39 1886.43C2105.47 1895.15 2087.84 1898.56 2080.38 1899.18L2080.8 1895.58C2086.65 1895.5 2101.97 1893.56 2116.39 1886.43Z" fill="#715D58"/>
<path d="M2079.18 1879.4C2074.01 1878.2 2058.93 1870.02 2040 1846.94C2062.59 1868.98 2075.74 1876.49 2079.49 1877.49L2079.18 1879.4Z" fill="#715D58"/>
<path d="M2185.15 2039.86C2182.78 2028.72 2178.44 2005.22 2180.03 2000.39C2179.39 2006.15 2184.26 2028.08 2186.78 2038.32L2185.15 2039.86Z" fill="#715D58"/>
<path d="M2217.62 2008.86L2216.03 2010.72C2210.84 2000.59 2201 1975.82 2201.21 1954.64C2201.55 1969.05 2212.04 1996.25 2217.62 2008.86Z" fill="#715D58"/>
<path d="M2252.22 1977.08C2240.7 1959.95 2220.56 1921.22 2232.15 1903.35C2222.86 1919.59 2242.95 1958.24 2254.15 1975.54L2252.22 1977.08Z" fill="#715D58"/>
<path d="M2270.95 1975.41L2264.84 1971.72L2266.98 1969.41L2273.74 1973.95C2272.82 1974.42 2271.89 1974.91 2270.95 1975.41Z" fill="#715D58"/>
<path d="M2276.76 1953.72L2274.44 1956.17C2268.71 1939.81 2258.32 1902.69 2261.7 1882.81C2259.39 1897.76 2270.67 1936.02 2276.76 1953.72Z" fill="#715D58"/>
<path d="M2365.34 1931.3C2350.01 1939.14 2319.68 1928.92 2306.43 1922.82L2307.76 1920.99C2322.21 1926.73 2353.96 1936.83 2365.34 1931.3Z" fill="#715D58"/>
<path d="M2063.92 2304.62C2054.18 2311.42 2045.89 2308.26 2042.96 2305.83L2048.62 2294.39C2052.33 2295.6 2060.43 2297.37 2063.19 2294.72C2065.94 2292.06 2077.82 2292.05 2083.41 2292.38L2085.2 2293.08L2090.34 2295.1L2102.48 2303.76L2111.48 2305.19L2119.22 2307.09L2127.65 2306.6L2129.76 2308.78L2134.27 2313.43L2148.79 2328.39L2175.24 2328.04C2180.34 2328.65 2192.89 2328.5 2202.2 2322.97C2213.84 2316.06 2247.57 2311.38 2265.17 2305.88C2279.25 2301.48 2311.83 2294.28 2326.36 2291.23C2335.85 2291.5 2350.62 2292.28 2363.22 2293.72C2364.31 2293.85 2365.38 2293.98 2366.42 2294.11C2376.47 2295.4 2384.6 2297.15 2386.65 2299.46C2391.38 2304.8 2403.21 2309.16 2408.53 2310.68C2418.01 2315.66 2439.56 2329.52 2449.92 2345.15C2450.53 2346.07 2451.13 2347.01 2451.73 2347.97C2461.14 2363.19 2467.88 2382.06 2470.16 2390L2480.88 2396.99L2468.56 2403.55C2456.44 2418.62 2423.95 2449.85 2390.94 2454.25C2357.93 2458.65 2332.7 2453.06 2324.2 2449.71C2316.65 2446.38 2298.27 2438.89 2285.18 2435.58C2272.09 2432.28 2244.86 2416.59 2232.88 2409.15C2222.88 2402.97 2201.72 2390.4 2197.15 2389.57C2192.57 2388.74 2166.98 2370.96 2154.76 2362.18L2130.6 2320.08L2123.08 2312.32L2112.06 2312.96C2106.52 2306.1 2091.2 2303.76 2084.23 2303.45C2081.52 2301.01 2073.66 2297.82 2063.92 2304.62Z" fill="#B59460"/>
<path d="M2449.92 2345.15C2439.56 2329.52 2418.01 2315.66 2408.53 2310.68C2403.21 2309.16 2391.38 2304.8 2386.65 2299.46C2384.6 2297.15 2376.47 2295.4 2366.42 2294.11L2364.33 2286.85L2404.67 2279.11L2428.01 2271.98C2434.11 2284.02 2450.69 2308.67 2468.22 2310.94C2455.41 2309.03 2437.63 2283.69 2430.35 2271.27L2485.73 2254.35L2404.44 2276L2383.03 2279.92C2390.71 2262.71 2408.79 2226.53 2421.12 2216.08C2421.44 2215.82 2421.76 2215.56 2422.09 2215.31C2421.77 2215.55 2421.45 2215.81 2421.12 2216.08C2404.48 2229.81 2386.5 2264.6 2379.48 2280.56L2360.77 2283.98L2349.96 2284.61C2353.35 2264.91 2364.8 2223.61 2383.51 2215.98C2361.85 2223.62 2350.39 2265.02 2347.37 2284.76L2315.61 2286.59L2297.9 2290.68C2302.39 2277.74 2313.31 2250.67 2323.18 2239.19C2323.9 2238.4 2324.63 2237.63 2325.38 2236.88C2324.66 2237.56 2323.92 2238.33 2323.18 2239.19C2308.11 2255.68 2298.4 2280.49 2295.34 2291.27L2253 2296.85C2258.24 2287.44 2269.84 2267.58 2274.4 2263.42C2269.75 2266.34 2256.62 2287.13 2250.64 2297.16L2215.33 2303.84L2186.04 2306.94L2155.4 2306.29C2169.62 2304.54 2183.28 2302.13 2185.48 2299.36C2189.14 2294.78 2220.61 2280.43 2235.89 2273.83C2251.78 2263.69 2286.94 2242.38 2300.53 2238.32C2314.12 2234.25 2337.91 2219.45 2348.1 2212.56C2356.4 2207.4 2382.86 2196.59 2422.29 2194.63C2461.73 2192.66 2485.06 2200.24 2491.79 2204.27C2500.2 2206.45 2520.06 2214.46 2532.25 2229.04C2541.67 2234.27 2550.19 2234.96 2553.28 2234.65L2540.2 2248.48C2539.78 2257.47 2536.55 2278.37 2527 2290C2515.05 2304.53 2453.53 2350.79 2451.73 2347.97C2451.13 2347.01 2450.53 2346.07 2449.92 2345.15Z" fill="#CAA672"/>
<path d="M2326.36 2291.23C2311.83 2294.28 2279.25 2301.48 2265.17 2305.88C2247.57 2311.38 2213.84 2316.06 2202.2 2322.97L2177.56 2321.27L2134.27 2313.43L2129.76 2308.78C2136.51 2308.29 2146.08 2307.43 2155.4 2306.29L2186.3 2310.43L2215.56 2306.99L2250.9 2300.78L2295.58 2294.57L2315.86 2290.09L2361.02 2287.48L2363.22 2293.72C2350.62 2292.28 2335.85 2291.5 2326.36 2291.23Z" fill="#CAA672"/>
<path d="M2155.4 2306.29L2186.04 2306.94L2215.33 2303.84L2250.64 2297.16L2253 2296.85L2295.34 2291.27L2297.9 2290.68L2315.61 2286.59L2347.37 2284.76L2349.96 2284.61L2360.77 2283.98L2379.48 2280.56L2383.03 2279.92L2404.44 2276L2485.73 2254.35L2430.35 2271.27L2428.01 2271.98L2404.67 2279.11L2364.33 2286.85L2361.02 2287.48L2315.86 2290.09L2295.58 2294.57L2250.9 2300.78L2215.56 2306.99L2186.3 2310.43L2155.4 2306.29Z" fill="#715D58"/>
<path d="M2324.86 2077.39C2326.35 2078.7 2325.09 2088.23 2324.27 2092.83L2304.75 2092.98L2282.07 2111.97C2279.83 2109.13 2274.81 2096.03 2272.62 2066.36C2271.21 2094.84 2277.28 2109.51 2280.48 2113.29L2277.98 2115.39L2247.44 2142.52C2243.38 2131.11 2236.05 2102.88 2238.18 2078.71C2238.25 2077.92 2238.33 2077.13 2238.42 2076.33C2238.33 2077.12 2238.25 2077.91 2238.18 2078.71C2235.03 2111.72 2241.89 2135.87 2245.81 2143.96L2215.14 2172.34C2209.11 2160.18 2197.34 2131.78 2198.57 2115.49C2196.67 2136.81 2207.61 2163.4 2213.32 2174.03L2210.07 2177.03L2184.5 2201.07L2177.07 2209.16L2155.57 2232.37C2151.05 2225.29 2142.33 2210.15 2141.89 2203.71C2141.87 2203.4 2141.87 2203.1 2141.88 2202.81C2141.86 2203.09 2141.86 2203.39 2141.89 2203.71C2142.19 2212.09 2149.85 2227.44 2153.78 2234.3L2150.35 2238.01L2099.55 2281.7L2096.61 2283.04L2094.95 2278.26C2094.32 2277.52 2093.58 2274.91 2095.67 2270.42C2110.47 2254.58 2112.21 2227.99 2111.23 2216.67C2113.62 2208.99 2120.53 2191.05 2128.97 2180.74C2149.99 2153.98 2150.4 2112.61 2153.91 2110.26C2159.1 2109.96 2181.84 2085.83 2189.59 2079.15C2197.34 2072.46 2202.64 2062.01 2204.8 2058.96C2206.53 2056.52 2219.84 2052.05 2226.28 2050.12L2250.64 2045.01C2257.85 2045.69 2275.13 2047.53 2286.55 2049.37C2302.37 2046.12 2323.01 2075.74 2324.86 2077.39Z" fill="#CAA672"/>
<path d="M2101.07 2284.73L2099.55 2281.7L2150.35 2238.01L2153.78 2234.3L2155.57 2232.37L2177.07 2209.16L2184.5 2201.07L2210.07 2177.03L2213.32 2174.03L2215.14 2172.34L2245.81 2143.96L2247.44 2142.52L2277.98 2115.39L2280.48 2113.29L2282.07 2111.97L2304.75 2092.98L2324.27 2092.83L2305 2096.28L2278.3 2119.66L2270.37 2126.86L2267.51 2129.45L2246.17 2148.82L2235.15 2159.2L2232.17 2162.01L2210.47 2182.47L2203.99 2188.7L2201.96 2190.65L2177.45 2214.21L2169.51 2222.47L2168.08 2223.47L2150.61 2241.64L2140.86 2250.51L2101.07 2284.73Z" fill="#715D58"/>
<path d="M2096.61 2283.04L2099.55 2281.7L2101.07 2284.73L2090.34 2295.1L2085.2 2293.08L2096.61 2283.04Z" fill="#715D58"/>
<path d="M2106.56 2288.51L2101.07 2284.73L2140.86 2250.51L2150.61 2241.64L2168.08 2223.47C2168.19 2223.5 2168.3 2223.54 2168.42 2223.58C2178.9 2227.06 2202.43 2234.36 2211.54 2232.14C2199.07 2232.55 2178.32 2225.86 2169.51 2222.47L2177.45 2214.21L2201.96 2190.65C2219.55 2198.64 2261.54 2212.25 2288.78 2202.72C2259.62 2207.37 2220.1 2195.31 2203.99 2188.7L2210.47 2182.47L2232.17 2162.01C2246.23 2167.25 2282.11 2176.4 2313.13 2171.09C2288.52 2174.76 2250.89 2164.7 2235.15 2159.2L2246.17 2148.82L2267.51 2129.45C2273.79 2133.06 2290.01 2140.06 2304.7 2139.21C2288.38 2136.89 2275.01 2130.01 2270.37 2126.86L2278.3 2119.66L2305 2096.28L2324.27 2092.83C2326.6 2092.04 2332.86 2091.01 2339.27 2093.13C2351.39 2107.45 2352.12 2134.9 2350.78 2149.02C2349.71 2160.32 2337.18 2177.37 2331.05 2184.48C2326.2 2190.29 2312.55 2205.37 2296.73 2219.23C2280.92 2233.09 2248.5 2246.78 2234.27 2251.89C2230.11 2251.41 2219.26 2252.05 2209.14 2258.41C2199.02 2264.77 2182.75 2270.27 2175.88 2272.22C2165.58 2273.79 2144.04 2277.65 2140.25 2280.52C2136.47 2283.39 2116.22 2287.04 2106.56 2288.51Z" fill="#CAA672"/>
<path d="M2155.57 2232.37L2153.78 2234.3C2149.85 2227.44 2142.19 2212.09 2141.89 2203.71C2142.33 2210.15 2151.05 2225.29 2155.57 2232.37Z" fill="#715D58"/>
<path d="M2211.54 2232.14C2202.43 2234.36 2178.9 2227.06 2168.42 2223.58L2169.51 2222.47C2178.32 2225.86 2199.07 2232.55 2211.54 2232.14Z" fill="#715D58"/>
<path d="M2288.78 2202.72C2261.54 2212.25 2219.55 2198.64 2201.96 2190.65L2203.99 2188.7C2220.1 2195.31 2259.62 2207.37 2288.78 2202.72Z" fill="#715D58"/>
<path d="M2213.32 2174.03C2207.61 2163.4 2196.67 2136.81 2198.57 2115.49C2197.34 2131.78 2209.11 2160.18 2215.14 2172.34L2213.32 2174.03Z" fill="#715D58"/>
<path d="M2313.13 2171.09C2282.11 2176.4 2246.23 2167.25 2232.17 2162.01L2235.15 2159.2C2250.89 2164.7 2288.52 2174.76 2313.13 2171.09Z" fill="#715D58"/>
<path d="M2247.44 2142.52L2245.81 2143.96C2241.89 2135.87 2235.03 2111.72 2238.18 2078.71C2236.05 2102.88 2243.38 2131.11 2247.44 2142.52Z" fill="#715D58"/>
<path d="M2304.7 2139.21C2290.01 2140.06 2273.79 2133.06 2267.51 2129.45L2270.37 2126.86C2275.01 2130.01 2288.38 2136.89 2304.7 2139.21Z" fill="#715D58"/>
<path d="M2280.48 2113.29C2277.28 2109.51 2271.21 2094.84 2272.62 2066.36C2274.81 2096.03 2279.83 2109.13 2282.07 2111.97L2280.48 2113.29Z" fill="#715D58"/>
<path d="M2250.64 2297.16C2256.62 2287.13 2269.75 2266.34 2274.4 2263.42C2269.84 2267.58 2258.24 2287.44 2253 2296.85L2250.64 2297.16Z" fill="#715D58"/>
<path d="M2297.9 2290.68L2295.34 2291.27C2298.4 2280.49 2308.11 2255.68 2323.18 2239.19C2313.31 2250.67 2302.39 2277.74 2297.9 2290.68Z" fill="#715D58"/>
<path d="M2347.37 2284.76C2350.39 2265.02 2361.85 2223.62 2383.51 2215.98C2364.8 2223.61 2353.35 2264.91 2349.96 2284.61L2347.37 2284.76Z" fill="#715D58"/>
<path d="M2363.22 2293.72L2361.02 2287.48L2364.33 2286.85L2366.42 2294.11C2365.38 2293.98 2364.31 2293.85 2363.22 2293.72Z" fill="#715D58"/>
<path d="M2383.03 2279.92L2379.48 2280.56C2386.5 2264.6 2404.48 2229.81 2421.12 2216.08C2408.79 2226.53 2390.71 2262.71 2383.03 2279.92Z" fill="#715D58"/>
<path d="M2468.22 2310.94C2450.69 2308.67 2434.11 2284.02 2428.01 2271.98L2430.35 2271.27C2437.63 2283.69 2455.41 2309.03 2468.22 2310.94Z" fill="#715D58"/>
<path d="M1868.62 2280.62L1908.3 2262.58C1907.69 2261.96 1907.1 2261.37 1906.53 2260.82C1905.64 2259.96 1904.82 2259.19 1904.11 2258.53C1893.85 2263.7 1872.87 2273.99 1871.04 2273.82C1869.2 2273.65 1843.55 2288.68 1830.95 2296.22C1814.27 2306.17 1779.14 2327.6 1772.01 2333.71C1764.08 2338.19 1763.02 2342.4 1763.48 2343.94C1765.15 2344.21 1768.41 2344.23 1768.11 2342.15C1767.81 2340.08 1796.17 2322.44 1810.38 2313.87L1836.99 2297.59L1868.62 2280.62Z" fill="#514842"/>
<path d="M1768.11 2342.15C1768.41 2344.23 1765.15 2344.21 1763.48 2343.94L1694.94 2355.85L1703.38 2363.52L1749.11 2353.37L1797.1 2346.01L1806 2351.48L1822.63 2356.85L1847.4 2363.61L1867.79 2369.02L1904.22 2378.51L1935.25 2385.35L1959.4 2391.18L1964.41 2391.24L1965.71 2388.67L1964.89 2387.92L1964.06 2387.17L1936.16 2380.93L1904.71 2373.72L1869.53 2364.98L1850.17 2360.13L1826.66 2353.39L1809.82 2348.2L1804.88 2343.71L1819.3 2343.33L1855.09 2340.63L1873.5 2340.11L1898.42 2336.91L1966.44 2331.65L2018.76 2327.85L2080.88 2325.84L2078.41 2323.6L2079.28 2321.39L2019.04 2323.61L1965.26 2327.2L1897.04 2332.28L1874.4 2335.7L1857.06 2335.67L1821.48 2338.19L1768.11 2342.15Z" fill="#514842"/>
<path d="M1966.96 2376.32C1971.9 2381.11 1970.45 2384.61 1969.1 2385.76L1976.02 2384.55L1996.91 2372.81L2010.21 2364.66L2012.48 2366.72L2001.03 2376.55L1978.7 2386.98L2012.8 2385.37L2058.51 2389.43L2136.63 2392.6L2136.38 2394.99L2056.34 2394.2L2017.33 2389.48L1989.09 2390.43L1980.1 2390.51L1987.76 2395.22L2011.84 2405.11L2032.31 2418.83L2051.8 2428.66L2073.05 2432.98L2075.31 2435.04L2052.18 2430.88L2034.15 2421.62L2011.79 2408.06L1987.28 2398.9L1979.4 2395.11L1974.01 2392.46L1982.22 2401.42L1980.28 2404.91L1976.83 2398.77C1969.04 2402.19 1956.23 2411.07 1967.29 2419.33C1978.36 2427.59 2017.36 2446.58 2035.48 2455.04C2039.99 2456.02 2052.2 2457.65 2064.93 2456.33C2090.63 2459.3 2127.48 2448.72 2142.69 2443.06L2209.51 2422.46L2272.63 2397.02L2310.29 2382.16L2269.65 2387.57L2178.27 2364.49C2174.39 2363.74 2169.74 2362.83 2164.61 2361.82C2141.79 2357.35 2109.56 2350.96 2093.35 2347.52C2091.41 2347.11 2089.71 2346.74 2088.27 2346.42C2073.47 2341.66 2042.63 2338.3 2029.06 2337.21C2016.58 2337.86 1990.18 2339.58 1984.47 2341.28C1979.29 2340.77 1966.13 2350.84 1960.19 2355.93L1959.38 2366.81C1959.85 2367.99 1962.02 2371.54 1966.96 2376.32Z" fill="#B59E7F"/>
<path d="M1965.71 2388.67L1964.41 2391.24L1976.83 2398.77L1980.28 2404.91L1982.22 2401.42L1974.01 2392.46L1979.4 2395.11L1987.28 2398.9L2011.79 2408.06L2034.15 2421.62L2052.18 2430.88L2075.31 2435.04L2073.05 2432.98L2051.8 2428.66L2032.31 2418.83L2011.84 2405.11L1987.76 2395.22L1980.1 2390.51L1989.09 2390.43L2017.33 2389.48L2056.34 2394.2L2136.38 2394.99L2136.63 2392.6L2058.51 2389.43L2012.8 2385.37L1978.7 2386.98L2001.03 2376.55L2012.48 2366.72L2010.21 2364.66L1996.91 2372.81L1976.02 2384.55L1969.1 2385.76L1964.89 2387.92L1965.71 2388.67Z" fill="#A89076"/>
<path d="M2079.28 2321.39L2078.41 2323.6L2080.88 2325.84L2088.7 2332.95L2093.35 2347.52C2109.56 2350.96 2141.79 2357.35 2164.61 2361.82L2179.71 2353.44L2209.07 2347.52L2250.06 2333.8L2273.19 2325.23L2294.77 2322.35L2251.48 2311.12L2226.05 2306.75C2221.9 2304.61 2211.89 2300.56 2205.02 2301.51C2198.15 2302.46 2187.16 2298.77 2182.53 2296.81C2178.53 2293.93 2167.78 2288.51 2156.72 2289.85C2147.26 2285.75 2133.44 2286.06 2127.72 2286.73L2105.78 2298.64L2085.83 2317.23L2079.28 2321.39Z" fill="#B59E7F"/>
<path d="M1983.67 2237.54C1982.07 2234.59 1968.17 2235.88 1953.85 2238.17C1952.18 2240.89 1950.45 2247.06 1956.92 2249.95C1963.4 2252.83 1981.23 2244.31 1989.34 2239.69C1986.45 2239.46 1984.36 2238.8 1983.67 2237.54Z" fill="#A89076"/>
<path d="M1982.71 2232.54C1974.27 2227.57 1946.29 2234.8 1933.37 2239.04L1929.98 2242.71C1936.33 2241.31 1945.17 2239.56 1953.85 2238.17C1968.17 2235.88 1982.07 2234.59 1983.67 2237.54C1984.36 2238.8 1986.45 2239.46 1989.34 2239.69C1997.33 2240.34 2011.48 2237.78 2019.44 2235.94C2028.35 2232.3 2047.4 2226.65 2052.31 2233.2C2057.21 2239.76 2080.29 2226.53 2091.21 2219.1L2088.74 2216.85C2078.8 2223.44 2056.95 2235.33 2049.01 2230.21C2041.07 2225.09 2023.79 2229.9 2016.15 2232.95C2008.52 2234.89 1991.16 2237.52 1982.71 2232.54Z" fill="#A89076"/>
<path d="M1921.09 2280.71L2008.71 2270.63C2013.64 2274.4 2026.11 2282.68 2036.6 2285.62C2047.09 2288.55 2025.39 2276.93 2013.23 2270.75L2042.77 2266.13C2043.01 2264.59 2042.73 2261.37 2039.73 2260.74C2036.73 2260.11 2015.6 2265.07 2005.41 2267.63L1919.94 2277.41C1920.52 2278.6 1920.92 2279.71 1921.09 2280.71Z" fill="#A89076"/>
<path d="M1880.01 2236.65C1887.81 2240.43 1899.32 2252.82 1904.11 2258.53L1896.13 2222.81L1900.29 2223.6L1906.53 2260.82C1907.1 2261.37 1907.69 2261.96 1908.3 2262.58L1971.67 2192.54L1974.14 2194.79L1933.37 2239.04C1946.29 2234.8 1974.27 2227.57 1982.71 2232.54C1991.16 2237.52 2008.52 2234.89 2016.15 2232.95C2023.79 2229.9 2041.07 2225.09 2049.01 2230.21C2056.95 2235.33 2078.8 2223.44 2088.74 2216.85L2091.21 2219.1C2080.29 2226.53 2057.21 2239.76 2052.31 2233.2C2047.4 2226.65 2028.35 2232.3 2019.44 2235.94C2011.48 2237.78 1997.33 2240.34 1989.34 2239.69C1981.23 2244.31 1963.4 2252.83 1956.92 2249.95C1950.45 2247.06 1952.18 2240.89 1953.85 2238.17C1945.17 2239.56 1936.33 2241.31 1929.98 2242.71L1910.02 2264.37C1913.86 2268.44 1917.95 2273.35 1919.94 2277.41L2005.41 2267.63C2015.6 2265.07 2036.73 2260.11 2039.73 2260.74C2042.73 2261.37 2043.01 2264.59 2042.77 2266.13L2013.23 2270.75C2025.39 2276.93 2047.09 2288.55 2036.6 2285.62C2026.11 2282.68 2013.64 2274.4 2008.71 2270.63L1921.09 2280.71C1922.15 2287.07 1930.8 2296.02 1934.99 2299.7C1940.85 2303.4 1954.36 2311.68 1961.49 2315.16C1970.41 2319.51 1995.51 2317.97 2008.67 2318.69C2019.2 2319.26 2039.44 2316.41 2048.24 2314.92C2055.1 2309.04 2071.21 2296.15 2080.81 2291.69C2099.82 2284.98 2117.84 2273.13 2124.47 2268.04C2127.36 2266.3 2134.18 2262.33 2138.39 2260.46C2143.76 2259.35 2156.89 2246.04 2162.78 2239.53L2166.45 2232.01C2172.34 2229.87 2184.76 2225.03 2187.3 2222.85C2200.81 2214.74 2207.4 2204.14 2209 2199.86L2212.53 2188.83L2223.98 2179L2241.86 2171.65L2253.95 2161.27L2237.33 2167.53L2185.58 2175.21C2177.62 2176.1 2160.04 2177.33 2153.39 2175.19C2146.63 2169.34 2136.05 2174.54 2131.6 2177.87L2105.7 2176.82C2099.12 2174.59 2084.61 2170.47 2079.24 2171.88C2073.86 2173.3 2068.9 2173.36 2067.09 2173.21C2062.86 2171.99 2052.37 2171.3 2044.22 2178.29C2032.64 2180.95 2007.33 2180.24 1996.13 2179.55C1982.2 2179.13 1951.58 2178.34 1940.54 2178.5C1929.5 2178.66 1910.16 2195.61 1901.87 2204.06L1904.07 2209.81L1894.32 2218.18L1886.5 2211.07C1881.09 2218.02 1872.21 2232.86 1880.01 2236.65Z" fill="#B59E7F"/>
<path d="M1896.13 2222.81L1904.11 2258.53C1904.82 2259.19 1905.64 2259.96 1906.53 2260.82L1900.29 2223.6L1896.13 2222.81Z" fill="#A89076"/>
<path d="M1971.67 2192.54L1908.3 2262.58C1908.86 2263.15 1909.44 2263.75 1910.02 2264.37L1929.98 2242.71L1933.37 2239.04L1974.14 2194.79L1971.67 2192.54Z" fill="#A89076"/>
<path d="M2087.26 2306.54L2085.83 2317.23L2105.78 2298.64C2105.52 2297.78 2104.41 2295.89 2102.08 2295.27C2099.74 2294.65 2091.23 2302.52 2087.26 2306.54Z" fill="#A4896E"/>
<path d="M1763.07 2191.63L1775.13 2153.69C1774.2 2153.67 1773.31 2153.65 1772.47 2153.64C1771.15 2153.62 1769.95 2153.63 1768.92 2153.65C1766.22 2163.8 1760.47 2184.37 1759.07 2185.44C1757.68 2186.52 1752.68 2213.34 1750.35 2226.62C1747.24 2244.18 1741.08 2281.49 1741.3 2290.26C1739.62 2298.44 1742.38 2301.99 1743.98 2302.74C1745.33 2301.85 1747.57 2299.75 1745.65 2298.53C1743.72 2297.32 1748.4 2266.96 1750.98 2251.94L1755.6 2223.64L1763.07 2191.63Z" fill="#514842"/>
<path d="M1745.65 2298.53C1747.57 2299.75 1745.33 2301.85 1743.98 2302.74L1707.16 2355.17L1719.28 2354.94L1742.01 2318.45L1768.59 2282.41L1779.18 2280.38L1794.96 2273.28L1817.43 2261.88L1835.81 2252.38L1868.48 2235.29L1895.29 2219.88L1916.57 2208.23L1920.04 2205.03L1918.79 2202.44L1917.61 2202.47L1916.43 2202.49L1892.24 2216.28L1864.85 2231.7L1833.65 2248.5L1816.44 2257.72L1794.84 2268.32L1779.06 2275.68L1771.97 2275.82L1781.48 2266.23L1803.62 2241.25L1815.72 2229L1830.04 2210.7L1872 2163.13L1904.49 2126.72L1945.12 2085.19L1941.57 2085.25L1940.34 2083.19L1901.16 2123.65L1867.51 2160.87L1825.26 2208.44L1812.68 2225.4L1800.84 2236.6L1778.7 2261.32L1745.65 2298.53Z" fill="#514842"/>
<path d="M1909.4 2193.22C1916.73 2193.29 1918.64 2196.61 1918.69 2198.27L1922.4 2192.97L1926.88 2171.47L1929.19 2157.32L1932.44 2157.26L1932.79 2171.35L1926.24 2192.9L1948.12 2169.75L1982.62 2142.96L2038.45 2094.6L2040.26 2096.39L1985.1 2147.61L1954.62 2169.62L1936.17 2188.52L1930.11 2194.39L1939.23 2192.64L1963.84 2183.81L1989.15 2179.92L2010.58 2174.01L2028.63 2163.22L2031.88 2163.15L2012.68 2175.28L1992.72 2180.63L1966.25 2185.85L1941.96 2195.46L1933.46 2197.98L1927.59 2199.66L1940.61 2200.45L1942.18 2204.08L1934.74 2202.13C1932.27 2209.49 1930.91 2223.83 1945.29 2222.3C1959.68 2220.76 2001.99 2208.48 2021.34 2202.53C2025.23 2200.28 2034.89 2193.49 2042.46 2184.36C2062.43 2169.77 2078.76 2138.73 2084.42 2125.04L2112.84 2067.81L2134.74 2009.67L2148.06 1975.2L2124.87 2005.16L2043.5 2048.53C2040.23 2050.53 2036.31 2052.92 2031.99 2055.55C2012.73 2067.26 1985.49 2083.75 1971.59 2091.88C1969.93 2092.86 1968.46 2093.71 1967.22 2094.42C1953.19 2100.75 1929.4 2118.4 1919.26 2126.43C1911.29 2134.94 1894.74 2153.18 1892.27 2158.04C1888.32 2161.04 1887.7 2176.41 1887.88 2183.72L1896.36 2191.65C1897.65 2192.15 1902.07 2193.16 1909.4 2193.22Z" fill="#B59E7F"/>
<path d="M1918.79 2202.44L1920.04 2205.03L1934.74 2202.13L1942.18 2204.08L1940.61 2200.45L1927.59 2199.66L1933.46 2197.98L1941.96 2195.46L1966.25 2185.85L1992.72 2180.63L2012.68 2175.28L2031.88 2163.15L2028.63 2163.22L2010.58 2174.01L1989.15 2179.92L1963.84 2183.81L1939.23 2192.64L1930.11 2194.39L1936.17 2188.52L1954.62 2169.62L1985.1 2147.61L2040.26 2096.39L2038.45 2094.6L1982.62 2142.96L1948.12 2169.75L1926.24 2192.9L1932.79 2171.35L1932.44 2157.26L1929.19 2157.32L1926.88 2171.47L1922.4 2192.97L1918.69 2198.27L1917.61 2202.47L1918.79 2202.44Z" fill="#A89076"/>
<path d="M1940.34 2083.19L1941.57 2085.25L1945.12 2085.19L1956.34 2084.97L1971.59 2091.88C1985.49 2083.75 2012.73 2067.26 2031.99 2055.55L2035.31 2040.07L2050.4 2017.06L2066.94 1981.22L2075.58 1960.41L2087.89 1944.5L2049.09 1964.85L2028.15 1978.32C2023.55 1979.54 2013.38 1983.25 2009.49 1988.34C2005.6 1993.43 1995.05 1998.03 1990.27 1999.69C1985.16 2000.31 1973.34 2003.57 1966.92 2011.63C1957.08 2014.96 1947.93 2024.1 1944.58 2028.26L1939.52 2050.56L1941.35 2076.12L1940.34 2083.19Z" fill="#B59E7F"/>
<path d="M1805.7 2087.9C1802.15 2086.93 1793.76 2096.8 1785.91 2107.61C1787.03 2110.55 1790.97 2115.87 1797.77 2113.65C1804.57 2111.43 1809.65 2094.09 1811.34 2085.7C1809.17 2087.41 1807.21 2088.32 1805.7 2087.9Z" fill="#A89076"/>
<path d="M1800.9 2085.12C1791.02 2087.2 1777.97 2110.21 1772.68 2121.45L1773.42 2126.14C1776.58 2121.08 1781.15 2114.17 1785.91 2107.61C1793.76 2096.8 1802.15 2086.93 1805.7 2087.9C1807.21 2088.32 1809.17 2087.41 1811.34 2085.7C1817.32 2080.98 1824.84 2070.09 1828.73 2063.69C1831.78 2055.44 1840.06 2039.28 1848.84 2040.57C1857.62 2041.86 1862.36 2017.94 1863.64 2005.81L1860.09 2005.88C1858.79 2016.79 1853.77 2039.01 1844.12 2040.66C1834.46 2042.31 1826.69 2056.76 1824.01 2063.78C1820.42 2070.03 1810.78 2083.05 1800.9 2085.12Z" fill="#A89076"/>
<path d="M1798.87 2157.77L1850.18 2094.25C1856.67 2093.63 1872.04 2091.21 1881.61 2086.42C1891.18 2081.64 1866.77 2087.76 1853.36 2091.41L1869.65 2069.16C1868.54 2067.96 1865.67 2065.94 1863.11 2067.46C1860.55 2068.97 1850.27 2086.01 1845.46 2094.34L1795.35 2156.27C1796.73 2156.7 1797.93 2157.2 1798.87 2157.77Z" fill="#A89076"/>
<path d="M1734.36 2154.32C1742.81 2151.86 1760.92 2152.85 1768.92 2153.65L1733.86 2134.48L1737.36 2132.33L1772.47 2153.64C1773.31 2153.65 1774.2 2153.67 1775.13 2153.69L1760.2 2065.02L1763.75 2064.95L1772.68 2121.45C1777.97 2110.21 1791.02 2087.2 1800.9 2085.12C1810.78 2083.05 1820.42 2070.03 1824.01 2063.78C1826.69 2056.76 1834.46 2042.31 1844.12 2040.66C1853.77 2039.01 1858.79 2016.79 1860.09 2005.88L1863.64 2005.81C1862.36 2017.94 1857.62 2041.86 1848.84 2040.57C1840.06 2039.28 1831.78 2055.44 1828.73 2063.69C1824.84 2070.09 1817.32 2080.98 1811.34 2085.7C1809.65 2094.09 1804.57 2111.43 1797.77 2113.65C1790.97 2115.87 1787.03 2110.55 1785.91 2107.61C1781.15 2114.17 1776.58 2121.08 1773.42 2126.14L1777.79 2153.8C1783.78 2154.09 1790.63 2154.79 1795.35 2156.27L1845.46 2094.34C1850.27 2086.01 1860.55 2068.97 1863.11 2067.46C1865.67 2065.94 1868.54 2067.96 1869.65 2069.16L1853.36 2091.41C1866.77 2087.76 1891.18 2081.64 1881.61 2086.42C1872.04 2091.21 1856.67 2093.63 1850.18 2094.25L1798.87 2157.77C1804.87 2161.41 1818.18 2161.92 1824.09 2161.72C1831.15 2160.45 1847.21 2157.35 1854.96 2155.11C1864.64 2152.31 1880.46 2135.02 1890.01 2127C1897.65 2120.58 1909.08 2105.56 1913.84 2098.85C1913.63 2090.41 1913.92 2071.22 1916.76 2061.97C1924.14 2045.11 1926.58 2025.39 1926.88 2017.64C1927.4 2014.58 1928.75 2007.47 1930.07 2003.47C1932.8 1999.24 1930.71 1981.69 1929.32 1973.45L1925.59 1965.95C1927.82 1960.68 1932.27 1949.36 1932.19 1946.23C1934.67 1931.98 1930.36 1920.5 1927.9 1916.54L1921.16 1906.75L1920.8 1892.65L1926.89 1876.08L1926.52 1861.2L1920.39 1876.21L1891.51 1914.9C1886.83 1920.65 1875.88 1932.86 1869.57 1935.7C1860.12 1936.09 1857.23 1946.47 1856.96 1951.62L1838.45 1967.65C1832.12 1970.38 1818.82 1976.96 1816.33 1981.4C1813.84 1985.83 1810.52 1989.08 1809.16 1990.16C1805.27 1992.06 1797.55 1998.37 1797.8 2008.4C1792.12 2017.7 1774.29 2033.58 1766.09 2040.36C1756.26 2049.08 1734.75 2068.34 1727.37 2075.59C1719.98 2082.83 1720.86 2106.88 1722.22 2118L1728.49 2120.49L1728.79 2132.49L1717.57 2132.71C1719.64 2140.94 1725.91 2156.79 1734.36 2154.32Z" fill="#B59E7F"/>
<path d="M1733.86 2134.48L1768.92 2153.65C1769.95 2153.63 1771.15 2153.62 1772.47 2153.64L1737.36 2132.33L1733.86 2134.48Z" fill="#A89076"/>
<path d="M1760.2 2065.02L1775.13 2153.69C1775.99 2153.72 1776.88 2153.75 1777.79 2153.8L1773.42 2126.14L1772.68 2121.45L1763.75 2064.95L1760.2 2065.02Z" fill="#A89076"/>
<path d="M1933.46 2067.91L1941.35 2076.12L1939.52 2050.56C1938.63 2050.14 1936.31 2049.58 1934.21 2050.66C1932.11 2051.75 1932.83 2062.62 1933.46 2067.91Z" fill="#A4896E"/>
<path d="M1096.73 2285.37L1052.18 2283C1052.46 2282.22 1052.73 2281.47 1052.99 2280.76C1053.41 2279.66 1053.81 2278.66 1054.17 2277.81C1065.91 2278.88 1089.81 2280.81 1091.41 2280C1093.01 2279.19 1123.35 2283.8 1138.32 2286.21C1158.13 2289.37 1200.07 2296.45 1209.38 2299.5C1218.69 2300.78 1221.58 2304.25 1221.87 2305.82C1220.46 2306.66 1217.49 2307.84 1216.81 2305.84C1216.14 2303.84 1182.13 2297.8 1165.21 2295.03L1133.42 2289.61L1096.73 2285.37Z" fill="#514842"/>
<path d="M1216.81 2305.84C1217.49 2307.84 1220.46 2306.66 1221.87 2305.82L1290.02 2292.28L1285.8 2302.31L1239.32 2309.32L1192.05 2319.7L1186.41 2327.87L1173.65 2338.71L1154.08 2353.72L1137.9 2365.95L1108.91 2387.61L1083.64 2404.93L1064.21 2418.87L1059.65 2420.72L1057.29 2418.83L1057.7 2417.85L1058.12 2416.87L1080.79 2401.21L1106.26 2383.4L1134.46 2362.87L1149.95 2351.54L1168.38 2336.98L1181.42 2326.23L1183.89 2320.36L1170.52 2325.16L1136.54 2335.44L1119.46 2341.53L1095.19 2347.49L1030.55 2366.92L980.953 2382.09L923.204 2402.39L924.439 2399.46L922.633 2397.75L978.759 2378.31L1029.6 2362.43L1094.35 2342.75L1116.61 2337.81L1132.47 2331.61L1166.17 2321.23L1216.81 2305.84Z" fill="#514842"/>
<path d="M1050.5 2407.97C1048.17 2414.11 1051.1 2416.8 1052.86 2417.37L1045.98 2418.73L1021.5 2415.43L1005.6 2412.72L1004.47 2415.41L1019.44 2420.33L1044.64 2421.91L1012.7 2432.59L972.74 2452.6L902.71 2483.34L904.033 2485.44L976.906 2456.19L1010.44 2437.97L1036.7 2428.77L1044.96 2425.64L1040.11 2432.67L1022.6 2450.31L1010.14 2470.16L996.812 2486.1L979.345 2497.63L978.213 2500.32L997.478 2488.27L1009.74 2473.37L1023.99 2452.99L1042.23 2435.87L1047.71 2429.6L1051.43 2425.26L1048.01 2436.38L1051.38 2438.88L1051.74 2432.03C1060.42 2432.38 1076.21 2435.94 1069.86 2447.44C1063.51 2458.94 1036.51 2490.22 1023.8 2504.42C1020.12 2506.92 1009.7 2512.76 997.444 2516.09C975.286 2527.97 936.735 2531.43 920.229 2531.67L849.687 2536.64L780.3 2535.86L739.05 2535.69L778.707 2526.16L851.765 2472.47C854.975 2470.39 858.814 2467.91 863.042 2465.16C881.876 2452.93 908.445 2435.6 921.703 2426.67C923.285 2425.6 924.678 2424.66 925.845 2423.85C937.215 2414.22 963.891 2400.15 975.808 2394.32C987.525 2390.47 1012.46 2382.63 1018.47 2382.15C1022.97 2379.85 1039.62 2384.36 1047.38 2386.91L1053.09 2396.57C1053.2 2397.82 1052.83 2401.83 1050.5 2407.97Z" fill="#B59E7F"/>
<path d="M1057.29 2418.83L1059.65 2420.72L1051.74 2432.03L1051.38 2438.88L1048.01 2436.38L1051.43 2425.26L1047.71 2429.6L1042.23 2435.87L1023.99 2452.99L1009.74 2473.37L997.478 2488.27L978.213 2500.32L979.345 2497.63L996.812 2486.1L1010.14 2470.16L1022.6 2450.31L1040.11 2432.67L1044.96 2425.64L1036.7 2428.77L1010.44 2437.97L976.906 2456.19L904.033 2485.44L902.71 2483.34L972.74 2452.6L1012.7 2432.59L1044.64 2421.91L1019.44 2420.33L1004.47 2415.41L1005.6 2412.72L1021.5 2415.43L1045.98 2418.73L1052.86 2417.37L1057.7 2417.85L1057.29 2418.83Z" fill="#A89076"/>
<path d="M922.633 2397.75L924.439 2399.46L923.204 2402.39L919.294 2411.69L921.703 2426.67C908.445 2435.6 881.876 2452.93 863.042 2465.16L845.396 2462.87L815.827 2467.92L772.059 2469.98L746.972 2470.38L725.916 2475.44L760.39 2449.73L781.658 2436.67C784.471 2433.23 791.778 2425.96 798.499 2424.38C805.221 2422.8 813.589 2415.51 816.932 2412.06C819.27 2408 826.629 2399.21 837.36 2396.49C844.144 2389.37 856.926 2384.73 862.469 2383.3L887.985 2386.38L914.737 2396.27L922.633 2397.75Z" fill="#B59E7F"/>
<path d="M971.772 2286.96C971.893 2283.68 985.197 2279.91 999.344 2276.9C1002.12 2278.8 1006.52 2283.83 1001.92 2288.78C997.315 2293.72 977.101 2292.28 967.57 2290.95C970.111 2289.7 971.72 2288.36 971.772 2286.96Z" fill="#A89076"/>
<path d="M970.369 2282.04C975.822 2274.48 1004.72 2271.13 1018.49 2270.4L1023.26 2272.55C1016.81 2273.53 1007.92 2275.08 999.344 2276.9C985.197 2279.91 971.893 2283.68 971.772 2286.96C971.72 2288.36 970.111 2289.7 967.57 2290.95C960.557 2294.38 946.442 2297.09 938.316 2298.25C928.499 2298.09 908.492 2299.71 906.998 2307.45C905.505 2315.2 878.348 2311.32 864.956 2308.41L866.191 2305.48C878.289 2307.96 903.717 2311.05 908.644 2303.54C913.572 2296.03 931.576 2294.27 939.962 2294.33C947.826 2293.39 964.916 2289.61 970.369 2282.04Z" fill="#A89076"/>
<path d="M1048.76 2304.14L963.994 2326.15C961.21 2331.36 953.58 2343.39 945.327 2349.81C937.073 2356.23 951.615 2337.86 959.917 2327.88L930.769 2334.18C929.852 2332.86 928.634 2329.81 931.092 2328.16C933.55 2326.52 955.148 2323.53 965.64 2322.24L1048.31 2300.72C1048.32 2302.01 1048.46 2303.17 1048.76 2304.14Z" fill="#A89076"/>
<path d="M1066.21 2249.19C1060.8 2255.43 1055.93 2270.87 1054.17 2277.81L1045.14 2242.28L1041.69 2244.49L1052.99 2280.76C1052.73 2281.47 1052.46 2282.22 1052.18 2283L962.188 2241.51L960.953 2244.44L1018.49 2270.4C1004.72 2271.13 975.822 2274.48 970.369 2282.04C964.916 2289.61 947.826 2293.39 939.962 2294.33C931.576 2294.27 913.572 2296.03 908.644 2303.54C903.717 2311.05 878.289 2307.96 866.191 2305.48L864.956 2308.41C878.348 2311.32 905.505 2315.2 906.998 2307.45C908.492 2299.71 928.499 2298.09 938.316 2298.25C946.442 2297.09 960.557 2294.38 967.57 2290.95C977.101 2292.28 997.315 2293.72 1001.92 2288.78C1006.52 2283.83 1002.12 2278.8 999.344 2276.9C1007.92 2275.08 1016.81 2273.53 1023.26 2272.55L1051.42 2285.25C1049.77 2290.35 1048.28 2296.3 1048.31 2300.72L965.64 2322.24C955.148 2323.53 933.55 2326.52 931.092 2328.16C928.634 2329.81 929.852 2332.86 930.769 2334.18L959.917 2327.88C951.615 2337.86 937.073 2356.23 945.327 2349.81C953.58 2343.39 961.21 2331.36 963.994 2326.15L1048.76 2304.14C1050.7 2310.34 1046.88 2321.62 1044.73 2326.48C1041.06 2331.95 1032.48 2344.34 1027.55 2350.07C1021.38 2357.23 997.706 2364.77 985.995 2370.11C976.626 2374.38 956.81 2379 948.073 2380.77C939.111 2377.83 918.479 2371.78 907.652 2371.13C887.196 2371.76 865.293 2367.34 856.898 2365.05C853.459 2364.48 845.403 2363.29 840.695 2363.08C835.273 2363.97 817.185 2356.48 808.819 2352.62L802.016 2347.05C795.649 2347.19 782.083 2347.19 778.757 2346.1C762.691 2343.5 751.82 2336.15 748.393 2332.8L740.124 2323.96L725.156 2319.05L705.429 2318.7L689.63 2313.52L707.693 2313.32L758.555 2301.9C766.241 2299.87 782.89 2294.74 787.995 2290.4C791.51 2282.65 803.565 2283.63 809.154 2285.1L832.37 2274.9C837.372 2270.51 848.765 2261.58 854.327 2260.95C859.889 2260.33 864.458 2258.62 866.047 2257.84C869.359 2255.21 878.644 2250.84 889.288 2254.33C901.103 2252.64 923.932 2242.97 933.869 2238.34C946.422 2232.99 974.072 2221.36 984.246 2217.57C994.419 2213.78 1019.86 2222.39 1031.31 2227.17L1031.92 2233.21L1044.67 2237.4L1048.58 2228.1C1056.71 2232.53 1071.61 2242.95 1066.21 2249.19Z" fill="#B59E7F"/>
<path d="M1045.14 2242.28L1054.17 2277.81C1053.81 2278.66 1053.41 2279.66 1052.99 2280.76L1041.69 2244.49L1045.14 2242.28Z" fill="#A89076"/>
<path d="M962.188 2241.51L1052.18 2283C1051.93 2283.73 1051.67 2284.48 1051.42 2285.25L1023.26 2272.55L1018.49 2270.4L960.953 2244.44L962.188 2241.51Z" fill="#A89076"/>
<path d="M908.543 2387.01L914.737 2396.27L887.985 2386.38C887.831 2385.5 887.987 2383.38 889.837 2381.98C891.686 2380.58 903.078 2384.75 908.543 2387.01Z" fill="#A4896E"/>
<path d="M1107.11 2259.21L1080.27 2227.73C1081.12 2227.41 1081.95 2227.1 1082.73 2226.82C1083.95 2226.39 1085.07 2226.01 1086.04 2225.7C1092.73 2234.29 1106.55 2251.61 1108.29 2252.16C1110.03 2252.71 1125.72 2276.1 1133.35 2287.72C1143.47 2303.09 1164.56 2335.87 1167.97 2344.12C1172.9 2351.2 1171.78 2355.39 1170.61 2356.61C1168.97 2356.2 1166.03 2354.97 1167.32 2353.22C1168.61 2351.47 1151.77 2324.69 1143.18 2311.52L1127.24 2286.64L1107.11 2259.21Z" fill="#514842"/>
<path d="M1167.32 2353.22C1166.03 2354.97 1168.97 2356.2 1170.61 2356.61L1226.48 2393.64L1215.09 2397.31L1178.91 2370.61L1139.31 2345.56L1128.61 2347.06L1110.99 2345.51L1085.36 2342.09L1064.33 2339.14L1026.86 2333.69L995.545 2327.94L970.925 2323.91L966.379 2322.04L966.476 2319.23L967.586 2318.87L968.697 2318.52L996.902 2323.61L1028.77 2329.19L1064.75 2334.83L1084.57 2337.9L1109.06 2340.85L1126.79 2342.65L1133.45 2340.5L1120.64 2334.62L1089.75 2318.44L1073.43 2310.91L1052.56 2298.46L993.898 2267.6L948.652 2244.09L893.709 2218.43L897.04 2217.36L897.34 2215.04L950.49 2240.17L997.15 2264.05L1056.09 2294.82L1074.79 2306.59L1090.42 2313.22L1121.22 2329.15L1167.32 2353.22Z" fill="#514842"/>
<path d="M971.433 2307.63C964.631 2310.04 964.213 2313.75 964.855 2315.31L959.22 2311.56L946.194 2292.97L938.225 2280.53L935.171 2281.51L940.642 2294.75L955.612 2312.72L925.702 2298.18L882.539 2284.28L810.629 2257.14L809.673 2259.39L882.142 2289.41L919.595 2300.14L944.553 2311.84L952.611 2315.36L943.398 2316.66L916.84 2316.32L891.652 2320.82L869.261 2322.19L847.999 2317.92L844.945 2318.9L867.825 2324.04L888.625 2322.62L915.43 2318.99L942.015 2320.16L950.976 2319.78L957.136 2319.46L945.327 2324.37L945.358 2328.26L951.487 2324.06C956.822 2330.12 963.984 2343.05 949.952 2346.23C935.92 2349.42 891.449 2351.55 870.968 2352.21C866.423 2351.36 854.629 2348.14 843.816 2342.06C819.207 2334.86 791.23 2311.19 780.318 2300.25L730.298 2256.05L685.979 2208.9L659.384 2181.05L693.316 2201.53L786.969 2215.84C790.842 2216.65 795.476 2217.62 800.584 2218.68C823.337 2223.42 855.508 2230.04 871.804 2233.16C873.749 2233.53 875.467 2233.86 876.917 2234.12C892.591 2235.52 922.019 2244.33 934.773 2248.56C945.695 2253.94 968.615 2265.62 972.922 2269.35C977.831 2270.88 984.732 2285 987.569 2291.87L982.938 2301.98C981.937 2302.86 978.236 2305.22 971.433 2307.63Z" fill="#B59E7F"/>
<path d="M966.476 2319.23L966.379 2322.04L951.487 2324.06L945.358 2328.26L945.327 2324.37L957.136 2319.46L950.976 2319.78L942.015 2320.16L915.43 2318.99L888.625 2322.62L867.825 2324.04L844.945 2318.9L847.999 2317.92L869.261 2322.19L891.652 2320.82L916.84 2316.32L943.398 2316.66L952.611 2315.36L944.553 2311.84L919.595 2300.14L882.142 2289.41L809.673 2259.39L810.629 2257.14L882.539 2284.28L925.702 2298.18L955.612 2312.72L940.642 2294.75L935.171 2281.51L938.225 2280.53L946.194 2292.97L959.22 2311.56L964.855 2315.31L967.586 2318.87L966.476 2319.23Z" fill="#A89076"/>
<path d="M897.34 2215.04L897.04 2217.36L893.709 2218.43L883.161 2221.83L871.804 2233.16C855.508 2230.04 823.337 2223.42 800.584 2218.68L791.121 2205.33L767.595 2188.73L737.439 2160.64L720.831 2144.03L702.816 2133.16L747.332 2139.67L772.383 2145.5C777.171 2145.16 788.176 2145.36 793.897 2148.85C799.617 2152.34 811.33 2153.24 816.472 2153.25C821.486 2152.19 833.838 2151.44 843.136 2156.9C853.678 2156.84 865.965 2162.42 870.79 2165.22L884.676 2184.37L893.494 2208.77L897.34 2215.04Z" fill="#B59E7F"/>
<path d="M1024.72 2176.24C1027.63 2174.2 1039.5 2180.7 1051.27 2188.26C1051.43 2191.35 1049.95 2197.57 1042.7 2197.68C1035.45 2197.8 1023.59 2183.27 1018.56 2176C1021.28 2176.9 1023.48 2177.11 1024.72 2176.24Z" fill="#A89076"/>
<path d="M1028.05 2172.11C1038.11 2170.87 1059.73 2188.12 1069.29 2196.91L1070.53 2201.51C1065.5 2197.81 1058.4 2192.84 1051.27 2188.26C1039.5 2180.7 1027.63 2174.2 1024.72 2176.24C1023.48 2177.11 1021.28 2176.9 1018.56 2176C1011.05 2173.51 999.562 2165.78 993.299 2161.07C987.071 2154.36 972.704 2141.96 965.055 2145.98C957.406 2150 943.144 2129.23 936.97 2118.34L940.301 2117.27C946.003 2127.01 959.824 2146.11 969.496 2144.55C979.168 2142.99 992.355 2153.96 997.74 2159.64C1003.65 2164.31 1018 2173.35 1028.05 2172.11Z" fill="#A89076"/>
<path d="M1059.82 2239.14L985.887 2196.42C979.59 2197.93 964.275 2200.6 953.388 2199.21C942.5 2197.83 967.764 2195.69 981.757 2194.8L957.425 2179.29C957.97 2177.82 959.813 2175.02 962.823 2175.61C965.833 2176.19 982.414 2188.77 990.328 2194.99L1062.48 2236.62C1061.38 2237.46 1060.47 2238.31 1059.82 2239.14Z" fill="#A89076"/>
<path d="M1118.51 2215.24C1109.63 2215.65 1093.16 2222.38 1086.04 2225.7L1110.81 2196.6L1106.67 2195.71L1082.73 2226.82C1081.95 2227.1 1081.12 2227.41 1080.27 2227.73L1057.7 2140.33L1054.37 2141.4L1069.29 2196.91C1059.73 2188.12 1038.11 2170.87 1028.05 2172.11C1018 2173.35 1003.65 2164.31 997.74 2159.64C992.355 2153.96 979.168 2142.99 969.496 2144.55C959.824 2146.11 946.003 2127.01 940.301 2117.27L936.97 2118.34C943.144 2129.23 957.406 2150 965.055 2145.98C972.704 2141.96 987.071 2154.36 993.299 2161.07C999.562 2165.78 1011.05 2173.51 1018.56 2176C1023.59 2183.27 1035.45 2197.8 1042.7 2197.68C1049.95 2197.57 1051.43 2191.35 1051.27 2188.26C1058.4 2192.84 1065.5 2197.81 1070.53 2201.51L1077.83 2228.68C1072.37 2230.87 1066.28 2233.73 1062.48 2236.62L990.328 2194.99C982.414 2188.77 965.833 2176.19 962.823 2175.61C959.813 2175.02 957.97 2177.82 957.425 2179.29L981.757 2194.8C967.764 2195.69 942.5 2197.83 953.388 2199.21C964.275 2200.6 979.59 2197.93 985.887 2196.42L1059.82 2239.14C1055.73 2244.46 1043.54 2249.2 1037.95 2250.91C1030.85 2251.99 1014.62 2254.26 1006.48 2254.65C996.305 2255.15 974.453 2244.12 962.253 2239.71C952.494 2236.19 935.668 2225.85 928.475 2221.13C925.2 2213.2 917.035 2195.41 910.582 2187.7C896.77 2174.36 886.38 2156.77 882.912 2149.64C881.175 2146.96 876.983 2140.77 874.11 2137.47C869.825 2134.4 864.557 2117.39 862.459 2109.26L862.852 2101.07C858.605 2096.88 849.808 2087.77 848.592 2084.82C840.416 2072.34 839.706 2060.26 840.373 2055.78L842.63 2044.5L837.159 2031.25L824.67 2017.76L818.895 2003.78L830.776 2015.8L873.603 2042.58C880.332 2046.44 895.552 2054.3 902.601 2054.92C911.565 2052.26 918.531 2061 920.893 2065.71L944.737 2074.7C951.764 2075.22 966.855 2077.09 970.999 2080.42C975.144 2083.76 979.582 2085.72 981.282 2086.28C985.692 2086.81 995.485 2090.21 999.376 2099.63C1008.49 2106.48 1031.64 2115.55 1042.07 2119.24C1054.81 2124.21 1082.77 2135.25 1092.63 2139.64C1102.5 2144.02 1111.57 2166.71 1114.88 2177.5L1110.06 2181.83L1114.72 2193.11L1125.27 2189.72C1126.72 2198.05 1127.4 2214.82 1118.51 2215.24Z" fill="#B59E7F"/>
<path d="M1110.81 2196.6L1086.04 2225.7C1085.07 2226.01 1083.95 2226.39 1082.73 2226.82L1106.67 2195.71L1110.81 2196.6Z" fill="#A89076"/>
<path d="M1057.7 2140.33L1080.27 2227.73C1079.48 2228.03 1078.66 2228.35 1077.83 2228.68L1070.53 2201.51L1069.29 2196.91L1054.37 2141.4L1057.7 2140.33Z" fill="#A89076"/>
<path d="M897.469 2198.6L893.494 2208.77L884.676 2184.37C885.34 2183.7 887.268 2182.43 889.672 2182.76C892.076 2183.1 895.872 2193.46 897.469 2198.6Z" fill="#A4896E"/>
<path d="M1589.51 2353.72C1597.5 2346.18 1598.34 2341.16 1597.77 2339.59C1591.25 2318.74 1566.91 2283.43 1556.49 2269.65C1548.14 2258.62 1514.48 2237.7 1498.69 2228.62C1478.71 2219.99 1435.17 2200.91 1420.92 2193.65C1406.66 2186.38 1396.15 2178.06 1392.67 2174.81L1367.47 2151.61C1363.99 2148.81 1355.3 2142.06 1348.35 2137.49C1341.4 2132.91 1335.03 2131.32 1332.71 2131.1H1317.93L1310.98 2132.44H1288.82C1286.65 2131.66 1280.65 2130.09 1274.05 2130.09C1259.8 2131.43 1248.99 2139.39 1245.37 2143.2C1234.8 2152.39 1211.13 2173.27 1201.05 2183.22C1190.97 2193.17 1170.49 2204.63 1161.51 2209.11L1121.97 2229.63C1110.81 2234.67 1085.38 2248.39 1072.87 2262.92C1057.22 2273.14 1042.88 2296.1 1037.67 2306.3L1023.33 2350.02C1036.19 2361.59 1059.98 2368.06 1070.26 2369.86L1154.56 2383.31L1231.47 2389.7H1329.23L1403.1 2387.34L1481.31 2380.62C1514.05 2374.79 1581.51 2361.25 1589.51 2353.72Z" fill="#EBB31F"/>
<path d="M1288.82 2132.44H1310.98C1311.68 2130.56 1304.32 2120 1300.55 2114.95C1298.67 2113.5 1294.21 2110.31 1291.43 2109.24C1289 2106.82 1281.44 2105.99 1277.96 2105.88L1271.01 2109.24C1270.28 2109.46 1268.92 2110.58 1269.27 2113.27C1269.62 2115.96 1271.73 2117.53 1272.74 2117.98C1275.21 2118.99 1280.91 2121.75 1284.04 2124.71C1287.17 2127.67 1288.53 2131.1 1288.82 2132.44Z" fill="#AF7B20"/>
<path d="M1014.96 2361.45C1011.99 2366.78 1009.82 2372.89 1010.73 2378.26C1010.9 2379.25 1011.46 2380.26 1012.37 2381.29L1031.59 2371.51C1020.89 2366.91 1016.11 2363.19 1014.96 2361.45Z" fill="#483320"/>
<path d="M1161.94 2420.13C1164.68 2420.47 1167.43 2420.8 1170.2 2421.12C1201.31 2424.75 1233.72 2427.31 1259.27 2426.69C1260.85 2426.65 1262.44 2426.61 1264.05 2426.58C1251.54 2424.07 1232.48 2410.57 1224.51 2404.13C1216.18 2403.22 1206.76 2402.16 1196.7 2400.98C1185.84 2405.17 1179.32 2410.39 1143.26 2417.7C1149.35 2418.53 1155.6 2419.35 1161.94 2420.13Z" fill="#87622D"/>
<path d="M1265.79 2426.54C1307.54 2425.62 1360.68 2425.3 1403.81 2423.75C1391.57 2424.13 1364.67 2410.97 1352.7 2404.32C1340.99 2404.58 1329.14 2404.78 1317.5 2404.93C1309.1 2411.52 1287 2425.07 1265.79 2426.54Z" fill="#87622D"/>
<path d="M1413.53 2423.37C1437.47 2422.36 1457.53 2420.89 1469.58 2418.62C1483.46 2418.62 1502.84 2414.78 1522.59 2409.57C1512.86 2410.67 1491.02 2400.44 1481.31 2395.18C1473.37 2396.45 1465.61 2397.46 1458.28 2398.11C1446.55 2405.42 1421.18 2420.72 1413.53 2423.37Z" fill="#87622D"/>
<path d="M1522.59 2409.57C1548.87 2402.64 1575.79 2393.3 1591.25 2387.34C1583.6 2387.34 1569.23 2380.01 1563 2376.35C1560.51 2377.07 1557.89 2377.81 1555.18 2378.56C1552.43 2385.32 1542.06 2400.99 1522.59 2409.57Z" fill="#87622D"/>
<path d="M1591.25 2387.34C1596.61 2383.65 1607.85 2373.62 1609.93 2363.13C1610.74 2359.08 1609.84 2355.17 1608.16 2351.7C1605.82 2354.95 1602.76 2357.89 1599.52 2360.44C1600.38 2365.82 1599.94 2378.74 1591.25 2387.34Z" fill="#87622D"/>
<path d="M1597.77 2339.59C1598.34 2341.16 1597.5 2346.18 1589.51 2353.72C1581.51 2361.25 1514.05 2374.79 1481.31 2380.62L1403.1 2387.34L1329.23 2389.7H1231.47L1154.56 2383.31L1070.26 2369.86C1059.98 2368.06 1036.19 2361.59 1023.33 2350.02C1021 2352.46 1017.65 2356.64 1014.96 2361.45C1016.11 2363.19 1020.89 2366.91 1031.59 2371.51C1033.67 2372.41 1035.99 2373.34 1038.54 2374.3C1043.1 2376 1048.42 2377.79 1054.62 2379.61C1063.49 2382.22 1080.32 2385.27 1100.68 2388.38C1129.81 2392.84 1166.16 2397.42 1196.7 2400.98C1206.76 2402.16 1216.18 2403.22 1224.51 2404.13C1227.89 2404.5 1231.09 2404.85 1234.07 2405.17C1255.24 2405.33 1285.57 2405.33 1317.5 2404.93C1329.14 2404.78 1340.99 2404.58 1352.7 2404.32C1396.31 2403.34 1437.82 2401.46 1458.28 2398.11C1465.61 2397.46 1473.37 2396.45 1481.31 2395.18C1506.67 2391.14 1533.96 2384.46 1555.18 2378.56C1557.89 2377.81 1560.51 2377.07 1563 2376.35C1570.61 2374.16 1577.14 2372.15 1582.12 2370.53C1585.96 2369.04 1593.1 2365.49 1599.52 2360.44C1602.76 2357.89 1605.82 2354.95 1608.16 2351.7C1605.48 2346.16 1600.79 2341.73 1597.77 2339.59Z" fill="#483320"/>
<path fill-rule="evenodd" clip-rule="evenodd" d="M1100.68 2388.38L1077.65 2388.69C1074.46 2392.17 1065.83 2399.54 1056.79 2401.14C1065.29 2403.75 1073.47 2405.96 1079.82 2407.52C1092.91 2409.99 1112.4 2413.3 1134.57 2416.48C1130.74 2415.94 1110.38 2397.52 1100.68 2388.38Z" fill="#87622D"/>
<path d="M1054.62 2379.61C1048.42 2377.79 1043.1 2376 1038.54 2374.3C1040.71 2382.01 1046.01 2397.73 1049.84 2398.95C1052.16 2399.7 1054.48 2400.44 1056.79 2401.14C1065.83 2399.54 1074.46 2392.17 1077.65 2388.69L1100.68 2388.38C1080.32 2385.27 1063.49 2382.22 1054.62 2379.61Z" fill="#483320"/>
<path d="M1100.68 2388.38C1110.38 2397.52 1130.74 2415.94 1134.57 2416.48C1137.42 2416.89 1140.32 2417.3 1143.26 2417.7C1179.32 2410.39 1185.84 2405.17 1196.7 2400.98C1166.16 2397.42 1129.81 2392.84 1100.68 2388.38Z" fill="#483320"/>
<path d="M1234.07 2405.17C1231.09 2404.85 1227.89 2404.5 1224.51 2404.13C1232.48 2410.57 1251.54 2424.07 1264.05 2426.58C1264.63 2426.56 1265.21 2426.55 1265.79 2426.54C1287 2425.07 1309.1 2411.52 1317.5 2404.93C1285.57 2405.33 1255.24 2405.33 1234.07 2405.17Z" fill="#483320"/>
<path d="M1403.97 2423.74C1407.22 2423.63 1410.41 2423.5 1413.53 2423.37C1421.18 2420.72 1446.55 2405.42 1458.28 2398.11C1437.82 2401.46 1396.31 2403.34 1352.7 2404.32C1364.67 2410.97 1391.57 2424.13 1403.81 2423.75C1403.87 2423.75 1403.92 2423.75 1403.97 2423.74Z" fill="#483320"/>
<path d="M1481.31 2395.18C1491.02 2400.44 1512.86 2410.67 1522.59 2409.57C1542.06 2400.99 1552.43 2385.32 1555.18 2378.56C1533.96 2384.46 1506.67 2391.14 1481.31 2395.18Z" fill="#483320"/>
<path d="M1582.12 2370.53C1577.14 2372.15 1570.61 2374.16 1563 2376.35C1569.23 2380.01 1583.6 2387.34 1591.25 2387.34C1599.94 2378.74 1600.38 2365.82 1599.52 2360.44C1593.1 2365.49 1585.96 2369.04 1582.12 2370.53Z" fill="#483320"/>
<path d="M1031.59 2371.51L1012.37 2381.29C1017.49 2387.13 1033.5 2393.62 1049.84 2398.95C1046.01 2397.73 1040.71 2382.01 1038.54 2374.3C1035.99 2373.34 1033.67 2372.41 1031.59 2371.51Z" fill="#87622D"/>
<path d="M1927.74 2399.85C1938.24 2394.49 1940.95 2389.88 1941 2388.25C1942.71 2366.86 1932.93 2327.6 1928.22 2312.06C1924.46 2299.63 1900.29 2271.98 1888.68 2259.71C1872.89 2246.91 1838.59 2218.77 1827.76 2208.58C1816.92 2198.4 1810.05 2188.06 1807.97 2184.16L1792.75 2156.26C1790.49 2152.8 1784.77 2144.37 1779.87 2138.42C1774.98 2132.47 1769.5 2129.5 1767.38 2128.75L1753.28 2125.38L1746.13 2125.08L1724.98 2120.03C1723.2 2118.78 1718.08 2115.92 1711.77 2114.41C1697.66 2112.45 1684.32 2117.58 1679.41 2120.39C1665.82 2126.76 1635.29 2141.29 1621.88 2148.49C1608.47 2155.7 1584.56 2161.96 1574.28 2164.2L1528.73 2174.76C1516.17 2177.04 1486.67 2184.33 1469.2 2195.35C1450.38 2201.54 1427.95 2220.19 1419.09 2228.74L1388.77 2267.21C1396.64 2281.19 1416.87 2292.79 1426.01 2296.85L1501.34 2328.92L1572.31 2352.56L1665.63 2374.85L1737.03 2389.45L1814.23 2400.87C1847.7 2402.77 1917.24 2405.22 1927.74 2399.85Z" fill="#831A01"/>
<path d="M1724.98 2120.03L1746.13 2125.08C1747.51 2123.44 1744.5 2111.68 1742.83 2106.01C1741.59 2104.19 1738.54 2100.13 1736.3 2098.47C1734.9 2095.6 1728 2093.09 1724.72 2092.19L1716.81 2093.81C1716.03 2093.86 1714.3 2094.62 1713.61 2097.27C1712.92 2099.92 1714.34 2101.9 1715.14 2102.56C1717.1 2104.08 1721.5 2108.02 1723.36 2111.55C1725.22 2115.09 1725.21 2118.68 1724.98 2120.03Z" fill="#590101"/>
<path d="M1376.43 2276.22C1371.56 2280.63 1367.16 2285.96 1365.99 2291.3C1365.77 2292.28 1365.93 2293.37 1366.4 2294.57L1388.47 2289.61C1380.01 2282.78 1376.86 2278.14 1376.43 2276.22Z" fill="#1F1B0E"/>
<path d="M1494.38 2365.76C1496.86 2366.71 1499.36 2367.65 1501.88 2368.59C1530.19 2379.14 1560.15 2388.98 1584.78 2394.21C1586.29 2394.54 1587.83 2394.87 1589.38 2395.2C1578.39 2389.95 1565.34 2372.71 1560.19 2364.75C1552.58 2361.98 1543.99 2358.82 1534.84 2355.4C1522.88 2356.92 1514.67 2360.42 1477.47 2359.17C1482.97 2361.36 1488.62 2363.57 1494.38 2365.76Z" fill="#9A7531"/>
<path d="M1591.06 2395.56C1631.25 2404.2 1682.09 2416.01 1723.85 2424.37C1712.02 2421.94 1691.35 2403.25 1682.46 2394.16C1671.19 2391.75 1659.8 2389.23 1648.63 2386.72C1638.1 2391.1 1611.85 2398.99 1591.06 2395.56Z" fill="#9A7531"/>
<path d="M1733.27 2426.22C1756.5 2430.72 1776.2 2433.89 1788.57 2434.47C1801.82 2437.63 1821.78 2438.39 1842.61 2437.92C1832.9 2436.75 1815.95 2422 1808.69 2414.77C1800.62 2414.17 1792.83 2413.36 1785.6 2412.31C1771.62 2416.62 1741.58 2425.43 1733.27 2426.22Z" fill="#9A7531"/>
<path d="M1842.61 2437.92C1870.33 2437.3 1899.58 2434.51 1916.6 2432.36C1909.3 2430.61 1898.38 2420.34 1893.83 2415.42C1891.17 2415.54 1888.39 2415.65 1885.52 2415.75C1880.32 2421.57 1864.46 2434.16 1842.61 2437.92Z" fill="#9A7531"/>
<path d="M1916.6 2432.36C1923.12 2430.05 1937.66 2423.04 1943.65 2413.5C1945.96 2409.82 1946.59 2405.88 1946.31 2402.18C1942.83 2404.75 1938.8 2406.86 1934.73 2408.56C1933.51 2413.89 1928.17 2426.12 1916.6 2432.36Z" fill="#9A7531"/>
<path d="M1941 2388.25C1940.95 2389.88 1938.24 2394.49 1927.74 2399.85C1917.24 2405.22 1847.7 2402.77 1814.23 2400.87L1737.03 2389.45L1665.63 2374.85L1572.31 2352.56L1501.34 2328.92L1426.01 2296.85C1416.87 2292.79 1396.64 2281.19 1388.77 2267.21C1385.61 2269.01 1380.83 2272.24 1376.43 2276.22C1376.86 2278.14 1380.01 2282.78 1388.47 2289.61C1390.12 2290.95 1391.97 2292.36 1394.04 2293.86C1397.74 2296.52 1402.15 2299.44 1407.36 2302.6C1414.84 2307.11 1429.75 2313.86 1447.98 2321.48C1474.1 2332.37 1507.05 2345.03 1534.84 2355.4C1543.99 2358.82 1552.58 2361.98 1560.19 2364.75C1563.27 2365.88 1566.19 2366.93 1568.92 2367.92C1589.06 2372.9 1618 2379.82 1648.63 2386.72C1659.8 2389.23 1671.19 2391.75 1682.46 2394.16C1724.46 2403.17 1764.79 2410.85 1785.6 2412.31C1792.83 2413.36 1800.62 2414.17 1808.69 2414.77C1834.43 2416.69 1863.02 2416.53 1885.52 2415.75C1888.39 2415.65 1891.17 2415.54 1893.83 2415.42C1901.92 2415.06 1908.91 2414.63 1914.29 2414.22C1918.51 2413.68 1926.69 2411.92 1934.73 2408.56C1938.8 2406.86 1942.83 2404.75 1946.31 2402.18C1945.85 2396.28 1943.07 2390.98 1941 2388.25Z" fill="#0E0302"/>
<path fill-rule="evenodd" clip-rule="evenodd" d="M1447.98 2321.48L1425.89 2316.52C1421.52 2319.11 1410.48 2324.18 1401.24 2323.65C1408.37 2328.07 1415.33 2332.05 1420.79 2334.99C1432.34 2340.33 1449.69 2347.94 1469.64 2356.03C1466.2 2354.64 1453.77 2332.41 1447.98 2321.48Z" fill="#9A7531"/>
<path d="M1407.36 2302.6C1402.15 2299.44 1397.74 2296.52 1394.04 2293.86C1393.18 2301.71 1392.26 2317.93 1395.44 2319.97C1397.37 2321.22 1399.31 2322.45 1401.24 2323.65C1410.48 2324.18 1421.52 2319.11 1425.89 2316.52L1447.98 2321.48C1429.75 2313.86 1414.84 2307.11 1407.36 2302.6Z" fill="#1F1B0E"/>
<path d="M1447.98 2321.48C1453.77 2332.41 1466.2 2354.64 1469.64 2356.03C1472.21 2357.07 1474.82 2358.12 1477.47 2359.17C1514.67 2360.42 1522.88 2356.92 1534.84 2355.4C1507.05 2345.03 1474.1 2332.37 1447.98 2321.48Z" fill="#1F1B0E"/>
<path d="M1568.92 2367.92C1566.19 2366.93 1563.27 2365.88 1560.19 2364.75C1565.34 2372.71 1578.39 2389.95 1589.38 2395.2C1589.94 2395.32 1590.5 2395.44 1591.06 2395.56C1611.85 2398.99 1638.1 2391.1 1648.63 2386.72C1618 2379.82 1589.06 2372.9 1568.92 2367.92Z" fill="#1F1B0E"/>
<path d="M1724 2424.4C1727.14 2425.03 1730.23 2425.64 1733.27 2426.22C1741.58 2425.43 1771.62 2416.62 1785.6 2412.31C1764.79 2410.85 1724.46 2403.17 1682.46 2394.16C1691.35 2403.25 1712.02 2421.94 1723.85 2424.37C1723.9 2424.38 1723.95 2424.39 1724 2424.4Z" fill="#1F1B0E"/>
<path d="M1808.69 2414.77C1815.95 2422 1832.9 2436.75 1842.61 2437.92C1864.46 2434.16 1880.32 2421.57 1885.52 2415.75C1863.02 2416.53 1834.43 2416.69 1808.69 2414.77Z" fill="#1F1B0E"/>
<path d="M1914.29 2414.22C1908.91 2414.63 1901.92 2415.06 1893.83 2415.42C1898.38 2420.34 1909.3 2430.61 1916.6 2432.36C1928.17 2426.12 1933.51 2413.89 1934.73 2408.56C1926.69 2411.92 1918.51 2413.68 1914.29 2414.22Z" fill="#1F1B0E"/>
<path d="M1388.47 2289.61L1366.4 2294.57C1369.07 2301.31 1381.88 2311.15 1395.44 2319.97C1392.26 2317.93 1393.18 2301.71 1394.04 2293.86C1391.97 2292.36 1390.12 2290.95 1388.47 2289.61Z" fill="#9A7531"/>
<path fill-rule="evenodd" clip-rule="evenodd" d="M237.141 1804.7C303.218 1982.95 819.447 1943.82 840.097 2082.95L786.409 2278.59C1331.08 2446.78 1647.59 2438.16 2227.72 2278.59L2161.64 2087.29C2264.89 1917.73 2648.96 2000.34 2776.99 1796C2859.59 1887.3 2781.12 2056.86 2797.64 2161.2L3000 2330.76C2902.82 2421.55 2841.33 2460.81 2719.17 2513.36L2743.95 2643.79C2314.43 2938.79 2046.74 2997.86 1542.17 2995.96C909.717 2983.39 618.948 2918.41 270.18 2648.14C269.58 2593.97 270.196 2563.58 299.088 2509.02C168.714 2454.36 96.9024 2422.64 10 2330.76C98.4653 2276.86 152.002 2253.9 212.362 2148.16C195.722 1954.79 184.142 1841.3 237.141 1804.7ZM270.18 2135.12C251.495 2041.45 248.762 1993.49 253.66 1913.39C381.685 2022.08 600.566 2004.69 757.5 2069.9C803.752 2119.11 797.012 2132.31 736.851 2135.12C632.057 2096.5 577.01 2091.15 480.801 2091.64C456.262 2082.74 338.435 2329.65 315.608 2456.85C219.35 2412.21 172.933 2384.38 100.856 2330.76C199.309 2280.01 232.525 2234.03 270.18 2135.12ZM728.591 2269.9L757.5 2191.64C654.205 2164.06 602.005 2157.89 509.71 2148.16C574.402 2212.69 620.744 2239.28 728.591 2269.9ZM327.997 2613.36C371.245 2430.12 406.749 2342.56 480.801 2200.33C852.716 2411.96 1098.49 2432.96 1542.17 2456.85C1945.67 2408.07 2182.18 2413.95 2537.46 2209.03C2618.51 2363.89 2639.85 2458.2 2677.87 2626.4C2275.85 2880.35 2022.56 2934.01 1542.17 2939.44C927.406 2965.36 584.047 2800.31 327.997 2613.36ZM2256.63 2191.64C2260.95 2225.5 2266.72 2241.52 2281.41 2265.55C2401.45 2230.33 2433.34 2197.95 2500.29 2143.81C2403.85 2154.73 2349.93 2162.45 2256.63 2191.64ZM2756.34 1909.04C2615.93 2013.38 2293.8 1995.28 2227.72 2104.68C2209.24 2147.18 2376.39 2095.99 2520.94 2095.99C2580.95 2131.56 2620.19 2243.9 2690.26 2448.15C2751.78 2443.19 2807.16 2407.1 2913.27 2330.76C2843.97 2294.71 2805.44 2271.3 2743.95 2161.2C2719.17 2065.56 2763.56 2002.94 2756.34 1909.04Z" fill="black"/>
<path d="M480.801 2200.33C406.749 2342.56 371.245 2430.12 327.997 2613.36C584.047 2800.31 927.406 2965.36 1542.17 2939.44C2022.56 2934.01 2275.85 2880.35 2677.87 2626.4C2639.85 2458.2 2618.51 2363.89 2537.46 2209.03C2182.18 2413.95 1945.67 2408.07 1542.17 2456.85C1098.49 2432.96 852.716 2411.96 480.801 2200.33Z" fill="#3A73AB"/>
<path d="M757.5 2191.64L728.591 2269.9C620.744 2239.28 574.402 2212.69 509.71 2148.16C602.005 2157.89 654.205 2164.06 757.5 2191.64Z" fill="#3A73AB"/>
<path d="M253.66 1913.39C248.762 1993.49 251.495 2041.45 270.18 2135.12C232.525 2234.03 199.309 2280.01 100.856 2330.76C172.933 2384.38 219.35 2412.21 315.608 2456.85C338.435 2329.65 456.262 2082.74 480.801 2091.64C577.01 2091.15 632.057 2096.5 736.851 2135.12C797.012 2132.31 803.752 2119.11 757.5 2069.9C600.566 2004.69 381.685 2022.08 253.66 1913.39Z" fill="#3A73AB"/>
<path d="M2227.72 2104.68C2293.8 1995.28 2615.93 2013.38 2756.34 1909.04C2763.56 2002.94 2719.17 2065.56 2743.95 2161.2C2805.44 2271.3 2843.97 2294.71 2913.27 2330.76C2807.16 2407.1 2751.78 2443.19 2690.26 2448.15C2620.19 2243.9 2580.95 2131.56 2520.94 2095.99C2376.39 2095.99 2209.24 2147.18 2227.72 2104.68Z" fill="#3A73AB"/>
<path d="M2281.41 2265.55C2266.72 2241.52 2260.95 2225.5 2256.63 2191.64C2349.93 2162.45 2403.85 2154.73 2500.29 2143.81C2433.34 2197.95 2401.45 2230.33 2281.41 2265.55Z" fill="#3A73AB"/>
<path d="M1232.91 2788.4L1218.91 2790.8C1215.71 2791.33 1212.38 2791.33 1208.91 2790.8C1205.44 2790.27 1201.84 2790 1198.11 2790C1197.31 2790 1196.11 2790 1194.51 2790C1192.91 2790 1191.04 2790 1188.91 2790C1187.04 2790 1185.18 2790.13 1183.31 2790.4C1181.44 2790.4 1179.84 2790.4 1178.51 2790.4L1169.71 2784.4C1170.51 2779.07 1170.24 2775.2 1168.91 2772.8C1167.84 2770.4 1167.04 2768.13 1166.51 2766C1165.98 2764.4 1164.91 2761.87 1163.31 2758.4C1161.71 2754.93 1160.24 2750.93 1158.91 2746.4C1158.91 2745.6 1157.58 2743.2 1154.91 2739.2C1152.24 2735.2 1150.11 2731.6 1148.51 2728.4L1143.71 2730.4C1142.38 2730.4 1140.91 2730.8 1139.31 2731.6C1137.71 2732.4 1133.71 2732.8 1127.31 2732.8C1126.51 2731.2 1125.18 2730.13 1123.31 2729.6C1121.44 2728.8 1119.31 2728.67 1116.91 2729.2C1114.78 2729.47 1112.51 2730.27 1110.11 2731.6C1107.98 2732.93 1106.11 2734.53 1104.51 2736.4L1088.11 2738.8C1087.04 2736.4 1085.84 2734.53 1084.51 2733.2C1083.44 2731.6 1082.24 2730.13 1080.91 2728.8C1079.84 2727.47 1078.91 2726 1078.11 2724.4C1077.31 2722.8 1076.91 2720.67 1076.91 2718C1082.24 2716.67 1085.31 2714.93 1086.11 2712.8C1087.18 2710.67 1087.98 2709.73 1088.51 2710C1090.11 2710.8 1091.58 2711.2 1092.91 2711.2C1091.04 2711.2 1090.51 2710.93 1091.31 2710.4C1092.11 2709.87 1095.71 2708.53 1102.11 2706.4L1131.31 2702.8L1137.31 2707.2C1141.58 2708.27 1144.78 2708.53 1146.91 2708C1149.04 2707.47 1150.51 2706.53 1151.31 2705.2C1152.11 2703.6 1152.51 2701.87 1152.51 2700C1152.78 2698.13 1153.04 2696.53 1153.31 2695.2C1153.84 2692.27 1153.18 2689.87 1151.31 2688C1149.71 2685.87 1147.44 2684 1144.51 2682.4C1143.98 2679.47 1142.91 2676.13 1141.31 2672.4C1139.98 2668.4 1138.24 2663.73 1136.11 2658.4C1134.24 2653.33 1132.51 2648 1130.91 2642.4C1129.58 2636.53 1128.38 2631.2 1127.31 2626.4C1126.24 2621.6 1125.44 2617.6 1124.91 2614.4C1124.38 2611.2 1123.98 2609.33 1123.71 2608.8C1119.98 2606.4 1116.91 2606.27 1114.51 2608.4C1112.11 2610.27 1110.11 2613.07 1108.51 2616.8C1107.18 2620.53 1106.24 2624.53 1105.71 2628.8C1105.44 2632.8 1105.44 2635.6 1105.71 2637.2C1105.44 2637.73 1104.78 2638.67 1103.71 2640C1102.64 2641.07 1101.44 2642.27 1100.11 2643.6C1098.78 2644.93 1097.58 2646.27 1096.51 2647.6C1095.44 2648.67 1094.78 2649.47 1094.51 2650C1093.44 2651.87 1093.18 2653.87 1093.71 2656C1094.24 2658.13 1093.84 2660 1092.51 2661.6C1087.18 2671.2 1080.91 2678.8 1073.71 2684.4C1071.84 2686 1070.38 2688.27 1069.31 2691.2C1068.24 2694.13 1067.58 2697.2 1067.31 2700.4C1067.04 2703.6 1067.31 2706.8 1068.11 2710C1068.91 2712.93 1070.38 2715.33 1072.51 2717.2C1069.84 2718.8 1067.71 2720.53 1066.11 2722.4C1064.78 2724 1063.58 2725.87 1062.51 2728C1061.71 2729.87 1060.91 2732 1060.11 2734.4C1059.31 2736.53 1058.38 2738.93 1057.31 2741.6C1052.78 2753.6 1050.51 2759.87 1050.51 2760.4L1044.91 2772L1039.71 2793.2C1039.98 2797.2 1038.51 2799.6 1035.31 2800.4C1032.38 2801.2 1027.58 2801.6 1020.91 2801.6C1014.51 2803.2 1008.91 2804 1004.11 2804C999.31 2803.73 997.71 2801.2 999.31 2796.4C1006.24 2779.87 1011.31 2767.6 1014.51 2759.6C1017.98 2751.33 1019.71 2745.07 1019.71 2740.8C1019.71 2739.47 1020.24 2738.4 1021.31 2737.6C1022.64 2736.53 1023.71 2735.73 1024.51 2735.2C1024.78 2734.67 1025.71 2731.87 1027.31 2726.8C1029.18 2721.73 1031.18 2716.13 1033.31 2710C1035.44 2703.6 1037.44 2697.6 1039.31 2692C1041.44 2686.13 1043.04 2682.13 1044.11 2680C1046.51 2674.93 1049.31 2669.2 1052.51 2662.8C1055.98 2656.4 1059.98 2650.27 1064.51 2644.4C1066.91 2641.2 1068.91 2636.8 1070.51 2631.2C1072.38 2625.6 1074.11 2619.47 1075.71 2612.8C1077.31 2606.13 1079.04 2599.33 1080.91 2592.4C1082.78 2585.47 1085.18 2579.07 1088.11 2573.2C1089.71 2572.67 1094.38 2566.8 1102.11 2555.6C1102.64 2555.07 1103.04 2554.53 1103.31 2554C1103.84 2553.2 1104.38 2552.53 1104.91 2552L1156.11 2548.8C1157.18 2550.13 1158.38 2551.73 1159.71 2553.6C1161.04 2555.47 1162.51 2557.47 1164.11 2559.6C1169.18 2566 1172.24 2571.07 1173.31 2574.8C1174.38 2578.53 1175.04 2581.07 1175.31 2582.4C1174.78 2583.2 1177.58 2592.27 1183.71 2609.6C1185.31 2613.87 1186.64 2618.67 1187.71 2624C1188.78 2629.33 1189.58 2634.4 1190.11 2639.2C1190.64 2643.73 1190.91 2647.73 1190.91 2651.2C1190.91 2654.4 1190.78 2656.13 1190.51 2656.4C1189.98 2656.67 1194.24 2660 1203.31 2666.4C1205.44 2668 1206.64 2669.47 1206.91 2670.8C1207.44 2672.13 1207.44 2673.33 1206.91 2674.4C1206.64 2675.47 1206.11 2676.4 1205.31 2677.2C1204.51 2678 1204.11 2678.53 1204.11 2678.8L1214.91 2693.2C1214.91 2693.2 1217.98 2704.8 1224.11 2728C1227.58 2739.2 1230.11 2748.8 1231.71 2756.8C1233.31 2764.53 1234.11 2770.53 1234.11 2774.8C1234.11 2775.33 1234.24 2775.73 1234.51 2776C1234.51 2775.73 1234.78 2776.4 1235.31 2778L1232.91 2788.4ZM1379.92 2540.8L1370.32 2557.6C1365.52 2561.33 1363.26 2565.2 1363.52 2569.2C1363.79 2573.2 1365.39 2577.47 1368.32 2582C1367.79 2586 1367.39 2589.2 1367.12 2591.6C1367.12 2594 1367.12 2596.27 1367.12 2598.4C1367.39 2600.27 1367.66 2602.4 1367.92 2604.8C1368.46 2606.93 1369.12 2609.73 1369.92 2613.2L1365.92 2629.6L1365.12 2648.8L1370.72 2652L1378.72 2650.4C1380.59 2649.07 1382.32 2647.47 1383.92 2645.6C1385.52 2643.47 1386.86 2641.47 1387.92 2639.6C1389.26 2637.73 1390.19 2636.13 1390.72 2634.8C1391.52 2633.47 1392.06 2632.8 1392.32 2632.8C1392.59 2632.8 1393.39 2632.8 1394.72 2632.8C1396.32 2632.53 1398.06 2632.27 1399.92 2632C1402.06 2631.47 1404.19 2630.93 1406.32 2630.4C1408.72 2629.87 1410.72 2629.2 1412.32 2628.4C1413.12 2628.4 1416.19 2628.8 1421.52 2629.6C1427.12 2630.13 1433.39 2631.87 1440.32 2634.8C1442.19 2635.33 1444.06 2636.13 1445.92 2637.2C1447.79 2638 1449.79 2638.93 1451.92 2640L1463.12 2645.6C1466.59 2647.2 1469.52 2648.67 1471.92 2650C1474.32 2651.33 1475.92 2652 1476.72 2652L1483.52 2674.4C1482.46 2675.2 1481.52 2676.4 1480.72 2678C1480.19 2679.6 1479.66 2681.2 1479.12 2682.8C1478.86 2684.4 1478.86 2685.87 1479.12 2687.2C1479.39 2688.53 1479.92 2689.33 1480.72 2689.6C1481.26 2692.27 1481.66 2694.13 1481.92 2695.2C1482.19 2696.27 1482.59 2697.07 1483.12 2697.6C1483.66 2698.13 1484.32 2698.67 1485.12 2699.2C1486.19 2699.73 1487.66 2700.8 1489.52 2702.4L1484.72 2739.6L1463.12 2775.6C1461.26 2777.2 1458.32 2779.2 1454.32 2781.6C1450.32 2783.73 1445.66 2785.87 1440.32 2788C1435.26 2790.13 1429.79 2792 1423.92 2793.6C1418.06 2794.93 1412.19 2795.6 1406.32 2795.6C1402.32 2797.2 1399.79 2798.4 1398.72 2799.2C1397.66 2799.73 1396.59 2800 1395.52 2800C1394.72 2799.73 1392.99 2799.2 1390.32 2798.4C1387.92 2797.33 1383.39 2796.13 1376.72 2794.8C1375.12 2793.2 1373.66 2792 1372.32 2791.2C1371.26 2790.4 1370.19 2789.6 1369.12 2788.8C1368.32 2788 1367.52 2786.93 1366.72 2785.6C1365.92 2784.27 1365.12 2782.13 1364.32 2779.2C1361.66 2776.53 1358.19 2774.13 1353.92 2772C1349.66 2769.6 1346.06 2768.8 1343.12 2769.6C1339.39 2774.93 1335.66 2779.2 1331.92 2782.4C1328.19 2785.6 1324.06 2787.07 1319.52 2786.8C1316.59 2785.2 1313.39 2784.27 1309.92 2784C1306.72 2783.73 1303.79 2783.73 1301.12 2784C1298.46 2784 1296.19 2784 1294.32 2784C1292.72 2783.73 1291.92 2782.93 1291.92 2781.6C1292.19 2780.53 1292.99 2779.2 1294.32 2777.6C1294.86 2776.53 1295.66 2775.2 1296.72 2773.6C1298.06 2771.73 1299.39 2769.6 1300.72 2767.2L1299.92 2760.4L1307.12 2711.6C1306.06 2708.67 1305.66 2703.87 1305.92 2697.2C1306.19 2690.27 1306.59 2680.93 1307.12 2669.2C1307.92 2657.47 1308.59 2642.93 1309.12 2625.6C1309.92 2608 1310.19 2587.07 1309.92 2562.8C1310.19 2558.8 1310.72 2554.93 1311.52 2551.2C1312.59 2547.47 1313.52 2544 1314.32 2540.8C1315.12 2537.33 1315.66 2534.27 1315.92 2531.6C1316.19 2528.67 1315.92 2526 1315.12 2523.6C1314.86 2521.2 1315.26 2519.33 1316.32 2518C1317.39 2516.4 1319.39 2515.87 1322.32 2516.4L1362.72 2518L1372.32 2521.2L1379.92 2540.8ZM1369.52 2766.4C1372.72 2768 1375.26 2769.2 1377.12 2770C1378.99 2770.53 1380.59 2770.8 1381.92 2770.8C1383.52 2770.8 1384.99 2770.53 1386.32 2770C1387.66 2769.47 1389.12 2768.8 1390.72 2768L1403.52 2764L1419.92 2748C1424.46 2746.67 1427.92 2744.53 1430.32 2741.6C1432.99 2738.4 1434.46 2734.13 1434.72 2728.8C1435.79 2724.27 1436.99 2720.13 1438.32 2716.4C1439.66 2712.4 1440.59 2708.53 1441.12 2704.8C1441.66 2701.07 1441.66 2697.33 1441.12 2693.6C1440.86 2689.6 1439.66 2685.33 1437.52 2680.8L1432.32 2667.6L1411.12 2657.2C1407.39 2656.4 1403.39 2655.87 1399.12 2655.6C1394.86 2655.33 1390.86 2655.6 1387.12 2656.4C1383.39 2657.2 1380.19 2658.67 1377.52 2660.8C1374.86 2662.67 1373.39 2665.47 1373.12 2669.2L1365.52 2677.2C1364.19 2688.13 1363.39 2696.93 1363.12 2703.6C1362.59 2710.53 1361.92 2717.2 1361.12 2723.6C1360.59 2730 1360.06 2734.13 1359.52 2736C1358.46 2739.73 1358.46 2743.2 1359.52 2746.4C1360.59 2749.33 1360.59 2751.2 1359.52 2752L1369.52 2766.4ZM1674.77 2622V2640.4H1664.37L1649.17 2652.4C1636.1 2654.27 1625.44 2656.93 1617.17 2660.4C1608.9 2663.6 1605.04 2668.13 1605.57 2674C1605.04 2675.33 1604.77 2676.93 1604.77 2678.8C1604.77 2680.4 1605.7 2681.2 1607.57 2681.2L1599.57 2721.2L1595.97 2725.6V2770L1593.57 2792.4L1585.57 2800.4L1539.97 2797.2L1529.97 2783.6L1532.77 2776.4L1531.17 2754.4L1535.97 2714L1539.97 2684.4C1539.97 2683.6 1540.1 2682.93 1540.37 2682.4C1540.37 2681.87 1540.37 2681.2 1540.37 2680.4C1540.64 2679.6 1540.77 2678.93 1540.77 2678.4C1542.1 2677.33 1542.9 2674.93 1543.17 2671.2C1543.7 2667.47 1543.84 2665.07 1543.57 2664C1543.57 2662.13 1543.44 2660.4 1543.17 2658.8C1543.17 2657.2 1542.64 2653.73 1541.57 2648.4C1541.3 2646.8 1540.37 2644.93 1538.77 2642.8C1537.44 2640.4 1535.97 2638.27 1534.37 2636.4L1539.57 2624H1547.17L1588.37 2616.4L1598.37 2621.2C1597.57 2625.73 1597.44 2629.6 1597.97 2632.8C1598.77 2635.73 1599.84 2638 1601.17 2639.6C1602.77 2641.2 1604.5 2642.27 1606.37 2642.8C1608.24 2643.07 1609.84 2642.8 1611.17 2642L1618.37 2638C1619.7 2637.47 1620.1 2636 1619.57 2633.6C1619.3 2631.2 1619.44 2628.13 1619.97 2624.4L1669.57 2615.6L1674.77 2622ZM1906.66 2779.2L1850.66 2786L1839.06 2767.2C1839.06 2763.73 1836.39 2763.87 1831.06 2767.6C1829.73 2768.4 1828.39 2769.73 1827.06 2771.6C1825.73 2773.47 1824.39 2775.33 1823.06 2777.2C1822.26 2778.27 1821.46 2779.33 1820.66 2780.4C1819.86 2781.47 1819.06 2782.67 1818.26 2784C1809.99 2790.13 1801.46 2794.13 1792.66 2796C1784.13 2797.87 1776.79 2796.67 1770.66 2792.4C1766.13 2791.87 1763.06 2790.8 1761.46 2789.2C1760.66 2788.67 1759.59 2787.73 1758.26 2786.4L1732.66 2784.8L1721.86 2779.6L1711.86 2754.4L1713.86 2746L1705.06 2710.8L1721.86 2682.8L1735.46 2670.4C1740.53 2667.73 1746.39 2665.6 1753.06 2664C1759.73 2662.4 1766.39 2661.33 1773.06 2660.8C1779.73 2660 1786.13 2659.87 1792.26 2660.4C1798.39 2660.67 1803.46 2661.47 1807.46 2662.8C1807.46 2667.07 1808.79 2669.87 1811.46 2671.2C1814.13 2672.53 1819.33 2674 1827.06 2675.6C1829.73 2671.07 1831.06 2665.6 1831.06 2659.2C1831.06 2652.53 1829.86 2645.6 1827.46 2638.4L1821.06 2618C1818.93 2617.2 1815.59 2615.87 1811.06 2614C1806.79 2611.87 1803.19 2610.13 1800.26 2608.8L1783.06 2611.6L1765.46 2615.2L1761.46 2608.8L1765.86 2598.4L1768.66 2592L1774.26 2590.8L1792.66 2587.6L1809.06 2593.2L1827.06 2590.4L1861.86 2600.8L1876.66 2623.2L1881.86 2686.8L1880.66 2706.8L1889.46 2753.6L1894.66 2756H1907.06L1912.26 2770L1906.66 2779.2ZM1759.86 2714C1758.53 2720.93 1758.53 2726.8 1759.86 2731.6C1761.46 2736.4 1763.99 2740.4 1767.46 2743.6L1773.46 2756C1778.26 2757.6 1782.79 2758.8 1787.06 2759.6C1791.33 2760.4 1795.73 2760.53 1800.26 2760C1805.06 2759.2 1809.99 2757.73 1815.06 2755.6C1820.39 2753.2 1826.53 2749.73 1833.46 2745.2L1834.26 2724.8L1827.06 2689.2C1823.33 2687.87 1819.99 2687.2 1817.06 2687.2C1814.39 2687.2 1811.73 2687.47 1809.06 2688C1805.86 2688.8 1802.13 2689.47 1797.86 2690C1793.59 2690.53 1789.19 2691.2 1784.66 2692C1780.39 2692.53 1776.39 2693.33 1772.66 2694.4C1769.19 2695.2 1766.66 2696.4 1765.06 2698L1759.86 2714Z" fill="black"/>
</svg>
