<svg width="3281" height="3273" viewBox="0 0 3281 3273" fill="none" xmlns="http://www.w3.org/2000/svg">
<defs>
<linearGradient id="paint0_linear_2267_17407" x1="1640.1" y1="0" x2="1640.1" y2="4600.67" gradientUnits="userSpaceOnUse">
<stop stop-color="#216CB3"/>
<stop offset="1" stop-color="#CCDBE9" stop-opacity="0"/>
</linearGradient>
</defs>
<path fill-rule="evenodd" clip-rule="evenodd" d="M1605.48 3000C2433.9 3000 3105.48 2328.43 3105.48 1500C3105.48 671.573 2433.9 0 1605.48 0C777.05 0 105.477 671.573 105.477 1500C105.477 2328.43 777.05 3000 1605.48 3000ZM417.977 771C255.177 983 209.477 1345.33 206.977 1500C206.977 1934.81 428.977 2284.5 539.977 2405C621.643 2510.33 871.277 2745.5 1216.48 2843.5C1561.68 2941.5 1874.31 2884.33 1987.48 2843.5C2025.98 2841.17 2162.08 2799.8 2398.48 2653C2634.88 2506.2 2804.98 2224.83 2860.48 2102.5C2903.48 2025.5 2992.88 1797.2 3006.48 1500C3020.08 1202.8 2874.14 890.167 2799.48 771C2756.48 711 2642.58 562.4 2530.98 448C2419.38 333.6 2190.14 223.667 2089.48 183C2040.81 166 1875.88 125.9 1605.48 101.5C1335.08 77.1 1002.14 229.667 869.477 309C776.643 361 556.377 526.2 417.977 771Z" fill="url(#paint0_linear_2267_17407)"/>
<path d="M3209.02 1369.04L3225.07 1461.07C3227.53 1478.84 3235.55 1507.68 3223.42 1528.39C3228.62 1557.7 3213.37 1590.78 3205.1 1603.65C3178.83 1608.27 3122.99 1618.46 3011.93 1652.5C2900.87 1686.54 2860.43 1732.7 2854.1 1751.52C2848.97 1769.5 2782.74 1816.05 2788.84 1836.24C2754.7 1861.69 2746.42 1962.67 2746.55 2009.97C2742.95 2023.78 2772.92 2083.92 2789.46 2114.35C2810.13 2152.39 2783.52 2202.98 2748.65 2301.11C2688.98 2360.35 2629.94 2424.1 2592.04 2455.91C2578.6 2472.83 2488.12 2520.8 2335.81 2570.38C2268.98 2620.28 2207.52 2711.43 2185.15 2750.76C2177.56 2770.9 2195.87 2842.78 2195.91 2869.86C2203.72 2900.01 2194.73 2927.6 2189.26 2937.63C2187.95 2956.71 2165.4 2995.5 2085.71 2998.05C2110.98 3004.97 2166.16 3011.77 2184.74 2983.64C2203.33 2955.5 2217.36 2929.94 2222.06 2920.68C2223.38 2907.25 2224.74 2878.74 2219.66 2872.2C2214.58 2865.65 2220.3 2841.41 2223.79 2830.11L2234.17 2797.28C2234.6 2780.88 2249.5 2732.24 2305.67 2668.9C2361.84 2605.57 2409.83 2597.14 2426.8 2600.85L2527.53 2543.4L2618.15 2490.35L2662.31 2473.44L2688.45 2447.2C2698.88 2439.58 2727.2 2418.45 2757.12 2394.88C2786.99 2361.51 2815.99 2313.76 2826.76 2294.05C2835.29 2281.44 2854.74 2242.2 2864.28 2186.1C2873.83 2130 2851.58 2078.27 2839.27 2059.42C2834.45 2055.58 2825.44 2041.64 2827.91 2016.53C2813.33 1993.5 2828.67 1937.27 2838.16 1912.03C2840.36 1908.17 2856.05 1882.32 2901.2 1809.83C2957.64 1719.23 3036.34 1723.35 3098.71 1696.7C3148.6 1675.38 3218.46 1656.96 3247.15 1650.41C3280.2 1579.47 3285.53 1520.94 3275.69 1488.29C3269.45 1467.61 3217.31 1403.87 3209.02 1369.04Z" fill="#543E30"/>
<path d="M2981.76 1447.39C2967.41 1458.14 2941.27 1472.75 2935.1 1495.94C2910.62 1512.88 2897.86 1546.99 2894.54 1561.93C2909.74 1583.84 2941.81 1630.68 2995.8 1733.53C3049.79 1836.38 3045.46 1897.59 3036.55 1915.34C3027.39 1931.64 3040.94 2011.44 3022.31 2021.32C3028.25 2063.49 2962.35 2140.44 2928.66 2173.64C2921.39 2185.92 2857.57 2206.96 2824.32 2216.63C2782.75 2228.72 2765.53 2283.23 2720.38 2377.07L2658.73 2559.7L2658.98 2522.66C2657.05 2509.89 2652.12 2474.9 2647.8 2437.06C2650.48 2392.36 2663.99 2338.14 2670.41 2316.61C2673.36 2301.68 2687.55 2260.25 2720.68 2213.98C2753.81 2167.72 2806.22 2147.11 2828.28 2142.59C2834.39 2143.31 2850.64 2139.9 2866.74 2120.47C2893.36 2114.61 2922.51 2064.14 2933.75 2039.64C2934.95 2035.35 2942.26 2006.01 2961.97 1922.92C2986.61 1819.05 2928.29 1766.05 2903.32 1702.99C2883.35 1652.55 2847.27 1589.95 2831.72 1564.96C2858.85 1491.56 2896.68 1446.58 2926.8 1430.59C2945.88 1420.46 3027.85 1412.63 3058.43 1394L2981.76 1447.39Z" fill="#543E30"/>
<path d="M57.7022 1604.31L50.007 1697.41C49.151 1715.33 43.7586 1744.78 57.7022 1764.31C55.1589 1793.97 73.3238 1825.54 82.7241 1837.61C109.295 1839.86 165.833 1844.98 279.503 1868.89C393.174 1892.8 437.598 1935.13 445.601 1953.31C452.329 1970.75 522.473 2011.15 518.216 2031.81C554.508 2054.09 571.84 2153.91 575.969 2201.03C580.796 2214.46 556.361 2277.05 542.628 2308.85C525.461 2348.59 556.512 2396.59 600.074 2491.17C664.835 2544.81 729.363 2602.99 769.977 2631.26C784.887 2646.9 879.315 2686.53 1035.46 2722.21C1106.52 2765.9 1175.92 2851.14 1201.75 2888.31C1211.11 2907.68 1199.34 2980.92 1201.75 3007.89C1196.68 3038.62 1208.11 3065.29 1214.47 3074.78C1217.49 3093.67 1243.43 3130.27 1323.03 3125.64C1298.49 3134.81 1244.14 3146.55 1223.1 3120.2C1202.06 3093.85 1185.78 3069.66 1180.27 3060.86C1177.75 3047.6 1173.83 3019.33 1178.3 3012.35C1182.77 3005.37 1174.89 2981.75 1170.4 2970.81L1157.11 2939.05C1155.21 2922.75 1135.99 2875.65 1074.35 2817.62C1012.7 2759.6 964.154 2755.53 947.586 2760.74L842.093 2712.59L747.066 2667.91L701.566 2655.04L673.172 2631.26C662.104 2624.61 631.988 2606.11 600.074 2585.33C567.326 2554.79 534.14 2509.83 521.64 2491.17C512.01 2479.39 489.112 2442.06 474.559 2387.04C460.005 2332.03 477.507 2278.5 488.077 2258.62C492.526 2254.37 500.246 2239.67 495.533 2214.89C507.972 2190.63 487.64 2136.01 475.919 2111.73C473.378 2108.08 455.423 2083.75 403.934 2015.62C339.573 1930.46 261.562 1941.64 197.052 1920.72C145.445 1903.97 74.2094 1891.91 45.0427 1887.97C5.74621 1820.3 -4.82101 1762.48 2.04118 1729.07C6.38768 1707.91 52.5794 1639.74 57.7022 1604.31Z" fill="#543E30"/>
<path d="M242.538 1715.33C259.282 1724.58 288.975 1736.22 299.132 1759.65C327.471 1773.97 346.268 1807.92 352.124 1823.11C339.705 1848.2 313.594 1901.78 273.471 2017.12C233.348 2132.47 247.639 2196 259.801 2213.35C271.992 2229.14 270.534 2314.66 291.616 2322.4C292.115 2367.42 373.38 2438.81 413.95 2468.88C423.527 2480.72 493.694 2493.82 530.054 2499.28C575.506 2506.12 602.221 2560.82 664.462 2652.82L751.969 2796.76C751.949 2783.11 751.53 2745.74 750.014 2705.49C740.08 2659.03 717.291 2604.11 707.138 2582.46C701.667 2567.22 680.209 2525.8 638.14 2481.97C596.071 2438.14 537.917 2423.89 514.099 2422.25C507.816 2423.86 490.261 2422.57 470.305 2404.47C441.501 2402.06 402.934 2353.27 387.252 2329.17C385.317 2324.85 372.976 2295.13 339.09 2210.83C296.731 2105.45 349.341 2041.73 365.424 1972.15C378.291 1916.49 406.09 1845.84 418.381 1817.48C378.273 1744.37 331.491 1702.54 297.404 1690.01C275.813 1682.07 188.738 1685.37 153.754 1670.14L242.538 1715.33Z" fill="#543E30"/>
<path d="M831.982 2783.25C835.616 2798.68 846.755 2801.68 851.869 2801.25L856.482 2783.79C851.68 2782.22 841.984 2777.8 841.612 2772.61C841.241 2767.41 829.365 2757.98 823.473 2753.91L821.053 2753.29L814.096 2751.5L794.165 2751.68L783.871 2746.16L774.429 2742.17L766.433 2734.94L762.36 2735.73L753.66 2737.42L725.698 2742.86L699.552 2721.48C693.887 2718.12 681.469 2708 677.118 2694.34C671.679 2677.28 642.134 2645.22 629.46 2625.02C619.32 2608.87 593.182 2574.86 581.381 2559.88C571.649 2552.66 556.172 2541.83 542.261 2533.46C541.064 2532.74 539.878 2532.04 538.708 2531.36C527.5 2524.85 517.786 2520.39 513.668 2521.38C504.129 2523.68 488.379 2519.24 481.696 2516.74C467.734 2514.85 433.71 2513.47 409.306 2522.96C407.864 2523.52 406.416 2524.11 404.965 2524.73C381.87 2534.51 358.175 2550.55 348.75 2557.73L331.749 2557.15L338.181 2574.36C336.777 2601.05 341.237 2662.22 370.312 2693.39C399.387 2724.56 429.665 2738.25 441.17 2741.19C451.723 2743.4 476.846 2749.49 492.912 2756.13C508.977 2762.78 550.325 2766.59 568.991 2767.67C584.559 2768.6 617.024 2771.13 622.346 2773.82C627.668 2776.51 669.248 2776.67 689.372 2776.41L751.369 2747.87L765.861 2745.05L776.318 2754.51C788.023 2751.13 805.456 2760.64 812.709 2765.81C817.619 2765.19 828.347 2767.81 831.982 2783.25Z" fill="#B59460"/>
<path d="M409.306 2522.96C433.71 2513.47 467.734 2514.85 481.696 2516.74C488.379 2519.24 504.129 2523.68 513.668 2521.38C517.786 2520.39 527.5 2524.85 538.708 2531.36L547.33 2524.79L513.91 2484.02L496.958 2457.42C480.037 2466.23 441.3 2481.01 421.726 2469.68C436.267 2477.67 476.81 2463.07 495.263 2454.76L455.04 2391.65L516.932 2480.68L534.843 2502.1C542.62 2476.51 557.028 2421.17 554.073 2399.55C553.99 2398.99 553.899 2398.44 553.802 2397.91C553.905 2398.43 553.995 2398.98 554.073 2399.55C558.396 2428.31 545.129 2481.99 537.811 2505.65L553.47 2524.38L563.721 2533.65C578.025 2508.64 603.669 2452.75 591.807 2429.26C606.608 2455.11 580.89 2511.11 566.181 2535.88L596.32 2563.15L610.368 2581.83C617.498 2563.61 630.885 2524.27 631.323 2503.43C631.31 2501.96 631.268 2500.51 631.195 2499.07C631.316 2500.41 631.356 2501.87 631.323 2503.43C631.587 2534.06 619.018 2569.88 612.399 2584.54L649.749 2624.45C652.963 2609.63 659.188 2577.92 658.372 2569.59C660.397 2576.58 654.857 2610.56 651.834 2626.67L681.169 2662.26L707.693 2688.99L738.942 2712.57C726.278 2699.3 714.781 2685.74 715.058 2680.85C715.515 2672.76 696.91 2631.54 687.551 2611.93C680.77 2587.83 664.722 2535.78 654.773 2520.4C644.823 2505.02 634.318 2469.38 630.309 2453.48C626.64 2441.05 609.877 2407.81 572.178 2374.3C534.479 2340.79 504.329 2330.87 493.966 2330.09C483.595 2325.9 456.526 2319.21 431.224 2326.07C417.105 2324.53 407.95 2318.55 405.137 2315.75L405.812 2341.79C398.151 2352.32 382.608 2378.56 381.723 2399.32C380.618 2425.26 400.624 2526.49 404.965 2524.73C406.416 2524.11 407.864 2523.52 409.306 2522.96Z" fill="#CAA672"/>
<path d="M581.381 2559.88C593.182 2574.86 619.32 2608.87 629.46 2625.02C642.134 2645.22 671.679 2677.28 677.118 2694.34L703.307 2711.97L753.66 2737.42L762.36 2735.73C756.042 2729.82 747.241 2721.26 738.942 2712.57L704.294 2692.75L678.11 2665.64L648.32 2630.56L609.189 2588.08L592.921 2566.91L550.071 2528.13L542.261 2533.46C556.172 2541.83 571.649 2552.66 581.381 2559.88Z" fill="#CAA672"/>
<path d="M738.942 2712.57L707.693 2688.99L681.169 2662.26L651.834 2626.67L649.749 2624.45L612.399 2584.54L610.368 2581.83L596.32 2563.15L566.181 2535.88L563.721 2533.65L553.47 2524.38L537.811 2505.65L534.843 2502.1L516.932 2480.68L455.04 2391.65L495.263 2454.76L496.958 2457.42L513.91 2484.02L547.33 2524.79L550.071 2528.13L592.921 2566.91L609.189 2588.08L648.32 2630.56L678.11 2665.64L704.294 2692.75L738.942 2712.57Z" fill="#715D58"/>
<path d="M774.998 2318.73C772.326 2319.04 765.033 2330.84 761.721 2336.7L781.117 2352.35L786.755 2391.87C791.543 2390.42 808.332 2379.56 837.185 2347.68C813.012 2381.07 793.755 2392.89 787.149 2394.63L787.771 2398.99L793.964 2453.96C808.283 2444.25 840.978 2418.07 860.552 2389C861.187 2388.05 861.821 2387.08 862.453 2386.11C861.834 2387.07 861.201 2388.04 860.552 2389C834.047 2428.9 805.484 2450.83 794.295 2456.89L799.494 2513.37C816.458 2504.38 853.739 2481.53 867.153 2462.09C849.889 2487.77 815.06 2509.22 799.804 2516.74L800.355 2522.72L804.344 2570.24L804.505 2585.31L805.174 2628.66C816.058 2624.22 838.384 2613.99 844.614 2607.04C844.905 2606.7 845.177 2606.36 845.429 2606.02C845.201 2606.35 844.928 2606.69 844.614 2607.04C836.784 2616.29 815.323 2627.62 805.23 2632.27L805.337 2639.2L816.922 2729.01L818.66 2732.86L824.611 2728.75C825.913 2728.41 829 2726.05 830.934 2719.29C830.346 2689.61 852.503 2658.1 863.655 2646.05C868.155 2635.44 877.36 2609.64 878.184 2591.26C881.188 2544.25 917.94 2497.05 916.532 2491.6C911.611 2487.15 910.537 2441.77 908.788 2428.04C907.04 2414.31 911.119 2398.26 911.696 2393.09C912.158 2388.96 902.856 2373.33 898.148 2366.03L878.362 2340.91C870.527 2335.97 851.585 2324.35 838.507 2317.37C825.601 2301.14 778.338 2318.34 774.998 2318.73Z" fill="#CAA672"/>
<path d="M812.671 2731.23L816.922 2729.01L805.337 2639.2L805.23 2632.27L805.174 2628.66L804.505 2585.31L804.344 2570.24L800.355 2522.72L799.804 2516.74L799.494 2513.37L794.295 2456.89L793.964 2453.96L787.771 2398.99L787.149 2394.63L786.755 2391.87L781.117 2352.35L761.721 2336.7L777.907 2355.9L783.616 2403.58L785.087 2418.02L785.616 2423.23L789.574 2462.11L791.269 2482.62L791.728 2488.16L795.068 2528.56L795.956 2540.77L796.234 2544.58L799.595 2590.73L800.122 2606.39L800.652 2608.65L801.809 2643.1L803.603 2660.89L812.671 2731.23Z" fill="#715D58"/>
<path d="M818.66 2732.86L816.922 2729.01L812.671 2731.23L814.096 2751.5L821.053 2753.29L818.66 2732.86Z" fill="#715D58"/>
<path d="M803.785 2731.16L812.671 2731.23L803.603 2660.89L801.809 2643.1L800.652 2608.65C800.509 2608.6 800.365 2608.56 800.219 2608.51C786.601 2604.14 756.495 2593.75 749.375 2584C761.487 2594.35 788.253 2603.24 800.122 2606.39L799.595 2590.73L796.234 2544.58C771.451 2539.69 717.209 2521.8 698.506 2489.38C723.52 2517.79 773.895 2535.48 795.956 2540.77L795.068 2528.56L791.728 2488.16C772.952 2482.95 728.833 2464.86 702.557 2434.22C723.892 2457.92 770.588 2476.36 791.269 2482.62L789.574 2462.11L785.616 2423.23C776.097 2422.34 753.574 2417.41 739.632 2404.79C758.049 2415.1 777.609 2417.91 785.087 2418.02L783.616 2403.58L777.907 2355.9L761.721 2336.7C760.095 2333.96 754.763 2327.82 746.441 2325.15C721.444 2331.75 696.049 2362.29 684.708 2379.35C675.636 2393 672.85 2422.27 672.592 2435.19C672.23 2445.62 672.351 2473.53 675.722 2501.79C679.094 2530.04 699.238 2571.27 708.889 2588.35C713.477 2591.11 723.757 2600.44 728.172 2615.67C732.588 2630.9 743.929 2650.05 749.048 2657.72C757.945 2667.67 776.04 2689.13 777.245 2695.38C778.449 2701.63 795.44 2721.84 803.785 2731.16Z" fill="#CAA672"/>
<path d="M805.174 2628.66L805.23 2632.27C815.323 2627.62 836.784 2616.29 844.614 2607.04C838.384 2613.99 816.058 2624.22 805.174 2628.66Z" fill="#715D58"/>
<path d="M749.375 2584C756.495 2593.75 786.601 2604.14 800.219 2608.51L800.122 2606.39C788.253 2603.24 761.487 2594.35 749.375 2584Z" fill="#715D58"/>
<path d="M698.506 2489.38C717.209 2521.8 771.451 2539.69 796.234 2544.58L795.956 2540.77C773.895 2535.48 723.52 2517.79 698.506 2489.38Z" fill="#715D58"/>
<path d="M799.804 2516.74C815.06 2509.22 849.889 2487.77 867.153 2462.09C853.739 2481.53 816.458 2504.38 799.494 2513.37L799.804 2516.74Z" fill="#715D58"/>
<path d="M702.557 2434.22C728.833 2464.86 772.952 2482.95 791.728 2488.16L791.269 2482.62C770.588 2476.36 723.892 2457.92 702.557 2434.22Z" fill="#715D58"/>
<path d="M793.964 2453.96L794.295 2456.89C805.484 2450.83 834.047 2428.9 860.552 2389C840.978 2418.07 808.283 2444.25 793.964 2453.96Z" fill="#715D58"/>
<path d="M739.632 2404.79C753.574 2417.41 776.097 2422.34 785.616 2423.23L785.087 2418.02C777.609 2417.91 758.049 2415.1 739.632 2404.79Z" fill="#715D58"/>
<path d="M787.149 2394.63C793.755 2392.89 813.012 2381.07 837.185 2347.68C808.332 2379.56 791.543 2390.42 786.755 2391.87L787.149 2394.63Z" fill="#715D58"/>
<path d="M651.834 2626.67C654.857 2610.56 660.397 2576.58 658.372 2569.59C659.188 2577.92 652.963 2609.63 649.749 2624.45L651.834 2626.67Z" fill="#715D58"/>
<path d="M610.368 2581.83L612.399 2584.54C619.018 2569.88 631.587 2534.06 631.323 2503.43C630.885 2524.27 617.498 2563.61 610.368 2581.83Z" fill="#715D58"/>
<path d="M566.181 2535.88C580.89 2511.11 606.608 2455.11 591.807 2429.26C603.669 2452.75 578.025 2508.64 563.721 2533.65L566.181 2535.88Z" fill="#715D58"/>
<path d="M542.261 2533.46L550.071 2528.13L547.33 2524.79L538.708 2531.36C539.878 2532.04 541.064 2532.74 542.261 2533.46Z" fill="#715D58"/>
<path d="M534.843 2502.1L537.811 2505.65C545.129 2481.99 558.396 2428.31 554.073 2399.55C557.028 2421.17 542.62 2476.51 534.843 2502.1Z" fill="#715D58"/>
<path d="M421.726 2469.68C441.3 2481.01 480.037 2466.23 496.958 2457.42L495.263 2454.76C476.81 2463.07 436.267 2477.67 421.726 2469.68Z" fill="#715D58"/>
<path d="M895.067 2877.23C910.647 2880.19 917.911 2871.23 919.595 2866.38L905.518 2855.07C902.138 2858.82 894.156 2865.88 889.259 2864.11C884.363 2862.34 870.917 2869.35 864.807 2873.08L863.254 2875.04L858.79 2880.67L850.855 2898.95L841.627 2906.11L834.143 2913.12L824.282 2917.48L823.35 2921.53L821.36 2930.16L814.963 2957.92L784.797 2973.12C779.428 2976.93 765.13 2984.16 750.886 2982.58C733.082 2980.62 691.788 2994.58 668.181 2997.95C649.296 3000.64 607.604 3010.7 589.118 3015.4C578.568 3021.35 562.376 3031.09 549.081 3040.4C547.936 3041.2 546.813 3042 545.716 3042.79C535.213 3050.39 527.182 3057.44 526.415 3061.61C524.637 3071.26 514.182 3083.85 509.176 3088.93C501.782 3100.93 486.684 3131.45 485.438 3157.6C485.365 3159.15 485.314 3160.71 485.286 3162.29C484.833 3187.36 489.86 3215.53 492.592 3227.07L485.149 3242.36L503.485 3243.48C527.299 3255.61 585.002 3276.4 625.299 3262.51C665.596 3248.62 690.408 3226.52 697.777 3217.2C704.089 3208.46 719.861 3187.98 732.462 3176C745.062 3164.02 765.357 3127.8 773.929 3111.18C781.107 3097.34 796.618 3068.7 801.239 3064.94C805.861 3061.17 822.904 3023.24 830.847 3004.75L829.978 2936.5L833.286 2922.11L846.182 2916.41C847.858 2904.34 863.624 2892.28 871.298 2887.75C872.73 2883.01 879.488 2874.28 895.067 2877.23Z" fill="#B59460"/>
<path d="M485.438 3157.6C486.684 3131.45 501.782 3100.93 509.176 3088.93C514.182 3083.85 524.637 3071.26 526.415 3061.61C527.182 3057.44 535.213 3050.39 545.716 3042.79L543.214 3032.24L492.382 3046.2L461.19 3050.88C462.359 3069.92 460.118 3111.32 441.803 3124.6C455.021 3114.56 458.156 3071.58 458.071 3051.35L384.059 3062.44L490.56 3042.08L517.41 3034.43C497.19 3016.92 452.485 2981.26 431.531 2975.17C430.988 2975.02 430.45 2974.88 429.919 2974.75C430.439 2974.87 430.977 2975.01 431.531 2975.17C459.563 2982.91 503.216 3016.85 521.859 3033.16L545.333 3026.46L557.976 3020.87C540.94 2997.63 500.298 2951.48 474.017 2952.77C503.646 2949.76 544.358 2996.02 561.01 3019.53L598.181 3003.08L620.959 2997.84C607.203 2983.91 576.707 2955.69 557.843 2946.82C556.497 2946.23 555.15 2945.68 553.804 2945.16C555.077 2945.6 556.427 2946.15 557.843 2946.82C585.94 2959.03 613.554 2985.07 624.253 2997.08L675.9 2979.18C663.67 2970.22 637.224 2951.64 629.283 2949C636.495 2949.99 665.289 2968.86 678.784 2978.18L723.217 2965.84L758.426 2952.47L792.668 2933.51C775.402 2939.69 758.336 2944.68 753.984 2942.44C746.78 2938.73 701.549 2938.97 679.834 2939.55C655.057 2935.95 600.98 2929.46 582.883 2932.29C564.787 2935.13 527.949 2930.24 511.792 2927.44C498.944 2925.74 461.764 2927.54 415.824 2948.37C369.885 2969.19 348.559 2992.7 343.639 3001.85C335.587 3009.62 318.478 3031.64 314.46 3057.54C307.312 3069.82 298.124 3075.75 294.424 3077.18L318.491 3087.15C324.994 3098.43 342.651 3123.3 361.257 3132.54C384.515 3144.1 485.134 3166.97 485.286 3162.29C485.314 3160.71 485.365 3159.15 485.438 3157.6Z" fill="#CAA672"/>
<path d="M589.118 3015.4C607.604 3010.7 649.296 3000.64 668.181 2997.95C691.788 2994.58 733.082 2980.62 750.886 2982.58L777.638 2965.82L821.36 2930.16L823.35 2921.53C815.384 2924.9 803.983 2929.46 792.668 2933.51L760.476 2957.11L725.062 2970.01L680.903 2982.97L626.189 3001.45L600.231 3007.71L547.383 3031.1L549.081 3040.4C562.376 3031.09 578.568 3021.35 589.118 3015.4Z" fill="#CAA672"/>
<path d="M792.668 2933.51L758.426 2952.47L723.217 2965.84L678.784 2978.18L675.9 2979.18L624.253 2997.08L620.959 2997.84L598.181 3003.08L561.01 3019.53L557.976 3020.87L545.333 3026.46L521.859 3033.16L517.41 3034.43L490.56 3042.08L384.059 3062.44L458.071 3051.35L461.19 3050.88L492.382 3046.2L543.214 3032.24L547.383 3031.1L600.231 3007.71L626.189 3001.45L680.903 2982.97L725.062 2970.01L760.476 2957.11L792.668 2933.51Z" fill="#715D58"/>
<path d="M447.496 2740.47C446.698 2743.04 454.51 2754.5 458.516 2759.9L480.704 2748.55L519.097 2759.46C519.724 2754.5 516.626 2734.74 499.225 2695.42C519.901 2731.08 522.877 2753.48 521.78 2760.22L526.015 2761.42L578.757 2778.11C575.709 2761.08 565.083 2720.57 546.479 2690.87C545.864 2689.9 545.239 2688.93 544.605 2687.95C545.238 2688.91 545.863 2689.88 546.479 2690.87C572.157 2731.3 580.582 2766.31 581.57 2779L635.287 2797.21C633.967 2778.06 628.25 2734.71 615.943 2714.55C632.38 2740.76 637.822 2781.3 638.489 2798.29L644.181 2800.22L689.216 2815.9L703.05 2821.87L742.933 2838.89C743.3 2827.14 743.023 2802.58 739.213 2794.06C739.017 2793.66 738.817 2793.27 738.611 2792.9C738.821 2793.25 739.021 2793.64 739.213 2794.06C744.482 2804.98 746.105 2829.19 746.251 2840.3L752.625 2843.02L839.389 2868.94L843.613 2868.92L842.283 2861.82C842.502 2860.49 841.593 2856.7 836.21 2852.19C808.853 2840.66 789.064 2807.61 782.589 2792.52C774.73 2784.1 754.896 2765.2 738.435 2756.98C696.712 2735.12 668.523 2682.36 662.971 2681.43C656.903 2684.11 615.004 2666.65 601.751 2662.67C588.498 2658.68 575.496 2648.43 571.006 2645.8C567.414 2643.7 549.354 2645.85 540.773 2647.18L509.783 2655.05C502.084 2660.2 483.763 2672.78 472.072 2681.89C451.993 2687.08 448.494 2737.26 447.496 2740.47Z" fill="#CAA672"/>
<path d="M839.694 2873.73L839.389 2868.94L752.625 2843.02L746.251 2840.3L742.933 2838.89L703.05 2821.87L689.216 2815.9L644.181 2800.22L638.489 2798.29L635.287 2797.21L581.57 2779L578.757 2778.11L526.015 2761.42L521.78 2760.22L519.097 2759.46L480.704 2748.55L458.516 2759.9L482.64 2752.92L528.52 2767.09L542.318 2771.61L547.286 2773.25L584.417 2785.43L603.847 2792.22L609.097 2794.06L647.37 2807.43L658.882 2811.58L662.48 2812.88L706.011 2828.57L720.531 2834.45L722.808 2834.88L754.752 2847.83L771.743 2853.42L839.694 2873.73Z" fill="#715D58"/>
<path d="M843.613 2868.92L839.389 2868.94L839.694 2873.73L858.79 2880.67L863.254 2875.04L843.613 2868.92Z" fill="#715D58"/>
<path d="M836.017 2881.82L839.694 2873.73L771.743 2853.42L754.752 2847.83L722.808 2834.88C722.709 2834.99 722.608 2835.11 722.506 2835.22C712.978 2845.89 691.244 2869.17 679.445 2871.71C693.828 2864.85 712.828 2844.01 720.531 2834.45L706.011 2828.57L662.48 2812.88C647.933 2833.53 609.536 2875.81 572.32 2879.73C608.441 2868.42 645.078 2829.58 658.882 2811.58L647.37 2807.43L609.097 2794.06C596.7 2809.09 562.238 2842.05 523.566 2853.6C553.888 2843.74 589.721 2808.57 603.847 2792.22L584.417 2785.43L547.286 2773.25C542.604 2781.58 528.943 2800.15 511.748 2807.76C528.654 2795.13 539.172 2778.4 542.318 2771.61L528.52 2767.09L482.64 2752.92L458.516 2759.9C455.355 2760.28 447.577 2762.65 441.752 2769.17C437.625 2794.69 455.2 2830.31 466.182 2847.61C474.967 2861.44 500.568 2875.88 512.271 2881.37C521.65 2885.94 547.206 2897.18 574.39 2905.58C601.574 2913.99 647.433 2912.34 666.965 2910.47C671.351 2907.4 684.053 2901.8 699.763 2903.96C715.474 2906.12 737.576 2903.54 746.662 2901.98C759.369 2897.89 786.333 2890.08 792.535 2891.52C798.736 2892.97 824.107 2885.66 836.017 2881.82Z" fill="#CAA672"/>
<path d="M742.933 2838.89L746.251 2840.3C746.105 2829.19 744.482 2804.98 739.213 2794.06C743.023 2802.58 743.3 2827.14 742.933 2838.89Z" fill="#715D58"/>
<path d="M679.445 2871.71C691.244 2869.17 712.978 2845.89 722.506 2835.22L720.531 2834.45C712.828 2844.01 693.828 2864.85 679.445 2871.71Z" fill="#715D58"/>
<path d="M572.32 2879.73C609.536 2875.81 647.933 2833.53 662.48 2812.88L658.882 2811.58C645.078 2829.58 608.441 2868.42 572.32 2879.73Z" fill="#715D58"/>
<path d="M638.489 2798.29C637.822 2781.3 632.38 2740.76 615.943 2714.55C628.25 2734.71 633.967 2778.06 635.287 2797.21L638.489 2798.29Z" fill="#715D58"/>
<path d="M523.566 2853.6C562.238 2842.05 596.7 2809.09 609.097 2794.06L603.847 2792.22C589.721 2808.57 553.888 2843.74 523.566 2853.6Z" fill="#715D58"/>
<path d="M578.757 2778.11L581.57 2779C580.582 2766.31 572.157 2731.3 546.479 2690.87C565.083 2720.57 575.709 2761.08 578.757 2778.11Z" fill="#715D58"/>
<path d="M511.748 2807.76C528.943 2800.15 542.604 2781.58 547.286 2773.25L542.318 2771.61C539.172 2778.4 528.654 2795.13 511.748 2807.76Z" fill="#715D58"/>
<path d="M521.78 2760.22C522.877 2753.48 519.901 2731.08 499.225 2695.42C516.626 2734.74 519.724 2754.5 519.097 2759.46L521.78 2760.22Z" fill="#715D58"/>
<path d="M678.784 2978.18C665.289 2968.86 636.495 2949.99 629.283 2949C637.224 2951.64 663.67 2970.22 675.9 2979.18L678.784 2978.18Z" fill="#715D58"/>
<path d="M620.959 2997.84L624.253 2997.08C613.554 2985.07 585.94 2959.03 557.843 2946.82C576.707 2955.69 607.203 2983.91 620.959 2997.84Z" fill="#715D58"/>
<path d="M561.01 3019.53C544.358 2996.02 503.646 2949.76 474.017 2952.77C500.298 2951.48 540.94 2997.63 557.976 3020.87L561.01 3019.53Z" fill="#715D58"/>
<path d="M549.081 3040.4L547.383 3031.1L543.214 3032.24L545.716 3042.79C546.813 3042 547.936 3041.2 549.081 3040.4Z" fill="#715D58"/>
<path d="M517.41 3034.43L521.859 3033.16C503.216 3016.85 459.563 2982.91 431.531 2975.17C452.485 2981.26 497.19 3016.92 517.41 3034.43Z" fill="#715D58"/>
<path d="M441.803 3124.6C460.118 3111.32 462.359 3069.92 461.19 3050.88L458.071 3051.35C458.156 3071.58 455.021 3114.56 441.803 3124.6Z" fill="#715D58"/>
<path d="M2368.31 2711.1C2364.68 2726.54 2353.54 2729.53 2348.43 2729.1L2343.81 2711.64C2348.62 2710.08 2358.31 2705.65 2358.68 2700.46C2359.06 2695.26 2370.93 2685.83 2376.82 2681.77L2379.24 2681.14L2386.2 2679.35L2406.13 2679.54L2416.43 2674.02L2425.87 2670.03L2433.86 2662.79L2437.94 2663.58L2446.64 2665.27L2474.6 2670.71L2500.74 2649.33C2506.41 2645.97 2518.83 2635.85 2523.18 2622.2C2528.62 2605.13 2558.16 2573.08 2570.84 2552.88C2580.98 2536.72 2607.11 2502.72 2618.92 2487.73C2628.65 2480.52 2644.12 2469.68 2658.03 2461.32C2659.23 2460.6 2660.42 2459.9 2661.59 2459.22C2672.8 2452.71 2682.51 2448.24 2686.63 2449.23C2696.17 2451.53 2711.92 2447.09 2718.6 2444.59C2732.56 2442.71 2766.59 2441.32 2790.99 2450.81C2792.43 2451.38 2793.88 2451.96 2795.33 2452.58C2818.43 2462.36 2842.12 2478.4 2851.55 2485.59L2868.55 2485L2862.12 2502.21C2863.52 2528.9 2859.06 2590.07 2829.98 2621.24C2800.91 2652.41 2770.63 2666.1 2759.13 2669.05C2748.57 2671.26 2723.45 2677.34 2707.38 2683.99C2691.32 2690.63 2649.97 2694.45 2631.3 2695.52C2615.74 2696.45 2583.27 2698.99 2577.95 2701.68C2572.63 2704.37 2531.05 2704.52 2510.92 2704.26L2448.93 2675.73L2434.43 2672.9L2423.98 2682.36C2412.27 2678.99 2394.84 2688.49 2387.59 2693.66C2382.68 2693.04 2371.95 2695.67 2368.31 2711.1Z" fill="#B59460"/>
<path d="M2790.99 2450.81C2766.59 2441.32 2732.56 2442.71 2718.6 2444.59C2711.92 2447.09 2696.17 2451.53 2686.63 2449.23C2682.51 2448.24 2672.8 2452.71 2661.59 2459.22L2652.97 2452.64L2686.39 2411.87L2703.34 2385.28C2720.26 2394.08 2759 2408.87 2778.57 2397.53C2764.03 2405.53 2723.49 2390.92 2705.03 2382.62L2745.26 2319.51L2683.36 2408.54L2665.45 2429.95C2657.68 2404.36 2643.27 2349.02 2646.22 2327.4C2646.31 2326.85 2646.4 2326.3 2646.49 2325.76C2646.39 2326.28 2646.3 2326.83 2646.22 2327.4C2641.9 2356.16 2655.17 2409.84 2662.49 2433.5L2646.83 2452.23L2636.57 2461.51C2622.27 2436.5 2596.63 2380.6 2608.49 2357.12C2593.69 2382.96 2619.41 2438.96 2634.11 2463.73L2603.98 2491.01L2589.93 2509.69C2582.8 2491.46 2569.41 2452.12 2568.97 2431.28C2568.99 2429.82 2569.03 2428.36 2569.1 2426.92C2568.98 2428.26 2568.94 2429.72 2568.97 2431.28C2568.71 2461.92 2581.28 2497.73 2587.9 2512.39L2550.55 2552.3C2547.33 2537.48 2541.11 2505.77 2541.92 2497.44C2539.9 2504.43 2545.44 2538.41 2548.46 2554.53L2519.13 2590.11L2492.6 2616.84L2461.35 2640.42C2474.02 2627.16 2485.51 2613.59 2485.24 2608.71C2484.78 2600.62 2503.39 2559.39 2512.75 2539.79C2519.53 2515.68 2535.57 2463.64 2545.52 2448.26C2555.47 2432.88 2565.98 2397.23 2569.99 2381.33C2573.66 2368.9 2590.42 2335.66 2628.12 2302.16C2665.82 2268.65 2695.97 2258.72 2706.33 2257.95C2716.7 2253.75 2743.77 2247.07 2769.07 2253.93C2783.19 2252.38 2792.35 2246.4 2795.16 2243.6L2794.48 2269.64C2802.15 2280.17 2817.69 2306.41 2818.57 2327.17C2819.68 2353.12 2799.67 2454.34 2795.33 2452.58C2793.88 2451.96 2792.43 2451.38 2790.99 2450.81Z" fill="#CAA672"/>
<path d="M2618.92 2487.73C2607.11 2502.72 2580.98 2536.72 2570.84 2552.88C2558.16 2573.08 2528.62 2605.13 2523.18 2622.2L2496.99 2639.82L2446.64 2665.27L2437.94 2663.58C2444.25 2657.67 2453.05 2649.11 2461.35 2640.42L2496 2620.6L2522.19 2593.49L2551.98 2558.41L2591.11 2515.94L2607.37 2494.76L2650.23 2455.98L2658.03 2461.32C2644.12 2469.68 2628.65 2480.52 2618.92 2487.73Z" fill="#CAA672"/>
<path d="M2461.35 2640.42L2492.6 2616.84L2519.13 2590.11L2548.46 2554.53L2550.55 2552.3L2587.9 2512.39L2589.93 2509.69L2603.98 2491.01L2634.11 2463.73L2636.57 2461.51L2646.83 2452.23L2662.49 2433.5L2665.45 2429.95L2683.36 2408.54L2745.26 2319.51L2705.03 2382.62L2703.34 2385.28L2686.39 2411.87L2652.97 2452.64L2650.23 2455.98L2607.37 2494.76L2591.11 2515.94L2551.98 2558.41L2522.19 2593.49L2496 2620.6L2461.35 2640.42Z" fill="#715D58"/>
<path d="M2425.3 2246.58C2427.97 2246.9 2435.26 2258.69 2438.58 2264.55L2419.18 2280.21L2413.54 2319.72C2408.75 2318.28 2391.96 2307.42 2363.11 2275.53C2387.28 2308.92 2406.54 2320.74 2413.15 2322.48L2412.53 2326.84L2406.33 2381.81C2392.01 2372.1 2359.32 2345.93 2339.74 2316.86C2339.11 2315.9 2338.48 2314.93 2337.84 2313.96C2338.46 2314.93 2339.1 2315.89 2339.74 2316.86C2366.25 2356.75 2394.81 2378.68 2406 2384.74L2400.8 2441.22C2383.84 2432.23 2346.56 2409.39 2333.14 2389.95C2350.41 2415.62 2385.24 2437.07 2400.49 2444.59L2399.94 2450.57L2395.95 2498.09L2395.79 2513.16L2395.12 2556.52C2384.24 2552.07 2361.91 2541.84 2355.68 2534.9C2355.39 2534.55 2355.12 2534.21 2354.87 2533.87C2355.1 2534.21 2355.37 2534.55 2355.68 2534.9C2363.51 2544.15 2384.97 2555.47 2395.07 2560.12L2394.96 2567.05L2383.37 2656.86L2381.64 2660.71L2375.69 2656.61C2374.38 2656.27 2371.3 2653.9 2369.36 2647.15C2369.95 2617.47 2347.79 2585.95 2336.64 2573.9C2332.14 2563.3 2322.94 2537.49 2322.11 2519.11C2319.11 2472.11 2282.36 2424.9 2283.76 2419.45C2288.68 2415 2289.76 2369.62 2291.51 2355.89C2293.26 2342.16 2289.18 2326.12 2288.6 2320.95C2288.14 2316.81 2297.44 2301.18 2302.15 2293.88L2321.93 2268.77C2329.77 2263.83 2348.71 2252.2 2361.79 2245.22C2374.7 2228.99 2421.96 2246.19 2425.3 2246.58Z" fill="#CAA672"/>
<path d="M2387.63 2659.09L2383.37 2656.86L2394.96 2567.05L2395.07 2560.12L2395.12 2556.52L2395.79 2513.16L2395.95 2498.09L2399.94 2450.57L2400.49 2444.59L2400.8 2441.22L2406 2384.74L2406.33 2381.81L2412.53 2326.84L2413.15 2322.48L2413.54 2319.72L2419.18 2280.21L2438.58 2264.55L2422.39 2283.75L2416.68 2331.43L2415.21 2345.88L2414.68 2351.08L2410.72 2389.96L2409.03 2410.47L2408.57 2416.01L2405.23 2456.42L2404.34 2468.62L2404.06 2472.44L2400.7 2518.59L2400.17 2534.24L2399.64 2536.5L2398.49 2570.95L2396.69 2588.75L2387.63 2659.09Z" fill="#715D58"/>
<path d="M2381.64 2660.71L2383.37 2656.86L2387.63 2659.09L2386.2 2679.35L2379.24 2681.14L2381.64 2660.71Z" fill="#715D58"/>
<path d="M2396.51 2659.02L2387.63 2659.09L2396.69 2588.75L2398.49 2570.95L2399.64 2536.5C2399.79 2536.46 2399.93 2536.41 2400.08 2536.36C2413.7 2531.99 2443.8 2521.6 2450.92 2511.85C2438.81 2522.21 2412.04 2531.09 2400.17 2534.24L2400.7 2518.59L2404.06 2472.44C2428.84 2467.54 2483.09 2449.65 2501.79 2417.24C2476.78 2445.64 2426.4 2463.33 2404.34 2468.62L2405.23 2456.42L2408.57 2416.01C2427.34 2410.8 2471.46 2392.71 2497.74 2362.07C2476.4 2385.77 2429.71 2404.21 2409.03 2410.47L2410.72 2389.96L2414.68 2351.08C2424.2 2350.19 2446.72 2345.26 2460.66 2332.64C2442.25 2342.95 2422.69 2345.76 2415.21 2345.88L2416.68 2331.43L2422.39 2283.75L2438.58 2264.55C2440.2 2261.82 2445.53 2255.67 2453.86 2253C2478.85 2259.61 2504.25 2290.14 2515.59 2307.21C2524.66 2320.86 2527.45 2350.12 2527.7 2363.04C2528.07 2373.47 2527.95 2401.39 2524.57 2429.64C2521.2 2457.89 2501.06 2499.12 2491.41 2516.21C2486.82 2518.97 2476.54 2528.29 2472.12 2543.53C2467.71 2558.76 2456.37 2577.9 2451.25 2585.57C2442.35 2595.52 2424.26 2616.98 2423.05 2623.23C2421.85 2629.48 2404.86 2649.69 2396.51 2659.02Z" fill="#CAA672"/>
<path d="M2395.12 2556.52L2395.07 2560.12C2384.97 2555.47 2363.51 2544.15 2355.68 2534.9C2361.91 2541.84 2384.24 2552.07 2395.12 2556.52Z" fill="#715D58"/>
<path d="M2450.92 2511.85C2443.8 2521.6 2413.7 2531.99 2400.08 2536.36L2400.17 2534.24C2412.04 2531.09 2438.81 2522.21 2450.92 2511.85Z" fill="#715D58"/>
<path d="M2501.79 2417.24C2483.09 2449.65 2428.84 2467.54 2404.06 2472.44L2404.34 2468.62C2426.4 2463.33 2476.78 2445.64 2501.79 2417.24Z" fill="#715D58"/>
<path d="M2400.49 2444.59C2385.24 2437.07 2350.41 2415.62 2333.14 2389.95C2346.56 2409.39 2383.84 2432.23 2400.8 2441.22L2400.49 2444.59Z" fill="#715D58"/>
<path d="M2497.74 2362.07C2471.46 2392.71 2427.34 2410.8 2408.57 2416.01L2409.03 2410.47C2429.71 2404.21 2476.4 2385.77 2497.74 2362.07Z" fill="#715D58"/>
<path d="M2406.33 2381.81L2406 2384.74C2394.81 2378.68 2366.25 2356.75 2339.74 2316.86C2359.32 2345.93 2392.01 2372.1 2406.33 2381.81Z" fill="#715D58"/>
<path d="M2460.66 2332.64C2446.72 2345.26 2424.2 2350.19 2414.68 2351.08L2415.21 2345.88C2422.69 2345.76 2442.25 2342.95 2460.66 2332.64Z" fill="#715D58"/>
<path d="M2413.15 2322.48C2406.54 2320.74 2387.28 2308.92 2363.11 2275.53C2391.96 2307.42 2408.75 2318.28 2413.54 2319.72L2413.15 2322.48Z" fill="#715D58"/>
<path d="M2548.46 2554.53C2545.44 2538.41 2539.9 2504.43 2541.92 2497.44C2541.11 2505.77 2547.33 2537.48 2550.55 2552.3L2548.46 2554.53Z" fill="#715D58"/>
<path d="M2589.93 2509.69L2587.9 2512.39C2581.28 2497.73 2568.71 2461.92 2568.97 2431.28C2569.41 2452.12 2582.8 2491.46 2589.93 2509.69Z" fill="#715D58"/>
<path d="M2634.11 2463.73C2619.41 2438.96 2593.69 2382.96 2608.49 2357.12C2596.63 2380.6 2622.27 2436.5 2636.57 2461.51L2634.11 2463.73Z" fill="#715D58"/>
<path d="M2658.03 2461.32L2650.23 2455.98L2652.97 2452.64L2661.59 2459.22C2660.42 2459.9 2659.23 2460.6 2658.03 2461.32Z" fill="#715D58"/>
<path d="M2665.45 2429.95L2662.49 2433.5C2655.17 2409.84 2641.9 2356.16 2646.22 2327.4C2643.27 2349.02 2657.68 2404.36 2665.45 2429.95Z" fill="#715D58"/>
<path d="M2778.57 2397.53C2759 2408.87 2720.26 2394.08 2703.34 2385.28L2705.03 2382.62C2723.49 2390.92 2764.03 2405.53 2778.57 2397.53Z" fill="#715D58"/>
<path d="M2393.65 2937.42C2381.22 2947.26 2370.63 2942.68 2366.89 2939.17L2374.12 2922.62C2378.85 2924.38 2389.2 2926.94 2392.72 2923.1C2396.24 2919.26 2411.4 2919.24 2418.54 2919.72L2420.83 2920.73L2427.39 2923.65L2442.9 2936.17L2454.39 2938.24L2464.27 2940.98L2475.03 2940.28L2477.73 2943.43L2483.5 2950.16L2502.03 2971.79L2535.8 2971.28C2542.33 2972.17 2558.35 2971.95 2570.24 2963.95C2585.1 2953.96 2628.17 2947.2 2650.65 2939.24C2668.63 2932.88 2710.24 2922.47 2728.79 2918.06C2740.9 2918.45 2759.76 2919.57 2775.86 2921.66C2777.25 2921.84 2778.61 2922.03 2779.95 2922.22C2792.78 2924.08 2803.16 2926.62 2805.77 2929.95C2811.82 2937.68 2826.92 2943.99 2833.71 2946.18C2845.82 2953.37 2873.35 2973.42 2886.57 2996.02C2887.35 2997.36 2888.12 2998.72 2888.88 3000.1C2900.9 3022.11 2909.5 3049.41 2912.42 3060.89L2926.11 3071L2910.38 3080.49C2894.9 3102.27 2853.4 3147.44 2811.26 3153.8C2769.11 3160.17 2736.88 3152.08 2726.03 3147.24C2716.39 3142.42 2692.92 3131.58 2676.2 3126.81C2659.49 3122.03 2624.72 3099.34 2609.42 3088.59C2596.64 3079.64 2569.63 3061.46 2563.79 3060.26C2557.94 3059.07 2525.27 3033.36 2509.66 3020.65L2478.8 2959.78L2469.2 2948.56L2455.13 2949.48C2448.05 2939.56 2428.49 2936.18 2419.59 2935.72C2416.13 2932.19 2406.09 2927.58 2393.65 2937.42Z" fill="#B59460"/>
<path d="M2886.57 2996.02C2873.35 2973.42 2845.82 2953.37 2833.71 2946.18C2826.92 2943.99 2811.82 2937.68 2805.77 2929.95C2803.16 2926.62 2792.78 2924.08 2779.95 2922.22L2777.28 2911.71L2828.79 2900.53L2858.6 2890.21C2866.39 2907.63 2887.56 2943.28 2909.94 2946.55C2893.58 2943.79 2870.88 2907.15 2861.58 2889.18L2932.31 2864.72L2828.5 2896.03L2801.16 2901.69C2810.96 2876.81 2834.05 2824.49 2849.79 2809.38C2850.21 2809 2850.62 2808.62 2851.03 2808.26C2850.62 2808.61 2850.21 2808.98 2849.79 2809.38C2828.54 2829.23 2805.59 2879.54 2796.63 2902.63L2772.72 2907.57L2758.93 2908.48C2763.25 2879.99 2777.88 2820.26 2801.77 2809.23C2774.11 2820.28 2759.48 2880.14 2755.62 2908.69L2715.05 2911.34L2692.44 2917.26C2698.18 2898.54 2712.12 2859.4 2724.73 2842.8C2725.65 2841.65 2726.58 2840.54 2727.54 2839.46C2726.61 2840.43 2725.67 2841.55 2724.73 2842.8C2705.49 2866.64 2693.09 2902.51 2689.17 2918.11L2635.11 2926.18C2641.79 2912.58 2656.62 2883.86 2662.43 2877.84C2656.5 2882.06 2639.73 2912.13 2632.09 2926.63L2587 2936.29L2549.6 2940.77L2510.47 2939.83C2528.64 2937.3 2546.07 2933.81 2548.89 2929.81C2553.56 2923.19 2593.75 2902.44 2613.26 2892.89C2633.55 2878.22 2678.46 2847.4 2695.81 2841.53C2713.16 2835.66 2743.53 2814.25 2756.55 2804.28C2767.15 2796.82 2800.93 2781.19 2851.29 2778.35C2901.65 2775.51 2931.44 2786.46 2940.04 2792.29C2950.78 2795.45 2976.14 2807.03 2991.71 2828.12C3003.73 2835.68 3014.62 2836.68 3018.56 2836.24L3001.86 2856.22C3001.32 2869.23 2997.2 2899.45 2985 2916.27C2969.75 2937.29 2891.18 3004.18 2888.88 3000.1C2888.12 2998.72 2887.35 2997.36 2886.57 2996.02Z" fill="#CAA672"/>
<path d="M2728.79 2918.06C2710.24 2922.47 2668.63 2932.88 2650.65 2939.24C2628.17 2947.2 2585.1 2953.96 2570.24 2963.95L2538.77 2961.5L2483.5 2950.16L2477.73 2943.43C2486.35 2942.73 2498.57 2941.48 2510.47 2939.83L2549.94 2945.82L2587.3 2940.84L2632.43 2931.86L2689.48 2922.88L2715.38 2916.4L2773.05 2912.63L2775.86 2921.66C2759.76 2919.57 2740.9 2918.45 2728.79 2918.06Z" fill="#CAA672"/>
<path d="M2510.47 2939.83L2549.6 2940.77L2587 2936.29L2632.09 2926.63L2635.11 2926.18L2689.17 2918.11L2692.44 2917.26L2715.05 2911.34L2755.62 2908.69L2758.93 2908.48L2772.72 2907.57L2796.63 2902.63L2801.16 2901.69L2828.5 2896.03L2932.31 2864.72L2861.58 2889.18L2858.6 2890.21L2828.79 2900.53L2777.28 2911.71L2773.05 2912.63L2715.38 2916.4L2689.48 2922.88L2632.43 2931.86L2587.3 2940.84L2549.94 2945.82L2510.47 2939.83Z" fill="#715D58"/>
<path d="M2726.88 2608.81C2728.78 2610.71 2727.16 2624.49 2726.12 2631.13L2701.19 2631.35L2672.23 2658.81C2669.38 2654.71 2662.96 2635.77 2660.16 2592.86C2658.36 2634.04 2666.11 2655.27 2670.21 2660.73L2667.01 2663.76L2628.01 2702.99C2622.82 2686.49 2613.46 2645.67 2616.18 2610.73C2616.28 2609.58 2616.38 2608.43 2616.49 2607.27C2616.37 2608.42 2616.27 2609.57 2616.18 2610.73C2612.16 2658.46 2620.92 2693.38 2625.93 2705.08L2586.77 2746.11C2579.06 2728.53 2564.04 2687.47 2565.6 2663.9C2563.18 2694.74 2577.15 2733.19 2584.43 2748.56L2580.28 2752.91L2547.64 2787.67L2538.15 2799.37L2510.69 2832.93C2504.92 2822.69 2493.79 2800.8 2493.22 2791.49C2493.2 2791.04 2493.2 2790.6 2493.21 2790.18C2493.19 2790.59 2493.19 2791.02 2493.22 2791.49C2493.61 2803.6 2503.39 2825.81 2508.41 2835.72L2504.02 2841.09L2439.15 2904.27L2435.4 2906.21L2433.28 2899.29C2432.47 2898.22 2431.52 2894.45 2434.2 2887.95C2453.1 2865.06 2455.32 2826.6 2454.07 2810.23C2457.13 2799.12 2465.94 2773.18 2476.72 2758.26C2503.56 2719.57 2504.09 2659.74 2508.58 2656.35C2515.2 2655.91 2544.23 2621.02 2554.13 2611.35C2564.03 2601.68 2570.8 2586.57 2573.56 2582.16C2575.77 2578.63 2592.77 2572.16 2600.99 2569.37L2632.1 2561.98C2641.31 2562.97 2663.37 2565.63 2677.95 2568.29C2698.15 2563.58 2724.5 2606.42 2726.88 2608.81Z" fill="#CAA672"/>
<path d="M2441.1 2908.65L2439.15 2904.27L2504.02 2841.09L2508.41 2835.72L2510.69 2832.93L2538.15 2799.37L2547.64 2787.67L2580.28 2752.91L2584.43 2748.56L2586.77 2746.11L2625.93 2705.08L2628.01 2702.99L2667.01 2663.76L2670.21 2660.73L2672.23 2658.81L2701.19 2631.35L2726.12 2631.13L2701.51 2636.13L2667.41 2669.94L2657.29 2680.35L2653.64 2684.1L2626.39 2712.1L2612.32 2727.13L2608.51 2731.18L2580.8 2760.77L2572.52 2769.78L2569.93 2772.6L2538.63 2806.68L2528.49 2818.62L2526.67 2820.06L2504.36 2846.33L2491.9 2859.17L2441.1 2908.65Z" fill="#715D58"/>
<path d="M2435.4 2906.21L2439.15 2904.27L2441.1 2908.65L2427.39 2923.65L2420.83 2920.73L2435.4 2906.21Z" fill="#715D58"/>
<path d="M2448.11 2914.12L2441.1 2908.65L2491.9 2859.17L2504.36 2846.33L2526.67 2820.06C2526.81 2820.11 2526.95 2820.16 2527.1 2820.22C2540.48 2825.25 2570.53 2835.81 2582.16 2832.6C2566.24 2833.19 2539.75 2823.52 2528.49 2818.62L2538.63 2806.68L2569.93 2772.6C2592.39 2784.16 2646.01 2803.83 2680.8 2790.05C2643.56 2796.77 2593.09 2779.34 2572.52 2769.78L2580.8 2760.77L2608.51 2731.18C2626.47 2738.76 2672.28 2751.99 2711.9 2744.31C2680.46 2749.62 2632.41 2735.07 2612.32 2727.13L2626.39 2712.1L2653.64 2684.1C2661.65 2689.31 2682.37 2699.44 2701.13 2698.21C2680.29 2694.85 2663.22 2684.9 2657.29 2680.35L2667.41 2669.94L2701.51 2636.13L2726.12 2631.13C2729.09 2630 2737.09 2628.5 2745.27 2631.58C2760.75 2652.28 2761.68 2691.98 2759.97 2712.4C2758.6 2728.74 2742.61 2753.4 2734.78 2763.68C2728.59 2772.08 2711.15 2793.88 2690.95 2813.93C2670.76 2833.97 2629.36 2853.77 2611.19 2861.16C2605.88 2860.47 2592.03 2861.4 2579.1 2870.59C2566.18 2879.78 2545.4 2887.74 2536.63 2890.57C2523.47 2892.84 2495.96 2898.41 2491.13 2902.56C2486.31 2906.72 2460.44 2912 2448.11 2914.12Z" fill="#CAA672"/>
<path d="M2510.69 2832.93L2508.41 2835.72C2503.39 2825.81 2493.61 2803.6 2493.22 2791.49C2493.79 2800.8 2504.92 2822.69 2510.69 2832.93Z" fill="#715D58"/>
<path d="M2582.16 2832.6C2570.53 2835.81 2540.48 2825.25 2527.1 2820.22L2528.49 2818.62C2539.75 2823.52 2566.24 2833.19 2582.16 2832.6Z" fill="#715D58"/>
<path d="M2680.8 2790.05C2646.01 2803.83 2592.39 2784.16 2569.93 2772.6L2572.52 2769.78C2593.09 2779.34 2643.56 2796.77 2680.8 2790.05Z" fill="#715D58"/>
<path d="M2584.43 2748.56C2577.15 2733.19 2563.18 2694.74 2565.6 2663.9C2564.04 2687.47 2579.06 2728.53 2586.77 2746.11L2584.43 2748.56Z" fill="#715D58"/>
<path d="M2711.9 2744.31C2672.28 2751.99 2626.47 2738.76 2608.51 2731.18L2612.32 2727.13C2632.41 2735.07 2680.46 2749.62 2711.9 2744.31Z" fill="#715D58"/>
<path d="M2628.01 2702.99L2625.93 2705.08C2620.92 2693.38 2612.16 2658.46 2616.18 2610.73C2613.46 2645.67 2622.82 2686.49 2628.01 2702.99Z" fill="#715D58"/>
<path d="M2701.13 2698.21C2682.37 2699.44 2661.65 2689.31 2653.64 2684.1L2657.29 2680.35C2663.22 2684.9 2680.29 2694.85 2701.13 2698.21Z" fill="#715D58"/>
<path d="M2670.21 2660.73C2666.11 2655.27 2658.36 2634.04 2660.16 2592.86C2662.96 2635.77 2669.38 2654.71 2672.23 2658.81L2670.21 2660.73Z" fill="#715D58"/>
<path d="M2632.09 2926.63C2639.73 2912.13 2656.5 2882.06 2662.43 2877.84C2656.62 2883.86 2641.79 2912.58 2635.11 2926.18L2632.09 2926.63Z" fill="#715D58"/>
<path d="M2692.44 2917.26L2689.17 2918.11C2693.09 2902.51 2705.49 2866.64 2724.73 2842.8C2712.12 2859.4 2698.18 2898.54 2692.44 2917.26Z" fill="#715D58"/>
<path d="M2755.62 2908.69C2759.48 2880.14 2774.11 2820.28 2801.77 2809.23C2777.88 2820.26 2763.25 2879.99 2758.93 2908.48L2755.62 2908.69Z" fill="#715D58"/>
<path d="M2775.86 2921.66L2773.05 2912.63L2777.28 2911.71L2779.95 2922.22C2778.61 2922.03 2777.25 2921.84 2775.86 2921.66Z" fill="#715D58"/>
<path d="M2801.16 2901.69L2796.63 2902.63C2805.59 2879.54 2828.54 2829.23 2849.79 2809.38C2834.05 2824.49 2810.96 2876.81 2801.16 2901.69Z" fill="#715D58"/>
<path d="M2909.94 2946.55C2887.56 2943.28 2866.39 2907.63 2858.6 2890.21L2861.58 2889.18C2870.88 2907.15 2893.58 2943.79 2909.94 2946.55Z" fill="#715D58"/>
<path d="M2144.28 2902.7L2194.94 2876.61C2194.16 2875.71 2193.4 2874.86 2192.68 2874.06C2191.55 2872.82 2190.5 2871.7 2189.58 2870.76C2176.48 2878.23 2149.7 2893.11 2147.35 2892.87C2145.01 2892.62 2112.25 2914.36 2096.17 2925.26C2074.87 2939.65 2030 2970.63 2020.9 2979.48C2010.77 2985.96 2009.42 2992.04 2010.01 2994.27C2012.14 2994.66 2016.31 2994.68 2015.92 2991.69C2015.54 2988.69 2051.75 2963.17 2069.9 2950.79L2103.88 2927.23L2144.28 2902.7Z" fill="#514842"/>
<path d="M2015.92 2991.69C2016.31 2994.68 2012.14 2994.66 2010.01 2994.27L1922.48 3011.48L1933.26 3022.58L1991.66 3007.9L2052.94 2997.27L2064.31 3005.16L2085.55 3012.93L2117.17 3022.71L2143.21 3030.54L2189.72 3044.26L2229.35 3054.15L2260.19 3062.58L2266.6 3062.67L2268.25 3058.96L2267.2 3057.87L2266.15 3056.79L2230.51 3047.76L2190.36 3037.33L2145.43 3024.7L2120.71 3017.69L2090.69 3007.93L2069.18 3000.43L2062.87 2993.93L2081.29 2993.39L2126.99 2989.48L2150.49 2988.73L2182.33 2984.1L2269.19 2976.49L2336 2971L2415.32 2968.09L2412.16 2964.85L2413.28 2961.66L2336.36 2964.87L2267.68 2970.06L2180.56 2977.4L2151.66 2982.34L2129.5 2982.31L2084.07 2985.95L2015.92 2991.69Z" fill="#514842"/>
<path d="M2269.85 3041.09C2276.15 3048.01 2274.3 3053.08 2272.58 3054.74L2281.42 3053L2308.09 3036.01L2325.08 3024.24L2327.97 3027.21L2313.35 3041.43L2284.84 3056.51L2328.38 3054.18L2386.75 3060.05L2486.51 3064.63L2486.2 3068.1L2383.98 3066.96L2334.17 3060.13L2298.11 3061.5L2286.63 3061.61L2296.41 3068.42L2327.16 3082.72L2353.3 3102.57L2378.18 3116.79L2405.32 3123.04L2408.21 3126.01L2378.67 3120L2355.64 3106.6L2327.1 3086.99L2295.8 3073.75L2285.73 3068.27L2278.85 3064.44L2289.34 3077.4L2286.86 3082.43L2282.45 3073.56C2272.51 3078.5 2256.14 3091.35 2270.28 3103.29C2284.41 3115.23 2334.21 3142.7 2357.34 3154.94C2363.1 3156.35 2378.69 3158.7 2394.95 3156.79C2427.77 3161.09 2474.83 3145.79 2494.26 3137.61L2579.57 3107.82L2660.19 3071.03L2708.28 3049.53L2656.38 3057.36L2539.69 3023.99C2534.73 3022.9 2528.79 3021.58 2522.25 3020.13C2493.11 3013.66 2451.95 3004.42 2431.24 2999.44C2428.77 2998.85 2426.59 2998.31 2424.76 2997.85C2405.86 2990.97 2366.48 2986.1 2349.15 2984.53C2333.21 2985.47 2299.5 2987.96 2292.21 2990.42C2285.6 2989.69 2268.78 3004.24 2261.2 3011.61L2260.17 3027.35C2260.77 3029.05 2263.54 3034.17 2269.85 3041.09Z" fill="#B59E7F"/>
<path d="M2268.25 3058.96L2266.6 3062.67L2282.45 3073.56L2286.86 3082.43L2289.34 3077.4L2278.85 3064.44L2285.73 3068.27L2295.8 3073.75L2327.1 3086.99L2355.64 3106.6L2378.67 3120L2408.21 3126.01L2405.32 3123.04L2378.18 3116.79L2353.3 3102.57L2327.16 3082.72L2296.41 3068.42L2286.63 3061.61L2298.11 3061.5L2334.17 3060.13L2383.98 3066.96L2486.2 3068.1L2486.51 3064.63L2386.75 3060.05L2328.38 3054.18L2284.84 3056.51L2313.35 3041.43L2327.97 3027.21L2325.08 3024.24L2308.09 3036.01L2281.42 3053L2272.58 3054.74L2267.2 3057.87L2268.25 3058.96Z" fill="#A89076"/>
<path d="M2413.28 2961.66L2412.16 2964.85L2415.32 2968.09L2425.31 2978.37L2431.24 2999.44C2451.95 3004.42 2493.11 3013.66 2522.25 3020.13L2541.53 3008L2579.02 2999.44L2631.36 2979.61L2660.9 2967.2L2688.46 2963.05L2633.17 2946.8L2600.7 2940.48C2595.41 2937.39 2582.63 2931.53 2573.85 2932.91C2565.08 2934.28 2551.04 2928.95 2545.12 2926.11C2540.02 2921.94 2526.29 2914.1 2512.17 2916.04C2500.08 2910.11 2482.44 2910.56 2475.13 2911.53L2447.12 2928.76L2421.64 2955.63L2413.28 2961.66Z" fill="#B59E7F"/>
<path d="M2291.19 2840.4C2289.14 2836.12 2271.39 2838 2253.11 2841.31C2250.97 2845.25 2248.76 2854.17 2257.03 2858.34C2265.3 2862.51 2288.07 2850.19 2298.43 2843.51C2294.73 2843.17 2292.07 2842.22 2291.19 2840.4Z" fill="#A89076"/>
<path d="M2289.96 2833.17C2279.18 2825.98 2243.46 2836.43 2226.95 2842.56L2222.63 2847.87C2230.74 2845.85 2242.02 2843.31 2253.11 2841.31C2271.39 2838 2289.14 2836.12 2291.19 2840.4C2292.07 2842.22 2294.73 2843.17 2298.43 2843.51C2308.63 2844.44 2326.7 2840.75 2336.87 2838.09C2348.25 2832.82 2372.57 2824.65 2378.83 2834.13C2385.1 2843.61 2414.56 2824.48 2428.51 2813.73L2425.36 2810.48C2412.67 2820 2384.77 2837.2 2374.63 2829.8C2364.48 2822.4 2342.42 2829.36 2332.66 2833.76C2322.92 2836.56 2300.75 2840.37 2289.96 2833.17Z" fill="#A89076"/>
<path d="M2211.27 2902.82L2323.16 2888.25C2329.45 2893.71 2345.39 2905.68 2358.78 2909.93C2372.17 2914.17 2344.46 2897.36 2328.93 2888.43L2366.66 2881.74C2366.96 2879.52 2366.6 2874.85 2362.77 2873.95C2358.94 2873.04 2331.96 2880.22 2318.95 2883.92L2209.8 2898.06C2210.54 2899.77 2211.06 2901.38 2211.27 2902.82Z" fill="#A89076"/>
<path d="M2158.82 2839.11C2168.77 2844.58 2183.48 2862.49 2189.58 2870.76L2179.39 2819.1L2184.72 2820.24L2192.68 2874.06C2193.4 2874.86 2194.16 2875.71 2194.94 2876.61L2275.86 2775.32L2279.01 2778.57L2226.95 2842.56C2243.46 2836.43 2279.18 2825.98 2289.96 2833.17C2300.75 2840.37 2322.92 2836.56 2332.66 2833.76C2342.42 2829.36 2364.48 2822.4 2374.63 2829.8C2384.77 2837.2 2412.67 2820 2425.36 2810.48L2428.51 2813.73C2414.56 2824.48 2385.1 2843.61 2378.83 2834.13C2372.57 2824.65 2348.25 2832.82 2336.87 2838.09C2326.7 2840.75 2308.63 2844.44 2298.43 2843.51C2288.07 2850.19 2265.3 2862.51 2257.03 2858.34C2248.76 2854.17 2250.97 2845.25 2253.11 2841.31C2242.02 2843.31 2230.74 2845.85 2222.63 2847.87L2197.14 2879.2C2202.04 2885.08 2207.26 2892.19 2209.8 2898.06L2318.95 2883.92C2331.96 2880.22 2358.94 2873.04 2362.77 2873.95C2366.6 2874.85 2366.96 2879.52 2366.66 2881.74L2328.93 2888.43C2344.46 2897.36 2372.17 2914.17 2358.78 2909.93C2345.39 2905.68 2329.45 2893.71 2323.16 2888.25L2211.27 2902.82C2212.63 2912.02 2223.67 2924.97 2229.02 2930.29C2236.51 2935.65 2253.75 2947.61 2262.86 2952.65C2274.25 2958.94 2306.31 2956.71 2323.11 2957.75C2336.55 2958.57 2362.4 2954.46 2373.64 2952.3C2382.4 2943.79 2402.97 2925.16 2415.24 2918.71C2439.51 2909.01 2462.52 2891.87 2470.99 2884.51C2474.67 2881.98 2483.39 2876.25 2488.77 2873.55C2495.62 2871.93 2512.38 2852.7 2519.9 2843.28L2524.6 2832.4C2532.12 2829.3 2547.97 2822.31 2551.22 2819.15C2568.47 2807.43 2576.88 2792.1 2578.93 2785.9L2583.43 2769.95L2598.05 2755.74L2620.9 2745.11L2636.33 2730.11L2615.11 2739.16L2549.02 2750.26C2538.86 2751.54 2516.41 2753.33 2507.91 2750.23C2499.28 2741.78 2485.77 2749.3 2480.1 2754.11L2447.02 2752.59C2438.62 2749.36 2420.09 2743.41 2413.23 2745.45C2406.36 2747.49 2400.03 2747.58 2397.72 2747.37C2392.31 2745.61 2378.91 2744.6 2368.51 2754.71C2353.72 2758.56 2321.41 2757.53 2307.09 2756.53C2289.31 2755.93 2250.21 2754.79 2236.11 2755.02C2222.02 2755.26 2197.32 2779.76 2186.73 2791.98L2189.54 2800.29L2177.09 2812.4L2167.1 2802.12C2160.19 2812.17 2148.86 2833.63 2158.82 2839.11Z" fill="#B59E7F"/>
<path d="M2179.39 2819.1L2189.58 2870.76C2190.5 2871.7 2191.55 2872.82 2192.68 2874.06L2184.72 2820.24L2179.39 2819.1Z" fill="#A89076"/>
<path d="M2275.86 2775.32L2194.94 2876.61C2195.66 2877.44 2196.4 2878.3 2197.14 2879.2L2222.63 2847.87L2226.95 2842.56L2279.01 2778.57L2275.86 2775.32Z" fill="#A89076"/>
<path d="M2423.47 2940.18L2421.64 2955.63L2447.12 2928.76C2446.78 2927.51 2445.36 2924.78 2442.39 2923.89C2439.41 2922.99 2428.53 2934.38 2423.47 2940.18Z" fill="#A4896E"/>
<path d="M2009.49 2774.01L2024.88 2719.14C2023.7 2719.1 2022.56 2719.08 2021.48 2719.07C2019.8 2719.04 2018.27 2719.05 2016.95 2719.08C2013.5 2733.76 2006.16 2763.51 2004.38 2765.06C2002.6 2766.61 1996.21 2805.4 1993.24 2824.6C1989.27 2850 1981.41 2903.95 1981.69 2916.64C1979.53 2928.47 1983.07 2933.6 1985.1 2934.69C1986.84 2933.39 1989.69 2930.36 1987.23 2928.6C1984.78 2926.84 1990.75 2882.95 1994.05 2861.22L1999.94 2820.3L2009.49 2774.01Z" fill="#514842"/>
<path d="M1987.23 2928.6C1989.69 2930.36 1986.84 2933.39 1985.1 2934.69L1938.09 3010.51L1953.56 3010.17L1982.59 2957.41L2016.53 2905.29L2030.05 2902.35L2050.21 2892.09L2078.9 2875.59L2102.37 2861.85L2144.1 2837.14L2178.32 2814.85L2205.5 2798.01L2209.93 2793.38L2208.34 2789.64L2206.83 2789.68L2205.32 2789.71L2174.44 2809.65L2139.45 2831.95L2099.61 2856.25L2077.64 2869.57L2050.05 2884.91L2029.9 2895.56L2020.85 2895.76L2033 2881.89L2061.26 2845.76L2076.72 2828.05L2095.01 2801.58L2148.59 2732.8L2190.07 2680.14L2241.96 2620.07L2237.43 2620.17L2235.85 2617.19L2185.82 2675.7L2142.85 2729.52L2088.9 2798.32L2072.83 2822.85L2057.72 2839.04L2029.45 2874.79L1987.23 2928.6Z" fill="#514842"/>
<path d="M2196.34 2776.31C2205.7 2776.41 2208.15 2781.21 2208.2 2783.6L2212.94 2775.94L2218.67 2744.85L2221.61 2724.39L2225.76 2724.29L2226.21 2744.68L2217.84 2775.84L2245.79 2742.36L2289.84 2703.62L2361.13 2633.68L2363.46 2636.28L2293.01 2710.35L2254.09 2742.18L2230.54 2769.51L2222.8 2777.99L2234.44 2775.47L2265.86 2762.69L2298.19 2757.07L2325.55 2748.53L2348.61 2732.92L2352.75 2732.82L2328.23 2750.36L2302.74 2758.1L2268.94 2765.64L2237.93 2779.55L2227.06 2783.19L2219.57 2785.62L2236.2 2786.76L2238.2 2792L2228.71 2789.19C2225.54 2799.84 2223.81 2820.57 2242.18 2818.36C2260.55 2816.14 2314.58 2798.38 2339.29 2789.77C2344.25 2786.52 2356.59 2776.7 2366.26 2763.5C2391.76 2742.39 2412.61 2697.51 2419.85 2677.71L2456.14 2594.95L2484.09 2510.86L2501.11 2461.01L2471.5 2504.34L2367.59 2567.07C2363.41 2569.96 2358.4 2573.41 2352.88 2577.21C2328.3 2594.14 2293.51 2617.99 2275.76 2629.76C2273.64 2631.16 2271.76 2632.4 2270.18 2633.42C2252.27 2642.58 2221.88 2668.1 2208.93 2679.72C2198.76 2692.03 2177.63 2718.41 2174.46 2725.43C2169.43 2729.77 2168.63 2751.99 2168.87 2762.56L2179.69 2774.03C2181.34 2774.75 2186.98 2776.21 2196.34 2776.31Z" fill="#B59E7F"/>
<path d="M2208.34 2789.64L2209.93 2793.38L2228.71 2789.19L2238.2 2792L2236.2 2786.76L2219.57 2785.62L2227.06 2783.19L2237.93 2779.55L2268.94 2765.64L2302.74 2758.1L2328.23 2750.36L2352.75 2732.82L2348.61 2732.92L2325.55 2748.53L2298.19 2757.07L2265.86 2762.69L2234.44 2775.47L2222.8 2777.99L2230.54 2769.51L2254.09 2742.18L2293.01 2710.35L2363.46 2636.28L2361.13 2633.68L2289.84 2703.62L2245.79 2742.36L2217.84 2775.84L2226.21 2744.68L2225.76 2724.29L2221.61 2724.39L2218.67 2744.85L2212.94 2775.94L2208.2 2783.6L2206.83 2789.68L2208.34 2789.64Z" fill="#A89076"/>
<path d="M2235.85 2617.19L2237.43 2620.17L2241.96 2620.07L2256.29 2619.76L2275.76 2629.76C2293.51 2617.99 2328.3 2594.14 2352.88 2577.21L2357.13 2554.83L2376.4 2521.55L2397.52 2469.72L2408.56 2439.64L2424.28 2416.63L2374.73 2446.05L2347.99 2465.52C2342.12 2467.29 2329.13 2472.66 2324.16 2480.02C2319.19 2487.38 2305.72 2494.03 2299.61 2496.43C2293.09 2497.33 2278 2502.04 2269.8 2513.7C2257.23 2518.51 2245.54 2531.74 2241.27 2537.75L2234.81 2570L2237.14 2606.96L2235.85 2617.19Z" fill="#B59E7F"/>
<path d="M2063.92 2624C2059.39 2622.59 2048.68 2636.86 2038.65 2652.51C2040.08 2656.76 2045.11 2664.45 2053.79 2661.24C2062.48 2658.02 2068.97 2632.95 2071.12 2620.82C2068.36 2623.3 2065.85 2624.6 2063.92 2624Z" fill="#A89076"/>
<path d="M2057.79 2619.98C2045.17 2622.98 2028.51 2656.26 2021.75 2672.52L2022.7 2679.3C2026.74 2671.98 2032.57 2661.99 2038.65 2652.51C2048.68 2636.86 2059.39 2622.59 2063.92 2624C2065.85 2624.6 2068.36 2623.3 2071.12 2620.82C2078.76 2613.99 2088.36 2598.24 2093.33 2588.98C2097.22 2577.06 2107.8 2553.69 2119.01 2555.56C2130.23 2557.42 2136.28 2522.82 2137.91 2505.28L2133.38 2505.38C2131.72 2521.16 2125.3 2553.3 2112.98 2555.69C2100.65 2558.08 2090.72 2578.97 2087.3 2589.11C2082.72 2598.15 2070.4 2616.98 2057.79 2619.98Z" fill="#A89076"/>
<path d="M2055.2 2725.04L2120.73 2633.18C2129.01 2632.29 2148.63 2628.78 2160.86 2621.86C2173.08 2614.94 2141.91 2623.79 2124.79 2629.08L2145.59 2596.89C2144.17 2595.16 2140.5 2592.25 2137.23 2594.43C2133.96 2596.62 2120.84 2621.26 2114.69 2633.31L2050.71 2722.87C2052.47 2723.49 2054 2724.21 2055.2 2725.04Z" fill="#A89076"/>
<path d="M1972.82 2720.05C1983.61 2716.49 2006.74 2717.92 2016.95 2719.08L1972.19 2691.36L1976.65 2688.24L2021.48 2719.07C2022.56 2719.08 2023.7 2719.1 2024.88 2719.14L2005.82 2590.91L2010.35 2590.81L2021.75 2672.52C2028.51 2656.26 2045.17 2622.98 2057.79 2619.98C2070.4 2616.98 2082.72 2598.15 2087.3 2589.11C2090.72 2578.97 2100.65 2558.08 2112.98 2555.69C2125.3 2553.3 2131.72 2521.16 2133.38 2505.38L2137.91 2505.28C2136.28 2522.82 2130.23 2557.42 2119.01 2555.56C2107.8 2553.69 2097.22 2577.06 2093.33 2588.98C2088.36 2598.24 2078.76 2613.99 2071.12 2620.82C2068.97 2632.95 2062.48 2658.02 2053.79 2661.24C2045.11 2664.45 2040.08 2656.76 2038.65 2652.51C2032.57 2661.99 2026.74 2671.98 2022.7 2679.3L2028.28 2719.29C2035.93 2719.71 2044.68 2720.73 2050.71 2722.87L2114.69 2633.31C2120.84 2621.26 2133.96 2596.62 2137.23 2594.43C2140.5 2592.25 2144.17 2595.16 2145.59 2596.89L2124.79 2629.08C2141.91 2623.79 2173.08 2614.94 2160.86 2621.86C2148.63 2628.78 2129.01 2632.29 2120.73 2633.18L2055.2 2725.04C2062.86 2730.31 2079.86 2731.04 2087.4 2730.75C2096.42 2728.91 2116.93 2724.43 2126.82 2721.19C2139.18 2717.14 2159.39 2692.14 2171.59 2680.54C2181.35 2671.26 2195.94 2649.54 2202.01 2639.84C2201.74 2627.63 2202.11 2599.88 2205.74 2586.5C2215.17 2562.12 2218.29 2533.6 2218.67 2522.39C2219.32 2517.96 2221.06 2507.68 2222.74 2501.9C2226.23 2495.78 2223.56 2470.41 2221.79 2458.49L2217.02 2447.64C2219.87 2440.02 2225.55 2423.66 2225.45 2419.13C2228.61 2398.51 2223.12 2381.91 2219.97 2376.19L2211.36 2362.03L2210.91 2341.64L2218.68 2317.68L2218.21 2296.16L2210.38 2317.86L2173.5 2373.82C2167.52 2382.13 2153.54 2399.79 2145.48 2403.89C2133.42 2404.46 2129.72 2419.48 2129.38 2426.91L2105.74 2450.09C2097.65 2454.05 2080.68 2463.56 2077.5 2469.98C2074.32 2476.4 2070.07 2481.1 2068.35 2482.65C2063.37 2485.4 2053.51 2494.53 2053.83 2509.03C2046.58 2522.48 2023.81 2545.44 2013.34 2555.24C2000.79 2567.86 1973.32 2595.71 1963.89 2606.19C1954.46 2616.67 1955.58 2651.44 1957.32 2667.52L1965.33 2671.12L1965.71 2688.49L1951.37 2688.8C1954.03 2700.7 1962.03 2723.62 1972.82 2720.05Z" fill="#B59E7F"/>
<path d="M1972.19 2691.36L2016.95 2719.08C2018.27 2719.05 2019.8 2719.04 2021.48 2719.07L1976.65 2688.24L1972.19 2691.36Z" fill="#A89076"/>
<path d="M2005.82 2590.91L2024.88 2719.14C2025.98 2719.18 2027.12 2719.23 2028.28 2719.29L2022.7 2679.3L2021.75 2672.52L2010.35 2590.81L2005.82 2590.91Z" fill="#A89076"/>
<path d="M2227.06 2595.1L2237.14 2606.96L2234.81 2570C2233.67 2569.39 2230.71 2568.58 2228.02 2570.15C2225.34 2571.72 2226.27 2587.43 2227.06 2595.1Z" fill="#A4896E"/>
<path d="M1158.57 2909.57L1101.68 2906.15C1102.03 2905.02 1102.38 2903.93 1102.72 2902.91C1103.25 2901.31 1103.76 2899.87 1104.22 2898.64C1119.22 2900.19 1149.73 2902.99 1151.78 2901.82C1153.83 2900.65 1192.57 2907.31 1211.69 2910.79C1236.98 2915.36 1290.54 2925.6 1302.43 2930.02C1314.32 2931.86 1318.01 2936.88 1318.37 2939.16C1316.58 2940.37 1312.78 2942.07 1311.92 2939.18C1311.06 2936.28 1267.63 2927.55 1246.02 2923.55L1205.43 2915.71L1158.57 2909.57Z" fill="#514842"/>
<path d="M1311.92 2939.18C1312.78 2942.07 1316.58 2940.37 1318.37 2939.16L1405.41 2919.57L1400.02 2934.07L1340.66 2944.22L1280.3 2959.23L1273.09 2971.04L1256.79 2986.72L1231.81 3008.43L1211.14 3026.11L1174.13 3057.43L1141.86 3082.48L1117.05 3102.64L1111.23 3105.31L1108.21 3102.58L1108.74 3101.16L1109.26 3099.75L1138.22 3077.1L1170.75 3051.35L1206.75 3021.66L1226.54 3005.26L1250.07 2984.22L1266.72 2968.67L1269.87 2960.18L1252.8 2967.12L1209.41 2981.99L1187.6 2990.8L1156.61 2999.41L1074.07 3027.5L1010.73 3049.45L936.982 3078.81L938.559 3074.56L936.253 3072.1L1007.93 3043.98L1072.85 3021.02L1155.53 2992.56L1183.96 2985.42L1204.22 2976.44L1247.25 2961.44L1311.92 2939.18Z" fill="#514842"/>
<path d="M1099.54 3086.88C1096.57 3095.75 1100.31 3099.64 1102.55 3100.47L1093.76 3102.44L1062.5 3097.67L1042.21 3093.75L1040.76 3097.64L1059.87 3104.74L1092.05 3107.04L1051.27 3122.48L1000.24 3151.41L910.812 3195.87L912.501 3198.91L1005.56 3156.61L1048.38 3130.26L1081.92 3116.96L1092.47 3112.42L1086.27 3122.6L1063.91 3148.1L1048 3176.81L1030.98 3199.86L1008.67 3216.53L1007.23 3220.42L1031.83 3203L1047.49 3181.44L1065.69 3151.98L1088.98 3127.23L1095.98 3118.16L1100.73 3111.87L1096.36 3127.96L1100.66 3131.57L1101.12 3121.67C1112.21 3122.17 1132.37 3127.33 1124.26 3143.96C1116.15 3160.58 1081.67 3205.82 1065.45 3226.35C1060.75 3229.97 1047.43 3238.42 1031.79 3243.23C1003.49 3260.41 954.261 3265.41 933.183 3265.76L843.102 3272.95L754.497 3271.83L701.821 3271.57L752.461 3257.79L845.755 3180.15C849.855 3177.15 854.757 3173.55 860.157 3169.58C884.207 3151.9 918.135 3126.83 935.065 3113.92C937.086 3112.38 938.865 3111.01 940.355 3109.84C954.874 3095.92 988.94 3075.57 1004.16 3067.14C1019.12 3061.56 1050.96 3050.23 1058.63 3049.54C1064.38 3046.2 1085.64 3052.73 1095.55 3056.42L1102.85 3070.4C1102.98 3072.19 1102.52 3078 1099.54 3086.88Z" fill="#B59E7F"/>
<path d="M1108.21 3102.58L1111.23 3105.31L1101.12 3121.67L1100.66 3131.57L1096.36 3127.96L1100.73 3111.87L1095.98 3118.16L1088.98 3127.23L1065.69 3151.98L1047.49 3181.44L1031.83 3203L1007.23 3220.42L1008.67 3216.53L1030.98 3199.86L1048 3176.81L1063.91 3148.1L1086.27 3122.6L1092.47 3112.42L1081.92 3116.96L1048.38 3130.26L1005.56 3156.61L912.501 3198.91L910.812 3195.87L1000.24 3151.41L1051.27 3122.48L1092.05 3107.04L1059.87 3104.74L1040.76 3097.64L1042.21 3093.75L1062.5 3097.67L1093.76 3102.44L1102.55 3100.47L1108.74 3101.16L1108.21 3102.58Z" fill="#A89076"/>
<path d="M936.253 3072.1L938.559 3074.56L936.982 3078.81L931.989 3092.25L935.065 3113.92C918.135 3126.83 884.207 3151.9 860.157 3169.58L837.623 3166.26L799.864 3173.57L743.973 3176.55L711.936 3177.12L685.049 3184.44L729.072 3147.27L756.23 3128.38C759.823 3123.41 769.154 3112.89 777.737 3110.61C786.32 3108.32 797.005 3097.78 801.275 3092.79C804.261 3086.92 813.658 3074.2 827.361 3070.28C836.024 3059.97 852.346 3053.27 859.425 3051.2L892.008 3055.66L926.171 3069.96L936.253 3072.1Z" fill="#B59E7F"/>
<path d="M999.003 2911.87C999.157 2907.14 1016.15 2901.68 1034.21 2897.33C1037.76 2900.08 1043.38 2907.35 1037.5 2914.5C1031.62 2921.66 1005.81 2919.57 993.637 2917.64C996.883 2915.84 998.937 2913.9 999.003 2911.87Z" fill="#A89076"/>
<path d="M997.212 2904.77C1004.18 2893.83 1041.08 2888.98 1058.66 2887.92L1064.75 2891.04C1056.52 2892.46 1045.17 2894.7 1034.21 2897.33C1016.15 2901.68 999.157 2907.14 999.003 2911.87C998.937 2913.9 996.883 2915.84 993.637 2917.64C984.683 2922.61 966.657 2926.53 956.28 2928.2C943.744 2927.97 918.195 2930.31 916.288 2941.52C914.381 2952.72 879.702 2947.11 862.601 2942.9L864.178 2938.66C879.627 2942.25 912.098 2946.72 918.39 2935.86C924.682 2924.99 947.674 2922.45 958.383 2922.54C968.424 2921.17 990.248 2915.7 997.212 2904.77Z" fill="#A89076"/>
<path d="M1097.32 2936.73L989.07 2968.56C985.516 2976.09 975.773 2993.48 965.233 3002.77C954.694 3012.05 973.263 2985.49 983.865 2971.05L946.642 2980.16C945.472 2978.25 943.917 2973.84 947.055 2971.46C950.194 2969.08 977.775 2964.76 991.173 2962.9L1096.74 2931.77C1096.76 2933.64 1096.93 2935.32 1097.32 2936.73Z" fill="#A89076"/>
<path d="M1119.59 2857.26C1112.7 2866.29 1106.47 2888.61 1104.22 2898.64L1092.69 2847.26L1088.29 2850.46L1102.72 2902.91C1102.38 2903.93 1102.03 2905.02 1101.68 2906.15L986.765 2846.15L985.188 2850.39L1058.66 2887.92C1041.08 2888.98 1004.18 2893.83 997.212 2904.77C990.248 2915.7 968.424 2921.17 958.383 2922.54C947.674 2922.45 924.682 2924.99 918.39 2935.86C912.098 2946.72 879.627 2942.25 864.178 2938.66L862.601 2942.9C879.702 2947.11 914.381 2952.72 916.288 2941.52C918.195 2930.31 943.744 2927.97 956.28 2928.2C966.657 2926.53 984.683 2922.61 993.637 2917.64C1005.81 2919.57 1031.62 2921.66 1037.5 2914.5C1043.38 2907.35 1037.76 2900.08 1034.21 2897.33C1045.17 2894.7 1056.52 2892.46 1064.75 2891.04L1100.71 2909.41C1098.6 2916.77 1096.7 2925.38 1096.74 2931.77L991.173 2962.9C977.775 2964.76 950.194 2969.08 947.055 2971.46C943.917 2973.84 945.472 2978.25 946.642 2980.16L983.865 2971.05C973.263 2985.49 954.694 3012.05 965.233 3002.77C975.773 2993.48 985.516 2976.09 989.07 2968.56L1097.32 2936.73C1099.79 2945.69 1094.92 2961.99 1092.17 2969.02C1087.48 2976.94 1076.53 2994.85 1070.23 3003.14C1062.36 3013.49 1032.12 3024.4 1017.17 3032.12C1005.2 3038.3 979.897 3044.98 968.74 3047.54C957.295 3043.29 930.949 3034.54 917.123 3033.59C891.001 3034.51 863.031 3028.12 852.311 3024.81C847.919 3023.98 837.631 3022.25 831.62 3021.95C824.695 3023.24 801.598 3012.41 790.915 3006.83L782.227 2998.77C774.096 2998.97 756.774 2998.98 752.526 2997.4C732.009 2993.64 718.128 2983.01 713.751 2978.16L703.192 2965.38L684.078 2958.28L658.887 2957.78L638.712 2950.28L661.778 2950L726.728 2933.48C736.543 2930.55 757.804 2923.13 764.323 2916.85C768.811 2905.64 784.206 2907.07 791.342 2909.18L820.989 2894.44C827.376 2888.09 841.925 2875.17 849.028 2874.26C856.131 2873.36 861.964 2870.89 863.993 2869.76C868.223 2865.97 880.081 2859.64 893.673 2864.69C908.76 2862.24 937.912 2848.25 950.602 2841.57C966.632 2833.84 1001.94 2817.01 1014.93 2811.53C1027.92 2806.05 1060.41 2818.5 1075.03 2825.41L1075.81 2834.15L1092.1 2840.2L1097.09 2826.76C1107.47 2833.16 1126.49 2848.23 1119.59 2857.26Z" fill="#B59E7F"/>
<path d="M1092.69 2847.26L1104.22 2898.64C1103.76 2899.87 1103.25 2901.31 1102.72 2902.91L1088.29 2850.46L1092.69 2847.26Z" fill="#A89076"/>
<path d="M986.765 2846.15L1101.68 2906.15C1101.36 2907.2 1101.03 2908.29 1100.71 2909.41L1064.75 2891.04L1058.66 2887.92L985.188 2850.39L986.765 2846.15Z" fill="#A89076"/>
<path d="M918.26 3056.56L926.171 3069.96L892.008 3055.66C891.812 3054.38 892.011 3051.31 894.373 3049.29C896.735 3047.27 911.282 3053.29 918.26 3056.56Z" fill="#A4896E"/>
<path d="M1171.83 2871.74L1137.55 2826.21C1138.64 2825.74 1139.69 2825.31 1140.69 2824.9C1142.25 2824.27 1143.68 2823.72 1144.91 2823.27C1153.46 2835.7 1171.11 2860.74 1173.33 2861.54C1175.55 2862.34 1195.59 2896.16 1205.34 2912.97C1218.26 2935.19 1245.19 2982.6 1249.54 2994.52C1255.84 3004.76 1254.41 3010.83 1252.91 3012.58C1250.83 3012 1247.07 3010.21 1248.71 3007.68C1250.36 3005.15 1228.85 2966.43 1217.89 2947.38L1197.53 2911.4L1171.83 2871.74Z" fill="#514842"/>
<path d="M1248.71 3007.68C1247.07 3010.21 1250.83 3012 1252.91 3012.58L1324.25 3066.15L1309.72 3071.45L1263.51 3032.83L1212.95 2996.61L1199.28 2998.78L1176.78 2996.54L1144.05 2991.59L1117.19 2987.32L1069.34 2979.45L1029.36 2971.12L997.919 2965.31L992.113 2962.6L992.237 2958.54L993.654 2958.02L995.072 2957.5L1031.09 2964.86L1071.78 2972.93L1117.73 2981.09L1143.04 2985.53L1174.32 2989.8L1196.95 2992.4L1205.46 2989.29L1189.11 2980.79L1149.65 2957.4L1128.81 2946.51L1102.16 2928.49L1027.25 2883.87L969.476 2849.88L899.314 2812.76L903.568 2811.21L903.951 2807.86L971.822 2844.2L1031.41 2878.74L1106.67 2923.23L1130.55 2940.25L1150.51 2949.85L1189.84 2972.88L1248.71 3007.68Z" fill="#514842"/>
<path d="M998.567 2941.76C989.88 2945.25 989.347 2950.61 990.167 2952.86L982.971 2947.45L966.337 2920.55L956.16 2902.56L952.261 2903.98L959.247 2923.14L978.363 2949.13L940.169 2928.09L885.05 2908L793.223 2868.74L792.002 2872L884.544 2915.42L932.371 2930.93L964.242 2947.84L974.531 2952.93L962.767 2954.81L928.852 2954.32L896.687 2960.83L868.094 2962.81L840.943 2956.64L837.044 2958.06L866.26 2965.49L892.822 2963.44L927.052 2958.19L961 2959.88L972.444 2959.32L980.309 2958.87L965.23 2965.97L965.269 2971.59L973.096 2965.52C979.908 2974.29 989.054 2992.98 971.135 2997.58C953.217 3002.19 896.428 3005.27 870.274 3006.23C864.47 3005 849.409 3000.33 835.601 2991.54C804.176 2981.14 768.45 2946.9 754.515 2931.08L690.641 2867.16L634.046 2798.98L600.084 2758.71L643.415 2788.32L763.009 2809.02C767.955 2810.19 773.872 2811.59 780.395 2813.13C809.451 2819.97 850.532 2829.55 871.341 2834.07C873.825 2834.61 876.02 2835.07 877.871 2835.45C897.887 2837.48 935.465 2850.22 951.753 2856.34C965.7 2864.11 994.968 2881.01 1000.47 2886.4C1006.74 2888.62 1015.55 2909.04 1019.17 2918.97L1013.26 2933.59C1011.98 2934.86 1007.25 2938.27 998.567 2941.76Z" fill="#B59E7F"/>
<path d="M992.237 2958.54L992.113 2962.6L973.096 2965.52L965.269 2971.59L965.23 2965.97L980.309 2958.87L972.444 2959.32L961 2959.88L927.052 2958.19L892.822 2963.44L866.26 2965.49L837.044 2958.06L840.943 2956.64L868.094 2962.81L896.687 2960.83L928.852 2954.32L962.767 2954.81L974.531 2952.93L964.242 2947.84L932.371 2930.93L884.544 2915.42L792.002 2872L793.223 2868.74L885.05 2908L940.169 2928.09L978.363 2949.13L959.247 2923.14L952.261 2903.98L956.16 2902.56L966.337 2920.55L982.971 2947.45L990.167 2952.86L993.654 2958.02L992.237 2958.54Z" fill="#A89076"/>
<path d="M903.951 2807.86L903.568 2811.21L899.314 2812.76L885.845 2817.67L871.341 2834.07C850.532 2829.55 809.451 2819.97 780.395 2813.13L768.31 2793.82L738.268 2769.81L699.76 2729.19L678.551 2705.17L655.547 2689.45L712.393 2698.86L744.383 2707.29C750.497 2706.8 764.551 2707.09 771.855 2712.14C779.16 2717.19 794.118 2718.49 800.683 2718.51C807.086 2716.98 822.86 2715.89 834.733 2723.78C848.195 2723.69 863.885 2731.77 870.047 2735.82L887.779 2763.51L899.04 2798.79L903.951 2807.86Z" fill="#B59E7F"/>
<path d="M1066.62 2751.75C1070.33 2748.79 1085.49 2758.19 1100.52 2769.13C1100.73 2773.6 1098.84 2782.6 1089.58 2782.76C1080.32 2782.92 1065.17 2761.92 1058.75 2751.4C1062.23 2752.7 1065.04 2753.01 1066.62 2751.75Z" fill="#A89076"/>
<path d="M1070.87 2745.78C1083.71 2743.99 1111.33 2768.94 1123.53 2781.63L1125.11 2788.29C1118.69 2782.95 1109.63 2775.76 1100.52 2769.13C1085.49 2758.19 1070.33 2748.79 1066.62 2751.75C1065.04 2753.01 1062.23 2752.7 1058.75 2751.4C1049.16 2747.81 1034.49 2736.62 1026.49 2729.81C1018.54 2720.11 1000.19 2702.18 990.422 2707.99C980.654 2713.81 962.443 2683.76 954.558 2668.02L958.811 2666.47C966.092 2680.56 983.742 2708.18 996.093 2705.92C1008.44 2703.67 1025.28 2719.53 1032.16 2727.74C1039.71 2734.5 1058.03 2747.57 1070.87 2745.78Z" fill="#A89076"/>
<path d="M1111.44 2842.71L1017.02 2780.94C1008.98 2783.11 989.427 2786.97 975.523 2784.97C961.62 2782.97 993.882 2779.88 1011.75 2778.59L980.679 2756.16C981.375 2754.03 983.728 2749.98 987.572 2750.83C991.415 2751.68 1012.59 2769.88 1022.7 2778.87L1114.84 2839.06C1113.42 2840.28 1112.26 2841.51 1111.44 2842.71Z" fill="#A89076"/>
<path d="M1186.39 2808.15C1175.04 2808.75 1154.01 2818.48 1144.91 2823.27L1176.55 2781.19L1171.26 2779.9L1140.69 2824.9C1139.69 2825.31 1138.64 2825.74 1137.55 2826.21L1108.72 2699.82L1104.47 2701.37L1123.53 2781.63C1111.33 2768.94 1083.71 2743.99 1070.87 2745.78C1058.03 2747.57 1039.71 2734.5 1032.16 2727.74C1025.28 2719.53 1008.44 2703.67 996.093 2705.92C983.742 2708.18 966.092 2680.56 958.811 2666.47L954.558 2668.02C962.443 2683.76 980.654 2713.81 990.422 2707.99C1000.19 2702.18 1018.54 2720.11 1026.49 2729.81C1034.49 2736.62 1049.16 2747.81 1058.75 2751.4C1065.17 2761.92 1080.32 2782.92 1089.58 2782.76C1098.84 2782.6 1100.73 2773.6 1100.52 2769.13C1109.63 2775.76 1118.69 2782.95 1125.11 2788.29L1134.44 2827.59C1127.46 2830.75 1119.68 2834.89 1114.84 2839.06L1022.7 2778.87C1012.59 2769.88 991.415 2751.68 987.572 2750.83C983.728 2749.98 981.375 2754.03 980.679 2756.16L1011.75 2778.59C993.882 2779.88 961.62 2782.97 975.523 2784.97C989.427 2786.97 1008.98 2783.11 1017.02 2780.94L1111.44 2842.71C1106.22 2850.41 1090.64 2857.27 1083.51 2859.73C1074.44 2861.3 1053.71 2864.57 1043.32 2865.15C1030.33 2865.87 1002.42 2849.92 986.844 2843.54C974.382 2838.44 952.896 2823.5 943.71 2816.67C939.527 2805.2 929.101 2779.47 920.861 2768.33C903.223 2749.04 889.956 2723.6 885.527 2713.29C883.308 2709.41 877.955 2700.46 874.287 2695.68C868.814 2691.25 862.088 2666.64 859.409 2654.89L859.91 2643.05C854.487 2636.99 843.253 2623.8 841.7 2619.55C831.259 2601.49 830.353 2584.03 831.205 2577.55L834.087 2561.23L827.101 2542.07L811.152 2522.57L803.778 2502.35L818.95 2519.73L873.639 2558.46C882.232 2564.04 901.668 2575.41 910.669 2576.31C922.116 2572.45 931.011 2585.1 934.028 2591.9L964.476 2604.92C973.45 2605.66 992.72 2608.36 998.013 2613.18C1003.31 2618 1008.97 2620.84 1011.14 2621.66C1016.78 2622.42 1029.28 2627.34 1034.25 2640.96C1045.89 2650.87 1075.44 2663.99 1088.76 2669.31C1105.04 2676.51 1140.75 2692.48 1153.34 2698.82C1165.93 2705.16 1177.52 2737.96 1181.74 2753.57L1175.59 2759.83L1181.54 2776.15L1195.01 2771.24C1196.87 2783.29 1197.73 2807.55 1186.39 2808.15Z" fill="#B59E7F"/>
<path d="M1176.55 2781.19L1144.91 2823.27C1143.68 2823.72 1142.25 2824.27 1140.69 2824.9L1171.26 2779.9L1176.55 2781.19Z" fill="#A89076"/>
<path d="M1108.72 2699.82L1137.55 2826.21C1136.54 2826.64 1135.5 2827.1 1134.44 2827.59L1125.11 2788.29L1123.53 2781.63L1104.47 2701.37L1108.72 2699.82Z" fill="#A89076"/>
<path d="M904.116 2784.08L899.04 2798.79L887.779 2763.51C888.627 2762.53 891.09 2760.7 894.159 2761.19C897.229 2761.67 902.076 2776.65 904.116 2784.08Z" fill="#A4896E"/>
<path d="M1787.84 3008.4C1798.05 2997.51 1799.12 2990.25 1798.38 2987.98C1790.06 2957.83 1758.99 2906.76 1745.67 2886.82C1735.02 2870.87 1692.03 2840.62 1671.87 2827.49C1646.35 2815.01 1590.75 2787.42 1572.55 2776.92C1554.35 2766.41 1540.92 2754.39 1536.48 2749.68L1504.3 2716.13C1499.86 2712.08 1488.76 2702.32 1479.88 2695.7C1471.01 2689.09 1462.87 2686.79 1459.91 2686.46H1441.04L1432.17 2688.41H1403.87C1401.09 2687.27 1393.43 2685 1385 2685C1366.8 2686.95 1353 2698.46 1348.38 2703.97C1334.88 2717.26 1304.65 2747.45 1291.78 2761.84C1278.91 2776.24 1252.76 2792.8 1241.29 2799.29L1190.79 2828.95C1176.55 2836.25 1144.07 2856.09 1128.09 2877.1C1108.12 2891.88 1089.81 2925.08 1083.15 2939.83L1064.84 3003.05C1081.26 3019.78 1111.63 3029.15 1124.76 3031.75L1232.41 3051.2L1330.62 3060.44H1455.47L1549.8 3057.03L1649.68 3047.31C1691.48 3038.88 1777.63 3019.3 1787.84 3008.4Z" fill="#EBB31F"/>
<path d="M1403.87 2688.41H1432.17C1433.05 2685.69 1423.66 2670.42 1418.85 2663.12C1416.44 2661.01 1410.75 2656.41 1407.2 2654.85C1404.09 2651.35 1394.43 2650.15 1389.99 2649.99L1381.12 2654.85C1380.19 2655.18 1378.45 2656.8 1378.9 2660.69C1379.34 2664.58 1382.04 2666.85 1383.34 2667.5C1386.48 2668.96 1393.77 2672.94 1397.76 2677.22C1401.76 2681.5 1403.5 2686.46 1403.87 2688.41Z" fill="#AF7B20"/>
<path d="M1054.15 3019.59C1050.35 3027.3 1047.58 3036.13 1048.75 3043.9C1048.96 3045.32 1049.68 3046.79 1050.84 3048.28L1075.38 3034.14C1061.72 3027.49 1055.62 3022.11 1054.15 3019.59Z" fill="#483320"/>
<path d="M1241.84 3104.45C1245.34 3104.94 1248.86 3105.42 1252.39 3105.88C1292.11 3111.12 1333.51 3114.83 1366.14 3113.93C1368.15 3113.88 1370.18 3113.82 1372.24 3113.77C1356.26 3110.14 1331.92 3090.62 1321.74 3081.31C1311.11 3079.99 1299.07 3078.45 1286.23 3076.76C1272.36 3082.81 1264.04 3090.36 1217.98 3100.93C1225.77 3102.14 1233.75 3103.32 1241.84 3104.45Z" fill="#87622D"/>
<path d="M1374.46 3113.71C1427.77 3112.39 1495.63 3111.92 1550.71 3109.68C1535.08 3110.23 1500.72 3091.21 1485.43 3081.58C1470.49 3081.96 1455.35 3082.25 1440.49 3082.46C1429.76 3092 1401.54 3111.59 1374.46 3113.71Z" fill="#87622D"/>
<path d="M1563.12 3109.13C1593.69 3107.67 1619.3 3105.55 1634.69 3102.26C1652.41 3102.26 1677.17 3096.71 1702.39 3089.18C1689.96 3090.77 1662.07 3075.97 1649.68 3068.37C1639.53 3070.2 1629.62 3071.66 1620.27 3072.6C1605.29 3083.18 1572.88 3105.29 1563.12 3109.13Z" fill="#87622D"/>
<path d="M1702.39 3089.18C1735.94 3079.16 1770.32 3065.64 1790.06 3057.03C1780.29 3057.03 1761.95 3046.43 1753.99 3041.13C1750.8 3042.17 1747.47 3043.24 1744 3044.33C1740.49 3054.11 1727.25 3076.76 1702.39 3089.18Z" fill="#87622D"/>
<path d="M1790.06 3057.03C1796.9 3051.68 1811.26 3037.19 1813.92 3022.02C1814.95 3016.17 1813.81 3010.51 1811.65 3005.48C1808.66 3010.19 1804.76 3014.44 1800.62 3018.13C1801.73 3025.91 1801.16 3044.58 1790.06 3057.03Z" fill="#87622D"/>
<path d="M1798.38 2987.98C1799.12 2990.25 1798.05 2997.51 1787.84 3008.4C1777.63 3019.3 1691.48 3038.88 1649.68 3047.31L1549.8 3057.03L1455.47 3060.44H1330.62L1232.41 3051.2L1124.76 3031.75C1111.63 3029.15 1081.26 3019.78 1064.84 3003.05C1061.86 3006.59 1057.58 3012.63 1054.15 3019.59C1055.62 3022.11 1061.72 3027.49 1075.38 3034.14C1078.05 3035.44 1081 3036.78 1084.26 3038.17C1090.08 3040.63 1096.88 3043.22 1104.79 3045.85C1116.12 3049.62 1137.62 3054.04 1163.61 3058.54C1200.81 3064.98 1247.23 3071.6 1286.23 3076.76C1299.07 3078.45 1311.11 3079.99 1321.74 3081.31C1326.06 3081.85 1330.14 3082.35 1333.95 3082.81C1360.98 3083.05 1399.71 3083.04 1440.49 3082.46C1455.35 3082.25 1470.49 3081.96 1485.43 3081.58C1541.13 3080.16 1594.13 3077.45 1620.27 3072.6C1629.62 3071.66 1639.53 3070.2 1649.68 3068.37C1682.06 3062.52 1716.9 3052.86 1744 3044.33C1747.47 3043.24 1750.8 3042.17 1753.99 3041.13C1763.7 3037.96 1772.04 3035.06 1778.41 3032.72C1783.3 3030.56 1792.43 3025.44 1800.62 3018.13C1804.76 3014.44 1808.66 3010.19 1811.65 3005.48C1808.23 2997.48 1802.25 2991.06 1798.38 2987.98Z" fill="#483320"/>
<path fill-rule="evenodd" clip-rule="evenodd" d="M1163.61 3058.54L1134.2 3058.98C1130.13 3064.02 1119.1 3074.67 1107.56 3076.99C1118.42 3080.75 1128.87 3083.95 1136.97 3086.21C1153.68 3089.79 1178.57 3094.57 1206.89 3099.17C1202 3098.38 1176 3071.75 1163.61 3058.54Z" fill="#87622D"/>
<path d="M1104.79 3045.85C1096.88 3043.22 1090.08 3040.63 1084.26 3038.17C1087.03 3049.31 1093.8 3072.05 1098.69 3073.81C1101.65 3074.91 1104.62 3075.97 1107.56 3076.99C1119.1 3074.67 1130.13 3064.02 1134.2 3058.98L1163.61 3058.54C1137.62 3054.04 1116.12 3049.62 1104.79 3045.85Z" fill="#483320"/>
<path d="M1163.61 3058.54C1176 3071.75 1202 3098.38 1206.89 3099.17C1210.53 3099.76 1214.23 3100.35 1217.98 3100.93C1264.04 3090.36 1272.36 3082.81 1286.23 3076.76C1247.23 3071.6 1200.81 3064.98 1163.61 3058.54Z" fill="#483320"/>
<path d="M1333.95 3082.81C1330.14 3082.35 1326.06 3081.85 1321.74 3081.31C1331.92 3090.62 1356.26 3110.14 1372.24 3113.77C1372.98 3113.75 1373.72 3113.73 1374.46 3113.71C1401.54 3111.59 1429.76 3092 1440.49 3082.46C1399.71 3083.04 1360.98 3083.05 1333.95 3082.81Z" fill="#483320"/>
<path d="M1550.91 3109.67C1555.05 3109.5 1559.13 3109.32 1563.12 3109.13C1572.88 3105.29 1605.29 3083.18 1620.27 3072.6C1594.13 3077.45 1541.13 3080.16 1485.43 3081.58C1500.72 3091.21 1535.08 3110.23 1550.71 3109.68C1550.78 3109.68 1550.84 3109.68 1550.91 3109.67Z" fill="#483320"/>
<path d="M1649.68 3068.37C1662.07 3075.97 1689.96 3090.77 1702.39 3089.18C1727.25 3076.76 1740.49 3054.11 1744 3044.33C1716.9 3052.86 1682.06 3062.52 1649.68 3068.37Z" fill="#483320"/>
<path d="M1778.41 3032.72C1772.04 3035.06 1763.7 3037.96 1753.99 3041.13C1761.95 3046.43 1780.29 3057.03 1790.06 3057.03C1801.16 3044.58 1801.73 3025.91 1800.62 3018.13C1792.43 3025.44 1783.3 3030.56 1778.41 3032.72Z" fill="#483320"/>
<path d="M1075.38 3034.14L1050.84 3048.28C1057.38 3056.72 1077.82 3066.1 1098.69 3073.81C1093.8 3072.05 1087.03 3049.31 1084.26 3038.17C1081 3036.78 1078.05 3035.44 1075.38 3034.14Z" fill="#87622D"/>
<path d="M2219.76 3075.13C2233.16 3067.36 2236.63 3060.71 2236.68 3058.35C2238.87 3027.41 2226.38 2970.64 2220.37 2948.16C2215.56 2930.18 2184.71 2890.2 2169.88 2872.46C2149.71 2853.95 2105.92 2813.25 2092.08 2798.52C2078.24 2783.79 2069.47 2768.84 2066.81 2763.21L2047.37 2722.86C2044.5 2717.85 2037.18 2705.66 2030.93 2697.06C2024.68 2688.45 2017.69 2684.15 2014.97 2683.08L1996.97 2678.2L1987.84 2677.77L1960.83 2670.46C1958.56 2668.66 1952.02 2664.52 1943.97 2662.34C1925.95 2659.49 1908.91 2666.92 1902.64 2670.99C1885.29 2680.19 1846.3 2701.2 1829.17 2711.62C1812.05 2722.04 1781.52 2731.1 1768.39 2734.33L1710.23 2749.61C1694.19 2752.9 1656.52 2763.45 1634.2 2779.39C1610.17 2788.34 1581.54 2815.31 1570.22 2827.67L1531.5 2883.3C1541.55 2903.51 1567.39 2920.3 1579.05 2926.17L1675.25 2972.54L1765.88 3006.73L1885.04 3038.97L1976.22 3060.08L2074.81 3076.59C2117.54 3079.34 2206.35 3082.89 2219.76 3075.13Z" fill="#831A01"/>
<path d="M1960.83 2670.46L1987.84 2677.77C1989.6 2675.4 1985.77 2658.39 1983.63 2650.19C1982.04 2647.55 1978.15 2641.69 1975.29 2639.28C1973.5 2635.14 1964.69 2631.5 1960.5 2630.2L1950.4 2632.55C1949.4 2632.62 1947.2 2633.72 1946.32 2637.55C1945.43 2641.38 1947.25 2644.24 1948.27 2645.19C1950.78 2647.4 1956.39 2653.09 1958.77 2658.2C1961.14 2663.32 1961.13 2668.51 1960.83 2670.46Z" fill="#590101"/>
<path d="M1515.74 2896.33C1509.52 2902.71 1503.91 2910.42 1502.41 2918.15C1502.14 2919.56 1502.33 2921.14 1502.94 2922.86L1531.11 2915.7C1520.31 2905.83 1516.3 2899.11 1515.74 2896.33Z" fill="#1F1B0E"/>
<path d="M1666.36 3025.82C1669.53 3027.19 1672.72 3028.55 1675.94 3029.91C1712.09 3045.17 1750.35 3059.4 1781.8 3066.97C1783.74 3067.44 1785.7 3067.91 1787.68 3068.39C1773.65 3060.8 1756.98 3035.88 1750.39 3024.36C1740.68 3020.35 1729.71 3015.78 1718.03 3010.84C1702.76 3013.04 1692.28 3018.1 1644.77 3016.3C1651.79 3019.46 1659.01 3022.65 1666.36 3025.82Z" fill="#9A7531"/>
<path d="M1789.82 3068.91C1841.14 3081.41 1906.07 3098.5 1959.39 3110.58C1944.29 3107.07 1917.89 3080.03 1906.53 3066.9C1892.14 3063.4 1877.6 3059.77 1863.34 3056.13C1849.9 3062.46 1816.37 3073.88 1789.82 3068.91Z" fill="#9A7531"/>
<path d="M1971.42 3113.26C2001.09 3119.76 2026.25 3124.35 2042.04 3125.18C2058.95 3129.76 2084.45 3130.85 2111.05 3130.17C2098.65 3128.48 2077.01 3107.15 2067.73 3096.7C2057.43 3095.83 2047.48 3094.66 2038.24 3093.14C2020.39 3099.37 1982.03 3112.12 1971.42 3113.26Z" fill="#9A7531"/>
<path d="M2111.05 3130.17C2146.44 3129.27 2183.79 3125.25 2205.53 3122.13C2196.21 3119.61 2182.26 3104.75 2176.45 3097.63C2173.06 3097.8 2169.51 3097.96 2165.84 3098.11C2159.2 3106.53 2138.95 3124.74 2111.05 3130.17Z" fill="#9A7531"/>
<path d="M2205.53 3122.13C2213.86 3118.79 2232.43 3108.66 2240.07 3094.86C2243.02 3089.54 2243.83 3083.85 2243.47 3078.49C2239.03 3082.21 2233.88 3085.26 2228.69 3087.71C2227.12 3095.43 2220.31 3113.11 2205.53 3122.13Z" fill="#9A7531"/>
<path d="M2236.68 3058.35C2236.63 3060.71 2233.16 3067.36 2219.76 3075.13C2206.35 3082.89 2117.54 3079.34 2074.81 3076.59L1976.22 3060.08L1885.04 3038.97L1765.88 3006.73L1675.25 2972.54L1579.05 2926.17C1567.39 2920.3 1541.55 2903.51 1531.5 2883.3C1527.46 2885.91 1521.35 2890.57 1515.74 2896.33C1516.3 2899.11 1520.31 2905.83 1531.11 2915.7C1533.22 2917.63 1535.58 2919.68 1538.23 2921.84C1542.96 2925.7 1548.58 2929.92 1555.24 2934.48C1564.79 2941 1583.82 2950.77 1607.12 2961.78C1640.46 2977.54 1682.54 2995.85 1718.03 3010.84C1729.71 3015.78 1740.68 3020.35 1750.39 3024.36C1754.33 3025.99 1758.06 3027.52 1761.54 3028.94C1787.26 3036.15 1824.22 3046.15 1863.34 3056.13C1877.6 3059.77 1892.14 3063.4 1906.53 3066.9C1960.17 3079.92 2011.67 3091.02 2038.24 3093.14C2047.48 3094.66 2057.43 3095.83 2067.73 3096.7C2100.61 3099.47 2137.11 3099.25 2165.84 3098.11C2169.51 3097.96 2173.06 3097.8 2176.45 3097.63C2186.78 3097.11 2195.72 3096.5 2202.58 3095.9C2207.98 3095.11 2218.41 3092.57 2228.69 3087.71C2233.88 3085.26 2239.03 3082.21 2243.47 3078.49C2242.89 3069.96 2239.33 3062.29 2236.68 3058.35Z" fill="#0E0302"/>
<path fill-rule="evenodd" clip-rule="evenodd" d="M1607.12 2961.78L1578.9 2954.61C1573.32 2958.36 1559.22 2965.69 1547.43 2964.92C1556.52 2971.32 1565.42 2977.07 1572.39 2981.32C1587.14 2989.05 1609.29 3000.05 1634.77 3011.75C1630.37 3009.74 1614.5 2977.6 1607.12 2961.78Z" fill="#9A7531"/>
<path d="M1555.24 2934.48C1548.58 2929.92 1542.96 2925.7 1538.23 2921.84C1537.13 2933.2 1535.95 2956.65 1540.02 2959.6C1542.48 2961.41 1544.96 2963.19 1547.43 2964.92C1559.22 2965.69 1573.32 2958.36 1578.9 2954.61L1607.12 2961.78C1583.82 2950.77 1564.79 2941 1555.24 2934.48Z" fill="#1F1B0E"/>
<path d="M1607.12 2961.78C1614.5 2977.6 1630.37 3009.74 1634.77 3011.75C1638.05 3013.25 1641.38 3014.77 1644.77 3016.3C1692.28 3018.1 1702.76 3013.04 1718.03 3010.84C1682.54 2995.85 1640.46 2977.54 1607.12 2961.78Z" fill="#1F1B0E"/>
<path d="M1761.54 3028.94C1758.06 3027.52 1754.33 3025.99 1750.39 3024.36C1756.98 3035.88 1773.65 3060.8 1787.68 3068.39C1788.39 3068.56 1789.1 3068.74 1789.82 3068.91C1816.37 3073.88 1849.9 3062.46 1863.34 3056.13C1824.22 3046.15 1787.26 3036.15 1761.54 3028.94Z" fill="#1F1B0E"/>
<path d="M1959.58 3110.62C1963.6 3111.53 1967.54 3112.41 1971.42 3113.26C1982.03 3112.12 2020.39 3099.37 2038.24 3093.14C2011.67 3091.02 1960.17 3079.92 1906.53 3066.9C1917.89 3080.03 1944.29 3107.07 1959.39 3110.58C1959.46 3110.59 1959.52 3110.61 1959.58 3110.62Z" fill="#1F1B0E"/>
<path d="M2067.73 3096.7C2077.01 3107.15 2098.65 3128.48 2111.05 3130.17C2138.95 3124.74 2159.2 3106.53 2165.84 3098.11C2137.11 3099.25 2100.61 3099.47 2067.73 3096.7Z" fill="#1F1B0E"/>
<path d="M2202.58 3095.9C2195.72 3096.5 2186.78 3097.11 2176.45 3097.63C2182.26 3104.75 2196.21 3119.61 2205.53 3122.13C2220.31 3113.11 2227.12 3095.43 2228.69 3087.71C2218.41 3092.57 2207.98 3095.11 2202.58 3095.9Z" fill="#1F1B0E"/>
<path d="M1531.11 2915.7L1502.94 2922.86C1506.35 2932.61 1522.7 2946.85 1540.02 2959.6C1535.95 2956.65 1537.13 2933.2 1538.23 2921.84C1535.58 2919.68 1533.22 2917.63 1531.11 2915.7Z" fill="#9A7531"/>
</svg>
