<svg width="3001" height="3000" viewBox="0 0 3001 3000" fill="none" xmlns="http://www.w3.org/2000/svg">
<defs>
<linearGradient id="paint0_linear_2302_17795" x1="1500.43" y1="0" x2="1500.43" y2="4217" gradientUnits="userSpaceOnUse">
<stop stop-color="#216CB3"/>
<stop offset="1" stop-color="#CCDBE9" stop-opacity="0"/>
</linearGradient>
</defs>
<path fill-rule="evenodd" clip-rule="evenodd" d="M1500.43 3000C2328.85 3000 3000.43 2328.43 3000.43 1500C3000.43 671.573 2328.85 0 1500.43 0C672 0 0.426758 671.573 0.426758 1500C0.426758 2328.43 672 3000 1500.43 3000ZM312.927 771C150.127 983 104.427 1345.33 101.927 1500C101.927 1934.81 323.927 2284.5 434.927 2405C516.593 2510.33 766.227 2745.5 1111.43 2843.5C1456.63 2941.5 1769.26 2884.33 1882.43 2843.5C1920.93 2841.17 2057.03 2799.8 2293.43 2653C2529.83 2506.2 2699.93 2224.83 2755.43 2102.5C2798.43 2025.5 2887.83 1797.2 2901.43 1500C2915.03 1202.8 2769.09 890.167 2694.43 771C2651.43 711 2537.53 562.4 2425.93 448C2314.33 333.6 2085.09 223.667 1984.43 183C1935.76 166 1770.83 125.9 1500.43 101.5C1230.03 77.1 897.093 229.667 764.427 309C671.593 361 451.327 526.2 312.927 771Z" fill="url(#paint0_linear_2302_17795)"/>
<path d="M2807.45 1522.54L2820.16 1589.91C2822.11 1602.91 2828.46 1624.03 2818.85 1639.18C2822.97 1660.64 2810.9 1684.85 2804.34 1694.27C2783.55 1697.66 2739.32 1705.11 2651.37 1730.03C2563.43 1754.95 2531.41 1788.73 2526.39 1802.51C2522.33 1815.67 2469.89 1849.74 2474.71 1864.52C2447.68 1883.15 2441.12 1957.06 2441.22 1991.69C2438.37 2001.79 2462.1 2045.81 2475.2 2068.09C2491.57 2095.93 2470.5 2132.96 2442.89 2204.79C2395.63 2248.16 2348.88 2294.81 2318.87 2318.1C2308.22 2330.49 2236.57 2365.59 2115.96 2401.89C2063.04 2438.42 2014.37 2505.13 1996.65 2533.92C1990.65 2548.67 2005.15 2601.28 2005.18 2621.1C2011.36 2643.17 2004.24 2663.36 1999.91 2670.7C1998.87 2684.67 1981.02 2713.06 1917.91 2714.93C1937.92 2719.99 1981.62 2724.97 1996.34 2704.38C2011.05 2683.78 2022.17 2665.08 2025.88 2658.3C2026.93 2648.47 2028.01 2627.6 2023.99 2622.81C2019.96 2618.01 2024.49 2600.27 2027.26 2592L2035.47 2567.97C2035.81 2555.97 2047.61 2520.36 2092.1 2474C2136.58 2427.64 2174.58 2421.48 2188.02 2424.19L2267.79 2382.14L2339.55 2343.31L2374.52 2330.93L2395.21 2311.72C2403.47 2306.15 2425.9 2290.68 2449.59 2273.43C2473.25 2249.01 2496.22 2214.05 2504.74 2199.62C2511.5 2190.39 2526.9 2161.67 2534.46 2120.61C2542.01 2079.54 2524.4 2041.68 2514.65 2027.88C2510.83 2025.07 2503.7 2014.87 2505.65 1996.49C2494.11 1979.63 2506.25 1938.47 2513.77 1920C2515.51 1917.17 2527.94 1898.25 2563.69 1845.19C2608.39 1778.87 2670.71 1781.89 2720.09 1762.38C2759.6 1746.78 2814.93 1733.29 2837.65 1728.5C2863.82 1676.58 2868.03 1633.73 2860.24 1609.83C2855.31 1594.69 2814.02 1548.04 2807.45 1522.54Z" fill="#543E30"/>
<path d="M2676 1799.67C2666.06 1806.55 2647.97 1815.9 2643.7 1830.74C2626.74 1841.58 2617.91 1863.4 2615.62 1872.96C2626.14 1886.98 2648.34 1916.95 2685.71 1982.76C2723.09 2048.58 2720.09 2087.74 2713.92 2099.1C2707.58 2109.53 2716.96 2160.59 2704.06 2166.91C2708.18 2193.9 2662.56 2243.14 2639.24 2264.38C2634.2 2272.24 2590.03 2285.7 2567 2291.89C2538.23 2299.63 2526.31 2334.51 2495.05 2394.55L2452.38 2511.41L2452.55 2487.71C2451.21 2479.54 2447.8 2457.15 2444.81 2432.93C2446.67 2404.33 2456.02 2369.64 2460.46 2355.87C2462.5 2346.31 2472.32 2319.8 2495.26 2290.2C2518.2 2260.59 2554.47 2247.4 2569.75 2244.51C2573.98 2244.97 2585.22 2242.79 2596.37 2230.36C2614.8 2226.61 2634.98 2194.31 2642.76 2178.64C2643.59 2175.89 2648.65 2157.12 2662.3 2103.95C2679.35 2037.49 2638.98 2003.58 2621.7 1963.23C2607.87 1930.95 2582.89 1890.9 2572.13 1874.91C2590.91 1827.94 2617.1 1799.16 2637.95 1788.92C2651.16 1782.44 2707.9 1777.43 2729.07 1765.51L2676 1799.67Z" fill="#543E30"/>
<path d="M115.703 1782.5L109.884 1847.58C109.237 1860.1 105.16 1880.68 115.703 1894.33C113.78 1915.07 127.515 1937.13 134.623 1945.57C154.714 1947.14 197.465 1950.71 283.416 1967.43C369.367 1984.14 402.958 2013.72 409.01 2026.43C414.096 2038.62 467.135 2066.86 463.916 2081.29C491.358 2096.87 504.464 2166.63 507.586 2199.57C511.236 2208.96 492.76 2252.7 482.375 2274.92C469.395 2302.7 492.874 2336.25 525.812 2402.36C574.781 2439.85 623.574 2480.51 654.283 2500.26C665.558 2511.2 736.958 2538.9 855.028 2563.83C908.755 2594.37 961.237 2653.95 980.762 2679.92C987.845 2693.47 978.946 2744.65 980.762 2763.5C976.929 2784.98 985.576 2803.62 990.379 2810.26C992.664 2823.45 1012.28 2849.04 1072.47 2845.8C1053.91 2852.21 1012.82 2860.42 996.909 2842C981.001 2823.58 968.692 2806.67 964.525 2800.52C962.619 2791.25 959.651 2771.5 963.031 2766.62C966.411 2761.74 960.457 2745.23 957.058 2737.59L947.011 2715.39C945.572 2704 931.04 2671.08 884.429 2630.52C837.818 2589.96 801.109 2587.12 788.581 2590.77L708.813 2557.11L636.959 2525.88L602.555 2516.89L581.085 2500.26C572.716 2495.62 549.944 2482.69 525.812 2468.17C501.05 2446.82 475.957 2415.4 466.505 2402.36C459.224 2394.12 441.91 2368.03 430.905 2329.58C419.901 2291.12 433.135 2253.72 441.127 2239.82C444.491 2236.85 450.329 2226.58 446.765 2209.25C456.171 2192.3 440.797 2154.13 431.934 2137.16C430.012 2134.6 416.436 2117.6 377.503 2069.98C328.837 2010.46 269.85 2018.28 221.071 2003.65C182.049 1991.95 128.185 1983.52 106.131 1980.76C76.4169 1933.46 68.4266 1893.06 73.6154 1869.71C76.9019 1854.92 111.829 1807.27 115.703 1782.5Z" fill="#543E30"/>
<path d="M287.884 1941.28C300.164 1947.55 321.941 1955.44 329.389 1971.33C350.173 1981.03 363.959 2004.05 368.253 2014.34C359.145 2031.35 339.996 2067.67 310.57 2145.87C281.144 2224.06 291.625 2267.13 300.544 2278.89C309.485 2289.59 308.416 2347.57 323.878 2352.81C324.244 2383.33 383.843 2431.73 413.596 2452.11C420.62 2460.14 472.079 2469.02 498.746 2472.72C532.08 2477.35 551.672 2514.44 597.319 2576.8L661.497 2674.38C661.482 2665.12 661.175 2639.8 660.063 2612.51C652.777 2581.01 636.064 2543.78 628.618 2529.1C624.606 2518.78 608.868 2490.7 578.015 2460.98C547.162 2431.27 504.512 2421.61 487.044 2420.5C482.436 2421.59 469.562 2420.72 454.927 2408.45C433.802 2406.82 405.517 2373.74 394.016 2357.4C392.597 2354.47 383.546 2334.33 358.694 2277.18C327.629 2205.74 366.212 2162.55 378.008 2115.38C387.444 2077.65 407.832 2029.76 416.846 2010.53C387.431 1960.97 353.121 1932.61 328.122 1924.12C312.288 1918.74 248.428 1920.97 222.771 1910.65L287.884 1941.28Z" fill="#543E30"/>
<path d="M828.574 2472.85C831.641 2484.89 841.04 2487.22 845.355 2486.89L849.248 2473.27C845.196 2472.05 837.014 2468.6 836.701 2464.55C836.387 2460.5 826.366 2453.14 821.394 2449.97L819.352 2449.48L813.482 2448.09L796.664 2448.23L787.978 2443.92L780.011 2440.81L773.264 2435.17L769.826 2435.79L762.486 2437.11L738.891 2441.35L716.829 2424.67C712.049 2422.05 701.57 2414.16 697.899 2403.51C693.309 2390.2 668.379 2365.2 657.684 2349.44C649.129 2336.84 627.073 2310.32 617.115 2298.63C608.903 2293 595.844 2284.55 584.106 2278.03C583.095 2277.47 582.094 2276.92 581.107 2276.39C571.65 2271.31 563.453 2267.83 559.979 2268.6C551.93 2270.4 538.639 2266.94 533 2264.98C521.219 2263.51 492.509 2262.43 471.917 2269.84C470.7 2270.27 469.478 2270.73 468.254 2271.21C448.766 2278.84 428.772 2291.36 420.819 2296.96L406.474 2296.5L411.901 2309.93C410.716 2330.74 414.48 2378.45 439.013 2402.76C463.547 2427.08 489.096 2437.75 498.804 2440.05C507.709 2441.77 528.908 2446.52 542.464 2451.7C556.02 2456.88 590.91 2459.86 606.661 2460.7C619.797 2461.43 647.191 2463.4 651.682 2465.5C656.172 2467.6 691.258 2467.72 708.239 2467.52L760.553 2445.26L772.781 2443.05L781.604 2450.43C791.482 2447.8 806.192 2455.21 812.312 2459.25C816.455 2458.77 825.507 2460.81 828.574 2472.85Z" fill="#B59460"/>
<path d="M471.917 2269.84C492.509 2262.43 521.219 2263.51 533 2264.98C538.639 2266.94 551.93 2270.4 559.979 2268.6C563.453 2267.83 571.65 2271.31 581.107 2276.39L588.383 2271.26L560.183 2239.47L545.878 2218.72C531.6 2225.59 498.914 2237.12 482.396 2228.28C494.667 2234.52 528.877 2223.12 544.448 2216.65L510.508 2167.42L562.732 2236.86L577.846 2253.57C584.409 2233.61 596.566 2190.44 594.073 2173.58C594.002 2173.15 593.926 2172.72 593.844 2172.3C593.93 2172.71 594.007 2173.14 594.073 2173.58C597.72 2196.01 586.525 2237.88 580.35 2256.34L593.563 2270.94L602.214 2278.18C614.284 2258.67 635.922 2215.08 625.913 2196.76C638.402 2216.91 616.701 2260.59 604.29 2279.91L629.721 2301.19L641.574 2315.76C647.591 2301.54 658.887 2270.86 659.256 2254.6C659.246 2253.46 659.21 2252.32 659.148 2251.2C659.25 2252.24 659.284 2253.38 659.256 2254.6C659.479 2278.5 648.874 2306.43 643.288 2317.86L674.804 2348.99C677.517 2337.44 682.769 2312.7 682.081 2306.2C683.789 2311.66 679.115 2338.16 676.564 2350.73L701.317 2378.48L723.698 2399.33L750.066 2417.72C739.38 2407.38 729.679 2396.8 729.913 2392.99C730.299 2386.68 714.6 2354.52 706.702 2339.23C700.981 2320.43 687.439 2279.84 679.043 2267.84C670.648 2255.85 661.784 2228.04 658.401 2215.64C655.305 2205.95 641.16 2180.03 609.349 2153.89C577.539 2127.76 552.098 2120.01 543.354 2119.41C534.602 2116.13 511.761 2110.92 490.411 2116.27C478.498 2115.07 470.773 2110.4 468.399 2108.22L468.969 2128.53C462.504 2136.74 449.388 2157.21 448.642 2173.4C447.709 2193.64 464.591 2272.59 468.254 2271.21C469.478 2270.73 470.7 2270.27 471.917 2269.84Z" fill="#CAA672"/>
<path d="M617.115 2298.63C627.073 2310.32 649.129 2336.84 657.684 2349.44C668.379 2365.2 693.309 2390.2 697.899 2403.51L719.997 2417.26L762.486 2437.11L769.826 2435.79C764.495 2431.18 757.069 2424.5 750.066 2417.72L720.83 2402.26L698.736 2381.12L673.599 2353.76L640.579 2320.63L626.853 2304.11L590.695 2273.87L584.106 2278.03C595.844 2284.55 608.903 2293 617.115 2298.63Z" fill="#CAA672"/>
<path d="M750.066 2417.72L723.698 2399.33L701.317 2378.48L676.564 2350.73L674.804 2348.99L643.288 2317.86L641.574 2315.76L629.721 2301.19L604.29 2279.91L602.214 2278.18L593.563 2270.94L580.35 2256.34L577.846 2253.57L562.732 2236.86L510.508 2167.42L544.448 2216.65L545.878 2218.72L560.183 2239.47L588.383 2271.26L590.695 2273.87L626.853 2304.11L640.579 2320.63L673.599 2353.76L698.736 2381.12L720.83 2402.26L750.066 2417.72Z" fill="#715D58"/>
<path d="M780.491 2110.55C778.237 2110.79 772.082 2119.99 769.287 2124.56L785.654 2136.77L790.411 2167.59C794.451 2166.46 808.618 2157.99 832.965 2133.12C812.567 2159.16 796.318 2168.39 790.744 2169.74L791.268 2173.14L796.495 2216.02C808.577 2208.45 836.166 2188.03 852.682 2165.36C853.218 2164.61 853.752 2163.86 854.286 2163.1C853.764 2163.85 853.229 2164.6 852.682 2165.36C830.317 2196.47 806.216 2213.58 796.773 2218.3L801.161 2262.36C815.475 2255.34 846.933 2237.53 858.252 2222.36C843.684 2242.39 814.296 2259.12 801.422 2264.98L801.887 2269.65L805.253 2306.71L805.389 2318.47L805.954 2352.28C815.137 2348.82 833.976 2340.83 839.234 2335.42C839.479 2335.15 839.708 2334.88 839.921 2334.62C839.728 2334.88 839.498 2335.15 839.234 2335.42C832.626 2342.63 814.518 2351.47 806.001 2355.09L806.091 2360.5L815.867 2430.55L817.333 2433.55L822.354 2430.35C823.453 2430.08 826.058 2428.24 827.69 2422.97C827.194 2399.82 845.89 2375.24 855.3 2365.84C859.097 2357.57 866.864 2337.44 867.56 2323.1C870.095 2286.44 901.107 2249.63 899.918 2245.38C895.766 2241.9 894.86 2206.51 893.384 2195.8C891.909 2185.09 895.351 2172.58 895.838 2168.55C896.227 2165.32 888.378 2153.13 884.405 2147.44L867.711 2127.85C861.099 2124 845.116 2114.93 834.08 2109.49C823.19 2096.82 783.309 2110.24 780.491 2110.55Z" fill="#CAA672"/>
<path d="M812.28 2432.28L815.867 2430.55L806.091 2360.5L806.001 2355.09L805.954 2352.28L805.389 2318.47L805.253 2306.71L801.887 2269.65L801.422 2264.98L801.161 2262.36L796.773 2218.3L796.495 2216.02L791.268 2173.14L790.744 2169.74L790.411 2167.59L785.654 2136.77L769.287 2124.56L782.945 2139.54L787.763 2176.72L789.004 2187.99L789.451 2192.05L792.79 2222.37L794.221 2238.37L794.607 2242.69L797.426 2274.21L798.176 2283.73L798.41 2286.7L801.246 2322.7L801.69 2334.91L802.138 2336.67L803.114 2363.54L804.628 2377.42L812.28 2432.28Z" fill="#715D58"/>
<path d="M817.333 2433.55L815.867 2430.55L812.28 2432.28L813.482 2448.09L819.352 2449.48L817.333 2433.55Z" fill="#715D58"/>
<path d="M804.781 2432.23L812.28 2432.28L804.628 2377.42L803.114 2363.54L802.138 2336.67C802.017 2336.63 801.896 2336.6 801.772 2336.56C790.281 2333.15 764.877 2325.05 758.87 2317.45C769.09 2325.52 791.675 2332.45 801.69 2334.91L801.246 2322.7L798.41 2286.7C777.498 2282.88 731.728 2268.93 715.947 2243.65C737.053 2265.8 779.56 2279.6 798.176 2283.73L797.426 2274.21L794.607 2242.69C778.765 2238.63 741.536 2224.52 719.365 2200.62C737.367 2219.1 776.77 2233.49 794.221 2238.37L792.79 2222.37L789.451 2192.05C781.418 2191.36 762.413 2187.51 750.649 2177.67C766.189 2185.71 782.694 2187.9 789.004 2187.99L787.763 2176.72L782.945 2139.54L769.287 2124.56C767.915 2122.43 763.416 2117.64 756.394 2115.55C735.302 2120.7 713.873 2144.52 704.304 2157.83C696.648 2168.48 694.298 2191.3 694.079 2201.38C693.775 2209.51 693.876 2231.29 696.721 2253.32C699.566 2275.36 716.564 2307.52 724.707 2320.84C728.579 2322.99 737.253 2330.27 740.979 2342.15C744.705 2354.03 754.275 2368.96 758.594 2374.94C766.101 2382.7 781.37 2399.44 782.386 2404.32C783.403 2409.19 797.74 2424.95 804.781 2432.23Z" fill="#CAA672"/>
<path d="M805.954 2352.28L806.001 2355.09C814.518 2351.47 832.626 2342.63 839.234 2335.42C833.976 2340.83 815.137 2348.82 805.954 2352.28Z" fill="#715D58"/>
<path d="M758.87 2317.45C764.877 2325.05 790.281 2333.15 801.772 2336.56L801.69 2334.91C791.675 2332.45 769.09 2325.52 758.87 2317.45Z" fill="#715D58"/>
<path d="M715.947 2243.65C731.728 2268.93 777.498 2282.88 798.41 2286.7L798.176 2283.73C779.56 2279.6 737.053 2265.8 715.947 2243.65Z" fill="#715D58"/>
<path d="M801.422 2264.98C814.296 2259.12 843.684 2242.39 858.252 2222.36C846.933 2237.53 815.475 2255.34 801.161 2262.36L801.422 2264.98Z" fill="#715D58"/>
<path d="M719.365 2200.62C741.536 2224.52 778.765 2238.63 794.607 2242.69L794.221 2238.37C776.77 2233.49 737.367 2219.1 719.365 2200.62Z" fill="#715D58"/>
<path d="M796.495 2216.02L796.773 2218.3C806.216 2213.58 830.317 2196.47 852.682 2165.36C836.166 2188.03 808.577 2208.45 796.495 2216.02Z" fill="#715D58"/>
<path d="M750.649 2177.67C762.413 2187.51 781.418 2191.36 789.451 2192.05L789.004 2187.99C782.694 2187.9 766.189 2185.71 750.649 2177.67Z" fill="#715D58"/>
<path d="M790.744 2169.74C796.318 2168.39 812.567 2159.16 832.965 2133.12C808.618 2157.99 794.451 2166.46 790.411 2167.59L790.744 2169.74Z" fill="#715D58"/>
<path d="M676.564 2350.73C679.115 2338.16 683.789 2311.66 682.081 2306.2C682.769 2312.7 677.517 2337.44 674.804 2348.99L676.564 2350.73Z" fill="#715D58"/>
<path d="M641.574 2315.76L643.288 2317.86C648.874 2306.43 659.479 2278.5 659.256 2254.6C658.887 2270.86 647.591 2301.54 641.574 2315.76Z" fill="#715D58"/>
<path d="M604.29 2279.91C616.701 2260.59 638.402 2216.91 625.913 2196.76C635.922 2215.08 614.284 2258.67 602.214 2278.18L604.29 2279.91Z" fill="#715D58"/>
<path d="M584.106 2278.03L590.695 2273.87L588.383 2271.26L581.107 2276.39C582.094 2276.92 583.095 2277.47 584.106 2278.03Z" fill="#715D58"/>
<path d="M577.846 2253.57L580.35 2256.34C586.525 2237.88 597.72 2196.01 594.073 2173.58C596.566 2190.44 584.409 2233.61 577.846 2253.57Z" fill="#715D58"/>
<path d="M482.396 2228.28C498.914 2237.12 531.6 2225.59 545.878 2218.72L544.448 2216.65C528.877 2223.12 494.667 2234.52 482.396 2228.28Z" fill="#715D58"/>
<path d="M881.805 2546.15C894.951 2548.46 901.08 2541.47 902.501 2537.69L890.623 2528.86C887.771 2531.79 881.035 2537.3 876.904 2535.92C872.772 2534.53 861.427 2540.01 856.271 2542.92L854.96 2544.44L851.194 2548.83L844.498 2563.09L836.711 2568.68L830.396 2574.14L822.075 2577.55L821.289 2580.7L819.609 2587.44L814.212 2609.09L788.757 2620.94C784.227 2623.91 772.162 2629.55 760.143 2628.32C745.12 2626.79 710.276 2637.68 690.356 2640.31C674.42 2642.41 639.24 2650.25 623.642 2653.91C614.74 2658.56 601.077 2666.15 589.858 2673.41C588.892 2674.04 587.944 2674.66 587.019 2675.28C578.157 2681.2 571.38 2686.71 570.732 2689.96C569.233 2697.48 560.41 2707.3 556.186 2711.27C549.947 2720.62 537.207 2744.43 536.156 2764.83C536.094 2766.04 536.052 2767.25 536.027 2768.48C535.645 2788.04 539.887 2810.01 542.192 2819.01L535.912 2830.94L551.384 2831.81C571.478 2841.27 620.168 2857.49 654.172 2846.65C688.175 2835.82 709.112 2818.58 715.33 2811.31C720.655 2804.5 733.964 2788.52 744.596 2779.18C755.229 2769.84 772.353 2741.58 779.587 2728.62C785.643 2717.82 798.732 2695.49 802.632 2692.55C806.532 2689.61 820.912 2660.03 827.615 2645.61L826.882 2592.38L829.673 2581.16L840.555 2576.71C841.969 2567.3 855.273 2557.89 861.748 2554.36C862.956 2550.66 868.659 2543.85 881.805 2546.15Z" fill="#B59460"/>
<path d="M536.156 2764.83C537.207 2744.43 549.947 2720.62 556.186 2711.27C560.41 2707.3 569.233 2697.48 570.732 2689.96C571.38 2686.71 578.157 2681.2 587.019 2675.28L584.908 2667.05L542.016 2677.94L515.695 2681.59C516.681 2696.44 514.791 2728.73 499.336 2739.09C510.49 2731.26 513.135 2697.74 513.063 2681.95L450.611 2690.61L540.478 2674.73L563.134 2668.76C546.073 2655.1 508.349 2627.29 490.669 2622.54C490.21 2622.42 489.757 2622.31 489.308 2622.21C489.747 2622.3 490.201 2622.41 490.669 2622.54C514.322 2628.58 551.157 2655.05 566.888 2667.77L586.695 2662.55L597.364 2658.18C582.989 2640.06 548.695 2604.06 526.519 2605.07C551.52 2602.72 585.873 2638.8 599.924 2657.13L631.289 2644.3L650.51 2640.22C638.902 2629.36 613.17 2607.35 597.252 2600.43C596.116 2599.97 594.98 2599.54 593.844 2599.13C594.918 2599.47 596.057 2599.91 597.252 2600.43C620.96 2609.95 644.261 2630.26 653.289 2639.63L696.869 2625.66C686.549 2618.68 664.234 2604.19 657.533 2602.13C663.619 2602.9 687.915 2617.62 699.303 2624.89L736.795 2615.26L766.505 2604.84L795.399 2590.04C780.83 2594.86 766.429 2598.76 762.757 2597.01C756.679 2594.12 718.512 2594.3 700.189 2594.76C679.282 2591.95 633.651 2586.88 618.381 2589.1C603.111 2591.31 572.027 2587.5 558.394 2585.31C547.553 2583.99 516.179 2585.39 477.415 2601.63C438.651 2617.87 420.656 2636.21 416.505 2643.35C409.71 2649.41 395.273 2666.58 391.883 2686.79C385.852 2696.36 378.099 2700.99 374.977 2702.1L395.284 2709.88C400.771 2718.68 415.671 2738.07 431.371 2745.28C450.996 2754.3 535.899 2772.14 536.027 2768.48C536.052 2767.25 536.094 2766.04 536.156 2764.83Z" fill="#CAA672"/>
<path d="M623.642 2653.91C639.24 2650.25 674.42 2642.41 690.356 2640.31C710.276 2637.68 745.12 2626.79 760.143 2628.32L782.716 2615.25L819.609 2587.44L821.289 2580.7C814.567 2583.33 804.947 2586.89 795.399 2590.04L768.235 2608.45L738.352 2618.51L701.091 2628.62L654.922 2643.04L633.019 2647.92L588.425 2666.16L589.858 2673.41C601.077 2666.15 614.74 2658.56 623.642 2653.91Z" fill="#CAA672"/>
<path d="M795.399 2590.04L766.505 2604.84L736.795 2615.26L699.303 2624.89L696.869 2625.66L653.289 2639.63L650.51 2640.22L631.289 2644.3L599.924 2657.13L597.364 2658.18L586.695 2662.55L566.888 2667.77L563.134 2668.76L540.478 2674.73L450.611 2690.61L513.063 2681.95L515.695 2681.59L542.016 2677.94L584.908 2667.05L588.425 2666.16L633.019 2647.92L654.922 2643.04L701.091 2628.62L738.352 2618.51L768.235 2608.45L795.399 2590.04Z" fill="#715D58"/>
<path d="M504.14 2439.48C503.467 2441.49 510.059 2450.42 513.439 2454.64L532.161 2445.78L564.558 2454.29C565.086 2450.42 562.473 2435.02 547.789 2404.35C565.236 2432.16 567.747 2449.63 566.822 2454.89L570.395 2455.83L614.899 2468.84C612.328 2455.56 603.36 2423.96 587.663 2400.8C587.144 2400.04 586.617 2399.28 586.081 2398.52C586.616 2399.27 587.143 2400.03 587.663 2400.8C609.33 2432.33 616.439 2459.64 617.272 2469.54L662.6 2483.74C661.486 2468.8 656.662 2434.99 646.277 2419.27C660.146 2439.71 664.739 2471.33 665.302 2484.58L670.105 2486.09L708.106 2498.31L719.779 2502.98L753.432 2516.24C753.742 2507.08 753.508 2487.93 750.293 2481.28C750.128 2480.97 749.959 2480.67 749.785 2480.38C749.962 2480.65 750.131 2480.95 750.293 2481.28C754.74 2489.8 756.109 2508.68 756.232 2517.35L761.61 2519.47L834.823 2539.69L838.387 2539.67L837.264 2534.13C837.449 2533.09 836.683 2530.14 832.14 2526.62C809.056 2517.63 792.358 2491.85 786.895 2480.08C780.263 2473.51 763.527 2458.77 749.637 2452.36C714.431 2435.31 690.644 2394.16 685.96 2393.43C680.839 2395.53 645.485 2381.91 634.302 2378.8C623.119 2375.69 612.148 2367.7 608.359 2365.65C605.328 2364.01 590.089 2365.68 582.848 2366.72L556.698 2372.86C550.202 2376.88 534.742 2386.69 524.877 2393.8C507.935 2397.84 504.982 2436.98 504.14 2439.48Z" fill="#CAA672"/>
<path d="M835.08 2543.42L834.823 2539.69L761.61 2519.47L756.232 2517.35L753.432 2516.24L719.779 2502.98L708.106 2498.31L670.105 2486.09L665.302 2484.58L662.6 2483.74L617.272 2469.54L614.899 2468.84L570.395 2455.83L566.822 2454.89L564.558 2454.29L532.161 2445.78L513.439 2454.64L533.795 2449.19L572.509 2460.24L584.151 2463.77L588.343 2465.05L619.675 2474.55L636.07 2479.85L640.5 2481.28L672.795 2491.71L682.51 2494.95L685.545 2495.96L722.277 2508.19L734.529 2512.78L736.451 2513.12L763.405 2523.22L777.742 2527.58L835.08 2543.42Z" fill="#715D58"/>
<path d="M838.387 2539.67L834.823 2539.69L835.08 2543.42L851.194 2548.83L854.96 2544.44L838.387 2539.67Z" fill="#715D58"/>
<path d="M831.978 2549.73L835.08 2543.42L777.742 2527.58L763.405 2523.22L736.451 2513.12C736.367 2513.21 736.282 2513.3 736.195 2513.39C728.156 2521.7 709.817 2539.86 699.861 2541.85C711.997 2536.5 728.03 2520.24 734.529 2512.78L722.277 2508.19L685.545 2495.96C673.271 2512.07 640.87 2545.05 609.468 2548.1C639.947 2539.28 670.862 2508.99 682.51 2494.95L672.795 2491.71L640.5 2481.28C630.04 2493.01 600.96 2518.71 568.329 2527.72C593.915 2520.03 624.15 2492.6 636.07 2479.85L619.675 2474.55L588.343 2465.05C584.393 2471.55 572.866 2486.03 558.357 2491.97C572.622 2482.11 581.497 2469.07 584.151 2463.77L572.509 2460.24L533.795 2449.19L513.439 2454.64C510.771 2454.93 504.208 2456.78 499.293 2461.87C495.811 2481.77 510.641 2509.55 519.907 2523.04C527.32 2533.84 548.923 2545.1 558.797 2549.38C566.712 2552.95 588.276 2561.71 611.214 2568.27C634.152 2574.82 672.849 2573.54 689.329 2572.08C693.031 2569.68 703.748 2565.32 717.005 2567C730.262 2568.68 748.912 2566.67 756.579 2565.45C767.301 2562.27 790.054 2556.18 795.287 2557.3C800.52 2558.42 821.928 2552.72 831.978 2549.73Z" fill="#CAA672"/>
<path d="M753.432 2516.24L756.232 2517.35C756.109 2508.68 754.74 2489.8 750.293 2481.28C753.508 2487.93 753.742 2507.08 753.432 2516.24Z" fill="#715D58"/>
<path d="M699.861 2541.85C709.817 2539.86 728.156 2521.7 736.195 2513.39L734.529 2512.78C728.03 2520.24 711.997 2536.5 699.861 2541.85Z" fill="#715D58"/>
<path d="M609.468 2548.1C640.87 2545.05 673.271 2512.07 685.545 2495.96L682.51 2494.95C670.862 2508.99 639.947 2539.28 609.468 2548.1Z" fill="#715D58"/>
<path d="M665.302 2484.58C664.739 2471.33 660.146 2439.71 646.277 2419.27C656.662 2434.99 661.486 2468.8 662.6 2483.74L665.302 2484.58Z" fill="#715D58"/>
<path d="M568.329 2527.72C600.96 2518.71 630.04 2493.01 640.5 2481.28L636.07 2479.85C624.15 2492.6 593.915 2520.03 568.329 2527.72Z" fill="#715D58"/>
<path d="M614.899 2468.84L617.272 2469.54C616.439 2459.64 609.33 2432.33 587.663 2400.8C603.36 2423.96 612.328 2455.56 614.899 2468.84Z" fill="#715D58"/>
<path d="M558.357 2491.97C572.866 2486.03 584.393 2471.55 588.343 2465.05L584.151 2463.77C581.497 2469.07 572.622 2482.11 558.357 2491.97Z" fill="#715D58"/>
<path d="M566.822 2454.89C567.747 2449.63 565.236 2432.16 547.789 2404.35C562.473 2435.02 565.086 2450.42 564.558 2454.29L566.822 2454.89Z" fill="#715D58"/>
<path d="M699.303 2624.89C687.915 2617.62 663.619 2602.9 657.533 2602.13C664.234 2604.19 686.549 2618.68 696.869 2625.66L699.303 2624.89Z" fill="#715D58"/>
<path d="M650.51 2640.22L653.289 2639.63C644.261 2630.26 620.96 2609.95 597.252 2600.43C613.17 2607.35 638.902 2629.36 650.51 2640.22Z" fill="#715D58"/>
<path d="M599.924 2657.13C585.873 2638.8 551.52 2602.72 526.519 2605.07C548.695 2604.06 582.989 2640.06 597.364 2658.18L599.924 2657.13Z" fill="#715D58"/>
<path d="M589.858 2673.41L588.425 2666.16L584.908 2667.05L587.019 2675.28C587.944 2674.66 588.892 2674.04 589.858 2673.41Z" fill="#715D58"/>
<path d="M563.134 2668.76L566.888 2667.77C551.157 2655.05 514.322 2628.58 490.669 2622.54C508.349 2627.29 546.073 2655.1 563.134 2668.76Z" fill="#715D58"/>
<path d="M499.336 2739.09C514.791 2728.73 516.681 2696.44 515.695 2681.59L513.063 2681.95C513.135 2697.74 510.49 2731.26 499.336 2739.09Z" fill="#715D58"/>
<path d="M2124.96 2416.58C2121.89 2428.62 2112.5 2430.95 2108.18 2430.62L2104.29 2417C2108.34 2415.78 2116.52 2412.33 2116.84 2408.28C2117.15 2404.23 2127.17 2396.87 2132.14 2393.7L2134.18 2393.21L2140.05 2391.82L2156.87 2391.96L2165.56 2387.65L2173.53 2384.54L2180.27 2378.9L2183.71 2379.52L2191.05 2380.84L2214.64 2385.08L2236.71 2368.4C2241.49 2365.78 2251.97 2357.89 2255.64 2347.24C2260.23 2333.92 2285.16 2308.93 2295.85 2293.17C2304.41 2280.57 2326.46 2254.05 2336.42 2242.36C2344.63 2236.73 2357.69 2228.28 2369.43 2221.76C2370.44 2221.2 2371.44 2220.65 2372.43 2220.12C2381.89 2215.04 2390.08 2211.56 2393.56 2212.33C2401.61 2214.12 2414.9 2210.66 2420.54 2208.71C2432.32 2207.24 2461.03 2206.16 2481.62 2213.57C2482.84 2214 2484.06 2214.46 2485.28 2214.94C2504.77 2222.57 2524.76 2235.08 2532.72 2240.69L2547.06 2240.23L2541.64 2253.65C2542.82 2274.47 2539.06 2322.18 2514.52 2346.49C2489.99 2370.8 2464.44 2381.48 2454.73 2383.78C2445.83 2385.5 2424.63 2390.25 2411.07 2395.43C2397.52 2400.61 2362.63 2403.59 2346.88 2404.43C2333.74 2405.15 2306.34 2407.13 2301.85 2409.23C2297.36 2411.33 2262.28 2411.45 2245.3 2411.24L2192.98 2388.99L2180.75 2386.78L2171.93 2394.16C2162.05 2391.53 2147.34 2398.94 2141.22 2402.98C2137.08 2402.49 2128.03 2404.54 2124.96 2416.58Z" fill="#B59460"/>
<path d="M2481.62 2213.57C2461.03 2206.16 2432.32 2207.24 2420.54 2208.71C2414.9 2210.66 2401.61 2214.12 2393.56 2212.33C2390.08 2211.56 2381.89 2215.04 2372.43 2220.12L2365.15 2214.99L2393.35 2183.19L2407.66 2162.45C2421.94 2169.32 2454.62 2180.85 2471.14 2172.01C2458.87 2178.24 2424.66 2166.85 2409.09 2160.37L2443.03 2111.15L2390.8 2180.59L2375.69 2197.3C2369.13 2177.34 2356.97 2134.17 2359.46 2117.31C2359.53 2116.88 2359.61 2116.45 2359.69 2116.03C2359.61 2116.44 2359.53 2116.86 2359.46 2117.31C2355.82 2139.74 2367.01 2181.61 2373.19 2200.06L2359.97 2214.67L2351.32 2221.9C2339.25 2202.4 2317.61 2158.8 2327.62 2140.49C2315.13 2160.64 2336.83 2204.32 2349.25 2223.64L2323.81 2244.91L2311.96 2259.48C2305.94 2245.27 2294.65 2214.59 2294.28 2198.33C2294.29 2197.19 2294.33 2196.05 2294.39 2194.93C2294.29 2195.97 2294.25 2197.11 2294.28 2198.33C2294.06 2222.23 2304.66 2250.16 2310.25 2261.59L2278.73 2292.72C2276.02 2281.16 2270.77 2256.43 2271.45 2249.93C2269.75 2255.39 2274.42 2281.89 2276.97 2294.46L2252.22 2322.21L2229.84 2343.06L2203.47 2361.45C2214.16 2351.1 2223.86 2340.53 2223.62 2336.71C2223.24 2330.41 2238.94 2298.25 2246.83 2282.96C2252.56 2264.16 2266.1 2223.57 2274.49 2211.57C2282.89 2199.57 2291.75 2171.77 2295.14 2159.37C2298.23 2149.68 2312.38 2123.75 2344.19 2097.62C2376 2071.48 2401.44 2063.74 2410.18 2063.14C2418.93 2059.86 2441.77 2054.65 2463.12 2060C2475.04 2058.8 2482.76 2054.13 2485.14 2051.95L2484.57 2072.26C2491.03 2080.47 2504.15 2100.94 2504.89 2117.13C2505.83 2137.37 2488.94 2216.32 2485.28 2214.94C2484.06 2214.46 2482.84 2214 2481.62 2213.57Z" fill="#CAA672"/>
<path d="M2336.42 2242.36C2326.46 2254.05 2304.41 2280.57 2295.85 2293.17C2285.16 2308.93 2260.23 2333.92 2255.64 2347.24L2233.54 2360.98L2191.05 2380.84L2183.71 2379.52C2189.04 2374.91 2196.47 2368.23 2203.47 2361.45L2232.71 2345.99L2254.8 2324.85L2279.94 2297.49L2312.96 2264.36L2326.68 2247.84L2362.84 2217.6L2369.43 2221.76C2357.69 2228.28 2344.63 2236.73 2336.42 2242.36Z" fill="#CAA672"/>
<path d="M2203.47 2361.45L2229.84 2343.06L2252.22 2322.21L2276.97 2294.46L2278.73 2292.72L2310.25 2261.59L2311.96 2259.48L2323.81 2244.91L2349.25 2223.64L2351.32 2221.9L2359.97 2214.67L2373.19 2200.06L2375.69 2197.3L2390.8 2180.59L2443.03 2111.15L2409.09 2160.37L2407.66 2162.45L2393.35 2183.19L2365.15 2214.99L2362.84 2217.6L2326.68 2247.84L2312.96 2264.36L2279.94 2297.49L2254.8 2324.85L2232.71 2345.99L2203.47 2361.45Z" fill="#715D58"/>
<path d="M2173.04 2054.27C2175.3 2054.52 2181.45 2063.72 2184.25 2068.29L2167.88 2080.5L2163.12 2111.32C2159.08 2110.19 2144.92 2101.72 2120.57 2076.85C2140.97 2102.89 2157.22 2112.12 2162.79 2113.47L2162.27 2116.87L2157.04 2159.75C2144.96 2152.18 2117.37 2131.76 2100.85 2109.08C2100.32 2108.34 2099.78 2107.59 2099.25 2106.82C2099.77 2107.58 2100.31 2108.33 2100.85 2109.08C2123.22 2140.2 2147.32 2157.31 2156.76 2162.03L2152.38 2206.09C2138.06 2199.07 2106.6 2181.25 2095.28 2166.09C2109.85 2186.12 2139.24 2202.85 2152.11 2208.71L2151.65 2213.38L2148.28 2250.44L2148.15 2262.19L2147.58 2296.01C2138.4 2292.55 2119.56 2284.56 2114.3 2279.15C2114.06 2278.88 2113.83 2278.61 2113.61 2278.35C2113.81 2278.61 2114.04 2278.87 2114.3 2279.15C2120.91 2286.36 2139.02 2295.19 2147.54 2298.82L2147.44 2304.23L2137.67 2374.27L2136.2 2377.28L2131.18 2374.08C2130.08 2373.81 2127.48 2371.96 2125.85 2366.7C2126.34 2343.55 2107.65 2318.97 2098.24 2309.57C2094.44 2301.3 2086.67 2281.17 2085.98 2266.83C2083.44 2230.17 2052.43 2193.35 2053.62 2189.1C2057.77 2185.63 2058.68 2150.24 2060.15 2139.53C2061.63 2128.82 2058.19 2116.31 2057.7 2112.27C2057.31 2109.05 2065.16 2096.86 2069.13 2091.17L2085.83 2071.58C2092.44 2067.72 2108.42 2058.66 2119.46 2053.21C2130.35 2040.55 2170.23 2053.97 2173.04 2054.27Z" fill="#CAA672"/>
<path d="M2141.26 2376.01L2137.67 2374.27L2147.44 2304.23L2147.54 2298.82L2147.58 2296.01L2148.15 2262.19L2148.28 2250.44L2151.65 2213.38L2152.11 2208.71L2152.38 2206.09L2156.76 2162.03L2157.04 2159.75L2162.27 2116.87L2162.79 2113.47L2163.12 2111.32L2167.88 2080.5L2184.25 2068.29L2170.59 2083.27L2165.77 2120.45L2164.53 2131.72L2164.09 2135.78L2160.75 2166.1L2159.32 2182.1L2158.93 2186.42L2156.11 2217.94L2155.36 2227.46L2155.13 2230.43L2152.29 2266.43L2151.85 2278.64L2151.4 2280.4L2150.42 2307.27L2148.91 2321.15L2141.26 2376.01Z" fill="#715D58"/>
<path d="M2136.2 2377.28L2137.67 2374.27L2141.26 2376.01L2140.05 2391.82L2134.18 2393.21L2136.2 2377.28Z" fill="#715D58"/>
<path d="M2148.75 2375.95L2141.26 2376.01L2148.91 2321.15L2150.42 2307.27L2151.4 2280.4C2151.52 2280.36 2151.64 2280.33 2151.76 2280.29C2163.25 2276.88 2188.66 2268.78 2194.67 2261.17C2184.45 2269.25 2161.86 2276.18 2151.85 2278.64L2152.29 2266.43L2155.13 2230.43C2176.04 2226.61 2221.81 2212.66 2237.59 2187.38C2216.48 2209.53 2173.98 2223.33 2155.36 2227.46L2156.11 2217.94L2158.93 2186.42C2174.77 2182.36 2212 2168.25 2234.17 2144.35C2216.17 2162.83 2176.77 2177.22 2159.32 2182.1L2160.75 2166.1L2164.09 2135.78C2172.12 2135.08 2191.12 2131.24 2202.89 2121.4C2187.35 2129.44 2170.84 2131.63 2164.53 2131.72L2165.77 2120.45L2170.59 2083.27L2184.25 2068.29C2185.62 2066.15 2190.12 2061.36 2197.14 2059.28C2218.23 2064.43 2239.66 2088.25 2249.23 2101.56C2256.89 2112.21 2259.24 2135.03 2259.46 2145.11C2259.76 2153.24 2259.66 2175.01 2256.81 2197.05C2253.97 2219.09 2236.97 2251.24 2228.83 2264.57C2224.96 2266.72 2216.28 2274 2212.56 2285.88C2208.83 2297.76 2199.26 2312.69 2194.94 2318.67C2187.43 2326.43 2172.17 2343.17 2171.15 2348.04C2170.13 2352.92 2155.8 2368.68 2148.75 2375.95Z" fill="#CAA672"/>
<path d="M2147.58 2296.01L2147.54 2298.82C2139.02 2295.19 2120.91 2286.36 2114.3 2279.15C2119.56 2284.56 2138.4 2292.55 2147.58 2296.01Z" fill="#715D58"/>
<path d="M2194.67 2261.17C2188.66 2268.78 2163.25 2276.88 2151.76 2280.29L2151.85 2278.64C2161.86 2276.18 2184.45 2269.25 2194.67 2261.17Z" fill="#715D58"/>
<path d="M2237.59 2187.38C2221.81 2212.66 2176.04 2226.61 2155.13 2230.43L2155.36 2227.46C2173.98 2223.33 2216.48 2209.53 2237.59 2187.38Z" fill="#715D58"/>
<path d="M2152.11 2208.71C2139.24 2202.85 2109.85 2186.12 2095.28 2166.09C2106.6 2181.25 2138.06 2199.07 2152.38 2206.09L2152.11 2208.71Z" fill="#715D58"/>
<path d="M2234.17 2144.35C2212 2168.25 2174.77 2182.36 2158.93 2186.42L2159.32 2182.1C2176.77 2177.22 2216.17 2162.83 2234.17 2144.35Z" fill="#715D58"/>
<path d="M2157.04 2159.75L2156.76 2162.03C2147.32 2157.31 2123.22 2140.2 2100.85 2109.08C2117.37 2131.76 2144.96 2152.18 2157.04 2159.75Z" fill="#715D58"/>
<path d="M2202.89 2121.4C2191.12 2131.24 2172.12 2135.08 2164.09 2135.78L2164.53 2131.72C2170.84 2131.63 2187.35 2129.44 2202.89 2121.4Z" fill="#715D58"/>
<path d="M2162.79 2113.47C2157.22 2112.12 2140.97 2102.89 2120.57 2076.85C2144.92 2101.72 2159.08 2110.19 2163.12 2111.32L2162.79 2113.47Z" fill="#715D58"/>
<path d="M2276.97 2294.46C2274.42 2281.89 2269.75 2255.39 2271.45 2249.93C2270.77 2256.43 2276.02 2281.16 2278.73 2292.72L2276.97 2294.46Z" fill="#715D58"/>
<path d="M2311.96 2259.48L2310.25 2261.59C2304.66 2250.16 2294.06 2222.23 2294.28 2198.33C2294.65 2214.59 2305.94 2245.27 2311.96 2259.48Z" fill="#715D58"/>
<path d="M2349.25 2223.64C2336.83 2204.32 2315.13 2160.64 2327.62 2140.49C2317.61 2158.8 2339.25 2202.4 2351.32 2221.9L2349.25 2223.64Z" fill="#715D58"/>
<path d="M2369.43 2221.76L2362.84 2217.6L2365.15 2214.99L2372.43 2220.12C2371.44 2220.65 2370.44 2221.2 2369.43 2221.76Z" fill="#715D58"/>
<path d="M2375.69 2197.3L2373.19 2200.06C2367.01 2181.61 2355.82 2139.74 2359.46 2117.31C2356.97 2134.17 2369.13 2177.34 2375.69 2197.3Z" fill="#715D58"/>
<path d="M2471.14 2172.01C2454.62 2180.85 2421.94 2169.32 2407.66 2162.45L2409.09 2160.37C2424.66 2166.85 2458.87 2178.24 2471.14 2172.01Z" fill="#715D58"/>
<path d="M2146.34 2593.09C2135.85 2600.77 2126.92 2597.2 2123.76 2594.46L2129.86 2581.55C2133.86 2582.92 2142.59 2584.92 2145.55 2581.92C2148.52 2578.93 2161.32 2578.92 2167.35 2579.29L2169.27 2580.08L2174.81 2582.36L2187.9 2592.12L2197.6 2593.74L2205.93 2595.87L2215.01 2595.33L2217.29 2597.78L2222.16 2603.03L2237.79 2619.91L2266.29 2619.5C2271.8 2620.2 2285.32 2620.03 2295.35 2613.79C2307.89 2605.99 2344.23 2600.72 2363.2 2594.52C2378.37 2589.55 2413.48 2581.43 2429.14 2577.99C2439.36 2578.3 2455.27 2579.17 2468.85 2580.8C2470.02 2580.94 2471.17 2581.09 2472.3 2581.24C2483.13 2582.69 2491.89 2584.67 2494.1 2587.27C2499.2 2593.3 2511.94 2598.22 2517.67 2599.92C2527.89 2605.54 2551.11 2621.18 2562.27 2638.8C2562.93 2639.85 2563.58 2640.91 2564.22 2641.99C2574.36 2659.15 2581.62 2680.44 2584.09 2689.4L2595.63 2697.28L2582.36 2704.68C2569.3 2721.67 2534.28 2756.9 2498.72 2761.86C2463.16 2766.83 2435.96 2760.52 2426.81 2756.75C2418.67 2752.99 2398.87 2744.53 2384.76 2740.81C2370.66 2737.09 2341.32 2719.38 2328.41 2711C2317.63 2704.02 2294.83 2689.84 2289.9 2688.91C2284.97 2687.97 2257.4 2667.92 2244.23 2658.01L2218.19 2610.53L2210.09 2601.78L2198.22 2602.5C2192.24 2594.77 2175.74 2592.13 2168.23 2591.77C2165.31 2589.02 2156.84 2585.42 2146.34 2593.09Z" fill="#B59460"/>
<path d="M2562.27 2638.8C2551.11 2621.18 2527.89 2605.54 2517.67 2599.92C2511.94 2598.22 2499.2 2593.3 2494.1 2587.27C2491.89 2584.67 2483.13 2582.69 2472.3 2581.24L2470.05 2573.04L2513.52 2564.32L2538.67 2556.28C2545.24 2569.86 2563.11 2597.66 2581.99 2600.22C2568.19 2598.06 2549.03 2569.49 2541.18 2555.47L2600.86 2536.39L2513.27 2560.82L2490.2 2565.23C2498.47 2545.82 2517.95 2505.01 2531.24 2493.23C2531.59 2492.93 2531.93 2492.64 2532.28 2492.36C2531.94 2492.63 2531.59 2492.92 2531.24 2493.23C2513.31 2508.71 2493.94 2547.95 2486.38 2565.96L2466.21 2569.82L2454.56 2570.52C2458.22 2548.3 2470.56 2501.72 2490.71 2493.11C2467.38 2501.73 2455.03 2548.42 2451.77 2570.69L2417.54 2572.76L2398.46 2577.37C2403.3 2562.77 2415.07 2532.24 2425.71 2519.29C2426.48 2518.4 2427.27 2517.53 2428.08 2516.69C2427.3 2517.45 2426.5 2518.32 2425.71 2519.29C2409.47 2537.89 2399.01 2565.87 2395.7 2578.03L2350.09 2584.33C2355.73 2573.72 2368.24 2551.32 2373.14 2546.62C2368.14 2549.92 2353.99 2573.37 2347.54 2584.68L2309.49 2592.22L2277.94 2595.7L2244.92 2594.97C2260.24 2593 2274.96 2590.28 2277.33 2587.16C2281.27 2582 2315.18 2565.81 2331.65 2558.37C2348.77 2546.92 2386.66 2522.89 2401.3 2518.31C2415.94 2513.73 2441.58 2497.03 2452.56 2489.25C2461.5 2483.43 2490.01 2471.24 2532.5 2469.03C2574.99 2466.81 2600.13 2475.36 2607.39 2479.9C2616.45 2482.36 2637.85 2491.39 2650.99 2507.85C2661.13 2513.74 2670.32 2514.52 2673.65 2514.18L2659.55 2529.76C2659.1 2539.91 2655.62 2563.48 2645.33 2576.6C2632.46 2592.99 2566.16 2645.17 2564.22 2641.99C2563.58 2640.91 2562.93 2639.85 2562.27 2638.8Z" fill="#CAA672"/>
<path d="M2429.14 2577.99C2413.48 2581.43 2378.37 2589.55 2363.2 2594.52C2344.23 2600.72 2307.89 2605.99 2295.35 2613.79L2268.79 2611.87L2222.16 2603.03L2217.29 2597.78C2224.56 2597.23 2234.87 2596.26 2244.92 2594.97L2278.22 2599.65L2309.74 2595.76L2347.83 2588.76L2395.97 2581.76L2417.82 2576.7L2466.48 2573.76L2468.85 2580.8C2455.27 2579.17 2439.36 2578.3 2429.14 2577.99Z" fill="#CAA672"/>
<path d="M2244.92 2594.97L2277.94 2595.7L2309.49 2592.22L2347.54 2584.68L2350.09 2584.33L2395.7 2578.03L2398.46 2577.37L2417.54 2572.76L2451.77 2570.69L2454.56 2570.52L2466.21 2569.82L2486.38 2565.96L2490.2 2565.23L2513.27 2560.82L2600.86 2536.39L2541.18 2555.47L2538.67 2556.28L2513.52 2564.32L2470.05 2573.04L2466.48 2573.76L2417.82 2576.7L2395.97 2581.76L2347.83 2588.76L2309.74 2595.76L2278.22 2599.65L2244.92 2594.97Z" fill="#715D58"/>
<path d="M2427.52 2336.79C2429.12 2338.28 2427.76 2349.02 2426.88 2354.21L2405.85 2354.38L2381.41 2375.8C2379 2372.59 2373.59 2357.82 2371.23 2324.35C2369.71 2356.47 2376.24 2373.03 2379.7 2377.29L2377.01 2379.65L2344.09 2410.25C2339.71 2397.38 2331.82 2365.54 2334.11 2338.29C2334.19 2337.4 2334.28 2336.5 2334.38 2335.6C2334.28 2336.49 2334.19 2337.38 2334.11 2338.29C2330.73 2375.51 2338.12 2402.76 2342.34 2411.88L2309.29 2443.89C2302.79 2430.17 2290.11 2398.14 2291.43 2379.76C2289.39 2403.82 2301.18 2433.81 2307.32 2445.79L2303.82 2449.18L2276.28 2476.29L2268.27 2485.43L2245.1 2511.6C2240.23 2503.61 2230.84 2486.54 2230.36 2479.28C2230.34 2478.93 2230.34 2478.59 2230.35 2478.26C2230.33 2478.57 2230.33 2478.91 2230.36 2479.28C2230.68 2488.72 2238.94 2506.04 2243.18 2513.78L2239.47 2517.96L2184.73 2567.24L2181.57 2568.75L2179.78 2563.36C2179.1 2562.52 2178.3 2559.58 2180.56 2554.51C2196.51 2536.66 2198.38 2506.66 2197.32 2493.89C2199.9 2485.23 2207.34 2465 2216.43 2453.36C2239.09 2423.18 2239.53 2376.52 2243.32 2373.87C2248.91 2373.53 2273.4 2346.32 2281.76 2338.77C2290.11 2331.23 2295.82 2319.45 2298.15 2316.01C2300.01 2313.25 2314.36 2308.21 2321.3 2306.03L2347.54 2300.27C2355.31 2301.04 2373.93 2303.12 2386.24 2305.19C2403.28 2301.52 2425.52 2334.93 2427.52 2336.79Z" fill="#CAA672"/>
<path d="M2186.38 2570.66L2184.73 2567.24L2239.47 2517.96L2243.18 2513.78L2245.1 2511.6L2268.27 2485.43L2276.28 2476.29L2303.82 2449.18L2307.32 2445.79L2309.29 2443.89L2342.34 2411.88L2344.09 2410.25L2377.01 2379.65L2379.7 2377.29L2381.41 2375.8L2405.85 2354.38L2426.88 2354.21L2406.11 2358.1L2377.35 2384.47L2368.8 2392.59L2365.72 2395.51L2342.73 2417.36L2330.85 2429.07L2327.64 2432.24L2304.26 2455.32L2297.27 2462.35L2295.09 2464.54L2268.67 2491.12L2260.12 2500.44L2258.58 2501.56L2239.76 2522.05L2229.25 2532.06L2186.38 2570.66Z" fill="#715D58"/>
<path d="M2181.57 2568.75L2184.73 2567.24L2186.38 2570.66L2174.81 2582.36L2169.27 2580.08L2181.57 2568.75Z" fill="#715D58"/>
<path d="M2192.29 2574.92L2186.38 2570.66L2229.25 2532.06L2239.76 2522.05L2258.58 2501.56C2258.7 2501.6 2258.82 2501.64 2258.94 2501.68C2270.24 2505.61 2295.59 2513.85 2305.41 2511.34C2291.97 2511.8 2269.62 2504.26 2260.12 2500.44L2268.67 2491.12L2295.09 2464.54C2314.04 2473.56 2359.29 2488.9 2388.64 2478.16C2357.22 2483.4 2314.63 2469.8 2297.27 2462.35L2304.26 2455.32L2327.64 2432.24C2342.79 2438.15 2381.45 2448.47 2414.88 2442.48C2388.35 2446.62 2347.81 2435.27 2330.85 2429.07L2342.73 2417.36L2365.72 2395.51C2372.48 2399.58 2389.96 2407.48 2405.79 2406.53C2388.21 2403.9 2373.81 2396.14 2368.8 2392.59L2377.35 2384.47L2406.11 2358.1L2426.88 2354.21C2429.39 2353.32 2436.14 2352.15 2443.04 2354.55C2456.11 2370.7 2456.89 2401.67 2455.45 2417.59C2454.29 2430.33 2440.79 2449.56 2434.19 2457.59C2428.96 2464.14 2414.25 2481.14 2397.21 2496.78C2380.17 2512.41 2345.24 2527.85 2329.9 2533.62C2325.42 2533.08 2313.73 2533.8 2302.83 2540.97C2291.92 2548.14 2274.39 2554.35 2266.99 2556.55C2255.89 2558.32 2232.67 2562.67 2228.6 2565.91C2224.53 2569.15 2202.7 2573.27 2192.29 2574.92Z" fill="#CAA672"/>
<path d="M2245.1 2511.6L2243.18 2513.78C2238.94 2506.04 2230.68 2488.72 2230.36 2479.28C2230.84 2486.54 2240.23 2503.61 2245.1 2511.6Z" fill="#715D58"/>
<path d="M2305.41 2511.34C2295.59 2513.85 2270.24 2505.61 2258.94 2501.68L2260.12 2500.44C2269.62 2504.26 2291.97 2511.8 2305.41 2511.34Z" fill="#715D58"/>
<path d="M2388.64 2478.16C2359.29 2488.9 2314.04 2473.56 2295.09 2464.54L2297.27 2462.35C2314.63 2469.8 2357.22 2483.4 2388.64 2478.16Z" fill="#715D58"/>
<path d="M2307.32 2445.79C2301.18 2433.81 2289.39 2403.82 2291.43 2379.76C2290.11 2398.14 2302.79 2430.17 2309.29 2443.89L2307.32 2445.79Z" fill="#715D58"/>
<path d="M2414.88 2442.48C2381.45 2448.47 2342.79 2438.15 2327.64 2432.24L2330.85 2429.07C2347.81 2435.27 2388.35 2446.62 2414.88 2442.48Z" fill="#715D58"/>
<path d="M2344.09 2410.25L2342.34 2411.88C2338.12 2402.76 2330.73 2375.51 2334.11 2338.29C2331.82 2365.54 2339.71 2397.38 2344.09 2410.25Z" fill="#715D58"/>
<path d="M2405.79 2406.53C2389.96 2407.48 2372.48 2399.58 2365.72 2395.51L2368.8 2392.59C2373.81 2396.14 2388.21 2403.9 2405.79 2406.53Z" fill="#715D58"/>
<path d="M2379.7 2377.29C2376.24 2373.03 2369.71 2356.47 2371.23 2324.35C2373.59 2357.82 2379 2372.59 2381.41 2375.8L2379.7 2377.29Z" fill="#715D58"/>
<path d="M2347.54 2584.68C2353.99 2573.37 2368.14 2549.92 2373.14 2546.62C2368.24 2551.32 2355.73 2573.72 2350.09 2584.33L2347.54 2584.68Z" fill="#715D58"/>
<path d="M2398.46 2577.37L2395.7 2578.03C2399.01 2565.87 2409.47 2537.89 2425.71 2519.29C2415.07 2532.24 2403.3 2562.77 2398.46 2577.37Z" fill="#715D58"/>
<path d="M2451.77 2570.69C2455.03 2548.42 2467.38 2501.73 2490.71 2493.11C2470.56 2501.72 2458.22 2548.3 2454.56 2570.52L2451.77 2570.69Z" fill="#715D58"/>
<path d="M2468.85 2580.8L2466.48 2573.76L2470.05 2573.04L2472.3 2581.24C2471.17 2581.09 2470.02 2580.94 2468.85 2580.8Z" fill="#715D58"/>
<path d="M2490.2 2565.23L2486.38 2565.96C2493.94 2547.95 2513.31 2508.71 2531.24 2493.23C2517.95 2505.01 2498.47 2545.82 2490.2 2565.23Z" fill="#715D58"/>
<path d="M2581.99 2600.22C2563.11 2597.66 2545.24 2569.86 2538.67 2556.28L2541.18 2555.47C2549.03 2569.49 2568.19 2598.06 2581.99 2600.22Z" fill="#715D58"/>
<path d="M1935.92 2566.02L1978.66 2545.67C1978.01 2544.97 1977.37 2544.31 1976.76 2543.68C1975.81 2542.71 1974.92 2541.84 1974.15 2541.11C1963.09 2546.93 1940.49 2558.54 1938.51 2558.35C1936.53 2558.16 1908.89 2575.11 1895.32 2583.61C1877.35 2594.83 1839.49 2619 1831.81 2625.9C1823.27 2630.95 1822.12 2635.7 1822.62 2637.44C1824.42 2637.74 1827.93 2637.76 1827.61 2635.42C1827.29 2633.09 1857.84 2613.18 1873.16 2603.52L1901.83 2585.15L1935.92 2566.02Z" fill="#514842"/>
<path d="M1827.61 2635.42C1827.93 2637.76 1824.42 2637.74 1822.62 2637.44L1748.76 2650.86L1757.86 2659.52L1807.14 2648.07L1858.85 2639.78L1868.44 2645.94L1886.36 2651.99L1913.04 2659.62L1935.02 2665.73L1974.27 2676.43L2007.7 2684.14L2033.73 2690.72L2039.13 2690.79L2040.53 2687.89L2039.64 2687.05L2038.75 2686.2L2008.68 2679.16L1974.8 2671.02L1936.89 2661.17L1916.03 2655.7L1890.7 2648.09L1872.55 2642.24L1867.22 2637.18L1882.77 2636.75L1921.33 2633.7L1941.16 2633.12L1968.02 2629.51L2041.32 2623.57L2097.69 2619.29L2164.62 2617.02L2161.96 2614.49L2162.9 2612L2097.99 2614.51L2040.05 2618.56L1966.53 2624.28L1942.14 2628.14L1923.45 2628.11L1885.11 2630.95L1827.61 2635.42Z" fill="#514842"/>
<path d="M2041.87 2673.96C2047.19 2679.36 2045.63 2683.31 2044.18 2684.61L2051.64 2683.24L2074.15 2670L2088.48 2660.81L2090.92 2663.13L2078.58 2674.22L2054.52 2685.99L2091.26 2684.16L2140.52 2688.75L2224.7 2692.32L2224.43 2695.02L2138.18 2694.13L2096.15 2688.81L2065.72 2689.88L2056.04 2689.96L2064.29 2695.27L2090.24 2706.43L2112.29 2721.91L2133.29 2733L2156.19 2737.87L2158.63 2740.19L2133.7 2735.5L2114.27 2725.05L2090.19 2709.76L2063.77 2699.43L2055.28 2695.16L2049.47 2692.17L2058.32 2702.27L2056.23 2706.2L2052.51 2699.28C2044.12 2703.13 2030.31 2713.16 2042.24 2722.47C2054.16 2731.78 2096.18 2753.21 2115.7 2762.75C2120.56 2763.86 2133.72 2765.69 2147.44 2764.2C2175.13 2767.55 2214.84 2755.62 2231.23 2749.24L2303.22 2726L2371.25 2697.31L2411.83 2680.54L2368.04 2686.65L2269.57 2660.62C2265.38 2659.77 2260.37 2658.74 2254.85 2657.61C2230.26 2652.56 2195.53 2645.36 2178.06 2641.47C2175.98 2641.01 2174.14 2640.59 2172.59 2640.23C2156.64 2634.86 2123.41 2631.07 2108.79 2629.84C2095.34 2630.57 2066.9 2632.51 2060.74 2634.44C2055.16 2633.86 2040.98 2645.22 2034.58 2650.97L2033.71 2663.24C2034.21 2664.56 2036.55 2668.56 2041.87 2673.96Z" fill="#B59E7F"/>
<path d="M2040.53 2687.89L2039.13 2690.79L2052.51 2699.28L2056.23 2706.2L2058.32 2702.27L2049.47 2692.17L2055.28 2695.16L2063.77 2699.43L2090.19 2709.76L2114.27 2725.05L2133.7 2735.5L2158.63 2740.19L2156.19 2737.87L2133.29 2733L2112.29 2721.91L2090.24 2706.43L2064.29 2695.27L2056.04 2689.96L2065.72 2689.88L2096.15 2688.81L2138.18 2694.13L2224.43 2695.02L2224.7 2692.32L2140.52 2688.75L2091.26 2684.16L2054.52 2685.99L2078.58 2674.22L2090.92 2663.13L2088.48 2660.81L2074.15 2670L2051.64 2683.24L2044.18 2684.61L2039.64 2687.05L2040.53 2687.89Z" fill="#A89076"/>
<path d="M2162.9 2612L2161.96 2614.49L2164.62 2617.02L2173.06 2625.04L2178.06 2641.47C2195.53 2645.36 2230.26 2652.56 2254.85 2657.61L2271.12 2648.15L2302.76 2641.47L2346.92 2626L2371.85 2616.33L2395.1 2613.09L2348.45 2600.42L2321.05 2595.49C2316.58 2593.07 2305.8 2588.51 2298.39 2589.58C2290.99 2590.65 2279.15 2586.49 2274.15 2584.27C2269.85 2581.03 2258.26 2574.91 2246.35 2576.42C2236.15 2571.8 2221.26 2572.15 2215.1 2572.9L2191.46 2586.34L2169.96 2607.3L2162.9 2612Z" fill="#B59E7F"/>
<path d="M2059.88 2517.42C2058.15 2514.09 2043.18 2515.55 2027.75 2518.13C2025.95 2521.21 2024.08 2528.17 2031.06 2531.42C2038.03 2534.67 2057.25 2525.06 2065.99 2519.85C2062.87 2519.59 2060.62 2518.85 2059.88 2517.42Z" fill="#A89076"/>
<path d="M2058.85 2511.79C2049.75 2506.18 2019.61 2514.33 2005.68 2519.11L2002.03 2523.25C2008.87 2521.68 2018.4 2519.7 2027.75 2518.13C2043.18 2515.55 2058.15 2514.09 2059.88 2517.42C2060.62 2518.85 2062.87 2519.59 2065.99 2519.85C2074.6 2520.58 2089.85 2517.7 2098.43 2515.62C2108.03 2511.51 2128.55 2505.14 2133.84 2512.54C2139.13 2519.93 2163.99 2505.01 2175.76 2496.62L2173.09 2494.09C2162.39 2501.52 2138.85 2514.93 2130.29 2509.16C2121.73 2503.39 2103.11 2508.81 2094.88 2512.25C2086.66 2514.43 2067.95 2517.4 2058.85 2511.79Z" fill="#A89076"/>
<path d="M1992.45 2566.11L2086.86 2554.75C2092.17 2559 2105.61 2568.34 2116.91 2571.65C2128.21 2574.96 2104.83 2561.85 2091.73 2554.89L2123.57 2549.67C2123.82 2547.94 2123.52 2544.3 2120.28 2543.59C2117.05 2542.88 2094.29 2548.48 2083.31 2551.37L1991.21 2562.4C1991.83 2563.73 1992.27 2564.99 1992.45 2566.11Z" fill="#A89076"/>
<path d="M1948.18 2516.42C1956.59 2520.69 1968.99 2534.66 1974.15 2541.11L1965.55 2500.82L1970.04 2501.71L1976.76 2543.68C1977.37 2544.31 1978.01 2544.97 1978.66 2545.67L2046.95 2466.67L2049.61 2469.2L2005.68 2519.11C2019.61 2514.33 2049.75 2506.18 2058.85 2511.79C2067.95 2517.4 2086.66 2514.43 2094.88 2512.25C2103.11 2508.81 2121.73 2503.39 2130.29 2509.16C2138.85 2514.93 2162.39 2501.52 2173.09 2494.09L2175.76 2496.62C2163.99 2505.01 2139.13 2519.93 2133.84 2512.54C2128.55 2505.14 2108.03 2511.51 2098.43 2515.62C2089.85 2517.7 2074.6 2520.58 2065.99 2519.85C2057.25 2525.06 2038.03 2534.67 2031.06 2531.42C2024.08 2528.17 2025.95 2521.21 2027.75 2518.13C2018.4 2519.7 2008.87 2521.68 2002.03 2523.25L1980.52 2547.69C1984.66 2552.28 1989.06 2557.82 1991.21 2562.4L2083.31 2551.37C2094.29 2548.48 2117.05 2542.88 2120.28 2543.59C2123.52 2544.3 2123.82 2547.94 2123.57 2549.67L2091.73 2554.89C2104.83 2561.85 2128.21 2574.96 2116.91 2571.65C2105.61 2568.34 2092.17 2559 2086.86 2554.75L1992.45 2566.11C1993.6 2573.29 2002.91 2583.39 2007.43 2587.54C2013.74 2591.71 2028.29 2601.04 2035.98 2604.97C2045.59 2609.88 2072.64 2608.15 2086.82 2608.95C2098.16 2609.6 2119.97 2606.39 2129.46 2604.71C2136.84 2598.07 2154.21 2583.54 2164.56 2578.51C2185.04 2570.94 2204.45 2557.57 2211.6 2551.83C2214.71 2549.86 2222.06 2545.39 2226.6 2543.28C2232.39 2542.02 2246.53 2527.02 2252.87 2519.67L2256.84 2511.19C2263.18 2508.77 2276.56 2503.32 2279.3 2500.85C2293.86 2491.71 2300.95 2479.76 2302.68 2474.92L2306.48 2462.48L2318.82 2451.39L2338.09 2443.1L2351.12 2431.4L2333.21 2438.46L2277.44 2447.12C2268.87 2448.12 2249.93 2449.52 2242.76 2447.09C2235.47 2440.51 2224.07 2446.37 2219.28 2450.13L2191.37 2448.94C2184.28 2446.42 2168.65 2441.78 2162.86 2443.37C2157.07 2444.96 2151.72 2445.03 2149.77 2444.87C2145.21 2443.49 2133.9 2442.71 2125.13 2450.59C2112.65 2453.6 2085.38 2452.79 2073.3 2452.01C2058.3 2451.55 2025.31 2450.65 2013.41 2450.84C2001.52 2451.02 1980.67 2470.13 1971.74 2479.66L1974.11 2486.14L1963.6 2495.59L1955.17 2487.57C1949.34 2495.4 1939.78 2512.15 1948.18 2516.42Z" fill="#B59E7F"/>
<path d="M1965.55 2500.82L1974.15 2541.11C1974.92 2541.84 1975.81 2542.71 1976.76 2543.68L1970.04 2501.71L1965.55 2500.82Z" fill="#A89076"/>
<path d="M2046.95 2466.67L1978.66 2545.67C1979.27 2546.31 1979.9 2546.99 1980.52 2547.69L2002.03 2523.25L2005.68 2519.11L2049.61 2469.2L2046.95 2466.67Z" fill="#A89076"/>
<path d="M2171.5 2595.25L2169.96 2607.3L2191.46 2586.34C2191.17 2585.37 2189.98 2583.24 2187.47 2582.54C2184.95 2581.85 2175.77 2590.72 2171.5 2595.25Z" fill="#A4896E"/>
<path d="M1822.16 2465.65L1835.15 2422.85C1834.16 2422.82 1833.19 2422.8 1832.29 2422.79C1830.87 2422.77 1829.57 2422.78 1828.47 2422.8C1825.55 2434.25 1819.36 2457.46 1817.86 2458.66C1816.36 2459.87 1810.97 2490.13 1808.46 2505.11C1805.11 2524.91 1798.47 2567 1798.71 2576.89C1796.89 2586.12 1799.87 2590.12 1801.59 2590.97C1803.05 2589.96 1805.46 2587.59 1803.39 2586.22C1801.32 2584.85 1806.36 2550.61 1809.14 2533.67L1814.11 2501.75L1822.16 2465.65Z" fill="#514842"/>
<path d="M1803.39 2586.22C1805.46 2587.59 1803.05 2589.96 1801.59 2590.97L1761.92 2650.11L1774.97 2649.84L1799.47 2608.69L1828.11 2568.04L1839.52 2565.75L1856.53 2557.74L1880.74 2544.87L1900.54 2534.16L1935.75 2514.88L1964.63 2497.5L1987.56 2484.37L1991.3 2480.76L1989.96 2477.84L1988.68 2477.86L1987.41 2477.89L1961.35 2493.44L1931.83 2510.84L1898.21 2529.79L1879.67 2540.18L1856.39 2552.15L1839.39 2560.45L1831.75 2560.6L1842.01 2549.79L1865.85 2521.61L1878.9 2507.79L1894.33 2487.15L1939.54 2433.5L1974.54 2392.43L2018.33 2345.58L2014.51 2345.66L2013.18 2343.33L1970.96 2388.97L1934.7 2430.95L1889.17 2484.61L1875.62 2503.74L1862.86 2516.37L1839.01 2544.25L1803.39 2586.22Z" fill="#514842"/>
<path d="M1979.84 2467.44C1987.74 2467.51 1989.8 2471.26 1989.84 2473.13L1993.84 2467.15L1998.68 2442.9L2001.16 2426.94L2004.66 2426.87L2005.04 2442.77L1997.98 2467.07L2021.56 2440.96L2058.73 2410.74L2118.89 2356.2L2120.85 2358.22L2061.4 2415.99L2028.56 2440.82L2008.69 2462.14L2002.16 2468.75L2011.98 2466.78L2038.5 2456.82L2065.78 2452.43L2088.86 2445.77L2108.32 2433.59L2111.82 2433.52L2091.13 2447.2L2069.62 2453.24L2041.1 2459.12L2014.93 2469.96L2005.76 2472.8L1999.43 2474.7L2013.47 2475.59L2015.16 2479.68L2007.14 2477.49C2004.48 2485.79 2003.02 2501.96 2018.51 2500.23C2034.01 2498.5 2079.6 2484.65 2100.46 2477.94C2104.64 2475.4 2115.05 2467.75 2123.22 2457.45C2144.73 2440.98 2162.32 2405.98 2168.43 2390.54L2199.05 2325.99L2222.64 2260.4L2237 2221.52L2212.01 2255.32L2124.34 2304.24C2120.81 2306.49 2116.58 2309.19 2111.93 2312.15C2091.18 2325.36 2061.82 2343.96 2046.85 2353.14C2045.06 2354.23 2043.48 2355.19 2042.14 2355.99C2027.02 2363.14 2001.39 2383.04 1990.46 2392.1C1981.88 2401.71 1964.05 2422.28 1961.37 2427.75C1957.12 2431.14 1956.46 2448.47 1956.65 2456.72L1965.78 2465.66C1967.18 2466.22 1971.94 2467.36 1979.84 2467.44Z" fill="#B59E7F"/>
<path d="M1989.96 2477.84L1991.3 2480.76L2007.14 2477.49L2015.16 2479.68L2013.47 2475.59L1999.43 2474.7L2005.76 2472.8L2014.93 2469.96L2041.1 2459.12L2069.62 2453.24L2091.13 2447.2L2111.82 2433.52L2108.32 2433.59L2088.86 2445.77L2065.78 2452.43L2038.5 2456.82L2011.98 2466.78L2002.16 2468.75L2008.69 2462.14L2028.56 2440.82L2061.4 2415.99L2120.85 2358.22L2118.89 2356.2L2058.73 2410.74L2021.56 2440.96L1997.98 2467.07L2005.04 2442.77L2004.66 2426.87L2001.16 2426.94L1998.68 2442.9L1993.84 2467.15L1989.84 2473.13L1988.68 2477.86L1989.96 2477.84Z" fill="#A89076"/>
<path d="M2013.18 2343.33L2014.51 2345.66L2018.33 2345.58L2030.42 2345.33L2046.85 2353.14C2061.82 2343.96 2091.18 2325.36 2111.93 2312.15L2115.51 2294.7L2131.77 2268.74L2149.59 2228.31L2158.9 2204.85L2172.17 2186.9L2130.36 2209.85L2107.8 2225.04C2102.84 2226.42 2091.88 2230.61 2087.69 2236.35C2083.49 2242.09 2072.13 2247.27 2066.97 2249.14C2061.47 2249.84 2048.74 2253.52 2041.82 2262.62C2031.21 2266.37 2021.35 2276.68 2017.75 2281.37L2012.3 2306.52L2014.26 2335.35L2013.18 2343.33Z" fill="#B59E7F"/>
<path d="M1868.09 2348.64C1864.27 2347.55 1855.23 2358.68 1846.77 2370.88C1847.98 2374.19 1852.22 2380.19 1859.55 2377.69C1866.88 2375.18 1872.35 2355.63 1874.18 2346.16C1871.84 2348.09 1869.73 2349.11 1868.09 2348.64Z" fill="#A89076"/>
<path d="M1862.92 2345.51C1852.28 2347.85 1838.22 2373.8 1832.52 2386.49L1833.31 2391.77C1836.72 2386.07 1841.64 2378.28 1846.77 2370.88C1855.23 2358.68 1864.27 2347.55 1868.09 2348.64C1869.73 2349.11 1871.84 2348.09 1874.18 2346.16C1880.62 2340.83 1888.72 2328.55 1892.92 2321.33C1896.2 2312.03 1905.12 2293.8 1914.59 2295.26C1924.05 2296.72 1929.16 2269.73 1930.53 2256.05L1926.71 2256.13C1925.3 2268.43 1919.89 2293.5 1909.49 2295.36C1899.09 2297.23 1890.71 2313.52 1887.82 2321.43C1883.96 2328.49 1873.57 2343.17 1862.92 2345.51Z" fill="#A89076"/>
<path d="M1860.74 2427.45L1916.03 2355.8C1923.02 2355.11 1939.58 2352.37 1949.89 2346.98C1960.21 2341.58 1933.9 2348.48 1919.46 2352.6L1937.01 2327.5C1935.81 2326.15 1932.72 2323.88 1929.96 2325.58C1927.2 2327.29 1916.13 2346.51 1910.94 2355.91L1856.95 2425.76C1858.44 2426.24 1859.73 2426.8 1860.74 2427.45Z" fill="#A89076"/>
<path d="M1791.23 2423.56C1800.33 2420.78 1819.85 2421.9 1828.47 2422.8L1790.69 2401.19L1794.46 2398.75L1832.29 2422.79C1833.19 2422.8 1834.16 2422.82 1835.15 2422.85L1819.07 2322.84L1822.89 2322.76L1832.52 2386.49C1838.22 2373.8 1852.28 2347.85 1862.92 2345.51C1873.57 2343.17 1883.96 2328.49 1887.82 2321.43C1890.71 2313.52 1899.09 2297.23 1909.49 2295.36C1919.89 2293.5 1925.3 2268.43 1926.71 2256.13L1930.53 2256.05C1929.16 2269.73 1924.05 2296.72 1914.59 2295.26C1905.12 2293.8 1896.2 2312.03 1892.92 2321.33C1888.72 2328.55 1880.62 2340.83 1874.18 2346.16C1872.35 2355.63 1866.88 2375.18 1859.55 2377.69C1852.22 2380.19 1847.98 2374.19 1846.77 2370.88C1841.64 2378.28 1836.72 2386.07 1833.31 2391.77L1838.02 2422.97C1844.48 2423.29 1851.86 2424.09 1856.95 2425.76L1910.94 2355.91C1916.13 2346.51 1927.2 2327.29 1929.96 2325.58C1932.72 2323.88 1935.81 2326.15 1937.01 2327.5L1919.46 2352.6C1933.9 2348.48 1960.21 2341.58 1949.89 2346.98C1939.58 2352.37 1923.02 2355.11 1916.03 2355.8L1860.74 2427.45C1867.21 2431.56 1881.55 2432.13 1887.91 2431.9C1895.52 2430.47 1912.83 2426.97 1921.17 2424.45C1931.61 2421.29 1948.65 2401.79 1958.95 2392.75C1967.18 2385.51 1979.49 2368.56 1984.62 2361C1984.39 2351.48 1984.7 2329.83 1987.77 2319.4C1995.72 2300.38 1998.35 2278.14 1998.67 2269.39C1999.23 2265.94 2000.69 2257.92 2002.11 2253.41C2005.06 2248.64 2002.8 2228.85 2001.31 2219.55L1997.28 2211.09C1999.69 2205.15 2004.48 2192.38 2004.39 2188.85C2007.07 2172.77 2002.43 2159.83 1999.77 2155.36L1992.5 2144.32L1992.12 2128.42L1998.68 2109.72L1998.28 2092.94L1991.68 2109.87L1960.56 2153.51C1955.51 2160 1943.72 2173.77 1936.92 2176.97C1926.74 2177.41 1923.62 2189.12 1923.34 2194.92L1903.39 2213C1896.56 2216.09 1882.24 2223.51 1879.56 2228.51C1876.87 2233.52 1873.29 2237.19 1871.83 2238.39C1867.64 2240.54 1859.31 2247.66 1859.58 2258.97C1853.47 2269.46 1834.26 2287.37 1825.42 2295.02C1814.82 2304.86 1791.65 2326.58 1783.69 2334.75C1775.74 2342.93 1776.68 2370.05 1778.15 2382.59L1784.9 2385.4L1785.22 2398.94L1773.13 2399.19C1775.37 2408.47 1782.12 2426.34 1791.23 2423.56Z" fill="#B59E7F"/>
<path d="M1790.69 2401.19L1828.47 2422.8C1829.57 2422.78 1830.87 2422.77 1832.29 2422.79L1794.46 2398.75L1790.69 2401.19Z" fill="#A89076"/>
<path d="M1819.07 2322.84L1835.15 2422.85C1836.08 2422.88 1837.04 2422.92 1838.02 2422.97L1833.31 2391.77L1832.52 2386.49L1822.89 2322.76L1819.07 2322.84Z" fill="#A89076"/>
<path d="M2005.76 2326.1L2014.26 2335.35L2012.3 2306.52C2011.33 2306.05 2008.83 2305.42 2006.57 2306.64C2004.31 2307.86 2005.09 2320.12 2005.76 2326.1Z" fill="#A4896E"/>
<path d="M1104.15 2571.38L1056.15 2568.71C1056.45 2567.82 1056.74 2566.98 1057.03 2566.18C1057.48 2564.94 1057.91 2563.81 1058.29 2562.85C1070.95 2564.06 1096.7 2566.24 1098.42 2565.33C1100.15 2564.41 1132.84 2569.61 1148.97 2572.33C1170.32 2575.89 1215.51 2583.88 1225.54 2587.32C1235.57 2588.76 1238.69 2592.67 1238.99 2594.45C1237.48 2595.4 1234.27 2596.72 1233.55 2594.47C1232.83 2592.21 1196.18 2585.4 1177.95 2582.28L1143.69 2576.17L1104.15 2571.38Z" fill="#514842"/>
<path d="M1233.55 2594.47C1234.27 2596.72 1237.48 2595.4 1238.99 2594.45L1312.43 2579.17L1307.89 2590.48L1257.8 2598.4L1206.87 2610.1L1200.79 2619.32L1187.03 2631.55L1165.95 2648.48L1148.51 2662.27L1117.28 2686.7L1090.05 2706.23L1069.12 2721.96L1064.2 2724.04L1061.66 2721.91L1062.1 2720.81L1062.55 2719.7L1086.98 2702.04L1114.43 2681.95L1144.81 2658.8L1161.51 2646.01L1181.36 2629.6L1195.41 2617.47L1198.07 2610.85L1183.66 2616.26L1147.05 2627.86L1128.65 2634.73L1102.5 2641.44L1032.85 2663.36L979.402 2680.48L917.175 2703.37L918.505 2700.06L916.56 2698.14L977.037 2676.21L1031.82 2658.3L1101.59 2636.11L1125.58 2630.53L1142.67 2623.53L1178.98 2611.83L1233.55 2594.47Z" fill="#514842"/>
<path d="M1054.34 2709.67C1051.83 2716.59 1054.99 2719.62 1056.88 2720.27L1049.47 2721.8L1023.09 2718.08L1005.96 2715.03L1004.74 2718.06L1020.87 2723.6L1048.02 2725.39L1013.61 2737.43L970.551 2760L895.092 2794.68L896.518 2797.05L975.041 2764.05L1011.17 2743.5L1039.48 2733.13L1048.38 2729.59L1043.15 2737.53L1024.27 2757.42L1010.86 2779.81L996.49 2797.79L977.669 2810.79L976.45 2813.82L997.208 2800.23L1010.42 2783.42L1025.78 2760.44L1045.43 2741.14L1051.34 2734.06L1055.35 2729.16L1051.66 2741.71L1055.29 2744.52L1055.67 2736.81C1065.03 2737.2 1082.04 2741.22 1075.2 2754.19C1068.35 2767.15 1039.26 2802.43 1025.57 2818.45C1021.61 2821.27 1010.37 2827.86 997.171 2831.61C973.295 2845.01 931.755 2848.91 913.969 2849.19L837.958 2854.79L763.192 2853.92L718.743 2853.72L761.475 2842.97L840.197 2782.42C843.656 2780.07 847.792 2777.27 852.349 2774.17C872.643 2760.38 901.271 2740.83 915.557 2730.76C917.262 2729.55 918.763 2728.49 920.021 2727.58C932.272 2716.72 961.017 2700.85 973.858 2694.27C986.483 2689.92 1013.35 2681.09 1019.82 2680.55C1024.68 2677.94 1042.61 2683.04 1050.98 2685.91L1057.13 2696.81C1057.25 2698.21 1056.85 2702.74 1054.34 2709.67Z" fill="#B59E7F"/>
<path d="M1061.66 2721.91L1064.2 2724.04L1055.67 2736.81L1055.29 2744.52L1051.66 2741.71L1055.35 2729.16L1051.34 2734.06L1045.43 2741.14L1025.78 2760.44L1010.42 2783.42L997.208 2800.23L976.45 2813.82L977.669 2810.79L996.49 2797.79L1010.86 2779.81L1024.27 2757.42L1043.15 2737.53L1048.38 2729.59L1039.48 2733.13L1011.17 2743.5L975.041 2764.05L896.518 2797.05L895.092 2794.68L970.551 2760L1013.61 2737.43L1048.02 2725.39L1020.87 2723.6L1004.74 2718.06L1005.96 2715.03L1023.09 2718.08L1049.47 2721.8L1056.88 2720.27L1062.1 2720.81L1061.66 2721.91Z" fill="#A89076"/>
<path d="M916.56 2698.14L918.505 2700.06L917.175 2703.37L912.962 2713.85L915.557 2730.76C901.271 2740.83 872.643 2760.38 852.349 2774.17L833.334 2771.58L801.473 2777.28L754.312 2779.61L727.279 2780.05L704.591 2785.76L741.738 2756.77L764.655 2742.03C767.686 2738.16 775.559 2729.96 782.802 2728.17C790.044 2726.39 799.061 2718.17 802.664 2714.28C805.183 2709.7 813.112 2699.78 824.676 2696.72C831.985 2688.68 845.758 2683.45 851.731 2681.84L879.225 2685.32L908.052 2696.47L916.56 2698.14Z" fill="#B59E7F"/>
<path d="M969.508 2573.17C969.639 2569.48 983.974 2565.22 999.219 2561.83C1002.21 2563.97 1006.96 2569.64 1001.99 2575.22C997.032 2580.8 975.251 2579.18 964.981 2577.67C967.719 2576.26 969.453 2574.75 969.508 2573.17Z" fill="#A89076"/>
<path d="M967.997 2567.63C973.873 2559.1 1005.01 2555.32 1019.84 2554.49L1024.99 2556.92C1018.04 2558.03 1008.46 2559.77 999.219 2561.83C983.974 2565.22 969.639 2569.48 969.508 2573.17C969.453 2574.75 967.719 2576.26 964.981 2577.67C957.425 2581.55 942.214 2584.6 933.459 2585.9C922.881 2585.72 901.322 2587.55 899.713 2596.29C898.103 2605.03 868.841 2600.65 854.411 2597.37L855.742 2594.06C868.778 2596.86 896.177 2600.35 901.487 2591.88C906.796 2583.4 926.196 2581.42 935.233 2581.49C943.706 2580.42 962.121 2576.16 967.997 2567.63Z" fill="#A89076"/>
<path d="M1052.47 2592.56L961.127 2617.38C958.128 2623.26 949.907 2636.82 941.013 2644.06C932.12 2651.31 947.789 2630.59 956.735 2619.32L925.326 2626.43C924.339 2624.94 923.026 2621.5 925.675 2619.65C928.323 2617.79 951.596 2614.42 962.901 2612.97L1051.98 2588.69C1051.99 2590.15 1052.14 2591.46 1052.47 2592.56Z" fill="#A89076"/>
<path d="M1071.26 2530.57C1065.44 2537.61 1060.19 2555.02 1058.29 2562.85L1048.57 2522.78L1044.85 2525.27L1057.03 2566.18C1056.74 2566.98 1056.45 2567.82 1056.15 2568.71L959.182 2521.91L957.851 2525.22L1019.84 2554.49C1005.01 2555.32 973.873 2559.1 967.997 2567.63C962.121 2576.16 943.706 2580.42 935.233 2581.49C926.196 2581.42 906.796 2583.4 901.487 2591.88C896.177 2600.35 868.778 2596.86 855.742 2594.06L854.411 2597.37C868.841 2600.65 898.103 2605.03 899.713 2596.29C901.322 2587.55 922.881 2585.72 933.459 2585.9C942.214 2584.6 957.425 2581.55 964.981 2577.67C975.251 2579.18 997.032 2580.8 1001.99 2575.22C1006.96 2569.64 1002.21 2563.97 999.219 2561.83C1008.46 2559.77 1018.04 2558.03 1024.99 2556.92L1055.33 2571.25C1053.55 2576.99 1051.95 2583.7 1051.98 2588.69L962.901 2612.97C951.596 2614.42 928.323 2617.79 925.675 2619.65C923.026 2621.5 924.339 2624.94 925.326 2626.43L956.735 2619.32C947.789 2630.59 932.12 2651.31 941.013 2644.06C949.907 2636.82 958.128 2623.26 961.127 2617.38L1052.47 2592.56C1054.55 2599.55 1050.44 2612.26 1048.12 2617.75C1044.17 2623.92 1034.93 2637.89 1029.61 2644.35C1022.97 2652.43 997.454 2660.93 984.835 2666.96C974.739 2671.78 953.387 2676.98 943.972 2678.98C934.315 2675.67 912.084 2668.85 900.418 2668.11C878.375 2668.83 854.774 2663.84 845.728 2661.26C842.022 2660.61 833.342 2659.26 828.27 2659.03C822.426 2660.03 802.936 2651.58 793.922 2647.23L786.591 2640.95C779.73 2641.1 765.113 2641.11 761.529 2639.88C744.217 2636.94 732.503 2628.65 728.811 2624.87L719.9 2614.91L703.772 2609.37L682.516 2608.97L665.492 2603.13L684.955 2602.91L739.76 2590.02C748.043 2587.74 765.982 2581.95 771.484 2577.05C775.271 2568.31 788.261 2569.42 794.283 2571.07L819.299 2559.57C824.688 2554.62 836.965 2544.54 842.958 2543.84C848.952 2543.13 853.874 2541.2 855.586 2540.33C859.155 2537.37 869.161 2532.43 880.63 2536.37C893.361 2534.46 917.959 2523.55 928.667 2518.33C942.194 2512.3 971.987 2499.18 982.95 2494.91C993.912 2490.64 1021.33 2500.34 1033.66 2505.73L1034.32 2512.55L1048.06 2517.27L1052.27 2506.79C1061.03 2511.78 1077.09 2523.53 1071.26 2530.57Z" fill="#B59E7F"/>
<path d="M1048.57 2522.78L1058.29 2562.85C1057.91 2563.81 1057.48 2564.94 1057.03 2566.18L1044.85 2525.27L1048.57 2522.78Z" fill="#A89076"/>
<path d="M959.182 2521.91L1056.15 2568.71C1055.88 2569.52 1055.6 2570.38 1055.33 2571.25L1024.99 2556.92L1019.84 2554.49L957.851 2525.22L959.182 2521.91Z" fill="#A89076"/>
<path d="M901.377 2686.02L908.052 2696.47L879.225 2685.32C879.06 2684.32 879.228 2681.93 881.221 2680.35C883.214 2678.78 895.489 2683.47 901.377 2686.02Z" fill="#A4896E"/>
<path d="M1115.34 2541.87L1086.42 2506.36C1087.34 2505.99 1088.23 2505.65 1089.07 2505.34C1090.38 2504.85 1091.59 2504.42 1092.63 2504.07C1099.84 2513.76 1114.74 2533.29 1116.61 2533.92C1118.48 2534.54 1135.4 2560.92 1143.62 2574.03C1154.52 2591.36 1177.25 2628.34 1180.91 2637.63C1186.23 2645.62 1185.03 2650.35 1183.76 2651.72C1182 2651.27 1178.83 2649.87 1180.22 2647.9C1181.61 2645.93 1163.46 2615.72 1154.21 2600.87L1137.03 2572.8L1115.34 2541.87Z" fill="#514842"/>
<path d="M1180.22 2647.9C1178.83 2649.87 1182 2651.27 1183.76 2651.72L1243.96 2693.5L1231.7 2697.63L1192.7 2667.52L1150.04 2639.26L1138.51 2640.96L1119.52 2639.21L1091.9 2635.35L1069.24 2632.02L1028.86 2625.88L995.124 2619.38L968.596 2614.85L963.697 2612.74L963.802 2609.57L964.998 2609.16L966.195 2608.76L996.587 2614.5L1030.92 2620.8L1069.7 2627.16L1091.05 2630.62L1117.45 2633.95L1136.54 2635.98L1143.72 2633.56L1129.92 2626.92L1096.63 2608.68L1079.05 2600.18L1056.56 2586.13L993.35 2551.33L944.596 2524.82L885.393 2495.87L888.982 2494.66L889.305 2492.04L946.576 2520.39L996.854 2547.33L1060.36 2582.03L1080.51 2595.3L1097.36 2602.79L1130.54 2620.76L1180.22 2647.9Z" fill="#514842"/>
<path d="M969.144 2596.48C961.813 2599.2 961.364 2603.39 962.055 2605.14L955.983 2600.92L941.947 2579.94L933.36 2565.91L930.07 2567.02L935.965 2581.96L952.095 2602.23L919.866 2585.82L873.357 2570.15L795.872 2539.53L794.842 2542.07L872.929 2575.93L913.286 2588.04L940.179 2601.23L948.862 2605.2L938.935 2606.66L910.318 2606.28L883.176 2611.35L859.05 2612.9L836.139 2608.09L832.849 2609.2L857.502 2614.99L879.914 2613.39L908.798 2609.3L937.444 2610.61L947.1 2610.18L953.737 2609.82L941.014 2615.37L941.047 2619.74L947.651 2615.01C953.399 2621.85 961.116 2636.43 945.996 2640.02C930.877 2643.61 882.958 2646.01 860.889 2646.77C855.991 2645.8 843.283 2642.17 831.631 2635.31C805.115 2627.2 774.969 2600.49 763.211 2588.16L709.312 2538.3L661.558 2485.12L632.9 2453.71L669.463 2476.81L770.378 2492.95C774.551 2493.86 779.544 2494.95 785.048 2496.15C809.565 2501.49 844.23 2508.96 861.789 2512.49C863.885 2512.91 865.737 2513.27 867.299 2513.57C884.189 2515.15 915.898 2525.09 929.641 2529.86C941.41 2535.92 966.106 2549.1 970.747 2553.3C976.038 2555.03 983.474 2570.96 986.53 2578.71L981.54 2590.11C980.462 2591.1 976.474 2593.76 969.144 2596.48Z" fill="#B59E7F"/>
<path d="M963.802 2609.57L963.697 2612.74L947.651 2615.01L941.047 2619.74L941.014 2615.37L953.737 2609.82L947.1 2610.18L937.444 2610.61L908.798 2609.3L879.914 2613.39L857.502 2614.99L832.849 2609.2L836.139 2608.09L859.05 2612.9L883.176 2611.35L910.318 2606.28L938.935 2606.66L948.862 2605.2L940.179 2601.23L913.286 2588.04L872.929 2575.93L794.842 2542.07L795.872 2539.53L873.357 2570.15L919.866 2585.82L952.095 2602.23L935.965 2581.96L930.07 2567.02L933.36 2565.91L941.947 2579.94L955.983 2600.92L962.055 2605.14L964.998 2609.16L963.802 2609.57Z" fill="#A89076"/>
<path d="M889.305 2492.04L888.982 2494.66L885.393 2495.87L874.028 2499.7L861.789 2512.49C844.23 2508.96 809.565 2501.49 785.048 2496.15L774.851 2481.09L749.501 2462.37L717.007 2430.69L699.111 2411.95L679.7 2399.69L727.667 2407.03L754.661 2413.6C759.82 2413.22 771.678 2413.45 777.842 2417.39C784.006 2421.33 796.627 2422.34 802.167 2422.36C807.57 2421.16 820.88 2420.31 830.899 2426.46C842.258 2426.4 855.498 2432.7 860.697 2435.85L875.659 2457.46L885.161 2484.98L889.305 2492.04Z" fill="#B59E7F"/>
<path d="M1026.57 2448.28C1029.69 2445.98 1042.49 2453.31 1055.17 2461.84C1055.35 2465.33 1053.75 2472.34 1045.94 2472.47C1038.13 2472.6 1025.34 2456.22 1019.93 2448.01C1022.86 2449.03 1025.23 2449.26 1026.57 2448.28Z" fill="#A89076"/>
<path d="M1030.15 2443.62C1040.99 2442.23 1064.29 2461.69 1074.59 2471.59L1075.92 2476.78C1070.5 2472.62 1062.86 2467.01 1055.17 2461.84C1042.49 2453.31 1029.69 2445.98 1026.57 2448.28C1025.23 2449.26 1022.86 2449.03 1019.93 2448.01C1011.83 2445.21 999.453 2436.49 992.705 2431.17C985.994 2423.61 970.512 2409.62 962.27 2414.15C954.028 2418.69 938.661 2395.26 932.008 2382.97L935.597 2381.76C941.741 2392.76 956.634 2414.3 967.056 2412.54C977.478 2410.78 991.688 2423.15 997.49 2429.55C1003.86 2434.82 1019.32 2445.02 1030.15 2443.62Z" fill="#A89076"/>
<path d="M1064.39 2519.23L984.718 2471.05C977.933 2472.75 961.431 2475.75 949.699 2474.19C937.967 2472.63 965.19 2470.22 980.268 2469.22L954.049 2451.72C954.637 2450.06 956.622 2446.9 959.865 2447.57C963.109 2448.23 980.975 2462.42 989.503 2469.43L1067.25 2516.38C1066.06 2517.34 1065.08 2518.29 1064.39 2519.23Z" fill="#A89076"/>
<path d="M1127.63 2492.27C1118.05 2492.74 1100.31 2500.33 1092.63 2504.07L1119.33 2471.24L1114.87 2470.24L1089.07 2505.34C1088.23 2505.65 1087.34 2505.99 1086.42 2506.36L1062.09 2407.78L1058.51 2408.99L1074.59 2471.59C1064.29 2461.69 1040.99 2442.23 1030.15 2443.62C1019.32 2445.02 1003.86 2434.82 997.49 2429.55C991.688 2423.15 977.478 2410.78 967.056 2412.54C956.634 2414.3 941.741 2392.76 935.597 2381.76L932.008 2382.97C938.661 2395.26 954.028 2418.69 962.27 2414.15C970.512 2409.62 985.994 2423.61 992.705 2431.17C999.453 2436.49 1011.83 2445.21 1019.93 2448.01C1025.34 2456.22 1038.13 2472.6 1045.94 2472.47C1053.75 2472.34 1055.35 2465.33 1055.17 2461.84C1062.86 2467.01 1070.5 2472.62 1075.92 2476.78L1083.79 2507.43C1077.91 2509.9 1071.34 2513.12 1067.25 2516.38L989.503 2469.43C980.975 2462.42 963.109 2448.23 959.865 2447.57C956.622 2446.9 954.637 2450.06 954.049 2451.72L980.268 2469.22C965.19 2470.22 937.967 2472.63 949.699 2474.19C961.431 2475.75 977.933 2472.75 984.718 2471.05L1064.39 2519.23C1059.98 2525.23 1046.84 2530.58 1040.82 2532.5C1033.17 2533.73 1015.67 2536.28 1006.9 2536.73C995.943 2537.29 972.397 2524.85 959.252 2519.88C948.736 2515.9 930.605 2504.24 922.855 2498.92C919.325 2489.97 910.527 2469.9 903.574 2461.21C888.691 2446.17 877.496 2426.32 873.759 2418.28C871.887 2415.26 867.37 2408.28 864.275 2404.55C859.657 2401.09 853.981 2381.9 851.72 2372.73L852.144 2363.5C847.568 2358.77 838.088 2348.49 836.778 2345.17C827.968 2331.09 827.203 2317.47 827.922 2312.42L830.354 2299.68L824.459 2284.74L811.001 2269.53L804.778 2253.76L817.581 2267.31L863.728 2297.53C870.979 2301.87 887.379 2310.74 894.975 2311.44C904.633 2308.44 912.139 2318.3 914.685 2323.61L940.377 2333.76C947.949 2334.34 964.21 2336.44 968.676 2340.21C973.142 2343.97 977.924 2346.18 979.756 2346.82C984.508 2347.41 995.06 2351.25 999.252 2361.87C1009.08 2369.6 1034.01 2379.83 1045.25 2383.99C1058.99 2389.6 1089.12 2402.05 1099.74 2407C1110.37 2411.94 1120.15 2437.53 1123.71 2449.7L1118.52 2454.59L1123.54 2467.31L1134.91 2463.48C1136.47 2472.88 1137.2 2491.8 1127.63 2492.27Z" fill="#B59E7F"/>
<path d="M1119.33 2471.24L1092.63 2504.07C1091.59 2504.42 1090.38 2504.85 1089.07 2505.34L1114.87 2470.24L1119.33 2471.24Z" fill="#A89076"/>
<path d="M1062.09 2407.78L1086.42 2506.36C1085.57 2506.7 1084.69 2507.05 1083.79 2507.43L1075.92 2476.78L1074.59 2471.59L1058.51 2408.99L1062.09 2407.78Z" fill="#A89076"/>
<path d="M889.445 2473.5L885.161 2484.98L875.659 2457.46C876.375 2456.69 878.453 2455.26 881.043 2455.64C883.633 2456.02 887.723 2467.71 889.445 2473.5Z" fill="#A4896E"/>
<path d="M1616.71 2863.77C1625.33 2855.28 1626.23 2849.61 1625.61 2847.84C1618.59 2824.33 1592.37 2784.5 1581.13 2768.95C1572.14 2756.51 1535.87 2732.91 1518.86 2722.67C1497.32 2712.94 1450.41 2691.42 1435.05 2683.23C1419.69 2675.03 1408.36 2665.65 1404.61 2661.98L1377.46 2635.81C1373.71 2632.65 1364.35 2625.04 1356.86 2619.88C1349.37 2614.72 1342.5 2612.93 1340 2612.68H1324.08L1316.59 2614.19H1292.71C1290.37 2613.31 1283.91 2611.54 1276.79 2611.54C1261.44 2613.05 1249.79 2622.03 1245.89 2626.33C1234.5 2636.7 1209 2660.24 1198.14 2671.47C1187.27 2682.69 1165.2 2695.62 1155.53 2700.67L1112.92 2723.81C1100.9 2729.5 1073.5 2744.98 1060.01 2761.36C1043.16 2772.89 1027.71 2798.79 1022.09 2810.29L1006.64 2859.6C1020.5 2872.65 1046.12 2879.96 1057.2 2881.98L1148.04 2897.15L1230.91 2904.36H1336.26L1415.85 2901.7L1500.13 2894.12C1535.4 2887.54 1608.1 2872.27 1616.71 2863.77Z" fill="#EBB31F"/>
<path d="M1292.71 2614.19H1316.59C1317.34 2612.07 1309.41 2600.16 1305.35 2594.47C1303.33 2592.83 1298.52 2589.23 1295.52 2588.02C1292.9 2585.29 1284.75 2584.35 1281.01 2584.23L1273.52 2588.02C1272.74 2588.27 1271.27 2589.54 1271.64 2592.57C1272.02 2595.61 1274.3 2597.38 1275.39 2597.88C1278.04 2599.02 1284.19 2602.13 1287.56 2605.47C1290.93 2608.81 1292.4 2612.68 1292.71 2614.19Z" fill="#AF7B20"/>
<path d="M997.622 2872.5C994.413 2878.51 992.075 2885.4 993.06 2891.46C993.239 2892.57 993.85 2893.71 994.827 2894.88L1015.53 2883.85C1004.01 2878.66 998.862 2874.46 997.622 2872.5Z" fill="#483320"/>
<path d="M1156 2938.69C1158.95 2939.07 1161.91 2939.44 1164.89 2939.8C1198.41 2943.89 1233.34 2946.78 1260.87 2946.08C1262.57 2946.04 1264.29 2946 1266.03 2945.96C1252.54 2943.12 1232 2927.9 1223.42 2920.64C1214.44 2919.61 1204.29 2918.41 1193.45 2917.09C1181.75 2921.81 1174.72 2927.7 1135.86 2935.94C1142.43 2936.88 1149.17 2937.81 1156 2938.69Z" fill="#87622D"/>
<path d="M1267.9 2945.91C1312.88 2944.88 1370.15 2944.52 1416.62 2942.77C1403.43 2943.2 1374.44 2928.36 1361.54 2920.85C1348.93 2921.15 1336.16 2921.37 1323.61 2921.54C1314.56 2928.97 1290.75 2944.26 1267.9 2945.91Z" fill="#87622D"/>
<path d="M1427.09 2942.34C1452.89 2941.2 1474.5 2939.55 1487.49 2936.98C1502.44 2936.98 1523.33 2932.65 1544.61 2926.77C1534.12 2928.02 1510.59 2916.47 1500.13 2910.55C1491.56 2911.98 1483.2 2913.11 1475.31 2913.84C1462.67 2922.09 1435.33 2939.35 1427.09 2942.34Z" fill="#87622D"/>
<path d="M1544.61 2926.77C1572.92 2918.96 1601.93 2908.42 1618.59 2901.7C1610.35 2901.7 1594.86 2893.44 1588.15 2889.3C1585.46 2890.11 1582.65 2890.95 1579.72 2891.8C1576.76 2899.42 1565.58 2917.09 1544.61 2926.77Z" fill="#87622D"/>
<path d="M1618.59 2901.7C1624.36 2897.53 1636.47 2886.23 1638.72 2874.39C1639.59 2869.83 1638.62 2865.42 1636.81 2861.5C1634.28 2865.17 1630.99 2868.48 1627.5 2871.36C1628.43 2877.43 1627.95 2891.99 1618.59 2901.7Z" fill="#87622D"/>
<path d="M1625.61 2847.84C1626.23 2849.61 1625.33 2855.28 1616.71 2863.77C1608.1 2872.27 1535.4 2887.54 1500.13 2894.12L1415.85 2901.7L1336.26 2904.36H1230.91L1148.04 2897.15L1057.2 2881.98C1046.12 2879.96 1020.5 2872.65 1006.64 2859.6C1004.12 2862.36 1000.52 2867.07 997.622 2872.5C998.862 2874.46 1004.01 2878.66 1015.53 2883.85C1017.78 2884.86 1020.27 2885.91 1023.03 2886.99C1027.93 2888.91 1033.67 2890.93 1040.35 2892.98C1049.91 2895.92 1068.05 2899.37 1089.98 2902.88C1121.37 2907.9 1160.54 2913.07 1193.45 2917.09C1204.29 2918.41 1214.44 2919.61 1223.42 2920.64C1227.06 2921.06 1230.5 2921.45 1233.72 2921.81C1256.53 2921.99 1289.21 2921.99 1323.61 2921.54C1336.16 2921.37 1348.93 2921.15 1361.54 2920.85C1408.54 2919.74 1453.26 2917.63 1475.31 2913.84C1483.2 2913.11 1491.56 2911.98 1500.13 2910.55C1527.45 2905.98 1556.86 2898.45 1579.72 2891.8C1582.65 2890.95 1585.46 2890.11 1588.15 2889.3C1596.34 2886.83 1603.38 2884.57 1608.75 2882.74C1612.88 2881.06 1620.59 2877.06 1627.5 2871.36C1630.99 2868.48 1634.28 2865.17 1636.81 2861.5C1633.92 2855.25 1628.87 2850.25 1625.61 2847.84Z" fill="#483320"/>
<path fill-rule="evenodd" clip-rule="evenodd" d="M1089.98 2902.88L1065.16 2903.22C1061.73 2907.15 1052.43 2915.46 1042.69 2917.27C1051.85 2920.2 1060.67 2922.7 1067.5 2924.46C1081.61 2927.25 1102.61 2930.98 1126.5 2934.57C1122.38 2933.96 1100.44 2913.19 1089.98 2902.88Z" fill="#87622D"/>
<path d="M1040.35 2892.98C1033.67 2890.93 1027.93 2888.91 1023.03 2886.99C1025.37 2895.68 1031.08 2913.42 1035.2 2914.79C1037.7 2915.65 1040.21 2916.47 1042.69 2917.27C1052.43 2915.46 1061.73 2907.15 1065.16 2903.22L1089.98 2902.88C1068.05 2899.37 1049.91 2895.92 1040.35 2892.98Z" fill="#483320"/>
<path d="M1089.98 2902.88C1100.44 2913.19 1122.38 2933.96 1126.5 2934.57C1129.58 2935.03 1132.7 2935.49 1135.86 2935.94C1174.72 2927.7 1181.75 2921.81 1193.45 2917.09C1160.54 2913.07 1121.37 2907.9 1089.98 2902.88Z" fill="#483320"/>
<path d="M1233.72 2921.81C1230.5 2921.45 1227.06 2921.06 1223.42 2920.64C1232 2927.9 1252.54 2943.12 1266.03 2945.96C1266.65 2945.94 1267.27 2945.93 1267.9 2945.91C1290.75 2944.26 1314.56 2928.97 1323.61 2921.54C1289.21 2921.99 1256.53 2921.99 1233.72 2921.81Z" fill="#483320"/>
<path d="M1416.79 2942.76C1420.29 2942.63 1423.72 2942.49 1427.09 2942.34C1435.33 2939.35 1462.67 2922.09 1475.31 2913.84C1453.26 2917.63 1408.54 2919.74 1361.54 2920.85C1374.44 2928.36 1403.43 2943.2 1416.62 2942.77C1416.68 2942.76 1416.73 2942.76 1416.79 2942.76Z" fill="#483320"/>
<path d="M1500.13 2910.55C1510.59 2916.47 1534.12 2928.02 1544.61 2926.77C1565.58 2917.09 1576.76 2899.42 1579.72 2891.8C1556.86 2898.45 1527.45 2905.98 1500.13 2910.55Z" fill="#483320"/>
<path d="M1608.75 2882.74C1603.38 2884.57 1596.34 2886.83 1588.15 2889.3C1594.86 2893.44 1610.35 2901.7 1618.59 2901.7C1627.95 2891.99 1628.43 2877.43 1627.5 2871.36C1620.59 2877.06 1612.88 2881.06 1608.75 2882.74Z" fill="#483320"/>
<path d="M1015.53 2883.85L994.827 2894.88C1000.35 2901.46 1017.59 2908.78 1035.2 2914.79C1031.08 2913.42 1025.37 2895.68 1023.03 2886.99C1020.27 2885.91 1017.78 2884.86 1015.53 2883.85Z" fill="#87622D"/>
<path d="M1981.17 2915.82C1992.48 2909.76 1995.4 2904.57 1995.45 2902.73C1997.3 2878.6 1986.76 2834.32 1981.69 2816.79C1977.63 2802.77 1951.59 2771.58 1939.08 2757.74C1922.06 2743.31 1885.11 2711.57 1873.43 2700.08C1861.75 2688.59 1854.35 2676.93 1852.11 2672.53L1835.71 2641.06C1833.28 2637.15 1827.11 2627.65 1821.84 2620.94C1816.56 2614.22 1810.66 2610.87 1808.37 2610.03L1793.18 2606.23L1785.48 2605.89L1762.68 2600.19C1760.77 2598.79 1755.25 2595.56 1748.46 2593.86C1733.25 2591.64 1718.87 2597.43 1713.58 2600.6C1698.94 2607.78 1666.04 2624.17 1651.59 2632.3C1637.14 2640.42 1611.38 2647.49 1600.3 2650.01L1551.23 2661.93C1537.69 2664.49 1505.9 2672.73 1487.07 2685.15C1466.79 2692.14 1442.63 2713.17 1433.09 2722.81L1400.41 2766.2C1408.89 2781.97 1430.69 2795.06 1440.53 2799.64L1521.71 2835.8L1598.19 2862.47L1698.73 2887.61L1775.67 2904.08L1858.86 2916.96C1894.92 2919.1 1969.86 2921.87 1981.17 2915.82Z" fill="#831A01"/>
<path d="M1762.68 2600.19L1785.48 2605.89C1786.96 2604.04 1783.73 2590.78 1781.92 2584.38C1780.58 2582.33 1777.3 2577.75 1774.88 2575.88C1773.37 2572.64 1765.94 2569.81 1762.41 2568.79L1753.88 2570.62C1753.04 2570.68 1751.18 2571.54 1750.44 2574.52C1749.69 2577.51 1751.22 2579.74 1752.08 2580.49C1754.2 2582.21 1758.94 2586.64 1760.94 2590.63C1762.95 2594.63 1762.94 2598.67 1762.68 2600.19Z" fill="#590101"/>
<path d="M1387.11 2776.36C1381.86 2781.34 1377.13 2787.35 1375.86 2793.38C1375.63 2794.48 1375.8 2795.71 1376.31 2797.06L1400.08 2791.47C1390.97 2783.77 1387.58 2778.53 1387.11 2776.36Z" fill="#1F1B0E"/>
<path d="M1514.2 2877.36C1516.88 2878.43 1519.58 2879.49 1522.29 2880.55C1552.8 2892.45 1585.08 2903.55 1611.61 2909.45C1613.25 2909.82 1614.9 2910.19 1616.58 2910.56C1604.74 2904.64 1590.67 2885.2 1585.12 2876.22C1576.92 2873.1 1567.67 2869.53 1557.81 2865.68C1544.92 2867.39 1536.07 2871.34 1495.99 2869.93C1501.91 2872.4 1508.01 2874.89 1514.2 2877.36Z" fill="#9A7531"/>
<path d="M1618.38 2910.97C1661.69 2920.72 1716.48 2934.04 1761.47 2943.47C1748.72 2940.73 1726.45 2919.64 1716.87 2909.4C1704.72 2906.67 1692.45 2903.84 1680.42 2901C1669.08 2905.94 1640.79 2914.84 1618.38 2910.97Z" fill="#9A7531"/>
<path d="M1771.62 2945.56C1796.65 2950.63 1817.88 2954.21 1831.21 2954.86C1845.48 2958.43 1866.99 2959.28 1889.44 2958.75C1878.98 2957.43 1860.71 2940.79 1852.89 2932.64C1844.19 2931.96 1835.8 2931.05 1828.01 2929.86C1812.94 2934.72 1780.57 2944.67 1771.62 2945.56Z" fill="#9A7531"/>
<path d="M1889.44 2958.75C1919.3 2958.05 1950.82 2954.91 1969.16 2952.48C1961.3 2950.51 1949.53 2938.92 1944.63 2933.37C1941.76 2933.5 1938.77 2933.63 1935.67 2933.74C1930.07 2940.31 1912.98 2954.51 1889.44 2958.75Z" fill="#9A7531"/>
<path d="M1969.16 2952.48C1976.19 2949.87 1991.86 2941.97 1998.31 2931.21C2000.8 2927.06 2001.48 2922.62 2001.18 2918.44C1997.43 2921.34 1993.09 2923.72 1988.7 2925.63C1987.39 2931.65 1981.63 2945.44 1969.16 2952.48Z" fill="#9A7531"/>
<path d="M1995.45 2902.73C1995.4 2904.57 1992.48 2909.76 1981.17 2915.82C1969.86 2921.87 1894.92 2919.1 1858.86 2916.96L1775.67 2904.08L1698.73 2887.61L1598.19 2862.47L1521.71 2835.8L1440.53 2799.64C1430.69 2795.06 1408.89 2781.97 1400.41 2766.2C1397 2768.23 1391.85 2771.87 1387.11 2776.36C1387.58 2778.53 1390.97 2783.77 1400.08 2791.47C1401.86 2792.97 1403.86 2794.57 1406.09 2796.26C1410.08 2799.27 1414.82 2802.56 1420.45 2806.11C1428.5 2811.21 1444.56 2818.82 1464.22 2827.41C1492.35 2839.7 1527.86 2853.98 1557.81 2865.68C1567.67 2869.53 1576.92 2873.1 1585.12 2876.22C1588.44 2877.49 1591.58 2878.69 1594.52 2879.8C1616.23 2885.42 1647.41 2893.22 1680.42 2901C1692.45 2903.84 1704.72 2906.67 1716.87 2909.4C1762.13 2919.56 1805.58 2928.21 1828.01 2929.86C1835.8 2931.05 1844.19 2931.96 1852.89 2932.64C1880.63 2934.8 1911.43 2934.63 1935.67 2933.74C1938.77 2933.63 1941.76 2933.5 1944.63 2933.37C1953.34 2932.97 1960.88 2932.48 1966.67 2932.02C1971.23 2931.4 1980.03 2929.42 1988.7 2925.63C1993.09 2923.72 1997.43 2921.34 2001.18 2918.44C2000.69 2911.79 1997.69 2905.81 1995.45 2902.73Z" fill="#0E0302"/>
<path fill-rule="evenodd" clip-rule="evenodd" d="M1464.22 2827.41L1440.41 2821.82C1435.7 2824.75 1423.8 2830.46 1413.85 2829.86C1421.53 2834.85 1429.03 2839.34 1434.92 2842.65C1447.36 2848.68 1466.05 2857.26 1487.55 2866.38C1483.84 2864.82 1470.45 2839.75 1464.22 2827.41Z" fill="#9A7531"/>
<path d="M1420.45 2806.11C1414.82 2802.56 1410.08 2799.27 1406.09 2796.26C1405.16 2805.12 1404.17 2823.41 1407.6 2825.71C1409.68 2827.12 1411.77 2828.51 1413.85 2829.86C1423.8 2830.46 1435.7 2824.75 1440.41 2821.82L1464.22 2827.41C1444.56 2818.82 1428.5 2811.21 1420.45 2806.11Z" fill="#1F1B0E"/>
<path d="M1464.22 2827.41C1470.45 2839.75 1483.84 2864.82 1487.55 2866.38C1490.32 2867.56 1493.13 2868.74 1495.99 2869.93C1536.07 2871.34 1544.92 2867.39 1557.81 2865.68C1527.86 2853.98 1492.35 2839.7 1464.22 2827.41Z" fill="#1F1B0E"/>
<path d="M1594.52 2879.8C1591.58 2878.69 1588.44 2877.49 1585.12 2876.22C1590.67 2885.2 1604.74 2904.64 1616.58 2910.56C1617.18 2910.7 1617.78 2910.83 1618.38 2910.97C1640.79 2914.84 1669.08 2905.94 1680.42 2901C1647.41 2893.22 1616.23 2885.42 1594.52 2879.8Z" fill="#1F1B0E"/>
<path d="M1761.63 2943.5C1765.02 2944.21 1768.35 2944.9 1771.62 2945.56C1780.57 2944.67 1812.94 2934.72 1828.01 2929.86C1805.58 2928.21 1762.13 2919.56 1716.87 2909.4C1726.45 2919.64 1748.72 2940.73 1761.47 2943.47C1761.52 2943.48 1761.58 2943.49 1761.63 2943.5Z" fill="#1F1B0E"/>
<path d="M1852.89 2932.64C1860.71 2940.79 1878.98 2957.43 1889.44 2958.75C1912.98 2954.51 1930.07 2940.31 1935.67 2933.74C1911.43 2934.63 1880.63 2934.8 1852.89 2932.64Z" fill="#1F1B0E"/>
<path d="M1966.67 2932.02C1960.88 2932.48 1953.34 2932.97 1944.63 2933.37C1949.53 2938.92 1961.3 2950.51 1969.16 2952.48C1981.63 2945.44 1987.39 2931.65 1988.7 2925.63C1980.03 2929.42 1971.23 2931.4 1966.67 2932.02Z" fill="#1F1B0E"/>
<path d="M1400.08 2791.47L1376.31 2797.06C1379.19 2804.66 1392.98 2815.77 1407.6 2825.71C1404.17 2823.41 1405.16 2805.12 1406.09 2796.26C1403.86 2794.57 1401.86 2792.97 1400.08 2791.47Z" fill="#9A7531"/>
</svg>
