<svg width="3368" height="3482" viewBox="0 0 3368 3482" fill="none" xmlns="http://www.w3.org/2000/svg">
<defs>
<linearGradient id="paint0_linear_2271_17709" x1="1683.75" y1="0" x2="1683.75" y2="4893.98" gradientUnits="userSpaceOnUse">
<stop offset="0.134689" stop-color="#B32428"/>
<stop offset="0.418582" stop-color="#F2DB60"/>
</linearGradient>
</defs>
<path fill-rule="evenodd" clip-rule="evenodd" d="M1500 3000C2328.43 3000 3000 2328.43 3000 1500C3000 671.573 2328.43 0 1500 0C671.573 0 0 671.573 0 1500C0 2328.43 671.573 3000 1500 3000ZM312.5 771C149.7 983 104 1345.33 101.5 1500C101.5 1934.81 323.5 2284.5 434.5 2405C516.167 2510.33 765.8 2745.5 1111 2843.5C1456.2 2941.5 1768.83 2884.33 1882 2843.5C1920.5 2841.17 2056.6 2799.8 2293 2653C2529.4 2506.2 2699.5 2224.83 2755 2102.5C2798 2025.5 2887.4 1797.2 2901 1500C2914.6 1202.8 2768.67 890.167 2694 771C2651 711 2537.1 562.4 2425.5 448C2313.9 333.6 2084.67 223.667 1984 183C1935.33 166 1770.4 125.9 1500 101.5C1229.6 77.1 896.667 229.667 764 309C671.167 361 450.9 526.2 312.5 771Z" fill="url(#paint0_linear_2271_17709)"/>
<path d="M28.6193 1393.74C28.1025 1402.78 28.4687 1410.89 29.4071 1417.63L47.7014 1504.4C57.5682 1527.23 75.012 1563.57 94.1505 1595.53C111.019 1623.71 129.205 1648.47 144.678 1657.59C149.98 1659.73 156.397 1661.77 163.831 1663.54C203.885 1668.84 271.053 1647.49 304.312 1634.03C340.596 1585.79 405.303 1463 373.862 1357.73C336.654 1233.16 40.5091 1258.35 28.6193 1393.74Z" fill="#8B725A"/>
<path d="M113.69 2327.38L153.197 2497.49L155.203 2558.66L170.861 2568.4L232.904 2559.24L249.561 2534.78L295.219 2514.79L285.431 2448.49L276.971 2391.19L271.451 2353.8C277.61 2339.03 286.759 2301.05 274.093 2267.25C261.427 2233.45 257.436 2201.62 259.13 2191.43L254.007 2131.19C182.809 2140.48 111.467 2152.07 106.757 2152.76C99.5132 2153.83 88.8309 2126.89 84.3952 2113.28L106.603 2226L113.69 2327.38Z" fill="#8B725A"/>
<path d="M445.674 2069.28C433.62 2077.39 407.262 2099.24 398.253 2121.78L420.101 2214.06C412.223 2228.78 397.258 2263.58 400.427 2285.05C403.596 2306.51 413.527 2336.64 418.096 2349.02L442.132 2418.98L443.052 2425.22L450.968 2478.84L385.83 2536.66L485.098 2522L556.866 2511.41L586.313 2495.01L575.004 2365.02C581.67 2340.54 592.547 2289.34 582.733 2280.43C580.156 2262.97 569.562 2239.19 564.588 2229.48L553.096 2151.64L517.038 2025.78C509.604 2042.34 469.519 2060.68 445.674 2069.28Z" fill="#8B725A"/>
<path d="M574.191 1616.78C544.246 1590.35 488.044 1584.91 463.686 1585.49L434.434 1716.95L441.142 1818.09C450.019 1848.81 465.213 1916.61 454.978 1941.98C442.78 1950.1 409.832 1954.19 382.002 1956C363.594 1957.58 341.88 1990.62 333.324 2006.94C301.556 2013.03 231.264 2023.57 204.244 2016.96C177.224 2010.34 121.117 2016.38 96.441 2020.22L74.4584 2036.12L78.8549 2065.9L75.1659 2066.44L84.3952 2113.28C88.8309 2126.89 99.5132 2153.83 106.757 2152.76C111.467 2152.07 182.809 2140.48 254.007 2131.19C319.684 2122.63 385.238 2116.04 398.253 2121.78C407.262 2099.24 433.62 2077.39 445.674 2069.28C469.519 2060.68 509.604 2042.34 517.038 2025.78C519.003 2021.4 518.687 2017.15 515.185 2013.23C515.853 1975.05 538.5 1885.66 549.74 1845.74L611.298 1738.48C602.804 1682.81 590.531 1631.2 574.191 1616.78Z" fill="#8B725A"/>
<path d="M57.0573 1943.79C57.4511 1957.29 59.6479 1987.33 65.2845 1999.51C64.1665 2007.28 76.0956 2013.6 86.7667 2017.36C86.9445 2017.42 87.122 2017.49 87.299 2017.55C94.4255 2019.68 121.926 2015.56 180.315 1982.53C240.278 1948.61 319.77 1951.5 352.021 1957.18C359.94 1957.09 370.537 1956.74 382.002 1956C409.832 1954.19 442.78 1950.1 454.978 1941.98C465.213 1916.61 450.019 1848.81 441.142 1818.09C390.976 1828.79 316.584 1843.73 255.898 1853.87C194.548 1864.12 147.206 1869.48 153.064 1860.62C164.717 1842.99 209.986 1814.46 231.164 1802.39L192.516 1668.28C184.083 1667.42 176.35 1666.22 169.384 1664.78C148.183 1673.44 92.7969 1817.59 67.7539 1888.58L57.0573 1943.79Z" fill="#8B725A"/>
<path d="M200.431 2865L316.236 2875.32L304.918 2798.66L338.234 2687.77L227.663 2693.17L180.814 2782.04L192.671 2862.35L200.431 2865Z" fill="#8B725A"/>
<path d="M316.236 2875.32L543.672 2860.72L533.636 2764.89L516.727 2678.21L508.343 2679.45L338.234 2687.77L304.918 2798.66L316.236 2875.32Z" fill="#8B725A"/>
<path d="M543.672 2860.72L686.338 2833.64L704.66 2825.44L689.347 2721.72L644.501 2659.35L516.727 2678.21L533.636 2764.89L543.672 2860.72Z" fill="#8B725A"/>
<path d="M400.252 1232.42C361.899 1217.9 257.886 1199.33 148.661 1241.25C57.234 1276.33 31.2742 1347.31 28.6193 1393.74C40.5091 1258.35 336.654 1233.16 373.862 1357.73C405.303 1463 340.596 1585.79 304.312 1634.03L463.686 1585.49L464.228 1561.31L486.512 1519.76C502.847 1497.96 504.893 1464.38 502.96 1445.33C504.418 1438.18 505.898 1414.16 500.152 1375.24C494.297 1309.59 431.112 1252.67 400.252 1232.42Z" fill="#4C463A"/>
<path d="M463.686 1585.49L304.312 1634.03C271.053 1647.49 203.885 1668.84 163.831 1663.54C165.623 1663.97 167.475 1664.38 169.384 1664.78C176.35 1666.22 184.083 1667.42 192.516 1668.28C254.318 1674.53 353.679 1661.94 463.686 1585.49Z" fill="#4C463A"/>
<path d="M231.164 1802.39C209.986 1814.46 164.717 1842.99 153.064 1860.62C147.206 1869.48 194.548 1864.12 255.898 1853.87L231.164 1802.39Z" fill="#4C463A"/>
<path d="M352.021 1957.18C319.77 1951.5 240.278 1948.61 180.315 1982.53C121.926 2015.56 94.4255 2019.68 87.299 2017.55C90.6432 2018.7 93.8392 2019.61 96.441 2020.22C121.117 2016.38 177.224 2010.34 204.244 2016.96C231.264 2023.57 301.556 2013.03 333.324 2006.94C341.88 1990.62 363.594 1957.58 382.002 1956C370.537 1956.74 359.94 1957.09 352.021 1957.18Z" fill="#4C463A"/>
<path d="M747.117 2384.2L682.056 2393.81L578.834 2409.05L586.313 2495.01L556.866 2511.41L656.134 2496.75C677.831 2485.11 731.096 2455.8 770.571 2431.65C787.023 2424.73 792.846 2417.89 792.262 2411.58C791.125 2399.29 765.647 2389.03 747.117 2384.2Z" fill="#4C463A"/>
<path d="M385.83 2536.66L450.968 2478.84L443.052 2425.22L353.947 2438.37L285.431 2448.49L295.219 2514.79L249.561 2534.78L232.904 2559.24L385.83 2536.66Z" fill="#4C463A"/>
<path d="M153.197 2497.49L108.226 2529.44L155.203 2558.66L153.197 2497.49Z" fill="#4C463A"/>
<path d="M734.337 2622.59L644.501 2659.35L689.347 2721.72L704.66 2825.44L821.022 2773.38L861.552 2734.56L844.96 2652.35L756.037 2593.17L734.337 2622.59Z" fill="#4C463A"/>
<path d="M227.663 2693.17L210.113 2678.59C183.4 2705.83 131.915 2765.09 139.669 2784.19C135.678 2803.58 148.56 2835.91 155.5 2849.64L192.671 2862.35L180.814 2782.04L227.663 2693.17Z" fill="#4C463A"/>
<path d="M47.7014 1504.4C51.5176 1530.25 63.1662 1584.55 79.2313 1594.95C85.7712 1595.5 91.1149 1595.58 94.1505 1595.53C75.012 1563.57 57.5682 1527.23 47.7014 1504.4Z" fill="#4C463A"/>
<path d="M441.142 1818.09L434.434 1716.95L463.686 1585.49C353.679 1661.94 254.318 1674.53 192.516 1668.28L231.164 1802.39L255.898 1853.87C316.584 1843.73 390.976 1828.79 441.142 1818.09Z" fill="#4C463A"/>
<path d="M624.824 1866.89C622.825 1834.02 618.372 1784.84 611.298 1738.48L549.74 1845.74C538.5 1885.66 515.853 1975.05 515.185 2013.23C518.687 2017.15 519.003 2021.4 517.038 2025.78L629.696 2111.11L624.824 1866.89Z" fill="#4C463A"/>
<path d="M420.101 2214.06L398.253 2121.78C385.238 2116.04 319.684 2122.63 254.007 2131.19L259.13 2191.43C257.436 2201.62 261.427 2233.45 274.093 2267.25C286.759 2301.05 277.61 2339.03 271.451 2353.8L276.971 2391.19C293.673 2401.7 322.403 2419.37 339.353 2428.43C342.901 2430.33 351.65 2437.37 353.947 2438.37L443.052 2425.22L442.132 2418.98L418.096 2349.02C413.527 2336.64 403.596 2306.51 400.427 2285.05C397.258 2263.58 412.223 2228.78 420.101 2214.06Z" fill="#4C463A"/>
<path d="M709.624 2190.59C705.131 2160.17 654.467 2124.93 629.696 2111.11L517.038 2025.78L553.096 2151.64L564.588 2229.48C569.562 2239.19 580.156 2262.97 582.733 2280.43C592.547 2289.34 581.67 2340.54 575.004 2365.02L578.834 2409.05L682.056 2393.81L742.975 2323.65C738.1 2290.63 724.604 2217.79 709.624 2190.59Z" fill="#4C463A"/>
<path d="M485.098 2522L385.83 2536.66L232.904 2559.24L170.861 2568.4L155.203 2558.66L108.226 2529.44L112.419 2599.62L159.31 2636.38L210.113 2678.59L227.663 2693.17L338.234 2687.77L508.343 2679.45L485.098 2522Z" fill="#3E352B"/>
<path d="M656.134 2496.75L556.866 2511.41L485.098 2522L508.343 2679.45L516.727 2678.21L644.501 2659.35L666.668 2568.1L656.134 2496.75Z" fill="#3E352B"/>
<path d="M770.571 2431.65C731.096 2455.8 677.831 2485.11 656.134 2496.75L666.668 2568.1L644.501 2659.35L734.337 2622.59L756.037 2593.17L811.518 2502.43C807.442 2471.8 797.883 2410.75 792.262 2411.58C792.846 2417.89 787.023 2424.73 770.571 2431.65Z" fill="#3E352B"/>
<path d="M2420.6 2609.42L907.63 2867.86C907.63 2867.86 906.359 2892.51 913.977 2901.53C921.596 2910.55 2411.5 2644.84 2419.54 2635.19C2427.59 2625.54 2420.6 2609.42 2420.6 2609.42Z" fill="#BC896E"/>
<path d="M907.63 2867.86L2420.6 2609.42C2420.6 2609.42 2437.91 2578.26 2441.24 2567.17C2444.58 2556.08 2423.52 2449.63 2405.91 2432.03C2388.29 2414.43 1906.55 2383.18 1906.55 2383.18L1777.23 2338.08L1802.9 2374.82L1833.69 2396.92C1857.2 2412.63 1907.26 2445.58 1919.45 2451.65C1934.69 2459.24 2020.46 2482.6 2057.18 2462.89C2093.9 2443.18 2189.5 2450.73 2198.08 2449.12C2204.93 2447.83 2169.29 2477.79 2150.61 2492.93C2130.77 2503.65 2087.85 2525.69 2074.9 2528.13C2058.71 2531.18 1980.61 2524.98 1969.66 2527.04C1958.71 2529.1 1923.94 2556.58 1903.94 2560.35C1883.94 2564.12 1778.12 2609.64 1752.41 2614.48C1726.69 2619.33 1543.78 2656.13 1528.59 2656.67C1516.45 2657.1 1384.24 2652.1 1319.65 2649.55L868.65 2710.15L907.63 2867.86Z" fill="#B57657"/>
<path fill-rule="evenodd" clip-rule="evenodd" d="M1709.67 2314.52L1662.37 2382.71L1628.34 2419.35C1615.01 2418.37 1587.26 2416.4 1582.9 2416.29C1578.54 2416.18 1557.55 2401.31 1547.61 2393.88L1486.71 2418.74L1483.96 2419.86L1453.28 2432.39L1438.17 2438.55L1362.45 2469.46C1358.85 2480.6 1350.82 2503.04 1347.39 2503.69C1343.1 2504.49 1295.96 2523.84 1272.62 2528.24C1249.29 2532.64 1191.46 2563.3 1153.36 2570.48C1115.27 2577.66 1094.68 2596.65 1085.64 2598.35C1076.59 2600.06 1099.87 2629.38 1107.96 2627.85L1213.68 2607.93C1229.39 2604.96 1260.03 2613.14 1270.71 2612.29C1281.4 2611.43 1317.96 2640.58 1319.65 2649.55C1384.24 2652.1 1516.45 2657.1 1528.59 2656.67C1543.78 2656.13 1726.69 2619.33 1752.41 2614.48C1778.12 2609.64 1883.94 2564.12 1903.94 2560.35C1923.94 2556.58 1958.71 2529.1 1969.66 2527.04C1980.61 2524.98 2058.71 2531.18 2074.9 2528.13C2087.85 2525.69 2130.77 2503.65 2150.61 2492.93C2169.29 2477.79 2204.93 2447.83 2198.08 2449.12C2189.5 2450.73 2093.9 2443.18 2057.18 2462.89C2020.46 2482.6 1934.69 2459.24 1919.45 2451.65C1907.26 2445.58 1857.2 2412.63 1833.69 2396.92L1802.9 2374.82L1777.23 2338.08L1751.37 2329.06L1724.45 2319.67L1709.67 2314.52ZM1742.42 2448.99L1742.26 2414.15L1760.36 2410.74L1769.3 2424.16L1780.51 2452.27L1779.45 2478.04C1773.74 2479.12 1760.5 2479.52 1753.26 2472.52C1746.02 2465.51 1743.02 2453.91 1742.42 2448.99ZM1452.41 2514.11C1453.94 2522.19 1469.17 2524.51 1476.59 2524.66L1473.84 2510.07C1475.98 2499.6 1479.7 2475.73 1477.5 2464.05C1474.75 2449.46 1473.11 2448.61 1467.66 2438.01C1462.21 2427.41 1450.04 2441.33 1447.39 2453.45C1444.74 2465.58 1439.35 2463.11 1438.92 2471.32C1438.5 2479.54 1450.51 2504.01 1452.41 2514.11Z" fill="#AD8F79"/>
<path d="M859.866 2674.61C856.373 2682.25 868.65 2710.15 868.65 2710.15L1319.65 2649.55C1317.96 2640.58 1281.4 2611.43 1270.71 2612.29C1260.03 2613.14 1229.39 2604.96 1213.68 2607.93L1107.96 2627.85C1099.87 2629.38 1076.59 2600.06 1085.64 2598.35C1094.68 2596.65 1115.27 2577.66 1153.36 2570.48C1191.46 2563.3 1249.29 2532.64 1272.62 2528.24C1295.96 2523.84 1343.1 2504.49 1347.39 2503.69C1350.82 2503.04 1358.85 2480.6 1362.45 2469.46C1362.45 2469.46 863.358 2666.98 859.866 2674.61Z" fill="#AB7E51"/>
<path d="M1476.59 2524.66C1469.17 2524.51 1453.94 2522.19 1452.41 2514.11C1450.51 2504.01 1438.5 2479.54 1438.92 2471.32C1439.35 2463.11 1444.74 2465.58 1447.39 2453.45C1450.04 2441.33 1462.21 2427.41 1467.66 2438.01C1473.11 2448.61 1474.75 2449.46 1477.5 2464.05C1479.7 2475.73 1475.98 2499.6 1473.84 2510.07L1476.59 2524.66Z" fill="#4A2B17"/>
<path d="M1742.26 2414.15L1742.42 2448.99C1743.02 2453.91 1746.02 2465.51 1753.26 2472.52C1760.5 2479.52 1773.74 2479.12 1779.45 2478.04L1780.51 2452.27L1769.3 2424.16L1760.36 2410.74L1742.26 2414.15Z" fill="#5E3F2C"/>
<path d="M1423.32 2417.31L1438.17 2438.55L1453.28 2432.39L1458.88 2375.74C1462.44 2378.94 1470.18 2387.55 1472.63 2396.39C1477.37 2404.8 1482.16 2415.54 1483.96 2419.86L1486.71 2418.74C1485.58 2414.49 1484.55 2400.49 1489.46 2378.43C1492.65 2363.93 1494.7 2377.44 1497.78 2362.4C1500.87 2347.35 1507.77 2352.57 1511.53 2343.73C1515.28 2334.89 1519.41 2330.62 1526.92 2312.93C1534.44 2295.24 1534.12 2298.79 1536.03 2298.43C1537.93 2298.07 1544.92 2282.81 1551.27 2274.64C1557.61 2266.46 1556.03 2273.74 1562.69 2272.48C1569.36 2271.22 1576.93 2261.66 1591.69 2258.88L1624.55 2252.69L1654.07 2247.12C1661.21 2245.78 1666.88 2236.57 1675.5 2243.08C1682.4 2248.29 1686.87 2253.72 1688.25 2255.79C1689.47 2257.89 1694.52 2267.63 1705.02 2289.82C1718.14 2317.57 1714.49 2300.82 1721.53 2304.15C1727.16 2306.81 1725.82 2315.61 1724.45 2319.67L1751.37 2329.06C1749.22 2322 1744.81 2306.27 1744.41 2299.83C1743.92 2291.79 1744.76 2293.96 1746.55 2287.81C1748.35 2281.66 1749.41 2287.27 1758.83 2269.22C1762.69 2266.17 1763.22 2263.74 1769.36 2254.45C1775.5 2245.16 1774.92 2239.46 1771.27 2233.17C1767.62 2226.88 1758.46 2212.34 1756.88 2209.15C1755.29 2205.96 1745.77 2197.29 1739.95 2192.58C1735.29 2188.81 1734.83 2191.61 1735.19 2193.48C1732.66 2196.66 1725.98 2204.28 1719.42 2209.23C1711.22 2215.43 1704.66 2191.09 1699.31 2186.29C1693.97 2181.49 1685.98 2188.8 1682.17 2189.52C1678.36 2190.24 1662.86 2194.32 1650.26 2195.53C1637.67 2196.75 1626.61 2193.02 1617.3 2195.94C1607.99 2198.85 1602.28 2199.93 1578.46 2214.88C1554.65 2229.83 1563.07 2224.76 1554.23 2227.58C1545.4 2230.41 1536.5 2256.5 1529.26 2262.51C1522.01 2268.53 1516.03 2281.28 1511.58 2289.09C1507.14 2296.9 1500.94 2318.99 1476.08 2338.79C1451.21 2358.59 1453.32 2348.89 1439.14 2357.37C1424.96 2365.86 1429.62 2359.17 1421.05 2360.78L1388.67 2366.89C1381.05 2368.32 1382.53 2376.18 1373.64 2391.8C1364.75 2407.43 1365.22 2428.26 1366.65 2427.99L1385.22 2424.49L1423.32 2417.31Z" fill="#C49779"/>
<path d="M1700.98 2491.52C1710.68 2492.54 1718.82 2500.85 1730.49 2500.72C1733.13 2504.65 1732.83 2505.75 1730.9 2506.8C1720.9 2504.15 1713.43 2499.4 1700.91 2498.91C1696.45 2494.05 1697.39 2492.84 1700.98 2491.52Z" fill="#9A7D67"/>
<path d="M1668.3 2444.21C1672.48 2445 1676.17 2449.78 1681.17 2449.99C1682.4 2452.22 1682.3 2452.81 1681.5 2453.35C1677.14 2451.65 1673.83 2448.85 1668.45 2448.28C1666.42 2445.5 1666.79 2444.86 1668.3 2444.21Z" fill="#9A7D67"/>
<path d="M1721.21 2353.55C1727.28 2364.5 1730.45 2377.81 1738.11 2390.25C1738.82 2395.25 1738.34 2395.53 1736.81 2394.04C1730.96 2381.87 1727.31 2371.24 1719.25 2357.55C1717.59 2350.08 1718.52 2350.43 1721.21 2353.55Z" fill="#9A7D67"/>
<path d="M1740.58 2585.4C1741.33 2572 1745.18 2564.65 1745.5 2547.81C1747.28 2546.07 1747.74 2547.08 1748.13 2550.4C1746.67 2563.39 1744.38 2571.64 1743.76 2589.38C1741.52 2593.25 1741.03 2591.26 1740.58 2585.4Z" fill="#9A7D67"/>
<path d="M1799 2510.24C1805.68 2511.67 1811.66 2519.84 1819.64 2520.29C1821.64 2524.1 1821.49 2525.11 1820.22 2526C1813.25 2523.03 1807.91 2518.22 1799.32 2517.15C1796.03 2512.38 1796.61 2511.3 1799 2510.24Z" fill="#9A7D67"/>
<path d="M1845.62 2441.32C1852.19 2450.18 1856.33 2462.76 1864.49 2472.49C1865.61 2477.43 1865.2 2477.93 1863.66 2477.03C1857.17 2466.79 1852.84 2457.23 1844.2 2446.36C1841.98 2439.25 1842.87 2439.22 1845.62 2441.32Z" fill="#9A7D67"/>
<path d="M1865.27 2525.79C1872 2527.61 1877.92 2536.06 1885.96 2537C1887.93 2540.89 1887.77 2541.88 1886.48 2542.68C1879.48 2539.32 1874.15 2534.24 1865.5 2532.66C1862.24 2527.73 1862.85 2526.7 1865.27 2525.79Z" fill="#9A7D67"/>
<path d="M1965.09 2475.87C1971.95 2482.07 1976.97 2493.34 1985.35 2499.7C1986.86 2504.36 1986.54 2505.08 1985.05 2504.87C1978.14 2497.17 1973.25 2489.18 1964.32 2481.84C1961.6 2475.41 1962.39 2474.96 1965.09 2475.87Z" fill="#9A7D67"/>
<path d="M1907.37 2507.69C1911.53 2499.5 1917.38 2499.05 1921.96 2488.02C1924.24 2488.94 1924.47 2490.17 1924.04 2492.88C1919.24 2499.95 1914.79 2502.85 1909.68 2514.14C1906.37 2514.12 1906.37 2512.2 1907.37 2507.69Z" fill="#9A7D67"/>
<path d="M1297.92 2577.58C1304.6 2579.01 1310.58 2587.18 1318.55 2587.64C1320.56 2591.44 1320.4 2592.45 1319.14 2593.34C1312.17 2590.37 1306.82 2585.57 1298.24 2584.49C1294.94 2579.73 1295.53 2578.65 1297.92 2577.58Z" fill="#9A7D67"/>
<path d="M1359.43 2532.64C1366.11 2534.08 1372.09 2542.25 1380.06 2542.7C1382.06 2546.51 1381.91 2547.52 1380.64 2548.41C1373.68 2545.44 1368.33 2540.63 1359.75 2539.56C1356.45 2534.79 1357.04 2533.71 1359.43 2532.64Z" fill="#9A7D67"/>
<path d="M1453.06 2609.17C1448.13 2615.45 1442.01 2613.89 1436.45 2622.68C1434.14 2621.05 1433.99 2619.82 1434.64 2617.43C1440.14 2612.42 1444.98 2611.21 1451.12 2602.35C1454.56 2603.49 1454.42 2605.29 1453.06 2609.17Z" fill="#9A7D67"/>
<path d="M1483.73 2554.19C1490.58 2560.48 1495.57 2571.8 1503.95 2578.28C1505.45 2582.96 1505.12 2583.67 1503.63 2583.43C1496.73 2575.65 1491.86 2567.59 1482.93 2560.13C1480.22 2553.68 1481.02 2553.24 1483.73 2554.19Z" fill="#9A7D67"/>
<path d="M1206.11 2578.89C1211.19 2573.08 1217.35 2575.09 1223.13 2566.84C1225.44 2568.63 1225.57 2569.85 1224.88 2572.17C1219.23 2576.69 1214.31 2577.51 1207.95 2585.78C1204.5 2584.39 1204.66 2582.62 1206.11 2578.89Z" fill="#9A7D67"/>
<path d="M1514.27 2461.88C1520.17 2473.35 1523.06 2486.77 1530.53 2499.88C1531.12 2504.87 1530.63 2505.09 1529.11 2503.45C1523.47 2490.81 1520.02 2479.95 1512.18 2465.57C1510.69 2458.05 1511.62 2458.5 1514.27 2461.88Z" fill="#9A7D67"/>
<path d="M1518.1 2631.4C1523.33 2626.04 1529.53 2628.48 1535.5 2620.77C1537.81 2622.71 1537.92 2623.93 1537.18 2626.16C1531.4 2630.21 1526.41 2630.65 1519.86 2638.34C1516.38 2636.71 1516.58 2634.98 1518.1 2631.4Z" fill="#9A7D67"/>
<path d="M1594.1 2545.21C1597.63 2535.69 1603.19 2533.74 1606.96 2521.19C1609.19 2521.56 1609.48 2522.77 1609.21 2525.68C1605.02 2534.2 1600.92 2538.32 1596.66 2551.28C1593.5 2552.1 1593.39 2550.11 1594.1 2545.21Z" fill="#9A7D67"/>
<path d="M1558.16 2546.77C1564.8 2555.19 1569.11 2567.58 1577.34 2576.74C1578.53 2581.64 1578.13 2582.19 1576.59 2581.41C1570.01 2571.58 1565.57 2562.27 1556.85 2551.99C1554.54 2544.98 1555.41 2544.87 1558.16 2546.77Z" fill="#9A7D67"/>
<path d="M1569.23 2448.59C1576.07 2455.07 1581.01 2466.48 1589.39 2473.19C1590.86 2477.88 1590.53 2478.59 1589.03 2478.3C1582.15 2470.34 1577.3 2462.18 1568.39 2454.48C1565.71 2447.97 1566.51 2447.56 1569.23 2448.59Z" fill="#9A7D67"/>
<path d="M1599.55 2609.84C1603.78 2601.81 1609.66 2601.54 1614.33 2590.7C1616.62 2591.68 1616.84 2592.91 1616.39 2595.6C1611.53 2602.49 1607.03 2605.24 1601.83 2616.33C1598.51 2616.21 1598.52 2614.3 1599.55 2609.84Z" fill="#9A7D67"/>
<path d="M1626.82 2455.14C1632.94 2465.96 1636.18 2479.23 1643.89 2491.49C1644.63 2496.49 1644.16 2496.79 1642.62 2495.34C1636.72 2483.29 1633.01 2472.73 1624.9 2459.23C1623.2 2451.78 1624.12 2452.1 1626.82 2455.14Z" fill="#9A7D67"/>
<path d="M1652.33 2558.8C1659.02 2560.23 1664.99 2568.41 1672.97 2568.86C1674.97 2572.67 1674.82 2573.67 1673.55 2574.56C1666.58 2571.59 1661.24 2566.79 1652.65 2565.72C1649.36 2560.95 1649.95 2559.87 1652.33 2558.8Z" fill="#9A7D67"/>
<path d="M1276.34 2716.85C1276.69 2718.71 1276.33 2720.33 1275.54 2720.48C1274.76 2720.63 1273.83 2719.24 1273.48 2717.38C1273.13 2715.52 1273.49 2713.9 1274.28 2713.75C1275.06 2713.6 1275.99 2714.99 1276.34 2716.85Z" fill="#9F6C52"/>
<path d="M1305.23 2697.45C1305.58 2699.31 1305.22 2700.94 1304.43 2701.09C1303.65 2701.24 1302.72 2699.85 1302.37 2697.99C1302.02 2696.13 1302.38 2694.5 1303.17 2694.35C1303.95 2694.21 1304.88 2695.59 1305.23 2697.45Z" fill="#9F6C52"/>
<path d="M1220.57 2708.76C1220.92 2710.62 1220.57 2712.25 1219.78 2712.4C1218.99 2712.54 1218.06 2711.16 1217.71 2709.3C1217.36 2707.44 1217.72 2705.81 1218.51 2705.66C1219.3 2705.51 1220.22 2706.9 1220.57 2708.76Z" fill="#9F6C52"/>
<path d="M1237.18 2770.72C1237.53 2772.58 1237.18 2774.21 1236.39 2774.35C1235.6 2774.5 1234.67 2773.12 1234.32 2771.26C1233.97 2769.4 1234.33 2767.77 1235.12 2767.62C1235.91 2767.47 1236.83 2768.86 1237.18 2770.72Z" fill="#9F6C52"/>
<path d="M2133.94 2977.2L2088.42 2968.67L2107.69 3019.67L2154.35 3010.91L2172.48 3030.27L2135.79 3034.95L2103.33 3085.7L2118.86 3095.41L2094.79 3104.87L2067.91 3083.36L2010.67 3068.53L2008.08 3107.83L2083.99 3194.94L2289.27 3208.49L2325.76 3182.48L2334.09 3166.46C2321.83 3139.86 2297.37 3085.88 2297.58 3082.73C2297.78 3079.59 2271.28 3040.21 2258 3020.92L2246.41 3000.42L2133.94 2977.2Z" fill="#AB9563"/>
<path d="M1808.4 3180.69C1801.81 3182.62 1806.48 3185.3 1803.65 3191.43L1802.41 3210.29C1807.98 3244.34 1819.4 3312.93 1820.57 3314.9C1822.02 3317.37 1829.4 3328.12 1833.26 3330.74C1837.13 3333.36 1855.29 3340.09 1859.21 3341.93C1863.13 3343.76 1883.95 3346.72 1890.84 3352.7C1897.72 3358.68 1906.16 3365.55 1920.39 3370.44C1934.62 3375.32 1931.45 3374.32 1940.86 3378.89C1950.26 3383.46 1956.65 3384.67 1962.07 3388.19C1967.5 3391.7 1982.53 3396.64 1988.82 3399.43C1995.11 3402.21 2004.72 3403.63 2011.26 3402.49C2017.8 3401.34 2021.83 3401.61 2028.27 3402.03C2034.71 3402.46 2042.11 3400.58 2043.77 3399.9C2045.1 3399.35 2050.51 3395.87 2053.04 3394.19C2057.22 3392.1 2065.8 3387.14 2066.65 3384.04C2067.72 3380.16 2067.17 3376.18 2067.95 3364.39C2068.73 3352.6 2069.04 3347.89 2072.18 3337.04C2075.32 3326.2 2075.22 3327.77 2075.99 3315.98C2076.77 3304.19 2076.41 3309.69 2074.88 3296.17C2073.35 3282.65 2073.35 3282.65 2073.86 3274.79L2074.9 3259.07L2075.58 3248.85C2075.99 3242.56 2075.4 3239.37 2074.85 3235.38C2074.3 3231.4 2073.34 3233.71 2072.9 3228.15C2072.46 3222.6 2075.68 3222.81 2073.52 3218.72C2071.37 3214.63 2072.28 3213.11 2070.93 3209.07C2069.58 3205.04 2071.39 3202 2066.02 3197.7C2060.64 3193.4 2061.4 3194.24 2055.27 3189.09C2049.14 3183.95 2048.98 3186.31 2036.46 3179.96C2023.95 3173.61 2018.62 3168.52 2007.61 3163.84C1996.6 3159.17 1982.68 3149.57 1974.89 3145.11C1968.66 3141.54 1965.23 3136.37 1964.29 3134.23C1962.47 3134.11 1960.13 3133.44 1957.15 3132.09C1946.95 3127.47 1954.89 3129.58 1951.06 3126.36C1947.23 3123.14 1943.99 3123.33 1936.79 3122.07C1929.6 3120.8 1925.91 3127.66 1929.52 3134.22C1933.13 3140.77 1936.95 3144.18 1939 3149.84L1939 3149.84C1941.05 3155.5 1941.05 3155.5 1944.66 3162.06C1948.27 3168.61 1950.53 3171.13 1954.24 3176.11C1957.96 3181.09 1953.78 3183.18 1956.53 3190.47C1959.29 3197.76 1952.9 3196.54 1952.84 3197.33C1952.79 3198.12 1943.83 3199.1 1929.24 3199.72L1925.84 3214.49L1920.15 3214.91C1919.85 3215.41 1917.45 3216.62 1910.28 3217.41C1901.32 3218.4 1904.44 3220.18 1897.19 3219.71C1889.69 3223.16 1892.83 3236.79 1891.82 3239.88C1890.81 3242.97 1890.11 3241.34 1887.98 3249.1C1882.58 3257.42 1878.6 3256.37 1868.4 3251.75C1858.19 3247.13 1855.98 3243.82 1856.19 3240.68C1856.4 3237.54 1853.18 3237.32 1853.39 3234.18C1853.55 3231.67 1853.18 3221.01 1852.97 3216L1855.36 3204.31C1852.55 3197.81 1850.74 3200.85 1846.32 3194.24C1841.91 3187.64 1843.46 3188.53 1839.05 3181.92C1834.63 3175.31 1828.79 3178.09 1819.93 3177.5C1811.08 3176.92 1815 3178.76 1808.4 3180.69Z" fill="#AB9563"/>
<path d="M1593.69 3224.14C1588.99 3209.62 1593.05 3221.73 1590.94 3216.85C1589.17 3212.74 1587.1 3213.1 1575.86 3212.61L1557.1 3227.25C1547.38 3264.23 1527.75 3338.67 1526.99 3340.51C1526.22 3342.36 1620.85 3433.28 1668.27 3478.52C1680.31 3482.82 1687.07 3483.02 1699.11 3476.61L1720.05 3477.99L1804.7 3322.54L1809.87 3305.51L1806.31 3298.17L1743.98 3213.54C1740.65 3214.9 1741.67 3211.81 1737.2 3205.98C1732.73 3200.16 1737.4 3202.84 1728.16 3195.91C1718.92 3188.99 1712.97 3193.33 1712.45 3201.19C1715.36 3206.12 1714.45 3207.64 1714.29 3210C1714.14 3212.36 1711.52 3215.34 1707.67 3224.56C1703.83 3233.78 1706.61 3228.44 1707 3234.78C1707.39 3241.12 1711.96 3245.37 1713.8 3254.17C1715.28 3261.22 1718.05 3267.35 1719.26 3269.53C1717.68 3268.9 1713.75 3267.27 1710.61 3265.8C1706.69 3263.97 1704.32 3263.02 1701.91 3262.86L1676.95 3261.21L1667.29 3260.57C1664.27 3261.43 1658.16 3264.23 1657.87 3268.64C1657.5 3274.14 1655.53 3279.53 1656.83 3284.36C1657.87 3288.21 1659.32 3295.57 1659.92 3298.77L1659.56 3304.27L1648.41 3264.85L1624.65 3269.6C1624.19 3272.46 1622.74 3278.95 1620.6 3281.96C1618.46 3284.98 1609.67 3288.35 1605.54 3289.65C1601.41 3290.96 1593.21 3292.63 1593.46 3288.85C1593.77 3284.14 1595.75 3278.74 1594.45 3273.92C1593.41 3270.06 1594.43 3266.03 1595.07 3264.49L1599.72 3261.64C1598.69 3258.81 1602.48 3255.03 1601.9 3246.78C1601.07 3234.89 1598.4 3238.66 1593.69 3224.14Z" fill="#AB9563"/>
<path d="M1127.08 3090.7C1127.16 3089.45 1119.06 3089.65 1115 3089.91C1111.7 3090.95 1036.1 3137.85 998.715 3161.17L998.206 3161.66C991.363 3168.25 987.374 3172.09 988.458 3181.81L1020.25 3337.05L1046.9 3349.86C1054.84 3351.97 1071.06 3356.2 1072.35 3356.28C1073.96 3356.39 1235.14 3278.61 1236.86 3277.15C1238.23 3275.98 1248.63 3262.14 1253.66 3255.37L1264.04 3171.58C1260.92 3169.8 1262.64 3168.33 1262.95 3163.62L1263.83 3150.26C1264.25 3143.97 1256.95 3144.28 1252.48 3138.46C1248.02 3132.63 1246.46 3131.74 1243.29 3130.74C1240.12 3129.74 1235.99 3131.05 1229.14 3136.91C1222.28 3142.78 1220.36 3147.39 1217.53 3153.51C1214.7 3159.64 1210.52 3161.73 1207.09 3164.67C1204.35 3167.01 1203.58 3177.06 1203.53 3181.8C1199.61 3194.08 1196.8 3200.16 1182.97 3199.39L1175.56 3176.79L1146.5 3163.82L1138.79 3170.42L1134.77 3170.15L1133.73 3161.4L1109.78 3156.66C1104.05 3157.86 1092.08 3160.23 1090.15 3160.1C1087.74 3159.94 1078.78 3160.93 1077.27 3159.25C1075.76 3157.57 1075.69 3146.52 1078.26 3144.32C1080.83 3142.12 1086.02 3136.94 1091.97 3132.59C1097.92 3128.25 1103.91 3123.12 1108.85 3121.87C1112.79 3120.86 1117.71 3118.24 1119.68 3117.06C1120.25 3108.41 1122.06 3105.37 1126.45 3100.14C1130.84 3094.9 1126.97 3092.28 1127.08 3090.7Z" fill="#AB9563"/>
<path d="M893.637 3013.72L902.93 2970.91C899.71 2970.7 815.599 3007.77 773.946 3026.34L742.115 3165.54L737.105 3204.68C754.557 3217.94 789.632 3244.3 790.318 3243.72C791.003 3243.13 913.573 3201.6 974.773 3180.9L993.625 3164.78L1036.67 3051.58C1034.52 3047.49 1030.11 3040.88 1027.9 3037.58C1025.69 3034.28 1027.13 3032 1022.08 3027.72C1017.03 3023.44 1017.61 3021.9 1011.98 3021.53L1003.12 3020.95C1001.51 3020.84 994.707 3025.92 991.229 3029.63C987.751 3033.35 982.998 3044.09 980.323 3047.86C978.183 3050.88 973.528 3065.04 971.467 3071.75C962.577 3083.34 958.039 3090.39 939.526 3090.16L936.566 3061.55L909.064 3049.47L891.924 3039.65L856.191 3042.03L846.53 3041.39L846.604 3041.14C851.324 3025.09 853.994 3016.01 893.637 3013.72Z" fill="#AB9563"/>
<path d="M1343.92 3186.33C1341.82 3181.46 1340.11 3182.92 1336.08 3182.66L1328.83 3182.18C1326.74 3184.57 1269.93 3245.65 1241.79 3275.9L1237.12 3297.69L1311.76 3440.77L1368.92 3444.54C1432.16 3403.63 1462.94 3377.29 1513.33 3326.98L1518.91 3303.67L1499.43 3231.33C1496.21 3231.12 1497.43 3224.89 1493.87 3217.55C1490.31 3210.21 1491.17 3209.47 1486.91 3200.51C1482.65 3191.54 1480.99 3192.22 1479.38 3192.12C1477.77 3192.01 1473.33 3198.03 1466.58 3202.32C1459.82 3206.62 1460.47 3209.03 1455.23 3215C1449.98 3220.96 1451.54 3221.86 1448.71 3227.98C1445.88 3234.11 1448.19 3235.84 1447.78 3242.13C1447.36 3248.42 1447.96 3251.62 1447.15 3251.56C1453.5 3258.08 1454.47 3261.67 1438.01 3267.54L1429.96 3267.01L1425.81 3256.47C1423.19 3255.25 1417.64 3252.77 1416.35 3252.69L1403.47 3251.84C1400.9 3251.67 1394.75 3253.37 1391.99 3254.24L1384.44 3258.48L1381.74 3250.4L1373.89 3246.73L1368.26 3246.36C1358.6 3245.72 1352.86 3246.92 1351.2 3247.6C1350.07 3248.31 1346.97 3250.32 1343.59 3252.62C1339.36 3255.5 1335.12 3258.38 1330.94 3260.47C1327.6 3262.14 1322.94 3263.36 1321.02 3263.76C1319.55 3261.56 1316.81 3256.54 1317.62 3254.06C1318.63 3250.97 1322.16 3246.47 1322.37 3243.33C1322.58 3240.18 1326.06 3236.46 1329.43 3234.32C1332.81 3232.17 1333.87 3228.3 1336.39 3226.88C1338.41 3225.75 1343.74 3225.79 1346.16 3225.95C1346.36 3222.81 1346.52 3220.45 1344.63 3212.43L1344.62 3212.4C1342.73 3204.41 1342.73 3204.4 1343.04 3199.69C1343.35 3194.98 1346.03 3191.21 1343.92 3186.33Z" fill="#AB9563"/>
<path d="M2069.64 2873.49C2061.47 2878.74 2044.57 2890.62 2042.27 2896.15C2041.78 2897.32 2041.08 2898.59 2040.24 2899.91C2035.86 2911.23 2041.73 2929.23 2053.82 2929.28C2056.5 2925.51 2059.12 2922.53 2060.94 2919.49C2062.76 2916.45 2072.03 2910.75 2073.74 2909.28C2075.45 2907.82 2079.74 2904.15 2081.4 2903.47C2082.73 2902.93 2086.4 2893.02 2088.07 2888.13L2069.64 2873.49Z" fill="#BD6A63"/>
<path d="M2026.32 2917.2C2023.65 2920.97 2009.37 2941.35 2007.55 2944.38C2006.09 2946.81 1994.3 2957.19 1988.59 2962.08L2028.58 2968.66C2034.69 2961.96 2033.39 2957.14 2036.17 2951.8C2038.94 2946.46 2038.94 2946.46 2044.94 2941.33C2050.94 2936.2 2051.15 2933.05 2053.82 2929.28C2041.73 2929.23 2035.86 2911.23 2040.24 2899.91C2036.09 2906.38 2028.54 2914.07 2026.32 2917.2Z" fill="#BD6A63"/>
<path d="M1988.59 2962.08C1986.5 2965.1 1981.48 2971.87 1978.05 2974.8C1973.76 2978.47 1960.29 2998.89 1958.91 3007.48C1957.53 3016.07 1956.94 3037.35 1956.78 3039.71C1963.01 3025.5 1966.69 3025.26 1973.69 3040.82C1974.05 3035.32 1978.93 3034.85 1981.06 3027.1C1983.19 3019.35 1984.91 3017.88 1986.83 3013.27C1988.75 3008.66 1991.32 3006.46 1994.96 3000.39C1998.59 2994.31 1997.73 2995.05 2004.54 2989.97C2011.34 2984.89 2022.48 2975.37 2028.58 2968.66L1988.59 2962.08Z" fill="#363530"/>
<path d="M1956.78 3039.71L1955.54 3058.57L1950.16 3078.74C1963.2 3077.23 1958.42 3076.13 1961.2 3070.79C1963.98 3065.44 1965.59 3065.55 1967.61 3059.37C1969.64 3053.19 1973.33 3046.33 1973.69 3040.82C1966.69 3025.26 1963.01 3025.5 1956.78 3039.71Z" fill="#BD6A63"/>
<path d="M1955.54 3058.57C1948.42 3060.21 1933.39 3063.42 1930.17 3063.21L1868.18 3059.12L1885.47 3091.05C1892.72 3091.53 1891.27 3089.06 1908.28 3088.61C1925.28 3088.15 1917.39 3085.26 1925.65 3082.65C1933.91 3080.04 1937.13 3080.25 1950.16 3078.74L1955.54 3058.57Z" fill="#363530"/>
<path d="M1868.18 3059.12C1861.21 3062.61 1847.08 3070.04 1846.31 3071.88C1845.54 3073.73 1843.38 3087.74 1842.39 3094.52L1824.6 3106.76L1843.15 3119.83C1858.75 3116.12 1865.27 3103.13 1871.37 3096.43C1877.48 3089.73 1878.23 3090.57 1885.47 3091.05L1868.18 3059.12Z" fill="#BD6A63"/>
<path d="M1824.6 3106.76C1817.57 3107.09 1801.22 3108.22 1792.04 3110.14C1784.88 3111.64 1769.56 3112.6 1757.85 3113.6L1769.14 3138.62C1791.23 3134.56 1777.34 3136.8 1790.43 3134.5C1803.52 3132.21 1798.79 3130.32 1815.2 3126.67C1831.62 3123.01 1827.54 3123.54 1843.15 3119.83L1824.6 3106.76Z" fill="#363530"/>
<path d="M1743.17 3115.6C1739.18 3117.23 1710.76 3124.77 1697.05 3128.34C1691.77 3130.62 1680.71 3135.79 1678.61 3138.17L1683.08 3168.47C1685.49 3168.63 1688.06 3166.43 1691.39 3165.07C1694.71 3163.71 1697.12 3163.87 1702.97 3161.1C1708.81 3158.32 1705.43 3160.47 1708.81 3158.32C1712.19 3156.18 1712.99 3156.23 1720.6 3151.21C1728.21 3146.18 1730.52 3147.92 1741.14 3146.25C1751.76 3144.58 1747.04 3142.69 1769.14 3138.62L1757.85 3113.6C1750.79 3114.21 1745.04 3114.83 1743.17 3115.6Z" fill="#BD6A63"/>
<path d="M1678.61 3138.17C1675.98 3141.16 1653.5 3138.88 1638.69 3142.64C1623.89 3146.4 1619.01 3146.87 1602.86 3146.59C1586.28 3142.97 1584.73 3135.4 1586.03 3132.06C1584.61 3129.07 1578.22 3123.02 1564.01 3122.71C1546.24 3122.33 1542.53 3117.35 1532.61 3120.64C1522.69 3123.93 1521.03 3124.61 1512.77 3127.22L1510.8 3157.09C1531.73 3158.47 1535.65 3160.31 1542.79 3162.36C1549.93 3164.41 1554.06 3163.1 1561.31 3163.58L1583.04 3165.02C1599.95 3166.13 1597.59 3165.19 1611.32 3165.31C1625.06 3165.42 1622.7 3164.48 1639.6 3165.6L1683.08 3168.47L1678.61 3138.17Z" fill="#363530"/>
<path d="M1512.77 3127.22C1510.79 3127.85 1510.04 3128.15 1509.79 3128.28C1509.47 3128.46 1510.06 3128.32 1509.79 3128.28C1509.43 3128.22 1507.5 3128.31 1499.68 3129.52C1481.71 3132.28 1485.74 3132.54 1468.02 3131.37L1444.68 3129.83L1412.97 3156.95C1423.28 3160 1428.22 3158.74 1464.65 3157.99C1501.08 3157.24 1489.87 3155.71 1510.8 3157.09L1512.77 3127.22Z" fill="#BD6A63"/>
<path d="M1444.68 3129.83L1430.19 3128.87C1426.97 3128.66 1415.75 3127.13 1411.93 3123.72C1408.11 3120.31 1401.83 3117.53 1397.05 3116.42C1392.27 3115.32 1392.53 3111.39 1381.26 3110.65C1369.99 3109.9 1385.08 3114.05 1365.16 3109.58C1357.51 3115.34 1353.49 3118.99 1352.18 3134.78C1369.78 3137.52 1372.09 3139.25 1380.79 3142.19C1389.49 3145.13 1402.66 3153.9 1412.97 3156.95L1444.68 3129.83Z" fill="#363530"/>
<path d="M1365.16 3109.58C1345.24 3105.11 1349.66 3111.72 1336.39 3104.52C1323.12 3097.33 1323.61 3102.1 1316.93 3092.98L1315.07 3121.27C1330.7 3129.41 1334.57 3132.03 1352.18 3134.78C1353.49 3118.99 1357.51 3115.34 1365.16 3109.58Z" fill="#BD6A63"/>
<path d="M1316.93 3092.98C1310.26 3083.85 1317.51 3084.33 1306.55 3078.87C1295.59 3073.41 1283.17 3065.49 1280.06 3063.7C1276.94 3061.92 1270.6 3059.92 1262.76 3056.25C1254.92 3052.57 1250.19 3050.68 1246.37 3047.27L1227.5 3076.02C1240.87 3081.64 1238.51 3080.69 1267.57 3093.67C1296.63 3106.64 1277.62 3100.64 1286.16 3105.94C1294.71 3111.25 1299.43 3113.14 1315.07 3121.27L1316.93 3092.98Z" fill="#363530"/>
<path d="M1246.37 3047.27C1243.32 3044.54 1237.9 3040.92 1235.57 3039.45C1237.25 3038.51 1236.96 3035.6 1222.35 3031.47C1204.1 3026.32 1195.29 3024.95 1189.6 3025.36L1162.13 3049.6C1183.06 3050.98 1181.04 3057.16 1193.92 3058.02C1206.8 3058.87 1214.12 3070.4 1227.5 3076.02L1246.37 3047.27Z" fill="#BD6A63"/>
<path d="M1189.6 3025.36C1174.85 3028.34 1166.54 3031.74 1153.92 3026.96C1141.3 3022.18 1140.99 3026.89 1133.25 3021.64C1125.51 3016.4 1113.8 3010.1 1109.07 3008.21C1104.35 3006.31 1079.7 2999.95 1078.25 2997.49L1061.21 3010.57C1082.22 3023.01 1081.49 3009.54 1098.63 3019.36C1115.77 3029.17 1112.66 3027.39 1134.78 3035.16C1156.91 3042.94 1141.2 3048.22 1162.13 3049.6L1189.6 3025.36Z" fill="#363530"/>
<path d="M1078.25 2997.49C1076.79 2995.02 1069.37 2985.06 1068.77 2981.86C1068.29 2979.3 1065.54 2969.54 1064.22 2964.98C1063.39 2961.25 1058.05 2953.21 1043.32 2950.97L1030.19 2985.64C1030.55 2985.92 1030.91 2986.2 1031.27 2986.49C1044.33 2996.83 1035.79 2991.53 1061.21 3010.57L1078.25 2997.49Z" fill="#BD6A63"/>
<path d="M1043.32 2950.97C1024.91 2948.18 1017.76 2946.13 1004.13 2944.44C990.496 2942.75 997.793 2942.44 977.875 2937.97C975.114 2943.05 969.4 2953.66 968.634 2955.47C972.305 2957.04 975.902 2958.41 978.889 2959.35C988.393 2962.35 987.978 2968.63 998.496 2968.54C1008.51 2968.45 1017.33 2975.44 1029.42 2985.03L1030.19 2985.64L1043.32 2950.97Z" fill="#363530"/>
<path d="M977.875 2937.97C957.956 2933.5 954.892 2930.93 955.359 2923.85C955.826 2916.78 955.696 2906.51 952.086 2899.95C948.476 2893.4 933.854 2882.17 931.595 2879.65L912.474 2899.84C914.415 2901.78 916.435 2904.49 918.456 2907.21C922.17 2912.19 928.792 2922.1 928.585 2925.24C928.377 2928.39 931.494 2930.17 933.753 2932.69C936.013 2935.2 944.557 2940.51 949.127 2944.75C952.262 2947.67 960.623 2952.04 968.634 2955.47C969.4 2953.66 975.114 2943.05 977.875 2937.97Z" fill="#BD6A63"/>
<path d="M931.595 2879.65C929.335 2877.14 923.96 2872.83 914.455 2869.84C904.95 2866.84 899.574 2862.54 892.926 2865.26C886.278 2867.98 881.19 2871.59 878.618 2873.79C876.56 2875.55 875.492 2884.37 875.215 2888.56C877.856 2893.47 883.439 2903.63 884.644 2904.97C885.849 2906.32 894.703 2907.74 898.979 2908.29C900.849 2904.46 905.232 2896.86 907.808 2897.03C909.276 2897.13 910.847 2898.21 912.474 2899.84L931.595 2879.65Z" fill="#363530"/>
<path d="M2146.91 2780.7C2108.56 2813.94 2092.56 2834.58 2069.64 2873.49L2088.07 2888.13C2086.4 2893.02 2082.73 2902.93 2081.4 2903.47C2079.74 2904.15 2075.45 2907.82 2073.74 2909.28C2072.03 2910.75 2062.76 2916.45 2060.94 2919.49C2059.12 2922.53 2056.5 2925.51 2053.82 2929.28C2051.15 2933.05 2050.94 2936.2 2044.94 2941.33C2038.94 2946.46 2038.94 2946.46 2036.17 2951.8C2033.39 2957.14 2034.69 2961.96 2028.58 2968.66C2022.48 2975.37 2011.34 2984.89 2004.54 2989.97C1997.73 2995.05 1998.59 2994.31 1994.96 3000.39C1991.32 3006.46 1988.75 3008.66 1986.83 3013.27C1984.91 3017.88 1983.19 3019.35 1981.06 3027.1C1978.93 3034.85 1974.05 3035.32 1973.69 3040.82C1973.33 3046.33 1969.64 3053.19 1967.61 3059.37C1965.59 3065.55 1963.98 3065.44 1961.2 3070.79C1958.42 3076.13 1963.2 3077.23 1950.16 3078.74C1937.13 3080.25 1933.91 3080.04 1925.65 3082.65C1917.39 3085.26 1925.28 3088.15 1908.28 3088.61C1891.27 3089.06 1892.72 3091.53 1885.47 3091.05C1878.23 3090.57 1877.48 3089.73 1871.37 3096.43C1865.27 3103.13 1858.75 3116.12 1843.15 3119.83C1827.54 3123.54 1831.62 3123.01 1815.2 3126.67C1798.79 3130.32 1803.52 3132.21 1790.43 3134.5C1777.34 3136.8 1791.23 3134.56 1769.14 3138.62C1747.04 3142.69 1751.76 3144.58 1741.14 3146.25C1730.52 3147.92 1728.21 3146.18 1720.6 3151.21C1712.99 3156.23 1712.19 3156.18 1708.81 3158.32C1705.43 3160.47 1708.81 3158.32 1702.97 3161.1C1697.12 3163.87 1694.71 3163.71 1691.39 3165.07C1688.06 3166.43 1685.49 3168.63 1683.08 3168.47L1639.6 3165.6C1622.7 3164.48 1625.06 3165.42 1611.32 3165.31C1597.59 3165.19 1599.95 3166.13 1583.04 3165.02L1561.31 3163.58C1554.06 3163.1 1549.93 3164.41 1542.79 3162.36C1535.65 3160.31 1531.73 3158.47 1510.8 3157.09C1489.87 3155.71 1501.08 3157.24 1464.65 3157.99C1428.22 3158.74 1423.28 3160 1412.97 3156.95C1402.66 3153.9 1389.49 3145.13 1380.79 3142.19C1372.09 3139.25 1369.78 3137.52 1352.18 3134.78C1334.57 3132.03 1330.7 3129.41 1315.07 3121.27C1299.43 3113.14 1294.71 3111.25 1286.16 3105.94C1277.62 3100.64 1296.63 3106.64 1267.57 3093.67C1238.51 3080.69 1240.87 3081.64 1227.5 3076.02C1214.12 3070.4 1206.8 3058.87 1193.92 3058.02C1181.04 3057.16 1183.06 3050.98 1162.13 3049.6C1141.2 3048.22 1156.91 3042.94 1134.78 3035.16C1112.66 3027.39 1115.77 3029.17 1098.63 3019.36C1081.49 3009.54 1082.22 3023.01 1061.21 3010.57C1035.79 2991.53 1044.33 2996.83 1031.27 2986.49C1030.91 2986.2 1030.55 2985.92 1030.19 2985.64L1029.42 2985.03C1017.33 2975.44 1008.51 2968.45 998.496 2968.54C987.978 2968.63 988.393 2962.35 978.889 2959.35C975.902 2958.41 972.305 2957.04 968.634 2955.47C960.623 2952.04 952.262 2947.67 949.127 2944.75C944.557 2940.51 936.013 2935.2 933.753 2932.69C931.494 2930.17 928.377 2928.39 928.585 2925.24C928.792 2922.1 922.17 2912.19 918.456 2907.21C916.435 2904.49 914.415 2901.78 912.474 2899.84C910.847 2898.21 909.276 2897.13 907.808 2897.03C905.232 2896.86 900.849 2904.46 898.979 2908.29C894.703 2907.74 885.849 2906.32 884.644 2904.97C883.439 2903.63 877.856 2893.47 875.215 2888.56C855.426 2868.79 842.61 2840.33 835.662 2805.43C786.197 2812.9 795.104 2852.49 805.74 2871.34C823.305 2912.3 852.153 2943.91 894.879 2970.38L902.93 2970.91L893.637 3013.72C896.995 3019.99 903.681 3033.01 903.556 3034.9C903.401 3037.25 907.973 3041.5 912.699 3043.39C917.426 3045.28 932.671 3047.08 937.396 3048.97C942.121 3050.86 955.341 3058.84 959.912 3063.09C963.569 3066.49 969.139 3070.28 971.467 3071.75C973.528 3065.04 978.183 3050.88 980.323 3047.86C982.998 3044.09 987.751 3033.35 991.229 3029.63C994.707 3025.92 1001.51 3020.84 1003.12 3020.95L1011.98 3021.53C1017.61 3021.9 1017.03 3023.44 1022.08 3027.72C1027.13 3032 1025.69 3034.28 1027.9 3037.58C1030.11 3040.88 1034.52 3047.49 1036.67 3051.58C1038.83 3055.67 1046.57 3060.92 1052.1 3062.86C1057.63 3064.8 1097.65 3083.24 1100.77 3085.02C1103.26 3086.45 1111.3 3088.87 1115 3089.91C1119.06 3089.65 1127.16 3089.45 1127.08 3090.7C1126.97 3092.28 1130.84 3094.9 1126.45 3100.14C1122.06 3105.37 1120.25 3108.41 1119.68 3117.06C1119.11 3125.7 1119.18 3136.76 1121.34 3140.85C1123.5 3144.94 1124.2 3146.56 1129.57 3150.86C1134.95 3155.17 1144.61 3155.8 1152.35 3161.05C1160.09 3166.3 1156.92 3165.3 1169.59 3169.29C1182.26 3173.29 1191.87 3174.71 1196.6 3176.6C1200.38 3178.12 1202.8 3180.7 1203.53 3181.8C1203.58 3177.06 1204.35 3167.01 1207.09 3164.67C1210.52 3161.73 1214.7 3159.64 1217.53 3153.51C1220.36 3147.39 1222.28 3142.78 1229.14 3136.91C1235.99 3131.05 1240.12 3129.74 1243.29 3130.74C1246.46 3131.74 1248.02 3132.63 1252.48 3138.46C1256.95 3144.28 1264.25 3143.97 1263.83 3150.26L1262.95 3163.62C1262.64 3168.33 1260.92 3169.8 1264.04 3171.58C1267.16 3173.37 1267.8 3175.78 1281.49 3176.68C1295.18 3177.59 1292.01 3176.59 1301.57 3178.8C1309.21 3180.57 1313.81 3181.19 1315.15 3181.27L1328.83 3182.18L1336.08 3182.66C1340.11 3182.92 1341.82 3181.46 1343.92 3186.33C1346.03 3191.21 1343.35 3194.98 1343.04 3199.69C1342.73 3204.4 1342.73 3204.41 1344.62 3212.4L1344.63 3212.43C1346.52 3220.45 1346.36 3222.81 1346.16 3225.95C1345.95 3229.09 1346.7 3229.93 1350.52 3233.34C1354.34 3236.75 1352.73 3236.65 1361.48 3238.8C1370.23 3240.96 1367.92 3239.23 1378.28 3241.49C1388.64 3243.75 1397.55 3243.55 1403.89 3245.55C1410.22 3247.55 1415.16 3246.29 1422.19 3249.92C1429.23 3253.54 1434.87 3253.91 1438.69 3257.32C1442.51 3260.73 1446.35 3251.51 1447.15 3251.56C1447.96 3251.62 1447.36 3248.42 1447.78 3242.13C1448.19 3235.84 1445.88 3234.11 1448.71 3227.98C1451.54 3221.86 1449.98 3220.96 1455.23 3215C1460.47 3209.03 1459.82 3206.62 1466.58 3202.32C1473.33 3198.03 1477.77 3192.01 1479.38 3192.12C1480.99 3192.22 1482.65 3191.54 1486.91 3200.51C1491.17 3209.47 1490.31 3210.21 1493.87 3217.55C1497.43 3224.89 1496.21 3231.12 1499.43 3231.33C1502.65 3231.55 1501.19 3229.08 1509.89 3232.02C1518.59 3234.97 1520.31 3233.5 1526.85 3232.36C1532.09 3231.44 1539.37 3230.55 1542.35 3230.22L1547.99 3230.59C1550.77 3225.25 1558.78 3214.1 1568.61 3212.22C1571.38 3212.4 1573.78 3212.52 1575.86 3212.61C1587.1 3213.1 1589.17 3212.74 1590.94 3216.85C1593.05 3221.73 1588.99 3209.62 1593.69 3224.14C1598.4 3238.66 1601.07 3234.89 1601.9 3246.78C1602.48 3255.03 1598.69 3258.81 1599.72 3261.64C1600.18 3262.89 1601.58 3263.95 1604.73 3265.13C1614.99 3268.96 1612.58 3268.8 1621.64 3266.24C1630.7 3263.68 1627.69 3260.33 1637.35 3260.97C1647.01 3261.6 1644.75 3259.09 1653.61 3259.67L1667.29 3260.57L1676.95 3261.21L1701.91 3262.86C1704.32 3263.02 1706.69 3263.97 1710.61 3265.8C1713.75 3267.27 1717.68 3268.9 1719.26 3269.53C1718.05 3267.35 1715.28 3261.22 1713.8 3254.17C1711.96 3245.37 1707.39 3241.12 1707 3234.78C1706.61 3228.44 1703.83 3233.78 1707.67 3224.56C1711.52 3215.34 1714.14 3212.36 1714.29 3210C1714.45 3207.64 1715.36 3206.12 1712.45 3201.19C1712.97 3193.33 1718.92 3188.99 1728.16 3195.91C1737.4 3202.84 1732.73 3200.16 1737.2 3205.98C1741.67 3211.81 1740.65 3214.9 1743.98 3213.54C1747.3 3212.18 1753.9 3210.24 1756.31 3210.4C1758.73 3210.56 1756.52 3207.26 1764.57 3207.79C1772.62 3208.32 1769.61 3204.97 1777.66 3205.5L1789.73 3206.3L1798.59 3206.88C1799.33 3203.77 1801.39 3196.33 1803.65 3191.43C1806.48 3185.3 1801.81 3182.62 1808.4 3180.69C1815 3178.76 1811.08 3176.92 1819.93 3177.5C1828.79 3178.09 1834.63 3175.31 1839.05 3181.92C1843.46 3188.53 1841.91 3187.64 1846.32 3194.24C1850.74 3200.85 1852.55 3197.81 1855.36 3204.31C1858.16 3210.81 1857.3 3211.55 1857.75 3217.1C1858.19 3222.66 1858.84 3225.07 1859.44 3228.26C1860.03 3231.46 1875.12 3211.14 1877.64 3209.73C1880.16 3208.32 1886.11 3203.98 1891.04 3202.72C1895.97 3201.47 1890.98 3203.51 1900.85 3201C1910.72 3198.5 1914.75 3198.76 1917.97 3198.97C1921.19 3199.19 1914.64 3200.33 1929.24 3199.72C1943.83 3199.1 1952.79 3198.12 1952.84 3197.33C1952.9 3196.54 1959.29 3197.76 1956.53 3190.47C1953.78 3183.18 1957.96 3181.09 1954.24 3176.11C1950.53 3171.13 1948.27 3168.61 1944.66 3162.06C1941.05 3155.5 1941.05 3155.5 1939 3149.84L1939 3149.84C1936.95 3144.18 1933.13 3140.77 1929.52 3134.22C1925.91 3127.66 1929.6 3120.8 1936.79 3122.07C1943.99 3123.33 1947.23 3123.14 1951.06 3126.36C1954.89 3129.58 1946.95 3127.47 1957.15 3132.09C1960.13 3133.44 1962.47 3134.11 1964.29 3134.23C1968.71 3134.54 1970.12 3131.67 1970.38 3127.63C1970.76 3121.94 1973.28 3120.53 1975.15 3116.7C1977.02 3112.88 1971.33 3113.29 1980.45 3109.95C1989.56 3106.6 1992.73 3107.6 1993.74 3104.51C1997.29 3099.69 2002.8 3085.64 2005.11 3079.21L2010.67 3068.53L2067.91 3083.36L2087.64 3053.87L2107.69 3019.67L2088.42 2968.67L2133.94 2977.2L2127.06 2971.22L2099.4 2961.5L2091.53 2921.51L2126.8 2901.73L2117.13 2876.62C2148.86 2843.33 2164.02 2822.37 2179.64 2774.97L2146.91 2780.7Z" fill="#454F62"/>
<path d="M2938.57 1888.25C2955.44 1897.54 2989.94 1915.67 2992.96 1913.87L2971.05 1953.66C2969.1 1957.2 2937.08 1988.74 2921.32 2004.06C2906.66 2028.64 2876.37 2079.57 2872.48 2086.64L2817.71 2186.12L2585.6 2463.08C2648.46 2347.89 2774.61 2116.88 2776.39 2114.41L2938.57 1888.25Z" fill="#715331"/>
<path d="M3024.81 1771.53L3367.51 1893.93L3357.77 1911.62L3281.12 1889.59C3269.66 1883.27 3245.46 1870.82 3240.36 1871.47C3233.99 1872.28 3206.5 1871.55 3200.66 1868.33C3194.82 1865.12 3162.9 1866.27 3160.3 1864.84C3158.23 1863.7 3102.87 1867.8 3075.46 1869.99L3013.72 1902.26L2943.87 1881.09L3024.81 1771.53Z" fill="#715331"/>
<path d="M2822.16 1698.85L2914.38 1729.46L2871.78 1806.83C2851.36 1771.84 2841.86 1750.52 2802.12 1732.47L2822.16 1698.85Z" fill="#715331"/>
<path d="M2637.18 1641.67L2720.97 1667.64L2706.53 1700.01C2678.95 1678.07 2663.84 1665.13 2624.4 1664.89L2637.18 1641.67Z" fill="#715331"/>
<path d="M3339.52 1944.78C3224.79 1913.85 3158.64 1889.94 3058.01 1909.35L2996.85 1939.06L2988.41 1934.41L2960.42 1985.26L2930.37 2027.55L2817.71 2186.12L2872.48 2086.64C2876.37 2079.57 2906.66 2028.64 2921.32 2004.06C2937.08 1988.74 2969.1 1957.2 2971.05 1953.66L2992.96 1913.87C2989.94 1915.67 2955.44 1897.54 2938.57 1888.25L2943.87 1881.09L3013.72 1902.26L3075.46 1869.99C3102.87 1867.8 3158.23 1863.7 3160.3 1864.84C3162.9 1866.27 3194.82 1865.12 3200.66 1868.33C3206.5 1871.55 3233.99 1872.28 3240.36 1871.47C3245.46 1870.82 3269.66 1883.27 3281.12 1889.59L3357.77 1911.62L3339.52 1944.78Z" fill="#080202"/>
<path d="M2789.41 1785.97L2774.97 1778.02L2802.12 1732.47C2841.86 1750.52 2851.36 1771.84 2871.78 1806.83L2861.44 1825.63L2860.98 1826.26C2849.23 1842.49 2837.71 1858.4 2826.39 1874.03L2839.46 1839.45L2789.41 1785.97Z" fill="#140200"/>
<path d="M2764.96 1853.17L2687.66 2065.56C2609.72 2173.09 2539.84 2269.29 2469.16 2366.17L2744.59 1829L2764.96 1853.17Z" fill="#EAD19B"/>
<path d="M2789.41 1785.97L2764.96 1853.17L2744.59 1829L2774.97 1778.02L2789.41 1785.97Z" fill="#7B4C17"/>
<path d="M2720.97 1667.64C2772.74 1652.59 2794.04 1661.27 2822.16 1698.85L2802.12 1732.47L2774.97 1778.02L2744.59 1829L2469.16 2366.17C2383.14 2484.08 2295.93 2602.99 2191.55 2744.51L2060.93 2642.35L2093.5 2595.47L2226.84 2680.4L2500.31 2169.83L2692.08 1732.39L2706.53 1700.01L2720.97 1667.64Z" fill="#87632F"/>
<path d="M3034.55 1753.84L3024.81 1771.53L2943.87 1881.09L2938.57 1888.25L2776.39 2114.41L2543.11 2439.69L2345.39 2715.41L2266.7 2809.19L2191.55 2744.51C2295.93 2602.99 2383.14 2484.08 2469.16 2366.17C2539.84 2269.29 2609.72 2173.09 2687.66 2065.56C2730.91 2005.88 2776.65 1942.72 2826.39 1874.03C2837.71 1858.4 2849.23 1842.49 2860.98 1826.26L2861.44 1825.63L2871.78 1806.83L2914.38 1729.46L3034.55 1753.84Z" fill="#EDD49C"/>
<path d="M2585.6 2463.08L2817.71 2186.12L2930.37 2027.55L2627.85 2577.08L2614.46 2593.39L2588.76 2624.7L2493.47 2740.76L2480.44 2756.64L2373.75 2886.59L2289.08 2828.45L2374.14 2715.4L2493.91 2572.49L2585.6 2463.08Z" fill="#EBD299"/>
<path d="M2374.14 2715.4L2345.39 2715.41L2543.11 2439.69L2493.91 2572.49L2374.14 2715.4Z" fill="#D6B56E"/>
<path d="M2588.76 2624.7L2555.19 2722.89L2535.72 2758.26L2493.47 2740.76L2588.76 2624.7Z" fill="#5F3C1E"/>
<path d="M2510.67 2781.92L2480.44 2756.64L2493.47 2740.76L2535.72 2758.26L2555.19 2722.89L2588.76 2624.7L2614.46 2593.39L2531.98 2785.01L2510.67 2781.92Z" fill="#130102"/>
<path d="M2373.75 2886.59L2480.44 2756.64L2510.67 2781.92L2540.9 2807.2C2559.25 2944.02 2628.77 2999.18 2755.29 3096.63C2753.14 3109.95 2750.34 3118.27 2730.95 3140.84L2373.75 2886.59Z" fill="#87632F"/>
<path d="M2345.39 2715.41L2374.14 2715.4L2289.08 2828.45L2266.7 2809.19L2345.39 2715.41Z" fill="#87632F"/>
<path d="M2883 1935.44L2907.62 1901.46L2905.03 1900.03L2881.06 1934.37L2883 1935.44Z" fill="#D8C18D"/>
<path d="M2677.06 2183.59L2701.68 2149.62L2699.09 2148.19L2675.11 2182.52L2677.06 2183.59Z" fill="#D8C18D"/>
<path d="M2719.62 2382.74L2744.24 2348.77L2741.64 2347.34L2717.67 2381.67L2719.62 2382.74Z" fill="#D8C18D"/>
<path d="M2605.71 2562.01L2630.33 2528.04L2627.73 2526.61L2603.76 2560.94L2605.71 2562.01Z" fill="#D8C18D"/>
<path d="M2809.06 2011.4L2833.68 1977.42L2831.08 1975.99L2807.11 2010.33L2809.06 2011.4Z" fill="#D8C18D"/>
<path d="M2710.33 2092.44L2734.95 2058.46L2732.35 2057.04L2708.38 2091.37L2710.33 2092.44Z" fill="#D8C18D"/>
<path d="M2518.91 2612.17L2543.53 2578.2L2540.93 2576.77L2516.96 2611.1L2518.91 2612.17Z" fill="#D8C18D"/>
<path d="M2527.13 2400.65L2551.75 2366.67L2549.16 2365.24L2525.18 2399.57L2527.13 2400.65Z" fill="#D8C18D"/>
<path d="M2366.17 2588.58L2390.79 2554.61L2388.2 2553.18L2364.22 2587.51L2366.17 2588.58Z" fill="#D8C18D"/>
<path d="M2422.85 2743.65L2447.47 2709.68L2444.88 2708.25L2420.9 2742.58L2422.85 2743.65Z" fill="#D8C18D"/>
<path d="M2525.47 2664.76L2550.09 2630.78L2547.5 2629.35L2523.52 2663.68L2525.47 2664.76Z" fill="#D8C18D"/>
<path d="M2872.43 1853.28L2897.05 1819.3L2894.45 1817.87L2870.48 1852.21L2872.43 1853.28Z" fill="#D8C18D"/>
<path d="M2758.92 2093.26L2783.54 2059.29L2780.94 2057.86L2756.97 2092.19L2758.92 2093.26Z" fill="#D8C18D"/>
<path d="M2949.73 1829.58L2974.36 1795.61L2971.76 1794.18L2947.79 1828.51L2949.73 1829.58Z" fill="#D8C18D"/>
<path d="M2768.17 2011.94L2792.8 1977.96L2790.2 1976.53L2766.23 2010.87L2768.17 2011.94Z" fill="#D8C18D"/>
<path d="M2567.13 2275.75L2591.76 2241.78L2589.16 2240.35L2565.19 2274.68L2567.13 2275.75Z" fill="#D8C18D"/>
<path d="M2427.02 2478.05L2451.64 2444.07L2449.05 2442.64L2425.07 2476.98L2427.02 2478.05Z" fill="#D8C18D"/>
<path d="M2297.04 2723.37L2321.67 2689.39L2319.07 2687.96L2295.1 2722.3L2297.04 2723.37Z" fill="#D8C18D"/>
<path d="M2299.73 2635.55L2324.35 2601.57L2321.76 2600.14L2297.78 2634.48L2299.73 2635.55Z" fill="#D8C18D"/>
<path d="M2691.73 2005.14L2703.3 1965.99L2699.81 1967.16L2689.11 2006.01L2691.73 2005.14Z" fill="#D8C18D"/>
<path d="M2701.36 1941.46L2712.94 1902.31L2709.44 1903.48L2698.74 1942.33L2701.36 1941.46Z" fill="#D8C18D"/>
<path d="M2607.65 2157.77L2619.22 2118.62L2615.72 2119.79L2605.02 2158.65L2607.65 2157.77Z" fill="#D8C18D"/>
<path d="M2650.73 2097.95L2662.3 2058.8L2658.8 2059.97L2648.1 2098.82L2650.73 2097.95Z" fill="#D8C18D"/>
<path d="M2564.73 2223.44L2576.3 2184.3L2572.8 2185.46L2562.1 2224.32L2564.73 2223.44Z" fill="#D8C18D"/>
<path d="M2481.05 2572.03L2492.62 2532.89L2489.13 2534.05L2478.43 2572.91L2481.05 2572.03Z" fill="#D8C18D"/>
<path fill-rule="evenodd" clip-rule="evenodd" d="M308.104 2055.37C375.043 2226.94 898.005 2189.28 918.924 2323.19L864.536 2511.49C1416.31 2673.37 1736.95 2665.08 2324.65 2511.49L2257.71 2327.37C2362.3 2164.17 2751.39 2243.68 2881.08 2047C2964.75 2134.88 2885.26 2298.08 2902 2398.51L3107 2561.71C3008.55 2649.09 2946.26 2686.88 2822.51 2737.46L2847.61 2863C2412.49 3146.94 2141.3 3203.79 1630.15 3201.96C989.452 3189.87 694.891 3127.32 341.573 2867.19C340.965 2815.05 341.59 2785.8 370.859 2733.28C238.784 2680.67 166.036 2650.14 78 2561.71C167.619 2509.83 221.855 2487.73 283.001 2385.95C266.144 2199.84 254.414 2090.6 308.104 2055.37ZM341.573 2373.4C322.645 2283.25 319.876 2237.09 324.838 2159.98C454.533 2264.6 676.269 2247.86 835.25 2310.63C882.105 2358 875.277 2370.69 814.331 2373.4C708.171 2336.24 652.406 2331.08 554.942 2331.55C530.083 2322.99 410.719 2560.64 387.594 2683.06C290.081 2640.1 243.058 2613.32 170.041 2561.71C269.779 2512.86 303.427 2468.61 341.573 2373.4ZM805.964 2503.12L835.25 2427.8C730.608 2401.25 677.727 2395.31 584.228 2385.95C649.764 2448.06 696.711 2473.65 805.964 2503.12ZM400.145 2833.71C443.957 2657.34 479.924 2573.06 554.942 2436.17C931.708 2639.86 1180.68 2660.08 1630.15 2683.06C2038.92 2636.12 2278.51 2641.78 2638.43 2444.54C2720.54 2593.59 2742.15 2684.36 2780.67 2846.26C2373.41 3090.69 2116.81 3142.33 1630.15 3147.56C1007.37 3172.51 659.535 3013.65 400.145 2833.71ZM2353.93 2427.8C2358.31 2460.4 2364.16 2475.81 2379.04 2498.94C2500.65 2465.05 2532.95 2433.88 2600.77 2381.77C2503.08 2392.28 2448.45 2399.71 2353.93 2427.8ZM2860.16 2155.8C2717.92 2256.23 2391.59 2238.8 2324.65 2344.11C2305.92 2385.01 2475.26 2335.74 2621.69 2335.74C2682.49 2369.98 2722.24 2478.1 2793.22 2674.69C2855.54 2669.92 2911.64 2635.19 3019.14 2561.71C2948.93 2527.01 2909.91 2504.48 2847.61 2398.51C2822.51 2306.45 2867.47 2246.18 2860.16 2155.8Z" fill="black"/>
<path d="M554.942 2436.17C479.924 2573.06 443.957 2657.34 400.145 2833.71C659.535 3013.65 1007.37 3172.51 1630.15 3147.56C2116.81 3142.33 2373.41 3090.69 2780.67 2846.26C2742.15 2684.36 2720.54 2593.59 2638.43 2444.54C2278.51 2641.78 2038.92 2636.12 1630.15 2683.06C1180.68 2660.08 931.708 2639.86 554.942 2436.17Z" fill="#B42829"/>
<path d="M835.25 2427.8L805.964 2503.12C696.711 2473.65 649.764 2448.06 584.228 2385.95C677.727 2395.31 730.608 2401.25 835.25 2427.8Z" fill="#B42829"/>
<path d="M324.838 2159.98C319.876 2237.09 322.645 2283.25 341.573 2373.4C303.427 2468.61 269.779 2512.86 170.041 2561.71C243.058 2613.32 290.081 2640.1 387.594 2683.06C410.719 2560.64 530.083 2322.99 554.942 2331.55C652.406 2331.08 708.171 2336.24 814.331 2373.4C875.277 2370.69 882.105 2358 835.25 2310.63C676.269 2247.86 454.533 2264.6 324.838 2159.98Z" fill="#B42829"/>
<path d="M2324.65 2344.11C2391.59 2238.8 2717.92 2256.23 2860.16 2155.8C2867.47 2246.18 2822.51 2306.45 2847.61 2398.51C2909.91 2504.48 2948.93 2527.01 3019.14 2561.71C2911.64 2635.19 2855.54 2669.92 2793.22 2674.69C2722.24 2478.1 2682.49 2369.98 2621.69 2335.74C2475.26 2335.74 2305.92 2385.01 2324.65 2344.11Z" fill="#B42829"/>
<path d="M2379.04 2498.94C2364.16 2475.81 2358.31 2460.4 2353.93 2427.8C2448.45 2399.71 2503.08 2392.28 2600.77 2381.77C2532.95 2433.88 2500.65 2465.05 2379.04 2498.94Z" fill="#B42829"/>
<path d="M1027.8 2743.6V2774.8C1024.6 2787.33 1021.93 2798.4 1019.8 2808C1017.93 2817.33 1016.47 2826 1015.4 2834C1014.33 2842 1013.67 2849.6 1013.4 2856.8C1013.4 2864 1013.67 2871.6 1014.2 2879.6C1014.73 2889.2 1014.47 2897.87 1013.4 2905.6C1012.33 2913.33 1011.27 2920.4 1010.2 2926.8C1009.4 2933.2 1008.87 2939.33 1008.6 2945.2C1008.33 2950.8 1009.13 2956.53 1011 2962.4L1013 2972.4L1006.2 2984L953 2994.4L938.6 2985.2C938.867 2984.13 940.333 2982.67 943 2980.8C945.933 2978.67 947.4 2976.53 947.4 2974.4C947.4 2971.2 947.4 2968.93 947.4 2967.6C947.4 2966.27 947.133 2964.13 946.6 2961.2C946.067 2959.87 946.733 2955.6 948.6 2948.4C950.733 2940.93 951.667 2930.8 951.4 2918C951.4 2911.6 951.4 2906.93 951.4 2904C951.667 2900.8 951.8 2898.8 951.8 2898C952.067 2896.93 952.067 2896.53 951.8 2896.8C951.8 2897.07 951.533 2897.2 951 2897.2C951.267 2895.07 951.667 2892.67 952.2 2890C952.733 2887.07 953.267 2884.13 953.8 2881.2C954.333 2879.6 954.733 2878 955 2876.4C955.267 2874.8 955.533 2873.07 955.8 2871.2C956.6 2870.4 956.467 2868.8 955.4 2866.4C954.6 2864 953.667 2862.13 952.6 2860.8C951.8 2859.47 951.4 2858.93 951.4 2859.2C951.4 2859.2 951.667 2859.2 952.2 2859.2C952.733 2859.2 953.533 2858.67 954.6 2857.6C955.667 2856.27 956.733 2853.73 957.8 2850L955 2832.4C955.533 2832.4 955.933 2832.53 956.2 2832.8C956.733 2833.07 957 2832.93 957 2832.4C957 2831.6 956.867 2830.13 956.6 2828C956.333 2825.87 955.8 2822.53 955 2818C953.933 2809.2 953.8 2804 954.6 2802.4C955.4 2800.53 956.6 2799.73 958.2 2800C959.533 2798.93 960.6 2797.87 961.4 2796.8C962.467 2795.73 963.133 2794.4 963.4 2792.8C963.667 2791.2 963.533 2789.07 963 2786.4C962.733 2783.47 961.933 2779.73 960.6 2775.2C959.267 2771.2 959.4 2767.2 961 2763.2C962.6 2759.2 963.533 2755.2 963.8 2751.2L972.2 2742.8C975.933 2742.8 980.867 2742.8 987 2742.8C993.133 2742.53 998.467 2742.27 1003 2742C1012.6 2741.2 1019.53 2740.8 1023.8 2740.8L1027.8 2743.6Z" fill="black"/>
<path d="M1238.24 2840.4C1235.84 2840.4 1232.5 2840.4 1228.24 2840.4C1223.97 2840.4 1219.3 2840.4 1214.24 2840.4C1209.44 2840.13 1204.64 2840 1199.84 2840C1195.04 2840 1190.9 2840 1187.44 2840L1189.04 2856.4C1189.04 2857.2 1188.64 2858.27 1187.84 2859.6C1187.04 2860.93 1186.1 2862.4 1185.04 2864C1183.97 2865.6 1182.9 2867.2 1181.84 2868.8C1180.77 2870.4 1180.1 2871.6 1179.84 2872.4C1179.3 2873.47 1179.44 2875.87 1180.24 2879.6C1181.3 2883.33 1181.17 2886.67 1179.84 2889.6C1180.37 2890.93 1180.5 2892.67 1180.24 2894.8C1180.24 2896.93 1179.97 2899.07 1179.44 2901.2C1179.17 2903.33 1178.77 2905.33 1178.24 2907.2C1177.97 2909.07 1177.84 2910.4 1177.84 2911.2C1177.84 2912 1177.84 2912.67 1177.84 2913.2C1178.1 2913.47 1178.24 2913.87 1178.24 2914.4C1178.5 2914.93 1178.77 2915.87 1179.04 2917.2C1179.57 2918.27 1180.1 2920.13 1180.64 2922.8C1180.9 2923.87 1180.9 2925.6 1180.64 2928C1180.64 2930.4 1180.37 2934.8 1179.84 2941.2C1179.57 2943.87 1179.3 2945.6 1179.04 2946.4C1178.77 2946.93 1178.5 2947.47 1178.24 2948C1177.97 2948.53 1177.7 2949.47 1177.44 2950.8C1177.44 2951.87 1177.44 2954.27 1177.44 2958L1172.24 2976.8L1173.44 2981.2L1166.64 3005.2C1162.9 3005.73 1159.3 3006.13 1155.84 3006.4C1152.37 3006.93 1148.9 3007.47 1145.44 3008C1139.84 3008.8 1134.37 3009.47 1129.04 3010C1123.97 3010.53 1120.37 3010.8 1118.24 3010.8C1116.1 3010.8 1115.17 3008.4 1115.44 3003.6C1115.7 2998.8 1116.5 2993.47 1117.84 2987.6C1119.17 2980.13 1121.17 2972.4 1123.84 2964.4C1123.57 2963.33 1123.44 2962.67 1123.44 2962.4C1123.7 2961.87 1123.84 2961.2 1123.84 2960.4C1124.1 2959.6 1124.37 2958.27 1124.64 2956.4C1125.17 2954.53 1125.57 2951.47 1125.84 2947.2C1126.64 2938.4 1127.17 2932 1127.44 2928C1127.97 2923.73 1128.24 2920.53 1128.24 2918.4C1128.24 2917.6 1128.1 2916.27 1127.84 2914.4C1127.84 2912.53 1127.57 2911.07 1127.04 2910L1128.64 2875.6C1131.3 2874 1132.24 2872.27 1131.44 2870.4C1130.64 2868.53 1130.64 2867.07 1131.44 2866C1132.24 2863.33 1132.9 2860.53 1133.44 2857.6C1134.24 2854.67 1135.17 2849.2 1136.24 2841.2L1127.84 2839.6C1126.24 2839.07 1124.64 2838.93 1123.04 2839.2C1119.57 2839.47 1114.1 2841.73 1106.64 2846L1093.04 2836C1090.64 2833.87 1089.97 2831.2 1091.04 2828C1092.37 2824.53 1094.5 2821.33 1097.44 2818.4L1126.24 2814.4L1137.44 2813.6C1139.3 2815.73 1140.9 2816.93 1142.24 2817.2C1143.57 2817.2 1144.64 2816.8 1145.44 2816C1146.5 2815.2 1147.3 2814 1147.84 2812.4C1148.37 2810.8 1148.77 2809.33 1149.04 2808C1149.04 2807.47 1149.04 2807.07 1149.04 2806.8C1149.3 2806.27 1149.44 2805.87 1149.44 2805.6V2804.8C1149.44 2804.53 1149.3 2803.33 1149.04 2801.2C1148.77 2799.07 1147.57 2797.33 1145.44 2796C1144.64 2795.47 1143.3 2794.4 1141.44 2792.8C1139.57 2791.2 1138.64 2790.27 1138.64 2790C1139.44 2787.87 1139.84 2785.47 1139.84 2782.8C1140.1 2780.13 1140.24 2777.33 1140.24 2774.4L1145.84 2763.6C1146.37 2762.8 1147.17 2761.6 1148.24 2760C1149.3 2758.4 1150.9 2756.53 1153.04 2754.4L1159.44 2748.4L1184.24 2734.4L1229.04 2735.6L1249.84 2751.6L1249.44 2758L1239.84 2766.8L1235.04 2766.4L1226.24 2755.6C1222.77 2753.2 1219.3 2752 1215.84 2752C1212.37 2751.73 1209.04 2752.4 1205.84 2754C1202.9 2755.6 1200.1 2757.87 1197.44 2760.8C1194.77 2763.73 1192.37 2767.07 1190.24 2770.8V2772.4C1190.24 2774.8 1190.37 2776.4 1190.64 2777.2C1190.9 2781.2 1191.3 2783.47 1191.84 2784C1191.84 2787.2 1191.04 2790.8 1189.44 2794.8C1188.1 2798.8 1187.57 2804.8 1187.84 2812.8H1220.24C1223.97 2814.4 1231.7 2814.93 1243.44 2814.4C1245.57 2814.4 1247.3 2814.4 1248.64 2814.4C1250.24 2814.13 1251.7 2814 1253.04 2814L1256.24 2822L1250.24 2834L1238.24 2840.4Z" fill="black"/>
<path d="M1469.05 2826L1461.45 2882L1462.65 2904.8L1460.65 2928.8L1454.65 2952L1431.45 2986.4C1421.31 2994.13 1410.38 2999.33 1398.65 3002C1386.91 3004.67 1374.25 3005.33 1360.65 3004L1341.85 2995.6H1331.05C1326.78 2995.6 1319.31 2991.47 1308.65 2983.2C1304.11 2979.73 1300.25 2976.67 1297.05 2974C1296.25 2973.47 1295.45 2972.93 1294.65 2972.4C1294.11 2971.87 1293.58 2971.33 1293.05 2970.8C1293.05 2968.67 1292.78 2966 1292.25 2962.8C1291.71 2959.6 1290.91 2955.6 1289.85 2950.8C1289.05 2946 1288.25 2942.27 1287.45 2939.6C1286.91 2936.67 1286.51 2934.53 1286.25 2933.2C1286.25 2932.4 1286.38 2931.47 1286.65 2930.4C1286.91 2929.07 1286.91 2927.87 1286.65 2926.8C1286.65 2925.47 1286.25 2924.4 1285.45 2923.6C1284.65 2922.8 1283.18 2922.4 1281.05 2922.4L1282.25 2900C1283.31 2897.07 1283.85 2895.07 1283.85 2894C1283.85 2892.93 1283.71 2892 1283.45 2891.2C1283.18 2890.4 1283.05 2889.33 1283.05 2888C1283.05 2886.67 1283.71 2884.4 1285.05 2881.2L1287.05 2866.4C1289.45 2867.2 1291.31 2866.53 1292.65 2864.4C1294.25 2862.27 1295.18 2859.73 1295.45 2856.8C1295.98 2853.6 1295.85 2850.8 1295.05 2848.4C1294.25 2845.73 1292.65 2844.4 1290.25 2844.4C1289.18 2842.27 1288.51 2840 1288.25 2837.6C1287.98 2834.93 1288.11 2833.6 1288.65 2833.6C1288.65 2832 1288.51 2830.13 1288.25 2828C1287.98 2825.87 1287.85 2821.87 1287.85 2816L1299.45 2806.4C1302.65 2806.67 1306.65 2806.93 1311.45 2807.2C1316.25 2807.2 1321.18 2807.2 1326.25 2807.2C1331.58 2807.2 1336.65 2807.33 1341.45 2807.6C1346.25 2807.6 1350.11 2807.87 1353.05 2808.4L1356.25 2813.6C1354.65 2818.93 1353.85 2822.8 1353.85 2825.2C1353.58 2826.8 1353.58 2828.13 1353.85 2829.2L1353.05 2847.6C1352.25 2849.2 1351.45 2851.6 1350.65 2854.8C1350.11 2857.73 1349.58 2861.07 1349.05 2864.8C1348.78 2868.27 1348.51 2871.87 1348.25 2875.6C1347.98 2879.33 1347.85 2882.53 1347.85 2885.2C1346.51 2889.73 1345.18 2894.53 1343.85 2899.6C1342.51 2904.4 1342.38 2908.93 1343.45 2913.2C1343.98 2914.53 1344.25 2916.27 1344.25 2918.4C1344.51 2920.27 1345.45 2923.87 1347.05 2929.2C1346.51 2930.8 1346.11 2932.8 1345.85 2935.2C1345.58 2937.6 1345.45 2940.13 1345.45 2942.8C1345.71 2945.2 1346.25 2947.73 1347.05 2950.4C1348.11 2952.8 1349.58 2954.8 1351.45 2956.4L1366.65 2968.4L1390.65 2970.4C1393.31 2973.87 1395.71 2975.6 1397.85 2975.6C1399.98 2975.33 1401.71 2972.53 1403.05 2967.2L1417.05 2958.8L1428.25 2929.2L1428.65 2910.8V2891.2C1433.98 2887.47 1436.91 2883.47 1437.45 2879.2C1437.98 2874.93 1435.18 2869.87 1429.05 2864L1427.85 2818L1435.85 2810.8L1460.25 2812.8L1469.05 2826Z" fill="black"/>
<path d="M1671.41 2915.2C1668.75 2917.07 1665.01 2918 1660.21 2918C1656.48 2918 1653.28 2918 1650.61 2918C1648.21 2918 1646.21 2917.87 1644.61 2917.6L1633.41 2924.8C1632.61 2925.07 1631.15 2925.47 1629.01 2926C1627.68 2926.53 1625.95 2927.07 1623.81 2927.6C1621.95 2928.13 1619.68 2928.93 1617.01 2930C1611.68 2931.33 1606.75 2933.07 1602.21 2935.2C1597.95 2937.33 1593.95 2939.6 1590.21 2942C1588.35 2944.13 1586.08 2945.47 1583.41 2946C1580.75 2946.27 1579.55 2946.93 1579.81 2948C1578.48 2951.73 1577.41 2955.07 1576.61 2958C1575.81 2960.93 1575.41 2964 1575.41 2967.2C1575.41 2970.93 1575.41 2974.27 1575.41 2977.2C1575.41 2980.13 1575.15 2982.4 1574.61 2984L1620.21 2966.8C1623.15 2967.33 1625.41 2967.6 1627.01 2967.6C1628.61 2967.6 1630.08 2967.6 1631.41 2967.6C1632.75 2967.87 1634.21 2967.6 1635.81 2966.8C1637.41 2965.73 1639.68 2964.53 1642.61 2963.2L1651.81 2963.6L1677.01 2971.2L1681.01 2976.8C1681.55 2979.2 1682.61 2982.67 1684.21 2987.2C1686.08 2991.47 1687.41 2995.73 1688.21 3000C1688.75 3002.13 1689.28 3004.53 1689.81 3007.2C1690.61 3010.13 1691.55 3013.47 1692.61 3017.2C1694.48 3024.67 1696.08 3028.8 1697.41 3029.6L1693.81 3040L1697.41 3050L1695.41 3057.6L1673.81 3074C1672.75 3073.73 1671.81 3073.47 1671.01 3073.2C1670.21 3072.93 1669.41 3072.67 1668.61 3072.4C1667.28 3071.87 1665.95 3071.47 1664.61 3071.2C1663.28 3070.93 1662.21 3070.8 1661.41 3070.8L1630.21 3085.2C1629.15 3084.93 1627.95 3084.67 1626.61 3084.4C1625.55 3084.4 1624.35 3084.13 1623.01 3083.6C1620.61 3083.07 1617.41 3082.4 1613.41 3081.6C1609.68 3081.07 1605.28 3080.27 1600.21 3079.2C1595.15 3078.13 1589.28 3077.07 1582.61 3076C1576.21 3074.93 1569.95 3074 1563.81 3073.2C1557.95 3072.4 1552.48 3071.87 1547.41 3071.6C1542.61 3071.33 1539.28 3071.33 1537.41 3071.6L1519.41 3068L1515.81 3064.8L1509.41 3038.8L1511.41 3030.8C1517.81 3027.6 1523.28 3023.07 1527.81 3017.2C1532.35 3011.6 1534.88 3004.53 1535.41 2996C1535.68 2991.47 1535.81 2987.73 1535.81 2984.8C1535.81 2981.87 1535.81 2979.47 1535.81 2977.6C1535.81 2975.73 1535.68 2974.27 1535.41 2973.2C1535.41 2972.13 1535.41 2970.93 1535.41 2969.6L1538.61 2951.6L1544.61 2946.4L1546.61 2926C1545.81 2924.93 1544.61 2923.33 1543.01 2921.2C1541.68 2918.8 1540.08 2916.27 1538.21 2913.6C1536.35 2910.93 1534.48 2908.4 1532.61 2906C1531.01 2903.33 1529.55 2901.07 1528.21 2899.2L1529.41 2878.4L1547.81 2840.4L1558.21 2825.2L1597.41 2807.2L1640.21 2824.4L1650.21 2819.6C1651.01 2819.6 1651.81 2819.47 1652.61 2819.2C1653.41 2818.93 1654.48 2818.8 1655.81 2818.8C1657.15 2818.53 1658.88 2818.13 1661.01 2817.6C1665.01 2817.07 1668.48 2815.6 1671.41 2813.2C1674.35 2810.8 1677.15 2807.6 1679.81 2803.6C1681.95 2806.27 1683.95 2808.67 1685.81 2810.8C1687.68 2812.93 1689.41 2814.93 1691.01 2816.8C1692.08 2817.87 1693.01 2818.93 1693.81 2820C1694.61 2820.8 1695.41 2821.6 1696.21 2822.4V2843.2L1692.21 2847.2L1664.21 2853.2L1667.81 2866L1669.01 2884.4L1675.81 2902L1671.41 2915.2ZM1577.41 2912.4L1617.41 2902.8C1619.28 2900.93 1620.61 2898.13 1621.41 2894.4C1622.48 2890.4 1621.15 2886.53 1617.41 2882.8L1607.01 2864.4L1595.01 2840.4H1580.61L1579.81 2854.8C1572.88 2853.47 1568.35 2856.67 1566.21 2864.4C1564.88 2868.4 1563.81 2871.73 1563.01 2874.4C1562.21 2876.8 1561.68 2878.93 1561.41 2880.8L1577.41 2912.4ZM1569.01 3049.2L1609.41 3054.8C1624.35 3056.13 1634.08 3056.13 1638.61 3054.8C1638.88 3053.47 1639.01 3052 1639.01 3050.4C1639.28 3049.07 1639.28 3047.73 1639.01 3046.4C1639.01 3043.73 1637.81 3040.53 1635.41 3036.8C1633.01 3033.33 1631.81 3029.87 1631.81 3026.4C1631.81 3025.07 1632.21 3024.27 1633.01 3024C1633.81 3024 1633.95 3023.33 1633.41 3022C1633.15 3020.93 1632.88 3019.07 1632.61 3016.4C1632.61 3013.73 1632.48 3010.93 1632.21 3008C1631.95 3005.07 1631.55 3002.27 1631.01 2999.6C1630.75 2996.93 1630.21 2995.2 1629.41 2994.4C1627.81 2994.93 1625.15 2995.87 1621.41 2997.2C1617.95 2998.53 1614.08 2999.87 1609.81 3001.2C1605.81 3002.53 1601.95 3003.87 1598.21 3005.2C1594.48 3006.27 1591.81 3006.93 1590.21 3007.2C1587.81 3012 1584.61 3014.93 1580.61 3016C1576.88 3017.33 1572.75 3019.07 1568.21 3021.2C1569.01 3023.33 1568.35 3025.47 1566.21 3027.6C1564.35 3028.93 1559.41 3031.33 1551.41 3034.8C1543.15 3038.53 1538.48 3042.13 1537.41 3045.6L1569.01 3049.2Z" fill="black"/>
<path d="M1941 2975.2L1885 2982L1873.4 2963.2C1873.4 2959.73 1870.73 2959.87 1865.4 2963.6C1864.06 2964.4 1862.73 2965.73 1861.4 2967.6C1860.06 2969.47 1858.73 2971.33 1857.4 2973.2C1856.6 2974.27 1855.8 2975.33 1855 2976.4C1854.2 2977.47 1853.4 2978.67 1852.6 2980C1844.33 2986.13 1835.8 2990.13 1827 2992C1818.46 2993.87 1811.13 2992.67 1805 2988.4C1800.46 2987.87 1797.4 2986.8 1795.8 2985.2C1795 2984.67 1793.93 2983.73 1792.6 2982.4L1767 2980.8L1756.2 2975.6L1746.2 2950.4L1748.2 2942L1739.4 2906.8L1756.2 2878.8L1769.8 2866.4C1774.86 2863.73 1780.73 2861.6 1787.4 2860C1794.06 2858.4 1800.73 2857.33 1807.4 2856.8C1814.06 2856 1820.46 2855.87 1826.6 2856.4C1832.73 2856.67 1837.8 2857.47 1841.8 2858.8C1841.8 2863.07 1843.13 2865.87 1845.8 2867.2C1848.46 2868.53 1853.66 2870 1861.4 2871.6C1864.06 2867.07 1865.4 2861.6 1865.4 2855.2C1865.4 2848.53 1864.2 2841.6 1861.8 2834.4L1855.4 2814C1853.26 2813.2 1849.93 2811.87 1845.4 2810C1841.13 2807.87 1837.53 2806.13 1834.6 2804.8L1817.4 2807.6L1799.8 2811.2L1795.8 2804.8L1800.2 2794.4L1803 2788L1808.6 2786.8L1827 2783.6L1843.4 2789.2L1861.4 2786.4L1896.2 2796.8L1911 2819.2L1916.2 2882.8L1915 2902.8L1923.8 2949.6L1929 2952H1941.4L1946.6 2966L1941 2975.2ZM1794.2 2910C1792.86 2916.93 1792.86 2922.8 1794.2 2927.6C1795.8 2932.4 1798.33 2936.4 1801.8 2939.6L1807.8 2952C1812.6 2953.6 1817.13 2954.8 1821.4 2955.6C1825.66 2956.4 1830.06 2956.53 1834.6 2956C1839.4 2955.2 1844.33 2953.73 1849.4 2951.6C1854.73 2949.2 1860.86 2945.73 1867.8 2941.2L1868.6 2920.8L1861.4 2885.2C1857.66 2883.87 1854.33 2883.2 1851.4 2883.2C1848.73 2883.2 1846.06 2883.47 1843.4 2884C1840.2 2884.8 1836.46 2885.47 1832.2 2886C1827.93 2886.53 1823.53 2887.2 1819 2888C1814.73 2888.53 1810.73 2889.33 1807 2890.4C1803.53 2891.2 1801 2892.4 1799.4 2894L1794.2 2910Z" fill="black"/>
<path d="M2155.62 2856C2156.43 2860.53 2156.82 2864.53 2156.82 2868C2156.82 2871.2 2156.69 2874.4 2156.43 2877.6C2156.43 2880.53 2156.56 2883.47 2156.82 2886.4C2157.36 2889.07 2158.42 2892 2160.02 2895.2C2159.49 2896.27 2158.16 2898.4 2156.02 2901.6C2154.16 2904.53 2152.82 2907.6 2152.02 2910.8C2151.49 2913.73 2151.09 2916 2150.82 2917.6C2150.56 2919.2 2150.29 2920.27 2150.02 2920.8C2150.82 2921.33 2151.49 2922.4 2152.02 2924C2152.29 2925.33 2152.03 2927.07 2151.23 2929.2C2150.43 2931.07 2148.82 2933.73 2146.43 2937.2C2141.62 2943.6 2138.96 2949.07 2138.43 2953.6C2137.89 2957.87 2136.83 2961.2 2135.23 2963.6C2134.69 2964.13 2132.96 2964.93 2130.02 2966C2127.36 2967.07 2124.16 2968.4 2120.43 2970C2116.69 2971.33 2112.96 2972.93 2109.23 2974.8C2105.49 2976.67 2102.56 2978.53 2100.43 2980.4C2095.89 2981.2 2091.89 2982.27 2088.43 2983.6C2084.96 2984.93 2080.69 2985.87 2075.62 2986.4C2070.82 2987.47 2065.89 2988.8 2060.82 2990.4C2055.76 2991.73 2052.96 2992.4 2052.43 2992.4C2039.89 2992.4 2032.43 2992.8 2030.03 2993.6C2027.89 2994.4 2025.36 2994.8 2022.43 2994.8L1986.03 2981.6L1969.22 2957.2C1969.22 2950.8 1968.96 2945.47 1968.43 2941.2C1968.16 2936.67 1967.76 2932.8 1967.22 2929.6C1966.69 2926.13 1966.29 2922.93 1966.03 2920C1965.76 2917.07 1965.76 2913.73 1966.03 2910C1966.83 2909.2 1968.03 2907.33 1969.62 2904.4C1971.22 2901.2 1972.83 2897.6 1974.43 2893.6C1976.29 2889.6 1978.03 2885.47 1979.62 2881.2C1981.49 2876.93 1982.82 2873.33 1983.62 2870.4C1985.76 2864.27 1987.36 2858.93 1988.43 2854.4C1989.49 2849.6 1990.29 2845.33 1990.82 2841.6C1992.96 2840.27 1994.69 2838.8 1996.03 2837.2C1997.36 2835.6 1998.69 2834.27 2000.03 2833.2C2010.96 2826.8 2020.43 2821.6 2028.43 2817.6C2036.43 2813.33 2043.89 2810.67 2050.82 2809.6L2062.82 2808.8C2064.16 2809.07 2065.36 2809.33 2066.43 2809.6C2067.49 2809.87 2068.56 2810.13 2069.62 2810.4C2071.23 2810.93 2072.69 2811.33 2074.02 2811.6C2075.36 2811.6 2076.16 2811.6 2076.43 2811.6L2084.43 2824C2084.43 2826.4 2083.89 2828.4 2082.82 2830C2081.76 2831.33 2082.82 2832.27 2086.02 2832.8C2089.49 2833.6 2091.36 2834.13 2091.62 2834.4V2834.8C2095.89 2834.8 2100.29 2833.87 2104.82 2832C2109.36 2829.87 2113.89 2828.8 2118.43 2828.8C2119.49 2828.8 2121.36 2829.33 2124.02 2830.4C2126.69 2831.2 2129.49 2832.27 2132.43 2833.6C2135.36 2834.93 2138.03 2836.27 2140.43 2837.6C2143.09 2838.67 2144.96 2839.47 2146.02 2840C2145.49 2844 2145.62 2846.8 2146.43 2848.4C2147.23 2850 2148.29 2851.2 2149.62 2852C2150.96 2852.53 2152.16 2853.07 2153.23 2853.6C2154.56 2853.87 2155.36 2854.67 2155.62 2856ZM2084.02 2956C2088.02 2953.33 2091.89 2944.8 2095.62 2930.4C2097.76 2922.67 2099.49 2916.93 2100.82 2913.2C2102.43 2909.2 2103.23 2905.47 2103.23 2902C2103.23 2896.13 2101.23 2889.2 2097.23 2881.2C2095.09 2876.93 2093.49 2873.33 2092.43 2870.4C2091.36 2867.47 2090.56 2864.53 2090.02 2861.6C2087.89 2860.53 2086.69 2858.93 2086.43 2856.8C2086.43 2854.4 2085.36 2852 2083.23 2849.6C2080.56 2847.47 2078.96 2846.67 2078.43 2847.2C2077.89 2847.73 2077.36 2848 2076.82 2848H2073.23C2071.09 2848 2068.16 2848.4 2064.43 2849.2C2060.96 2850 2058.16 2851.87 2056.02 2854.8C2052.82 2858.27 2050.02 2861.07 2047.62 2863.2C2045.49 2865.07 2044.29 2866.27 2044.03 2866.8C2041.36 2871.87 2038.96 2876.27 2036.82 2880C2034.69 2883.47 2032.96 2886.27 2031.62 2888.4L2028.03 2896.8C2026.43 2900.8 2025.76 2906.13 2026.03 2912.8C2026.56 2913.87 2027.09 2916.27 2027.62 2920C2028.16 2923.47 2026.56 2927.2 2022.82 2931.2C2022.02 2932 2021.23 2933.6 2020.43 2936C2019.62 2938.13 2019.09 2940.67 2018.82 2943.6C2018.56 2946.53 2018.82 2949.47 2019.62 2952.4C2020.69 2955.33 2022.69 2957.87 2025.62 2960C2029.36 2962.67 2033.22 2965.33 2037.22 2968C2041.22 2970.4 2043.76 2971.6 2044.82 2971.6H2049.23C2050.83 2971.6 2052.29 2972 2053.62 2972.8L2084.02 2956Z" fill="black"/>
</svg>
