<svg width="3000" height="3000" viewBox="0 0 3000 3000" fill="none" xmlns="http://www.w3.org/2000/svg">
<defs>
<linearGradient id="paint0_linear_2302_18045" x1="1500" y1="0" x2="1500" y2="4217" gradientUnits="userSpaceOnUse">
<stop offset="0.134689" stop-color="#B32428"/>
<stop offset="0.418582" stop-color="#F2DB60"/>
</linearGradient>
</defs>
<path fill-rule="evenodd" clip-rule="evenodd" d="M1500 3000C2328.43 3000 3000 2328.43 3000 1500C3000 671.573 2328.43 0 1500 0C671.573 0 0 671.573 0 1500C0 2328.43 671.573 3000 1500 3000ZM312.5 771C149.7 983 104 1345.33 101.5 1500C101.5 1934.81 323.5 2284.5 434.5 2405C516.167 2510.33 765.8 2745.5 1111 2843.5C1456.2 2941.5 1768.83 2884.33 1882 2843.5C1920.5 2841.17 2056.6 2799.8 2293 2653C2529.4 2506.2 2699.5 2224.83 2755 2102.5C2798 2025.5 2887.4 1797.2 2901 1500C2914.6 1202.8 2768.67 890.167 2694 771C2651 711 2537.1 562.4 2425.5 448C2313.9 333.6 2084.67 223.667 1984 183C1935.33 166 1770.4 125.9 1500 101.5C1229.6 77.1 896.667 229.667 764 309C671.167 361 450.9 526.2 312.5 771Z" fill="url(#paint0_linear_2302_18045)"/>
<path d="M120.41 1590.17C119.947 1598.25 120.275 1605.5 121.114 1611.53L137.477 1689.14C146.301 1709.56 161.903 1742.06 179.02 1770.65C194.108 1795.84 210.373 1818 224.212 1826.15C228.954 1828.06 234.694 1829.89 241.343 1831.47C277.166 1836.21 337.242 1817.11 366.988 1805.07C399.44 1761.93 457.314 1652.1 429.193 1557.96C395.914 1446.54 131.044 1469.07 120.41 1590.17Z" fill="#8B725A"/>
<path d="M196.497 2425.21L231.832 2577.36L233.625 2632.06L247.63 2640.77L303.121 2632.58L318.019 2610.71L358.855 2592.82L350.101 2533.52L342.534 2482.27L337.598 2448.84C343.106 2435.63 351.289 2401.65 339.961 2371.42C328.632 2341.19 325.063 2312.73 326.577 2303.61L321.995 2249.74C258.316 2258.04 194.508 2268.41 190.296 2269.03C183.817 2269.99 174.263 2245.89 170.295 2233.72L190.158 2334.53L196.497 2425.21Z" fill="#8B725A"/>
<path d="M493.422 2194.37C482.641 2201.62 459.066 2221.16 451.009 2241.32L470.55 2323.85C463.503 2337.02 450.119 2368.15 452.953 2387.35C455.787 2406.54 464.669 2433.49 468.756 2444.56L490.254 2507.14L491.077 2512.71L498.157 2560.67L439.898 2612.38L528.683 2599.28L592.872 2589.8L619.21 2575.13L609.094 2458.87C615.056 2436.98 624.785 2391.19 616.007 2383.21C613.702 2367.6 604.227 2346.33 599.778 2337.65L589.5 2268.03L557.25 2155.46C550.601 2170.27 514.749 2186.67 493.422 2194.37Z" fill="#8B725A"/>
<path d="M608.368 1789.65C581.585 1766.01 531.318 1761.14 509.532 1761.66L483.369 1879.24L489.369 1969.7C497.308 1997.18 510.898 2057.81 501.743 2080.51C490.833 2087.76 461.365 2091.43 436.474 2093.04C420.01 2094.46 400.589 2124.01 392.937 2138.6C364.523 2144.06 301.655 2153.48 277.488 2147.57C253.322 2141.65 203.139 2147.04 181.069 2150.48L161.408 2164.7L165.34 2191.34L162.041 2191.82L170.295 2233.72C174.263 2245.89 183.817 2269.99 190.296 2269.03C194.508 2268.41 258.316 2258.04 321.995 2249.74C380.737 2242.08 439.368 2236.18 451.009 2241.32C459.066 2221.16 482.641 2201.62 493.422 2194.37C514.749 2186.67 550.601 2170.27 557.25 2155.46C559.007 2151.54 558.724 2147.73 555.592 2144.23C556.19 2110.08 576.445 2030.14 586.498 1994.43L641.556 1898.49C633.959 1848.7 622.982 1802.54 608.368 1789.65Z" fill="#8B725A"/>
<path d="M145.844 2082.12C146.197 2094.2 148.161 2121.07 153.203 2131.96C152.203 2138.91 162.872 2144.56 172.416 2147.93C172.575 2147.98 172.734 2148.04 172.893 2148.09C179.266 2150 203.863 2146.31 256.085 2116.77C309.716 2086.44 380.814 2089.02 409.659 2094.1C416.742 2094.02 426.22 2093.71 436.474 2093.04C461.365 2091.43 490.833 2087.76 501.743 2080.51C510.898 2057.81 497.308 1997.18 489.369 1969.7C444.5 1979.27 377.964 1992.63 323.687 2001.7C268.815 2010.87 226.473 2015.66 231.713 2007.74C242.135 1991.97 282.623 1966.45 301.565 1955.66L266.999 1835.71C259.456 1834.94 252.539 1833.87 246.309 1832.58C227.347 1840.32 177.81 1969.25 155.411 2032.75L145.844 2082.12Z" fill="#8B725A"/>
<path d="M274.077 2906.05L377.653 2915.28L367.53 2846.72L397.328 2747.54L298.433 2752.37L256.532 2831.85L267.137 2903.68L274.077 2906.05Z" fill="#8B725A"/>
<path d="M377.653 2915.28L581.071 2902.23L572.095 2816.52L556.972 2738.99L549.473 2740.1L397.328 2747.54L367.53 2846.72L377.653 2915.28Z" fill="#8B725A"/>
<path d="M581.071 2902.23L708.671 2878L725.058 2870.67L711.363 2777.9L671.252 2722.12L556.972 2738.99L572.095 2816.52L581.071 2902.23Z" fill="#8B725A"/>
<path d="M452.797 1445.88C418.494 1432.89 325.465 1416.29 227.775 1453.77C146.002 1485.15 122.784 1548.63 120.41 1590.17C131.044 1469.07 395.914 1446.54 429.193 1557.96C457.314 1652.1 399.44 1761.93 366.988 1805.07L509.532 1761.66L510.017 1740.04L529.948 1702.87C544.557 1683.38 546.387 1653.34 544.659 1636.3C545.963 1629.91 547.286 1608.43 542.147 1573.62C536.91 1514.89 480.398 1463.99 452.797 1445.88Z" fill="#4C463A"/>
<path d="M509.532 1761.66L366.988 1805.07C337.242 1817.11 277.166 1836.21 241.343 1831.47C242.946 1831.86 244.601 1832.22 246.309 1832.58C252.539 1833.87 259.456 1834.94 266.999 1835.71C322.274 1841.3 411.142 1830.04 509.532 1761.66Z" fill="#4C463A"/>
<path d="M301.565 1955.66C282.623 1966.45 242.135 1991.97 231.713 2007.74C226.473 2015.66 268.815 2010.87 323.687 2001.7L301.565 1955.66Z" fill="#4C463A"/>
<path d="M409.659 2094.1C380.814 2089.02 309.716 2086.44 256.085 2116.77C203.863 2146.31 179.266 2150 172.893 2148.09C175.884 2149.13 178.742 2149.93 181.069 2150.48C203.139 2147.04 253.322 2141.65 277.488 2147.57C301.655 2153.48 364.523 2144.06 392.937 2138.6C400.589 2124.01 420.01 2094.46 436.474 2093.04C426.22 2093.71 416.742 2094.02 409.659 2094.1Z" fill="#4C463A"/>
<path d="M763.031 2476.03L704.841 2484.62L612.52 2498.25L619.21 2575.13L592.872 2589.8L681.656 2576.69C701.063 2566.28 748.702 2540.06 784.009 2518.47C798.724 2512.28 803.931 2506.15 803.41 2500.51C802.393 2489.52 779.605 2480.35 763.031 2476.03Z" fill="#4C463A"/>
<path d="M439.898 2612.38L498.157 2560.67L491.077 2512.71L411.382 2524.48L350.101 2533.52L358.855 2592.82L318.019 2610.71L303.121 2632.58L439.898 2612.38Z" fill="#4C463A"/>
<path d="M231.832 2577.36L191.61 2605.93L233.625 2632.06L231.832 2577.36Z" fill="#4C463A"/>
<path d="M751.601 2689.24L671.252 2722.12L711.363 2777.9L725.058 2870.67L829.133 2824.11L865.382 2789.39L850.542 2715.86L771.01 2662.93L751.601 2689.24Z" fill="#4C463A"/>
<path d="M298.433 2752.37L282.737 2739.33C258.845 2763.69 212.797 2816.7 219.732 2833.78C216.163 2851.12 227.684 2880.03 233.891 2892.32L267.137 2903.68L256.532 2831.85L298.433 2752.37Z" fill="#4C463A"/>
<path d="M137.477 1689.14C140.89 1712.26 151.308 1760.82 165.677 1770.12C171.526 1770.62 176.305 1770.69 179.02 1770.65C161.903 1742.06 146.301 1709.56 137.477 1689.14Z" fill="#4C463A"/>
<path d="M489.369 1969.7L483.369 1879.24L509.532 1761.66C411.142 1830.04 322.274 1841.3 266.999 1835.71L301.565 1955.66L323.687 2001.7C377.964 1992.63 444.5 1979.27 489.369 1969.7Z" fill="#4C463A"/>
<path d="M653.654 2013.35C651.865 1983.94 647.882 1939.96 641.556 1898.49L586.498 1994.43C576.445 2030.14 556.19 2110.08 555.592 2144.23C558.724 2147.73 559.007 2151.54 557.25 2155.46L658.011 2231.77L653.654 2013.35Z" fill="#4C463A"/>
<path d="M470.55 2323.85L451.009 2241.32C439.368 2236.18 380.737 2242.08 321.995 2249.74L326.577 2303.61C325.063 2312.73 328.632 2341.19 339.961 2371.42C351.289 2401.65 343.106 2435.63 337.598 2448.84L342.534 2482.27C357.473 2491.68 383.169 2507.48 398.329 2515.59C401.502 2517.28 409.327 2523.58 411.382 2524.48L491.077 2512.71L490.254 2507.14L468.756 2444.56C464.669 2433.49 455.787 2406.54 452.953 2387.35C450.119 2368.15 463.503 2337.02 470.55 2323.85Z" fill="#4C463A"/>
<path d="M729.498 2302.87C725.48 2275.65 680.166 2244.13 658.011 2231.77L557.25 2155.46L589.5 2268.03L599.778 2337.65C604.227 2346.33 613.702 2367.6 616.007 2383.21C624.785 2391.19 615.056 2436.98 609.094 2458.87L612.52 2498.25L704.841 2484.62L759.327 2421.87C754.967 2392.34 742.896 2327.19 729.498 2302.87Z" fill="#4C463A"/>
<path d="M528.683 2599.28L439.898 2612.38L303.121 2632.58L247.63 2640.77L233.625 2632.06L191.61 2605.93L195.36 2668.7L237.299 2701.58L282.737 2739.33L298.433 2752.37L397.328 2747.54L549.473 2740.1L528.683 2599.28Z" fill="#3E352B"/>
<path d="M681.656 2576.69L592.872 2589.8L528.683 2599.28L549.473 2740.1L556.972 2738.99L671.252 2722.12L691.078 2640.51L681.656 2576.69Z" fill="#3E352B"/>
<path d="M784.009 2518.47C748.702 2540.06 701.063 2566.28 681.656 2576.69L691.078 2640.51L671.252 2722.12L751.601 2689.24L771.01 2662.93L820.632 2581.77C816.986 2554.38 808.437 2499.77 803.41 2500.51C803.931 2506.15 798.724 2512.28 784.009 2518.47Z" fill="#3E352B"/>
<path d="M2219.36 2102.76L706.39 2361.19C706.39 2361.19 705.118 2385.84 712.737 2394.86C720.355 2403.89 2210.26 2138.18 2218.3 2128.53C2226.35 2118.87 2219.36 2102.76 2219.36 2102.76Z" fill="#BC896E"/>
<path d="M706.39 2361.19L2219.36 2102.76C2219.36 2102.76 2236.67 2071.6 2240 2060.51C2243.33 2049.42 2222.28 1942.96 2204.67 1925.36C2187.05 1907.76 1705.31 1876.52 1705.31 1876.52L1575.99 1831.42L1601.66 1868.16L1632.45 1890.25C1655.96 1905.97 1706.02 1938.92 1718.21 1944.99C1733.45 1952.58 1819.21 1975.93 1855.94 1956.22C1892.66 1936.52 1988.26 1944.07 1996.83 1942.45C2003.69 1941.16 1968.05 1971.12 1949.37 1986.27C1929.53 1996.98 1886.61 2019.02 1873.66 2021.46C1857.46 2024.51 1779.37 2018.31 1768.42 2020.37C1757.47 2022.44 1722.7 2049.91 1702.7 2053.68C1682.7 2057.45 1576.88 2102.97 1551.16 2107.82C1525.45 2112.66 1342.54 2149.46 1327.35 2150C1315.21 2150.43 1183 2145.44 1118.41 2142.89L667.41 2203.49L706.39 2361.19Z" fill="#B57657"/>
<path fill-rule="evenodd" clip-rule="evenodd" d="M1508.43 1807.85L1461.13 1876.05L1427.1 1912.68C1413.77 1911.71 1386.01 1909.73 1381.66 1909.62C1377.3 1909.52 1356.31 1894.64 1346.37 1887.22L1285.47 1912.08L1282.72 1913.2L1252.04 1925.72L1236.93 1931.89L1161.2 1962.8C1157.61 1973.94 1149.58 1996.37 1146.15 1997.02C1141.86 1997.83 1094.72 2017.17 1071.38 2021.57C1048.05 2025.97 990.218 2056.63 952.123 2063.81C914.027 2070.99 893.444 2089.98 884.396 2091.69C875.349 2093.39 898.627 2122.71 906.723 2121.19L1012.44 2101.26C1028.15 2098.3 1058.79 2106.47 1069.47 2105.62C1080.16 2104.77 1116.72 2133.91 1118.41 2142.89C1183 2145.44 1315.21 2150.43 1327.35 2150C1342.54 2149.46 1525.45 2112.66 1551.16 2107.82C1576.88 2102.97 1682.7 2057.45 1702.7 2053.68C1722.7 2049.91 1757.47 2022.44 1768.42 2020.37C1779.37 2018.31 1857.46 2024.51 1873.66 2021.46C1886.61 2019.02 1929.53 1996.98 1949.37 1986.27C1968.05 1971.12 2003.69 1941.16 1996.83 1942.45C1988.26 1944.07 1892.66 1936.52 1855.94 1956.22C1819.21 1975.93 1733.45 1952.58 1718.21 1944.99C1706.02 1938.92 1655.96 1905.97 1632.45 1890.25L1601.66 1868.16L1575.99 1831.42L1550.13 1822.4L1523.21 1813.01L1508.43 1807.85ZM1541.18 1942.32L1541.02 1907.48L1559.11 1904.07L1568.06 1917.5L1579.27 1945.6L1578.21 1971.37C1572.5 1972.45 1559.26 1972.85 1552.02 1965.85C1544.78 1958.85 1541.78 1947.25 1541.18 1942.32ZM1251.17 2007.44C1252.7 2015.53 1267.93 2017.85 1275.35 2018L1272.6 2003.41C1274.74 1992.93 1278.46 1969.06 1276.26 1957.39C1273.51 1942.79 1271.86 1941.94 1266.42 1931.34C1260.97 1920.75 1248.8 1934.67 1246.15 1946.79C1243.5 1958.91 1238.11 1956.44 1237.68 1964.66C1237.26 1972.87 1249.27 1997.34 1251.17 2007.44Z" fill="#AD8F79"/>
<path d="M658.625 2167.95C655.133 2175.58 667.41 2203.49 667.41 2203.49L1118.41 2142.89C1116.72 2133.91 1080.16 2104.77 1069.47 2105.62C1058.79 2106.47 1028.15 2098.3 1012.44 2101.26L906.723 2121.19C898.627 2122.71 875.349 2093.39 884.396 2091.69C893.444 2089.98 914.027 2070.99 952.123 2063.81C990.218 2056.63 1048.05 2025.97 1071.38 2021.57C1094.72 2017.17 1141.86 1997.83 1146.15 1997.02C1149.58 1996.37 1157.61 1973.94 1161.2 1962.8C1161.2 1962.8 662.118 2160.31 658.625 2167.95Z" fill="#AB7E51"/>
<path d="M1275.35 2018C1267.93 2017.85 1252.7 2015.53 1251.17 2007.44C1249.27 1997.34 1237.26 1972.87 1237.68 1964.66C1238.11 1956.44 1243.5 1958.91 1246.15 1946.79C1248.8 1934.67 1260.97 1920.75 1266.42 1931.34C1271.86 1941.94 1273.51 1942.79 1276.26 1957.39C1278.46 1969.06 1274.74 1992.93 1272.6 2003.41L1275.35 2018Z" fill="#4A2B17"/>
<path d="M1541.02 1907.48L1541.18 1942.32C1541.78 1947.25 1544.78 1958.85 1552.02 1965.85C1559.26 1972.85 1572.5 1972.45 1578.21 1971.37L1579.27 1945.6L1568.06 1917.5L1559.11 1904.07L1541.02 1907.48Z" fill="#5E3F2C"/>
<path d="M1222.08 1910.64L1236.93 1931.89L1252.04 1925.72L1257.64 1869.07C1261.2 1872.27 1268.94 1880.89 1271.39 1889.72C1276.13 1898.13 1280.92 1908.87 1282.72 1913.2L1285.47 1912.08C1284.34 1907.83 1283.31 1893.82 1288.22 1871.76C1291.41 1857.26 1293.46 1870.77 1296.54 1855.73C1299.63 1840.69 1306.53 1845.91 1310.28 1837.06C1314.04 1828.22 1318.17 1823.95 1325.68 1806.26C1333.2 1788.58 1332.88 1792.12 1334.78 1791.76C1336.69 1791.4 1343.67 1776.14 1350.02 1767.97C1356.37 1759.8 1354.79 1767.07 1361.45 1765.82C1368.12 1764.56 1375.69 1755 1390.45 1752.21L1452.83 1740.46C1459.97 1739.11 1465.64 1729.91 1474.26 1736.42C1481.16 1741.63 1485.63 1747.06 1487.01 1749.12C1488.23 1751.22 1493.28 1760.96 1503.78 1783.16C1516.9 1810.91 1513.25 1794.16 1520.29 1797.48C1525.92 1800.14 1524.58 1808.94 1523.21 1813.01L1550.13 1822.4C1547.98 1815.33 1543.57 1799.6 1543.17 1793.17C1542.68 1785.13 1543.51 1787.29 1545.31 1781.14C1547.11 1774.99 1548.17 1780.6 1557.59 1762.55C1561.45 1759.5 1561.98 1757.08 1568.12 1747.78C1574.26 1738.49 1573.68 1732.79 1570.03 1726.5C1566.38 1720.22 1557.22 1705.67 1555.64 1702.48C1554.05 1699.29 1544.53 1690.63 1538.71 1685.91C1534.05 1682.14 1533.59 1684.94 1533.94 1686.81C1531.42 1690 1524.74 1697.61 1518.18 1702.57C1509.97 1708.76 1503.42 1684.43 1498.07 1679.62C1492.73 1674.82 1484.74 1682.14 1480.93 1682.85C1477.12 1683.57 1461.62 1687.66 1449.02 1688.87C1436.43 1690.08 1425.37 1686.35 1416.06 1689.27C1406.75 1692.19 1401.03 1693.26 1377.22 1708.21C1353.41 1723.16 1361.83 1718.09 1352.99 1720.92C1344.15 1723.74 1335.26 1749.83 1328.01 1755.85C1320.77 1761.86 1314.79 1774.61 1310.34 1782.42C1305.9 1790.23 1299.7 1812.32 1274.84 1832.12C1249.97 1851.92 1252.08 1842.22 1237.9 1850.71C1223.72 1859.19 1228.38 1852.5 1219.81 1854.12L1187.43 1860.22C1179.81 1861.66 1181.29 1869.51 1172.4 1885.14C1163.51 1900.76 1163.98 1921.59 1165.41 1921.32L1222.08 1910.64Z" fill="#C49779"/>
<path d="M1499.74 1984.85C1509.43 1985.87 1517.58 1994.18 1529.25 1994.06C1531.89 1997.99 1531.59 1999.08 1529.66 2000.13C1519.66 1997.48 1512.19 1992.74 1499.67 1992.25C1495.21 1987.38 1496.15 1986.18 1499.74 1984.85Z" fill="#9A7D67"/>
<path d="M1467.06 1937.54C1471.24 1938.34 1474.93 1943.11 1479.93 1943.32C1481.16 1945.55 1481.06 1946.15 1480.25 1946.68C1475.9 1944.98 1472.59 1942.19 1467.21 1941.62C1465.18 1938.83 1465.55 1938.19 1467.06 1937.54Z" fill="#9A7D67"/>
<path d="M1519.97 1846.88C1526.04 1857.84 1529.21 1871.15 1536.87 1883.59C1537.58 1888.59 1537.1 1888.87 1535.57 1887.38C1529.72 1875.2 1526.07 1864.57 1518.01 1850.88C1516.35 1843.42 1517.28 1843.76 1519.97 1846.88Z" fill="#9A7D67"/>
<path d="M1539.33 2078.73C1540.09 2065.33 1543.94 2057.99 1544.26 2041.14C1546.04 2039.4 1546.5 2040.41 1546.89 2043.74C1545.43 2056.72 1543.14 2064.97 1542.52 2082.72C1540.28 2086.58 1539.79 2084.59 1539.33 2078.73Z" fill="#9A7D67"/>
<path d="M1597.76 2003.57C1604.44 2005 1610.42 2013.17 1618.4 2013.63C1620.4 2017.43 1620.25 2018.44 1618.98 2019.33C1612.01 2016.36 1606.67 2011.56 1598.08 2010.48C1594.79 2005.71 1595.37 2004.64 1597.76 2003.57Z" fill="#9A7D67"/>
<path d="M1644.38 1934.65C1650.95 1943.52 1655.09 1956.1 1663.25 1965.82C1664.37 1970.76 1663.95 1971.26 1662.41 1970.36C1655.93 1960.12 1651.6 1950.57 1642.96 1939.7C1640.74 1932.59 1641.63 1932.55 1644.38 1934.65Z" fill="#9A7D67"/>
<path d="M1664.03 2019.12C1670.76 2020.94 1676.68 2029.4 1684.72 2030.33C1686.69 2034.22 1686.52 2035.21 1685.23 2036.01C1678.24 2032.65 1672.91 2027.57 1664.26 2025.99C1661 2021.07 1661.61 2020.03 1664.03 2019.12Z" fill="#9A7D67"/>
<path d="M1763.85 1969.2C1770.71 1975.4 1775.73 1986.67 1784.11 1993.04C1785.62 1997.69 1785.3 1998.42 1783.81 1998.2C1776.9 1990.51 1772.01 1982.51 1763.08 1975.17C1760.36 1968.75 1761.15 1968.29 1763.85 1969.2Z" fill="#9A7D67"/>
<path d="M1706.13 2001.02C1710.29 1992.83 1716.14 1992.39 1720.71 1981.36C1723 1982.28 1723.23 1983.5 1722.8 1986.22C1718 1993.29 1713.55 1996.18 1708.44 2007.47C1705.13 2007.45 1705.13 2005.53 1706.13 2001.02Z" fill="#9A7D67"/>
<path d="M1096.68 2070.91C1103.36 2072.35 1109.34 2080.52 1117.31 2080.97C1119.32 2084.78 1119.16 2085.79 1117.9 2086.68C1110.93 2083.71 1105.58 2078.9 1097 2077.83C1093.7 2073.06 1094.29 2071.98 1096.68 2070.91Z" fill="#9A7D67"/>
<path d="M1158.19 2025.98C1164.87 2027.41 1170.85 2035.58 1178.82 2036.04C1180.82 2039.84 1180.67 2040.85 1179.4 2041.74C1172.43 2038.77 1167.09 2033.97 1158.51 2032.89C1155.21 2028.12 1155.8 2027.04 1158.19 2025.98Z" fill="#9A7D67"/>
<path d="M1251.82 2102.51C1246.89 2108.78 1240.77 2107.23 1235.21 2116.02C1232.9 2114.39 1232.75 2113.16 1233.4 2110.76C1238.9 2105.75 1243.74 2104.54 1249.88 2095.68C1253.32 2096.82 1253.18 2098.62 1251.82 2102.51Z" fill="#9A7D67"/>
<path d="M1282.49 2047.52C1289.34 2053.82 1294.33 2065.14 1302.71 2071.62C1304.21 2076.29 1303.88 2077.01 1302.39 2076.77C1295.49 2068.98 1290.62 2060.93 1281.69 2053.47C1278.98 2047.01 1279.78 2046.57 1282.49 2047.52Z" fill="#9A7D67"/>
<path d="M1004.87 2072.23C1009.95 2066.41 1016.11 2068.42 1021.89 2060.17C1024.2 2061.96 1024.33 2063.19 1023.63 2065.5C1017.99 2070.02 1013.07 2070.84 1006.71 2079.11C1003.26 2077.73 1003.42 2075.95 1004.87 2072.23Z" fill="#9A7D67"/>
<path d="M1313.03 1955.21C1318.93 1966.68 1321.82 1980.11 1329.28 1993.22C1329.88 1998.2 1329.39 1998.42 1327.87 1996.78C1322.23 1984.14 1318.78 1973.29 1310.94 1958.9C1309.44 1951.39 1310.38 1951.84 1313.03 1955.21Z" fill="#9A7D67"/>
<path d="M1316.86 2124.73C1322.09 2119.37 1328.29 2121.82 1334.26 2114.1C1336.57 2116.04 1336.68 2117.26 1335.94 2119.5C1330.16 2123.54 1325.17 2123.98 1318.61 2131.68C1315.14 2130.05 1315.34 2128.31 1316.86 2124.73Z" fill="#9A7D67"/>
<path d="M1392.86 2038.54C1396.39 2029.02 1401.95 2027.08 1405.72 2014.52C1407.95 2014.89 1408.24 2016.1 1407.97 2019.01C1403.78 2027.53 1399.68 2031.66 1395.42 2044.62C1392.26 2045.43 1392.15 2043.45 1392.86 2038.54Z" fill="#9A7D67"/>
<path d="M1356.92 2040.1C1363.56 2048.52 1367.87 2060.91 1376.1 2070.08C1377.29 2074.98 1376.89 2075.52 1375.35 2074.74C1368.77 2064.92 1364.33 2055.61 1355.61 2045.33C1353.3 2038.31 1354.17 2038.2 1356.92 2040.1Z" fill="#9A7D67"/>
<path d="M1367.99 1941.92C1374.82 1948.4 1379.77 1959.82 1388.15 1966.52C1389.62 1971.22 1389.29 1971.92 1387.79 1971.64C1380.91 1963.68 1376.06 1955.51 1367.15 1947.82C1364.47 1941.31 1365.27 1940.89 1367.99 1941.92Z" fill="#9A7D67"/>
<path d="M1398.31 2103.18C1402.54 2095.15 1408.42 2094.88 1413.09 2084.04C1415.38 2085.02 1415.6 2086.25 1415.15 2088.93C1410.29 2095.83 1405.79 2098.58 1400.59 2109.66C1397.27 2109.54 1397.27 2107.63 1398.31 2103.18Z" fill="#9A7D67"/>
<path d="M1425.58 1948.48C1431.69 1959.29 1434.94 1972.57 1442.65 1984.82C1443.39 1989.82 1442.91 1990.12 1441.38 1988.67C1435.48 1976.62 1431.77 1966.06 1423.66 1952.56C1421.96 1945.11 1422.88 1945.43 1425.58 1948.48Z" fill="#9A7D67"/>
<path d="M1451.09 2052.14C1457.78 2053.57 1463.75 2061.74 1471.73 2062.19C1473.73 2066 1473.58 2067.01 1472.31 2067.9C1465.34 2064.93 1460 2060.12 1451.41 2059.05C1448.12 2054.28 1448.71 2053.2 1451.09 2052.14Z" fill="#9A7D67"/>
<path d="M1075.1 2210.18C1075.45 2212.04 1075.09 2213.67 1074.3 2213.82C1073.52 2213.97 1072.59 2212.58 1072.24 2210.72C1071.89 2208.86 1072.25 2207.23 1073.03 2207.08C1073.82 2206.93 1074.75 2208.32 1075.1 2210.18Z" fill="#9F6C52"/>
<path d="M1103.99 2190.79C1104.34 2192.65 1103.98 2194.27 1103.19 2194.42C1102.41 2194.57 1101.48 2193.18 1101.13 2191.32C1100.78 2189.46 1101.14 2187.84 1101.92 2187.69C1102.71 2187.54 1103.64 2188.93 1103.99 2190.79Z" fill="#9F6C52"/>
<path d="M1019.33 2202.09C1019.68 2203.95 1019.33 2205.58 1018.54 2205.73C1017.75 2205.88 1016.82 2204.49 1016.47 2202.63C1016.12 2200.77 1016.48 2199.14 1017.27 2199C1018.06 2198.85 1018.98 2200.23 1019.33 2202.09Z" fill="#9F6C52"/>
<path d="M1035.94 2264.05C1036.29 2265.91 1035.94 2267.54 1035.15 2267.69C1034.36 2267.84 1033.43 2266.45 1033.08 2264.59C1032.73 2262.73 1033.09 2261.1 1033.88 2260.95C1034.67 2260.81 1035.59 2262.19 1035.94 2264.05Z" fill="#9F6C52"/>
<path d="M2041.94 2053.2L1996.42 2044.67L2015.69 2095.67L2062.35 2086.91L2080.48 2106.27L2043.79 2110.95L2011.33 2161.7L2026.86 2171.41L2002.79 2180.87L1975.91 2159.36L1918.67 2144.53L1916.08 2183.83L1991.99 2270.94L2197.27 2284.49L2233.76 2258.48L2242.09 2242.46C2229.83 2215.86 2205.37 2161.88 2205.58 2158.73C2205.78 2155.59 2179.28 2116.21 2166 2096.92L2154.41 2076.42L2041.94 2053.2Z" fill="#AB9563"/>
<path d="M1716.4 2256.69C1709.81 2258.62 1714.48 2261.3 1711.65 2267.43L1710.41 2286.29C1715.98 2320.34 1727.4 2388.93 1728.57 2390.9C1730.02 2393.37 1737.4 2404.12 1741.26 2406.74C1745.13 2409.36 1763.29 2416.09 1767.21 2417.93C1771.13 2419.76 1791.95 2422.72 1798.84 2428.7C1805.72 2434.68 1814.16 2441.55 1828.39 2446.44C1842.62 2451.32 1839.45 2450.32 1848.86 2454.89C1858.26 2459.46 1864.65 2460.67 1870.07 2464.19C1875.5 2467.7 1890.53 2472.64 1896.82 2475.43C1903.11 2478.21 1912.72 2479.63 1919.26 2478.49C1925.8 2477.34 1929.83 2477.61 1936.27 2478.03C1942.71 2478.46 1950.11 2476.58 1951.77 2475.9C1953.1 2475.35 1958.51 2471.87 1961.04 2470.19C1965.22 2468.1 1973.8 2463.14 1974.65 2460.04C1975.72 2456.16 1975.17 2452.18 1975.95 2440.39C1976.73 2428.6 1977.04 2423.89 1980.18 2413.04C1983.32 2402.2 1983.22 2403.77 1983.99 2391.98C1984.77 2380.19 1984.41 2385.69 1982.88 2372.17C1981.35 2358.65 1981.35 2358.65 1981.86 2350.79L1982.9 2335.07L1983.58 2324.85C1983.99 2318.56 1983.4 2315.37 1982.85 2311.38C1982.3 2307.4 1981.34 2309.71 1980.9 2304.15C1980.46 2298.6 1983.68 2298.81 1981.52 2294.72C1979.37 2290.63 1980.28 2289.11 1978.93 2285.07C1977.58 2281.04 1979.39 2278 1974.02 2273.7C1968.64 2269.4 1969.4 2270.24 1963.27 2265.09C1957.14 2259.95 1956.98 2262.31 1944.46 2255.96C1931.95 2249.61 1926.62 2244.52 1915.61 2239.84C1904.6 2235.17 1890.68 2225.57 1882.89 2221.11C1876.66 2217.54 1873.23 2212.37 1872.29 2210.23C1870.47 2210.11 1868.13 2209.44 1865.15 2208.09C1854.95 2203.47 1862.89 2205.58 1859.06 2202.36C1855.23 2199.14 1851.99 2199.33 1844.79 2198.07C1837.6 2196.8 1833.91 2203.66 1837.52 2210.22C1841.13 2216.77 1844.95 2220.18 1847 2225.84L1847 2225.84C1849.05 2231.5 1849.05 2231.5 1852.66 2238.06C1856.27 2244.61 1858.53 2247.13 1862.24 2252.11C1865.96 2257.09 1861.78 2259.18 1864.53 2266.47C1867.29 2273.76 1860.9 2272.54 1860.84 2273.33C1860.79 2274.12 1851.83 2275.1 1837.24 2275.72L1833.84 2290.49L1828.15 2290.91C1827.85 2291.41 1825.45 2292.62 1818.28 2293.41C1809.32 2294.4 1812.44 2296.18 1805.19 2295.71C1797.69 2299.16 1800.83 2312.79 1799.82 2315.88C1798.81 2318.97 1798.11 2317.34 1795.98 2325.1C1790.58 2333.42 1786.6 2332.37 1776.4 2327.75C1766.19 2323.13 1763.98 2319.82 1764.19 2316.68C1764.4 2313.54 1761.18 2313.32 1761.39 2310.18C1761.55 2307.67 1761.18 2297.01 1760.97 2292L1763.36 2280.31C1760.55 2273.81 1758.74 2276.85 1754.32 2270.24C1749.91 2263.64 1751.46 2264.53 1747.05 2257.92C1742.63 2251.31 1736.79 2254.09 1727.93 2253.5C1719.08 2252.92 1723 2254.76 1716.4 2256.69Z" fill="#AB9563"/>
<path d="M1501.69 2300.14C1496.99 2285.62 1501.05 2297.73 1498.94 2292.85C1497.17 2288.74 1495.1 2289.1 1483.86 2288.61L1465.1 2303.25C1455.38 2340.23 1435.75 2414.67 1434.99 2416.51C1434.22 2418.36 1528.85 2509.28 1576.27 2554.52C1588.31 2558.82 1595.07 2559.02 1607.11 2552.61L1628.05 2553.99L1712.7 2398.54L1717.87 2381.51L1714.31 2374.17L1651.98 2289.54C1648.65 2290.9 1649.67 2287.81 1645.2 2281.98C1640.73 2276.16 1645.4 2278.84 1636.16 2271.91C1626.92 2264.99 1620.97 2269.33 1620.45 2277.19C1623.36 2282.12 1622.45 2283.64 1622.29 2286C1622.14 2288.36 1619.52 2291.34 1615.67 2300.56C1611.83 2309.78 1614.61 2304.44 1615 2310.78C1615.39 2317.12 1619.96 2321.37 1621.8 2330.17C1623.28 2337.22 1626.05 2343.35 1627.26 2345.53C1625.68 2344.9 1621.75 2343.27 1618.61 2341.8C1614.69 2339.97 1612.32 2339.02 1609.91 2338.86L1584.95 2337.21L1575.29 2336.57C1572.27 2337.43 1566.16 2340.23 1565.87 2344.64C1565.5 2350.14 1563.53 2355.53 1564.83 2360.36C1565.87 2364.21 1567.32 2371.57 1567.92 2374.77L1567.56 2380.27L1556.41 2340.85L1532.65 2345.6C1532.19 2348.46 1530.74 2354.95 1528.6 2357.96C1526.46 2360.98 1517.67 2364.35 1513.54 2365.65C1509.41 2366.96 1501.21 2368.63 1501.46 2364.85C1501.77 2360.14 1503.75 2354.74 1502.45 2349.92C1501.41 2346.06 1502.43 2342.03 1503.07 2340.49L1507.72 2337.64C1506.69 2334.81 1510.48 2331.03 1509.9 2322.78C1509.07 2310.89 1506.4 2314.66 1501.69 2300.14Z" fill="#AB9563"/>
<path d="M1035.08 2166.7C1035.16 2165.45 1027.06 2165.65 1023 2165.91C1019.7 2166.95 944.101 2213.85 906.715 2237.17L906.206 2237.66C899.363 2244.25 895.374 2248.09 896.458 2257.81L928.252 2413.05L954.897 2425.86C962.844 2427.97 979.059 2432.2 980.347 2432.28C981.957 2432.39 1143.14 2354.61 1144.86 2353.15C1146.23 2351.98 1156.63 2338.14 1161.66 2331.37L1172.04 2247.58C1168.92 2245.8 1170.64 2244.33 1170.95 2239.62L1171.83 2226.26C1172.25 2219.97 1164.95 2220.28 1160.48 2214.46C1156.02 2208.63 1154.46 2207.74 1151.29 2206.74C1148.12 2205.74 1143.99 2207.05 1137.14 2212.91C1130.28 2218.78 1128.36 2223.39 1125.53 2229.51C1122.7 2235.64 1118.52 2237.73 1115.09 2240.67C1112.35 2243.01 1111.58 2253.06 1111.53 2257.8C1107.61 2270.08 1104.8 2276.16 1090.97 2275.39L1083.56 2252.79L1054.5 2239.82L1046.79 2246.42L1042.77 2246.15L1041.73 2237.4L1017.78 2232.66C1012.05 2233.86 1000.08 2236.23 998.152 2236.1C995.737 2235.94 986.777 2236.93 985.271 2235.25C983.765 2233.57 983.686 2222.52 986.257 2220.32C988.828 2218.12 994.022 2212.94 999.968 2208.59C1005.92 2204.25 1011.91 2199.12 1016.85 2197.87C1020.79 2196.86 1025.71 2194.24 1027.68 2193.06C1028.25 2184.41 1030.06 2181.37 1034.45 2176.14C1038.84 2170.9 1034.97 2168.28 1035.08 2166.7Z" fill="#AB9563"/>
<path d="M801.637 2089.72L810.93 2046.91C807.71 2046.7 723.599 2083.77 681.946 2102.34L650.115 2241.54L645.105 2280.68C662.557 2293.94 697.632 2320.3 698.318 2319.72C699.003 2319.13 821.573 2277.6 882.773 2256.9L901.625 2240.78L944.674 2127.58C942.517 2123.49 938.105 2116.88 935.896 2113.58C933.687 2110.28 935.132 2108 930.08 2103.72C925.029 2099.44 925.613 2097.9 919.978 2097.53L911.123 2096.95C909.512 2096.84 902.707 2101.92 899.229 2105.63C895.751 2109.35 890.998 2120.09 888.323 2123.86C886.183 2126.88 881.528 2141.04 879.467 2147.75C870.577 2159.34 866.039 2166.39 847.526 2166.16L844.566 2137.55L817.064 2125.47L799.924 2115.65L764.191 2118.03L754.53 2117.39L754.604 2117.14C759.324 2101.09 761.994 2092.01 801.637 2089.72Z" fill="#AB9563"/>
<path d="M1251.92 2262.33C1249.82 2257.46 1248.11 2258.92 1244.08 2258.66L1236.83 2258.18C1234.74 2260.57 1177.93 2321.65 1149.79 2351.9L1145.12 2373.69L1219.76 2516.77L1276.92 2520.54C1340.16 2479.63 1370.94 2453.29 1421.33 2402.98L1426.91 2379.67L1407.43 2307.33C1404.21 2307.12 1405.43 2300.89 1401.87 2293.55C1398.31 2286.21 1399.17 2285.47 1394.91 2276.51C1390.65 2267.54 1388.99 2268.22 1387.38 2268.12C1385.77 2268.01 1381.33 2274.03 1374.58 2278.32C1367.82 2282.62 1368.47 2285.03 1363.23 2291C1357.98 2296.96 1359.54 2297.86 1356.71 2303.98C1353.88 2310.11 1356.19 2311.84 1355.78 2318.13C1355.36 2324.42 1355.96 2327.62 1355.15 2327.56C1361.5 2334.08 1362.47 2337.67 1346.01 2343.54L1337.96 2343.01L1333.81 2332.47C1331.19 2331.25 1325.64 2328.77 1324.35 2328.69L1311.47 2327.84C1308.9 2327.67 1302.75 2329.37 1299.99 2330.24L1292.44 2334.48L1289.74 2326.4L1281.89 2322.73L1276.26 2322.36C1266.6 2321.72 1260.86 2322.92 1259.2 2323.6C1258.07 2324.31 1254.97 2326.32 1251.59 2328.62C1247.36 2331.5 1243.12 2334.38 1238.94 2336.47C1235.6 2338.14 1230.94 2339.36 1229.02 2339.76C1227.55 2337.56 1224.81 2332.54 1225.62 2330.06C1226.63 2326.97 1230.16 2322.47 1230.37 2319.33C1230.58 2316.18 1234.06 2312.46 1237.43 2310.32C1240.81 2308.17 1241.87 2304.3 1244.39 2302.88C1246.41 2301.75 1251.74 2301.79 1254.16 2301.95C1254.36 2298.81 1254.52 2296.45 1252.63 2288.43L1252.62 2288.4C1250.73 2280.41 1250.73 2280.4 1251.04 2275.69C1251.35 2270.98 1254.03 2267.21 1251.92 2262.33Z" fill="#AB9563"/>
<path d="M1977.64 1949.49C1969.47 1954.74 1952.57 1966.62 1950.27 1972.15C1949.78 1973.32 1949.08 1974.59 1948.24 1975.9C1943.86 1987.23 1949.73 2005.23 1961.82 2005.28C1964.5 2001.51 1967.12 1998.53 1968.94 1995.49C1970.76 1992.45 1980.03 1986.75 1981.74 1985.28C1983.45 1983.82 1987.74 1980.15 1989.4 1979.47C1990.73 1978.93 1994.4 1969.02 1996.07 1964.13L1977.64 1949.49Z" fill="#BD6A63"/>
<path d="M1934.32 1993.2C1931.65 1996.97 1917.37 2017.35 1915.55 2020.38C1914.09 2022.81 1902.3 2033.19 1896.59 2038.08L1936.58 2044.66C1942.69 2037.96 1941.39 2033.14 1944.17 2027.8C1946.94 2022.46 1946.94 2022.46 1952.94 2017.33C1958.94 2012.2 1959.15 2009.05 1961.82 2005.28C1949.73 2005.23 1943.86 1987.23 1948.24 1975.9C1944.09 1982.38 1936.54 1990.07 1934.32 1993.2Z" fill="#BD6A63"/>
<path d="M1896.59 2038.08C1894.5 2041.1 1889.48 2047.87 1886.05 2050.8C1881.76 2054.47 1868.29 2074.89 1866.91 2083.48C1865.53 2092.07 1864.94 2113.35 1864.78 2115.71C1871.01 2101.5 1874.69 2101.26 1881.69 2116.82C1882.05 2111.32 1886.93 2110.85 1889.06 2103.1C1891.19 2095.35 1892.91 2093.88 1894.83 2089.27C1896.75 2084.66 1899.32 2082.46 1902.96 2076.39C1906.59 2070.31 1905.73 2071.05 1912.54 2065.97C1919.34 2060.89 1930.48 2051.37 1936.58 2044.66L1896.59 2038.08Z" fill="#363530"/>
<path d="M1864.78 2115.71L1863.54 2134.57L1858.16 2154.74C1871.2 2153.23 1866.42 2152.13 1869.2 2146.79C1871.98 2141.44 1873.59 2141.55 1875.61 2135.37C1877.64 2129.19 1881.33 2122.33 1881.69 2116.82C1874.69 2101.26 1871.01 2101.5 1864.78 2115.71Z" fill="#BD6A63"/>
<path d="M1863.54 2134.57C1856.42 2136.21 1841.39 2139.42 1838.17 2139.21L1776.18 2135.12L1793.47 2167.05C1800.72 2167.53 1799.27 2165.06 1816.28 2164.61C1833.28 2164.15 1825.39 2161.26 1833.65 2158.65C1841.91 2156.04 1845.13 2156.25 1858.16 2154.74L1863.54 2134.57Z" fill="#363530"/>
<path d="M1776.18 2135.12C1769.21 2138.61 1755.08 2146.04 1754.31 2147.88C1753.54 2149.73 1751.38 2163.74 1750.39 2170.52L1732.6 2182.76L1751.15 2195.83C1766.75 2192.12 1773.27 2179.13 1779.37 2172.43C1785.48 2165.73 1786.23 2166.57 1793.47 2167.05L1776.18 2135.12Z" fill="#BD6A63"/>
<path d="M1732.6 2182.76C1725.57 2183.09 1709.22 2184.22 1700.04 2186.14C1692.88 2187.64 1677.56 2188.6 1665.85 2189.6L1677.14 2214.62C1699.23 2210.56 1685.34 2212.8 1698.43 2210.5C1711.52 2208.21 1706.79 2206.32 1723.2 2202.67C1739.62 2199.01 1735.54 2199.54 1751.15 2195.83L1732.6 2182.76Z" fill="#363530"/>
<path d="M1651.17 2191.6C1647.18 2193.23 1618.76 2200.77 1605.05 2204.34C1599.77 2206.62 1588.71 2211.79 1586.61 2214.17L1591.08 2244.47C1593.49 2244.63 1596.06 2242.43 1599.39 2241.07C1602.71 2239.71 1605.12 2239.87 1610.97 2237.1C1616.81 2234.32 1613.43 2236.47 1616.81 2234.32C1620.19 2232.18 1620.99 2232.23 1628.6 2227.21C1636.21 2222.18 1638.52 2223.92 1649.14 2222.25C1659.76 2220.58 1655.04 2218.69 1677.14 2214.62L1665.85 2189.6C1658.79 2190.21 1653.04 2190.83 1651.17 2191.6Z" fill="#BD6A63"/>
<path d="M1586.61 2214.17C1583.98 2217.16 1561.5 2214.88 1546.69 2218.64C1531.89 2222.4 1527.01 2222.87 1510.86 2222.59C1494.28 2218.97 1492.73 2211.4 1494.03 2208.06C1492.61 2205.07 1486.22 2199.02 1472.01 2198.71C1454.24 2198.33 1450.53 2193.35 1440.61 2196.64C1430.69 2199.93 1429.03 2200.61 1420.77 2203.22L1418.8 2233.09C1439.73 2234.47 1443.65 2236.31 1450.79 2238.36C1457.93 2240.41 1462.06 2239.1 1469.31 2239.58L1491.04 2241.02C1507.95 2242.13 1505.59 2241.19 1519.32 2241.31C1533.06 2241.42 1530.7 2240.48 1547.6 2241.6L1591.08 2244.47L1586.61 2214.17Z" fill="#363530"/>
<path d="M1420.77 2203.22C1418.79 2203.85 1418.04 2204.15 1417.79 2204.28C1417.47 2204.46 1418.06 2204.32 1417.79 2204.28C1417.43 2204.22 1415.5 2204.31 1407.68 2205.52C1389.71 2208.28 1393.74 2208.54 1376.02 2207.37L1352.68 2205.83L1320.97 2232.95C1331.28 2236 1336.22 2234.74 1372.65 2233.99C1409.08 2233.24 1397.87 2231.71 1418.8 2233.09L1420.77 2203.22Z" fill="#BD6A63"/>
<path d="M1352.68 2205.83L1338.19 2204.87C1334.97 2204.66 1323.75 2203.13 1319.93 2199.72C1316.11 2196.31 1309.83 2193.53 1305.05 2192.42C1300.27 2191.32 1300.53 2187.39 1289.26 2186.65C1277.99 2185.9 1293.08 2190.05 1273.16 2185.58C1265.51 2191.34 1261.49 2194.99 1260.18 2210.78C1277.78 2213.52 1280.09 2215.25 1288.79 2218.19C1297.49 2221.13 1310.66 2229.9 1320.97 2232.95L1352.68 2205.83Z" fill="#363530"/>
<path d="M1273.16 2185.58C1253.24 2181.11 1257.66 2187.72 1244.39 2180.52C1231.12 2173.33 1231.61 2178.1 1224.93 2168.98L1223.07 2197.27C1238.7 2205.41 1242.57 2208.03 1260.18 2210.78C1261.49 2194.99 1265.51 2191.34 1273.16 2185.58Z" fill="#BD6A63"/>
<path d="M1224.93 2168.98C1218.26 2159.85 1225.51 2160.33 1214.55 2154.87C1203.59 2149.41 1191.17 2141.49 1188.06 2139.7C1184.94 2137.92 1178.6 2135.92 1170.76 2132.25C1162.92 2128.57 1158.19 2126.68 1154.37 2123.27L1135.5 2152.02C1148.87 2157.64 1146.51 2156.69 1175.57 2169.67C1204.63 2182.64 1185.62 2176.64 1194.16 2181.94C1202.71 2187.25 1207.43 2189.14 1223.07 2197.27L1224.93 2168.98Z" fill="#363530"/>
<path d="M1154.37 2123.27C1151.32 2120.54 1145.9 2116.92 1143.57 2115.45C1145.25 2114.51 1144.96 2111.6 1130.35 2107.47C1112.1 2102.32 1103.29 2100.95 1097.6 2101.36L1070.13 2125.6C1091.06 2126.98 1089.04 2133.16 1101.92 2134.02C1114.8 2134.87 1122.12 2146.4 1135.5 2152.02L1154.37 2123.27Z" fill="#BD6A63"/>
<path d="M1097.6 2101.36C1082.85 2104.34 1074.54 2107.74 1061.92 2102.96C1049.3 2098.18 1048.99 2102.89 1041.25 2097.64C1033.51 2092.4 1021.8 2086.1 1017.07 2084.21C1012.35 2082.31 987.703 2075.95 986.248 2073.49L969.213 2086.57C990.223 2099.01 989.495 2085.54 1006.63 2095.36C1023.78 2105.17 1020.66 2103.39 1042.78 2111.16C1064.91 2118.94 1049.2 2124.22 1070.13 2125.6L1097.6 2101.36Z" fill="#363530"/>
<path d="M986.248 2073.49C984.794 2071.02 977.366 2061.06 976.769 2057.86C976.291 2055.3 973.539 2045.54 972.223 2040.98C971.392 2037.25 966.047 2029.21 951.317 2026.97L938.193 2061.64C938.549 2061.92 938.908 2062.2 939.27 2062.49C952.333 2072.83 943.788 2067.53 969.213 2086.57L986.248 2073.49Z" fill="#BD6A63"/>
<path d="M951.317 2026.97C932.905 2024.18 925.764 2022.13 912.13 2020.44C898.496 2018.75 905.793 2018.44 885.875 2013.97C883.114 2019.05 877.4 2029.66 876.634 2031.47C880.305 2033.04 883.902 2034.41 886.889 2035.35C896.393 2038.35 895.978 2044.63 906.496 2044.54C916.511 2044.45 925.326 2051.44 937.424 2061.03L938.193 2061.64L951.317 2026.97Z" fill="#363530"/>
<path d="M885.875 2013.97C865.956 2009.5 862.892 2006.93 863.359 1999.85C863.826 1992.78 863.696 1982.51 860.086 1975.95C856.476 1969.4 841.854 1958.17 839.595 1955.65L820.474 1975.84C822.415 1977.78 824.435 1980.49 826.456 1983.21C830.17 1988.19 836.792 1998.1 836.585 2001.24C836.377 2004.39 839.494 2006.17 841.753 2008.69C844.013 2011.2 852.557 2016.51 857.127 2020.75C860.262 2023.67 868.623 2028.04 876.634 2031.47C877.4 2029.66 883.114 2019.05 885.875 2013.97Z" fill="#BD6A63"/>
<path d="M839.595 1955.65C837.335 1953.14 831.96 1948.83 822.455 1945.84C812.95 1942.84 807.574 1938.54 800.926 1941.26C794.278 1943.98 789.19 1947.59 786.618 1949.79C784.56 1951.55 783.492 1960.37 783.215 1964.56C785.856 1969.47 791.439 1979.63 792.644 1980.97C793.849 1982.32 802.703 1983.74 806.979 1984.29C808.849 1980.46 813.232 1972.86 815.808 1973.03C817.276 1973.13 818.847 1974.21 820.474 1975.84L839.595 1955.65Z" fill="#363530"/>
<path d="M2054.91 1856.7C2016.56 1889.94 2000.56 1910.58 1977.64 1949.49L1996.07 1964.13C1994.4 1969.02 1990.73 1978.93 1989.4 1979.47C1987.74 1980.15 1983.45 1983.82 1981.74 1985.28C1980.03 1986.75 1970.76 1992.45 1968.94 1995.49C1967.12 1998.53 1964.5 2001.51 1961.82 2005.28C1959.15 2009.05 1958.94 2012.2 1952.94 2017.33C1946.94 2022.46 1946.94 2022.46 1944.17 2027.8C1941.39 2033.14 1942.69 2037.96 1936.58 2044.66C1930.48 2051.37 1919.34 2060.89 1912.54 2065.97C1905.73 2071.05 1906.59 2070.31 1902.96 2076.39C1899.32 2082.46 1896.75 2084.66 1894.83 2089.27C1892.91 2093.88 1891.19 2095.35 1889.06 2103.1C1886.93 2110.85 1882.05 2111.32 1881.69 2116.82C1881.33 2122.33 1877.64 2129.19 1875.61 2135.37C1873.59 2141.55 1871.98 2141.44 1869.2 2146.79C1866.42 2152.13 1871.2 2153.23 1858.16 2154.74C1845.13 2156.25 1841.91 2156.04 1833.65 2158.65C1825.39 2161.26 1833.28 2164.15 1816.28 2164.61C1799.27 2165.06 1800.72 2167.53 1793.47 2167.05C1786.23 2166.57 1785.48 2165.73 1779.37 2172.43C1773.27 2179.13 1766.75 2192.12 1751.15 2195.83C1735.54 2199.54 1739.62 2199.01 1723.2 2202.67C1706.79 2206.32 1711.52 2208.21 1698.43 2210.5C1685.34 2212.8 1699.23 2210.56 1677.14 2214.62C1655.04 2218.69 1659.76 2220.58 1649.14 2222.25C1638.52 2223.92 1636.21 2222.18 1628.6 2227.21C1620.99 2232.23 1620.19 2232.18 1616.81 2234.32C1613.43 2236.47 1616.81 2234.32 1610.97 2237.1C1605.12 2239.87 1602.71 2239.71 1599.39 2241.07C1596.06 2242.43 1593.49 2244.63 1591.08 2244.47L1547.6 2241.6C1530.7 2240.48 1533.06 2241.42 1519.32 2241.31C1505.59 2241.19 1507.95 2242.13 1491.04 2241.02L1469.31 2239.58C1462.06 2239.1 1457.93 2240.41 1450.79 2238.36C1443.65 2236.31 1439.73 2234.47 1418.8 2233.09C1397.87 2231.71 1409.08 2233.24 1372.65 2233.99C1336.22 2234.74 1331.28 2236 1320.97 2232.95C1310.66 2229.9 1297.49 2221.13 1288.79 2218.19C1280.09 2215.25 1277.78 2213.52 1260.18 2210.78C1242.57 2208.03 1238.7 2205.41 1223.07 2197.27C1207.43 2189.14 1202.71 2187.25 1194.16 2181.94C1185.62 2176.64 1204.63 2182.64 1175.57 2169.67C1146.51 2156.69 1148.87 2157.64 1135.5 2152.02C1122.12 2146.4 1114.8 2134.87 1101.92 2134.02C1089.04 2133.16 1091.06 2126.98 1070.13 2125.6C1049.2 2124.22 1064.91 2118.94 1042.78 2111.16C1020.66 2103.39 1023.78 2105.17 1006.63 2095.36C989.495 2085.54 990.223 2099.01 969.213 2086.57C943.788 2067.53 952.333 2072.83 939.27 2062.49C938.908 2062.2 938.549 2061.92 938.193 2061.64L937.424 2061.03C925.326 2051.44 916.511 2044.45 906.496 2044.54C895.978 2044.63 896.393 2038.35 886.889 2035.35C883.902 2034.41 880.305 2033.04 876.634 2031.47C868.623 2028.04 860.262 2023.67 857.127 2020.75C852.557 2016.51 844.013 2011.2 841.753 2008.69C839.494 2006.17 836.377 2004.39 836.585 2001.24C836.792 1998.1 830.17 1988.19 826.456 1983.21C824.435 1980.49 822.415 1977.78 820.474 1975.84C818.847 1974.21 817.276 1973.13 815.808 1973.03C813.232 1972.86 808.849 1980.46 806.979 1984.29C802.703 1983.74 793.849 1982.32 792.644 1980.97C791.439 1979.63 785.856 1969.47 783.215 1964.56C763.426 1944.79 750.61 1916.33 743.662 1881.43C694.197 1888.9 703.104 1928.49 713.74 1947.34C731.305 1988.3 760.153 2019.91 802.879 2046.38L810.93 2046.91L801.637 2089.72C804.995 2095.99 811.681 2109.01 811.556 2110.9C811.401 2113.25 815.973 2117.5 820.699 2119.39C825.426 2121.28 840.671 2123.08 845.396 2124.97C850.121 2126.86 863.341 2134.84 867.912 2139.09C871.569 2142.49 877.139 2146.28 879.467 2147.75C881.528 2141.04 886.183 2126.88 888.323 2123.86C890.998 2120.09 895.751 2109.35 899.229 2105.63C902.707 2101.92 909.512 2096.84 911.123 2096.95L919.978 2097.53C925.613 2097.9 925.029 2099.44 930.08 2103.72C935.132 2108 933.687 2110.28 935.896 2113.58C938.105 2116.88 942.517 2123.49 944.674 2127.58C946.832 2131.67 954.572 2136.92 960.102 2138.86C965.632 2140.8 1005.65 2159.24 1008.77 2161.02C1011.26 2162.45 1019.3 2164.87 1023 2165.91C1027.06 2165.65 1035.16 2165.45 1035.08 2166.7C1034.97 2168.28 1038.84 2170.9 1034.45 2176.14C1030.06 2181.37 1028.25 2184.41 1027.68 2193.06C1027.11 2201.7 1027.18 2212.76 1029.34 2216.85C1031.5 2220.94 1032.2 2222.56 1037.57 2226.86C1042.95 2231.17 1052.61 2231.8 1060.35 2237.05C1068.09 2242.3 1064.92 2241.3 1077.59 2245.29C1090.26 2249.29 1099.87 2250.71 1104.6 2252.6C1108.38 2254.12 1110.8 2256.7 1111.53 2257.8C1111.58 2253.06 1112.35 2243.01 1115.09 2240.67C1118.52 2237.73 1122.7 2235.64 1125.53 2229.51C1128.36 2223.39 1130.28 2218.78 1137.14 2212.91C1143.99 2207.05 1148.12 2205.74 1151.29 2206.74C1154.46 2207.74 1156.02 2208.63 1160.48 2214.46C1164.95 2220.28 1172.25 2219.97 1171.83 2226.26L1170.95 2239.62C1170.64 2244.33 1168.92 2245.8 1172.04 2247.58C1175.16 2249.37 1175.8 2251.78 1189.49 2252.68C1203.18 2253.59 1200.01 2252.59 1209.57 2254.8C1217.21 2256.57 1221.81 2257.19 1223.15 2257.27L1236.83 2258.18L1244.08 2258.66C1248.11 2258.92 1249.82 2257.46 1251.92 2262.33C1254.03 2267.21 1251.35 2270.98 1251.04 2275.69C1250.73 2280.4 1250.73 2280.41 1252.62 2288.4L1252.63 2288.43C1254.52 2296.45 1254.36 2298.81 1254.16 2301.95C1253.95 2305.09 1254.7 2305.93 1258.52 2309.34C1262.34 2312.75 1260.73 2312.65 1269.48 2314.8C1278.23 2316.96 1275.92 2315.23 1286.28 2317.49C1296.64 2319.75 1305.55 2319.55 1311.89 2321.55C1318.22 2323.55 1323.16 2322.29 1330.19 2325.92C1337.23 2329.54 1342.87 2329.91 1346.69 2333.32C1350.51 2336.73 1354.35 2327.51 1355.15 2327.56C1355.96 2327.62 1355.36 2324.42 1355.78 2318.13C1356.19 2311.84 1353.88 2310.11 1356.71 2303.98C1359.54 2297.86 1357.98 2296.96 1363.23 2291C1368.47 2285.03 1367.82 2282.62 1374.58 2278.32C1381.33 2274.03 1385.77 2268.01 1387.38 2268.12C1388.99 2268.22 1390.65 2267.54 1394.91 2276.51C1399.17 2285.47 1398.31 2286.21 1401.87 2293.55C1405.43 2300.89 1404.21 2307.12 1407.43 2307.33C1410.65 2307.55 1409.19 2305.08 1417.89 2308.02C1426.59 2310.97 1428.31 2309.5 1434.85 2308.36C1440.09 2307.44 1447.37 2306.55 1450.35 2306.22L1455.99 2306.59C1458.77 2301.25 1466.78 2290.1 1476.61 2288.22C1479.38 2288.4 1481.78 2288.52 1483.86 2288.61C1495.1 2289.1 1497.17 2288.74 1498.94 2292.85C1501.05 2297.73 1496.99 2285.62 1501.69 2300.14C1506.4 2314.66 1509.07 2310.89 1509.9 2322.78C1510.48 2331.03 1506.69 2334.81 1507.72 2337.64C1508.18 2338.89 1509.58 2339.95 1512.73 2341.13C1522.99 2344.96 1520.58 2344.8 1529.64 2342.24C1538.7 2339.68 1535.69 2336.33 1545.35 2336.97C1555.01 2337.6 1552.75 2335.09 1561.61 2335.67L1575.29 2336.57L1584.95 2337.21L1609.91 2338.86C1612.32 2339.02 1614.69 2339.97 1618.61 2341.8C1621.75 2343.27 1625.68 2344.9 1627.26 2345.53C1626.05 2343.35 1623.28 2337.22 1621.8 2330.17C1619.96 2321.37 1615.39 2317.12 1615 2310.78C1614.61 2304.44 1611.83 2309.78 1615.67 2300.56C1619.52 2291.34 1622.14 2288.36 1622.29 2286C1622.45 2283.64 1623.36 2282.12 1620.45 2277.19C1620.97 2269.33 1626.92 2264.99 1636.16 2271.91C1645.4 2278.84 1640.73 2276.16 1645.2 2281.98C1649.67 2287.81 1648.65 2290.9 1651.98 2289.54C1655.3 2288.18 1661.9 2286.24 1664.31 2286.4C1666.73 2286.56 1664.52 2283.26 1672.57 2283.79C1680.62 2284.32 1677.61 2280.97 1685.66 2281.5L1697.73 2282.3L1706.59 2282.88C1707.33 2279.77 1709.39 2272.33 1711.65 2267.43C1714.48 2261.3 1709.81 2258.62 1716.4 2256.69C1723 2254.76 1719.08 2252.92 1727.93 2253.5C1736.79 2254.09 1742.63 2251.31 1747.05 2257.92C1751.46 2264.53 1749.91 2263.64 1754.32 2270.24C1758.74 2276.85 1760.55 2273.81 1763.36 2280.31C1766.16 2286.81 1765.3 2287.55 1765.75 2293.1C1766.19 2298.66 1766.84 2301.07 1767.44 2304.26C1768.03 2307.46 1783.12 2287.14 1785.64 2285.73C1788.16 2284.32 1794.11 2279.98 1799.04 2278.72C1803.97 2277.47 1798.98 2279.51 1808.85 2277C1818.72 2274.5 1822.75 2274.76 1825.97 2274.97C1829.19 2275.19 1822.64 2276.33 1837.24 2275.72C1851.83 2275.1 1860.79 2274.12 1860.84 2273.33C1860.9 2272.54 1867.29 2273.76 1864.53 2266.47C1861.78 2259.18 1865.96 2257.09 1862.24 2252.11C1858.53 2247.13 1856.27 2244.61 1852.66 2238.06C1849.05 2231.5 1849.05 2231.5 1847 2225.84L1847 2225.84C1844.95 2220.18 1841.13 2216.77 1837.52 2210.22C1833.91 2203.66 1837.6 2196.8 1844.79 2198.07C1851.99 2199.33 1855.23 2199.14 1859.06 2202.36C1862.89 2205.58 1854.95 2203.47 1865.15 2208.09C1868.13 2209.44 1870.47 2210.11 1872.29 2210.23C1876.71 2210.54 1878.12 2207.67 1878.38 2203.63C1878.76 2197.94 1881.28 2196.53 1883.15 2192.7C1885.02 2188.88 1879.33 2189.29 1888.45 2185.95C1897.56 2182.6 1900.73 2183.6 1901.74 2180.51C1905.29 2175.69 1910.8 2161.64 1913.11 2155.21L1918.67 2144.53L1975.91 2159.36L1995.64 2129.87L2015.69 2095.67L1996.42 2044.67L2041.94 2053.2L2035.06 2047.22L2007.4 2037.5L1999.53 1997.51L2034.8 1977.73L2025.13 1952.62C2056.86 1919.33 2072.02 1898.37 2087.64 1850.97L2054.91 1856.7Z" fill="#454F62"/>
<path d="M2497.41 1698.25C2514.28 1707.54 2548.78 1725.67 2551.8 1723.87L2529.89 1763.66C2527.94 1767.2 2495.92 1798.74 2480.16 1814.06C2465.5 1838.64 2435.21 1889.57 2431.32 1896.64L2376.55 1996.12L2144.44 2273.08C2207.3 2157.89 2333.45 1926.88 2335.23 1924.41L2497.41 1698.25Z" fill="#715331"/>
<path d="M2583.65 1581.53L2926.35 1703.93L2916.61 1721.62L2839.96 1699.59C2828.5 1693.27 2804.3 1680.82 2799.2 1681.47C2792.83 1682.28 2765.34 1681.55 2759.5 1678.33C2753.66 1675.12 2721.74 1676.27 2719.14 1674.84C2717.07 1673.7 2661.71 1677.8 2634.3 1679.99L2572.56 1712.26L2502.71 1691.09L2583.65 1581.53Z" fill="#715331"/>
<path d="M2381 1508.85L2473.22 1539.46L2430.62 1616.83C2410.2 1581.84 2400.7 1560.52 2360.96 1542.47L2381 1508.85Z" fill="#715331"/>
<path d="M2196.02 1451.67L2279.81 1477.64L2265.37 1510.01C2237.79 1488.07 2222.68 1475.13 2183.24 1474.89L2196.02 1451.67Z" fill="#715331"/>
<path d="M2898.36 1754.78C2783.63 1723.85 2717.48 1699.94 2616.85 1719.35L2555.69 1749.06L2547.25 1744.41L2519.26 1795.26L2489.21 1837.55L2376.55 1996.12L2431.32 1896.64C2435.21 1889.57 2465.5 1838.64 2480.16 1814.06C2495.92 1798.74 2527.94 1767.2 2529.89 1763.66L2551.8 1723.87C2548.78 1725.67 2514.28 1707.54 2497.41 1698.25L2502.71 1691.09L2572.56 1712.26L2634.3 1679.99C2661.71 1677.8 2717.07 1673.7 2719.14 1674.84C2721.74 1676.27 2753.66 1675.12 2759.5 1678.33C2765.34 1681.55 2792.83 1682.28 2799.2 1681.47C2804.3 1680.82 2828.5 1693.27 2839.96 1699.59L2916.61 1721.62L2898.36 1754.78Z" fill="#080202"/>
<path d="M2348.25 1595.97L2333.81 1588.02L2360.96 1542.47C2400.7 1560.52 2410.2 1581.84 2430.62 1616.83L2420.28 1635.63L2419.82 1636.26C2408.07 1652.49 2396.55 1668.4 2385.23 1684.03L2398.29 1649.45L2348.25 1595.97Z" fill="#140200"/>
<path d="M2323.8 1663.17L2246.5 1875.56C2168.56 1983.09 2098.68 2079.29 2028 2176.17L2303.43 1639L2323.8 1663.17Z" fill="#EAD19B"/>
<path d="M2348.25 1595.97L2323.8 1663.17L2303.43 1639L2333.81 1588.02L2348.25 1595.97Z" fill="#7B4C17"/>
<path d="M2279.81 1477.64C2331.58 1462.59 2352.88 1471.27 2381 1508.85L2360.96 1542.47L2333.81 1588.02L2303.43 1639L2028 2176.17C1941.98 2294.08 1854.77 2412.99 1750.39 2554.51L1619.77 2452.35L1652.34 2405.47L1785.68 2490.4L2059.15 1979.83L2250.92 1542.39L2265.37 1510.01L2279.81 1477.64Z" fill="#87632F"/>
<path d="M2593.39 1563.84L2583.65 1581.53L2502.71 1691.09L2497.41 1698.25L2335.23 1924.41L2101.95 2249.69L1904.23 2525.41L1825.54 2619.19L1750.39 2554.51C1854.77 2412.99 1941.98 2294.08 2028 2176.17C2098.68 2079.29 2168.56 1983.09 2246.5 1875.56C2289.75 1815.88 2335.49 1752.72 2385.23 1684.03C2396.55 1668.4 2408.07 1652.49 2419.82 1636.26L2420.28 1635.63L2430.62 1616.83L2473.22 1539.46L2593.39 1563.84Z" fill="#EDD49C"/>
<path d="M2144.44 2273.08L2376.55 1996.12L2489.21 1837.55L2186.69 2387.08L2173.3 2403.39L2147.6 2434.7L2052.31 2550.76L2039.28 2566.64L1932.59 2696.59L1847.92 2638.45L1932.98 2525.4L2052.75 2382.49L2144.44 2273.08Z" fill="#EBD299"/>
<path d="M1932.98 2525.4L1904.23 2525.41L2101.95 2249.69L2052.75 2382.49L1932.98 2525.4Z" fill="#D6B56E"/>
<path d="M2147.6 2434.7L2114.03 2532.89L2094.56 2568.26L2052.31 2550.76L2147.6 2434.7Z" fill="#5F3C1E"/>
<path d="M2069.51 2591.92L2039.28 2566.64L2052.31 2550.76L2094.56 2568.26L2114.03 2532.89L2147.6 2434.7L2173.3 2403.39L2090.82 2595.01L2069.51 2591.92Z" fill="#130102"/>
<path d="M1932.59 2696.59L2039.28 2566.64L2069.51 2591.92L2099.74 2617.2C2118.09 2754.02 2187.61 2809.18 2314.13 2906.63C2311.98 2919.95 2309.18 2928.27 2289.79 2950.84L1932.59 2696.59Z" fill="#87632F"/>
<path d="M1904.23 2525.41L1932.98 2525.4L1847.92 2638.45L1825.54 2619.19L1904.23 2525.41Z" fill="#87632F"/>
<path d="M2441.84 1745.44L2466.46 1711.46L2463.87 1710.03L2439.9 1744.37L2441.84 1745.44Z" fill="#D8C18D"/>
<path d="M2235.9 1993.59L2260.52 1959.62L2257.93 1958.19L2233.95 1992.52L2235.9 1993.59Z" fill="#D8C18D"/>
<path d="M2278.46 2192.74L2303.08 2158.77L2300.48 2157.34L2276.51 2191.67L2278.46 2192.74Z" fill="#D8C18D"/>
<path d="M2164.55 2372.01L2189.17 2338.04L2186.57 2336.61L2162.6 2370.94L2164.55 2372.01Z" fill="#D8C18D"/>
<path d="M2367.9 1821.4L2392.52 1787.42L2389.92 1785.99L2365.95 1820.33L2367.9 1821.4Z" fill="#D8C18D"/>
<path d="M2269.17 1902.44L2293.79 1868.46L2291.19 1867.04L2267.22 1901.37L2269.17 1902.44Z" fill="#D8C18D"/>
<path d="M2077.75 2422.17L2102.37 2388.2L2099.77 2386.77L2075.8 2421.1L2077.75 2422.17Z" fill="#D8C18D"/>
<path d="M2085.97 2210.65L2110.59 2176.67L2108 2175.24L2084.02 2209.57L2085.97 2210.65Z" fill="#D8C18D"/>
<path d="M1925.01 2398.58L1949.63 2364.61L1947.04 2363.18L1923.06 2397.51L1925.01 2398.58Z" fill="#D8C18D"/>
<path d="M1981.69 2553.65L2006.31 2519.68L2003.72 2518.25L1979.74 2552.58L1981.69 2553.65Z" fill="#D8C18D"/>
<path d="M2084.31 2474.76L2108.93 2440.78L2106.34 2439.35L2082.36 2473.68L2084.31 2474.76Z" fill="#D8C18D"/>
<path d="M2431.27 1663.28L2455.89 1629.3L2453.29 1627.87L2429.32 1662.21L2431.27 1663.28Z" fill="#D8C18D"/>
<path d="M2317.75 1903.26L2342.38 1869.29L2339.78 1867.86L2315.81 1902.19L2317.75 1903.26Z" fill="#D8C18D"/>
<path d="M2508.57 1639.58L2533.2 1605.61L2530.6 1604.18L2506.63 1638.51L2508.57 1639.58Z" fill="#D8C18D"/>
<path d="M2327.01 1821.94L2351.64 1787.96L2349.04 1786.53L2325.07 1820.87L2327.01 1821.94Z" fill="#D8C18D"/>
<path d="M2125.97 2085.75L2150.6 2051.78L2148 2050.35L2124.03 2084.68L2125.97 2085.75Z" fill="#D8C18D"/>
<path d="M1985.86 2288.05L2010.48 2254.07L2007.89 2252.64L1983.91 2286.98L1985.86 2288.05Z" fill="#D8C18D"/>
<path d="M1855.88 2533.37L1880.5 2499.39L1877.91 2497.96L1853.94 2532.3L1855.88 2533.37Z" fill="#D8C18D"/>
<path d="M1858.57 2445.55L1883.19 2411.57L1880.6 2410.14L1856.62 2444.48L1858.57 2445.55Z" fill="#D8C18D"/>
<path d="M2250.57 1815.14L2262.14 1775.99L2258.65 1777.16L2247.95 1816.01L2250.57 1815.14Z" fill="#D8C18D"/>
<path d="M2260.2 1751.46L2271.78 1712.31L2268.28 1713.48L2257.58 1752.33L2260.2 1751.46Z" fill="#D8C18D"/>
<path d="M2166.49 1967.77L2178.06 1928.62L2174.56 1929.79L2163.86 1968.65L2166.49 1967.77Z" fill="#D8C18D"/>
<path d="M2209.57 1907.95L2221.14 1868.8L2217.64 1869.97L2206.94 1908.82L2209.57 1907.95Z" fill="#D8C18D"/>
<path d="M2123.57 2033.44L2135.14 1994.3L2131.64 1995.46L2120.94 2034.32L2123.57 2033.44Z" fill="#D8C18D"/>
<path d="M2039.89 2382.03L2051.46 2342.89L2047.97 2344.05L2037.27 2382.91L2039.89 2382.03Z" fill="#D8C18D"/>
<path fill-rule="evenodd" clip-rule="evenodd" d="M227.901 1803.7C294.199 1981.95 812.155 1942.82 832.873 2081.95L779.005 2277.59C1325.5 2445.78 1643.07 2437.16 2225.14 2277.59L2158.84 2086.29C2262.43 1916.73 2647.79 1999.34 2776.24 1795C2859.12 1886.3 2780.39 2055.86 2796.96 2160.2L3000 2329.76C2902.5 2420.55 2840.8 2459.81 2718.23 2512.36L2743.09 2642.79C2312.14 2937.79 2043.55 2996.86 1537.29 2994.96C902.726 2982.39 610.985 2917.41 261.05 2647.14C260.448 2592.97 261.066 2562.58 290.055 2508.02C159.245 2453.36 87.1931 2421.64 0 2329.76C88.7611 2275.86 142.477 2252.9 203.039 2147.16C186.343 1953.79 174.725 1840.3 227.901 1803.7ZM261.05 2134.12C242.302 2040.45 239.561 1992.49 244.475 1912.39C372.928 2021.08 592.541 2003.69 750 2068.9C796.406 2118.11 789.644 2131.31 729.282 2134.12C624.138 2095.5 568.906 2090.15 472.376 2090.64C447.755 2081.74 329.534 2328.65 306.63 2455.85C210.05 2411.21 163.478 2383.38 91.1602 2329.76C189.943 2279.01 223.269 2233.03 261.05 2134.12ZM720.994 2268.9L750 2190.64C646.36 2163.06 593.985 2156.89 501.381 2147.16C566.29 2211.69 612.787 2238.28 720.994 2268.9ZM319.061 2612.36C362.454 2429.12 398.076 2341.56 472.376 2199.33C845.534 2410.96 1092.13 2431.96 1537.29 2455.85C1942.14 2407.07 2179.44 2412.95 2535.91 2208.03C2617.24 2362.89 2638.64 2457.2 2676.8 2625.4C2273.43 2879.35 2019.29 2933.01 1537.29 2938.44C920.474 2964.36 575.967 2799.31 319.061 2612.36ZM2254.14 2190.64C2258.48 2224.5 2264.27 2240.52 2279.01 2264.55C2399.45 2229.33 2431.44 2196.95 2498.62 2142.81C2401.86 2153.73 2347.76 2161.45 2254.14 2190.64ZM2755.52 1908.04C2614.64 2012.38 2291.44 1994.28 2225.14 2103.68C2206.59 2146.18 2374.31 2094.99 2519.34 2094.99C2579.55 2130.56 2618.92 2242.9 2689.23 2447.15C2750.95 2442.19 2806.51 2406.1 2912.98 2329.76C2843.44 2293.71 2804.79 2270.3 2743.09 2160.2C2718.23 2064.56 2762.77 2001.94 2755.52 1908.04Z" fill="black"/>
<path d="M472.376 2199.33C398.076 2341.56 362.454 2429.12 319.061 2612.36C575.967 2799.31 920.474 2964.36 1537.29 2938.44C2019.29 2933.01 2273.43 2879.35 2676.8 2625.4C2638.64 2457.2 2617.24 2362.89 2535.91 2208.03C2179.44 2412.95 1942.14 2407.07 1537.29 2455.85C1092.13 2431.96 845.534 2410.96 472.376 2199.33Z" fill="#B42829"/>
<path d="M750 2190.64L720.994 2268.9C612.787 2238.28 566.29 2211.69 501.381 2147.16C593.985 2156.89 646.36 2163.06 750 2190.64Z" fill="#B42829"/>
<path d="M244.475 1912.39C239.561 1992.49 242.302 2040.45 261.05 2134.12C223.269 2233.03 189.943 2279.01 91.1602 2329.76C163.478 2383.38 210.05 2411.21 306.63 2455.85C329.534 2328.65 447.755 2081.74 472.376 2090.64C568.906 2090.15 624.138 2095.5 729.282 2134.12C789.644 2131.31 796.406 2118.11 750 2068.9C592.541 2003.69 372.928 2021.08 244.475 1912.39Z" fill="#B42829"/>
<path d="M2225.14 2103.68C2291.44 1994.28 2614.64 2012.38 2755.52 1908.04C2762.77 2001.94 2718.23 2064.56 2743.09 2160.2C2804.79 2270.3 2843.44 2293.71 2912.98 2329.76C2806.51 2406.1 2750.95 2442.19 2689.23 2447.15C2618.92 2242.9 2579.55 2130.56 2519.34 2094.99C2374.31 2094.99 2206.59 2146.18 2225.14 2103.68Z" fill="#B42829"/>
<path d="M2279.01 2264.55C2264.27 2240.52 2258.48 2224.5 2254.14 2190.64C2347.76 2161.45 2401.86 2153.73 2498.62 2142.81C2431.44 2196.95 2399.45 2229.33 2279.01 2264.55Z" fill="#B42829"/>
<path d="M977.45 2523.01V2550.31C974.65 2561.28 972.317 2570.96 970.45 2579.36C968.817 2587.53 967.533 2595.11 966.6 2602.11C965.667 2609.11 965.083 2615.76 964.85 2622.06C964.85 2628.36 965.083 2635.01 965.55 2642.01C966.017 2650.41 965.783 2657.99 964.85 2664.76C963.917 2671.53 962.983 2677.71 962.05 2683.31C961.35 2688.91 960.883 2694.28 960.65 2699.41C960.417 2704.31 961.117 2709.33 962.75 2714.46L964.5 2723.21L958.55 2733.36L912 2742.46L899.4 2734.41C899.633 2733.48 900.917 2732.19 903.25 2730.56C905.817 2728.69 907.1 2726.83 907.1 2724.96C907.1 2722.16 907.1 2720.18 907.1 2719.01C907.1 2717.84 906.867 2715.98 906.4 2713.41C905.933 2712.24 906.517 2708.51 908.15 2702.21C910.017 2695.68 910.833 2686.81 910.6 2675.61C910.6 2670.01 910.6 2665.93 910.6 2663.36C910.833 2660.56 910.95 2658.81 910.95 2658.11C911.183 2657.18 911.183 2656.83 910.95 2657.06C910.95 2657.29 910.717 2657.41 910.25 2657.41C910.483 2655.54 910.833 2653.44 911.3 2651.11C911.767 2648.54 912.233 2645.98 912.7 2643.41C913.167 2642.01 913.517 2640.61 913.75 2639.21C913.983 2637.81 914.217 2636.29 914.45 2634.66C915.15 2633.96 915.033 2632.56 914.1 2630.46C913.4 2628.36 912.583 2626.73 911.65 2625.56C910.95 2624.39 910.6 2623.93 910.6 2624.16C910.6 2624.16 910.833 2624.16 911.3 2624.16C911.767 2624.16 912.467 2623.69 913.4 2622.76C914.333 2621.59 915.267 2619.38 916.2 2616.11L913.75 2600.71C914.217 2600.71 914.567 2600.83 914.8 2601.06C915.267 2601.29 915.5 2601.18 915.5 2600.71C915.5 2600.01 915.383 2598.73 915.15 2596.86C914.917 2594.99 914.45 2592.08 913.75 2588.11C912.817 2580.41 912.7 2575.86 913.4 2574.46C914.1 2572.83 915.15 2572.13 916.55 2572.36C917.717 2571.43 918.65 2570.49 919.35 2569.56C920.283 2568.63 920.867 2567.46 921.1 2566.06C921.333 2564.66 921.217 2562.79 920.75 2560.46C920.517 2557.89 919.817 2554.63 918.65 2550.66C917.483 2547.16 917.6 2543.66 919 2540.16C920.4 2536.66 921.217 2533.16 921.45 2529.66L928.8 2522.31C932.067 2522.31 936.383 2522.31 941.75 2522.31C947.117 2522.08 951.783 2521.84 955.75 2521.61C964.15 2520.91 970.217 2520.56 973.95 2520.56L977.45 2523.01Z" fill="black"/>
<path d="M1161.58 2607.71C1159.48 2607.71 1156.57 2607.71 1152.83 2607.71C1149.1 2607.71 1145.02 2607.71 1140.58 2607.71C1136.38 2607.48 1132.18 2607.36 1127.98 2607.36C1123.78 2607.36 1120.17 2607.36 1117.13 2607.36L1118.53 2621.71C1118.53 2622.41 1118.18 2623.34 1117.48 2624.51C1116.78 2625.68 1115.97 2626.96 1115.03 2628.36C1114.1 2629.76 1113.17 2631.16 1112.23 2632.56C1111.3 2633.96 1110.72 2635.01 1110.48 2635.71C1110.02 2636.64 1110.13 2638.74 1110.83 2642.01C1111.77 2645.28 1111.65 2648.19 1110.48 2650.76C1110.95 2651.93 1111.07 2653.44 1110.83 2655.31C1110.83 2657.18 1110.6 2659.04 1110.13 2660.91C1109.9 2662.78 1109.55 2664.53 1109.08 2666.16C1108.85 2667.79 1108.73 2668.96 1108.73 2669.66C1108.73 2670.36 1108.73 2670.94 1108.73 2671.41C1108.97 2671.64 1109.08 2671.99 1109.08 2672.46C1109.32 2672.93 1109.55 2673.74 1109.78 2674.91C1110.25 2675.84 1110.72 2677.48 1111.18 2679.81C1111.42 2680.74 1111.42 2682.26 1111.18 2684.36C1111.18 2686.46 1110.95 2690.31 1110.48 2695.91C1110.25 2698.24 1110.02 2699.76 1109.78 2700.46C1109.55 2700.93 1109.32 2701.39 1109.08 2701.86C1108.85 2702.33 1108.62 2703.14 1108.38 2704.31C1108.38 2705.24 1108.38 2707.34 1108.38 2710.61L1103.83 2727.06L1104.88 2730.91L1098.93 2751.91C1095.67 2752.38 1092.52 2752.73 1089.48 2752.96C1086.45 2753.43 1083.42 2753.89 1080.38 2754.36C1075.48 2755.06 1070.7 2755.64 1066.03 2756.11C1061.6 2756.58 1058.45 2756.81 1056.58 2756.81C1054.72 2756.81 1053.9 2754.71 1054.13 2750.51C1054.37 2746.31 1055.07 2741.64 1056.23 2736.51C1057.4 2729.98 1059.15 2723.21 1061.48 2716.21C1061.25 2715.28 1061.13 2714.69 1061.13 2714.46C1061.37 2713.99 1061.48 2713.41 1061.48 2712.71C1061.72 2712.01 1061.95 2710.84 1062.18 2709.21C1062.65 2707.58 1063 2704.89 1063.23 2701.16C1063.93 2693.46 1064.4 2687.86 1064.63 2684.36C1065.1 2680.63 1065.33 2677.83 1065.33 2675.96C1065.33 2675.26 1065.22 2674.09 1064.98 2672.46C1064.98 2670.83 1064.75 2669.54 1064.28 2668.61L1065.68 2638.51C1068.02 2637.11 1068.83 2635.59 1068.13 2633.96C1067.43 2632.33 1067.43 2631.04 1068.13 2630.11C1068.83 2627.78 1069.42 2625.33 1069.88 2622.76C1070.58 2620.19 1071.4 2615.41 1072.33 2608.41L1064.98 2607.01C1063.58 2606.54 1062.18 2606.43 1060.78 2606.66C1057.75 2606.89 1052.97 2608.88 1046.43 2612.61L1034.53 2603.86C1032.43 2601.99 1031.85 2599.66 1032.78 2596.86C1033.95 2593.83 1035.82 2591.03 1038.38 2588.46L1063.58 2584.96L1073.38 2584.26C1075.02 2586.13 1076.42 2587.18 1077.58 2587.41C1078.75 2587.41 1079.68 2587.06 1080.38 2586.36C1081.32 2585.66 1082.02 2584.61 1082.48 2583.21C1082.95 2581.81 1083.3 2580.53 1083.53 2579.36C1083.53 2578.89 1083.53 2578.54 1083.53 2578.31C1083.77 2577.84 1083.88 2577.49 1083.88 2577.26V2576.56C1083.88 2576.33 1083.77 2575.28 1083.53 2573.41C1083.3 2571.54 1082.25 2570.03 1080.38 2568.86C1079.68 2568.39 1078.52 2567.46 1076.88 2566.06C1075.25 2564.66 1074.43 2563.84 1074.43 2563.61C1075.13 2561.74 1075.48 2559.64 1075.48 2557.31C1075.72 2554.98 1075.83 2552.53 1075.83 2549.96L1080.73 2540.51C1081.2 2539.81 1081.9 2538.76 1082.83 2537.36C1083.77 2535.96 1085.17 2534.33 1087.03 2532.46L1092.63 2527.21L1114.33 2514.96L1153.53 2516.01L1171.73 2530.01L1171.38 2535.61L1162.98 2543.31L1158.78 2542.96L1151.08 2533.51C1148.05 2531.41 1145.02 2530.36 1141.98 2530.36C1138.95 2530.13 1136.03 2530.71 1133.23 2532.11C1130.67 2533.51 1128.22 2535.49 1125.88 2538.06C1123.55 2540.63 1121.45 2543.54 1119.58 2546.81V2548.21C1119.58 2550.31 1119.7 2551.71 1119.93 2552.41C1120.17 2555.91 1120.52 2557.89 1120.98 2558.36C1120.98 2561.16 1120.28 2564.31 1118.88 2567.81C1117.72 2571.31 1117.25 2576.56 1117.48 2583.56H1145.83C1149.1 2584.96 1155.87 2585.43 1166.13 2584.96C1168 2584.96 1169.52 2584.96 1170.68 2584.96C1172.08 2584.73 1173.37 2584.61 1174.53 2584.61L1177.33 2591.61L1172.08 2602.11L1161.58 2607.71Z" fill="black"/>
<path d="M1363.54 2595.11L1356.89 2644.11L1357.94 2664.06L1356.19 2685.06L1350.94 2705.36L1330.64 2735.46C1321.77 2742.23 1312.21 2746.78 1301.94 2749.11C1291.67 2751.44 1280.59 2752.03 1268.69 2750.86L1252.24 2743.51H1242.79C1239.06 2743.51 1232.52 2739.89 1223.19 2732.66C1219.22 2729.63 1215.84 2726.94 1213.04 2724.61C1212.34 2724.14 1211.64 2723.68 1210.94 2723.21C1210.47 2722.74 1210.01 2722.28 1209.54 2721.81C1209.54 2719.94 1209.31 2717.61 1208.84 2714.81C1208.37 2712.01 1207.67 2708.51 1206.74 2704.31C1206.04 2700.11 1205.34 2696.84 1204.64 2694.51C1204.17 2691.94 1203.82 2690.08 1203.59 2688.91C1203.59 2688.21 1203.71 2687.39 1203.94 2686.46C1204.17 2685.29 1204.17 2684.24 1203.94 2683.31C1203.94 2682.14 1203.59 2681.21 1202.89 2680.51C1202.19 2679.81 1200.91 2679.46 1199.04 2679.46L1200.09 2659.86C1201.02 2657.29 1201.49 2655.54 1201.49 2654.61C1201.49 2653.68 1201.37 2652.86 1201.14 2652.16C1200.91 2651.46 1200.79 2650.53 1200.79 2649.36C1200.79 2648.19 1201.37 2646.21 1202.54 2643.41L1204.29 2630.46C1206.39 2631.16 1208.02 2630.58 1209.19 2628.71C1210.59 2626.84 1211.41 2624.63 1211.64 2622.06C1212.11 2619.26 1211.99 2616.81 1211.29 2614.71C1210.59 2612.38 1209.19 2611.21 1207.09 2611.21C1206.16 2609.34 1205.57 2607.36 1205.34 2605.26C1205.11 2602.93 1205.22 2601.76 1205.69 2601.76C1205.69 2600.36 1205.57 2598.73 1205.34 2596.86C1205.11 2594.99 1204.99 2591.49 1204.99 2586.36L1215.14 2577.96C1217.94 2578.19 1221.44 2578.43 1225.64 2578.66C1229.84 2578.66 1234.16 2578.66 1238.59 2578.66C1243.26 2578.66 1247.69 2578.78 1251.89 2579.01C1256.09 2579.01 1259.47 2579.24 1262.04 2579.71L1264.84 2584.26C1263.44 2588.93 1262.74 2592.31 1262.74 2594.41C1262.51 2595.81 1262.51 2596.98 1262.74 2597.91L1262.04 2614.01C1261.34 2615.41 1260.64 2617.51 1259.94 2620.31C1259.47 2622.88 1259.01 2625.79 1258.54 2629.06C1258.31 2632.09 1258.07 2635.24 1257.84 2638.51C1257.61 2641.78 1257.49 2644.58 1257.49 2646.91C1256.32 2650.88 1255.16 2655.08 1253.99 2659.51C1252.82 2663.71 1252.71 2667.68 1253.64 2671.41C1254.11 2672.58 1254.34 2674.09 1254.34 2675.96C1254.57 2677.59 1255.39 2680.74 1256.79 2685.41C1256.32 2686.81 1255.97 2688.56 1255.74 2690.66C1255.51 2692.76 1255.39 2694.98 1255.39 2697.31C1255.62 2699.41 1256.09 2701.63 1256.79 2703.96C1257.72 2706.06 1259.01 2707.81 1260.64 2709.21L1273.94 2719.71L1294.94 2721.46C1297.27 2724.49 1299.37 2726.01 1301.24 2726.01C1303.11 2725.78 1304.62 2723.33 1305.79 2718.66L1318.04 2711.31L1327.84 2685.41L1328.19 2669.31V2652.16C1332.86 2648.89 1335.42 2645.39 1335.89 2641.66C1336.36 2637.93 1333.91 2633.49 1328.54 2628.36L1327.49 2588.11L1334.49 2581.81L1355.84 2583.56L1363.54 2595.11Z" fill="black"/>
<path d="M1540.61 2673.16C1538.28 2674.79 1535.01 2675.61 1530.81 2675.61C1527.54 2675.61 1524.74 2675.61 1522.41 2675.61C1520.31 2675.61 1518.56 2675.49 1517.16 2675.26L1507.36 2681.56C1506.66 2681.79 1505.38 2682.14 1503.51 2682.61C1502.34 2683.08 1500.83 2683.54 1498.96 2684.01C1497.33 2684.48 1495.34 2685.18 1493.01 2686.11C1488.34 2687.28 1484.03 2688.79 1480.06 2690.66C1476.33 2692.53 1472.83 2694.51 1469.56 2696.61C1467.93 2698.48 1465.94 2699.64 1463.61 2700.11C1461.28 2700.34 1460.23 2700.93 1460.46 2701.86C1459.29 2705.13 1458.36 2708.04 1457.66 2710.61C1456.96 2713.18 1456.61 2715.86 1456.61 2718.66C1456.61 2721.93 1456.61 2724.84 1456.61 2727.41C1456.61 2729.98 1456.38 2731.96 1455.91 2733.36L1495.81 2718.31C1498.38 2718.78 1500.36 2719.01 1501.76 2719.01C1503.16 2719.01 1504.44 2719.01 1505.61 2719.01C1506.78 2719.24 1508.06 2719.01 1509.46 2718.31C1510.86 2717.38 1512.84 2716.33 1515.41 2715.16L1523.46 2715.51L1545.51 2722.16L1549.01 2727.06C1549.48 2729.16 1550.41 2732.19 1551.81 2736.16C1553.44 2739.89 1554.61 2743.63 1555.31 2747.36C1555.78 2749.23 1556.24 2751.33 1556.71 2753.66C1557.41 2756.23 1558.23 2759.14 1559.16 2762.41C1560.79 2768.94 1562.19 2772.56 1563.36 2773.26L1560.21 2782.36L1563.36 2791.11L1561.61 2797.76L1542.71 2812.11C1541.78 2811.88 1540.96 2811.64 1540.26 2811.41C1539.56 2811.18 1538.86 2810.94 1538.16 2810.71C1536.99 2810.24 1535.83 2809.89 1534.66 2809.66C1533.49 2809.43 1532.56 2809.31 1531.86 2809.31L1504.56 2821.91C1503.63 2821.68 1502.58 2821.44 1501.41 2821.21C1500.48 2821.21 1499.43 2820.98 1498.26 2820.51C1496.16 2820.04 1493.36 2819.46 1489.86 2818.76C1486.59 2818.29 1482.74 2817.59 1478.31 2816.66C1473.88 2815.73 1468.74 2814.79 1462.91 2813.86C1457.31 2812.93 1451.83 2812.11 1446.46 2811.41C1441.33 2810.71 1436.54 2810.24 1432.11 2810.01C1427.91 2809.78 1424.99 2809.78 1423.36 2810.01L1407.61 2806.86L1404.46 2804.06L1398.86 2781.31L1400.61 2774.31C1406.21 2771.51 1410.99 2767.54 1414.96 2762.41C1418.93 2757.51 1421.14 2751.33 1421.61 2743.86C1421.84 2739.89 1421.96 2736.63 1421.96 2734.06C1421.96 2731.49 1421.96 2729.39 1421.96 2727.76C1421.96 2726.13 1421.84 2724.84 1421.61 2723.91C1421.61 2722.98 1421.61 2721.93 1421.61 2720.76L1424.41 2705.01L1429.66 2700.46L1431.41 2682.61C1430.71 2681.68 1429.66 2680.28 1428.26 2678.41C1427.09 2676.31 1425.69 2674.09 1424.06 2671.76C1422.43 2669.43 1420.79 2667.21 1419.16 2665.11C1417.76 2662.78 1416.48 2660.79 1415.31 2659.16L1416.36 2640.96L1432.46 2607.71L1441.56 2594.41L1475.86 2578.66L1513.31 2593.71L1522.06 2589.51C1522.76 2589.51 1523.46 2589.39 1524.16 2589.16C1524.86 2588.93 1525.79 2588.81 1526.96 2588.81C1528.13 2588.58 1529.64 2588.23 1531.51 2587.76C1535.01 2587.29 1538.04 2586.01 1540.61 2583.91C1543.18 2581.81 1545.63 2579.01 1547.96 2575.51C1549.83 2577.84 1551.58 2579.94 1553.21 2581.81C1554.84 2583.68 1556.36 2585.43 1557.76 2587.06C1558.69 2587.99 1559.51 2588.93 1560.21 2589.86C1560.91 2590.56 1561.61 2591.26 1562.31 2591.96V2610.16L1558.81 2613.66L1534.31 2618.91L1537.46 2630.11L1538.51 2646.21L1544.46 2661.61L1540.61 2673.16ZM1458.36 2670.71L1493.36 2662.31C1494.99 2660.68 1496.16 2658.23 1496.86 2654.96C1497.79 2651.46 1496.63 2648.08 1493.36 2644.81L1484.26 2628.71L1473.76 2607.71H1461.16L1460.46 2620.31C1454.39 2619.14 1450.43 2621.94 1448.56 2628.71C1447.39 2632.21 1446.46 2635.13 1445.76 2637.46C1445.06 2639.56 1444.59 2641.43 1444.36 2643.06L1458.36 2670.71ZM1451.01 2790.41L1486.36 2795.31C1499.43 2796.48 1507.94 2796.48 1511.91 2795.31C1512.14 2794.14 1512.26 2792.86 1512.26 2791.46C1512.49 2790.29 1512.49 2789.13 1512.26 2787.96C1512.26 2785.63 1511.21 2782.83 1509.11 2779.56C1507.01 2776.53 1505.96 2773.49 1505.96 2770.46C1505.96 2769.29 1506.31 2768.59 1507.01 2768.36C1507.71 2768.36 1507.83 2767.78 1507.36 2766.61C1507.13 2765.68 1506.89 2764.04 1506.66 2761.71C1506.66 2759.38 1506.54 2756.93 1506.31 2754.36C1506.08 2751.79 1505.73 2749.34 1505.26 2747.01C1505.03 2744.68 1504.56 2743.16 1503.86 2742.46C1502.46 2742.93 1500.13 2743.74 1496.86 2744.91C1493.83 2746.08 1490.44 2747.24 1486.71 2748.41C1483.21 2749.58 1479.83 2750.74 1476.56 2751.91C1473.29 2752.84 1470.96 2753.43 1469.56 2753.66C1467.46 2757.86 1464.66 2760.43 1461.16 2761.36C1457.89 2762.53 1454.28 2764.04 1450.31 2765.91C1451.01 2767.78 1450.43 2769.64 1448.56 2771.51C1446.93 2772.68 1442.61 2774.78 1435.61 2777.81C1428.38 2781.08 1424.29 2784.23 1423.36 2787.26L1451.01 2790.41Z" fill="black"/>
<path d="M1776.5 2725.66L1727.5 2731.61L1717.35 2715.16C1717.35 2712.13 1715.01 2712.24 1710.35 2715.51C1709.18 2716.21 1708.01 2717.38 1706.85 2719.01C1705.68 2720.64 1704.51 2722.28 1703.35 2723.91C1702.65 2724.84 1701.95 2725.78 1701.25 2726.71C1700.55 2727.64 1699.85 2728.69 1699.15 2729.86C1691.91 2735.23 1684.45 2738.73 1676.75 2740.36C1669.28 2741.99 1662.86 2740.94 1657.5 2737.21C1653.53 2736.74 1650.85 2735.81 1649.45 2734.41C1648.75 2733.94 1647.81 2733.13 1646.65 2731.96L1624.25 2730.56L1614.8 2726.01L1606.05 2703.96L1607.8 2696.61L1600.1 2665.81L1614.8 2641.31L1626.7 2630.46C1631.13 2628.13 1636.26 2626.26 1642.1 2624.86C1647.93 2623.46 1653.76 2622.53 1659.6 2622.06C1665.43 2621.36 1671.03 2621.24 1676.4 2621.71C1681.76 2621.94 1686.2 2622.64 1689.7 2623.81C1689.7 2627.54 1690.86 2629.99 1693.2 2631.16C1695.53 2632.33 1700.08 2633.61 1706.85 2635.01C1709.18 2631.04 1710.35 2626.26 1710.35 2620.66C1710.35 2614.83 1709.3 2608.76 1707.2 2602.46L1701.6 2584.61C1699.73 2583.91 1696.81 2582.74 1692.85 2581.11C1689.11 2579.24 1685.96 2577.73 1683.4 2576.56L1668.35 2579.01L1652.95 2582.16L1649.45 2576.56L1653.3 2567.46L1655.75 2561.86L1660.65 2560.81L1676.75 2558.01L1691.1 2562.91L1706.85 2560.46L1737.3 2569.56L1750.25 2589.16L1754.8 2644.81L1753.75 2662.31L1761.45 2703.26L1766 2705.36H1776.85L1781.4 2717.61L1776.5 2725.66ZM1648.05 2668.61C1646.88 2674.68 1646.88 2679.81 1648.05 2684.01C1649.45 2688.21 1651.66 2691.71 1654.7 2694.51L1659.95 2705.36C1664.15 2706.76 1668.11 2707.81 1671.85 2708.51C1675.58 2709.21 1679.43 2709.33 1683.4 2708.86C1687.6 2708.16 1691.91 2706.88 1696.35 2705.01C1701.01 2702.91 1706.38 2699.88 1712.45 2695.91L1713.15 2678.06L1706.85 2646.91C1703.58 2645.74 1700.66 2645.16 1698.1 2645.16C1695.76 2645.16 1693.43 2645.39 1691.1 2645.86C1688.3 2646.56 1685.03 2647.14 1681.3 2647.61C1677.56 2648.08 1673.71 2648.66 1669.75 2649.36C1666.01 2649.83 1662.51 2650.53 1659.25 2651.46C1656.21 2652.16 1654 2653.21 1652.6 2654.61L1648.05 2668.61Z" fill="black"/>
<path d="M1964.3 2621.36C1965 2625.33 1965.35 2628.83 1965.35 2631.86C1965.35 2634.66 1965.23 2637.46 1965 2640.26C1965 2642.83 1965.11 2645.39 1965.35 2647.96C1965.81 2650.29 1966.75 2652.86 1968.15 2655.66C1967.68 2656.59 1966.51 2658.46 1964.65 2661.26C1963.01 2663.83 1961.85 2666.51 1961.15 2669.31C1960.68 2671.88 1960.33 2673.86 1960.1 2675.26C1959.86 2676.66 1959.63 2677.59 1959.4 2678.06C1960.1 2678.53 1960.68 2679.46 1961.15 2680.86C1961.38 2682.03 1961.15 2683.54 1960.45 2685.41C1959.75 2687.04 1958.35 2689.38 1956.25 2692.41C1952.05 2698.01 1949.71 2702.79 1949.25 2706.76C1948.78 2710.49 1947.85 2713.41 1946.45 2715.51C1945.98 2715.98 1944.46 2716.68 1941.9 2717.61C1939.56 2718.54 1936.76 2719.71 1933.5 2721.11C1930.23 2722.28 1926.96 2723.68 1923.7 2725.31C1920.43 2726.94 1917.86 2728.58 1916 2730.21C1912.03 2730.91 1908.53 2731.84 1905.5 2733.01C1902.46 2734.18 1898.73 2734.99 1894.3 2735.46C1890.1 2736.39 1885.78 2737.56 1881.35 2738.96C1876.91 2740.13 1874.46 2740.71 1874 2740.71C1863.03 2740.71 1856.5 2741.06 1854.4 2741.76C1852.53 2742.46 1850.31 2742.81 1847.75 2742.81L1815.9 2731.26L1801.2 2709.91C1801.2 2704.31 1800.96 2699.64 1800.5 2695.91C1800.26 2691.94 1799.91 2688.56 1799.45 2685.76C1798.98 2682.73 1798.63 2679.93 1798.4 2677.36C1798.16 2674.79 1798.16 2671.88 1798.4 2668.61C1799.1 2667.91 1800.15 2666.28 1801.55 2663.71C1802.95 2660.91 1804.35 2657.76 1805.75 2654.26C1807.38 2650.76 1808.9 2647.14 1810.3 2643.41C1811.93 2639.68 1813.1 2636.53 1813.8 2633.96C1815.66 2628.59 1817.06 2623.93 1818 2619.96C1818.93 2615.76 1819.63 2612.03 1820.1 2608.76C1821.96 2607.59 1823.48 2606.31 1824.65 2604.91C1825.81 2603.51 1826.98 2602.34 1828.15 2601.41C1837.71 2595.81 1846 2591.26 1853 2587.76C1860 2584.03 1866.53 2581.69 1872.6 2580.76L1883.1 2580.06C1884.26 2580.29 1885.31 2580.53 1886.25 2580.76C1887.18 2580.99 1888.11 2581.23 1889.05 2581.46C1890.45 2581.93 1891.73 2582.28 1892.9 2582.51C1894.06 2582.51 1894.76 2582.51 1895 2582.51L1902 2593.36C1902 2595.46 1901.53 2597.21 1900.6 2598.61C1899.66 2599.78 1900.6 2600.59 1903.4 2601.06C1906.43 2601.76 1908.06 2602.23 1908.3 2602.46V2602.81C1912.03 2602.81 1915.88 2601.99 1919.85 2600.36C1923.81 2598.49 1927.78 2597.56 1931.75 2597.56C1932.68 2597.56 1934.31 2598.03 1936.65 2598.96C1938.98 2599.66 1941.43 2600.59 1944 2601.76C1946.56 2602.93 1948.9 2604.09 1951 2605.26C1953.33 2606.19 1954.96 2606.89 1955.9 2607.36C1955.43 2610.86 1955.55 2613.31 1956.25 2614.71C1956.95 2616.11 1957.88 2617.16 1959.05 2617.86C1960.21 2618.33 1961.26 2618.79 1962.2 2619.26C1963.36 2619.49 1964.06 2620.19 1964.3 2621.36ZM1901.65 2708.86C1905.15 2706.53 1908.53 2699.06 1911.8 2686.46C1913.66 2679.69 1915.18 2674.68 1916.35 2671.41C1917.75 2667.91 1918.45 2664.64 1918.45 2661.61C1918.45 2656.48 1916.7 2650.41 1913.2 2643.41C1911.33 2639.68 1909.93 2636.53 1909 2633.96C1908.06 2631.39 1907.36 2628.83 1906.9 2626.26C1905.03 2625.33 1903.98 2623.93 1903.75 2622.06C1903.75 2619.96 1902.81 2617.86 1900.95 2615.76C1898.61 2613.89 1897.21 2613.19 1896.75 2613.66C1896.28 2614.13 1895.81 2614.36 1895.35 2614.36H1892.2C1890.33 2614.36 1887.76 2614.71 1884.5 2615.41C1881.46 2616.11 1879.01 2617.74 1877.15 2620.31C1874.35 2623.34 1871.9 2625.79 1869.8 2627.66C1867.93 2629.29 1866.88 2630.34 1866.65 2630.81C1864.31 2635.24 1862.21 2639.09 1860.35 2642.36C1858.48 2645.39 1856.96 2647.84 1855.8 2649.71L1852.65 2657.06C1851.25 2660.56 1850.66 2665.23 1850.9 2671.06C1851.36 2671.99 1851.83 2674.09 1852.3 2677.36C1852.76 2680.39 1851.36 2683.66 1848.1 2687.16C1847.4 2687.86 1846.7 2689.26 1846 2691.36C1845.3 2693.23 1844.83 2695.44 1844.6 2698.01C1844.36 2700.58 1844.6 2703.14 1845.3 2705.71C1846.23 2708.28 1847.98 2710.49 1850.55 2712.36C1853.81 2714.69 1857.2 2717.03 1860.7 2719.36C1864.2 2721.46 1866.41 2722.51 1867.35 2722.51H1871.2C1872.6 2722.51 1873.88 2722.86 1875.05 2723.56L1901.65 2708.86Z" fill="black"/>
</svg>
