<svg width="3063" height="3281" viewBox="0 0 3063 3281" fill="none" xmlns="http://www.w3.org/2000/svg">
<defs>
<linearGradient id="paint0_linear_2271_17674" x1="1531.01" y1="0" x2="1531.01" y2="4611.44" gradientUnits="userSpaceOnUse">
<stop offset="0.118944" stop-color="#B32428"/>
<stop offset="0.559537" stop-color="#F2DB60"/>
</linearGradient>
<linearGradient id="paint1_linear_2271_17674" x1="1531.01" y1="0" x2="1531.01" y2="4611.44" gradientUnits="userSpaceOnUse">
<stop offset="0.118944" stop-color="#B32428"/>
<stop offset="0.559537" stop-color="#F2DB60"/>
</linearGradient>
</defs>
<path fill-rule="evenodd" clip-rule="evenodd" d="M1500 3000C2328.43 3000 3000 2328.43 3000 1500C3000 671.573 2328.43 0 1500 0C671.573 0 0 671.573 0 1500C0 2328.43 671.573 3000 1500 3000ZM312.5 771C149.7 983 104 1345.33 101.5 1500C101.5 1934.81 323.5 2284.5 434.5 2405C516.167 2510.33 765.8 2745.5 1111 2843.5C1456.2 2941.5 1768.83 2884.33 1882 2843.5C1920.5 2841.17 2056.6 2799.8 2293 2653C2529.4 2506.2 2699.5 2224.83 2755 2102.5C2798 2025.5 2887.4 1797.2 2901 1500C2914.6 1202.8 2768.67 890.167 2694 771C2651 711 2537.1 562.4 2425.5 448C2313.9 333.6 2084.67 223.667 1984 183C1935.33 166 1770.4 125.9 1500 101.5C1229.6 77.1 896.667 229.667 764 309C671.167 361 450.9 526.2 312.5 771Z" fill="url(#paint0_linear_2271_17674)"/>
<path d="M2434.6 2717.42L921.63 2975.86C921.63 2975.86 920.359 3000.51 927.977 3009.53C935.596 3018.55 2425.5 2752.84 2433.54 2743.19C2441.59 2733.54 2434.6 2717.42 2434.6 2717.42Z" fill="#BC896E"/>
<path d="M921.63 2975.86L2434.6 2717.42C2434.6 2717.42 2451.91 2686.26 2455.24 2675.17C2458.58 2664.08 2437.52 2557.63 2419.91 2540.03C2402.29 2522.43 1920.55 2491.18 1920.55 2491.18L1791.23 2446.08L1816.9 2482.82L1847.69 2504.92C1871.2 2520.63 1921.26 2553.58 1933.45 2559.65C1948.69 2567.24 2034.46 2590.6 2071.18 2570.89C2107.9 2551.18 2203.5 2558.73 2212.08 2557.12C2218.93 2555.83 2183.29 2585.79 2164.61 2600.93C2144.77 2611.65 2101.85 2633.69 2088.9 2636.13C2072.71 2639.18 1994.61 2632.98 1983.66 2635.04C1972.71 2637.1 1937.94 2664.58 1917.94 2668.35C1897.94 2672.12 1792.12 2717.64 1766.41 2722.48C1740.69 2727.33 1557.78 2764.13 1542.59 2764.67C1530.45 2765.1 1398.24 2760.1 1333.65 2757.55L882.65 2818.15L921.63 2975.86Z" fill="#B57657"/>
<path fill-rule="evenodd" clip-rule="evenodd" d="M1723.67 2422.52L1676.37 2490.71L1642.34 2527.35C1629.01 2526.37 1601.26 2524.4 1596.9 2524.29C1592.54 2524.18 1571.55 2509.31 1561.61 2501.88L1500.71 2526.74L1497.96 2527.86L1467.28 2540.39L1452.17 2546.55L1376.45 2577.46C1372.85 2588.6 1364.82 2611.04 1361.39 2611.69C1357.1 2612.49 1309.96 2631.84 1286.62 2636.24C1263.29 2640.64 1205.46 2671.3 1167.36 2678.48C1129.27 2685.66 1108.68 2704.65 1099.64 2706.35C1090.59 2708.06 1113.87 2737.38 1121.96 2735.85L1227.68 2715.93C1243.39 2712.96 1274.03 2721.14 1284.71 2720.29C1295.4 2719.43 1331.96 2748.58 1333.65 2757.55C1398.24 2760.1 1530.45 2765.1 1542.59 2764.67C1557.78 2764.13 1740.69 2727.33 1766.41 2722.48C1792.12 2717.64 1897.94 2672.12 1917.94 2668.35C1937.94 2664.58 1972.71 2637.1 1983.66 2635.04C1994.61 2632.98 2072.71 2639.18 2088.9 2636.13C2101.85 2633.69 2144.77 2611.65 2164.61 2600.93C2183.29 2585.79 2218.93 2555.83 2212.08 2557.12C2203.5 2558.73 2107.9 2551.18 2071.18 2570.89C2034.46 2590.6 1948.69 2567.24 1933.45 2559.65C1921.26 2553.58 1871.2 2520.63 1847.69 2504.92L1816.9 2482.82L1791.23 2446.08L1765.37 2437.06L1738.45 2427.67L1723.67 2422.52ZM1756.42 2556.99L1756.26 2522.15L1774.36 2518.74L1783.3 2532.16L1794.51 2560.27L1793.45 2586.04C1787.74 2587.12 1774.5 2587.52 1767.26 2580.52C1760.02 2573.51 1757.02 2561.91 1756.42 2556.99ZM1466.41 2622.11C1467.94 2630.19 1483.17 2632.51 1490.59 2632.66L1487.84 2618.07C1489.98 2607.6 1493.7 2583.73 1491.5 2572.05C1488.75 2557.46 1487.11 2556.61 1481.66 2546.01C1476.21 2535.41 1464.04 2549.33 1461.39 2561.45C1458.74 2573.58 1453.35 2571.11 1452.92 2579.32C1452.5 2587.54 1464.51 2612.01 1466.41 2622.11Z" fill="#AD8F79"/>
<path d="M873.866 2782.61C870.373 2790.25 882.65 2818.15 882.65 2818.15L1333.65 2757.55C1331.96 2748.58 1295.4 2719.43 1284.71 2720.29C1274.03 2721.14 1243.39 2712.96 1227.68 2715.93L1121.96 2735.85C1113.87 2737.38 1090.59 2708.06 1099.64 2706.35C1108.68 2704.65 1129.27 2685.66 1167.36 2678.48C1205.46 2671.3 1263.29 2640.64 1286.62 2636.24C1309.96 2631.84 1357.1 2612.49 1361.39 2611.69C1364.82 2611.04 1372.85 2588.6 1376.45 2577.46C1376.45 2577.46 877.358 2774.98 873.866 2782.61Z" fill="#AB7E51"/>
<path d="M1490.59 2632.66C1483.17 2632.51 1467.94 2630.19 1466.41 2622.11C1464.51 2612.01 1452.5 2587.54 1452.92 2579.32C1453.35 2571.11 1458.74 2573.58 1461.39 2561.45C1464.04 2549.33 1476.21 2535.41 1481.66 2546.01C1487.11 2556.61 1488.75 2557.46 1491.5 2572.05C1493.7 2583.73 1489.98 2607.6 1487.84 2618.07L1490.59 2632.66Z" fill="#4A2B17"/>
<path d="M1756.26 2522.15L1756.42 2556.99C1757.02 2561.91 1760.02 2573.51 1767.26 2580.52C1774.5 2587.52 1787.74 2587.12 1793.45 2586.04L1794.51 2560.27L1783.3 2532.16L1774.36 2518.74L1756.26 2522.15Z" fill="#5E3F2C"/>
<path d="M1437.32 2525.31L1452.17 2546.55L1467.28 2540.39L1472.88 2483.74C1476.44 2486.94 1484.18 2495.55 1486.63 2504.39C1491.37 2512.8 1496.16 2523.54 1497.96 2527.86L1500.71 2526.74C1499.58 2522.49 1498.55 2508.49 1503.46 2486.43C1506.65 2471.93 1508.7 2485.44 1511.78 2470.4C1514.87 2455.35 1521.77 2460.57 1525.53 2451.73C1529.28 2442.89 1533.41 2438.62 1540.92 2420.93C1548.44 2403.24 1548.12 2406.79 1550.03 2406.43C1551.93 2406.07 1558.92 2390.81 1565.27 2382.64C1571.61 2374.46 1570.03 2381.74 1576.69 2380.48C1583.36 2379.22 1590.93 2369.66 1605.69 2366.88L1638.55 2360.69L1668.07 2355.12C1675.21 2353.78 1680.88 2344.57 1689.5 2351.08C1696.4 2356.29 1700.87 2361.72 1702.25 2363.79C1703.47 2365.89 1708.52 2375.63 1719.02 2397.82C1732.14 2425.57 1728.49 2408.82 1735.53 2412.15C1741.16 2414.81 1739.82 2423.61 1738.45 2427.67L1765.37 2437.06C1763.22 2430 1758.81 2414.27 1758.41 2407.83C1757.92 2399.79 1758.76 2401.96 1760.55 2395.81C1762.35 2389.66 1763.41 2395.27 1772.83 2377.22C1776.69 2374.17 1777.22 2371.74 1783.36 2362.45C1789.5 2353.16 1788.92 2347.46 1785.27 2341.17C1781.62 2334.88 1772.46 2320.34 1770.88 2317.15C1769.29 2313.96 1759.77 2305.29 1753.95 2300.58C1749.29 2296.81 1748.83 2299.61 1749.19 2301.48C1746.66 2304.66 1739.98 2312.28 1733.42 2317.23C1725.22 2323.43 1718.66 2299.09 1713.31 2294.29C1707.97 2289.49 1699.98 2296.8 1696.17 2297.52C1692.36 2298.24 1676.86 2302.32 1664.26 2303.53C1651.67 2304.75 1640.61 2301.02 1631.3 2303.94C1621.99 2306.85 1616.28 2307.93 1592.46 2322.88C1568.65 2337.83 1577.07 2332.76 1568.23 2335.58C1559.4 2338.41 1550.5 2364.5 1543.26 2370.51C1536.01 2376.53 1530.03 2389.28 1525.58 2397.09C1521.14 2404.9 1514.94 2426.99 1490.08 2446.79C1465.21 2466.59 1467.32 2456.89 1453.14 2465.37C1438.96 2473.86 1443.62 2467.17 1435.05 2468.78L1402.67 2474.89C1395.05 2476.32 1396.53 2484.18 1387.64 2499.8C1378.75 2515.43 1379.22 2536.26 1380.65 2535.99L1399.22 2532.49L1437.32 2525.31Z" fill="#C49779"/>
<path d="M1714.98 2599.52C1724.68 2600.54 1732.82 2608.85 1744.49 2608.72C1747.13 2612.65 1746.83 2613.75 1744.9 2614.8C1734.9 2612.15 1727.43 2607.4 1714.91 2606.91C1710.45 2602.05 1711.39 2600.84 1714.98 2599.52Z" fill="#9A7D67"/>
<path d="M1682.3 2552.21C1686.48 2553 1690.17 2557.78 1695.17 2557.99C1696.4 2560.22 1696.3 2560.81 1695.5 2561.35C1691.14 2559.65 1687.83 2556.85 1682.45 2556.28C1680.42 2553.5 1680.79 2552.86 1682.3 2552.21Z" fill="#9A7D67"/>
<path d="M1735.21 2461.55C1741.28 2472.5 1744.45 2485.81 1752.11 2498.25C1752.82 2503.25 1752.34 2503.53 1750.81 2502.04C1744.96 2489.87 1741.31 2479.24 1733.25 2465.55C1731.59 2458.08 1732.52 2458.43 1735.21 2461.55Z" fill="#9A7D67"/>
<path d="M1754.58 2693.4C1755.33 2680 1759.18 2672.65 1759.5 2655.81C1761.28 2654.07 1761.74 2655.08 1762.13 2658.4C1760.67 2671.39 1758.38 2679.64 1757.76 2697.38C1755.52 2701.25 1755.03 2699.26 1754.58 2693.4Z" fill="#9A7D67"/>
<path d="M1813 2618.24C1819.68 2619.67 1825.66 2627.84 1833.64 2628.29C1835.64 2632.1 1835.49 2633.11 1834.22 2634C1827.25 2631.03 1821.91 2626.22 1813.32 2625.15C1810.03 2620.38 1810.61 2619.3 1813 2618.24Z" fill="#9A7D67"/>
<path d="M1859.62 2549.32C1866.19 2558.18 1870.33 2570.76 1878.49 2580.49C1879.61 2585.43 1879.2 2585.93 1877.66 2585.03C1871.17 2574.79 1866.84 2565.23 1858.2 2554.36C1855.98 2547.25 1856.87 2547.22 1859.62 2549.32Z" fill="#9A7D67"/>
<path d="M1879.27 2633.79C1886 2635.61 1891.92 2644.06 1899.96 2645C1901.93 2648.89 1901.77 2649.88 1900.48 2650.68C1893.48 2647.32 1888.15 2642.24 1879.5 2640.66C1876.24 2635.73 1876.85 2634.7 1879.27 2633.79Z" fill="#9A7D67"/>
<path d="M1979.09 2583.87C1985.95 2590.07 1990.97 2601.34 1999.35 2607.7C2000.86 2612.36 2000.54 2613.08 1999.05 2612.87C1992.14 2605.17 1987.25 2597.18 1978.32 2589.84C1975.6 2583.41 1976.39 2582.96 1979.09 2583.87Z" fill="#9A7D67"/>
<path d="M1921.37 2615.69C1925.53 2607.5 1931.38 2607.05 1935.96 2596.02C1938.24 2596.94 1938.47 2598.17 1938.04 2600.88C1933.24 2607.95 1928.79 2610.85 1923.68 2622.14C1920.37 2622.12 1920.37 2620.2 1921.37 2615.69Z" fill="#9A7D67"/>
<path d="M1311.92 2685.58C1318.6 2687.01 1324.58 2695.18 1332.55 2695.64C1334.56 2699.44 1334.4 2700.45 1333.14 2701.34C1326.17 2698.37 1320.82 2693.57 1312.24 2692.49C1308.94 2687.73 1309.53 2686.65 1311.92 2685.58Z" fill="#9A7D67"/>
<path d="M1373.43 2640.64C1380.11 2642.08 1386.09 2650.25 1394.06 2650.7C1396.06 2654.51 1395.91 2655.52 1394.64 2656.41C1387.68 2653.44 1382.33 2648.63 1373.75 2647.56C1370.45 2642.79 1371.04 2641.71 1373.43 2640.64Z" fill="#9A7D67"/>
<path d="M1467.06 2717.17C1462.13 2723.45 1456.01 2721.89 1450.45 2730.68C1448.14 2729.05 1447.99 2727.82 1448.64 2725.43C1454.14 2720.42 1458.98 2719.21 1465.12 2710.35C1468.56 2711.49 1468.42 2713.29 1467.06 2717.17Z" fill="#9A7D67"/>
<path d="M1497.73 2662.19C1504.58 2668.48 1509.57 2679.8 1517.95 2686.28C1519.45 2690.96 1519.12 2691.67 1517.63 2691.43C1510.73 2683.65 1505.86 2675.59 1496.93 2668.13C1494.22 2661.68 1495.02 2661.24 1497.73 2662.19Z" fill="#9A7D67"/>
<path d="M1220.11 2686.89C1225.19 2681.08 1231.35 2683.09 1237.13 2674.84C1239.44 2676.63 1239.57 2677.85 1238.88 2680.17C1233.23 2684.69 1228.31 2685.51 1221.95 2693.78C1218.5 2692.39 1218.66 2690.62 1220.11 2686.89Z" fill="#9A7D67"/>
<path d="M1528.27 2569.88C1534.17 2581.35 1537.06 2594.77 1544.53 2607.88C1545.12 2612.87 1544.63 2613.09 1543.11 2611.45C1537.47 2598.81 1534.02 2587.95 1526.18 2573.57C1524.69 2566.05 1525.62 2566.5 1528.27 2569.88Z" fill="#9A7D67"/>
<path d="M1532.1 2739.4C1537.33 2734.04 1543.53 2736.48 1549.5 2728.77C1551.81 2730.71 1551.92 2731.93 1551.18 2734.16C1545.4 2738.21 1540.41 2738.65 1533.86 2746.34C1530.38 2744.71 1530.58 2742.98 1532.1 2739.4Z" fill="#9A7D67"/>
<path d="M1608.1 2653.21C1611.63 2643.69 1617.19 2641.74 1620.96 2629.19C1623.19 2629.56 1623.48 2630.77 1623.21 2633.68C1619.02 2642.2 1614.92 2646.32 1610.66 2659.28C1607.5 2660.1 1607.39 2658.11 1608.1 2653.21Z" fill="#9A7D67"/>
<path d="M1572.16 2654.77C1578.8 2663.19 1583.11 2675.58 1591.34 2684.74C1592.53 2689.64 1592.13 2690.19 1590.59 2689.41C1584.01 2679.58 1579.57 2670.27 1570.85 2659.99C1568.54 2652.98 1569.41 2652.87 1572.16 2654.77Z" fill="#9A7D67"/>
<path d="M1583.23 2556.59C1590.07 2563.07 1595.01 2574.48 1603.39 2581.19C1604.86 2585.88 1604.53 2586.59 1603.03 2586.3C1596.15 2578.34 1591.3 2570.18 1582.39 2562.48C1579.71 2555.97 1580.51 2555.56 1583.23 2556.59Z" fill="#9A7D67"/>
<path d="M1613.55 2717.84C1617.78 2709.81 1623.66 2709.54 1628.33 2698.7C1630.62 2699.68 1630.84 2700.91 1630.39 2703.6C1625.53 2710.49 1621.03 2713.24 1615.83 2724.33C1612.51 2724.21 1612.52 2722.3 1613.55 2717.84Z" fill="#9A7D67"/>
<path d="M1640.82 2563.14C1646.94 2573.96 1650.18 2587.23 1657.89 2599.49C1658.63 2604.49 1658.16 2604.79 1656.62 2603.34C1650.72 2591.29 1647.01 2580.73 1638.9 2567.23C1637.2 2559.78 1638.12 2560.1 1640.82 2563.14Z" fill="#9A7D67"/>
<path d="M1666.33 2666.8C1673.02 2668.23 1678.99 2676.41 1686.97 2676.86C1688.97 2680.67 1688.82 2681.67 1687.55 2682.56C1680.58 2679.59 1675.24 2674.79 1666.65 2673.72C1663.36 2668.95 1663.95 2667.87 1666.33 2666.8Z" fill="#9A7D67"/>
<path d="M1290.34 2824.85C1290.69 2826.71 1290.33 2828.33 1289.54 2828.48C1288.76 2828.63 1287.83 2827.24 1287.48 2825.38C1287.13 2823.52 1287.49 2821.9 1288.28 2821.75C1289.06 2821.6 1289.99 2822.99 1290.34 2824.85Z" fill="#9F6C52"/>
<path d="M1319.23 2805.45C1319.58 2807.31 1319.22 2808.94 1318.43 2809.09C1317.65 2809.24 1316.72 2807.85 1316.37 2805.99C1316.02 2804.13 1316.38 2802.5 1317.17 2802.35C1317.95 2802.21 1318.88 2803.59 1319.23 2805.45Z" fill="#9F6C52"/>
<path d="M1234.57 2816.76C1234.92 2818.62 1234.57 2820.25 1233.78 2820.4C1232.99 2820.54 1232.06 2819.16 1231.71 2817.3C1231.36 2815.44 1231.72 2813.81 1232.51 2813.66C1233.3 2813.51 1234.22 2814.9 1234.57 2816.76Z" fill="#9F6C52"/>
<path d="M1251.18 2878.72C1251.53 2880.58 1251.18 2882.21 1250.39 2882.35C1249.6 2882.5 1248.67 2881.12 1248.32 2879.26C1247.97 2877.4 1248.33 2875.77 1249.12 2875.62C1249.91 2875.47 1250.83 2876.86 1251.18 2878.72Z" fill="#9F6C52"/>
<path d="M2713.57 2163.32C2727.73 2171.12 2756.65 2186.42 2759.01 2185.23L2743.24 2213.86C2741.84 2216.41 2717.45 2238.36 2705.43 2249.02C2694.78 2266.65 2672.78 2303.18 2669.97 2308.28L2630.56 2379.87L2456.2 2575.14C2501.38 2492.21 2592.07 2325.92 2593.39 2324.16L2713.57 2163.32Z" fill="#715331"/>
<path d="M2777.65 2080.44L3062.01 2189.3L3055.01 2202.03L2991.68 2181.67C2982.05 2176.38 2961.78 2165.84 2957.68 2166.07C2952.55 2166.35 2930.19 2164.41 2925.29 2161.71C2920.39 2159.01 2894.54 2158.26 2892.36 2157.06C2890.61 2156.1 2845.89 2156.35 2823.75 2156.6L2775.28 2177.6L2717.5 2158.23L2777.65 2080.44Z" fill="#715331"/>
<path d="M2609.48 2015.84L2685.89 2043.39L2655.23 2099.07C2636.89 2071.88 2628.09 2055.46 2594.92 2039.96L2609.48 2015.84Z" fill="#715331"/>
<path d="M2456.44 1963.72L2525.77 1987.38L2515.68 2010.85C2492.19 1993.05 2479.27 1982.61 2447.25 1980.43L2456.44 1963.72Z" fill="#715331"/>
<path d="M3041.87 2225.89C2947.18 2196.96 2892.28 2175.73 2811.58 2185.15L2763.44 2204.25L2756.36 2200.35L2736.22 2236.94L2713.97 2267.03L2630.56 2379.87L2669.97 2308.28C2672.78 2303.18 2694.78 2266.65 2705.43 2249.02C2717.45 2238.36 2741.84 2216.41 2743.24 2213.86L2759.01 2185.23C2756.65 2186.42 2727.73 2171.12 2713.57 2163.32L2717.5 2158.23L2775.28 2177.6L2823.75 2156.6C2845.89 2156.35 2890.61 2156.1 2892.36 2157.06C2894.54 2158.26 2920.39 2159.01 2925.29 2161.71C2930.19 2164.41 2952.55 2166.35 2957.68 2166.07C2961.78 2165.84 2982.05 2176.38 2991.68 2181.67L3055.01 2202.03L3041.87 2225.89Z" fill="#080202"/>
<path d="M2587.32 2079.31L2575.19 2072.63L2594.92 2039.96C2628.09 2055.46 2636.89 2071.88 2655.23 2099.07L2647.79 2112.6L2647.45 2113.05C2638.73 2124.58 2630.19 2135.9 2621.8 2147L2630.64 2121.82L2587.32 2079.31Z" fill="#140200"/>
<path d="M2570.87 2128.3L2518.89 2283.15C2461.08 2359.58 2409.23 2427.96 2356.78 2496.79L2553.12 2109.2L2570.87 2128.3Z" fill="#EAD19B"/>
<path d="M2587.32 2079.31L2570.87 2128.3L2553.12 2109.2L2575.19 2072.63L2587.32 2079.31Z" fill="#7B4C17"/>
<path d="M2525.77 1987.38C2567.03 1978.75 2584.75 1986.32 2609.48 2015.84L2594.92 2039.96L2575.19 2072.63L2553.12 2109.2L2356.78 2496.79C2292.93 2580.58 2228.17 2665.05 2150.61 2765.55L2039.41 2682.57L2063.48 2649.17L2176.01 2719.41L2372.11 2351.6L2505.6 2034.32L2515.68 2010.85L2525.77 1987.38Z" fill="#87632F"/>
<path d="M2784.66 2067.71L2777.65 2080.44L2717.5 2158.23L2713.57 2163.32L2593.39 2324.16L2420.53 2555.5L2274 2751.59L2214.89 2817.71L2150.61 2765.55C2228.17 2665.05 2292.93 2580.58 2356.78 2496.79C2409.23 2427.96 2461.08 2359.58 2518.89 2283.15C2550.98 2240.73 2584.9 2195.84 2621.8 2147C2630.19 2135.9 2638.73 2124.58 2647.45 2113.05L2647.79 2112.6L2655.23 2099.07L2685.89 2043.39L2784.66 2067.71Z" fill="#EDD49C"/>
<path d="M2456.2 2575.14L2630.56 2379.87L2713.97 2267.03L2496.26 2662.5L2486.22 2674.01L2466.95 2696.11L2395.49 2778.05L2385.71 2789.25L2305.7 2880.99L2234.03 2833.24L2297.34 2753.04L2387.32 2652.28L2456.2 2575.14Z" fill="#EBD299"/>
<path d="M2297.34 2753.04L2274 2751.59L2420.53 2555.5L2387.32 2652.28L2297.34 2753.04Z" fill="#D6B56E"/>
<path d="M2466.95 2696.11L2444.68 2767.81L2430.66 2793.27L2395.49 2778.05L2466.95 2696.11Z" fill="#5F3C1E"/>
<path d="M2411.53 2809.69L2385.71 2789.25L2395.49 2778.05L2430.66 2793.27L2444.68 2767.81L2466.95 2696.11L2486.22 2674.01L2428.99 2813.07L2411.53 2809.69Z" fill="#130102"/>
<path d="M2305.7 2880.99L2385.71 2789.25L2411.53 2809.69L2437.35 2830.12C2459.17 2933.32 2518.4 2978.08 2626.03 3057.34C2624.96 3067.18 2623.11 3073.26 2608.52 3089.15L2305.7 2880.99Z" fill="#87632F"/>
<path d="M2274 2751.59L2297.34 2753.04L2234.03 2833.24L2214.89 2817.71L2274 2751.59Z" fill="#87632F"/>
<path d="M2670.85 2195.78L2689.12 2171.63L2686.94 2170.43L2669.22 2194.88L2670.85 2195.78Z" fill="#D8C18D"/>
<path d="M2516.27 2370.85L2534.53 2346.7L2532.35 2345.5L2514.63 2369.95L2516.27 2370.85Z" fill="#D8C18D"/>
<path d="M2560.9 2521.87L2579.17 2497.72L2576.99 2496.52L2559.27 2520.97L2560.9 2521.87Z" fill="#D8C18D"/>
<path d="M2477.53 2650.11L2495.79 2625.96L2493.61 2624.76L2475.89 2649.21L2477.53 2650.11Z" fill="#D8C18D"/>
<path d="M2614.68 2248.81L2632.95 2224.66L2630.77 2223.46L2613.05 2247.92L2614.68 2248.81Z" fill="#D8C18D"/>
<path d="M2538.65 2304.39L2556.92 2280.24L2554.74 2279.04L2537.02 2303.49L2538.65 2304.39Z" fill="#D8C18D"/>
<path d="M2409.62 2683.21L2427.88 2659.06L2425.7 2657.86L2407.98 2682.31L2409.62 2683.21Z" fill="#D8C18D"/>
<path d="M2405.57 2525.5L2423.84 2501.35L2421.66 2500.15L2403.94 2524.6L2405.57 2525.5Z" fill="#D8C18D"/>
<path d="M2284.45 2657.84L2302.71 2633.69L2300.53 2632.49L2282.81 2656.94L2284.45 2657.84Z" fill="#D8C18D"/>
<path d="M2338.31 2776.63L2356.57 2752.48L2354.4 2751.28L2336.68 2775.73L2338.31 2776.63Z" fill="#D8C18D"/>
<path d="M2417.61 2722.85L2435.87 2698.7L2433.69 2697.5L2415.97 2721.95L2417.61 2722.85Z" fill="#D8C18D"/>
<path d="M2658.11 2133.83L2676.37 2109.68L2674.19 2108.48L2656.47 2132.93L2658.11 2133.83Z" fill="#D8C18D"/>
<path d="M2578.13 2307.47L2596.4 2283.32L2594.22 2282.12L2576.5 2306.57L2578.13 2307.47Z" fill="#D8C18D"/>
<path d="M2719.66 2120.03L2737.92 2095.88L2735.74 2094.68L2718.02 2119.13L2719.66 2120.03Z" fill="#D8C18D"/>
<path d="M2581.53 2247.15L2599.79 2223L2597.61 2221.8L2579.89 2246.25L2581.53 2247.15Z" fill="#D8C18D"/>
<path d="M2431.72 2434.17L2449.98 2410.02L2447.8 2408.82L2430.08 2433.27L2431.72 2434.17Z" fill="#D8C18D"/>
<path d="M2328.24 2578.29L2346.5 2554.14L2344.32 2552.94L2326.6 2577.39L2328.24 2578.29Z" fill="#D8C18D"/>
<path d="M2235.17 2755.09L2253.43 2730.94L2251.25 2729.74L2233.53 2754.19L2235.17 2755.09Z" fill="#D8C18D"/>
<path d="M2232.9 2689.58L2251.16 2665.43L2248.99 2664.23L2231.27 2688.68L2232.9 2689.58Z" fill="#D8C18D"/>
<path d="M2519.14 2238.19L2526.55 2209.51L2523.77 2210.21L2517.05 2238.71L2519.14 2238.19Z" fill="#D8C18D"/>
<path d="M2523.73 2191.07L2531.14 2162.4L2528.36 2163.09L2521.64 2191.6L2523.73 2191.07Z" fill="#D8C18D"/>
<path d="M2458.62 2348.03L2466.03 2319.35L2463.25 2320.04L2456.54 2348.55L2458.62 2348.03Z" fill="#D8C18D"/>
<path d="M2490.56 2305.49L2497.97 2276.81L2495.19 2277.51L2488.47 2306.01L2490.56 2305.49Z" fill="#D8C18D"/>
<path d="M2427.11 2394.95L2434.52 2366.27L2431.74 2366.96L2425.03 2395.47L2427.11 2394.95Z" fill="#D8C18D"/>
<path d="M2376.86 2651.29L2384.27 2622.61L2381.49 2623.3L2374.77 2651.81L2376.86 2651.29Z" fill="#D8C18D"/>
<path d="M2136.94 2776.2L2091.42 2767.67L2110.69 2818.67L2157.35 2809.91L2175.48 2829.27L2138.79 2833.95L2106.33 2884.7L2121.86 2894.41L2097.79 2903.87L2070.91 2882.36L2013.67 2867.53L2011.08 2906.83L2086.99 2993.94L2292.27 3007.49L2328.76 2981.48L2337.09 2965.46C2324.83 2938.86 2300.37 2884.88 2300.58 2881.73C2300.78 2878.59 2274.28 2839.21 2261 2819.92L2249.41 2799.42L2136.94 2776.2Z" fill="#AB9563"/>
<path d="M1811.4 2979.69C1804.81 2981.62 1809.48 2984.3 1806.65 2990.43L1805.41 3009.29C1810.98 3043.34 1822.4 3111.93 1823.57 3113.9C1825.02 3116.37 1832.4 3127.12 1836.26 3129.74C1840.13 3132.36 1858.29 3139.09 1862.21 3140.93C1866.13 3142.76 1886.95 3145.72 1893.84 3151.7C1900.72 3157.68 1909.16 3164.55 1923.39 3169.44C1937.62 3174.32 1934.45 3173.32 1943.86 3177.89C1953.26 3182.46 1959.65 3183.67 1965.07 3187.19C1970.5 3190.7 1985.53 3195.64 1991.82 3198.43C1998.11 3201.21 2007.72 3202.63 2014.26 3201.49C2020.8 3200.34 2024.83 3200.61 2031.27 3201.03C2037.71 3201.46 2045.11 3199.58 2046.77 3198.9C2048.1 3198.35 2053.51 3194.87 2056.04 3193.19C2060.22 3191.1 2068.8 3186.14 2069.65 3183.04C2070.72 3179.16 2070.17 3175.18 2070.95 3163.39C2071.73 3151.6 2072.04 3146.89 2075.18 3136.04C2078.32 3125.2 2078.22 3126.77 2078.99 3114.98C2079.77 3103.19 2079.41 3108.69 2077.88 3095.17C2076.35 3081.65 2076.35 3081.65 2076.86 3073.79L2077.9 3058.07L2078.58 3047.85C2078.99 3041.56 2078.4 3038.37 2077.85 3034.38C2077.3 3030.4 2076.34 3032.71 2075.9 3027.15C2075.46 3021.6 2078.68 3021.81 2076.52 3017.72C2074.37 3013.63 2075.28 3012.11 2073.93 3008.07C2072.58 3004.04 2074.39 3001 2069.02 2996.7C2063.64 2992.4 2064.4 2993.24 2058.27 2988.09C2052.14 2982.95 2051.98 2985.31 2039.46 2978.96C2026.95 2972.61 2021.62 2967.52 2010.61 2962.84C1999.6 2958.17 1985.68 2948.57 1977.89 2944.11C1971.66 2940.54 1968.23 2935.37 1967.29 2933.23C1965.47 2933.11 1963.13 2932.44 1960.15 2931.09C1949.95 2926.47 1957.89 2928.58 1954.06 2925.36C1950.23 2922.14 1946.99 2922.33 1939.79 2921.07C1932.6 2919.8 1928.91 2926.66 1932.52 2933.22C1936.13 2939.77 1939.95 2943.18 1942 2948.84L1942 2948.84C1944.05 2954.5 1944.05 2954.5 1947.66 2961.06C1951.27 2967.61 1953.53 2970.13 1957.24 2975.11C1960.96 2980.09 1956.78 2982.18 1959.53 2989.47C1962.29 2996.76 1955.9 2995.54 1955.84 2996.33C1955.79 2997.12 1946.83 2998.1 1932.24 2998.72L1928.84 3013.49L1923.15 3013.91C1922.85 3014.41 1920.45 3015.62 1913.28 3016.41C1904.32 3017.4 1907.44 3019.18 1900.19 3018.71C1892.69 3022.16 1895.83 3035.79 1894.82 3038.88C1893.81 3041.97 1893.11 3040.34 1890.98 3048.1C1885.58 3056.42 1881.6 3055.37 1871.4 3050.75C1861.19 3046.13 1858.98 3042.82 1859.19 3039.68C1859.4 3036.54 1856.18 3036.32 1856.39 3033.18C1856.55 3030.67 1856.18 3020.01 1855.97 3015L1858.36 3003.31C1855.55 2996.81 1853.74 2999.85 1849.32 2993.24C1844.91 2986.64 1846.46 2987.53 1842.05 2980.92C1837.63 2974.31 1831.79 2977.09 1822.93 2976.5C1814.08 2975.92 1818 2977.76 1811.4 2979.69Z" fill="#AB9563"/>
<path d="M1596.69 3023.14C1591.99 3008.62 1596.05 3020.73 1593.94 3015.85C1592.17 3011.74 1590.1 3012.1 1578.86 3011.61L1560.1 3026.25C1550.38 3063.23 1530.75 3137.67 1529.99 3139.51C1529.22 3141.36 1623.85 3232.28 1671.27 3277.52C1683.31 3281.82 1690.07 3282.02 1702.11 3275.61L1723.05 3276.99L1807.7 3121.54L1812.87 3104.51L1809.31 3097.17L1746.98 3012.54C1743.65 3013.9 1744.67 3010.81 1740.2 3004.98C1735.73 2999.16 1740.4 3001.84 1731.16 2994.91C1721.92 2987.99 1715.97 2992.33 1715.45 3000.19C1718.36 3005.12 1717.45 3006.64 1717.29 3009C1717.14 3011.36 1714.52 3014.34 1710.67 3023.56C1706.83 3032.78 1709.61 3027.44 1710 3033.78C1710.39 3040.12 1714.96 3044.37 1716.8 3053.17C1718.28 3060.22 1721.05 3066.35 1722.26 3068.53C1720.68 3067.9 1716.75 3066.27 1713.61 3064.8C1709.69 3062.97 1707.32 3062.02 1704.91 3061.86L1679.95 3060.21L1670.29 3059.57C1667.27 3060.43 1661.16 3063.23 1660.87 3067.64C1660.5 3073.14 1658.53 3078.53 1659.83 3083.36C1660.87 3087.21 1662.32 3094.57 1662.92 3097.77L1662.56 3103.27L1651.41 3063.85L1627.65 3068.6C1627.19 3071.46 1625.74 3077.95 1623.6 3080.96C1621.46 3083.98 1612.67 3087.35 1608.54 3088.65C1604.41 3089.96 1596.21 3091.63 1596.46 3087.85C1596.77 3083.14 1598.75 3077.74 1597.45 3072.92C1596.41 3069.06 1597.43 3065.03 1598.07 3063.49L1602.72 3060.64C1601.69 3057.81 1605.48 3054.03 1604.9 3045.78C1604.07 3033.89 1601.4 3037.66 1596.69 3023.14Z" fill="#AB9563"/>
<path d="M1130.08 2889.7C1130.16 2888.45 1122.06 2888.65 1118 2888.91C1114.7 2889.95 1039.1 2936.85 1001.71 2960.17L1001.21 2960.66C994.363 2967.25 990.374 2971.09 991.458 2980.81L1023.25 3136.05L1049.9 3148.86C1057.84 3150.97 1074.06 3155.2 1075.35 3155.28C1076.96 3155.39 1238.14 3077.61 1239.86 3076.15C1241.23 3074.98 1251.63 3061.14 1256.66 3054.37L1267.04 2970.58C1263.92 2968.8 1265.64 2967.33 1265.95 2962.62L1266.83 2949.26C1267.25 2942.97 1259.95 2943.28 1255.48 2937.46C1251.02 2931.63 1249.46 2930.74 1246.29 2929.74C1243.12 2928.74 1238.99 2930.05 1232.14 2935.91C1225.28 2941.78 1223.36 2946.39 1220.53 2952.51C1217.7 2958.64 1213.52 2960.73 1210.09 2963.67C1207.35 2966.01 1206.58 2976.06 1206.53 2980.8C1202.61 2993.08 1199.8 2999.16 1185.97 2998.39L1178.56 2975.79L1149.5 2962.82L1141.79 2969.42L1137.77 2969.15L1136.73 2960.4L1112.78 2955.66C1107.05 2956.86 1095.08 2959.23 1093.15 2959.1C1090.74 2958.94 1081.78 2959.93 1080.27 2958.25C1078.76 2956.57 1078.69 2945.52 1081.26 2943.32C1083.83 2941.12 1089.02 2935.94 1094.97 2931.59C1100.92 2927.25 1106.91 2922.12 1111.85 2920.87C1115.79 2919.86 1120.71 2917.24 1122.68 2916.06C1123.25 2907.41 1125.06 2904.37 1129.45 2899.14C1133.84 2893.9 1129.97 2891.28 1130.08 2889.7Z" fill="#AB9563"/>
<path d="M896.637 2812.72L905.93 2769.91C902.71 2769.7 818.599 2806.77 776.946 2825.34L745.115 2964.54L740.105 3003.68C757.557 3016.94 792.632 3043.3 793.318 3042.72C794.003 3042.13 916.573 3000.6 977.773 2979.9L996.625 2963.78L1039.67 2850.58C1037.52 2846.49 1033.11 2839.88 1030.9 2836.58C1028.69 2833.28 1030.13 2831 1025.08 2826.72C1020.03 2822.44 1020.61 2820.9 1014.98 2820.53L1006.12 2819.95C1004.51 2819.84 997.707 2824.92 994.229 2828.63C990.751 2832.35 985.998 2843.09 983.323 2846.86C981.183 2849.88 976.528 2864.04 974.467 2870.75C965.577 2882.34 961.039 2889.39 942.526 2889.16L939.566 2860.55L912.064 2848.47L894.924 2838.65L859.191 2841.03L849.53 2840.39L849.604 2840.14C854.324 2824.09 856.994 2815.01 896.637 2812.72Z" fill="#AB9563"/>
<path d="M1346.92 2985.33C1344.82 2980.46 1343.11 2981.92 1339.08 2981.66L1331.83 2981.18C1329.74 2983.57 1272.93 3044.65 1244.79 3074.9L1240.12 3096.69L1314.76 3239.77L1371.92 3243.54C1435.16 3202.63 1465.94 3176.29 1516.33 3125.98L1521.91 3102.67L1502.43 3030.33C1499.21 3030.12 1500.43 3023.89 1496.87 3016.55C1493.31 3009.21 1494.17 3008.47 1489.91 2999.51C1485.65 2990.54 1483.99 2991.22 1482.38 2991.12C1480.77 2991.01 1476.33 2997.03 1469.58 3001.32C1462.82 3005.62 1463.47 3008.03 1458.23 3014C1452.98 3019.96 1454.54 3020.86 1451.71 3026.98C1448.88 3033.11 1451.19 3034.84 1450.78 3041.13C1450.36 3047.42 1450.96 3050.62 1450.15 3050.56C1456.5 3057.08 1457.47 3060.67 1441.01 3066.54L1432.96 3066.01L1428.81 3055.47C1426.19 3054.25 1420.64 3051.77 1419.35 3051.69L1406.47 3050.84C1403.9 3050.67 1397.75 3052.37 1394.99 3053.24L1387.44 3057.48L1384.74 3049.4L1376.89 3045.73L1371.26 3045.36C1361.6 3044.72 1355.86 3045.92 1354.2 3046.6C1353.07 3047.31 1349.97 3049.32 1346.59 3051.62C1342.36 3054.5 1338.12 3057.38 1333.94 3059.47C1330.6 3061.14 1325.94 3062.36 1324.02 3062.76C1322.55 3060.56 1319.81 3055.54 1320.62 3053.06C1321.63 3049.97 1325.16 3045.47 1325.37 3042.33C1325.58 3039.18 1329.06 3035.46 1332.43 3033.32C1335.81 3031.17 1336.87 3027.3 1339.39 3025.88C1341.41 3024.75 1346.74 3024.79 1349.16 3024.95C1349.36 3021.81 1349.52 3019.45 1347.63 3011.43L1347.62 3011.4C1345.73 3003.41 1345.73 3003.4 1346.04 2998.69C1346.35 2993.98 1349.03 2990.21 1346.92 2985.33Z" fill="#AB9563"/>
<path d="M2072.64 2672.49C2064.47 2677.74 2047.57 2689.62 2045.27 2695.15C2044.78 2696.32 2044.08 2697.59 2043.24 2698.91C2038.86 2710.23 2044.73 2728.23 2056.82 2728.28C2059.5 2724.51 2062.12 2721.53 2063.94 2718.49C2065.76 2715.45 2075.03 2709.75 2076.74 2708.28C2078.45 2706.82 2082.74 2703.15 2084.4 2702.47C2085.73 2701.93 2089.4 2692.02 2091.07 2687.13L2072.64 2672.49Z" fill="#BD6A63"/>
<path d="M2029.32 2716.2C2026.65 2719.97 2012.37 2740.35 2010.55 2743.38C2009.09 2745.81 1997.3 2756.19 1991.59 2761.08L2031.58 2767.66C2037.69 2760.96 2036.39 2756.14 2039.17 2750.8C2041.94 2745.46 2041.94 2745.46 2047.94 2740.33C2053.94 2735.2 2054.15 2732.05 2056.82 2728.28C2044.73 2728.23 2038.86 2710.23 2043.24 2698.91C2039.09 2705.38 2031.54 2713.07 2029.32 2716.2Z" fill="#BD6A63"/>
<path d="M1991.59 2761.08C1989.5 2764.1 1984.48 2770.87 1981.05 2773.8C1976.76 2777.47 1963.29 2797.89 1961.91 2806.48C1960.53 2815.07 1959.94 2836.35 1959.78 2838.71C1966.01 2824.5 1969.69 2824.26 1976.69 2839.82C1977.05 2834.32 1981.93 2833.85 1984.06 2826.1C1986.19 2818.35 1987.91 2816.88 1989.83 2812.27C1991.75 2807.66 1994.32 2805.46 1997.96 2799.39C2001.59 2793.31 2000.73 2794.05 2007.54 2788.97C2014.34 2783.89 2025.48 2774.37 2031.58 2767.66L1991.59 2761.08Z" fill="#363530"/>
<path d="M1959.78 2838.71L1958.54 2857.57L1953.16 2877.74C1966.2 2876.23 1961.42 2875.13 1964.2 2869.79C1966.98 2864.44 1968.59 2864.55 1970.61 2858.37C1972.64 2852.19 1976.33 2845.33 1976.69 2839.82C1969.69 2824.26 1966.01 2824.5 1959.78 2838.71Z" fill="#BD6A63"/>
<path d="M1958.54 2857.57C1951.42 2859.21 1936.39 2862.42 1933.17 2862.21L1871.18 2858.12L1888.47 2890.05C1895.72 2890.53 1894.27 2888.06 1911.28 2887.61C1928.28 2887.15 1920.39 2884.26 1928.65 2881.65C1936.91 2879.04 1940.13 2879.25 1953.16 2877.74L1958.54 2857.57Z" fill="#363530"/>
<path d="M1871.18 2858.12C1864.21 2861.61 1850.08 2869.04 1849.31 2870.88C1848.54 2872.73 1846.38 2886.74 1845.39 2893.52L1827.6 2905.76L1846.15 2918.83C1861.75 2915.12 1868.27 2902.13 1874.37 2895.43C1880.48 2888.73 1881.23 2889.57 1888.47 2890.05L1871.18 2858.12Z" fill="#BD6A63"/>
<path d="M1827.6 2905.76C1820.57 2906.09 1804.22 2907.22 1795.04 2909.14C1787.88 2910.64 1772.56 2911.6 1760.85 2912.6L1772.14 2937.62C1794.23 2933.56 1780.34 2935.8 1793.43 2933.5C1806.52 2931.21 1801.79 2929.32 1818.2 2925.67C1834.62 2922.01 1830.54 2922.54 1846.15 2918.83L1827.6 2905.76Z" fill="#363530"/>
<path d="M1746.17 2914.6C1742.18 2916.23 1713.76 2923.77 1700.05 2927.34C1694.77 2929.62 1683.71 2934.79 1681.61 2937.17L1686.08 2967.47C1688.49 2967.63 1691.06 2965.43 1694.39 2964.07C1697.71 2962.71 1700.12 2962.87 1705.97 2960.1C1711.81 2957.32 1708.43 2959.47 1711.81 2957.32C1715.19 2955.18 1715.99 2955.23 1723.6 2950.21C1731.21 2945.18 1733.52 2946.92 1744.14 2945.25C1754.76 2943.58 1750.04 2941.69 1772.14 2937.62L1760.85 2912.6C1753.79 2913.21 1748.04 2913.83 1746.17 2914.6Z" fill="#BD6A63"/>
<path d="M1681.61 2937.17C1678.98 2940.16 1656.5 2937.88 1641.69 2941.64C1626.89 2945.4 1622.01 2945.87 1605.86 2945.59C1589.28 2941.97 1587.73 2934.4 1589.03 2931.06C1587.61 2928.07 1581.22 2922.02 1567.01 2921.71C1549.24 2921.33 1545.53 2916.35 1535.61 2919.64C1525.69 2922.93 1524.03 2923.61 1515.77 2926.22L1513.8 2956.09C1534.73 2957.47 1538.65 2959.31 1545.79 2961.36C1552.93 2963.41 1557.06 2962.1 1564.31 2962.58L1586.04 2964.02C1602.95 2965.13 1600.59 2964.19 1614.32 2964.31C1628.06 2964.42 1625.7 2963.48 1642.6 2964.6L1686.08 2967.47L1681.61 2937.17Z" fill="#363530"/>
<path d="M1515.77 2926.22C1513.79 2926.85 1513.04 2927.15 1512.79 2927.28C1512.47 2927.46 1513.06 2927.32 1512.79 2927.28C1512.43 2927.22 1510.5 2927.31 1502.68 2928.52C1484.71 2931.28 1488.74 2931.54 1471.02 2930.37L1447.68 2928.83L1415.97 2955.95C1426.28 2959 1431.22 2957.74 1467.65 2956.99C1504.08 2956.24 1492.87 2954.71 1513.8 2956.09L1515.77 2926.22Z" fill="#BD6A63"/>
<path d="M1447.68 2928.83L1433.19 2927.87C1429.97 2927.66 1418.75 2926.13 1414.93 2922.72C1411.11 2919.31 1404.83 2916.53 1400.05 2915.42C1395.27 2914.32 1395.53 2910.39 1384.26 2909.65C1372.99 2908.9 1388.08 2913.05 1368.16 2908.58C1360.51 2914.34 1356.49 2917.99 1355.18 2933.78C1372.78 2936.52 1375.09 2938.25 1383.79 2941.19C1392.49 2944.13 1405.66 2952.9 1415.97 2955.95L1447.68 2928.83Z" fill="#363530"/>
<path d="M1368.16 2908.58C1348.24 2904.11 1352.66 2910.72 1339.39 2903.52C1326.12 2896.33 1326.61 2901.1 1319.93 2891.98L1318.07 2920.27C1333.7 2928.41 1337.57 2931.03 1355.18 2933.78C1356.49 2917.99 1360.51 2914.34 1368.16 2908.58Z" fill="#BD6A63"/>
<path d="M1319.93 2891.98C1313.26 2882.85 1320.51 2883.33 1309.55 2877.87C1298.59 2872.41 1286.17 2864.49 1283.06 2862.7C1279.94 2860.92 1273.6 2858.92 1265.76 2855.25C1257.92 2851.57 1253.19 2849.68 1249.37 2846.27L1230.5 2875.02C1243.87 2880.64 1241.51 2879.69 1270.57 2892.67C1299.63 2905.64 1280.62 2899.64 1289.16 2904.94C1297.71 2910.25 1302.43 2912.14 1318.07 2920.27L1319.93 2891.98Z" fill="#363530"/>
<path d="M1249.37 2846.27C1246.32 2843.54 1240.9 2839.92 1238.57 2838.45C1240.25 2837.51 1239.96 2834.6 1225.35 2830.47C1207.1 2825.32 1198.29 2823.95 1192.6 2824.36L1165.13 2848.6C1186.06 2849.98 1184.04 2856.16 1196.92 2857.02C1209.8 2857.87 1217.12 2869.4 1230.5 2875.02L1249.37 2846.27Z" fill="#BD6A63"/>
<path d="M1192.6 2824.36C1177.85 2827.34 1169.54 2830.74 1156.92 2825.96C1144.3 2821.18 1143.99 2825.89 1136.25 2820.64C1128.51 2815.4 1116.8 2809.1 1112.07 2807.21C1107.35 2805.31 1082.7 2798.95 1081.25 2796.49L1064.21 2809.57C1085.22 2822.01 1084.49 2808.54 1101.63 2818.36C1118.77 2828.17 1115.66 2826.39 1137.78 2834.16C1159.91 2841.94 1144.2 2847.22 1165.13 2848.6L1192.6 2824.36Z" fill="#363530"/>
<path d="M1081.25 2796.49C1079.79 2794.02 1072.37 2784.06 1071.77 2780.86C1071.29 2778.3 1068.54 2768.54 1067.22 2763.98C1066.39 2760.25 1061.05 2752.21 1046.32 2749.97L1033.19 2784.64C1033.55 2784.92 1033.91 2785.2 1034.27 2785.49C1047.33 2795.83 1038.79 2790.53 1064.21 2809.57L1081.25 2796.49Z" fill="#BD6A63"/>
<path d="M1046.32 2749.97C1027.91 2747.18 1020.76 2745.13 1007.13 2743.44C993.496 2741.75 1000.79 2741.44 980.875 2736.97C978.114 2742.05 972.4 2752.66 971.634 2754.47C975.305 2756.04 978.902 2757.41 981.889 2758.35C991.393 2761.35 990.978 2767.63 1001.5 2767.54C1011.51 2767.45 1020.33 2774.44 1032.42 2784.03L1033.19 2784.64L1046.32 2749.97Z" fill="#363530"/>
<path d="M980.875 2736.97C960.956 2732.5 957.892 2729.93 958.359 2722.85C958.826 2715.78 958.696 2705.51 955.086 2698.95C951.476 2692.4 936.854 2681.17 934.595 2678.65L915.474 2698.84C917.415 2700.78 919.435 2703.49 921.456 2706.21C925.17 2711.19 931.792 2721.1 931.585 2724.24C931.377 2727.39 934.494 2729.17 936.753 2731.69C939.013 2734.2 947.557 2739.51 952.127 2743.75C955.262 2746.67 963.623 2751.04 971.634 2754.47C972.4 2752.66 978.114 2742.05 980.875 2736.97Z" fill="#BD6A63"/>
<path d="M934.595 2678.65C932.335 2676.14 926.96 2671.83 917.455 2668.84C907.95 2665.84 902.574 2661.54 895.926 2664.26C889.278 2666.98 884.19 2670.59 881.618 2672.79C879.56 2674.55 878.492 2683.37 878.215 2687.56C880.856 2692.47 886.439 2702.63 887.644 2703.97C888.849 2705.32 897.703 2706.74 901.979 2707.29C903.849 2703.46 908.232 2695.86 910.808 2696.03C912.276 2696.13 913.847 2697.21 915.474 2698.84L934.595 2678.65Z" fill="#363530"/>
<path d="M2149.91 2579.7C2111.56 2612.94 2095.56 2633.58 2072.64 2672.49L2091.07 2687.13C2089.4 2692.02 2085.73 2701.93 2084.4 2702.47C2082.74 2703.15 2078.45 2706.82 2076.74 2708.28C2075.03 2709.75 2065.76 2715.45 2063.94 2718.49C2062.12 2721.53 2059.5 2724.51 2056.82 2728.28C2054.15 2732.05 2053.94 2735.2 2047.94 2740.33C2041.94 2745.46 2041.94 2745.46 2039.17 2750.8C2036.39 2756.14 2037.69 2760.96 2031.58 2767.66C2025.48 2774.37 2014.34 2783.89 2007.54 2788.97C2000.73 2794.05 2001.59 2793.31 1997.96 2799.39C1994.32 2805.46 1991.75 2807.66 1989.83 2812.27C1987.91 2816.88 1986.19 2818.35 1984.06 2826.1C1981.93 2833.85 1977.05 2834.32 1976.69 2839.82C1976.33 2845.33 1972.64 2852.19 1970.61 2858.37C1968.59 2864.55 1966.98 2864.44 1964.2 2869.79C1961.42 2875.13 1966.2 2876.23 1953.16 2877.74C1940.13 2879.25 1936.91 2879.04 1928.65 2881.65C1920.39 2884.26 1928.28 2887.15 1911.28 2887.61C1894.27 2888.06 1895.72 2890.53 1888.47 2890.05C1881.23 2889.57 1880.48 2888.73 1874.37 2895.43C1868.27 2902.13 1861.75 2915.12 1846.15 2918.83C1830.54 2922.54 1834.62 2922.01 1818.2 2925.67C1801.79 2929.32 1806.52 2931.21 1793.43 2933.5C1780.34 2935.8 1794.23 2933.56 1772.14 2937.62C1750.04 2941.69 1754.76 2943.58 1744.14 2945.25C1733.52 2946.92 1731.21 2945.18 1723.6 2950.21C1715.99 2955.23 1715.19 2955.18 1711.81 2957.32C1708.43 2959.47 1711.81 2957.32 1705.97 2960.1C1700.12 2962.87 1697.71 2962.71 1694.39 2964.07C1691.06 2965.43 1688.49 2967.63 1686.08 2967.47L1642.6 2964.6C1625.7 2963.48 1628.06 2964.42 1614.32 2964.31C1600.59 2964.19 1602.95 2965.13 1586.04 2964.02L1564.31 2962.58C1557.06 2962.1 1552.93 2963.41 1545.79 2961.36C1538.65 2959.31 1534.73 2957.47 1513.8 2956.09C1492.87 2954.71 1504.08 2956.24 1467.65 2956.99C1431.22 2957.74 1426.28 2959 1415.97 2955.95C1405.66 2952.9 1392.49 2944.13 1383.79 2941.19C1375.09 2938.25 1372.78 2936.52 1355.18 2933.78C1337.57 2931.03 1333.7 2928.41 1318.07 2920.27C1302.43 2912.14 1297.71 2910.25 1289.16 2904.94C1280.62 2899.64 1299.63 2905.64 1270.57 2892.67C1241.51 2879.69 1243.87 2880.64 1230.5 2875.02C1217.12 2869.4 1209.8 2857.87 1196.92 2857.02C1184.04 2856.16 1186.06 2849.98 1165.13 2848.6C1144.2 2847.22 1159.91 2841.94 1137.78 2834.16C1115.66 2826.39 1118.77 2828.17 1101.63 2818.36C1084.49 2808.54 1085.22 2822.01 1064.21 2809.57C1038.79 2790.53 1047.33 2795.83 1034.27 2785.49C1033.91 2785.2 1033.55 2784.92 1033.19 2784.64L1032.42 2784.03C1020.33 2774.44 1011.51 2767.45 1001.5 2767.54C990.978 2767.63 991.393 2761.35 981.889 2758.35C978.902 2757.41 975.305 2756.04 971.634 2754.47C963.623 2751.04 955.262 2746.67 952.127 2743.75C947.557 2739.51 939.013 2734.2 936.753 2731.69C934.494 2729.17 931.377 2727.39 931.585 2724.24C931.792 2721.1 925.17 2711.19 921.456 2706.21C919.435 2703.49 917.415 2700.78 915.474 2698.84C913.847 2697.21 912.276 2696.13 910.808 2696.03C908.232 2695.86 903.849 2703.46 901.979 2707.29C897.703 2706.74 888.849 2705.32 887.644 2703.97C886.439 2702.63 880.856 2692.47 878.215 2687.56C858.426 2667.79 845.61 2639.33 838.662 2604.43C789.197 2611.9 798.104 2651.49 808.74 2670.34C826.305 2711.3 855.153 2742.91 897.879 2769.38L905.93 2769.91L896.637 2812.72C899.995 2818.99 906.681 2832.01 906.556 2833.9C906.401 2836.25 910.973 2840.5 915.699 2842.39C920.426 2844.28 935.671 2846.08 940.396 2847.97C945.121 2849.86 958.341 2857.84 962.912 2862.09C966.569 2865.49 972.139 2869.28 974.467 2870.75C976.528 2864.04 981.183 2849.88 983.323 2846.86C985.998 2843.09 990.751 2832.35 994.229 2828.63C997.707 2824.92 1004.51 2819.84 1006.12 2819.95L1014.98 2820.53C1020.61 2820.9 1020.03 2822.44 1025.08 2826.72C1030.13 2831 1028.69 2833.28 1030.9 2836.58C1033.11 2839.88 1037.52 2846.49 1039.67 2850.58C1041.83 2854.67 1049.57 2859.92 1055.1 2861.86C1060.63 2863.8 1100.65 2882.24 1103.77 2884.02C1106.26 2885.45 1114.3 2887.87 1118 2888.91C1122.06 2888.65 1130.16 2888.45 1130.08 2889.7C1129.97 2891.28 1133.84 2893.9 1129.45 2899.14C1125.06 2904.37 1123.25 2907.41 1122.68 2916.06C1122.11 2924.7 1122.18 2935.76 1124.34 2939.85C1126.5 2943.94 1127.2 2945.56 1132.57 2949.86C1137.95 2954.17 1147.61 2954.8 1155.35 2960.05C1163.09 2965.3 1159.92 2964.3 1172.59 2968.29C1185.26 2972.29 1194.87 2973.71 1199.6 2975.6C1203.38 2977.12 1205.8 2979.7 1206.53 2980.8C1206.58 2976.06 1207.35 2966.01 1210.09 2963.67C1213.52 2960.73 1217.7 2958.64 1220.53 2952.51C1223.36 2946.39 1225.28 2941.78 1232.14 2935.91C1238.99 2930.05 1243.12 2928.74 1246.29 2929.74C1249.46 2930.74 1251.02 2931.63 1255.48 2937.46C1259.95 2943.28 1267.25 2942.97 1266.83 2949.26L1265.95 2962.62C1265.64 2967.33 1263.92 2968.8 1267.04 2970.58C1270.16 2972.37 1270.8 2974.78 1284.49 2975.68C1298.18 2976.59 1295.01 2975.59 1304.57 2977.8C1312.21 2979.57 1316.81 2980.19 1318.15 2980.27L1331.83 2981.18L1339.08 2981.66C1343.11 2981.92 1344.82 2980.46 1346.92 2985.33C1349.03 2990.21 1346.35 2993.98 1346.04 2998.69C1345.73 3003.4 1345.73 3003.41 1347.62 3011.4L1347.63 3011.43C1349.52 3019.45 1349.36 3021.81 1349.16 3024.95C1348.95 3028.09 1349.7 3028.93 1353.52 3032.34C1357.34 3035.75 1355.73 3035.65 1364.48 3037.8C1373.23 3039.96 1370.92 3038.23 1381.28 3040.49C1391.64 3042.75 1400.55 3042.55 1406.89 3044.55C1413.22 3046.55 1418.16 3045.29 1425.19 3048.92C1432.23 3052.54 1437.87 3052.91 1441.69 3056.32C1445.51 3059.73 1449.35 3050.51 1450.15 3050.56C1450.96 3050.62 1450.36 3047.42 1450.78 3041.13C1451.19 3034.84 1448.88 3033.11 1451.71 3026.98C1454.54 3020.86 1452.98 3019.96 1458.23 3014C1463.47 3008.03 1462.82 3005.62 1469.58 3001.32C1476.33 2997.03 1480.77 2991.01 1482.38 2991.12C1483.99 2991.22 1485.65 2990.54 1489.91 2999.51C1494.17 3008.47 1493.31 3009.21 1496.87 3016.55C1500.43 3023.89 1499.21 3030.12 1502.43 3030.33C1505.65 3030.55 1504.19 3028.08 1512.89 3031.02C1521.59 3033.97 1523.31 3032.5 1529.85 3031.36C1535.09 3030.44 1542.37 3029.55 1545.35 3029.22L1550.99 3029.59C1553.77 3024.25 1561.78 3013.1 1571.61 3011.22C1574.38 3011.4 1576.78 3011.52 1578.86 3011.61C1590.1 3012.1 1592.17 3011.74 1593.94 3015.85C1596.05 3020.73 1591.99 3008.62 1596.69 3023.14C1601.4 3037.66 1604.07 3033.89 1604.9 3045.78C1605.48 3054.03 1601.69 3057.81 1602.72 3060.64C1603.18 3061.89 1604.58 3062.95 1607.73 3064.13C1617.99 3067.96 1615.58 3067.8 1624.64 3065.24C1633.7 3062.68 1630.69 3059.33 1640.35 3059.97C1650.01 3060.6 1647.75 3058.09 1656.61 3058.67L1670.29 3059.57L1679.95 3060.21L1704.91 3061.86C1707.32 3062.02 1709.69 3062.97 1713.61 3064.8C1716.75 3066.27 1720.68 3067.9 1722.26 3068.53C1721.05 3066.35 1718.28 3060.22 1716.8 3053.17C1714.96 3044.37 1710.39 3040.12 1710 3033.78C1709.61 3027.44 1706.83 3032.78 1710.67 3023.56C1714.52 3014.34 1717.14 3011.36 1717.29 3009C1717.45 3006.64 1718.36 3005.12 1715.45 3000.19C1715.97 2992.33 1721.92 2987.99 1731.16 2994.91C1740.4 3001.84 1735.73 2999.16 1740.2 3004.98C1744.67 3010.81 1743.65 3013.9 1746.98 3012.54C1750.3 3011.18 1756.9 3009.24 1759.31 3009.4C1761.73 3009.56 1759.52 3006.26 1767.57 3006.79C1775.62 3007.32 1772.61 3003.97 1780.66 3004.5L1792.73 3005.3L1801.59 3005.88C1802.33 3002.77 1804.39 2995.33 1806.65 2990.43C1809.48 2984.3 1804.81 2981.62 1811.4 2979.69C1818 2977.76 1814.08 2975.92 1822.93 2976.5C1831.79 2977.09 1837.63 2974.31 1842.05 2980.92C1846.46 2987.53 1844.91 2986.64 1849.32 2993.24C1853.74 2999.85 1855.55 2996.81 1858.36 3003.31C1861.16 3009.81 1860.3 3010.55 1860.75 3016.1C1861.19 3021.66 1861.84 3024.07 1862.44 3027.26C1863.03 3030.46 1878.12 3010.14 1880.64 3008.73C1883.16 3007.32 1889.11 3002.98 1894.04 3001.72C1898.97 3000.47 1893.98 3002.51 1903.85 3000C1913.72 2997.5 1917.75 2997.76 1920.97 2997.97C1924.19 2998.19 1917.64 2999.33 1932.24 2998.72C1946.83 2998.1 1955.79 2997.12 1955.84 2996.33C1955.9 2995.54 1962.29 2996.76 1959.53 2989.47C1956.78 2982.18 1960.96 2980.09 1957.24 2975.11C1953.53 2970.13 1951.27 2967.61 1947.66 2961.06C1944.05 2954.5 1944.05 2954.5 1942 2948.84L1942 2948.84C1939.95 2943.18 1936.13 2939.77 1932.52 2933.22C1928.91 2926.66 1932.6 2919.8 1939.79 2921.07C1946.99 2922.33 1950.23 2922.14 1954.06 2925.36C1957.89 2928.58 1949.95 2926.47 1960.15 2931.09C1963.13 2932.44 1965.47 2933.11 1967.29 2933.23C1971.71 2933.54 1973.12 2930.67 1973.38 2926.63C1973.76 2920.94 1976.28 2919.53 1978.15 2915.7C1980.02 2911.88 1974.33 2912.29 1983.45 2908.95C1992.56 2905.6 1995.73 2906.6 1996.74 2903.51C2000.29 2898.69 2005.8 2884.64 2008.11 2878.21L2013.67 2867.53L2070.91 2882.36L2090.64 2852.87L2110.69 2818.67L2091.42 2767.67L2136.94 2776.2L2130.06 2770.22L2102.4 2760.5L2094.53 2720.51L2129.8 2700.73L2120.13 2675.62C2151.86 2642.33 2167.02 2621.37 2182.64 2573.97L2149.91 2579.7Z" fill="#454F62"/>
<path d="M237.831 1473.53C235.999 1482.39 235.177 1490.47 235.122 1497.27L240.546 1585.79C246.972 1609.81 258.922 1648.31 273.187 1682.72C285.76 1713.06 300.133 1740.22 314.109 1751.5C319.041 1754.39 325.092 1757.34 332.187 1760.18C371.038 1771.27 440.604 1759.96 475.472 1751.5C518.412 1709.08 600.36 1597.05 584.63 1488.33C566.015 1359.65 269.368 1341.32 237.831 1473.53Z" fill="#8B725A"/>
<path d="M185.628 2409.58L199.866 2583.63L192.916 2644.43L206.985 2656.36H269.7L289.749 2634.6L337.839 2621.49V2554.47V2496.54V2458.75C346.088 2445.04 360.687 2408.8 353.094 2373.51C345.5 2338.23 346.201 2306.16 349.365 2296.32L353.094 2235.99C281.304 2234.77 209.034 2235.82 204.273 2235.82C196.95 2235.82 190.318 2207.6 187.917 2193.5L193.425 2308.24L185.628 2409.58Z" fill="#8B725A"/>
<path d="M551.747 2202.73C538.639 2208.99 509.372 2226.76 497.168 2247.74L505.304 2342.22C495.36 2355.63 475.472 2387.88 475.472 2409.58C475.472 2431.27 480.896 2462.53 483.608 2475.44L497.168 2548.17V2554.47V2608.67L424.284 2656.36H524.627H597.173L628.7 2644.43L636.497 2514.19C646.667 2490.94 664.905 2441.88 656.498 2431.63C656.498 2413.99 649.492 2388.91 645.989 2378.58V2299.9L628.7 2170.12C618.927 2185.42 576.593 2197.71 551.747 2202.73Z" fill="#8B725A"/>
<path d="M744.977 1773.85C719.213 1743.33 664.408 1729.74 640.226 1726.76L592.088 1852.53L583.952 1953.57C588.246 1985.26 593.376 2054.55 579.545 2078.15C566.292 2084.4 533.099 2083.64 505.304 2081.36C486.863 2080.24 460.556 2109.75 449.708 2124.65C417.391 2126.04 346.314 2126.2 320.55 2115.71C294.786 2105.22 238.399 2102.99 213.426 2103.19L189.357 2115.71V2145.81H185.628L187.917 2193.5C190.318 2207.6 196.95 2235.82 204.273 2235.82C209.034 2235.82 281.304 2234.77 353.094 2235.99C419.317 2237.11 485.131 2240.16 497.168 2247.74C509.372 2226.76 538.639 2208.99 551.747 2202.73C576.593 2197.71 618.927 2185.42 628.7 2170.12C631.284 2166.07 631.592 2161.82 628.7 2157.43C634.938 2119.76 670.397 2034.64 687.347 1996.79L763.911 1899.67C763.639 1843.35 759.035 1790.5 744.977 1773.85Z" fill="#8B725A"/>
<path d="M185.628 2021.82C184.046 2035.23 181.831 2065.28 185.628 2078.15C183.387 2085.67 194.266 2093.67 204.273 2098.95C204.439 2099.04 204.606 2099.12 204.772 2099.21C211.51 2102.36 239.318 2102.3 301.905 2078.15C366.179 2053.36 444.397 2067.82 475.472 2078.15C483.319 2079.23 493.854 2080.42 505.304 2081.36C533.099 2083.64 566.292 2084.4 579.545 2078.15C593.376 2054.55 588.246 1985.26 583.952 1953.57C532.761 1956.83 456.985 1960.74 395.469 1961.91C333.279 1963.1 285.662 1961.48 292.752 1953.57C306.854 1937.83 355.806 1916.22 378.519 1907.37L359.874 1769.05C351.656 1766.98 344.181 1764.66 337.5 1762.21C315.261 1767.69 239.416 1902.2 204.273 1968.77L185.628 2021.82Z" fill="#8B725A"/>
<path d="M192.916 2954.1L305.973 2981.22V2903.73L355.128 2798.89L244.953 2788.09L185.628 2869.16V2950.34L192.916 2954.1Z" fill="#8B725A"/>
<path d="M305.973 2981.22L533.102 3000L537.17 2903.73L533.102 2815.51H524.627L355.128 2798.89L305.973 2903.73V2981.22Z" fill="#8B725A"/>
<path d="M533.102 3000L678.194 2994.04L697.517 2988.61V2883.76L662.261 2815.51H533.102L537.17 2903.73L533.102 3000Z" fill="#8B725A"/>
<path d="M629.039 1368.21C593.218 1348.25 493.033 1314.69 378.858 1340.2C283.286 1361.55 247.239 1427.97 237.831 1473.53C269.368 1341.32 566.015 1359.65 584.63 1488.33C600.36 1597.05 518.412 1709.08 475.472 1751.5L640.226 1726.76L644.294 1702.92L672.408 1665.07C691.751 1645.89 698.681 1612.96 699.551 1593.83C702.037 1586.98 707.009 1563.43 707.009 1524.09C710.806 1458.28 656.611 1392.75 629.039 1368.21Z" fill="#4C463A"/>
<path d="M640.226 1726.76L475.472 1751.5C440.604 1759.96 371.038 1771.27 332.187 1760.18C333.898 1760.87 335.669 1761.54 337.5 1762.21C344.181 1764.66 351.656 1766.98 359.874 1769.05C420.099 1784.26 520.233 1786.33 640.226 1726.76Z" fill="#4C463A"/>
<path d="M378.519 1907.37C355.806 1916.22 306.854 1937.83 292.752 1953.57C285.662 1961.48 333.279 1963.1 395.469 1961.91L378.519 1907.37Z" fill="#4C463A"/>
<path d="M475.472 2078.15C444.397 2067.82 366.179 2053.36 301.905 2078.15C239.318 2102.3 211.51 2102.36 204.772 2099.21C207.911 2100.84 210.941 2102.2 213.426 2103.19C238.399 2102.99 294.786 2105.22 320.55 2115.71C346.314 2126.2 417.391 2126.04 449.708 2124.65C460.556 2109.75 486.863 2080.24 505.304 2081.36C493.854 2080.42 483.319 2079.23 475.472 2078.15Z" fill="#4C463A"/>
<path d="M803.963 2558.3H738.197H633.857L628.7 2644.43L597.173 2656.36H697.517C720.682 2648.01 777.657 2626.79 820.235 2608.67C837.522 2604.22 844.282 2598.3 844.626 2591.98C845.297 2579.65 821.589 2565.79 803.963 2558.3Z" fill="#4C463A"/>
<path d="M424.284 2656.36L497.168 2608.67V2554.47H407.098H337.839V2621.49L289.749 2634.6L269.7 2656.36H424.284Z" fill="#4C463A"/>
<path d="M199.866 2583.63L150.711 2608.67L192.916 2644.43L199.866 2583.63Z" fill="#4C463A"/>
<path d="M756.503 2792.26L662.261 2815.51L697.517 2883.76V2988.61L820.235 2954.1L866 2921.61L861.593 2837.86L782.267 2766.33L756.503 2792.26Z" fill="#4C463A"/>
<path d="M244.953 2788.09L229.721 2771.1C199.316 2794.15 139.727 2845.26 144.609 2865.28C137.829 2883.88 145.852 2917.74 150.711 2932.34L185.628 2950.34V2869.16L244.953 2788.09Z" fill="#4C463A"/>
<path d="M240.546 1585.79C240.546 1611.91 244.139 1667.33 258.513 1679.97C264.902 1681.47 270.177 1682.33 273.187 1682.72C258.922 1648.31 246.972 1609.81 240.546 1585.79Z" fill="#4C463A"/>
<path d="M583.952 1953.57L592.088 1852.53L640.226 1726.76C520.233 1786.33 420.099 1784.26 359.874 1769.05L378.519 1907.37L395.469 1961.91C456.985 1960.74 532.761 1956.83 583.952 1953.57Z" fill="#4C463A"/>
<path d="M758.537 2028.68C761.361 1995.86 764.138 1946.56 763.911 1899.67L687.347 1996.79C670.397 2034.64 634.938 2119.76 628.7 2157.43C631.592 2161.82 631.284 2166.07 628.7 2170.12L727.688 2270.99L758.537 2028.68Z" fill="#4C463A"/>
<path d="M505.304 2342.22L497.168 2247.74C485.131 2240.16 419.317 2237.11 353.094 2235.99L349.365 2296.32C346.201 2306.16 345.5 2338.23 353.094 2373.51C360.687 2408.8 346.088 2445.04 337.839 2458.75V2496.54C352.826 2509.39 378.668 2531.06 394.113 2542.5C397.345 2544.9 404.971 2553.14 407.098 2554.47H497.168V2548.17L483.608 2475.44C480.896 2462.53 475.472 2431.27 475.472 2409.58C475.472 2387.88 495.36 2355.63 505.304 2342.22Z" fill="#4C463A"/>
<path d="M795.149 2361.29C795.149 2330.54 750.175 2288.27 727.688 2270.99L628.7 2170.12L645.989 2299.9V2378.58C649.492 2388.91 656.498 2413.99 656.498 2431.63C664.905 2441.88 646.667 2490.94 636.497 2514.19L633.857 2558.3H738.197L808.709 2497.8C808.709 2464.42 805.997 2390.38 795.149 2361.29Z" fill="#4C463A"/>
<path d="M524.627 2656.36H424.284H269.7H206.985L192.916 2644.43L150.711 2608.67L144.609 2678.71L185.628 2721.93L229.721 2771.1L244.953 2788.09L355.128 2798.89L524.627 2815.51V2656.36Z" fill="#3E352B"/>
<path d="M697.517 2656.36H597.173H524.627V2815.51H533.102H662.261L697.517 2728.48V2656.36Z" fill="#3E352B"/>
<path d="M820.235 2608.67C777.657 2626.79 720.682 2648.01 697.517 2656.36V2728.48L662.261 2815.51L756.503 2792.26L782.267 2766.33L850.406 2684.67C850.847 2653.77 850.307 2591.98 844.626 2591.98C844.282 2598.3 837.522 2604.22 820.235 2608.67Z" fill="#3E352B"/>
<path fill-rule="evenodd" clip-rule="evenodd" d="M1500 3000C2328.43 3000 3000 2328.43 3000 1500C3000 671.573 2328.43 0 1500 0C671.573 0 0 671.573 0 1500C0 2328.43 671.573 3000 1500 3000ZM312.5 771C149.7 983 104 1345.33 101.5 1500C101.5 1934.81 323.5 2284.5 434.5 2405C516.167 2510.33 765.8 2745.5 1111 2843.5C1456.2 2941.5 1768.83 2884.33 1882 2843.5C1920.5 2841.17 2056.6 2799.8 2293 2653C2529.4 2506.2 2699.5 2224.83 2755 2102.5C2798 2025.5 2887.4 1797.2 2901 1500C2914.6 1202.8 2768.67 890.167 2694 771C2651 711 2537.1 562.4 2425.5 448C2313.9 333.6 2084.67 223.667 1984 183C1935.33 166 1770.4 125.9 1500 101.5C1229.6 77.1 896.667 229.667 764 309C671.167 361 450.9 526.2 312.5 771Z" fill="url(#paint1_linear_2271_17674)"/>
<path d="M2434.6 2717.42L921.63 2975.86C921.63 2975.86 920.359 3000.51 927.977 3009.53C935.596 3018.55 2425.5 2752.84 2433.54 2743.19C2441.59 2733.54 2434.6 2717.42 2434.6 2717.42Z" fill="#BC896E"/>
<path d="M921.63 2975.86L2434.6 2717.42C2434.6 2717.42 2451.91 2686.26 2455.24 2675.17C2458.58 2664.08 2437.52 2557.63 2419.91 2540.03C2402.29 2522.43 1920.55 2491.18 1920.55 2491.18L1791.23 2446.08L1816.9 2482.82L1847.69 2504.92C1871.2 2520.63 1921.26 2553.58 1933.45 2559.65C1948.69 2567.24 2034.46 2590.6 2071.18 2570.89C2107.9 2551.18 2203.5 2558.73 2212.08 2557.12C2218.93 2555.83 2183.29 2585.79 2164.61 2600.93C2144.77 2611.65 2101.85 2633.69 2088.9 2636.13C2072.71 2639.18 1994.61 2632.98 1983.66 2635.04C1972.71 2637.1 1937.94 2664.58 1917.94 2668.35C1897.94 2672.12 1792.12 2717.64 1766.41 2722.48C1740.69 2727.33 1557.78 2764.13 1542.59 2764.67C1530.45 2765.1 1398.24 2760.1 1333.65 2757.55L882.65 2818.15L921.63 2975.86Z" fill="#B57657"/>
<path fill-rule="evenodd" clip-rule="evenodd" d="M1723.67 2422.52L1676.37 2490.71L1642.34 2527.35C1629.01 2526.37 1601.26 2524.4 1596.9 2524.29C1592.54 2524.18 1571.55 2509.31 1561.61 2501.88L1500.71 2526.74L1497.96 2527.86L1467.28 2540.39L1452.17 2546.55L1376.45 2577.46C1372.85 2588.6 1364.82 2611.04 1361.39 2611.69C1357.1 2612.49 1309.96 2631.84 1286.62 2636.24C1263.29 2640.64 1205.46 2671.3 1167.36 2678.48C1129.27 2685.66 1108.68 2704.65 1099.64 2706.35C1090.59 2708.06 1113.87 2737.38 1121.96 2735.85L1227.68 2715.93C1243.39 2712.96 1274.03 2721.14 1284.71 2720.29C1295.4 2719.43 1331.96 2748.58 1333.65 2757.55C1398.24 2760.1 1530.45 2765.1 1542.59 2764.67C1557.78 2764.13 1740.69 2727.33 1766.41 2722.48C1792.12 2717.64 1897.94 2672.12 1917.94 2668.35C1937.94 2664.58 1972.71 2637.1 1983.66 2635.04C1994.61 2632.98 2072.71 2639.18 2088.9 2636.13C2101.85 2633.69 2144.77 2611.65 2164.61 2600.93C2183.29 2585.79 2218.93 2555.83 2212.08 2557.12C2203.5 2558.73 2107.9 2551.18 2071.18 2570.89C2034.46 2590.6 1948.69 2567.24 1933.45 2559.65C1921.26 2553.58 1871.2 2520.63 1847.69 2504.92L1816.9 2482.82L1791.23 2446.08L1765.37 2437.06L1738.45 2427.67L1723.67 2422.52ZM1756.42 2556.99L1756.26 2522.15L1774.36 2518.74L1783.3 2532.16L1794.51 2560.27L1793.45 2586.04C1787.74 2587.12 1774.5 2587.52 1767.26 2580.52C1760.02 2573.51 1757.02 2561.91 1756.42 2556.99ZM1466.41 2622.11C1467.94 2630.19 1483.17 2632.51 1490.59 2632.66L1487.84 2618.07C1489.98 2607.6 1493.7 2583.73 1491.5 2572.05C1488.75 2557.46 1487.11 2556.61 1481.66 2546.01C1476.21 2535.41 1464.04 2549.33 1461.39 2561.45C1458.74 2573.58 1453.35 2571.11 1452.92 2579.32C1452.5 2587.54 1464.51 2612.01 1466.41 2622.11Z" fill="#AD8F79"/>
<path d="M873.866 2782.61C870.373 2790.25 882.65 2818.15 882.65 2818.15L1333.65 2757.55C1331.96 2748.58 1295.4 2719.43 1284.71 2720.29C1274.03 2721.14 1243.39 2712.96 1227.68 2715.93L1121.96 2735.85C1113.87 2737.38 1090.59 2708.06 1099.64 2706.35C1108.68 2704.65 1129.27 2685.66 1167.36 2678.48C1205.46 2671.3 1263.29 2640.64 1286.62 2636.24C1309.96 2631.84 1357.1 2612.49 1361.39 2611.69C1364.82 2611.04 1372.85 2588.6 1376.45 2577.46C1376.45 2577.46 877.358 2774.98 873.866 2782.61Z" fill="#AB7E51"/>
<path d="M1490.59 2632.66C1483.17 2632.51 1467.94 2630.19 1466.41 2622.11C1464.51 2612.01 1452.5 2587.54 1452.92 2579.32C1453.35 2571.11 1458.74 2573.58 1461.39 2561.45C1464.04 2549.33 1476.21 2535.41 1481.66 2546.01C1487.11 2556.61 1488.75 2557.46 1491.5 2572.05C1493.7 2583.73 1489.98 2607.6 1487.84 2618.07L1490.59 2632.66Z" fill="#4A2B17"/>
<path d="M1756.26 2522.15L1756.42 2556.99C1757.02 2561.91 1760.02 2573.51 1767.26 2580.52C1774.5 2587.52 1787.74 2587.12 1793.45 2586.04L1794.51 2560.27L1783.3 2532.16L1774.36 2518.74L1756.26 2522.15Z" fill="#5E3F2C"/>
<path d="M1437.32 2525.31L1452.17 2546.55L1467.28 2540.39L1472.88 2483.74C1476.44 2486.94 1484.18 2495.55 1486.63 2504.39C1491.37 2512.8 1496.16 2523.54 1497.96 2527.86L1500.71 2526.74C1499.58 2522.49 1498.55 2508.49 1503.46 2486.43C1506.65 2471.93 1508.7 2485.44 1511.78 2470.4C1514.87 2455.35 1521.77 2460.57 1525.53 2451.73C1529.28 2442.89 1533.41 2438.62 1540.92 2420.93C1548.44 2403.24 1548.12 2406.79 1550.03 2406.43C1551.93 2406.07 1558.92 2390.81 1565.27 2382.64C1571.61 2374.46 1570.03 2381.74 1576.69 2380.48C1583.36 2379.22 1590.93 2369.66 1605.69 2366.88L1638.55 2360.69L1668.07 2355.12C1675.21 2353.78 1680.88 2344.57 1689.5 2351.08C1696.4 2356.29 1700.87 2361.72 1702.25 2363.79C1703.47 2365.89 1708.52 2375.63 1719.02 2397.82C1732.14 2425.57 1728.49 2408.82 1735.53 2412.15C1741.16 2414.81 1739.82 2423.61 1738.45 2427.67L1765.37 2437.06C1763.22 2430 1758.81 2414.27 1758.41 2407.83C1757.92 2399.79 1758.76 2401.96 1760.55 2395.81C1762.35 2389.66 1763.41 2395.27 1772.83 2377.22C1776.69 2374.17 1777.22 2371.74 1783.36 2362.45C1789.5 2353.16 1788.92 2347.46 1785.27 2341.17C1781.62 2334.88 1772.46 2320.34 1770.88 2317.15C1769.29 2313.96 1759.77 2305.29 1753.95 2300.58C1749.29 2296.81 1748.83 2299.61 1749.19 2301.48C1746.66 2304.66 1739.98 2312.28 1733.42 2317.23C1725.22 2323.43 1718.66 2299.09 1713.31 2294.29C1707.97 2289.49 1699.98 2296.8 1696.17 2297.52C1692.36 2298.24 1676.86 2302.32 1664.26 2303.53C1651.67 2304.75 1640.61 2301.02 1631.3 2303.94C1621.99 2306.85 1616.28 2307.93 1592.46 2322.88C1568.65 2337.83 1577.07 2332.76 1568.23 2335.58C1559.4 2338.41 1550.5 2364.5 1543.26 2370.51C1536.01 2376.53 1530.03 2389.28 1525.58 2397.09C1521.14 2404.9 1514.94 2426.99 1490.08 2446.79C1465.21 2466.59 1467.32 2456.89 1453.14 2465.37C1438.96 2473.86 1443.62 2467.17 1435.05 2468.78L1402.67 2474.89C1395.05 2476.32 1396.53 2484.18 1387.64 2499.8C1378.75 2515.43 1379.22 2536.26 1380.65 2535.99L1399.22 2532.49L1437.32 2525.31Z" fill="#C49779"/>
<path d="M1714.98 2599.52C1724.68 2600.54 1732.82 2608.85 1744.49 2608.72C1747.13 2612.65 1746.83 2613.75 1744.9 2614.8C1734.9 2612.15 1727.43 2607.4 1714.91 2606.91C1710.45 2602.05 1711.39 2600.84 1714.98 2599.52Z" fill="#9A7D67"/>
<path d="M1682.3 2552.21C1686.48 2553 1690.17 2557.78 1695.17 2557.99C1696.4 2560.22 1696.3 2560.81 1695.5 2561.35C1691.14 2559.65 1687.83 2556.85 1682.45 2556.28C1680.42 2553.5 1680.79 2552.86 1682.3 2552.21Z" fill="#9A7D67"/>
<path d="M1735.21 2461.55C1741.28 2472.5 1744.45 2485.81 1752.11 2498.25C1752.82 2503.25 1752.34 2503.53 1750.81 2502.04C1744.96 2489.87 1741.31 2479.24 1733.25 2465.55C1731.59 2458.08 1732.52 2458.43 1735.21 2461.55Z" fill="#9A7D67"/>
<path d="M1754.58 2693.4C1755.33 2680 1759.18 2672.65 1759.5 2655.81C1761.28 2654.07 1761.74 2655.08 1762.13 2658.4C1760.67 2671.39 1758.38 2679.64 1757.76 2697.38C1755.52 2701.25 1755.03 2699.26 1754.58 2693.4Z" fill="#9A7D67"/>
<path d="M1813 2618.24C1819.68 2619.67 1825.66 2627.84 1833.64 2628.29C1835.64 2632.1 1835.49 2633.11 1834.22 2634C1827.25 2631.03 1821.91 2626.22 1813.32 2625.15C1810.03 2620.38 1810.61 2619.3 1813 2618.24Z" fill="#9A7D67"/>
<path d="M1859.62 2549.32C1866.19 2558.18 1870.33 2570.76 1878.49 2580.49C1879.61 2585.43 1879.2 2585.93 1877.66 2585.03C1871.17 2574.79 1866.84 2565.23 1858.2 2554.36C1855.98 2547.25 1856.87 2547.22 1859.62 2549.32Z" fill="#9A7D67"/>
<path d="M1879.27 2633.79C1886 2635.61 1891.92 2644.06 1899.96 2645C1901.93 2648.89 1901.77 2649.88 1900.48 2650.68C1893.48 2647.32 1888.15 2642.24 1879.5 2640.66C1876.24 2635.73 1876.85 2634.7 1879.27 2633.79Z" fill="#9A7D67"/>
<path d="M1979.09 2583.87C1985.95 2590.07 1990.97 2601.34 1999.35 2607.7C2000.86 2612.36 2000.54 2613.08 1999.05 2612.87C1992.14 2605.17 1987.25 2597.18 1978.32 2589.84C1975.6 2583.41 1976.39 2582.96 1979.09 2583.87Z" fill="#9A7D67"/>
<path d="M1921.37 2615.69C1925.53 2607.5 1931.38 2607.05 1935.96 2596.02C1938.24 2596.94 1938.47 2598.17 1938.04 2600.88C1933.24 2607.95 1928.79 2610.85 1923.68 2622.14C1920.37 2622.12 1920.37 2620.2 1921.37 2615.69Z" fill="#9A7D67"/>
<path d="M1311.92 2685.58C1318.6 2687.01 1324.58 2695.18 1332.55 2695.64C1334.56 2699.44 1334.4 2700.45 1333.14 2701.34C1326.17 2698.37 1320.82 2693.57 1312.24 2692.49C1308.94 2687.73 1309.53 2686.65 1311.92 2685.58Z" fill="#9A7D67"/>
<path d="M1373.43 2640.64C1380.11 2642.08 1386.09 2650.25 1394.06 2650.7C1396.06 2654.51 1395.91 2655.52 1394.64 2656.41C1387.68 2653.44 1382.33 2648.63 1373.75 2647.56C1370.45 2642.79 1371.04 2641.71 1373.43 2640.64Z" fill="#9A7D67"/>
<path d="M1467.06 2717.17C1462.13 2723.45 1456.01 2721.89 1450.45 2730.68C1448.14 2729.05 1447.99 2727.82 1448.64 2725.43C1454.14 2720.42 1458.98 2719.21 1465.12 2710.35C1468.56 2711.49 1468.42 2713.29 1467.06 2717.17Z" fill="#9A7D67"/>
<path d="M1497.73 2662.19C1504.58 2668.48 1509.57 2679.8 1517.95 2686.28C1519.45 2690.96 1519.12 2691.67 1517.63 2691.43C1510.73 2683.65 1505.86 2675.59 1496.93 2668.13C1494.22 2661.68 1495.02 2661.24 1497.73 2662.19Z" fill="#9A7D67"/>
<path d="M1220.11 2686.89C1225.19 2681.08 1231.35 2683.09 1237.13 2674.84C1239.44 2676.63 1239.57 2677.85 1238.88 2680.17C1233.23 2684.69 1228.31 2685.51 1221.95 2693.78C1218.5 2692.39 1218.66 2690.62 1220.11 2686.89Z" fill="#9A7D67"/>
<path d="M1528.27 2569.88C1534.17 2581.35 1537.06 2594.77 1544.53 2607.88C1545.12 2612.87 1544.63 2613.09 1543.11 2611.45C1537.47 2598.81 1534.02 2587.95 1526.18 2573.57C1524.69 2566.05 1525.62 2566.5 1528.27 2569.88Z" fill="#9A7D67"/>
<path d="M1532.1 2739.4C1537.33 2734.04 1543.53 2736.48 1549.5 2728.77C1551.81 2730.71 1551.92 2731.93 1551.18 2734.16C1545.4 2738.21 1540.41 2738.65 1533.86 2746.34C1530.38 2744.71 1530.58 2742.98 1532.1 2739.4Z" fill="#9A7D67"/>
<path d="M1608.1 2653.21C1611.63 2643.69 1617.19 2641.74 1620.96 2629.19C1623.19 2629.56 1623.48 2630.77 1623.21 2633.68C1619.02 2642.2 1614.92 2646.32 1610.66 2659.28C1607.5 2660.1 1607.39 2658.11 1608.1 2653.21Z" fill="#9A7D67"/>
<path d="M1572.16 2654.77C1578.8 2663.19 1583.11 2675.58 1591.34 2684.74C1592.53 2689.64 1592.13 2690.19 1590.59 2689.41C1584.01 2679.58 1579.57 2670.27 1570.85 2659.99C1568.54 2652.98 1569.41 2652.87 1572.16 2654.77Z" fill="#9A7D67"/>
<path d="M1583.23 2556.59C1590.07 2563.07 1595.01 2574.48 1603.39 2581.19C1604.86 2585.88 1604.53 2586.59 1603.03 2586.3C1596.15 2578.34 1591.3 2570.18 1582.39 2562.48C1579.71 2555.97 1580.51 2555.56 1583.23 2556.59Z" fill="#9A7D67"/>
<path d="M1613.55 2717.84C1617.78 2709.81 1623.66 2709.54 1628.33 2698.7C1630.62 2699.68 1630.84 2700.91 1630.39 2703.6C1625.53 2710.49 1621.03 2713.24 1615.83 2724.33C1612.51 2724.21 1612.52 2722.3 1613.55 2717.84Z" fill="#9A7D67"/>
<path d="M1640.82 2563.14C1646.94 2573.96 1650.18 2587.23 1657.89 2599.49C1658.63 2604.49 1658.16 2604.79 1656.62 2603.34C1650.72 2591.29 1647.01 2580.73 1638.9 2567.23C1637.2 2559.78 1638.12 2560.1 1640.82 2563.14Z" fill="#9A7D67"/>
<path d="M1666.33 2666.8C1673.02 2668.23 1678.99 2676.41 1686.97 2676.86C1688.97 2680.67 1688.82 2681.67 1687.55 2682.56C1680.58 2679.59 1675.24 2674.79 1666.65 2673.72C1663.36 2668.95 1663.95 2667.87 1666.33 2666.8Z" fill="#9A7D67"/>
<path d="M1290.34 2824.85C1290.69 2826.71 1290.33 2828.33 1289.54 2828.48C1288.76 2828.63 1287.83 2827.24 1287.48 2825.38C1287.13 2823.52 1287.49 2821.9 1288.28 2821.75C1289.06 2821.6 1289.99 2822.99 1290.34 2824.85Z" fill="#9F6C52"/>
<path d="M1319.23 2805.45C1319.58 2807.31 1319.22 2808.94 1318.43 2809.09C1317.65 2809.24 1316.72 2807.85 1316.37 2805.99C1316.02 2804.13 1316.38 2802.5 1317.17 2802.35C1317.95 2802.21 1318.88 2803.59 1319.23 2805.45Z" fill="#9F6C52"/>
<path d="M1234.57 2816.76C1234.92 2818.62 1234.57 2820.25 1233.78 2820.4C1232.99 2820.54 1232.06 2819.16 1231.71 2817.3C1231.36 2815.44 1231.72 2813.81 1232.51 2813.66C1233.3 2813.51 1234.22 2814.9 1234.57 2816.76Z" fill="#9F6C52"/>
<path d="M1251.18 2878.72C1251.53 2880.58 1251.18 2882.21 1250.39 2882.35C1249.6 2882.5 1248.67 2881.12 1248.32 2879.26C1247.97 2877.4 1248.33 2875.77 1249.12 2875.62C1249.91 2875.47 1250.83 2876.86 1251.18 2878.72Z" fill="#9F6C52"/>
<path d="M2713.57 2163.32C2727.73 2171.12 2756.65 2186.42 2759.01 2185.23L2743.24 2213.86C2741.84 2216.41 2717.45 2238.36 2705.43 2249.02C2694.78 2266.65 2672.78 2303.18 2669.97 2308.28L2630.56 2379.87L2456.2 2575.14C2501.38 2492.21 2592.07 2325.92 2593.39 2324.16L2713.57 2163.32Z" fill="#715331"/>
<path d="M2777.65 2080.44L3062.01 2189.3L3055.01 2202.03L2991.68 2181.67C2982.05 2176.38 2961.78 2165.84 2957.68 2166.07C2952.55 2166.35 2930.19 2164.41 2925.29 2161.71C2920.39 2159.01 2894.54 2158.26 2892.36 2157.06C2890.61 2156.1 2845.89 2156.35 2823.75 2156.6L2775.28 2177.6L2717.5 2158.23L2777.65 2080.44Z" fill="#715331"/>
<path d="M2609.48 2015.84L2685.89 2043.39L2655.23 2099.07C2636.89 2071.88 2628.09 2055.46 2594.92 2039.96L2609.48 2015.84Z" fill="#715331"/>
<path d="M2456.44 1963.72L2525.77 1987.38L2515.68 2010.85C2492.19 1993.05 2479.27 1982.61 2447.25 1980.43L2456.44 1963.72Z" fill="#715331"/>
<path d="M3041.87 2225.89C2947.18 2196.96 2892.28 2175.73 2811.58 2185.15L2763.44 2204.25L2756.36 2200.35L2736.22 2236.94L2713.97 2267.03L2630.56 2379.87L2669.97 2308.28C2672.78 2303.18 2694.78 2266.65 2705.43 2249.02C2717.45 2238.36 2741.84 2216.41 2743.24 2213.86L2759.01 2185.23C2756.65 2186.42 2727.73 2171.12 2713.57 2163.32L2717.5 2158.23L2775.28 2177.6L2823.75 2156.6C2845.89 2156.35 2890.61 2156.1 2892.36 2157.06C2894.54 2158.26 2920.39 2159.01 2925.29 2161.71C2930.19 2164.41 2952.55 2166.35 2957.68 2166.07C2961.78 2165.84 2982.05 2176.38 2991.68 2181.67L3055.01 2202.03L3041.87 2225.89Z" fill="#080202"/>
<path d="M2587.32 2079.31L2575.19 2072.63L2594.92 2039.96C2628.09 2055.46 2636.89 2071.88 2655.23 2099.07L2647.79 2112.6L2647.45 2113.05C2638.73 2124.58 2630.19 2135.9 2621.8 2147L2630.64 2121.82L2587.32 2079.31Z" fill="#140200"/>
<path d="M2570.87 2128.3L2518.89 2283.15C2461.08 2359.58 2409.23 2427.96 2356.78 2496.79L2553.12 2109.2L2570.87 2128.3Z" fill="#EAD19B"/>
<path d="M2587.32 2079.31L2570.87 2128.3L2553.12 2109.2L2575.19 2072.63L2587.32 2079.31Z" fill="#7B4C17"/>
<path d="M2525.77 1987.38C2567.03 1978.75 2584.75 1986.32 2609.48 2015.84L2594.92 2039.96L2575.19 2072.63L2553.12 2109.2L2356.78 2496.79C2292.93 2580.58 2228.17 2665.05 2150.61 2765.55L2039.41 2682.57L2063.48 2649.17L2176.01 2719.41L2372.11 2351.6L2505.6 2034.32L2515.68 2010.85L2525.77 1987.38Z" fill="#87632F"/>
<path d="M2784.66 2067.71L2777.65 2080.44L2717.5 2158.23L2713.57 2163.32L2593.39 2324.16L2420.53 2555.5L2274 2751.59L2214.89 2817.71L2150.61 2765.55C2228.17 2665.05 2292.93 2580.58 2356.78 2496.79C2409.23 2427.96 2461.08 2359.58 2518.89 2283.15C2550.98 2240.73 2584.9 2195.84 2621.8 2147C2630.19 2135.9 2638.73 2124.58 2647.45 2113.05L2647.79 2112.6L2655.23 2099.07L2685.89 2043.39L2784.66 2067.71Z" fill="#EDD49C"/>
<path d="M2456.2 2575.14L2630.56 2379.87L2713.97 2267.03L2496.26 2662.5L2486.22 2674.01L2466.95 2696.11L2395.49 2778.05L2385.71 2789.25L2305.7 2880.99L2234.03 2833.24L2297.34 2753.04L2387.32 2652.28L2456.2 2575.14Z" fill="#EBD299"/>
<path d="M2297.34 2753.04L2274 2751.59L2420.53 2555.5L2387.32 2652.28L2297.34 2753.04Z" fill="#D6B56E"/>
<path d="M2466.95 2696.11L2444.68 2767.81L2430.66 2793.27L2395.49 2778.05L2466.95 2696.11Z" fill="#5F3C1E"/>
<path d="M2411.53 2809.69L2385.71 2789.25L2395.49 2778.05L2430.66 2793.27L2444.68 2767.81L2466.95 2696.11L2486.22 2674.01L2428.99 2813.07L2411.53 2809.69Z" fill="#130102"/>
<path d="M2305.7 2880.99L2385.71 2789.25L2411.53 2809.69L2437.35 2830.12C2459.17 2933.32 2518.4 2978.08 2626.03 3057.34C2624.96 3067.18 2623.11 3073.26 2608.52 3089.15L2305.7 2880.99Z" fill="#87632F"/>
<path d="M2274 2751.59L2297.34 2753.04L2234.03 2833.24L2214.89 2817.71L2274 2751.59Z" fill="#87632F"/>
<path d="M2670.85 2195.78L2689.12 2171.63L2686.94 2170.43L2669.22 2194.88L2670.85 2195.78Z" fill="#D8C18D"/>
<path d="M2516.27 2370.85L2534.53 2346.7L2532.35 2345.5L2514.63 2369.95L2516.27 2370.85Z" fill="#D8C18D"/>
<path d="M2560.9 2521.87L2579.17 2497.72L2576.99 2496.52L2559.27 2520.97L2560.9 2521.87Z" fill="#D8C18D"/>
<path d="M2477.53 2650.11L2495.79 2625.96L2493.61 2624.76L2475.89 2649.21L2477.53 2650.11Z" fill="#D8C18D"/>
<path d="M2614.68 2248.81L2632.95 2224.66L2630.77 2223.46L2613.05 2247.92L2614.68 2248.81Z" fill="#D8C18D"/>
<path d="M2538.65 2304.39L2556.92 2280.24L2554.74 2279.04L2537.02 2303.49L2538.65 2304.39Z" fill="#D8C18D"/>
<path d="M2409.62 2683.21L2427.88 2659.06L2425.7 2657.86L2407.98 2682.31L2409.62 2683.21Z" fill="#D8C18D"/>
<path d="M2405.57 2525.5L2423.84 2501.35L2421.66 2500.15L2403.94 2524.6L2405.57 2525.5Z" fill="#D8C18D"/>
<path d="M2284.45 2657.84L2302.71 2633.69L2300.53 2632.49L2282.81 2656.94L2284.45 2657.84Z" fill="#D8C18D"/>
<path d="M2338.31 2776.63L2356.57 2752.48L2354.4 2751.28L2336.68 2775.73L2338.31 2776.63Z" fill="#D8C18D"/>
<path d="M2417.61 2722.85L2435.87 2698.7L2433.69 2697.5L2415.97 2721.95L2417.61 2722.85Z" fill="#D8C18D"/>
<path d="M2658.11 2133.83L2676.37 2109.68L2674.19 2108.48L2656.47 2132.93L2658.11 2133.83Z" fill="#D8C18D"/>
<path d="M2578.13 2307.47L2596.4 2283.32L2594.22 2282.12L2576.5 2306.57L2578.13 2307.47Z" fill="#D8C18D"/>
<path d="M2719.66 2120.03L2737.92 2095.88L2735.74 2094.68L2718.02 2119.13L2719.66 2120.03Z" fill="#D8C18D"/>
<path d="M2581.53 2247.15L2599.79 2223L2597.61 2221.8L2579.89 2246.25L2581.53 2247.15Z" fill="#D8C18D"/>
<path d="M2431.72 2434.17L2449.98 2410.02L2447.8 2408.82L2430.08 2433.27L2431.72 2434.17Z" fill="#D8C18D"/>
<path d="M2328.24 2578.29L2346.5 2554.14L2344.32 2552.94L2326.6 2577.39L2328.24 2578.29Z" fill="#D8C18D"/>
<path d="M2235.17 2755.09L2253.43 2730.94L2251.25 2729.74L2233.53 2754.19L2235.17 2755.09Z" fill="#D8C18D"/>
<path d="M2232.9 2689.58L2251.16 2665.43L2248.99 2664.23L2231.27 2688.68L2232.9 2689.58Z" fill="#D8C18D"/>
<path d="M2519.14 2238.19L2526.55 2209.51L2523.77 2210.21L2517.05 2238.71L2519.14 2238.19Z" fill="#D8C18D"/>
<path d="M2523.73 2191.07L2531.14 2162.4L2528.36 2163.09L2521.64 2191.6L2523.73 2191.07Z" fill="#D8C18D"/>
<path d="M2458.62 2348.03L2466.03 2319.35L2463.25 2320.04L2456.54 2348.55L2458.62 2348.03Z" fill="#D8C18D"/>
<path d="M2490.56 2305.49L2497.97 2276.81L2495.19 2277.51L2488.47 2306.01L2490.56 2305.49Z" fill="#D8C18D"/>
<path d="M2427.11 2394.95L2434.52 2366.27L2431.74 2366.96L2425.03 2395.47L2427.11 2394.95Z" fill="#D8C18D"/>
<path d="M2376.86 2651.29L2384.27 2622.61L2381.49 2623.3L2374.77 2651.81L2376.86 2651.29Z" fill="#D8C18D"/>
<path d="M237.831 1473.53C235.999 1482.39 235.177 1490.47 235.122 1497.27L240.546 1585.79C246.972 1609.81 258.922 1648.31 273.187 1682.72C285.76 1713.06 300.133 1740.22 314.109 1751.5C319.041 1754.39 325.092 1757.34 332.187 1760.18C371.038 1771.27 440.604 1759.96 475.472 1751.5C518.412 1709.08 600.36 1597.05 584.63 1488.33C566.015 1359.65 269.368 1341.32 237.831 1473.53Z" fill="#8B725A"/>
<path d="M185.628 2409.58L199.866 2583.63L192.916 2644.43L206.985 2656.36H269.7L289.749 2634.6L337.839 2621.49V2554.47V2496.54V2458.75C346.088 2445.04 360.687 2408.8 353.094 2373.51C345.5 2338.23 346.201 2306.16 349.365 2296.32L353.094 2235.99C281.304 2234.77 209.034 2235.82 204.273 2235.82C196.95 2235.82 190.318 2207.6 187.917 2193.5L193.425 2308.24L185.628 2409.58Z" fill="#8B725A"/>
<path d="M551.747 2202.73C538.639 2208.99 509.372 2226.76 497.168 2247.74L505.304 2342.22C495.36 2355.63 475.472 2387.88 475.472 2409.58C475.472 2431.27 480.896 2462.53 483.608 2475.44L497.168 2548.17V2554.47V2608.67L424.284 2656.36H524.627H597.173L628.7 2644.43L636.497 2514.19C646.667 2490.94 664.905 2441.88 656.498 2431.63C656.498 2413.99 649.492 2388.91 645.989 2378.58V2299.9L628.7 2170.12C618.927 2185.42 576.593 2197.71 551.747 2202.73Z" fill="#8B725A"/>
<path d="M744.977 1773.85C719.213 1743.33 664.408 1729.74 640.226 1726.76L592.088 1852.53L583.952 1953.57C588.246 1985.26 593.376 2054.55 579.545 2078.15C566.292 2084.4 533.099 2083.64 505.304 2081.36C486.863 2080.24 460.556 2109.75 449.708 2124.65C417.391 2126.04 346.314 2126.2 320.55 2115.71C294.786 2105.22 238.399 2102.99 213.426 2103.19L189.357 2115.71V2145.81H185.628L187.917 2193.5C190.318 2207.6 196.95 2235.82 204.273 2235.82C209.034 2235.82 281.304 2234.77 353.094 2235.99C419.317 2237.11 485.131 2240.16 497.168 2247.74C509.372 2226.76 538.639 2208.99 551.747 2202.73C576.593 2197.71 618.927 2185.42 628.7 2170.12C631.284 2166.07 631.592 2161.82 628.7 2157.43C634.938 2119.76 670.397 2034.64 687.347 1996.79L763.911 1899.67C763.639 1843.35 759.035 1790.5 744.977 1773.85Z" fill="#8B725A"/>
<path d="M185.628 2021.82C184.046 2035.23 181.831 2065.28 185.628 2078.15C183.387 2085.67 194.266 2093.67 204.273 2098.95C204.439 2099.04 204.606 2099.12 204.772 2099.21C211.51 2102.36 239.318 2102.3 301.905 2078.15C366.179 2053.36 444.397 2067.82 475.472 2078.15C483.319 2079.23 493.854 2080.42 505.304 2081.36C533.099 2083.64 566.292 2084.4 579.545 2078.15C593.376 2054.55 588.246 1985.26 583.952 1953.57C532.761 1956.83 456.985 1960.74 395.469 1961.91C333.279 1963.1 285.662 1961.48 292.752 1953.57C306.854 1937.83 355.806 1916.22 378.519 1907.37L359.874 1769.05C351.656 1766.98 344.181 1764.66 337.5 1762.21C315.261 1767.69 239.416 1902.2 204.273 1968.77L185.628 2021.82Z" fill="#8B725A"/>
<path d="M192.916 2954.1L305.973 2981.22V2903.73L355.128 2798.89L244.953 2788.09L185.628 2869.16V2950.34L192.916 2954.1Z" fill="#8B725A"/>
<path d="M305.973 2981.22L533.102 3000L537.17 2903.73L533.102 2815.51H524.627L355.128 2798.89L305.973 2903.73V2981.22Z" fill="#8B725A"/>
<path d="M533.102 3000L678.194 2994.04L697.517 2988.61V2883.76L662.261 2815.51H533.102L537.17 2903.73L533.102 3000Z" fill="#8B725A"/>
<path d="M629.039 1368.21C593.218 1348.25 493.033 1314.69 378.858 1340.2C283.286 1361.55 247.239 1427.97 237.831 1473.53C269.368 1341.32 566.015 1359.65 584.63 1488.33C600.36 1597.05 518.412 1709.08 475.472 1751.5L640.226 1726.76L644.294 1702.92L672.408 1665.07C691.751 1645.89 698.681 1612.96 699.551 1593.83C702.037 1586.98 707.009 1563.43 707.009 1524.09C710.806 1458.28 656.611 1392.75 629.039 1368.21Z" fill="#4C463A"/>
<path d="M640.226 1726.76L475.472 1751.5C440.604 1759.96 371.038 1771.27 332.187 1760.18C333.898 1760.87 335.669 1761.54 337.5 1762.21C344.181 1764.66 351.656 1766.98 359.874 1769.05C420.099 1784.26 520.233 1786.33 640.226 1726.76Z" fill="#4C463A"/>
<path d="M378.519 1907.37C355.806 1916.22 306.854 1937.83 292.752 1953.57C285.662 1961.48 333.279 1963.1 395.469 1961.91L378.519 1907.37Z" fill="#4C463A"/>
<path d="M475.472 2078.15C444.397 2067.82 366.179 2053.36 301.905 2078.15C239.318 2102.3 211.51 2102.36 204.772 2099.21C207.911 2100.84 210.941 2102.2 213.426 2103.19C238.399 2102.99 294.786 2105.22 320.55 2115.71C346.314 2126.2 417.391 2126.04 449.708 2124.65C460.556 2109.75 486.863 2080.24 505.304 2081.36C493.854 2080.42 483.319 2079.23 475.472 2078.15Z" fill="#4C463A"/>
<path d="M803.963 2558.3H738.197H633.857L628.7 2644.43L597.173 2656.36H697.517C720.682 2648.01 777.657 2626.79 820.235 2608.67C837.522 2604.22 844.282 2598.3 844.626 2591.98C845.297 2579.65 821.589 2565.79 803.963 2558.3Z" fill="#4C463A"/>
<path d="M424.284 2656.36L497.168 2608.67V2554.47H407.098H337.839V2621.49L289.749 2634.6L269.7 2656.36H424.284Z" fill="#4C463A"/>
<path d="M199.866 2583.63L150.711 2608.67L192.916 2644.43L199.866 2583.63Z" fill="#4C463A"/>
<path d="M756.503 2792.26L662.261 2815.51L697.517 2883.76V2988.61L820.235 2954.1L866 2921.61L861.593 2837.86L782.267 2766.33L756.503 2792.26Z" fill="#4C463A"/>
<path d="M244.953 2788.09L229.721 2771.1C199.316 2794.15 139.727 2845.26 144.609 2865.28C137.829 2883.88 145.852 2917.74 150.711 2932.34L185.628 2950.34V2869.16L244.953 2788.09Z" fill="#4C463A"/>
<path d="M240.546 1585.79C240.546 1611.91 244.139 1667.33 258.513 1679.97C264.902 1681.47 270.177 1682.33 273.187 1682.72C258.922 1648.31 246.972 1609.81 240.546 1585.79Z" fill="#4C463A"/>
<path d="M583.952 1953.57L592.088 1852.53L640.226 1726.76C520.233 1786.33 420.099 1784.26 359.874 1769.05L378.519 1907.37L395.469 1961.91C456.985 1960.74 532.761 1956.83 583.952 1953.57Z" fill="#4C463A"/>
<path d="M758.537 2028.68C761.361 1995.86 764.138 1946.56 763.911 1899.67L687.347 1996.79C670.397 2034.64 634.938 2119.76 628.7 2157.43C631.592 2161.82 631.284 2166.07 628.7 2170.12L727.688 2270.99L758.537 2028.68Z" fill="#4C463A"/>
<path d="M505.304 2342.22L497.168 2247.74C485.131 2240.16 419.317 2237.11 353.094 2235.99L349.365 2296.32C346.201 2306.16 345.5 2338.23 353.094 2373.51C360.687 2408.8 346.088 2445.04 337.839 2458.75V2496.54C352.826 2509.39 378.668 2531.06 394.113 2542.5C397.345 2544.9 404.971 2553.14 407.098 2554.47H497.168V2548.17L483.608 2475.44C480.896 2462.53 475.472 2431.27 475.472 2409.58C475.472 2387.88 495.36 2355.63 505.304 2342.22Z" fill="#4C463A"/>
<path d="M795.149 2361.29C795.149 2330.54 750.175 2288.27 727.688 2270.99L628.7 2170.12L645.989 2299.9V2378.58C649.492 2388.91 656.498 2413.99 656.498 2431.63C664.905 2441.88 646.667 2490.94 636.497 2514.19L633.857 2558.3H738.197L808.709 2497.8C808.709 2464.42 805.997 2390.38 795.149 2361.29Z" fill="#4C463A"/>
<path d="M524.627 2656.36H424.284H269.7H206.985L192.916 2644.43L150.711 2608.67L144.609 2678.71L185.628 2721.93L229.721 2771.1L244.953 2788.09L355.128 2798.89L524.627 2815.51V2656.36Z" fill="#3E352B"/>
<path d="M697.517 2656.36H597.173H524.627V2815.51H533.102H662.261L697.517 2728.48V2656.36Z" fill="#3E352B"/>
<path d="M820.235 2608.67C777.657 2626.79 720.682 2648.01 697.517 2656.36V2728.48L662.261 2815.51L756.503 2792.26L782.267 2766.33L850.406 2684.67C850.847 2653.77 850.307 2591.98 844.626 2591.98C844.282 2598.3 837.522 2604.22 820.235 2608.67Z" fill="#3E352B"/>
</svg>
