<svg width="3274" height="3064" viewBox="0 0 3274 3064" fill="none" xmlns="http://www.w3.org/2000/svg">
<defs>
<linearGradient id="paint0_linear_2271_17722" x1="1636.69" y1="0" x2="1636.69" y2="4306.78" gradientUnits="userSpaceOnUse">
<stop offset="0.155185" stop-color="#B32428"/>
<stop offset="0.402534" stop-color="white"/>
</linearGradient>
</defs>
<path fill-rule="evenodd" clip-rule="evenodd" d="M1500 3000C2328.43 3000 3000 2328.43 3000 1500C3000 671.573 2328.43 0 1500 0C671.573 0 0 671.573 0 1500C0 2328.43 671.573 3000 1500 3000ZM312.5 771C149.7 983 104 1345.33 101.5 1500C101.5 1934.81 323.5 2284.5 434.5 2405C516.167 2510.33 765.8 2745.5 1111 2843.5C1456.2 2941.5 1768.83 2884.33 1882 2843.5C1920.5 2841.17 2056.6 2799.8 2293 2653C2529.4 2506.2 2699.5 2224.83 2755 2102.5C2798 2025.5 2887.4 1797.2 2901 1500C2914.6 1202.8 2768.67 890.167 2694 771C2651 711 2537.1 562.4 2425.5 448C2313.9 333.6 2084.67 223.667 1984 183C1935.33 166 1770.4 125.9 1500 101.5C1229.6 77.1 896.667 229.667 764 309C671.167 361 450.9 526.2 312.5 771Z" fill="url(#paint0_linear_2271_17722)"/>
<path d="M466.378 1947.69C461.059 1955.29 451.398 1987 455.298 2053.13C455.298 2067.54 464.128 2073.31 472.361 2075.1C475.696 2075.83 478.934 2075.9 481.447 2075.63C528.13 2078.25 626.417 2081.93 646.095 2075.63C684.413 2077.49 754.595 2078.17 786.368 2069.91C794.592 2067.77 800.243 2065.04 802.102 2061.57C811.143 2044.7 808.38 2015.55 805.869 2003.09C805.5 1983.97 800.994 1943.59 785.925 1935.04C769.615 1929.64 719.002 1929.98 695.734 1930.82L547.262 1935.04L478.344 1939.26C474.355 1940.29 466.378 1943.42 466.378 1947.69Z" fill="#B27134"/>
<path d="M646.095 2075.63C626.417 2081.93 528.13 2078.25 481.447 2075.63C478.934 2075.9 475.696 2075.83 472.361 2075.1V2085.19L446.877 2111.94L435.132 2124.27L424.385 2131.09L413.637 2137.91L408.54 2141.14L403.665 2144.89L371.976 2169.26L328.321 2204.97C311.553 2220.99 277.84 2259.68 277.131 2286.23C276.422 2312.77 278.756 2330.09 280.012 2335.43C282.154 2351.27 288.832 2387.11 298.405 2403.76C304.255 2419.05 308.229 2431.31 309.485 2435.53C310.888 2448.18 314.36 2474.33 317.019 2477.7C320.343 2481.92 331.645 2516.79 338.293 2521.57C340.243 2531.24 352.401 2553.71 358.237 2563.74L406.767 2656.53C412.898 2668.71 425.736 2697.92 428.041 2717.26C431.941 2729.86 435.723 2740.69 437.127 2744.54V2769.84C432.325 2774.81 422.545 2785.59 421.836 2788.96C420.95 2793.18 411.643 2831.42 416.739 2849.13C420.817 2863.3 427.893 2877.53 430.922 2882.87C444.809 2900.31 477.812 2935.68 498.731 2937.7C520.005 2946.47 538.915 2951.85 545.711 2953.45C571.195 2958.04 624.644 2966.38 634.572 2963.01C646.627 2963.01 689.233 2956.63 709.03 2953.45C728.235 2948.2 770.147 2934.95 784.152 2923.92C798.157 2912.9 809.193 2902.84 812.96 2899.18L839.552 2861.22L844.87 2854.76C841.62 2828.33 830.023 2771.42 809.636 2755.22C809.636 2723.95 825.443 2688.96 833.347 2675.37L856.172 2618.01L887.196 2563.18L909.356 2513.13L934.175 2443.4L955.449 2397.57C963.279 2376.95 978.717 2332.56 977.83 2319.97C976.944 2307.37 977.461 2290.16 977.83 2283.13C975.984 2264.86 967.105 2223.86 946.363 2206.09C925.621 2188.32 913.049 2175.82 909.356 2171.79L885.645 2156.04C881.287 2151.26 871.684 2141.08 868.138 2138.61C866.138 2137.21 861.08 2134.26 855.95 2131.35C853.409 2129.9 850.851 2128.47 848.638 2127.24C847.401 2126.55 846.271 2125.92 845.314 2125.4L829.137 2113.3L826.699 2111.53L815.619 2103.46L802.102 2093.62L790.357 2082.66H786.368V2069.91C754.595 2078.17 684.413 2077.49 646.095 2075.63Z" fill="#905836"/>
<path d="M403.665 2144.89L408.54 2141.14L413.637 2137.91C406.989 2134.77 395.687 2121.68 403.665 2094.47C403.501 2093.59 403.344 2092.52 403.226 2091.32C402.707 2086.07 402.934 2078.48 406.546 2075.1C404.404 2072.18 398.568 2071.97 392.363 2094.47C386.159 2116.96 397.312 2137.45 403.665 2144.89Z" fill="#D8B66C"/>
<path d="M437.57 2082.38C436.329 2080.13 434.098 2081.44 433.138 2082.38C435.286 2087.19 436.702 2091.78 437.57 2096.04C438.519 2100.7 438.813 2104.98 438.694 2108.76C438.463 2116.06 436.691 2121.5 435.132 2124.27L446.877 2111.94C448.712 2110.01 439.121 2085.19 437.57 2082.38Z" fill="#D8B66C"/>
<path d="M830.688 2001.68L839.774 2022.21L861.823 1996.48L858.61 1978.62L857.377 1965.36L841.99 1996.48L830.369 1973.23C830.743 1985.53 830.959 1996.98 830.688 2001.68Z" fill="#CBAA7C"/>
<path d="M830.369 1973.23L841.99 1996.48L857.377 1965.36L855.223 1942.19L841.99 1973.23L829.72 1954.68C829.948 1960.56 830.179 1967 830.369 1973.23Z" fill="#D8B66C"/>
<path d="M829.137 1940.67C829.309 1944.51 829.513 1949.36 829.72 1954.68L841.99 1973.23L855.223 1942.19L853.07 1919.02L841.99 1947.65L829.137 1940.67Z" fill="#D8B66C"/>
<path d="M829.137 1940.67L841.99 1947.65L853.07 1919.02L846.865 1891.71L837.779 1924.59L826.699 1915.08C827.648 1924.61 828.49 1933.52 829.137 1940.67Z" fill="#CBAA7C"/>
<path d="M826.699 1915.08L837.779 1924.59L846.865 1891.71L842.654 1873.18L834.677 1901.25L824.271 1891.71C825.118 1899.5 825.943 1907.48 826.699 1915.08Z" fill="#CBAA7C"/>
<path d="M824.271 1891.71L834.677 1901.25L842.654 1873.18C841.867 1868.61 840.87 1862.86 839.774 1856.58L830.688 1878.76L822.153 1873.18C822.857 1879 823.572 1885.29 824.271 1891.71Z" fill="#D8B66C"/>
<path d="M822.153 1873.18L830.688 1878.76L839.774 1856.58C838.176 1847.42 836.365 1837.13 834.677 1827.71L829.358 1863.86L818.505 1847.8C819.581 1853.27 820.85 1862.43 822.153 1873.18Z" fill="#D8B66C"/>
<path d="M817.17 1842.82C817.565 1843.58 818.015 1845.31 818.505 1847.8L829.358 1863.86L834.677 1827.71C833.385 1820.49 832.165 1813.78 831.167 1808.47L824.271 1830.96L812.256 1820.56C814.28 1831.6 815.901 1840.35 817.17 1842.82Z" fill="#CBAA7C"/>
<path d="M812.256 1820.56L824.271 1830.96L831.167 1808.47C830.419 1804.48 829.795 1801.28 829.358 1799.24C829.284 1796.1 827.15 1788.14 824.271 1778.76L818.505 1804.53L807.013 1793.56C808.939 1802.45 810.634 1811.7 812.116 1819.79L812.256 1820.56Z" fill="#CBAA7C"/>
<path d="M807.013 1793.56L818.505 1804.53L824.271 1778.76C821.565 1769.95 818.201 1759.88 815.268 1751.39L812.256 1778.76H803.422C804.7 1783.37 805.895 1788.41 807.013 1793.56Z" fill="#D8B66C"/>
<path d="M795.232 1759.03C798.275 1762.74 800.996 1769.99 803.422 1778.76H812.256L815.268 1751.39C813.932 1747.52 812.685 1743.98 811.63 1741.03L808.248 1734.8L803.422 1759.03H795.232Z" fill="#D8B66C"/>
<path d="M795.232 1759.03H803.422L808.248 1734.8L800.622 1720.74L795.232 1741.03L785.925 1738.19L786.629 1739.8C790.001 1747.49 793.004 1754.34 795.232 1759.03Z" fill="#CBAA7C"/>
<path d="M785.925 1738.19L795.232 1741.03L800.622 1720.74L791.318 1703.59L789.561 1724.4L776.396 1716.79C779.652 1723.91 782.92 1731.34 785.925 1738.19Z" fill="#CBAA7C"/>
<path d="M776.396 1716.79L789.561 1724.4L791.318 1703.59L780.972 1684.52L780.032 1703.59H770.15C772.177 1707.69 774.284 1712.18 776.396 1716.79Z" fill="#D8B66C"/>
<path d="M758.668 1684.52C761.556 1687.24 765.656 1694.49 770.15 1703.59H780.032L780.972 1684.52L776.396 1676.08C774.142 1672.75 770.803 1667.94 766.919 1662.54L770.15 1684.52H758.668Z" fill="#D8B66C"/>
<path d="M758.668 1684.52H770.15L766.919 1662.54C763.661 1658 760.019 1653.05 756.312 1648.2L758.668 1671.47H747.235C752.176 1677.43 756.326 1682.31 758.668 1684.52Z" fill="#CBAA7C"/>
<path d="M747.235 1671.47H758.668L756.312 1648.2C753.271 1644.22 750.187 1640.31 747.235 1636.75L749.451 1658.82H736.82C738.353 1660.68 739.877 1662.53 741.369 1664.35C743.4 1666.82 745.374 1669.22 747.235 1671.47Z" fill="#CBAA7C"/>
<path d="M694.847 1587.79C692.557 1586.67 685.097 1582.9 673.574 1576.83L677.653 1595.06L666.794 1604.99C671.737 1606.72 676.224 1608.69 680.278 1610.75L699.148 1603.21L694.847 1587.79Z" fill="#D8B66C"/>
<path d="M694.847 1619.56L713.109 1614.18L711.058 1599.88C704.856 1594.96 699.018 1590.68 694.847 1587.79L699.148 1603.21L680.278 1610.75C685.968 1613.65 690.803 1616.73 694.847 1619.56Z" fill="#CBAA7C"/>
<path d="M709.916 1630.25H726.405L723.967 1610.75C719.775 1606.98 715.33 1603.28 711.058 1599.88L713.109 1614.18L694.847 1619.56C698.025 1621.79 700.714 1623.87 702.944 1625.59C706.233 1628.14 708.525 1629.91 709.916 1630.25Z" fill="#CBAA7C"/>
<path d="M709.916 1630.25C712.24 1630.82 717.581 1636.28 723.967 1643.58L739.036 1648.2L741.605 1630.25C738.163 1624.46 731.471 1617.5 723.967 1610.75L726.405 1630.25H709.916Z" fill="#D8B66C"/>
<path d="M736.82 1658.82H749.451L747.235 1636.75C745.284 1634.4 743.39 1632.21 741.605 1630.25L739.036 1648.2L723.967 1643.58C728 1648.18 732.45 1653.52 736.82 1658.82Z" fill="#D8B66C"/>
<path d="M666.794 1604.99L677.653 1595.06L673.574 1576.83C668.791 1574.31 660.917 1572.99 652.39 1572.4L662.805 1591.68L649.953 1600.59C656.072 1601.68 661.678 1603.21 666.794 1604.99Z" fill="#D8B66C"/>
<path d="M649.953 1600.59L662.805 1591.68L652.39 1572.4C647.129 1572.04 641.62 1571.95 636.435 1572.03L645.964 1587.79L630.895 1598.79C637.736 1598.89 644.081 1599.54 649.953 1600.59Z" fill="#CBAA7C"/>
<path d="M630.895 1598.79L645.964 1587.79L636.435 1572.03C629.777 1572.12 623.654 1572.49 619.282 1572.89L630.895 1584.93L616.491 1599.36C621.519 1598.9 626.318 1598.72 630.895 1598.79Z" fill="#CBAA7C"/>
<path d="M611.747 1599.88C613.351 1599.68 614.932 1599.51 616.491 1599.36L630.895 1584.93L619.282 1572.89C614.464 1574.64 607.513 1577.4 600.182 1580.7L611.747 1587.79L600.182 1603.21C604.025 1601.51 607.885 1600.37 611.747 1599.88Z" fill="#D8B66C"/>
<path d="M600.182 1603.21L611.747 1587.79L600.182 1580.7C591.327 1584.7 581.919 1589.49 575.052 1594.28L591.007 1591.68L583.395 1614.18C588.925 1609.45 594.536 1605.71 600.182 1603.21Z" fill="#D8B66C"/>
<path d="M575.052 1594.28C572.35 1596.17 570.041 1598.05 568.314 1599.88C564.539 1601.69 559.232 1607.14 553.482 1614.18L568.314 1607.99L571.201 1626.27C575.209 1621.76 579.28 1617.69 583.395 1614.18L591.007 1591.68L575.052 1594.28Z" fill="#CBAA7C"/>
<path d="M568.314 1607.99L553.482 1614.18C548.034 1620.85 542.189 1628.95 536.874 1636.75L553.482 1630.25L557.56 1643.58C562.003 1637.31 566.56 1631.49 571.201 1626.27L568.314 1607.99Z" fill="#CBAA7C"/>
<path d="M536.874 1636.75C531.73 1644.3 527.083 1651.56 523.772 1656.96L540.039 1648.2L537.403 1676.08C543.762 1664.55 550.519 1653.51 557.56 1643.58L553.482 1630.25L536.874 1636.75Z" fill="#D8B66C"/>
<path d="M540.039 1648.2L523.772 1656.96C519.811 1662.03 513.265 1671.78 506.515 1684.52L523.772 1671.47L526.197 1697.68C529.765 1690.39 533.51 1683.15 537.403 1676.08L540.039 1648.2Z" fill="#D8B66C"/>
<path d="M523.772 1671.47L506.515 1684.52C502.784 1691.56 498.991 1699.51 495.538 1708.09L512.339 1697.68L517.263 1716.79C520.095 1710.45 523.079 1704.05 526.197 1697.68L523.772 1671.47Z" fill="#CBAA7C"/>
<path d="M495.538 1708.09C492.77 1714.96 490.219 1722.25 488.095 1729.79L500.594 1724.4L507.004 1741.03C510.14 1733.2 513.573 1725.05 517.263 1716.79L512.339 1697.68L495.538 1708.09Z" fill="#CBAA7C"/>
<path d="M500.594 1724.4L488.095 1729.79C486.105 1736.85 483.825 1744.13 481.4 1751.39L493.634 1748.01L499.089 1761.79C501.453 1755.25 504.102 1748.28 507.004 1741.03L500.594 1724.4Z" fill="#D8B66C"/>
<path d="M493.634 1748.01L481.4 1751.39C478.512 1760.02 475.418 1768.61 472.361 1776.71L486.855 1764.04L493.634 1777.59C495.229 1772.72 497.054 1767.42 499.089 1761.79L493.634 1748.01Z" fill="#CBAA7C"/>
<path d="M486.855 1764.04L472.361 1776.71C470.326 1782.1 468.308 1787.27 466.378 1792.09L481.4 1784.85L484.574 1806.22L493.634 1777.59L486.855 1764.04Z" fill="#D8B66C"/>
<path d="M466.378 1792.09C461.923 1803.23 457.936 1812.51 455.298 1818.36L470.678 1803.69L479.325 1822.81L484.574 1806.22L481.4 1784.85L466.378 1792.09Z" fill="#D8B66C"/>
<path d="M470.678 1803.69L455.298 1818.36C454.917 1820 453.513 1825.06 450.54 1834.9L466.378 1827.02L472.361 1844.81L479.325 1822.81L470.678 1803.69Z" fill="#CBAA7C"/>
<path d="M466.378 1827.02L450.54 1834.9C449.049 1839.83 447.164 1845.96 444.814 1853.45L458.4 1844.81L467.313 1860.76L472.361 1844.81L466.378 1827.02Z" fill="#CBAA7C"/>
<path d="M458.4 1844.81L444.814 1853.45C443.461 1857.77 441.955 1862.54 440.281 1867.79L453.394 1866.11L461.448 1879.3L467.313 1860.76L458.4 1844.81Z" fill="#D8B66C"/>
<path d="M440.281 1867.79C439.422 1870.49 438.519 1873.32 437.57 1876.28C435.919 1881.42 434.45 1886.18 433.138 1890.6L444.814 1883.82L456.235 1906.88C457.027 1900.23 457.775 1894.05 458.4 1888.93L461.448 1879.3L453.394 1866.11L440.281 1867.79Z" fill="#CBAA7C"/>
<path d="M444.814 1883.82L433.138 1890.6C429.942 1901.36 427.682 1910.08 426.025 1917.28L440.281 1906.88L452.94 1935.04C453.99 1925.84 455.154 1915.93 456.235 1906.88L444.814 1883.82Z" fill="#D8B66C"/>
<path d="M440.281 1906.88L426.025 1917.28C423.818 1926.87 422.682 1933.78 421.833 1939.26L433.138 1930.82L450.861 1953.83C451.436 1948.39 452.156 1941.91 452.94 1935.04L440.281 1906.88Z" fill="#CBAA7C"/>
<path d="M433.138 1930.82L421.833 1939.26C421.734 1939.9 421.639 1940.52 421.546 1941.12C420.974 1944.85 420.504 1947.92 419.842 1950.79C419.164 1953.72 418.444 1958.61 417.695 1964.52L435.132 1956.64L448.511 1978.57C449.224 1973.86 449.645 1970.39 449.536 1969.34C449.423 1968.27 449.967 1962.3 450.861 1953.83L433.138 1930.82Z" fill="#D8B66C"/>
<path d="M435.132 1956.64L417.695 1964.52C416.99 1970.07 416.26 1976.52 415.517 1983.09C415.358 1984.49 415.2 1985.89 415.04 1987.29L430.126 1976.33L445.308 1997.69C446.518 1990.87 447.702 1983.92 448.511 1978.57L435.132 1956.64Z" fill="#CBAA7C"/>
<path d="M430.126 1976.33L415.04 1987.29C414.315 1993.67 413.58 2000 412.847 2005.57L430.126 1997.69L442.002 2015.74C442.912 2010.93 444.122 2004.37 445.308 1997.69L430.126 1976.33Z" fill="#D8B66C"/>
<path d="M412.847 2005.57C412.145 2010.89 411.445 2015.52 410.756 2018.83L424.385 2015.74L440.281 2032.87L442.002 2015.74L430.126 1997.69L412.847 2005.57Z" fill="#D8B66C"/>
<path d="M424.385 2015.74L410.756 2018.83C409.696 2023.92 408.84 2032.42 408.179 2041.56L421.833 2032.87L437.57 2050.1L439.121 2044.42L440.281 2032.87L424.385 2015.74Z" fill="#CBAA7C"/>
<path fill-rule="evenodd" clip-rule="evenodd" d="M836.262 2054.9L836.671 2054.54C836.527 2054.65 836.391 2054.77 836.262 2054.9Z" fill="#C4C4C4"/>
<path d="M412.086 2128.21C414.745 2127.98 420.137 2128.11 422.501 2128.21L424.385 2131.09L435.132 2124.27L426.025 2108.76L410.756 2127.57C411.203 2128.01 411.649 2128.24 412.086 2128.21Z" fill="#CBAA7C"/>
<path d="M404.97 2111.94C405.059 2112.58 405.143 2113.13 405.216 2113.59C406.204 2117.74 408.482 2125.32 410.756 2127.57L426.025 2108.76L435.132 2124.27C436.691 2121.5 438.463 2116.06 438.694 2108.76L421.833 2096.04L404.97 2111.94Z" fill="#D8B66C"/>
<path d="M403.226 2091.32C403.344 2092.52 403.501 2093.59 403.665 2094.47C403.665 2101.03 404.427 2108.06 404.97 2111.94L421.833 2096.04L438.694 2108.76C438.813 2104.98 438.519 2100.7 437.57 2096.04L419.842 2079.52L403.226 2091.32Z" fill="#CBAA7C"/>
<path d="M433.138 2082.38V2066.35L419.842 2053.13L406.93 2064.05C406.754 2068.29 406.626 2072.09 406.546 2075.1C402.934 2078.48 402.707 2086.07 403.226 2091.32L419.842 2079.52L437.57 2096.04C436.702 2091.78 435.286 2087.19 433.138 2082.38Z" fill="#CBAA7C"/>
<path d="M421.833 2032.87L408.179 2041.56C407.631 2049.14 407.216 2057.16 406.93 2064.05L419.842 2053.13L433.138 2066.35L437.57 2050.1L421.833 2032.87Z" fill="#D8B66C"/>
<path d="M816.949 2090.25L815.619 2103.46L826.699 2111.53V2107.5V2103.46C825.087 2096.44 823.849 2080.98 831.796 2075.35C831.796 2072.79 833.222 2070.91 834.795 2069.68L834.824 2069.65C835.444 2069.17 836.086 2068.78 836.671 2068.5C837.076 2068.3 837.454 2068.14 837.779 2068.04C838.196 2064.94 840.11 2058.76 844.432 2058.76C841.615 2058.16 838.303 2055.9 836.671 2054.54L836.262 2054.9C836.391 2054.77 836.527 2054.65 836.671 2054.54C836.695 2054.17 836.724 2053.78 836.758 2053.37C827.426 2060.34 819.663 2080.86 816.949 2090.25Z" fill="#D8B66C"/>
<path d="M861.712 2122.58C862.776 2119.43 862.155 2110.77 861.712 2106.84C861.585 2104.69 861.487 2101.3 861.661 2098.8C864.676 2089.7 869.927 2069.15 866.808 2059.76C862.741 2084.06 855.765 2093.83 854.224 2095.59C853.975 2100.54 853.476 2105.05 852.938 2108.52C852.908 2108.71 852.878 2108.9 852.848 2109.09L848.638 2127.24C850.851 2128.47 853.409 2129.9 855.95 2131.35C857.428 2129.74 860.648 2125.73 861.712 2122.58Z" fill="#D8B66C"/>
<path d="M830.688 2001.68C830.156 2010.9 828.398 2019.21 827.586 2022.21L825.259 2032.47L841.73 2037.68C841.815 2037.67 841.902 2037.66 841.99 2037.67C843.172 2037.2 845.668 2036.6 846.2 2037.95L866.808 2030.31C866.199 2024.08 865.509 2018.11 865.036 2014.33L861.823 1996.48L839.774 2022.21L830.688 2001.68Z" fill="#CBAA7C"/>
<path d="M813.625 2069.91C809.725 2083.33 814.216 2089.06 816.949 2090.25C819.663 2080.86 827.426 2060.34 836.758 2053.37C836.941 2051.16 837.273 2048.41 837.779 2045.83C838.602 2041.63 839.885 2037.88 841.73 2037.68L825.259 2032.47L822.932 2042.73C822.094 2044.7 820.468 2048.86 818.505 2054.54C817.007 2058.88 815.313 2064.1 813.625 2069.91Z" fill="#CBAA7C"/>
<path d="M834.677 2087.44C833.717 2085.19 831.796 2079.62 831.796 2075.35C823.849 2080.98 825.087 2096.44 826.699 2103.46V2107.5C835.298 2110.85 852.842 2113.18 854.224 2095.59C855.765 2093.83 862.741 2084.06 866.808 2059.76C867.299 2056.83 867.747 2053.69 868.138 2050.32C868.138 2045.44 867.53 2037.7 866.808 2030.31L846.2 2037.95C846.227 2038.02 846.256 2038.11 846.287 2038.21C846.988 2040.63 848.352 2052.02 846.865 2058.76C846.147 2058.97 845.314 2058.95 844.432 2058.76C840.11 2058.76 838.196 2064.94 837.779 2068.04C843.452 2066.54 846.2 2072.85 846.865 2076.19C845.757 2077.69 842.787 2081.36 839.774 2084.06C837.646 2087.89 835.489 2087.91 834.677 2087.44Z" fill="#CBAA7C"/>
<path d="M363.646 2301.64C422.96 2314.67 543.009 2340.44 548.682 2339.32C555.773 2337.91 674.993 2324.14 702.472 2322.73C729.95 2321.32 847.841 2301.64 858.7 2301.64C867.387 2301.64 941.948 2292.46 978.142 2287.86L970.829 2330.32C968.983 2335.38 963.339 2347.02 955.539 2353.1C945.789 2360.69 876.428 2372.5 858.7 2374.18C840.972 2375.87 827.676 2378.68 787.123 2381.78C746.57 2384.87 777.816 2381.78 716.876 2381.78C655.936 2381.78 659.482 2383.18 636.878 2389.37C614.275 2395.55 614.275 2396.68 589.234 2398.36C564.194 2400.05 438.99 2398.36 418.602 2398.36C398.215 2398.36 345.918 2389.37 325.53 2381.78C309.221 2375.7 286.824 2325.82 277.665 2301.64L286.086 2287.86H308.689C314.539 2287.86 347.764 2297.05 363.646 2301.64Z" fill="#A96135"/>
<path d="M339.27 2474.28C363.646 2481.03 503.032 2491.43 525.857 2491.43C548.682 2491.43 626.242 2487.78 656.379 2481.03C686.517 2474.28 704.245 2466.69 745.684 2465.28C787.123 2463.88 830.778 2459.66 858.7 2457.13C886.621 2454.6 920.748 2448.98 914.543 2457.13C909.579 2463.65 924.293 2459.85 932.271 2457.13C926.066 2470.34 912.194 2498.35 906.344 2504.65C899.031 2512.52 871.109 2533.33 858.7 2544.01C846.29 2554.7 809.726 2571.85 798.425 2575.78C787.123 2579.72 777.594 2582.53 753.883 2583.66C730.172 2584.78 721.529 2591.53 702.472 2583.66C683.414 2575.78 662.584 2583.94 647.072 2575.78C631.56 2567.63 609.622 2563.98 595.218 2562.57C580.814 2561.16 571.506 2557.51 548.682 2554.7C525.857 2551.88 539.153 2551.88 482.202 2544.01C425.25 2536.14 405.75 2529.67 391.124 2529.67H355.668L339.27 2516.46L325.53 2481.03L339.27 2474.28Z" fill="#C68158"/>
<path d="M477.991 1957.49V1980.54C477.991 1982.12 482.275 1981.2 484.418 1980.54V1957.49H477.991Z" fill="#CB7D34"/>
<path d="M513.226 1957.49V1980.54H523.641V1957.49H513.226Z" fill="#CB7D34"/>
<path d="M553.114 1957.49H566.188L558.875 1980.54H545.801L553.114 1957.49Z" fill="#CB7D34"/>
<path d="M589.234 1957.49H604.746V1980.54H583.251L589.234 1961.7L586.575 1954.39L589.234 1957.49Z" fill="#CB7D34"/>
<path d="M633.776 1957.49L651.947 1961.7L647.515 1980.54L629.344 1987.01V1961.7L633.776 1957.49Z" fill="#CB7D34"/>
<path d="M691.835 1950.18L721.751 1954.39L716.876 1987.01H686.517L691.835 1950.18Z" fill="#CB7D34"/>
<path d="M751.889 1950.18C764.52 1954.39 783.799 1951.3 783.799 1954.39C783.799 1956.87 777.742 1980.92 774.713 1992.63L746.792 1987.01L751.889 1954.39V1950.18Z" fill="#CB7D34"/>
<path d="M740.144 2025.81H769.617V2041.84C769.617 2046.34 744.945 2049.34 732.609 2050.27L740.144 2025.81Z" fill="#CB7D34"/>
<path d="M697.375 2019.34C701.453 2020.02 715.325 2019.63 721.751 2019.34L715.546 2046.9L686.517 2050.27L697.375 2019.34Z" fill="#CB7D34"/>
<path d="M641.089 2019.34H669.675C668.272 2023.84 665.243 2033.74 664.357 2037.34C663.47 2040.94 648.475 2047.46 641.089 2050.27V2019.34Z" fill="#CB7D34"/>
<path d="M588.126 2012.88L605.854 2014.85L609.622 2025.53L603.417 2040.43L588.126 2044.37C586.28 2039.21 582.897 2028.57 584.138 2027.22C585.378 2025.87 587.314 2017.1 588.126 2012.88Z" fill="#CB7D34"/>
<path d="M530.732 2011.47H557.767C555.92 2016.72 552.138 2027.84 551.784 2030.31C551.341 2033.4 545.357 2048.87 540.482 2045.49C535.607 2042.12 525.857 2037.9 526.078 2035.93C526.256 2034.36 529.255 2018.97 530.732 2011.47Z" fill="#CB7D34"/>
<path d="M489.514 2012.88C491.11 2011.75 500.964 2012.41 505.691 2012.88C504.583 2016.81 502.057 2025.81 500.816 2030.31C499.265 2035.93 490.401 2046.62 488.628 2045.49C486.855 2044.37 485.526 2024.12 486.634 2021.03C487.52 2018.56 488.923 2014.56 489.514 2012.88Z" fill="#CB7D34"/>
<path d="M2920.5 1512.46L2586.33 2072.77C2580.25 2078.85 2558.37 2085.79 2519.56 2064.93C2480.75 2044.06 2466.01 2028.23 2463.49 2022.92L2035.86 2739.94L2042.32 2743.79L2023.98 2774.54C2047.68 2790.96 2102.07 2826.6 2130.05 2837.81L2152.41 2800.31L2157.85 2803.56L2933.48 1503.07C2927.55 1508.67 2922.36 1511.67 2920.5 1512.46Z" fill="#CE992B"/>
<path d="M2846.74 2071.29C2846.74 2071.29 2769.44 2043.12 2768.16 2033.86L2371.02 2722.8L2368.79 2731.18L2372.19 2733.21L2344.55 2779.55C2371.76 2805.3 2436.09 2856.99 2475.79 2857.82L2497.65 2821.17L2504.24 2819.39C2715.91 2447.22 3138.08 1700.83 3133.42 1692.57L2923.34 2066.44C2892.41 2064.28 2877.67 2073.45 2846.74 2071.29Z" fill="#CE992B"/>
<path fill-rule="evenodd" clip-rule="evenodd" d="M2920.5 1512.46L2586.33 2072.77C2587.55 2050.89 2541.44 2025.91 2518.23 2016.16C2557.84 2025.16 2834.06 1486.61 2834.06 1486.61C2842.32 1482.02 2863.27 1474.1 2880.91 1479.14C2898.56 1484.18 2916.28 1493 2922.94 1496.78C2925.22 1496.81 2930.53 1498.11 2933.48 1503.07C2927.55 1508.67 2922.36 1511.67 2920.5 1512.46Z" fill="#F5DD9F"/>
<path fill-rule="evenodd" clip-rule="evenodd" d="M3048.04 1634.79L3170.65 1429.21C3193.21 1417.91 3242.66 1399.05 3259.96 1413.94C3277.26 1428.82 3274.22 1444.9 3270.53 1451.08L3152.52 1660.55C3150.24 1657.67 3144.93 1653.17 3141.92 1658.23C3130.19 1666.77 3128.99 1675.27 3129.86 1678.45L3133.42 1692.57L2923.34 2066.44C2899.74 2039.82 2853.31 2024.39 2833.04 2020.01L2935.3 1848.55L2989.53 1763.81C3013.82 1736.22 3063.75 1678.77 3069.18 1669.67C3071.96 1659.45 3056.24 1642.16 3048.04 1634.79Z" fill="#F5DD9F"/>
<path d="M2519.56 2064.93C2558.37 2085.79 2580.25 2078.85 2586.33 2072.77C2587.55 2050.89 2541.44 2025.91 2518.23 2016.16C2478.61 2007.15 2465.23 2016.91 2463.49 2022.92C2466.01 2028.23 2480.75 2044.06 2519.56 2064.93Z" fill="#9B6218"/>
<path d="M2833.04 2020.01C2817.63 2019.58 2783.47 2021.06 2770.12 2030.46L2768.53 2032.07L2768.16 2033.86C2769.44 2043.12 2846.74 2071.29 2846.74 2071.29C2877.67 2073.45 2892.41 2064.28 2923.34 2066.44C2899.74 2039.82 2853.31 2024.39 2833.04 2020.01Z" fill="#9B6218"/>
<path fill-rule="evenodd" clip-rule="evenodd" d="M2215.05 2349.93C2268.58 2358.95 2379.29 2362.65 2427.95 2363.37C2481.33 2359.22 2595.35 2345.23 2624.4 2322.5C2630.4 2319.94 2646.64 2308.16 2663.58 2281.58C2680.51 2255 2618.24 2222.09 2584.98 2208.95C2545.27 2202.61 2463.63 2192.41 2454.78 2202.39C2424.91 2204.99 2358.3 2207.96 2328.72 2209.12C2287.38 2211.01 2198.62 2218.34 2174.3 2232.53C2144.07 2234.11 2120.96 2262.67 2113.19 2276.75C2114.38 2284.6 2118.18 2301.75 2123.87 2307.54C2126.34 2310.7 2130.79 2315.03 2137.3 2319.77C2152.18 2330.62 2177.82 2343.66 2215.05 2349.93ZM2255.8 2285.83C2191.33 2285.21 2180.84 2268 2183.65 2259.48C2176.89 2239.97 2277.46 2236.02 2328.6 2236.48L2508.47 2225.44C2537.95 2231.38 2594.96 2247.68 2587.24 2265.31C2579.51 2282.95 2532.8 2290.44 2510.41 2291.98L2370.42 2296C2359.07 2292.87 2320.27 2286.46 2255.8 2285.83Z" fill="#2B2924"/>
<path d="M2183.65 2259.48C2180.84 2268 2191.33 2285.21 2255.8 2285.83C2320.27 2286.46 2359.07 2292.87 2370.42 2296L2510.41 2291.98C2532.8 2290.44 2579.51 2282.95 2587.24 2265.31C2594.96 2247.68 2537.95 2231.38 2508.47 2225.44L2328.6 2236.48C2277.46 2236.02 2176.89 2239.97 2183.65 2259.48Z" fill="#35343A"/>
<path fill-rule="evenodd" clip-rule="evenodd" d="M908.868 2800.08C890.351 2732.32 947.766 2727.87 978.787 2734.12C1024.26 2747.81 1127.22 2773.53 1175.31 2766.9C1223.41 2760.27 1316.03 2747.88 1356.33 2742.52L1410.84 2723.6C1426.34 2767.34 1459.07 2860.33 1465.95 2882.38C1497.99 2888.22 1551.12 2859.89 1573.68 2844.99L1533.71 2729.83L1580.37 2684.16L1677.37 2650.5L1806.54 2594.52L1836.96 2579.65L1846.32 2606.59C1849.79 2612.45 1859.17 2625.34 1868.88 2630.03C1878.58 2634.71 1884.65 2639.89 1886.46 2641.89L1899.27 2678.78C1927.89 2672.56 1988.77 2655.12 2003.37 2635.1C1988.59 2608.03 1969.76 2578 1962.2 2566.37C1955.82 2554.92 1942.02 2532.9 1937.84 2536.37L1991.93 2489.92C2006.97 2486.13 2040.55 2474.55 2054.59 2458.46L2054.79 2458.28C2075.89 2439.16 2089.38 2426.94 2098.12 2412.08C2105.14 2400.16 2115.24 2379.66 2119.42 2370.91L2137.3 2319.77C2152.18 2330.62 2177.82 2343.66 2215.05 2349.93C2268.58 2358.95 2379.29 2362.65 2427.95 2363.37C2481.33 2359.22 2595.35 2345.23 2624.4 2322.5C2618.66 2339.23 2602.41 2386.34 2583.29 2440.99C2565.86 2490.83 2523.37 2560.65 2497.37 2603.38L2497.37 2603.38C2487.73 2619.23 2480.35 2631.35 2477.36 2637.34C2468.51 2655.08 2338.52 2778.14 2274.63 2837.46C2261.78 2848.03 2203.27 2887.1 2071.98 2958.83C1940.68 3030.57 1752.71 3058.75 1675.14 3063.87C1628.23 3059.43 1520.84 3052.45 1466.55 3060.08C1412.26 3067.71 1270.3 3038.71 1206.1 3023.25L1054.83 2953.2C1013.89 2930.39 927.384 2867.83 908.868 2800.08Z" fill="#3B3A3B"/>
<path d="M1395.36 2679.02L1410.84 2723.6C1426.34 2767.34 1459.07 2860.33 1465.95 2882.38C1497.99 2888.22 1551.12 2859.89 1573.68 2844.99L1533.71 2729.83C1522.86 2710.12 1500.42 2668.86 1497.5 2661.54C1494.57 2654.21 1500.01 2645.21 1503.09 2641.62L1532.77 2627.37L1740.5 2555.27C1748.39 2552.52 1763.99 2543.04 1770.79 2538.64C1778.75 2534.32 1795.48 2525.25 1798.74 2523.55C1801.99 2521.84 1810.43 2535.06 1814.24 2541.89L1836.96 2579.65L1846.32 2606.59C1849.79 2612.45 1859.17 2625.34 1868.88 2630.03C1878.58 2634.71 1884.65 2639.89 1886.46 2641.89L1899.27 2678.78C1927.89 2672.56 1988.77 2655.12 2003.37 2635.1C1988.59 2608.03 1969.76 2578 1962.2 2566.37C1955.82 2554.92 1942.02 2532.9 1937.84 2536.37C1935.35 2529.18 1923.84 2517.27 1918.39 2512.21L1907.82 2501.14L1895.8 2466.5L1910.26 2449.98C1916.39 2442.7 1929.83 2426 1934.56 2417.46C1967.84 2398.36 1957.08 2389.52 1961.37 2388.03C1964.81 2386.84 1965.22 2378.79 1964.99 2374.91C1963.45 2371.37 1959.7 2361.87 1957.09 2352.14C1954.48 2342.4 1939.05 2347.26 1931.65 2350.9C1921.52 2359.57 1899.09 2380.1 1890.44 2392.88C1878.08 2389.41 1847.86 2396.28 1834.29 2400.15L1693.88 2452.84L1488.3 2524.2C1452.13 2539.15 1375.06 2567.89 1356.14 2563.24C1337.21 2558.6 1260.28 2548 1224.17 2543.28C1221.62 2543.32 1213.93 2544.82 1203.57 2550.43C1193.21 2556.04 1175.37 2587.41 1167.75 2602.4C1163.87 2608.3 1153.79 2623.99 1144.58 2639.55C1130.69 2653.86 1128.41 2673.8 1129.01 2681.98C1132.58 2686.73 1144.83 2694.6 1165.27 2688.08C1185.7 2681.56 1221.81 2658.39 1237.31 2647.62C1243.27 2644.47 1259.11 2638.4 1274.81 2639.28C1287.17 2634.99 1360.33 2663.98 1395.36 2679.02Z" fill="#554E4B"/>
<path d="M1545.48 2675.07C1540.41 2669.35 1534.89 2640.89 1532.77 2627.37L1503.09 2641.62C1500.01 2645.21 1494.57 2654.21 1497.5 2661.54C1500.42 2668.86 1522.86 2710.12 1533.71 2729.83L1580.37 2684.16C1570.85 2683.52 1550.54 2680.79 1545.48 2675.07Z" fill="#554E4B"/>
<path d="M1959.28 2488.67C1942.36 2486.49 1919.55 2461.97 1910.26 2449.98L1895.8 2466.5L1907.82 2501.14L1918.39 2512.21C1923.84 2517.27 1935.35 2529.18 1937.84 2536.37L1991.93 2489.92C1988.09 2490.41 1976.19 2490.85 1959.28 2488.67Z" fill="#554E4B"/>
<path d="M757.683 2606.66C730.71 2595.73 705.423 2587.77 698.68 2586.78L680.979 2657.36C678.731 2668.95 675.584 2695.53 680.979 2709.05C687.722 2725.94 685.193 2755.77 698.68 2768.69C712.166 2781.61 713.852 2796.52 721.439 2803.48C729.025 2810.44 772.856 2850.2 773.699 2858.15C774.542 2866.1 790.557 2879.02 782.128 2889.96C773.699 2900.89 749.254 2928.73 757.683 2935.68C764.427 2941.25 806.572 2973.79 826.802 2989.36C829.05 2993.67 835.4 3002.28 842.817 3002.28H862.204H904.35H947.338C973.468 3002.28 951.552 3014.21 986.955 2995.33C1022.36 2976.44 1032.47 2947.61 1032.47 2941.65C1032.47 2935.68 1023.2 2955.56 1032.47 2922.76C1041.74 2889.96 1011.4 2885.98 1032.47 2875.05C1049.33 2866.3 1053.54 2848.87 1053.54 2841.25C1057.2 2838.6 1065.51 2832.11 1069.56 2827.34C1074.62 2821.37 1083.05 2809.44 1092.32 2793.54C1101.59 2777.63 1106.65 2767.69 1112.55 2756.76C1118.45 2745.82 1114.23 2777.63 1126.03 2733.9C1137.84 2690.16 1142.89 2685.19 1140.36 2671.27C1137.84 2657.36 1139.52 2672.27 1126.03 2629.52C1112.55 2586.78 1106.65 2569.88 1101.59 2559.94C1097.54 2551.99 1089.23 2536.75 1085.57 2530.12L1077.67 2525.15C1078.3 2529.21 1078.87 2533.61 1079.2 2538.07C1079.99 2548.92 1079.35 2560.17 1074.62 2567.89C1063.66 2585.79 989.483 2624.55 967.567 2624.55H937.223H822.587C775.785 2624.55 773.943 2621.58 770.774 2616.48C769.092 2613.77 767.037 2610.45 757.683 2606.66Z" fill="#21231F"/>
<path d="M899.292 2530.12L888.334 2555.97C883.277 2552.65 872.993 2544.44 872.319 2538.07C871.645 2531.71 847.875 2526.81 836.074 2525.15L814.158 2567.89C811.348 2561.93 805.729 2549.21 805.729 2546.03C805.729 2542.84 789.995 2530.78 782.128 2525.15L757.683 2550C755.998 2543.37 752.626 2529.13 752.626 2525.15C752.626 2520.18 741.668 2506.26 736.611 2506.26C732.565 2506.26 727.058 2516.2 724.81 2521.17L716.381 2490.36L712.166 2483.4C711.698 2486.99 710.404 2492.36 708.749 2498.31L712.166 2525.15L716.381 2550L741.668 2525.15L748.412 2559.94L773.699 2567.89L787.185 2546.03L804.044 2582.8L822.587 2586.78C828.935 2575.82 839.965 2556.53 842.572 2551.16C842.41 2550.79 842.475 2550.41 842.817 2550C843.338 2549.39 843.197 2549.88 842.572 2551.16C843.691 2553.7 855.582 2555.39 862.204 2555.97L899.292 2573.86L911.936 2550V2538.07L948.181 2559.94C953.238 2555.3 964.196 2544.44 967.567 2538.07C970.939 2531.71 968.972 2518.19 967.567 2512.23L1001.28 2538.07C1006.9 2535.42 1018.14 2529.13 1018.14 2525.15V2498.31L1039.21 2506.26L1047.64 2490.36L1053.54 2460.54C1057.2 2464.85 1064.5 2472.47 1064.5 2468.49C1064.5 2464.52 1051.02 2451.59 1044.27 2445.63V2468.49L1032.47 2498.31L1001.28 2479.43L1004.66 2525.15L986.955 2506.26L963.353 2498.31L948.181 2546.03C944.528 2540.72 936.38 2530.12 933.008 2530.12C929.637 2530.12 917.555 2514.22 911.936 2506.26L899.292 2530.12Z" fill="#71726D"/>
<path d="M888.334 2582.8L906.878 2617.6L933.008 2606.66L943.966 2578.83L978.526 2593.74L1008.87 2546.03L1039.21 2573.86L1061.13 2531.12L1074.62 2546.03L1079.2 2538.07L1053.54 2512.23L1039.21 2550L1008.87 2538.07L986.955 2555.97L967.567 2578.83L954.081 2567.89L933.008 2573.86L923.736 2586.78H899.292L881.591 2578.83L857.99 2586.78V2601.69L888.334 2582.8Z" fill="#71726D"/>
<path fill-rule="evenodd" clip-rule="evenodd" d="M842.572 2551.16C843.197 2549.88 843.338 2549.39 842.817 2550C842.475 2550.41 842.41 2550.79 842.572 2551.16Z" fill="#C4C4C4"/>
<path d="M805.729 2386.98C785.78 2400.23 745.04 2427.94 741.668 2432.71C741.294 2433.24 740.768 2433.97 740.118 2434.87C733.439 2444.16 713.703 2471.63 712.166 2483.4L716.381 2490.36L724.81 2521.17C727.058 2516.2 732.565 2506.26 736.611 2506.26C741.668 2506.26 752.626 2520.18 752.626 2525.15C752.626 2529.13 755.998 2543.37 757.683 2550L782.128 2525.15C789.995 2530.78 805.729 2542.84 805.729 2546.03C805.729 2549.21 811.348 2561.93 814.158 2567.89L836.074 2525.15C847.875 2526.81 871.645 2531.71 872.319 2538.07C872.993 2544.44 883.277 2552.65 888.334 2555.97L899.292 2530.12L911.936 2506.26C917.555 2514.22 929.637 2530.12 933.008 2530.12C936.38 2530.12 944.528 2540.72 948.181 2546.03L963.353 2498.31L986.955 2506.26L1004.66 2525.15L1001.28 2479.43L1032.47 2498.31L1044.27 2468.49V2445.63C1051.02 2451.59 1064.5 2464.52 1064.5 2468.49C1064.5 2472.47 1057.2 2464.85 1053.54 2460.54L1047.64 2490.36L1039.21 2506.26L1018.14 2498.31V2525.15C1018.14 2529.13 1006.9 2535.42 1001.28 2538.07L967.567 2512.23C968.972 2518.19 970.939 2531.71 967.567 2538.07C964.196 2544.44 953.238 2555.3 948.181 2559.94L911.936 2538.07V2550L899.292 2573.86L862.204 2555.97C855.582 2555.39 843.691 2553.7 842.572 2551.16C839.965 2556.53 828.935 2575.82 822.587 2586.78L804.044 2582.8L787.185 2546.03L773.699 2567.89L748.412 2559.94L741.668 2525.15L716.381 2550L712.166 2525.15L708.749 2498.31C705.636 2509.51 701.248 2522.77 698.68 2530.12L712.166 2550C705.423 2561.93 693.285 2585.99 698.68 2586.78C705.423 2587.77 730.71 2595.73 757.683 2606.66C767.037 2610.45 769.092 2613.77 770.774 2616.48C773.943 2621.58 775.785 2624.55 822.587 2624.55H937.223H967.567C989.483 2624.55 1063.66 2585.79 1074.62 2567.89C1079.35 2560.17 1079.99 2548.92 1079.2 2538.07L1074.62 2546.03L1061.13 2531.12L1039.21 2573.86L1008.87 2546.03L978.526 2593.74L943.966 2578.83L933.008 2606.66L906.878 2617.6L888.334 2582.8L857.99 2601.69V2586.78L881.591 2578.83L899.292 2586.78H923.736L933.008 2573.86L954.081 2567.89L967.567 2578.83L986.955 2555.97L1008.87 2538.07L1039.21 2550L1053.54 2512.23L1079.2 2538.07C1078.87 2533.61 1078.3 2529.21 1077.67 2525.15C1077.1 2521.49 1076.49 2518.11 1075.96 2515.21C1075.2 2511.04 1074.62 2507.86 1074.62 2506.26C1074.62 2499.31 1070.4 2466.5 1064.5 2454.57C1062.19 2449.91 1061.95 2447.98 1061.75 2446.41C1061.44 2443.97 1061.24 2442.39 1053.54 2432.71C1049.09 2427.11 1050.49 2423.24 1051.67 2419.96C1053.85 2413.93 1055.29 2409.92 1018.14 2400.9C960.824 2383.4 940.313 2355.83 937.223 2344.24C935.537 2338.27 930.479 2324.36 923.736 2316.41C920.945 2313.11 918.986 2310.37 917.338 2308.06C914.009 2303.39 911.952 2300.51 906.878 2298.51H853.775C856.584 2295.86 859.001 2292.15 846.189 2298.51C839.285 2301.94 833.948 2305.74 829.435 2308.95C823.477 2313.19 818.954 2316.41 814.158 2316.41C807.415 2316.41 805.729 2334.96 805.729 2344.24C789.563 2363.04 791.837 2372.1 805.729 2386.98Z" fill="#383A35"/>
<path d="M734.082 2755.77C736.78 2754.18 745.883 2741.19 750.097 2734.89C753.75 2735.22 761.224 2736.88 761.898 2740.85C762.572 2744.83 770.608 2763.72 774.542 2772.66L799.829 2755.77C805.167 2758.08 816.519 2764.71 819.216 2772.66C822.588 2782.6 831.859 2803.48 835.231 2797.51C837.928 2792.74 850.404 2773 856.304 2763.72C864.171 2766.04 880.748 2772.27 884.12 2778.63C888.334 2786.58 901.821 2772.66 905.193 2772.66C907.89 2772.66 918.679 2758.08 923.737 2750.8L952.395 2778.63L982.74 2745.82C989.483 2754.77 1003.81 2772.66 1007.18 2772.66C1010.56 2772.66 1021.51 2751.46 1026.57 2740.85C1029.38 2738.87 1036.18 2734.89 1040.9 2734.89C1045.62 2734.89 1059.16 2748.81 1065.35 2755.77C1068.72 2744.17 1075.63 2719.98 1076.3 2716C1077.15 2711.03 1077.15 2684.2 1085.57 2694.14C1092.32 2702.09 1099.62 2716 1102.43 2721.97V2674.26L1124.35 2682.21L1109.18 2694.14V2729.92C1109.18 2733.9 1097.38 2726.28 1091.48 2721.97L1085.57 2755.77C1073.49 2761.07 1048.49 2770.08 1045.12 2763.72C1041.74 2757.36 1031.35 2767.03 1026.57 2772.66L1002.13 2797.51L990.326 2763.72L972.625 2778.63L952.395 2790.56L923.737 2778.63L901.821 2792.54H874.848C869.453 2792.54 864.733 2783.27 863.047 2778.63L846.189 2809.44C835.231 2813.42 813.147 2820.18 812.473 2815.41C811.798 2810.64 807.696 2788.9 805.729 2778.63C803.201 2774.65 797.132 2767.89 793.086 2772.66C789.04 2777.44 783.533 2783.27 781.285 2785.59L754.312 2763.72L750.097 2750.8L741.668 2763.72L734.082 2755.77Z" fill="#797979"/>
<path d="M729.025 2781.61C730.373 2784.79 749.255 2814.08 758.527 2828.33L770.327 2792.54C776.789 2805.8 790.388 2833.3 793.086 2837.28C795.783 2841.25 820.621 2830.98 832.702 2825.35C836.636 2828 845.346 2834.09 848.718 2837.28C852.932 2841.25 866.419 2847.22 868.947 2847.22C871.476 2847.22 884.963 2815.41 887.491 2815.41C890.02 2815.41 908.564 2837.28 911.936 2837.28C915.307 2837.28 927.108 2847.22 932.166 2840.26C937.223 2833.3 945.652 2818.39 949.024 2818.39C952.395 2818.39 958.296 2840.26 967.568 2840.26C976.84 2840.26 982.74 2849.2 990.326 2837.28C997.912 2825.35 1010.56 2809.44 1012.24 2809.44H1026.57C1031.63 2809.44 1041.74 2818.39 1045.12 2818.39C1048.49 2818.39 1058.6 2799.5 1060.29 2792.54C1061.64 2786.98 1066.47 2782.94 1068.72 2781.61L1058.6 2774.65L1045.12 2797.51C1038.65 2794.2 1025.05 2788.57 1022.36 2792.54C1018.99 2797.51 996.227 2803.48 994.541 2809.44C992.855 2815.41 994.541 2823.36 986.955 2828.33C979.368 2833.3 967.568 2834.29 967.568 2831.31C967.568 2828.33 955.767 2806.46 952.395 2805.47C949.024 2804.47 934.694 2818.39 932.166 2818.39C929.637 2818.39 926.265 2825.35 923.737 2825.35C921.208 2825.35 897.606 2800.5 890.863 2801.49C884.12 2802.48 880.748 2803.48 874.848 2809.44C868.948 2815.41 867.262 2822.36 863.047 2825.35C859.675 2827.73 838.603 2824.35 828.488 2822.37L809.101 2825.35C806.853 2826.67 801.852 2827.93 799.829 2822.37C797.806 2816.8 786.623 2806.13 781.285 2801.49L770.327 2790.56C767.221 2792.21 761.186 2797.51 761.898 2805.47C762.788 2815.41 758.527 2829.32 754.312 2815.41C750.94 2804.27 744.478 2795.53 741.668 2792.54L729.025 2781.61Z" fill="#737471"/>
</svg>
