<svg width="3115" height="3228" viewBox="0 0 3115 3228" fill="none" xmlns="http://www.w3.org/2000/svg">
<defs>
<linearGradient id="paint0_linear_2271_17746" x1="1557.19" y1="0" x2="1557.19" y2="4537.49" gradientUnits="userSpaceOnUse">
<stop offset="0.155185" stop-color="#B32428"/>
<stop offset="0.402534" stop-color="white"/>
</linearGradient>
</defs>
<path d="M1545.09 2113.85L1400.59 2504.99L1237.36 3083.54C1253.46 3091.28 1295.88 3107.73 1336.73 3111.58C1350.93 3061.25 1458.25 2706.82 1506.74 2534.94L1564.12 2379.1L1645.48 2129.63C1632.48 2119.56 1601.73 2107.54 1591.85 2142.55L1483.03 2528.25C1471.1 2539.16 1460.73 2556.21 1446.89 2518.05C1486.81 2399.62 1568.07 2157.69 1573.78 2137.45C1579.49 2117.21 1557.03 2113.28 1545.09 2113.85Z" fill="#AF7532"/>
<path d="M1763.12 2231.2L1505.73 3143.48C1517.62 3151.75 1553.01 3168.63 1599.46 3169.92L1738.58 2676.85L1854.54 2265.85C1845.3 2255.37 1822.66 2237.96 1805.98 2252.15C1789.3 2266.34 1729.6 2538.72 1701.83 2673.13C1692.83 2674.78 1673.46 2675.17 1667.95 2663.57C1662.45 2651.98 1745.67 2375.17 1787.97 2238.21C1785.56 2230.89 1777.23 2219.23 1763.12 2231.2Z" fill="#E0A761"/>
<path d="M1296.68 2108.46L1169.73 2528.17L1029.57 3024.92C1042.88 3033.93 1082.06 3052.35 1132.34 3053.91L1272.49 2557.16L1391.54 2135.22C1377.71 2125.17 1348.07 2109.52 1340.11 2127.35C1332.16 2145.19 1266.12 2414.1 1234.09 2546.33C1221 2549.53 1195.89 2552.09 1200.22 2536.77L1317.53 2120.98C1318.31 2116.77 1315.23 2108.37 1296.68 2108.46Z" fill="#BB823D"/>
<path fill-rule="evenodd" clip-rule="evenodd" d="M1515 3000C2343.43 3000 3015 2328.43 3015 1500C3015 671.573 2343.43 0 1515 0C686.573 0 15 671.573 15 1500C15 2328.43 686.573 3000 1515 3000ZM327.5 771C164.7 983 119 1345.33 116.5 1500C116.5 1934.81 338.5 2284.5 449.5 2405C531.167 2510.33 780.8 2745.5 1126 2843.5C1471.2 2941.5 1783.83 2884.33 1897 2843.5C1935.5 2841.17 2071.6 2799.8 2308 2653C2544.4 2506.2 2714.5 2224.83 2770 2102.5C2813 2025.5 2902.4 1797.2 2916 1500C2929.6 1202.8 2783.67 890.167 2709 771C2666 711 2552.1 562.4 2440.5 448C2328.9 333.6 2099.67 223.667 1999 183C1950.33 166 1785.4 125.9 1515 101.5C1244.6 77.1 911.667 229.667 779 309C686.167 361 465.9 526.2 327.5 771Z" fill="url(#paint0_linear_2271_17746)"/>
<path d="M361.378 1890.69C356.059 1898.29 346.398 1930 350.298 1996.13C350.298 2010.54 359.128 2016.31 367.361 2018.1C370.696 2018.83 373.934 2018.9 376.447 2018.63C423.13 2021.25 521.417 2024.93 541.095 2018.63C579.413 2020.49 649.595 2021.17 681.368 2012.91C689.592 2010.77 695.243 2008.04 697.102 2004.57C706.143 1987.7 703.38 1958.55 700.869 1946.09C700.5 1926.97 695.994 1886.59 680.925 1878.04C664.615 1872.64 614.002 1872.98 590.734 1873.82L442.262 1878.04L373.344 1882.26C369.355 1883.29 361.378 1886.42 361.378 1890.69Z" fill="#B27134"/>
<path d="M541.095 2018.63C521.417 2024.93 423.13 2021.25 376.447 2018.63C373.934 2018.9 370.696 2018.83 367.361 2018.1V2028.19L341.877 2054.94L330.132 2067.27L319.385 2074.09L308.637 2080.91L303.54 2084.14L298.665 2087.89L266.976 2112.26L223.321 2147.97C206.553 2163.99 172.84 2202.68 172.131 2229.23C171.422 2255.77 173.756 2273.09 175.012 2278.43C177.154 2294.27 183.832 2330.11 193.405 2346.76C199.255 2362.05 203.229 2374.31 204.485 2378.53C205.888 2391.18 209.36 2417.33 212.019 2420.7C215.343 2424.92 226.645 2459.79 233.293 2464.57C235.243 2474.24 247.401 2496.71 253.237 2506.74L301.767 2599.53C307.898 2611.71 320.736 2640.92 323.041 2660.26C326.941 2672.86 330.723 2683.69 332.127 2687.54V2712.84C327.325 2717.81 317.545 2728.59 316.836 2731.96C315.95 2736.18 306.643 2774.42 311.739 2792.13C315.817 2806.3 322.893 2820.53 325.922 2825.87C339.809 2843.31 372.812 2878.68 393.731 2880.7C415.005 2889.47 433.915 2894.85 440.71 2896.45C466.194 2901.04 519.644 2909.38 529.572 2906.01C541.627 2906.01 584.233 2899.63 604.03 2896.45C623.235 2891.2 665.147 2877.95 679.152 2866.92C693.157 2855.9 704.193 2845.84 707.96 2842.18L734.552 2804.22L739.87 2797.76C736.62 2771.33 725.023 2714.42 704.636 2698.22C704.636 2666.95 720.443 2631.96 728.347 2618.37L751.172 2561.01L782.196 2506.18L804.356 2456.13L829.175 2386.4L850.449 2340.57C858.279 2319.95 873.717 2275.56 872.83 2262.97C871.944 2250.37 872.461 2233.16 872.83 2226.13C870.984 2207.86 862.105 2166.86 841.363 2149.09C820.621 2131.32 808.049 2118.82 804.356 2114.79L780.645 2099.04C776.287 2094.26 766.684 2084.08 763.138 2081.61C761.138 2080.21 756.08 2077.26 750.95 2074.35C748.409 2072.9 745.851 2071.47 743.638 2070.24C742.401 2069.55 741.271 2068.92 740.314 2068.4L724.137 2056.3L721.699 2054.53L710.619 2046.46L697.102 2036.62L685.357 2025.66H681.368V2012.91C649.595 2021.17 579.413 2020.49 541.095 2018.63Z" fill="#905836"/>
<path d="M298.665 2087.89L303.54 2084.14L308.637 2080.91C301.989 2077.77 290.687 2064.68 298.665 2037.47C298.501 2036.59 298.344 2035.52 298.226 2034.32C297.707 2029.07 297.934 2021.48 301.546 2018.1C299.404 2015.18 293.568 2014.97 287.363 2037.47C281.159 2059.96 292.312 2080.45 298.665 2087.89Z" fill="#D8B66C"/>
<path d="M332.57 2025.38C331.329 2023.13 329.098 2024.44 328.138 2025.38C330.286 2030.19 331.702 2034.78 332.57 2039.04C333.519 2043.7 333.813 2047.98 333.694 2051.76C333.463 2059.06 331.691 2064.5 330.132 2067.27L341.877 2054.94C343.712 2053.01 334.121 2028.19 332.57 2025.38Z" fill="#D8B66C"/>
<path d="M725.688 1944.68L734.774 1965.21L756.823 1939.48L753.61 1921.62L752.377 1908.36L736.99 1939.48L725.369 1916.23C725.743 1928.53 725.959 1939.98 725.688 1944.68Z" fill="#CBAA7C"/>
<path d="M725.369 1916.23L736.99 1939.48L752.377 1908.36L750.223 1885.19L736.99 1916.23L724.72 1897.68C724.948 1903.56 725.179 1910 725.369 1916.23Z" fill="#D8B66C"/>
<path d="M724.137 1883.67C724.309 1887.51 724.513 1892.36 724.72 1897.68L736.99 1916.23L750.223 1885.19L748.07 1862.02L736.99 1890.65L724.137 1883.67Z" fill="#D8B66C"/>
<path d="M724.137 1883.67L736.99 1890.65L748.07 1862.02L741.865 1834.71L732.779 1867.59L721.699 1858.08C722.648 1867.61 723.49 1876.52 724.137 1883.67Z" fill="#CBAA7C"/>
<path d="M721.699 1858.08L732.779 1867.59L741.865 1834.71L737.654 1816.18L729.677 1844.25L719.271 1834.71C720.118 1842.5 720.943 1850.48 721.699 1858.08Z" fill="#CBAA7C"/>
<path d="M719.271 1834.71L729.677 1844.25L737.654 1816.18C736.867 1811.61 735.87 1805.86 734.774 1799.58L725.688 1821.76L717.153 1816.18C717.857 1822 718.572 1828.29 719.271 1834.71Z" fill="#D8B66C"/>
<path d="M717.153 1816.18L725.688 1821.76L734.774 1799.58C733.176 1790.42 731.365 1780.13 729.677 1770.71L724.358 1806.86L713.505 1790.8C714.581 1796.27 715.85 1805.43 717.153 1816.18Z" fill="#D8B66C"/>
<path d="M712.17 1785.82C712.565 1786.58 713.015 1788.31 713.505 1790.8L724.358 1806.86L729.677 1770.71C728.385 1763.49 727.165 1756.78 726.167 1751.47L719.271 1773.96L707.256 1763.56C709.28 1774.6 710.901 1783.35 712.17 1785.82Z" fill="#CBAA7C"/>
<path d="M707.256 1763.56L719.271 1773.96L726.167 1751.47C725.419 1747.48 724.795 1744.28 724.358 1742.24C724.284 1739.1 722.15 1731.14 719.271 1721.76L713.505 1747.53L702.013 1736.56C703.939 1745.45 705.634 1754.7 707.116 1762.79L707.256 1763.56Z" fill="#CBAA7C"/>
<path d="M702.013 1736.56L713.505 1747.53L719.271 1721.76C716.565 1712.95 713.201 1702.88 710.268 1694.39L707.256 1721.76H698.422C699.7 1726.37 700.895 1731.41 702.013 1736.56Z" fill="#D8B66C"/>
<path d="M690.232 1702.03C693.275 1705.74 695.996 1712.99 698.422 1721.76H707.256L710.268 1694.39C708.932 1690.52 707.685 1686.98 706.63 1684.03L703.248 1677.8L698.422 1702.03H690.232Z" fill="#D8B66C"/>
<path d="M690.232 1702.03H698.422L703.248 1677.8L695.622 1663.74L690.232 1684.03L680.925 1681.19L681.629 1682.8C685.001 1690.49 688.004 1697.34 690.232 1702.03Z" fill="#CBAA7C"/>
<path d="M680.925 1681.19L690.232 1684.03L695.622 1663.74L686.318 1646.59L684.561 1667.4L671.396 1659.79C674.652 1666.91 677.92 1674.34 680.925 1681.19Z" fill="#CBAA7C"/>
<path d="M671.396 1659.79L684.561 1667.4L686.318 1646.59L675.972 1627.52L675.032 1646.59H665.15C667.177 1650.69 669.284 1655.18 671.396 1659.79Z" fill="#D8B66C"/>
<path d="M653.668 1627.52C656.556 1630.24 660.656 1637.49 665.15 1646.59H675.032L675.972 1627.52L671.396 1619.08C669.142 1615.75 665.803 1610.94 661.919 1605.54L665.15 1627.52H653.668Z" fill="#D8B66C"/>
<path d="M653.668 1627.52H665.15L661.919 1605.54C658.661 1601 655.019 1596.05 651.312 1591.2L653.668 1614.47H642.235C647.176 1620.43 651.326 1625.31 653.668 1627.52Z" fill="#CBAA7C"/>
<path d="M642.235 1614.47H653.668L651.312 1591.2C648.271 1587.22 645.187 1583.31 642.235 1579.75L644.451 1601.82H631.82C633.353 1603.68 634.877 1605.53 636.369 1607.35C638.4 1609.82 640.374 1612.22 642.235 1614.47Z" fill="#CBAA7C"/>
<path d="M589.847 1530.79C587.557 1529.67 580.097 1525.9 568.574 1519.83L572.653 1538.06L561.794 1547.99C566.737 1549.72 571.224 1551.69 575.278 1553.75L594.148 1546.21L589.847 1530.79Z" fill="#D8B66C"/>
<path d="M589.847 1562.56L608.109 1557.18L606.058 1542.88C599.856 1537.96 594.018 1533.68 589.847 1530.79L594.148 1546.21L575.278 1553.75C580.968 1556.65 585.803 1559.73 589.847 1562.56Z" fill="#CBAA7C"/>
<path d="M604.916 1573.25H621.405L618.967 1553.75C614.775 1549.98 610.33 1546.28 606.058 1542.88L608.109 1557.18L589.847 1562.56C593.025 1564.79 595.714 1566.87 597.944 1568.59C601.233 1571.14 603.525 1572.91 604.916 1573.25Z" fill="#CBAA7C"/>
<path d="M604.916 1573.25C607.24 1573.82 612.581 1579.28 618.967 1586.58L634.036 1591.2L636.605 1573.25C633.163 1567.46 626.471 1560.5 618.967 1553.75L621.405 1573.25H604.916Z" fill="#D8B66C"/>
<path d="M631.82 1601.82H644.451L642.235 1579.75C640.284 1577.4 638.39 1575.21 636.605 1573.25L634.036 1591.2L618.967 1586.58C623 1591.18 627.45 1596.52 631.82 1601.82Z" fill="#D8B66C"/>
<path d="M561.794 1547.99L572.653 1538.06L568.574 1519.83C563.791 1517.31 555.917 1515.99 547.39 1515.4L557.805 1534.68L544.953 1543.59C551.072 1544.68 556.678 1546.21 561.794 1547.99Z" fill="#D8B66C"/>
<path d="M544.953 1543.59L557.805 1534.68L547.39 1515.4C542.129 1515.04 536.62 1514.95 531.435 1515.03L540.964 1530.79L525.895 1541.79C532.736 1541.89 539.081 1542.54 544.953 1543.59Z" fill="#CBAA7C"/>
<path d="M525.895 1541.79L540.964 1530.79L531.435 1515.03C524.777 1515.12 518.654 1515.49 514.282 1515.89L525.895 1527.93L511.491 1542.36C516.519 1541.9 521.318 1541.72 525.895 1541.79Z" fill="#CBAA7C"/>
<path d="M506.747 1542.88C508.351 1542.68 509.932 1542.51 511.491 1542.36L525.895 1527.93L514.282 1515.89C509.464 1517.64 502.513 1520.4 495.182 1523.7L506.747 1530.79L495.182 1546.21C499.025 1544.51 502.885 1543.37 506.747 1542.88Z" fill="#D8B66C"/>
<path d="M495.182 1546.21L506.747 1530.79L495.182 1523.7C486.327 1527.7 476.919 1532.49 470.052 1537.28L486.007 1534.68L478.395 1557.18C483.925 1552.45 489.536 1548.71 495.182 1546.21Z" fill="#D8B66C"/>
<path d="M470.052 1537.28C467.35 1539.17 465.041 1541.05 463.314 1542.88C459.539 1544.69 454.232 1550.14 448.482 1557.18L463.314 1550.99L466.201 1569.27C470.209 1564.76 474.28 1560.69 478.395 1557.18L486.007 1534.68L470.052 1537.28Z" fill="#CBAA7C"/>
<path d="M463.314 1550.99L448.482 1557.18C443.034 1563.85 437.189 1571.95 431.874 1579.75L448.482 1573.25L452.56 1586.58C457.004 1580.31 461.56 1574.49 466.201 1569.27L463.314 1550.99Z" fill="#CBAA7C"/>
<path d="M431.874 1579.75C426.73 1587.3 422.083 1594.56 418.772 1599.96L435.039 1591.2L432.403 1619.08C438.762 1607.55 445.519 1596.51 452.56 1586.58L448.482 1573.25L431.874 1579.75Z" fill="#D8B66C"/>
<path d="M435.039 1591.2L418.772 1599.96C414.811 1605.03 408.265 1614.78 401.515 1627.52L418.772 1614.47L421.197 1640.68C424.765 1633.39 428.51 1626.15 432.403 1619.08L435.039 1591.2Z" fill="#D8B66C"/>
<path d="M418.772 1614.47L401.515 1627.52C397.784 1634.56 393.991 1642.51 390.538 1651.09L407.339 1640.68L412.263 1659.79C415.095 1653.45 418.079 1647.05 421.197 1640.68L418.772 1614.47Z" fill="#CBAA7C"/>
<path d="M390.538 1651.09C387.77 1657.96 385.219 1665.25 383.095 1672.79L395.594 1667.4L402.004 1684.03C405.14 1676.2 408.573 1668.05 412.263 1659.79L407.339 1640.68L390.538 1651.09Z" fill="#CBAA7C"/>
<path d="M395.594 1667.4L383.095 1672.79C381.105 1679.85 378.825 1687.13 376.4 1694.39L388.634 1691.01L394.089 1704.79C396.453 1698.25 399.102 1691.28 402.004 1684.03L395.594 1667.4Z" fill="#D8B66C"/>
<path d="M388.634 1691.01L376.4 1694.39C373.512 1703.02 370.418 1711.61 367.361 1719.71L381.855 1707.04L388.634 1720.59C390.229 1715.72 392.054 1710.42 394.089 1704.79L388.634 1691.01Z" fill="#CBAA7C"/>
<path d="M381.855 1707.04L367.361 1719.71C365.326 1725.1 363.308 1730.27 361.378 1735.09L376.4 1727.85L379.574 1749.22L388.634 1720.59L381.855 1707.04Z" fill="#D8B66C"/>
<path d="M361.378 1735.09C356.923 1746.23 352.936 1755.51 350.298 1761.36L365.678 1746.69L374.325 1765.81L379.574 1749.22L376.4 1727.85L361.378 1735.09Z" fill="#D8B66C"/>
<path d="M365.678 1746.69L350.298 1761.36C349.917 1763 348.513 1768.06 345.54 1777.9L361.378 1770.02L367.361 1787.81L374.325 1765.81L365.678 1746.69Z" fill="#CBAA7C"/>
<path d="M361.378 1770.02L345.54 1777.9C344.049 1782.83 342.164 1788.96 339.814 1796.45L353.4 1787.81L362.313 1803.76L367.361 1787.81L361.378 1770.02Z" fill="#CBAA7C"/>
<path d="M353.4 1787.81L339.814 1796.45C338.461 1800.77 336.955 1805.54 335.281 1810.79L348.394 1809.11L356.448 1822.3L362.313 1803.76L353.4 1787.81Z" fill="#D8B66C"/>
<path d="M335.281 1810.79C334.422 1813.49 333.519 1816.32 332.57 1819.28C330.919 1824.42 329.45 1829.18 328.138 1833.6L339.814 1826.82L351.235 1849.88C352.027 1843.23 352.775 1837.05 353.4 1831.93L356.448 1822.3L348.394 1809.11L335.281 1810.79Z" fill="#CBAA7C"/>
<path d="M339.814 1826.82L328.138 1833.6C324.942 1844.36 322.682 1853.08 321.025 1860.28L335.281 1849.88L347.94 1878.04C348.99 1868.84 350.154 1858.93 351.235 1849.88L339.814 1826.82Z" fill="#D8B66C"/>
<path d="M335.281 1849.88L321.025 1860.28C318.818 1869.87 317.682 1876.78 316.833 1882.26L328.138 1873.82L345.861 1896.83C346.436 1891.39 347.156 1884.91 347.94 1878.04L335.281 1849.88Z" fill="#CBAA7C"/>
<path d="M328.138 1873.82L316.833 1882.26C316.734 1882.9 316.639 1883.52 316.546 1884.12C315.974 1887.85 315.504 1890.92 314.842 1893.79C314.164 1896.72 313.444 1901.61 312.695 1907.52L330.132 1899.64L343.511 1921.57C344.224 1916.86 344.645 1913.39 344.536 1912.34C344.423 1911.27 344.967 1905.3 345.861 1896.83L328.138 1873.82Z" fill="#D8B66C"/>
<path d="M330.132 1899.64L312.695 1907.52C311.99 1913.07 311.26 1919.52 310.517 1926.09C310.358 1927.49 310.2 1928.89 310.04 1930.29L325.126 1919.33L340.308 1940.69C341.518 1933.87 342.702 1926.92 343.511 1921.57L330.132 1899.64Z" fill="#CBAA7C"/>
<path d="M325.126 1919.33L310.04 1930.29C309.315 1936.67 308.58 1943 307.847 1948.57L325.126 1940.69L337.002 1958.74C337.912 1953.93 339.122 1947.37 340.308 1940.69L325.126 1919.33Z" fill="#D8B66C"/>
<path d="M307.847 1948.57C307.145 1953.89 306.445 1958.52 305.756 1961.83L319.385 1958.74L335.281 1975.87L337.002 1958.74L325.126 1940.69L307.847 1948.57Z" fill="#D8B66C"/>
<path d="M319.385 1958.74L305.756 1961.83C304.696 1966.92 303.84 1975.42 303.179 1984.56L316.833 1975.87L332.57 1993.1L334.121 1987.42L335.281 1975.87L319.385 1958.74Z" fill="#CBAA7C"/>
<path fill-rule="evenodd" clip-rule="evenodd" d="M731.262 1997.9L731.671 1997.54C731.527 1997.65 731.391 1997.77 731.262 1997.9Z" fill="#C4C4C4"/>
<path d="M307.086 2071.21C309.745 2070.98 315.137 2071.11 317.501 2071.21L319.385 2074.09L330.132 2067.27L321.025 2051.76L305.756 2070.57C306.203 2071.01 306.649 2071.24 307.086 2071.21Z" fill="#CBAA7C"/>
<path d="M299.97 2054.94C300.059 2055.58 300.143 2056.13 300.216 2056.59C301.204 2060.74 303.482 2068.32 305.756 2070.57L321.025 2051.76L330.132 2067.27C331.691 2064.5 333.463 2059.06 333.694 2051.76L316.833 2039.04L299.97 2054.94Z" fill="#D8B66C"/>
<path d="M298.226 2034.32C298.344 2035.52 298.501 2036.59 298.665 2037.47C298.665 2044.03 299.427 2051.06 299.97 2054.94L316.833 2039.04L333.694 2051.76C333.813 2047.98 333.519 2043.7 332.57 2039.04L314.842 2022.52L298.226 2034.32Z" fill="#CBAA7C"/>
<path d="M328.138 2025.38V2009.35L314.842 1996.13L301.93 2007.05C301.754 2011.29 301.626 2015.09 301.546 2018.1C297.934 2021.48 297.707 2029.07 298.226 2034.32L314.842 2022.52L332.57 2039.04C331.702 2034.78 330.286 2030.19 328.138 2025.38Z" fill="#CBAA7C"/>
<path d="M316.833 1975.87L303.179 1984.56C302.631 1992.14 302.216 2000.16 301.93 2007.05L314.842 1996.13L328.138 2009.35L332.57 1993.1L316.833 1975.87Z" fill="#D8B66C"/>
<path d="M711.949 2033.25L710.619 2046.46L721.699 2054.53V2050.5V2046.46C720.087 2039.44 718.849 2023.98 726.796 2018.35C726.796 2015.79 728.222 2013.91 729.795 2012.68L729.824 2012.65C730.444 2012.17 731.086 2011.78 731.671 2011.49C732.076 2011.3 732.454 2011.14 732.779 2011.04C733.196 2007.94 735.11 2001.76 739.432 2001.76C736.615 2001.16 733.303 1998.9 731.671 1997.54L731.262 1997.9C731.391 1997.77 731.527 1997.65 731.671 1997.54C731.695 1997.17 731.724 1996.78 731.758 1996.37C722.426 2003.34 714.663 2023.86 711.949 2033.25Z" fill="#D8B66C"/>
<path d="M756.712 2065.58C757.776 2062.43 757.155 2053.77 756.712 2049.84C756.585 2047.69 756.487 2044.3 756.661 2041.8C759.676 2032.7 764.927 2012.15 761.808 2002.76C757.741 2027.06 750.765 2036.83 749.224 2038.59C748.975 2043.54 748.476 2048.05 747.938 2051.52C747.908 2051.71 747.878 2051.9 747.848 2052.09L743.638 2070.24C745.851 2071.47 748.409 2072.9 750.95 2074.35C752.428 2072.74 755.648 2068.73 756.712 2065.58Z" fill="#D8B66C"/>
<path d="M725.688 1944.68C725.156 1953.9 723.398 1962.21 722.586 1965.21L720.259 1975.47L736.73 1980.68C736.815 1980.67 736.902 1980.66 736.99 1980.67C738.172 1980.2 740.668 1979.6 741.2 1980.95L761.808 1973.31C761.199 1967.08 760.509 1961.11 760.036 1957.33L756.823 1939.48L734.774 1965.21L725.688 1944.68Z" fill="#CBAA7C"/>
<path d="M708.625 2012.91C704.725 2026.33 709.216 2032.06 711.949 2033.25C714.663 2023.86 722.426 2003.34 731.758 1996.37C731.941 1994.16 732.273 1991.41 732.779 1988.83C733.602 1984.63 734.885 1980.88 736.73 1980.68L720.259 1975.47L717.932 1985.73C717.094 1987.7 715.468 1991.86 713.505 1997.54C712.007 2001.88 710.313 2007.1 708.625 2012.91Z" fill="#CBAA7C"/>
<path d="M729.677 2030.44C728.717 2028.19 726.796 2022.62 726.796 2018.35C718.849 2023.98 720.087 2039.44 721.699 2046.46V2050.5C730.298 2053.85 747.842 2056.18 749.224 2038.59C750.765 2036.83 757.741 2027.06 761.808 2002.76C762.299 1999.83 762.747 1996.69 763.138 1993.32C763.138 1988.44 762.53 1980.7 761.808 1973.31L741.2 1980.95C741.227 1981.02 741.256 1981.11 741.287 1981.21C741.988 1983.63 743.352 1995.02 741.865 2001.76C741.147 2001.97 740.314 2001.95 739.432 2001.76C735.11 2001.76 733.196 2007.94 732.779 2011.04C738.452 2009.54 741.2 2015.85 741.865 2019.19C740.757 2020.69 737.787 2024.36 734.774 2027.06C732.646 2030.89 730.489 2030.91 729.677 2030.44Z" fill="#CBAA7C"/>
<path d="M258.646 2244.64C317.96 2257.67 438.009 2283.44 443.682 2282.32C450.773 2280.91 569.993 2267.14 597.472 2265.73C624.95 2264.32 742.841 2244.64 753.7 2244.64C762.387 2244.64 836.948 2235.46 873.142 2230.86L865.829 2273.32C863.983 2278.38 858.339 2290.02 850.539 2296.1C840.789 2303.69 771.428 2315.5 753.7 2317.18C735.972 2318.87 722.676 2321.68 682.123 2324.78C641.57 2327.87 672.816 2324.78 611.876 2324.78C550.936 2324.78 554.482 2326.18 531.878 2332.37C509.275 2338.55 509.275 2339.68 484.234 2341.36C459.194 2343.05 333.99 2341.36 313.602 2341.36C293.215 2341.36 240.918 2332.37 220.53 2324.78C204.221 2318.7 181.824 2268.82 172.665 2244.64L181.086 2230.86H203.689C209.539 2230.86 242.764 2240.05 258.646 2244.64Z" fill="#A96135"/>
<path d="M234.27 2417.28C258.646 2424.03 398.032 2434.43 420.857 2434.43C443.682 2434.43 521.242 2430.78 551.379 2424.03C581.517 2417.28 599.245 2409.69 640.684 2408.28C682.123 2406.88 725.778 2402.66 753.7 2400.13C781.621 2397.6 815.748 2391.98 809.543 2400.13C804.579 2406.65 819.293 2402.85 827.271 2400.13C821.066 2413.34 807.194 2441.35 801.344 2447.65C794.031 2455.52 766.109 2476.33 753.7 2487.01C741.29 2497.7 704.726 2514.85 693.425 2518.78C682.123 2522.72 672.594 2525.53 648.883 2526.66C625.172 2527.78 616.529 2534.53 597.472 2526.66C578.414 2518.78 557.584 2526.94 542.072 2518.78C526.56 2510.63 504.621 2506.98 490.217 2505.57C475.814 2504.16 466.506 2500.51 443.682 2497.7C420.857 2494.88 434.153 2494.88 377.202 2487.01C320.25 2479.14 300.75 2472.67 286.124 2472.67H250.668L234.27 2459.46L220.53 2424.03L234.27 2417.28Z" fill="#C68158"/>
<path d="M372.991 1900.49V1923.54C372.991 1925.12 377.275 1924.2 379.418 1923.54V1900.49H372.991Z" fill="#CB7D34"/>
<path d="M408.226 1900.49V1923.54H418.641V1900.49H408.226Z" fill="#CB7D34"/>
<path d="M448.114 1900.49H461.188L453.875 1923.54H440.801L448.114 1900.49Z" fill="#CB7D34"/>
<path d="M484.234 1900.49H499.746V1923.54H478.251L484.234 1904.7L481.575 1897.39L484.234 1900.49Z" fill="#CB7D34"/>
<path d="M528.776 1900.49L546.947 1904.7L542.515 1923.54L524.344 1930.01V1904.7L528.776 1900.49Z" fill="#CB7D34"/>
<path d="M586.835 1893.18L616.751 1897.39L611.876 1930.01H581.517L586.835 1893.18Z" fill="#CB7D34"/>
<path d="M646.889 1893.18C659.52 1897.39 678.799 1894.3 678.799 1897.39C678.799 1899.87 672.742 1923.92 669.713 1935.63L641.792 1930.01L646.889 1897.39V1893.18Z" fill="#CB7D34"/>
<path d="M635.144 1968.81H664.617V1984.84C664.617 1989.34 639.945 1992.34 627.609 1993.27L635.144 1968.81Z" fill="#CB7D34"/>
<path d="M592.375 1962.34C596.453 1963.02 610.325 1962.63 616.751 1962.34L610.546 1989.9L581.517 1993.27L592.375 1962.34Z" fill="#CB7D34"/>
<path d="M536.089 1962.34H564.675C563.272 1966.84 560.243 1976.74 559.357 1980.34C558.47 1983.94 543.475 1990.46 536.089 1993.27V1962.34Z" fill="#CB7D34"/>
<path d="M483.126 1955.88L500.854 1957.85L504.621 1968.53L498.417 1983.43L483.126 1987.37C481.28 1982.21 477.897 1971.57 479.138 1970.22C480.378 1968.87 482.314 1960.1 483.126 1955.88Z" fill="#CB7D34"/>
<path d="M425.732 1954.47H452.767C450.92 1959.72 447.138 1970.84 446.784 1973.31C446.341 1976.4 440.358 1991.87 435.482 1988.49C430.607 1985.12 420.857 1980.9 421.078 1978.93C421.256 1977.36 424.255 1961.97 425.732 1954.47Z" fill="#CB7D34"/>
<path d="M384.514 1955.88C386.11 1954.75 395.964 1955.41 400.691 1955.88C399.583 1959.81 397.057 1968.81 395.816 1973.31C394.265 1978.93 385.401 1989.62 383.628 1988.49C381.855 1987.37 380.526 1967.12 381.634 1964.03C382.52 1961.56 383.923 1957.56 384.514 1955.88Z" fill="#CB7D34"/>
<path d="M854.683 2440.66C827.71 2429.73 802.423 2421.77 795.68 2420.78L777.979 2491.36C775.731 2502.95 772.584 2529.53 777.979 2543.05C784.722 2559.94 782.193 2589.77 795.68 2602.69C809.166 2615.61 810.852 2630.52 818.439 2637.48C826.025 2644.44 869.856 2684.2 870.699 2692.15C871.542 2700.1 887.557 2713.02 879.128 2723.96C870.699 2734.89 846.254 2762.73 854.683 2769.68C861.427 2775.25 903.572 2807.79 923.802 2823.36C926.05 2827.67 932.4 2836.28 939.817 2836.28H959.204H1001.35H1044.34C1070.47 2836.28 1048.55 2848.21 1083.95 2829.33C1119.36 2810.44 1129.47 2781.61 1129.47 2775.65C1129.47 2769.68 1120.2 2789.56 1129.47 2756.76C1138.74 2723.96 1108.4 2719.98 1129.47 2709.05C1146.33 2700.3 1150.54 2682.87 1150.54 2675.25C1154.2 2672.6 1162.51 2666.11 1166.56 2661.34C1171.62 2655.37 1180.05 2643.44 1189.32 2627.54C1198.59 2611.63 1203.65 2601.69 1209.55 2590.76C1215.45 2579.82 1211.23 2611.63 1223.03 2567.9C1234.84 2524.16 1239.89 2519.19 1237.36 2505.27C1234.84 2491.36 1236.52 2506.27 1223.03 2463.52C1209.55 2420.78 1203.65 2403.88 1198.59 2393.94C1194.54 2385.99 1186.23 2370.75 1182.57 2364.12L1174.67 2359.15C1175.3 2363.21 1175.87 2367.61 1176.2 2372.07C1176.99 2382.92 1176.35 2394.17 1171.62 2401.89C1160.66 2419.79 1086.48 2458.55 1064.57 2458.55H1034.22H919.587C872.785 2458.55 870.943 2455.58 867.774 2450.48C866.092 2447.77 864.037 2444.45 854.683 2440.66Z" fill="#21231F"/>
<path d="M996.292 2364.12L985.334 2389.97C980.277 2386.65 969.993 2378.44 969.319 2372.07C968.645 2365.71 944.875 2360.81 933.074 2359.15L911.158 2401.89C908.348 2395.93 902.729 2383.21 902.729 2380.03C902.729 2376.84 886.995 2364.78 879.128 2359.15L854.683 2384C852.998 2377.37 849.626 2363.13 849.626 2359.15C849.626 2354.18 838.668 2340.26 833.611 2340.26C829.565 2340.26 824.058 2350.2 821.81 2355.17L813.381 2324.36L809.166 2317.4C808.698 2320.99 807.404 2326.36 805.749 2332.31L809.166 2359.15L813.381 2384L838.668 2359.15L845.412 2393.94L870.699 2401.89L884.185 2380.03L901.044 2416.8L919.587 2420.78C925.935 2409.82 936.965 2390.53 939.572 2385.16C939.41 2384.79 939.475 2384.41 939.817 2384C940.338 2383.39 940.197 2383.88 939.572 2385.16C940.691 2387.7 952.582 2389.39 959.204 2389.97L996.292 2407.86L1008.94 2384V2372.07L1045.18 2393.94C1050.24 2389.3 1061.2 2378.44 1064.57 2372.07C1067.94 2365.71 1065.97 2352.19 1064.57 2346.23L1098.28 2372.07C1103.9 2369.42 1115.14 2363.13 1115.14 2359.15V2332.31L1136.21 2340.26L1144.64 2324.36L1150.54 2294.54C1154.2 2298.85 1161.5 2306.47 1161.5 2302.49C1161.5 2298.52 1148.02 2285.59 1141.27 2279.63V2302.49L1129.47 2332.31L1098.28 2313.43L1101.66 2359.15L1083.95 2340.26L1060.35 2332.31L1045.18 2380.03C1041.53 2374.72 1033.38 2364.12 1030.01 2364.12C1026.64 2364.12 1014.56 2348.22 1008.94 2340.26L996.292 2364.12Z" fill="#71726D"/>
<path d="M985.334 2416.8L1003.88 2451.6L1030.01 2440.66L1040.97 2412.83L1075.53 2427.74L1105.87 2380.03L1136.21 2407.86L1158.13 2365.12L1171.62 2380.03L1176.2 2372.07L1150.54 2346.23L1136.21 2384L1105.87 2372.07L1083.95 2389.97L1064.57 2412.83L1051.08 2401.89L1030.01 2407.86L1020.74 2420.78H996.292L978.591 2412.83L954.99 2420.78V2435.69L985.334 2416.8Z" fill="#71726D"/>
<path fill-rule="evenodd" clip-rule="evenodd" d="M939.572 2385.16C940.197 2383.88 940.338 2383.39 939.817 2384C939.475 2384.41 939.41 2384.79 939.572 2385.16Z" fill="#C4C4C4"/>
<path d="M902.729 2220.98C882.78 2234.23 842.04 2261.94 838.668 2266.71C838.294 2267.24 837.768 2267.97 837.118 2268.87C830.439 2278.16 810.703 2305.63 809.166 2317.4L813.381 2324.36L821.81 2355.17C824.058 2350.2 829.565 2340.26 833.611 2340.26C838.668 2340.26 849.626 2354.18 849.626 2359.15C849.626 2363.13 852.998 2377.37 854.683 2384L879.128 2359.15C886.995 2364.78 902.729 2376.84 902.729 2380.03C902.729 2383.21 908.348 2395.93 911.158 2401.89L933.074 2359.15C944.875 2360.81 968.645 2365.71 969.319 2372.07C969.993 2378.44 980.277 2386.65 985.334 2389.97L996.292 2364.12L1008.94 2340.26C1014.56 2348.22 1026.64 2364.12 1030.01 2364.12C1033.38 2364.12 1041.53 2374.72 1045.18 2380.03L1060.35 2332.31L1083.95 2340.26L1101.66 2359.15L1098.28 2313.43L1129.47 2332.31L1141.27 2302.49V2279.63C1148.02 2285.59 1161.5 2298.52 1161.5 2302.49C1161.5 2306.47 1154.2 2298.85 1150.54 2294.54L1144.64 2324.36L1136.21 2340.26L1115.14 2332.31V2359.15C1115.14 2363.13 1103.9 2369.42 1098.28 2372.07L1064.57 2346.23C1065.97 2352.19 1067.94 2365.71 1064.57 2372.07C1061.2 2378.44 1050.24 2389.3 1045.18 2393.94L1008.94 2372.07V2384L996.292 2407.86L959.204 2389.97C952.582 2389.39 940.691 2387.7 939.572 2385.16C936.965 2390.53 925.935 2409.82 919.587 2420.78L901.044 2416.8L884.185 2380.03L870.699 2401.89L845.412 2393.94L838.668 2359.15L813.381 2384L809.166 2359.15L805.749 2332.31C802.636 2343.51 798.248 2356.77 795.68 2364.12L809.166 2384C802.423 2395.93 790.285 2419.99 795.68 2420.78C802.423 2421.77 827.71 2429.73 854.683 2440.66C864.037 2444.45 866.092 2447.77 867.774 2450.48C870.943 2455.58 872.785 2458.55 919.587 2458.55H1034.22H1064.57C1086.48 2458.55 1160.66 2419.79 1171.62 2401.89C1176.35 2394.17 1176.99 2382.92 1176.2 2372.07L1171.62 2380.03L1158.13 2365.12L1136.21 2407.86L1105.87 2380.03L1075.53 2427.74L1040.97 2412.83L1030.01 2440.66L1003.88 2451.6L985.334 2416.8L954.99 2435.69V2420.78L978.591 2412.83L996.292 2420.78H1020.74L1030.01 2407.86L1051.08 2401.89L1064.57 2412.83L1083.95 2389.97L1105.87 2372.07L1136.21 2384L1150.54 2346.23L1176.2 2372.07C1175.87 2367.61 1175.3 2363.21 1174.67 2359.15C1174.1 2355.49 1173.49 2352.11 1172.96 2349.21C1172.2 2345.04 1171.62 2341.86 1171.62 2340.26C1171.62 2333.31 1167.4 2300.5 1161.5 2288.57C1159.19 2283.91 1158.95 2281.98 1158.75 2280.41C1158.44 2277.97 1158.24 2276.39 1150.54 2266.71C1146.09 2261.11 1147.49 2257.24 1148.67 2253.96C1150.85 2247.93 1152.29 2243.92 1115.14 2234.9C1057.82 2217.4 1037.31 2189.83 1034.22 2178.24C1032.54 2172.27 1027.48 2158.36 1020.74 2150.41C1017.94 2147.11 1015.99 2144.37 1014.34 2142.06C1011.01 2137.39 1008.95 2134.51 1003.88 2132.51H950.775C953.584 2129.86 956.001 2126.15 943.189 2132.51C936.285 2135.94 930.948 2139.74 926.435 2142.95C920.477 2147.19 915.954 2150.41 911.158 2150.41C904.415 2150.41 902.729 2168.96 902.729 2178.24C886.563 2197.04 888.837 2206.1 902.729 2220.98Z" fill="#383A35"/>
<path d="M831.082 2589.77C833.78 2588.18 842.883 2575.19 847.097 2568.89C850.75 2569.22 858.224 2570.88 858.898 2574.85C859.572 2578.83 867.608 2597.72 871.542 2606.66L896.829 2589.77C902.167 2592.08 913.519 2598.71 916.216 2606.66C919.588 2616.6 928.859 2637.48 932.231 2631.51C934.928 2626.74 947.404 2607 953.304 2597.72C961.171 2600.04 977.748 2606.27 981.12 2612.63C985.334 2620.58 998.821 2606.66 1002.19 2606.66C1004.89 2606.66 1015.68 2592.08 1020.74 2584.8L1049.4 2612.63L1079.74 2579.82C1086.48 2588.77 1100.81 2606.66 1104.18 2606.66C1107.56 2606.66 1118.51 2585.46 1123.57 2574.85C1126.38 2572.87 1133.18 2568.89 1137.9 2568.89C1142.62 2568.89 1156.16 2582.81 1162.35 2589.77C1165.72 2578.17 1172.63 2553.98 1173.3 2550C1174.15 2545.03 1174.15 2518.2 1182.57 2528.14C1189.32 2536.09 1196.62 2550 1199.43 2555.97V2508.26L1221.35 2516.21L1206.18 2528.14V2563.92C1206.18 2567.9 1194.38 2560.28 1188.48 2555.97L1182.57 2589.77C1170.49 2595.07 1145.49 2604.08 1142.12 2597.72C1138.74 2591.36 1128.35 2601.03 1123.57 2606.66L1099.13 2631.51L1087.33 2597.72L1069.63 2612.63L1049.4 2624.56L1020.74 2612.63L998.821 2626.54H971.848C966.453 2626.54 961.733 2617.27 960.047 2612.63L943.189 2643.44C932.231 2647.42 910.147 2654.18 909.473 2649.41C908.798 2644.64 904.696 2622.9 902.729 2612.63C900.201 2608.65 894.132 2601.89 890.086 2606.66C886.04 2611.44 880.533 2617.27 878.285 2619.59L851.312 2597.72L847.097 2584.8L838.668 2597.72L831.082 2589.77Z" fill="#797979"/>
<path d="M826.025 2615.61C827.373 2618.79 846.255 2648.08 855.527 2662.33L867.327 2626.54C873.789 2639.8 887.388 2667.3 890.086 2671.28C892.783 2675.25 917.621 2664.98 929.702 2659.35C933.636 2662 942.346 2668.09 945.718 2671.28C949.932 2675.25 963.419 2681.22 965.947 2681.22C968.476 2681.22 981.963 2649.41 984.491 2649.41C987.02 2649.41 1005.56 2671.28 1008.94 2671.28C1012.31 2671.28 1024.11 2681.22 1029.17 2674.26C1034.22 2667.3 1042.65 2652.39 1046.02 2652.39C1049.4 2652.39 1055.3 2674.26 1064.57 2674.26C1073.84 2674.26 1079.74 2683.2 1087.33 2671.28C1094.91 2659.35 1107.56 2643.44 1109.24 2643.44H1123.57C1128.63 2643.44 1138.74 2652.39 1142.12 2652.39C1145.49 2652.39 1155.6 2633.5 1157.29 2626.54C1158.64 2620.98 1163.47 2616.94 1165.72 2615.61L1155.6 2608.65L1142.12 2631.51C1135.65 2628.2 1122.05 2622.57 1119.36 2626.54C1115.99 2631.51 1093.23 2637.48 1091.54 2643.44C1089.85 2649.41 1091.54 2657.36 1083.95 2662.33C1076.37 2667.3 1064.57 2668.29 1064.57 2665.31C1064.57 2662.33 1052.77 2640.46 1049.4 2639.47C1046.02 2638.47 1031.69 2652.39 1029.17 2652.39C1026.64 2652.39 1023.27 2659.35 1020.74 2659.35C1018.21 2659.35 994.606 2634.5 987.863 2635.49C981.12 2636.48 977.748 2637.48 971.848 2643.44C965.948 2649.41 964.262 2656.36 960.047 2659.35C956.675 2661.73 935.603 2658.35 925.488 2656.37L906.101 2659.35C903.853 2660.67 898.852 2661.93 896.829 2656.37C894.806 2650.8 883.623 2640.13 878.285 2635.49L867.327 2624.56C864.221 2626.21 858.186 2631.51 858.898 2639.47C859.788 2649.41 855.527 2663.32 851.312 2649.41C847.94 2638.27 841.478 2629.53 838.668 2626.54L826.025 2615.61Z" fill="#737471"/>
<path fill-rule="evenodd" clip-rule="evenodd" d="M2707.12 1816.19C2760.86 1808.53 2867.47 1778.44 2914.05 1764.36C2963.65 1744.19 3068.05 1696.25 3088.82 1665.77C3093.76 1661.51 3105.66 1645.36 3113.73 1614.89C3121.79 1584.42 3052.46 1571.97 3016.79 1569.55C2977.03 1575.56 2896.15 1590.63 2890.74 1602.82C2863.07 1614.37 2800.5 1637.43 2772.68 1647.51C2733.86 1661.87 2651.51 1695.8 2632.65 1716.7C2604.33 1727.38 2590.98 1761.61 2587.85 1777.38C2591.37 1784.51 2600.2 1799.69 2607.38 1803.48C2610.68 1805.74 2616.24 1808.51 2623.89 1811.06C2641.36 1816.87 2669.74 1821.51 2707.12 1816.19ZM2726.49 1742.74C2664.87 1761.72 2649.65 1748.51 2649.74 1739.53C2637.37 1723.01 2732.01 1688.7 2780.87 1673.62L2948.9 1608.49C2978.79 1605.2 3038.06 1603.42 3036.05 1622.57C3034.04 1641.71 2991.81 1663.03 2970.94 1671.3L2838.78 1717.63C2827.02 1718.1 2788.1 1723.76 2726.49 1742.74Z" fill="#2B2924"/>
<path d="M2649.74 1739.53C2649.65 1748.51 2664.87 1761.72 2726.49 1742.74C2788.1 1723.76 2827.02 1718.1 2838.78 1717.63L2970.94 1671.3C2991.81 1663.03 3034.04 1641.71 3036.05 1622.57C3038.06 1603.42 2978.79 1605.2 2948.9 1608.49L2780.87 1673.62C2732.01 1688.7 2637.37 1723.01 2649.74 1739.53Z" fill="#35343A"/>
<path fill-rule="evenodd" clip-rule="evenodd" d="M1599.26 2641.65C1561.04 2582.71 1614.4 2561.04 1645.85 2557.57C1693.33 2556.81 1799.24 2550.06 1843.05 2529.14C1886.87 2508.22 1971.36 2468.3 2008.12 2450.96L2054.31 2416.38C2082.36 2453.35 2141.78 2532.01 2155.03 2550.93C2187.33 2546.77 2229.35 2503.64 2246.32 2482.6L2173.28 2385.01L2203.87 2327.33L2286.07 2265.8L2392.15 2173.25L2416.62 2149.85L2433.71 2172.68C2438.81 2177.21 2451.66 2186.64 2462.33 2188.16C2473 2189.67 2480.34 2192.77 2482.68 2194.13L2506.08 2225.39C2531.46 2210.77 2584.18 2175.67 2592.01 2152.16C2569.71 2130.86 2542.65 2107.96 2531.92 2099.17C2522.36 2090.2 2502.53 2073.41 2499.6 2077.98L2537.03 2017.3C2550.21 2009.13 2578.69 1987.9 2587.18 1968.31L2587.32 1968.08C2601.62 1943.45 2610.76 1927.72 2614.58 1910.9C2617.65 1897.41 2621.05 1874.82 2622.37 1865.21L2623.89 1811.06C2641.36 1816.87 2669.74 1821.51 2707.12 1816.19C2760.86 1808.53 2867.47 1778.44 2914.05 1764.36C2963.65 1744.19 3068.05 1696.25 3088.82 1665.77C3088.43 1683.45 3087.25 1733.27 3085.63 1791.15C3084.15 1843.93 3064.86 1923.35 3053.06 1971.96L3053.06 1971.96C3048.68 1989.99 3045.34 2003.77 3044.31 2010.39C3041.26 2029.98 2954.77 2186.7 2911.9 2262.61C2902.87 2276.58 2858.98 2331.57 2755.67 2439.79C2652.35 2548 2481.8 2631.92 2409.45 2660.35C2363.41 2670.35 2258.97 2696.3 2209.56 2720.06C2160.15 2743.81 2016.08 2759.28 1950.22 2764.04L1784.82 2743.22C1738.89 2733.92 1637.47 2700.58 1599.26 2641.65Z" fill="#3B3A3B"/>
<path d="M2026.03 2378.6L2054.31 2416.38C2082.36 2453.35 2141.78 2532.01 2155.03 2550.93C2187.33 2546.77 2229.35 2503.64 2246.32 2482.6L2173.28 2385.01C2156.95 2369.52 2123.05 2337.02 2118.04 2330.93C2113.03 2324.84 2115.47 2314.62 2117.32 2310.26L2141.27 2287.67L2317.31 2155.9C2324 2150.89 2335.97 2137.12 2341.13 2130.86C2347.4 2124.33 2360.59 2110.61 2363.17 2108C2365.75 2105.39 2377.81 2115.43 2383.51 2120.77L2416.62 2149.85L2433.71 2172.68C2438.81 2177.21 2451.66 2186.64 2462.33 2188.16C2473 2189.67 2480.34 2192.77 2482.68 2194.13L2506.08 2225.39C2531.46 2210.77 2584.18 2175.67 2592.01 2152.16C2569.71 2130.86 2542.65 2107.96 2531.92 2099.17C2522.36 2090.2 2502.53 2073.41 2499.6 2077.98C2495.04 2071.89 2480.46 2064.04 2473.73 2060.87L2460.3 2053.53L2438.32 2024.18L2447.09 2004.05C2450.72 1995.25 2458.46 1975.26 2460.37 1965.69C2486.29 1937.38 2473.35 1932.22 2476.98 1929.5C2479.89 1927.32 2477.84 1919.53 2476.45 1915.9C2473.9 1913 2467.45 1905.09 2462.01 1896.6C2456.56 1888.12 2443.33 1897.43 2437.4 1903.15C2430.37 1914.49 2415.23 1940.86 2410.87 1955.66C2398.04 1956.11 2371.33 1971.83 2359.58 1979.63L2241.8 2072.47L2067.58 2202.87C2037.66 2228.1 1972.95 2278.88 1953.51 2280.2C1934.07 2281.52 1857.55 2294.78 1821.71 2301.24C1819.3 2302.06 1812.43 2305.82 1804.26 2314.31C1796.08 2322.8 1788.62 2358.11 1785.9 2374.7C1783.99 2381.5 1779.16 2399.51 1775.1 2417.14C1766.22 2434.98 1770.1 2454.67 1773.15 2462.28C1777.99 2465.73 1792.06 2469.51 1809.55 2457.09C1827.04 2444.67 1854.41 2411.64 1865.91 2396.67C1870.63 2391.86 1883.88 2381.26 1899.1 2377.33C1909.58 2369.49 1988.09 2374.91 2026.03 2378.6Z" fill="#554E4B"/>
<path d="M2167.87 2329.26C2161.31 2325.35 2147.4 2299.91 2141.27 2287.67L2117.32 2310.26C2115.47 2314.62 2113.03 2324.84 2118.04 2330.93C2123.05 2337.02 2156.95 2369.52 2173.28 2385.01L2203.87 2327.33C2194.6 2329.61 2174.43 2333.18 2167.87 2329.26Z" fill="#554E4B"/>
<path d="M2505.54 2026.03C2488.76 2029.09 2459.58 2012.65 2447.09 2004.05L2438.32 2024.18L2460.3 2053.53L2473.73 2060.87C2480.46 2064.04 2495.04 2071.89 2499.6 2077.98L2537.03 2017.3C2533.53 2018.94 2522.32 2022.97 2505.54 2026.03Z" fill="#554E4B"/>
<path fill-rule="evenodd" clip-rule="evenodd" d="M230.104 2081.37C297.043 2252.94 820.005 2215.28 840.924 2349.19L786.536 2537.49C1338.31 2699.37 1658.95 2691.08 2246.65 2537.49L2179.71 2353.37C2284.3 2190.17 2673.39 2269.68 2803.08 2073C2886.75 2160.88 2807.26 2324.08 2824 2424.51L3029 2587.71C2930.55 2675.09 2868.26 2712.88 2744.51 2763.46L2769.61 2889C2334.49 3172.94 2063.3 3229.79 1552.15 3227.96C911.452 3215.87 616.891 3153.32 263.573 2893.19C262.965 2841.05 263.59 2811.8 292.859 2759.28C160.784 2706.67 88.0359 2676.14 0 2587.71C89.6192 2535.83 143.855 2513.73 205.001 2411.95C188.144 2225.84 176.414 2116.6 230.104 2081.37ZM263.573 2399.4C244.645 2309.25 241.876 2263.09 246.838 2185.98C376.533 2290.6 598.269 2273.86 757.25 2336.63C804.105 2384 797.277 2396.69 736.331 2399.4C630.171 2362.24 574.406 2357.08 476.942 2357.55C452.083 2348.99 332.719 2586.64 309.594 2709.06C212.081 2666.1 165.058 2639.32 92.0414 2587.71C191.779 2538.86 225.428 2494.61 263.573 2399.4ZM727.964 2529.12L757.25 2453.8C652.608 2427.25 599.727 2421.31 506.228 2411.95C571.764 2474.06 618.711 2499.65 727.964 2529.12ZM322.145 2859.71C365.957 2683.34 401.924 2599.06 476.942 2462.17C853.708 2665.86 1102.68 2686.08 1552.15 2709.06C1960.92 2662.12 2200.51 2667.78 2560.43 2470.54C2642.54 2619.59 2664.15 2710.36 2702.67 2872.26C2295.41 3116.69 2038.81 3168.33 1552.15 3173.56C929.372 3198.51 581.535 3039.65 322.145 2859.71ZM2275.93 2453.8C2280.31 2486.4 2286.16 2501.81 2301.04 2524.94C2422.65 2491.05 2454.95 2459.88 2522.77 2407.77C2425.08 2418.28 2370.45 2425.71 2275.93 2453.8ZM2782.16 2181.8C2639.92 2282.23 2313.59 2264.8 2246.65 2370.11C2227.92 2411.01 2397.26 2361.74 2543.69 2361.74C2604.49 2395.98 2644.24 2504.1 2715.22 2700.69C2777.54 2695.92 2833.64 2661.19 2941.14 2587.71C2870.93 2553.01 2831.91 2530.48 2769.61 2424.51C2744.51 2332.45 2789.47 2272.18 2782.16 2181.8Z" fill="black"/>
<path d="M476.942 2462.17C401.924 2599.06 365.957 2683.34 322.145 2859.71C581.535 3039.65 929.372 3198.51 1552.15 3173.56C2038.81 3168.33 2295.41 3116.69 2702.67 2872.26C2664.15 2710.36 2642.54 2619.59 2560.43 2470.54C2200.51 2667.78 1960.92 2662.12 1552.15 2709.06C1102.68 2686.08 853.708 2665.86 476.942 2462.17Z" fill="#D6898B"/>
<path d="M757.25 2453.8L727.964 2529.12C618.711 2499.65 571.764 2474.06 506.228 2411.95C599.727 2421.31 652.608 2427.25 757.25 2453.8Z" fill="#D6898B"/>
<path d="M246.838 2185.98C241.876 2263.09 244.645 2309.25 263.573 2399.4C225.428 2494.61 191.779 2538.86 92.0414 2587.71C165.058 2639.32 212.081 2666.1 309.594 2709.06C332.719 2586.64 452.083 2348.99 476.942 2357.55C574.406 2357.08 630.171 2362.24 736.331 2399.4C797.277 2396.69 804.105 2384 757.25 2336.63C598.269 2273.86 376.533 2290.6 246.838 2185.98Z" fill="#D6898B"/>
<path d="M2246.65 2370.11C2313.59 2264.8 2639.92 2282.23 2782.16 2181.8C2789.47 2272.18 2744.51 2332.45 2769.61 2424.51C2831.91 2530.48 2870.93 2553.01 2941.14 2587.71C2833.64 2661.19 2777.54 2695.92 2715.22 2700.69C2644.24 2504.1 2604.49 2395.98 2543.69 2361.74C2397.26 2361.74 2227.92 2411.01 2246.65 2370.11Z" fill="#D6898B"/>
<path d="M2301.04 2524.94C2286.16 2501.81 2280.31 2486.4 2275.93 2453.8C2370.45 2425.71 2425.08 2418.28 2522.77 2407.77C2454.95 2459.88 2422.65 2491.05 2301.04 2524.94Z" fill="#D6898B"/>
<path d="M800.6 3010.6C801.133 3005 801.533 2996.47 801.8 2985C802.333 2977.27 803.267 2971.27 804.6 2967C805.933 2962.47 806.6 2959.4 806.6 2957.8C806.6 2956.73 806.733 2955.4 807 2953.8C807.267 2952.2 807.4 2950.6 807.4 2949C807.4 2947.4 807 2946.07 806.2 2945C805.667 2943.93 804.6 2943.4 803 2943.4L805.4 2918.6C808.333 2910.87 809.933 2900.6 810.2 2887.8C810.467 2881.67 810.467 2875.93 810.2 2870.6C809.933 2865.27 810.467 2860.47 811.8 2856.2L813 2838.6C818.067 2839.4 819.4 2837.13 817 2831.8C816.2 2828.87 815.533 2826.73 815 2825.4C814.733 2824.07 815 2823.4 815.8 2823.4C816.333 2820.47 816.6 2816.87 816.6 2812.6C816.867 2808.07 817.267 2801.13 817.8 2791.8L825.8 2787.4C829.533 2789 834.733 2790.47 841.4 2791.8C848.333 2792.87 854.067 2793.67 858.6 2794.2C863.933 2795 868.2 2795.67 871.4 2796.2C874.6 2796.47 876.733 2796.73 877.8 2797L881 2804.2C879.933 2809.8 879 2815.67 878.2 2821.8C877.667 2827.67 877.133 2833.53 876.6 2839.4C876.333 2845 875.933 2850.47 875.4 2855.8C874.867 2860.87 874.2 2865.27 873.4 2869C872.333 2871.67 872.067 2878.73 872.6 2890.2C872.867 2891.53 873 2892.87 873 2894.2C873 2895.53 873 2896.73 873 2897.8V2902.6C873 2904.47 872.867 2905.8 872.6 2906.6C868.867 2908.73 866.333 2912.33 865 2917.4C863.933 2922.2 863.8 2927.67 864.6 2933.8C865.133 2936.2 865.933 2938.2 867 2939.8C868.067 2941.13 869.133 2944.6 870.2 2950.2C871 2953.13 871.4 2956.47 871.4 2960.2C871.667 2963.93 871.667 2967.67 871.4 2971.4C871.4 2975.13 871.267 2978.87 871 2982.6C870.733 2986.07 870.6 2989.13 870.6 2991.8C867.133 2994.47 865.533 2997.53 865.8 3001C866.067 3004.2 866.467 3007.13 867 3009.8C865.667 3010.6 864.333 3011.27 863 3011.8C862.467 3012.07 862.067 3012.2 861.8 3012.2C861.533 3012.2 861.267 3012.33 861 3012.6C859.933 3013.13 859 3013.53 858.2 3013.8C857.667 3014.07 857.133 3014.33 856.6 3014.6H856.2L856.6 3014.2C857.133 3013.67 857.4 3013.27 857.4 3013C856.6 3013.27 853.4 3013.4 847.8 3013.4H823.4C820.733 3013.67 817.8 3013.93 814.6 3014.2C811.4 3014.47 808.6 3014.87 806.2 3015.4L800.6 3010.6ZM1035.4 3027.4H987.8L967.4 3022.2L969 3003L954.2 2981.8L933.8 2954.6L908.2 2934.6L895.4 2932.2C893.533 2926.6 891.267 2921.8 888.6 2917.8C888.067 2916.73 887.533 2915.8 887 2915C886.467 2914.2 885.933 2913.53 885.4 2913C884.6 2911.4 883.667 2910.2 882.6 2909.4L880.6 2907C882.467 2904.6 884.067 2903.13 885.4 2902.6C886.733 2902.07 888.2 2901.53 889.8 2901C891.4 2900.47 893.267 2899.27 895.4 2897.4C897.8 2895.27 901.133 2891.4 905.4 2885.8C907.8 2882.33 909.933 2879.4 911.8 2877C913.933 2874.33 915.667 2872.07 917 2870.2C917.8 2869.13 918.6 2868.2 919.4 2867.4C920.2 2866.33 920.867 2865.53 921.4 2865C924.067 2862.87 929 2858.2 936.2 2851C943.667 2843.8 953.133 2833.8 964.6 2821C972.333 2812.47 978.867 2805.4 984.2 2799.8C989.8 2793.93 994.2 2789.4 997.4 2786.2L1006.6 2784.2C1008.47 2786.33 1010.07 2788.2 1011.4 2789.8C1013 2791.13 1014.33 2792.6 1015.4 2794.2C1017.53 2793.13 1019.4 2793.53 1021 2795.4C1022.6 2797 1023.8 2798.73 1024.6 2800.6C1024.6 2801.13 1025.13 2801.8 1026.2 2802.6C1027.53 2803.4 1028.73 2804.33 1029.8 2805.4C1030.87 2806.2 1031.67 2807.27 1032.2 2808.6C1032.73 2809.67 1032.2 2810.87 1030.6 2812.2L1023.4 2819.4C1022.33 2820.47 1021.27 2821.53 1020.2 2822.6C1019.4 2823.4 1018.73 2824.33 1018.2 2825.4C1015.8 2827.27 1009.8 2830.33 1000.2 2834.6C990.067 2839.13 983.667 2842.87 981 2845.8C979.667 2847.67 978.2 2849.93 976.6 2852.6C975.267 2855.27 973.667 2858.07 971.8 2861C970.2 2863.67 968.333 2866.2 966.2 2868.6C964.333 2871 962.333 2872.73 960.2 2873.8C959.933 2874.07 959.533 2874.33 959 2874.6C958.733 2874.87 957.8 2875.8 956.2 2877.4C955.933 2877.13 955.533 2876.87 955 2876.6C954.733 2876.33 954.333 2875.93 953.8 2875.4C953.533 2875.13 953.267 2875 953 2875C952.733 2874.73 952.467 2874.47 952.2 2874.2C951.667 2875.53 950.733 2876.33 949.4 2876.6C948.867 2876.87 947.933 2877 946.6 2877C943.4 2879.4 941.667 2882.2 941.4 2885.4C941.4 2888.33 942.067 2890.87 943.4 2893C943.667 2893.27 942.467 2894.73 939.8 2897.4C937.4 2900.07 935.267 2902.73 933.4 2905.4L945 2911.4L964.6 2936.2L1005.4 2976.2L1035.4 3006.2L1045.4 3011.8L1045 3019L1035.4 3027.4Z" fill="black"/>
<path d="M1277.01 3016.2L1221.01 3023L1209.41 3004.2C1209.41 3000.73 1206.75 3000.87 1201.41 3004.6C1200.08 3005.4 1198.75 3006.73 1197.41 3008.6C1196.08 3010.47 1194.75 3012.33 1193.41 3014.2C1192.61 3015.27 1191.81 3016.33 1191.01 3017.4C1190.21 3018.47 1189.41 3019.67 1188.61 3021C1180.35 3027.13 1171.81 3031.13 1163.01 3033C1154.48 3034.87 1147.15 3033.67 1141.01 3029.4C1136.48 3028.87 1133.41 3027.8 1131.81 3026.2C1131.01 3025.67 1129.95 3024.73 1128.61 3023.4L1103.01 3021.8L1092.21 3016.6L1082.21 2991.4L1084.21 2983L1075.41 2947.8L1092.21 2919.8L1105.81 2907.4C1110.88 2904.73 1116.75 2902.6 1123.41 2901C1130.08 2899.4 1136.75 2898.33 1143.41 2897.8C1150.08 2897 1156.48 2896.87 1162.61 2897.4C1168.75 2897.67 1173.81 2898.47 1177.81 2899.8C1177.81 2904.07 1179.15 2906.87 1181.81 2908.2C1184.48 2909.53 1189.68 2911 1197.41 2912.6C1200.08 2908.07 1201.41 2902.6 1201.41 2896.2C1201.41 2889.53 1200.21 2882.6 1197.81 2875.4L1191.41 2855C1189.28 2854.2 1185.95 2852.87 1181.41 2851C1177.15 2848.87 1173.55 2847.13 1170.61 2845.8L1153.41 2848.6L1135.81 2852.2L1131.81 2845.8L1136.21 2835.4L1139.01 2829L1144.61 2827.8L1163.01 2824.6L1179.41 2830.2L1197.41 2827.4L1232.21 2837.8L1247.01 2860.2L1252.21 2923.8L1251.01 2943.8L1259.81 2990.6L1265.01 2993H1277.41L1282.61 3007L1277.01 3016.2ZM1130.21 2951C1128.88 2957.93 1128.88 2963.8 1130.21 2968.6C1131.81 2973.4 1134.35 2977.4 1137.81 2980.6L1143.81 2993C1148.61 2994.6 1153.15 2995.8 1157.41 2996.6C1161.68 2997.4 1166.08 2997.53 1170.61 2997C1175.41 2996.2 1180.35 2994.73 1185.41 2992.6C1190.75 2990.2 1196.88 2986.73 1203.81 2982.2L1204.61 2961.8L1197.41 2926.2C1193.68 2924.87 1190.35 2924.2 1187.41 2924.2C1184.75 2924.2 1182.08 2924.47 1179.41 2925C1176.21 2925.8 1172.48 2926.47 1168.21 2927C1163.95 2927.53 1159.55 2928.2 1155.01 2929C1150.75 2929.53 1146.75 2930.33 1143.01 2931.4C1139.55 2932.2 1137.01 2933.4 1135.41 2935L1130.21 2951Z" fill="black"/>
<path d="M1378.84 2976.2L1380.44 3004.6L1378.84 3019.4V3027L1371.24 3037.8L1358.04 3041L1323.64 3047.4C1320.71 3047.93 1318.31 3047.53 1316.44 3046.2C1314.84 3044.6 1314.04 3040.73 1314.04 3034.6V3033.8L1320.44 3003.4L1321.64 2976.2V2961L1326.44 2926.6C1326.17 2925.27 1325.91 2922.73 1325.64 2919C1325.37 2915.27 1324.97 2910.6 1324.44 2905C1324.17 2902.07 1324.04 2899.4 1324.04 2897C1324.04 2894.6 1323.91 2892.47 1323.64 2890.6V2882.2C1323.64 2882.47 1324.57 2881.67 1326.44 2879.8C1328.31 2877.67 1329.91 2875.13 1331.24 2872.2C1332.57 2869 1333.11 2865.53 1332.84 2861.8C1332.57 2858.07 1330.31 2854.6 1326.04 2851.4L1332.84 2782.2C1334.71 2781.13 1334.84 2777.93 1333.24 2772.6L1341.24 2764.6L1346.44 2763.8C1347.51 2764.07 1349.24 2764.33 1351.64 2764.6C1354.04 2764.6 1356.57 2764.73 1359.24 2765C1361.91 2765 1364.44 2765.13 1366.84 2765.4C1369.51 2765.4 1371.51 2765.53 1372.84 2765.8C1375.24 2766.33 1378.31 2766.73 1382.04 2767C1385.77 2767 1388.44 2767.4 1390.04 2768.2L1398.04 2772.6V2780.2C1398.84 2781.8 1398.71 2784.07 1397.64 2787C1396.84 2789.67 1396.57 2792.87 1396.84 2796.6C1396.84 2798.47 1396.71 2800.6 1396.44 2803C1396.17 2805.4 1395.91 2807.67 1395.64 2809.8C1395.64 2811.93 1395.51 2813.8 1395.24 2815.4C1394.97 2817 1394.84 2817.93 1394.84 2818.2C1394.84 2818.73 1394.71 2819.4 1394.44 2820.2L1394.04 2823.4C1394.04 2824.47 1393.77 2825.4 1393.24 2826.2C1392.97 2827 1392.71 2827.27 1392.44 2827C1392.17 2827 1391.51 2827.8 1390.44 2829.4C1389.64 2831 1388.71 2833 1387.64 2835.4C1386.84 2837.53 1386.17 2839.8 1385.64 2842.2C1385.11 2844.6 1384.97 2846.47 1385.24 2847.8C1385.51 2849.13 1385.77 2851.27 1386.04 2854.2C1386.31 2856.87 1386.57 2860.6 1386.84 2865.4C1386.84 2867.8 1386.84 2869.93 1386.84 2871.8C1387.11 2873.67 1387.24 2875.27 1387.24 2876.6C1387.24 2878.2 1387.37 2879.4 1387.64 2880.2L1384.84 2903.8L1385.64 2915.4C1381.91 2922.87 1380.17 2928.07 1380.44 2931C1380.97 2933.93 1382.57 2936.33 1385.24 2938.2L1378.84 2976.2Z" fill="black"/>
<path d="M1480.61 2788.6C1481.14 2786.47 1481.41 2784.47 1481.41 2782.6C1481.68 2780.47 1481.94 2778.33 1482.21 2776.2C1482.21 2774.33 1482.21 2772.73 1482.21 2771.4C1482.48 2770.07 1482.61 2768.87 1482.61 2767.8L1484.61 2763.4C1485.41 2763.13 1486.48 2763 1487.81 2763C1489.14 2763 1490.74 2762.87 1492.61 2762.6C1498.21 2762.33 1501.81 2761.67 1503.41 2760.6C1503.41 2760.33 1504.08 2759.8 1505.41 2759C1506.21 2758.2 1506.88 2757.67 1507.41 2757.4C1507.68 2757.4 1508.61 2757.53 1510.21 2757.8C1511.81 2758.07 1513.94 2758.6 1516.61 2759.4C1521.14 2760.47 1524.34 2761 1526.21 2761C1528.61 2761 1529.94 2760.87 1530.21 2760.6C1530.48 2760.33 1531.28 2760.33 1532.61 2760.6L1536.21 2767.4L1539.81 2787.8L1531.41 2801.8C1531.14 2802.07 1530.88 2802.33 1530.61 2802.6C1530.61 2802.87 1530.34 2803.13 1529.81 2803.4C1528.48 2804.2 1526.88 2805.4 1525.01 2807L1523.81 2808.2L1511.81 2809.4C1510.21 2808.87 1508.34 2808.33 1506.21 2807.8C1504.08 2807 1501.54 2806.07 1498.61 2805C1495.68 2803.93 1493.14 2803 1491.01 2802.2C1488.88 2801.13 1487.01 2800.33 1485.41 2799.8L1483.41 2797.8L1480.61 2788.6ZM1530.21 2857.4L1528.61 2871.8L1530.21 2877.8L1527.81 2884.2L1529.01 2893.4L1527.01 2901L1528.21 2903.4L1526.61 2921.4L1525.01 2959.4C1525.01 2961.27 1524.74 2963.67 1524.21 2966.6C1523.68 2969.27 1523.28 2972.2 1523.01 2975.4C1522.74 2978.33 1522.74 2981.4 1523.01 2984.6C1523.28 2987.53 1524.08 2990.07 1525.41 2992.2C1525.14 2996.2 1524.74 3000.87 1524.21 3006.2C1523.68 3011.53 1522.74 3017.67 1521.41 3024.6C1519.28 3027.53 1517.01 3030.2 1514.61 3032.6C1512.48 3034.73 1508.34 3035.93 1502.21 3036.2C1498.74 3036.47 1495.28 3036.73 1491.81 3037C1488.61 3037.27 1485.54 3037.67 1482.61 3038.2C1481.01 3038.47 1479.41 3038.73 1477.81 3039C1476.21 3039.27 1474.48 3039.67 1472.61 3040.2L1462.61 3027.4C1462.88 3026.07 1463.28 3022.47 1463.81 3016.6C1464.61 3010.47 1465.28 3003.27 1465.81 2995C1466.34 2986.73 1466.61 2977.93 1466.61 2968.6C1466.88 2959.27 1466.61 2950.6 1465.81 2942.6L1468.21 2935L1471.81 2917.4L1473.01 2903.4L1475.41 2898.6L1475.81 2895L1478.21 2884.2L1480.21 2862.2L1516.21 2848.2L1530.21 2857.4Z" fill="black"/>
<path d="M1642.43 3038.6C1641.63 3038.6 1639.9 3038.73 1637.23 3039C1634.83 3039 1632.17 3039.13 1629.23 3039.4C1626.3 3039.4 1623.5 3039.53 1620.83 3039.8C1618.17 3039.8 1616.3 3039.8 1615.23 3039.8L1606.43 3040.6L1599.63 3035.8C1599.37 3031.8 1599.63 3027.13 1600.43 3021.8C1601.5 3016.47 1602.03 3012.33 1602.03 3009.4C1605.23 3009.4 1605.9 3006.2 1604.03 2999.8C1601.9 2993.4 1601.1 2988.33 1601.63 2984.6C1601.9 2980.33 1602.57 2976.07 1603.63 2971.8C1604.7 2967.27 1604.83 2964.33 1604.03 2963C1603.5 2961.4 1602.83 2959.67 1602.03 2957.8C1601.23 2955.67 1600.57 2953.27 1600.03 2950.6L1604.83 2924.6C1604.83 2910.2 1604.97 2899.13 1605.23 2891.4C1605.77 2883.67 1606.17 2877.93 1606.43 2874.2C1606.97 2870.47 1607.5 2868.2 1608.03 2867.4C1608.83 2866.33 1609.37 2865.4 1609.63 2864.6C1610.17 2863.8 1610.43 2862.47 1610.43 2860.6C1610.7 2858.73 1610.7 2855 1610.43 2849.4L1618.83 2845C1623.37 2845.27 1628.83 2846.07 1635.23 2847.4C1641.9 2848.47 1648.3 2849.67 1654.43 2851C1657.63 2851.53 1660.43 2852.07 1662.83 2852.6C1665.23 2852.87 1667.37 2853.27 1669.23 2853.8L1674.83 2861.4C1669.77 2864.87 1666.43 2867.13 1664.83 2868.2C1663.23 2869.27 1663.1 2871.53 1664.43 2875C1669.23 2879.27 1673.37 2880.6 1676.83 2879C1680.57 2877.4 1683.1 2874.87 1684.43 2871.4L1710.43 2865H1725.63L1732.43 2867.4C1738.83 2869.53 1745.23 2871.8 1751.63 2874.2C1758.3 2876.6 1763.77 2878.47 1768.03 2879.8L1775.23 2897.4L1774.83 2902.2C1775.37 2909.93 1775.77 2917.4 1776.03 2924.6C1776.57 2931.53 1776.57 2940.07 1776.03 2950.2C1775.77 2956.6 1775.5 2963.13 1775.23 2969.8C1774.97 2976.2 1774.7 2982.33 1774.43 2988.2C1774.43 2994.07 1774.43 2999.27 1774.43 3003.8C1774.43 3008.07 1774.43 3011.27 1774.43 3013.4C1774.43 3013.67 1774.7 3014.73 1775.23 3016.6C1776.03 3018.47 1777.1 3020.47 1778.43 3022.6L1775.63 3027L1768.03 3030.6C1764.3 3030.87 1759.5 3031.53 1753.63 3032.6C1748.03 3033.67 1743.37 3034.2 1739.63 3034.2C1738.03 3034.2 1736.7 3033.67 1735.63 3032.6C1734.57 3031.27 1732.17 3030.73 1728.43 3031L1722.83 3026.2C1723.37 3022.73 1723.5 3019.93 1723.23 3017.8C1722.97 3015.4 1722.57 3013.4 1722.03 3011.8C1721.5 3009.93 1720.97 3008.33 1720.43 3007C1719.9 3005.67 1719.63 3004.33 1719.63 3003C1719.9 2999 1720.3 2994.6 1720.83 2989.8C1721.37 2986.07 1721.9 2981.8 1722.43 2977C1723.23 2971.93 1724.17 2967 1725.23 2962.2C1725.77 2959.27 1726.03 2955.53 1726.03 2951C1726.03 2946.2 1726.03 2941.53 1726.03 2937C1726.03 2932.2 1726.03 2927.67 1726.03 2923.4C1726.03 2919.13 1726.17 2915.93 1726.43 2913.8L1714.83 2893.4C1713.77 2893.13 1712.7 2892.87 1711.63 2892.6C1710.57 2892.33 1709.37 2891.93 1708.03 2891.4C1705.9 2890.87 1703.77 2891 1701.63 2891.8C1699.77 2892.6 1697.9 2893.53 1696.03 2894.6C1694.17 2895.67 1692.43 2896.73 1690.83 2897.8C1689.23 2898.87 1687.77 2899.4 1686.43 2899.4C1686.43 2900.2 1684.97 2899.53 1682.03 2897.4C1679.37 2895 1677.1 2892.73 1675.23 2890.6C1670.7 2886.87 1667.37 2886.2 1665.23 2888.6C1663.37 2890.73 1661.77 2893.67 1660.43 2897.4C1660.7 2900.33 1661.1 2902.33 1661.63 2903.4C1662.43 2904.47 1663.23 2905.27 1664.03 2905.8C1665.1 2906.07 1666.03 2906.07 1666.83 2905.8C1665.5 2906.87 1664.43 2908.87 1663.63 2911.8C1662.83 2914.47 1662.17 2917.53 1661.63 2921C1661.37 2924.2 1661.23 2927.67 1661.23 2931.4C1661.5 2934.87 1661.9 2938.07 1662.43 2941C1662.97 2944.2 1662.57 2949.8 1661.23 2957.8C1660.17 2965.8 1659.9 2975 1660.43 2985.4C1660.43 2989.4 1660.3 2993.67 1660.03 2998.2C1659.77 3002.47 1659.5 3006.73 1659.23 3011C1658.97 3015 1658.7 3018.73 1658.43 3022.2C1658.17 3025.4 1658.03 3027.93 1658.03 3029.8V3031C1652.97 3035.27 1647.77 3037.8 1642.43 3038.6Z" fill="black"/>
<path d="M1980.08 2956.2C1977.42 2958.07 1973.68 2959 1968.88 2959C1965.15 2959 1961.95 2959 1959.28 2959C1956.88 2959 1954.88 2958.87 1953.28 2958.6L1942.08 2965.8C1941.28 2966.07 1939.82 2966.47 1937.68 2967C1936.35 2967.53 1934.62 2968.07 1932.48 2968.6C1930.62 2969.13 1928.35 2969.93 1925.68 2971C1920.35 2972.33 1915.42 2974.07 1910.88 2976.2C1906.62 2978.33 1902.62 2980.6 1898.88 2983C1897.02 2985.13 1894.75 2986.47 1892.08 2987C1889.42 2987.27 1888.22 2987.93 1888.48 2989C1887.15 2992.73 1886.08 2996.07 1885.28 2999C1884.48 3001.93 1884.08 3005 1884.08 3008.2C1884.08 3011.93 1884.08 3015.27 1884.08 3018.2C1884.08 3021.13 1883.82 3023.4 1883.28 3025L1928.88 3007.8C1931.82 3008.33 1934.08 3008.6 1935.68 3008.6C1937.28 3008.6 1938.75 3008.6 1940.08 3008.6C1941.42 3008.87 1942.88 3008.6 1944.48 3007.8C1946.08 3006.73 1948.35 3005.53 1951.28 3004.2L1960.48 3004.6L1985.68 3012.2L1989.68 3017.8C1990.22 3020.2 1991.28 3023.67 1992.88 3028.2C1994.75 3032.47 1996.08 3036.73 1996.88 3041C1997.42 3043.13 1997.95 3045.53 1998.48 3048.2C1999.28 3051.13 2000.22 3054.47 2001.28 3058.2C2003.15 3065.67 2004.75 3069.8 2006.08 3070.6L2002.48 3081L2006.08 3091L2004.08 3098.6L1982.48 3115C1981.42 3114.73 1980.48 3114.47 1979.68 3114.2C1978.88 3113.93 1978.08 3113.67 1977.28 3113.4C1975.95 3112.87 1974.62 3112.47 1973.28 3112.2C1971.95 3111.93 1970.88 3111.8 1970.08 3111.8L1938.88 3126.2C1937.82 3125.93 1936.62 3125.67 1935.28 3125.4C1934.22 3125.4 1933.02 3125.13 1931.68 3124.6C1929.28 3124.07 1926.08 3123.4 1922.08 3122.6C1918.35 3122.07 1913.95 3121.27 1908.88 3120.2C1903.82 3119.13 1897.95 3118.07 1891.28 3117C1884.88 3115.93 1878.62 3115 1872.48 3114.2C1866.62 3113.4 1861.15 3112.87 1856.08 3112.6C1851.28 3112.33 1847.95 3112.33 1846.08 3112.6L1828.08 3109L1824.48 3105.8L1818.08 3079.8L1820.08 3071.8C1826.48 3068.6 1831.95 3064.07 1836.48 3058.2C1841.02 3052.6 1843.55 3045.53 1844.08 3037C1844.35 3032.47 1844.48 3028.73 1844.48 3025.8C1844.48 3022.87 1844.48 3020.47 1844.48 3018.6C1844.48 3016.73 1844.35 3015.27 1844.08 3014.2C1844.08 3013.13 1844.08 3011.93 1844.08 3010.6L1847.28 2992.6L1853.28 2987.4L1855.28 2967C1854.48 2965.93 1853.28 2964.33 1851.68 2962.2C1850.35 2959.8 1848.75 2957.27 1846.88 2954.6C1845.02 2951.93 1843.15 2949.4 1841.28 2947C1839.68 2944.33 1838.22 2942.07 1836.88 2940.2L1838.08 2919.4L1856.48 2881.4L1866.88 2866.2L1906.08 2848.2L1948.88 2865.4L1958.88 2860.6C1959.68 2860.6 1960.48 2860.47 1961.28 2860.2C1962.08 2859.93 1963.15 2859.8 1964.48 2859.8C1965.82 2859.53 1967.55 2859.13 1969.68 2858.6C1973.68 2858.07 1977.15 2856.6 1980.08 2854.2C1983.02 2851.8 1985.82 2848.6 1988.48 2844.6C1990.62 2847.27 1992.62 2849.67 1994.48 2851.8C1996.35 2853.93 1998.08 2855.93 1999.68 2857.8C2000.75 2858.87 2001.68 2859.93 2002.48 2861C2003.28 2861.8 2004.08 2862.6 2004.88 2863.4V2884.2L2000.88 2888.2L1972.88 2894.2L1976.48 2907L1977.68 2925.4L1984.48 2943L1980.08 2956.2ZM1886.08 2953.4L1926.08 2943.8C1927.95 2941.93 1929.28 2939.13 1930.08 2935.4C1931.15 2931.4 1929.82 2927.53 1926.08 2923.8L1915.68 2905.4L1903.68 2881.4H1889.28L1888.48 2895.8C1881.55 2894.47 1877.02 2897.67 1874.88 2905.4C1873.55 2909.4 1872.48 2912.73 1871.68 2915.4C1870.88 2917.8 1870.35 2919.93 1870.08 2921.8L1886.08 2953.4ZM1877.68 3090.2L1918.08 3095.8C1933.02 3097.13 1942.75 3097.13 1947.28 3095.8C1947.55 3094.47 1947.68 3093 1947.68 3091.4C1947.95 3090.07 1947.95 3088.73 1947.68 3087.4C1947.68 3084.73 1946.48 3081.53 1944.08 3077.8C1941.68 3074.33 1940.48 3070.87 1940.48 3067.4C1940.48 3066.07 1940.88 3065.27 1941.68 3065C1942.48 3065 1942.62 3064.33 1942.08 3063C1941.82 3061.93 1941.55 3060.07 1941.28 3057.4C1941.28 3054.73 1941.15 3051.93 1940.88 3049C1940.62 3046.07 1940.22 3043.27 1939.68 3040.6C1939.42 3037.93 1938.88 3036.2 1938.08 3035.4C1936.48 3035.93 1933.82 3036.87 1930.08 3038.2C1926.62 3039.53 1922.75 3040.87 1918.48 3042.2C1914.48 3043.53 1910.62 3044.87 1906.88 3046.2C1903.15 3047.27 1900.48 3047.93 1898.88 3048.2C1896.48 3053 1893.28 3055.93 1889.28 3057C1885.55 3058.33 1881.42 3060.07 1876.88 3062.2C1877.68 3064.33 1877.02 3066.47 1874.88 3068.6C1873.02 3069.93 1868.08 3072.33 1860.08 3075.8C1851.82 3079.53 1847.15 3083.13 1846.08 3086.6L1877.68 3090.2Z" fill="black"/>
<path d="M2249.67 3016.2L2193.67 3023L2182.07 3004.2C2182.07 3000.73 2179.4 3000.87 2174.07 3004.6C2172.74 3005.4 2171.4 3006.73 2170.07 3008.6C2168.74 3010.47 2167.4 3012.33 2166.07 3014.2C2165.27 3015.27 2164.47 3016.33 2163.67 3017.4C2162.87 3018.47 2162.07 3019.67 2161.27 3021C2153 3027.13 2144.47 3031.13 2135.67 3033C2127.14 3034.87 2119.8 3033.67 2113.67 3029.4C2109.14 3028.87 2106.07 3027.8 2104.47 3026.2C2103.67 3025.67 2102.6 3024.73 2101.27 3023.4L2075.67 3021.8L2064.87 3016.6L2054.87 2991.4L2056.87 2983L2048.07 2947.8L2064.87 2919.8L2078.47 2907.4C2083.54 2904.73 2089.4 2902.6 2096.07 2901C2102.74 2899.4 2109.4 2898.33 2116.07 2897.8C2122.74 2897 2129.14 2896.87 2135.27 2897.4C2141.4 2897.67 2146.47 2898.47 2150.47 2899.8C2150.47 2904.07 2151.8 2906.87 2154.47 2908.2C2157.14 2909.53 2162.34 2911 2170.07 2912.6C2172.74 2908.07 2174.07 2902.6 2174.07 2896.2C2174.07 2889.53 2172.87 2882.6 2170.47 2875.4L2164.07 2855C2161.94 2854.2 2158.6 2852.87 2154.07 2851C2149.8 2848.87 2146.2 2847.13 2143.27 2845.8L2126.07 2848.6L2108.47 2852.2L2104.47 2845.8L2108.87 2835.4L2111.67 2829L2117.27 2827.8L2135.67 2824.6L2152.07 2830.2L2170.07 2827.4L2204.87 2837.8L2219.67 2860.2L2224.87 2923.8L2223.67 2943.8L2232.47 2990.6L2237.67 2993H2250.07L2255.27 3007L2249.67 3016.2ZM2102.87 2951C2101.54 2957.93 2101.54 2963.8 2102.87 2968.6C2104.47 2973.4 2107 2977.4 2110.47 2980.6L2116.47 2993C2121.27 2994.6 2125.8 2995.8 2130.07 2996.6C2134.34 2997.4 2138.74 2997.53 2143.27 2997C2148.07 2996.2 2153 2994.73 2158.07 2992.6C2163.4 2990.2 2169.54 2986.73 2176.47 2982.2L2177.27 2961.8L2170.07 2926.2C2166.34 2924.87 2163 2924.2 2160.07 2924.2C2157.4 2924.2 2154.74 2924.47 2152.07 2925C2148.87 2925.8 2145.14 2926.47 2140.87 2927C2136.6 2927.53 2132.2 2928.2 2127.67 2929C2123.4 2929.53 2119.4 2930.33 2115.67 2931.4C2112.2 2932.2 2109.67 2933.4 2108.07 2935L2102.87 2951Z" fill="black"/>
</svg>
