<svg width="3000" height="3000" viewBox="0 0 3000 3000" fill="none" xmlns="http://www.w3.org/2000/svg">
<defs>
<linearGradient id="paint0_linear_2302_18000" x1="1500" y1="0" x2="1430" y2="4783" gradientUnits="userSpaceOnUse">
<stop offset="0.151042" stop-color="#B22428"/>
<stop offset="0.421706" stop-color="white"/>
</linearGradient>
</defs>
<path fill-rule="evenodd" clip-rule="evenodd" d="M1500 2900C2273.2 2900 2900 2273.2 2900 1500C2900 726.801 2273.2 100 1500 100C726.801 100 100 726.801 100 1500C100 2273.2 726.801 2900 1500 2900ZM1500 3000C2328.43 3000 3000 2328.43 3000 1500C3000 671.573 2328.43 0 1500 0C671.573 0 0 671.573 0 1500C0 2328.43 671.573 3000 1500 3000Z" fill="url(#paint0_linear_2302_18000)"/>
<path d="M450.378 1839.69C445.059 1847.29 435.398 1879 439.298 1945.13C439.298 1959.54 448.128 1965.31 456.361 1967.1C459.696 1967.83 462.934 1967.9 465.447 1967.63C512.13 1970.25 610.417 1973.93 630.095 1967.63C668.412 1969.49 738.595 1970.17 770.368 1961.91C778.592 1959.77 784.243 1957.04 786.102 1953.57C795.143 1936.7 792.38 1907.55 789.869 1895.09C789.499 1875.97 784.994 1835.59 769.925 1827.04C753.615 1821.64 703.002 1821.98 679.734 1822.82L531.262 1827.04L462.344 1831.26C458.355 1832.29 450.378 1835.42 450.378 1839.69Z" fill="#B27134"/>
<path d="M630.095 1967.63C610.417 1973.93 512.13 1970.25 465.447 1967.63C462.934 1967.9 459.696 1967.83 456.361 1967.1V1977.19L430.877 2003.94L419.132 2016.27L408.385 2023.09L397.637 2029.91L392.54 2033.14L387.665 2036.89L355.976 2061.26L312.321 2096.97C295.553 2112.99 261.84 2151.68 261.131 2178.23C260.422 2204.77 262.756 2222.09 264.012 2227.43C266.154 2243.27 272.832 2279.11 282.405 2295.76C288.255 2311.05 292.229 2323.31 293.485 2327.53C294.888 2340.18 298.36 2366.33 301.019 2369.7C304.343 2373.92 315.645 2408.79 322.293 2413.57C324.243 2423.24 336.401 2445.71 342.237 2455.74L390.767 2548.53C396.898 2560.71 409.736 2589.92 412.041 2609.26C415.941 2621.86 419.723 2632.69 421.127 2636.54V2661.84C416.325 2666.81 406.545 2677.59 405.836 2680.96C404.95 2685.18 395.643 2723.42 400.739 2741.13C404.817 2755.3 411.893 2769.53 414.922 2774.87C428.809 2792.31 461.812 2827.68 482.731 2829.7C504.005 2838.47 522.915 2843.85 529.71 2845.45C555.194 2850.04 608.644 2858.38 618.572 2855.01C630.627 2855.01 673.233 2848.63 693.03 2845.45C712.235 2840.2 754.147 2826.95 768.152 2815.92C782.157 2804.9 793.193 2794.84 796.96 2791.18L823.552 2753.22L828.87 2746.76C825.62 2720.33 814.023 2663.42 793.636 2647.22C793.636 2615.95 809.443 2580.96 817.347 2567.37L840.172 2510.01L871.196 2455.18L893.356 2405.13L918.175 2335.4L939.449 2289.57C947.279 2268.95 962.717 2224.56 961.83 2211.97C960.944 2199.37 961.461 2182.16 961.83 2175.13C959.984 2156.86 951.105 2115.86 930.363 2098.09C909.621 2080.32 897.049 2067.82 893.356 2063.79L869.645 2048.04C865.287 2043.26 855.684 2033.08 852.138 2030.61C850.138 2029.21 845.08 2026.26 839.95 2023.35C837.409 2021.9 834.851 2020.47 832.638 2019.24C831.401 2018.55 830.271 2017.92 829.314 2017.4L813.137 2005.3L810.699 2003.53L799.619 1995.46L786.102 1985.62L774.357 1974.66H770.368V1961.91C738.595 1970.17 668.412 1969.49 630.095 1967.63Z" fill="#905836"/>
<path d="M387.665 2036.89L392.54 2033.14L397.637 2029.91C390.989 2026.77 379.687 2013.68 387.665 1986.47C387.501 1985.59 387.344 1984.52 387.226 1983.32C386.707 1978.07 386.934 1970.48 390.546 1967.1C388.404 1964.18 382.568 1963.97 376.363 1986.47C370.159 2008.96 381.312 2029.45 387.665 2036.89Z" fill="#D8B66C"/>
<path d="M421.57 1974.38C420.329 1972.13 418.098 1973.44 417.138 1974.38C419.286 1979.2 420.702 1983.78 421.57 1988.04C422.519 1992.7 422.813 1996.98 422.694 2000.76C422.463 2008.06 420.691 2013.5 419.132 2016.27L430.877 2003.94C432.712 2002.01 423.121 1977.19 421.57 1974.38Z" fill="#D8B66C"/>
<path d="M814.688 1893.68L823.774 1914.21L845.823 1888.48L842.61 1870.62L841.377 1857.36L825.99 1888.48L814.369 1865.23C814.743 1877.53 814.959 1888.98 814.688 1893.68Z" fill="#CBAA7C"/>
<path d="M814.369 1865.23L825.99 1888.48L841.377 1857.36L839.223 1834.19L825.99 1865.23L813.72 1846.68C813.948 1852.56 814.179 1859 814.369 1865.23Z" fill="#D8B66C"/>
<path d="M813.137 1832.67C813.309 1836.51 813.513 1841.36 813.72 1846.68L825.99 1865.23L839.223 1834.19L837.07 1811.01L825.99 1839.65L813.137 1832.67Z" fill="#D8B66C"/>
<path d="M813.137 1832.67L825.99 1839.65L837.07 1811.01L830.865 1783.71L821.779 1816.59L810.699 1807.08C811.648 1816.61 812.49 1825.52 813.137 1832.67Z" fill="#CBAA7C"/>
<path d="M810.699 1807.08L821.779 1816.59L830.865 1783.71L826.654 1765.18L818.677 1793.25L808.271 1783.71C809.118 1791.5 809.942 1799.48 810.699 1807.08Z" fill="#CBAA7C"/>
<path d="M808.271 1783.71L818.677 1793.25L826.654 1765.18C825.867 1760.61 824.87 1754.86 823.774 1748.58L814.688 1770.76L806.153 1765.18C806.857 1771 807.572 1777.29 808.271 1783.71Z" fill="#D8B66C"/>
<path d="M806.153 1765.18L814.688 1770.76L823.774 1748.58C822.176 1739.42 820.365 1729.13 818.677 1719.71L813.358 1755.86L802.505 1739.8C803.581 1745.27 804.85 1754.43 806.153 1765.18Z" fill="#D8B66C"/>
<path d="M801.17 1734.82C801.565 1735.58 802.015 1737.31 802.505 1739.8L813.358 1755.86L818.677 1719.71C817.385 1712.49 816.165 1705.78 815.167 1700.47L808.271 1722.96L796.256 1712.56C798.28 1723.6 799.901 1732.35 801.17 1734.82Z" fill="#CBAA7C"/>
<path d="M796.256 1712.56L808.271 1722.96L815.167 1700.47C814.419 1696.48 813.795 1693.28 813.358 1691.24C813.284 1688.1 811.15 1680.14 808.271 1670.76L802.505 1696.53L791.013 1685.56C792.939 1694.45 794.634 1703.7 796.116 1711.79L796.256 1712.56Z" fill="#CBAA7C"/>
<path d="M791.013 1685.56L802.505 1696.53L808.271 1670.76C805.565 1661.95 802.201 1651.88 799.268 1643.39L796.256 1670.76H787.422C788.7 1675.37 789.895 1680.41 791.013 1685.56Z" fill="#D8B66C"/>
<path d="M779.232 1651.03C782.275 1654.74 784.996 1661.99 787.422 1670.76H796.256L799.268 1643.39C797.932 1639.52 796.685 1635.98 795.63 1633.03L792.248 1626.8L787.422 1651.03H779.232Z" fill="#D8B66C"/>
<path d="M779.232 1651.03H787.422L792.248 1626.8L784.622 1612.74L779.232 1633.03L769.925 1630.19L770.629 1631.8C774.001 1639.49 777.004 1646.34 779.232 1651.03Z" fill="#CBAA7C"/>
<path d="M769.925 1630.19L779.232 1633.03L784.622 1612.74L775.318 1595.59L773.561 1616.4L760.396 1608.79C763.652 1615.91 766.92 1623.34 769.925 1630.19Z" fill="#CBAA7C"/>
<path d="M760.396 1608.79L773.561 1616.4L775.318 1595.59L764.972 1576.52L764.032 1595.59H754.15C756.177 1599.69 758.284 1604.18 760.396 1608.79Z" fill="#D8B66C"/>
<path d="M742.668 1576.52C745.556 1579.24 749.656 1586.49 754.15 1595.59H764.032L764.972 1576.52L760.396 1568.08C758.142 1564.75 754.803 1559.94 750.919 1554.54L754.15 1576.52H742.668Z" fill="#D8B66C"/>
<path d="M742.668 1576.52H754.15L750.919 1554.54C747.661 1550 744.019 1545.05 740.312 1540.2L742.668 1563.47H731.235C736.176 1569.43 740.326 1574.31 742.668 1576.52Z" fill="#CBAA7C"/>
<path d="M731.235 1563.47H742.668L740.312 1540.2C737.271 1536.22 734.187 1532.31 731.235 1528.75L733.451 1550.82H720.82C722.353 1552.68 723.877 1554.53 725.369 1556.35C727.4 1558.82 729.374 1561.22 731.235 1563.47Z" fill="#CBAA7C"/>
<path d="M678.847 1479.79C676.557 1478.67 669.097 1474.9 657.574 1468.83L661.653 1487.06L650.794 1496.99C655.737 1498.72 660.224 1500.69 664.278 1502.75L683.148 1495.21L678.847 1479.79Z" fill="#D8B66C"/>
<path d="M678.847 1511.56L697.109 1506.18L695.058 1491.88C688.856 1486.96 683.018 1482.68 678.847 1479.79L683.148 1495.21L664.278 1502.75C669.968 1505.65 674.803 1508.73 678.847 1511.56Z" fill="#CBAA7C"/>
<path d="M693.916 1522.25H710.405L707.967 1502.75C703.775 1498.98 699.33 1495.28 695.058 1491.88L697.109 1506.18L678.847 1511.56C682.025 1513.79 684.714 1515.87 686.944 1517.59C690.233 1520.14 692.525 1521.91 693.916 1522.25Z" fill="#CBAA7C"/>
<path d="M693.916 1522.25C696.24 1522.82 701.581 1528.28 707.967 1535.58L723.036 1540.2L725.605 1522.25C722.164 1516.46 715.47 1509.5 707.967 1502.75L710.405 1522.25H693.916Z" fill="#D8B66C"/>
<path d="M720.82 1550.82H733.451L731.235 1528.75C729.284 1526.4 727.39 1524.21 725.605 1522.25L723.036 1540.2L707.967 1535.58C712 1540.18 716.45 1545.52 720.82 1550.82Z" fill="#D8B66C"/>
<path d="M650.794 1496.99L661.653 1487.06L657.574 1468.83C652.791 1466.31 644.917 1464.99 636.39 1464.4L646.805 1483.68L633.953 1492.59C640.072 1493.68 645.678 1495.21 650.794 1496.99Z" fill="#D8B66C"/>
<path d="M633.953 1492.59L646.805 1483.68L636.39 1464.4C631.129 1464.04 625.62 1463.95 620.435 1464.03L629.964 1479.79L614.895 1490.79C621.736 1490.89 628.081 1491.54 633.953 1492.59Z" fill="#CBAA7C"/>
<path d="M614.895 1490.79L629.964 1479.79L620.435 1464.03C613.777 1464.12 607.654 1464.49 603.282 1464.89L614.895 1476.93L600.491 1491.36C605.519 1490.9 610.318 1490.72 614.895 1490.79Z" fill="#CBAA7C"/>
<path d="M595.747 1491.88C597.351 1491.68 598.932 1491.51 600.491 1491.36L614.895 1476.93L603.282 1464.89C598.464 1466.64 591.513 1469.4 584.182 1472.7L595.747 1479.79L584.182 1495.21C588.025 1493.51 591.885 1492.37 595.747 1491.88Z" fill="#D8B66C"/>
<path d="M584.182 1495.21L595.747 1479.79L584.182 1472.7C575.327 1476.7 565.919 1481.49 559.052 1486.28L575.007 1483.68L567.395 1506.18C572.925 1501.45 578.536 1497.71 584.182 1495.21Z" fill="#D8B66C"/>
<path d="M559.052 1486.28C556.35 1488.17 554.041 1490.05 552.314 1491.88C548.539 1493.69 543.232 1499.14 537.482 1506.18L552.314 1499.99L555.201 1518.27C559.209 1513.76 563.28 1509.69 567.395 1506.18L575.007 1483.68L559.052 1486.28Z" fill="#CBAA7C"/>
<path d="M552.314 1499.99L537.482 1506.18C532.034 1512.85 526.189 1520.95 520.874 1528.75L537.482 1522.25L541.56 1535.58C546.004 1529.31 550.56 1523.49 555.201 1518.27L552.314 1499.99Z" fill="#CBAA7C"/>
<path d="M520.874 1528.75C515.73 1536.3 511.083 1543.56 507.772 1548.96L524.039 1540.2L521.403 1568.08C527.762 1556.55 534.519 1545.51 541.56 1535.58L537.482 1522.25L520.874 1528.75Z" fill="#D8B66C"/>
<path d="M524.039 1540.2L507.772 1548.96C503.811 1554.03 497.265 1563.78 490.515 1576.52L507.772 1563.47L510.197 1589.68C513.765 1582.39 517.51 1575.15 521.403 1568.08L524.039 1540.2Z" fill="#D8B66C"/>
<path d="M507.772 1563.47L490.515 1576.52C486.784 1583.56 482.991 1591.51 479.538 1600.09L496.339 1589.68L501.263 1608.79C504.095 1602.45 507.079 1596.05 510.197 1589.68L507.772 1563.47Z" fill="#CBAA7C"/>
<path d="M479.538 1600.09C476.77 1606.96 474.219 1614.25 472.094 1621.79L484.594 1616.4L491.004 1633.03C494.14 1625.2 497.573 1617.05 501.263 1608.79L496.339 1589.68L479.538 1600.09Z" fill="#CBAA7C"/>
<path d="M484.594 1616.4L472.094 1621.79C470.105 1628.85 467.825 1636.13 465.4 1643.39L477.634 1640.01L483.089 1653.79C485.453 1647.25 488.102 1640.28 491.004 1633.03L484.594 1616.4Z" fill="#D8B66C"/>
<path d="M477.634 1640.01L465.4 1643.39C462.512 1652.02 459.418 1660.61 456.361 1668.71L470.855 1656.04L477.634 1669.59C479.229 1664.72 481.054 1659.42 483.089 1653.79L477.634 1640.01Z" fill="#CBAA7C"/>
<path d="M470.855 1656.04L456.361 1668.71C454.326 1674.1 452.308 1679.27 450.378 1684.09L465.4 1676.85L468.574 1698.22L477.634 1669.59L470.855 1656.04Z" fill="#D8B66C"/>
<path d="M450.378 1684.09C445.923 1695.23 441.936 1704.51 439.298 1710.36L454.678 1695.69L463.325 1714.81L468.574 1698.22L465.4 1676.85L450.378 1684.09Z" fill="#D8B66C"/>
<path d="M454.678 1695.69L439.298 1710.36C438.917 1712 437.513 1717.06 434.54 1726.9L450.378 1719.02L456.361 1736.81L463.325 1714.81L454.678 1695.69Z" fill="#CBAA7C"/>
<path d="M450.378 1719.02L434.54 1726.9C433.049 1731.83 431.164 1737.96 428.814 1745.45L442.4 1736.81L451.313 1752.76L456.361 1736.81L450.378 1719.02Z" fill="#CBAA7C"/>
<path d="M442.4 1736.81L428.814 1745.45C427.461 1749.77 425.955 1754.54 424.281 1759.79L437.394 1758.11L445.448 1771.3L451.313 1752.76L442.4 1736.81Z" fill="#D8B66C"/>
<path d="M424.281 1759.79C423.422 1762.49 422.519 1765.32 421.57 1768.28C419.919 1773.42 418.45 1778.18 417.138 1782.6L428.814 1775.82L440.235 1798.88C441.027 1792.23 441.775 1786.05 442.4 1780.93L445.448 1771.3L437.394 1758.11L424.281 1759.79Z" fill="#CBAA7C"/>
<path d="M428.814 1775.82L417.138 1782.6C413.942 1793.36 411.682 1802.08 410.025 1809.28L424.281 1798.88L436.94 1827.04C437.99 1817.84 439.154 1807.93 440.235 1798.88L428.814 1775.82Z" fill="#D8B66C"/>
<path d="M424.281 1798.88L410.025 1809.28C407.818 1818.87 406.682 1825.78 405.833 1831.26L417.138 1822.82L434.861 1845.83C435.436 1840.39 436.156 1833.91 436.94 1827.04L424.281 1798.88Z" fill="#CBAA7C"/>
<path d="M417.138 1822.82L405.833 1831.26C405.734 1831.9 405.639 1832.52 405.546 1833.12C404.974 1836.85 404.504 1839.92 403.842 1842.79C403.164 1845.72 402.444 1850.61 401.695 1856.52L419.132 1848.64L432.511 1870.57C433.224 1865.86 433.645 1862.38 433.536 1861.34C433.423 1860.27 433.967 1854.3 434.861 1845.83L417.138 1822.82Z" fill="#D8B66C"/>
<path d="M419.132 1848.64L401.695 1856.52C400.99 1862.07 400.26 1868.52 399.517 1875.09C399.358 1876.49 399.2 1877.89 399.04 1879.29L414.126 1868.33L429.308 1889.69C430.518 1882.87 431.702 1875.92 432.511 1870.57L419.132 1848.64Z" fill="#CBAA7C"/>
<path d="M414.126 1868.33L399.04 1879.29C398.315 1885.67 397.58 1892 396.847 1897.57L414.126 1889.69L426.002 1907.74C426.912 1902.93 428.122 1896.37 429.308 1889.69L414.126 1868.33Z" fill="#D8B66C"/>
<path d="M396.847 1897.57C396.145 1902.89 395.445 1907.52 394.756 1910.83L408.385 1907.74L424.281 1924.87L426.002 1907.74L414.126 1889.69L396.847 1897.57Z" fill="#D8B66C"/>
<path d="M408.385 1907.74L394.756 1910.83C393.696 1915.92 392.84 1924.42 392.179 1933.56L405.833 1924.87L421.57 1942.1L423.121 1936.42L424.281 1924.87L408.385 1907.74Z" fill="#CBAA7C"/>
<path fill-rule="evenodd" clip-rule="evenodd" d="M820.262 1946.9L820.671 1946.54C820.527 1946.65 820.391 1946.77 820.262 1946.9Z" fill="#C4C4C4"/>
<path d="M396.086 2020.21C398.745 2019.98 404.137 2020.11 406.501 2020.21L408.385 2023.09L419.132 2016.27L410.025 2000.76L394.756 2019.57C395.203 2020.01 395.649 2020.24 396.086 2020.21Z" fill="#CBAA7C"/>
<path d="M388.97 2003.94C389.059 2004.58 389.143 2005.13 389.216 2005.59C390.204 2009.74 392.482 2017.32 394.756 2019.57L410.025 2000.76L419.132 2016.27C420.691 2013.5 422.463 2008.06 422.694 2000.76L405.833 1988.04L388.97 2003.94Z" fill="#D8B66C"/>
<path d="M387.226 1983.32C387.344 1984.52 387.501 1985.59 387.665 1986.47C387.665 1993.03 388.427 2000.06 388.97 2003.94L405.833 1988.04L422.694 2000.76C422.813 1996.98 422.519 1992.7 421.57 1988.04L403.842 1971.52L387.226 1983.32Z" fill="#CBAA7C"/>
<path d="M417.138 1974.38V1958.35L403.842 1945.13L390.93 1956.05C390.754 1960.29 390.626 1964.09 390.546 1967.1C386.934 1970.48 386.707 1978.07 387.226 1983.32L403.842 1971.52L421.57 1988.04C420.702 1983.78 419.286 1979.2 417.138 1974.38Z" fill="#CBAA7C"/>
<path d="M405.833 1924.87L392.179 1933.56C391.631 1941.14 391.216 1949.16 390.93 1956.05L403.842 1945.13L417.138 1958.35L421.57 1942.1L405.833 1924.87Z" fill="#D8B66C"/>
<path d="M800.949 1982.25L799.619 1995.46L810.699 2003.53V1999.5V1995.46C809.087 1988.44 807.849 1972.98 815.796 1967.35C815.796 1964.79 817.222 1962.91 818.795 1961.68L818.824 1961.65C819.444 1961.17 820.086 1960.78 820.671 1960.5C821.076 1960.3 821.454 1960.14 821.779 1960.04C822.196 1956.94 824.11 1950.76 828.432 1950.76C825.615 1950.16 822.303 1947.9 820.671 1946.54L820.262 1946.9C820.391 1946.77 820.527 1946.65 820.671 1946.54C820.695 1946.17 820.724 1945.78 820.758 1945.37C811.426 1952.34 803.664 1972.86 800.949 1982.25Z" fill="#D8B66C"/>
<path d="M845.712 2014.58C846.776 2011.43 846.155 2002.77 845.712 1998.84C845.585 1996.69 845.487 1993.3 845.661 1990.8C848.676 1981.7 853.926 1961.15 850.808 1951.76C846.741 1976.06 839.765 1985.83 838.224 1987.59C837.975 1992.54 837.476 1997.05 836.938 2000.52C836.908 2000.71 836.878 2000.9 836.848 2001.09L832.638 2019.24C834.851 2020.47 837.409 2021.9 839.95 2023.35C841.428 2021.74 844.648 2017.73 845.712 2014.58Z" fill="#D8B66C"/>
<path d="M814.688 1893.68C814.156 1902.9 812.398 1911.21 811.586 1914.21L809.259 1924.47L825.73 1929.68C825.815 1929.67 825.902 1929.66 825.99 1929.67C827.171 1929.2 829.668 1928.6 830.2 1929.95L850.808 1922.31C850.199 1916.08 849.509 1910.11 849.036 1906.33L845.823 1888.48L823.774 1914.21L814.688 1893.68Z" fill="#CBAA7C"/>
<path d="M797.625 1961.91C793.725 1975.33 798.216 1981.06 800.949 1982.25C803.664 1972.86 811.426 1952.34 820.758 1945.37C820.941 1943.16 821.273 1940.41 821.779 1937.83C822.602 1933.63 823.885 1929.88 825.73 1929.68L809.259 1924.47L806.932 1934.73C806.094 1936.7 804.468 1940.86 802.505 1946.54C801.007 1950.88 799.313 1956.1 797.625 1961.91Z" fill="#CBAA7C"/>
<path d="M818.677 1979.44C817.717 1977.19 815.796 1971.62 815.796 1967.35C807.849 1972.98 809.087 1988.44 810.699 1995.46V1999.5C819.298 2002.86 836.842 2005.18 838.224 1987.59C839.765 1985.83 846.741 1976.06 850.808 1951.76C851.299 1948.83 851.747 1945.69 852.138 1942.32C852.138 1937.44 851.53 1929.7 850.808 1922.31L830.2 1929.95C830.227 1930.02 830.256 1930.11 830.287 1930.21C830.988 1932.63 832.352 1944.02 830.865 1950.76C830.147 1950.97 829.314 1950.95 828.432 1950.76C824.11 1950.76 822.196 1956.94 821.779 1960.04C827.452 1958.54 830.2 1964.85 830.865 1968.19C829.757 1969.69 826.787 1973.36 823.774 1976.06C821.646 1979.89 819.489 1979.91 818.677 1979.44Z" fill="#CBAA7C"/>
<path d="M347.646 2193.64C406.96 2206.67 527.009 2232.44 532.682 2231.32C539.773 2229.91 658.993 2216.14 686.472 2214.73C713.95 2213.32 831.841 2193.64 842.7 2193.64C851.387 2193.64 925.948 2184.46 962.142 2179.86L954.829 2222.32C952.983 2227.38 947.339 2239.02 939.539 2245.1C929.789 2252.69 860.428 2264.5 842.7 2266.18C824.972 2267.87 811.676 2270.68 771.123 2273.78C730.57 2276.87 761.816 2273.78 700.876 2273.78C639.936 2273.78 643.481 2275.18 620.878 2281.37C598.275 2287.55 598.275 2288.68 573.234 2290.36C548.194 2292.05 422.99 2290.36 402.602 2290.36C382.215 2290.36 329.918 2281.37 309.53 2273.78C293.221 2267.7 270.824 2217.82 261.665 2193.64L270.086 2179.86H292.689C298.539 2179.86 331.764 2189.05 347.646 2193.64Z" fill="#A96135"/>
<path d="M323.27 2366.28C347.646 2373.03 487.032 2383.43 509.857 2383.43C532.682 2383.43 610.241 2379.78 640.379 2373.03C670.517 2366.28 688.245 2358.69 729.684 2357.28C771.123 2355.88 814.778 2351.66 842.7 2349.13C870.621 2346.6 904.748 2340.98 898.543 2349.13C893.579 2355.65 908.293 2351.85 916.271 2349.13C910.066 2362.34 896.194 2390.35 890.344 2396.65C883.031 2404.52 855.109 2425.33 842.7 2436.01C830.29 2446.7 793.726 2463.85 782.425 2467.78C771.123 2471.72 761.594 2474.53 737.883 2475.66C714.172 2476.78 705.529 2483.53 686.472 2475.66C667.414 2467.78 646.584 2475.94 631.072 2467.78C615.56 2459.63 593.621 2455.98 579.217 2454.57C564.814 2453.16 555.506 2449.51 532.682 2446.7C509.857 2443.88 523.153 2443.88 466.202 2436.01C409.25 2428.14 389.75 2421.67 375.124 2421.67H339.668L323.27 2408.46L309.53 2373.03L323.27 2366.28Z" fill="#C68158"/>
<path d="M461.991 1849.49V1872.54C461.991 1874.12 466.275 1873.2 468.418 1872.54V1849.49H461.991Z" fill="#CB7D34"/>
<path d="M497.226 1849.49V1872.54H507.641V1849.49H497.226Z" fill="#CB7D34"/>
<path d="M537.114 1849.49H550.188L542.875 1872.54H529.801L537.114 1849.49Z" fill="#CB7D34"/>
<path d="M573.234 1849.49H588.746V1872.54H567.251L573.234 1853.7L570.575 1846.39L573.234 1849.49Z" fill="#CB7D34"/>
<path d="M617.776 1849.49L635.947 1853.7L631.515 1872.54L613.344 1879.01V1853.7L617.776 1849.49Z" fill="#CB7D34"/>
<path d="M675.835 1842.18L705.751 1846.39L700.876 1879.01H670.517L675.835 1842.18Z" fill="#CB7D34"/>
<path d="M735.889 1842.18C748.52 1846.39 767.799 1843.3 767.799 1846.39C767.799 1848.87 761.742 1872.92 758.713 1884.63L730.792 1879.01L735.889 1846.39V1842.18Z" fill="#CB7D34"/>
<path d="M724.144 1917.81H753.617V1933.84C753.617 1938.34 728.945 1941.34 716.609 1942.27L724.144 1917.81Z" fill="#CB7D34"/>
<path d="M681.375 1911.34C685.453 1912.02 699.325 1911.63 705.751 1911.34L699.546 1938.9L670.517 1942.27L681.375 1911.34Z" fill="#CB7D34"/>
<path d="M625.089 1911.34H653.675C652.272 1915.84 649.243 1925.74 648.357 1929.34C647.47 1932.94 632.475 1939.46 625.089 1942.27L625.089 1911.34Z" fill="#CB7D34"/>
<path d="M572.126 1904.88L589.854 1906.85L593.621 1917.53L587.417 1932.43L572.126 1936.37C570.28 1931.21 566.897 1920.57 568.138 1919.22C569.378 1917.87 571.314 1909.1 572.126 1904.88Z" fill="#CB7D34"/>
<path d="M514.732 1903.47H541.767C539.92 1908.72 536.138 1919.84 535.784 1922.31C535.341 1925.4 529.358 1940.87 524.482 1937.49C519.607 1934.12 509.857 1929.9 510.078 1927.93C510.256 1926.36 513.255 1910.97 514.732 1903.47Z" fill="#CB7D34"/>
<path d="M473.514 1904.88C475.11 1903.75 484.964 1904.41 489.691 1904.88C488.583 1908.81 486.057 1917.81 484.816 1922.31C483.265 1927.93 474.401 1938.62 472.628 1937.49C470.855 1936.37 469.526 1916.12 470.634 1913.03C471.52 1910.56 472.923 1906.56 473.514 1904.88Z" fill="#CB7D34"/>
<path d="M2541.5 1512.46L2207.33 2072.77C2201.25 2078.85 2179.37 2085.79 2140.56 2064.93C2101.75 2044.06 2087.01 2028.23 2084.49 2022.92L1656.86 2739.94L1663.32 2743.79L1644.98 2774.54C1668.68 2790.96 1723.07 2826.6 1751.05 2837.81L1773.41 2800.31L1778.85 2803.56L2554.48 1503.07C2548.55 1508.67 2543.36 1511.67 2541.5 1512.46Z" fill="#CE992B"/>
<path d="M2467.74 2071.29C2467.74 2071.29 2390.44 2043.12 2389.16 2033.86L1992.02 2722.8L1989.79 2731.18L1993.19 2733.21L1965.55 2779.55C1992.76 2805.3 2057.09 2856.99 2096.79 2857.82L2118.65 2821.17L2125.24 2819.39C2336.91 2447.22 2759.08 1700.83 2754.42 1692.57L2544.34 2066.44C2513.41 2064.28 2498.67 2073.45 2467.74 2071.29Z" fill="#CE992B"/>
<path fill-rule="evenodd" clip-rule="evenodd" d="M2541.5 1512.46L2207.33 2072.77C2208.55 2050.89 2162.44 2025.91 2139.23 2016.16C2178.84 2025.16 2455.06 1486.61 2455.06 1486.61C2463.32 1482.02 2484.27 1474.1 2501.91 1479.14C2519.56 1484.18 2537.28 1493 2543.94 1496.78C2546.22 1496.81 2551.53 1498.11 2554.48 1503.07C2548.55 1508.67 2543.36 1511.67 2541.5 1512.46Z" fill="#F5DD9F"/>
<path fill-rule="evenodd" clip-rule="evenodd" d="M2669.04 1634.79L2791.65 1429.21C2814.21 1417.91 2863.66 1399.05 2880.96 1413.94C2898.26 1428.82 2895.22 1444.9 2891.53 1451.08L2773.52 1660.55C2771.24 1657.67 2765.93 1653.17 2762.92 1658.23C2751.19 1666.77 2749.99 1675.27 2750.86 1678.45L2754.42 1692.57L2544.34 2066.44C2520.74 2039.82 2474.31 2024.39 2454.04 2020.01L2556.3 1848.55L2610.53 1763.81C2634.82 1736.22 2684.75 1678.77 2690.18 1669.67C2692.96 1659.45 2677.24 1642.16 2669.04 1634.79Z" fill="#F5DD9F"/>
<path d="M2140.56 2064.93C2179.37 2085.79 2201.25 2078.85 2207.33 2072.77C2208.55 2050.89 2162.44 2025.91 2139.23 2016.16C2099.61 2007.15 2086.23 2016.91 2084.49 2022.92C2087.01 2028.23 2101.75 2044.06 2140.56 2064.93Z" fill="#9B6218"/>
<path d="M2454.04 2020.01C2438.63 2019.58 2404.47 2021.06 2391.12 2030.46L2389.53 2032.07L2389.16 2033.86C2390.44 2043.12 2467.74 2071.29 2467.74 2071.29C2498.67 2073.45 2513.41 2064.28 2544.34 2066.44C2520.74 2039.82 2474.31 2024.39 2454.04 2020.01Z" fill="#9B6218"/>
<path fill-rule="evenodd" clip-rule="evenodd" d="M2061.63 2285.31C2111.04 2307.81 2217.06 2339.88 2263.9 2353.1C2316.55 2362.83 2430.33 2378.66 2464.25 2364.17C2470.71 2363.23 2489.43 2356.04 2512.64 2334.71C2535.84 2313.39 2484.14 2265.55 2455.39 2244.3C2418.65 2227.95 2342.39 2197.09 2331.27 2204.44C2301.73 2199.27 2236.59 2185 2207.72 2178.51C2167.28 2169.69 2079.62 2153.93 2052.47 2161.38C2022.86 2155.13 1993.18 2176.77 1982.04 2188.38C1981.17 2196.27 1980.43 2213.83 1984.44 2220.88C1986.01 2224.57 1989.19 2229.9 1994.27 2236.16C2005.85 2250.47 2027.27 2269.67 2061.63 2285.31ZM2117.51 2233.86C2055.38 2216.66 2049.67 2197.34 2054.58 2189.83C2053.06 2169.24 2151.26 2191.3 2200.56 2204.91L2377.21 2240.54C2404.16 2253.87 2455.07 2284.29 2443.06 2299.34C2431.05 2314.39 2383.99 2309.61 2361.96 2305.34L2225.65 2273.19C2215.49 2267.25 2179.64 2251.06 2117.51 2233.86Z" fill="#2B2924"/>
<path d="M2054.58 2189.83C2049.67 2197.34 2055.38 2216.66 2117.51 2233.86C2179.64 2251.06 2215.49 2267.25 2225.65 2273.19L2361.96 2305.34C2383.99 2309.61 2431.05 2314.39 2443.06 2299.34C2455.07 2284.29 2404.16 2253.87 2377.21 2240.54L2200.56 2204.91C2151.26 2191.3 2053.06 2169.24 2054.58 2189.83Z" fill="#35343A"/>
<path fill-rule="evenodd" clip-rule="evenodd" d="M683.596 2384.1C683.143 2313.86 739.768 2324.34 768.137 2338.36C808.55 2363.29 901.422 2414.64 949.605 2420.61C997.788 2426.59 1090.48 2438.46 1130.8 2443.65L1188.34 2439.4C1192.06 2485.65 1199.75 2583.93 1200.72 2607.01C1230.18 2620.91 1288.81 2607.2 1314.45 2598.61L1310.22 2541.38L1305.46 2477.05L1362.31 2444.93L1464.71 2437.36L1603.93 2416.51L1637.16 2409.97L1639.26 2438.42C1641.11 2444.98 1646.86 2459.85 1655.03 2466.87C1663.2 2473.89 1667.73 2480.46 1668.97 2482.86L1671.85 2521.8C1701.1 2523.16 1764.43 2521.98 1783.69 2506.39C1776.37 2476.42 1765.91 2442.56 1761.59 2429.38C1758.38 2416.68 1750.71 2391.84 1745.78 2394.11L1810 2363.15C1825.5 2363.37 1860.94 2360.82 1878.64 2348.89L1878.88 2348.76C1904.2 2335.72 1920.37 2327.38 1932.65 2315.28C1942.5 2305.56 1957.54 2288.35 1963.82 2280.97L1994.27 2236.16C2005.85 2250.47 2027.27 2269.67 2061.63 2285.31C2111.04 2307.81 2217.06 2339.88 2263.9 2353.1C2316.55 2362.83 2430.33 2378.66 2464.25 2364.17C2454.4 2378.85 2426.57 2420.2 2394.03 2468.09C2364.36 2511.76 2305.33 2568.29 2269.2 2602.89L2269.2 2602.89C2255.81 2615.72 2245.56 2625.53 2241.13 2630.56C2228.01 2645.42 2070.72 2730.88 1993.72 2771.75C1978.59 2778.65 1911.99 2801.35 1766.66 2836.88C1621.32 2872.4 1432.43 2851.25 1356.15 2836.23C1311.97 2819.86 1210 2785.48 1155.57 2778.88C1101.15 2772.28 971.431 2707.71 913.377 2676.25L785.23 2569.63C751.541 2537.05 684.049 2454.34 683.596 2384.1Z" fill="#3B3A3B"/>
<path d="M1184.86 2392.33L1188.34 2439.4C1192.06 2485.65 1199.75 2583.93 1200.72 2607.01C1230.18 2620.91 1288.81 2607.2 1314.45 2598.61L1310.22 2541.38L1305.46 2477.05C1300.05 2455.2 1289 2409.56 1288.05 2401.73C1287.11 2393.9 1294.68 2386.6 1298.58 2383.93L1330.93 2377.79L1550.22 2361.58C1558.55 2360.97 1576.06 2355.82 1583.77 2353.32C1592.58 2351.19 1611.08 2346.74 1614.66 2345.93C1618.24 2345.12 1622.99 2360.06 1624.92 2367.64L1637.16 2409.97L1639.26 2438.42C1641.11 2444.98 1646.86 2459.85 1655.03 2466.87C1663.2 2473.89 1667.73 2480.46 1668.97 2482.86L1671.85 2521.8C1701.1 2523.16 1764.43 2521.98 1783.69 2506.39C1776.37 2476.42 1765.91 2442.56 1761.59 2429.38C1758.38 2416.68 1750.71 2391.84 1745.78 2394.11C1745.22 2386.53 1737.16 2372.05 1733.2 2365.76L1725.83 2352.35L1723.13 2315.78L1741.36 2303.54C1749.16 2298.08 1766.44 2285.41 1773.21 2278.37C1810.29 2268.48 1802.17 2257.17 1806.7 2256.83C1810.32 2256.56 1812.79 2248.89 1813.57 2245.09C1812.99 2241.27 1811.81 2231.12 1811.8 2221.05C1811.78 2210.97 1795.62 2211.69 1787.54 2213.31C1775.51 2219.08 1748.55 2233.14 1736.91 2243.26C1725.85 2236.73 1694.88 2235.59 1680.78 2235.84L1531.54 2250.61L1314.51 2266.65C1275.72 2271.79 1193.85 2279.72 1176.75 2270.36C1159.66 2261.01 1088.05 2230.96 1054.37 2217.1C1051.9 2216.49 1044.09 2215.96 1032.63 2218.71C1021.17 2221.47 995.858 2247.19 984.635 2259.71C979.364 2264.41 965.594 2276.98 952.681 2289.65C935.581 2299.9 928.245 2318.58 926.715 2326.64C928.944 2332.15 938.759 2342.9 960.185 2341.87C981.61 2340.83 1022.46 2327.73 1040.21 2321.31C1046.78 2319.8 1063.65 2318.01 1078.59 2322.9C1091.64 2321.94 1154.87 2368.79 1184.86 2392.33Z" fill="#554E4B"/>
<path d="M1330.93 2427.16C1327.51 2420.33 1329.5 2391.4 1330.93 2377.79L1298.58 2383.93C1294.68 2386.6 1287.11 2393.9 1288.05 2401.73C1289 2409.56 1300.05 2455.2 1305.46 2477.05L1362.31 2444.93C1353.28 2441.85 1334.35 2433.99 1330.93 2427.16Z" fill="#554E4B"/>
<path d="M1778.77 2353.54C1762.98 2347.08 1747.25 2317.52 1741.36 2303.54L1723.13 2315.78L1725.83 2352.35L1733.2 2365.76C1737.16 2372.05 1745.22 2386.53 1745.78 2394.11L1810 2363.15C1806.17 2362.64 1794.55 2360 1778.77 2353.54Z" fill="#554E4B"/>
<path d="M752.683 2564.66C725.71 2553.73 700.423 2545.77 693.68 2544.78L675.979 2615.36C673.731 2626.95 670.584 2653.53 675.979 2667.05C682.722 2683.94 680.193 2713.77 693.68 2726.69C707.166 2739.61 708.852 2754.52 716.439 2761.48C724.025 2768.44 767.856 2808.2 768.699 2816.15C769.542 2824.1 785.557 2837.02 777.128 2847.96C768.699 2858.89 744.254 2886.73 752.683 2893.68C759.427 2899.25 801.572 2931.79 821.802 2947.36C824.05 2951.67 830.4 2960.28 837.817 2960.28H857.204H899.35H942.338C968.468 2960.28 946.552 2972.21 981.955 2953.33C1017.36 2934.44 1027.47 2905.61 1027.47 2899.65C1027.47 2893.68 1018.2 2913.56 1027.47 2880.76C1036.74 2847.96 1006.4 2843.98 1027.47 2833.05C1044.33 2824.3 1048.54 2806.87 1048.54 2799.25C1052.2 2796.6 1060.51 2790.11 1064.56 2785.34C1069.62 2779.37 1078.05 2767.44 1087.32 2751.54C1096.59 2735.63 1101.65 2725.69 1107.55 2714.76C1113.45 2703.83 1109.23 2735.63 1121.03 2691.9C1132.84 2648.16 1137.89 2643.19 1135.36 2629.27C1132.84 2615.36 1134.52 2630.27 1121.03 2587.52C1107.55 2544.78 1101.65 2527.88 1096.59 2517.94C1092.54 2509.99 1084.23 2494.75 1080.57 2488.12L1072.67 2483.15C1073.3 2487.21 1073.87 2491.61 1074.2 2496.07C1074.99 2506.92 1074.35 2518.17 1069.62 2525.89C1058.66 2543.79 984.483 2582.55 962.567 2582.55H932.223H817.587C770.785 2582.55 768.943 2579.58 765.774 2574.48C764.092 2571.77 762.037 2568.45 752.683 2564.66Z" fill="#21231F"/>
<path d="M894.292 2488.12L883.334 2513.97C878.277 2510.65 867.993 2502.44 867.319 2496.07C866.645 2489.71 842.875 2484.81 831.074 2483.15L809.158 2525.89C806.348 2519.93 800.729 2507.21 800.729 2504.03C800.729 2500.84 784.995 2488.78 777.128 2483.15L752.683 2508C750.998 2501.37 747.626 2487.13 747.626 2483.15C747.626 2478.18 736.668 2464.26 731.611 2464.26C727.565 2464.26 722.058 2474.2 719.81 2479.17L711.381 2448.36L707.166 2441.4C706.698 2444.99 705.404 2450.36 703.749 2456.31L707.166 2483.15L711.381 2508L736.668 2483.15L743.412 2517.94L768.699 2525.89L782.185 2504.03L799.044 2540.8L817.587 2544.78C823.935 2533.82 834.965 2514.53 837.572 2509.16C837.41 2508.79 837.475 2508.41 837.817 2508C838.338 2507.39 838.197 2507.88 837.572 2509.16C838.691 2511.7 850.582 2513.39 857.204 2513.97L894.292 2531.86L906.936 2508V2496.07L943.181 2517.94C948.238 2513.3 959.196 2502.44 962.567 2496.07C965.939 2489.71 963.972 2476.19 962.567 2470.23L996.284 2496.07C1001.9 2493.42 1013.14 2487.13 1013.14 2483.15V2456.31L1034.21 2464.26L1042.64 2448.36L1048.54 2418.54C1052.2 2422.85 1059.5 2430.47 1059.5 2426.49C1059.5 2422.52 1046.02 2409.59 1039.27 2403.63V2426.49L1027.47 2456.31L996.284 2437.43L999.656 2483.15L981.955 2464.26L958.353 2456.31L943.181 2504.03C939.528 2498.72 931.38 2488.12 928.008 2488.12C924.637 2488.12 912.555 2472.22 906.936 2464.26L894.292 2488.12Z" fill="#71726D"/>
<path d="M883.334 2540.8L901.878 2575.6L928.008 2564.66L938.966 2536.83L973.526 2551.74L1003.87 2504.03L1034.21 2531.86L1056.13 2489.12L1069.62 2504.03L1074.2 2496.07L1048.54 2470.23L1034.21 2508L1003.87 2496.07L981.955 2513.97L962.567 2536.83L949.081 2525.89L928.008 2531.86L918.736 2544.78H894.292L876.591 2536.83L852.99 2544.78V2559.69L883.334 2540.8Z" fill="#71726D"/>
<path fill-rule="evenodd" clip-rule="evenodd" d="M837.572 2509.16C838.197 2507.88 838.338 2507.39 837.817 2508C837.475 2508.41 837.41 2508.79 837.572 2509.16Z" fill="#C4C4C4"/>
<path d="M800.729 2344.98C780.78 2358.23 740.04 2385.94 736.668 2390.71C736.294 2391.24 735.768 2391.97 735.118 2392.87C728.439 2402.16 708.703 2429.63 707.166 2441.4L711.381 2448.36L719.81 2479.17C722.058 2474.2 727.565 2464.26 731.611 2464.26C736.668 2464.26 747.626 2478.18 747.626 2483.15C747.626 2487.13 750.998 2501.37 752.683 2508L777.128 2483.15C784.995 2488.78 800.729 2500.84 800.729 2504.03C800.729 2507.21 806.348 2519.93 809.158 2525.89L831.074 2483.15C842.875 2484.81 866.645 2489.71 867.319 2496.07C867.993 2502.44 878.277 2510.65 883.334 2513.97L894.292 2488.12L906.936 2464.26C912.555 2472.22 924.637 2488.12 928.008 2488.12C931.38 2488.12 939.528 2498.72 943.181 2504.03L958.353 2456.31L981.955 2464.26L999.656 2483.15L996.284 2437.43L1027.47 2456.31L1039.27 2426.49V2403.63C1046.02 2409.59 1059.5 2422.52 1059.5 2426.49C1059.5 2430.47 1052.2 2422.85 1048.54 2418.54L1042.64 2448.36L1034.21 2464.26L1013.14 2456.31V2483.15C1013.14 2487.13 1001.9 2493.42 996.284 2496.07L962.567 2470.23C963.972 2476.19 965.939 2489.71 962.567 2496.07C959.196 2502.44 948.238 2513.3 943.181 2517.94L906.936 2496.07V2508L894.292 2531.86L857.204 2513.97C850.582 2513.39 838.691 2511.7 837.572 2509.16C834.965 2514.53 823.935 2533.82 817.587 2544.78L799.044 2540.8L782.185 2504.03L768.699 2525.89L743.412 2517.94L736.668 2483.15L711.381 2508L707.166 2483.15L703.749 2456.31C700.636 2467.51 696.248 2480.77 693.68 2488.12L707.166 2508C700.423 2519.93 688.285 2543.99 693.68 2544.78C700.423 2545.77 725.71 2553.73 752.683 2564.66C762.037 2568.45 764.092 2571.77 765.774 2574.48C768.943 2579.58 770.785 2582.55 817.587 2582.55H932.223H962.567C984.483 2582.55 1058.66 2543.79 1069.62 2525.89C1074.35 2518.17 1074.99 2506.92 1074.2 2496.07L1069.62 2504.03L1056.13 2489.12L1034.21 2531.86L1003.87 2504.03L973.526 2551.74L938.966 2536.83L928.008 2564.66L901.878 2575.6L883.334 2540.8L852.99 2559.69V2544.78L876.591 2536.83L894.292 2544.78H918.736L928.008 2531.86L949.081 2525.89L962.567 2536.83L981.955 2513.97L1003.87 2496.07L1034.21 2508L1048.54 2470.23L1074.2 2496.07C1073.87 2491.61 1073.3 2487.21 1072.67 2483.15C1072.1 2479.49 1071.49 2476.11 1070.96 2473.21C1070.2 2469.04 1069.62 2465.86 1069.62 2464.26C1069.62 2457.31 1065.4 2424.5 1059.5 2412.57C1057.19 2407.91 1056.95 2405.98 1056.75 2404.41C1056.44 2401.97 1056.24 2400.39 1048.54 2390.71C1044.09 2385.11 1045.49 2381.24 1046.67 2377.96C1048.85 2371.93 1050.29 2367.92 1013.14 2358.9C955.824 2341.4 935.313 2313.83 932.223 2302.24C930.537 2296.27 925.479 2282.36 918.736 2274.41C915.945 2271.11 913.986 2268.37 912.338 2266.06C909.009 2261.39 906.952 2258.51 901.878 2256.51H848.775C851.584 2253.86 854.001 2250.15 841.189 2256.51C834.285 2259.94 828.948 2263.74 824.435 2266.95C818.477 2271.19 813.954 2274.41 809.158 2274.41C802.415 2274.41 800.729 2292.96 800.729 2302.24C784.563 2321.04 786.837 2330.1 800.729 2344.98Z" fill="#383A35"/>
<path d="M729.082 2713.77C731.779 2712.17 740.883 2699.19 745.097 2692.89C748.75 2693.22 756.224 2694.88 756.898 2698.85C757.572 2702.83 765.608 2721.72 769.542 2730.66L794.829 2713.77C800.167 2716.08 811.519 2722.71 814.216 2730.66C817.588 2740.6 826.86 2761.48 830.231 2755.51C832.928 2750.74 845.404 2731 851.304 2721.72C859.171 2724.04 875.748 2730.27 879.12 2736.63C883.334 2744.58 896.821 2730.66 900.193 2730.66C902.89 2730.66 913.679 2716.08 918.736 2708.8L947.395 2736.63L977.74 2703.83C984.483 2712.77 998.813 2730.66 1002.18 2730.66C1005.56 2730.66 1016.51 2709.46 1021.57 2698.85C1024.38 2696.87 1031.18 2692.89 1035.9 2692.89C1040.62 2692.89 1054.16 2706.81 1060.35 2713.77C1063.72 2702.17 1070.63 2677.98 1071.3 2674C1072.15 2669.03 1072.15 2642.2 1080.57 2652.14C1087.32 2660.09 1094.62 2674 1097.43 2679.97V2632.26L1119.35 2640.21L1104.18 2652.14V2687.92C1104.18 2691.9 1092.38 2684.28 1086.48 2679.97L1080.57 2713.77C1068.49 2719.07 1043.49 2728.08 1040.12 2721.72C1036.74 2715.36 1026.35 2725.03 1021.57 2730.66L997.127 2755.51L985.326 2721.72L967.625 2736.63L947.395 2748.56L918.736 2736.63L896.821 2750.54H869.848C864.453 2750.54 859.733 2741.27 858.047 2736.63L841.189 2767.44C830.231 2771.42 808.147 2778.18 807.473 2773.41C806.798 2768.64 802.696 2746.9 800.729 2736.63C798.201 2732.65 792.132 2725.89 788.086 2730.66C784.04 2735.44 778.533 2741.27 776.285 2743.59L749.312 2721.72L745.097 2708.8L736.668 2721.72L729.082 2713.77Z" fill="#797979"/>
<path d="M724.025 2739.61C725.373 2742.79 744.255 2772.08 753.527 2786.33L765.327 2750.54C771.79 2763.8 785.388 2791.3 788.086 2795.28C790.783 2799.25 815.621 2788.98 827.702 2783.35C831.636 2786 840.346 2792.09 843.718 2795.28C847.932 2799.25 861.419 2805.22 863.947 2805.22C866.476 2805.22 879.963 2773.41 882.491 2773.41C885.02 2773.41 903.564 2795.28 906.936 2795.28C910.307 2795.28 922.108 2805.22 927.166 2798.26C932.223 2791.3 940.652 2776.39 944.024 2776.39C947.395 2776.39 953.296 2798.26 962.568 2798.26C971.84 2798.26 977.74 2807.2 985.326 2795.28C992.912 2783.35 1005.56 2767.44 1007.24 2767.44H1021.57C1026.63 2767.44 1036.74 2776.39 1040.12 2776.39C1043.49 2776.39 1053.6 2757.5 1055.29 2750.54C1056.64 2744.98 1061.47 2740.94 1063.72 2739.61L1053.6 2732.65L1040.12 2755.51C1033.65 2752.2 1020.05 2746.57 1017.36 2750.54C1013.99 2755.51 991.227 2761.48 989.541 2767.44C987.855 2773.41 989.541 2781.36 981.955 2786.33C974.368 2791.3 962.568 2792.29 962.568 2789.31C962.568 2786.33 950.767 2764.46 947.395 2763.47C944.024 2762.47 929.694 2776.39 927.166 2776.39C924.637 2776.39 921.265 2783.35 918.736 2783.35C916.208 2783.35 892.606 2758.5 885.863 2759.49C879.12 2760.48 875.748 2761.48 869.848 2767.44C863.947 2773.41 862.262 2780.37 858.047 2783.35C854.675 2785.73 833.603 2782.35 823.488 2780.37L804.101 2783.35C801.853 2784.67 796.852 2785.93 794.829 2780.37C792.806 2774.8 781.623 2764.13 776.285 2759.49L765.327 2748.56C762.221 2750.21 756.186 2755.51 756.898 2763.47C757.788 2773.41 753.527 2787.32 749.312 2773.41C745.94 2762.27 739.478 2753.53 736.668 2750.54L724.025 2739.61Z" fill="#737471"/>
</svg>
