<svg width="3000" height="3000" viewBox="0 0 3000 3000" fill="none" xmlns="http://www.w3.org/2000/svg">
<defs>
<linearGradient id="paint0_linear_2302_18009" x1="1500" y1="0" x2="1430" y2="4783" gradientUnits="userSpaceOnUse">
<stop offset="0.151042" stop-color="#B22428"/>
<stop offset="0.421706" stop-color="white"/>
</linearGradient>
</defs>
<path d="M2105.33 1711.85L1960.84 2102.99L1929.39 2214.46L1797.61 2681.54C1813.71 2689.28 1856.13 2705.73 1896.98 2709.58C1911.18 2659.25 2018.5 2304.82 2066.99 2132.94L2124.37 1977.1L2205.73 1727.63C2192.72 1717.56 2161.98 1705.54 2152.1 1740.55L2043.28 2126.25C2031.35 2137.16 2020.98 2154.21 2007.14 2116.05C2047.06 1997.62 2128.32 1755.69 2134.03 1735.45C2139.74 1715.21 2117.28 1711.28 2105.33 1711.85Z" fill="#AF7532"/>
<path d="M2323.37 1829.2L2205.1 2248.41L2065.98 2741.48C2077.87 2749.75 2113.26 2766.63 2159.71 2767.92L2298.82 2274.85L2414.79 1863.85C2405.55 1853.37 2382.91 1835.96 2366.23 1850.15C2349.54 1864.34 2289.84 2136.72 2262.08 2271.13C2253.08 2272.78 2233.71 2273.17 2228.2 2261.57C2222.7 2249.98 2305.92 1973.17 2348.22 1836.21C2345.81 1828.89 2337.48 1817.23 2323.37 1829.2Z" fill="#E0A761"/>
<path d="M1856.93 1706.46L1729.97 2126.17L1589.82 2622.92C1603.13 2631.93 1642.31 2650.35 1692.58 2651.91L1832.74 2155.16L1951.79 1733.22C1937.96 1723.17 1908.32 1707.52 1900.36 1725.35C1892.4 1743.19 1826.37 2012.1 1794.34 2144.33C1781.25 2147.53 1756.14 2150.09 1760.46 2134.77L1877.78 1718.98C1878.56 1714.77 1875.48 1706.37 1856.93 1706.46Z" fill="#BB823D"/>
<path fill-rule="evenodd" clip-rule="evenodd" d="M1500 2900C2273.2 2900 2900 2273.2 2900 1500C2900 726.801 2273.2 100 1500 100C726.801 100 100 726.801 100 1500C100 2273.2 726.801 2900 1500 2900ZM1500 3000C2328.43 3000 3000 2328.43 3000 1500C3000 671.573 2328.43 0 1500 0C671.573 0 0 671.573 0 1500C0 2328.43 671.573 3000 1500 3000Z" fill="url(#paint0_linear_2302_18009)"/>
<path d="M2558.68 1849.66C2531.71 1838.73 2506.42 1830.77 2499.68 1829.78L2481.98 1900.36C2479.73 1911.95 2476.58 1938.53 2481.98 1952.05C2488.72 1968.94 2486.19 1998.77 2499.68 2011.69C2513.17 2024.61 2514.85 2039.52 2522.44 2046.48C2530.02 2053.44 2573.86 2093.2 2574.7 2101.15C2575.54 2109.1 2591.56 2122.02 2583.13 2132.96C2574.7 2143.89 2550.25 2171.73 2558.68 2178.68C2565.43 2184.25 2607.57 2216.79 2627.8 2232.36C2630.05 2236.67 2636.4 2245.28 2643.82 2245.28H2663.2H2705.35H2748.34C2774.47 2245.28 2752.55 2257.21 2787.95 2238.33C2823.36 2219.44 2833.47 2190.61 2833.47 2184.65C2833.47 2178.68 2824.2 2198.56 2833.47 2165.76C2842.74 2132.96 2812.4 2128.98 2833.47 2118.05C2850.33 2109.3 2854.54 2091.87 2854.54 2084.25C2858.2 2081.6 2866.51 2075.11 2870.56 2070.34C2875.62 2064.37 2884.05 2052.44 2893.32 2036.54C2902.59 2020.63 2907.65 2010.69 2913.55 1999.76C2919.45 1988.83 2915.23 2020.63 2927.03 1976.9C2938.84 1933.16 2943.89 1928.19 2941.36 1914.27C2938.84 1900.36 2940.52 1915.27 2927.03 1872.52C2913.55 1829.78 2907.65 1812.88 2902.59 1802.94C2898.54 1794.99 2890.23 1779.75 2886.57 1773.12L2878.67 1768.15C2879.3 1772.21 2879.87 1776.61 2880.2 1781.07C2880.99 1791.92 2880.35 1803.17 2875.62 1810.89C2864.66 1828.79 2790.48 1867.55 2768.57 1867.55H2738.22H2623.59C2576.78 1867.55 2574.94 1864.58 2571.77 1859.48C2570.09 1856.77 2568.04 1853.45 2558.68 1849.66Z" fill="#21231F"/>
<path d="M2700.29 1773.12L2689.33 1798.97C2684.28 1795.65 2673.99 1787.44 2673.32 1781.07C2672.64 1774.71 2648.87 1769.81 2637.07 1768.15L2615.16 1810.89C2612.35 1804.93 2606.73 1792.21 2606.73 1789.03C2606.73 1785.84 2591 1773.78 2583.13 1768.15L2558.68 1793C2557 1786.37 2553.63 1772.13 2553.63 1768.15C2553.63 1763.18 2542.67 1749.26 2537.61 1749.26C2533.57 1749.26 2528.06 1759.2 2525.81 1764.17L2517.38 1733.36L2513.17 1726.4C2512.7 1729.99 2511.4 1735.36 2509.75 1741.31L2513.17 1768.15L2517.38 1793L2542.67 1768.15L2549.41 1802.94L2574.7 1810.89L2588.19 1789.03L2605.04 1825.8L2623.59 1829.78C2629.93 1818.82 2640.96 1799.53 2643.57 1794.16C2643.41 1793.79 2643.47 1793.41 2643.82 1793C2644.34 1792.39 2644.2 1792.88 2643.57 1794.16C2644.69 1796.7 2656.58 1798.39 2663.2 1798.97L2700.29 1816.86L2712.94 1793V1781.07L2749.18 1802.94C2754.24 1798.3 2765.2 1787.44 2768.57 1781.07C2771.94 1774.71 2769.97 1761.19 2768.57 1755.23L2802.28 1781.07C2807.9 1778.42 2819.14 1772.13 2819.14 1768.15V1741.31L2840.21 1749.26L2848.64 1733.36L2854.54 1703.54C2858.2 1707.85 2865.5 1715.47 2865.5 1711.49C2865.5 1707.52 2852.02 1694.59 2845.27 1688.63V1711.49L2833.47 1741.31L2802.28 1722.43L2805.66 1768.15L2787.95 1749.26L2764.35 1741.31L2749.18 1789.03C2745.53 1783.72 2737.38 1773.12 2734.01 1773.12C2730.64 1773.12 2718.56 1757.22 2712.94 1749.26L2700.29 1773.12Z" fill="#71726D"/>
<path d="M2689.33 1825.8L2707.88 1860.6L2734.01 1849.66L2744.97 1821.83L2779.53 1836.74L2809.87 1789.03L2840.21 1816.86L2862.13 1774.12L2875.62 1789.03L2880.2 1781.07L2854.54 1755.23L2840.21 1793L2809.87 1781.07L2787.95 1798.97L2768.57 1821.83L2755.08 1810.89L2734.01 1816.86L2724.74 1829.78H2700.29L2682.59 1821.83L2658.99 1829.78V1844.69L2689.33 1825.8Z" fill="#71726D"/>
<path fill-rule="evenodd" clip-rule="evenodd" d="M2643.57 1794.16C2644.2 1792.88 2644.34 1792.39 2643.82 1793C2643.47 1793.41 2643.41 1793.79 2643.57 1794.16Z" fill="#C4C4C4"/>
<path d="M2606.73 1629.98C2586.78 1643.23 2546.04 1670.94 2542.67 1675.71C2542.29 1676.24 2541.77 1676.97 2541.12 1677.87C2534.44 1687.16 2514.7 1714.63 2513.17 1726.4L2517.38 1733.36L2525.81 1764.17C2528.06 1759.2 2533.57 1749.26 2537.61 1749.26C2542.67 1749.26 2553.63 1763.18 2553.63 1768.15C2553.63 1772.13 2557 1786.37 2558.68 1793L2583.13 1768.15C2591 1773.78 2606.73 1785.84 2606.73 1789.03C2606.73 1792.21 2612.35 1804.93 2615.16 1810.89L2637.07 1768.15C2648.87 1769.81 2672.64 1774.71 2673.32 1781.07C2673.99 1787.44 2684.28 1795.65 2689.33 1798.97L2700.29 1773.12L2712.94 1749.26C2718.56 1757.22 2730.64 1773.12 2734.01 1773.12C2737.38 1773.12 2745.53 1783.72 2749.18 1789.03L2764.35 1741.31L2787.95 1749.26L2805.66 1768.15L2802.28 1722.43L2833.47 1741.31L2845.27 1711.49V1688.63C2852.02 1694.59 2865.5 1707.52 2865.5 1711.49C2865.5 1715.47 2858.2 1707.85 2854.54 1703.54L2848.64 1733.36L2840.21 1749.26L2819.14 1741.31V1768.15C2819.14 1772.13 2807.9 1778.42 2802.28 1781.07L2768.57 1755.23C2769.97 1761.19 2771.94 1774.71 2768.57 1781.07C2765.2 1787.44 2754.24 1798.3 2749.18 1802.94L2712.94 1781.07V1793L2700.29 1816.86L2663.2 1798.97C2656.58 1798.39 2644.69 1796.7 2643.57 1794.16C2640.96 1799.53 2629.93 1818.82 2623.59 1829.78L2605.04 1825.8L2588.19 1789.03L2574.7 1810.89L2549.41 1802.94L2542.67 1768.15L2517.38 1793L2513.17 1768.15L2509.75 1741.31C2506.64 1752.51 2502.25 1765.77 2499.68 1773.12L2513.17 1793C2506.42 1804.93 2494.29 1828.99 2499.68 1829.78C2506.42 1830.77 2531.71 1838.73 2558.68 1849.66C2568.04 1853.45 2570.09 1856.77 2571.77 1859.48C2574.94 1864.58 2576.78 1867.55 2623.59 1867.55H2738.22H2768.57C2790.48 1867.55 2864.66 1828.79 2875.62 1810.89C2880.35 1803.17 2880.99 1791.92 2880.2 1781.07L2875.62 1789.03L2862.13 1774.12L2840.21 1816.86L2809.87 1789.03L2779.53 1836.74L2744.97 1821.83L2734.01 1849.66L2707.88 1860.6L2689.33 1825.8L2658.99 1844.69V1829.78L2682.59 1821.83L2700.29 1829.78H2724.74L2734.01 1816.86L2755.08 1810.89L2768.57 1821.83L2787.95 1798.97L2809.87 1781.07L2840.21 1793L2854.54 1755.23L2880.2 1781.07C2879.87 1776.61 2879.3 1772.21 2878.67 1768.15C2878.1 1764.49 2877.49 1761.11 2876.96 1758.21C2876.2 1754.04 2875.62 1750.86 2875.62 1749.26C2875.62 1742.31 2871.4 1709.5 2865.5 1697.57C2863.19 1692.91 2862.95 1690.98 2862.75 1689.41C2862.44 1686.97 2862.24 1685.39 2854.54 1675.71C2850.09 1670.11 2851.49 1666.24 2852.67 1662.96C2854.85 1656.93 2856.29 1652.92 2819.14 1643.9C2761.82 1626.4 2741.31 1598.83 2738.22 1587.24C2736.54 1581.27 2731.48 1567.36 2724.74 1559.41C2721.94 1556.11 2719.99 1553.37 2718.34 1551.06C2715.01 1546.39 2712.95 1543.51 2707.88 1541.51H2654.77C2657.58 1538.86 2660 1535.15 2647.19 1541.51C2640.29 1544.94 2634.95 1548.74 2630.43 1551.95C2624.48 1556.19 2619.95 1559.41 2615.16 1559.41C2608.41 1559.41 2606.73 1577.96 2606.73 1587.24C2590.56 1606.04 2592.84 1615.1 2606.73 1629.98Z" fill="#383A35"/>
<path d="M2535.08 1998.77C2537.78 1997.17 2546.88 1984.19 2551.1 1977.89C2554.75 1978.22 2562.22 1979.88 2562.9 1983.85C2563.57 1987.83 2571.61 2006.72 2575.54 2015.66L2600.83 1998.77C2606.17 2001.08 2617.52 2007.71 2620.22 2015.66C2623.59 2025.6 2632.86 2046.48 2636.23 2040.51C2638.93 2035.74 2651.4 2016 2657.3 2006.72C2665.17 2009.04 2681.75 2015.27 2685.12 2021.63C2689.33 2029.58 2702.82 2015.66 2706.19 2015.66C2708.89 2015.66 2719.68 2001.08 2724.74 1993.8L2753.4 2021.63L2783.74 1988.83C2790.48 1997.77 2804.81 2015.66 2808.18 2015.66C2811.56 2015.66 2822.51 1994.46 2827.57 1983.85C2830.38 1981.87 2837.18 1977.89 2841.9 1977.89C2846.62 1977.89 2860.16 1991.81 2866.35 1998.77C2869.72 1987.17 2876.63 1962.98 2877.3 1959C2878.15 1954.03 2878.15 1927.2 2886.57 1937.14C2893.32 1945.09 2900.62 1959 2903.43 1964.97V1917.26L2925.35 1925.21L2910.18 1937.14V1972.92C2910.18 1976.9 2898.38 1969.28 2892.48 1964.97L2886.57 1998.77C2874.49 2004.07 2849.49 2013.08 2846.12 2006.72C2842.74 2000.36 2832.35 2010.03 2827.57 2015.66L2803.13 2040.51L2791.33 2006.72L2773.63 2021.63L2753.4 2033.56L2724.74 2021.63L2702.82 2035.54H2675.85C2670.45 2035.54 2665.73 2026.27 2664.05 2021.63L2647.19 2052.44C2636.23 2056.42 2614.15 2063.18 2613.47 2058.41C2612.8 2053.64 2608.7 2031.9 2606.73 2021.63C2604.2 2017.65 2598.13 2010.89 2594.09 2015.66C2590.04 2020.44 2584.53 2026.27 2582.29 2028.59L2555.31 2006.72L2551.1 1993.8L2542.67 2006.72L2535.08 1998.77Z" fill="#797979"/>
<path d="M2530.02 2024.61C2531.37 2027.79 2550.25 2057.08 2559.53 2071.33L2571.33 2035.54C2577.79 2048.8 2591.39 2076.3 2594.09 2080.28C2596.78 2084.25 2621.62 2073.98 2633.7 2068.35C2637.64 2071 2646.35 2077.09 2649.72 2080.28C2653.93 2084.25 2667.42 2090.22 2669.95 2090.22C2672.48 2090.22 2685.96 2058.41 2688.49 2058.41C2691.02 2058.41 2709.56 2080.28 2712.94 2080.28C2716.31 2080.28 2728.11 2090.22 2733.17 2083.26C2738.22 2076.3 2746.65 2061.39 2750.02 2061.39C2753.4 2061.39 2759.3 2083.26 2768.57 2083.26C2777.84 2083.26 2783.74 2092.2 2791.33 2080.28C2798.91 2068.35 2811.56 2052.44 2813.24 2052.44H2827.57C2832.63 2052.44 2842.74 2061.39 2846.12 2061.39C2849.49 2061.39 2859.6 2042.5 2861.29 2035.54C2862.64 2029.98 2867.47 2025.94 2869.72 2024.61L2859.6 2017.65L2846.12 2040.51C2839.65 2037.2 2826.05 2031.57 2823.36 2035.54C2819.99 2040.51 2797.23 2046.48 2795.54 2052.44C2793.85 2058.41 2795.54 2066.36 2787.95 2071.33C2780.37 2076.3 2768.57 2077.29 2768.57 2074.31C2768.57 2071.33 2756.77 2049.46 2753.4 2048.47C2750.02 2047.47 2735.69 2061.39 2733.17 2061.39C2730.64 2061.39 2727.27 2068.35 2724.74 2068.35C2722.21 2068.35 2698.61 2043.5 2691.86 2044.49C2685.12 2045.48 2681.75 2046.48 2675.85 2052.44C2669.95 2058.41 2668.26 2065.37 2664.05 2068.35C2660.68 2070.73 2639.6 2067.35 2629.49 2065.37L2610.1 2068.35C2607.85 2069.67 2602.85 2070.93 2600.83 2065.37C2598.81 2059.8 2587.62 2049.13 2582.29 2044.49L2571.33 2033.56C2568.22 2035.21 2562.19 2040.51 2562.9 2048.47C2563.79 2058.41 2559.53 2072.32 2555.31 2058.41C2551.94 2047.27 2545.48 2038.53 2542.67 2035.54L2530.02 2024.61Z" fill="#737471"/>
<path fill-rule="evenodd" clip-rule="evenodd" d="M1282.72 2241.62C1290.71 2295.31 1321.47 2401.72 1335.85 2448.22C1356.32 2497.69 1404.92 2601.78 1435.53 2622.36C1439.82 2627.28 1456.04 2639.07 1486.56 2646.95C1517.08 2654.82 1529.1 2585.42 1531.3 2549.73C1525.04 2510.01 1509.45 2429.22 1497.23 2423.9C1485.51 2396.3 1462.06 2333.87 1451.8 2306.11C1437.2 2267.39 1402.75 2185.25 1381.73 2166.53C1370.87 2138.27 1336.56 2125.14 1320.77 2122.1C1313.67 2125.66 1298.54 2134.59 1294.8 2141.8C1292.56 2145.12 1289.82 2150.69 1287.32 2158.35C1281.62 2175.86 1277.16 2204.27 1282.72 2241.62ZM1356.28 2260.52C1336.92 2199.03 1350.03 2183.72 1359.01 2183.76C1375.46 2171.29 1410.35 2265.7 1425.75 2314.47L1491.93 2482.08C1495.4 2511.95 1497.56 2571.21 1478.4 2569.32C1459.24 2567.43 1437.66 2525.34 1429.26 2504.52L1382.09 2372.66C1381.56 2360.9 1375.65 2322.01 1356.28 2260.52Z" fill="#2B2924"/>
<path d="M1359.01 2183.76C1350.03 2183.72 1336.92 2199.03 1356.28 2260.52C1375.65 2322.01 1381.56 2360.9 1382.09 2372.66L1429.26 2504.52C1437.66 2525.34 1459.24 2567.43 1478.4 2569.32C1497.56 2571.21 1495.4 2511.95 1491.93 2482.08L1425.75 2314.47C1410.35 2265.7 1375.46 2171.29 1359.01 2183.76Z" fill="#35343A"/>
<path fill-rule="evenodd" clip-rule="evenodd" d="M450.314 1138.96C509.008 1100.38 531.014 1153.59 534.68 1185.02C535.739 1232.5 543.157 1338.36 564.352 1382.04C585.547 1425.72 625.994 1509.96 643.568 1546.62L678.433 1592.59C641.643 1620.87 563.353 1680.78 544.518 1694.15C548.879 1726.43 592.272 1768.17 613.424 1785.01L659.145 1750.34L710.547 1711.36L768.419 1741.59L830.462 1823.4L923.678 1928.9L947.239 1953.22L924.514 1970.45C920.017 1975.58 910.661 1988.49 909.213 1999.16C907.765 2009.84 904.717 2017.21 903.373 2019.56L872.262 2043.15C887.036 2068.44 922.472 2120.94 946.026 2128.62C967.191 2106.18 989.919 2078.98 998.637 2068.19C1007.54 2058.59 1024.21 2038.65 1019.62 2035.74L1080.53 2072.79C1088.79 2085.92 1110.2 2114.27 1129.84 2122.64L1130.07 2122.77C1154.79 2136.92 1170.58 2145.96 1187.42 2149.68C1200.93 2152.66 1223.55 2155.92 1233.17 2157.18L1287.32 2158.35C1281.62 2175.86 1277.16 2204.27 1282.72 2241.62C1290.71 2295.31 1321.47 2401.72 1335.85 2448.22C1356.32 2497.69 1404.92 2601.78 1435.53 2622.36C1417.85 2622.08 1368.01 2621.22 1310.13 2619.96C1257.34 2618.81 1177.8 2600.03 1129.12 2588.53L1129.12 2588.53C1111.07 2584.26 1097.26 2581 1090.63 2580.02C1071.03 2577.09 913.766 2491.58 837.585 2449.2C823.561 2440.25 768.296 2396.71 659.435 2294.08C550.573 2191.44 465.589 2021.43 436.705 1949.25C426.408 1903.27 399.8 1799 375.737 1749.74C351.674 1700.48 335.303 1556.51 330.126 1490.68L349.903 1325.16C358.918 1279.17 391.62 1177.54 450.314 1138.96Z" fill="#3B3A3B"/>
<path d="M716.038 1564.07L678.433 1592.59C641.643 1620.87 563.353 1680.78 544.518 1694.15C548.879 1726.43 592.272 1768.17 613.424 1785.01L659.145 1750.34L710.547 1711.36C725.934 1694.94 758.223 1660.83 764.28 1655.78C770.336 1650.73 780.58 1653.11 784.944 1654.93L807.686 1678.74L940.557 1853.94C945.608 1860.6 959.454 1872.49 965.746 1877.61C972.317 1883.84 986.117 1896.94 988.746 1899.5C991.375 1902.07 981.415 1914.19 976.107 1919.92L947.239 1953.22L924.514 1970.45C920.017 1975.58 910.661 1988.49 909.213 1999.16C907.765 2009.84 904.717 2017.21 903.373 2019.56L872.262 2043.15C887.036 2068.44 922.472 2120.94 946.026 2128.62C967.191 2106.18 989.919 2078.98 998.637 2068.19C1007.54 2058.59 1024.21 2038.65 1019.62 2035.74C1025.68 2031.15 1033.45 2016.51 1036.57 2009.77L1043.82 1996.29L1073.04 1974.13L1093.23 1982.77C1102.05 1986.35 1122.08 1993.96 1131.67 1995.81C1160.14 2021.55 1165.21 2008.57 1167.96 2012.19C1170.15 2015.09 1177.94 2012.99 1181.55 2011.58C1184.44 2009.01 1192.31 2002.5 1200.76 1997.01C1209.21 1991.52 1199.81 1978.34 1194.06 1972.44C1182.68 1965.49 1156.21 1950.52 1141.38 1946.25C1140.86 1933.42 1124.97 1906.81 1117.09 1895.11L1023.52 1777.91L892.022 1604.52C866.609 1574.76 815.422 1510.37 813.98 1490.94C812.538 1471.5 798.8 1395.06 792.111 1359.27C791.278 1356.86 787.477 1350.02 778.934 1341.9C770.391 1333.78 735.037 1326.53 718.428 1323.92C711.615 1322.06 693.577 1317.34 675.925 1313.39C658.021 1304.62 638.358 1308.62 630.764 1311.72C627.354 1316.59 623.663 1330.68 636.188 1348.09C648.713 1365.51 681.922 1392.66 696.961 1404.07C701.799 1408.76 712.481 1421.94 716.505 1437.14C724.411 1447.56 719.488 1526.11 716.038 1564.07Z" fill="#554E4B"/>
<path d="M766.262 1705.59C770.132 1699.01 795.491 1684.95 807.686 1678.74L784.944 1654.93C780.58 1653.11 770.336 1650.73 764.28 1655.78C758.223 1660.83 725.934 1694.94 710.547 1711.36L768.419 1741.59C766.087 1732.34 762.392 1712.18 766.262 1705.59Z" fill="#554E4B"/>
<path d="M1071.61 2041.36C1068.45 2024.6 1084.7 1995.32 1093.23 1982.77L1073.04 1974.13L1043.82 1996.29L1036.57 2009.77C1033.45 2016.51 1025.68 2031.15 1019.62 2035.74L1080.53 2072.79C1078.88 2069.3 1074.77 2058.12 1071.61 2041.36Z" fill="#554E4B"/>
<path d="M248.378 1468.69C243.059 1476.29 233.398 1508 237.298 1574.13C237.298 1588.54 246.128 1594.31 254.361 1596.1C257.696 1596.83 260.934 1596.9 263.447 1596.63C310.13 1599.25 408.417 1602.93 428.095 1596.63C466.412 1598.49 536.595 1599.17 568.368 1590.91C576.592 1588.77 582.243 1586.04 584.102 1582.57C593.143 1565.7 590.38 1536.55 587.869 1524.09C587.499 1504.97 582.994 1464.59 567.925 1456.04C551.615 1450.64 501.002 1450.98 477.734 1451.82L329.262 1456.04L260.344 1460.26C256.355 1461.29 248.378 1464.42 248.378 1468.69Z" fill="#B27134"/>
<path d="M428.095 1596.63C408.417 1602.93 310.13 1599.25 263.447 1596.63C260.934 1596.9 257.696 1596.83 254.361 1596.1V1606.19L228.877 1632.94L217.132 1645.27L206.385 1652.09L195.637 1658.91L190.54 1662.14L185.665 1665.89L153.976 1690.26L110.321 1725.97C93.5532 1741.99 59.8405 1780.68 59.1314 1807.23C58.4222 1833.77 60.7564 1851.09 62.0122 1856.43C64.1543 1872.27 70.8318 1908.11 80.405 1924.76C86.2552 1940.05 90.2292 1952.31 91.485 1956.53C92.8884 1969.18 96.3601 1995.33 99.0193 1998.7C102.343 2002.92 113.645 2037.79 120.293 2042.57C122.243 2052.24 134.401 2074.71 140.237 2084.74L188.767 2177.53C194.898 2189.71 207.736 2218.92 210.041 2238.26C213.941 2250.86 217.723 2261.69 219.127 2265.54V2290.84C214.325 2295.81 204.545 2306.59 203.836 2309.96C202.95 2314.18 193.643 2352.42 198.739 2370.13C202.817 2384.3 209.893 2398.53 212.922 2403.87C226.809 2421.31 259.812 2456.68 280.731 2458.7C302.005 2467.47 320.915 2472.85 327.71 2474.45C353.194 2479.04 406.644 2487.38 416.572 2484.01C428.627 2484.01 471.233 2477.63 491.03 2474.45C510.235 2469.2 552.147 2455.95 566.152 2444.92C580.157 2433.9 591.193 2423.84 594.96 2420.18L621.552 2382.22L626.87 2375.76C623.62 2349.33 612.023 2292.42 591.636 2276.22C591.636 2244.95 607.443 2209.96 615.347 2196.37L638.172 2139.01L669.196 2084.18L691.356 2034.13L716.175 1964.4L737.449 1918.57C745.279 1897.95 760.717 1853.56 759.83 1840.97C758.944 1828.37 759.461 1811.16 759.83 1804.13C757.984 1785.86 749.105 1744.86 728.363 1727.09C707.621 1709.32 695.049 1696.82 691.356 1692.79L667.645 1677.04C663.287 1672.26 653.684 1662.08 650.138 1659.61C648.138 1658.21 643.08 1655.26 637.95 1652.35C635.409 1650.9 632.851 1649.47 630.638 1648.24C629.401 1647.55 628.271 1646.92 627.314 1646.4L611.137 1634.3L608.699 1632.53L597.619 1624.46L584.102 1614.62L572.357 1603.66H568.368V1590.91C536.595 1599.17 466.412 1598.49 428.095 1596.63Z" fill="#905836"/>
<path d="M185.665 1665.89L190.54 1662.14L195.637 1658.91C188.989 1655.77 177.687 1642.68 185.665 1615.47C185.501 1614.59 185.344 1613.52 185.226 1612.32C184.707 1607.07 184.934 1599.48 188.546 1596.1C186.404 1593.18 180.568 1592.97 174.363 1615.47C168.159 1637.96 179.312 1658.45 185.665 1665.89Z" fill="#D8B66C"/>
<path d="M219.57 1603.38C218.329 1601.13 216.098 1602.44 215.138 1603.38C217.286 1608.2 218.702 1612.78 219.57 1617.04C220.519 1621.7 220.813 1625.98 220.694 1629.76C220.463 1637.06 218.691 1642.5 217.132 1645.27L228.877 1632.94C230.712 1631.01 221.121 1606.19 219.57 1603.38Z" fill="#D8B66C"/>
<path d="M612.688 1522.68L621.774 1543.21L643.823 1517.48L640.61 1499.62L639.377 1486.36L623.99 1517.48L612.369 1494.23C612.743 1506.53 612.959 1517.98 612.688 1522.68Z" fill="#CBAA7C"/>
<path d="M612.369 1494.23L623.99 1517.48L639.377 1486.36L637.223 1463.19L623.99 1494.23L611.72 1475.68C611.948 1481.56 612.179 1488 612.369 1494.23Z" fill="#D8B66C"/>
<path d="M611.137 1461.67C611.309 1465.51 611.513 1470.36 611.72 1475.68L623.99 1494.23L637.223 1463.19L635.07 1440.01L623.99 1468.65L611.137 1461.67Z" fill="#D8B66C"/>
<path d="M611.137 1461.67L623.99 1468.65L635.07 1440.01L628.865 1412.71L619.779 1445.59L608.699 1436.08C609.648 1445.61 610.49 1454.52 611.137 1461.67Z" fill="#CBAA7C"/>
<path d="M608.699 1436.08L619.779 1445.59L628.865 1412.71L624.654 1394.18L616.677 1422.25L606.271 1412.71C607.118 1420.5 607.942 1428.48 608.699 1436.08Z" fill="#CBAA7C"/>
<path d="M606.271 1412.71L616.677 1422.25L624.654 1394.18C623.867 1389.61 622.87 1383.86 621.774 1377.58L612.688 1399.76L604.153 1394.18C604.857 1400 605.572 1406.29 606.271 1412.71Z" fill="#D8B66C"/>
<path d="M604.153 1394.18L612.688 1399.76L621.774 1377.58C620.176 1368.42 618.365 1358.13 616.677 1348.71L611.358 1384.86L600.505 1368.8C601.581 1374.27 602.85 1383.43 604.153 1394.18Z" fill="#D8B66C"/>
<path d="M599.17 1363.82C599.565 1364.58 600.015 1366.31 600.505 1368.8L611.358 1384.86L616.677 1348.71C615.385 1341.49 614.165 1334.78 613.167 1329.47L606.271 1351.96L594.256 1341.56C596.28 1352.6 597.901 1361.35 599.17 1363.82Z" fill="#CBAA7C"/>
<path d="M594.256 1341.56L606.271 1351.96L613.167 1329.47C612.419 1325.48 611.795 1322.28 611.358 1320.24C611.284 1317.1 609.15 1309.14 606.271 1299.76L600.505 1325.53L589.013 1314.56C590.939 1323.45 592.634 1332.7 594.116 1340.79L594.256 1341.56Z" fill="#CBAA7C"/>
<path d="M589.013 1314.56L600.505 1325.53L606.271 1299.76C603.565 1290.95 600.201 1280.88 597.268 1272.39L594.256 1299.76H585.422C586.7 1304.37 587.895 1309.41 589.013 1314.56Z" fill="#D8B66C"/>
<path d="M577.232 1280.03C580.275 1283.74 582.996 1290.99 585.422 1299.76H594.256L597.268 1272.39C595.932 1268.52 594.685 1264.98 593.63 1262.03L590.248 1255.8L585.422 1280.03H577.232Z" fill="#D8B66C"/>
<path d="M577.232 1280.03H585.422L590.248 1255.8L582.622 1241.74L577.232 1262.03L567.925 1259.19L568.629 1260.8C572.001 1268.49 575.004 1275.34 577.232 1280.03Z" fill="#CBAA7C"/>
<path d="M567.925 1259.19L577.232 1262.03L582.622 1241.74L573.318 1224.59L571.561 1245.4L558.396 1237.79C561.652 1244.91 564.92 1252.34 567.925 1259.19Z" fill="#CBAA7C"/>
<path d="M558.396 1237.79L571.561 1245.4L573.318 1224.59L562.972 1205.52L562.032 1224.59H552.15C554.177 1228.69 556.284 1233.18 558.396 1237.79Z" fill="#D8B66C"/>
<path d="M540.668 1205.52C543.556 1208.24 547.656 1215.49 552.15 1224.59H562.032L562.972 1205.52L558.396 1197.08C556.142 1193.75 552.803 1188.94 548.919 1183.54L552.15 1205.52H540.668Z" fill="#D8B66C"/>
<path d="M540.668 1205.52H552.15L548.919 1183.54C545.661 1179 542.019 1174.05 538.312 1169.2L540.668 1192.47H529.235C534.176 1198.43 538.326 1203.31 540.668 1205.52Z" fill="#CBAA7C"/>
<path d="M529.235 1192.47H540.668L538.312 1169.2C535.271 1165.22 532.187 1161.31 529.235 1157.75L531.451 1179.82H518.82C520.353 1181.68 521.877 1183.53 523.369 1185.35C525.4 1187.82 527.374 1190.22 529.235 1192.47Z" fill="#CBAA7C"/>
<path d="M476.847 1108.79C474.557 1107.67 467.097 1103.9 455.574 1097.83L459.653 1116.06L448.794 1125.99C453.737 1127.72 458.224 1129.69 462.278 1131.75L481.148 1124.21L476.847 1108.79Z" fill="#D8B66C"/>
<path d="M476.847 1140.56L495.109 1135.18L493.058 1120.88C486.856 1115.96 481.018 1111.68 476.847 1108.79L481.148 1124.21L462.278 1131.75C467.968 1134.65 472.803 1137.73 476.847 1140.56Z" fill="#CBAA7C"/>
<path d="M491.916 1151.25H508.405L505.967 1131.75C501.775 1127.98 497.33 1124.28 493.058 1120.88L495.109 1135.18L476.847 1140.56C480.025 1142.79 482.714 1144.87 484.944 1146.59C488.233 1149.14 490.525 1150.91 491.916 1151.25Z" fill="#CBAA7C"/>
<path d="M491.916 1151.25C494.24 1151.82 499.581 1157.28 505.967 1164.58L521.036 1169.2L523.605 1151.25C520.164 1145.46 513.47 1138.5 505.967 1131.75L508.405 1151.25H491.916Z" fill="#D8B66C"/>
<path d="M518.82 1179.82H531.451L529.235 1157.75C527.284 1155.4 525.39 1153.21 523.605 1151.25L521.036 1169.2L505.967 1164.58C510 1169.18 514.45 1174.52 518.82 1179.82Z" fill="#D8B66C"/>
<path d="M448.794 1125.99L459.653 1116.06L455.574 1097.83C450.791 1095.31 442.917 1093.99 434.39 1093.4L444.805 1112.68L431.953 1121.59C438.072 1122.68 443.678 1124.21 448.794 1125.99Z" fill="#D8B66C"/>
<path d="M431.953 1121.59L444.805 1112.68L434.39 1093.4C429.129 1093.04 423.62 1092.95 418.435 1093.03L427.964 1108.79L412.895 1119.79C419.736 1119.89 426.081 1120.54 431.953 1121.59Z" fill="#CBAA7C"/>
<path d="M412.895 1119.79L427.964 1108.79L418.435 1093.03C411.777 1093.12 405.654 1093.49 401.282 1093.89L412.895 1105.93L398.491 1120.36C403.519 1119.9 408.318 1119.72 412.895 1119.79Z" fill="#CBAA7C"/>
<path d="M393.747 1120.88C395.351 1120.68 396.932 1120.51 398.491 1120.36L412.895 1105.93L401.282 1093.89C396.464 1095.64 389.513 1098.4 382.182 1101.7L393.747 1108.79L382.182 1124.21C386.025 1122.51 389.885 1121.37 393.747 1120.88Z" fill="#D8B66C"/>
<path d="M382.182 1124.21L393.747 1108.79L382.182 1101.7C373.327 1105.7 363.919 1110.49 357.052 1115.28L373.007 1112.68L365.395 1135.18C370.925 1130.45 376.536 1126.71 382.182 1124.21Z" fill="#D8B66C"/>
<path d="M357.052 1115.28C354.35 1117.17 352.041 1119.05 350.314 1120.88C346.539 1122.69 341.232 1128.14 335.482 1135.18L350.314 1128.99L353.201 1147.27C357.209 1142.76 361.28 1138.69 365.395 1135.18L373.007 1112.68L357.052 1115.28Z" fill="#CBAA7C"/>
<path d="M350.314 1128.99L335.482 1135.18C330.034 1141.85 324.189 1149.95 318.874 1157.75L335.482 1151.25L339.56 1164.58C344.004 1158.31 348.56 1152.49 353.201 1147.27L350.314 1128.99Z" fill="#CBAA7C"/>
<path d="M318.874 1157.75C313.73 1165.3 309.083 1172.56 305.772 1177.96L322.039 1169.2L319.403 1197.08C325.762 1185.55 332.519 1174.51 339.56 1164.58L335.482 1151.25L318.874 1157.75Z" fill="#D8B66C"/>
<path d="M322.039 1169.2L305.772 1177.96C301.811 1183.03 295.265 1192.78 288.515 1205.52L305.772 1192.47L308.197 1218.68C311.765 1211.39 315.51 1204.15 319.403 1197.08L322.039 1169.2Z" fill="#D8B66C"/>
<path d="M305.772 1192.47L288.515 1205.52C284.784 1212.56 280.991 1220.51 277.538 1229.09L294.339 1218.68L299.263 1237.79C302.095 1231.45 305.079 1225.05 308.197 1218.68L305.772 1192.47Z" fill="#CBAA7C"/>
<path d="M277.538 1229.09C274.77 1235.96 272.219 1243.25 270.094 1250.79L282.594 1245.4L289.004 1262.03C292.14 1254.2 295.573 1246.05 299.263 1237.79L294.339 1218.68L277.538 1229.09Z" fill="#CBAA7C"/>
<path d="M282.594 1245.4L270.094 1250.79C268.105 1257.85 265.825 1265.13 263.4 1272.39L275.634 1269.01L281.089 1282.79C283.453 1276.25 286.102 1269.28 289.004 1262.03L282.594 1245.4Z" fill="#D8B66C"/>
<path d="M275.634 1269.01L263.4 1272.39C260.512 1281.02 257.418 1289.61 254.361 1297.71L268.855 1285.04L275.634 1298.59C277.229 1293.72 279.054 1288.42 281.089 1282.79L275.634 1269.01Z" fill="#CBAA7C"/>
<path d="M268.855 1285.04L254.361 1297.71C252.326 1303.1 250.308 1308.27 248.378 1313.09L263.4 1305.85L266.574 1327.22L275.634 1298.59L268.855 1285.04Z" fill="#D8B66C"/>
<path d="M248.378 1313.09C243.923 1324.23 239.936 1333.51 237.298 1339.36L252.678 1324.69L261.325 1343.81L266.574 1327.22L263.4 1305.85L248.378 1313.09Z" fill="#D8B66C"/>
<path d="M252.678 1324.69L237.298 1339.36C236.917 1341 235.513 1346.06 232.54 1355.9L248.378 1348.02L254.361 1365.81L261.325 1343.81L252.678 1324.69Z" fill="#CBAA7C"/>
<path d="M248.378 1348.02L232.54 1355.9C231.049 1360.83 229.164 1366.96 226.814 1374.45L240.4 1365.81L249.313 1381.76L254.361 1365.81L248.378 1348.02Z" fill="#CBAA7C"/>
<path d="M240.4 1365.81L226.814 1374.45C225.461 1378.77 223.955 1383.54 222.281 1388.79L235.394 1387.11L243.448 1400.3L249.313 1381.76L240.4 1365.81Z" fill="#D8B66C"/>
<path d="M222.281 1388.79C221.422 1391.49 220.519 1394.32 219.57 1397.28C217.919 1402.42 216.45 1407.18 215.138 1411.6L226.814 1404.82L238.235 1427.88C239.027 1421.23 239.775 1415.05 240.4 1409.93L243.448 1400.3L235.394 1387.11L222.281 1388.79Z" fill="#CBAA7C"/>
<path d="M226.814 1404.82L215.138 1411.6C211.942 1422.36 209.682 1431.08 208.025 1438.28L222.281 1427.88L234.94 1456.04C235.99 1446.84 237.154 1436.93 238.235 1427.88L226.814 1404.82Z" fill="#D8B66C"/>
<path d="M222.281 1427.88L208.025 1438.28C205.818 1447.87 204.682 1454.78 203.833 1460.26L215.138 1451.82L232.861 1474.83C233.436 1469.39 234.156 1462.91 234.94 1456.04L222.281 1427.88Z" fill="#CBAA7C"/>
<path d="M215.138 1451.82L203.833 1460.26C203.734 1460.9 203.639 1461.52 203.546 1462.12C202.974 1465.85 202.504 1468.92 201.842 1471.79C201.164 1474.72 200.444 1479.61 199.695 1485.52L217.132 1477.64L230.511 1499.57C231.224 1494.86 231.645 1491.38 231.536 1490.34C231.423 1489.27 231.967 1483.3 232.861 1474.83L215.138 1451.82Z" fill="#D8B66C"/>
<path d="M217.132 1477.64L199.695 1485.52C198.99 1491.07 198.26 1497.52 197.517 1504.09C197.358 1505.49 197.2 1506.89 197.04 1508.29L212.126 1497.33L227.308 1518.69C228.518 1511.87 229.702 1504.92 230.511 1499.57L217.132 1477.64Z" fill="#CBAA7C"/>
<path d="M212.126 1497.33L197.04 1508.29C196.315 1514.67 195.58 1521 194.847 1526.57L212.126 1518.69L224.002 1536.74C224.912 1531.93 226.122 1525.37 227.308 1518.69L212.126 1497.33Z" fill="#D8B66C"/>
<path d="M194.847 1526.57C194.145 1531.89 193.445 1536.52 192.756 1539.83L206.385 1536.74L222.281 1553.87L224.002 1536.74L212.126 1518.69L194.847 1526.57Z" fill="#D8B66C"/>
<path d="M206.385 1536.74L192.756 1539.83C191.696 1544.92 190.84 1553.42 190.179 1562.56L203.833 1553.87L219.57 1571.1L221.121 1565.42L222.281 1553.87L206.385 1536.74Z" fill="#CBAA7C"/>
<path fill-rule="evenodd" clip-rule="evenodd" d="M618.262 1575.9L618.671 1575.54C618.527 1575.65 618.391 1575.77 618.262 1575.9Z" fill="#C4C4C4"/>
<path d="M194.086 1649.21C196.745 1648.98 202.137 1649.11 204.501 1649.21L206.385 1652.09L217.132 1645.27L208.025 1629.76L192.756 1648.57C193.203 1649.01 193.649 1649.24 194.086 1649.21Z" fill="#CBAA7C"/>
<path d="M186.97 1632.94C187.059 1633.58 187.143 1634.13 187.216 1634.59C188.204 1638.74 190.482 1646.32 192.756 1648.57L208.025 1629.76L217.132 1645.27C218.691 1642.5 220.463 1637.06 220.694 1629.76L203.833 1617.04L186.97 1632.94Z" fill="#D8B66C"/>
<path d="M185.226 1612.32C185.344 1613.52 185.501 1614.59 185.665 1615.47C185.665 1622.03 186.427 1629.06 186.97 1632.94L203.833 1617.04L220.694 1629.76C220.813 1625.98 220.519 1621.7 219.57 1617.04L201.842 1600.52L185.226 1612.32Z" fill="#CBAA7C"/>
<path d="M215.138 1603.38V1587.35L201.842 1574.13L188.93 1585.05C188.754 1589.29 188.626 1593.09 188.546 1596.1C184.934 1599.48 184.707 1607.07 185.226 1612.32L201.842 1600.52L219.57 1617.04C218.702 1612.78 217.286 1608.2 215.138 1603.38Z" fill="#CBAA7C"/>
<path d="M203.833 1553.87L190.179 1562.56C189.631 1570.14 189.216 1578.16 188.93 1585.05L201.842 1574.13L215.138 1587.35L219.57 1571.1L203.833 1553.87Z" fill="#D8B66C"/>
<path d="M598.949 1611.25L597.619 1624.46L608.699 1632.53V1628.5V1624.46C607.087 1617.44 605.849 1601.98 613.796 1596.35C613.796 1593.79 615.222 1591.91 616.795 1590.68L616.824 1590.65C617.444 1590.17 618.086 1589.78 618.671 1589.5C619.076 1589.3 619.454 1589.14 619.779 1589.04C620.196 1585.94 622.11 1579.76 626.432 1579.76C623.615 1579.16 620.303 1576.9 618.671 1575.54L618.262 1575.9C618.391 1575.77 618.527 1575.65 618.671 1575.54C618.695 1575.17 618.724 1574.78 618.758 1574.37C609.426 1581.34 601.664 1601.86 598.949 1611.25Z" fill="#D8B66C"/>
<path d="M643.712 1643.58C644.776 1640.43 644.155 1631.77 643.712 1627.84C643.585 1625.69 643.487 1622.3 643.661 1619.8C646.676 1610.7 651.926 1590.15 648.808 1580.76C644.741 1605.06 637.765 1614.83 636.224 1616.59C635.975 1621.54 635.476 1626.05 634.938 1629.52C634.908 1629.71 634.878 1629.9 634.848 1630.09L630.638 1648.24C632.851 1649.47 635.409 1650.9 637.95 1652.35C639.428 1650.74 642.648 1646.73 643.712 1643.58Z" fill="#D8B66C"/>
<path d="M612.688 1522.68C612.156 1531.9 610.398 1540.21 609.586 1543.21L607.259 1553.47L623.73 1558.68C623.815 1558.67 623.902 1558.66 623.99 1558.67C625.171 1558.2 627.668 1557.6 628.2 1558.95L648.808 1551.31C648.199 1545.08 647.509 1539.11 647.036 1535.33L643.823 1517.48L621.774 1543.21L612.688 1522.68Z" fill="#CBAA7C"/>
<path d="M595.625 1590.91C591.725 1604.33 596.216 1610.06 598.949 1611.25C601.664 1601.86 609.426 1581.34 618.758 1574.37C618.941 1572.16 619.273 1569.41 619.779 1566.83C620.602 1562.63 621.885 1558.88 623.73 1558.68L607.259 1553.47L604.932 1563.73C604.094 1565.7 602.468 1569.86 600.505 1575.54C599.007 1579.88 597.313 1585.1 595.625 1590.91Z" fill="#CBAA7C"/>
<path d="M616.677 1608.44C615.717 1606.19 613.796 1600.62 613.796 1596.35C605.849 1601.98 607.087 1617.44 608.699 1624.46V1628.5C617.298 1631.86 634.842 1634.18 636.224 1616.59C637.765 1614.83 644.741 1605.06 648.808 1580.76C649.299 1577.83 649.747 1574.69 650.138 1571.32C650.138 1566.44 649.53 1558.7 648.808 1551.31L628.2 1558.95C628.227 1559.02 628.256 1559.11 628.287 1559.21C628.988 1561.63 630.352 1573.02 628.865 1579.76C628.147 1579.97 627.314 1579.95 626.432 1579.76C622.11 1579.76 620.196 1585.94 619.779 1589.04C625.452 1587.54 628.2 1593.85 628.865 1597.19C627.757 1598.69 624.787 1602.36 621.774 1605.06C619.646 1608.89 617.489 1608.91 616.677 1608.44Z" fill="#CBAA7C"/>
<path d="M145.646 1822.64C204.96 1835.67 325.009 1861.44 330.682 1860.32C337.773 1858.91 456.993 1845.14 484.472 1843.73C511.95 1842.32 629.841 1822.64 640.7 1822.64C649.387 1822.64 723.948 1813.46 760.142 1808.86L752.829 1851.32C750.983 1856.38 745.339 1868.02 737.539 1874.1C727.789 1881.69 658.428 1893.5 640.7 1895.18C622.972 1896.87 609.676 1899.68 569.123 1902.78C528.57 1905.87 559.816 1902.78 498.876 1902.78C437.936 1902.78 441.481 1904.18 418.878 1910.37C396.275 1916.55 396.275 1917.68 371.234 1919.36C346.194 1921.05 220.99 1919.36 200.602 1919.36C180.215 1919.36 127.918 1910.37 107.53 1902.78C91.2206 1896.7 68.8243 1846.82 59.6648 1822.64L68.0856 1808.86H90.6888C96.539 1808.86 129.764 1818.05 145.646 1822.64Z" fill="#A96135"/>
<path d="M121.27 1995.28C145.646 2002.03 285.032 2012.43 307.857 2012.43C330.682 2012.43 408.241 2008.78 438.379 2002.03C468.517 1995.28 486.245 1987.69 527.684 1986.28C569.123 1984.88 612.778 1980.66 640.7 1978.13C668.621 1975.6 702.748 1969.98 696.543 1978.13C691.579 1984.65 706.293 1980.85 714.271 1978.13C708.066 1991.34 694.194 2019.35 688.344 2025.65C681.031 2033.52 653.109 2054.33 640.7 2065.01C628.29 2075.7 591.726 2092.85 580.425 2096.78C569.123 2100.72 559.594 2103.53 535.883 2104.66C512.172 2105.78 503.529 2112.53 484.472 2104.66C465.414 2096.78 444.584 2104.94 429.072 2096.78C413.56 2088.63 391.621 2084.98 377.217 2083.57C362.814 2082.16 353.506 2078.51 330.682 2075.7C307.857 2072.88 321.153 2072.88 264.202 2065.01C207.25 2057.14 187.75 2050.67 173.124 2050.67H137.668L121.27 2037.46L107.53 2002.03L121.27 1995.28Z" fill="#C68158"/>
<path d="M259.991 1478.49V1501.54C259.991 1503.12 264.275 1502.2 266.418 1501.54V1478.49H259.991Z" fill="#CB7D34"/>
<path d="M295.226 1478.49V1501.54H305.641V1478.49H295.226Z" fill="#CB7D34"/>
<path d="M335.114 1478.49H348.188L340.875 1501.54H327.801L335.114 1478.49Z" fill="#CB7D34"/>
<path d="M371.234 1478.49H386.746V1501.54H365.251L371.234 1482.7L368.575 1475.39L371.234 1478.49Z" fill="#CB7D34"/>
<path d="M415.776 1478.49L433.947 1482.7L429.515 1501.54L411.344 1508.01V1482.7L415.776 1478.49Z" fill="#CB7D34"/>
<path d="M473.835 1471.18L503.751 1475.39L498.876 1508.01H468.517L473.835 1471.18Z" fill="#CB7D34"/>
<path d="M533.889 1471.18C546.52 1475.39 565.799 1472.3 565.799 1475.39C565.799 1477.87 559.742 1501.92 556.713 1513.63L528.792 1508.01L533.889 1475.39V1471.18Z" fill="#CB7D34"/>
<path d="M522.144 1546.81H551.617V1562.84C551.617 1567.34 526.945 1570.34 514.609 1571.27L522.144 1546.81Z" fill="#CB7D34"/>
<path d="M479.375 1540.34C483.453 1541.02 497.325 1540.63 503.751 1540.34L497.546 1567.9L468.517 1571.27L479.375 1540.34Z" fill="#CB7D34"/>
<path d="M423.089 1540.34H451.675C450.272 1544.84 447.243 1554.74 446.357 1558.34C445.47 1561.94 430.475 1568.46 423.089 1571.27L423.089 1540.34Z" fill="#CB7D34"/>
<path d="M370.126 1533.88L387.854 1535.85L391.621 1546.53L385.417 1561.43L370.126 1565.37C368.28 1560.21 364.897 1549.57 366.138 1548.22C367.378 1546.87 369.314 1538.1 370.126 1533.88Z" fill="#CB7D34"/>
<path d="M312.732 1532.47H339.767C337.92 1537.72 334.138 1548.84 333.784 1551.31C333.341 1554.4 327.358 1569.87 322.482 1566.49C317.607 1563.12 307.857 1558.9 308.078 1556.93C308.256 1555.36 311.255 1539.97 312.732 1532.47Z" fill="#CB7D34"/>
<path d="M271.514 1533.88C273.11 1532.75 282.964 1533.41 287.691 1533.88C286.583 1537.81 284.057 1546.81 282.816 1551.31C281.265 1556.93 272.401 1567.62 270.628 1566.49C268.855 1565.37 267.526 1545.12 268.634 1542.03C269.52 1539.56 270.923 1535.56 271.514 1533.88Z" fill="#CB7D34"/>
<path fill-rule="evenodd" clip-rule="evenodd" d="M227.901 1782.7C294.199 1960.95 812.155 1921.82 832.873 2060.95L779.005 2256.59C1325.5 2424.78 1643.07 2416.16 2225.14 2256.59L2158.84 2065.29C2262.43 1895.73 2647.79 1978.34 2776.24 1774C2859.12 1865.3 2780.39 2034.86 2796.96 2139.2L3000 2308.76C2902.5 2399.55 2840.8 2438.81 2718.23 2491.36L2743.09 2621.79C2312.14 2916.79 2043.55 2975.86 1537.29 2973.96C902.726 2961.39 610.985 2896.41 261.05 2626.14C260.448 2571.97 261.066 2541.58 290.055 2487.02C159.245 2432.36 87.1931 2400.64 0 2308.76C88.7611 2254.86 142.477 2231.9 203.039 2126.16C186.343 1932.79 174.725 1819.3 227.901 1782.7ZM261.05 2113.12C242.302 2019.45 239.561 1971.49 244.475 1891.39C372.928 2000.08 592.541 1982.69 750 2047.9C796.406 2097.11 789.644 2110.31 729.282 2113.12C624.138 2074.5 568.906 2069.15 472.376 2069.64C447.755 2060.74 329.534 2307.65 306.63 2434.85C210.05 2390.21 163.478 2362.38 91.1602 2308.76C189.943 2258.01 223.269 2212.03 261.05 2113.12ZM720.994 2247.9L750 2169.64C646.36 2142.06 593.985 2135.89 501.381 2126.16C566.29 2190.69 612.787 2217.28 720.994 2247.9ZM319.061 2591.36C362.454 2408.12 398.076 2320.56 472.376 2178.33C845.534 2389.96 1092.13 2410.96 1537.29 2434.85C1942.14 2386.07 2179.44 2391.95 2535.91 2187.03C2617.24 2341.89 2638.64 2436.2 2676.8 2604.4C2273.43 2858.35 2019.29 2912.01 1537.29 2917.44C920.474 2943.36 575.967 2778.31 319.061 2591.36ZM2254.14 2169.64C2258.48 2203.5 2264.27 2219.52 2279.01 2243.55C2399.45 2208.33 2431.44 2175.95 2498.62 2121.81C2401.86 2132.73 2347.76 2140.45 2254.14 2169.64ZM2755.52 1887.04C2614.64 1991.38 2291.44 1973.28 2225.14 2082.68C2206.59 2125.18 2374.31 2073.99 2519.34 2073.99C2579.55 2109.56 2618.92 2221.9 2689.23 2426.15C2750.95 2421.19 2806.51 2385.1 2912.98 2308.76C2843.44 2272.71 2804.79 2249.3 2743.09 2139.2C2718.23 2043.56 2762.77 1980.94 2755.52 1887.04Z" fill="black"/>
<path d="M472.376 2178.33C398.076 2320.56 362.454 2408.12 319.061 2591.36C575.967 2778.31 920.474 2943.36 1537.29 2917.44C2019.29 2912.01 2273.43 2858.35 2676.8 2604.4C2638.64 2436.2 2617.24 2341.89 2535.91 2187.03C2179.44 2391.95 1942.14 2386.07 1537.29 2434.85C1092.13 2410.96 845.534 2389.96 472.376 2178.33Z" fill="#D6898B"/>
<path d="M750 2169.64L720.994 2247.9C612.787 2217.28 566.29 2190.69 501.381 2126.16C593.985 2135.89 646.36 2142.06 750 2169.64Z" fill="#D6898B"/>
<path d="M244.475 1891.39C239.561 1971.49 242.302 2019.45 261.05 2113.12C223.269 2212.03 189.943 2258.01 91.1602 2308.76C163.478 2362.38 210.05 2390.21 306.63 2434.85C329.534 2307.65 447.755 2060.74 472.376 2069.64C568.906 2069.15 624.138 2074.5 729.282 2113.12C789.644 2110.31 796.406 2097.11 750 2047.9C592.541 1982.69 372.928 2000.08 244.475 1891.39Z" fill="#D6898B"/>
<path d="M2225.14 2082.68C2291.44 1973.28 2614.64 1991.38 2755.52 1887.04C2762.77 1980.94 2718.23 2043.56 2743.09 2139.2C2804.79 2249.3 2843.44 2272.71 2912.98 2308.76C2806.51 2385.1 2750.95 2421.19 2689.23 2426.15C2618.92 2221.9 2579.55 2109.56 2519.34 2073.99C2374.31 2073.99 2206.59 2125.18 2225.14 2082.68Z" fill="#D6898B"/>
<path d="M2279.01 2243.55C2264.27 2219.52 2258.48 2203.5 2254.14 2169.64C2347.76 2140.45 2401.86 2132.73 2498.62 2121.81C2431.44 2175.95 2399.45 2208.33 2279.01 2243.55Z" fill="#D6898B"/>
<path d="M867.4 2733.11C867.867 2728.21 868.217 2720.75 868.45 2710.71C868.917 2703.95 869.733 2698.7 870.9 2694.96C872.067 2691 872.65 2688.31 872.65 2686.91C872.65 2685.98 872.767 2684.81 873 2683.41C873.233 2682.01 873.35 2680.61 873.35 2679.21C873.35 2677.81 873 2676.65 872.3 2675.71C871.833 2674.78 870.9 2674.31 869.5 2674.31L871.6 2652.61C874.167 2645.85 875.567 2636.86 875.8 2625.66C876.033 2620.3 876.033 2615.28 875.8 2610.61C875.567 2605.95 876.033 2601.75 877.2 2598.01L878.25 2582.61C882.683 2583.31 883.85 2581.33 881.75 2576.66C881.05 2574.1 880.467 2572.23 880 2571.06C879.767 2569.9 880 2569.31 880.7 2569.31C881.167 2566.75 881.4 2563.6 881.4 2559.86C881.633 2555.9 881.983 2549.83 882.45 2541.66L889.45 2537.81C892.717 2539.21 897.267 2540.5 903.1 2541.66C909.167 2542.6 914.183 2543.3 918.15 2543.76C922.817 2544.46 926.55 2545.05 929.35 2545.51C932.15 2545.75 934.017 2545.98 934.95 2546.21L937.75 2552.51C936.817 2557.41 936 2562.55 935.3 2567.91C934.833 2573.05 934.367 2578.18 933.9 2583.31C933.667 2588.21 933.317 2593 932.85 2597.66C932.383 2602.1 931.8 2605.95 931.1 2609.21C930.167 2611.55 929.933 2617.73 930.4 2627.76C930.633 2628.93 930.75 2630.1 930.75 2631.26C930.75 2632.43 930.75 2633.48 930.75 2634.41V2638.61C930.75 2640.25 930.633 2641.41 930.4 2642.11C927.133 2643.98 924.917 2647.13 923.75 2651.56C922.817 2655.76 922.7 2660.55 923.4 2665.91C923.867 2668.01 924.567 2669.76 925.5 2671.16C926.433 2672.33 927.367 2675.36 928.3 2680.26C929 2682.83 929.35 2685.75 929.35 2689.01C929.583 2692.28 929.583 2695.55 929.35 2698.81C929.35 2702.08 929.233 2705.35 929 2708.61C928.767 2711.65 928.65 2714.33 928.65 2716.66C925.617 2719 924.217 2721.68 924.45 2724.71C924.683 2727.51 925.033 2730.08 925.5 2732.41C924.333 2733.11 923.167 2733.7 922 2734.16C921.533 2734.4 921.183 2734.51 920.95 2734.51C920.717 2734.51 920.483 2734.63 920.25 2734.86C919.317 2735.33 918.5 2735.68 917.8 2735.91C917.333 2736.15 916.867 2736.38 916.4 2736.61H916.05L916.4 2736.26C916.867 2735.8 917.1 2735.45 917.1 2735.21C916.4 2735.45 913.6 2735.56 908.7 2735.56H887.35C885.017 2735.8 882.45 2736.03 879.65 2736.26C876.85 2736.5 874.4 2736.85 872.3 2737.31L867.4 2733.11ZM1072.85 2747.81H1031.2L1013.35 2743.26L1014.75 2726.46L1001.8 2707.91L983.95 2684.11L961.55 2666.61L950.35 2664.51C948.717 2659.61 946.733 2655.41 944.4 2651.91C943.933 2650.98 943.467 2650.16 943 2649.46C942.533 2648.76 942.067 2648.18 941.6 2647.71C940.9 2646.31 940.083 2645.26 939.15 2644.56L937.4 2642.46C939.033 2640.36 940.433 2639.08 941.6 2638.61C942.767 2638.15 944.05 2637.68 945.45 2637.21C946.85 2636.75 948.483 2635.7 950.35 2634.06C952.45 2632.2 955.367 2628.81 959.1 2623.91C961.2 2620.88 963.067 2618.31 964.7 2616.21C966.567 2613.88 968.083 2611.9 969.25 2610.26C969.95 2609.33 970.65 2608.51 971.35 2607.81C972.05 2606.88 972.633 2606.18 973.1 2605.71C975.433 2603.85 979.75 2599.76 986.05 2593.46C992.583 2587.16 1000.87 2578.41 1010.9 2567.21C1017.67 2559.75 1023.38 2553.56 1028.05 2548.66C1032.95 2543.53 1036.8 2539.56 1039.6 2536.76L1047.65 2535.01C1049.28 2536.88 1050.68 2538.51 1051.85 2539.91C1053.25 2541.08 1054.42 2542.36 1055.35 2543.76C1057.22 2542.83 1058.85 2543.18 1060.25 2544.81C1061.65 2546.21 1062.7 2547.73 1063.4 2549.36C1063.4 2549.83 1063.87 2550.41 1064.8 2551.11C1065.97 2551.81 1067.02 2552.63 1067.95 2553.56C1068.88 2554.26 1069.58 2555.2 1070.05 2556.36C1070.52 2557.3 1070.05 2558.35 1068.65 2559.51L1062.35 2565.81C1061.42 2566.75 1060.48 2567.68 1059.55 2568.61C1058.85 2569.31 1058.27 2570.13 1057.8 2571.06C1055.7 2572.7 1050.45 2575.38 1042.05 2579.11C1033.18 2583.08 1027.58 2586.35 1025.25 2588.91C1024.08 2590.55 1022.8 2592.53 1021.4 2594.86C1020.23 2597.2 1018.83 2599.65 1017.2 2602.21C1015.8 2604.55 1014.17 2606.76 1012.3 2608.86C1010.67 2610.96 1008.92 2612.48 1007.05 2613.41C1006.82 2613.65 1006.47 2613.88 1006 2614.11C1005.77 2614.35 1004.95 2615.16 1003.55 2616.56C1003.32 2616.33 1002.97 2616.1 1002.5 2615.86C1002.27 2615.63 1001.92 2615.28 1001.45 2614.81C1001.22 2614.58 1000.98 2614.46 1000.75 2614.46C1000.52 2614.23 1000.28 2614 1000.05 2613.76C999.583 2614.93 998.767 2615.63 997.6 2615.86C997.133 2616.1 996.317 2616.21 995.15 2616.21C992.35 2618.31 990.833 2620.76 990.6 2623.56C990.6 2626.13 991.183 2628.35 992.35 2630.21C992.583 2630.45 991.533 2631.73 989.2 2634.06C987.1 2636.4 985.233 2638.73 983.6 2641.06L993.75 2646.31L1010.9 2668.01L1046.6 2703.01L1072.85 2729.26L1081.6 2734.16L1081.25 2740.46L1072.85 2747.81ZM915.7 2736.96L916.05 2736.61L915.7 2736.96ZM1284.26 2738.01L1235.26 2743.96L1225.11 2727.51C1225.11 2724.48 1222.78 2724.6 1218.11 2727.86C1216.94 2728.56 1215.78 2729.73 1214.61 2731.36C1213.44 2733 1212.28 2734.63 1211.11 2736.26C1210.41 2737.2 1209.71 2738.13 1209.01 2739.06C1208.31 2740 1207.61 2741.05 1206.91 2742.21C1199.68 2747.58 1192.21 2751.08 1184.51 2752.71C1177.04 2754.35 1170.63 2753.3 1165.26 2749.56C1161.29 2749.1 1158.61 2748.16 1157.21 2746.76C1156.51 2746.3 1155.58 2745.48 1154.41 2744.31L1132.01 2742.91L1122.56 2738.36L1113.81 2716.31L1115.56 2708.96L1107.86 2678.16L1122.56 2653.66L1134.46 2642.81C1138.89 2640.48 1144.03 2638.61 1149.86 2637.21C1155.69 2635.81 1161.53 2634.88 1167.36 2634.41C1173.19 2633.71 1178.79 2633.6 1184.16 2634.06C1189.53 2634.3 1193.96 2635 1197.46 2636.16C1197.46 2639.9 1198.63 2642.35 1200.96 2643.51C1203.29 2644.68 1207.84 2645.96 1214.61 2647.36C1216.94 2643.4 1218.11 2638.61 1218.11 2633.01C1218.11 2627.18 1217.06 2621.11 1214.96 2614.81L1209.36 2596.96C1207.49 2596.26 1204.58 2595.1 1200.61 2593.46C1196.88 2591.6 1193.73 2590.08 1191.16 2588.91L1176.11 2591.36L1160.71 2594.51L1157.21 2588.91L1161.06 2579.81L1163.51 2574.21L1168.41 2573.16L1184.51 2570.36L1198.86 2575.26L1214.61 2572.81L1245.06 2581.91L1258.01 2601.51L1262.56 2657.16L1261.51 2674.66L1269.21 2715.61L1273.76 2717.71H1284.61L1289.16 2729.96L1284.26 2738.01ZM1155.81 2680.96C1154.64 2687.03 1154.64 2692.16 1155.81 2696.36C1157.21 2700.56 1159.43 2704.06 1162.46 2706.86L1167.71 2717.71C1171.91 2719.11 1175.88 2720.16 1179.61 2720.86C1183.34 2721.56 1187.19 2721.68 1191.16 2721.21C1195.36 2720.51 1199.68 2719.23 1204.11 2717.36C1208.78 2715.26 1214.14 2712.23 1220.21 2708.26L1220.91 2690.41L1214.61 2659.26C1211.34 2658.1 1208.43 2657.51 1205.86 2657.51C1203.53 2657.51 1201.19 2657.75 1198.86 2658.21C1196.06 2658.91 1192.79 2659.5 1189.06 2659.96C1185.33 2660.43 1181.48 2661.01 1177.51 2661.71C1173.78 2662.18 1170.28 2662.88 1167.01 2663.81C1163.98 2664.51 1161.76 2665.56 1160.36 2666.96L1155.81 2680.96ZM1373.36 2703.01L1374.76 2727.86L1373.36 2740.81V2747.46L1366.71 2756.91L1355.16 2759.71L1325.06 2765.31C1322.49 2765.78 1320.39 2765.43 1318.76 2764.26C1317.36 2762.86 1316.66 2759.48 1316.66 2754.11V2753.41L1322.26 2726.81L1323.31 2703.01V2689.71L1327.51 2659.61C1327.28 2658.45 1327.04 2656.23 1326.81 2652.96C1326.58 2649.7 1326.23 2645.61 1325.76 2640.71C1325.53 2638.15 1325.41 2635.81 1325.41 2633.71C1325.41 2631.61 1325.29 2629.75 1325.06 2628.11V2620.76C1325.06 2621 1325.88 2620.3 1327.51 2618.66C1329.14 2616.8 1330.54 2614.58 1331.71 2612.01C1332.88 2609.21 1333.34 2606.18 1333.11 2602.91C1332.88 2599.65 1330.89 2596.61 1327.16 2593.81L1333.11 2533.26C1334.74 2532.33 1334.86 2529.53 1333.46 2524.86L1340.46 2517.86L1345.01 2517.16C1345.94 2517.4 1347.46 2517.63 1349.56 2517.86C1351.66 2517.86 1353.88 2517.98 1356.21 2518.21C1358.54 2518.21 1360.76 2518.33 1362.86 2518.56C1365.19 2518.56 1366.94 2518.68 1368.11 2518.91C1370.21 2519.38 1372.89 2519.73 1376.16 2519.96C1379.43 2519.96 1381.76 2520.31 1383.16 2521.01L1390.16 2524.86V2531.51C1390.86 2532.91 1390.74 2534.9 1389.81 2537.46C1389.11 2539.8 1388.88 2542.6 1389.11 2545.86C1389.11 2547.5 1388.99 2549.36 1388.76 2551.46C1388.53 2553.56 1388.29 2555.55 1388.06 2557.41C1388.06 2559.28 1387.94 2560.91 1387.71 2562.31C1387.48 2563.71 1387.36 2564.53 1387.36 2564.76C1387.36 2565.23 1387.24 2565.81 1387.01 2566.51L1386.66 2569.31C1386.66 2570.25 1386.43 2571.06 1385.96 2571.76C1385.73 2572.46 1385.49 2572.7 1385.26 2572.46C1385.03 2572.46 1384.44 2573.16 1383.51 2574.56C1382.81 2575.96 1381.99 2577.71 1381.06 2579.81C1380.36 2581.68 1379.78 2583.66 1379.31 2585.76C1378.84 2587.86 1378.73 2589.5 1378.96 2590.66C1379.19 2591.83 1379.43 2593.7 1379.66 2596.26C1379.89 2598.6 1380.13 2601.86 1380.36 2606.06C1380.36 2608.16 1380.36 2610.03 1380.36 2611.66C1380.59 2613.3 1380.71 2614.7 1380.71 2615.86C1380.71 2617.26 1380.83 2618.31 1381.06 2619.01L1378.61 2639.66L1379.31 2649.81C1376.04 2656.35 1374.53 2660.9 1374.76 2663.46C1375.23 2666.03 1376.63 2668.13 1378.96 2669.76L1373.36 2703.01ZM1462.41 2538.86C1462.87 2537 1463.11 2535.25 1463.11 2533.61C1463.34 2531.75 1463.57 2529.88 1463.81 2528.01C1463.81 2526.38 1463.81 2524.98 1463.81 2523.81C1464.04 2522.65 1464.16 2521.6 1464.16 2520.66L1465.91 2516.81C1466.61 2516.58 1467.54 2516.46 1468.71 2516.46C1469.87 2516.46 1471.27 2516.35 1472.91 2516.11C1477.81 2515.88 1480.96 2515.3 1482.36 2514.36C1482.36 2514.13 1482.94 2513.66 1484.11 2512.96C1484.81 2512.26 1485.39 2511.8 1485.86 2511.56C1486.09 2511.56 1486.91 2511.68 1488.31 2511.91C1489.71 2512.15 1491.57 2512.61 1493.91 2513.31C1497.87 2514.25 1500.67 2514.71 1502.31 2514.71C1504.41 2514.71 1505.57 2514.6 1505.81 2514.36C1506.04 2514.13 1506.74 2514.13 1507.91 2514.36L1511.06 2520.31L1514.21 2538.16L1506.86 2550.41C1506.62 2550.65 1506.39 2550.88 1506.16 2551.11C1506.16 2551.35 1505.92 2551.58 1505.46 2551.81C1504.29 2552.51 1502.89 2553.56 1501.26 2554.96L1500.21 2556.01L1489.71 2557.06C1488.31 2556.6 1486.67 2556.13 1484.81 2555.66C1482.94 2554.96 1480.72 2554.15 1478.16 2553.21C1475.59 2552.28 1473.37 2551.46 1471.51 2550.76C1469.64 2549.83 1468.01 2549.13 1466.61 2548.66L1464.86 2546.91L1462.41 2538.86ZM1505.81 2599.06L1504.41 2611.66L1505.81 2616.91L1503.71 2622.51L1504.76 2630.56L1503.01 2637.21L1504.06 2639.31L1502.66 2655.06L1501.26 2688.31C1501.26 2689.95 1501.02 2692.05 1500.56 2694.61C1500.09 2696.95 1499.74 2699.51 1499.51 2702.31C1499.27 2704.88 1499.27 2707.56 1499.51 2710.36C1499.74 2712.93 1500.44 2715.15 1501.61 2717.01C1501.37 2720.51 1501.02 2724.6 1500.56 2729.26C1500.09 2733.93 1499.27 2739.3 1498.11 2745.36C1496.24 2747.93 1494.26 2750.26 1492.16 2752.36C1490.29 2754.23 1486.67 2755.28 1481.31 2755.51C1478.27 2755.75 1475.24 2755.98 1472.21 2756.21C1469.41 2756.45 1466.72 2756.8 1464.16 2757.26C1462.76 2757.5 1461.36 2757.73 1459.96 2757.96C1458.56 2758.2 1457.04 2758.55 1455.41 2759.01L1446.66 2747.81C1446.89 2746.65 1447.24 2743.5 1447.71 2738.36C1448.41 2733 1448.99 2726.7 1449.46 2719.46C1449.92 2712.23 1450.16 2704.53 1450.16 2696.36C1450.39 2688.2 1450.16 2680.61 1449.46 2673.61L1451.56 2666.96L1454.71 2651.56L1455.76 2639.31L1457.86 2635.11L1458.21 2631.96L1460.31 2622.51L1462.06 2603.26L1493.56 2591.01L1505.81 2599.06ZM1604.01 2757.61C1603.31 2757.61 1601.79 2757.73 1599.46 2757.96C1597.36 2757.96 1595.02 2758.08 1592.46 2758.31C1589.89 2758.31 1587.44 2758.43 1585.11 2758.66C1582.77 2758.66 1581.14 2758.66 1580.21 2758.66L1572.51 2759.36L1566.56 2755.16C1566.32 2751.66 1566.56 2747.58 1567.26 2742.91C1568.19 2738.25 1568.66 2734.63 1568.66 2732.06C1571.46 2732.06 1572.04 2729.26 1570.41 2723.66C1568.54 2718.06 1567.84 2713.63 1568.31 2710.36C1568.54 2706.63 1569.12 2702.9 1570.06 2699.16C1570.99 2695.2 1571.11 2692.63 1570.41 2691.46C1569.94 2690.06 1569.36 2688.55 1568.66 2686.91C1567.96 2685.05 1567.37 2682.95 1566.91 2680.61L1571.11 2657.86C1571.11 2645.26 1571.22 2635.58 1571.46 2628.81C1571.92 2622.05 1572.27 2617.03 1572.51 2613.76C1572.97 2610.5 1573.44 2608.51 1573.91 2607.81C1574.61 2606.88 1575.07 2606.06 1575.31 2605.36C1575.77 2604.66 1576.01 2603.5 1576.01 2601.86C1576.24 2600.23 1576.24 2596.96 1576.01 2592.06L1583.36 2588.21C1587.32 2588.45 1592.11 2589.15 1597.71 2590.31C1603.54 2591.25 1609.14 2592.3 1614.51 2593.46C1617.31 2593.93 1619.76 2594.4 1621.86 2594.86C1623.96 2595.1 1625.82 2595.45 1627.46 2595.91L1632.36 2602.56C1627.92 2605.6 1625.01 2607.58 1623.61 2608.51C1622.21 2609.45 1622.09 2611.43 1623.26 2614.46C1627.46 2618.2 1631.07 2619.36 1634.11 2617.96C1637.37 2616.56 1639.59 2614.35 1640.76 2611.31L1663.51 2605.71H1676.81L1682.76 2607.81C1688.36 2609.68 1693.96 2611.66 1699.56 2613.76C1705.39 2615.86 1710.17 2617.5 1713.91 2618.66L1720.21 2634.06L1719.86 2638.26C1720.32 2645.03 1720.67 2651.56 1720.91 2657.86C1721.37 2663.93 1721.37 2671.4 1720.91 2680.26C1720.67 2685.86 1720.44 2691.58 1720.21 2697.41C1719.97 2703.01 1719.74 2708.38 1719.51 2713.51C1719.51 2718.65 1719.51 2723.2 1719.51 2727.16C1719.51 2730.9 1719.51 2733.7 1719.51 2735.56C1719.51 2735.8 1719.74 2736.73 1720.21 2738.36C1720.91 2740 1721.84 2741.75 1723.01 2743.61L1720.56 2747.46L1713.91 2750.61C1710.64 2750.85 1706.44 2751.43 1701.31 2752.36C1696.41 2753.3 1692.32 2753.76 1689.06 2753.76C1687.66 2753.76 1686.49 2753.3 1685.56 2752.36C1684.62 2751.2 1682.52 2750.73 1679.26 2750.96L1674.36 2746.76C1674.82 2743.73 1674.94 2741.28 1674.71 2739.41C1674.47 2737.31 1674.12 2735.56 1673.66 2734.16C1673.19 2732.53 1672.72 2731.13 1672.26 2729.96C1671.79 2728.8 1671.56 2727.63 1671.56 2726.46C1671.79 2722.96 1672.14 2719.11 1672.61 2714.91C1673.07 2711.65 1673.54 2707.91 1674.01 2703.71C1674.71 2699.28 1675.52 2694.96 1676.46 2690.76C1676.92 2688.2 1677.16 2684.93 1677.16 2680.96C1677.16 2676.76 1677.16 2672.68 1677.16 2668.71C1677.16 2664.51 1677.16 2660.55 1677.16 2656.81C1677.16 2653.08 1677.27 2650.28 1677.51 2648.41L1667.36 2630.56C1666.42 2630.33 1665.49 2630.1 1664.56 2629.86C1663.62 2629.63 1662.57 2629.28 1661.41 2628.81C1659.54 2628.35 1657.67 2628.46 1655.81 2629.16C1654.17 2629.86 1652.54 2630.68 1650.91 2631.61C1649.27 2632.55 1647.76 2633.48 1646.36 2634.41C1644.96 2635.35 1643.67 2635.81 1642.51 2635.81C1642.51 2636.51 1641.22 2635.93 1638.66 2634.06C1636.32 2631.96 1634.34 2629.98 1632.71 2628.11C1628.74 2624.85 1625.82 2624.26 1623.96 2626.36C1622.32 2628.23 1620.92 2630.8 1619.76 2634.06C1619.99 2636.63 1620.34 2638.38 1620.81 2639.31C1621.51 2640.25 1622.21 2640.95 1622.91 2641.41C1623.84 2641.65 1624.66 2641.65 1625.36 2641.41C1624.19 2642.35 1623.26 2644.1 1622.56 2646.66C1621.86 2649 1621.27 2651.68 1620.81 2654.71C1620.57 2657.51 1620.46 2660.55 1620.46 2663.81C1620.69 2666.85 1621.04 2669.65 1621.51 2672.21C1621.97 2675.01 1621.62 2679.91 1620.46 2686.91C1619.52 2693.91 1619.29 2701.96 1619.76 2711.06C1619.76 2714.56 1619.64 2718.3 1619.41 2722.26C1619.17 2726 1618.94 2729.73 1618.71 2733.46C1618.47 2736.96 1618.24 2740.23 1618.01 2743.26C1617.77 2746.06 1617.66 2748.28 1617.66 2749.91V2750.96C1613.22 2754.7 1608.67 2756.91 1604.01 2757.61ZM1899.45 2685.51C1897.12 2687.15 1893.85 2687.96 1889.65 2687.96C1886.38 2687.96 1883.58 2687.96 1881.25 2687.96C1879.15 2687.96 1877.4 2687.85 1876 2687.61L1866.2 2693.91C1865.5 2694.15 1864.22 2694.5 1862.35 2694.96C1861.18 2695.43 1859.67 2695.9 1857.8 2696.36C1856.17 2696.83 1854.18 2697.53 1851.85 2698.46C1847.18 2699.63 1842.87 2701.15 1838.9 2703.01C1835.17 2704.88 1831.67 2706.86 1828.4 2708.96C1826.77 2710.83 1824.78 2712 1822.45 2712.46C1820.12 2712.7 1819.07 2713.28 1819.3 2714.21C1818.13 2717.48 1817.2 2720.4 1816.5 2722.96C1815.8 2725.53 1815.45 2728.21 1815.45 2731.01C1815.45 2734.28 1815.45 2737.2 1815.45 2739.76C1815.45 2742.33 1815.22 2744.31 1814.75 2745.71L1854.65 2730.66C1857.22 2731.13 1859.2 2731.36 1860.6 2731.36C1862 2731.36 1863.28 2731.36 1864.45 2731.36C1865.62 2731.6 1866.9 2731.36 1868.3 2730.66C1869.7 2729.73 1871.68 2728.68 1874.25 2727.51L1882.3 2727.86L1904.35 2734.51L1907.85 2739.41C1908.32 2741.51 1909.25 2744.55 1910.65 2748.51C1912.28 2752.25 1913.45 2755.98 1914.15 2759.71C1914.62 2761.58 1915.08 2763.68 1915.55 2766.01C1916.25 2768.58 1917.07 2771.5 1918 2774.76C1919.63 2781.3 1921.03 2784.91 1922.2 2785.61L1919.05 2794.71L1922.2 2803.46L1920.45 2810.11L1901.55 2824.46C1900.62 2824.23 1899.8 2824 1899.1 2823.76C1898.4 2823.53 1897.7 2823.3 1897 2823.06C1895.83 2822.6 1894.67 2822.25 1893.5 2822.01C1892.33 2821.78 1891.4 2821.66 1890.7 2821.66L1863.4 2834.26C1862.47 2834.03 1861.42 2833.8 1860.25 2833.56C1859.32 2833.56 1858.27 2833.33 1857.1 2832.86C1855 2832.4 1852.2 2831.81 1848.7 2831.11C1845.43 2830.65 1841.58 2829.95 1837.15 2829.01C1832.72 2828.08 1827.58 2827.15 1821.75 2826.21C1816.15 2825.28 1810.67 2824.46 1805.3 2823.76C1800.17 2823.06 1795.38 2822.6 1790.95 2822.36C1786.75 2822.13 1783.83 2822.13 1782.2 2822.36L1766.45 2819.21L1763.3 2816.41L1757.7 2793.66L1759.45 2786.66C1765.05 2783.86 1769.83 2779.9 1773.8 2774.76C1777.77 2769.86 1779.98 2763.68 1780.45 2756.21C1780.68 2752.25 1780.8 2748.98 1780.8 2746.41C1780.8 2743.85 1780.8 2741.75 1780.8 2740.11C1780.8 2738.48 1780.68 2737.2 1780.45 2736.26C1780.45 2735.33 1780.45 2734.28 1780.45 2733.11L1783.25 2717.36L1788.5 2712.81L1790.25 2694.96C1789.55 2694.03 1788.5 2692.63 1787.1 2690.76C1785.93 2688.66 1784.53 2686.45 1782.9 2684.11C1781.27 2681.78 1779.63 2679.56 1778 2677.46C1776.6 2675.13 1775.32 2673.15 1774.15 2671.51L1775.2 2653.31L1791.3 2620.06L1800.4 2606.76L1834.7 2591.01L1872.15 2606.06L1880.9 2601.86C1881.6 2601.86 1882.3 2601.75 1883 2601.51C1883.7 2601.28 1884.63 2601.16 1885.8 2601.16C1886.97 2600.93 1888.48 2600.58 1890.35 2600.11C1893.85 2599.65 1896.88 2598.36 1899.45 2596.26C1902.02 2594.16 1904.47 2591.36 1906.8 2587.86C1908.67 2590.2 1910.42 2592.3 1912.05 2594.16C1913.68 2596.03 1915.2 2597.78 1916.6 2599.41C1917.53 2600.35 1918.35 2601.28 1919.05 2602.21C1919.75 2602.91 1920.45 2603.61 1921.15 2604.31V2622.51L1917.65 2626.01L1893.15 2631.26L1896.3 2642.46L1897.35 2658.56L1903.3 2673.96L1899.45 2685.51ZM1817.2 2683.06L1852.2 2674.66C1853.83 2673.03 1855 2670.58 1855.7 2667.31C1856.63 2663.81 1855.47 2660.43 1852.2 2657.16L1843.1 2641.06L1832.6 2620.06H1820L1819.3 2632.66C1813.23 2631.5 1809.27 2634.3 1807.4 2641.06C1806.23 2644.56 1805.3 2647.48 1804.6 2649.81C1803.9 2651.91 1803.43 2653.78 1803.2 2655.41L1817.2 2683.06ZM1809.85 2802.76L1845.2 2807.66C1858.27 2808.83 1866.78 2808.83 1870.75 2807.66C1870.98 2806.5 1871.1 2805.21 1871.1 2803.81C1871.33 2802.65 1871.33 2801.48 1871.1 2800.31C1871.1 2797.98 1870.05 2795.18 1867.95 2791.91C1865.85 2788.88 1864.8 2785.85 1864.8 2782.81C1864.8 2781.65 1865.15 2780.95 1865.85 2780.71C1866.55 2780.71 1866.67 2780.13 1866.2 2778.96C1865.97 2778.03 1865.73 2776.4 1865.5 2774.06C1865.5 2771.73 1865.38 2769.28 1865.15 2766.71C1864.92 2764.15 1864.57 2761.7 1864.1 2759.36C1863.87 2757.03 1863.4 2755.51 1862.7 2754.81C1861.3 2755.28 1858.97 2756.1 1855.7 2757.26C1852.67 2758.43 1849.28 2759.6 1845.55 2760.76C1842.05 2761.93 1838.67 2763.1 1835.4 2764.26C1832.13 2765.2 1829.8 2765.78 1828.4 2766.01C1826.3 2770.21 1823.5 2772.78 1820 2773.71C1816.73 2774.88 1813.12 2776.4 1809.15 2778.26C1809.85 2780.13 1809.27 2782 1807.4 2783.86C1805.77 2785.03 1801.45 2787.13 1794.45 2790.16C1787.22 2793.43 1783.13 2796.58 1782.2 2799.61L1809.85 2802.76ZM2135.34 2738.01L2086.34 2743.96L2076.19 2727.51C2076.19 2724.48 2073.85 2724.6 2069.19 2727.86C2068.02 2728.56 2066.85 2729.73 2065.69 2731.36C2064.52 2733 2063.35 2734.63 2062.19 2736.26C2061.49 2737.2 2060.79 2738.13 2060.09 2739.06C2059.39 2740 2058.69 2741.05 2057.99 2742.21C2050.75 2747.58 2043.29 2751.08 2035.59 2752.71C2028.12 2754.35 2021.7 2753.3 2016.34 2749.56C2012.37 2749.1 2009.69 2748.16 2008.29 2746.76C2007.59 2746.3 2006.65 2745.48 2005.49 2744.31L1983.09 2742.91L1973.64 2738.36L1964.89 2716.31L1966.64 2708.96L1958.94 2678.16L1973.64 2653.66L1985.54 2642.81C1989.97 2640.48 1995.1 2638.61 2000.94 2637.21C2006.77 2635.81 2012.6 2634.88 2018.44 2634.41C2024.27 2633.71 2029.87 2633.6 2035.24 2634.06C2040.6 2634.3 2045.04 2635 2048.54 2636.16C2048.54 2639.9 2049.7 2642.35 2052.04 2643.51C2054.37 2644.68 2058.92 2645.96 2065.69 2647.36C2068.02 2643.4 2069.19 2638.61 2069.19 2633.01C2069.19 2627.18 2068.14 2621.11 2066.04 2614.81L2060.44 2596.96C2058.57 2596.26 2055.65 2595.1 2051.69 2593.46C2047.95 2591.6 2044.8 2590.08 2042.24 2588.91L2027.19 2591.36L2011.79 2594.51L2008.29 2588.91L2012.14 2579.81L2014.59 2574.21L2019.49 2573.16L2035.59 2570.36L2049.94 2575.26L2065.69 2572.81L2096.14 2581.91L2109.09 2601.51L2113.64 2657.16L2112.59 2674.66L2120.29 2715.61L2124.84 2717.71H2135.69L2140.24 2729.96L2135.34 2738.01ZM2006.89 2680.96C2005.72 2687.03 2005.72 2692.16 2006.89 2696.36C2008.29 2700.56 2010.5 2704.06 2013.54 2706.86L2018.79 2717.71C2022.99 2719.11 2026.95 2720.16 2030.69 2720.86C2034.42 2721.56 2038.27 2721.68 2042.24 2721.21C2046.44 2720.51 2050.75 2719.23 2055.19 2717.36C2059.85 2715.26 2065.22 2712.23 2071.29 2708.26L2071.99 2690.41L2065.69 2659.26C2062.42 2658.1 2059.5 2657.51 2056.94 2657.51C2054.6 2657.51 2052.27 2657.75 2049.94 2658.21C2047.14 2658.91 2043.87 2659.5 2040.14 2659.96C2036.4 2660.43 2032.55 2661.01 2028.59 2661.71C2024.85 2662.18 2021.35 2662.88 2018.09 2663.81C2015.05 2664.51 2012.84 2665.56 2011.44 2666.96L2006.89 2680.96Z" fill="black"/>
</svg>
