<svg width="3000" height="3000" viewBox="0 0 3000 3000" fill="none" xmlns="http://www.w3.org/2000/svg">
<defs>
<linearGradient id="paint0_linear_2302_18235" x1="1500" y1="0" x2="1430" y2="4783" gradientUnits="userSpaceOnUse">
<stop offset="0.151042" stop-color="#00BF58"/>
<stop offset="0.421706" stop-color="#FFE8CC"/>
</linearGradient>
</defs>
<path fill-rule="evenodd" clip-rule="evenodd" d="M1500 2900C2273.2 2900 2900 2273.2 2900 1500C2900 726.801 2273.2 100 1500 100C726.801 100 100 726.801 100 1500C100 2273.2 726.801 2900 1500 2900ZM1500 3000C2328.43 3000 3000 2328.43 3000 1500C3000 671.573 2328.43 0 1500 0C671.573 0 0 671.573 0 1500C0 2328.43 671.573 3000 1500 3000Z" fill="url(#paint0_linear_2302_18235)"/>
<path fill-rule="evenodd" clip-rule="evenodd" d="M1647.5 2718.93L1652.79 2728.23C1649.26 2733.47 1640.26 2743.97 1632.5 2743.97C1622.8 2743.97 1609.56 2745.4 1593.69 2749.69C1577.81 2753.98 1546.93 2759.7 1527.53 2760.42C1508.12 2761.13 1473.72 2758.27 1441.96 2760.42C1410.21 2762.56 1419.91 2764.71 1365.22 2762.56C1310.53 2760.42 1296.41 2758.27 1278.77 2760.42C1261.13 2762.56 1174.68 2762.56 1152.63 2762.56C1130.57 2762.56 1121.75 2766.86 1081.18 2764.71C1040.6 2762.56 1046.77 2769 1015.9 2762.56C985.025 2756.13 976.204 2749.69 967.383 2749.69C958.562 2749.69 950.623 2743.97 948.858 2740.39C947.447 2737.53 941.213 2733 938.273 2731.09C938.682 2727.77 939.803 2722.08 941.635 2718.73C942.621 2717.8 943.561 2716.91 944.448 2716.07C948.858 2715.35 961.208 2709.63 967.383 2706.05C973.558 2702.48 994.729 2695.32 1003.55 2695.32C1012.37 2695.32 1041.48 2690.32 1055.59 2688.89C1069.71 2687.46 1086.47 2683.16 1110.29 2682.45C1134.1 2681.73 1156.16 2682.45 1171.15 2682.45H1253.19H1368.75C1381.98 2682.45 1434.91 2681.02 1439.32 2681.02C1443.73 2681.02 1466.66 2679.59 1475.48 2678.16C1484.3 2676.73 1492.24 2672.43 1512.53 2673.15C1532.82 2673.86 1553.11 2672.43 1565.46 2675.3C1577.81 2678.16 1595.45 2678.16 1605.15 2678.16C1614.86 2678.16 1621.03 2681.73 1632.5 2685.31C1643.97 2688.89 1647.5 2695.32 1652.79 2695.32C1656.93 2695.32 1657.83 2698.4 1657.6 2702.48C1657.54 2703.61 1657.39 2704.81 1657.2 2706.05C1656.49 2710.63 1650.44 2716.55 1647.5 2718.93ZM1527.53 2695.32C1535.47 2695.32 1569.87 2713.21 1570.75 2714.64C1572.81 2718.45 1576.22 2726.51 1573.4 2728.23C1569.87 2730.38 1553.11 2734.67 1532.82 2736.81C1512.53 2738.96 1496.65 2741.1 1484.3 2743.97C1471.95 2746.83 1431.38 2743.97 1404.03 2743.97C1376.69 2743.97 1348.46 2745.4 1329.93 2743.97C1311.41 2742.54 1314.06 2740.39 1310.53 2734.67C1307 2728.94 1321.11 2718.21 1329.93 2711.78C1338.75 2705.34 1338.75 2706.77 1352.87 2702.48C1366.98 2698.19 1366.98 2697.47 1390.8 2695.32C1414.62 2693.18 1422.56 2691.03 1431.38 2691.03C1440.2 2691.03 1458.72 2689.6 1484.3 2691.03C1509.89 2692.46 1519.59 2695.32 1527.53 2695.32ZM1239.08 2702.48C1243.31 2702.48 1270.83 2713.45 1284.06 2718.93C1284.06 2724.89 1283.53 2737.53 1281.42 2740.39C1279.3 2743.25 1273.48 2743.97 1270.83 2743.97C1267.3 2744.92 1256.01 2746.83 1239.08 2746.83C1217.9 2746.83 1226.73 2749.69 1175.56 2749.69C1124.4 2749.69 1119.11 2751.12 1085.59 2749.69C1052.07 2748.26 1057.36 2748.26 1032.66 2743.97C1007.96 2739.67 1013.25 2738.96 1012.37 2736.81C1011.49 2734.67 1026.48 2721.79 1032.66 2718.93C1038.83 2716.07 1055.59 2714.64 1063.53 2711.78C1071.47 2708.92 1098.82 2711.78 1105.88 2711.78C1112.93 2711.78 1116.46 2711.78 1146.45 2706.05C1176.44 2700.33 1175.56 2705.34 1192.32 2702.48C1209.08 2699.62 1208.2 2700.33 1217.02 2700.33C1225.84 2700.33 1233.78 2702.48 1239.08 2702.48Z" fill="#897053"/>
<path d="M1570.75 2714.64C1569.87 2713.21 1535.47 2695.32 1527.53 2695.32C1519.59 2695.32 1509.89 2692.46 1484.3 2691.03C1458.72 2689.6 1440.2 2691.03 1431.38 2691.03C1422.56 2691.03 1414.62 2693.18 1390.8 2695.32C1366.98 2697.47 1366.98 2698.19 1352.87 2702.48C1338.75 2706.77 1338.75 2705.34 1329.93 2711.78C1321.11 2718.21 1307 2728.94 1310.53 2734.67C1314.06 2740.39 1311.41 2742.54 1329.93 2743.97C1348.46 2745.4 1376.69 2743.97 1404.03 2743.97C1431.38 2743.97 1471.95 2746.83 1484.3 2743.97C1496.65 2741.1 1512.53 2738.96 1532.82 2736.81C1553.11 2734.67 1569.87 2730.38 1573.4 2728.23C1576.22 2726.51 1572.81 2718.45 1570.75 2714.64Z" fill="#605654"/>
<path d="M1284.06 2718.93C1270.83 2713.45 1243.31 2702.48 1239.08 2702.48C1233.78 2702.48 1225.84 2700.33 1217.02 2700.33C1208.2 2700.33 1209.08 2699.62 1192.32 2702.48C1175.56 2705.34 1176.44 2700.33 1146.45 2706.05C1116.46 2711.78 1112.93 2711.78 1105.88 2711.78C1098.82 2711.78 1071.47 2708.92 1063.53 2711.78C1055.59 2714.64 1038.83 2716.07 1032.66 2718.93C1026.48 2721.79 1011.49 2734.67 1012.37 2736.81C1013.25 2738.96 1007.96 2739.67 1032.66 2743.97C1057.36 2748.26 1052.07 2748.26 1085.59 2749.69C1119.11 2751.12 1124.4 2749.69 1175.56 2749.69C1226.73 2749.69 1217.9 2746.83 1239.08 2746.83C1256.01 2746.83 1267.3 2744.92 1270.83 2743.97C1273.48 2743.97 1279.3 2743.25 1281.42 2740.39C1283.53 2737.53 1284.06 2724.89 1284.06 2718.93Z" fill="#695B53"/>
<path d="M1404.03 2870.58C1455.19 2866.29 1565.46 2864.86 1565.46 2863.42C1565.46 2862.5 1591.46 2858.86 1613.09 2855.63L1532.82 2944.97C1401.68 2951.65 1133.57 2965 1110.29 2965C1087 2965 1069.41 2961.18 1063.53 2959.28C1052.95 2939.25 1030.19 2898.48 1023.84 2895.61C1017.49 2892.75 995.514 2867.77 985.322 2855.63C1001.29 2859.42 1019.38 2863.42 1023.84 2863.42C1030.19 2863.42 1052.95 2873.92 1063.53 2879.16C1093.23 2880.35 1163.21 2882.02 1205.55 2879.16C1258.48 2875.59 1352.87 2874.87 1404.03 2870.58Z" fill="#2F2B22"/>
<path d="M1652.79 2728.23L1647.5 2718.93C1650.44 2716.55 1656.49 2710.63 1657.2 2706.05C1657.39 2704.81 1657.54 2703.61 1657.6 2702.48C1660.1 2702.48 1710.71 2742.54 1735.71 2762.56C1737.47 2774.25 1741 2798.33 1741 2801.19C1741 2804.05 1734.53 2815.26 1731.3 2820.51H1662.49L1652.79 2728.23Z" fill="#272219"/>
<path d="M1632.5 2743.97C1640.26 2743.97 1649.26 2733.47 1652.79 2728.23L1662.49 2820.51V2842.68C1658.96 2844.59 1649.44 2848.98 1639.56 2851.26C1635.22 2852.27 1624.8 2853.89 1613.09 2855.63C1591.46 2858.86 1565.46 2862.5 1565.46 2863.42C1565.46 2864.86 1455.19 2866.29 1404.03 2870.58C1352.87 2874.87 1258.48 2875.59 1205.55 2879.16C1163.21 2882.02 1093.23 2880.35 1063.53 2879.16C1052.95 2873.92 1030.19 2863.42 1023.84 2863.42C1019.38 2863.42 1001.29 2859.42 985.322 2855.63C978.567 2854.03 972.19 2852.47 967.383 2851.26L944.448 2834.81V2820.51C943.51 2791.48 940.962 2732.96 938.273 2731.09C941.213 2733 947.447 2737.53 948.858 2740.39C950.623 2743.97 958.562 2749.69 967.383 2749.69C976.204 2749.69 985.025 2756.13 1015.9 2762.56C1046.77 2769 1040.6 2762.56 1081.18 2764.71C1121.75 2766.86 1130.57 2762.56 1152.63 2762.56C1174.68 2762.56 1261.13 2762.56 1278.77 2760.42C1296.41 2758.27 1310.53 2760.42 1365.22 2762.56C1419.91 2764.71 1410.21 2762.56 1441.96 2760.42C1473.72 2758.27 1508.12 2761.13 1527.53 2760.42C1546.93 2759.7 1577.81 2753.98 1593.69 2749.69C1609.56 2745.4 1622.8 2743.97 1632.5 2743.97Z" fill="#3D352C"/>
<path d="M944.448 2820.51H858V2786.89C867.703 2778.06 888.168 2760.42 892.403 2760.42C896.396 2760.42 925.287 2734.12 941.635 2718.73C939.803 2722.08 938.682 2727.77 938.273 2731.09C940.962 2732.96 943.51 2791.48 944.448 2820.51Z" fill="#292420"/>
<path d="M1466.66 2576.58C1467.54 2570.86 1475.48 2540.82 1477.25 2532.95C1479.01 2525.08 1490.48 2429.94 1488.71 2417.06C1487.3 2406.76 1488.13 2363.18 1488.71 2342.67L1452.55 2336.23C1449.9 2341 1444.61 2352.97 1444.61 2362.7C1444.61 2372.43 1432.26 2485.5 1426.08 2540.82C1427.55 2545.35 1430.85 2555.55 1432.26 2560.13C1434.02 2565.85 1427.85 2578.73 1432.26 2590.17C1435.79 2599.33 1421.97 2646.44 1414.62 2668.86C1413.15 2676.49 1410.21 2693.46 1410.21 2700.33C1410.21 2707.2 1406.68 2733.24 1404.91 2745.4H1455.19V2708.92L1459.6 2668.86C1458.13 2665.76 1455.19 2658.27 1455.19 2653.12C1455.19 2646.68 1459.6 2613.06 1459.6 2608.06C1459.6 2604.05 1464.31 2585.4 1466.66 2576.58Z" fill="#504636"/>
<path d="M1191.44 2739.67L1180.86 2613.06C1177.91 2606.15 1172.92 2590.74 1176.44 2584.45C1180.86 2576.58 1168.51 2513.63 1168.51 2506.48C1168.51 2499.33 1176.44 2463.56 1176.44 2457.84V2417.06C1176.44 2407.05 1180.86 2344.1 1181.74 2336.23C1182.44 2329.94 1182.03 2281.15 1181.74 2257.55C1179.68 2248.96 1174.86 2231.22 1172.03 2228.94C1168.51 2226.07 1147.33 2221.78 1142.92 2225.36C1138.51 2228.94 1126.16 2235.37 1126.16 2242.53C1126.16 2249.68 1117.34 2283.3 1121.75 2293.31C1126.16 2303.33 1131.46 2351.97 1133.22 2362.7C1134.99 2373.43 1137.63 2422.79 1142.92 2437.81C1148.22 2452.83 1146.45 2484.31 1146.45 2491.46C1146.45 2498.61 1153.51 2545.11 1149.98 2548.68C1146.45 2552.26 1149.98 2565.14 1149.98 2584.45C1149.98 2603.76 1146.45 2629.51 1146.45 2643.11C1146.45 2656.7 1142.92 2677.44 1142.92 2688.89V2731.81V2747.54H1194.09L1191.44 2739.67Z" fill="#645240"/>
<path d="M2851.21 1820.57C2850.33 1832.77 2852.42 1853.4 2838.24 1864.53C2837.79 1884.89 2818.75 1903.51 2809.3 1910.27C2785.48 1907.9 2734.79 1903.09 2631.61 1902.59C2528.43 1902.1 2485.08 1924.14 2476.3 1935.22C2468.73 1945.99 2402.71 1962.97 2404.6 1977.51C2370.31 1987.22 2345.77 2051.96 2337.78 2083.12C2332.26 2091.47 2348.24 2137.22 2357.52 2160.65C2369.13 2189.95 2337.15 2217.76 2289.78 2275.14L2212 2358.87C2222.44 2356 2250.9 2347.94 2281.15 2338.6C2313.05 2322.8 2346.65 2297.35 2359.46 2286.6C2369.1 2280.06 2392.86 2258.25 2410.83 2223.3C2428.8 2188.35 2418.16 2149.72 2410.59 2134.78C2407.03 2131.26 2401.52 2120.23 2407.97 2104.21C2399.15 2086.05 2422.21 2052.21 2434.85 2037.56C2437.44 2035.47 2455.63 2021.69 2507.61 1983.3C2572.6 1935.31 2640.88 1954.25 2700.11 1949.57C2747.49 1945.83 2811.89 1948.11 2838.16 1949.72C2879.27 1909.85 2893.96 1872.43 2890.92 1848.91C2889 1834.02 2854.21 1781.32 2852.91 1756.69L2851.21 1820.57Z" fill="#543E30"/>
<path d="M2918.31 1511.55L2935.3 1574.63C2938.11 1586.85 2945.69 1606.42 2937.67 1621.69C2943.15 1641.78 2933.44 1665.88 2927.9 1675.43C2908.38 1680.45 2866.9 1691.37 2785.14 1722.71C2703.38 1754.05 2675.42 1789 2671.65 1802.56C2668.75 1815.45 2621.4 1852.44 2627.07 1866.1C2602.74 1886.19 2601.91 1957.17 2604.54 1990.15C2602.57 2000.03 2628.34 2039.92 2642.41 2060.01C2660 2085.12 2642.69 2122.22 2621.69 2193.03C2579.95 2238.44 2538.93 2286.93 2512.11 2311.7C2502.9 2324.43 2437.37 2364.06 2325.4 2409.06C2277.77 2448.44 2236.39 2516.2 2221.66 2545.16C2217.02 2559.73 2234.65 2608.6 2236.12 2627.48C2243.62 2647.98 2238.33 2667.83 2234.75 2675.2C2234.78 2688.59 2219.89 2717.18 2160.05 2724.41C2179.44 2727.51 2221.33 2728.48 2233.81 2707.59C2246.29 2686.7 2255.49 2667.91 2258.52 2661.13C2258.8 2651.67 2258.3 2631.7 2254.13 2627.48C2249.95 2623.27 2252.96 2605.97 2254.98 2597.85L2261.04 2574.25C2260.48 2562.78 2269.1 2527.84 2307.98 2479.83C2346.87 2431.82 2382.53 2422.66 2395.5 2424.09L2468.24 2377.13L2533.6 2333.94L2565.93 2319.12L2584.2 2299.03C2591.64 2293.01 2611.83 2276.33 2633.08 2257.85C2653.77 2232.54 2673.05 2197.25 2680.1 2182.77C2685.85 2173.39 2698.38 2144.7 2702.57 2104.92C2706.75 2065.15 2687.24 2030.6 2676.96 2018.29C2673.13 2015.95 2665.61 2006.84 2666.12 1989.16C2653.92 1974.1 2662.45 1933.83 2668.24 1915.59C2669.69 1912.74 2680.12 1893.64 2710.22 1840C2747.85 1772.96 2807.3 1770.45 2852.81 1747.59C2889.22 1729.31 2940.81 1711.69 2962.06 1705.16C2983.13 1653.43 2984.01 1612.25 2974.86 1590.15C2969.06 1576.15 2926.41 1535.27 2918.31 1511.55Z" fill="#543E30"/>
<path d="M338.586 1667.06C346.171 1678.58 361.217 1696.19 359.857 1713.68C373.145 1732.38 373.776 1759.2 372.431 1770.27C356.116 1780.57 321.535 1802.71 257.356 1856.2C193.176 1909.68 181.038 1952.31 182.992 1966.94C185.484 1980.67 155.944 2030.56 166.804 2042.76C152.061 2069.48 180.015 2140.98 195.835 2173.39C197.982 2183.84 238.357 2216.96 259.722 2233.34C286.427 2253.82 285.167 2295.75 294.094 2372.51L301.76 2489.05C306.313 2480.99 318.545 2458.81 331.044 2434.53C340.251 2403.54 344.087 2362.91 344.853 2346.47C346.46 2335.51 346.63 2303.32 334.459 2262.25C322.288 2221.18 289.958 2191.74 275.314 2182.15C270.767 2180.83 260.003 2173.71 253.327 2155.82C235.76 2143.97 227.484 2101.24 225.541 2081.36C225.753 2078.11 227.824 2056.12 234.41 1994.15C242.643 1916.69 297.518 1898.16 331.053 1862.96C357.881 1834.8 399.248 1803.21 416.578 1790.93C415.452 1733.31 399.602 1691.72 382.052 1671.99C370.936 1659.5 314.29 1629.93 297.069 1608.29L338.586 1667.06Z" fill="#543E30"/>
<path d="M86.7851 1567.69L70.239 1630.9C67.5209 1643.14 60.0814 1662.76 68.2113 1677.97C62.871 1698.09 72.7512 1722.13 78.3588 1731.63C97.9106 1736.52 139.473 1747.14 221.455 1777.9C303.436 1808.66 331.646 1843.41 335.504 1856.94C338.495 1869.81 386.107 1906.47 380.535 1920.17C405.009 1940.08 406.345 2011.06 403.954 2044.05C405.994 2053.91 380.508 2093.99 366.577 2114.17C349.164 2139.41 366.745 2176.39 388.245 2247.05C430.307 2292.15 471.669 2340.35 498.67 2364.94C507.972 2377.59 573.781 2416.76 686.069 2460.96C733.977 2500 775.834 2567.47 790.774 2596.32C795.51 2610.86 778.233 2659.85 776.892 2678.75C769.545 2699.29 774.976 2719.11 778.611 2726.45C778.672 2739.84 793.767 2768.32 853.656 2775.13C834.292 2778.37 792.405 2779.63 779.778 2758.83C767.15 2738.03 757.819 2719.31 754.733 2712.55C754.392 2703.1 754.746 2683.12 758.889 2678.87C763.033 2674.63 759.904 2657.35 757.822 2649.25L751.603 2625.69C752.075 2614.22 743.213 2579.34 703.985 2531.61C664.757 2483.87 629.031 2474.97 616.071 2476.49L543.001 2430.05L477.332 2387.32L444.899 2372.74L426.489 2352.78C419.008 2346.81 398.699 2330.28 377.315 2311.95C356.443 2286.78 336.916 2251.63 329.762 2237.2C323.95 2227.87 311.21 2199.26 306.745 2159.52C302.28 2119.77 321.543 2085.08 331.733 2072.7C335.544 2070.33 343.006 2061.17 342.369 2043.5C354.46 2028.35 345.64 1988.15 339.719 1969.94C338.248 1967.11 327.685 1948.08 297.201 1894.66C259.097 1827.88 199.63 1825.79 153.959 1803.27C117.422 1785.24 65.707 1767.98 44.4164 1761.61C22.9714 1710.03 21.8037 1668.85 30.7984 1646.69C36.4956 1632.66 78.8518 1591.47 86.7851 1567.69Z" fill="#543E30"/>
<path d="M1997.13 2174.54L1937.32 2169.59C1933.97 2185.86 1929.98 2205.2 1925.69 2225.9L1932.21 2219.49L1956.98 2209.42L1951 2223.14C1945.31 2227.39 1934.09 2236.23 1934.77 2237.61C1935.46 2239 1929.93 2250.77 1927.09 2256.48L1956.99 2239.57C1953 2245.85 1944.69 2258.57 1943.32 2259.24C1941.61 2260.08 1930.51 2267.72 1927.94 2271.13C1925.89 2273.87 1920.83 2285.42 1918.55 2290.85C1925.21 2286.12 1938.71 2277.02 1939.4 2278.41C1940.08 2279.79 1924.26 2296.64 1916.27 2304.9C1921.02 2305.42 1930.17 2306.65 1928.81 2307.32C1927.1 2308.17 1910.02 2351.06 1908.45 2352.18C1907.19 2353.08 1928.33 2342.25 1939.06 2336.72L1901.9 2373.34L1979.96 2385.47C1979.37 2380.59 1958.15 2351 1947.61 2336.82C1949.52 2336.59 1953.89 2336.3 1956.03 2336.97C1958.18 2337.63 1979.22 2356.4 1989.47 2365.7L1992.03 2345.05L1957 2299.88L1988.61 2320.89L1988.61 2303.66L1979.21 2280.3C1972.37 2272.19 1959.21 2256.14 1961.26 2256.85C1963.31 2257.56 1980.91 2272.28 1989.46 2279.55C1988.6 2269.21 1986.72 2248.17 1986.03 2246.78L1972.36 2219.07L1991.16 2239.94L1995.9 2241.91L1997.13 2174.54Z" fill="#5B5650"/>
<path d="M2125.47 2189.23C2097.04 2177.23 2080.78 2173.01 2049.24 2185.44L2048.64 2205.74L2065.48 2196.81C2062.63 2202.53 2056.77 2214.46 2056.08 2216.52C2055.4 2218.58 2055.8 2228.87 2056.09 2233.75L2070.61 2228.74L2055.24 2266.48L2055.24 2279.4L2085.14 2253.88C2079.59 2264.16 2068.06 2285.59 2066.35 2289C2064.63 2292.41 2059.65 2295.51 2057.37 2296.63C2056.66 2299.5 2055.25 2306.11 2055.25 2309.55C2055.25 2313 2054.11 2328.78 2053.54 2336.24L2066.36 2327.76C2061.67 2337.25 2052.48 2356.58 2053.16 2357.97C2054.01 2359.7 2050.13 2376.69 2050.99 2378.42C2051.84 2380.15 2053.55 2392.23 2056.97 2390.55C2060.39 2388.86 2071.49 2385.53 2077.47 2384.74C2083.45 2383.94 2096.27 2384.08 2102.25 2383.28C2108.23 2382.49 2121.04 2378.32 2123.6 2379.21C2125.66 2379.92 2128.44 2370.36 2129.58 2365.49C2123.89 2362.55 2112.32 2356.34 2111.64 2354.96C2110.79 2353.22 2094.55 2328.93 2096.26 2328.09C2097.97 2327.24 2114.13 2329.87 2116.76 2335.2C2119.39 2340.52 2126.1 2345.51 2126.16 2341.33C2126.22 2337.15 2125.3 2318.06 2124.45 2316.33C2123.59 2314.6 2121.03 2305.09 2117.61 2302.47C2114.19 2299.85 2098.81 2285.9 2097.96 2284.17C2097.1 2282.44 2094.54 2277.24 2099.67 2279.02C2104.79 2280.8 2119.32 2288.71 2121.03 2292.17C2122.39 2294.94 2121.66 2284.85 2121.13 2279.46C2120.8 2275.93 2119.89 2268.35 2118.87 2266.29C2117.6 2263.71 2116.61 2261.7 2110.77 2258.46C2104.92 2255.23 2093.68 2241.05 2095.39 2240.21C2097.09 2239.37 2109.91 2239.5 2113.33 2242.12C2116.75 2244.75 2126.86 2252.33 2125.29 2249.15C2123.72 2245.96 2121.01 2231.87 2118.45 2230.98C2115.89 2230.09 2099.65 2218.72 2098.8 2216.99C2097.94 2215.25 2090.63 2204.74 2094.71 2204.4C2098.8 2204.06 2109.9 2205.05 2112.47 2205.93C2115.03 2206.82 2119.3 2211.18 2121.87 2212.07C2123.92 2212.78 2125.87 2215.12 2126.59 2216.2L2125.47 2189.23Z" fill="#5B5650"/>
<path d="M2213.27 2151.89L2147.49 2164.96C2148.34 2175.23 2149.61 2190.81 2150.67 2204.31C2152.23 2201.82 2167.42 2188.15 2174.83 2181.63C2173.69 2185.06 2170.9 2192.61 2168.85 2195.35C2166.29 2198.76 2162.26 2205.06 2158.6 2209.02C2154.95 2212.97 2152.62 2218.43 2155.19 2223.63C2157.75 2228.82 2158.61 2234.86 2160.31 2234.02C2162.02 2233.18 2169.71 2227.23 2171.42 2226.38C2172.79 2225.71 2181.1 2218.74 2185.09 2215.33C2188.22 2214.51 2194.14 2213.88 2192.78 2218C2191.07 2223.15 2172.1 2233.61 2170.57 2237.57C2169.04 2241.53 2168 2240.99 2168 2245.3C2168.01 2249.61 2168.96 2255.86 2167.26 2256.7C2165.89 2257.37 2164.91 2261.99 2164.59 2264.21L2165.45 2265.95C2164.31 2266.51 2162.88 2267.64 2166.3 2267.68C2170.57 2267.73 2183.39 2259.25 2187.66 2259.3C2191.93 2259.34 2193.02 2258.8 2190.22 2268.8C2187.42 2278.8 2186.81 2287.71 2181.68 2294.55C2176.56 2301.39 2175.25 2299.88 2175.71 2308.27C2176.16 2316.66 2177.01 2318.39 2178.72 2321.86L2183.85 2332.25C2185.98 2329.76 2190.74 2324.11 2192.79 2321.37C2194.84 2318.64 2201.46 2314.94 2204.52 2313.44C2205.49 2315.93 2206.32 2322.09 2201.83 2326.76C2196.21 2332.61 2191.99 2339 2189.83 2344.38C2187.67 2349.75 2187.4 2352.03 2187.97 2356.06C2188.53 2360.09 2185.11 2361.78 2189.81 2362.69C2194.51 2363.6 2190.24 2363.56 2196.22 2362.76C2202.2 2361.96 2185.11 2370.39 2208.18 2361.17C2231.24 2351.94 2227.83 2353.63 2237.22 2351.14C2246.62 2348.66 2251.75 2346.13 2253.46 2345.29L2260.29 2341.92C2261.14 2335.03 2254.31 2334.1 2246.62 2331.43C2238.93 2328.76 2231.24 2330.4 2226.97 2326.05C2222.7 2321.7 2212.44 2309.53 2219.28 2310.46C2226.11 2311.4 2244.91 2310.74 2246.62 2314.2C2250.89 2314.25 2245.76 2308.16 2244.9 2302.12C2244.05 2296.08 2243.19 2294.35 2239.78 2291.73C2236.36 2289.11 2231.23 2291.64 2226.96 2287.29C2222.69 2282.93 2232.94 2290.8 2216.71 2279.42C2200.47 2263.74 2199.62 2262.01 2201.33 2261.17C2203.04 2260.32 2204.74 2255.17 2212.43 2257.84C2220.12 2260.51 2220.12 2256.2 2225.25 2262.29C2230.37 2268.37 2232.08 2271.84 2233.79 2270.99C2235.5 2270.15 2235.5 2270.15 2234.65 2264.11C2233.79 2258.07 2233.79 2258.07 2232.08 2254.61C2230.37 2251.14 2227.14 2244.6 2225.44 2245.44C2223.73 2246.29 2220.12 2243.28 2214.99 2241.5C2209.87 2239.72 2210.93 2237.57 2208.26 2236.47C2205.59 2235.37 2198.34 2233.59 2200.47 2229.28C2202.59 2224.98 2197.05 2222.35 2200.46 2220.67C2203.88 2218.98 2205.17 2217.29 2208.15 2219.03C2211.13 2220.76 2202.92 2217.04 2214.13 2222.54C2225.34 2228.04 2227.39 2227.87 2224.39 2221.79C2221.38 2215.71 2219.26 2211.4 2215.84 2208.77C2212.42 2206.15 2210.71 2202.69 2206.44 2198.34C2202.17 2193.98 2199.11 2192.08 2194.48 2191.31C2189.85 2190.54 2186.79 2184.34 2185.93 2182.61C2188.5 2179.19 2189.35 2176.61 2194.48 2178.39C2199.6 2180.17 2204.73 2190.56 2209 2190.61C2212.42 2190.65 2218.4 2192.43 2220.96 2193.32L2225.24 2193.37L2213.27 2151.89Z" fill="#5B5650"/>
<path d="M2248.29 2115.23C2241.45 2118.6 2234.18 2131.12 2231.39 2136.96L2246.46 2169.97L2263.67 2142.1C2261.96 2155.86 2258.89 2184.09 2260.26 2186.86C2261.97 2190.32 2266.24 2194.67 2267.95 2193.83C2269.66 2192.99 2273.08 2187 2274.78 2186.15C2276.49 2185.31 2281.62 2178.47 2282.47 2180.2C2283.33 2181.94 2274.79 2207.69 2275.64 2209.42C2276.5 2211.15 2276.5 2215.46 2277.35 2221.5C2278.04 2226.33 2281.63 2231.6 2283.34 2233.62C2284.76 2230.77 2288.29 2224.72 2291.02 2223.37C2294.44 2221.68 2295.29 2219.11 2299.57 2219.15C2303.84 2219.2 2313.24 2216.72 2307.26 2226.13C2301.28 2235.54 2298.72 2243.27 2297.86 2245.84C2297.01 2248.42 2296.15 2250.99 2297.01 2252.72C2297.86 2254.46 2296.16 2255.3 2296.16 2259.61C2296.16 2263.91 2298.72 2273.42 2299.58 2275.15C2300.43 2276.88 2304.7 2268.31 2308.12 2266.63C2311.54 2264.94 2314.1 2257.22 2316.66 2258.1C2319.22 2258.99 2325.2 2258.2 2326.06 2259.93C2326.91 2261.66 2327.77 2263.39 2322.64 2270.23C2317.52 2277.07 2317.52 2277.07 2314.1 2287.37C2310.69 2297.67 2309.83 2295.93 2309.83 2304.55C2309.84 2313.16 2309.84 2313.16 2313.25 2315.78C2316.67 2318.41 2310.69 2319.2 2321.8 2315.88C2332.9 2312.55 2338.03 2310.02 2353.4 2302.43C2368.78 2294.85 2369.63 2292.27 2379.03 2289.79C2390.14 2282.16 2387.57 2276.96 2382.45 2275.18C2377.32 2273.4 2373.05 2273.36 2367.92 2271.58C2362.8 2269.8 2358.52 2269.76 2352.54 2266.24C2346.56 2262.73 2338.14 2262.89 2336.8 2260.17C2335.46 2257.45 2332.04 2259.13 2336.31 2254.87C2340.58 2250.61 2340.95 2247.04 2348.27 2248.97C2355.59 2250.89 2359.37 2249.95 2364.5 2251.73C2369.63 2253.51 2370.48 2255.24 2373.05 2256.13L2378.17 2257.91C2378.74 2256.19 2378.51 2251.71 2373.04 2247.51C2366.21 2242.27 2361.94 2242.23 2359.37 2237.03C2356.81 2231.83 2361.08 2231.88 2352.54 2227.48C2343.99 2223.08 2339.72 2223.03 2335.45 2222.99C2331.18 2222.94 2332.03 2220.37 2327.76 2220.32C2323.49 2220.27 2314.94 2215.87 2317.51 2212.46C2320.07 2209.04 2316.65 2206.42 2324.34 2209.08C2332.03 2211.75 2337.15 2209.22 2340.57 2211.84C2343.99 2214.47 2339.72 2210.11 2346.55 2215.35C2353.39 2220.6 2361.08 2227.57 2356.81 2218.91C2352.53 2210.25 2351.86 2212.74 2348.35 2208.01C2344.84 2203.28 2343.99 2205.85 2342.28 2202.39C2340.57 2198.92 2341.42 2200.65 2338.01 2198.03C2334.59 2195.41 2333.73 2193.68 2328.61 2191.9C2323.48 2190.12 2319.42 2190.5 2309.06 2186.73C2298.71 2182.96 2295.27 2180.3 2296.56 2178.61L2296.6 2178.55C2297.91 2176.85 2300.46 2173.51 2304.68 2173.55C2308.96 2173.6 2308.96 2177.91 2314.94 2177.11C2320.92 2176.31 2322.52 2175.26 2325.19 2176.36C2327.85 2177.46 2330.31 2173.83 2326.04 2169.48C2321.77 2165.12 2319.2 2159.93 2315.79 2157.31C2312.37 2154.68 2311.04 2151.99 2305.53 2149.44C2300.03 2146.89 2296.99 2145.04 2291.01 2141.53C2285.03 2138.02 2281.61 2139.71 2284.17 2136.29C2286.74 2132.87 2291.01 2128.61 2293.57 2129.5C2296.13 2130.39 2297.84 2129.55 2302.11 2129.59C2306.38 2129.64 2303.62 2128.85 2308.85 2130.58C2314.07 2132.31 2314.07 2132.31 2317.49 2134.93C2320.23 2137.02 2323.56 2139.11 2324.88 2139.9C2320.51 2131.92 2317.84 2127.03 2317.49 2126.31C2314.93 2121.12 2303.15 2101.56 2302.11 2099.44C2301.06 2097.33 2293.56 2095.04 2289.29 2095C2285.02 2094.95 2280.75 2099.21 2272.21 2103.43L2248.29 2115.23Z" fill="#5B5650"/>
<path d="M2342.25 2043.02C2338.15 2045.04 2326.88 2062.09 2321.75 2070.36L2342.96 2115.9C2342.15 2114.15 2355.92 2062.12 2357.63 2061.28C2359.34 2060.43 2361.05 2072.51 2360.2 2079.39C2359.34 2086.28 2361.05 2089.74 2358.49 2097.47C2355.93 2105.19 2353.37 2104.3 2354.22 2110.34C2355.08 2116.38 2368.75 2122.56 2373.02 2118.3C2377.29 2114.04 2375.58 2106.26 2379 2104.58C2382.41 2102.89 2381.56 2122.7 2379 2130.42C2376.44 2138.15 2375.48 2144.82 2377.3 2148.49C2379.11 2152.17 2379.86 2158 2386.7 2158.93C2393.53 2159.87 2396.09 2152.14 2400.36 2147.88C2404.63 2143.62 2410.82 2138.94 2411.57 2136.15C2412.32 2133.37 2414.03 2145.45 2410.62 2155.75C2407.2 2166.05 2411.48 2179.01 2410.62 2185.9C2409.77 2192.78 2414.9 2203.17 2415.75 2204.9C2416.61 2206.64 2422.96 2223.81 2426.86 2218.81C2429.98 2214.8 2437.84 2202.31 2441.38 2196.57C2445.69 2195.26 2454.05 2194.68 2452.98 2202.84C2451.64 2213.04 2453.34 2212.2 2448.22 2223.34C2443.1 2234.49 2442.24 2232.76 2444.81 2237.95C2447.37 2243.15 2442.24 2241.37 2452.49 2240.62C2462.75 2239.87 2466.16 2238.18 2472.14 2233.08C2478.12 2227.97 2479.83 2227.13 2484.96 2224.6C2490.08 2222.07 2497.77 2216.13 2498.62 2213.55C2501.19 2210.13 2504.6 2204.14 2496.06 2204.05C2487.52 2203.96 2481.54 2204.75 2475.55 2201.24C2469.57 2197.73 2467.01 2196.84 2461.88 2190.76C2488.85 2185.14 2480.67 2172.87 2477.26 2170.25C2473.84 2167.63 2467.86 2168.42 2461.88 2164.91L2449.92 2157.89C2443.94 2154.38 2437.96 2155.18 2431.97 2151.67C2427.19 2148.86 2423.14 2142.39 2421.72 2139.5C2419.73 2138.33 2418.3 2136.02 2428.55 2136.13C2441.37 2136.26 2447.35 2139.78 2449.91 2140.66C2452.48 2141.55 2449.91 2132.05 2446.49 2129.43C2443.08 2126.81 2437.95 2125.03 2433.68 2120.68C2429.4 2116.32 2431.95 2117.17 2421.28 2117.08C2410.61 2116.98 2408.9 2122.13 2402.07 2116.89C2395.23 2111.65 2389.25 2103.83 2388.39 2102.1C2387.54 2100.36 2381.56 2101.16 2390.96 2098.68C2400.35 2096.2 2385.83 2092.59 2406.33 2099.71C2422.74 2105.4 2430.26 2105.13 2431.97 2104.29C2425.99 2102.22 2412.66 2097.02 2407.19 2092.82C2400.35 2087.58 2402.91 2084.16 2393.52 2082.34C2384.12 2080.51 2380.7 2077.89 2375.57 2076.11C2370.45 2074.34 2369.12 2071.64 2368.07 2069.52C2367.03 2067.41 2365.32 2068.25 2369.59 2063.99C2391.46 2060.09 2415.46 2074.38 2424.73 2082.01C2418.3 2073.49 2411.42 2065.39 2402.24 2052.66C2388.76 2033.95 2381.55 2040.86 2375.57 2037.35C2369.59 2033.84 2347.38 2040.49 2342.25 2043.02Z" fill="#5B5650"/>
<path d="M2437.07 1976.85C2434.33 1978.2 2415.43 2007.63 2406.32 2022.18L2427.26 2047.38L2433.39 2015.28C2437.6 2017.35 2445.91 2022.51 2445.48 2026.54C2444.96 2031.59 2442.98 2042.86 2445.54 2048.05C2448.11 2053.25 2445.63 2054.47 2447.33 2057.94C2452.38 2061.91 2455.86 2042.96 2458 2041.91C2460.15 2040.85 2455.99 2029.97 2464.42 2032.28C2472.84 2034.58 2476.38 2034.99 2474.67 2044.45C2472.96 2053.91 2469.67 2055.54 2468.26 2062.69C2466.85 2069.85 2465.45 2080.26 2468.43 2086.3C2470.82 2091.13 2481.56 2076.58 2486.64 2068.7C2485.99 2067.58 2485.57 2065.78 2489.08 2067.49C2495.18 2073.1 2496.63 2068.03 2495.48 2080.46C2494.33 2092.9 2492.62 2093.75 2493.48 2099.79C2494.33 2105.82 2500.31 2113.64 2501.17 2115.37C2501.81 2116.67 2508.71 2115.63 2507.52 2118.27L2516.54 2103.48C2516.83 2102.62 2517.91 2101.94 2519.96 2106.1C2522.53 2111.3 2524.24 2119.07 2525.09 2120.8C2525.94 2122.53 2525.09 2125.11 2532.78 2136.39C2540.47 2147.67 2530.22 2122.58 2531.07 2120C2531.75 2117.94 2533.06 2111.12 2533.63 2107.97C2537.34 2121.22 2544.92 2148.07 2545.6 2149.45C2557.56 2147.86 2562.68 2141.02 2567.81 2138.49C2572.94 2135.96 2572.94 2135.96 2574.64 2130.81C2576.35 2125.66 2579.77 2123.98 2584.89 2117.14C2588.99 2111.67 2564.39 2107.16 2551.57 2105.58C2546.16 2101.79 2535.68 2094.04 2537.05 2093.36C2538.75 2092.52 2558.4 2084.98 2560.97 2085.87C2563.53 2086.76 2566.95 2089.38 2569.51 2085.96C2572.07 2082.54 2560.96 2072.95 2556.69 2072.9C2552.42 2072.86 2554.13 2067.71 2543.88 2068.46C2533.62 2069.21 2526.37 2067.43 2519.1 2069.91C2511.83 2072.4 2508.85 2074.97 2506.29 2069.77C2503.72 2064.58 2483.22 2061.77 2499.45 2055.92C2515.68 2050.06 2519.95 2054.41 2525.93 2053.62C2531.91 2052.82 2531.91 2052.82 2536.18 2052.87C2540.46 2052.91 2525.93 2036.39 2520.8 2038.92C2515.68 2041.45 2496.03 2048.99 2495.18 2047.26C2494.32 2045.52 2488.34 2046.32 2486.63 2042.86C2484.92 2039.39 2479.8 2041.92 2479.8 2037.61C2479.79 2033.31 2480.65 2026.42 2489.19 2026.52L2506.28 2026.7C2504.28 2025.53 2498.93 2023 2493.46 2022.26C2486.63 2021.32 2485.77 2019.59 2476.38 2022.07C2468.86 2024.06 2460.27 2025.31 2456.92 2025.69C2455.43 2025.54 2452.11 2023.7 2450.74 2017.49C2472.61 2006.7 2491.61 2009.53 2498.38 2012.29C2494.62 2009.49 2491.33 2006.93 2489.19 2004.98C2481.5 1998.01 2461.84 1984.01 2457.57 1979.66C2453.3 1975.3 2440.48 1975.16 2437.07 1976.85Z" fill="#5B5650"/>
<path d="M1979.96 2385.47L1993.24 2387.53L1994.67 2309.29L1995.08 2286.65L1995.9 2241.91L1991.16 2239.94L1972.36 2219.07L1986.03 2246.78C1986.72 2248.17 1988.6 2269.21 1989.46 2279.55C1980.91 2272.28 1963.31 2257.56 1961.26 2256.85C1959.21 2256.14 1972.37 2272.19 1979.21 2280.3L1988.61 2303.66L1988.61 2320.89L1957 2299.88L1992.03 2345.05L1989.47 2365.7C1979.22 2356.4 1958.18 2337.63 1956.03 2336.97C1953.89 2336.3 1949.52 2336.59 1947.61 2336.82C1958.15 2351 1979.37 2380.59 1979.96 2385.47Z" fill="#4A4646"/>
<path d="M1894.99 2372.27L1901.9 2373.34L1939.06 2336.72C1928.33 2342.25 1907.19 2353.08 1908.45 2352.18C1910.02 2351.06 1927.1 2308.17 1928.81 2307.32C1930.17 2306.65 1921.02 2305.42 1916.27 2304.9C1924.26 2296.64 1940.08 2279.79 1939.4 2278.41C1938.71 2277.02 1925.21 2286.12 1918.55 2290.85C1920.83 2285.42 1925.89 2273.87 1927.94 2271.13C1930.51 2267.72 1941.61 2260.08 1943.32 2259.24C1944.69 2258.57 1953 2245.85 1956.99 2239.57L1927.09 2256.48C1929.93 2250.77 1935.46 2239 1934.77 2237.61C1934.09 2236.23 1945.31 2227.39 1951 2223.14L1956.98 2209.42L1932.21 2219.49L1925.69 2225.9C1915.63 2274.45 1903.92 2330.52 1894.99 2372.27Z" fill="#4A4646"/>
<path d="M2047.54 2242.28L2045.01 2392.14L2133.86 2391.38L2129.76 2292.65L2127.29 2233.08L2126.59 2216.2C2125.87 2215.12 2123.92 2212.78 2121.87 2212.07C2119.3 2211.18 2115.03 2206.82 2112.47 2205.93C2109.9 2205.05 2098.8 2204.06 2094.71 2204.4C2090.63 2204.74 2097.94 2215.25 2098.8 2216.99C2099.65 2218.72 2115.89 2230.09 2118.45 2230.98C2121.01 2231.87 2123.72 2245.96 2125.29 2249.15C2126.86 2252.33 2116.75 2244.75 2113.33 2242.12C2109.91 2239.5 2097.09 2239.37 2095.39 2240.21C2093.68 2241.05 2104.92 2255.23 2110.77 2258.46C2116.61 2261.7 2117.6 2263.71 2118.87 2266.29C2119.89 2268.35 2120.8 2275.93 2121.13 2279.46C2121.66 2284.85 2122.39 2294.94 2121.03 2292.17C2119.32 2288.71 2104.79 2280.8 2099.67 2279.02C2094.54 2277.24 2097.1 2282.44 2097.96 2284.17C2098.81 2285.9 2114.19 2299.85 2117.61 2302.47C2121.03 2305.09 2123.59 2314.6 2124.45 2316.33C2125.3 2318.06 2126.22 2337.15 2126.16 2341.33C2126.1 2345.51 2119.39 2340.52 2116.76 2335.2C2114.13 2329.87 2097.97 2327.24 2096.26 2328.09C2094.55 2328.93 2110.79 2353.22 2111.64 2354.96C2112.32 2356.34 2123.89 2362.55 2129.58 2365.49C2128.44 2370.36 2125.66 2379.92 2123.6 2379.21C2121.04 2378.32 2108.23 2382.49 2102.25 2383.28C2096.27 2384.08 2083.45 2383.94 2077.47 2384.74C2071.49 2385.53 2060.39 2388.86 2056.97 2390.55C2053.55 2392.23 2051.84 2380.15 2050.99 2378.42C2050.13 2376.69 2054.01 2359.7 2053.16 2357.97C2052.48 2356.58 2061.67 2337.25 2066.36 2327.76L2053.54 2336.24C2054.11 2328.78 2055.25 2313 2055.25 2309.55C2055.25 2306.11 2056.66 2299.5 2057.37 2296.63C2059.65 2295.51 2064.63 2292.41 2066.35 2289C2068.06 2285.59 2079.59 2264.16 2085.14 2253.88L2055.24 2279.4L2055.24 2266.48L2070.61 2228.74L2056.09 2233.75C2055.8 2228.87 2055.4 2218.58 2056.08 2216.52C2056.77 2214.46 2062.63 2202.53 2065.48 2196.81L2048.64 2205.74L2047.54 2242.28Z" fill="#4A4646"/>
<path d="M2183.41 2379.85C2217.54 2363.19 2237.33 2360.05 2273.11 2359.28L2248.08 2272.56L2229.59 2208.45L2225.24 2193.37L2220.96 2193.32C2218.4 2192.43 2212.42 2190.65 2209 2190.61C2204.73 2190.56 2199.6 2180.17 2194.48 2178.39C2189.35 2176.61 2188.5 2179.19 2185.93 2182.61C2186.79 2184.34 2189.85 2190.54 2194.48 2191.31C2199.11 2192.08 2202.17 2193.98 2206.44 2198.34C2210.71 2202.69 2212.42 2206.15 2215.84 2208.77C2219.26 2211.4 2221.38 2215.71 2224.39 2221.79C2227.39 2227.87 2225.34 2228.04 2214.13 2222.54C2202.92 2217.04 2211.13 2220.76 2208.15 2219.03C2205.17 2217.29 2203.88 2218.98 2200.46 2220.67C2197.05 2222.35 2202.59 2224.98 2200.47 2229.28C2198.34 2233.59 2205.59 2235.37 2208.26 2236.47C2210.93 2237.57 2209.87 2239.72 2214.99 2241.5C2220.12 2243.28 2223.73 2246.29 2225.44 2245.44C2227.14 2244.6 2230.37 2251.14 2232.08 2254.61C2233.79 2258.07 2233.79 2258.07 2234.65 2264.11C2235.5 2270.15 2235.5 2270.15 2233.79 2270.99C2232.08 2271.84 2230.37 2268.37 2225.25 2262.29C2220.12 2256.2 2220.12 2260.51 2212.43 2257.84C2204.74 2255.17 2203.04 2260.32 2201.33 2261.17C2199.62 2262.01 2200.47 2263.74 2216.71 2279.42C2232.94 2290.8 2222.69 2282.93 2226.96 2287.29C2231.23 2291.64 2236.36 2289.11 2239.78 2291.73C2243.19 2294.35 2244.05 2296.08 2244.9 2302.12C2245.76 2308.16 2250.89 2314.25 2246.62 2314.2C2244.91 2310.74 2226.11 2311.4 2219.28 2310.46C2212.44 2309.53 2222.7 2321.7 2226.97 2326.05C2231.24 2330.4 2238.93 2328.76 2246.62 2331.43C2254.31 2334.1 2261.14 2335.03 2260.29 2341.92L2253.46 2345.29C2251.75 2346.13 2246.62 2348.66 2237.22 2351.14C2227.83 2353.63 2231.24 2351.94 2208.18 2361.17C2185.11 2370.39 2202.2 2361.96 2196.22 2362.76C2190.24 2363.56 2194.51 2363.6 2189.81 2362.69C2185.11 2361.78 2188.53 2360.09 2187.97 2356.06C2187.4 2352.03 2187.67 2349.75 2189.83 2344.38C2191.99 2339 2196.21 2332.61 2201.83 2326.76C2206.32 2322.09 2205.49 2315.93 2204.52 2313.44C2201.46 2314.94 2194.84 2318.64 2192.79 2321.37C2190.74 2324.11 2185.98 2329.76 2183.85 2332.25L2178.72 2321.86C2177.01 2318.39 2176.16 2316.66 2175.71 2308.27C2175.25 2299.88 2176.56 2301.39 2181.68 2294.55C2186.81 2287.71 2187.42 2278.8 2190.22 2268.8C2193.02 2258.8 2191.93 2259.34 2187.66 2259.3C2183.39 2259.25 2170.57 2267.73 2166.3 2267.68C2162.88 2267.64 2164.31 2266.51 2165.45 2265.95L2164.59 2264.21C2164.91 2261.99 2165.89 2257.37 2167.26 2256.7C2168.96 2255.86 2168.01 2249.61 2168 2245.3C2168 2240.99 2169.04 2241.53 2170.57 2237.57C2172.1 2233.61 2191.07 2223.15 2192.78 2218C2194.14 2213.88 2188.22 2214.51 2185.09 2215.33C2181.1 2218.74 2172.79 2225.71 2171.42 2226.38C2169.71 2227.23 2162.02 2233.18 2160.31 2234.02C2158.61 2234.86 2157.75 2228.82 2155.19 2223.63C2152.62 2218.43 2154.95 2212.97 2158.6 2209.02C2162.26 2205.06 2166.29 2198.76 2168.85 2195.35C2170.9 2192.61 2173.69 2185.06 2174.83 2181.63C2167.42 2188.15 2152.23 2201.82 2150.67 2204.31C2151.75 2218.03 2152.62 2229.61 2152.62 2231.35L2183.41 2379.85Z" fill="#4A4646"/>
<path d="M2257.7 2194.58C2257.73 2194.64 2257.78 2194.78 2257.87 2195.01L2311.55 2333.86L2408.86 2292.3C2382.04 2243.7 2351.38 2188.11 2333.26 2155.15C2330.04 2149.29 2327.22 2144.16 2324.88 2139.9C2323.56 2139.11 2320.23 2137.02 2317.49 2134.93C2314.07 2132.31 2314.07 2132.31 2308.85 2130.58C2303.62 2128.85 2306.38 2129.64 2302.11 2129.59C2297.84 2129.55 2296.13 2130.39 2293.57 2129.5C2291.01 2128.61 2286.74 2132.87 2284.17 2136.29C2281.61 2139.71 2285.03 2138.02 2291.01 2141.53C2296.99 2145.04 2300.03 2146.89 2305.53 2149.44C2311.04 2151.99 2312.37 2154.68 2315.79 2157.31C2319.2 2159.93 2321.77 2165.12 2326.04 2169.48C2330.31 2173.83 2327.85 2177.46 2325.19 2176.36C2322.52 2175.26 2320.92 2176.31 2314.94 2177.11C2308.96 2177.91 2308.96 2173.6 2304.68 2173.55C2300.46 2173.51 2297.91 2176.85 2296.6 2178.55L2296.56 2178.61C2295.27 2180.3 2298.71 2182.96 2309.06 2186.73C2319.42 2190.5 2323.48 2190.12 2328.61 2191.9C2333.73 2193.68 2334.59 2195.41 2338.01 2198.03C2341.42 2200.65 2340.57 2198.92 2342.28 2202.39C2343.99 2205.85 2344.84 2203.28 2348.35 2208.01C2351.86 2212.74 2352.53 2210.25 2356.81 2218.91C2361.08 2227.57 2353.39 2220.6 2346.55 2215.35C2339.72 2210.11 2343.99 2214.47 2340.57 2211.84C2337.15 2209.22 2332.03 2211.75 2324.34 2209.08C2316.65 2206.42 2320.07 2209.04 2317.51 2212.46C2314.94 2215.87 2323.49 2220.27 2327.76 2220.32C2332.03 2220.37 2331.18 2222.94 2335.45 2222.99C2339.72 2223.03 2343.99 2223.08 2352.54 2227.48C2361.08 2231.88 2356.81 2231.83 2359.37 2237.03C2361.94 2242.23 2366.21 2242.27 2373.04 2247.51C2378.51 2251.71 2378.74 2256.19 2378.17 2257.91L2373.05 2256.13C2370.48 2255.24 2369.63 2253.51 2364.5 2251.73C2359.37 2249.95 2355.59 2250.89 2348.27 2248.97C2340.95 2247.04 2340.58 2250.61 2336.31 2254.87C2332.04 2259.13 2335.46 2257.45 2336.8 2260.17C2338.14 2262.89 2346.56 2262.73 2352.54 2266.24C2358.52 2269.76 2362.8 2269.8 2367.92 2271.58C2373.05 2273.36 2377.32 2273.4 2382.45 2275.18C2387.57 2276.96 2390.14 2282.16 2379.03 2289.79C2369.63 2292.27 2368.78 2294.85 2353.4 2302.43C2338.03 2310.02 2332.9 2312.55 2321.8 2315.88C2310.69 2319.2 2316.67 2318.41 2313.25 2315.78C2309.84 2313.16 2309.84 2313.16 2309.83 2304.55C2309.83 2295.93 2310.69 2297.67 2314.1 2287.37C2317.52 2277.07 2317.52 2277.07 2322.64 2270.23C2327.77 2263.39 2326.91 2261.66 2326.06 2259.93C2325.2 2258.2 2319.22 2258.99 2316.66 2258.1C2314.1 2257.22 2311.54 2264.94 2308.12 2266.63C2304.7 2268.31 2300.43 2276.88 2299.58 2275.15C2298.72 2273.42 2296.16 2263.91 2296.16 2259.61C2296.16 2255.3 2297.86 2254.46 2297.01 2252.72C2296.15 2250.99 2297.01 2248.42 2297.86 2245.84C2298.72 2243.27 2301.28 2235.54 2307.26 2226.13C2313.24 2216.72 2303.84 2219.2 2299.57 2219.15C2295.29 2219.11 2294.44 2221.68 2291.02 2223.37C2288.29 2224.72 2284.76 2230.77 2283.34 2233.62C2281.63 2231.6 2278.04 2226.33 2277.35 2221.5C2276.5 2215.46 2276.5 2211.15 2275.64 2209.42C2274.79 2207.69 2283.33 2181.94 2282.47 2180.2C2281.62 2178.47 2276.49 2185.31 2274.78 2186.15C2273.08 2187 2269.66 2192.99 2267.95 2193.83C2266.24 2194.67 2261.97 2190.32 2260.26 2186.86C2258.89 2184.09 2261.96 2155.86 2263.67 2142.1L2246.46 2169.97L2257.7 2194.58Z" fill="#4A4646"/>
<path d="M2493.49 2177.32C2480.67 2164.26 2443.07 2109.58 2433.67 2094.83C2432.22 2092.55 2430.78 2090.41 2429.34 2088.35C2427.81 2086.17 2426.28 2084.08 2424.73 2082.01C2415.46 2074.38 2391.46 2060.09 2369.59 2063.99C2365.32 2068.25 2367.03 2067.41 2368.07 2069.52C2369.12 2071.64 2370.45 2074.34 2375.57 2076.11C2380.7 2077.89 2384.12 2080.51 2393.52 2082.34C2402.91 2084.16 2400.35 2087.58 2407.19 2092.82C2412.66 2097.02 2425.99 2102.22 2431.97 2104.29C2430.26 2105.13 2422.74 2105.4 2406.33 2099.71C2385.83 2092.59 2400.35 2096.2 2390.96 2098.68C2381.56 2101.16 2387.54 2100.36 2388.39 2102.1C2389.25 2103.83 2395.23 2111.65 2402.07 2116.89C2408.9 2122.13 2410.61 2116.98 2421.28 2117.08C2431.95 2117.17 2429.4 2116.32 2433.68 2120.68C2437.95 2125.03 2443.08 2126.81 2446.49 2129.43C2449.91 2132.05 2452.48 2141.55 2449.91 2140.66C2447.35 2139.78 2441.37 2136.26 2428.55 2136.13C2418.3 2136.02 2419.73 2138.33 2421.72 2139.5C2423.14 2142.39 2427.19 2148.86 2431.97 2151.67C2437.96 2155.18 2443.94 2154.38 2449.92 2157.89L2461.88 2164.91C2467.86 2168.42 2473.84 2167.63 2477.26 2170.25C2480.67 2172.87 2488.85 2185.14 2461.88 2190.76C2467.01 2196.84 2469.57 2197.73 2475.55 2201.24C2481.54 2204.75 2487.52 2203.96 2496.06 2204.05C2504.6 2204.14 2501.19 2210.13 2498.62 2213.55C2497.77 2216.13 2490.08 2222.07 2484.96 2224.6C2479.83 2227.13 2478.12 2227.97 2472.14 2233.08C2466.16 2238.18 2462.75 2239.87 2452.49 2240.62C2442.24 2241.37 2447.37 2243.15 2444.81 2237.95C2442.24 2232.76 2443.1 2234.49 2448.22 2223.34C2453.34 2212.2 2451.64 2213.04 2452.98 2202.84C2454.05 2194.68 2445.69 2195.26 2441.38 2196.57C2437.84 2202.31 2429.98 2214.8 2426.86 2218.81C2422.96 2223.81 2416.61 2206.64 2415.75 2204.9C2414.9 2203.17 2409.77 2192.78 2410.62 2185.9C2411.48 2179.01 2407.2 2166.05 2410.62 2155.75C2414.03 2145.45 2412.32 2133.37 2411.57 2136.15C2410.82 2138.94 2404.63 2143.62 2400.36 2147.88C2396.09 2152.14 2393.53 2159.87 2386.7 2158.93C2379.86 2158 2379.11 2152.17 2377.3 2148.49C2375.48 2144.82 2376.44 2138.15 2379 2130.42C2381.56 2122.7 2382.41 2102.89 2379 2104.58C2375.58 2106.26 2377.29 2114.04 2373.02 2118.3C2368.75 2122.56 2355.08 2116.38 2354.22 2110.34C2353.37 2104.3 2355.93 2105.19 2358.49 2097.47C2361.05 2089.74 2359.34 2086.28 2360.2 2079.39C2361.05 2072.51 2359.34 2060.43 2357.63 2061.28C2355.92 2062.12 2342.15 2114.15 2342.96 2115.9L2357.65 2147.42C2359.86 2149.12 2400.63 2219.37 2432.26 2274.3C2455.63 2251.43 2471.65 2238.19 2525.88 2210.87C2512.06 2196.39 2498.75 2182.67 2493.49 2177.32Z" fill="#4A4646"/>
<path d="M2448.19 2072.59L2548.05 2187.01C2556.92 2174.02 2575.33 2147.7 2578.06 2146.36C2580.8 2145.01 2592.87 2133.31 2598.56 2127.63L2625.2 2117.87C2597.03 2092.67 2531.33 2036.22 2525.93 2032.08C2523.59 2030.29 2519.46 2027.37 2514.73 2024.03C2514.4 2023.8 2514.07 2023.57 2513.74 2023.33C2512.18 2022.23 2510.57 2021.09 2508.94 2019.94C2505.34 2017.38 2501.67 2014.75 2498.38 2012.29C2491.61 2009.53 2472.61 2006.7 2450.74 2017.49C2452.11 2023.7 2455.43 2025.54 2456.92 2025.69C2460.27 2025.31 2468.86 2024.06 2476.38 2022.07C2485.77 2019.59 2486.63 2021.32 2493.46 2022.26C2498.93 2023 2504.28 2025.53 2506.28 2026.7L2489.19 2026.52C2480.65 2026.42 2479.79 2033.31 2479.8 2037.61C2479.8 2041.92 2484.92 2039.39 2486.63 2042.86C2488.34 2046.32 2494.32 2045.52 2495.18 2047.26C2496.03 2048.99 2515.68 2041.45 2520.8 2038.92C2525.93 2036.39 2540.46 2052.91 2536.18 2052.87C2531.91 2052.82 2531.91 2052.82 2525.93 2053.62C2519.95 2054.41 2515.68 2050.06 2499.45 2055.92C2483.22 2061.77 2503.72 2064.58 2506.29 2069.77C2508.85 2074.97 2511.83 2072.4 2519.1 2069.91C2526.37 2067.43 2533.62 2069.21 2543.88 2068.46C2554.13 2067.71 2552.42 2072.86 2556.69 2072.9C2560.96 2072.95 2572.07 2082.54 2569.51 2085.96C2566.95 2089.38 2563.53 2086.76 2560.97 2085.87C2558.4 2084.98 2538.75 2092.52 2537.05 2093.36C2535.68 2094.04 2546.16 2101.79 2551.57 2105.58C2564.39 2107.16 2588.99 2111.67 2584.89 2117.14C2579.77 2123.98 2576.35 2125.66 2574.64 2130.81C2572.94 2135.96 2572.94 2135.96 2567.81 2138.49C2562.68 2141.02 2557.56 2147.86 2545.6 2149.45C2544.92 2148.07 2537.34 2121.22 2533.63 2107.97C2533.06 2111.12 2531.75 2117.94 2531.07 2120C2530.22 2122.58 2540.47 2147.67 2532.78 2136.39C2525.09 2125.11 2525.94 2122.53 2525.09 2120.8C2524.24 2119.07 2522.53 2111.3 2519.96 2106.1C2517.91 2101.94 2516.83 2102.62 2516.54 2103.48L2507.52 2118.27C2507.44 2118.46 2507.32 2118.66 2507.15 2118.88L2507.52 2118.27C2508.71 2115.63 2501.81 2116.67 2501.17 2115.37C2500.31 2113.64 2494.33 2105.82 2493.48 2099.79C2492.62 2093.75 2494.33 2092.9 2495.48 2080.46C2496.63 2068.03 2495.18 2073.1 2489.08 2067.49C2485.57 2065.78 2485.99 2067.58 2486.64 2068.7C2481.56 2076.58 2470.82 2091.13 2468.43 2086.3C2465.45 2080.26 2466.85 2069.85 2468.26 2062.69C2469.67 2055.54 2472.96 2053.91 2474.67 2044.45C2476.38 2034.99 2472.84 2034.58 2464.42 2032.28C2455.99 2029.97 2460.15 2040.85 2458 2041.91C2455.86 2042.96 2452.38 2061.91 2447.33 2057.94C2445.63 2054.47 2448.11 2053.25 2445.54 2048.05C2442.98 2042.86 2444.96 2031.59 2445.48 2026.54C2445.91 2022.51 2437.6 2017.35 2433.39 2015.28L2427.26 2047.38L2448.19 2072.59Z" fill="#4A4646"/>
<path d="M1993.24 2387.53L1979.96 2385.47L1901.9 2373.34L1894.99 2372.27C1893.39 2379.77 1891.88 2386.81 1890.48 2393.26C1894.72 2390.37 1903.87 2385.1 1906.61 2387.2C1910.03 2389.82 1918.57 2394.22 1923.7 2396L1946.76 2404C1951.89 2405.78 1954.45 2402.36 1961.29 2403.3C1968.12 2404.23 1983.62 2400.89 1986.06 2401.84C1988.02 2402.6 1991.48 2402.87 1992.96 2402.91L1993.24 2387.53Z" fill="#4C4947"/>
<path d="M1906.61 2387.2C1903.87 2385.1 1894.72 2390.37 1890.48 2393.26C1889.16 2399.36 1887.94 2404.93 1886.85 2409.87C1889.45 2410.02 1895.51 2410.34 1898.92 2410.38L1903.19 2410.42C1904.33 2411.3 1908.15 2413.58 1914.3 2415.71C1921.99 2418.38 1921.14 2416.65 1930.53 2418.47C1939.93 2420.29 1935.66 2420.25 1947.62 2418.65C1959.58 2417.06 1963 2419.68 1968.98 2418.88C1973.76 2418.25 1985.21 2421.64 1990.34 2423.42L1992.96 2402.91C1991.48 2402.87 1988.02 2402.6 1986.06 2401.84C1983.62 2400.89 1968.12 2404.23 1961.29 2403.3C1954.45 2402.36 1951.89 2405.78 1946.76 2404L1923.7 2396C1918.57 2394.22 1910.03 2389.82 1906.61 2387.2Z" fill="#BD8C64"/>
<path d="M1990.34 2423.42C1985.21 2421.64 1973.76 2418.25 1968.98 2418.88C1963 2419.68 1959.58 2417.06 1947.62 2418.65C1935.66 2420.25 1939.93 2420.29 1930.53 2418.47C1921.14 2416.65 1921.99 2418.38 1914.3 2415.71C1908.15 2413.58 1904.33 2411.3 1903.19 2410.42L1898.92 2410.38C1895.51 2410.34 1889.45 2410.02 1886.85 2409.87C1885.83 2414.49 1884.91 2418.56 1884.13 2421.98C1886.5 2421.53 1893.29 2421.34 1901.49 2424.19C1911.74 2427.74 1917.72 2431.25 1923.7 2430.46C1929.68 2429.66 1927.25 2429.03 1936.58 2430.72C1945.91 2432.42 1944.21 2433.26 1951.04 2434.2C1961.98 2435.69 1982.37 2437.41 1991.2 2438.08L1990.34 2423.42Z" fill="#4C4947"/>
<path d="M1880.99 2434.3L1992.05 2452.73L1991.2 2438.08C1982.37 2437.41 1961.98 2435.69 1951.04 2434.2C1944.21 2433.26 1945.91 2432.42 1936.58 2430.72C1927.25 2429.03 1929.68 2429.66 1923.7 2430.46C1917.72 2431.25 1911.74 2427.74 1901.49 2424.19C1893.29 2421.34 1886.5 2421.53 1884.13 2421.98C1882.41 2429.47 1881.3 2433.89 1880.99 2434.3Z" fill="#BD8C64"/>
<path d="M2133.86 2391.38L2045.01 2392.14L2044.65 2404.32C2047.9 2405.17 2056.97 2406.05 2067.22 2402.72C2071.5 2402.76 2075.38 2403 2078.33 2403.7C2081.28 2404.4 2083.46 2405.48 2087.73 2405.52C2092 2405.57 2092.85 2407.3 2100.54 2409.97C2108.23 2412.64 2109.09 2410.06 2112.5 2408.37C2115.92 2406.69 2134.72 2401.72 2137.39 2402.56L2133.86 2391.38Z" fill="#4C4947"/>
<path d="M2137.39 2402.56C2134.72 2401.72 2115.92 2406.69 2112.5 2408.37C2109.09 2410.06 2108.23 2412.64 2100.54 2409.97C2092.85 2407.3 2092 2405.57 2087.73 2405.52C2083.46 2405.48 2081.28 2404.4 2078.33 2403.7C2075.38 2403 2071.5 2402.76 2067.22 2402.72C2056.97 2406.05 2047.9 2405.17 2044.65 2404.32L2044.16 2420.56C2050.99 2420.06 2066.88 2419.25 2075.77 2420.04C2086.88 2421.02 2085.17 2421.86 2096.27 2422.84C2119.34 2422.23 2121.9 2418.81 2125.32 2417.13C2128.74 2415.44 2130.45 2414.6 2133.01 2415.49C2135.06 2416.2 2139.45 2415.61 2141.38 2415.23L2137.39 2402.56Z" fill="#BD8C64"/>
<path d="M2075.77 2420.04C2066.88 2419.25 2050.99 2420.06 2044.16 2420.56L2043.74 2434.77C2050.43 2433.26 2065.35 2430.78 2071.5 2432.91C2079.19 2435.58 2073.38 2436.72 2084.32 2437.36C2109.09 2435.9 2115.07 2430.8 2119.34 2430.85C2122.76 2430.88 2134.44 2429.86 2139.85 2429.34L2146.2 2430.52L2141.38 2415.23C2139.45 2415.61 2135.06 2416.2 2133.01 2415.49C2130.45 2414.6 2128.74 2415.44 2125.32 2417.13C2121.9 2418.81 2119.34 2422.23 2096.27 2422.84C2085.17 2421.86 2086.88 2421.02 2075.77 2420.04Z" fill="#4C4947"/>
<path d="M2043.31 2448.98L2152.67 2451.02L2146.2 2430.52L2139.85 2429.34C2134.44 2429.86 2122.76 2430.88 2119.34 2430.85C2115.07 2430.8 2109.09 2435.9 2084.32 2437.36C2073.38 2436.72 2079.19 2435.58 2071.5 2432.91C2065.35 2430.78 2050.43 2433.26 2043.74 2434.77L2043.31 2448.98Z" fill="#BD8C64"/>
<path d="M2273.11 2359.28C2237.33 2360.05 2217.54 2363.19 2183.41 2379.85C2183.76 2382.81 2184.17 2386.28 2184.62 2390.02C2185.97 2389.36 2203.96 2384.79 2209.49 2384.21C2215.02 2383.64 2219.53 2381.41 2228.69 2381.2C2237.85 2380.99 2228.69 2376.89 2244.06 2377.92C2260.47 2376.72 2274.25 2373.08 2279.09 2371.41L2281.79 2372.58C2278.55 2367.59 2275.48 2362.9 2273.11 2359.28Z" fill="#4C4947"/>
<path d="M2209.49 2384.21C2203.96 2384.79 2185.97 2389.36 2184.62 2390.02C2185.39 2396.47 2186.28 2403.7 2187.11 2410.33C2190.43 2407.97 2199.3 2402.59 2208.19 2399.93C2219.29 2396.61 2217.58 2393.14 2226.13 2393.23C2234.67 2393.33 2234.19 2389.25 2242.12 2389.65C2250.05 2390.05 2253.46 2388.36 2256.03 2389.25C2258.59 2390.14 2259.44 2387.56 2262.01 2388.45C2264.57 2389.34 2267.13 2385.92 2269.7 2386.81C2271.75 2387.53 2277.38 2386.61 2279.95 2386.06L2289.01 2383.74C2286.65 2380.08 2284.18 2376.25 2281.79 2372.58L2279.09 2371.41C2274.25 2373.08 2260.47 2376.72 2244.06 2377.92C2228.69 2376.89 2237.85 2380.99 2228.69 2381.2C2219.53 2381.41 2215.02 2383.64 2209.49 2384.21Z" fill="#BD8C64"/>
<path d="M2208.19 2399.93C2199.3 2402.59 2190.43 2407.97 2187.11 2410.33C2187.78 2415.67 2188.43 2420.63 2188.96 2424.5C2195.37 2423.49 2210.75 2420.63 2221.01 2417.3C2233.82 2413.13 2229.55 2413.08 2245.78 2407.23C2262.01 2401.38 2262.86 2398.8 2267.14 2398.85C2271.41 2398.89 2281.66 2393.83 2285.08 2396.46C2287.81 2398.55 2293.71 2396.5 2296.32 2395.22C2294.24 2391.91 2291.7 2387.93 2289.01 2383.74L2279.95 2386.06C2277.38 2386.61 2271.75 2387.53 2269.7 2386.81C2267.13 2385.92 2264.57 2389.34 2262.01 2388.45C2259.44 2387.56 2258.59 2390.14 2256.03 2389.25C2253.46 2388.36 2250.05 2390.05 2242.12 2389.65C2234.19 2389.25 2234.67 2393.33 2226.13 2393.23C2217.58 2393.14 2219.29 2396.61 2208.19 2399.93Z" fill="#4C4947"/>
<path d="M2190.25 2432.47C2190.94 2433.86 2252.62 2421.09 2283.37 2414.53L2297.04 2425.01C2299.6 2423.03 2304.56 2418.72 2303.87 2417.33C2303.02 2415.6 2303.87 2408.72 2301.31 2403.52C2300.72 2402.34 2298.87 2399.28 2296.32 2395.22C2293.71 2396.5 2287.81 2398.55 2285.08 2396.46C2281.66 2393.83 2271.41 2398.89 2267.14 2398.85C2262.86 2398.8 2262.01 2401.38 2245.78 2407.23C2229.55 2413.08 2233.82 2413.13 2221.01 2417.3C2210.75 2420.63 2195.37 2423.49 2188.96 2424.5C2189.58 2429.04 2190.06 2432.08 2190.25 2432.47Z" fill="#BD8C64"/>
<path d="M2408.86 2292.3L2311.55 2333.86L2316.98 2348.4C2325.09 2345 2344.58 2337.09 2357.68 2332.63C2374.05 2327.06 2386.15 2317.14 2396.26 2316.1C2407.77 2315.31 2415.69 2311.19 2418.2 2309.23L2408.86 2292.3Z" fill="#4C4947"/>
<path d="M2357.68 2332.63C2344.58 2337.09 2325.09 2345 2316.98 2348.4L2324.46 2368.41C2325.28 2367.28 2327.27 2364.87 2328.64 2364.19C2330.35 2363.35 2332.06 2362.51 2339.75 2360.87C2347.43 2359.23 2344.87 2358.34 2355.12 2353.28C2365.37 2348.22 2423.39 2321.75 2423.81 2319.39L2418.2 2309.23C2415.69 2311.19 2407.77 2315.31 2396.26 2316.1C2386.15 2317.14 2374.05 2327.06 2357.68 2332.63Z" fill="#BD8C64"/>
<path d="M2423.81 2319.39C2423.39 2321.75 2365.37 2348.22 2355.12 2353.28C2344.87 2358.34 2347.43 2359.23 2339.75 2360.87C2332.06 2362.51 2330.35 2363.35 2328.64 2364.19C2327.27 2364.87 2325.28 2367.28 2324.46 2368.41L2331.25 2386.6C2338.64 2382.95 2355.3 2374.3 2362.81 2368.87C2372.21 2362.08 2374.77 2358.66 2386.73 2352.76C2398.69 2346.86 2401.25 2343.44 2404.67 2341.75L2411.4 2338.43C2414.92 2336.7 2416.93 2337.86 2419.19 2336.74C2421 2335.85 2428.63 2334.96 2432.22 2334.62L2423.81 2319.39Z" fill="#4C4947"/>
<path d="M2338.05 2404.78L2346.38 2400.14L2433.03 2351.87L2439.7 2348.16L2432.22 2334.62C2428.63 2334.96 2421 2335.85 2419.19 2336.74C2416.93 2337.86 2414.92 2336.7 2411.4 2338.43L2404.67 2341.75C2401.25 2343.44 2398.69 2346.86 2386.73 2352.76C2374.77 2358.66 2372.21 2362.08 2362.81 2368.87C2355.3 2374.3 2338.64 2382.95 2331.25 2386.6L2338.05 2404.78Z" fill="#BD8C64"/>
<path d="M2525.88 2210.87C2471.65 2238.19 2455.63 2251.43 2432.26 2274.3C2434.9 2278.89 2437.49 2283.38 2439.98 2287.72L2534.24 2219.67C2531.47 2216.75 2528.67 2213.79 2525.88 2210.87Z" fill="#4C4947"/>
<path d="M2534.24 2219.67L2439.98 2287.72C2443.76 2294.29 2447.32 2300.5 2450.58 2306.18L2479.84 2278.82C2482.73 2276.07 2489.89 2269.91 2495.36 2267.21L2505.61 2262.15C2505.94 2262.82 2508.45 2262.75 2515.86 2257.09C2523.26 2251.43 2540.4 2239.61 2548.04 2234.4C2543.79 2229.81 2539.08 2224.78 2534.24 2219.67Z" fill="#BD8C64"/>
<path d="M2450.58 2306.18L2452.51 2309.54C2454.15 2311.49 2456.79 2314.39 2459.47 2316.87C2468.82 2307.95 2487.87 2289.93 2489.24 2289.26C2490.95 2288.41 2494.36 2282.42 2499.49 2279.89C2504.62 2277.36 2510.99 2272.06 2514.01 2270.57C2517.03 2269.08 2515.72 2265.42 2525.12 2262.94C2534.51 2260.46 2536.22 2255.31 2538.78 2256.2C2540.84 2256.91 2553.02 2249.89 2558.85 2246.3C2555.89 2242.94 2552.18 2238.87 2548.04 2234.4C2540.4 2239.61 2523.26 2251.43 2515.86 2257.09C2508.45 2262.75 2505.94 2262.82 2505.61 2262.15L2495.36 2267.21C2489.89 2269.91 2482.73 2276.07 2479.84 2278.82L2450.58 2306.18Z" fill="#4C4947"/>
<path d="M2512.31 2284.34C2517.69 2278.29 2547.45 2265.56 2560.26 2259.16C2563.72 2257.44 2565.94 2256.18 2566.12 2255.63C2566.31 2255.06 2563.49 2251.55 2558.85 2246.3C2553.02 2249.89 2540.84 2256.91 2538.78 2256.2C2536.22 2255.31 2534.51 2260.46 2525.12 2262.94C2515.72 2265.42 2517.03 2269.08 2514.01 2270.57C2510.99 2272.06 2504.62 2277.36 2499.49 2279.89C2494.36 2282.42 2490.95 2288.41 2489.24 2289.26C2487.87 2289.93 2468.82 2307.95 2459.47 2316.87C2462.34 2319.54 2465.26 2321.73 2467.03 2321.75C2469.55 2321.78 2472.66 2320.02 2475.66 2317.7C2477.75 2316.08 2479.8 2314.19 2481.56 2312.43C2485.83 2308.17 2505.47 2292.02 2512.31 2284.34Z" fill="#BD8C64"/>
<path d="M2578.06 2146.36C2575.33 2147.7 2556.92 2174.02 2548.05 2187.01L2555.93 2196.04L2584.9 2168.83C2584.9 2165.96 2585.93 2158.85 2590.03 2153.38C2595.15 2146.54 2606.25 2138.91 2607.96 2138.06C2609.33 2137.39 2614.8 2136.13 2617.36 2135.58L2633.54 2125.44C2631.41 2123.46 2628.57 2120.89 2625.2 2117.87L2598.56 2127.63C2592.87 2133.31 2580.8 2145.01 2578.06 2146.36Z" fill="#4C4947"/>
<path d="M2555.93 2196.04L2570.39 2212.6C2571.93 2213.72 2573.8 2215.02 2575.83 2216.38C2575.72 2214.28 2575.85 2209.91 2577.22 2209.23C2578.93 2208.39 2579.78 2192.89 2581.49 2192.05C2583.2 2191.21 2583.2 2186.9 2584.05 2184.32C2584.9 2181.75 2586.61 2180.91 2586.61 2176.6C2586.61 2172.29 2589.34 2175.25 2590.88 2172.34C2592.42 2169.42 2599.42 2163.82 2598.57 2162.08C2597.89 2160.7 2627.39 2142.84 2642.22 2134.08C2639.95 2132.17 2638.28 2130.63 2637.86 2129.77C2637.67 2129.37 2636.13 2127.85 2633.54 2125.44L2617.36 2135.58C2614.8 2136.13 2609.33 2137.39 2607.96 2138.06C2606.25 2138.91 2595.15 2146.54 2590.03 2153.38C2585.93 2158.85 2584.9 2165.96 2584.9 2168.83L2555.93 2196.04Z" fill="#BD8C64"/>
<path d="M2642.22 2134.08C2627.39 2142.84 2597.89 2160.7 2598.57 2162.08C2599.42 2163.82 2592.42 2169.42 2590.88 2172.34C2589.34 2175.25 2586.61 2172.29 2586.61 2176.6C2586.61 2180.91 2584.9 2181.75 2584.05 2184.32C2583.2 2186.9 2583.2 2191.21 2581.49 2192.05C2579.78 2192.89 2578.93 2208.39 2577.22 2209.23C2575.85 2209.91 2575.72 2214.28 2575.83 2216.38C2578.11 2217.91 2580.59 2219.5 2583 2220.95C2590.19 2209.68 2605.07 2186.45 2607.12 2183.71C2609.68 2180.29 2617.37 2174.35 2618.22 2171.77C2619.08 2169.2 2620.78 2168.35 2626.76 2163.25C2631.55 2159.17 2640.72 2154.21 2644.7 2152.24L2656.88 2146.23C2652.58 2142.31 2646.38 2137.59 2642.22 2134.08Z" fill="#4C4947"/>
<path d="M2596.02 2225.8C2596.43 2225.25 2598.45 2223.05 2601.53 2219.75C2614.85 2205.46 2648.14 2170.4 2658.59 2157.28C2660.62 2154.73 2661.79 2153.01 2661.79 2152.43C2661.79 2151.13 2659.76 2148.86 2656.88 2146.23L2644.7 2152.24C2640.72 2154.21 2631.55 2159.17 2626.76 2163.25C2620.78 2168.35 2619.08 2169.2 2618.22 2171.77C2617.37 2174.35 2609.68 2180.29 2607.12 2183.71C2605.07 2186.45 2590.19 2209.68 2583 2220.95C2589.12 2224.62 2594.84 2227.37 2596.02 2225.8Z" fill="#BD8C64"/>
<path d="M2433.67 2094.83C2443.07 2109.58 2480.67 2164.26 2493.49 2177.32C2498.75 2182.67 2512.06 2196.39 2525.88 2210.87C2528.67 2213.79 2531.47 2216.75 2534.24 2219.67C2539.08 2224.78 2543.79 2229.81 2548.04 2234.4L2564.41 2226.32C2565.78 2225.65 2568.96 2216.9 2570.39 2212.6L2555.93 2196.04L2548.05 2187.01L2448.19 2072.59L2429.34 2088.35C2430.78 2090.41 2432.22 2092.55 2433.67 2094.83Z" fill="#5B5652"/>
<path d="M2408.86 2292.3L2418.2 2309.23L2423.81 2319.39L2438.84 2320.59L2452.51 2309.54L2450.58 2306.18C2447.32 2300.5 2443.76 2294.29 2439.98 2287.72C2437.49 2283.38 2434.9 2278.89 2432.26 2274.3C2400.63 2219.37 2359.86 2149.12 2357.65 2147.42C2354.23 2144.8 2336.29 2155.8 2333.26 2155.15C2351.38 2188.11 2382.04 2243.7 2408.86 2292.3Z" fill="#5B5652"/>
<path d="M2257.7 2194.58C2256.68 2192.52 2237.4 2203.53 2229.59 2208.45L2248.08 2272.56L2294.47 2381.05L2314.12 2364.9C2295.14 2311.1 2260.71 2202.92 2257.87 2195.01L2257.7 2194.58Z" fill="#5B5652"/>
<path d="M2152.62 2231.35L2127.29 2233.08L2129.76 2292.65L2153.51 2418.29L2179.14 2409.96L2173.84 2399.22L2152.62 2231.35Z" fill="#5B5652"/>
<path d="M2011.67 2290.13L2009.97 2308.2L1997.05 2420.11L2032.94 2432.56L2047.54 2242.28L2015.93 2242.8L2011.67 2290.13Z" fill="#5B5652"/>
<path d="M2601.53 2219.75C2650.97 2298.41 2751.87 2454.45 2754.97 2457.52C2764.85 2467.33 2848.77 2400.76 2885.66 2360.73C2878.31 2298.31 2773.75 2242.28 2658.59 2157.28C2648.14 2170.4 2614.85 2205.46 2601.53 2219.75Z" fill="#DAD1C5"/>
<path d="M2512.31 2284.34C2505.47 2292.02 2485.83 2308.17 2481.56 2312.43C2479.8 2314.19 2477.75 2316.08 2475.66 2317.7L2596.08 2561.77C2603.2 2563.28 2619.83 2565.12 2629.4 2560.4C2641.36 2554.5 2696.03 2514.61 2699.45 2512.92C2702.18 2511.57 2725.64 2491.38 2737.03 2481.45L2742.15 2453.08C2669.76 2379.37 2620.9 2350.33 2560.26 2259.16C2547.45 2265.56 2517.69 2278.29 2512.31 2284.34Z" fill="#DAD1C5"/>
<path d="M2346.38 2400.14L2425.24 2671.91C2496.92 2668.54 2532.41 2647.3 2590.96 2590.14L2433.03 2351.87L2346.38 2400.14Z" fill="#DAD1C5"/>
<path d="M2283.37 2414.53C2252.62 2421.09 2190.94 2433.86 2190.25 2432.47L2201.41 2722.04C2271.98 2722.24 2311.53 2721.56 2381.67 2682.64L2382.52 2645.6L2297.04 2425.01L2283.37 2414.53Z" fill="#DAD1C5"/>
<path d="M2152.67 2451.02L2043.31 2448.98L2022.86 2734.76C2088.53 2750.07 2126.87 2749.67 2199.7 2722.88L2152.67 2451.02Z" fill="#DAD1C5"/>
<path d="M1992.05 2452.73L1880.99 2434.3L1886.12 2449L1808.42 2730.72C1868.33 2760.25 1902.42 2775.4 1983.56 2745.53L1992.05 2452.73Z" fill="#DAD1C5"/>
<path d="M2011.67 2290.13L1995.08 2286.65L1994.67 2309.29L2009.97 2308.2L2011.67 2290.13Z" fill="#7E756E"/>
<path d="M1536.7 2418.26C1551.92 2413.21 1584.06 2402.69 1590.83 2400.96C1599.28 2398.79 1650.88 2393.75 1671.17 2391.59C1691.47 2389.42 1737.14 2388.7 1770.97 2386.54C1804.8 2384.38 1984.1 2390.86 1987.49 2395.91C1990.19 2399.95 1972.83 2440.36 1963.81 2460.06C1937.87 2464.63 1881.94 2474.63 1865.7 2478.09C1845.4 2482.41 1776.89 2496.11 1763.36 2497.55C1749.83 2498.99 1699.08 2497.55 1677.94 2497.55C1656.8 2497.55 1567.99 2488.9 1562.07 2486.74C1556.15 2484.57 1536.7 2471.6 1531.62 2468.71C1526.55 2465.83 1513.86 2444.21 1515.55 2442.04C1516.91 2440.31 1530.21 2425.46 1536.7 2418.26Z" fill="#3C3A3B"/>
<path d="M2068.68 2509.8C2068.68 2504.76 2062.76 2484.57 2061.91 2478.09C2061.24 2472.9 2061.63 2454.78 2061.91 2446.37L2045.09 2413.21C2044.1 2420.71 2042.98 2431.04 2040.77 2433.39C2037.39 2437 2017.09 2457.9 2012.01 2460.06C2006.94 2462.23 1981.57 2478.09 1974.8 2480.97C1968.03 2483.85 1929.13 2494.67 1923.21 2493.94C1917.29 2493.22 1819.18 2509.08 1807.34 2508.36C1795.5 2507.64 1752.37 2513.41 1740.53 2514.85C1728.69 2516.29 1669.48 2516.29 1660.18 2514.85C1650.88 2513.41 1551.92 2508.36 1548.54 2506.2C1545.83 2504.47 1478.06 2479.05 1444.51 2466.55L1432.67 2488.9L1419.88 2514.85C1423.02 2522.78 1429.97 2539.36 1432.67 2542.24C1436.05 2545.84 1438.59 2552.33 1446.2 2559.54C1453.82 2566.75 1464.81 2572.52 1478.34 2577.56C1491.87 2582.61 1504.56 2586.93 1511.33 2588.37C1518.09 2589.82 1533.32 2595.58 1538.39 2598.47C1543.47 2601.35 1563.76 2607.12 1575.6 2610C1587.44 2612.88 1611.97 2620.09 1620.43 2620.81C1628.89 2621.53 1675.4 2626.58 1685.55 2623.7C1695.7 2620.81 1712.62 2622.97 1721.07 2620.81C1729.53 2618.65 1746.45 2617.21 1761.67 2613.6C1776.89 2610 1798.04 2606.39 1807.34 2605.67C1814.78 2605.1 1886 2594.38 1920.67 2589.09C1928.28 2588.13 1944.52 2586.21 1948.58 2586.21C1953.66 2586.21 1969.73 2589.09 1982.41 2584.77C1995.1 2580.44 2017.93 2567.47 2021.32 2565.31C2024.02 2563.58 2042.18 2551.61 2050.92 2545.84L2069.35 2539.36C2069.15 2526.01 2068.68 2512.47 2068.68 2509.8Z" fill="#656461"/>
<path fill-rule="evenodd" clip-rule="evenodd" d="M2024.7 2382.94C1871.62 2337.52 1486.8 2356.99 1449.59 2439.16L1441.97 2443.49H1436.05L1444.51 2466.55C1478.06 2479.05 1545.83 2504.47 1548.54 2506.2C1551.92 2508.36 1650.88 2513.41 1660.18 2514.85C1669.48 2516.29 1728.69 2516.29 1740.53 2514.85C1752.37 2513.41 1795.5 2507.64 1807.34 2508.36C1819.18 2509.08 1917.29 2493.22 1923.21 2493.94C1929.13 2494.67 1968.03 2483.85 1974.8 2480.97C1981.57 2478.09 2006.94 2462.23 2012.01 2460.06C2017.09 2457.9 2037.39 2437 2040.77 2433.39C2042.98 2431.04 2044.1 2420.71 2045.09 2413.21C2045.62 2409.22 2046.1 2406.03 2046.69 2405.28C2048.04 2403.55 2057.4 2400.72 2061.91 2399.51H2135.49L2140.57 2404.56L2145.64 2409.61L2167.63 2411.77H2171.02L2145.64 2391.59L2096.59 2380.05C2090.67 2379.09 2077.47 2377.17 2072.06 2377.17C2065.3 2377.17 2043.31 2380.05 2040.77 2380.05C2038.74 2380.05 2029.21 2381.97 2024.7 2382.94ZM1590.83 2400.96C1584.06 2402.69 1551.92 2413.21 1536.7 2418.26C1530.21 2425.46 1516.91 2440.31 1515.55 2442.04C1513.86 2444.21 1526.55 2465.83 1531.62 2468.71C1536.7 2471.6 1556.15 2484.57 1562.07 2486.74C1567.99 2488.9 1656.8 2497.55 1677.94 2497.55C1699.08 2497.55 1749.83 2498.99 1763.36 2497.55C1776.89 2496.11 1845.4 2482.41 1865.7 2478.09C1881.94 2474.63 1937.87 2464.63 1963.81 2460.06C1972.83 2440.36 1990.19 2399.95 1987.49 2395.91C1984.1 2390.86 1804.8 2384.38 1770.97 2386.54C1737.14 2388.7 1691.47 2389.42 1671.17 2391.59C1650.88 2393.75 1599.28 2398.79 1590.83 2400.96Z" fill="#706E69"/>
<path fill-rule="evenodd" clip-rule="evenodd" d="M1436.05 2443.49C1430.13 2441.08 1417.62 2435.99 1414.91 2434.84C1412.2 2433.68 1373.19 2418.98 1354.02 2411.77L1340.48 2415.37C1332.59 2419.7 1316.46 2428.49 1315.11 2429.07C1313.42 2429.79 1299.89 2438.44 1297.35 2442.04C1294.81 2445.65 1280.44 2465.83 1278.74 2468.71C1277.05 2471.6 1272.82 2479.53 1273.67 2483.13C1274.35 2486.02 1273.95 2510.76 1273.67 2522.78C1273.11 2525.18 1271.81 2530.85 1271.13 2534.31C1270.46 2537.77 1272.54 2556.42 1273.67 2565.31L1282.13 2568.91C1284.2 2569.5 1287.92 2570.5 1291.43 2571.33C1293.4 2567.4 1297.52 2558.82 1298.2 2555.94C1299.04 2552.33 1302.43 2542.24 1303.27 2538.64C1304.12 2535.03 1310.04 2524.94 1312.57 2522.78C1315.11 2520.62 1315.11 2513.41 1321.03 2506.2C1326.95 2498.99 1325.26 2496.11 1328.64 2492.5C1332.03 2488.9 1343.02 2480.97 1348.94 2478.81C1354.86 2476.64 1362.47 2474.48 1370.09 2470.88C1377.7 2467.27 1392.08 2470.88 1398 2470.88C1403.92 2470.88 1421.68 2473.04 1421.68 2474.48C1421.68 2475.63 1429.01 2484.57 1432.67 2488.9L1444.51 2466.55L1436.05 2443.49ZM1340.48 2470.88C1340.48 2473.52 1340.15 2479.1 1338.79 2480.25L1346.4 2474.48C1347.81 2472.56 1350.63 2468.28 1350.63 2466.55C1350.63 2464.39 1348.94 2460.06 1348.94 2457.18C1348.94 2454.3 1343.87 2454.3 1340.48 2454.3C1337.78 2454.3 1338.23 2456.22 1338.79 2457.18L1340.48 2470.88Z" fill="#71716F"/>
<path d="M1297.35 2572.52C1302.43 2573.24 1315.96 2571.07 1316.8 2568.91C1317.65 2566.75 1322.72 2563.87 1328.64 2563.14C1334.56 2562.42 1344.71 2558.1 1350.63 2554.49C1356.55 2550.89 1370.93 2544.4 1374.31 2542.24C1377.7 2540.08 1389.54 2533.59 1393.77 2531.43C1397.15 2529.7 1402.51 2526.38 1404.76 2524.94H1414.91L1419.88 2514.85L1432.67 2488.9C1429.01 2484.57 1421.68 2475.63 1421.68 2474.48C1421.68 2473.04 1403.92 2470.88 1398 2470.88C1392.08 2470.88 1377.7 2467.27 1370.09 2470.88C1362.47 2474.48 1354.86 2476.64 1348.94 2478.81C1343.02 2480.97 1332.03 2488.9 1328.64 2492.5C1325.26 2496.11 1326.95 2498.99 1321.03 2506.2C1315.11 2513.41 1315.11 2520.62 1312.57 2522.78C1310.04 2524.94 1304.12 2535.03 1303.27 2538.64C1302.43 2542.24 1299.04 2552.33 1298.2 2555.94C1297.52 2558.82 1293.4 2567.4 1291.43 2571.33C1293.65 2571.85 1295.78 2572.29 1297.35 2572.52Z" fill="#303030"/>
<path d="M1338.79 2480.25C1340.15 2479.1 1340.48 2473.52 1340.48 2470.88L1338.79 2457.18C1338.23 2456.22 1337.78 2454.3 1340.48 2454.3C1343.87 2454.3 1348.94 2454.3 1348.94 2457.18C1348.94 2460.06 1350.63 2464.39 1350.63 2466.55C1350.63 2468.28 1347.81 2472.56 1346.4 2474.48L1338.79 2480.25Z" fill="#979093"/>
<path d="M1414.91 2524.94L1421.68 2534.31C1422.24 2538.16 1423.54 2546.71 1424.21 2550.17C1424.89 2553.63 1426.19 2567.47 1426.75 2573.96C1427.31 2577.32 1428.61 2584.34 1429.29 2585.49C1430.13 2586.93 1432.67 2596.3 1432.67 2598.47C1432.67 2600.63 1430.13 2606.39 1432.67 2610C1435.21 2613.6 1443.67 2623.7 1446.2 2628.74C1448.74 2633.79 1463.96 2645.32 1467.35 2654.69C1468.12 2656.82 1470.23 2659.58 1473.06 2662.62C1478.34 2664.78 1529.93 2702.27 1535.01 2704.43C1540.08 2706.59 1544.31 2709.47 1557.84 2715.24C1571.38 2721.01 1583.22 2727.5 1601.82 2731.82C1620.43 2736.15 1631.42 2736.87 1659.33 2743.35C1687.24 2749.84 1732.07 2750.56 1737.14 2750.56C1742.22 2750.56 1803.11 2749.12 1817.49 2745.52C1831.87 2741.91 1847.09 2736.15 1858.93 2732.54C1870.77 2728.94 1879.23 2726.77 1893.61 2721.73C1907.99 2716.68 1913.06 2715.96 1929.98 2708.75C1946.89 2701.55 1951.96 2696.5 1962.96 2690.01C1971.76 2684.82 1979.59 2679.68 1982.41 2677.76C1986.92 2675.84 1996.28 2671.99 1997.64 2671.99C1998.99 2671.99 2012.86 2667.19 2019.63 2664.78C2024.7 2661.9 2050.92 2620.81 2054.3 2612.16C2057.68 2603.51 2066.99 2574.68 2068.68 2566.75C2069.48 2563.01 2069.52 2551.26 2069.35 2539.36L2050.92 2545.84C2042.18 2551.61 2024.02 2563.58 2021.32 2565.31C2017.93 2567.47 1995.1 2580.44 1982.41 2584.77C1969.73 2589.09 1953.66 2586.21 1948.58 2586.21C1944.52 2586.21 1928.28 2588.13 1920.67 2589.09C1886 2594.38 1814.78 2605.1 1807.34 2605.67C1798.04 2606.39 1776.89 2610 1761.67 2613.6C1746.45 2617.21 1729.53 2618.65 1721.07 2620.81C1712.62 2622.97 1695.7 2620.81 1685.55 2623.7C1675.4 2626.58 1628.89 2621.53 1620.43 2620.81C1611.97 2620.09 1587.44 2612.88 1575.6 2610C1563.76 2607.12 1543.47 2601.35 1538.39 2598.47C1533.32 2595.58 1518.09 2589.82 1511.33 2588.37C1504.56 2586.93 1491.87 2582.61 1478.34 2577.56C1464.81 2572.52 1453.82 2566.75 1446.2 2559.54C1438.59 2552.33 1436.05 2545.84 1432.67 2542.24C1429.97 2539.36 1423.02 2522.78 1419.88 2514.85L1414.91 2524.94Z" fill="#4C4A4A"/>
<path d="M1501.18 2690.01C1502.02 2694.34 1502.87 2699.38 1507.94 2704.43C1513.02 2709.47 1518.09 2713.8 1525.7 2721.01C1533.32 2728.22 1538.39 2731.1 1543.47 2736.15C1548.54 2741.19 1553.61 2745.52 1557.84 2750.56C1562.07 2755.61 1567.15 2756.33 1574.76 2764.98C1582.37 2773.63 1583.22 2772.19 1589.14 2776.51C1590.26 2775.07 1593.87 2772.62 1599.29 2774.35C1606.05 2776.51 1612.82 2775.79 1622.12 2778.68C1631.42 2781.56 1635.65 2780.84 1642.42 2783.72C1649.18 2786.6 1647.49 2784.44 1655.1 2786.6C1662.72 2788.77 1662.72 2786.6 1674.56 2789.49C1686.4 2792.37 1687.24 2791.65 1693.16 2793.81C1697.9 2795.54 1703.03 2799.34 1705 2801.02L1710.08 2799.58C1747.86 2795.25 1823.75 2786.6 1825.1 2786.6H1829.93C1838.75 2780.84 1856.9 2769.3 1858.93 2769.3C1861.47 2769.3 1877.54 2766.42 1884.3 2762.82C1891.07 2759.21 1906.29 2753.45 1913.06 2750.56C1919.83 2747.68 1929.98 2741.91 1932.51 2741.91C1935.05 2741.91 1944.35 2732.54 1946.89 2732.54C1948.92 2732.54 1952.81 2730.14 1954.5 2728.94C1957.21 2726.63 1964.09 2721.73 1967.19 2719.57C1982.98 2702.27 2015.57 2667.09 2019.63 2664.78C2012.86 2667.19 1998.99 2671.99 1997.64 2671.99C1996.28 2671.99 1986.92 2675.84 1982.41 2677.76C1979.59 2679.68 1971.76 2684.82 1962.96 2690.01C1951.96 2696.5 1946.89 2701.55 1929.98 2708.75C1913.06 2715.96 1907.99 2716.68 1893.61 2721.73C1879.23 2726.77 1870.77 2728.94 1858.93 2732.54C1847.09 2736.15 1831.87 2741.91 1817.49 2745.52C1803.11 2749.12 1742.22 2750.56 1737.14 2750.56C1732.07 2750.56 1687.24 2749.84 1659.33 2743.35C1631.42 2736.87 1620.43 2736.15 1601.82 2731.82C1583.22 2727.5 1571.38 2721.01 1557.84 2715.24C1544.31 2709.47 1540.08 2706.59 1535.01 2704.43C1529.93 2702.27 1478.34 2664.78 1473.06 2662.62C1482.69 2672.99 1500.52 2686.67 1501.18 2690.01Z" fill="#615C5A"/>
<path d="M1589.14 2776.51C1595.06 2780.84 1596.75 2795.25 1596.75 2801.02C1596.75 2806.79 1599.29 2825.53 1599.29 2832.74C1599.29 2839.95 1600.98 2848.6 1601.82 2852.92C1602.67 2857.25 1605.21 2861.57 1610.28 2865.18C1615.35 2868.78 1625.5 2872.38 1634.81 2875.27C1644.11 2878.15 1655.95 2880.31 1662.72 2880.31C1668.13 2880.31 1686.96 2878.39 1695.7 2877.43L1699.08 2872.38C1700.49 2854.12 1703.31 2816.88 1703.31 2814C1703.31 2811.11 1704.44 2804.14 1705 2801.02C1703.03 2799.34 1697.9 2795.54 1693.16 2793.81C1687.24 2791.65 1686.4 2792.37 1674.56 2789.49C1662.72 2786.6 1662.72 2788.77 1655.1 2786.6C1647.49 2784.44 1649.18 2786.6 1642.42 2783.72C1635.65 2780.84 1631.42 2781.56 1622.12 2778.68C1612.82 2775.79 1606.05 2776.51 1599.29 2774.35C1593.87 2772.62 1590.26 2775.07 1589.14 2776.51Z" fill="#635A56"/>
<path d="M1831.87 2786.6C1835.25 2789.01 1842.36 2794.68 1843.71 2798.14C1845.4 2802.46 1851.32 2811.83 1852.17 2816.16C1853.01 2820.48 1856.39 2829.13 1858.93 2834.18C1861.47 2839.23 1864.01 2845.71 1864.85 2847.88C1865.7 2850.04 1868.24 2857.97 1870.77 2860.13C1873.31 2862.29 1875.85 2865.18 1881.77 2865.9C1887.69 2866.62 1890.22 2867.34 1905.45 2867.34C1920.67 2867.34 1935.05 2868.78 1939.28 2867.34C1943.51 2865.9 1942.66 2867.34 1946.89 2864.45C1951.12 2861.57 1953.66 2857.97 1954.5 2855.8C1955.35 2853.64 1956.19 2853.64 1957.89 2846.43C1959.58 2839.23 1957.89 2824.09 1956.19 2814C1954.5 2803.9 1952.81 2795.25 1951.96 2788.05C1951.12 2780.84 1946.89 2765.7 1946.89 2762.82C1946.89 2759.93 1945.2 2745.52 1946.89 2741.91C1948.58 2738.31 1951.12 2731.82 1954.5 2728.94C1952.81 2730.14 1948.92 2732.54 1946.89 2732.54C1944.35 2732.54 1935.05 2741.91 1932.51 2741.91C1929.98 2741.91 1919.83 2747.68 1913.06 2750.56C1906.29 2753.45 1891.07 2759.21 1884.3 2762.82C1877.54 2766.42 1861.47 2769.3 1858.93 2769.3C1856.9 2769.3 1838.75 2780.84 1829.93 2786.6H1831.87Z" fill="#473F3C"/>
<path d="M2061.91 2446.37H2068.68L2065.3 2460.06L2099.13 2520.62C2098 2522.06 2098.96 2525.23 2111.81 2526.38C2124.67 2527.54 2145.92 2539.84 2154.95 2545.84L2171.02 2529.99C2172.14 2525.66 2174.4 2516.29 2174.4 2513.41C2174.4 2510.52 2180.04 2495.87 2182.86 2488.9L2187.08 2474.48L2174.4 2486.74C2167.91 2490.34 2154.27 2497.55 2151.56 2497.55C2148.18 2497.55 2140.57 2491.06 2140.57 2488.9C2140.57 2486.74 2130.42 2480.97 2130.42 2478.09C2130.42 2475.2 2127.04 2462.23 2127.04 2455.74C2127.04 2454.5 2127.13 2453.03 2127.28 2451.41L2121.12 2446.37C2118.01 2445.65 2110.12 2442.04 2103.36 2433.39C2099.13 2429.07 2101.66 2430.51 2096.59 2427.63C2091.51 2424.74 2093.21 2425.46 2089.82 2425.46C2086.44 2425.46 2079.67 2426.19 2072.06 2425.46C2064.45 2424.74 2059.38 2422.58 2055.99 2421.14C2053.29 2419.99 2047.6 2415.37 2045.09 2413.21L2061.91 2446.37Z" fill="#565551"/>
<path d="M2061.91 2399.51C2057.4 2400.72 2048.04 2403.55 2046.69 2405.28C2046.1 2406.03 2045.62 2409.22 2045.09 2413.21C2047.6 2415.37 2053.29 2419.99 2055.99 2421.14C2059.38 2422.58 2064.45 2424.74 2072.06 2425.46C2079.67 2426.19 2086.44 2425.46 2089.82 2425.46C2093.21 2425.46 2091.51 2424.74 2096.59 2427.63C2101.66 2430.51 2099.13 2429.07 2103.36 2433.39C2110.12 2442.04 2118.01 2445.65 2121.12 2446.37L2127.28 2451.41C2127.94 2444.57 2129.73 2435.18 2130.42 2430.51C2131.1 2425.9 2137.47 2411.29 2140.57 2404.56L2135.49 2399.51H2061.91Z" fill="#565653"/>
<path d="M2188.78 2468.71L2182.86 2451.41C2181.73 2447.33 2179.3 2438.58 2178.63 2436.28C2177.95 2433.97 2173.27 2418.98 2171.02 2411.77H2167.63L2145.64 2409.61L2140.57 2404.56C2137.47 2411.29 2131.1 2425.9 2130.42 2430.51C2129.73 2435.18 2127.94 2444.57 2127.28 2451.41C2127.13 2453.03 2127.04 2454.5 2127.04 2455.74C2127.04 2462.23 2130.42 2475.2 2130.42 2478.09C2130.42 2480.97 2140.57 2486.74 2140.57 2488.9C2140.57 2491.06 2148.18 2497.55 2151.56 2497.55C2154.27 2497.55 2167.91 2490.34 2174.4 2486.74L2187.08 2474.48L2188.78 2468.71Z" fill="#454642"/>
<path fill-rule="evenodd" clip-rule="evenodd" d="M2003.56 2496.11C1988.9 2506.68 1959.24 2528.54 1957.89 2531.43C1956.19 2535.03 1950.27 2571.79 1950.27 2575.4V2613.6C1950.27 2631.62 2022.16 2770.75 2024.7 2781.56C2027.24 2792.37 2034 2849.32 2044.15 2859.41C2054.3 2869.5 2067.83 2881.76 2076.29 2888.96C2084.75 2896.17 2094.05 2901.94 2095.74 2906.98C2097.43 2912.03 2101.66 2922.12 2106.74 2928.61C2111.81 2935.1 2116.04 2949.51 2139.72 2958.16C2163.4 2966.81 2182.86 2971.86 2209.92 2974.74C2236.98 2977.63 2256.44 2988.44 2290.27 2966.81C2324.1 2945.19 2344.4 2917.08 2345.24 2906.98C2346.09 2896.89 2345.24 2856.53 2345.24 2847.15C2345.24 2837.78 2353.7 2812.55 2345.24 2793.09C2336.78 2773.63 2341.01 2764.98 2319.02 2721.73C2297.03 2678.48 2278.43 2645.32 2261.51 2625.86C2244.6 2606.39 2211.61 2560.98 2199.77 2551.61C2187.93 2542.24 2171.86 2521.34 2162.56 2517.73C2153.25 2514.13 2133.8 2499.71 2120.27 2496.11C2106.74 2492.5 2115.2 2491.78 2095.74 2489.62C2076.29 2487.46 2050.07 2489.62 2044.15 2489.62C2039.42 2489.62 2018.5 2493.94 2008.63 2496.11H2003.56ZM2154.95 2692.17L2184.55 2684.25L2204 2700.1C2209.92 2705.39 2222.61 2717.12 2225.99 2721.73C2230.22 2727.5 2231.91 2741.19 2225.99 2746.96C2220.07 2752.73 2215.84 2754.17 2209.92 2754.89C2204 2755.61 2193.85 2753.45 2184.55 2750.56C2175.24 2747.68 2162.56 2737.59 2154.95 2728.22C2147.33 2718.85 2148.18 2711.64 2149.03 2705.15C2149.7 2699.96 2153.25 2694.34 2154.95 2692.17ZM2236.14 2892.57C2238.17 2887.95 2219.51 2878.15 2209.92 2873.83L2193.85 2878.87H2184.55C2181.16 2879.59 2173.38 2881.61 2169.32 2883.92C2164.25 2886.8 2166.79 2896.89 2169.32 2901.22C2171.86 2905.54 2189.62 2914.19 2193.85 2915.63C2198.08 2917.08 2209.92 2912.03 2216.69 2906.98C2223.45 2901.94 2233.6 2898.33 2236.14 2892.57Z" fill="#595854"/>
<path d="M2184.55 2684.25L2154.95 2692.17C2153.25 2694.34 2149.7 2699.96 2149.03 2705.15C2148.18 2711.64 2147.33 2718.85 2154.95 2728.22C2162.56 2737.59 2175.24 2747.68 2184.55 2750.56C2193.85 2753.45 2204 2755.61 2209.92 2754.89C2215.84 2754.17 2220.07 2752.73 2225.99 2746.96C2231.91 2741.19 2230.22 2727.5 2225.99 2721.73C2222.61 2717.12 2209.92 2705.39 2204 2700.1L2184.55 2684.25Z" fill="#2F2B29"/>
<path d="M2209.92 2873.83C2219.51 2878.15 2238.17 2887.95 2236.14 2892.57C2233.6 2898.33 2223.45 2901.94 2216.69 2906.98C2209.92 2912.03 2198.08 2917.08 2193.85 2915.63C2189.62 2914.19 2171.86 2905.54 2169.32 2901.22C2166.79 2896.89 2164.25 2886.8 2169.32 2883.92C2173.38 2881.61 2181.16 2879.59 2184.55 2878.87H2193.85L2209.92 2873.83Z" fill="#504C44"/>
<path d="M631.347 2133.78L615.632 2136.06L569.029 2142.85L597.547 2288.2L601.312 2288.92L706.465 2308.92L711.825 2309.94L673.614 2127.62L631.347 2133.78Z" fill="#957F46"/>
<path d="M522.426 2149.64L517.007 2150.43L477.449 2156.18L494.131 2268.53L504.56 2270.52L593.781 2287.49L597.547 2288.2L569.029 2142.85L522.426 2149.64Z" fill="#988451"/>
<path d="M755.44 2115.71L737.558 2118.31L706.128 2122.89L693.664 2124.7L673.614 2127.62L711.825 2309.94L717.184 2310.96L811.619 2328.92L814.781 2344.88L816.198 2388.62L809.295 2393.18L719.667 2375.55C734.185 2458.69 766.075 2633.44 777.489 2667.42C791.757 2709.89 784.786 2704.25 786.488 2712.85C786.679 2713.81 786.818 2714.77 786.913 2715.73C792.645 2754.73 803.901 2830.28 806.273 2842.26C809.313 2857.6 820.297 2883.5 820.297 2883.5C829.831 2883.31 850.313 2881.64 855.972 2876.43C863.046 2869.93 879.312 2864.79 886.823 2863.3C892.831 2862.11 903.78 2856.97 908.503 2854.54L914.626 2848.86C917.153 2849.42 921.614 2848.12 919.239 2838.38C916.271 2826.21 836.785 2422.18 834.596 2411.13L825.475 2365.09L829.374 2353.82L824.873 2347.99L826.754 2340.6L816.84 2321.51L779.018 2130.6L775.49 2112.79L755.44 2115.71Z" fill="#A38951"/>
<path d="M443.852 2161.08L418.925 2164.71L394.811 2168.22L410.704 2252.66L494.131 2268.53L477.449 2156.18L443.852 2161.08Z" fill="#998450"/>
<path d="M370.696 2171.73L339.808 2176.23L328.971 2177.8L341.181 2239.44L401.435 2250.9L410.704 2252.66L394.811 2168.22L370.696 2171.73Z" fill="#9D8755"/>
<path d="M310.546 2180.49L272.072 2186.09L268.821 2186.56L273.397 2226.55L329.594 2237.24L341.181 2239.44L328.971 2177.8L310.546 2180.49Z" fill="#A28F56"/>
<path d="M254.189 2188.69L247.145 2189.72L229.804 2192.24L221.134 2193.51L221.834 2216.74L231.104 2218.5L240.373 2220.26L247.154 2221.55L261.23 2224.23L268.183 2225.55L273.397 2226.55L268.821 2186.56L254.189 2188.69Z" fill="#AA945B"/>
<path d="M229.239 2282.26L236.369 2343.29C257.629 2330.17 269.772 2329.14 288.51 2339.41L280.805 2289.27L271.637 2288.02L244.136 2284.28L229.239 2282.26Z" fill="#AA945B"/>
<path d="M280.805 2289.27L288.51 2339.41C292.265 2354.62 299.849 2385.4 300.141 2386.87C300.433 2388.34 301.503 2410.63 302.002 2421.59C305.681 2427.03 313.839 2438 317.038 2438.39C321.036 2438.87 328.254 2438.72 336.301 2437.12L353.468 2433.72C355.614 2433.3 360.37 2429.16 361.493 2426.39C362.616 2423.62 364.74 2417.45 363.059 2414.6C361.715 2412.31 350.862 2338.58 345.604 2302.01L336.496 2300.22L326.634 2298.28L280.805 2289.27Z" fill="#A28F56"/>
<path d="M410.172 2314.7L400.89 2312.88L345.604 2302.01C350.862 2338.58 361.715 2412.31 363.059 2414.6C365.277 2417.35 372.956 2440.07 373.929 2444.98C374.902 2449.89 378.654 2484.87 379.627 2489.78C380.6 2494.69 381.312 2514.33 385.222 2518.02C389.131 2521.71 386.803 2526 394.628 2528.92C402.453 2531.83 409.256 2532.4 421.473 2529.34C433.69 2526.28 441.301 2519.67 443.983 2519.14C446.665 2518.61 452.23 2507.3 451.379 2503L441.285 2452.05C438.488 2437.93 432.45 2418.71 429.61 2393.12C426.77 2367.52 420.367 2346.46 418.665 2337.87C417.302 2331 416.696 2320.4 416.564 2315.96L410.172 2314.7Z" fill="#9D8755"/>
<path d="M499.511 2332.27L489.648 2330.33L416.564 2315.96C416.696 2320.4 417.302 2331 418.665 2337.87C420.367 2346.46 426.77 2367.52 429.61 2393.12C432.45 2418.71 438.488 2437.93 441.285 2452.05L451.379 2503C453.758 2506.57 459.116 2517.29 461.508 2531.61C464.498 2549.52 465.25 2558.94 466.344 2564.47C467.439 2569.99 466.316 2572.77 468.533 2575.52C470.751 2578.27 472.088 2585.02 475.672 2586.22C479.256 2587.43 474.306 2587.77 491.959 2586.83C509.613 2585.88 511.365 2591.91 520.342 2583.75C529.319 2575.6 532.709 2573.01 534.662 2568.8C536.615 2564.58 538.324 2559.14 538.009 2554.74C537.694 2550.33 537.58 2535.68 535.806 2523.91C534.031 2512.14 506.711 2385.5 506.253 2374.74C505.795 2363.99 504.871 2356.51 506.631 2348.51C508.039 2342.11 507.498 2336 507.052 2333.75L499.511 2332.27Z" fill="#998450"/>
<path d="M600.452 2352.11L592.91 2350.63L507.052 2333.75C507.498 2336 508.039 2342.11 506.631 2348.51C504.871 2356.51 505.795 2363.99 506.253 2374.74C506.711 2385.5 534.031 2512.14 535.806 2523.91C537.47 2527.62 541.421 2538.75 543.91 2553.57C547.022 2572.09 548.532 2576.89 549.991 2584.26C551.451 2591.63 547.016 2586.13 553.761 2603.29C560.507 2620.45 558.797 2625.9 562.331 2629.66C565.865 2633.43 566.351 2635.88 568.032 2638.74C569.713 2641.6 571.444 2641.89 573.49 2646.59C575.536 2651.29 569.342 2653.79 575.071 2654.57C580.801 2655.35 634.447 2644.72 640.52 2641.6C646.593 2638.49 650.835 2640.2 651.278 2631.18C651.721 2622.16 653.867 2621.74 651.07 2607.62L645.233 2578.15C641.949 2561.58 647.672 2576.39 640.003 2551.75C632.335 2527.12 630.847 2528.05 626.469 2505.95L616.253 2454.39L606.402 2404.66C603.24 2388.7 606.559 2382.94 604.857 2374.35L600.452 2352.11Z" fill="#988451"/>
<path d="M708.354 2373.33L600.452 2352.11L604.857 2374.35C606.559 2382.94 603.24 2388.7 606.402 2404.66L616.253 2454.39L626.469 2505.95C630.847 2528.05 632.335 2527.12 640.003 2551.75C647.672 2576.39 641.949 2561.58 645.233 2578.15L651.07 2607.62C659.95 2631.8 677.794 2686.79 678.132 2713.26C678.555 2746.35 679.893 2753.1 681.23 2759.85C684.392 2775.81 741.501 2765.78 747.402 2764.61L759.741 2762.16C769.669 2753.18 784.232 2739.45 784.99 2734.83C785.664 2730.73 787.665 2723.35 786.913 2715.73L786.488 2712.85C784.786 2704.25 791.757 2709.89 777.489 2667.42C766.075 2633.44 734.185 2458.69 719.667 2375.55L708.354 2373.33Z" fill="#957F46"/>
<path d="M628.701 1926.25L661.878 2068.38L681.918 2065.41L692.209 2063.89L700.875 2062.61L716.583 2060.28L732.29 2057.95L740.956 2056.67L759.372 2053.94L725.945 1913.36C723.841 1877.41 624.566 1905.37 628.701 1926.25Z" fill="#A38951"/>
<path d="M529.361 1936.99C529.75 1938.96 547.455 2035.83 556.258 2084.02L570.883 2081.85L591.465 2078.8L661.878 2068.38L628.701 1926.25C588.061 1917.48 566.867 1923.74 529.361 1936.99Z" fill="#957F46"/>
<path d="M440.408 1949.51L469.597 2096.85L485.846 2094.44L499.387 2092.44L556.258 2084.02C547.455 2035.83 529.75 1938.96 529.361 1936.99C494.693 1920.34 475.256 1930.79 440.8 1949.3L440.408 1949.51Z" fill="#988451"/>
<path d="M361.139 1951.82L388.893 2108.8L396.476 2107.67L410.017 2105.67L469.597 2096.85L440.408 1949.51C414.442 1923.68 394.41 1938.51 361.139 1951.82Z" fill="#998450"/>
<path d="M303.93 1966.98L323.896 2118.42L336.896 2116.5L388.893 2108.8L361.139 1951.82C335.353 1942.47 300.797 1960.49 303.93 1966.98Z" fill="#9D8755"/>
<path d="M245.991 1978.46L263.775 2127.32L275.149 2125.64L323.896 2118.42L303.93 1966.98C272.608 1965.07 262.072 1969.17 245.991 1978.46Z" fill="#A28F56"/>
<path d="M202.88 1983.17L216.111 2134.38L224.506 2133.14L232.901 2131.89L258.9 2128.04L263.775 2127.32L245.991 1978.46C227.375 1970.13 218.388 1973.8 202.88 1983.17Z" fill="#AA945B"/>
<path d="M266.082 2130.53C265.125 2132.45 247.743 2153.34 239.172 2163.54L254.189 2188.69L268.821 2186.56L272.072 2186.09L287.669 2163.5L266.082 2130.53Z" fill="#948357"/>
<path d="M235.738 2154.65L258.9 2128.04L232.901 2131.89L225.723 2140.69L235.738 2154.65Z" fill="#948357"/>
<path d="M211.39 2183.72C211.155 2184.79 213.453 2191.32 214.631 2194.45L217.341 2194.06C218.624 2192.09 221.273 2188.01 221.604 2187.44C222.019 2186.72 225.217 2180.34 225.631 2179.62C226.046 2178.9 230.123 2168.53 230.002 2167.91C229.904 2167.42 227.185 2159.33 225.838 2155.34L220.502 2148.1C218.378 2154.27 214.046 2166.73 213.714 2167.31C213.299 2168.03 211.683 2182.39 211.39 2183.72Z" fill="#948357"/>
<path d="M582.48 2084.11L591.465 2078.8L570.883 2081.85L519.488 2134.8L488.999 2099.1L499.387 2092.44L485.846 2094.44L431.657 2144.55L403.145 2113.2L410.017 2105.67L396.476 2107.67L353.433 2154.94L329.748 2122.63L336.896 2116.5L323.896 2118.42C323.702 2119.69 304.38 2144.67 294.743 2157L275.149 2125.64L263.775 2127.32L258.9 2128.04L235.738 2154.65L225.723 2140.69L232.901 2131.89L224.506 2133.14L209.429 2154.12L210.131 2166.11L207.198 2179.45L200.997 2195.99L214.631 2194.45C213.453 2191.32 211.155 2184.79 211.39 2183.72C211.683 2182.39 213.299 2168.03 213.714 2167.31C214.046 2166.73 218.378 2154.27 220.502 2148.1L225.838 2155.34C227.185 2159.33 229.904 2167.42 230.002 2167.91C230.123 2168.53 226.046 2178.9 225.631 2179.62C225.217 2180.34 222.019 2186.72 221.604 2187.44C221.273 2188.01 218.624 2192.09 217.341 2194.06L221.134 2193.51L229.804 2192.24L228.042 2186.16L235.459 2175.76L247.145 2189.72L254.189 2188.69L239.172 2163.54C247.743 2153.34 265.125 2132.45 266.082 2130.53L287.669 2163.5L272.072 2186.09L310.546 2180.49L296.08 2163.75L325.893 2128.5L349.477 2165.93L339.808 2176.23L370.696 2171.73L360.743 2163.7L398.631 2118.56L423.703 2155.06L418.925 2164.71L443.852 2161.08L438.724 2152.08L483.758 2103.6C494.593 2118.9 516.411 2149.67 517.007 2150.43L522.426 2149.64L577.175 2088.29L582.48 2084.11Z" fill="#8B7C5B"/>
<path d="M189.029 2138.39L192.414 2197.69L214.631 2194.45L200.997 2195.99L207.198 2179.45L210.131 2166.11L209.429 2154.12L224.506 2133.14L216.111 2134.38L189.029 2138.39Z" fill="#948357"/>
<path d="M418.925 2164.71L423.703 2155.06L398.631 2118.56L360.743 2163.7L370.696 2171.73L394.811 2168.22L418.925 2164.71Z" fill="#948357"/>
<path d="M339.808 2176.23L349.477 2165.93L325.893 2128.5L296.08 2163.75L310.546 2180.49L328.971 2177.8L339.808 2176.23Z" fill="#948357"/>
<path d="M294.743 2157C304.38 2144.67 323.702 2119.69 323.896 2118.42L275.149 2125.64L294.743 2157Z" fill="#948357"/>
<path d="M396.476 2107.67L388.893 2108.8L336.896 2116.5L329.748 2122.63L353.433 2154.94L396.476 2107.67Z" fill="#948357"/>
<path d="M228.042 2186.16L229.804 2192.24L247.145 2189.72L235.459 2175.76L228.042 2186.16Z" fill="#948357"/>
<path d="M485.846 2094.44L469.597 2096.85L410.017 2105.67L403.145 2113.2L431.657 2144.55L485.846 2094.44Z" fill="#948357"/>
<path d="M517.007 2150.43C516.411 2149.67 494.593 2118.9 483.758 2103.6L438.724 2152.08L443.852 2161.08L477.449 2156.18L517.007 2150.43Z" fill="#948357"/>
<path d="M570.883 2081.85L556.258 2084.02L499.387 2092.44L488.999 2099.1L519.488 2134.8L570.883 2081.85Z" fill="#948357"/>
<path d="M615.632 2136.06L577.175 2088.29L522.426 2149.64L569.029 2142.85L615.632 2136.06Z" fill="#948357"/>
<path d="M681.918 2065.41L661.878 2068.38L591.465 2078.8L582.48 2084.11L620.144 2125.07L692.209 2063.89L681.918 2065.41Z" fill="#948357"/>
<path d="M716.583 2060.28L700.875 2062.61L692.209 2063.89L620.144 2125.07L582.48 2084.11L577.175 2088.29L615.632 2136.06L631.347 2133.78L693.975 2072.8L705.279 2066.54L716.583 2060.28Z" fill="#8B7C5B"/>
<path d="M693.664 2124.7L712.896 2084.54L693.975 2072.8L631.347 2133.78L673.614 2127.62L693.664 2124.7Z" fill="#948357"/>
<path d="M714.919 2074.4L723.605 2066.17L732.29 2057.95L716.583 2060.28L705.279 2066.54L714.919 2074.4Z" fill="#948357"/>
<path d="M737.558 2118.31L717.959 2089.74L706.128 2122.89L737.558 2118.31Z" fill="#948357"/>
<path d="M795.826 2063.47L788.079 2049.69L759.372 2053.94L740.956 2056.67L724.304 2079.55L755.44 2115.71L775.49 2112.79L799.875 2109.24L797.443 2096.96L792.457 2071.79L795.826 2063.47Z" fill="#948357"/>
<path d="M724.304 2079.55L740.956 2056.67L732.29 2057.95L723.605 2066.17L714.919 2074.4L705.279 2066.54L693.975 2072.8L712.896 2084.54L693.664 2124.7L706.128 2122.89L717.959 2089.74L737.558 2118.31L755.44 2115.71L724.304 2079.55Z" fill="#8B7C5B"/>
<path d="M341.181 2239.44C332.142 2263.86 331.357 2277.14 336.496 2300.22L345.604 2302.01L400.89 2312.88C396.916 2288.48 397.509 2274.93 401.435 2250.9L341.181 2239.44Z" fill="#948357"/>
<path d="M271.637 2288.02L280.805 2289.27L326.634 2298.28C323.189 2272.48 324.907 2259.57 329.594 2237.24L273.397 2226.55L268.183 2225.55C261.739 2244.78 261.08 2257.52 271.637 2288.02Z" fill="#948357"/>
<path d="M257.693 2282.36C254.718 2259.81 254.087 2247.14 261.23 2224.23L247.154 2221.55L238.036 2242.24L257.693 2282.36Z" fill="#948357"/>
<path d="M271.637 2288.02C261.08 2257.52 261.739 2244.78 268.183 2225.55L261.23 2224.23C254.087 2247.14 254.718 2259.81 257.693 2282.36L238.036 2242.24L247.154 2221.55L240.373 2220.26L234.653 2230.79L231.104 2218.5L221.834 2216.74L226.605 2232.38L211.971 2276.71C214.671 2277.61 217.674 2278.58 220.56 2279.51L229.281 2245.89L244.136 2284.28L271.637 2288.02Z" fill="#8B7C5B"/>
<path d="M220.56 2279.51C223.798 2280.55 226.889 2281.52 229.239 2282.26L244.136 2284.28L229.281 2245.89L220.56 2279.51Z" fill="#948357"/>
<path d="M221.834 2216.74L204.402 2213.17C203.084 2232.79 200.95 2272.3 202.959 2273.43C203.841 2273.93 207.487 2275.21 211.971 2276.71L226.605 2232.38L221.834 2216.74Z" fill="#948357"/>
<path d="M329.594 2237.24C324.907 2259.57 323.189 2272.48 326.634 2298.28L336.496 2300.22C331.357 2277.14 332.142 2263.86 341.181 2239.44L329.594 2237.24Z" fill="#8B7C5B"/>
<path d="M234.653 2230.79L240.373 2220.26L231.104 2218.5L234.653 2230.79Z" fill="#948357"/>
<path d="M401.435 2250.9C397.509 2274.93 396.916 2288.48 400.89 2312.88L410.172 2314.7C404.084 2287.86 405.008 2274.61 410.704 2252.66L401.435 2250.9Z" fill="#8B7C5B"/>
<path d="M410.704 2252.66C405.008 2274.61 404.084 2287.86 410.172 2314.7L416.564 2315.96L489.648 2330.33C487.805 2305.11 489.101 2291.68 494.131 2268.53L410.704 2252.66Z" fill="#948357"/>
<path d="M494.131 2268.53C489.101 2291.68 487.805 2305.11 489.648 2330.33L499.511 2332.27C496.923 2307.49 497.598 2294.04 504.56 2270.52L494.131 2268.53Z" fill="#8B7C5B"/>
<path d="M504.56 2270.52C497.598 2294.04 496.923 2307.49 499.511 2332.27L507.052 2333.75L592.91 2350.63C588.925 2325.51 589.963 2311.77 593.781 2287.49L504.56 2270.52Z" fill="#948357"/>
<path d="M593.781 2287.49C589.963 2311.77 588.925 2325.51 592.91 2350.63L600.452 2352.11C596.548 2326.23 597.485 2312.61 601.312 2288.92L597.547 2288.2L593.781 2287.49Z" fill="#8B7C5B"/>
<path d="M601.312 2288.92C597.485 2312.61 596.548 2326.23 600.452 2352.11L708.354 2373.33C705.682 2348.71 705.578 2334.53 706.465 2308.92L601.312 2288.92Z" fill="#948357"/>
<path d="M706.465 2308.92C705.578 2334.53 705.682 2348.71 708.354 2373.33L719.667 2375.55C711.239 2352.52 711.217 2338.23 717.184 2310.96L711.825 2309.94L706.465 2308.92Z" fill="#8B7C5B"/>
<path d="M809.295 2393.18L816.198 2388.62L814.781 2344.88L811.619 2328.92L717.184 2310.96C711.217 2338.23 711.239 2352.52 719.667 2375.55L809.295 2393.18Z" fill="#948357"/>
</svg>
