<svg width="32" height="32" viewBox="0 0 32 32" fill="none" xmlns="http://www.w3.org/2000/svg">
<path fill-rule="evenodd" clip-rule="evenodd" d="M8.5 5.58333C8.5 5.42862 8.56146 5.28025 8.67085 5.17085C8.78025 5.06146 8.92862 5 9.08333 5H21.9167C22.0714 5 22.2197 5.06146 22.3291 5.17085C22.4385 5.28025 22.5 5.42862 22.5 5.58333V6.16667H25.4167C25.5714 6.16667 25.7197 6.22812 25.8291 6.33752C25.9385 6.44692 26 6.59529 26 6.75V10.25C26 11.0235 25.6927 11.7654 25.1457 12.3124C24.5987 12.8594 23.8569 13.1667 23.0833 13.1667H22.1016C21.2027 15.71 18.8757 17.579 16.0833 17.8094V21.3333H20.1667C20.3214 21.3333 20.4697 21.3948 20.5791 21.5042C20.6885 21.6136 20.75 21.762 20.75 21.9167V25.4167C20.75 25.5714 20.6885 25.7197 20.5791 25.8291C20.4697 25.9385 20.3214 26 20.1667 26H10.8333C10.6786 26 10.5303 25.9385 10.4209 25.8291C10.3115 25.7197 10.25 25.5714 10.25 25.4167V21.9167C10.25 21.762 10.3115 21.6136 10.4209 21.5042C10.5303 21.3948 10.6786 21.3333 10.8333 21.3333H14.9167V17.8094C12.1248 17.579 9.79733 15.71 8.89842 13.1667H7.91667C7.14312 13.1667 6.40125 12.8594 5.85427 12.3124C5.30729 11.7654 5 11.0235 5 10.25V6.75C5 6.59529 5.06146 6.44692 5.17085 6.33752C5.28025 6.22812 5.42862 6.16667 5.58333 6.16667H8.5V5.58333ZM21.3333 10.8333V6.16667H9.66667V10.8333C9.66667 14.0551 12.2782 16.6667 15.5 16.6667C18.7217 16.6667 21.3333 14.0551 21.3333 10.8333ZM22.5 7.33333V12H23.0833C23.5475 12 23.9926 11.8156 24.3208 11.4874C24.649 11.1592 24.8333 10.7141 24.8333 10.25V7.33333H22.5ZM6.16667 7.33333H8.5V12H7.91667C7.45254 12 7.00742 11.8156 6.67923 11.4874C6.35104 11.1592 6.16667 10.7141 6.16667 10.25V7.33333ZM11.4167 22.5V24.8333H19.5833V22.5H11.4167Z" fill="#778083"/>
</svg>
