<svg width="334" height="105" viewBox="0 0 334 105" fill="none" xmlns="http://www.w3.org/2000/svg">
<g clip-path="url(#clip0_2428_18422)">
<rect width="334" height="105" fill="#216CB3" fill-opacity="0.55"/>
<g opacity="0.2">
<rect x="390.698" y="-364" width="352.665" height="532.894" transform="rotate(45.1347 390.698 -364)" fill="#E85D5D"/>
<rect x="396.165" y="-358.506" width="27.1281" height="532.894" transform="rotate(45.1347 396.165 -358.506)" fill="black"/>
<rect x="509.52" y="-244.617" width="26.3183" height="532.894" transform="rotate(45.1347 509.52 -244.617)" fill="black"/>
<rect x="613.49" y="-140.157" width="26.3183" height="532.894" transform="rotate(45.1347 613.49 -140.157)" fill="black"/>
<line y1="-0.05" x2="532.894" y2="-0.05" transform="matrix(-0.707618 0.706596 -0.705797 -0.708414 423.505 -331.038)" stroke="black" stroke-width="0.1"/>
<line y1="-0.05" x2="532.894" y2="-0.05" transform="matrix(-0.710144 0.704056 -0.705017 -0.70919 450.844 -303.57)" stroke="black" stroke-width="0.1"/>
<rect x="431.543" y="-322.962" width="15.791" height="532.894" transform="rotate(45.1347 431.543 -322.962)" fill="black"/>
<path d="M475.448 -278.85L97.7508 97.0768" stroke="black" stroke-width="0.1"/>
<rect x="457.535" y="-296.847" width="15.791" height="532.894" transform="rotate(45.1347 457.535 -296.847)" fill="black"/>
<path d="M502.787 -251.382L124.533 123.985" stroke="black" stroke-width="0.1"/>
<rect x="483.529" y="-270.731" width="15.791" height="532.894" transform="rotate(45.1347 483.529 -270.731)" fill="black"/>
<line x1="554.114" y1="-199.813" x2="176.417" y2="176.113" stroke="black" stroke-width="0.1"/>
<rect x="535.513" y="-218.502" width="15.791" height="532.894" transform="rotate(45.1347 535.513 -218.502)" fill="black"/>
<line x1="580.108" y1="-173.698" x2="202.41" y2="202.229" stroke="black" stroke-width="0.1"/>
<rect x="561.506" y="-192.387" width="15.791" height="532.894" transform="rotate(45.1347 561.506 -192.387)" fill="black"/>
<line x1="606.099" y1="-147.583" x2="228.402" y2="228.343" stroke="black" stroke-width="0.1"/>
<rect x="587.499" y="-166.272" width="15.791" height="532.894" transform="rotate(45.1347 587.499 -166.272)" fill="black"/>
<path d="M397.376 -354.244L398.119 -341.313L411.046 -340.51M386.715 -343.633L387.458 -330.703L400.385 -329.899M362.348 -319.38L363.09 -306.449L376.017 -305.646M351.687 -308.769L352.43 -295.838L365.356 -295.035M327.319 -284.515L328.062 -271.585L340.989 -270.781M316.658 -273.905L317.401 -260.974L330.328 -260.171M292.291 -249.651L293.034 -236.721L305.96 -235.917M281.63 -239.04L282.373 -226.11L295.3 -225.306M257.263 -214.787L258.005 -201.857L270.932 -201.053M246.602 -204.176L247.345 -191.246L260.271 -190.442M222.234 -179.923L222.977 -166.993L235.904 -166.189M211.573 -169.312L212.316 -156.382L225.243 -155.578M187.206 -145.059L187.949 -132.128L200.875 -131.325M176.545 -134.448L177.288 -121.518L190.214 -120.714M152.177 -110.195L152.92 -97.2643L165.847 -96.4607M141.517 -99.5838L142.259 -86.6535L155.186 -85.8498M117.149 -75.3306L117.892 -62.4003L130.818 -61.5966M106.488 -64.7197L107.231 -51.7894L120.158 -50.9858M82.1204 -40.4664L82.8633 -27.5361L95.7899 -26.7325M71.4596 -29.8556L72.2025 -16.9253L85.1291 -16.1217M47.092 -5.60227L47.8349 7.32803L60.7616 8.13166M36.4312 5.00856L37.1741 17.9389L50.1007 18.7425M510.833 -240.252L511.576 -227.322L524.503 -226.518M500.172 -229.641L500.915 -216.711L513.842 -215.907M475.805 -205.388L476.548 -192.458L489.474 -191.654M465.144 -194.777L465.887 -181.847L478.813 -181.043M440.776 -170.524L441.519 -157.593L454.446 -156.79M430.115 -159.913L430.858 -146.983L443.785 -146.179M405.748 -135.66L406.491 -122.729L419.417 -121.926M395.087 -125.049L395.83 -112.119L408.757 -111.315M370.72 -100.795L371.462 -87.8651L384.389 -87.0615M360.059 -90.1846L360.802 -77.2543L373.728 -76.4507M335.691 -65.9313L336.434 -53.001L349.361 -52.1974M325.03 -55.3205L325.773 -42.3902L338.7 -41.5865M300.663 -31.0671L301.406 -18.1368L314.332 -17.3332M290.002 -20.4563L290.745 -7.52602L303.671 -6.72238M265.634 3.797L266.377 16.7273L279.304 17.5309M254.974 14.4078L255.716 27.3381L268.643 28.1418M230.606 38.661L231.349 51.5913L244.275 52.395M219.945 49.2719L220.688 62.2022L233.615 63.0058M195.577 73.5252L196.32 86.4555L209.247 87.2591M184.917 84.136L185.659 97.0663L198.586 97.8699M160.549 108.389L161.292 121.32L174.219 122.123M149.888 119L150.631 131.93L163.558 132.734M614.721 -135.874L615.464 -122.944L628.391 -122.14M604.061 -125.264L604.803 -112.333L617.73 -111.53M579.693 -101.01L580.436 -88.0799L593.362 -87.2763M569.032 -90.3994L569.775 -77.4691L582.702 -76.6654M544.665 -66.146L545.407 -53.2157L558.334 -52.4121M534.004 -55.5352L534.747 -42.6049L547.673 -41.8013M509.636 -31.2819L510.379 -18.3516L523.306 -17.548M498.975 -20.6711L499.718 -7.74078L512.645 -6.93714M474.608 3.5823L475.351 16.5126L488.277 17.3162M463.947 14.1931L464.69 27.1234L477.617 27.9271M439.579 38.4464L440.322 51.3767L453.249 52.1804M428.919 49.0573L429.661 61.9876L442.588 62.7912M404.551 73.3106L405.294 86.2409L418.221 87.0445M393.89 83.9214L394.633 96.8517L407.56 97.6554M369.523 108.175L370.265 121.105L383.192 121.909M358.862 118.786L359.605 131.716L372.531 132.519M334.494 143.039L335.237 155.969L348.164 156.773M323.833 153.65L324.576 166.58L337.503 167.384M299.466 177.903L300.209 190.833L313.135 191.637M288.805 188.514L289.548 201.444L302.474 202.248M264.437 212.767L265.18 225.697L278.107 226.501M253.777 223.378L254.519 236.308L267.446 237.112M373.008 -329.99L384.412 -327.671L386.678 -316.256L375.274 -318.576L373.008 -329.99ZM337.98 -295.126L349.384 -292.807L351.65 -281.392L340.246 -283.712L337.98 -295.126ZM302.952 -260.262L314.355 -257.943L316.621 -246.528L305.218 -248.848L302.952 -260.262ZM267.923 -225.398L279.327 -223.078L281.593 -211.664L270.189 -213.983L267.923 -225.398ZM232.895 -190.534L244.299 -188.214L246.564 -176.8L235.161 -179.119L232.895 -190.534ZM197.867 -155.67L209.27 -153.35L211.536 -141.936L200.132 -144.255L197.867 -155.67ZM162.838 -120.805L174.242 -118.486L176.508 -107.071L165.104 -109.391L162.838 -120.805ZM127.81 -85.9413L139.213 -83.6218L141.479 -72.2074L130.076 -74.5268L127.81 -85.9413ZM92.7812 -51.0772L104.185 -48.7578L106.451 -37.3433L95.0471 -39.6628L92.7812 -51.0772ZM57.7528 -16.2131L69.1565 -13.8936L71.4224 -2.47918L60.0187 -4.79864L57.7528 -16.2131ZM486.465 -215.999L497.869 -213.679L500.135 -202.265L488.731 -204.584L486.465 -215.999ZM451.437 -181.135L462.841 -178.815L465.107 -167.401L453.703 -169.72L451.437 -181.135ZM416.409 -146.27L427.812 -143.951L430.078 -132.537L418.675 -134.856L416.409 -146.27ZM381.38 -111.406L392.784 -109.087L395.05 -97.6724L383.646 -99.9919L381.38 -111.406ZM346.352 -76.5421L357.756 -74.2227L360.021 -62.8082L348.618 -65.1277L346.352 -76.5421ZM311.324 -41.678L322.727 -39.3585L324.993 -27.9441L313.589 -30.2635L311.324 -41.678ZM276.295 -6.81382L287.699 -4.49436L289.965 6.9201L278.561 4.60064L276.295 -6.81382ZM241.267 28.0503L252.67 30.3698L254.936 41.7842L243.533 39.4648L241.267 28.0503ZM206.238 62.9143L217.642 65.2338L219.908 76.6483L208.504 74.3288L206.238 62.9143ZM171.21 97.7785L182.614 100.098L184.879 111.512L173.476 109.193L171.21 97.7785ZM590.354 -111.621L601.757 -109.302L604.023 -97.8871L592.62 -100.207L590.354 -111.621ZM555.325 -76.7569L566.729 -74.4374L568.995 -63.023L557.591 -65.3424L555.325 -76.7569ZM520.297 -41.8927L531.701 -39.5733L533.966 -28.1588L522.563 -30.4783L520.297 -41.8927ZM485.269 -7.02858L496.672 -4.70912L498.938 6.70534L487.534 4.38588L485.269 -7.02858ZM450.24 27.8356L461.644 30.1551L463.91 41.5695L452.506 39.2501L450.24 27.8356ZM415.212 62.6998L426.616 65.0192L428.881 76.4337L417.478 74.1142L415.212 62.6998ZM380.183 97.5639L391.587 99.8834L393.853 111.298L382.449 108.978L380.183 97.5639ZM345.155 132.428L356.559 134.748L358.825 146.162L347.421 143.843L345.155 132.428ZM310.127 167.292L321.53 169.612L323.796 181.026L312.392 178.707L310.127 167.292ZM275.098 202.156L286.502 204.476L288.768 215.89L277.364 213.571L275.098 202.156Z" stroke="#F2FFF5" stroke-width="0.2"/>
</g>
</g>
<defs>
<clipPath id="clip0_2428_18422">
<rect width="334" height="105" fill="white"/>
</clipPath>
</defs>
</svg>
