<svg width="328" height="100" viewBox="0 0 328 100" fill="none" xmlns="http://www.w3.org/2000/svg">
<path d="M0 10C0 4.47716 4.47715 0 10 0H318C323.523 0 328 4.47715 328 10V90C328 95.5228 323.523 100 318 100H0V10Z" fill="url(#paint0_linear_1702_16563)"/>
<path d="M236.897 51.5161C236.606 51.5399 236.29 51.5655 235.955 51.5926C230.152 52.061 226.121 59.9889 231.898 60.7035C237.046 61.3402 247.418 60.8854 262.713 60.7035C278.009 60.5215 284.5 60.6428 293.305 60.0667C302.109 59.4906 325.538 54.4572 326.508 54.0631C326.806 53.9418 327.011 53.6822 327.149 53.3751C327.51 52.5707 326.8 51.7827 325.937 51.6004C325.674 51.5448 325.402 51.5448 325.139 51.6004L323.672 51.9102L322.904 52.0814C321.885 52.3086 320.83 52.3294 319.802 52.1426C318.956 51.9887 318.09 51.9754 317.24 52.1032L316.075 52.2781C315.421 52.3763 314.759 52.4094 314.099 52.3769L296.588 51.5161H289.675C289.161 51.5161 288.648 51.5557 288.14 51.6346L286.366 51.9102C285.545 52.0821 283.56 52.4257 282.187 52.4257H266.519C265.399 52.4257 265.101 51.9102 263.534 51.9102C262.687 51.9102 261.268 51.7901 260.1 51.6717C259.16 51.5764 258.211 51.5942 257.278 51.7482L257.106 51.7767C256.567 51.8656 256.022 51.9102 255.477 51.9102H253.536C251.745 51.7789 248.015 51.5161 247.418 51.5161H236.897Z" fill="#89B199"/>
<path d="M144.456 50.5467C144.008 50.4456 143.547 50.4117 143.089 50.4462L136.337 50.9543C134.613 51.084 132.952 51.6557 131.523 52.6296C128.315 54.817 124.306 57.6229 124.306 57.9139C124.306 58.2777 131.419 58.8943 134.975 59.1571L170.342 62.1589C204.988 60.279 273.92 56.5191 272.488 56.5191C270.697 56.5191 270.548 56.6101 269.13 56.5191C267.712 56.4281 267.712 55.6701 266.966 55.4579C266.22 55.2456 266.444 55.5488 265.623 55.4579C264.803 55.3669 264.877 55.3669 264.504 55.185C264.131 55.003 262.937 55.094 261.818 54.9424C260.699 54.7908 259.356 55.003 258.759 54.9424C258.162 54.8817 257.938 54.9424 256.744 54.8211C255.551 54.6998 255.252 54.6998 254.431 54.4572C253.611 54.2147 253.312 54.2753 252.79 54.1844C252.268 54.0934 249.955 54.1844 248.238 54.0024C246.522 53.8205 246 54.0631 244.135 54.0024C242.269 53.9418 242.419 54.0934 238.613 53.5779C236.673 53.1838 237.718 53.396 237.046 53.1837C236.375 52.9715 236.151 53.0928 234.435 52.5167C233.689 52.2135 233.017 52.456 231.525 52.1528C230.033 51.8496 230.257 52.0315 229.436 51.8799C228.615 51.7283 228.914 51.7283 228.615 51.5161C228.434 51.3872 227.755 50.8314 227.209 50.3808C226.912 50.1352 226.539 50 226.153 50L224.437 50.1213C224.062 50.1213 222.958 49.9763 221.147 49.4563C220.107 49.1577 219.025 49.0403 217.961 48.844C217.645 48.7857 217.277 48.7002 216.826 48.5749C216.453 48.4233 216.08 48.5749 215.409 48.4232C214.737 48.2716 214.588 48.4232 213.991 48.4232C213.394 48.4232 213.021 48.7265 212.722 48.7265H209.29C208.544 48.7265 208.32 48.7265 208.096 48.5749C207.873 48.4233 207.574 48.5749 206.604 48.4232C205.634 48.2716 205.261 48.4232 205.037 48.5749C204.813 48.7265 204.217 48.7265 203.321 48.5749C202.426 48.4233 202.65 48.5749 201.53 48.5749C201.083 48.6052 200.635 48.7265 199.964 48.7265C199.292 48.7265 198.77 48.4232 197.651 48.211C196.531 47.9988 196.83 48.211 196.457 48.4232C196.084 48.6354 195.188 48.5446 194.368 48.4232C193.547 48.3019 193.025 48.4232 192.502 48.4232C191.98 48.4232 191.234 48.4232 188.1 48.211C185.787 47.9988 186.459 47.9988 185.563 47.9988H184.876C183.946 47.9988 183.018 48.121 182.131 48.4015C181.695 48.5396 181.323 48.6676 181.236 48.7265C180.917 48.9421 180.522 48.9942 180.14 49.0404C179.687 49.0952 179.193 49.151 179.072 49.151C178.848 49.151 177.281 49.2116 174.968 49.151C172.655 49.0904 173.252 48.969 171.685 48.969C170.118 48.969 169.447 48.6355 167.208 48.4232C164.97 48.211 164.821 48.4536 164.448 48.4232C164.075 48.3929 157.583 48.9387 157.21 48.969C156.837 48.9994 155.419 49.2419 153.778 49.6058C152.136 49.9697 152.733 49.5755 151.763 49.6058C150.793 49.6361 149.973 49.8787 148.779 49.8787C148.447 49.8787 148.131 50.0216 147.912 50.271L147.773 50.4294C147.381 50.8749 146.777 51.0709 146.199 50.9403L144.456 50.5467Z" fill="#80B59B"/>
<path d="M49.8802 48.436C49.3205 48.7437 48.6807 48.8746 48.0451 48.8114L42.0073 48.211L37.8961 47.7237C37.0588 47.6245 36.2107 47.6235 35.3824 47.7807C33.6676 48.1063 31.3474 48.7109 30.3676 49.5452C28.8007 50.8793 24.0255 57.2165 22.6824 58.4597C21.3394 59.7029 17.4595 65.7671 15.7434 67.9503C14.0273 70.1334 15.4449 78.9569 15.7434 79.715C15.9821 80.3214 51.4085 81.605 69.0919 82.171C87.4467 81.7162 125.738 80.7944 132.065 80.7459C138.393 80.6974 195.487 74.9242 223.243 72.0437L323.798 61.5367C326.186 61.2872 328 59.2739 328 56.8726V55.1677C328 53.5194 326.664 52.1831 325.015 52.1831C323.583 52.1831 318.897 52.8098 316.733 53.1231L295.842 54.336H285.843C283.605 54.336 283.083 54.336 279.8 53.8205C276.517 53.305 277.039 54.336 275.248 54.336C273.576 54.336 272.619 55.3147 267.576 55.938C266.826 56.0307 266.085 56.1944 265.354 56.3872C264.454 56.6246 263.478 56.8257 262.741 56.9616C262.227 57.0564 261.705 57.0952 261.182 57.0952H258.162C256.322 57.3378 251.88 57.8229 248.835 57.8229H240.106C238.613 57.8229 229.287 58.4294 222.198 57.8229H218.692C217.423 57.8229 212.946 57.9139 211.156 57.8229C209.365 57.732 200.113 56.792 196.308 56.0643C192.502 55.3366 192.577 55.6701 190.562 55.4579C188.548 55.2456 185.041 55.3669 171.685 54.336C158.329 53.305 167.954 54.336 165.418 54.336H159.15C156.638 54.4067 151.36 54.5058 150.346 54.336C149.331 54.1662 142.362 53.9216 139.005 53.8205C135.995 53.3455 129.827 52.3166 129.23 52.0012C128.633 51.6859 115.75 50.2325 109.383 49.5452H107.514C106.577 49.5452 105.644 49.6841 104.748 49.9574C103.668 50.2864 102.539 50.4241 101.414 50.3372C99.1382 50.1615 96.2701 49.8675 95.8034 49.5452C95.3237 49.2138 92.4344 48.7296 90.234 48.4106C89.2767 48.2718 88.3058 48.2927 87.3476 48.4249C85.7012 48.6521 83.4625 48.9084 82 48.9084H62.3767C60.7849 48.9084 57.1985 48.7689 55.5869 48.211C54.1701 47.7206 51.9961 47.9128 50.7477 48.1243C50.4424 48.1761 50.1515 48.2868 49.8802 48.436Z" fill="#235E40"/>
<path d="M53.7624 52.0823C53.1396 52.1292 52.5229 52.235 51.9189 52.3939C48.7394 53.2302 43.3451 54.5679 41.5596 54.6998C36.8341 55.5387 26.3385 57.4954 22.1601 58.6113C18.6429 59.5506 45.7373 55.7717 55.067 55.1853C57.0698 55.0594 59.1939 55.4288 61.1801 55.7151C84.5578 59.0847 90.0782 54.5984 94.0874 54.0631C99.3103 53.3657 106.025 58.6113 106.025 56.8526C106.025 55.094 106.399 56.7313 106.025 55.2456C105.974 55.0422 105.982 54.8974 106.033 54.7978C106.754 53.3841 107.578 54.5272 106.074 54.0202C105.451 53.8102 104.601 53.5117 103.414 53.0625C101.026 52.0619 98.9372 52.1528 96.848 52.1528C94.7589 52.1528 91.2521 51.3038 89.536 50.94C87.8199 50.5761 85.7307 53.9721 83.1938 54.0631C81.626 54.1193 78.9182 53.7087 76.9763 53.3512C76.0005 53.1716 75.0753 52.7876 74.13 52.4861C73.5474 52.3003 72.8732 52.1528 72.2257 52.1528H68.4404C67.5361 52.1528 66.6361 52.0273 65.7663 51.7799C64.6594 51.465 63.5055 51.3481 62.3579 51.4346L53.7624 52.0823Z" fill="#539275"/>
<path d="M155.494 56.8526C149.757 56.4974 144.381 56.6299 141.005 56.7501C139.433 56.8061 137.536 57.9836 136.095 58.6113C134.005 59.5209 134.379 60.097 133.707 63.6143C133.035 67.1316 140.646 69.3147 152.584 71.0127C164.522 72.7107 162.955 71.0127 173.849 71.0127C184.743 71.0127 187.578 71.2856 204.664 71.0127C221.751 70.7398 221.825 70.9218 232.719 70.1031C243.612 69.2844 247.642 69.3147 262.713 67.5561C277.785 65.7974 283.456 63.5537 288.53 62.1286C293.603 60.7035 294.2 58.6113 293.379 58.0655C292.559 57.5197 291.962 57.2165 290.768 57.2165C289.574 57.2165 286.963 56.3675 283.456 56.3675C279.949 56.3675 279.651 56.8526 273.756 57.2165C267.862 57.5803 269.802 57.641 268.906 58.0655C268.011 58.49 266.892 58.6113 262.713 59.248C258.535 59.8848 259.207 59.248 255.252 59.248C251.298 59.248 250.925 59.6725 246.448 59.6725C241.971 59.6725 243.463 59.6725 235.032 60.097C226.601 60.5215 215.632 61.8557 211.603 61.2796C207.574 60.7035 208.32 60.946 203.694 59.6725C199.068 58.399 198.322 59.1874 191.159 58.6113C183.996 58.0352 184.444 58.6113 182.728 58.6113C181.012 58.6113 176.46 58.6113 173.849 58.0655C171.238 57.5197 163.328 57.3378 155.494 56.8526Z" fill="#539275"/>
<path d="M52.8262 53.396C53.8957 53.113 56.4524 52.6319 58.1238 52.9715C59.1492 53.1799 60.77 53.2924 62.197 53.3482C63.4497 53.3972 65.3098 53.9488 66.5551 54.0934C68.6442 54.336 73.121 55.2759 75.6579 55.2759C78.1947 55.2759 78.717 55.2456 82.6715 54.6695C84.8394 54.3537 87.2945 53.849 89.1055 53.4422C89.581 53.3354 89.8135 53.858 89.3867 54.0934C88.3421 54.6695 85.2084 55.2759 83.9399 55.2759C82.6715 55.2759 75.2848 56.1552 74.2402 56.1552C73.1956 56.1552 72.2257 56.034 69.5396 55.852C66.8535 55.6701 64.0928 55.5185 62.3767 55.3972C60.6606 55.2759 59.1683 55.0637 59.0191 55.003C58.8699 54.9424 54.0946 54.6998 51.4832 54.8514C48.8717 55.003 48.2748 54.8375 45.7379 55.003C44.1051 55.1096 43.1355 55.1982 42.6894 55.2474C42.5888 55.2615 42.5098 55.2712 42.455 55.2759C42.5036 55.269 42.581 55.2593 42.6894 55.2474C44.1204 55.0468 49.9215 53.9532 52.8262 53.396Z" fill="#4B8A6D"/>
<path d="M57.9745 60.4306C54.0216 60.4306 45.9362 60.3301 40.377 60.1588C37.0813 60.0572 33.8616 61.6469 32.0794 64.4209C28.3145 70.2809 32.7133 77.9516 39.6725 77.6619L235.653 69.5041C236.974 69.4491 238.016 68.3622 238.016 67.0401C238.016 65.6587 236.882 64.547 235.501 64.5226C233.321 64.4841 230.627 64.3445 228.988 63.9782C226.004 63.3111 220.035 64.524 217.274 63.9782C215.065 63.5415 176.61 63.7962 157.658 63.9782H152.733L110.278 60.4306H57.9745Z" fill="#CAFD97"/>
<path d="M74.5387 61.9163L79.6459 61.1674C81.05 60.9615 82.4734 61.1007 83.8682 61.3621C84.16 61.4168 84.4214 61.4545 84.6115 61.4615C85.1168 61.4802 85.5072 61.6557 85.7283 61.8001C85.8307 61.8669 85.8799 61.9855 85.8799 62.1077C85.8799 62.3537 85.6805 62.5531 85.4346 62.5531H83.7907C83.1192 62.5531 81.7762 62.8866 80.2839 62.9472C79.6007 62.975 78.2498 63.4702 77.5698 63.5427C76.7635 63.6285 75.8855 63.7053 75.3594 63.7053C74.8224 63.7053 73.5787 63.6253 72.3847 63.5373C71.8439 63.4974 71.7261 62.7639 72.2257 62.5531L74.5387 61.9163Z" fill="#BD9C27"/>
<path d="M58.7627 60.8551C59.3328 60.8551 59.4041 61.6825 58.8425 61.7801L54.4311 62.5465C54.4058 62.5508 54.3802 62.5531 54.3545 62.5531C53.8088 62.5531 53.7374 61.7623 54.2743 61.6646L58.6793 60.8626C58.7068 60.8576 58.7347 60.8551 58.7627 60.8551Z" fill="#BD9C27"/>
<path d="M50.2646 60.858C50.7773 60.8877 50.8098 61.6235 50.3014 61.6967C47.3212 62.1259 44.2337 62.5531 43.798 62.5531C43.4549 62.5531 43.4113 62.0553 43.7492 61.9957L50.1656 60.8637C50.1983 60.858 50.2315 60.856 50.2646 60.858Z" fill="#BD9C27"/>
<path d="M29.0786 77.5645C27.8177 77.9016 26.6569 78.5384 25.6951 79.4206L24.8822 80.1663C24.6613 80.3689 24.4038 80.5276 24.1235 80.6339C23.0692 81.0338 22.4447 82.1233 22.6326 83.2351L23.4164 87.8751C24.0706 91.7478 27.3531 94.5904 31.2806 94.6156C120.365 95.1862 277.145 96.1902 317.93 96.4502C323.453 96.4854 327.851 92.0359 327.851 86.513V59.1166C327.851 58.6308 327.914 58.0254 327.552 57.7016C327.179 57.3681 326.806 57.7016 326.582 57.3984C326.388 57.135 326.25 56.8029 324.945 55.9647C324.531 55.6992 324.387 55.2375 324.269 54.7605C324.195 54.4572 323.598 54.5482 323.076 54.5482C322.553 54.5482 322.329 54.7605 322.255 55.3366C322.18 55.9127 321.882 55.5185 321.583 55.3366C321.285 55.1546 320.912 54.7605 319.27 54.5482C318.978 54.5482 319.27 54.9465 319.27 55.2385V55.4362C319.27 55.8709 319.009 56.2704 318.59 56.3859C318.376 56.4446 318.161 56.4888 318.002 56.4888C317.605 56.4888 317.212 56.5444 316.822 56.6177C316.578 56.6637 316.321 56.701 316.137 56.701C315.689 56.701 314.868 57.1255 314.42 57.3984C314.148 57.5646 312.618 57.9992 311.365 58.3354C310.669 58.5224 309.953 58.6242 309.233 58.6498L304.348 58.8235C300.94 58.5607 294.021 57.9685 293.603 57.7016C293.03 57.3355 292.301 57.2738 291.627 57.1844C291.364 57.1495 291.071 57.1255 290.768 57.1255C289.87 57.1255 289.027 57.1255 287.338 56.8557C286.74 56.7602 286.137 56.705 285.532 56.7201C284.387 56.7485 282.455 56.7899 280.322 56.701C277.412 56.5798 278.681 56.792 276.144 57.1255C273.607 57.4591 275.547 57.3378 274.353 58.0352C273.159 58.7326 273.98 58.3384 273.682 58.6113C273.383 58.8842 269.652 58.6113 268.906 58.6113H264.206C261.445 58.6113 262.863 58.5507 261.37 58.6113C259.878 58.6719 259.878 58.8842 257.864 59.1874C255.849 59.4906 254.804 59.7635 253.163 59.9151C251.521 60.0667 252.566 60.1274 251.969 60.1274H247.642C246.168 60.1274 244.734 60.5364 243.306 60.9028C243.008 60.9792 242.726 61.0302 242.493 61.037C241.449 61.0673 241.598 61.1583 240.329 61.2796C239.061 61.4009 239.061 61.4918 238.464 61.5828C237.867 61.6738 237.345 61.8557 236.972 62.0073C236.599 62.1589 236.076 62.2195 236.076 62.3711C236.076 62.5228 235.554 62.644 235.181 62.9169C234.808 63.1898 235.256 63.2505 235.554 63.4627C235.853 63.675 236.972 63.8266 238.464 64.3117C239.956 64.7969 237.942 64.4936 237.345 64.5543C237.075 64.5817 237.121 64.996 236.905 65.1586C236.688 65.3213 236.407 65.4994 236.076 65.6459C235.256 66.0097 233.689 65.6762 231.973 65.6459C231.903 65.6446 231.838 65.6432 231.777 65.6417C230.676 65.6141 229.649 65.0649 228.547 65.0434C228.396 65.0404 228.243 65.0394 228.093 65.0394C227.3 65.0394 226.511 65.1435 225.743 65.338C225.494 65.401 225.264 65.4581 225.108 65.4943C224.586 65.6155 224.437 65.7065 223.392 66.0704C222.348 66.4342 221.825 66.222 221.378 66.2523C220.869 66.2867 220.391 66.6768 219.882 66.6768H214.364C213.543 66.6768 212.126 66.0704 211.379 66.0704C208.999 66.0704 207.358 68.4495 208.183 70.6823C208.315 71.0386 208.416 71.3159 208.47 71.4676C208.768 72.3166 207.723 72.4379 206.455 73.0746C206.007 73.3172 201.53 73.9843 189.816 74.7423C178.102 75.5003 185.339 74.621 181.086 73.4081C176.833 72.1953 178.4 72.7411 178.251 72.4379C178.102 72.1346 173.177 71.8011 170.118 70.6186C167.059 69.436 168.551 69.1631 167.581 68.2535C166.874 67.5905 162.109 66.6759 159.198 66.1974C158.67 66.1105 158.15 65.9796 157.646 65.7992C156.911 65.5365 156.144 65.3817 155.367 65.3034C154.477 65.2136 153.468 65.0792 153.032 64.9181C152.211 64.6149 149.823 66.2523 149.077 66.6768C148.514 66.9973 134.963 68.8202 127.129 69.8396C126.243 69.9548 125.35 69.9495 124.466 69.8259L105.768 67.2113C105.25 67.1389 104.722 67.1853 104.225 67.347C103.74 67.5047 103.188 67.5882 102.796 67.262C102.535 67.0442 102.288 66.7026 102.161 66.192C102.035 65.6854 102.224 65.1756 102.597 64.8102C102.777 64.6339 103.015 64.4022 103.333 64.0768C103.433 63.9752 103.489 63.8379 103.489 63.6956C103.489 63.3638 103.196 63.1077 102.867 63.1475C102.421 63.2014 101.85 63.2654 101.325 63.3111C100.28 63.4021 100.429 63.675 100.131 63.9175C99.8326 64.1601 99.0864 64.0691 98.5642 64.2814C98.0419 64.4936 98.4149 64.9181 98.5642 64.9181C98.7134 64.9181 98.1165 66.7071 97.7434 66.6768C97.3703 66.6465 96.5496 65.9491 96.1765 65.4033C95.8035 64.8575 95.3558 64.9181 95.0573 64.524C94.839 64.2356 93.6062 64.3647 92.8642 64.4894C92.751 64.5084 92.6697 64.6071 92.6697 64.7219C92.6697 64.8359 92.5896 64.9341 92.4774 64.9549C91.5943 65.119 89.9959 65.3564 89.3867 65.2213C88.566 65.0394 88.4167 65.2213 87.3722 65.2213H86.4022C86.0043 65.2213 85.0741 65.2577 84.5369 65.4033C83.8653 65.5852 78.9409 66.3129 78.6424 65.9491C78.3439 65.5852 77.0755 65.2213 76.7771 64.9181C76.75 64.8906 76.7266 64.8668 76.7062 64.846C76.3694 64.5026 76.1388 63.9175 75.6579 63.9175C75.3594 63.9175 74.3895 63.8872 73.6433 63.9175C73.4959 63.9235 73.3863 63.9342 73.3054 63.9539C72.6131 64.1223 73.0165 65.2282 72.304 65.2303C72.0342 65.2311 71.685 65.2277 71.236 65.2248C70.574 65.2206 69.9934 64.9228 69.465 64.524C68.9427 64.1298 68.4204 64.524 67.3758 64.524C66.3312 64.524 65.9581 64.6756 65.4359 64.9181C64.9136 65.1607 65.4359 65.191 65.9581 65.4033C66.4804 65.6155 66.5551 65.7065 67.3758 65.9491C68.1965 66.1916 69.0919 66.4342 69.465 66.9193C69.838 67.4045 68.8681 67.1922 68.4204 67.1013C67.9727 67.0103 66.8535 67.1013 65.4359 66.9193C64.0182 66.7374 63.4213 66.8587 61.4813 66.7071C59.5414 66.5555 61.1083 67.4045 61.0337 67.5864C60.9591 67.7684 60.7352 68.0109 60.5114 68.1625C59.9681 68.5305 59.2621 68.678 58.6314 68.4967C58.5471 68.4725 58.4746 68.4423 58.4222 68.4051C58.1237 68.1928 58.273 68.0109 58.4222 67.1013C58.5714 66.1916 58.7207 66.6768 58.7207 66.4342C58.7207 66.3561 58.5838 66.3278 58.3927 66.3271C57.7624 66.3247 57.1349 66.4342 56.5046 66.4342H54.8408C54.2439 66.4342 53.7216 66.4342 52.7516 66.3129C51.7816 66.1916 52.2293 66.4342 52.1547 66.6768C52.0801 66.9194 52.0801 66.889 51.8562 67.1922C51.6324 67.4954 51.1847 67.4045 50.5132 67.4045C49.8417 67.4045 49.9909 67.1922 49.2448 66.4342C48.4986 65.6762 48.6479 66.4342 48.3494 66.4342H47.8271C47.4789 66.4645 46.5438 66.5615 45.5887 66.7071C44.3949 66.889 44.0218 66.9497 42.455 67.1922C42.0967 67.2477 41.9006 67.2896 41.8153 67.321C41.5992 67.4005 41.9612 67.8148 42.0819 68.0109C42.2311 68.2535 42.455 68.4961 42.455 68.9509C42.455 69.4057 42.3803 69.7696 42.455 70.0121C42.5296 70.2547 44.0218 71.0431 43.5742 71.0431C43.1265 71.0431 42.3803 71.1947 41.2611 71.3463C40.1419 71.4979 40.5896 71.4069 39.3958 71.3463C38.202 71.2856 37.9782 71.2553 37.3813 71.0431C37.3186 71.0208 37.2305 70.9913 37.1226 70.9563C35.585 70.4576 34.0237 71.6347 34.0237 73.2512C34.0237 73.8225 33.8214 74.3752 33.4528 74.8116L32.9267 75.4345C32.5182 75.918 32.0153 76.3129 31.4488 76.5951L30.7533 76.9416C30.2487 77.193 29.7202 77.3929 29.1756 77.5385L29.0786 77.5645Z" fill="#90C435"/>
<path d="M31.8943 79.8856C30.6589 80.6028 29.2299 80.9154 27.8078 80.7794L25.5179 80.5604C25.1363 80.5239 24.7562 80.6438 24.4646 80.8927C24.2747 81.0547 24.1306 81.2638 24.0511 81.5005C23.895 81.9656 23.6984 82.5881 23.6524 82.8684C23.5778 83.3233 22.9809 84.7484 22.9809 85.5367C22.9809 86.3251 22.9063 86.3554 22.9809 87.5683C23.0555 88.7811 22.9809 88.7508 24.9208 90.2669C26.8608 91.7829 32.0837 92.6016 34.4713 93.0867C36.859 93.5719 38.5005 93.5719 41.7088 93.5719C44.9172 93.5719 47.6779 93.6022 50.2894 93.5719C52.9008 93.5416 53.4231 93.4809 57.7507 92.8442C62.0783 92.2074 60.3622 92.359 65.1374 91.3281C69.9127 90.2972 68.8681 90.0243 73.6433 88.7508C78.4186 87.4773 75.2848 83.0504 74.6133 81.8678C73.9418 80.6853 71.9272 78.9873 71.1811 78.5628C70.9328 78.4215 70.0528 78.1448 69.7792 78.0624C69.199 77.8878 68.4511 77.6753 67.8235 77.5318C66.6297 77.2589 66.9281 77.5318 66.4058 77.5318H50.2894C48.7761 77.5318 48.8481 77.5318 45.6533 76.7478C45.0663 76.6038 44.4983 76.3814 43.9253 76.1891C42.8531 75.8293 43.4586 76.5312 41.7088 76.5312C39.6197 76.5312 40.7389 76.8041 39.5451 76.5312C38.3512 76.2583 36.7097 76.7132 35.4413 76.8041C34.1729 76.8951 35.6652 77.4105 36.1875 77.5318C36.5679 77.6202 37.3072 78.151 37.7181 78.4742C37.7918 78.5322 37.8523 78.6049 37.8978 78.687C38.1684 79.1758 37.8152 79.7672 37.2571 79.7416C36.3286 79.6991 35.0801 79.6104 33.7998 79.4421C31.263 79.1086 32.606 79.5331 32.0837 79.7756L31.8943 79.8856Z" fill="#106D0F"/>
<path d="M228.093 78.957C227.835 79.2265 227.504 79.6144 227.182 79.9599C226.653 80.5261 225.983 80.9424 225.352 81.3914L224.511 81.9891C224.188 82.2519 223.347 82.8805 222.571 83.2929C221.601 83.8084 221.751 84.809 221.9 85.8096C222.049 86.8102 222.422 87.4469 224.511 88.2353C226.601 89.0236 228.466 89.2056 230.406 89.4178C232.346 89.6301 240.404 89.5088 243.463 89.4178C246.522 89.3269 247.119 89.2056 250.924 88.9327C254.73 88.6598 259.58 88.4172 265.176 88.2353C270.622 88.0582 275.362 87.7663 280.151 87.4713L280.546 87.4469C285.47 87.1437 295.319 83.6871 295.618 83.2929C295.916 82.8987 294.722 76.4706 294.126 75.7732C293.624 75.1868 294.019 74.4504 293.669 72.5185C293.52 71.6952 292.559 71.243 292.559 70.4063C292.559 69.8605 292.783 69.8908 292.559 69.3451C292.335 68.7993 292.186 68.7993 291.589 67.9503C290.992 67.1013 291.066 66.9497 290.096 66.9497C289.126 66.9497 284.874 67.2529 284.5 67.6774C284.127 68.1019 283.605 68.7993 282.113 69.1025C280.621 69.4057 281.367 68.5567 280.546 67.6774C279.725 66.7981 275.696 66.7071 274.95 66.4948C274.204 66.2826 271.592 66.4039 268.011 65.7368C264.429 65.0697 267.489 65.2517 267.489 64.6452C267.489 64.0388 268.086 63.8266 268.011 63.675L267.489 62.6137C267.265 62.1589 264.653 61.977 263.907 61.977C263.161 61.977 264.355 62.7653 264.653 63.0685C264.952 63.3718 263.758 64.3723 263.236 64.6452C262.713 64.9181 261.296 65.1001 260.4 64.6452C259.505 64.1904 260.102 63.5537 260.4 61.977C260.699 60.4002 260.102 61.5828 255.924 60.6125C251.745 59.6422 253.536 60.9157 253.611 61.3402C253.685 61.7647 254.357 62.2802 255.924 63.0685C257.375 63.7987 255.687 65.122 254.17 64.5408C253.641 64.3382 253.033 64.1013 252.342 63.8266C248.91 62.4621 250.178 63.5537 249.358 63.0685C248.537 62.5834 248.089 62.7047 247.119 62.2802C246.149 61.8557 243.463 61.886 243.463 62.2802C243.463 62.6743 244.209 63.0685 245.925 63.5537C247.642 64.0388 254.357 65.2213 255.103 65.7368C255.849 66.2523 256.67 66.6161 256.67 66.9497C256.67 67.2832 258.162 68.2232 258.237 68.7993C258.311 69.3754 257.043 69.7392 256.67 70.9521C256.297 72.1649 255.028 71.7708 254.357 72.074C253.685 72.3772 253.387 72.5591 250.178 72.3165C246.97 72.074 246.597 71.7708 243.463 71.2857C240.329 70.8005 238.912 71.5282 237.121 71.7708C235.33 72.0134 236.599 73.8327 237.121 74.1662C237.643 74.4997 238.24 74.5604 239.509 74.9546C240.777 75.3487 239.882 76.4706 239.509 77.0467C239.136 77.6228 237.718 77.0467 236.599 77.0467C235.48 77.0467 235.554 77.0164 233.39 76.4706C231.227 75.9248 231.749 76.5616 230.406 76.4706C229.063 76.3797 229.66 76.8042 229.585 77.4409C229.51 78.0777 228.615 78.4112 228.093 78.957Z" fill="#106D0F"/>
<path d="M90.2075 66.4948L88.8728 67.373C88.7184 67.4745 88.5539 67.5597 88.3818 67.6272C87.2942 68.0533 86.6126 69.1399 86.7021 70.3046L86.8138 71.7566C87.0016 74.199 89.0613 76.0714 91.5106 76.0261L102.773 75.8181C103.212 75.81 103.563 75.4518 103.563 75.0128C103.563 74.8752 103.528 74.7398 103.461 74.6197L102.817 73.4687C102.747 73.3553 102.511 73.0163 102.047 72.414C101.574 71.8003 101.004 71.2712 100.425 70.7571C99.902 70.2937 99.2084 69.6186 97.6688 68.1019C97.2211 67.6774 96.9227 67.5257 95.5796 67.1619C94.9856 67.001 95.0061 65.9118 94.4728 65.6046C94.3233 65.5185 94.1883 65.4639 94.0874 65.4639C93.8575 65.4639 93.3695 65.364 92.931 65.2603C92.5204 65.1633 92.0877 65.202 91.7085 65.3869C91.6034 65.4381 91.5038 65.4997 91.4111 65.5709L90.2075 66.4948Z" fill="#A69D9D"/>
<path d="M157.882 66.4948C157.006 67.5428 155.843 68.3181 154.523 68.6716C153.872 68.8462 153.266 68.9962 152.957 69.0418C152.137 69.1631 150.271 69.3147 149.749 69.4967C149.227 69.6786 148.48 69.8605 148.331 69.9818C148.182 70.1031 147.958 70.4063 147.958 70.5276V71.7708C147.958 72.0437 152.733 76.8951 152.957 77.0164C153.136 77.1134 155.419 77.1983 156.539 77.2286H199.645C203.635 77.2286 206.595 73.5302 205.722 69.6375C205.172 67.1837 203.193 65.3165 200.771 64.6416C200.537 64.5764 200.299 64.5082 200.06 64.4373C199.4 64.2417 198.829 63.855 198.213 63.5472C197.652 63.2668 196.643 62.9111 194.591 62.4621C190.712 61.613 193.398 61.977 192.726 61.6737C192.055 61.3705 191.831 61.1886 191.234 60.8854C190.057 60.2873 188.626 60.5926 187.305 60.6125C186.429 60.6257 185.279 60.5759 183.847 60.4002C183.161 60.4002 182.493 60.586 181.857 60.8438C181.555 60.9665 181.25 61.069 180.999 61.1143C180.522 61.2007 180.422 60.5427 179.951 60.4235C179.452 60.297 178.668 60.3378 178.177 60.4002C177.779 60.4002 175.893 59.7392 171.536 57.0952C171.022 56.6771 170.301 57.2178 169.678 57.443L169.552 57.4885C169.383 57.5496 169.219 57.6243 169.062 57.712C168.618 57.9593 167.954 58.3284 167.656 58.49C167.121 58.78 166.605 59.1265 166.03 59.3289C165.064 59.6697 163.94 60.1282 163.851 60.4002C163.702 60.855 162.209 61.3705 161.911 61.6737C161.672 61.9163 161.115 62.3004 160.866 62.4621L159.248 63.7537C158.95 63.9913 158.777 64.3516 158.777 64.7326C158.777 64.9725 158.708 65.2074 158.579 65.4092L157.882 66.4948Z" fill="#A69D9D"/>
<path d="M323.73 70.2536C323.692 70.2744 323.65 70.2886 323.607 70.2956C323.427 70.3249 323.292 70.4751 323.281 70.6572L323.034 74.8939C322.964 76.0958 323.277 77.289 323.929 78.3013L327.514 83.8702C327.539 83.9089 327.575 83.9389 327.618 83.9563C327.765 84.016 327.925 83.9079 327.925 83.7493V68.5784C327.925 68.5045 327.858 68.4492 327.785 68.4639C327.779 68.4651 327.773 68.4668 327.767 68.469L326.806 68.8296C326.508 68.9104 325.866 69.0964 325.687 69.1935L323.73 70.2536Z" fill="#B7AEA6"/>
<path d="M231.823 82.5335C231.823 82.8284 231.721 83.1143 231.534 83.3424L231.227 83.7174C230.841 84.1879 230.63 84.7777 230.63 85.3863V89.9697C230.63 95.4925 235.107 99.9697 240.63 99.9697H318C323.523 99.9697 328 95.4925 328 89.9697V84.5247C328 84.3413 327.912 84.1688 327.764 84.0605C327.675 83.9949 327.606 83.9056 327.566 83.8018C327.244 82.9632 326.664 81.5142 326.109 80.2884C325.705 79.3941 325.113 78.6014 324.418 77.9085C324.192 77.6828 323.95 77.4452 323.598 77.1073C322.777 76.319 323.598 76.4705 323.598 76.0157V66.7071C323.598 65.8278 322.628 65.2516 321.732 63.8871C320.837 62.5227 320.091 62.4015 319.793 61.8253C319.494 61.2491 318.897 60.4002 318.375 59.6422C317.853 58.8842 316.733 57.6107 315.39 56.0946C314.047 54.5785 315.689 55.6094 315.39 55.0637C315.092 54.518 315.167 54.5785 314.197 52.7896C313.898 52.0315 313.376 52.456 313.376 52.0315V50.5458C313.376 49.5755 313.376 49.4542 312.704 48.3626C312.033 47.2711 309.794 45.6944 309.794 45.2092C309.794 44.6992 309.296 44.3351 308.795 44.43C308.542 44.4779 308.288 44.5118 308.078 44.5118C307.407 44.5118 305.765 44.5118 305.243 43.8447C304.721 43.1776 304.049 43.4808 302.855 43.4808C301.662 43.4808 301.363 43.5415 300.169 43.4808C298.975 43.4202 298.229 43.5718 298.229 43.8447C298.229 44.271 298.051 44.6746 297.773 44.9979C297.41 45.4209 297.035 45.9515 297.035 46.3007C297.035 46.9375 293.976 51.4857 293.006 52.456C292.94 52.5226 292.882 52.588 292.833 52.6518C292.248 53.4089 292.643 54.7242 293.006 55.6094C293.23 56.1552 293.976 55.9429 293.976 56.5494C293.976 57.1558 295.692 58.5506 295.692 59.157C295.692 59.7634 297.035 60.946 297.035 61.8253V61.9726C297.035 63.1995 296.553 64.3772 295.692 65.2516C295.12 65.7974 294.185 67.0284 295.021 67.5864C296.066 68.2838 294.797 68.6779 295.021 69.5572C295.245 70.4366 293.976 70.6791 293.976 71.6797V72.741C293.976 73.0138 292.783 73.8326 291.962 74.7726C291.612 75.1729 291.304 75.5565 291.065 75.8659C290.761 76.2601 290.415 76.6222 290.016 76.9196C289.527 77.2836 288.971 77.5437 288.382 77.6992C286.696 78.1443 284.303 78.8546 283.754 79.3208C282.934 80.0182 282.337 79.7756 281.814 80.0485C281.292 80.3213 280.695 81.1401 280.173 81.6252C279.938 81.8436 279.345 82.021 278.743 82.1489C277.931 82.3214 277.093 82.1507 276.354 81.7714C276.164 81.6741 275.981 81.5642 275.817 81.4285C275.565 81.2212 275.238 80.9193 275.025 80.6246C274.651 80.1091 274.129 80.4124 273.756 79.7756C273.383 79.1389 272.712 78.6234 272.189 77.8957C271.667 77.168 270.249 76.2886 270.1 76.0157C269.951 75.7428 269.652 75.1971 269.13 74.7726C268.608 74.3481 265.399 71.0127 265.101 71.2553C264.803 71.4979 264.355 71.7404 263.683 72.1043C263.001 72.4738 262.218 72.6892 261.532 73.0517C260.923 73.3737 260.226 73.7028 259.729 73.8326C259.428 73.9113 259.175 74.0266 258.97 74.1522C258.459 74.465 258.361 75.0861 258.597 75.6367C258.672 75.8116 258.764 76.0149 258.878 76.2489C259.082 76.6671 260.181 77.2175 259.729 77.1073L260.435 77.3532C260.638 77.4238 260.773 77.6151 260.773 77.8299C260.773 78.1994 260.389 78.4437 260.055 78.2871L258.933 77.7621C258.544 77.5802 258.089 77.6004 257.731 77.8379C257.331 78.1041 256.898 78.4198 256.744 78.6234C256.543 78.8894 255.266 79.6485 254.364 80.1587C254.07 80.3247 253.837 80.5806 253.703 80.8905C253.505 81.3503 253.093 81.6836 252.601 81.7725C251.886 81.9014 251.011 82.0461 250.551 82.08C250.304 82.0983 250.049 82.1315 249.813 82.1695C249.248 82.2604 248.66 82.1089 248.25 81.7095C248.193 81.6534 248.131 81.6016 248.066 81.5545L247.876 81.4174C247.621 81.2329 247.384 81.0239 247.17 80.7933L247.01 80.6209C246.489 80.061 245.883 79.5874 245.213 79.2182L244.135 78.6234L243.932 78.482C243.403 78.1135 242.73 78.0196 242.12 78.2292C241.329 78.4905 240.575 78.858 239.882 79.3208L239.793 79.366C239.256 79.6385 238.639 79.8107 238.228 80.2501C238.023 80.469 237.867 80.7632 237.867 81.1401C237.867 81.317 237.693 81.4332 237.457 81.5075C236.819 81.7085 236.143 81.4589 235.554 81.1401C234.982 80.8672 233.838 80.382 233.838 80.6246C233.838 80.7837 233.26 81.0646 232.673 81.3046C232.17 81.5103 231.823 81.9898 231.823 82.5335Z" fill="#66615C"/>
<path d="M233.017 85.3851L232.418 86.0144C232.284 86.1546 232.349 86.3866 232.536 86.4372C232.737 86.4917 232.815 86.7994 232.82 87.0076C232.823 87.1448 232.876 87.3044 233.017 87.4772C233.465 88.023 233.017 87.932 233.39 88.2049C233.763 88.4778 234.211 88.872 234.883 89.2359C235.554 89.5997 235.48 89.721 236.002 90.4487C236.524 91.1764 236.599 91.2674 236.599 91.51C236.599 91.585 236.74 91.72 236.941 91.8731C237.618 92.3894 238.321 92.8919 239.072 93.2938C239.228 93.3774 239.399 93.4612 239.583 93.5415C240.628 93.9963 240.628 93.8447 241.374 93.966C242.546 94.1565 243.422 95.0786 244.326 95.8484C244.567 96.0532 244.83 96.2268 245.105 96.3311C246 96.6707 246.473 96.8971 246.597 96.9678C247.393 97.3721 248.985 98.2231 248.985 98.3929C248.985 98.6052 250.477 98.6658 250.85 98.969C251.025 99.1115 251.243 99.2121 251.429 99.277C251.63 99.3475 251.825 99.4464 251.972 99.6005C252.161 99.7976 252.422 99.909 252.695 99.909H259.281C261.221 99.909 260.699 99.8787 261.445 99.3632C262.191 98.8477 262.191 98.969 262.191 98.6658V96.9678C262.191 96.7556 262.042 96.6949 262.191 95.9066C262.358 95.0262 263.079 94.3487 263.178 93.4582C263.344 91.9715 263.508 89.7811 263.012 89.4178C262.266 88.872 263.012 88.7507 263.012 88.2049C263.012 87.6591 263.012 87.3863 262.564 86.9314C262.116 86.4766 263.012 86.325 263.012 85.0516C263.012 83.7781 263.609 83.4445 263.758 82.9594C263.907 82.4742 264.056 82.2619 264.355 82.0194C264.653 81.7768 264.355 81.6252 265.325 80.2911C266.295 78.9569 265.474 79.7149 265.996 77.6531C266.519 75.5913 265.922 76.986 265.996 76.5312L266.006 76.4724C266.072 76.0695 266.091 75.9523 266.519 73.9539C266.966 71.8617 266.519 72.3166 266.519 71.892V70.9521C266.519 70.7701 264.728 71.1947 264.355 71.4372C263.982 71.6798 263.236 71.6495 262.788 72.0133C262.34 72.3772 261.818 72.4681 261.221 72.832C260.624 73.1958 259.207 73.4991 258.684 74.0448C258.162 74.5906 257.565 74.7119 258.087 74.9848C258.61 75.2577 258.386 75.3487 258.46 75.6822C258.535 76.0157 258.61 76.1977 259.057 76.6828C259.505 77.168 260.102 77.4105 260.177 77.5621C260.251 77.7137 260.997 78.4414 260.177 78.1989C259.654 77.9866 260.027 77.926 259.281 77.5621C258.85 77.3519 258.219 77.3745 257.62 77.5422C256.791 77.7743 256.542 78.7791 255.774 79.1692C255.177 79.4724 255.401 79.5937 254.506 79.8969C253.611 80.2001 253.237 81.0491 252.939 81.3827C252.641 81.7162 252.939 81.7162 253.238 82.1407C253.536 82.5652 253.76 82.7168 254.133 83.1716C254.506 83.6264 254.133 83.9903 252.939 85.0516C251.745 86.1128 251.969 85.3851 251.745 85.3851H248.985C247.716 85.3851 248.015 85.3851 247.194 85.2638C246.391 85.1451 245.73 84.9102 245.143 84.7013L245.105 84.6877C244.508 84.4755 243.612 84.2935 243.165 83.9903C242.717 83.687 242.568 83.9903 241.747 83.4445C240.926 82.8988 241.672 83.2929 241.374 82.9594C241.076 82.6258 241.076 82.7168 239.583 82.1407C239.19 81.9889 238.959 81.9075 238.836 81.872C238.688 81.8291 238.713 82.0936 238.564 82.1339C238.547 82.1384 238.531 82.1453 238.517 82.1546C238.337 82.2713 238.016 82.5023 238.016 82.5955C238.016 82.7168 238.986 83.8083 238.986 83.9903C238.986 84.3252 238.715 84.5967 238.38 84.5967H236.791C236.663 84.5967 236.535 84.6079 236.409 84.6302L234.883 84.8999C234.703 84.9323 234.275 85.0218 233.774 85.1559C233.518 85.2244 233.185 85.1802 233.017 85.3851Z" fill="#B7AEA6"/>
<path d="M279.756 88.6295C279.835 88.6295 279.913 88.6404 279.988 88.662C280.23 88.731 280.6 88.8374 280.828 88.9054C280.886 88.9225 280.932 88.9649 280.955 89.0205C281.009 89.1522 280.912 89.2965 280.77 89.2965H280.357C280.334 89.2965 280.311 89.2982 280.288 89.3015C279.996 89.3433 279.363 89.4178 278.904 89.4178C278.865 89.4178 278.827 89.4172 278.791 89.4162C278.38 89.4044 278.212 89.0406 278.531 88.7811C278.725 88.624 279.106 88.6295 279.355 88.6295H279.756Z" fill="#B7AEA6"/>
<path d="M285.321 83.9903C285.435 83.5265 286.204 83.1691 286.826 82.8639C287.148 82.7064 287.336 82.3772 287.336 82.0194C287.336 81.8981 287.634 81.2917 287.933 80.5337C288.157 80.0788 288.231 80.2911 288.38 79.8969C288.502 79.5768 288.672 79.6566 289.091 78.9997C289.332 78.6228 289.227 78.2969 289.425 77.8957C289.574 77.5925 289.723 77.5621 289.873 77.1377C290.022 76.7132 290.022 76.6828 290.47 76.0461C290.693 75.7429 290.32 75.4093 290.917 75.2577C291.514 75.1062 291.663 74.5907 291.44 74.4087C291.216 74.2268 292.559 73.9236 292.857 73.5294C293.156 73.1352 293.529 73.4688 293.529 73.1959V70.9521C293.529 70.4669 293.529 70.0424 294.275 69.3147C295.021 68.587 294.275 68.9812 294.275 68.1928C294.275 67.4045 293.678 67.8593 294.275 67.0103C294.872 66.1613 294.275 66.3129 294.499 65.7975C294.723 65.282 295.991 64.3723 295.991 63.3717V60.7338C295.991 60.3093 295.021 57.7623 294.499 57.55C293.976 57.3378 294.499 57.3378 294.275 57.0042C294.223 56.9266 294.146 56.872 294.053 56.8223C293.143 56.3374 292.772 55.8203 292.323 54.8919C292.023 54.2712 291.907 52.9351 292.423 52.4786C292.46 52.4462 292.504 52.4092 292.559 52.3651C293.006 52.0012 293.678 50.9096 294.051 50.3942C294.237 50.1364 294.275 50.1061 294.275 50.1213C294.349 49.9697 294.424 50.0303 294.499 49.9394C294.573 49.8484 294.797 49.6665 295.021 49.5149C295.245 49.3632 295.767 48.6658 295.991 48.393C296.215 48.1201 296.215 47.2407 296.289 46.9679C296.364 46.695 296.439 46.3614 296.588 46.2098C296.737 46.0582 296.439 46.0885 296.812 45.5731C297.185 45.0576 297.185 45.3911 297.185 45.1789C297.185 44.9666 297.558 45.1789 297.558 45.0273C297.558 44.8495 297.782 45.0273 297.931 44.7847C298.08 44.5421 297.334 43.9054 298.229 43.6022C298.354 43.5598 298.502 43.5227 298.659 43.4908C299.018 43.4179 301.372 43.4297 301.736 43.3899C302.408 43.2383 301.885 43.4809 303.601 43.3293C304.721 43.1777 304.571 43.3899 304.945 43.3899C305.434 43.3899 305.978 43.6025 306.274 43.9916C306.283 44.0033 306.288 44.015 306.288 44.0267C306.288 44.148 307.034 44.0873 307.034 44.1783C307.034 44.2692 308.078 44.7544 309.571 44.2693C310.242 44.0267 308.899 44.6331 308.75 44.9666C308.601 45.3002 308.601 45.6337 308.078 46.7556C307.556 47.8775 308.078 47.9685 308.078 48.1807C308.078 49.2543 308.394 50.2916 309.175 51.0281C309.323 51.1674 309.488 51.3176 309.67 51.4788C310.094 51.8534 310.652 52.1475 310.875 52.6674C310.899 52.7246 310.914 52.7851 310.914 52.8502C310.914 53.1838 311.436 53.7599 311.585 54.3966C311.734 55.0334 310.914 56.792 310.914 58.2474C310.914 59.7029 310.54 59.5816 310.914 61.1583C311.287 62.735 313.003 61.5828 313.525 62.2195C314.047 62.8563 313.376 62.5531 313.525 62.9169C313.674 63.2808 313.749 63.3717 314.271 64.0085C314.793 64.6452 314.122 64.7362 314.271 65.2517C314.42 65.7671 314.719 65.8884 315.465 67.0103C316.211 68.1322 315.614 67.6774 316.137 68.1928C316.659 68.7083 316.137 68.5567 316.137 68.9812V70.9521C316.137 71.3159 315.913 71.4372 316.137 71.892C316.36 72.3468 316.36 72.0133 317.106 72.832C317.853 73.6507 318.002 73.3172 318.823 73.9539C319.643 74.5906 319.419 74.3481 320.016 74.9848C320.613 75.6215 320.613 75.6822 321.061 76.228C321.509 76.7738 321.583 76.6828 322.404 77.5621C323.225 78.4414 323.299 78.1079 323.299 79.1692V79.6615C323.299 80.2418 323.334 80.825 323.302 81.4044C323.283 81.7566 323.26 82.0772 323.299 82.1407C323.374 82.262 323.672 82.5955 324.419 82.9594C325.165 83.3233 325.836 83.5658 326.135 83.7477C327.001 84.2756 327.925 84.7912 327.925 85.8053V98.9203C327.925 99.467 327.408 99.87 326.881 99.7271C326.657 99.6665 326.135 99.7878 325.239 99.7271C324.344 99.6665 324.344 99.6968 322.852 99.3329C321.359 98.9691 322.628 99.2116 322.329 99.0904C322.031 98.9691 321.956 98.9084 321.732 98.7568C321.509 98.6052 321.658 98.6355 321.359 98.393C321.061 98.1504 320.912 98.2414 320.464 98.0898C320.016 97.9381 319.867 97.9988 319.643 97.9988C317.792 97.9988 316.503 100 314.652 100H306.233C305.673 100 305.112 99.9639 304.566 99.8447C304.463 99.8222 304.383 99.8021 304.348 99.7878C304.198 99.7271 304.348 99.5755 304.348 99.2116V98.1504C304.348 97.7865 304.198 97.8775 303.751 97.453C303.303 97.0285 302.781 96.4524 302.632 96.1795C302.482 95.9066 302.408 95.5427 302.408 95.3002C302.408 95.0576 302.632 94.906 302.781 94.148C302.93 93.3899 302.781 93.6628 302.632 93.117C302.482 92.5713 302.333 92.9048 301.662 92.2984C300.99 91.6919 300.841 91.9648 300.169 91.6919C299.498 91.419 299.274 91.51 298.826 91.51C298.379 91.51 298.005 92.0558 297.782 92.2074C297.558 92.359 297.409 92.3893 297.11 92.7532C296.812 93.117 296.737 93.117 296.513 93.4506C296.289 93.7841 296.439 93.7841 296.289 94.148C296.187 94.398 295.979 94.5478 295.665 94.617C295.371 94.6819 295.063 94.502 294.872 94.2692C294.722 94.0873 294.275 94.057 293.529 93.6628C292.783 93.2686 292.857 93.5415 292.708 93.4506C292.559 93.3596 292.559 93.2383 292.409 92.9048C292.26 92.5713 292.111 92.6622 291.44 92.0558C290.768 91.4494 290.992 92.0255 290.843 92.0558C290.693 92.0861 290.47 92.1468 290.47 92.3893C290.47 92.6319 290.843 92.7532 291.44 93.117C292.036 93.4809 292.484 93.4809 293.23 93.7841C293.976 94.0873 293.753 94.0267 294.275 94.4512C294.797 94.8757 294.2 94.7847 294.051 94.906C293.902 95.0273 293.827 95.1183 293.753 95.4821C293.678 95.846 293.753 96.0279 293.529 96.4524C293.305 96.8769 292.559 97.0891 291.887 97.5136C291.216 97.9381 290.544 98.0594 289.873 98.1504C289.201 98.2414 289.35 98.1201 289.35 97.9988C289.35 97.8775 289.276 97.453 289.35 97.3014C289.425 97.1498 289.425 97.0588 289.723 96.6646C290.022 96.2705 290.171 96.2705 290.171 96.0279C290.171 95.7853 290.693 95.6944 290.843 95.5427C290.992 95.3911 291.738 95.3305 291.887 95.2092C292.036 95.0879 291.514 95.1182 290.992 95.1182C290.47 95.1182 290.32 95.3911 290.171 95.5427C290.022 95.6944 289.276 95.6944 288.38 95.6944C288.007 95.6944 288.157 95.4215 288.082 95.2092C288.007 94.997 288.007 95.0879 287.858 94.997C287.714 94.9091 287.222 94.6799 286.516 94.6643C286.466 94.6632 286.37 94.6736 286.324 94.6958C286.118 94.7975 286.487 95.0243 286.582 95.2342C286.658 95.4032 286.746 95.5841 286.813 95.6944C286.963 95.9369 287.112 96.0885 287.187 96.1795C287.346 96.3735 287.074 96.6253 286.846 96.5196L286.44 96.3311L285.6 96.0123C285.419 95.9437 285.221 95.9366 285.036 95.9921L284.659 96.1049C284.282 96.2177 283.904 95.9357 283.904 95.5427C283.904 95.3117 283.573 95.0929 283.541 94.467C283.488 93.4088 283.454 92.4693 283.904 91.51C284.365 90.5258 285.321 89.7299 285.321 88.643V87.8714C285.321 87.6665 285.376 87.5303 285.441 87.41C285.992 86.3869 285.043 85.119 285.321 83.9903Z" fill="#B7AEA6"/>
<path d="M54.2439 90.391C54.2439 90.5401 54.123 90.661 53.9739 90.661H52.9754C52.2749 90.661 51.707 91.2289 51.707 91.9294V94.4057C51.707 96.4738 53.3836 98.1504 55.4517 98.1504H147.299C152.931 98.1504 157.454 93.501 157.282 87.8709C157 78.6614 156.666 68.7762 156.539 68.587C156.335 68.2833 154.894 68.2059 154.638 67.1646C154.585 66.9491 154.544 66.7237 154.412 66.5452C154.269 66.3518 154.131 66.2145 154.023 66.1254C153.925 66.0455 153.853 65.9297 153.853 65.8036C153.853 65.6871 153.791 65.5793 153.691 65.519C153.368 65.3234 152.835 64.9905 152.435 64.7059C151.838 64.2814 151.763 64.0388 151.763 63.6143C151.763 63.1129 152.218 62.6923 151.853 62.3491C151.564 62.0782 151.15 61.7401 150.57 61.3402C148.854 60.1577 149.301 60.7944 148.555 60.4002C148.442 60.3405 148.347 60.2987 148.267 60.271C148.054 60.1973 147.618 60.3076 147.405 60.2334C147.376 60.2234 147.346 60.218 147.315 60.217C146.873 60.2028 145.974 60.1258 145.571 59.9151C144.896 59.5629 144.058 59.9151 143.297 59.9151H143.034C141.947 59.81 141.155 58.9529 140.413 58.1527C140.266 57.9942 140.137 57.8729 140.049 57.8229C139.676 57.6107 139.9 57.3681 139.378 56.6101C139.284 56.4739 139.173 56.3586 139.054 56.2615C138.498 55.8068 137.885 55.2317 137.885 54.5133C137.885 54.1478 137.738 53.7976 137.477 53.5417L136.617 52.6986L136.06 52.2114C135.798 51.9815 135.647 51.6494 135.647 51.3002C135.647 50.8384 135.383 50.4197 134.977 50.1983C134.428 49.8978 133.856 49.5446 133.856 49.3936C133.856 49.1207 134.005 48.8781 133.856 48.2414C133.734 47.7204 133.762 47.7474 132.428 46.579C131.722 45.9608 131.319 45.0663 131.319 44.128C131.319 43.8194 131.309 43.483 131.096 43.2603C130.891 43.0474 130.575 42.9259 130.126 42.7229C129.893 42.6177 129.739 42.0761 129.533 41.9252L129.499 41.9009C129.424 41.8458 129.379 41.758 129.379 41.6646V41.4154C129.379 41.1526 129.248 40.9072 129.029 40.762L127.962 40.0546C127.881 40.0146 127.781 39.95 127.676 39.86C126.689 39.0181 126.541 37.5754 125.577 36.7081C125.224 36.3904 124.763 35.9657 124.155 35.3808C123.142 34.4058 121.799 33.8387 120.393 33.8387C120.018 33.8387 119.644 33.8783 119.278 33.9586C118.421 34.1465 117.256 34.4081 116.919 34.5058C116.397 34.6574 115.874 34.809 115.352 35.0212C114.736 35.2715 114.441 35.9961 114.316 36.6489C114.313 36.6621 114.31 36.6755 114.308 36.6889C114.158 37.4166 114.084 37.265 113.188 38.114C112.293 38.963 113.188 38.7811 113.188 39.2662V40.0546C113.188 40.1626 113.115 40.304 113.013 40.4476C112.728 40.8477 112.38 41.2024 112.111 41.6129C111.787 42.1074 111.378 42.5384 110.955 42.9524C110.671 43.2315 110.428 43.5154 110.428 43.6628V46.4827C110.428 47.2711 109.532 47.1498 108.786 47.7865C108.768 47.8024 108.75 47.8178 108.733 47.8327C108.564 47.9829 108.348 48.6571 108.184 48.8128C108.14 48.8545 108.115 48.9124 108.115 48.973V51.0916C108.115 51.5161 110.428 51.9102 110.428 52.4257C110.428 52.9412 111.995 54.3663 112.517 54.9424C113.039 55.5185 113.263 56.9436 113.188 57.3681C113.114 57.7926 111.398 58.9751 110.428 59.4603C109.458 59.9454 108.562 61.128 108.115 61.3402C107.667 61.5525 105.429 62.735 104.533 63.0685C103.638 63.4021 104.533 65.6155 104.533 66.0097C104.533 66.4039 104.533 68.2232 104.011 68.7386C103.489 69.2541 103.414 70.4366 103.414 70.9521V71.4854C103.414 72.0503 103.559 72.6057 103.835 73.0988C104.28 73.8959 104.48 74.9116 103.929 75.6398C103.76 75.8626 103.58 75.9801 103.414 75.8642C102.892 75.5003 103.563 75.47 103.414 75.1364C103.295 74.8696 102.966 74.4997 102.817 74.3481L102.773 74.2976C102.11 73.5472 101.352 72.8742 100.467 72.4046C100.425 72.3821 100.387 72.3627 100.355 72.3469C99.5163 71.9379 98.5912 71.7518 97.676 71.5706C97.4635 71.5285 97.2558 71.4749 97.0719 71.4069C96.2511 71.1037 96.1019 70.9521 95.0573 70.9521C94.4671 70.9521 93.8825 70.8293 93.3499 70.5752C92.6682 70.2499 91.9057 69.8627 91.6997 69.6786C91.4391 69.4456 90.7423 69.2881 90.3048 69.2183C90.2067 69.2026 90.1329 69.119 90.1329 69.0196C90.1329 68.9573 90.1035 68.8985 90.053 68.862C89.8924 68.7457 89.661 68.587 89.6106 68.587C89.554 68.587 89.4544 68.238 88.8885 67.7122C88.4561 67.3103 87.9066 67.0555 87.4803 66.6471C87.4554 66.6232 87.4283 66.5978 87.3985 66.5705C86.9596 66.1681 86.4814 65.803 86.1037 65.3426C85.8799 65.0697 85.5814 64.7059 85.283 64.3723C84.9845 64.0388 84.7607 63.6143 84.4622 63.6143C84.1638 63.6143 83.343 63.0685 82.8954 63.0685H81.4577C81.0267 63.0685 80.5991 63.1443 80.1944 63.2923C79.6166 63.5036 79.1019 63.8571 78.6932 64.3169C78.5466 64.482 78.4159 64.6279 78.344 64.7059C78.1649 64.8999 77.2745 65.2112 76.8517 65.3426C75.9993 65.5158 75.3208 66.1375 74.6064 66.6336C74.4903 66.7142 74.3675 66.7818 74.2402 66.8284C73.4941 67.1013 74.2402 67.2529 74.2402 67.4651C74.2402 67.6774 73.7925 68.3445 73.7179 68.587C73.6433 68.8296 72.9718 69.6483 72.8972 70.0121C72.8589 70.1986 72.4106 70.453 71.9559 70.6623C71.5422 70.8527 71.2557 71.2547 71.2557 71.7101C71.2557 72.1548 71.3751 73.1474 71.8526 73.5597C72.4495 74.0752 71.8526 74.3481 71.8526 74.6513C71.8526 75.6744 71.5453 76.6973 70.8151 77.4138C70.7628 77.4651 70.7106 77.5148 70.6588 77.5622C70.1799 78 69.2243 78.3632 69.1506 79.0079L68.5631 84.1522C68.5194 84.5343 68.3279 84.8842 68.0294 85.1267C67.8451 85.2765 67.6273 85.3795 67.3946 85.4267L67.3012 85.4457C67.2019 85.4659 67.101 85.4795 66.9997 85.4745C66.6864 85.4593 66.1858 85.3684 65.8835 85.0819C65.7641 84.9848 65.3861 84.9202 65.212 84.9H64.3167C63.8231 84.9 63.6241 84.1872 63.1852 83.9615C63.1637 83.9505 63.1428 83.9398 63.1228 83.9297C62.8244 83.7781 62.3021 83.9297 62.1529 84.0813C62.0335 84.2026 61.556 84.6776 61.3321 84.9C61.0337 85.1425 60.4069 85.6701 60.2875 85.8399C60.1383 86.0522 59.8399 86.7192 59.8399 86.8708C59.8399 87.0225 59.4668 87.5379 59.4668 87.6895C59.4668 87.8411 59.0937 88.296 58.8699 88.4172C58.7402 88.4875 58.5506 88.6468 58.4086 88.7754C58.317 88.8583 58.2201 88.9354 58.1154 89.0009L57.445 89.42C57.3567 89.4753 57.303 89.5721 57.303 89.6763C57.303 89.8244 57.1957 89.9511 57.0482 89.9653C56.7625 89.9928 56.3735 90.0049 56.1092 89.9333C55.8542 89.8642 55.5247 90.1118 55.2697 90.1809L55.1937 90.2015C55.1089 90.2245 55.0198 90.2266 54.934 90.2076L54.5723 90.1274C54.4037 90.09 54.2439 90.2183 54.2439 90.391Z" fill="#7A746F"/>
<path d="M58.6932 88.4476C58.4201 88.6148 58.1702 88.8192 57.9708 89.0697L57.5047 89.6551C57.4707 89.6978 57.4522 89.7508 57.4522 89.8053C57.4522 89.8854 57.4125 89.9602 57.3463 90.005L57.3169 90.0249C57.2616 90.0624 57.2284 90.125 57.2284 90.1918C57.2284 90.2738 57.2781 90.3477 57.3541 90.3785L57.6332 90.492C57.7108 90.5235 57.7936 90.5402 57.8772 90.5352C58.1244 90.5207 58.6045 90.4672 59.243 90.3275C59.5414 90.2365 60.1383 90.0546 60.5114 89.9333C60.8844 89.812 60.7352 89.7817 60.8844 89.721C61.0038 89.6725 61.2824 89.5796 61.4067 89.5391C61.7549 89.4583 62.511 89.2844 62.7498 89.2359C63.0482 89.1753 63.7197 88.9327 63.9436 88.8114C64.1674 88.6901 64.5405 88.5082 64.5405 88.2959C64.5405 88.0837 65.1374 87.9321 65.212 87.8714C65.2866 87.8108 65.8089 87.7502 66.182 87.6895C66.5551 87.6289 66.4058 87.5379 66.5551 87.3257C66.7043 87.1134 66.7043 86.9921 66.7789 86.8708C66.8535 86.7495 67.525 86.416 67.525 86.3554C67.525 86.2947 67.7489 86.2038 67.8235 86.0825C67.8266 86.0773 67.8299 86.0722 67.8334 86.067C67.9483 85.8947 68.1259 85.7283 68.0473 85.5367C67.9727 85.3548 67.8235 85.4457 67.525 85.4457C67.2266 85.4457 66.7043 85.6276 66.4058 85.7186C66.2805 85.7568 66.0509 85.6719 65.9327 85.6154C65.7785 85.5416 65.6224 85.4458 65.5851 85.3548C65.5105 85.1728 64.7643 85.1728 64.5405 85.0819C64.3167 84.9909 64.242 85.1425 63.9436 85.0819C63.7799 85.0486 63.8735 84.7957 63.7826 84.6556C63.7078 84.5404 63.6111 84.4037 63.4959 84.2632C63.2571 83.9721 62.899 84.0004 62.7498 84.0509L62.6365 84.0778C62.132 84.1974 61.6357 84.465 61.4067 84.9303C61.3321 85.0819 60.9591 85.4154 60.8844 85.5367C60.8098 85.658 60.2129 86.3251 60.1383 86.5373C60.0637 86.7495 59.616 87.174 59.616 87.265C59.616 87.356 59.3176 87.8411 59.243 88.023C59.2055 88.1143 58.9513 88.2896 58.6932 88.4476Z" fill="#8F8781"/>
<path d="M73.3624 82.7774C73.2117 82.7774 73.1091 82.6245 73.1663 82.4851L73.2954 82.1702C73.3691 81.9907 73.2396 81.7912 73.2551 81.5977C73.26 81.5368 73.305 81.4805 73.4195 81.4433C73.6476 81.3691 73.9315 81.261 74.1518 81.1535C74.3648 81.0495 74.4641 80.8253 74.4641 80.5883V80.5086C74.4641 80.3117 74.545 80.1234 74.6879 79.9879C74.8308 79.8524 74.9117 79.6641 74.9117 79.4671V79.2905C74.9117 79.0479 74.2651 78.5223 73.9418 78.2899C73.3477 77.968 72.7122 77.7293 72.0531 77.5805L71.7034 77.5015L71.632 77.4749C71.1366 77.2904 70.808 76.8174 70.808 76.2887C70.808 76.1371 70.3603 76.1067 70.808 75.8338C71.2557 75.5609 71.3303 75.4397 71.3303 75.1668C71.3303 74.8939 70.9572 74.8939 71.3303 74.5603C71.7034 74.2268 71.7034 74.1965 71.7034 73.9842V72.6742C71.7034 72.5323 71.4795 72.4281 71.4795 72.2862C71.4795 72.1043 71.3303 72.1952 71.1811 71.892C71.0319 71.5888 71.1811 71.7707 71.1811 71.6798C71.1811 71.5888 71.3303 71.5282 71.3303 71.4675C71.3303 71.3602 71.4795 71.2994 71.4795 71.192V71.1595C71.4795 71.1227 71.4872 71.0864 71.5016 71.0526C71.6277 70.7545 71.816 70.2175 71.7034 70.1031C71.5541 69.9515 71.7034 69.9211 71.8526 69.7695C72.0018 69.6179 71.8526 69.6786 72.0764 69.4966C72.3003 69.3147 72.5241 69.2844 72.6733 69.1025C72.8226 68.9205 72.8972 68.7689 73.2702 68.587C73.6433 68.4051 73.2702 68.4657 73.4195 68.4051C73.5687 68.3444 73.6433 68.2838 73.7179 68.1322C73.7925 67.9806 73.7925 68.0109 73.9418 67.7987C74.091 67.5864 74.0164 67.6774 74.2402 67.4348C74.4641 67.1922 74.4641 67.2832 74.4641 67.0406V66.5252C74.4641 66.2129 74.8075 66.0266 75.045 65.8239C75.2212 65.6734 75.4142 65.5194 75.5833 65.4336C75.8817 65.282 75.7325 65.3426 76.1056 65.2516C76.4786 65.1607 76.6278 65.1607 76.8517 65.1C77.0755 65.0394 77.2994 65.0091 77.8217 64.8575C78.344 64.7058 77.8217 64.7059 77.8217 64.6149C77.8217 64.5239 78.0455 64.4936 78.4186 64.2814C78.7916 64.0691 78.6424 64.0994 78.7916 63.9175C78.9409 63.7356 79.0901 63.7962 79.4632 63.5536C79.8362 63.3111 79.6124 63.402 79.9108 63.3111C80.2093 63.2201 80.2839 63.2201 80.7316 63.0685C81.1793 62.9169 82.2238 62.8563 82.3731 62.8866C82.5223 62.9169 82.4477 63.0382 82.3731 63.2201C82.2985 63.402 82.1492 63.402 81.9254 63.5536C81.7016 63.7053 81.7762 63.6143 81.7016 63.6749C81.6269 63.7356 81.4031 63.8265 81.4031 63.9175V64.2814C81.4031 64.433 81.8508 64.9181 81.4031 65.0091C80.9554 65.1001 80.9554 65.1607 80.7316 65.1C80.5077 65.0394 80.4331 65.0697 80.1347 64.9181C79.8362 64.7665 79.4632 64.9484 79.4632 65.0091C79.4632 65.105 79.4199 65.1958 79.3455 65.2563L79.2393 65.3426C79.0901 65.4639 78.9409 65.5549 78.9409 65.6762V66.0703C78.9409 66.2826 79.0155 66.2523 78.9409 66.3736C78.8662 66.4948 78.3439 66.6161 78.1947 66.5252C78.0455 66.4342 78.0455 66.4645 77.8217 66.3736C77.5978 66.2826 77.374 66.2523 77.1501 66.131C77.1008 66.1042 77.0578 66.0861 77.021 66.0743C76.9136 66.0398 76.7901 66.0703 76.6772 66.0703C76.6444 66.0703 76.6117 66.0736 76.5795 66.0803C76.4195 66.1134 76.1594 66.1698 76.1056 66.1916C76.0309 66.2219 76.0309 66.4342 75.8817 66.6161C75.7325 66.7981 75.5833 67.1316 75.434 67.3742C75.2848 67.6167 75.434 67.4348 75.434 67.7987C75.434 67.9806 75.3594 67.92 75.2848 68.0109C75.2102 68.1019 75.1356 68.1625 75.061 68.2838C74.9864 68.4051 74.7625 68.5264 74.6879 68.6477C74.6133 68.769 74.4641 69.1328 74.2402 69.3754C74.0164 69.6179 73.5687 69.8605 73.2702 70.1031C72.9718 70.3457 73.0464 70.2244 72.8972 70.3457C72.748 70.4669 72.6733 70.4973 72.3003 70.6489C71.9272 70.8005 72.3003 70.7702 72.0764 70.9218C71.8526 71.0734 71.9272 71.1946 71.9272 71.3766V71.8314C71.9272 72.0437 72.1511 72.1953 72.3003 72.2862L72.6581 72.5043C72.8992 72.6513 73.0464 72.9134 73.0464 73.1959C73.0464 73.4384 72.8972 73.681 73.4195 73.8326C73.9418 73.9842 73.4195 74.1055 73.9418 74.2571C74.4641 74.4087 74.9864 74.6816 74.4641 74.9242C74.0592 75.1122 74.2755 75.3344 74.4477 75.4308C74.4585 75.4368 74.4688 75.4438 74.478 75.452L74.6649 75.6165C74.7324 75.6759 74.8721 76.0261 74.9117 76.1067C75.061 76.4099 74.9117 76.5312 74.9117 76.6828V77.1549C74.9499 77.169 75.037 77.2072 75.2102 77.2893C75.6579 77.5015 75.9563 77.4712 76.1802 77.8047C76.404 78.1383 77.0755 78.1989 76.6278 78.4415C76.1802 78.684 76.1802 78.5628 76.1802 78.9266C76.1802 79.1318 76.2286 79.298 76.2962 79.4279C76.3628 79.5558 76.4942 79.9639 76.6278 80.0182C76.6486 80.0266 76.6698 80.0349 76.6914 80.0431C77.3543 80.2943 77.2057 80.6674 76.5959 81.029C76.4862 81.0941 76.3745 81.1521 76.1802 81.231C75.6579 81.4433 75.2102 81.5646 75.2102 81.7162C75.2102 81.7936 75.2491 81.8473 75.2276 81.8974C75.1336 82.1168 74.8014 82.097 74.5843 82.196C74.0408 82.4439 73.6484 82.6488 73.4688 82.7494C73.4362 82.7676 73.3998 82.7774 73.3624 82.7774Z" fill="#8F8781"/>
<path d="M113.001 64.9855C113.241 65.0605 113.287 65.4549 113.401 65.679C113.432 65.7391 113.483 65.7996 113.561 65.8581C113.595 65.8828 113.625 65.9029 113.654 65.9192C114.2 66.2309 114.381 66.8063 114.623 67.3865C114.731 67.6452 114.74 67.6887 114.83 67.7987C114.979 67.9806 114.83 68.1625 114.83 68.3141C114.83 69.0115 115.651 69.1934 115.725 69.4663C115.8 69.7392 115.278 69.8605 115.725 69.9818C115.966 70.0471 116.337 70.2002 116.674 70.3703C117.16 70.615 117.853 71.2841 117.34 71.4625C117.135 71.5338 116.838 71.5111 116.695 71.4675C116.397 71.3766 115.725 71.2856 115.725 71.043C115.725 70.7664 115.366 70.5603 115.254 70.4465L114.564 70.8496C114.473 70.9031 114.56 71.1043 114.468 71.1579C114.463 71.1609 114.454 71.1653 114.448 71.1672C114.41 71.1802 114.374 71.1933 114.339 71.2065C113.882 71.3796 113.08 71.4675 112.591 71.4675C112.442 71.4675 112.218 71.2856 112.144 71.043C111.995 70.4669 112.144 70.4063 112.144 70.194V69.2844C112.144 69.1631 111.771 69.1025 111.696 69.2844C111.621 69.4663 111.696 69.4966 111.696 69.7392C111.696 70.1155 111.251 70.3174 110.94 70.5281C110.583 70.7691 110.489 70.7176 109.756 70.6489C108.413 70.3456 107.965 69.9818 108.115 69.9818C108.264 69.9818 108.04 69.7392 108.562 69.7392H109.161C109.548 69.7392 110.093 70.0786 110.278 69.7392C110.428 69.4663 111.099 69.5573 110.428 69.1631C109.756 68.7689 109.756 68.6173 109.756 68.4657C109.756 68.3141 109.607 68.1625 109.308 67.9806C109.01 67.7987 108.115 67.8593 108.115 67.6167C108.115 67.1844 108.23 66.727 108.584 66.4792C108.815 66.3176 109.034 66.266 109.308 66.1916C109.325 66.1872 109.341 66.1829 109.358 66.1787C110.063 66.0036 110.75 65.5806 111.398 65.2516C111.631 65.1333 112.262 64.986 112.569 64.9227C112.582 64.92 112.591 64.9086 112.591 64.8954C112.591 64.8766 112.61 64.8632 112.628 64.8688L113.001 64.9855Z" fill="#8F8781"/>
<path d="M107.219 63.0685C107.158 63.2175 106.747 63.6916 106.354 63.9418C106.201 64.0396 106.009 64.021 105.848 63.936C105.563 63.7852 105.422 63.4433 105.605 63.1775C105.663 63.0943 105.728 63.0142 105.802 62.9472C106.1 62.6743 106.1 62.7046 106.324 62.553C106.548 62.4014 106.548 62.3105 106.622 62.0376C106.697 61.7647 106.846 61.7041 108.115 60.9763C109.383 60.2486 108.562 60.8247 111.696 60.0364C114.084 59.4602 111.472 59.6119 111.398 59.339C111.323 59.0661 111.025 59.2177 110.875 58.9448C110.726 58.6719 110.875 58.7629 110.875 58.308C110.875 57.8532 111.472 57.9442 111.472 57.0649V56.4584C111.472 56.0642 111.771 56.0036 112.069 55.6094C112.368 55.2153 112.069 55.1243 112.069 54.6088C112.069 54.0934 111.696 54.1843 111.472 53.8205C111.347 53.6171 110.851 52.9876 110.41 52.4405C110.085 52.0373 109.861 51.5221 109.532 51.1219C109.159 50.6671 109.532 50.9703 109.532 50.4245C109.532 49.8787 109.01 50.0606 109.01 49.1813C109.01 48.3021 109.234 48.8174 109.532 48.4536C109.831 48.0897 109.682 48.1504 109.905 47.9078C110.129 47.6652 110.278 47.544 110.577 47.1194C110.875 46.6949 110.726 46.8465 112.069 45.9672C112.89 45.3608 112.069 45.7853 112.069 45.664V45.1183C112.069 44.8151 112.069 44.5421 112.442 43.8144C112.591 43.5718 112.741 43.4506 113.412 42.7532C113.477 42.6863 113.534 42.6292 113.586 42.5793C114.396 41.7931 114.457 40.6793 115.351 39.9896C115.4 39.9523 115.45 39.9133 115.501 39.8726C116.098 39.4784 115.8 39.5997 116.397 39.3268C116.994 39.0539 116.397 39.145 116.397 38.9023V38.2656C116.397 37.9928 116.248 37.9321 116.397 37.356C116.546 36.7799 116.919 36.2947 116.994 36.0824C117.068 35.8702 117.367 35.8096 117.74 35.3547C118.113 34.8999 118.262 34.6877 118.486 34.2935C118.534 34.2085 118.587 34.1436 118.641 34.0946C118.839 33.9134 119.145 33.9387 119.412 33.9548C119.582 33.965 119.761 33.9919 119.916 34.045C120.341 34.1904 120.351 34.7234 120.351 35.1729V35.8096C120.351 36.1128 120.65 36.1128 120.65 36.2947C120.65 36.4767 121.321 36.6586 121.321 36.8708V37.356C121.321 37.5986 121.321 37.6289 120.65 37.8108C119.978 37.9927 120.65 37.9624 120.65 38.2656C120.65 38.5688 120.351 38.6901 120.351 39.145V40.0546C120.351 40.4791 120.65 40.4488 120.351 40.752C120.053 41.0552 121.321 40.9946 120.65 41.2371C119.978 41.4797 120.351 41.7223 120.351 42.0861C120.351 42.45 120.351 42.2984 119.829 42.7532C119.307 43.208 119.829 43.1777 119.829 43.4506V45.1183C119.829 45.6337 119.381 46.0886 119.829 46.5737C120.277 47.0588 120.351 47.3924 119.829 47.544C119.572 47.6185 119.343 47.9342 119.122 48.0846C119.088 48.1076 119.051 48.1298 119.008 48.1504C118.635 48.3323 118.934 48.5143 119.008 48.6659C119.083 48.8175 119.157 48.9994 119.381 49.1813C119.86 49.5704 120.574 49.8484 120.468 50.4562C120.45 50.5612 120.413 50.647 120.351 50.6974C120.053 50.94 120.65 50.849 120.65 51.1219C120.65 51.3948 120.65 51.5767 121.321 51.9709C121.993 52.3651 121.321 52.3044 121.694 52.6077C122.067 52.9109 121.694 53.0625 122.291 53.487C122.888 53.9115 122.366 53.8812 122.291 54.0328C122.105 54.4117 121.726 54.6838 121.666 55.102C121.62 55.4279 121.519 55.7481 121.321 55.8824C120.874 56.1856 121.321 56.3372 121.321 56.8527C121.321 56.9845 121.252 57.107 121.151 57.1911C121.02 57.2999 120.84 57.47 120.65 57.7017C120.426 57.9139 120.277 57.8229 119.829 57.9442C119.381 58.0655 119.307 58.1565 118.561 58.4597C118.203 58.6048 118.069 58.611 118.082 58.5448C118.166 58.14 118.777 58.175 118.561 57.8229C118.501 57.7259 118.187 57.8633 118.038 57.9442C117.914 58.0149 117.277 58.3141 115.725 58.9448C114.084 59.4906 115.725 59.1874 115.725 59.339C115.725 59.4906 115.427 59.6422 115.725 59.8241C116.024 60.0061 115.427 60.3093 115.427 60.6125C115.427 60.8551 115.128 60.9561 114.979 60.9763L114.457 61.0976L114.365 61.1316C113.83 61.331 113.267 61.4444 112.727 61.6288C112.644 61.6571 112.591 61.6833 112.591 61.7041C112.591 61.795 111.025 61.9466 109.308 62.4318C107.936 62.8199 107.941 62.7754 108.115 62.7046C108.413 62.5834 107.279 62.923 107.219 63.0685Z" fill="#8F8781"/>
<path d="M69.2411 94.1176C69.2411 94.3856 69.0239 94.6028 68.756 94.6028H66.8535C66.3279 94.5699 65.8835 94.9874 65.8835 95.514V97.3563C65.8835 98.8164 67.0672 100 68.5273 100H251.55C251.658 100 251.745 99.9127 251.745 99.805C251.745 99.7221 251.693 99.6487 251.616 99.6181C251.153 99.4343 250.343 99.0109 249.67 98.3627C249.341 98.0454 248.999 97.7386 248.623 97.4773C248.275 97.2347 247.779 96.853 246.948 96.153C245.87 95.2446 244.711 94.4393 243.472 93.7678C243.445 93.7535 243.418 93.7387 243.389 93.7235C242.216 93.1068 241.809 92.8011 238.865 90.5304C238.352 90.1343 237.774 89.8259 237.241 89.4563C236.753 89.1179 236.959 89.0151 235.853 88.2959C234.36 87.3257 235.48 87.9018 234.808 87.3863C234.136 86.8708 231.525 84.9606 231.077 84.2025C230.715 83.5885 230.646 83.631 229.641 82.6379C229.054 82.0572 228.018 81.6325 228.018 80.8065C228.018 80.2911 228.167 80.1092 228.018 79.8059C227.869 79.5027 227.123 79.1692 223.467 76.6525C221.676 75.5003 222.87 76.2583 222.198 75.8338C221.527 75.4093 221.303 75.288 220.035 74.4997C218.766 73.7113 218.915 74.1662 218.915 73.3778V72.5591C218.915 72.2559 213.916 71.0734 213.916 70.376C213.916 69.6786 213.991 69.436 213.916 69.0418C213.842 68.6477 212.648 68.6173 211.902 68.1019C211.156 67.5864 210.633 67.7077 210.111 67.2832C209.589 66.8587 209.216 66.7677 204.664 65.1304C204.391 65.0511 202.677 64.9196 202.395 64.8851C202.111 64.8504 201.814 64.8272 201.53 64.8272H196.233C195.83 64.8272 193.627 65.3168 192.082 65.6762C191.577 65.7936 191.049 65.7632 190.562 65.5852C190.065 65.4336 188.16 65.0697 184.519 64.8272C183.461 64.8272 182.429 65.1912 181.609 65.8581C181.236 66.1613 180.713 66.7677 180.191 67.2832C179.854 67.616 179.138 67.879 178.639 68.0212C178.432 68.0801 178.217 68.1019 178.003 68.1019C177.297 68.1019 176.618 67.842 176.074 67.3939C176.029 67.3571 175.984 67.3201 175.938 67.2832C175.416 66.8587 175.192 66.3736 173.924 65.1304C172.909 64.1358 173.501 64.5138 173.924 64.8272L172.804 63.9175L171.595 62.958C171.359 62.7708 171.088 62.6319 170.798 62.5495C170.595 62.4915 170.384 62.4621 170.172 62.4621H169.991C169.581 62.4621 169.175 62.5322 168.789 62.6694L168.775 62.6743C168.427 62.8158 167.552 63.2626 166.835 63.9175C165.94 64.7362 166.462 64.3723 165.865 65.1304C165.268 65.8884 164.672 65.9491 163.851 66.7677C163.03 67.5864 162.955 67.3438 162.582 67.7077C162.209 68.0716 159.299 68.3748 156.539 69.0418C153.778 69.7089 152.211 69.6483 150.943 69.7089C149.674 69.7696 148.928 70.0121 148.331 70.0424C147.734 70.0728 140.273 71.8011 134.155 71.8011H130.051C127.813 71.8011 126.096 71.9527 125.201 72.2559C124.907 72.3556 123.938 72.4576 123.654 72.5849C123.439 72.6813 123.238 72.7805 123.112 72.8623C122.739 73.1049 120.053 74.0146 119.456 74.3481C118.859 74.6816 118.262 75.3487 117.516 75.8035C116.77 76.2583 114.83 78.0473 114.308 78.866C113.785 79.6847 111.621 79.8363 111.398 80.5033C111.174 81.1704 110.502 81.5949 110.055 81.8981C109.607 82.2013 109.831 83.0807 108.861 84.1116C107.891 85.1425 107.742 84.9606 107.294 85.476C106.846 85.9915 106.548 86.2038 106.324 86.6586C106.1 87.1134 105.802 87.5379 105.279 88.1443C104.757 88.7508 103.936 89.1752 103.414 89.9333C102.892 90.6914 102.295 90.6003 101.773 90.9642C101.499 91.1547 100.98 91.1764 100.647 91.1764H94.3112C93.1174 91.1764 92.4459 90.6003 91.4013 90.2971C91.0215 90.1869 90.6416 90.1568 90.2582 90.1092C88.7678 89.9243 87.4516 89.3537 86.0291 88.872C85.1338 88.5688 83.6415 88.872 82.97 88.872H80.9034C80.7893 88.872 80.6758 88.8871 80.5658 88.9169L80.1388 89.0326C79.8281 89.1168 79.6124 89.3987 79.6124 89.7206C79.6124 90.0569 79.3774 90.3474 79.0486 90.4177L78.5056 90.5338C78.301 90.5776 78.1087 90.6667 77.9431 90.7946L77.7201 90.9668C77.5441 91.1027 77.328 91.1764 77.1056 91.1764C76.8921 91.1764 76.6843 91.2442 76.5122 91.3705C76.0898 91.6804 75.4722 92.1352 75.1356 92.3893C74.7178 92.7046 74.0661 92.9654 73.7925 93.0564L72.8495 93.4396C72.5361 93.567 72.2009 93.6325 71.8626 93.6325H69.7263C69.4583 93.6325 69.2411 93.8497 69.2411 94.1176Z" fill="#8F8781"/>
<path d="M67.8323 95.1486C67.7774 95.1486 67.7232 95.1362 67.6737 95.1125L67.1954 94.8828C67.0927 94.8334 67.0972 94.6857 67.2028 94.6428C67.2185 94.6364 67.2352 94.6332 67.2521 94.6329C67.4352 94.6307 67.7843 94.6044 67.8981 94.5119C68.1361 94.3185 68.4795 94.5388 68.7851 94.5649C68.9552 94.5794 69.1445 94.5484 69.3157 94.4209C69.7634 94.0873 69.2411 94.2389 69.3157 94.1783C69.3904 94.1177 69.3904 94.0267 69.5396 93.8145C69.678 93.6175 69.8165 93.6816 73.4721 93.3043C74.0808 93.2415 74.823 93.3087 75.0997 92.763C75.1175 92.7279 75.1505 92.6853 75.2102 92.6319C75.5833 92.2984 75.5086 92.3287 75.8071 91.9042C76.1056 91.4797 76.1802 91.6313 76.7025 91.3584C77.2248 91.0855 76.1802 91.1159 76.7025 90.9339C77.2248 90.752 77.0755 90.7217 77.6724 90.4791C78.2693 90.2365 78.4186 90.2365 78.6424 90.2062C78.8662 90.1759 78.8662 89.9333 79.2393 89.6908C79.3502 89.6186 79.5237 89.2621 79.6382 89.1958C79.8456 89.0754 80.1006 88.9211 80.3585 88.7508C80.9021 88.3918 80.8888 88.7117 80.8821 88.7489C80.9211 88.7204 81.8632 88.7185 82.4477 88.6294C83.0446 88.5385 82.8208 88.6294 83.2684 88.6294C83.7161 88.6294 83.5669 88.7507 85.3576 88.9327H86.4022C87.0737 88.9327 87.0737 89.0843 87.4468 89.1449C87.8198 89.2056 87.4468 89.2965 87.4468 89.4178C87.4468 89.5391 87.7452 89.812 88.2675 89.812C88.7898 89.812 88.2675 90.0849 88.4914 90.2365C88.7152 90.388 88.2675 90.4791 87.7452 90.6004C87.2229 90.7217 86.7753 90.4791 86.4022 90.2062C86.0291 89.9333 86.3276 90.0849 86.4022 89.812C86.4768 89.5391 86.0291 89.6907 85.3576 89.812C84.6861 89.9333 84.9845 90.0849 85.3576 90.2062C85.7307 90.3275 85.7307 90.4488 85.7307 90.6004C85.7307 90.7116 85.9315 90.8228 85.5964 90.8023C85.2416 90.7806 84.8924 90.6004 84.5369 90.6004C84.3912 90.6004 84.0323 90.687 82.1418 90.1273C82.048 90.0995 81.9561 90.0616 81.8685 90.0181C81.8419 90.0049 81.8168 89.9926 81.7932 89.9814C81.2356 89.7157 80.9714 90.6028 81.5523 90.8126C81.8508 90.9036 81.5523 90.9642 82 91.3584C82.4477 91.7526 82.4477 91.51 81.2539 91.7526C80.0601 91.8739 80.8808 91.8132 80.8808 91.9042C80.8808 91.9952 80.3585 91.9952 80.3585 92.2074V92.9654C80.3585 93.3245 80.1451 93.2497 79.357 93.6583C79.0266 93.8297 78.7268 94.0302 78.4186 94.2389C78.1947 94.3906 78.6424 94.4209 78.6424 94.6331C78.6424 94.8454 78.4932 94.8757 78.6424 94.997C78.7916 95.1182 79.0155 95.2699 80.0601 95.5124C80.8808 95.6034 81.2539 95.6034 82.4477 95.7247C82.6212 95.7247 82.7163 95.7247 82.8111 95.707C83.3404 95.6084 83.8078 95.2782 84.3423 95.2135C84.6576 95.1754 85.1008 95.1486 85.7307 95.1486C87.3722 95.1486 86.5514 95.1486 89.3867 95.7247C90.0582 95.8763 89.3867 95.8763 90.8044 95.8763C91.4013 95.8763 91.3267 95.8763 91.849 96.0279C92.3713 96.1795 92.2966 96.0279 93.192 96.1189H94.6096C95.1319 96.1189 94.9827 96.0279 95.2066 96.1189C95.4285 96.2091 95.4304 96.2694 96.3757 96.4182C96.3917 96.4207 96.4491 96.4224 96.4654 96.4228C96.6748 96.4277 96.8653 96.6705 97.0525 96.7644C97.1183 96.7973 97.1937 96.8325 97.2795 96.8693C97.3392 96.8949 97.4037 96.9072 97.4686 96.9072H98.2657C98.5642 96.9072 99.0118 96.9982 99.3103 96.9982C99.5498 96.9982 99.7335 97.2562 99.938 97.3808L100.056 97.453C100.206 97.544 100.355 97.7259 100.355 98.0594C100.355 98.393 100.28 98.302 100.355 98.393C100.429 98.4839 100.429 98.6659 100.504 98.8478C100.568 99.0048 100.411 99.094 99.5038 98.9403C99.193 98.8877 98.9309 98.6633 98.6388 98.5446C98.3403 98.4233 98.6388 98.3323 98.6388 97.6349C98.6388 97.4728 98.533 97.3292 98.3755 97.2905C98.1528 97.2357 97.8709 97.1801 97.6688 97.1801C97.2957 97.1801 97.3703 97.3621 97.3703 97.7259C97.3703 97.9044 97.2156 98.0443 97.0415 98.005C96.7954 97.9495 96.5296 97.8542 96.4332 97.7097C96.4029 97.6643 96.4004 97.6074 96.4004 97.5528C96.4004 97.4866 96.4106 97.4209 96.4223 97.3557C96.4376 97.2705 96.4424 97.1801 96.4004 97.1801C96.3258 97.1801 95.7289 96.9072 95.4304 96.9982C95.1847 97.0731 95.2424 97.2713 94.8958 97.0852C94.7692 97.0172 94.7618 96.7482 94.6262 96.7004C94.614 96.6961 94.6033 96.6945 94.5905 96.6933C94.4504 96.6806 94.0948 96.6358 93.6397 96.5434C93.0428 96.4221 92.8935 96.6647 92.2966 96.5434C91.6997 96.4221 91.7743 96.4221 91.3267 96.2705C91.2733 96.2524 91.2199 96.2378 91.1668 96.2264C90.5765 96.0996 89.9785 96.787 89.3867 96.9072C88.939 96.9982 89.1629 96.695 89.0136 96.5434C88.8685 96.3959 89.0764 96.3632 88.3321 95.9148C88.2896 95.8892 88.1491 95.8478 88.1004 95.8381C87.8274 95.7839 87.5519 95.9831 87.2853 96.0634C86.9504 96.1641 86.5169 96.2289 86.0879 96.1406C85.8455 96.0908 85.6346 95.9094 85.3874 95.9221C85.1006 95.9368 84.5489 96.0279 83.2684 96.0279C83.0868 96.0279 82.9706 96.0457 82.8979 96.08C82.506 96.2647 82.9937 96.8451 83.2684 97.1801C83.4923 97.453 84.3876 97.5137 84.6861 97.7259C84.8945 97.8741 84.7391 98.1255 84.597 98.2744C84.5745 98.2979 84.5369 98.2813 84.5369 98.2488C84.5369 98.228 84.52 98.2111 84.4991 98.2107C84.2927 98.2068 83.7711 98.173 83.0446 98.0594C82.0746 97.9078 82.4477 98.1201 82 98.2111C81.5523 98.302 81.2539 98.4839 81.5523 98.5446C81.8508 98.6052 82.4477 98.6659 83.0446 98.8478C83.6415 99.0297 82.7461 99.1207 82.4477 99.1207C82.1492 99.1207 81.5523 99.1813 81.2539 99.1207C80.9554 99.06 81.1046 98.8781 80.8808 98.6659C80.7317 98.5245 80.5496 98.5176 80.5988 98.2602C80.6832 97.8184 81.5523 98.0847 81.5523 97.6349C81.5523 97.5864 82.1492 97.4934 82.4477 97.453C82.2985 97.453 82 97.4348 82 97.3621C82 97.2711 82.2985 97.1801 82 96.9072C81.9567 96.8676 81.9243 96.8344 81.8996 96.8065C81.7225 96.6071 81.5741 96.7212 81.3077 96.7344C80.817 96.7586 80.0933 96.3796 79.6046 96.3286C79.4604 96.3135 79.3272 96.2973 79.2393 96.2705C78.9996 96.1974 78.2787 96.183 77.3857 96.0232C76.9285 95.9413 76.5768 95.6632 76.1802 95.4215C75.8817 95.2395 76.1802 95.1486 76.1802 94.997C76.1802 94.863 76.0715 94.7536 75.9384 94.7383C75.8017 94.7227 75.6327 94.6941 75.4499 94.6465C75.0884 94.5524 74.7868 94.1431 74.4169 94.0911C74.4079 94.0899 74.3988 94.0886 74.3895 94.0873C74.275 94.0718 73.9132 94.181 73.7988 94.1971C73.4133 94.2513 72.8797 94.3334 72.4495 94.4209C71.7034 94.5725 71.778 94.5421 71.6288 94.6331C71.4795 94.7241 70.5842 94.8757 70.1365 94.997C70.1142 95.003 70.0925 95.0089 70.0715 95.0145C69.7192 95.1091 69.3558 95.1486 68.9909 95.1486H67.8323Z" fill="#B7AEA6"/>
<path d="M117.644 96.311C117.577 96.2064 117.702 96.0634 117.81 96.0027C118.02 95.8848 117.923 95.6383 117.716 95.5143C117.642 95.4694 117.591 95.4259 117.591 95.3912C117.591 95.2699 117.591 95.1486 116.844 94.906C116.713 94.8705 116.658 94.834 116.648 94.7999C116.606 94.6544 116.844 94.5582 116.844 94.4067V94.3545C116.844 94.2999 116.866 94.2475 116.904 94.2086C117.039 94.0717 116.936 93.8779 116.76 93.9546C116.55 94.046 116.331 94.1884 116.172 94.4014C116.12 94.4709 116.095 94.558 116.107 94.6442C116.124 94.7737 116.156 94.8417 116.098 95.1486C116.024 95.5427 115.128 95.5125 114.755 95.5125C114.382 95.5125 113.86 95.3912 114.308 95.0273C114.755 94.6635 114.308 94.7544 115.128 94.2693C115.459 94.0814 115.321 93.846 114.302 93.1002C114.011 92.8877 113.549 92.8739 113.412 92.541C113.338 92.359 113.338 92.2984 113.86 91.9042C114.382 91.51 113.934 91.7223 114.308 91.4797C114.592 91.2947 114.923 91.2001 115.246 91.0933C115.396 91.0435 115.545 90.9877 115.651 90.9339C116.143 90.6839 116.755 90.8881 117.307 90.9133C117.399 90.9176 117.495 90.9242 117.591 90.9339C118.187 90.9946 118.187 91.0855 118.187 91.2371C118.187 91.3887 118.561 91.4191 118.561 91.7223C118.561 92.0255 118.561 91.9952 119.157 92.2984C119.754 92.6016 119.157 92.5713 119.157 92.9351C119.157 93.299 118.561 93.3293 118.561 93.5416C118.561 93.7538 118.187 93.8145 118.187 93.9964C118.187 94.1783 117.591 94.148 117.292 94.2693C116.994 94.3906 118.187 94.8151 118.187 94.906C118.187 94.997 118.561 95.1488 119.157 95.3912C119.541 95.5469 119.062 95.959 118.773 96.255C118.704 96.3262 118.631 96.3861 118.561 96.4221C118.488 96.4587 118.428 96.4853 118.378 96.5041C118.256 96.5502 118.119 96.5494 117.992 96.5209C117.86 96.4912 117.719 96.4285 117.644 96.311Z" fill="#B7AEA6"/>
<path d="M116.844 90.6004C118.561 90.6004 118.187 90.6004 118.561 90.3881C118.759 90.2669 119.187 89.994 119.307 89.8727C119.505 89.6711 119.162 89.3175 119.297 89.0689C119.3 89.064 119.303 89.059 119.307 89.054C119.416 88.8989 119.724 88.5173 120.406 87.6254C121.003 86.8436 121.321 85.884 121.321 84.9C121.321 84.6271 121.172 84.6877 121.321 84.5361C121.47 84.3845 121.545 84.3239 122.142 84.0206C122.739 83.7174 123.261 83.7781 124.977 83.5658C126.693 83.3536 126.022 83.5658 127.514 83.7781C128.708 83.9479 128.36 83.8488 128.036 83.7781C128.509 83.8589 129.663 84.0813 130.499 84.3239C131.543 84.6271 130.499 84.5361 129.827 84.6877C129.699 84.7166 129.058 85.0828 128.969 85.1795C128.861 85.2972 128.783 85.4545 128.783 85.658C128.783 85.8399 129.678 85.749 131.767 85.1729C132.852 84.8724 132.796 84.8498 133.129 84.9915C133.522 85.1594 133.507 85.3149 133.11 85.4761C132.737 85.6277 132.737 85.9612 132.439 86.1735C132.14 86.3857 133.483 86.416 134.155 86.7193C134.826 87.0225 134.901 86.9921 135.572 87.356C136.244 87.7199 136.318 87.6895 138.93 87.356C141.541 87.0225 139.601 87.2044 140.273 86.9921C140.945 86.7799 141.019 86.8405 141.467 86.416C141.914 85.9915 141.616 86.1735 141.467 85.8703C141.318 85.567 140.198 85.4761 139.601 85.0516C139.005 84.6271 139.154 84.9 138.109 84.0206C137.828 83.7917 137.45 83.479 137.501 83.1197C137.505 83.0969 137.508 83.0737 137.512 83.0504C137.587 82.6259 137.363 82.8381 137.139 82.3833C136.915 81.9285 136.617 82.262 135.572 81.7465C134.901 81.413 134.229 81.5646 133.483 81.322C132.737 81.0795 132.886 81.1098 132.439 80.8975C131.888 80.6365 131.232 80.9275 130.622 80.9361C130.238 80.9416 129.814 80.9341 129.454 80.8975C128.559 80.8066 129.454 80.6246 129.454 80.2608C129.454 80.1544 129.38 80.0622 129.277 80.0388L128.865 79.9458C128.81 79.9335 128.754 79.9273 128.698 79.9273H126.022C125.784 79.9273 125.715 80.3656 125.491 80.4438C125.337 80.4976 125.161 80.5592 124.977 80.6246C124.38 80.8369 124.306 81.2311 124.007 81.322C123.709 81.413 123.112 81.504 122.739 81.5646C122.444 81.6125 122.467 81.9609 122.472 82.2593C122.474 82.3915 122.388 82.5155 122.142 82.5955C121.396 82.8381 120.724 83.2626 120.575 83.3233C120.48 83.3621 119.9 83.4552 119.456 83.522C119.257 83.5518 119.062 83.5997 118.873 83.6669C118.665 83.7408 118.45 83.7912 118.232 83.8203C117.346 83.9382 115.966 84.153 115.651 84.3239C115.203 84.5664 115.651 84.6574 115.128 84.9C114.606 85.1425 113.86 85.1729 113.412 85.3245C113.054 85.4457 112.915 85.4761 112.89 85.4761C112.392 85.5468 111.293 85.7247 110.875 85.8703C110.353 86.0522 110.428 86.1128 109.682 86.416C109.187 86.6172 109.312 87.0969 108.791 87.2163C108.609 87.258 108.389 87.3046 108.115 87.356C107.145 87.5379 108.562 88.205 109.085 88.296C109.273 88.3287 109.542 88.0977 109.715 88.0179L110.302 87.7474C110.361 87.7204 110.428 87.7632 110.428 87.8278C110.428 87.8367 110.426 87.8453 110.424 87.8538C110.4 87.943 110.371 88.1489 110.428 88.3566C110.502 88.6295 110.428 88.7508 110.875 88.9327C111.323 89.1145 111.547 89.2966 111.92 89.4178C112.293 89.539 112.368 89.9333 112.89 90.2062C113.412 90.4791 113.412 90.3881 113.86 90.3881C114.308 90.3881 114.308 90.6004 116.844 90.6004Z" fill="#B7AEA6"/>
<path d="M121.945 85.7348C122.045 85.8422 122.142 85.9641 122.142 86.1103C122.142 86.3891 122.436 86.5697 122.685 86.4435L122.739 86.416C122.842 86.3489 123.154 86.0214 123.667 85.2323C123.896 84.8803 123.931 84.3806 123.514 84.4344C123.392 84.4502 123.267 84.4829 123.166 84.5171C123.13 84.5292 123.093 84.5361 123.055 84.5361C122.88 84.5361 122.736 84.6824 122.659 84.8394C122.577 85.0086 122.42 85.1971 122.142 85.3245C121.826 85.4691 121.841 85.6218 121.945 85.7348Z" fill="#B7AEA6"/>
<path d="M142.138 94.7089C141.996 94.5836 141.914 94.4032 141.914 94.2136V93.5938C141.914 93.5934 141.914 93.593 141.914 93.5926C141.91 93.5834 141.914 93.5838 141.914 93.5938C141.938 93.6446 142.046 93.6702 142.362 93.5416C142.686 93.4099 143.449 93.282 143.602 93.2311C143.591 93.2254 143.595 93.2086 143.608 93.2098C143.64 93.213 143.635 93.2203 143.602 93.2311C143.985 93.4213 144.227 93.812 144.227 94.2396V94.5119C144.227 95.7247 144.899 95.2395 144.227 96.1189C143.556 96.9982 143.631 96.7859 142.884 97.3621C142.288 97.8229 141.989 98.2414 141.914 98.393L141.804 98.5647C141.586 98.9046 141.257 99.1586 140.873 99.2835L140.785 99.312C140.742 99.3259 140.701 99.3438 140.661 99.3652L140.392 99.5108C140.319 99.5507 140.273 99.6277 140.273 99.7113C140.273 99.8373 140.171 99.9394 140.045 99.9394H139.13C138.998 99.9394 138.865 99.9188 138.745 99.8631C138.536 99.7663 138.317 99.6254 138.408 99.5149C138.527 99.3693 138.806 99.1712 138.93 99.0904L139.593 98.5513C139.599 98.5468 139.605 98.5431 139.611 98.5402L139.641 98.5266C139.726 98.4884 140.64 97.9234 140.721 97.8775C141.032 97.7006 141.086 97.4064 141.032 97.1165C140.94 96.6241 140.22 96.1189 140.721 96.1189C141.467 96.1189 141.467 95.9369 141.914 95.7247C142.142 95.6169 142.261 95.3975 142.318 95.2C142.37 95.0177 142.281 94.8342 142.138 94.7089Z" fill="#B7AEA6"/>
<path d="M136.617 96.0279C137.041 96.2435 136.151 96.7182 135.845 97.0823C135.693 97.2626 135.572 97.4172 135.572 97.453C135.572 97.7042 135.198 97.8217 135.071 98.0389C135.003 98.1573 134.9 98.2823 134.752 98.393C134.304 98.7265 134.752 98.8478 134.752 99.0904C134.752 99.3068 134.276 99.3301 132.955 99.3326C132.67 99.3332 132.538 99.1603 132.784 99.0163C132.959 98.9139 133.099 98.7089 133.188 98.5268C133.244 98.4116 133.337 98.3009 133.483 98.2414C133.856 98.0898 133.483 97.8775 134.155 97.6349C134.826 97.3924 134.752 97.6349 134.752 97.1801C134.752 96.9072 134.155 96.9072 134.752 96.4221C134.871 96.3251 135.1 96.1189 135.199 96.0279C135.324 95.9268 135.572 95.6823 135.572 95.5125C135.572 95.4575 135.624 95.4307 135.703 95.422C136.071 95.3814 136.287 95.8605 136.617 96.0279Z" fill="#B7AEA6"/>
<path d="M147.063 94.7847C146.925 94.71 146.839 94.5657 146.839 94.4089V93.9964C146.839 93.7679 146.858 93.4858 146.971 93.3039C147.242 92.8694 147.884 93.3372 148.29 93.6502C149.28 94.4154 149.227 94.803 149.227 94.906C149.227 95.0273 149.003 94.7544 149.525 95.2396C149.897 95.5848 149.745 95.8596 149.584 95.9873C149.887 95.8365 150.219 96.1673 150.547 96.2475C151.849 96.5656 152.75 96.6644 152.883 96.9072C152.943 97.0184 153.007 97.1553 153.061 97.2802C153.134 97.4499 153.296 97.5195 153.445 97.6287C153.564 97.7159 153.47 97.9198 153.337 97.9835C152.776 98.2522 152.455 98.3605 152.249 98.381C151.966 98.409 151.838 98.0761 151.838 97.7913C151.838 97.5726 151.756 97.3632 151.563 97.26C150.898 96.9044 149.491 96.5001 150.868 96.9072L148.704 96.1189L147.164 95.3928C147.06 95.3438 147.079 95.1908 147.191 95.168C147.247 95.1567 147.287 95.1078 147.287 95.0511V95.0083C147.287 94.9453 147.252 94.8873 147.197 94.8573L147.063 94.7847Z" fill="#B7AEA6"/>
<path d="M163.556 89.793C163.559 89.8461 163.552 89.8994 163.552 89.9526V90.5504C163.552 90.7622 163.724 90.9339 163.936 90.9339C163.978 90.9339 164.02 90.9269 164.061 90.9131L164.795 90.6607C164.911 90.6208 165.033 90.6004 165.155 90.6004C165.465 90.6004 165.761 90.4709 165.971 90.2432L166.313 89.8727C166.65 89.5794 167.081 89.4178 167.528 89.4178H171.088C172.619 89.4178 172.156 89.4178 171.159 88.1162C171.113 88.0559 170.901 87.9503 170.829 87.9271C170.545 87.8362 170.25 88.1104 169.956 88.1643C169.623 88.2256 169.158 88.295 168.551 88.3566H168.358C167.806 88.3566 167.358 87.9086 167.358 87.356C166.985 87.356 165.985 87.4227 164.97 87.6895C163.954 87.9567 164.183 87.8931 163.125 88.4181C162.507 88.7253 162.339 89.4178 163.03 89.4178C163.434 89.4178 163.546 89.6344 163.556 89.793Z" fill="#B7AEA6"/>
<path d="M166.835 91.4797C166.835 91.1337 167.457 91.5192 167.756 91.6943C167.772 91.7036 167.788 91.713 167.805 91.7223C167.929 91.7892 168.052 92.1214 168.157 92.2142L168.253 92.2984C168.352 92.3792 168.551 92.5895 168.551 92.7835C168.551 93.0261 169.074 93.208 169.671 93.9964C170.268 94.7847 169.671 94.2693 169.671 94.5119C169.671 94.7544 169.671 94.906 170.566 95.2396C171.161 95.4611 170.328 95.9677 169.852 96.388C169.785 96.4478 169.723 96.5012 169.671 96.5434C169.523 96.6632 169.52 96.8277 169.562 96.9669C169.609 97.1195 169.734 97.2298 169.86 97.3278C170.306 97.6747 170.709 98.1921 171.186 98.4945C171.356 98.6026 171.569 98.721 171.834 98.8478C173.103 99.4542 171.685 99.0904 171.088 99.333C170.611 99.527 170.541 99.5755 170.566 99.5755H169.074C168.828 99.5755 168.592 99.4996 168.428 99.4258C168.315 99.3751 168.253 99.2583 168.253 99.1347C168.253 99.1053 168.257 99.076 168.263 99.0475C168.366 98.6284 168.551 97.8224 168.551 97.6349C168.551 97.3924 168.551 97.3621 168.253 97.0285C168.089 96.8455 167.721 96.2998 167.77 96.0592C167.782 96.0048 167.791 95.9488 167.797 95.8915C167.807 95.7893 167.748 95.6945 167.657 95.6469C167.218 95.4173 167.267 95.4574 167.358 95.5125C166.88 95.2629 167.07 94.7023 167.295 94.2127C167.334 94.129 167.358 94.0537 167.358 93.9964C167.358 93.7452 167.15 93.5416 166.899 93.5416C166.857 93.5416 166.815 93.5361 166.775 93.5241C166.362 93.4007 165.641 93.1068 165.641 92.7835C165.641 92.359 166.015 92.1468 166.313 91.9042C166.611 91.6616 166.835 91.7223 166.835 91.4797Z" fill="#B7AEA6"/>
<path d="M198.244 97.0346C198.492 97.1865 199.075 97.3534 199.345 97.4607C200.246 97.8196 199.317 98.8746 198.919 99.0904C198.446 99.3734 199.292 99.9394 206.455 99.9394C207.873 99.9394 208.619 99.9394 208.619 97.3621C208.619 97.2918 208.589 97.2135 208.491 97.1442C206.747 95.906 203.762 98.3149 202.053 97.0285C201.605 96.604 201.381 96.1189 200.486 95.7247C200.186 95.5926 199.736 95.5659 199.263 95.5927C198.146 95.6562 197.291 96.4493 198.244 97.0346Z" fill="#B7AEA6"/>
<path d="M24.4689 81.0571C24.2172 81.0571 24.0132 80.8531 24.0132 80.6014L22.9225 79.131C22.6613 78.7789 22.2772 78.5381 21.8465 78.4564L20.7279 78.2443C20.5534 78.2112 20.4271 78.0587 20.4271 77.8811C20.4271 77.7061 20.3045 77.5551 20.1332 77.5193L19.6925 77.4271C19.4684 77.3802 19.3079 77.1826 19.3079 76.9537C19.3079 76.7337 19.1594 76.5414 18.9466 76.4858L18.6643 76.4121C18.4281 76.3504 18.2634 76.137 18.2634 75.8929C18.2634 75.6835 18.1415 75.4931 17.9512 75.4055L17.2768 75.0949C17.1885 75.0543 17.1039 75.0061 17.0239 74.951L15.7846 74.097C15.5475 73.9336 15.328 73.7462 15.1294 73.5377L14.8257 73.2189C14.6324 73.016 14.3996 72.8548 14.1417 72.7452L13.115 72.309C12.9793 72.2514 12.8912 72.1182 12.8912 71.9707C12.8912 71.795 12.7667 71.6438 12.5942 71.61L11.447 71.3856C11.1157 71.3207 10.8766 71.0304 10.8766 70.6928C10.8766 70.39 10.6835 70.1209 10.3965 70.024L10.0164 69.8957C9.77244 69.8133 9.60821 69.5845 9.60821 69.3271C9.60821 68.9956 9.33953 68.727 9.00809 68.727H8.80152C8.4641 68.727 8.19056 68.4534 8.19056 68.116C8.19056 67.8942 8.07041 67.6898 7.87629 67.5825C7.36179 67.2982 6.64247 66.9047 6.39984 66.7864C6.23298 66.705 5.85625 66.582 5.47823 66.4681C4.97308 66.3158 4.53979 65.8247 4.01221 65.8247C3.65407 65.8247 2.86814 65.2327 2.51995 64.9368L2.18824 64.7121C1.81499 64.4593 1.40286 64.2694 0.968202 64.1498L0.846123 64.1162C0.570475 64.0404 0.285886 64.002 0 64.002V100H105.271C105.481 100 105.539 99.7059 105.354 99.6058C105.13 99.4845 103.489 98.5446 103.116 98.2414C102.916 98.0794 101.993 97.7704 101.097 97.4807C100.972 97.4403 100.848 97.4002 100.726 97.361L100.717 97.3581C100.08 97.1533 99.5138 96.9714 99.3103 96.8769C98.9158 96.6937 97.4147 96.5278 96.5429 96.4314C96.2604 96.4002 96.044 96.3763 95.9527 96.3614C95.819 96.3397 95.3873 96.2906 94.8516 96.2297C93.893 96.1207 92.5992 95.9735 92.0728 95.8763C91.6598 95.8 90.6046 95.6623 89.5819 95.5289C88.5721 95.3971 87.5941 95.2695 87.2975 95.2092C87.1845 95.1862 86.9964 95.1513 86.7628 95.1079C85.7633 94.9221 83.9298 94.5814 83.5669 94.3602C83.3421 94.2232 82.3458 94.025 81.3434 93.8255C80.3497 93.6278 79.3501 93.429 79.0901 93.2873C77.8155 92.5929 76.2318 93.2235 74.8913 93.7801L74.7641 93.8329C73.9214 94.1828 73.0347 94.4157 72.1289 94.5252L70.7509 94.6916C68.9337 94.9112 67.0911 94.6278 65.4239 93.8723L65.1558 93.7508L64.6364 93.4921C64.3693 93.3591 64.1517 93.144 64.0155 92.8784C63.9083 92.6693 63.75 92.4905 63.5554 92.3587L63.5276 92.3398C63.3004 92.186 63.1188 91.9738 63.0019 91.7256L62.9871 91.6941C62.6984 91.0815 62.0657 90.7064 61.3896 90.7471L59.875 90.8383C59.3456 90.8701 58.8152 90.7936 58.3164 90.6133L57.8304 90.4376C57.6989 90.3901 57.5602 90.3658 57.4204 90.3658C57.2432 90.3658 57.0683 90.4048 56.9079 90.48L55.3698 91.2017C55.1725 91.2943 54.9573 91.3422 54.7394 91.3422C54.64 91.3422 54.541 91.3323 54.4436 91.3125L53.0704 91.0333C52.3784 90.8926 51.7061 90.6685 51.0681 90.3658L49.6845 89.7282C49.014 89.4192 48.2844 89.2592 47.5461 89.2592L44.6542 89.3898C43.7054 89.4327 42.7554 89.3402 41.8327 89.1151L41.6229 89.0639L39.5417 88.3478L34.579 85.8742L32.4707 84.5882C32.174 84.4073 31.9312 84.1503 31.7674 83.8439C31.4287 83.2103 30.7686 82.8147 30.0501 82.8147H29.8893C29.708 82.8147 29.5273 82.7924 29.3514 82.7484L25.8046 81.8609C25.5789 81.8044 25.3823 81.6662 25.2527 81.473L25.1598 81.3346C25.0435 81.1611 24.8484 81.0571 24.6396 81.0571H24.4689Z" fill="#999999"/>
<path d="M2.32756 3.78827C1.95527 3.78827 1.58841 3.87758 1.25777 4.04869C0.485146 4.44854 0 5.24588 0 6.11583V33.2589C0 33.4485 0.153707 33.6022 0.343314 33.6022C0.431245 33.6022 0.515824 33.6359 0.579613 33.6965L0.733797 33.8427C0.880426 33.9819 1.07065 34.066 1.27222 34.0809L2.7215 34.1881L3.33501 34.2878C3.44277 34.3054 3.52194 34.3984 3.52194 34.5076C3.52194 34.6219 3.60842 34.7176 3.72209 34.7292L4.16229 34.7739L4.95414 34.9119C5.14419 34.945 5.2829 35.11 5.2829 35.3029C5.2829 35.4884 5.41125 35.649 5.59175 35.6918C5.70873 35.7196 5.83717 35.7507 5.96971 35.7837C6.57108 35.9336 6.75128 36.6308 6.37868 37.1261C6.05201 37.5603 5.78735 37.9693 5.59317 38.2989C5.37806 38.6641 5.33811 39.0994 5.43931 39.511L5.54197 39.9284C5.58162 40.0896 5.67278 40.2336 5.80161 40.3383L5.82137 40.3544C5.98712 40.4892 6.08334 40.6915 6.08334 40.9051C6.08334 41.1765 5.92782 41.4245 5.68396 41.5435C5.43907 41.663 5.2829 41.912 5.2829 42.1845V42.6649C5.2829 43.1816 5.0138 43.6609 4.57272 43.9299L4.23812 44.134C3.89274 44.3447 3.68202 44.72 3.68202 45.1246V45.5596C3.68202 45.7686 3.55541 45.9568 3.36181 46.0355C3.25797 46.0777 3.17079 46.1528 3.11357 46.2492L2.45631 47.3564C2.20837 47.7741 1.88481 48.1419 1.50217 48.4411C0.55405 49.1825 0 50.3191 0 51.5227V64.002C0.285886 64.002 0.570475 64.0404 0.846123 64.1162L0.968202 64.1498C1.40286 64.2694 1.81499 64.4593 2.18824 64.7121L2.51995 64.9368C2.86814 65.2327 3.65407 65.8247 4.01221 65.8247C4.53979 65.8247 4.97308 66.3158 5.47823 66.4681C5.85625 66.582 6.23298 66.705 6.39984 66.7864C6.64247 66.9047 7.36179 67.2982 7.87629 67.5825C8.07041 67.6898 8.19056 67.8942 8.19056 68.116C8.19056 68.4534 8.4641 68.727 8.80152 68.727H9.00809C9.33953 68.727 9.60821 68.9956 9.60821 69.3271C9.60821 69.5845 9.77244 69.8133 10.0164 69.8957L10.3965 70.024C10.6835 70.1209 10.8766 70.39 10.8766 70.6928C10.8766 71.0304 11.1157 71.3207 11.447 71.3856L12.5942 71.61C12.7667 71.6438 12.8912 71.795 12.8912 71.9707C12.8912 72.1182 12.9793 72.2514 13.115 72.309L14.1417 72.7452C14.3996 72.8548 14.6324 73.016 14.8257 73.2189L15.1294 73.5377C15.328 73.7462 15.5475 73.9336 15.7846 74.097L17.0239 74.951C17.1039 75.0061 17.1885 75.0543 17.2768 75.0949L17.9512 75.4055C18.1415 75.4931 18.2634 75.6835 18.2634 75.8929C18.2634 76.137 18.4281 76.3504 18.6643 76.4121L18.9466 76.4858C19.1594 76.5414 19.3079 76.7337 19.3079 76.9537C19.3079 77.1826 19.4684 77.3802 19.6925 77.4271L20.1332 77.5193C20.3045 77.5551 20.4271 77.7061 20.4271 77.8811C20.4271 78.0587 20.5534 78.2112 20.7279 78.2443L21.8465 78.4564C22.2772 78.5381 22.6613 78.7789 22.9225 79.131L24.0132 80.6014C24.5577 80.6014 25.0828 80.3583 25.5395 80.0271C26.6033 79.2555 27.4483 78.1947 28.5237 77.4393L28.6558 77.3466C29.1894 76.9561 30.5448 76.0968 31.6974 75.7843C31.7347 75.7742 31.7722 75.7638 31.8098 75.753C33.686 75.2165 34.7391 73.3267 34.7391 71.3752C34.7391 70.5923 34.9137 69.8193 35.2502 69.1124L35.404 68.7892C35.6006 68.3762 35.8381 67.9839 36.1128 67.6182L36.8113 66.6887C37.2429 66.1143 37.6113 65.4952 37.9102 64.8419L38.7413 63.0255L39.1073 62.2813C39.5019 61.4792 39.7871 60.6277 39.9553 59.7498L41.4442 51.9804C41.563 51.3601 41.6229 50.73 41.6229 50.0984V43.2364L41.1426 39.591V39.2424C41.1426 38.9487 40.9458 38.6914 40.6624 38.6146L40.3995 38.5433C40.2712 38.5085 40.1821 38.3921 40.1821 38.2591C40.1821 38.1564 40.2356 38.0612 40.3232 38.0077L40.6624 37.8009C40.9606 37.6189 41.1426 37.2948 41.1426 36.9454V36.1409L40.3067 28.7765C40.2241 28.049 40.0282 27.3388 39.7261 26.6718L39.5998 26.3931C39.2455 25.6111 38.7187 24.9195 38.059 24.3701L36.8178 23.3367C36.12 22.7557 35.141 22.6209 34.2588 22.4057C29.2641 21.5725 27.802 19.4547 27.6952 18.4999V17.4888C27.6952 17.0482 27.4 16.6623 26.9748 16.5471C26.5496 16.4318 26.2544 16.0433 26.2544 15.6028C26.2544 15.2606 26.0762 14.9411 25.784 14.7629L24.6342 14.0616C24.4474 13.9477 24.3334 13.7446 24.3334 13.5258C24.3334 13.3368 24.2483 13.158 24.1017 13.0388L24.0932 13.0319C23.9413 12.9083 23.8531 12.7229 23.8531 12.5271V12.1914C23.8531 11.5745 23.4367 11.0353 22.8398 10.8792L22.2364 10.7215C21.8685 10.6253 21.6119 10.293 21.6119 9.91279C21.6119 9.52746 21.3485 9.19206 20.9741 9.10073L19.745 8.80085C19.4313 8.72432 19.2106 8.44326 19.2106 8.12037C19.2106 7.89372 19.1009 7.68108 18.9162 7.54968L17.5297 6.563C17.3698 6.44923 17.2185 6.32384 17.077 6.18786L17.0171 6.13029C16.062 5.21232 14.7887 4.69962 13.4639 4.69962H12.9353C11.9072 4.69962 10.8971 4.43029 10.0055 3.91846L9.47814 3.61573C8.93209 3.30226 8.31344 3.13731 7.68381 3.13731H7.43394C7.28129 3.13731 7.12932 3.11708 6.98199 3.07714L5.22323 2.60037C5.01128 2.54291 4.80264 2.70252 4.80264 2.92212C4.80264 3.05312 4.72591 3.17198 4.60653 3.22592L3.72235 3.62539C3.48474 3.73275 3.22699 3.78827 2.96625 3.78827H2.32756Z" fill="#8F8781"/>
<path d="M10.381 48.4635C10.2356 48.8348 9.90981 49.1055 9.51815 49.1804L1.48911 50.7159C0.716326 50.8636 0 50.2713 0 49.4845C0 49.2723 0.522293 49.0601 0.746133 48.7568C0.868528 48.591 1.27675 48.3874 1.64202 48.2332C1.9069 48.1214 2.08917 47.8671 2.08917 47.5796C2.08917 47.3663 2.19163 47.1677 2.34863 47.0233C2.67326 46.7248 3.05914 46.2698 3.05914 45.8763C3.05914 45.2395 3.13376 45.4821 3.05914 45.2699C3.00353 45.1117 3.36244 44.7513 3.91958 44.2139C4.32441 43.8235 4.55141 43.2853 4.55141 42.7229C4.55141 42.4904 4.71556 41.9467 5.37216 41.6313C5.82018 41.4162 5.37216 40.8134 5.37216 40.3164V40.2972C5.37216 39.8727 5.596 39.9636 5.37216 39.5088C5.14832 39.054 5.0737 39.0236 4.55141 38.6901C4.21091 38.4727 4.74564 38.284 5.11581 38.1222C5.81385 37.817 6.64058 37.3983 6.64058 37.1741C6.64058 36.626 6.91688 36.1068 7.42141 35.8927C7.74752 35.7543 8.12848 35.626 8.50591 35.567C9.28189 35.4457 11.0179 35.3346 11.7889 35.2941C12.5102 35.2638 14.0571 35.2214 14.475 35.2941C15.0738 35.3984 14.9955 36.4864 15.5659 36.6965L16.1482 36.911C16.5774 37.069 16.8626 37.478 16.8626 37.9354C16.8626 38.2065 16.9634 38.4678 17.1455 38.6687L17.4631 39.019C17.7534 39.3392 18.1273 39.572 18.5431 39.6897C19.2808 39.8985 20.2505 40.1699 20.7425 40.2972C21.5632 40.5094 19.9217 40.5701 19.9217 40.7217C19.9217 40.8037 19.6261 40.9458 19.3346 41.0636C19.1676 41.1311 19.1266 41.3543 19.2642 41.4705C19.4453 41.6234 19.3072 41.9217 19.0731 41.8851C18.2856 41.762 17.3256 41.6313 16.8626 41.6313H15.5696C14.9832 41.6313 14.603 42.1507 14.475 42.7229C14.4004 43.0564 12.3858 43.9054 11.7889 44.0267C11.6843 44.048 11.5396 44.089 11.3712 44.1427C10.4513 44.4358 10.2556 45.6256 10.9812 46.2625L11.0735 46.3436C11.1996 46.4543 11.3547 46.5265 11.5206 46.5518L13.9672 46.9246C14.4061 46.9915 14.4301 47.6151 13.9977 47.7155C13.9678 47.7224 13.9372 47.7259 13.9065 47.7259H11.4618C10.984 47.7259 10.5551 48.0186 10.381 48.4635Z" fill="#C6BFB4"/>
<defs>
<linearGradient id="paint0_linear_1702_16563" x1="164" y1="0" x2="164" y2="58.9448" gradientUnits="userSpaceOnUse">
<stop stop-color="#568CDC"/>
<stop offset="1" stop-color="#D2EFFF"/>
</linearGradient>
</defs>
</svg>
