<svg width="321" height="105" viewBox="0 0 321 105" fill="none" xmlns="http://www.w3.org/2000/svg">
<g opacity="0.2">
<rect x="377.698" y="-364" width="352.665" height="532.894" transform="rotate(45.1347 377.698 -364)" fill="#E85D5D"/>
<rect x="383.165" y="-358.506" width="27.1281" height="532.894" transform="rotate(45.1347 383.165 -358.506)" fill="black"/>
<rect x="496.52" y="-244.617" width="26.3183" height="532.894" transform="rotate(45.1347 496.52 -244.617)" fill="black"/>
<rect x="600.49" y="-140.157" width="26.3183" height="532.894" transform="rotate(45.1347 600.49 -140.157)" fill="black"/>
<line y1="-0.05" x2="532.894" y2="-0.05" transform="matrix(-0.707618 0.706596 -0.705797 -0.708414 410.505 -331.038)" stroke="black" stroke-width="0.1"/>
<line y1="-0.05" x2="532.894" y2="-0.05" transform="matrix(-0.710144 0.704056 -0.705017 -0.70919 437.844 -303.57)" stroke="black" stroke-width="0.1"/>
<rect x="418.543" y="-322.962" width="15.791" height="532.894" transform="rotate(45.1347 418.543 -322.962)" fill="black"/>
<path d="M462.448 -278.85L84.7508 97.0768" stroke="black" stroke-width="0.1"/>
<rect x="444.535" y="-296.847" width="15.791" height="532.894" transform="rotate(45.1347 444.535 -296.847)" fill="black"/>
<path d="M489.787 -251.382L111.533 123.985" stroke="black" stroke-width="0.1"/>
<rect x="470.529" y="-270.731" width="15.791" height="532.894" transform="rotate(45.1347 470.529 -270.731)" fill="black"/>
<line x1="541.114" y1="-199.813" x2="163.417" y2="176.113" stroke="black" stroke-width="0.1"/>
<rect x="522.513" y="-218.502" width="15.791" height="532.894" transform="rotate(45.1347 522.513 -218.502)" fill="black"/>
<line x1="567.108" y1="-173.698" x2="189.41" y2="202.229" stroke="black" stroke-width="0.1"/>
<rect x="548.506" y="-192.387" width="15.791" height="532.894" transform="rotate(45.1347 548.506 -192.387)" fill="black"/>
<line x1="593.099" y1="-147.583" x2="215.402" y2="228.343" stroke="black" stroke-width="0.1"/>
<rect x="574.499" y="-166.272" width="15.791" height="532.894" transform="rotate(45.1347 574.499 -166.272)" fill="black"/>
<path d="M384.376 -354.244L385.119 -341.313L398.046 -340.51M373.715 -343.633L374.458 -330.703L387.385 -329.899M349.348 -319.38L350.091 -306.449L363.017 -305.646M338.687 -308.769L339.43 -295.838L352.356 -295.035M314.319 -284.515L315.062 -271.585L327.989 -270.781M303.658 -273.905L304.401 -260.974L317.328 -260.171M279.291 -249.651L280.034 -236.721L292.96 -235.917M268.63 -239.04L269.373 -226.11L282.3 -225.306M244.263 -214.787L245.005 -201.857L257.932 -201.053M233.602 -204.176L234.345 -191.246L247.271 -190.442M209.234 -179.923L209.977 -166.993L222.904 -166.189M198.573 -169.312L199.316 -156.382L212.243 -155.578M174.206 -145.059L174.949 -132.128L187.875 -131.325M163.545 -134.448L164.288 -121.518L177.214 -120.714M139.177 -110.195L139.92 -97.2643L152.847 -96.4607M128.517 -99.5838L129.259 -86.6535L142.186 -85.8498M104.149 -75.3306L104.892 -62.4003L117.818 -61.5966M93.488 -64.7197L94.2309 -51.7894L107.158 -50.9858M69.1205 -40.4664L69.8633 -27.5361L82.79 -26.7325M58.4596 -29.8556L59.2025 -16.9253L72.1292 -16.1217M34.0921 -5.60227L34.8349 7.32803L47.7616 8.13166M23.4312 5.00856L24.1741 17.9389L37.1008 18.7425M497.833 -240.252L498.576 -227.322L511.503 -226.518M487.172 -229.641L487.915 -216.711L500.842 -215.907M462.805 -205.388L463.548 -192.458L476.474 -191.654M452.144 -194.777L452.887 -181.847L465.813 -181.043M427.776 -170.524L428.519 -157.593L441.446 -156.79M417.115 -159.913L417.858 -146.983L430.785 -146.179M392.748 -135.66L393.491 -122.729L406.417 -121.926M382.087 -125.049L382.83 -112.119L395.757 -111.315M357.72 -100.795L358.462 -87.8651L371.389 -87.0615M347.059 -90.1846L347.802 -77.2543L360.728 -76.4507M322.691 -65.9313L323.434 -53.001L336.361 -52.1974M312.03 -55.3205L312.773 -42.3902L325.7 -41.5865M287.663 -31.0671L288.406 -18.1368L301.332 -17.3332M277.002 -20.4563L277.745 -7.52602L290.671 -6.72238M252.634 3.797L253.377 16.7273L266.304 17.5309M241.974 14.4078L242.716 27.3381L255.643 28.1418M217.606 38.661L218.349 51.5913L231.275 52.395M206.945 49.2719L207.688 62.2022L220.615 63.0058M182.577 73.5252L183.32 86.4555L196.247 87.2591M171.917 84.136L172.66 97.0663L185.586 97.8699M147.549 108.389L148.292 121.32L161.219 122.123M136.888 119L137.631 131.93L150.558 132.734M601.721 -135.874L602.464 -122.944L615.391 -122.14M591.061 -125.264L591.803 -112.333L604.73 -111.53M566.693 -101.01L567.436 -88.0799L580.362 -87.2763M556.032 -90.3994L556.775 -77.4691L569.702 -76.6654M531.665 -66.146L532.407 -53.2157L545.334 -52.4121M521.004 -55.5352L521.747 -42.6049L534.673 -41.8013M496.636 -31.2819L497.379 -18.3516L510.306 -17.548M485.975 -20.6711L486.718 -7.74078L499.645 -6.93714M461.608 3.5823L462.351 16.5126L475.277 17.3162M450.947 14.1931L451.69 27.1234L464.617 27.9271M426.579 38.4464L427.322 51.3767L440.249 52.1804M415.919 49.0573L416.661 61.9876L429.588 62.7912M391.551 73.3106L392.294 86.2409L405.221 87.0445M380.89 83.9214L381.633 96.8517L394.56 97.6554M356.523 108.175L357.266 121.105L370.192 121.909M345.862 118.786L346.605 131.716L359.531 132.519M321.494 143.039L322.237 155.969L335.164 156.773M310.833 153.65L311.576 166.58L324.503 167.384M286.466 177.903L287.209 190.833L300.135 191.637M275.805 188.514L276.548 201.444L289.474 202.248M251.437 212.767L252.18 225.697L265.107 226.501M240.777 223.378L241.519 236.308L254.446 237.112M360.008 -329.99L371.412 -327.671L373.678 -316.256L362.274 -318.576L360.008 -329.99ZM324.98 -295.126L336.384 -292.807L338.65 -281.392L327.246 -283.712L324.98 -295.126ZM289.952 -260.262L301.355 -257.943L303.621 -246.528L292.218 -248.848L289.952 -260.262ZM254.923 -225.398L266.327 -223.078L268.593 -211.664L257.189 -213.983L254.923 -225.398ZM219.895 -190.534L231.299 -188.214L233.564 -176.8L222.161 -179.119L219.895 -190.534ZM184.867 -155.67L196.27 -153.35L198.536 -141.936L187.132 -144.255L184.867 -155.67ZM149.838 -120.805L161.242 -118.486L163.508 -107.071L152.104 -109.391L149.838 -120.805ZM114.81 -85.9413L126.213 -83.6218L128.479 -72.2074L117.076 -74.5268L114.81 -85.9413ZM79.7813 -51.0772L91.185 -48.7578L93.4508 -37.3433L82.0471 -39.6628L79.7813 -51.0772ZM44.7529 -16.2131L56.1566 -13.8936L58.4224 -2.47918L47.0187 -4.79864L44.7529 -16.2131ZM473.466 -215.999L484.869 -213.679L487.135 -202.265L475.731 -204.584L473.466 -215.999ZM438.437 -181.135L449.841 -178.815L452.107 -167.401L440.703 -169.72L438.437 -181.135ZM403.409 -146.27L414.812 -143.951L417.078 -132.537L405.675 -134.856L403.409 -146.27ZM368.38 -111.406L379.784 -109.087L382.05 -97.6724L370.646 -99.9919L368.38 -111.406ZM333.352 -76.5421L344.756 -74.2227L347.022 -62.8082L335.618 -65.1277L333.352 -76.5421ZM298.324 -41.678L309.727 -39.3585L311.993 -27.9441L300.589 -30.2635L298.324 -41.678ZM263.295 -6.81382L274.699 -4.49436L276.965 6.9201L265.561 4.60064L263.295 -6.81382ZM228.267 28.0503L239.67 30.3698L241.936 41.7842L230.533 39.4648L228.267 28.0503ZM193.238 62.9143L204.642 65.2338L206.908 76.6483L195.504 74.3288L193.238 62.9143ZM158.21 97.7785L169.614 100.098L171.879 111.512L160.476 109.193L158.21 97.7785ZM577.354 -111.621L588.757 -109.302L591.023 -97.8871L579.62 -100.207L577.354 -111.621ZM542.325 -76.7569L553.729 -74.4374L555.995 -63.023L544.591 -65.3424L542.325 -76.7569ZM507.297 -41.8927L518.701 -39.5733L520.967 -28.1588L509.563 -30.4783L507.297 -41.8927ZM472.269 -7.02858L483.672 -4.70912L485.938 6.70534L474.534 4.38588L472.269 -7.02858ZM437.24 27.8356L448.644 30.1551L450.91 41.5695L439.506 39.2501L437.24 27.8356ZM402.212 62.6998L413.616 65.0192L415.881 76.4337L404.478 74.1142L402.212 62.6998ZM367.183 97.5639L378.587 99.8834L380.853 111.298L369.449 108.978L367.183 97.5639ZM332.155 132.428L343.559 134.748L345.825 146.162L334.421 143.843L332.155 132.428ZM297.127 167.292L308.53 169.612L310.796 181.026L299.392 178.707L297.127 167.292ZM262.098 202.156L273.502 204.476L275.768 215.89L264.364 213.571L262.098 202.156Z" stroke="#F2FFF5" stroke-width="0.2"/>
</g>
</svg>
