<svg width="229" height="241" viewBox="0 0 229 241" fill="none" xmlns="http://www.w3.org/2000/svg">
<path d="M48.8057 239.5C50.2336 240.333 53.7558 241.7 56.4213 240.5C58.0776 239.754 58.3493 238.069 58.1274 236.5C57.9921 235.544 57.6736 234.631 57.3732 234C57.2072 233.651 55.0898 226.729 51.8446 216C39.579 175.447 11.2037 80.5 11.2037 80.5C5.10571 76.2905 2.06894 71.612 0.786089 67.4455L48.8057 239.5Z" fill="#AC592E"/>
<path d="M225.392 61.5C222.575 65.9397 217.904 70.7444 210.637 74.8338C201.191 112.278 184.867 179.527 178.685 213C176.768 223.38 175.826 230.512 176.367 232.5C176.843 236 180.651 236 183.031 235C186.362 196 217.777 82 225.392 61.5Z" fill="#AC592E"/>
<path d="M11.2037 64.5C9.73327 64.0366 8.51127 63.4912 7.5 62.8983C3.27373 60.4206 2.72805 57.1138 3.11212 55.5C1.66996 54.591 -1.17056 59.7412 0.522202 66.5L0.786089 67.4455C2.06894 71.612 5.10571 76.2905 11.2037 80.5C27.8628 92 152.092 87 179.223 84C192.97 82.4799 203.173 79.0342 210.637 74.8338C217.904 70.7444 222.575 65.9397 225.392 61.5C230.723 55.5 228.09 52.8333 225.392 48.5L221.946 51.75L218.5 55C217.618 55.7273 217.617 55.7273 217.404 55.7213C217.031 55.7107 216.011 55.682 208.5 59.5C203.589 62.2252 193.5 65.7912 179.223 65.5718C178.512 65.6467 177.791 65.7198 177.063 65.7912C139.342 69.488 78.5824 68.6148 41.8858 66.9336C41.2437 66.9042 40.609 66.8746 39.9819 66.8447C24.3642 66.1003 13.4723 65.2149 11.2037 64.5Z" fill="#AC592E"/>
<path d="M57.3732 234C57.6736 234.631 57.9921 235.544 58.1274 236.5L176.367 232.5C175.826 230.512 176.768 223.38 178.685 213C168.735 214.2 89.9791 215.5 51.8446 216C55.0898 226.729 57.2072 233.651 57.3732 234Z" fill="#702E0C"/>
<path d="M179.223 84C152.092 87 27.8628 92 11.2037 80.5C11.2037 80.5 39.579 175.447 51.8446 216C89.9791 215.5 168.735 214.2 178.685 213C184.867 179.527 201.191 112.278 210.637 74.8338C203.173 79.0342 192.97 82.4799 179.223 84Z" fill="#E89B64"/>
<path d="M187.314 0L181.822 0.0912843L181.535 4.06072L177.063 65.7912C177.791 65.7198 178.512 65.6467 179.223 65.5718L188.474 9.06737L189.549 2.5L187.314 0Z" fill="#883E18"/>
<path d="M36.9063 2.5L34.9934 5.5L35.4895 11.601L39.9819 66.8447C40.609 66.8746 41.2437 66.9042 41.8858 66.9336L40.115 6.95669L39.9819 2.44888L36.9063 2.5Z" fill="#883E18"/>
<path d="M11.2037 64.5C13.4723 65.2149 24.3642 66.1003 39.9819 66.8447L35.4895 11.601L7.5 62.8983C8.51127 63.4912 9.73327 64.0366 11.2037 64.5Z" fill="#702E0C"/>
<path d="M41.8858 66.9336C78.5824 68.6148 139.342 69.488 177.063 65.7912L181.535 4.06072L40.115 6.95669L41.8858 66.9336Z" fill="#702E0C"/>
<path d="M179.223 65.5718C193.5 65.7912 203.589 62.2252 208.5 59.5C216.011 55.682 217.031 55.7107 217.404 55.7213C217.617 55.7273 217.618 55.7273 218.5 55L221.946 51.75L188.474 9.06737L179.223 65.5718Z" fill="#702E0C"/>
<path d="M34.9934 5.5L3.11212 55.5C2.72805 57.1138 3.27373 60.4206 7.5 62.8983L35.4895 11.601L34.9934 5.5Z" fill="#AC592E"/>
<path d="M181.822 0.0912843L39.9819 2.44888L40.115 6.95669L181.535 4.06072L181.822 0.0912843Z" fill="#AC592E"/>
<path d="M225.392 48.5L189.549 2.5L188.474 9.06737L221.946 51.75L225.392 48.5Z" fill="#AC592E"/>
<path d="M19.0389 91C24.3018 91.8765 29.5293 92.9801 34.8726 92.9801" stroke="#702E0C" stroke-width="2" stroke-linecap="round"/>
<path d="M43.9144 93.8818C50.6643 94.8433 57.4749 94.6739 64.272 94.6739" stroke="#702E0C" stroke-width="2" stroke-linecap="round"/>
<path d="M77.8436 95.0703C84.6367 95.3448 91.407 95.4663 98.2012 95.4663" stroke="#702E0C" stroke-width="2" stroke-linecap="round"/>
<path d="M109.134 95.0703C116.15 95.4914 123.241 95.8062 130.246 95.0703" stroke="#702E0C" stroke-width="2" stroke-linecap="round"/>
<path d="M141.818 94.4609C145.987 95.122 150.197 95.013 154.402 95.013C156.662 95.013 158.859 95.0929 161.059 94.4609C162.628 94.0101 164.186 94.0385 165.731 93.6328" stroke="#702E0C" stroke-width="2" stroke-linecap="round"/>
<path d="M176.575 92.4866C181.544 92.4476 186.329 91.8058 191.111 90.3409C191.933 90.0888 192.688 89.761 193.52 89.5917C195.84 89.1202 197.809 88.4857 199.918 87.3779" stroke="#702E0C" stroke-width="2" stroke-linecap="round"/>
<path d="M24.7507 106C29.8134 106.885 34.8419 108 39.9819 108" stroke="#702E0C" stroke-width="2" stroke-linecap="round"/>
<path d="M49.5013 109C55.8141 109 62.1835 109 68.5403 109" stroke="#702E0C" stroke-width="2" stroke-linecap="round"/>
<path d="M80.9158 110C87.5865 110 94.2348 110 100.907 110" stroke="#702E0C" stroke-width="2" stroke-linecap="round"/>
<path d="M112.33 110C118.973 110 125.688 110 132.321 110" stroke="#702E0C" stroke-width="2" stroke-linecap="round"/>
<path d="M143.744 109.194C147.728 110.147 151.75 109.99 155.768 109.99C157.927 109.99 160.026 110.106 162.128 109.194C163.627 108.544 165.115 108.585 166.591 108" stroke="#702E0C" stroke-width="2" stroke-linecap="round"/>
<path d="M177.063 107C181.926 106.962 186.61 106.334 191.289 104.9C192.094 104.653 192.832 104.332 193.648 104.167C195.918 103.705 197.845 103.084 199.909 102" stroke="#702E0C" stroke-width="2" stroke-linecap="round"/>
<path d="M23 99C28.0626 99.8853 33.0912 101 38.2312 101" stroke="#702E0C" stroke-width="2" stroke-linecap="round"/>
<path d="M47.7507 102C54.0634 102 60.4329 102 66.7897 102" stroke="#702E0C" stroke-width="2" stroke-linecap="round"/>
<path d="M79.165 103C85.8358 103 92.4841 103 99.156 103" stroke="#702E0C" stroke-width="2" stroke-linecap="round"/>
<path d="M110.579 103C117.223 103 123.937 103 130.57 103" stroke="#702E0C" stroke-width="2" stroke-linecap="round"/>
<path d="M141.994 102.194C145.977 103.147 149.999 102.99 154.017 102.99C156.177 102.99 158.275 103.106 160.377 102.194C161.876 101.544 163.365 101.585 164.84 101" stroke="#702E0C" stroke-width="2" stroke-linecap="round"/>
<path d="M175.312 100C180.176 99.9619 184.859 99.3337 189.538 97.9C190.344 97.6533 191.082 97.3324 191.897 97.1667C194.167 96.7052 196.095 96.0842 198.159 95" stroke="#702E0C" stroke-width="2" stroke-linecap="round"/>
<path d="M26.6545 117C31.4008 117.885 36.115 119 40.9338 119" stroke="#702E0C" stroke-width="2" stroke-linecap="round"/>
<path d="M50.4534 120C56.4504 120 62.5014 120 68.5404 120" stroke="#702E0C" stroke-width="2" stroke-linecap="round"/>
<path d="M80.9158 121C87.2688 121 93.6006 121 99.9548 121" stroke="#702E0C" stroke-width="2" stroke-linecap="round"/>
<path d="M111.378 121C117.705 121 124.1 121 130.417 121" stroke="#702E0C" stroke-width="2" stroke-linecap="round"/>
<path d="M141.841 120.194C145.658 121.147 149.512 120.99 153.363 120.99C155.433 120.99 157.444 121.106 159.458 120.194C160.895 119.544 162.321 119.585 163.735 119" stroke="#702E0C" stroke-width="2" stroke-linecap="round"/>
<path d="M174.207 118C178.868 117.962 183.356 117.334 187.84 115.9C188.612 115.653 189.32 115.332 190.101 115.167C192.276 114.705 194.123 114.084 196.102 113" stroke="#702E0C" stroke-width="2" stroke-linecap="round"/>
<path d="M33 133C37.4298 133.885 41.8298 135 46.3273 135" stroke="#702E0C" stroke-width="2" stroke-linecap="round"/>
<path d="M54.895 136C60.2608 136 65.6748 136 71.0782 136" stroke="#702E0C" stroke-width="2" stroke-linecap="round"/>
<path d="M82.5015 137C88.5369 137 94.5521 137 100.589 137" stroke="#702E0C" stroke-width="2" stroke-linecap="round"/>
<path d="M110.108 137C116.119 137 122.194 137 128.195 137" stroke="#702E0C" stroke-width="2" stroke-linecap="round"/>
<path d="M138.667 136.194C142.152 137.147 145.671 136.99 149.187 136.99C151.077 136.99 152.913 137.106 154.752 136.194C156.064 135.544 157.366 135.585 158.657 135" stroke="#702E0C" stroke-width="2" stroke-linecap="round"/>
<path d="M168.177 134C172.433 133.962 176.531 133.334 180.625 131.9C181.33 131.653 181.976 131.332 182.689 131.167C184.675 130.705 186.362 130.084 188.168 129" stroke="#702E0C" stroke-width="2" stroke-linecap="round"/>
<path d="M30 125C34.6534 125.885 39.2755 127 44 127" stroke="#702E0C" stroke-width="2" stroke-linecap="round"/>
<path d="M53 128C58.6366 128 64.3239 128 70 128" stroke="#702E0C" stroke-width="2" stroke-linecap="round"/>
<path d="M82 129C88.3401 129 94.6589 129 101 129" stroke="#702E0C" stroke-width="2" stroke-linecap="round"/>
<path d="M111 129C117.646 129 124.364 129 131 129" stroke="#702E0C" stroke-width="2" stroke-linecap="round"/>
<path d="M142 128.194C145.661 129.147 149.358 128.99 153.051 128.99C155.037 128.99 156.966 129.106 158.897 128.194C160.275 127.544 161.644 127.585 163 127" stroke="#702E0C" stroke-width="2" stroke-linecap="round"/>
<path d="M173 126C177.47 125.962 181.775 125.334 186.076 123.9C186.817 123.653 187.495 123.332 188.244 123.167C190.331 122.705 192.103 122.084 194 121" stroke="#702E0C" stroke-width="2" stroke-linecap="round"/>
<path d="M37.1261 141C41.2395 141.885 45.3252 143 49.5014 143" stroke="#702E0C" stroke-width="2" stroke-linecap="round"/>
<path d="M58.069 144C63.1191 144 68.2147 144 73.3002 144" stroke="#702E0C" stroke-width="2" stroke-linecap="round"/>
<path d="M83.7716 145C89.807 145 95.8222 145 101.859 145" stroke="#702E0C" stroke-width="2" stroke-linecap="round"/>
<path d="M110.426 145C116.12 145 121.876 145 127.561 145" stroke="#702E0C" stroke-width="2" stroke-linecap="round"/>
<path d="M138.033 144.194C141.352 145.147 144.704 144.99 148.052 144.99C149.852 144.99 151.601 145.106 153.352 144.194C154.602 143.544 155.842 143.585 157.072 143" stroke="#702E0C" stroke-width="2" stroke-linecap="round"/>
<path d="M165.639 142C169.692 141.962 173.595 141.334 177.495 139.9C178.166 139.653 178.781 139.332 179.46 139.167C181.352 138.705 182.958 138.084 184.678 137" stroke="#702E0C" stroke-width="2" stroke-linecap="round"/>
<path d="M39.9819 153C43.7789 153.885 47.5503 155 51.4053 155" stroke="#702E0C" stroke-width="2" stroke-linecap="round"/>
<path d="M62.8287 156C67.8789 156 72.9744 156 78.0599 156" stroke="#702E0C" stroke-width="2" stroke-linecap="round"/>
<path d="M87.5793 157C93.2971 157 98.9957 157 104.714 157" stroke="#702E0C" stroke-width="2" stroke-linecap="round"/>
<path d="M113.282 157C118.66 157 124.095 157 129.465 157" stroke="#702E0C" stroke-width="2" stroke-linecap="round"/>
<path d="M139.937 156.194C143.09 157.147 146.274 156.99 149.455 156.99C151.165 156.99 152.826 157.106 154.49 156.194C155.677 155.544 156.855 155.585 158.024 155" stroke="#702E0C" stroke-width="2" stroke-linecap="round"/>
<path d="M166.591 154C170.442 153.962 174.149 153.334 177.854 151.9C178.491 151.653 179.076 151.332 179.721 151.167C181.518 150.705 183.044 150.084 184.678 149" stroke="#702E0C" stroke-width="2" stroke-linecap="round"/>
<path d="M40.9338 165C44.7308 165.885 48.5022 167 52.3572 167" stroke="#702E0C" stroke-width="2" stroke-linecap="round"/>
<path d="M64.7325 168C69.7827 168 74.8783 168 79.9637 168" stroke="#702E0C" stroke-width="2" stroke-linecap="round"/>
<path d="M88.5314 169C93.9315 169 99.3135 169 104.715 169" stroke="#702E0C" stroke-width="2" stroke-linecap="round"/>
<path d="M113.282 169C118.344 169 123.459 169 128.513 169" stroke="#702E0C" stroke-width="2" stroke-linecap="round"/>
<path d="M138.985 168.194C141.972 169.147 144.989 168.99 148.002 168.99C149.622 168.99 151.196 169.106 152.772 168.194C153.897 167.544 155.013 167.585 156.12 167" stroke="#702E0C" stroke-width="2" stroke-linecap="round"/>
<path d="M164.687 166C168.335 165.962 171.847 165.334 175.357 163.9C175.961 163.653 176.515 163.332 177.126 163.167C178.828 162.705 180.274 162.084 181.822 161" stroke="#702E0C" stroke-width="2" stroke-linecap="round"/>
<path d="M44.7417 177C48.5387 177.885 52.3101 179 56.1651 179" stroke="#702E0C" stroke-width="2" stroke-linecap="round"/>
<path d="M67.5884 180C72.6385 180 77.7341 180 82.8196 180" stroke="#702E0C" stroke-width="2" stroke-linecap="round"/>
<path d="M91.3872 181C96.7873 181 102.169 181 107.57 181" stroke="#702E0C" stroke-width="2" stroke-linecap="round"/>
<path d="M116.138 181C121.199 181 126.315 181 131.369 181" stroke="#702E0C" stroke-width="2" stroke-linecap="round"/>
<path d="M141.841 180.194C144.828 181.147 147.845 180.99 150.858 180.99C152.478 180.99 154.052 181.106 155.628 180.194C156.753 179.544 157.869 179.585 158.976 179" stroke="#702E0C" stroke-width="2" stroke-linecap="round"/>
<path d="M167.543 178C171.191 177.962 174.703 177.334 178.213 175.9C178.817 175.653 179.371 175.332 179.982 175.167C181.684 174.705 183.13 174.084 184.678 173" stroke="#702E0C" stroke-width="2" stroke-linecap="round"/>
<path d="M47.5975 189C51.3945 189.885 55.1659 191 59.0209 191" stroke="#702E0C" stroke-width="2" stroke-linecap="round"/>
<path d="M65.6846 192C70.7347 192 75.8303 192 80.9158 192" stroke="#702E0C" stroke-width="2" stroke-linecap="round"/>
<path d="M89.4833 193C94.5657 193 99.6311 193 104.714 193" stroke="#702E0C" stroke-width="2" stroke-linecap="round"/>
<path d="M113.282 193C118.344 193 123.459 193 128.513 193" stroke="#702E0C" stroke-width="2" stroke-linecap="round"/>
<path d="M138.033 192.194C141.02 193.147 144.037 192.99 147.05 192.99C148.67 192.99 150.244 193.106 151.82 192.194C152.945 191.544 154.061 191.585 155.168 191" stroke="#702E0C" stroke-width="2" stroke-linecap="round"/>
<path d="M163.735 190C167.18 189.962 170.498 189.334 173.812 187.9C174.383 187.653 174.906 187.332 175.483 187.167C177.091 186.705 178.456 186.084 179.918 185" stroke="#702E0C" stroke-width="2" stroke-linecap="round"/>
<path d="M51 199C54.797 199.885 58.5684 201 62.4234 201" stroke="#702E0C" stroke-width="2" stroke-linecap="round"/>
<path d="M68.135 202C73.1852 202 78.2807 202 83.3662 202" stroke="#702E0C" stroke-width="2" stroke-linecap="round"/>
<path d="M91.9338 203C96.6986 203 101.447 203 106.213 203" stroke="#702E0C" stroke-width="2" stroke-linecap="round"/>
<path d="M114.781 203C119.842 203 124.958 203 130.012 203" stroke="#702E0C" stroke-width="2" stroke-linecap="round"/>
<path d="M138.579 202.194C141.567 203.147 144.583 202.99 147.597 202.99C149.217 202.99 150.791 203.106 152.367 202.194C153.491 201.544 154.608 201.585 155.714 201" stroke="#702E0C" stroke-width="2" stroke-linecap="round"/>
<path d="M163.33 200C166.775 199.962 170.093 199.334 173.407 197.9C173.977 197.653 174.5 197.332 175.078 197.167C176.686 196.705 178.051 196.084 179.513 195" stroke="#702E0C" stroke-width="2" stroke-linecap="round"/>
<path d="M54 208C57.4806 208.885 60.9377 210 64.4714 210" stroke="#702E0C" stroke-width="2" stroke-linecap="round"/>
<path d="M71 211C75.7345 211 80.5116 211 85.2792 211" stroke="#702E0C" stroke-width="2" stroke-linecap="round"/>
<path d="M94 211C98.4471 211 102.879 211 107.327 211" stroke="#702E0C" stroke-width="2" stroke-linecap="round"/>
<path d="M116 211C120.745 211 125.541 211 130.279 211" stroke="#702E0C" stroke-width="2" stroke-linecap="round"/>
<path d="M139 210.194C141.821 211.147 144.671 210.99 147.516 210.99C149.046 210.99 150.533 211.106 152.022 210.194C153.084 209.544 154.138 209.585 155.183 209" stroke="#702E0C" stroke-width="2" stroke-linecap="round"/>
<path d="M161.831 210C165.074 209.962 168.196 209.334 171.316 207.9C171.853 207.653 172.345 207.332 172.888 207.167C174.401 206.705 175.687 206.084 177.063 205" stroke="#702E0C" stroke-width="2" stroke-linecap="round"/>
</svg>
