<svg width="25" height="25" viewBox="0 0 25 25" fill="none" xmlns="http://www.w3.org/2000/svg">
<path d="M0 12.5C0 5.59644 5.59644 0 12.5 0V0C19.4036 0 25 5.59644 25 12.5V12.5C25 19.4036 19.4036 25 12.5 25V25C5.59644 25 0 19.4036 0 12.5V12.5Z" fill="#4CA7FC"/>
<path fill-rule="evenodd" clip-rule="evenodd" d="M7.8125 10.9375L6.25 12.5L10.9375 17.1875L18.75 9.375L17.1875 7.8125L10.9375 14.0625L7.8125 10.9375Z" fill="white"/>
<path d="M12.5 23C6.70101 23 2 18.299 2 12.5H-2C-2 20.5081 4.49187 27 12.5 27V23ZM23 12.5C23 18.299 18.299 23 12.5 23V27C20.5081 27 27 20.5081 27 12.5H23ZM12.5 2C18.299 2 23 6.70101 23 12.5H27C27 4.49187 20.5081 -2 12.5 -2V2ZM12.5 -2C4.49187 -2 -2 4.49187 -2 12.5H2C2 6.70101 6.70101 2 12.5 2V-2Z" fill="white"/>
</svg>
