<svg width="171" height="180" viewBox="0 0 171 180" fill="none" xmlns="http://www.w3.org/2000/svg">
<path d="M71.7429 22.6202C71.1993 27.5132 71.7429 38.3866 78.267 42.7359C81.094 44.4756 84.1567 44.9106 85.3346 44.9106C86.5711 44.9106 88.4374 44.4719 90.2277 43.1955C92.3732 41.6657 94.4094 38.9325 95.1207 34.309C96.4255 25.8278 95.3019 22.9826 94.577 22.6202H71.7429Z" fill="#E2857F"/>
<path d="M80.1698 166.964C76.5453 168.323 69.4051 171.966 69.8401 175.663C70.3837 180.284 80.9853 176.31 84.2473 172.589C82.9766 171.002 81.6175 169.136 80.1698 166.964Z" fill="#E85D5D"/>
<path d="M78.267 42.7359C71.7429 38.3866 71.1993 27.5132 71.7429 22.6202H94.577C95.3019 22.9826 96.4255 25.8278 95.1207 34.309C94.4094 38.9325 92.3732 41.6657 90.2277 43.1955C89.8652 47.0292 90.6082 54.9685 96.4798 56.0558C98.0295 56.3428 99.5186 56.4964 100.952 56.5961C106.027 38.4749 109.651 1.79765 83.5549 0.0579112C57.4588 -1.68183 61.9893 36.2097 67.5166 55.3729C75.3112 54.5008 78.267 55.0744 78.267 42.7359Z" fill="#111111"/>
<path d="M85.3346 44.9106C84.1567 44.9106 81.094 44.4756 78.267 42.7359C78.267 55.0744 75.3112 54.5008 67.5166 55.3729C64.0406 57.8407 51.5937 51.5618 58.423 72.6377C58.3682 74.1735 58.4904 75.6761 58.7384 77.1165C59.193 79.3873 60.6648 81.2297 61.9061 83.788C62.9865 85.9382 64.0423 87.9637 64.9139 88.9442C73.1776 108.734 64.7658 118.94 59.7822 121.296C58.0717 120.706 54.8791 119.571 51.899 118.431C50.301 117.819 48.7642 117.206 47.5496 116.675C20.9099 107.976 9.49283 110.423 5.959 112.326C2.96882 112.326 -1.9242 122.383 0.794146 126.461C4.87166 141.412 45.375 154.46 57.3357 157.994C69.2964 161.528 79.6261 163.974 80.1698 166.964C81.6175 169.136 82.9766 171.002 84.2473 172.589C89.6573 179.342 93.463 181.009 95.6643 179.469C98.3827 177.566 96.208 170.77 92.1305 167.508C90.7713 164.88 87.7268 159.298 86.422 157.994C84.791 156.363 84.2473 156.091 78.5388 154.188C72.8302 152.285 58.423 143.586 55.9765 138.15C55.8743 137.936 55.7505 137.714 55.6061 137.484C54.5847 135.907 52.2511 133.662 49.118 131.215C40.7572 124.932 26.6261 117.753 14.9295 116.131C24.9793 115.745 40.2506 124.29 49.118 131.215C52.205 133.535 54.5054 135.733 55.6061 137.484C55.7599 137.722 55.884 137.944 55.9765 138.15C58.423 143.586 72.8302 152.285 78.5388 154.188C84.2473 156.091 84.791 156.363 86.422 157.994C92.0399 156.091 105.994 150.11 116.867 141.412C118.825 136.627 130.187 128.545 135.624 125.102C140.789 122.383 152.282 117.804 156.579 118.879C153.715 118.521 149.06 118.879 135.624 125.102C130.187 128.545 118.825 136.627 116.867 141.412C105.994 150.11 92.0399 156.091 86.422 157.994C87.7268 159.298 90.7713 164.88 92.1305 167.508C95.3925 164.79 92.6742 166.421 106.81 162.615C120.945 158.809 145.954 150.926 162.536 135.431C175.801 123.036 169.15 116.312 164.167 114.5C160.905 113.594 150.14 113.358 133.177 119.665C128.647 122.112 118.172 126.189 112.518 122.927C106.864 119.665 107.444 100.002 108.441 90.5788C111.548 86.0083 112.313 80.0932 112.316 76.5477C112.315 75.8794 112.289 75.2926 112.246 74.8124C112.988 69.3506 109.646 60.685 107.882 57.0349C105.719 56.7794 103.418 56.7676 100.952 56.5961C99.5186 56.4964 98.0295 56.3428 96.4798 56.0558C90.6082 54.9685 89.8652 47.0292 90.2277 43.1955C88.4374 44.4719 86.5711 44.9106 85.3346 44.9106Z" fill="#E2857E"/>
<path d="M28.0549 153.525C22.8356 151.133 21.3649 146.427 21.4555 144.162C37.5844 150.233 70.6241 161.952 72.3639 161.952C74.1036 161.952 75.4447 163.039 75.8977 163.583C70.461 165.305 56.8149 167.28 45.7241 161.408C31.8606 154.069 34.5789 156.515 28.0549 153.525Z" fill="#E85D5D"/>
<path d="M60.675 121.177C66.9816 116.61 67.8232 106.881 68.0044 102.984C77.0649 104.817 82.9242 105.807 87.4804 106.173C89.7461 106.355 91.6895 106.382 93.5441 106.281C97.1569 106.084 100.432 105.402 105.096 104.43C106.079 104.226 107.124 104.008 108.246 103.779C107.811 113.783 111.146 120.814 112.867 123.08C115.404 123.895 122.273 124.711 129.449 121.449C136.626 118.187 145.125 116.103 148.477 115.468C147.934 116.193 147.064 118.132 147.934 120.089C140.322 122.808 126.731 129.06 119.391 139.118C113.52 147.164 95.9229 155.156 87.8584 158.146C87.5866 157.965 86.9886 157.494 86.7711 157.059C73.9949 153.797 66.3835 145.37 59.5877 141.564C47.8444 125.472 23.614 117.864 15.3684 116.233C14.5529 114.783 12.9219 111.503 12.9219 109.981C28.4164 107.806 59.8595 121.72 60.675 121.177Z" fill="#E85D5D"/>
<path d="M132.526 159.619C124.697 164.403 110.956 163.96 104.885 162.782C119.456 160.172 137.419 151.555 144.759 147.93C143.943 149.833 140.355 154.835 132.526 159.619Z" fill="#E85D5D"/>
<path fill-rule="evenodd" clip-rule="evenodd" d="M119.827 84.2389C122.765 82.3571 125.411 78.8049 126.459 72.5184C125.152 78.7514 122.594 82.3199 119.827 84.2389ZM119.827 84.2389C116.609 86.4711 113.108 86.4717 110.964 85.8383C113.171 86.3548 116.668 86.263 119.827 84.2389ZM108.246 103.779C107.124 104.008 106.079 104.226 105.096 104.43C100.432 105.402 97.1569 106.084 93.5441 106.281C99.116 106.185 104.468 105.497 108.246 103.779ZM68.0044 102.984C77.0649 104.817 82.9242 105.807 87.4804 106.173C77.4584 105.675 68.3143 103.759 68.0044 102.984ZM62.306 85.2946C60.5515 86.0466 58.2627 86.6496 55.9403 86.6569C50.7854 86.6411 45.4523 83.6054 45.4523 72.5184C45.3017 83.6648 50.7066 86.6734 55.9403 86.6569C58.2676 86.664 60.5586 86.0556 62.306 85.2946Z" fill="#FFF4F4"/>
<path d="M84.0528 68.9845C69.265 68.5496 63.3934 60.2858 62.306 56.2083C56.7787 54.9398 45.6698 56.4258 45.4523 72.5184C45.4523 83.6054 50.7854 86.6411 55.9403 86.6569C58.2627 86.6496 60.5515 86.0466 62.306 85.2946C63.7076 87.9453 66.9171 92.7632 68.0044 102.984C77.0649 104.817 82.9242 105.807 87.4804 106.173C89.4877 106.273 91.5303 106.316 93.5441 106.281C97.1569 106.084 100.432 105.402 105.096 104.43C106.079 104.226 107.124 104.008 108.246 103.779C109.061 102.42 107.974 91.275 108.79 90.1876C109.605 89.1003 110.964 88.0129 110.964 85.8383C113.171 86.3548 116.668 86.263 119.827 84.2389C122.594 82.3199 125.152 78.7514 126.459 72.5184C129.286 59.0354 115.495 56.5708 108.246 57.0238C106.343 61.192 98.8406 69.4195 84.0528 68.9845Z" fill="#FFF4F4"/>
<path d="M64.2063 117.078C72.3829 118.935 74.2762 120.597 89.4182 121.038C102.924 120.633 105.095 119.706 113.31 118.266L113.904 119.322C106.414 121.138 105.059 121.804 89.4182 122.556C69.8847 121.839 69.9838 120.548 63.2164 118.266L64.2063 117.078Z" fill="black"/>
<path d="M113.904 119.322C106.414 121.138 105.059 121.804 89.4182 122.556C69.8847 121.839 69.9838 120.548 63.2164 118.266C62.3334 119.298 61.8228 119.828 60.8864 120.355C70.4375 124.352 76.497 125.805 89.4182 126.033C103.591 125.577 108.323 124.597 115.433 122.556C114.739 121.621 114.383 120.982 113.904 119.322Z" fill="white"/>
<path d="M115.433 122.556C108.323 124.597 103.591 125.577 89.4182 126.033C76.497 125.805 70.4375 124.352 60.8864 120.355C60.3108 120.716 60.0932 120.783 58.7643 120.355C68.9174 126.921 75.9966 128.011 89.4182 128.557C103.448 128.057 109.737 126.873 118.645 123.452C117.529 123.34 116.899 123.271 115.433 122.556Z" fill="black"/>
<path d="M43.4693 115.036C54.5203 124.522 66.1947 133.874 78.7886 137.13C91.1522 139.497 93.235 139.138 104.713 137.13C116.191 135.123 130.408 120.475 130.459 120.931L133.592 119.619C124.604 127.465 113.83 136.83 104.713 138.433C95.5958 140.036 91.2102 141.64 78.7886 138.433C61.1624 131.838 53.0142 126.227 40.5266 114.058L43.4693 115.036Z" fill="#F2B71E"/>
<path d="M25.9938 110.222C24.2664 110.873 65.9415 143.097 87.9645 143.771C109.988 144.446 141.919 119.284 140.929 117.518L144.47 116.017C146.786 118.646 103.859 147.956 87.9645 146.179C72.0705 144.401 44.7583 129.161 22.2731 109.539L25.9938 110.222Z" fill="#171717"/>
<path d="M53.8998 118.717C66.7161 126.927 75.8575 133.878 89.4182 133.706C102.979 133.535 109.964 127.774 121.394 123.452H123.45C111.122 129.62 102.893 134.905 89.4182 135.334C75.9432 135.762 63.9107 127.12 50.645 117.518L53.8998 118.717Z" fill="#2C2323"/>
<path d="M66.5687 106.23C66.4778 108.714 66.6369 110.911 66.0915 113.385C66.897 113.725 67.4058 113.422 68.1699 113.71L69.2491 111.792L68.517 109.635L69.7325 107.387C68.4525 107.06 66.9012 106.498 66.5687 106.23Z" fill="#DFD3D3"/>
<path d="M69.2491 114.103C69.4987 114.19 69.651 114.275 69.9008 114.357C69.962 114.377 70.1204 114.397 70.1817 114.417L70.7364 107.62C70.547 107.577 70.3614 107.533 70.1817 107.491L69.2491 114.103Z" fill="#FADE4B" fill-opacity="0.91"/>
<path d="M78.1094 116.151C78.4608 116.197 78.8206 116.241 79.1897 116.284L79.4243 108.977C79.1449 108.944 78.8644 108.912 78.5847 108.877L78.1094 116.151Z" fill="#57DE28"/>
<path d="M80.1212 109.058L80.7404 111.451L79.5875 113.385L80.9235 116.465C81.9762 116.564 83.1025 116.652 84.3183 116.731L85.9762 113.711L84.7313 111.636L85.8258 109.551C84.1406 109.482 82.1649 109.301 80.1212 109.058Z" fill="#DFD3D3"/>
<path d="M77.9777 108.798C75.6009 108.474 73.2511 108.123 71.3145 107.744L71.7777 109.852L70.7364 112.195L71.0689 114.694C72.7162 115.187 74.423 115.579 76.3783 115.897L77.9371 113.192L76.3783 111.006L77.9777 108.798Z" fill="#DFD3D3"/>
<path d="M86.9202 109.62C86.7967 109.619 86.7675 109.613 86.6387 109.605V116.867L86.8732 116.884C87.1249 116.88 87.4703 116.877 87.7151 116.873V109.656C87.489 109.643 87.1614 109.631 86.9202 109.62Z" fill="#FADE4B" fill-opacity="0.91"/>
<path d="M88.7102 109.704L90.0037 111.636L88.7102 113.711L90.0037 116.83C91.7005 116.79 93.2227 116.737 94.615 116.67L95.9405 113.385L94.9101 111.636L95.9737 109.665C93.8272 109.769 91.4509 109.799 88.7102 109.704Z" fill="#DFD3D3"/>
<path d="M96.5398 109.634L96.7091 116.545C96.9507 116.529 97.1885 116.512 97.4228 116.495L97.0902 109.605C96.9073 109.615 96.7228 109.625 96.5398 109.634Z" fill="#57DE28"/>
<path d="M98.0345 109.536L99.3531 111.636L97.8846 113.385L99.6422 116.308C100.946 116.181 102.157 116.034 103.346 115.863L104.455 112.808L103.137 110.562L104.455 108.574C102.211 109.131 100.176 109.329 98.0345 109.536Z" fill="#DFD3D3"/>
<path d="M105.011 108.435V115.609C105.278 115.566 105.546 115.521 105.816 115.476L105.494 108.31C105.333 108.353 105.171 108.395 105.011 108.435Z" fill="#FADE4B" fill-opacity="0.91"/>
<path d="M109.391 114.826C108.939 111.931 108.862 110.236 109.03 107.153C107.938 107.509 106.959 107.91 105.956 108.185L107.262 110.196L106.31 112.808L107.859 115.113C108.357 115.021 108.866 114.926 109.391 114.826Z" fill="#DFD3D3"/>
<path d="M69.2491 114.103L70.1817 107.491L70.0736 107.465C70.0001 107.448 69.9277 107.431 69.8564 107.415L68.6921 109.635L69.3764 111.792L68.2896 113.755C68.6108 113.875 68.9301 113.991 69.2491 114.103Z" fill="#DFD3D3"/>
<path d="M69.7325 107.387L68.517 109.635L69.2491 111.792L68.1699 113.71L68.2896 113.755L69.3764 111.792L68.6921 109.635L69.8564 107.415C69.8147 107.406 69.7734 107.396 69.7325 107.387Z" fill="#0B0A0A"/>
<path d="M70.7364 107.62L70.1817 114.417C70.4328 114.499 70.6844 114.578 70.9374 114.654L70.5954 112.195L71.6361 109.852L71.1925 107.719C71.0388 107.688 70.8864 107.654 70.7364 107.62Z" fill="#DFD3D3"/>
<path d="M71.7777 109.852L71.3145 107.744C71.2737 107.736 71.2331 107.727 71.1925 107.719L71.6361 109.852L70.5954 112.195L70.9374 114.654L71.0689 114.694L70.7364 112.195L71.7777 109.852Z" fill="#0B0A0A"/>
<path d="M77.9777 108.798L76.3783 111.006L77.9371 113.192L76.3783 115.897C76.441 115.908 76.5039 115.918 76.5671 115.928L78.0944 113.192L76.6403 111.006L78.1647 108.823C78.1023 108.815 78.04 108.807 77.9777 108.798Z" fill="#0B0A0A"/>
<path d="M78.1094 116.151L78.5847 108.877C78.4444 108.859 78.3044 108.842 78.1647 108.823L76.6403 111.006L78.0944 113.192L76.5671 115.928C77.064 116.007 77.5771 116.081 78.1094 116.151Z" fill="#DFD3D3"/>
<path d="M79.4243 108.977L79.1897 116.284C79.664 116.339 80.1536 116.391 80.6603 116.44L79.3847 113.385L80.4967 111.451L79.9775 109.041C79.794 109.02 79.6094 108.999 79.4243 108.977Z" fill="#DFD3D3"/>
<path d="M80.7404 111.451L80.1212 109.058L79.9775 109.041L80.4967 111.451L79.3847 113.385L80.6603 116.44C80.7475 116.448 80.8352 116.457 80.9235 116.465L79.5875 113.385L80.7404 111.451Z" fill="#0B0A0A"/>
<path d="M85.8258 109.551L84.7313 111.636L85.9762 113.711L84.3183 116.731L84.4811 116.742L86.1424 113.711L85.0018 111.636L85.9762 109.559C85.9262 109.556 85.8761 109.554 85.8258 109.551Z" fill="#0B0A0A"/>
<path d="M86.6387 116.867V109.605C86.4239 109.591 86.2023 109.572 85.9762 109.559L85.0018 111.636L86.1424 113.711L84.4811 116.742C85.1707 116.786 85.8889 116.828 86.6387 116.867Z" fill="#DFD3D3"/>
<path d="M87.7151 109.656V116.873C88.4253 116.862 89.1071 116.85 89.763 116.835L88.509 113.711L89.7707 111.636L88.509 109.696C88.2593 109.686 88.0135 109.672 87.7627 109.658L87.7151 109.656Z" fill="#DFD3D3"/>
<path d="M90.0037 111.636L88.7102 109.704C88.6427 109.702 88.5757 109.699 88.509 109.696L89.7707 111.636L88.509 113.711L89.763 116.835L90.0037 116.83L88.7102 113.711L90.0037 111.636Z" fill="#0B0A0A"/>
<path d="M96.7091 116.545L96.5398 109.634C96.4176 109.64 96.2962 109.645 96.1764 109.651L96.0735 109.656L95.0627 111.636L96.0606 113.385L94.7416 116.659C95.4271 116.624 96.0811 116.586 96.7091 116.545Z" fill="#DFD3D3"/>
<path d="M95.9737 109.665L94.9101 111.636L95.9405 113.385L94.615 116.67L94.7416 116.659L96.0606 113.385L95.0627 111.636L96.0735 109.656L95.9737 109.665Z" fill="#0B0A0A"/>
<path d="M97.0902 109.605L97.4228 116.495C98.1315 116.444 98.8078 116.387 99.4605 116.325L97.693 113.385L99.19 111.636L97.8846 109.549C97.6308 109.571 97.3624 109.589 97.0902 109.605Z" fill="#DFD3D3"/>
<path d="M99.3531 111.636L98.0345 109.536L97.9325 109.545L97.8846 109.549L99.19 111.636L97.693 113.385L99.4605 116.325L99.6422 116.308L97.8846 113.385L99.3531 111.636Z" fill="#0B0A0A"/>
<path d="M103.137 110.562L104.455 112.808L103.346 115.863L103.534 115.836L104.65 112.808L103.282 110.562L104.597 108.539L104.455 108.574L103.137 110.562Z" fill="#0B0A0A"/>
<path d="M105.011 115.609V108.435C104.873 108.471 104.735 108.505 104.597 108.539L103.282 110.562L104.65 112.808L103.534 115.836C104.028 115.764 104.519 115.689 105.011 115.609Z" fill="#DFD3D3"/>
<path d="M105.494 108.31L105.816 115.476C106.399 115.377 106.988 115.272 107.592 115.162L106.076 112.808L107.038 110.196L105.791 108.23C105.692 108.257 105.593 108.283 105.494 108.31Z" fill="#DFD3D3"/>
<path d="M107.262 110.196L105.956 108.185L105.791 108.23L107.038 110.196L106.076 112.808L107.592 115.162L107.859 115.113L106.31 112.808L107.262 110.196Z" fill="#0B0A0A"/>
<path d="M27.8041 93.241C25.3978 90.1472 40.1357 72.473 46.8674 64.0226C40.4221 92.3816 60.1875 85.077 61.0469 85.9364C62.0491 86.9385 55.1605 90.4896 52.7256 91.4772C56.56 93.3953 59.894 96.2359 64.7567 98.3971C72.9206 94.1003 78.0768 98.8268 76.3581 98.3971C74.9831 98.0534 73.78 100.546 73.3503 101.835C80.2252 102.837 92.7719 105.788 87.9595 109.569C81.944 114.295 63.038 110.858 62.1786 109.569C61.3192 108.28 30.8118 97.1081 27.8041 93.241Z" fill="#E2857F"/>
<path d="M143.759 92.8113C146.165 89.7176 131.801 71.184 125.069 62.7335C130.655 84.6473 111.749 85.077 110.89 85.9364C109.888 86.9386 116.402 90.0599 118.837 91.0475C115.003 92.9657 111.669 95.8063 106.806 97.9675C98.6422 93.6707 93.486 98.3972 95.2048 97.9675C96.5797 97.6237 97.7829 100.116 98.2125 101.405C91.3376 102.408 78.7909 105.358 83.6033 109.139C89.6189 113.866 108.525 110.428 109.384 109.139C110.244 107.85 140.751 96.6784 143.759 92.8113Z" fill="#E2857F"/>
</svg>
