<svg width="24" height="24" viewBox="0 0 24 24" fill="none" xmlns="http://www.w3.org/2000/svg">
<path d="M5.98566 8.12346C5.70946 6.20178 6.9921 4.47563 8.95149 3.84321C9.2992 3.73091 9.67436 3.76288 10.0005 3.9326C10.3267 4.10233 10.5793 4.39705 10.707 4.7567L11.336 6.52868C11.4373 6.81375 11.4556 7.12427 11.3886 7.42041C11.3216 7.71655 11.1724 7.98478 10.96 8.19068L9.08886 10.0008C8.99663 10.0903 8.9279 10.2034 8.88938 10.3292C8.85086 10.455 8.84386 10.5893 8.86907 10.7188L8.88642 10.7982L8.93124 10.9968C9.16395 11.9617 9.51852 12.8891 9.98541 13.7541C10.494 14.6732 11.1252 15.5103 11.8595 16.2394L11.9173 16.2944C12.0107 16.382 12.124 16.4426 12.2462 16.4701C12.3683 16.4977 12.4952 16.4914 12.6143 16.4518L15.0335 15.6467C15.3085 15.5556 15.6029 15.5532 15.8791 15.6401C16.1553 15.7269 16.4007 15.8989 16.5837 16.134L17.729 17.602C18.2062 18.2131 18.1483 19.1113 17.6003 19.6505C16.1007 21.1277 14.0387 21.4301 12.6042 20.2127C10.8458 18.7143 9.36354 16.887 8.23136 14.8219C7.08999 12.7583 6.32759 10.4857 5.98421 8.12346H5.98566ZM10.386 10.8196L11.9361 9.3165C12.361 8.90487 12.6598 8.36849 12.794 7.77621C12.9283 7.18393 12.8919 6.56278 12.6895 5.9925L12.0619 4.22052C11.805 3.49683 11.2966 2.90385 10.6402 2.56241C9.98382 2.22096 9.22889 2.15675 8.52925 2.38286C6.09556 3.16955 4.14195 5.47466 4.55552 8.35413C4.84473 10.3644 5.51135 12.9216 6.98198 15.5918C8.20347 17.8185 9.80242 19.7888 11.699 21.4042C13.8507 23.2296 16.7225 22.6064 18.5879 20.7702C19.1217 20.2452 19.4457 19.5248 19.4938 18.7561C19.5419 17.9874 19.3105 17.2282 18.8468 16.6336L17.7015 15.164C17.3351 14.6943 16.8443 14.3508 16.2919 14.1777C15.7395 14.0046 15.1508 14.0098 14.6012 14.1925L12.5926 14.86C12.074 14.2952 11.6198 13.6682 11.2391 12.9918C10.8714 12.308 10.5849 11.579 10.386 10.8212V10.8196Z" fill="#3FCD67"/>
</svg>
