<svg width="157" height="119" viewBox="0 0 157 119" fill="none" xmlns="http://www.w3.org/2000/svg">
<ellipse cx="77.5" cy="61" rx="62.5" ry="57" fill="#DEEEFC"/>
<path d="M124.034 35.075L54.9769 74.9025C49.2664 78.2063 49.8142 86.6566 55.9231 89.1634L74.8972 97.016V111.028C74.8972 118.731 84.7246 121.902 89.273 115.776L96.544 105.964L115.12 113.634C116.099 114.033 117.128 114.232 118.158 114.232C119.519 114.232 120.863 113.883 122.075 113.203C124.2 112.007 125.661 109.882 126.043 107.475L135.903 43.1932C136.916 36.536 129.778 31.7713 124.034 35.075ZM82.8653 111.028V100.303L88.941 102.81L82.8653 111.028ZM118.158 106.263L92.6263 95.7211L115.9 62.1358C117.676 59.5625 114.323 56.5742 111.966 58.6163L76.856 89.2132L58.9609 81.8089L128.018 41.9647L118.158 106.263Z" fill="#4CA7FC"/>
<path d="M46.9 46.9H67V67L46.9 46.9Z" fill="#4CA7FC"/>
<path d="M60.3 0H6.7C2.99969 0 0 2.99969 0 6.7V46.9C0 50.6003 2.99969 53.6 6.7 53.6H60.3C64.0003 53.6 67 50.6003 67 46.9V6.7C67 2.99969 64.0003 0 60.3 0Z" fill="#4CA7FC"/>
<path d="M31.744 36.12L34.672 34.872C33.856 34.248 33.376 33.288 33.376 32.52C33.376 27.816 42.688 27.192 42.688 19.944C42.688 15.816 39.136 12.504 33.28 12.504C28.72 12.504 25.168 14.424 22.864 17.4L25.264 19.992C27.04 17.64 29.296 16.056 32.896 16.056C36.688 16.056 38.56 18.12 38.56 20.52C38.56 25.608 29.872 26.136 29.872 32.232C29.872 33.672 30.448 35.016 31.744 36.12ZM32.752 45.48C34.192 45.48 35.392 44.28 35.392 42.84C35.392 41.4 34.192 40.2 32.752 40.2C31.312 40.2 30.112 41.4 30.112 42.84C30.112 44.28 31.312 45.48 32.752 45.48Z" fill="white"/>
</svg>
