<svg width="32" height="32" viewBox="0 0 32 32" fill="none" xmlns="http://www.w3.org/2000/svg">
<rect width="32" height="32" rx="10" fill="#FFB35A"/>
<path d="M8.45725 17.0051C8.17705 16.7607 8 16.401 8 16C8 15.599 8.17705 15.2393 8.45726 14.9949L15.0616 8.39052C15.5823 7.86983 16.4265 7.86983 16.9472 8.39052C17.4679 8.91122 17.4679 9.75544 16.9472 10.2761L12.5567 14.6667L22.6667 14.6667C23.403 14.6667 24 15.2636 24 16C24 16.7364 23.403 17.3333 22.6667 17.3333L12.5567 17.3333L16.9472 21.7239C17.4679 22.2446 17.4679 23.0888 16.9472 23.6095C16.4265 24.1302 15.5823 24.1302 15.0616 23.6095L8.45725 17.0051Z" fill="#040A0C"/>
</svg>
