<svg width="32" height="32" viewBox="0 0 32 32" fill="none" xmlns="http://www.w3.org/2000/svg">
<rect width="32" height="32" rx="10" fill="#FFB35A"/>
<path d="M18 19L18.7071 18.2929L19.4142 19L18.7071 19.7071L18 19ZM14.7071 14.2929L18.7071 18.2929L17.2929 19.7071L13.2929 15.7071L14.7071 14.2929ZM18.7071 19.7071L14.7071 23.7071L13.2929 22.2929L17.2929 18.2929L18.7071 19.7071Z" fill="#040A0C"/>
<path d="M13.6706 10.1533C11.5616 10.4359 9.72985 11.0922 8.51677 11.9999C7.3037 12.9077 6.792 14.005 7.077 15.0874C7.362 16.1698 8.42426 17.1634 10.0659 17.8833C11.7075 18.6031 13.8165 19 16 19" stroke="#040A0C" stroke-width="2" stroke-linecap="round"/>
<path d="M23.7942 16.75C24.3852 16.2382 24.7687 15.6733 24.923 15.0874C25.0773 14.5015 24.9992 13.9061 24.6933 13.3353C24.3874 12.7645 23.8597 12.2294 23.1402 11.7606C22.4207 11.2917 21.5236 10.8984 20.5 10.6029" stroke="#040A0C" stroke-width="2" stroke-linecap="round"/>
</svg>
