<svg width="32" height="32" viewBox="0 0 32 32" fill="none" xmlns="http://www.w3.org/2000/svg">
<path fill-rule="evenodd" clip-rule="evenodd" d="M12.7273 18.0455C12.7273 18.7233 13.2768 19.2728 13.9546 19.2728L22.1364 19.2728C22.8142 19.2728 23.3637 18.7233 23.3637 18.0455L23.3637 9.86366C23.3637 9.18585 22.8142 8.63638 22.1364 8.63638L13.9546 8.63638C13.2768 8.63638 12.7273 9.18585 12.7273 9.86366L12.7273 18.0455ZM13.9546 20.9091C12.373 20.9091 11.0909 19.627 11.0909 18.0455L11.0909 9.86366C11.0909 8.28211 12.373 7.00002 13.9546 7.00002L22.1364 7.00002C23.7179 7.00002 25 8.28211 25 9.86365L25 18.0455C25 19.627 23.7179 20.9091 22.1364 20.9091L13.9546 20.9091Z" fill="white"/>
<path fill-rule="evenodd" clip-rule="evenodd" d="M7.83874 24.1613C7.3017 23.6242 7 22.8958 7 22.1364L7 13.9545C7 13.1951 7.3017 12.4667 7.83874 11.9296C8.2056 11.5628 8.66174 11.3058 9.15601 11.1797C9.59386 11.068 10.0393 11.3325 10.151 11.7703C10.2627 12.2082 9.99825 12.6536 9.5604 12.7653C9.34848 12.8194 9.15302 12.9295 8.99582 13.0867C8.76566 13.3169 8.63636 13.629 8.63636 13.9545L8.63636 22.1364C8.63636 22.4619 8.76567 22.774 8.99582 23.0042C9.22598 23.2343 9.53815 23.3636 9.86364 23.3636L18.0455 23.3636C18.371 23.3636 18.6831 23.2343 18.9133 23.0042C19.0645 22.8529 19.1722 22.6663 19.2283 22.4636C19.3488 22.0281 19.7996 21.7728 20.2351 21.8933C20.6706 22.0138 20.9259 22.4645 20.8054 22.9C20.6746 23.3727 20.4233 23.8083 20.0704 24.1613C19.5333 24.6983 18.8049 25 18.0455 25L9.86364 25C9.10415 25 8.37578 24.6983 7.83874 24.1613Z" fill="white"/>
</svg>
