<svg width="224" height="224" viewBox="0 0 224 224" fill="none" xmlns="http://www.w3.org/2000/svg">
<g clip-path="url(#clip0_183_2057)">
<rect x="0.5" y="0.947266" width="223" height="223" rx="111.5" fill="white"/>
<path d="M86.5175 42.4473C85.8848 48.141 86.5175 60.7939 94.1092 65.855C97.3989 67.8794 100.963 68.3856 102.333 68.3856C103.772 68.3856 105.944 67.8751 108.027 66.3897C110.524 64.6096 112.893 61.4292 113.721 56.049C115.239 46.1799 113.932 42.869 113.088 42.4473H86.5175Z" fill="#E2857E"/>
<path d="M102.333 68.3856C100.963 68.3856 97.3989 67.8794 94.1092 65.855C94.1092 80.2127 90.6697 79.5452 81.5995 80.56C78.68 80.8866 76.4475 80.751 72.2882 81.9834C55.2069 87.0446 75.5169 135.789 77.4148 148.125C77.1697 151.445 76.9298 154.698 76.73 157.625C95.8835 167.625 119.749 160.459 129.288 155.625L128.515 147.125L126.288 122.625C126.288 122.625 133.726 109.326 133.73 105.2C133.729 104.422 133.698 103.74 133.649 103.181C133.7 103.735 133.731 104.418 133.73 105.2C133.734 109.411 126.288 122.625 126.288 122.625L128.515 147.125C127.777 137.425 140.547 104.186 139.788 99.1253C138.888 93.1253 139.74 88.5538 133.73 84.1253C128.989 80.6318 126.74 82.4168 120.507 81.9834C118.839 81.8674 117.106 81.6886 115.303 81.3547C108.47 80.0894 107.605 70.8509 108.027 66.3897C105.944 67.8751 103.772 68.3856 102.333 68.3856Z" fill="#E2857E"/>
<path d="M94.1092 65.855C86.5175 60.7939 85.8848 48.141 86.5175 42.4473H113.088C113.932 42.869 115.239 46.1799 113.721 56.049C112.893 61.4292 110.524 64.6096 108.027 66.3897C107.605 70.8509 108.47 80.0894 115.303 81.3547C117.106 81.6886 118.839 81.8674 120.507 81.9834C130 58.9473 130 15.9473 96.5001 15.9473C66.247 15.9472 71.0001 73.4473 81.5995 80.56C90.6697 79.5452 94.1092 80.2127 94.1092 65.855Z" fill="#292929"/>
<path d="M140.587 101.661C139.638 95.3348 137.424 88.3758 131.414 83.9473C127.05 89.9876 119.422 105.656 123.822 120.008C129.516 163.344 145.648 152.272 152.608 153.854C172.346 146.515 184.872 146.79 188.668 147.844L201.005 145.63C203.219 144.154 208.849 140.063 213.657 135.507C216.725 132.218 212.827 132.871 210.494 133.61C206.487 135.402 198.474 138.607 198.474 137.089C198.595 135.603 201.055 132.674 202.27 131.395C202.164 131.184 201.764 130.636 201.005 130.13C200.056 129.497 196.26 132.028 196.26 134.242C192.464 134.559 189.617 136.14 186.77 139.62C169.815 135.065 151.026 136.035 143.751 137.089C144.093 132.403 141.784 111.518 140.587 101.661Z" fill="#E2857E"/>
<path d="M74.3357 81.3479C75.6187 86.0158 82.5466 95.4761 99.9948 95.9741C117.443 96.472 126.295 87.0531 128.541 82.2815C137.094 81.7628 153.366 84.5843 150.03 100.02C148.794 107.216 145.671 111.283 142.205 113.437C138.408 115.993 134.277 115.993 131.748 115.268C131.748 117.758 130.144 119.003 129.182 120.247C128.22 121.492 129.503 134.251 128.541 135.807C124.083 137.773 117.768 138.561 111.194 138.671C108.818 138.711 106.407 138.662 104.039 138.547C92.2141 137.977 81.4249 135.784 81.0593 134.897C79.7763 123.196 75.9894 117.68 74.3357 114.646C72.2739 115.517 69.5707 116.214 66.8247 116.205C60.6495 116.224 54.2721 112.78 54.4499 100.02C54.7065 81.5968 67.814 79.8956 74.3357 81.3479Z" fill="#FFF4F4"/>
<path d="M81.0593 134.897C80.8454 139.357 76.905 143.418 72.8491 155.716C71.8869 156.338 47.5 244.75 47.5 244.75C57.2291 246.617 79.2725 217.473 93.1285 235.896C101.147 240.252 103.91 226.258 118.985 229.993C125.575 233.6 123.649 248.685 144.334 244.75C147.105 244.75 152.851 254.194 158.529 244.75C164.208 235.305 143.524 178.981 133.993 157.902C131.962 155.309 128.027 147.259 128.541 135.807C124.083 137.773 117.768 138.561 111.194 138.671C109.005 138.787 106.712 138.755 104.039 138.547C92.2141 137.977 81.4249 135.784 81.0593 134.897Z" fill="#E85D5D"/>
<path fill-rule="evenodd" clip-rule="evenodd" d="M180.848 98.7327C180.848 96.4397 182.707 94.5808 185 94.5808C187.293 94.5808 189.152 96.4397 189.152 98.7327C189.152 101.026 187.293 102.885 185 102.885C182.707 102.885 180.848 101.026 180.848 98.7327ZM185 98.8585C185.07 98.8585 185.126 98.8022 185.126 98.7327C185.126 98.6632 185.07 98.6069 185 98.6069C184.931 98.6069 184.874 98.6632 184.874 98.7327C184.874 98.8022 184.931 98.8585 185 98.8585Z" fill="#E9BC31"/>
<path fill-rule="evenodd" clip-rule="evenodd" d="M172.796 84.5155V76.589C172.796 73.3522 174.081 70.248 176.37 67.9593C178.659 65.6706 181.763 64.3848 185 64.3848C188.237 64.3848 191.341 65.6706 193.63 67.9593C195.918 70.248 197.204 73.3522 197.204 76.589V84.5155H197.222C201.08 84.5155 204.25 87.6124 204.25 91.4857V105.98C204.25 109.853 201.08 112.95 197.222 112.95H172.778C168.92 112.95 165.75 109.853 165.75 105.98V91.4857C165.75 87.6124 168.92 84.5155 172.778 84.5155H172.796ZM179.395 70.9842C180.882 69.4977 182.898 68.6625 185 68.6625C187.102 68.6625 189.118 69.4977 190.605 70.9842C192.091 72.4707 192.926 74.4868 192.926 76.589V84.5155H177.073V76.589C177.073 74.4868 177.909 72.4707 179.395 70.9842ZM174.928 88.7933L174.935 88.7933L174.941 88.7933H195.059L195.065 88.7933L195.072 88.7933H197.222C198.765 88.7933 199.972 90.0225 199.972 91.4857V105.98C199.972 107.443 198.765 108.672 197.222 108.672H172.778C171.235 108.672 170.028 107.443 170.028 105.98V91.4857C170.028 90.0225 171.235 88.7933 172.778 88.7933H174.928Z" fill="#E9BC31"/>
</g>
<defs>
<clipPath id="clip0_183_2057">
<rect x="0.5" y="0.947266" width="223" height="223" rx="111.5" fill="white"/>
</clipPath>
</defs>
</svg>
