<svg width="334" height="105" viewBox="0 0 334 105" fill="none" xmlns="http://www.w3.org/2000/svg">
<rect width="334" height="105" fill="#FFC122" fill-opacity="0.6"/>
<g opacity="0.4">
<path d="M274.916 28.6846C274.268 28.6846 272.585 28.4456 271.031 27.4893C271.031 34.2711 269.406 33.9558 265.122 34.4351C263.743 34.5894 262.089 34.826 260.124 35.4081C252.056 37.7987 252.803 56.6245 253.699 62.4515C248.022 59.7621 232.632 63.6468 233.081 62.4515C233.529 61.2562 228.299 58.5668 227.851 58.1186C227.403 57.6703 226.656 57.3715 226.506 57.8198C226.955 59.015 226.805 58.7162 227.851 59.4633C228.688 60.0609 228.499 60.6088 228.299 60.808C226.706 61.057 223.249 61.1068 222.174 59.3139C221.098 57.5209 220.331 57.3715 220.082 57.5209C219.335 58.4174 223.757 65.4995 231.288 65.7385C233.23 64.6927 239.505 63.348 254.147 68.1291C254.815 68.4212 255.66 68.7581 256.538 69.0942C261.558 67.8343 263.212 57.9651 263.411 53.188C262.732 52.4289 262.159 51.5096 261.691 50.5443C261.102 49.3723 260.566 47.9456 260.297 46.3863C260.077 45.2869 260.021 44.3859 260.124 43.9245C260.094 44.7687 260.161 45.5946 260.297 46.3863C260.547 47.6344 261.009 49.1381 261.691 50.5443C262.285 51.7262 262.932 52.6491 263.411 53.188C267.953 64.0651 263.61 69.3742 260.871 70.6691C259.931 70.3449 258.176 69.721 256.538 69.0942C255.66 68.7581 254.815 68.4212 254.147 68.1291C239.505 63.348 233.23 64.6927 231.288 65.7385C229.644 65.7385 226.955 71.2667 228.449 73.5079C230.69 81.7255 252.952 88.8972 259.526 90.8396C266.1 92.7819 271.778 94.1266 272.077 95.7701C272.872 96.9637 273.62 97.9897 274.318 98.8615C277.292 102.573 279.383 103.49 280.593 102.643C282.087 101.597 280.892 97.8619 278.651 96.0689C277.904 94.6246 276.23 91.5567 275.513 90.8396C274.617 89.9431 274.318 89.7937 271.18 88.7478C268.043 87.7019 260.124 82.9208 258.779 79.9326C258.723 79.8151 258.655 79.6931 258.576 79.5668C258.014 78.6998 256.732 77.466 255.009 76.121C250.414 72.6674 242.647 68.7218 236.218 67.8303C241.742 67.6178 250.136 72.3144 255.009 76.121C256.706 77.3962 257.971 78.6042 258.576 79.5668C258.66 79.6973 258.728 79.8195 258.779 79.9326C260.124 82.9208 268.043 87.7019 271.18 88.7478C274.318 89.7937 274.617 89.9431 275.513 90.8396C278.601 89.7937 286.271 86.5067 292.247 81.7255C293.323 79.0959 299.568 74.6534 302.557 72.7608C305.395 71.2667 311.713 68.75 314.074 69.3404C312.5 69.1436 309.941 69.3404 302.557 72.7608C299.568 74.6534 293.323 79.0959 292.247 81.7255C286.271 86.5067 278.601 89.7937 275.513 90.8396C276.23 91.5567 277.904 94.6246 278.651 96.0689C280.444 94.5748 278.95 95.4713 286.719 93.3796C294.488 91.2878 308.234 86.9549 317.348 78.4385C324.64 71.6253 320.984 67.9299 318.245 66.9338C316.452 66.4358 310.535 66.3063 301.212 69.7726C298.722 71.1173 292.964 73.3585 289.857 71.5656C286.749 69.7726 287.068 58.9652 287.616 53.7857C289.324 51.2736 289.744 48.0224 289.745 46.0736C289.745 45.7063 289.731 45.3838 289.707 45.1198C289.731 45.3817 289.746 45.7043 289.745 46.0736C289.747 48.0626 289.331 51.3642 287.616 53.7857C290.305 74.255 297.925 69.0256 301.212 69.7726C310.535 66.3063 316.452 66.4358 318.245 66.9338L324.072 65.8879C325.118 65.1907 327.777 63.2583 330.048 61.1068C332.319 58.9553 329.998 59.6127 328.554 60.2103C326.662 61.057 322.876 62.571 322.876 61.8539C322.876 61.1367 324.072 59.7621 324.669 59.1645C324.62 59.0649 324.43 58.8059 324.072 58.5668C323.624 58.268 321.831 59.4633 321.831 60.5092C320.038 60.6586 318.693 61.4056 317.348 63.0491C309.34 60.8976 300.465 61.3558 297.028 61.8539C296.68 57.2719 295.893 47.5104 295.534 45.1198C295.086 42.1316 294.04 38.8446 291.201 36.7528C288.962 35.1027 286.444 35.3122 283.5 35.1075C282.712 35.0527 281.893 34.9682 281.041 34.8105C277.814 34.2128 277.406 29.8491 277.605 27.7419C276.621 28.4435 275.595 28.6846 274.916 28.6846Z" fill="#E2857E"/>
<path d="M267.445 16.4329C267.146 19.1223 267.445 25.0988 271.031 27.4893C272.585 28.4456 274.268 28.6846 274.916 28.6846C275.595 28.6846 276.621 28.4435 277.605 27.7419C278.784 26.9011 279.903 25.3989 280.294 22.8576C281.012 18.196 280.394 16.6322 279.996 16.4329H267.445Z" fill="#E2857E"/>
<path d="M272.077 95.7701C270.085 96.5172 266.16 98.5193 266.399 100.551C266.698 103.091 272.525 100.907 274.318 98.8615C273.62 97.9897 272.872 96.9637 272.077 95.7701Z" fill="#E85D5D"/>
<path d="M271.031 27.4893C267.445 25.0988 267.146 19.1223 267.445 16.4329H279.996C280.394 16.6322 281.012 18.196 280.294 22.8576C279.903 25.3989 278.784 26.9011 277.605 27.7419C277.406 29.8491 277.814 34.2128 281.041 34.8105C281.893 34.9682 282.712 35.0527 283.5 35.1075C286.289 25.1474 288.281 4.98806 273.937 4.03183C259.594 3.0756 262.084 23.9023 265.122 34.4351C269.406 33.9558 271.031 34.2711 271.031 27.4893Z" fill="#111111"/>
<path d="M243.308 88.4598C240.439 87.145 239.631 84.5587 239.681 83.3136C248.546 86.6504 266.706 93.0916 267.662 93.0916C268.618 93.0916 269.355 93.6892 269.604 93.988C266.616 94.9343 259.116 96.02 253.02 92.7928C245.4 88.7587 246.894 90.1034 243.308 88.4598Z" fill="#E85D5D"/>
<path d="M261.237 70.6799C264.704 68.1698 265.166 62.8221 265.266 60.6806C278.563 63.37 279.316 62.7612 287.384 61.1176C287.145 66.616 288.978 70.4807 289.924 71.7258C291.319 72.174 295.094 72.6223 299.038 70.8293C302.983 69.0364 307.654 67.8909 309.497 67.5423C309.198 67.9407 308.72 69.0065 309.198 70.0823C305.015 71.5764 297.544 75.0129 293.51 80.5411C290.283 84.9636 280.611 89.3563 276.178 90.9998C276.029 90.9002 275.7 90.6412 275.581 90.4022C268.558 88.6092 264.375 83.9775 260.64 81.8858C254.185 73.0406 240.867 68.859 236.335 67.9625C235.887 67.1656 234.99 65.3628 234.99 64.526C243.507 63.3308 260.789 70.9788 261.237 70.6799Z" fill="#E85D5D"/>
<path d="M300.73 91.8093C296.427 94.4389 288.874 94.1951 285.537 93.5476C293.545 92.1133 303.419 87.3768 307.453 85.3846C307.005 86.4305 305.033 89.1797 300.73 91.8093Z" fill="#E85D5D"/>
<path d="M262.134 34.9707C262.731 37.2119 265.959 41.754 274.087 41.993C282.215 42.2321 286.338 37.7099 287.384 35.419C291.368 35.1699 298.949 36.5246 297.395 43.9354C296.819 47.3907 295.364 49.3431 293.75 50.3774C291.981 51.6043 290.057 51.6046 288.878 51.2565C288.878 52.4518 288.131 53.0494 287.683 53.6471C287.235 54.2447 287.832 60.3706 287.384 61.1176C280.81 64.1059 265.565 61.4276 265.266 60.6806C264.668 55.0627 262.904 52.4146 262.134 50.9577C261.173 51.376 259.914 51.7104 258.635 51.7065C255.758 51.7155 252.787 50.0619 252.87 43.9354C252.99 35.0902 259.096 34.2735 262.134 34.9707Z" fill="#FFF4F4"/>
<path d="M265.3 60.6614C265.253 61.9548 265.197 62.7783 264.913 64.0664C265.333 64.2436 265.736 64.4066 266.134 64.5566L266.696 63.5576L266.315 62.4348L266.948 61.2643C266.281 61.0935 265.474 60.801 265.3 60.6614Z" fill="#DFD3D3"/>
<path d="M266.696 64.761C266.826 64.8065 266.905 64.8507 267.036 64.8936C267.067 64.9041 267.15 64.9145 267.182 64.9249L267.471 61.3854C267.372 61.363 267.275 61.3401 267.182 61.3181L266.696 64.761Z" fill="#FADE4B" fill-opacity="0.91"/>
<path d="M271.31 65.8275C271.493 65.8516 271.68 65.8747 271.872 65.8968L271.995 62.092C271.849 62.0751 271.703 62.0579 271.557 62.0399L271.31 65.8275Z" fill="#57DE28"/>
<path d="M272.357 62.1344L272.68 63.3803L272.08 64.3873L272.775 65.991C273.323 66.0427 273.91 66.0886 274.543 66.1298L275.406 64.557L274.758 63.4767L275.328 62.3911C274.45 62.3549 273.422 62.2605 272.357 62.1344Z" fill="#DFD3D3"/>
<path d="M271.241 61.9989C270.004 61.83 268.78 61.6474 267.772 61.4497L268.013 62.5476L267.471 63.7676L267.644 65.0689C268.502 65.3254 269.39 65.5299 270.408 65.6955L271.22 64.2869L270.408 63.1483L271.241 61.9989Z" fill="#DFD3D3"/>
<path d="M275.898 62.4268C275.833 62.4262 275.818 62.4232 275.751 62.4189V66.2002L275.873 66.2091C276.004 66.2074 276.184 66.2056 276.312 66.2036V62.4454C276.194 62.4389 276.023 62.4323 275.898 62.4268Z" fill="#FADE4B" fill-opacity="0.91"/>
<path d="M276.83 62.4706L277.503 63.4767L276.83 64.557L277.503 66.1809C278.387 66.1603 279.18 66.1327 279.905 66.0976L280.595 64.3873L280.058 63.4767L280.335 62.9636L280.612 62.4505C279.494 62.5046 278.257 62.5199 276.83 62.4706Z" fill="#DFD3D3"/>
<path d="M280.907 62.434L280.995 66.0327C281.121 66.0244 281.245 66.0158 281.367 66.0069L281.193 62.4189C281.098 62.4244 281.002 62.4293 280.907 62.434Z" fill="#57DE28"/>
<path d="M281.685 62.3832L282.372 63.4767L281.607 64.3873L282.522 65.9091C283.201 65.8433 283.832 65.7664 284.451 65.6778L285.028 64.0867L284.342 62.9174L285.028 61.8823C283.86 62.1723 282.8 62.2751 281.685 62.3832Z" fill="#DFD3D3"/>
<path d="M285.318 61.81V65.5454C285.457 65.5229 285.597 65.4997 285.737 65.4759L285.57 61.7445C285.485 61.7669 285.401 61.7887 285.318 61.81Z" fill="#FADE4B" fill-opacity="0.91"/>
<path d="M287.599 65.1378C287.363 63.6301 287.323 62.7478 287.411 61.1422C286.842 61.3274 286.332 61.5362 285.81 61.6796L286.49 62.7267L285.994 64.0867L286.801 65.2872C287.06 65.2394 287.325 65.1896 287.599 65.1378Z" fill="#DFD3D3"/>
<path d="M266.696 64.761L267.182 61.3181L267.126 61.3049C267.087 61.2959 267.05 61.2872 267.012 61.2788L266.406 62.4348L266.763 63.5576L266.197 64.58C266.364 64.6426 266.53 64.7029 266.696 64.761Z" fill="#DFD3D3"/>
<path d="M266.948 61.2643L266.315 62.4348L266.696 63.5576L266.134 64.5566L266.197 64.58L266.763 63.5576L266.406 62.4348L267.012 61.2788C266.991 61.2738 266.969 61.269 266.948 61.2643Z" fill="#0B0A0A"/>
<path d="M267.471 61.3854L267.182 64.9249C267.313 64.9673 267.444 65.0084 267.575 65.0483L267.397 63.7676L267.939 62.5476L267.708 61.437C267.628 61.4206 267.549 61.4032 267.471 61.3854Z" fill="#DFD3D3"/>
<path d="M268.013 62.5476L267.772 61.4497C267.75 61.4456 267.729 61.4413 267.708 61.437L267.939 62.5476L267.397 63.7676L267.575 65.0483L267.644 65.0689L267.471 63.7676L268.013 62.5476Z" fill="#0B0A0A"/>
<path d="M271.241 61.9989L270.408 63.1483L271.22 64.2869L270.408 65.6955C270.441 65.7008 270.474 65.7061 270.507 65.7113L271.302 64.2869L270.545 63.1483L271.339 62.0119C271.306 62.0076 271.274 62.0033 271.241 61.9989Z" fill="#0B0A0A"/>
<path d="M271.31 65.8275L271.557 62.0399C271.484 62.0308 271.411 62.0215 271.339 62.0119L270.545 63.1483L271.302 64.2869L270.507 65.7113C270.765 65.7524 271.033 65.7911 271.31 65.8275Z" fill="#DFD3D3"/>
<path d="M271.995 62.092L271.872 65.8968C272.119 65.9253 272.374 65.9523 272.638 65.9779L271.974 64.3873L272.553 63.3803L272.283 62.1255C272.187 62.1143 272.091 62.1032 271.995 62.092Z" fill="#DFD3D3"/>
<path d="M272.68 63.3803L272.357 62.1344L272.283 62.1255L272.553 63.3803L271.974 64.3873L272.638 65.9779C272.684 65.9824 272.729 65.9867 272.775 65.991L272.08 64.3873L272.68 63.3803Z" fill="#0B0A0A"/>
<path d="M275.328 62.3911L274.758 63.4767L275.406 64.557L274.543 66.1298L274.628 66.1353L275.493 64.557L274.899 63.4767L275.406 62.395C275.38 62.3935 275.354 62.3922 275.328 62.3911Z" fill="#0B0A0A"/>
<path d="M275.751 66.2002V62.4189C275.639 62.4119 275.524 62.4017 275.406 62.395L274.899 63.4767L275.493 64.557L274.628 66.1353C274.987 66.1583 275.361 66.1799 275.751 66.2002Z" fill="#DFD3D3"/>
<path d="M276.312 62.4454V66.2036C276.681 66.198 277.036 66.1914 277.378 66.1838L276.725 64.557L277.382 63.4767L276.725 62.4666C276.595 62.4611 276.467 62.454 276.336 62.4468L276.312 62.4454Z" fill="#DFD3D3"/>
<path d="M277.503 63.4767L276.83 62.4706C276.795 62.4694 276.76 62.468 276.725 62.4666L277.382 63.4767L276.725 64.557L277.378 66.1838L277.503 66.1809L276.83 64.557L277.503 63.4767Z" fill="#0B0A0A"/>
<path d="M280.995 66.0327L280.907 62.434C280.843 62.4371 280.78 62.4401 280.718 62.443L280.664 62.4456L280.138 63.4767L280.657 64.3873L279.97 66.0919C280.327 66.074 280.668 66.0543 280.995 66.0327Z" fill="#DFD3D3"/>
<path d="M280.612 62.4505L280.335 62.9636L280.058 63.4767L280.595 64.3873L279.905 66.0976L279.97 66.0919L280.657 64.3873L280.138 63.4767L280.664 62.4456L280.612 62.4505Z" fill="#0B0A0A"/>
<path d="M281.193 62.4189L281.367 66.0069C281.736 65.98 282.088 65.9504 282.428 65.9182L281.507 64.3873L282.287 63.4767L281.607 62.3901C281.475 62.4015 281.335 62.4108 281.193 62.4189Z" fill="#DFD3D3"/>
<path d="M282.372 63.4767L281.685 62.3832L281.632 62.3879L281.607 62.3901L282.287 63.4767L281.507 64.3873L282.428 65.9182L282.522 65.9091L281.607 64.3873L282.372 63.4767Z" fill="#0B0A0A"/>
<path d="M284.342 62.9174L285.028 64.0867L284.451 65.6778L284.549 65.6637L285.13 64.0867L284.417 62.9174L285.102 61.8641L285.028 61.8823L284.342 62.9174Z" fill="#0B0A0A"/>
<path d="M285.318 65.5454V61.81C285.246 61.8284 285.174 61.8464 285.102 61.8641L284.417 62.9174L285.13 64.0867L284.549 65.6637C284.806 65.6263 285.061 65.5869 285.318 65.5454Z" fill="#DFD3D3"/>
<path d="M285.57 61.7445L285.737 65.4759C286.04 65.4245 286.347 65.3701 286.662 65.3126L285.872 64.0867L286.373 62.7267L285.724 61.7031C285.672 61.7171 285.621 61.7309 285.57 61.7445Z" fill="#DFD3D3"/>
<path d="M286.49 62.7267L285.81 61.6796L285.724 61.7031L286.373 62.7267L285.872 64.0867L286.662 65.3126L286.801 65.2872L285.994 64.0867L286.49 62.7267Z" fill="#0B0A0A"/>
<path d="M263.074 68.7314C267.332 69.6986 268.317 70.5636 276.202 70.7934C283.235 70.5826 284.365 70.1 288.643 69.3501L288.952 69.8999C285.052 70.8458 284.346 71.1923 276.202 71.5839C266.031 71.2104 266.082 70.5383 262.558 69.3501L263.074 68.7314Z" fill="black"/>
<path d="M288.952 69.8999C285.052 70.8458 284.346 71.1923 276.202 71.5839C266.031 71.2104 266.082 70.5383 262.558 69.3501C262.099 69.8872 261.833 70.1633 261.345 70.4377C266.319 72.519 269.474 73.2756 276.202 73.3945C283.582 73.1569 286.046 72.6464 289.748 71.5839C289.387 71.0968 289.202 70.7641 288.952 69.8999Z" fill="white"/>
<path d="M289.748 71.5839C286.046 72.6464 283.582 73.1569 276.202 73.3945C269.474 73.2756 266.319 72.519 261.345 70.4377C261.045 70.6258 260.932 70.6608 260.24 70.4377C265.527 73.8566 269.213 74.4243 276.202 74.7086C283.507 74.4483 286.782 73.8318 291.421 72.0505C290.84 71.9923 290.512 71.9564 289.748 71.5839Z" fill="black"/>
<path d="M252.276 67.6681C258.03 72.6075 264.109 77.4773 270.667 79.1729C277.105 80.4054 278.19 80.2181 284.166 79.1729C290.143 78.1278 297.521 71.0861 297.547 71.3234L298.565 70.9777C293.885 75.0633 288.914 79.0167 284.166 79.8513C279.419 80.6858 277.135 81.5211 270.667 79.8513C261.489 76.4173 257.246 73.4956 250.744 67.1591L252.276 67.6681Z" fill="#F2B71E"/>
<path d="M243.176 65.1614C242.277 65.5004 263.977 82.2797 275.445 82.631C286.913 82.9822 303.524 70.2697 303.008 69.3501L304.59 68.8393C305.796 70.2083 283.721 84.8102 275.445 83.8845C267.169 82.9588 252.947 75.0232 241.239 64.8057L243.176 65.1614Z" fill="#171717"/>
<path d="M257.707 69.5849C264.381 73.8602 269.141 77.4791 276.202 77.3899C283.263 77.3007 286.9 74.301 292.852 72.0505H293.923C287.503 75.2622 283.219 78.0143 276.202 78.2373C269.185 78.4604 262.92 73.9604 256.012 68.9605L257.707 69.5849Z" fill="#2C2323"/>
</g>
</svg>
