<svg width="206" height="206" viewBox="0 0 206 206" fill="none" xmlns="http://www.w3.org/2000/svg">
<path d="M206 103C206 159.885 159.885 206 103 206C46.1147 206 0 159.885 0 103C0 46.1147 46.1147 0 103 0C159.885 0 206 46.1147 206 103Z" fill="#4CA7FC"/>
<path d="M200.278 101.569C200.278 155.294 156.725 198.847 103 198.847C49.275 198.847 5.72222 155.294 5.72222 101.569C5.72222 47.8444 49.275 4.29167 103 4.29167C156.725 4.29167 200.278 47.8444 200.278 101.569Z" fill="white"/>
<path d="M194.556 101.569C194.556 152.134 153.565 193.125 103 193.125C52.4353 193.125 11.4444 152.134 11.4444 101.569C11.4444 51.0047 52.4353 10.0139 103 10.0139C153.565 10.0139 194.556 51.0047 194.556 101.569Z" fill="#4CA7FC"/>
<path d="M128.987 108.295L127.594 109.731L130.026 112.09L130.916 108.821L128.987 108.295ZM79.7426 60.5389L81.1349 59.1032L81.1349 59.1031L79.7426 60.5389ZM69.4737 60.6838L70.9047 62.081L70.9061 62.0795L69.4737 60.6838ZM69.1788 61.0051L70.6925 62.3122L70.6925 62.3122L69.1788 61.0051ZM69.6242 72.2488L71.0301 70.8262L71.03 70.8261L69.6242 72.2488ZM94.4875 96.8198L93.0816 98.2424L95.894 95.398L94.4875 96.8198ZM67.4177 70.0428L66.0112 71.4647L67.4177 70.0428ZM55.6729 69.6442L56.9795 71.1584L56.9795 71.1583L55.6729 69.6442ZM54.905 80.2278L53.394 81.538L53.3944 81.5386L54.905 80.2278ZM55.2252 80.5745L53.7984 81.976L53.7994 81.977L55.2252 80.5745ZM82.4933 108.295L81.097 109.727C81.8821 110.492 83.137 110.483 83.9106 109.706C84.6842 108.929 84.688 107.674 83.9191 106.892L82.4933 108.295ZM66.978 93.1671L65.5503 94.5678L65.5659 94.5836L65.5817 94.5991L66.978 93.1671ZM55.4861 92.9681L56.8642 94.4175L56.8643 94.4175L55.4861 92.9681ZM55.2142 104.278L53.7681 105.659L53.7738 105.665L55.2142 104.278ZM55.2566 104.321L56.6921 102.929L56.6909 102.927L55.2566 104.321ZM94.4875 142.788L95.7698 141.253L95.7698 141.253L94.4875 142.788ZM140.69 127.385L138.87 126.556L138.87 126.556L140.69 127.385ZM151.746 88.8811L153.684 89.3744V89.3744L151.746 88.8811ZM145.817 78.9414L146.308 77.0026L146.307 77.0023L145.817 78.9414ZM145.646 78.9L145.197 80.8489L145.198 80.8492L145.646 78.9ZM135.311 85.069L137.241 85.5945L137.241 85.5945L135.311 85.069ZM119.18 74.8966C119.796 75.8138 121.038 76.0584 121.955 75.4429C122.873 74.8274 123.117 73.5849 122.502 72.6677L119.18 74.8966ZM107.492 60.4656L106.382 62.1287L106.382 62.1287L107.492 60.4656ZM103.423 58.0275L102.481 59.7915L102.481 59.7915L103.423 58.0275ZM99.8979 54.1519C98.8772 53.7297 97.7075 54.2148 97.2853 55.2355C96.8631 56.2562 97.3482 57.4259 98.3689 57.8481L99.8979 54.1519ZM56.7742 124.992C56.2075 124.044 54.9796 123.735 54.0314 124.301C53.0832 124.868 52.7739 126.096 53.3406 127.044L56.7742 124.992ZM67.6888 140.013L68.8851 138.41H68.8851L67.6888 140.013ZM71.6244 142.66L70.5909 144.373L70.591 144.373L71.6244 142.66ZM74.942 146.715C75.9393 147.19 77.1327 146.766 77.6077 145.769C78.0827 144.772 77.6593 143.578 76.6621 143.103L74.942 146.715ZM130.379 106.86L81.1349 59.1032L78.3502 61.9746L127.594 109.731L130.379 106.86ZM81.1349 59.1031C77.4675 55.5467 71.6063 55.6292 68.0412 59.288L70.9061 62.0795C72.9318 60.0006 76.2657 59.9533 78.3502 61.9747L81.1349 59.1031ZM68.0427 59.2865C67.9117 59.4207 67.7859 59.5579 67.665 59.6979L70.6925 62.3122C70.7616 62.2322 70.8323 62.1552 70.9047 62.081L68.0427 59.2865ZM67.6651 59.6979C64.1421 63.7776 64.3842 69.8825 68.2185 73.6714L71.03 70.8261C68.6927 68.5165 68.5457 64.7983 70.6925 62.3122L67.6651 59.6979ZM68.2184 73.6713L93.0816 98.2424L95.8933 95.3973L71.0301 70.8262L68.2184 73.6713ZM95.894 95.398L68.8242 68.6209L66.0112 71.4647L93.081 98.2417L95.894 95.398ZM68.8242 68.6209C64.8732 64.7126 58.5739 64.4991 54.3663 68.13L56.9795 71.1583C59.6076 68.8905 63.5442 69.0244 66.0112 71.4647L68.8242 68.6209ZM54.3663 68.13C50.3875 71.5634 49.9512 77.5675 53.394 81.538L56.4161 78.9176C54.4238 76.6199 54.6751 73.1469 56.9795 71.1584L54.3663 68.13ZM53.3944 81.5386C53.5247 81.6887 53.6595 81.8345 53.7984 81.976L56.652 79.1729C56.5703 79.0897 56.4915 79.0044 56.4157 78.9171L53.3944 81.5386ZM53.7994 81.977L81.0675 109.698L83.9191 106.892L56.651 79.1719L53.7994 81.977ZM83.8895 106.863L68.3742 91.7351L65.5817 94.5991L81.097 109.727L83.8895 106.863ZM68.4056 91.7664C64.5095 87.7953 58.1396 87.6849 54.1079 91.5188L56.8643 94.4175C59.3129 92.089 63.1844 92.1563 65.5503 94.5678L68.4056 91.7664ZM54.1079 91.5188C50.1007 95.3291 49.9483 101.661 53.7681 105.659L56.6603 102.896C54.3694 100.498 54.4604 96.7032 56.8642 94.4175L54.1079 91.5188ZM53.7738 105.665C53.7895 105.681 53.8057 105.698 53.8223 105.715L56.6909 102.927C56.6791 102.915 56.667 102.903 56.6546 102.89L53.7738 105.665ZM53.8211 105.714C76.7121 129.31 88.6586 140.524 93.2052 144.323L95.7698 141.253C91.402 137.604 79.5862 126.528 56.6921 102.929L53.8211 105.714ZM93.2051 144.323C97.1613 147.628 102.896 149.875 108.563 150.674C114.195 151.469 120.178 150.888 124.466 148.032L122.249 144.703C119.107 146.795 114.263 147.439 109.121 146.714C104.014 145.993 99.029 143.976 95.7698 141.253L93.2051 144.323ZM124.466 148.032C132.106 142.943 139.124 135.641 142.509 128.215L138.87 126.556C135.88 133.114 129.468 139.894 122.249 144.703L124.466 148.032ZM142.509 128.215C143.53 125.977 144.962 121.585 146.799 115.189C148.65 108.744 150.945 100.136 153.684 89.3744L149.808 88.3879C147.073 99.1326 144.789 107.696 142.954 114.085C141.106 120.524 139.747 124.631 138.87 126.556L142.509 128.215ZM153.684 89.3744C155.072 83.9212 151.764 78.3845 146.308 77.0026L145.326 80.8801C148.647 81.7212 150.648 85.085 149.808 88.3879L153.684 89.3744ZM146.307 77.0023C146.239 76.985 146.167 76.9677 146.094 76.9509L145.198 80.8492C145.239 80.8586 145.282 80.869 145.327 80.8804L146.307 77.0023ZM146.096 76.9512C140.506 75.6623 134.888 79.0107 133.381 84.5436L137.241 85.5945C138.181 82.1417 141.693 80.0409 145.197 80.8489L146.096 76.9512ZM133.381 84.5435L127.057 107.77L130.916 108.821L137.241 85.5945L133.381 84.5435ZM122.502 72.6677C120.663 69.9276 118.561 67.3783 116.233 65.0556L113.408 67.8874C115.552 70.0266 117.487 72.3741 119.18 74.8966L122.502 72.6677ZM116.233 65.0556C113.905 62.7329 111.35 60.6365 108.603 58.8024L106.382 62.1287C108.91 63.8176 111.264 65.7482 113.408 67.8874L116.233 65.0556ZM108.603 58.8024C107.237 57.8897 105.823 57.042 104.366 56.2636L102.481 59.7915C103.822 60.508 105.123 61.2884 106.382 62.1287L108.603 58.8024ZM104.366 56.2636C102.918 55.4897 101.427 54.7843 99.8979 54.1519L98.3689 57.8481C99.7757 58.4301 101.148 59.0792 102.481 59.7915L104.366 56.2636ZM53.3406 127.044C55.033 129.876 56.9979 132.532 59.2012 134.973L62.1706 132.293C60.1415 130.045 58.3322 127.599 56.7742 124.992L53.3406 127.044ZM59.2012 134.973C61.4044 137.414 63.8462 139.641 66.4926 141.616L68.8851 138.41C66.4484 136.592 64.1997 134.541 62.1706 132.293L59.2012 134.973ZM66.4926 141.616C67.8093 142.599 69.177 143.519 70.5909 144.373L72.6579 140.948C71.3563 140.162 70.0973 139.315 68.8851 138.41L66.4926 141.616ZM70.591 144.373C71.9966 145.221 73.4484 146.003 74.942 146.715L76.6621 143.103C75.2879 142.449 73.9518 141.729 72.6578 140.948L70.591 144.373Z" fill="white"/>
</svg>
