<svg width="90" height="90" viewBox="0 0 90 90" fill="none" xmlns="http://www.w3.org/2000/svg">
<path d="M90 45C90 69.8528 69.8528 90 45 90C20.1472 90 0 69.8528 0 45C0 20.1472 20.1472 0 45 0C69.8528 0 90 20.1472 90 45Z" fill="#FFC122"/>
<path d="M87.5 44.375C87.5 67.8471 68.4721 86.875 45 86.875C21.5279 86.875 2.5 67.8471 2.5 44.375C2.5 20.9029 21.5279 1.875 45 1.875C68.4721 1.875 87.5 20.9029 87.5 44.375Z" fill="white"/>
<path d="M85 44.375C85 66.4664 67.0914 84.375 45 84.375C22.9086 84.375 5 66.4664 5 44.375C5 22.2836 22.9086 4.375 45 4.375C67.0914 4.375 85 22.2836 85 44.375Z" fill="#FFC122"/>
<path fill-rule="evenodd" clip-rule="evenodd" d="M52.3768 44.7748C54.6935 42.757 56.1548 39.8043 56.1548 36.5146C56.1548 30.433 51.1607 25.5029 45.0002 25.5029C38.8396 25.5029 33.8455 30.433 33.8455 36.5146C33.8455 39.8043 35.3068 42.757 37.6236 44.7748C31.0937 47.0256 26.4091 53.1593 26.4091 60.3732C26.4091 61.3868 27.2414 62.2084 28.2682 62.2084C29.2949 62.2084 30.1273 61.3868 30.1273 60.3732C30.1273 53.278 35.9537 47.5262 43.141 47.5262H46.8593C54.0466 47.5262 59.873 53.278 59.873 60.3732C59.873 61.3868 60.7054 62.2084 61.7322 62.2084C62.7589 62.2084 63.5913 61.3868 63.5913 60.3732C63.5913 53.1593 58.9067 47.0256 52.3768 44.7748ZM52.4366 36.5146C52.4366 40.569 49.1072 43.8557 45.0002 43.8557C40.8931 43.8557 37.5637 40.569 37.5637 36.5146C37.5637 32.4602 40.8931 29.1735 45.0002 29.1735C49.1072 29.1735 52.4366 32.4602 52.4366 36.5146Z" fill="white"/>
</svg>
