<svg width="182" height="142" viewBox="0 0 182 142" fill="none" xmlns="http://www.w3.org/2000/svg">
<g clip-path="url(#clip0_2614_18630)">
<path d="M145.448 17.0702L82.9359 42.7939C81.7517 43.2812 80.8096 44.219 80.3168 45.401C79.824 46.5829 79.8209 47.9122 80.3082 49.0965L98.6824 93.7477C99.1697 94.9319 100.107 95.874 101.289 96.3668C102.471 96.8596 103.801 96.8627 104.985 96.3754L167.497 70.6516C168.681 70.1643 169.623 69.2265 170.116 68.0446C170.609 66.8626 170.612 65.5333 170.124 64.3491L151.75 19.6979C151.263 18.5137 150.325 17.5715 149.143 17.0787C147.961 16.5859 146.632 16.5829 145.448 17.0702ZM162.221 67.6013L106.854 90.3852L115.83 67.7905L111.338 66.0102L102.082 89.3205L86.1698 50.6526L125.285 66.8498C126.464 67.3372 127.788 67.3383 128.967 66.8529C130.147 66.3674 131.086 65.4349 131.581 64.2591L148.397 24.2367L164.474 63.3065L141.281 53.6365L139.428 58.0798L162.221 67.6013ZM87.698 46.0556L143.668 23.0236L127.128 62.3842L87.698 46.0556Z" fill="#4CA7FC"/>
</g>
<rect x="21.8706" y="69.5605" width="44" height="6" rx="3" transform="rotate(-22.3673 21.8706 69.5605)" fill="#4CA7FC"/>
<rect x="14.9021" y="97.2993" width="61" height="6" rx="3" transform="rotate(-22.3673 14.9021 97.2993)" fill="#4CA7FC"/>
<rect x="39.3756" y="112.1" width="44" height="6" rx="3" transform="rotate(-22.3673 39.3756 112.1)" fill="#4CA7FC"/>
<defs>
<clipPath id="clip0_2614_18630">
<rect width="86.9111" height="86.9111" fill="white" transform="translate(68.4934 33.0732) rotate(-22.3673)"/>
</clipPath>
</defs>
</svg>
