<svg width="32" height="32" viewBox="0 0 32 32" fill="none" xmlns="http://www.w3.org/2000/svg">
<path d="M19.1423 19.6716L20.191 21.9266C20.191 21.9266 24.9051 22.9276 24.9051 25.3084C24.9051 27 22.8078 27 22.8078 27H17.2222L14.4722 25.4722" stroke="#778083" stroke-width="1.5" stroke-linecap="round" stroke-linejoin="round"/>
<path d="M12.8576 19.6716L11.8102 21.9266C11.8102 21.9266 7.09485 22.9276 7.09485 25.3084C7.09485 27 9.19218 27 9.19218 27H11.7222L14.4722 25.4722L17.8333 23.3333" stroke="#778083" stroke-width="1.5" stroke-linecap="round" stroke-linejoin="round"/>
<path d="M5 20.7984C5 20.7984 7.61922 20.235 9.191 19.6716C10.7616 11.7784 15.4744 12.3419 16 12.3419C16.5243 12.3419 21.2384 11.7784 22.809 19.6716C24.3808 20.2338 27 20.7984 27 20.7984H5ZM16 9.88889C16.6483 9.88889 17.2701 9.63135 17.7285 9.17293C18.1869 8.71451 18.4444 8.09275 18.4444 7.44444C18.4444 6.79614 18.1869 6.17438 17.7285 5.71596C17.2701 5.25754 16.6483 5 16 5C15.3517 5 14.7299 5.25754 14.2715 5.71596C13.8131 6.17438 13.5556 6.79614 13.5556 7.44444C13.5556 8.09275 13.8131 8.71451 14.2715 9.17293C14.7299 9.63135 15.3517 9.88889 16 9.88889Z" stroke="#778083" stroke-width="1.5" stroke-linecap="round" stroke-linejoin="round"/>
</svg>
