<svg width="32" height="32" viewBox="0 0 32 32" fill="none" xmlns="http://www.w3.org/2000/svg">
<path d="M21 10.2H17V7H15V10.2H11V11.8H15V15H17V11.8H21V10.2Z" fill="#778083"/>
<path d="M27.1429 10.4286H25.2857V4.85714C25.2852 4.36475 25.0894 3.89266 24.7412 3.54449C24.3931 3.19631 23.921 3.00049 23.4286 3H8.57143C8.07903 3.00049 7.60695 3.19631 7.25877 3.54449C6.9106 3.89266 6.71478 4.36475 6.71429 4.85714V10.4286H4.85714C4.36475 10.4291 3.89266 10.6249 3.54449 10.9731C3.19631 11.3212 3.00049 11.7933 3 12.2857V29H29V12.2857C28.9995 11.7933 28.8037 11.3212 28.4555 10.9731C28.1073 10.6249 27.6353 10.4291 27.1429 10.4286V10.4286ZM14.1429 27.1429V21.5714H17.8571V27.1429H14.1429ZM19.7143 27.1429V20.6429C19.7143 20.3966 19.6165 20.1604 19.4423 19.9863C19.2682 19.8121 19.032 19.7143 18.7857 19.7143H13.2143C12.968 19.7143 12.7318 19.8121 12.5577 19.9863C12.3835 20.1604 12.2857 20.3966 12.2857 20.6429V27.1429H4.85714V12.2857H8.57143V4.85714H23.4286V12.2857H27.1429V27.1429H19.7143Z" fill="#778083"/>
</svg>
