<svg width="170" height="170" viewBox="0 0 170 170" fill="none" xmlns="http://www.w3.org/2000/svg">
<mask id="mask0_267_8513" style="mask-type:alpha" maskUnits="userSpaceOnUse" x="0" y="0" width="170" height="170">
<circle cx="85" cy="84.625" r="84.625" fill="#FFC122"/>
</mask>
<g mask="url(#mask0_267_8513)">
<circle cx="85" cy="84.625" r="84.625" fill="#3FCD67" fill-opacity="0.6"/>
<path d="M128.405 162.227C114.681 161.562 99.8203 154.369 91.5739 149.338C88.1894 153.189 80.2628 155.122 72.1897 155.008L68.3124 199.411L133.897 196.501C131.312 194.173 129.158 172.682 128.405 162.227Z" fill="#C4C4C4"/>
<path d="M88.0203 147.03H85.1126C81.6665 144.875 74.2574 140.822 72.1897 141.857C69.6051 143.15 67.0205 141.534 67.0205 140.564C67.0205 139.995 67.6866 135.426 69.6049 132.068C68.7434 130.05 65.8573 125.949 61.205 125.69C61.205 124.73 61.7393 120.784 62.7749 116.053L53.3286 118.751C49.7167 130.161 47.5229 141.843 50.8668 147.03C54.2514 152.281 63.3092 154.883 72.1897 155.008C80.2628 155.122 88.1894 153.189 91.5739 149.338C90.1912 148.494 88.9945 147.711 88.0203 147.03Z" fill="#E2857E"/>
<path d="M88.0203 135.714C93.5126 138.839 105.143 144.896 107.728 144.12C108.285 143.953 109.187 143.796 110.312 143.657L118.389 140.564C119.035 139.27 119.811 135.649 117.743 131.51C115.158 126.337 106.435 130.54 105.466 131.51C104.691 132.286 93.5125 134.636 88.0203 135.714Z" fill="#E2857E"/>
<path d="M85.1126 147.03H88.0203C88.9945 147.711 90.1912 148.494 91.5739 149.338C99.8203 154.369 114.681 161.562 128.405 162.227C139.105 162.745 143.628 147.577 145.225 131.51L125.82 119.87C124.851 129.893 127.435 139.594 128.405 144.12C126.265 142.782 115.716 142.995 110.312 143.657C109.187 143.796 108.285 143.953 107.728 144.12C105.143 144.896 93.5126 138.839 88.0203 135.714C86.1896 133.881 81.1714 129.893 75.7435 128.6C72.9363 127.931 70.9588 129.698 69.6049 132.068C67.6866 135.426 67.0205 139.995 67.0205 140.564C67.0205 141.534 69.6051 143.15 72.1897 141.857C74.2574 140.822 81.6665 144.875 85.1126 147.03Z" fill="#E2857E"/>
<path d="M81.8822 30.9526C79.8145 35.35 83.4596 40.5449 85.5407 42.5927C89.2749 42.3772 96.6787 42.5281 96.4202 44.8561C96.0971 47.7661 96.0971 56.4962 100.297 58.7595C104.497 61.0229 111.605 61.3462 112.251 62.3162C112.897 63.2862 111.928 69.7518 114.835 69.7518C137.451 63.2838 123.881 30.9526 119.682 29.3359C119.682 24.8092 105.143 23.5159 100.943 26.4259C96.7433 29.3359 93.1895 29.3359 90.6049 29.3359C89.3126 31.9226 87.2665 29.9826 86.4049 28.6893L85.1126 30.9526C84.6819 31.5993 83.4327 32.5046 81.8822 30.9526Z" fill="#303030"/>
<path d="M85.5407 42.5927C83.6303 45.6958 82.5283 49.3505 82.5283 53.2628C82.5283 64.0669 84.0793 74.3976 94.1587 75.1997C94.5748 75.2328 95.0054 75.2497 95.451 75.2497C97.8298 75.2497 107.544 73.2246 109.666 72.474C111.529 71.8152 113.267 70.8929 114.835 69.7518C111.928 69.7518 112.897 63.2862 112.251 62.3162C111.605 61.3462 104.497 61.0229 100.297 58.7595C96.0971 56.4962 96.0971 47.7661 96.4202 44.8561C96.6787 42.5281 89.2749 42.3772 85.5407 42.5927Z" fill="#E2857E"/>
<path d="M89.1595 87.5993L89.1898 81.4382C88.3391 81.6159 88.398 81.5596 87.8975 81.6486V83.75L89.1595 87.5993Z" fill="#E85D5D"/>
<path d="M93.0667 99.5165L93.2032 99.886L94.1587 102.473L95.0051 102.837V84.9832L93.0667 80.4859V99.5165Z" fill="#E85D5D"/>
<path d="M87.8975 81.6486C87.7465 81.6754 87.5446 81.7155 87.2514 81.7792L87.8975 83.75V81.6486Z" fill="#E85D5D"/>
<path d="M75.7435 128.6C81.1714 129.893 86.1896 133.881 88.0203 135.714C93.5125 134.636 104.691 132.286 105.466 131.51C106.435 130.54 115.158 126.337 117.743 131.51C119.811 135.649 119.035 139.27 118.389 140.564L110.312 143.657C115.716 142.995 126.265 142.782 128.405 144.12C127.435 139.594 124.851 129.893 125.82 119.87L145.225 131.51C146.617 117.501 145.784 102.809 144.881 97.2365C143.753 90.273 133.211 85.9387 124.151 83.3407C121.416 82.5565 118.816 81.9305 116.651 81.4382L114.39 85.9001L114.066 86.5375L113.47 87.7139L113.201 88.2459L112.774 89.0871L112.451 89.7245L110.551 93.4736L110.386 93.7994L108.574 97.3735L108.284 97.946L106.973 100.533L106.645 101.179L105.99 102.473L105.02 102.904L104.853 102.978L104.685 103.053L102.759 103.91L102.436 104.053L101.144 104.628L100.82 104.772L100.174 105.059L99.0404 104.572L98.882 104.504L96.9689 103.681L96.6205 103.531L95.3282 102.976L95.0051 102.837L94.1587 102.473L93.2032 99.886L93.0667 99.5165L92.854 98.8677L91.1283 93.6041L90.8052 92.6187L89.5129 88.6771L89.1595 87.5993L87.8975 83.75L87.2514 81.7792C85.7576 82.1038 82.532 82.8818 80.7899 83.3407C73.9182 85.1508 66.4683 88.0067 63.7898 93.0331C61.2957 97.7132 56.6959 108.114 53.3286 118.751L62.7749 116.053C61.7393 120.784 61.205 124.73 61.205 125.69C65.8573 125.949 68.7434 130.05 69.6049 132.068C70.9588 129.698 72.9363 127.931 75.7435 128.6Z" fill="white"/>
<path d="M90.4821 81.7792H89.836L90.159 82.4259L90.4821 81.7792Z" fill="#060606"/>
<path d="M90.159 82.4259L89.836 83.0726H90.4821L90.159 82.4259Z" fill="#060606"/>
<path d="M90.159 83.75L89.836 84.3659L90.159 85.0126L90.4821 84.3659L90.3206 84.058L90.159 83.75Z" fill="#060606"/>
<path d="M90.159 85.6593L89.836 86.3059L90.159 86.9526L90.4821 86.3059L90.159 85.6593Z" fill="#060606"/>
<path d="M90.4821 87.5993H89.836L90.159 88.2459L90.4821 87.5993Z" fill="#060606"/>
<path d="M90.159 88.2459L89.836 88.8926H90.4821L90.159 88.2459Z" fill="#060606"/>
<path d="M96.2974 91.4793H95.6513L95.9744 92.126L96.2974 91.4793Z" fill="#060606"/>
<path d="M95.9744 92.126L95.6513 92.7726H96.2974L95.9744 92.126Z" fill="#060606"/>
<path d="M95.9744 93.4193L95.6513 94.066L95.9744 94.7127L96.2974 94.066L95.9744 93.4193Z" fill="#060606"/>
<path d="M96.2974 95.3593H95.6513L95.9744 96.006L96.1359 95.6827L96.2974 95.3593Z" fill="#060606"/>
<path d="M95.9744 96.006L95.6513 96.6527H96.2974L95.9744 96.006Z" fill="#060606"/>
<path d="M95.9744 97.2993L95.6513 97.946L95.9744 98.5927L96.2974 97.946L95.9744 97.2993Z" fill="#060606"/>
<path d="M96.2974 99.2394H95.6513L95.9744 99.886L96.2974 99.2394Z" fill="#060606"/>
<path d="M95.9744 99.886L95.6513 100.533H96.2974L95.9744 99.886Z" fill="#060606"/>
<path d="M95.9744 101.179L95.6513 101.826L95.9744 102.473L96.2974 101.826L95.9744 101.179Z" fill="#060606"/>
<path fill-rule="evenodd" clip-rule="evenodd" d="M91.1283 87.3306V81.0571C91.6845 80.951 92.0996 80.8683 92.4206 80.7741C92.5885 80.7248 92.7307 80.6724 92.854 80.6118V98.8677L91.1283 93.6041V87.3306Z" fill="#E85D5D"/>
<path d="M93.0667 99.5165V80.4859C93.0022 80.532 92.9319 80.5735 92.854 80.6118V98.8677L93.0667 99.5165Z" fill="#060606"/>
<path fill-rule="evenodd" clip-rule="evenodd" d="M89.1595 87.5993L89.1898 81.4382C89.3006 81.4151 89.4082 81.3929 89.5129 81.3715V88.6771L89.1595 87.5993Z" fill="#060606"/>
<path d="M91.1283 87.3306V81.0571L90.9014 81.1002L90.8999 81.1005L90.8379 81.1123L90.8052 81.1185V92.6187L91.1283 93.6041V87.3306Z" fill="#060606"/>
<path fill-rule="evenodd" clip-rule="evenodd" d="M90.8052 92.6187V81.1185C90.4336 81.1891 90.0064 81.2708 89.5129 81.3715V88.6771L90.8052 92.6187ZM89.836 81.7792H90.4821L90.159 82.4259L90.4821 83.0726H89.836L90.159 82.4259L89.836 81.7792ZM89.836 84.3659L90.159 83.75L90.3206 84.058L90.4821 84.3659L90.159 85.0126L89.836 84.3659ZM89.836 86.3059L90.159 85.6593L90.4821 86.3059L90.159 86.9526L89.836 86.3059ZM89.836 87.5993H90.4821L90.159 88.2459L90.4821 88.8926H89.836L90.159 88.2459L89.836 87.5993Z" fill="#C4C4C4"/>
<path fill-rule="evenodd" clip-rule="evenodd" d="M95.6513 87.5993H96.1327L95.3282 85.7327V102.976L96.6205 103.531V88.7309L96.2083 87.7745L95.9744 88.2459L96.2974 88.8926H95.6513L95.9744 88.2459L95.6513 87.5993ZM95.6513 90.186L95.9744 89.5393L96.2974 90.186L95.9744 90.8326L95.6513 90.186ZM95.6513 91.4793H96.2974L95.9744 92.126L96.2974 92.7726H95.6513L95.9744 92.126L95.6513 91.4793ZM95.6513 94.066L95.9744 93.4193L96.2974 94.066L95.9744 94.7127L95.6513 94.066ZM95.6513 95.3593H96.2974L96.1359 95.6827L95.9744 96.006L96.2974 96.6527H95.6513L95.9744 96.006L95.6513 95.3593ZM95.6513 97.946L95.9744 97.2993L96.2974 97.946L95.9744 98.5927L95.6513 97.946ZM95.6513 99.2394H96.2974L95.9744 99.886L96.2974 100.533H95.6513L95.9744 99.886L95.6513 99.2394ZM95.6513 101.826L95.9744 101.179L96.2974 101.826L95.9744 102.473L95.6513 101.826Z" fill="#C4C4C4"/>
<path d="M95.0051 84.9832V102.837L95.3282 102.976V85.7327L95.0051 84.9832Z" fill="#060606"/>
<path d="M96.9689 103.681V89.5393L96.6205 88.7309V103.531L96.9689 103.681Z" fill="#060606"/>
<path d="M95.9744 89.5393L95.6513 90.186L95.9744 90.8326L96.2974 90.186L95.9744 89.5393Z" fill="#060606"/>
<path d="M95.9744 88.2459L95.6513 88.8926H96.2974L95.9744 88.2459Z" fill="#060606"/>
<path d="M96.1327 87.5993H95.6513L95.9744 88.2459L96.2083 87.7745L96.1327 87.5993Z" fill="#060606"/>
<path d="M96.9689 89.5393V103.681L98.882 104.504V93.9778L96.9689 89.5393Z" fill="#E85D5D"/>
<path d="M100.174 96.976L99.1988 94.7127L99.0404 94.3452V104.572L100.174 105.059L100.82 104.772V95.957L100.174 96.976Z" fill="#E85D5D"/>
<path d="M98.882 93.9778V104.504L99.0404 104.572V94.3452L98.882 93.9778Z" fill="#C4C4C4"/>
<path d="M100.82 95.957V104.772L101.144 104.628V95.4475L100.82 95.957Z" fill="black"/>
<path fill-rule="evenodd" clip-rule="evenodd" d="M101.144 95.4475V104.628L102.436 104.053V93.4095L101.144 95.4475ZM101.467 95.3593L101.79 94.7127L102.113 95.3593L101.79 96.006L101.467 95.3593ZM101.467 96.6527H102.113L101.79 97.2993L102.113 97.946H101.467L101.79 97.2993L101.467 96.6527ZM101.467 99.2394L101.79 98.5927L102.113 99.2394L101.79 99.886L101.467 99.2394ZM101.467 100.533H102.113L101.79 101.179L102.113 101.826H101.467L101.79 101.179L101.467 100.533ZM101.467 103.119L101.79 102.473L102.113 103.119L101.79 103.766L101.467 103.119Z" fill="#C4C4C4"/>
<path d="M101.79 94.7127L101.467 95.3593L101.79 96.006L102.113 95.3593L101.79 94.7127Z" fill="black"/>
<path d="M102.113 96.6527H101.467L101.79 97.2993L102.113 96.6527Z" fill="black"/>
<path d="M101.79 97.2993L101.467 97.946H102.113L101.79 97.2993Z" fill="black"/>
<path d="M101.79 98.5927L101.467 99.2394L101.79 99.886L102.113 99.2394L101.79 98.5927Z" fill="black"/>
<path d="M102.113 100.533H101.467L101.79 101.179L102.113 100.533Z" fill="black"/>
<path d="M101.79 101.179L101.467 101.826H102.113L101.79 101.179Z" fill="black"/>
<path d="M102.759 92.9V103.91L104.685 103.053V89.8626L102.759 92.9Z" fill="#E85D5D"/>
<path d="M102.759 103.91V92.9L102.436 93.4095V104.053L102.759 103.91Z" fill="black"/>
<path d="M101.79 102.473L101.467 103.119L101.79 103.766L102.113 103.119L101.79 102.473Z" fill="black"/>
<path d="M105.02 102.904L105.99 102.473L106.645 101.179L106.636 86.786L105.02 89.3335L104.853 89.5981V102.978L105.02 102.904Z" fill="#E85D5D"/>
<path d="M104.685 89.8626V103.053L104.853 102.978V89.5981L104.685 89.8626Z" fill="black"/>
<path d="M106.636 86.786L106.645 101.179L106.973 100.533V86.2543L106.636 86.786Z" fill="black"/>
<path fill-rule="evenodd" clip-rule="evenodd" d="M106.973 86.2543V100.533L108.284 97.946V84.1867L106.973 86.2543ZM107.282 86.3059L107.605 85.6593L107.928 86.3059L107.605 86.9526L107.282 86.3059ZM107.282 87.5993H107.928L107.605 88.2459L107.928 88.8926H107.282L107.605 88.2459L107.282 87.5993ZM107.282 90.186L107.605 89.5393L107.928 90.186L107.605 90.8326L107.282 90.186ZM107.282 91.4793H107.928L107.605 92.126L107.928 92.7726H107.282L107.605 92.126L107.282 91.4793ZM107.282 94.066L107.605 93.4193L107.928 94.066L107.605 94.7127L107.282 94.066ZM107.282 95.3593H107.928L107.605 96.006L107.767 96.3293L107.928 96.6527H107.282L107.605 96.006L107.282 95.3593ZM107.282 97.946L107.605 97.2993L107.928 97.946L107.605 98.5927L107.282 97.946Z" fill="#C4C4C4"/>
<path d="M107.605 97.2993L107.282 97.946L107.605 98.5927L107.928 97.946L107.605 97.2993Z" fill="black"/>
<path d="M107.605 96.006L107.282 96.6527H107.928L107.767 96.3293L107.605 96.006Z" fill="black"/>
<path d="M107.928 95.3593H107.282L107.605 96.006L107.928 95.3593Z" fill="black"/>
<path d="M107.605 93.4193L107.282 94.066L107.605 94.7127L107.928 94.066L107.605 93.4193Z" fill="black"/>
<path d="M107.605 92.126L107.282 92.7726H107.928L107.605 92.126Z" fill="black"/>
<path d="M107.928 91.4793H107.282L107.605 92.126L107.928 91.4793Z" fill="black"/>
<path d="M107.605 89.5393L107.282 90.186L107.605 90.8326L107.928 90.186L107.605 89.5393Z" fill="black"/>
<path d="M107.605 88.2459L107.282 88.8926H107.928L107.605 88.2459Z" fill="black"/>
<path d="M107.928 87.5993H107.282L107.605 88.2459L107.928 87.5993Z" fill="black"/>
<path d="M107.605 85.6593L107.282 86.3059L107.605 86.9526L107.928 86.3059L107.605 85.6593Z" fill="black"/>
<path d="M108.574 97.3735V83.729L108.284 84.1867V97.946L108.574 97.3735Z" fill="black"/>
<path d="M108.574 83.729V97.3735L110.386 93.7994V80.8722L110.221 81.1325L108.574 83.729Z" fill="#E85D5D"/>
<path d="M110.551 93.4736V80.6118L110.386 80.8722V93.7994L110.551 93.4736Z" fill="black"/>
<path d="M110.959 80.0997L110.551 80.6118V93.4736L112.451 89.7245V80.5027C111.707 80.3315 111.189 80.1987 110.959 80.0997Z" fill="#E85D5D"/>
<path d="M112.451 80.5027V89.7245L112.774 89.0871V80.5763C112.662 80.551 112.554 80.5265 112.451 80.5027Z" fill="black"/>
<path fill-rule="evenodd" clip-rule="evenodd" d="M112.774 80.5763V89.0871L113.201 88.2459H113.097L113.413 87.5993L113.097 86.9526H113.743L113.413 87.5993L113.47 87.7139L114.066 86.5375V80.8629C113.59 80.7582 113.158 80.6628 112.774 80.5763ZM113.097 81.7792L113.42 81.1325L113.743 81.7792L113.42 82.4259L113.097 81.7792ZM113.097 83.0726H113.743L113.42 83.7192L113.743 84.3659H113.097L113.413 83.7052L113.097 83.0726ZM113.097 85.6593L113.42 85.0126L113.743 85.6593L113.42 86.3059L113.097 85.6593Z" fill="#C4C4C4"/>
<path d="M113.42 81.1325L113.097 81.7792L113.42 82.4259L113.743 81.7792L113.42 81.1325Z" fill="black"/>
<path d="M113.743 83.0726H113.097L113.413 83.7052L113.42 83.7192L113.743 83.0726Z" fill="black"/>
<path d="M113.42 83.7192L113.413 83.7052L113.097 84.3659H113.743L113.42 83.7192Z" fill="black"/>
<path d="M113.42 85.0126L113.097 85.6593L113.42 86.3059L113.743 85.6593L113.42 85.0126Z" fill="black"/>
<path d="M113.743 86.9526H113.097L113.413 87.5993L113.743 86.9526Z" fill="black"/>
<path d="M113.413 87.5993L113.097 88.2459H113.201L113.47 87.7139L113.413 87.5993Z" fill="black"/>
<path d="M114.066 80.8629V86.5375L114.39 85.9001V80.934L114.066 80.8629Z" fill="black"/>
<path d="M116.651 81.4382C115.829 81.2513 115.07 81.0837 114.39 80.934V85.9001L116.651 81.4382Z" fill="#E85D5D"/>
<path d="M109.666 72.474C107.544 73.2246 97.8298 75.2497 95.451 75.2497C95.0054 75.2497 94.5748 75.2328 94.1587 75.1997C94.9125 76.2941 94.8759 79.1925 93.0667 80.4859L95.0051 84.9832L95.3282 85.7327L96.1327 87.5993L96.2083 87.7745L96.6205 88.7309L96.9689 89.5393L98.882 93.9778L99.0404 94.3452L99.1988 94.7127L100.174 96.976L100.82 95.957L101.144 95.4475L102.436 93.4095L102.759 92.9L104.685 89.8626L104.853 89.5981L105.02 89.3335L106.636 86.786L106.973 86.2543L108.284 84.1867L108.574 83.729L110.221 81.1325L110.386 80.8722L110.551 80.6118L110.959 80.0997C109.149 79.3237 109.343 74.6925 109.666 72.474Z" fill="#E2857E"/>
<path d="M97.7123 233.684L109.02 345.559C109.725 347.463 110.752 351.027 111.016 354.352H124.931C124.748 332.71 136.91 199.215 133.897 196.501L68.3124 199.411L65.0817 232.068L58.6202 291.238L54.6883 347.238L66.6972 350.085C69.928 347.822 81.5586 304.818 81.5586 293.502C84.9186 289.363 93.7278 251.899 97.7123 233.684Z" fill="#040404"/>
<path d="M64.4357 359.139C63.7896 357.845 63.4665 352.349 66.6972 350.085L54.6883 347.238L54.4203 351.055C54.851 353.75 55.1311 358.751 52.8051 357.199C37.2975 351.767 34.9283 357.738 35.6822 361.402C43.2206 363.773 58.8789 368.516 61.205 368.516C64.1127 368.516 65.0819 360.432 64.4357 359.139Z" fill="#E2857E"/>
<path d="M131.635 368.516C135.512 366.252 127.435 361.725 125.174 357.199C125.021 356.894 124.944 355.914 124.931 354.352H111.016C111.156 356.108 111.082 357.797 110.635 359.139C100.62 372.396 127.758 370.779 131.635 368.516Z" fill="#E2857E"/>
<path d="M48.035 29.7251C41.2929 29.7251 36.9259 32.5149 33.4974 37.4903C32.8755 38.3928 33.0672 39.6303 33.9348 40.2947L37.5786 43.085C38.4548 43.756 39.7015 43.5991 40.3874 42.7312C42.5033 40.0541 44.0728 38.5128 47.3778 38.5128C49.9764 38.5128 53.1906 40.2018 53.1906 42.7467C53.1906 44.6705 51.618 45.6586 49.0522 47.1114C46.0601 48.8056 42.1005 50.914 42.1005 56.1885V57.0235C42.1005 58.1542 43.0082 59.0709 44.1278 59.0709H50.2493C51.3689 59.0709 52.2765 58.1542 52.2765 57.0235V56.531C52.2765 52.8747 62.8577 52.7225 62.8577 42.8283C62.8578 35.3772 55.2048 29.7251 48.035 29.7251ZM47.1886 61.5839C43.9622 61.5839 41.3374 64.2349 41.3374 67.4933C41.3374 70.7516 43.9622 73.4025 47.1886 73.4025C50.4149 73.4025 53.0398 70.7516 53.0398 67.4932C53.0398 64.2348 50.4149 61.5839 47.1886 61.5839Z" fill="white"/>
</g>
</svg>
