<svg width="35" height="31" viewBox="0 0 35 31" fill="none" xmlns="http://www.w3.org/2000/svg">
<path d="M4 15C4 7.8203 9.8203 2 17 2V2C24.1797 2 30 7.8203 30 15V15C30 22.1797 24.1797 28 17 28V28C9.8203 28 4 22.1797 4 15V15Z" fill="white"/>
<path fill-rule="evenodd" clip-rule="evenodd" d="M17 21.5C20.5899 21.5 23.5 18.5899 23.5 15C23.5 11.4101 20.5899 8.5 17 8.5C13.4101 8.5 10.5 11.4101 10.5 15C10.5 18.5899 13.4101 21.5 17 21.5ZM19.4375 12.5625C19.1202 12.2452 18.6058 12.2452 18.2885 12.5625L17 13.851L15.7115 12.5625C15.3942 12.2452 14.8798 12.2452 14.5625 12.5625C14.2452 12.8798 14.2452 13.3942 14.5625 13.7115L15.851 15L14.5625 16.2885C14.2452 16.6058 14.2452 17.1202 14.5625 17.4375C14.8798 17.7548 15.3942 17.7548 15.7115 17.4375L17 16.149L18.2885 17.4375C18.6058 17.7548 19.1202 17.7548 19.4375 17.4375C19.7548 17.1202 19.7548 16.6058 19.4375 16.2885L18.149 15L19.4375 13.7115C19.7548 13.3942 19.7548 12.8798 19.4375 12.5625Z" fill="#E2E4E4"/>
<path d="M17 26C10.9249 26 6 21.0751 6 15H2C2 23.2843 8.71573 30 17 30V26ZM28 15C28 21.0751 23.0751 26 17 26V30C25.2843 30 32 23.2843 32 15H28ZM17 4C23.0751 4 28 8.92487 28 15H32C32 6.71573 25.2843 0 17 0V4ZM17 0C8.71573 0 2 6.71573 2 15H6C6 8.92487 10.9249 4 17 4V0Z" fill="#E2E4E4"/>
</svg>
