<svg width="25" height="25" viewBox="0 0 25 25" fill="none" xmlns="http://www.w3.org/2000/svg">
<path d="M0 12.5C0 5.59644 5.59644 0 12.5 0V0C19.4036 0 25 5.59644 25 12.5V12.5C25 19.4036 19.4036 25 12.5 25V25C5.59644 25 0 19.4036 0 12.5V12.5Z" fill="white"/>
<path fill-rule="evenodd" clip-rule="evenodd" d="M12.5 18.75C15.9518 18.75 18.75 15.9518 18.75 12.5C18.75 9.04822 15.9518 6.25 12.5 6.25C9.04822 6.25 6.25 9.04822 6.25 12.5C6.25 15.9518 9.04822 18.75 12.5 18.75ZM14.8438 10.1562C14.5387 9.85115 14.044 9.85115 13.7389 10.1563L12.5 11.3951L11.2611 10.1562C10.956 9.85115 10.4613 9.85115 10.1562 10.1562C9.85115 10.4613 9.85115 10.956 10.1563 11.2611L11.3951 12.5L10.1562 13.7389C9.85115 14.044 9.85115 14.5387 10.1562 14.8438C10.4613 15.1488 10.956 15.1488 11.2611 14.8437L12.5 13.6049L13.7389 14.8438C14.044 15.1488 14.5387 15.1488 14.8438 14.8438C15.1488 14.5387 15.1488 14.044 14.8437 13.7389L13.6049 12.5L14.8438 11.2611C15.1488 10.956 15.1488 10.4613 14.8438 10.1562Z" fill="#E2E4E4"/>
<path d="M12.5 23C6.70101 23 2 18.299 2 12.5H-2C-2 20.5081 4.49187 27 12.5 27V23ZM23 12.5C23 18.299 18.299 23 12.5 23V27C20.5081 27 27 20.5081 27 12.5H23ZM12.5 2C18.299 2 23 6.70101 23 12.5H27C27 4.49187 20.5081 -2 12.5 -2V2ZM12.5 -2C4.49187 -2 -2 4.49187 -2 12.5H2C2 6.70101 6.70101 2 12.5 2V-2Z" fill="#E2E4E4"/>
</svg>
