<svg width="32" height="32" viewBox="0 0 32 32" fill="none" xmlns="http://www.w3.org/2000/svg">
<path fill-rule="evenodd" clip-rule="evenodd" d="M15.2929 5.29289C15.6834 4.90237 16.3166 4.90237 16.7071 5.29289L26.7071 15.2929C26.9931 15.5789 27.0787 16.009 26.9239 16.3827C26.7691 16.7564 26.4045 17 26 17H24.78V25C24.78 26.1046 23.8846 27 22.78 27H9.22003C8.11546 27 7.22003 26.1046 7.22003 25V17H6.00003C5.59557 17 5.23093 16.7564 5.07615 16.3827C4.92137 16.009 5.00692 15.5789 5.29292 15.2929L15.2929 5.29289ZM9.22003 16.0672V25H11.6667V19.3333C11.6667 18.4787 12.0062 17.6591 12.6105 17.0548C13.2148 16.4505 14.0343 16.1111 14.8889 16.1111H17.1111C17.9657 16.1111 18.7853 16.4505 19.3896 17.0548C19.9939 17.6591 20.3334 18.4787 20.3334 19.3333V25H22.78V16.0673C22.7786 16.045 22.7778 16.0226 22.7778 16C22.7778 15.5079 23.1332 15.0989 23.6013 15.0155L16 7.41421L8.39872 15.0155C8.86684 15.0989 9.22225 15.5079 9.22225 16C9.22225 16.0226 9.2215 16.045 9.22003 16.0672ZM18.3334 25V19.3333C18.3334 19.0091 18.2046 18.6982 17.9754 18.469C17.7462 18.2398 17.4353 18.1111 17.1111 18.1111H14.8889C14.5648 18.1111 14.2539 18.2398 14.0247 18.469C13.7955 18.6982 13.6667 19.0091 13.6667 19.3333V25H18.3334Z" fill="#778083"/>
</svg>
