<svg width="71" height="73" viewBox="0 0 71 73" fill="none" xmlns="http://www.w3.org/2000/svg">
<path d="M71 36.0299C71 55.9286 55.1061 72.0597 35.5 72.0597C15.8939 72.0597 0 55.9286 0 36.0299C0 16.1311 15.8939 0 35.5 0C55.1061 0 71 16.1311 71 36.0299Z" fill="white"/>
<path d="M69.0278 35.5294C69.0278 54.3227 54.0169 69.5576 35.5 69.5576C16.9831 69.5576 1.97222 54.3227 1.97222 35.5294C1.97222 16.7362 16.9831 1.50124 35.5 1.50124C54.0169 1.50124 69.0278 16.7362 69.0278 35.5294Z" fill="#4CA7FC"/>
<path d="M67.0556 35.5294C67.0556 53.2172 52.9277 67.556 35.5 67.556C18.0723 67.556 3.94444 53.2172 3.94444 35.5294C3.94444 17.8417 18.0723 3.5029 35.5 3.5029C52.9277 3.5029 67.0556 17.8417 67.0556 35.5294Z" fill="white"/>
<path d="M47.2695 25.6399C45.5572 22.7525 37.8162 22.14 36.9422 22.0612L35.9612 22V39.7535C35.7344 39.5736 35.4928 39.4126 35.2388 39.2722C34.343 38.8299 33.3653 38.57 32.3644 38.5084C31.3635 38.4467 30.3603 38.5845 29.4152 38.9135C25.7408 40.0772 23.3775 43.4021 24.1445 46.3246C24.3154 46.9427 24.6143 47.5196 25.0224 48.0193C25.4305 48.5191 25.9392 48.9311 26.5167 49.2295C27.5068 49.7478 28.6141 50.0126 29.7362 49.9995C30.6392 49.9988 31.5363 49.857 32.3939 49.5795C35.6936 48.5383 37.9232 45.7559 37.7983 43.0872V27.6787C38.6902 27.7837 39.912 27.9674 41.2051 28.2386C42.4852 28.4296 43.7151 28.8635 44.8259 29.5161C45.7178 30.0936 45.1648 31.1786 45.1202 31.2661C44.6939 31.9011 44.1975 32.488 43.6398 33.0161C43.4776 33.1739 43.3833 33.3867 43.3764 33.6107C43.3694 33.8348 43.4503 34.0528 43.6024 34.22C43.7546 34.3872 43.9663 34.4908 44.1939 34.5094C44.4216 34.5279 44.6478 34.4601 44.8259 34.3198C45.0132 34.1185 49.7845 29.8749 47.2695 25.6399Z" fill="#4CA7FC"/>
</svg>
