<svg width="71" height="73" viewBox="0 0 71 73" fill="none" xmlns="http://www.w3.org/2000/svg">
<path d="M71 36.0299C71 55.9286 55.1061 72.0597 35.5 72.0597C15.8939 72.0597 0 55.9286 0 36.0299C0 16.1311 15.8939 0 35.5 0C55.1061 0 71 16.1311 71 36.0299Z" fill="white"/>
<path d="M69.0278 35.5294C69.0278 54.3227 54.0169 69.5576 35.5 69.5576C16.9831 69.5576 1.97222 54.3227 1.97222 35.5294C1.97222 16.7362 16.9831 1.50124 35.5 1.50124C54.0169 1.50124 69.0278 16.7362 69.0278 35.5294Z" fill="#4CA7FC"/>
<path d="M67.0556 35.5294C67.0556 53.2172 52.9277 67.556 35.5 67.556C18.0723 67.556 3.94444 53.2172 3.94444 35.5294C3.94444 17.8417 18.0723 3.5029 35.5 3.5029C52.9277 3.5029 67.0556 17.8417 67.0556 35.5294Z" fill="white"/>
<path d="M47.8433 31.5607H31.1868L47.2794 26.6546C47.4258 26.6081 47.5626 26.5288 47.6818 26.4214C47.801 26.314 47.9001 26.1806 47.9734 26.0289C48.0519 25.8825 48.1028 25.719 48.1227 25.5489C48.1426 25.3788 48.1311 25.2059 48.0891 25.0411L46.889 19.9539C46.8135 19.6193 46.6803 19.3053 46.497 19.03C46.3138 18.7547 46.0843 18.5238 45.8218 18.3506C45.5594 18.1774 45.2693 18.0655 44.9684 18.0213C44.6676 17.9772 44.362 18.0017 44.0695 18.0935L21.7163 24.9094C21.4219 24.9972 21.1458 25.1507 20.9039 25.361C20.6621 25.5712 20.4593 25.834 20.3073 26.1342C20.1553 26.4343 20.0572 26.7659 20.0186 27.1096C19.98 27.4532 20.0017 27.8022 20.0824 28.1363L21.2391 33.0589V47.3658C21.2391 48.0644 21.4829 48.7345 21.9167 49.2285C22.3505 49.7225 22.939 50 23.5525 50H46.6866C47.3001 50 47.8886 49.7225 48.3224 49.2285C48.7563 48.7345 49 48.0644 49 47.3658V32.8778C49 32.5285 48.8781 32.1935 48.6612 31.9465C48.4443 31.6995 48.1501 31.5607 47.8433 31.5607ZM35.2641 23.4935L39.515 26.2924L32.6182 28.3997L28.3673 25.6009L35.2641 23.4935ZM44.6624 20.6289L45.5588 24.4484L42.667 25.321L38.4162 22.5386L44.6624 20.6289ZM25.2008 26.5722L29.4517 29.3546L23.22 31.2644L22.3091 27.4448L25.2008 26.5722ZM46.6866 47.3658H23.5525V34.1949H46.6866V47.3658Z" fill="#4CA7FC"/>
</svg>
