<svg width="71" height="73" viewBox="0 0 71 73" fill="none" xmlns="http://www.w3.org/2000/svg">
<path d="M71 36.0299C71 55.9286 55.1061 72.0597 35.5 72.0597C15.8939 72.0597 0 55.9286 0 36.0299C0 16.1311 15.8939 0 35.5 0C55.1061 0 71 16.1311 71 36.0299Z" fill="white"/>
<path d="M69.0278 35.5294C69.0278 54.3227 54.0169 69.5576 35.5 69.5576C16.9831 69.5576 1.97222 54.3227 1.97222 35.5294C1.97222 16.7362 16.9831 1.50124 35.5 1.50124C54.0169 1.50124 69.0278 16.7362 69.0278 35.5294Z" fill="#4CA7FC"/>
<path d="M67.0556 35.5294C67.0556 53.2172 52.9277 67.556 35.5 67.556C18.0723 67.556 3.94444 53.2172 3.94444 35.5294C3.94444 17.8417 18.0723 3.5029 35.5 3.5029C52.9277 3.5029 67.0556 17.8417 67.0556 35.5294Z" fill="white"/>
<path d="M22.0625 41.75L32.125 37.4375L47.9375 44.625M47.9375 23.925V48.075C47.9375 48.3037 47.8466 48.5231 47.6849 48.6849C47.5231 48.8466 47.3037 48.9375 47.075 48.9375H22.925C22.6963 48.9375 22.4769 48.8466 22.3151 48.6849C22.1534 48.5231 22.0625 48.3037 22.0625 48.075V23.925C22.0625 23.6963 22.1534 23.4769 22.3151 23.3151C22.4769 23.1534 22.6963 23.0625 22.925 23.0625H47.075C47.3037 23.0625 47.5231 23.1534 47.6849 23.3151C47.8466 23.4769 47.9375 23.6963 47.9375 23.925ZM40.75 33.125C39.9875 33.125 39.2562 32.8221 38.7171 32.2829C38.1779 31.7438 37.875 31.0125 37.875 30.25C37.875 29.4875 38.1779 28.7562 38.7171 28.2171C39.2562 27.6779 39.9875 27.375 40.75 27.375C41.5125 27.375 42.2438 27.6779 42.7829 28.2171C43.3221 28.7562 43.625 29.4875 43.625 30.25C43.625 31.0125 43.3221 31.7438 42.7829 32.2829C42.2438 32.8221 41.5125 33.125 40.75 33.125Z" stroke="#4CA7FC" stroke-width="3" stroke-linecap="round" stroke-linejoin="round"/>
</svg>
