<svg width="95" height="75" viewBox="0 0 95 75" fill="none" xmlns="http://www.w3.org/2000/svg">
<path d="M84 38.0299C84 57.9286 68.1061 74.0597 48.5 74.0597C28.8939 74.0597 13 57.9286 13 38.0299C13 18.1311 28.8939 2 48.5 2C68.1061 2 84 18.1311 84 38.0299Z" fill="white"/>
<path d="M82.0278 37.5294C82.0278 56.3227 67.0169 71.5576 48.5 71.5576C29.9831 71.5576 14.9722 56.3227 14.9722 37.5294C14.9722 18.7362 29.9831 3.50124 48.5 3.50124C67.0169 3.50124 82.0278 18.7362 82.0278 37.5294Z" fill="#4CA7FC"/>
<path d="M80.0556 37.5294C80.0556 55.2172 65.9277 69.556 48.5 69.556C31.0723 69.556 16.9444 55.2172 16.9444 37.5294C16.9444 19.8417 31.0723 5.5029 48.5 5.5029C65.9277 5.5029 80.0556 19.8417 80.0556 37.5294Z" fill="white"/>
<path d="M41.6451 56C42.5191 56 43.2342 55.2957 43.2342 54.4348C43.2342 53.5739 42.5191 52.8696 41.6451 52.8696C40.7711 52.8696 40.056 53.5739 40.056 54.4348C40.056 55.2957 40.7711 56 41.6451 56ZM48.0017 56C48.8757 56 49.5908 55.2957 49.5908 54.4348C49.5908 53.5739 48.8757 52.8696 48.0017 52.8696C47.1277 52.8696 46.4125 53.5739 46.4125 54.4348C46.4125 55.2957 47.1277 56 48.0017 56ZM54.3583 56C55.2323 56 55.9474 55.2957 55.9474 54.4348C55.9474 53.5739 55.2323 52.8696 54.3583 52.8696C53.4843 52.8696 52.7691 53.5739 52.7691 54.4348C52.7691 55.2957 53.4843 56 54.3583 56ZM43.2342 34.087V24.6957C43.2342 22.0974 45.3637 20 48.0017 20C50.6397 20 52.7691 22.0974 52.7691 24.6957V34.087C52.7691 36.6852 50.6397 38.7826 48.0017 38.7826C45.3637 38.7826 43.2342 36.6852 43.2342 34.087ZM57.3936 34.087C58.3629 34.087 59.1257 34.9322 58.9827 35.8713C58.204 40.567 54.3901 44.2296 49.5908 44.9183V48.1739C49.5908 49.0348 48.8757 49.7391 48.0017 49.7391C47.1277 49.7391 46.4125 49.0348 46.4125 48.1739V44.9183C41.6133 44.2296 37.7994 40.567 37.0207 35.8713C36.8618 34.9322 37.6404 34.087 38.6098 34.087C39.3885 34.087 40.0401 34.6504 40.1672 35.4174C40.8187 39.1113 44.0765 41.913 48.0017 41.913C51.9269 41.913 55.1846 39.1113 55.8362 35.4174C55.9633 34.6504 56.6149 34.087 57.3936 34.087Z" fill="#4CA7FC"/>
</svg>
