<svg width="71" height="73" viewBox="0 0 71 73" fill="none" xmlns="http://www.w3.org/2000/svg">
<path d="M71 36.0299C71 55.9286 55.1061 72.0597 35.5 72.0597C15.8939 72.0597 0 55.9286 0 36.0299C0 16.1311 15.8939 0 35.5 0C55.1061 0 71 16.1311 71 36.0299Z" fill="white"/>
<path d="M69.0278 35.5294C69.0278 54.3227 54.0169 69.5576 35.5 69.5576C16.9831 69.5576 1.97222 54.3227 1.97222 35.5294C1.97222 16.7362 16.9831 1.50124 35.5 1.50124C54.0169 1.50124 69.0278 16.7362 69.0278 35.5294Z" fill="#4CA7FC"/>
<path d="M67.0556 35.5294C67.0556 53.2172 52.9277 67.556 35.5 67.556C18.0723 67.556 3.94444 53.2172 3.94444 35.5294C3.94444 17.8417 18.0723 3.5029 35.5 3.5029C52.9277 3.5029 67.0556 17.8417 67.0556 35.5294Z" fill="white"/>
<path d="M50 29.3333V27.6667L45 31L40 27.6667V29.3333L45 32.6667L50 29.3333ZM51.6667 21H18.3333C16.5 21 15 22.5 15 24.3333V47.6667C15 49.5 16.5 51 18.3333 51H51.6667C53.5 51 54.9833 49.5 54.9833 47.6667L55 24.3333C55 22.5 53.5 21 51.6667 21ZM28.3333 26C31.1 26 33.3333 28.2333 33.3333 31C33.3333 33.7667 31.1 36 28.3333 36C25.5667 36 23.3333 33.7667 23.3333 31C23.3333 28.2333 25.5667 26 28.3333 26ZM38.3333 46H18.3333V44.3333C18.3333 41 25 39.1667 28.3333 39.1667C31.6667 39.1667 38.3333 41 38.3333 44.3333V46ZM51.6667 36H38.3333V26H51.6667V36Z" fill="#4CA7FC"/>
<path d="M48.75 23C47.7837 23 47 23.7456 47 24.6654C47 25.4079 47.3063 27.1702 50.3208 28.9517C50.3748 28.9833 50.4368 29 50.5 29C50.5632 29 50.6252 28.9833 50.6792 28.9517C53.6938 27.1702 54 25.4079 54 24.6654C54 23.7456 53.2164 23 52.25 23C51.2836 23 50.5 24.0093 50.5 24.0093C50.5 24.0093 49.7164 23 48.75 23Z" fill="#FC4C51"/>
</svg>
