<svg width="32" height="32" viewBox="0 0 32 32" fill="none" xmlns="http://www.w3.org/2000/svg">
<path fill-rule="evenodd" clip-rule="evenodd" d="M16.3792 5.12842C16.0747 4.95719 15.703 4.95719 15.3986 5.12842L6.5242 10.1203C6.36348 10.207 6.22458 10.3388 6.12842 10.5097C6.03788 10.6707 5.9967 10.846 6 11.0182V21C6 21.3613 6.19486 21.6945 6.50974 21.8716L15.383 26.8628C15.5314 26.95 15.7043 27 15.8889 27C15.9028 27 15.9166 26.9997 15.9305 26.9991C16.0994 26.9922 16.2575 26.9434 16.3946 26.8629L25.268 21.8716C25.5829 21.6945 25.7778 21.3613 25.7778 21V11.0174C25.7808 10.853 25.7433 10.6857 25.6609 10.5309C25.6537 10.5172 25.6461 10.5038 25.6383 10.4905C25.5427 10.329 25.4084 10.2039 25.2539 10.1205L20.839 7.63708C20.8293 7.63144 20.8196 7.62598 20.8098 7.62068L16.3792 5.12842ZM18.2936 8.49999L15.8889 7.14735L9.03973 11L11.4444 12.3526L18.2936 8.49999ZM8 12.7098V20.4152L14.8889 24.2902V16.5848L10.9686 14.3797C10.9583 14.3742 10.9481 14.3684 10.938 14.3625L8 12.7098ZM16.8889 24.2902L23.7778 20.4152V12.7098L16.8889 16.5848V24.2902ZM22.738 11L20.3333 9.64734L13.4842 13.5L15.8889 14.8526L22.738 11Z" fill="#778083"/>
</svg>
