<svg width="32" height="32" viewBox="0 0 32 32" fill="none" xmlns="http://www.w3.org/2000/svg">
<path d="M7.98087 10.8313C7.61262 8.26904 9.3228 5.9675 11.9353 5.12428C12.3989 4.97455 12.8991 5.01717 13.334 5.24347C13.7689 5.46978 14.1058 5.86273 14.276 6.34227L15.1147 8.70491C15.2497 9.08499 15.2741 9.49903 15.1848 9.89388C15.0955 10.2887 14.8965 10.6464 14.6134 10.9209L12.1185 13.3345C11.9955 13.4537 11.9039 13.6045 11.8525 13.7723C11.8011 13.9401 11.7918 14.119 11.8254 14.2917L11.8486 14.3977L11.9083 14.6624C12.2186 15.9489 12.6914 17.1855 13.3139 18.3388C13.992 19.5643 14.8335 20.6803 15.8126 21.6526L15.8898 21.7259C16.0143 21.8427 16.1654 21.9234 16.3283 21.9602C16.4911 21.9969 16.6602 21.9885 16.8191 21.9357L20.0447 20.8623C20.4113 20.7407 20.8039 20.7376 21.1722 20.8534C21.5405 20.9692 21.8676 21.1985 22.1116 21.5121L23.6386 23.4694C24.2749 24.2841 24.1978 25.4817 23.467 26.2007C21.4676 28.1702 18.7182 28.5735 16.8056 26.9502C14.4611 24.9525 12.4847 22.516 10.9751 19.7625C9.45331 17.0111 8.43679 13.981 7.97895 10.8313H7.98087ZM13.848 14.4262L15.9148 12.422C16.4814 11.8732 16.8797 11.158 17.0587 10.3683C17.2377 9.57857 17.1891 8.75037 16.9193 7.99001L16.0826 5.62736C15.74 4.66244 15.0621 3.8718 14.1869 3.41654C13.3118 2.96128 12.3052 2.87567 11.3723 3.17714C8.12741 4.22607 5.5226 7.29954 6.07403 11.1388C6.45964 13.8192 7.34847 17.2288 9.30931 20.789C10.938 23.758 13.0699 26.385 15.5986 28.5389C18.4676 30.9728 22.2967 30.1418 24.7839 27.6936C25.4956 26.9936 25.9275 26.0331 25.9917 25.0081C26.0558 23.9831 25.7473 22.9709 25.129 22.1781L23.602 20.2187C23.1135 19.5924 22.459 19.1344 21.7225 18.9036C20.986 18.6728 20.201 18.6797 19.4682 18.9233L16.7902 19.8134C16.0987 19.0603 15.493 18.2243 14.9855 17.3224C14.4952 16.4107 14.1132 15.4386 13.848 14.4282V14.4262Z" fill="#778083"/>
</svg>
