<svg width="328" height="100" viewBox="0 0 328 100" fill="none" xmlns="http://www.w3.org/2000/svg">
<path d="M0 10.0457C0 4.52283 4.47715 0.0456853 10 0.0456853H318C323.523 0.0456853 328 4.52284 328 10.0457V89.8647C328 95.3876 323.523 99.8647 318 99.8647H9.99999C4.47714 99.8647 0 95.3875 0 89.8647V10.0457Z" fill="url(#paint0_radial_1702_16565)"/>
<path d="M158.359 25.6592L164.216 28.008L169.291 29.5492C169.553 29.6287 169.836 29.5966 170.073 29.4605L170.207 29.384C170.986 28.9371 170.755 27.7565 169.865 27.6355C169.757 27.6208 169.652 27.5875 169.555 27.5365C168.263 26.8582 165.768 25.5534 165.052 25.1994C164.123 24.7395 163.193 24.7873 162.612 24.4229C162.217 24.1755 159.68 23.482 158.964 22.6938C158.247 21.9031 160.132 21.5005 161.2 21.4622C162.973 21.3986 164.91 21.3926 167.144 21.0782C170.072 20.6661 167.261 20.4895 167.144 20.0961C167.028 19.7028 165.982 19.4297 165.052 19.4297C164.123 19.4297 161.217 19.5475 159.59 19.4297C157.963 19.312 156.452 19.2531 154.593 18.9587C152.733 18.6643 153.198 18.7821 152.501 18.4289C151.804 18.0756 153.198 17.8707 153.198 15.8384C153.198 15.0421 153.967 15.3982 153.198 15.0141C152.43 14.6301 153.082 14.3077 149.131 12.2471C146.806 11.3639 148.085 12.2471 145.179 11.8349C142.274 11.4228 141.461 11.8349 139.081 11.8349H137.044C135.688 11.8742 132.442 12.0116 130.304 12.2471C127.631 12.5414 124.958 12.2471 124.261 12.2471H119.379C118.101 12.2471 116.59 12.6783 113.917 12.6783C111.779 12.6783 111.322 12.3908 111.361 12.2471C111.399 12.0508 112.592 11.3404 117.055 10.0687C117.752 9.89209 119.844 9.65659 125.539 8.36136C131.233 7.06613 127.863 8.24361 130.885 7.83149C133.906 7.41937 131.931 7.65487 137.044 6.99141C138.671 6.99141 139.081 6.65401 140.789 6.35964C142.497 6.06527 141.809 6.00639 142.739 5.7709C143.669 5.5354 144.482 5.35878 144.482 5.01361C144.482 4.66843 145.761 4.71116 145.761 4.53454C145.761 4.20875 145.63 3.89398 145.376 3.69006C145.108 3.4752 144.772 3.23919 144.482 3.12156C143.901 2.88606 142.158 2.76831 140.789 2.59169C139.647 2.4443 138.401 2.05496 137.25 2.05496C136.762 2.05496 136.279 2.04134 135.909 2.00295C135 1.90875 133.575 1.76745 132.977 1.70858L129.059 1.34773C128.265 1.27456 127.482 1.1066 126.727 0.847431L125.84 0.542448C124.794 0.183302 123.696 0 122.591 0H24.5997C23.5375 0 22.6765 0.861051 22.6765 1.92321C22.6765 2.03398 22.7581 2.17575 22.894 2.33464C24.0843 3.72685 26.0853 4.02008 27.9145 4.1138C30.2831 4.23515 33.7418 4.49876 37.8066 5.01361C45.6157 6.00271 44.1515 5.01361 52.9367 4.0245C61.7219 3.0354 60.0137 4.0245 63.1861 4.0245C66.3586 4.0245 69.0434 3.90088 71.7273 4.0245C74.4114 4.14813 74.6558 4.5191 76.12 5.01361C77.5842 5.50811 75.8759 6.24965 74.6558 6.99141C73.4356 7.73316 72.2154 8.22761 69.0433 8.72211C65.8713 9.21662 65.1384 10.2056 61.966 10.9474C58.7935 11.6892 57.3293 12.1838 54.6453 12.6783C51.9613 13.1728 52.6929 14.0381 51.9607 14.6562C51.2286 15.2744 52.449 16.6347 54.6453 16.6347C56.8416 16.6347 63.6746 16.6347 69.0433 15.3982C74.4121 14.1617 88.3221 15.3982 90.7624 15.3982H107.601C109.797 15.3982 116.386 15.151 121.267 15.3982C126.147 15.6455 126.635 15.8929 129.32 16.6347C132.004 17.3764 132.98 16.3874 135.909 16.6347C137.187 16.7426 137.991 17.0027 138.47 17.2703C138.975 17.552 139.263 18.1075 139.615 18.5662C140.36 19.5371 141.492 20.1381 142.716 20.1733C144.346 20.2202 146.311 20.2313 147.378 20.0961C147.752 20.0487 148.106 20.1376 148.433 20.3156C150.456 21.4161 151.801 23.6394 153.967 24.4229L158.359 25.6592Z" fill="url(#paint1_linear_1702_16565)"/>
<path d="M186.669 22.4323C185.793 22.615 184.415 22.784 182.848 22.9155C179.997 23.1548 178.94 26.2439 181.788 25.9648C183.879 25.9059 184.112 25.6592 188.761 25.1994C193.409 24.7395 190.62 25.1994 193.758 25.1994C196.896 25.1994 195.269 24.905 197.942 24.4229C200.615 23.9408 199.452 24.4229 203.171 24.4229C206.89 24.4229 204.45 23.9042 206.425 23.1868C208.401 22.4694 207.588 22.4323 210.028 21.5492C212.469 20.6661 212.469 21.0782 218.628 21.0782C224.788 21.0782 222.812 20.6661 227.809 20.4306C232.806 20.1951 241.639 20.1362 244.777 20.0185C247.915 19.9007 249.774 19.8418 254.655 19.4297C259.536 19.0176 257.444 19.4297 260.466 19.4297C263.488 19.4297 263.023 19.4297 268.136 18.4289C273.25 17.428 273.366 17.8707 276.736 17.2514C280.106 16.632 280.223 16.8392 282.547 16.4271C284.871 16.015 286.731 16.0739 289.985 15.544C290.239 15.5027 290.466 15.4678 290.669 15.4381C291.581 15.3052 291.576 13.6509 290.682 13.4245C289.288 13.0713 289.636 13.4245 286.731 13.4245C285.738 13.4245 285.478 13.2122 284.459 12.3337C284.352 12.2416 284.29 12.1071 284.29 11.9661C284.29 11.6986 284.507 11.4817 284.775 11.4817H290.682C294.633 11.4817 294.633 11.9527 296.725 12.1882C298.817 12.4237 297.771 12.3059 299.863 12.8358C301.955 13.3657 302.42 12.8358 307.417 12.8358C312.415 12.8358 312.298 13.2479 314.506 12.8358C315.821 12.5904 320.616 12.7684 324.5 12.9321C326.137 13.0011 328 11.2189 328 9.58025C328 7.52591 326.337 5.84376 324.283 5.90185C323.877 5.91334 323.508 5.92823 323.223 5.94752C321.479 6.06527 320.898 6.24189 316.947 6.59514C312.996 6.94838 315.204 6.53626 312.996 6.59514C310.788 6.65401 307.766 6.88951 305.558 7.30163C303.35 7.71375 301.142 7.30163 300.444 7.30163C299.747 7.30163 286.963 8.12586 278.247 9.00898C269.531 9.89209 274.644 8.9501 271.855 9.00898C269.066 9.06785 267.671 9.24447 263.023 9.47997C258.374 9.71547 259.188 10.0098 258.025 10.1865C256.863 10.3631 253.958 10.5397 250.82 10.9518C250.538 10.9889 246.808 11.218 246.526 11.2536C245.854 11.3386 245.21 11.4218 244.777 11.4817C241.958 11.8711 245.318 15.6957 248.124 15.2201C249.433 14.998 251.421 14.7359 254.655 14.5432C264.534 13.9544 258.374 14.5432 261.628 14.5432C264.882 14.5432 263.952 14.4254 265.696 14.5432C266.897 14.6243 265.983 15.6486 264.845 16.0442C264.5 16.1645 264.18 16.2953 263.952 16.4271C263.139 16.8981 262.79 16.3094 261.628 16.4271C260.466 16.5449 257.677 17.0747 255.469 17.2514C253.261 17.428 233.155 17.8707 230.831 17.8707C228.506 17.8707 225.601 18.9587 221.533 18.9587C217.466 18.9587 216.769 19.4297 213.05 19.4297C209.331 19.4297 208.285 20.0961 205.379 20.0961C202.474 20.0961 204.333 20.0961 200.847 21.0782C197.361 22.0603 196.896 21.0782 195.85 21.5492C194.804 22.0202 192.479 21.5492 191.201 21.5492C189.923 21.5492 188.644 22.0202 186.669 22.4323Z" fill="url(#paint2_linear_1702_16565)"/>
<path d="M0.042141 19.0739H15.6809L24.1675 16.2675C25.7259 15.7522 27.387 15.6283 29.0045 15.9069L36.9667 17.2783L49.1994 21.1995C49.7667 21.3814 50.3491 21.5122 50.9396 21.5903L61.5887 23C62.3945 23.1067 63.1842 23.3112 63.9405 23.609L82.2955 30.8372L95.9517 35.34C97.5015 35.851 99.1529 35.975 100.762 35.7011L126.13 31.3816L134.021 30.2568C134.868 30.1361 135.727 30.1242 136.577 30.2237C141.064 30.7492 148.162 31.6195 148.468 31.8172C148.805 32.0349 153.948 32.2709 156.477 32.3616L165.975 33.625C166.735 33.7261 167.504 33.7394 168.268 33.6647L176.017 32.906C176.756 32.8337 177.501 32.8441 178.238 32.9354C181.016 33.2792 185.181 33.7771 185.77 33.7771C186.38 33.7771 192.327 32.4697 196.055 31.6293C196.783 31.4653 197.526 31.3816 198.272 31.3816H208.412C208.981 31.3816 209.549 31.4301 210.11 31.5267L213.091 32.0401C214.324 32.2525 215.586 32.2316 216.812 31.9783L218.029 31.7267C219.134 31.4983 220.27 31.4586 221.389 31.6094L225.42 32.1527C226.447 32.2911 227.489 32.2691 228.509 32.0875L244.596 29.2228C245.277 29.1016 245.968 29.0513 246.659 29.0727L261.426 29.5305L271.331 30.6738L272.545 30.8111C273.967 30.9718 275.406 30.8255 276.767 30.3822L287.36 26.9298C288.052 26.7043 288.766 26.555 289.49 26.4846L295.235 25.9259C296.634 25.7898 297.989 25.3601 299.211 24.665L306.948 20.2636C308.197 19.5537 309.583 19.1208 311.013 18.9945L325.047 17.7555C325.341 17.7295 325.638 17.7517 325.925 17.8214C327.143 18.1166 328 19.2068 328 20.4596V40.5525C328 46.039 323.58 50.5009 318.093 50.5521L10.1355 53.4259C4.57638 53.4778 0.042141 48.9857 0.042141 43.4264V19.0739Z" fill="#6C4147"/>
<path d="M41.7561 46.695C41.7561 42.4581 44.4184 38.6398 48.523 37.5892C50.966 36.9639 53.6522 36.4123 55.8162 36.3121C61.2184 36.0618 61.7005 38.8283 63.3147 38.5793C64.9289 38.3302 81.7161 32.2059 87.0603 30.7313C92.4044 29.2566 94.7481 28.6381 102.057 28.6385C109.367 28.639 113.118 30.0334 114.868 30.7313C116.482 31.3752 121.59 33.4542 124.497 34.6395C124.952 34.8248 125.39 35.0427 125.813 35.2929L134.651 40.5252C135.208 40.8551 135.727 41.2524 136.296 41.5608C136.9 41.8877 137.811 42.242 138.926 42.242C140.995 42.242 144.163 39.8853 150.486 39.6258C155.986 39.4001 163.738 41.5465 165.662 42.1091C165.962 42.1966 166.251 42.3018 166.543 42.4119C167.787 42.8811 171.486 44.1604 174.856 44.1604C178.983 44.1604 187.543 42.242 193.29 42.242C199.038 42.242 204.141 45.8309 209.85 45.73C215.558 45.6291 219.686 44.1604 226.722 44.1604C232.471 44.1604 242.595 46.2569 246.104 47.0233C246.93 47.2036 247.72 47.5038 248.517 47.7849C249.66 48.1876 251.563 48.6948 253.904 48.6948H293.897C297.72 48.6948 309.48 44.0976 313.893 44.1604C314.991 44.176 316.418 44.0187 317.94 43.7737C323.054 42.9504 328 46.6354 328 51.8155C328 56.136 324.495 59.6372 320.174 59.6325L51.7453 59.3439C46.2267 59.338 41.7561 54.8626 41.7561 49.3439V46.695Z" fill="#462635"/>
<path d="M65.5483 42.4699C53.6109 44.7484 10.98 43.0946 0.042141 42.3712V48.7108C2.77662 48.3491 10.5422 47.5048 16.7595 47.6784C22.9768 47.852 30.0001 48.3295 32.7346 48.5465C40.7941 48.8359 58.2947 49.241 63.8212 48.5465C67.4746 48.0874 70.323 47.4134 72.1667 46.8629C73.5172 46.4597 75.0609 45.6917 75.1351 44.2842C75.1613 43.7876 74.9233 43.3441 74.1835 43.121C74.073 43.0877 73.9931 43.0566 73.9416 43.0279L69.3163 41.2475C69.1784 41.5975 67.9934 42.0032 65.5483 42.4699Z" fill="#5F0915"/>
<path d="M16.7595 47.6784C10.5422 47.5048 2.77662 48.3491 0.042141 48.7108V50.2827H27.1796C28.0014 50.2827 28.82 50.384 29.617 50.5843L31.801 51.1332C32.4219 51.2892 33.0523 51.3862 33.6919 51.4154C39.5655 51.683 52.3999 51.8649 63.8212 50.7167C78.9328 49.1976 74.1835 49.6316 81.0916 48.9806C86.6181 48.4597 89.4389 46.8827 90.1585 46.1593C90.288 45.834 89.375 44.704 87.1805 43.7221C86.6643 43.4912 86.1168 43.3417 85.5587 43.2502C80.2669 42.3831 73.0349 42.5216 73.9416 43.0279L74.1835 43.121C74.9233 43.3441 75.1613 43.7876 75.1351 44.2842C75.0609 45.6917 73.5172 46.4597 72.1667 46.8629C70.323 47.4134 67.4746 48.0874 63.8212 48.5465C58.2947 49.241 40.7941 48.8359 32.7346 48.5465C30.0001 48.3295 22.9768 47.852 16.7595 47.6784Z" fill="#8DB150"/>
<path d="M90.1585 46.1593C89.4389 46.8827 86.6181 48.4597 81.0916 48.9806C74.1835 49.6316 78.9328 49.1976 63.8212 50.7167C52.3999 51.8649 39.5655 51.683 33.6919 51.4154C33.0523 51.3862 32.4219 51.2892 31.801 51.1332L29.617 50.5843C28.82 50.384 28.0014 50.2827 27.1796 50.2827H0.042141V53.9573C2.53088 53.6794 9.92862 53.3882 17.5503 53.5197C18.173 53.5305 18.7954 53.6042 19.4054 53.73C25.3653 54.9593 28.4582 55.2742 29.2805 55.2742H47.8461C67.9183 54.6473 77.729 53.3549 94.0444 50.2827C95.804 49.8479 96.2334 49.4558 96.2032 48.5465L90.1585 46.1593Z" fill="#5F0915"/>
<path d="M19.4054 53.73C18.7954 53.6042 18.173 53.5305 17.5503 53.5197C9.92862 53.3882 2.53088 53.6794 0.042141 53.9573V57.0178C3.20837 56.8732 11.3193 56.7065 15.4642 56.3593C16.8379 56.2442 17.9334 56.2213 18.7947 56.2527C20.6157 56.3189 21.5515 57.7158 23.0347 58.7743C23.5716 59.1574 24.4234 59.4803 25.0747 59.5842C26.9099 59.8768 28.4715 59.7986 29.5145 59.637C30.2303 59.5262 30.9454 59.358 31.6658 59.2821C53.2667 57.0059 66.5428 56.4275 88.7136 54.1891C94.7583 53.8274 106.393 52.1057 107.429 50.7167C107.54 50.5675 107.584 50.4226 107.571 50.2827C107.501 49.5268 105.771 48.9164 104.039 48.5465C103.109 48.3478 102.179 48.2185 101.506 48.1734L96.2032 48.5465C96.2334 49.4558 95.804 49.8479 94.0444 50.2827C77.729 53.3549 67.9183 54.6473 47.8461 55.2742H29.2805C28.4582 55.2742 25.3653 54.9593 19.4054 53.73Z" fill="#8DB150"/>
<path d="M107.429 50.7167C106.393 52.1057 94.7583 53.8274 88.7136 54.1891C66.5428 56.4275 53.2667 57.0059 31.6658 59.2821C30.9454 59.358 30.2303 59.5262 29.5145 59.637C28.4715 59.7986 26.9099 59.8768 25.0747 59.5842C24.4234 59.4803 23.5716 59.1574 23.0347 58.7743C21.5515 57.7158 20.6157 56.3189 18.7947 56.2527C17.9334 56.2213 16.8379 56.2442 15.4642 56.3593C11.3193 56.7065 3.20837 56.8732 0.042141 57.0178V63.3574C2.92054 63.0681 10.8815 62.0198 15.4642 62.87C15.8674 62.9448 16.2093 63.041 16.5001 63.1535C18.7752 64.0341 19.7858 66.5199 22.2114 66.7802C24.0352 66.9759 26.2341 67.0507 28.417 66.7764C32.5619 66.2555 43.0968 63.9551 47.8461 62.87C54.8982 61.7849 71.4202 59.441 81.0916 58.7465C89.3289 58.155 101.074 56.3671 108.111 55.1794C109.969 54.8658 111.315 53.2519 111.315 51.3678L107.429 50.7167Z" fill="#5F0915"/>
<path d="M15.4642 62.87C10.8815 62.0198 2.92054 63.0681 0.042141 63.3574C0.32998 64.2979 0.042141 65.9484 0.042141 67.5109C5.65501 69.0301 14.1689 70.0317 15.4642 70.0317H29.2805C35.7569 69.887 49.3141 69.5108 51.732 69.1636C54.7543 68.7296 60.8811 68.2306 62.6081 67.7966C63.9898 67.4494 65.9697 66.487 64.6744 66.5593C63.5623 66.6215 58.4476 66.7049 55.2742 66.6174C54.3545 66.592 53.4133 66.4701 52.6228 65.9995C51.0704 65.0753 52.6832 64.4149 53.8908 64.1721L75.4787 60.4827L99.6572 57.8785C103.687 57.6614 113.214 57.0104 119.086 56.1423C124.249 55.3791 126.715 54.4724 126.845 54.0678C126.795 53.9795 126.025 53.5579 126.025 53.5579C125.161 53.0515 121.314 51.7582 118.896 51.5845C116.478 50.7165 112.898 51.3678 111.315 51.3678C111.315 53.2519 109.969 54.8658 108.111 55.1794C101.074 56.3671 89.3289 58.155 81.0916 58.7465C71.4202 59.441 54.8982 61.7849 47.8461 62.87C43.0968 63.9551 32.5619 66.2555 28.417 66.7764C26.2341 67.0507 24.0352 66.9759 22.2114 66.7802C19.7858 66.5199 18.7752 64.0341 16.5001 63.1535C16.2093 63.041 15.8674 62.9448 15.4642 62.87Z" fill="#8DB150"/>
<path d="M119.086 56.1423C113.214 57.0104 103.687 57.6614 99.6572 57.8785L75.4787 60.4827L53.8908 64.1721C52.6832 64.4149 51.0704 65.0753 52.6228 65.9995C53.4133 66.4701 54.3545 66.592 55.2742 66.6174C58.4476 66.7049 63.5623 66.6215 64.6744 66.5593C65.9697 66.487 63.9898 67.4494 62.6081 67.7966C60.8811 68.2306 54.7543 68.7296 51.732 69.1636C49.3141 69.5108 35.7569 69.887 29.2805 70.0317H15.4642C14.1689 70.0317 5.65501 69.0301 0.042141 67.5109V73.6319C2.34486 74.3553 11.6647 76.4555 24.0994 76.1083C39.6427 75.6743 45.2556 76.5424 59.9354 74.3721C61.159 74.1551 62.2038 73.9594 63.0926 73.7842C65.8032 73.2501 65.0794 70.4575 66.7924 68.2899C67.0992 65.6174 72.1644 64.9937 79.1271 64.1364L79.3452 64.1095C86.42 63.2381 102.566 61.1454 112.251 60.3964C121.936 59.6475 128.988 59.6146 128.523 57.8785C128.268 56.9253 127.764 55.829 127.361 55.034C127.138 54.5953 126.947 54.2483 126.845 54.0678C126.715 54.4724 124.249 55.3791 119.086 56.1423Z" fill="#5F0915"/>
<path d="M81.5234 70.0317C75.6514 68.99 67.7243 67.1107 66.7924 68.2899C65.0794 70.4575 65.8032 73.2501 63.0926 73.7842C62.2038 73.9594 61.159 74.1551 59.9354 74.3721C45.2556 76.5424 39.6427 75.6743 24.0994 76.1083C11.6647 76.4555 2.34486 74.3553 0.042141 73.6319V78.6599C0.042141 78.6599 14.0718 79.3195 25.8264 79.1466C37.5811 78.9737 53.8908 78.2275 60.7989 77.4104C67.7071 76.5934 72.6109 76.0446 76.774 75.0232C80.9371 74.0018 87.3953 71.0734 81.5234 70.0317Z" fill="#8DB150"/>
<path d="M81.5234 70.0317C87.3953 71.0734 80.9371 74.0018 76.774 75.0232C72.6109 76.0446 67.7071 76.5934 60.7989 77.4104C53.8908 78.2275 37.5811 78.9737 25.8264 79.1466C14.0718 79.3195 0.042141 78.6599 0.042141 78.6599V84.3436C22.3411 84.7397 54.0582 83.4462 58.7071 82.9716C63.3559 82.4969 85.2926 79.3935 86.019 78.8093C86.7454 78.2251 87.9076 72.1642 86.5275 71.361C85.1474 70.5577 81.5234 70.0317 81.5234 70.0317Z" fill="#5F0915"/>
<path d="M66.7924 68.2899C67.7243 67.1107 75.6514 68.99 81.5234 70.0317C81.5234 70.0317 85.1474 70.5577 86.5275 71.361C87.9076 72.1642 86.7454 78.2251 86.019 78.8093C85.2926 79.3935 63.3559 82.4969 58.7071 82.9716C54.0582 83.4462 22.3411 84.7397 0.042141 84.3436V92.6507C0.042141 92.6507 46.2299 92.5333 63.1241 90.5319C80.0184 88.5305 110.441 82.0022 116.738 80.8053C117.147 80.7276 117.527 80.6498 117.879 80.5717C122.952 79.445 122.185 78.2548 116.738 76.7005L116.302 76.5913C111.218 75.319 106.76 74.1957 103.105 73.1899C93.1213 70.4425 89.1327 68.5712 94.7657 66.9314C95.0897 66.8371 95.4121 66.7709 95.7454 66.718C100.169 66.016 133.225 60.7468 136 59.612C138.975 58.3956 128.523 57.8785 128.523 57.8785C128.988 59.6146 121.936 59.6475 112.251 60.3964C102.566 61.1454 86.42 63.2381 79.3452 64.1095L79.1271 64.1364C72.1644 64.9937 67.0992 65.6174 66.7924 68.2899Z" fill="#8DB150"/>
<path d="M136 59.612C133.225 60.7468 100.169 66.016 95.7454 66.718C95.4121 66.7709 95.0897 66.8371 94.7657 66.9314C89.1327 68.5712 93.1213 70.4425 103.105 73.1899C102.966 72.7467 98.2949 71.1175 103.655 68.9564C109.016 66.7954 126.503 64.9723 130.009 64.5409C133.515 64.1095 137.707 62.1283 137.707 62.1283L136 59.612Z" fill="#5F0915"/>
<path d="M116.302 76.5913C116.302 76.5913 113.979 74.4645 113.708 71.0959C113.436 67.7274 137.384 64.8355 143.593 64.1095C143.593 64.1095 143.635 64.1017 143.71 64.0955C149.649 63.3645 137.677 61.8921 137.707 62.1283C137.707 62.1283 133.515 64.1095 130.009 64.5409C126.503 64.9723 109.016 66.7954 103.655 68.9564C98.2949 71.1175 102.966 72.7467 103.105 73.1899C106.76 74.1957 111.218 75.319 116.302 76.5913Z" fill="#8DB150"/>
<path d="M116.302 76.5913L116.738 76.7005L124.344 75.9846L124.296 75.9387C123.134 74.8277 122.189 73.9241 123.67 73.1899C125.171 72.4456 147.887 67.7414 147.887 67.7414C146.569 64.0891 144.254 64.0507 143.71 64.0955C143.672 64.1002 143.633 64.1049 143.593 64.1095C137.384 64.8355 113.436 67.7274 113.708 71.0959C113.979 74.4645 116.302 76.5913 116.302 76.5913Z" fill="#5F0915"/>
<path d="M160.299 69.6445C160.043 69.5901 152.157 68.4929 147.887 67.7414C147.887 67.7414 125.171 72.4456 123.67 73.1899C122.189 73.9241 123.134 74.8277 124.296 75.9387L124.344 75.9846C124.344 75.9846 156.472 73.2325 161.947 72.4456C162.736 72.3322 163.317 72.2092 163.728 72.0805C166.169 71.316 161.87 69.9781 160.299 69.6445Z" fill="#8DB150"/>
<path d="M124.344 75.9846L116.738 76.7005C122.185 78.2548 122.952 79.445 117.879 80.5717L164.663 74.0644L163.728 72.0805C163.317 72.2092 162.736 72.3322 161.947 72.4456C156.472 73.2325 124.344 75.9846 124.344 75.9846Z" fill="#5F0915"/>
<path d="M164.663 74.0644L117.879 80.5717C134.29 79.7135 167.246 77.9688 167.774 77.8551C168.302 77.7414 171.639 75.786 173.242 74.8226L164.663 74.0644Z" fill="#8DB150"/>
<path d="M116.738 80.8053C110.441 82.0022 80.0184 88.5305 63.1241 90.5319C46.2299 92.5333 0.042141 92.6507 0.042141 92.6507V99.8647L124.843 88.4145C125.041 88.3964 125.23 88.3736 125.426 88.3436C128.026 87.9455 147.635 84.923 155.853 83.067C161.222 81.8545 167.404 80.4094 171.416 79.4654C173.479 78.9798 174.417 76.5865 173.242 74.8226C171.639 75.786 168.302 77.7414 167.774 77.8551C167.246 77.9688 134.29 79.7135 117.879 80.5717C117.527 80.6498 117.147 80.7276 116.738 80.8053Z" fill="#5F0915"/>
<path d="M0.042141 42.3712C10.98 43.0946 53.6109 44.7484 65.5483 42.4699C67.9934 42.0032 69.1784 41.5975 69.3163 41.2475C70.154 39.1208 31.6477 38.6965 2.91853 39.4157C1.31613 39.4559 0.042141 40.7683 0.042141 42.3712Z" fill="#8DB150"/>
<path d="M141.289 89.1172C142.17 91.068 148.346 92.2285 147.729 93.4355C147.169 94.5317 121.204 98.1536 117.613 99.2647C117.516 99.2949 117.677 99.8383 117.613 99.8647C117.441 99.9364 117.502 99.8306 117.613 99.8647L186.029 99.8434C186.029 99.8434 177.501 97.0197 176.133 95.9367C174.766 94.8536 176.875 92.6667 176.329 91.4381C175.783 90.2094 175.166 88.9686 176.875 87.7671C178.585 86.5657 195.031 81.8662 195.031 81.8662C195.031 81.8662 191.247 82.4403 187.444 82.6119C184.079 82.7636 159.537 85.3573 153.933 85.9522C153.167 86.0335 152.41 86.0435 151.642 86.0947C148.476 86.3058 140.54 87.4584 141.289 89.1172Z" fill="#8DB150"/>
<path d="M207.453 96.9959C211.077 98.0025 211.282 98.9171 212.783 99.8434H237.05C236.826 99.4531 236.346 98.6219 233.601 97.9495C233.118 97.8312 232.638 97.6949 232.164 97.5444C230.482 97.0107 228.706 96.7246 226.558 96.4595C223.431 96.0735 221.334 93.0971 222.057 90.0297C222.51 87.3834 224.549 86.0345 229.868 83.7603L230.169 83.6831C245.893 79.6461 254.802 77.3587 273.712 74.9578C271.93 75.064 292.486 72.1953 294.248 71.7281C296.011 71.2609 295.122 70.2072 294.421 69.2624C293.72 68.3176 285.468 66.1553 285.468 66.1553C285.468 66.5812 285.151 66.9357 284.727 66.9727C281.147 67.2854 265.746 68.6324 263.831 68.8292C261.663 69.0522 260.586 69.8585 261.374 70.6476C262.162 71.4366 265.772 73.2752 265.196 73.8382C264.621 74.4012 264.552 74.5739 262.398 75.1419C260.244 75.7099 198.017 82.6129 195.509 83.067C193.001 83.521 184.169 86.6802 181.517 87.7671C178.864 88.854 179.52 90.0662 179.879 91.4381C180.237 92.8099 185.605 93.6697 189.161 94.4571C192.717 95.2446 203.829 95.9893 207.453 96.9959Z" fill="#8DB150"/>
<path d="M319.274 73.8382C320.38 73.0349 323.604 69.3142 322.222 67.7357C320.841 66.1572 305.071 62.7304 302.244 62.0539C301.37 61.8447 301.766 61.7432 301.738 61.118C301.738 61.118 289.483 63.129 288.327 63.4639C287.171 63.7987 287.667 65.2108 288.327 65.9653C288.987 66.7198 297.219 68.2796 297.461 69.1633C297.703 70.0471 298.276 71.4243 297.02 72.1081C295.815 72.7642 275.463 75.744 273.818 75.9842C273.739 75.9956 273.671 76.0046 273.592 76.0142C253.834 78.4158 247.242 80.8064 233.042 84.3424C232.569 84.4603 232.096 84.6129 231.646 84.8008C229.997 85.4897 228.706 86.0854 227.688 86.6734C225.082 88.18 225.476 91.7158 228.434 92.2735C228.668 92.3176 228.915 92.3609 229.176 92.4045C234.615 93.3306 237.65 94.1917 244.223 94.2808C244.563 94.2854 245.736 94.4625 246.07 94.5257C249.438 95.1637 247.696 98.1016 244.557 99.4792L243.727 99.8434H271.902C271.789 99.4015 271.886 98.7265 271.419 97.5917C271.247 96.9265 270.674 96.5425 267.529 95.7677C265.798 95.5163 261.036 95.0662 259.464 95.171C257.782 95.2832 253.19 93.2426 251.401 92.2847L252.051 88.3074L252.143 87.7388C251.999 87.4799 252.062 87.136 252.143 86.3439C252.28 85.0165 260.965 82.3093 262.398 81.8662C263.831 81.4231 318.274 73.2653 318.842 74.0166C318.991 73.9575 319.135 73.898 319.274 73.8382Z" fill="#8DB150"/>
<path d="M287.441 79.5316C288.261 79.3207 289.092 79.1166 289.933 79.0179C299.93 77.8446 301.232 77.5165 305.813 76.7623C311.161 76.0084 314.442 75.3684 316.698 74.7316C292.049 77.8297 282.509 79.6422 265.843 82.808L265.196 82.9309C260.308 84.2705 258.522 84.979 256.858 85.9356C256.429 86.1821 256.175 86.6451 256.175 87.1397C256.175 87.7969 256.624 88.369 257.263 88.525L263.831 90.1302L275.842 92.2246C276.801 92.3918 277.73 92.698 278.6 93.1335L281.298 94.4836C283.327 95.4993 284.609 97.5741 284.609 99.8434H314.191C312.811 99.6138 311.821 99.3192 310.951 98.9669C309.254 98.2795 308.089 96.9786 308.215 95.1519C308.256 94.558 308.422 93.6089 308.569 93.0321C308.625 92.8137 308.686 92.6347 308.768 92.5862C310.701 91.4497 300.196 88.0485 290.904 87.8891C290.154 87.8763 289.393 87.8343 288.713 87.5191C287.008 86.7282 285.491 85.1152 285.863 84.6435C285.998 84.472 285.873 83.2738 285.58 82.5117C285.507 82.3234 285.468 82.1095 285.468 81.8662C285.468 80.0758 286.302 79.8244 287.441 79.5316Z" fill="#8DB150"/>
<path d="M315.079 94.0222C316.24 95.3735 328 97.6933 328 97.6933V52.4739C318.93 53.0934 313.252 53.6375 310.277 54.5445C307.453 55.4053 309.679 58.0383 312.56 58.6809C320.497 60.4512 323.426 61.3274 324.649 61.9149C325.916 62.5232 326.851 63.8371 327.081 65.2235C327.265 66.3323 326.893 67.1543 326.753 67.9482C326.305 71.0189 326.582 71.8716 325.334 73.046C324.722 73.6226 323.943 73.9975 323.154 74.2887C311.338 78.6476 301.436 79.0012 295.9 79.6013C292.103 80.0128 293.715 82.3825 297.516 82.7578C308.085 83.8018 327.319 86.2878 325.4 89.611C322.939 93.8745 313.919 92.6709 315.079 94.0222Z" fill="#8DB150"/>
<path d="M147.729 93.4355C148.346 92.2285 142.17 91.068 141.289 89.1172C140.54 87.4584 148.476 86.3058 151.642 86.0947C152.41 86.0435 153.167 86.0335 153.933 85.9522C159.537 85.3573 184.079 82.7636 187.444 82.6119C191.247 82.4403 195.031 81.8662 195.031 81.8662C194.97 81.8749 194.495 81.8995 193.703 81.9367C188.717 82.1709 171.196 82.9043 165.844 83.3041C159.774 83.7574 152.388 84.8736 143.25 86.409C142.85 86.4763 142.455 86.5672 142.068 86.6897C140.726 87.1146 137.535 88.1887 137.707 88.7416C137.924 89.4406 144.156 92.0064 144.086 93.1833C144.053 93.7572 141.06 94.415 137.328 95.0971C133.405 95.8141 127.598 96.5628 124.621 97.2643C121.451 98.011 119.098 98.7486 117.613 99.2647C117.53 99.2937 117.691 99.8371 117.613 99.8647C117.741 99.8105 116.681 100.195 117.613 99.8647C117.677 99.8383 117.516 99.2949 117.613 99.2647C121.204 98.1536 147.169 94.5317 147.729 93.4355Z" fill="#5F0915"/>
<path d="M195.031 81.8662C195.031 81.8662 178.585 86.5657 176.875 87.7671C175.166 88.9686 175.783 90.2094 176.329 91.4381C177.745 92.7278 178.49 93.4659 180.821 94.4571C184.347 95.9653 186.618 96.6361 192.077 96.9959C197.353 97.2533 199.784 97.4057 201.457 97.7462C204.57 98.6008 206.285 99.0785 209.228 99.8434H212.783C211.282 98.9171 211.077 98.0025 207.453 96.9959C203.829 95.9893 192.717 95.2446 189.161 94.4571C185.605 93.6697 180.237 92.8099 179.879 91.4381C179.52 90.0662 178.864 88.854 181.517 87.7671C184.169 86.6802 193.001 83.521 195.509 83.067C198.017 82.6129 260.244 75.7099 262.398 75.1419C264.552 74.5739 264.621 74.4012 265.196 73.8382C265.772 73.2752 262.162 71.4366 261.374 70.6476C260.586 69.8585 261.663 69.0522 263.831 68.8292C265.746 68.6324 281.147 67.2854 284.727 66.9727C285.151 66.9357 285.468 66.5812 285.468 66.1553C285.468 66.1553 265.943 67.6611 261.374 68.1088C256.805 68.5565 257.452 69.0932 258.098 69.8585C258.299 70.0972 258.694 70.4608 259.142 70.8481C260.517 72.0383 261.141 73.7735 259.395 74.2842C258.013 74.6884 252.868 75.2346 249.043 75.6011C246.572 75.8379 244.652 75.9996 244.652 75.9996L195.031 81.8662Z" fill="#5F0915"/>
<path d="M301.74 60.9018C301.74 60.9018 287.909 63.0409 286.689 63.4639C285.469 63.8869 285.468 66.1553 285.468 66.1553C285.468 66.1553 293.72 68.3176 294.421 69.2624C295.122 70.2072 296.011 71.2609 294.248 71.7281C292.486 72.1953 271.93 75.064 273.712 74.9578C254.802 77.3587 245.893 79.6461 230.169 83.6831L229.868 83.7603C224.549 86.0345 222.51 87.3834 222.057 90.0297C223.056 92.7861 224.96 93.027 228.042 93.766C233.476 94.306 244.735 95.0831 244.735 96.1408C244.735 97.1985 237.05 99.8434 237.05 99.8434H243.727L244.557 99.4792C247.696 98.1016 249.438 95.1637 246.07 94.5257C245.736 94.4625 244.563 94.2854 244.223 94.2808C237.65 94.1917 234.615 93.3306 229.176 92.4045C228.915 92.3609 228.668 92.3176 228.434 92.2735C225.476 91.7158 225.082 88.18 227.688 86.6734C228.706 86.0854 229.997 85.4897 231.646 84.8008C232.096 84.6129 232.569 84.4603 233.042 84.3424C247.242 80.8064 253.834 78.4158 273.592 76.0142C273.671 76.0046 273.739 75.9956 273.818 75.9842C275.463 75.744 295.815 72.7642 297.02 72.1081C298.276 71.4243 297.703 70.0471 297.461 69.1633C297.219 68.2796 288.987 66.7198 288.327 65.9653C287.667 65.2108 287.171 63.7987 288.327 63.4639C289.483 63.129 301.738 61.118 301.738 61.118C301.735 61.0544 301.736 60.9893 301.739 60.9227C301.739 60.9157 301.74 60.9088 301.74 60.9018Z" fill="#5F0915"/>
<path d="M318.842 74.0166C318.274 73.2653 263.831 81.4231 262.398 81.8662C260.965 82.3093 252.28 85.0165 252.143 86.3439C252.062 87.136 251.999 87.4799 252.143 87.7388C252.241 87.9138 252.434 88.0499 252.78 88.2592C253.638 88.7784 258.015 90.8667 260.207 91.2501C262.398 91.6336 271.154 92.6609 272.832 92.9593C273.53 93.0834 275.015 93.5803 276.462 94.1236C278.583 94.92 280.219 97.5843 280.047 99.8434H284.609C284.609 97.5741 283.327 95.4993 281.298 94.4836L278.6 93.1335C277.73 92.698 276.801 92.3918 275.842 92.2246L263.831 90.1302L257.263 88.525C256.624 88.369 256.175 87.7969 256.175 87.1397C256.175 86.6451 256.429 86.1821 256.858 85.9356C258.522 84.979 260.308 84.2705 265.196 82.9309L265.843 82.808C282.509 79.6422 292.049 77.8297 316.698 74.7316C317.537 74.4947 318.234 74.2583 318.842 74.0166Z" fill="#5F0915"/>
<path d="M328 52.4739C328 51.8573 327.478 51.3696 326.863 51.4115L311.255 52.4739C309.329 52.7627 307.889 53.0295 306.723 53.5579C305.633 54.0517 304.783 54.7738 303.999 55.9555C303.841 57.1537 304.172 57.6852 305.004 58.1455C305.525 58.4335 306.107 58.5908 306.687 58.7205C311.995 59.9073 315.238 60.6503 321.315 61.924C324.539 62.8486 326.524 63.2545 326.263 66.4008C325.576 70.0065 324.615 70.5914 322.964 71.7886C321.647 72.5728 320.696 73.2262 319.274 73.8382C319.135 73.898 318.991 73.9575 318.842 74.0166C318.234 74.2583 317.537 74.4947 316.698 74.7316C314.442 75.3684 311.161 76.0084 305.813 76.7623C301.232 77.5165 299.93 77.8446 289.933 79.0179C289.092 79.1166 288.261 79.3207 287.441 79.5316C286.302 79.8244 285.468 80.0758 285.468 81.8662C285.468 82.1095 285.507 82.3234 285.58 82.5117C286.208 84.1399 289.337 83.8523 291.194 84.0453C291.266 84.0527 291.331 84.06 291.403 84.0669C292.523 84.1746 302.516 85.1373 304.988 85.4663C307.609 85.8149 315.107 87.4747 316.698 87.7671C318.288 88.0596 321.315 88.1328 321.315 89.611C321.315 91.0893 313.045 91.329 311.255 92.015C309.465 92.701 310.036 93.5492 310.101 94.4571C310.164 95.345 319.315 97.5781 321.199 98.038L321.315 98.0664C322.899 98.4533 328 99.8434 328 99.8434V97.6933C328 97.6933 316.24 95.3735 315.079 94.0222C313.919 92.6709 322.939 93.8745 325.4 89.611C327.319 86.2878 308.085 83.8018 297.516 82.7578C293.715 82.3825 292.103 80.0128 295.9 79.6013C301.436 79.0012 311.338 78.6476 323.154 74.2887C323.943 73.9975 324.722 73.6226 325.334 73.046C326.582 71.8716 326.305 71.0189 326.753 67.9482C326.893 67.1543 327.265 66.3323 327.081 65.2235C326.851 63.8371 325.916 62.5232 324.649 61.9149C323.426 61.3274 320.497 60.4512 312.56 58.6809C309.679 58.0383 307.453 55.4053 310.277 54.5445C313.252 53.6375 318.93 53.0934 328 52.4739Z" fill="#5F0915"/>
<path d="M144.086 93.1833C144.156 92.0064 137.924 89.4406 137.707 88.7416L137.328 95.0971C141.06 94.415 144.053 93.7572 144.086 93.1833Z" fill="#3D1017"/>
<path d="M176.329 91.4381C176.875 92.6667 174.766 94.8536 176.133 95.9367C177.501 97.0197 186.029 99.8434 186.029 99.8434H209.228C206.285 99.0785 204.57 98.6008 201.457 97.7462C199.784 97.4057 197.353 97.2533 192.077 96.9959C186.618 96.6361 184.347 95.9653 180.821 94.4571C178.49 93.4659 177.745 92.7278 176.329 91.4381Z" fill="#3D1017"/>
<path d="M228.042 93.766C224.96 93.027 223.056 92.7861 222.057 90.0297C221.334 93.0971 223.431 96.0735 226.558 96.4595C228.706 96.7246 230.482 97.0107 232.164 97.5444C232.638 97.6949 233.118 97.8312 233.601 97.9495C236.346 98.6219 236.826 99.4531 237.05 99.8434C237.05 99.8434 244.735 97.1985 244.735 96.1408C244.735 95.0831 233.476 94.306 228.042 93.766Z" fill="#3D1017"/>
<path d="M260.207 91.2501C258.015 90.8667 253.638 88.7784 252.78 88.2592C252.434 88.0499 252.241 87.9138 252.143 87.7388C252.143 87.8309 252.107 88.0328 252.051 88.3074L251.401 92.2847C253.19 93.2426 257.782 95.2832 259.464 95.171C261.036 95.0662 265.798 95.5163 267.529 95.7677C270.674 96.5425 271.247 96.9265 271.419 97.5917C271.886 98.7265 271.789 99.4015 271.902 99.8434H280.047C280.219 97.5843 278.583 94.92 276.462 94.1236C275.015 93.5803 273.53 93.0834 272.832 92.9593C271.154 92.6609 262.398 91.6336 260.207 91.2501Z" fill="#3D1017"/>
<path d="M304.988 85.4663C302.516 85.1373 292.523 84.1746 291.403 84.0669C291.331 84.06 291.266 84.0527 291.194 84.0453C289.337 83.8523 286.208 84.1399 285.58 82.5117C285.873 83.2738 285.998 84.472 285.863 84.6435C285.491 85.1152 287.008 86.7282 288.713 87.5191C289.393 87.8343 290.154 87.8763 290.904 87.8891C300.196 88.0485 310.701 91.4497 308.768 92.5862C308.686 92.6347 308.625 92.8137 308.569 93.0321C308.422 93.6089 308.256 94.558 308.215 95.1519C308.089 96.9786 309.254 98.2795 310.951 98.9669C311.821 99.3192 312.811 99.6138 314.191 99.8434H328C328 99.8434 322.899 98.4533 321.315 98.0664L321.199 98.038C319.315 97.5781 310.164 95.345 310.101 94.4571C310.036 93.5492 309.465 92.701 311.255 92.015C313.045 91.329 321.315 91.0893 321.315 89.611C321.315 88.1328 318.288 88.0596 316.698 87.7671C315.107 87.4747 307.609 85.8149 304.988 85.4663Z" fill="#3D1017"/>
<path d="M306.687 58.7205C306.107 58.5908 305.525 58.4335 305.004 58.1455C304.172 57.6852 303.841 57.1537 303.999 55.9555C303.783 56.3949 303.513 56.8732 303.236 57.3649C302.543 58.5934 301.803 59.9056 301.74 60.9018C301.74 60.9088 301.739 60.9157 301.739 60.9227C301.736 60.9893 301.735 61.0544 301.738 61.118C301.766 61.7432 301.37 61.8447 302.244 62.0539C305.071 62.7304 320.841 66.1572 322.222 67.7357C323.604 69.3142 320.38 73.0349 319.274 73.8382C320.696 73.2262 321.647 72.5728 322.964 71.7886C324.615 70.5914 325.576 70.0065 326.263 66.4008C326.524 63.2545 324.539 62.8486 321.315 61.924C315.238 60.6503 311.995 59.9073 306.687 58.7205Z" fill="#3D1017"/>
<path d="M195.031 81.8662L244.652 75.9996C232.499 75.0812 225.21 74.8083 210.57 75.1419C205.809 75.7531 203.716 76.3815 200.654 77.8551C197.679 79.0296 196.695 80.0333 195.031 81.8662Z" fill="#8DB150"/>
<path d="M128.523 57.8785C128.523 57.8785 138.975 58.3956 136 59.612L137.707 62.1283C137.677 61.8921 149.649 63.3645 143.71 64.0955C144.254 64.0507 146.569 64.0891 147.887 67.7414C152.157 68.4929 160.043 69.5901 160.299 69.6445C161.87 69.9781 166.169 71.316 163.728 72.0805L164.663 74.0644L173.242 74.8226C174.417 76.5865 173.479 78.9798 171.416 79.4654C167.404 80.4094 161.222 81.8545 155.853 83.067C147.635 84.923 128.026 87.9455 125.426 88.3436C125.23 88.3736 125.041 88.3964 124.843 88.4145L0.042141 99.8647H117.613C117.677 99.8383 117.516 99.2949 117.613 99.2647C119.098 98.7486 121.451 98.011 124.621 97.2643C127.598 96.5628 133.405 95.8141 137.328 95.0971L137.707 88.7416C137.535 88.1887 140.726 87.1146 142.068 86.6897C142.455 86.5672 142.85 86.4763 143.25 86.409C152.388 84.8736 159.774 83.7574 165.844 83.3041C171.196 82.9043 188.717 82.1709 193.703 81.9367C193.703 81.9367 194.553 77.9201 199.077 76.3713C203.601 74.8226 200.654 75.1419 209.228 74.0644C211.794 73.742 216.621 73.6966 222.057 73.8074L208.706 69.8498C204.583 68.6276 203.724 63.1683 207.273 60.7393L190.741 60.2581L180.35 58.8748L174.016 57.4962C165.689 57.6818 163.849 57.8886 150.211 57.8801C149.25 57.8795 148.219 57.8723 147.419 57.3402C147.008 57.0668 146.913 56.7405 147.075 56.2332L144.585 56.1423C144.039 56.1713 143.63 56.165 143.268 56.0963C142.449 55.9408 141.827 55.1134 142.549 54.6976C142.618 54.658 142.69 54.6167 142.763 54.5727C134.283 54.8323 127.775 55.0289 127.361 55.034C127.764 55.829 128.268 56.9253 128.523 57.8785Z" fill="#504613"/>
<path d="M214.552 62.0539L208.645 63.0415C207.853 63.1738 207.273 63.8589 207.273 64.6616C207.273 65.4251 207.799 66.088 208.543 66.2613L214.055 67.5466C214.385 67.6236 214.723 67.6625 215.063 67.6625H218.698C219.141 67.6625 219.5 68.0217 219.5 68.4649C219.5 68.8653 219.796 69.2044 220.192 69.2596L229.187 70.5109C229.84 70.6018 230.501 70.6278 231.159 70.5886L242.593 69.9075C243.055 69.88 243.416 69.4968 243.416 69.0334V68.4995C243.416 68.2872 243.238 68.1185 243.026 68.13L231.261 68.7698C230.537 68.8092 229.811 68.7465 229.104 68.5836L225.993 67.8666C225.44 67.7389 224.985 67.3452 224.78 66.8154C224.574 66.2839 224.118 65.8895 223.562 65.7632L219.836 64.9159C218.742 64.6673 217.706 64.2141 216.78 63.5804L214.552 62.0539Z" fill="#7D8A48"/>
<path d="M226.717 60.2642C225.24 60.0091 223.875 59.3154 222.799 58.2733L217.866 58.9683C217.524 59.0166 217.269 59.3097 217.269 59.6555C217.269 60.0012 217.523 60.2942 217.866 60.3426L225.108 61.3684L225.18 61.3852C226 61.5784 226.056 62.7246 225.259 62.9971L225.187 63.0215C224.609 63.2188 224.46 63.9662 224.917 64.3706C225.041 64.4805 225.197 64.5488 225.362 64.566C228.098 64.8504 233.107 65.3621 233.107 65.3247C233.107 65.2917 235.778 65.1621 237.691 65.075C238.282 65.0481 238.872 65.0742 239.458 65.1545C241.422 65.4241 244.274 65.8347 244.652 65.9653C245.091 66.1173 246.481 66.4378 247.121 66.5791L250.637 64.5048C250.341 64.5279 250.044 64.5221 249.75 64.4874L240.309 63.3732C239.732 63.305 239.162 63.1867 238.605 63.0196L233.107 61.3684L226.717 60.2642Z" fill="#7D8A48"/>
<path d="M231.376 54.1764L227.683 54.4795C226.562 54.5715 225.522 55.1019 224.789 55.9555C225.547 56.415 226.372 56.7534 227.234 56.9584L230.578 57.7532C231.106 57.8787 231.609 58.0924 232.066 58.3853C232.749 58.823 233.531 59.0816 234.34 59.137L238.236 59.4041C239.037 59.459 239.827 59.6104 240.593 59.8517C243.11 60.645 246.726 61.7544 247.121 61.7544L255.591 61.3684L255.184 59.4867H245.969C245.432 59.4867 242.93 58.1597 241.746 57.4962L236.761 55.6063L231.376 54.1764Z" fill="#7D8A48"/>
<path d="M237.808 50.7167L233.255 51.4374C232.681 51.5282 232.201 51.9228 232.001 52.4685C232.732 52.9495 237.607 54.1053 239.953 54.6231L240.99 54.9175C242.114 55.2367 242.52 56.6204 241.746 57.4962C242.93 58.1597 245.432 59.4867 245.969 59.4867H255.184L258.098 59.0525V57.2554C255.802 57.2 253.23 57.0369 250.203 56.759C249.469 56.6915 248.682 56.3298 248.539 55.6063L248.323 55.3804C247.178 54.1841 245.755 53.2908 244.18 52.7806L237.808 50.7167Z" fill="#7D8A48"/>
<path d="M261.189 52.9201C258.037 52.3643 255.355 50.314 253.968 47.4293L253.807 47.0948L239.953 48.935C239.953 49.7242 240.493 50.4085 241.259 50.5984C242.486 50.9026 243.971 51.2936 247.774 52.356C248.867 52.6614 248.319 54.4932 248.539 55.6063C248.682 56.3298 249.469 56.6915 250.203 56.759C253.23 57.0369 255.802 57.2 258.098 57.2554C264.109 57.4004 268.234 56.8074 273.712 55.6063C272.465 55.1297 269.773 54.1764 268.982 54.1764C268.46 54.1764 264.771 53.5517 261.189 52.9201Z" fill="#7D8A48"/>
<path d="M273.712 55.6063C273.059 57.0478 271.674 58.0204 270.097 58.1445C268.124 58.2996 265.859 58.4766 263.831 58.6329C264.008 59.1746 264.529 60.2581 265.196 60.2581H277.645L281.662 59.1432C282.254 58.9787 282.299 58.1554 281.727 57.9282C281.066 57.6653 281.257 56.6792 281.969 56.6862C289.425 56.7595 299.934 56.8201 300.394 56.649C300.931 56.4489 301.852 55.215 302.244 54.6231L273.712 55.6063Z" fill="#7D8A48"/>
<path d="M253.807 47.0948L253.968 47.4293C255.355 50.314 258.037 52.3643 261.189 52.9201C264.771 53.5517 268.46 54.1764 268.982 54.1764C269.773 54.1764 272.465 55.1297 273.712 55.6063L302.244 54.6231L303.274 52.8285L305.813 51.0916L297.968 49.4216C297.338 49.2874 296.695 49.2144 296.051 49.2038L279.757 48.935L267.278 47.9555L253.807 47.0948Z" fill="#7D8A48"/>
<path d="M190.741 53.5579C190.023 54.9354 189.322 55.5702 186.852 56.1423C182.957 56.9856 180.017 57.2418 174.016 57.4962L180.35 58.8748C185.846 58.7671 194.784 58.3068 193.703 58.2733C192.898 58.2484 199.535 56.9689 201.649 55.6063C201.34 54.6765 200.769 54.2259 199.516 53.8436C198.795 53.6238 198.038 53.5579 197.284 53.5579H190.741Z" fill="#7D8A48"/>
<path d="M179.072 50.7167C179.134 51.7642 177.77 52.8509 172.883 53.2537C167.995 53.6565 153.327 54.2493 142.763 54.5727C142.69 54.6167 142.618 54.658 142.549 54.6976C141.827 55.1134 142.449 55.9408 143.268 56.0963C143.63 56.165 144.039 56.1713 144.585 56.1423L147.075 56.2332L158.458 56.649C162.46 56.7599 171.349 56.4292 172.46 56.1423C173.643 55.8368 181.954 55.6188 184.647 54.6231C187.265 53.6506 187.737 52.919 188.407 51.5845L179.072 50.7167Z" fill="#7D8A48"/>
<path d="M111.315 51.3678C112.898 51.3678 116.478 50.7165 118.896 51.5845C137.799 51.3302 147.322 51.2647 170.386 50.7167C174.428 50.6376 174.678 49.949 175.667 48.8939L173.518 48.2148C172.815 47.9926 172.09 47.8488 171.355 47.7861L163.255 47.0948C163.481 47.8833 163.332 48.3553 162.236 48.8199C161.479 49.1409 160.649 49.2344 159.828 49.2633L130.842 50.2827H107.571C107.584 50.4226 107.54 50.5675 107.429 50.7167L111.315 51.3678Z" fill="#7D8A48"/>
<path d="M104.198 46.4537C106.4 47.4401 107.48 47.6503 109.343 47.8805C159.673 47.2573 145.99 47.315 154.671 47.0948C158.88 46.7825 159.778 46.483 161.065 45.9163C159.787 44.7859 158.397 44.6568 156.021 44.345C146.867 43.3799 141.733 43.6289 132.575 43.8451C123.287 43.5667 119.984 43.7309 113.037 43.8451C108.327 44.4385 106.137 44.9265 104.198 46.4537Z" fill="#7D8A48"/>
<path d="M109.343 47.8805C107.48 47.6503 106.4 47.4401 104.198 46.4537L104.039 48.5465C105.771 48.9164 107.501 49.5268 107.571 50.2827H130.842L159.828 49.2633C160.649 49.2344 161.479 49.1409 162.236 48.8199C163.332 48.3553 163.481 47.8833 163.255 47.0948L161.065 45.9163C159.778 46.483 158.88 46.7825 154.671 47.0948C145.99 47.315 159.673 47.2573 109.343 47.8805Z" fill="#6C6716"/>
<path d="M118.896 51.5845C121.314 51.7582 125.161 53.0515 126.025 53.5579C126.094 53.5929 126.863 54.0121 126.845 54.0678C126.947 54.2483 127.138 54.5953 127.361 55.034C127.775 55.0289 134.283 54.8323 142.763 54.5727C153.327 54.2493 167.995 53.6565 172.883 53.2537C177.77 52.8509 179.134 51.7642 179.072 50.7167L175.667 48.8939C174.678 49.949 174.428 50.6376 170.386 50.7167C147.322 51.2647 137.799 51.3302 118.896 51.5845Z" fill="#6C6716"/>
<path d="M188.407 51.5845C187.737 52.919 187.265 53.6506 184.647 54.6231C181.954 55.6188 173.643 55.8368 172.46 56.1423C171.349 56.4292 162.46 56.7599 158.458 56.649L147.075 56.2332C146.913 56.7405 147.008 57.0668 147.419 57.3402C148.219 57.8723 149.25 57.8795 150.211 57.8801C163.849 57.8886 165.689 57.6818 174.016 57.4962C180.017 57.2418 182.957 56.9856 186.852 56.1423C189.322 55.5702 190.023 54.9354 190.741 53.5579L188.407 51.5845Z" fill="#6C6716"/>
<path d="M193.703 58.2733C194.784 58.3068 185.846 58.7671 180.35 58.8748L190.741 60.2581L207.273 60.7393C214.001 60.2203 215.03 59.5284 216.726 58.2733C216.726 58.2733 207.273 57.8785 204.999 57.4962C202.726 57.1139 201.649 55.6063 201.649 55.6063C199.535 56.9689 192.898 58.2484 193.703 58.2733Z" fill="#6C6716"/>
<path d="M261.374 68.1088C265.943 67.6611 285.468 66.1553 285.468 66.1553C285.468 66.1553 285.469 63.8869 286.689 63.4639C287.909 63.0409 301.74 60.9018 301.74 60.9018C301.803 59.9056 302.543 58.5934 303.236 57.3649C303.513 56.8732 303.783 56.3949 303.999 55.9555C304.783 54.7738 305.633 54.0517 306.723 53.5579L305.813 51.0916L303.274 52.8285L302.244 54.6231C301.852 55.215 300.931 56.4489 300.394 56.649C299.934 56.8201 289.425 56.7595 281.969 56.6862C281.257 56.6792 281.066 57.6653 281.727 57.9282C282.299 58.1554 282.254 58.9787 281.662 59.1432L277.645 60.2581H265.196C264.529 60.2581 264.008 59.1746 263.831 58.6329C260.81 58.8657 258.316 59.0525 258.098 59.0525L255.184 59.4867L255.591 61.3684C255.9 62.798 254.877 64.1721 253.419 64.2865L250.637 64.5048L247.121 66.5791L243.026 68.13C243.238 68.1185 243.416 68.2872 243.416 68.4995V69.0334C243.416 69.4968 243.055 69.88 242.593 69.9075L231.159 70.5886C230.501 70.6278 229.84 70.6018 229.187 70.5109L220.192 69.2596C219.796 69.2044 219.5 68.8653 219.5 68.4649C219.5 68.0217 219.141 67.6625 218.698 67.6625H215.063C214.723 67.6625 214.385 67.6236 214.055 67.5466L208.543 66.2613C207.799 66.088 207.273 65.4251 207.273 64.6616C207.273 63.8589 207.853 63.1738 208.645 63.0415L214.552 62.0539L216.726 58.2733C215.03 59.5284 214.001 60.2203 207.273 60.7393C203.724 63.1683 204.583 68.6276 208.706 69.8498L222.057 73.8074C234.788 74.0668 250.859 75.1824 249.043 75.6011C252.868 75.2346 258.013 74.6884 259.395 74.2842C261.141 73.7735 260.517 72.0383 259.142 70.8481C258.694 70.4608 258.299 70.0972 258.098 69.8585C257.452 69.0932 256.805 68.5565 261.374 68.1088Z" fill="#6C6716"/>
<path d="M224.78 66.8154C224.985 67.3452 225.44 67.7389 225.993 67.8666L229.104 68.5836C229.811 68.7465 230.537 68.8092 231.261 68.7698L243.026 68.13L247.121 66.5791C246.481 66.4378 245.091 66.1173 244.652 65.9653C244.274 65.8347 241.422 65.4241 239.458 65.1545C238.872 65.0742 238.282 65.0481 237.691 65.075C235.778 65.1621 233.107 65.2917 233.107 65.3247C233.107 65.3621 228.098 64.8504 225.362 64.566C225.197 64.5488 225.041 64.4805 224.917 64.3706C224.46 63.9662 224.609 63.2188 225.187 63.0215L225.259 62.9971C226.056 62.7246 226 61.5784 225.18 61.3852L225.108 61.3684L217.866 60.3426C217.523 60.2942 217.269 60.0012 217.269 59.6555C217.269 59.3097 217.524 59.0166 217.866 58.9683L222.799 58.2733H216.726L214.552 62.0539L216.78 63.5804C217.706 64.2141 218.742 64.6673 219.836 64.9159L223.562 65.7632C224.118 65.8895 224.574 66.2839 224.78 66.8154Z" fill="#6C6716"/>
<path d="M247.121 61.7544C246.726 61.7544 243.11 60.645 240.593 59.8517C239.827 59.6104 239.037 59.459 238.236 59.4041L234.34 59.137C233.531 59.0816 232.749 58.823 232.066 58.3853C231.609 58.0924 231.106 57.8787 230.578 57.7532L227.234 56.9584C226.372 56.7534 225.547 56.415 224.789 55.9555L222.799 58.2733C223.875 59.3154 225.24 60.0091 226.717 60.2642L233.107 61.3684L238.605 63.0196C239.162 63.1867 239.732 63.305 240.309 63.3732L249.75 64.4874C250.044 64.5221 250.341 64.5279 250.637 64.5048L253.419 64.2865C254.877 64.1721 255.9 62.798 255.591 61.3684L247.121 61.7544Z" fill="#6C6716"/>
<path d="M232.001 52.4685L231.376 54.1764L236.761 55.6063L241.746 57.4962C242.52 56.6204 242.114 55.2367 240.99 54.9175L239.953 54.6231C237.607 54.1053 232.732 52.9495 232.001 52.4685Z" fill="#6C6716"/>
<path d="M239.292 49.0227C238.443 49.1355 237.808 49.8599 237.808 50.7167L244.18 52.7806C245.755 53.2908 247.178 54.1841 248.323 55.3804L248.539 55.6063C248.319 54.4932 248.867 52.6614 247.774 52.356C243.971 51.2936 242.486 50.9026 241.259 50.5984C240.493 50.4085 239.953 49.7242 239.953 48.935L239.292 49.0227Z" fill="#6C6716"/>
<path d="M273.712 55.6063C268.234 56.8074 264.109 57.4004 258.098 57.2554V59.0525C258.316 59.0525 260.81 58.8657 263.831 58.6329C265.859 58.4766 268.124 58.2996 270.097 58.1445C271.674 58.0204 273.059 57.0478 273.712 55.6063Z" fill="#6C6716"/>
<path d="M193.703 81.9367C194.495 81.8995 194.97 81.8749 195.031 81.8662C196.695 80.0333 197.679 79.0296 200.654 77.8551C203.716 76.3815 205.809 75.7531 210.57 75.1419C225.21 74.8083 232.499 75.0812 244.652 75.9996C244.652 75.9996 246.572 75.8379 249.043 75.6011C250.859 75.1824 234.788 74.0668 222.057 73.8074C216.621 73.6966 211.794 73.742 209.228 74.0644C200.654 75.1419 203.601 74.8226 199.077 76.3713C194.553 77.9201 193.703 81.9367 193.703 81.9367Z" fill="#4E1212"/>
<path d="M0.042141 94.0821V99.8647H31.5434C31.4966 99.8153 31.4359 99.7686 31.3942 99.7115C31.0547 99.2457 32.0766 98.9434 32.6464 98.8561C33.1547 98.7783 33.6121 98.7783 34.3745 98.5709C35.137 98.3634 35.1878 98.4153 34.3745 97.8706C33.5613 97.326 33.9651 97.5335 33.2563 97.2482C32.5476 96.9629 32.7989 97.1963 31.7823 96.8851C30.7657 96.5739 30.8674 96.7555 30.1958 96.5548C29.5243 96.3541 29.495 96.5548 28.1766 96.2108C27.6714 96.0034 27.1569 95.7649 27.1569 95.381C27.1569 94.997 27.8177 95.1124 28.6818 94.9401C29.3058 94.8156 29.6383 94.5192 29.1441 94.1297C28.5799 93.6849 27.7982 93.6848 27.1569 93.3609C26.9106 93.2364 26.7041 93.2205 26.5513 93.2471C26.3696 93.2786 26.1896 93.3609 26.0052 93.3609C25.8935 93.3609 25.7832 93.3863 25.6831 93.4359C25.1585 93.6957 24.3054 94.1327 24.1581 94.2658C23.9548 94.4494 23.0907 94.6807 22.8366 94.6807C22.5824 94.6807 21.1592 94.7326 20.6382 94.6807C20.1171 94.6289 19.8885 94.9401 19.7869 94.2658C19.6852 93.5915 19.4266 94.0821 18.9228 93.8249C18.419 93.5677 18.3497 93.6433 17.3471 93.6433H16.0256H14.7041C13.84 93.6433 14.1766 94.0821 14.1766 94.2658V95.1124C14.1766 95.2847 13.0267 95.1124 12.061 94.9401C11.0953 94.7678 10.892 94.8363 10.0279 94.551C9.4744 94.3683 9.4423 94.3558 9.14461 94.1728C8.59891 93.8373 7.97303 93.3891 7.51317 92.9431C7.0824 92.5254 7.51317 92.6579 7.51317 92.1932C7.51317 91.9529 7.02904 91.9185 6.7749 91.6094C6.59879 91.3952 6.24702 91.5571 5.97098 91.5833L5.94043 91.5862C5.78101 91.6013 5.63227 91.6684 5.49319 91.7478C5.39596 91.8032 5.28691 91.8498 5.19923 91.8498C4.73032 91.8498 4.54222 92.5327 4.10902 92.7122C3.53532 92.9499 2.88164 93.2309 2.65783 93.3609C2.33253 93.5499 0.778495 93.9204 0.042141 94.0821Z" fill="#32410A"/>
<path d="M111.876 86.6002L111.01 86.3793C110.189 86.1699 109.611 85.014 108.767 85.0858C107.919 85.1579 105.092 85.1579 104.385 85.1579C103.913 85.1579 102.617 85.4602 101.737 85.6858C101.433 85.7638 101.115 85.7783 100.806 85.723L98.8958 85.3819C98.658 85.3394 98.5104 85.099 98.5801 84.8677C98.6567 84.6137 98.4718 84.3561 98.2067 84.3474L94.6342 84.2298C94.4454 84.2235 94.2575 84.2004 94.0728 84.1605L91.0859 83.5157C90.8134 83.4569 90.5487 83.3662 90.2974 83.2455L88.9431 82.5951C88.5338 82.3986 88.048 82.4552 87.6948 82.7405C87.1169 83.2074 87.1329 84.0687 87.6247 84.6256C87.7355 84.751 87.8178 84.8619 87.849 84.9416C87.9903 85.3021 86.8597 85.6627 86.2943 86.0233C85.0917 86.7903 83.8545 87.5254 82.45 87.7747L82.0982 87.8371C81.5987 87.9258 81.1045 88.0495 80.6392 88.2516C79.9103 88.5683 79.1741 88.9819 79.5103 89.1963C79.9067 89.4491 78.3775 89.5357 77.2641 89.5533C76.9733 89.5579 76.6844 89.509 76.409 89.4154L74.6326 88.8111C74.4296 88.7421 74.3062 88.5365 74.3408 88.3249C74.3838 88.0615 74.1838 87.821 73.917 87.8154L72.3199 87.7814C71.6607 87.7674 71.1864 87.143 71.3497 86.5042C71.4166 86.2423 71.3816 85.9548 71.1704 85.7862C70.9091 85.5778 70.4881 85.3742 69.8995 85.3742C69.3998 85.3742 68.7333 85.477 68.1336 85.5973C67.3299 85.7585 66.0999 86.2816 65.8008 85.5185C65.7715 85.4436 65.716 85.3281 65.646 85.1911C65.2369 84.3914 64.4151 83.8954 63.519 83.8344L63.3706 83.8243C63.0177 83.8003 62.6765 83.6881 62.3783 83.4979C61.9427 83.22 61.4203 83.1115 60.9101 83.1929L60.1465 83.3147C59.6957 83.3865 59.2939 83.6395 59.0342 84.0149C58.7542 84.4197 58.3102 84.6806 57.8204 84.7282L56.3358 84.8725C55.8911 84.9157 55.4968 85.1766 55.2831 85.569C55.0567 85.985 54.6284 86.2514 54.1552 86.2708L51.8946 86.363C51.5816 86.3758 51.3022 86.5628 51.171 86.8473C50.9771 87.2676 51.2189 87.7118 51.5202 88.0632C51.636 88.1981 51.6367 88.3259 51.3847 88.403C51.1308 88.4808 50.7344 88.5614 50.3235 88.6332C49.4735 88.7817 47.6451 90.0829 48.5035 89.9953C48.691 89.9762 49.3899 90.0892 50.0091 90.2021C50.3059 90.2562 50.4085 90.6255 50.185 90.8282C50.1416 90.8677 50.0893 90.8961 50.0326 90.9112L49.9396 90.9359C49.3522 91.0923 49.1704 91.9123 49.7641 92.0429C49.7938 92.0495 49.8224 92.0539 49.8497 92.0559C50.3208 92.0902 52.0035 92.5023 51.4651 92.674C51.0893 92.7939 50.1401 93.0095 49.5464 93.1386C49.391 93.1724 49.2434 93.2347 49.1114 93.3233L48.5331 93.7116C48.2601 93.8949 48.1857 94.2812 48.4362 94.4942C48.5395 94.5821 49.0156 94.7496 49.4803 94.8978C49.9483 95.0471 50.4306 95.145 50.9173 95.2113C51.3068 95.2643 51.7175 95.3209 51.9362 95.3528C52.4074 95.4215 53.3497 95.4558 53.1478 95.6619C52.9458 95.8679 50.9266 96.7265 50.4554 96.9325C50.2867 97.0063 49.9859 97.1562 49.6628 97.3219C48.9541 97.6853 48.1437 97.8053 47.3639 97.6432C46.9603 97.5594 46.5789 97.396 46.2116 97.2088C45.8312 97.015 45.3792 96.8295 45.0708 96.8295C44.5862 96.8295 43.3881 96.6464 42.8497 96.5548L40.9354 96.0089C40.6865 95.938 40.4314 95.8912 40.1735 95.8693L39.6642 95.826C39.196 95.7862 38.7505 95.6071 38.385 95.3118C38.2212 95.1795 38.0759 95.0257 37.9529 94.8547L37.3978 94.0821C36.954 93.6066 36.4151 93.2299 35.8162 92.9765L34.8253 92.5572C34.2567 92.3167 33.6485 92.1836 33.0315 92.1647L31.1038 92.1056C30.7856 92.0959 30.4895 91.9403 30.301 91.6838C30.2314 91.5891 30.1462 91.507 30.049 91.4408L29.1013 90.7961C28.4882 90.379 27.8166 90.0555 27.1084 89.8361C26.5659 89.668 25.9965 89.5314 25.4441 89.6633C25.1826 89.7258 24.9087 89.8295 24.6766 89.9953C24.0035 90.4761 23.5324 90.9569 23.3978 91.2316C23.0715 91.8975 22.1438 91.998 21.4027 91.9751C21.1023 91.9658 20.8194 91.9307 20.6382 91.8498C20.0997 91.6094 19.9651 91.3347 19.4266 91.6094C18.6354 92.0131 17.8804 92.6851 17.0002 92.5657C16.9509 92.559 16.9067 92.5495 16.8689 92.5367C16.4651 92.3993 15.7247 91.8498 15.2535 91.472C14.7824 91.0943 14.5805 90.7852 14.1766 90.6478C13.7728 90.5104 13.3689 90.4761 12.3593 90.4418C11.3497 90.4074 11.3497 90.5791 10.4747 90.5104C9.59971 90.4418 8.79202 90.4074 8.25356 89.9953C7.71357 89.582 7.10609 89.167 6.42912 89.103L5.69587 89.0337C5.17984 89.0223 4.02664 89.0612 3.54202 89.3085C2.93625 89.6175 2.39779 89.7206 1.99395 89.9953C1.78827 90.1352 1.5535 90.2919 1.36951 90.4138C1.21233 90.518 1.0146 90.5392 0.838504 90.4717C0.454424 90.3246 0.042141 90.6082 0.042141 91.0195V94.0821C0.778495 93.9204 2.33253 93.5499 2.65783 93.3609C2.88164 93.2309 3.53532 92.9499 4.10902 92.7122C4.54222 92.5327 4.73032 91.8498 5.19923 91.8498C5.28691 91.8498 5.39596 91.8032 5.49319 91.7478C5.63227 91.6684 5.78101 91.6013 5.94043 91.5862L5.97098 91.5833C6.24702 91.5571 6.59879 91.3952 6.7749 91.6094C7.02904 91.9185 7.51317 91.9529 7.51317 92.1932C7.51317 92.6579 7.0824 92.5254 7.51317 92.9431C7.97303 93.3891 8.59891 93.8373 9.14461 94.1728C9.4423 94.3558 9.4744 94.3683 10.0279 94.551C10.892 94.8363 11.0953 94.7678 12.061 94.9401C13.0267 95.1124 14.1766 95.2847 14.1766 95.1124V94.2658C14.1766 94.0821 13.84 93.6433 14.7041 93.6433H16.0256H17.3471C18.3497 93.6433 18.419 93.5677 18.9228 93.8249C19.4266 94.0821 19.6852 93.5915 19.7869 94.2658C19.8885 94.9401 20.1171 94.6289 20.6382 94.6807C21.1592 94.7326 22.5824 94.6807 22.8366 94.6807C23.0907 94.6807 23.9548 94.4494 24.1581 94.2658C24.3054 94.1327 25.1585 93.6957 25.6831 93.4359C25.7832 93.3863 25.8935 93.3609 26.0052 93.3609C26.1896 93.3609 26.3696 93.2786 26.5513 93.2471C26.7041 93.2205 26.9106 93.2364 27.1569 93.3609C27.7982 93.6848 28.5799 93.6849 29.1441 94.1297C29.6383 94.5192 29.3058 94.8156 28.6818 94.9401C27.8177 95.1124 27.1569 94.997 27.1569 95.381C27.1569 95.7649 27.6714 96.0034 28.1766 96.2108C29.495 96.5548 29.5243 96.3541 30.1958 96.5548C30.8674 96.7555 30.7657 96.5739 31.7823 96.8851C32.7989 97.1963 32.5476 96.9629 33.2563 97.2482C33.9651 97.5335 33.5613 97.326 34.3745 97.8706C35.1878 98.4153 35.137 98.3634 34.3745 98.5709C33.6121 98.7783 33.1547 98.7783 32.6464 98.8561C32.0766 98.9434 31.0547 99.2457 31.3942 99.7115C31.4359 99.7686 31.4966 99.8153 31.5434 99.8647H46.7535C46.9949 99.6607 47.533 99.5576 47.7549 99.4559C48.0324 99.3288 49.0107 99.0237 49.5985 98.8966C50.0687 98.7949 50.5452 98.7356 50.7247 98.7186C50.9179 98.6762 51.3204 98.5763 51.3847 98.5152C51.4651 98.439 52.0282 98.3228 52.588 98.1085C52.6571 98.082 52.7206 98.053 52.7793 98.0226C53.3687 97.7169 53.9036 97.2829 54.5312 97.0661C54.9181 96.9325 55.1291 96.7555 55.1789 96.3289C55.2287 95.9023 54.9181 95.5932 54.9181 95.3528C54.9181 95.1124 54.5312 94.795 54.5312 94.4942C54.5312 94.1934 53.8834 94.8992 53.9333 93.7866C53.9831 92.674 53.5845 92.365 53.9333 92.2104C54.282 92.0559 54.9181 91.8196 54.9181 91.6257C54.9181 91.4318 55.4228 91.4986 55.6247 91.0919C55.8266 90.6851 55.6247 90.4088 55.6247 90.2021C55.6247 89.9953 55.305 89.5843 54.9181 89.3085C54.5312 89.0326 53.9333 88.587 53.9333 88.403C53.9333 88.2191 53.646 87.8982 54.2821 87.8261C54.9181 87.754 55.3284 87.253 55.8765 87.253C56.4245 87.253 56.7476 87.1251 57.6702 87.1251H59.9123C60.6099 87.754 60.7593 87.7361 59.9123 88.1428C59.0653 88.5496 58.4674 88.5029 57.9193 88.6915C57.3712 88.8801 57.3214 88.8357 56.9726 89.1963C56.6238 89.5568 56.5242 90.0654 56.9726 90.2021C57.421 90.3387 57.7448 90.4819 58.5928 90.6851C59.4408 90.8882 61.4491 90.6755 61.7021 90.5071C61.9551 90.3387 62.3154 89.9953 62.8328 89.9953C63.3502 89.9953 64.1973 89.719 64.3467 90.2021C64.5234 90.7728 63.9806 91.6832 64.5102 91.9598C64.5683 91.9902 64.6931 92.0085 64.9528 92.0559C65.8008 92.2104 66.2463 91.9185 66.5889 91.9185C66.863 91.9185 67.2346 91.7233 67.3861 91.6257C67.4193 91.6049 67.5156 91.537 67.6352 91.4318C67.7847 91.3003 68.0836 91.0919 68.3826 91.0919C68.6815 91.0919 68.9583 90.8882 69.4289 90.8882H70.6746C74.2809 91.4318 74.9476 91.1956 74.2809 91.6257C73.6142 92.0559 73.6142 91.7468 72.7174 92.2104C72.2701 92.4416 71.8273 92.5647 71.4933 92.6247C71.191 92.6789 70.9115 92.7423 70.6167 92.8283C70.3797 92.8975 70.107 92.9404 69.8743 93.0229C69.4289 93.181 69.4289 93.1897 69.4289 93.4593C69.4289 93.7866 69.1245 93.6013 69.8995 94.0478C70.6745 94.4942 70.9384 94.6425 71.4542 94.4942C71.707 94.4216 72.1663 94.3235 72.624 94.2573C73.4039 94.1445 74.8817 94.4462 74.2809 94.9561C73.8135 95.3528 74.262 95.2156 73.2655 95.3528C72.6068 95.4434 71.9856 95.5561 71.6363 95.6249C71.5153 95.6487 71.3996 95.6928 71.2923 95.7537C71.1202 95.8512 70.9201 95.8787 70.7321 95.9402C70.6057 95.9816 70.6077 96.0611 71.0302 96.2018C72.7139 96.8528 74.1088 97.6076 73.876 97.8542C74.063 97.7455 74.4512 97.5969 74.9097 97.6509C75.5574 97.7271 75.6571 97.6798 75.9062 97.8941C76.1553 98.1085 76.3546 98.5152 76.3048 98.5152C76.001 98.5152 76.0567 98.8229 76.317 98.9795C76.9603 99.3667 77.3001 99.4559 77.5504 99.4559C78.248 99.4559 77.7829 99.405 78.6466 99.6338L79.4425 99.8647H86.3468C86.2654 99.6125 86.2674 99.0324 88.5323 97.6468C89.3419 97.1515 89.2038 96.8514 89.2038 95.9023C89.2038 95.4183 88.3088 95.6619 88.3088 95.1124V94.4942L88.9759 94.1614C89.1155 94.0918 89.2038 93.9491 89.2038 93.7931C89.2038 93.5985 89.34 93.4305 89.5303 93.3903L89.6049 93.3746C89.9902 93.2932 90.1364 92.8241 89.858 92.5456C89.6431 92.3306 89.4103 92.1047 89.2038 91.9185C88.7466 91.5064 88.4166 91.7468 88.3088 91.9185H86.9485C86.5245 91.9185 84.6011 92.0902 83.6978 91.9185C82.8565 91.7585 82.1475 91.5092 86.0187 89.727C86.6331 89.4441 87.3065 89.295 87.9164 89.0024C88.1863 88.8729 88.2923 88.7555 88.3088 88.6915C88.394 88.3069 88.6924 87.4551 89.2038 87.1251C89.8548 86.7049 90.3584 85.8253 91.1328 85.7964C91.3191 85.7894 91.4965 85.7913 91.6473 85.8069C92.3449 85.879 92.8609 85.8069 93.4499 85.9512C94.0389 86.0954 93.2916 85.5506 94.3379 86.3378C95.3842 87.1251 95.5337 87.1126 95.733 87.253C95.9323 87.3934 95.8825 87.105 96.0818 87.5377C96.2811 87.9703 96.3309 88.0518 96.6797 88.3716C97.0285 88.6915 97.266 88.7021 97.5486 88.8801C97.8313 89.058 96.7708 88.8357 98.573 89.1963C100.375 89.5568 100.915 89.3631 101.014 89.7953C101.154 90.3995 100.839 91.0968 101.188 91.6094C101.264 91.7202 101.369 91.813 101.513 91.9185C102.778 92.7299 102.929 92.7697 103.207 92.8969C103.606 93.0794 103.948 93.2986 104.315 93.5401C104.494 93.6585 104.62 93.7485 104.714 93.8198C105.169 94.1629 105.731 94.2966 106.293 94.388C106.946 94.4942 107.068 94.4942 107.292 94.4942C107.775 94.4942 108.129 93.9839 108.598 93.8701L108.748 93.8336C109.005 93.7713 109.27 93.7556 109.532 93.7871L110.338 93.884C110.371 93.6931 111.382 93.4546 111.311 93.2346C111.247 93.0405 110.914 92.9129 110.55 92.834C110.037 92.7226 109.509 92.8556 109.041 93.0944C108.241 93.5027 107.274 93.5549 106.579 92.9861C106.405 92.8439 106.234 92.6856 106.081 92.5135C105.919 92.3317 105.699 92.1731 105.454 92.0371C104.503 91.509 103.527 90.6045 103.82 89.5568C103.961 89.052 107.495 88.2588 109.615 87.5377L111.876 86.6002Z" fill="#5B711A"/>
<path d="M47.7549 99.4559C47.533 99.5576 46.9949 99.6607 46.7535 99.8647H79.4425L78.6466 99.6338C77.7829 99.405 78.248 99.4559 77.5504 99.4559C77.3001 99.4559 76.9603 99.3667 76.317 98.9795C76.0567 98.8229 76.001 98.5152 76.3048 98.5152C76.3546 98.5152 76.1553 98.1085 75.9062 97.8941C75.6571 97.6798 75.5574 97.7271 74.9097 97.6509C74.4512 97.5969 74.063 97.7455 73.876 97.8542C73.8691 97.8616 73.8673 97.8593 73.876 97.8542C74.1088 97.6076 72.7139 96.8528 71.0302 96.2018C70.6077 96.0611 70.6057 95.9816 70.7321 95.9402C70.9201 95.8787 71.1202 95.8512 71.2923 95.7537C71.3996 95.6928 71.5153 95.6487 71.6363 95.6249C71.9856 95.5561 72.6068 95.4434 73.2655 95.3528C74.262 95.2156 73.8135 95.3528 74.2809 94.9561C74.8817 94.4462 73.4039 94.1445 72.624 94.2573C72.1663 94.3235 71.707 94.4216 71.4542 94.4942C70.9384 94.6425 70.6745 94.4942 69.8995 94.0478C69.1245 93.6013 69.4289 93.7866 69.4289 93.4593C69.4289 93.1897 69.4289 93.181 69.8743 93.0229C70.107 92.9404 70.3797 92.8975 70.6167 92.8283C70.9115 92.7423 71.191 92.6789 71.4933 92.6247C71.8273 92.5647 72.2701 92.4416 72.7174 92.2104C73.6142 91.7468 73.6142 92.0559 74.2809 91.6257C74.9476 91.1956 74.2809 91.4318 70.6746 90.8882H69.4289C68.9583 90.8882 68.6815 91.0919 68.3826 91.0919C68.0836 91.0919 67.7847 91.3003 67.6352 91.4318C67.5156 91.537 67.4193 91.6049 67.3861 91.6257C67.2346 91.7233 66.863 91.9185 66.5889 91.9185C66.2463 91.9185 65.8008 92.2104 64.9528 92.0559C64.6931 92.0085 64.5683 91.9902 64.5102 91.9598C63.9806 91.6832 64.5234 90.7728 64.3467 90.2021C64.1973 89.719 63.3502 89.9953 62.8328 89.9953C62.3154 89.9953 61.9551 90.3387 61.7021 90.5071C61.4491 90.6755 59.4408 90.8882 58.5928 90.6851C57.7448 90.4819 57.421 90.3387 56.9726 90.2021C56.5242 90.0654 56.6238 89.5568 56.9726 89.1963C57.3214 88.8357 57.3712 88.8801 57.9193 88.6915C58.4674 88.5029 59.0653 88.5496 59.9123 88.1428C60.7593 87.7361 60.6099 87.754 59.9123 87.1251H57.6702C56.7476 87.1251 56.4245 87.253 55.8765 87.253C55.3284 87.253 54.9181 87.754 54.2821 87.8261C53.646 87.8982 53.9333 88.2191 53.9333 88.403C53.9333 88.587 54.5312 89.0326 54.9181 89.3085C55.305 89.5843 55.6247 89.9953 55.6247 90.2021C55.6247 90.4088 55.8266 90.6851 55.6247 91.0919C55.4228 91.4986 54.9181 91.4318 54.9181 91.6257C54.9181 91.8196 54.282 92.0559 53.9333 92.2104C53.5845 92.365 53.9831 92.674 53.9333 93.7866C53.8834 94.8992 54.5312 94.1934 54.5312 94.4942C54.5312 94.795 54.9181 95.1124 54.9181 95.3528C54.9181 95.5932 55.2287 95.9023 55.1789 96.3289C55.1291 96.7555 54.9181 96.9325 54.5312 97.0661C53.9036 97.2829 53.3687 97.7169 52.7793 98.0226C52.7206 98.053 52.6571 98.082 52.588 98.1085C52.0282 98.3228 51.4651 98.439 51.3847 98.5152C51.3204 98.5763 50.9179 98.6762 50.7247 98.7186C50.5452 98.7356 50.0687 98.7949 49.5985 98.8966C49.0107 99.0237 48.0324 99.3288 47.7549 99.4559Z" fill="#32410A"/>
<path d="M113.661 95.1817C113.312 94.6037 112.676 94.2653 112.001 94.2737C111.507 94.2799 110.997 94.2753 110.693 94.2442C110.345 94.2088 110.305 94.0687 110.338 93.884L109.532 93.7871C109.27 93.7556 109.005 93.7713 108.748 93.8336L108.598 93.8701C108.129 93.9839 107.775 94.4942 107.292 94.4942C107.068 94.4942 106.946 94.4942 106.293 94.388C105.731 94.2966 105.169 94.1629 104.714 93.8198C104.62 93.7485 104.494 93.6585 104.315 93.5401C103.948 93.2986 103.606 93.0794 103.207 92.8969C102.929 92.7697 102.778 92.7299 101.513 91.9185C101.369 91.813 101.264 91.7202 101.188 91.6094C100.839 91.0968 101.154 90.3995 101.014 89.7953C100.915 89.3631 100.375 89.5568 98.573 89.1963C96.7708 88.8357 97.8313 89.058 97.5486 88.8801C97.266 88.7021 97.0285 88.6915 96.6797 88.3716C96.3309 88.0518 96.2811 87.9703 96.0818 87.5377C95.8825 87.105 95.9323 87.3934 95.733 87.253C95.5337 87.1126 95.3842 87.1251 94.3379 86.3378C93.2916 85.5506 94.0389 86.0954 93.4499 85.9512C92.8609 85.8069 92.3449 85.879 91.6473 85.8069C91.4965 85.7913 91.3191 85.7894 91.1328 85.7964C90.3584 85.8253 89.8548 86.7049 89.2038 87.1251C88.6924 87.4551 88.394 88.3069 88.3088 88.6915C88.2923 88.7555 88.1863 88.8729 87.9164 89.0024C87.3065 89.295 86.6331 89.4441 86.0187 89.727C82.1475 91.5092 82.8565 91.7585 83.6978 91.9185C84.6011 92.0902 86.5245 91.9185 86.9485 91.9185H88.3088C88.4166 91.7468 88.7466 91.5064 89.2038 91.9185C89.4103 92.1047 89.6431 92.3306 89.858 92.5456C90.1364 92.8241 89.9902 93.2932 89.6049 93.3746L89.5303 93.3903C89.34 93.4305 89.2038 93.5985 89.2038 93.7931C89.2038 93.9491 89.1155 94.0918 88.9759 94.1614L88.3088 94.4942V95.1124C88.3088 95.6619 89.2038 95.4183 89.2038 95.9023C89.2038 96.8514 89.3419 97.1515 88.5323 97.6468C86.2674 99.0324 86.2654 99.6125 86.3468 99.8647H117.848C117.05 99.1593 116.401 98.2648 115.722 97.4439C115.359 97.0053 114.871 96.467 114.226 95.8307C113.887 95.5423 113.708 95.2779 113.661 95.1817Z" fill="#32410A"/>
<path d="M124.506 97.8331L137.216 95.6122C138.917 95.315 139.999 93.625 139.556 91.9558C139.109 91.8123 138.214 91.4692 138.214 91.2455C138.214 90.9658 137.224 90.8133 136.951 90.656C136.678 90.4987 136.204 89.9744 136.204 89.7567C136.204 89.028 137.102 88.5353 136.678 87.9424L136.642 87.8919C136.545 87.7561 136.419 87.6442 136.271 87.5659C135.027 86.9057 132.73 85.7726 131.957 85.7183C130.93 85.6462 128.789 85.5745 128.532 84.9251C128.275 84.2756 129.217 83.6564 127.933 83.317C126.649 82.9777 124.68 82.8338 124.251 82.8338C123.823 82.8338 120.912 82.7055 120.484 82.4433C120.142 82.2337 119.999 81.174 119.971 80.6703C119.929 80.3772 119.689 79.7504 119.065 79.5882C118.851 79.5325 118.588 79.467 118.319 79.401C117.428 79.1829 116.467 78.9697 115.616 79.3114C115.436 79.3834 115.317 79.4745 115.317 79.5882C115.317 80.021 115.6 81.354 115.883 82.0939C116.165 82.8337 116.731 83.3389 116.448 83.9876C116.165 84.6363 115.883 84.6366 116.165 85.0693C116.448 85.502 116.974 85.6559 116.974 85.8625C116.974 86.0691 117.506 87.1606 118.285 87.1606C119.065 87.1606 118.572 87.4171 119.065 87.6855C119.557 87.9538 120.484 88.0789 120.484 88.3407C120.484 88.6025 120.05 89.3961 119.557 89.7567C119.065 90.1172 118.285 89.6513 118.285 90.656C118.285 91.6608 119.065 91.3418 119.065 92.316C119.065 93.2903 120.05 93.2348 119.557 94.0197C119.065 94.8046 119.065 95.0931 119.065 95.7421C119.065 96.3912 119.144 96.5971 119.557 96.9466L119.591 96.975C119.976 97.3002 120.068 97.3784 120.484 97.8331C120.827 98.2073 121.279 98.4472 121.462 98.5204L124.506 97.8331Z" fill="#32410A"/>
<path d="M139.556 91.9558C138.648 90.3383 139.521 88.2998 141.319 87.8407L145.259 86.8338C146.694 86.4675 146.857 84.4958 145.503 83.8979C145.233 83.7785 144.934 83.7384 144.642 83.7823L143.491 83.9552C142.958 84.0352 142.416 84.0374 141.882 83.9617L140.143 83.7152H138.498C137.923 83.7152 137.457 83.2494 137.457 82.6749C137.457 82.5057 137.416 82.339 137.337 82.1894L136.581 80.7555C136.507 80.6156 136.468 80.4598 136.468 80.3016C136.468 79.8187 136.114 79.409 135.636 79.3393L134.115 79.1176C133.711 79.0585 133.324 78.9082 132.986 78.678L132.074 78.0573C131.905 77.9426 131.804 77.752 131.804 77.5481C131.804 77.2394 131.575 76.9783 131.269 76.9376L128.553 76.5761V74.4129C128.553 74.1815 127.644 73.9656 126.919 73.8396C126.601 73.7844 126.275 73.8244 125.974 73.9398L125.122 74.2658C124.89 74.3544 124.737 74.5766 124.737 74.8244C124.737 75.1548 124.47 75.4225 124.139 75.4225H121.859C121.519 75.4225 121.182 75.4827 120.863 75.6001L119.649 76.0477C119.087 76.2548 118.498 76.3807 117.9 76.4213C117.095 76.4761 116.308 76.6851 115.582 77.0371L115.079 77.2807C114.27 77.6733 113.537 78.209 112.918 78.862L112.287 79.5271C111.924 79.9107 111.652 80.3718 111.492 80.8758C111.197 81.8119 111.287 82.8456 111.87 83.6359C112.183 84.0611 112.503 84.4243 112.724 84.5089C113.289 84.7252 116.116 85.6627 115.692 85.9512C115.353 86.1819 113.007 86.48 111.876 86.6002L109.615 87.5377C107.495 88.2588 103.961 89.052 103.82 89.5568C103.527 90.6045 104.503 91.509 105.454 92.0371C105.699 92.1731 105.919 92.3317 106.081 92.5135C106.234 92.6856 106.405 92.8439 106.579 92.9861C107.274 93.5549 108.241 93.5027 109.041 93.0944C109.509 92.8556 110.037 92.7226 110.55 92.834C110.914 92.9129 111.247 93.0405 111.311 93.2346C111.382 93.4546 110.371 93.6931 110.338 93.884C110.305 94.0687 110.345 94.2088 110.693 94.2442C110.997 94.2753 111.507 94.2799 112.001 94.2737C112.676 94.2653 113.312 94.6037 113.661 95.1817C113.708 95.2779 113.887 95.5423 114.226 95.8307C114.871 96.467 115.359 97.0053 115.722 97.4439C116.401 98.2648 117.05 99.1593 117.848 99.8647L121.462 98.5204C121.279 98.4472 120.827 98.2073 120.484 97.8331C120.068 97.3784 119.976 97.3002 119.591 96.975L119.557 96.9466C119.144 96.5971 119.065 96.3912 119.065 95.7421C119.065 95.0931 119.065 94.8046 119.557 94.0197C120.05 93.2348 119.065 93.2903 119.065 92.316C119.065 91.3418 118.285 91.6608 118.285 90.656C118.285 89.6513 119.065 90.1172 119.557 89.7567C120.05 89.3961 120.484 88.6025 120.484 88.3407C120.484 88.0789 119.557 87.9538 119.065 87.6855C118.572 87.4171 119.065 87.1606 118.285 87.1606C117.506 87.1606 116.974 86.0691 116.974 85.8625C116.974 85.6559 116.448 85.502 116.165 85.0693C115.883 84.6366 116.165 84.6363 116.448 83.9876C116.731 83.3389 116.165 82.8337 115.883 82.0939C115.6 81.354 115.317 80.021 115.317 79.5882C115.317 79.4745 115.436 79.3834 115.616 79.3114C116.467 78.9697 117.428 79.1829 118.319 79.401C118.588 79.467 118.851 79.5325 119.065 79.5882C119.689 79.7504 119.929 80.3772 119.971 80.6703C119.999 81.174 120.142 82.2337 120.484 82.4433C120.912 82.7055 123.823 82.8338 124.251 82.8338C124.68 82.8338 126.649 82.9777 127.933 83.317C129.217 83.6564 128.275 84.2756 128.532 84.9251C128.789 85.5745 130.93 85.6462 131.957 85.7183C132.73 85.7726 135.027 86.9057 136.271 87.5659C136.419 87.6442 136.545 87.7561 136.642 87.8919L136.678 87.9424C137.102 88.5353 136.204 89.028 136.204 89.7567C136.204 89.9744 136.678 90.4987 136.951 90.656C137.224 90.8133 138.214 90.9658 138.214 91.2455C138.214 91.4692 139.109 91.8123 139.556 91.9558Z" fill="#5B711A"/>
<path d="M151.445 63.1397L148.349 64.1173C147.52 64.3793 146.328 64.8695 146.579 65.7022C146.717 66.1596 146.717 66.23 147.082 66.7499C147.447 67.2697 147.544 67.3912 148.993 67.6585C150.441 67.9258 149.889 67.6585 150.648 67.8486C151.406 68.0388 152.165 67.9542 154.096 68.3061C156.027 68.658 156.303 68.7283 157.268 68.9395C157.268 68.7995 159.555 67.95 160.17 67.6585C160.785 67.3671 161.613 67.2203 162.096 66.9851C162.579 66.7498 162.514 66.6668 163.079 66.5076C163.644 66.3485 164.187 65.9926 164.664 65.9926C165.141 65.9926 166.077 65.7022 166.638 65.7022C167.2 65.7022 167.2 65.2122 168.822 65.4572C170.444 65.7022 171.744 65.796 173.126 65.9926C174.509 66.1893 175.889 66.2848 177.061 66.2211C177.286 66.2089 177.487 66.1926 177.666 66.174C178.326 66.1055 178.841 65.4572 179.504 65.4572H180.55C181.486 65.4572 182.062 65.1707 183.108 65.2344C184.154 65.298 185.461 65.4572 186.539 65.4572C187.617 65.4572 185.915 65.1832 188.536 65.7022C191.156 66.2211 191.245 66.2211 191.904 66.2211C192.564 66.2211 193.776 66.4497 194.026 66.2211C194.275 65.9926 194.864 65.7022 195.148 65.7022H196.895C197.503 65.7022 198.092 65.9926 198.699 65.9926H198.896C199.193 66.0431 200.044 66.1138 201.073 65.9926C202.359 65.8412 202.161 65.5888 202.854 64.5177C203.408 63.6609 203.084 63.4949 202.854 63.5191C202.128 63.6032 200.499 63.721 199.787 63.5191C198.896 63.2667 198.302 63.6705 197.313 63.5191C196.324 63.3676 196.027 63.1397 195.433 63.1397C194.84 63.1397 194.147 63.1397 193.553 62.8123C192.955 62.4825 192.251 62.3199 191.656 61.9855C190.14 61.1349 188.07 60.0358 187.617 60.0358C186.925 60.0358 184.748 59.5356 184.154 59.5356C183.68 59.5356 182.44 59.8691 181.879 60.0358L180.616 60.3579C179.878 60.5464 179.119 60.6517 178.357 60.6596C177.635 60.6671 176.883 60.6669 176.635 60.6416C176.141 60.5911 174.656 60.3892 173.865 60.0358C173.644 59.9374 173.313 59.8528 172.946 59.7822C171.671 59.537 170.393 59.2476 169.243 58.6421C168.538 58.2701 167.899 57.9141 167.731 57.7642C167.49 57.5494 166.358 57.7291 165.438 57.9311C164.921 58.0447 164.425 58.2356 163.95 58.47C163.371 58.7554 162.76 58.9693 162.13 59.1071L161.941 59.1483C160.771 59.4042 159.665 59.8867 158.642 60.5104C157.234 61.3695 155.494 62.3249 154.561 62.5035C153.231 62.7579 151.929 63.0336 151.445 63.1397Z" fill="#32410A"/>
<path d="M157.268 68.9395C158.234 69.1506 158.441 69.2234 159.613 69.6778C159.987 69.2205 161.007 68.3061 162.096 68.3061C163.457 68.3061 163.831 67.8486 165.079 67.8486C166.326 67.8486 167.077 67.6585 167.731 67.6585C168.385 67.6585 167.636 67.4684 168.822 67.6585C170.007 67.8486 167.482 67.8486 170.996 67.8486C174.509 67.8486 174.914 68.141 175.268 67.6585C175.622 67.1761 176.878 66.7499 177.556 66.7499C178.233 66.7499 178.242 66.5146 179.053 66.7499C179.864 66.9851 179.967 66.6986 180.923 66.9851C181.879 67.2716 181.736 67.1761 183.108 67.3352C183.799 67.4154 184.626 67.4156 185.289 67.3916C185.727 67.3757 186.627 67.4891 187.038 67.3352C187.974 66.9851 187.849 66.9851 188.536 66.9851C189.222 66.9851 189.409 66.7499 189.846 66.7499C190.282 66.7499 190.532 66.5146 191.904 66.7499C193.298 66.9044 194.143 66.9637 194.529 66.98C194.653 66.9853 194.776 66.9654 194.894 66.9267C195.235 66.815 195.577 66.5678 195.933 66.5234C196.013 66.5135 196.105 66.5076 196.209 66.5076H197.769L198.896 66.5806V65.9926H198.699C198.092 65.9926 197.503 65.7022 196.895 65.7022H195.148C194.864 65.7022 194.275 65.9926 194.026 66.2211C193.776 66.4497 192.564 66.2211 191.904 66.2211C191.245 66.2211 191.156 66.2211 188.536 65.7022C185.915 65.1832 187.617 65.4572 186.539 65.4572C185.461 65.4572 184.154 65.298 183.108 65.2344C182.062 65.1707 181.486 65.4572 180.55 65.4572H179.504C178.841 65.4572 178.326 66.1055 177.666 66.174C177.487 66.1926 177.286 66.2089 177.061 66.2211C175.889 66.2848 174.509 66.1893 173.126 65.9926C171.744 65.796 170.444 65.7022 168.822 65.4572C167.2 65.2122 167.2 65.7022 166.638 65.7022C166.077 65.7022 165.141 65.9926 164.664 65.9926C164.187 65.9926 163.644 66.3485 163.079 66.5076C162.514 66.6668 162.579 66.7498 162.096 66.9851C161.613 67.2203 160.785 67.3671 160.17 67.6585C159.555 67.95 157.268 68.7995 157.268 68.9395Z" fill="#263726"/>
<path d="M202.26 67.6585C201.864 67.4902 200.815 67.0729 199.787 66.7499C199.256 66.5833 199.001 66.5527 198.896 66.5806C198.896 66.6425 198.806 66.6471 198.85 66.6038C198.86 66.5941 198.875 66.5862 198.896 66.5806L197.769 66.5076H196.209C196.105 66.5076 196.013 66.5135 195.933 66.5234C195.577 66.5678 195.235 66.815 194.894 66.9267C194.776 66.9654 194.653 66.9853 194.529 66.98C194.143 66.9637 193.298 66.9044 191.904 66.7499C190.532 66.5146 190.282 66.7499 189.846 66.7499C189.409 66.7499 189.222 66.9851 188.536 66.9851C187.849 66.9851 187.974 66.9851 187.038 67.3352C186.627 67.4891 185.727 67.3757 185.289 67.3916C184.626 67.4156 183.799 67.4154 183.108 67.3352C181.736 67.1761 181.879 67.2716 180.923 66.9851C179.967 66.6986 179.864 66.9851 179.053 66.7499C178.242 66.5146 178.233 66.7499 177.556 66.7499C176.878 66.7499 175.622 67.1761 175.268 67.6585C174.914 68.141 174.509 67.8486 170.996 67.8486C167.482 67.8486 170.007 67.8486 168.822 67.6585C167.636 67.4684 168.385 67.6585 167.731 67.6585C167.077 67.6585 166.326 67.8486 165.079 67.8486C163.831 67.8486 163.457 68.3061 162.096 68.3061C161.007 68.3061 159.987 69.2205 159.613 69.6778C160.785 70.1321 160.17 70.0655 160.785 70.3822C161.401 70.6988 161.544 70.9452 162.096 71.596C162.647 72.2469 162.441 72.1767 162.579 72.5286C162.716 72.8805 163.079 72.9157 167.731 73.3027C168.236 73.3209 168.639 73.3375 168.956 73.3526C169.195 73.364 170.756 73.764 170.996 73.764C171.413 73.764 172.302 74.0191 172.578 74.0191C172.685 74.0191 172.901 74.1381 173.126 74.2941C174.154 73.8996 176.295 73.1105 176.635 73.1105C177.061 73.1105 176.435 73.4612 178.679 72.5286C179.828 72.0508 181.023 71.8025 181.925 71.6857C182.558 71.6038 183.566 71.3498 184.154 71.596C187.038 72.6562 184.231 72.457 187.617 73.1105C190.153 73.5999 191.326 73.5797 192.424 73.6458C193.178 73.6912 193.936 73.7494 194.685 73.6543C195.941 73.4948 196.996 73.2315 197.826 72.9527C199.113 72.5206 200.052 71.6952 201.408 71.6181C201.687 71.6023 202.399 71.6245 202.673 71.6793C206.065 72.3561 207.698 72.5286 208.097 72.5286C208.812 72.5206 210.305 72.4138 210.555 72.0504C210.805 71.6869 211.672 71.1585 212.074 70.9398C211.721 70.8691 211.322 70.7859 210.867 70.6874L208.889 69.6778C208.347 69.4015 207.845 69.0504 207.356 68.6897C206.951 68.3909 206.464 68.0215 206.02 67.6585C205.228 67.0124 204.832 67.3893 204.733 67.6585H202.854H202.26Z" fill="#32410A"/>
<path d="M220.464 73.764C220.225 73.764 219.115 73.4064 216.542 72.0418C215.99 71.7493 215.421 71.4708 214.802 71.3869C214.345 71.325 213.708 71.2668 212.074 70.9398C211.672 71.1585 210.805 71.6869 210.555 72.0504C210.305 72.4138 208.812 72.5206 208.097 72.5286C207.698 72.5286 206.065 72.3561 202.673 71.6793C202.399 71.6245 201.687 71.6023 201.408 71.6181C200.052 71.6952 199.113 72.5206 197.826 72.9527C196.996 73.2315 195.941 73.4948 194.685 73.6543C193.936 73.7494 193.178 73.6912 192.424 73.6458C191.326 73.5797 190.153 73.5999 187.617 73.1105C184.231 72.457 187.038 72.6562 184.154 71.596C183.566 71.3498 182.558 71.6038 181.925 71.6857C181.023 71.8025 179.828 72.0508 178.679 72.5286C176.435 73.4612 177.061 73.1105 176.635 73.1105C176.295 73.1105 174.154 73.8996 173.126 74.2941C173.484 74.5421 173.865 74.8838 173.865 74.9918C173.865 75.1677 174.509 75.4844 174.509 75.8935V76.6104C174.509 76.791 174.854 77.2174 175.268 77.6196C175.682 78.0217 176.635 77.8068 177.061 77.8068C177.487 77.8068 177.751 77.6196 178.233 77.6196C178.716 77.6196 178.785 77.6196 179.504 77.3845C180.224 77.1495 180.371 77.2174 180.923 77.2174C181.475 77.2174 181.879 76.9325 183.75 76.9325C185.622 76.9325 186.992 77.2174 189.474 77.2174C191.957 77.2174 192.992 77.6196 194.716 77.8068C196.44 77.994 197.845 77.9547 198.305 77.6196C198.765 77.2844 199.093 77.4017 199.787 77.2174C200.48 77.0331 200.341 77.0331 200.538 76.9325C200.735 76.832 201.326 76.6644 202.26 76.4298C203.194 76.1952 202.854 76.1952 203.658 75.8935C204.463 75.5919 205.235 75.3908 206.02 75.173C206.805 74.9551 207.566 74.754 207.829 74.5865C208.039 74.4524 209.734 74.4077 210.555 74.4021L220.464 74.0191H229.567C228.017 73.9341 224.501 73.764 222.839 73.764H220.464Z" fill="#263726"/>
<path d="M230.952 73.4134C230.556 73.5749 229.863 73.8845 229.567 74.0191C230.024 74.3523 230.542 74.5969 231.1 74.6903C231.538 74.7637 232.037 74.8269 232.436 74.8269H232.931C233.292 74.6669 233.641 74.4799 233.994 74.304C234.51 74.0472 235.242 73.716 235.602 73.5934C236.024 73.4494 237.25 73.2114 237.811 73.1105C238.064 73.0686 238.667 72.9682 239.058 72.9018C239.546 72.8188 240.034 72.7837 241.009 72.6562C241.985 72.5286 242.651 72.3762 243.232 72.2655C243.814 72.1549 244.332 72.0719 244.704 71.9059C245.076 71.7399 246.782 71.2123 246.782 71.076V69.6778C246.782 69.4439 245.723 69.6973 246.782 68.9205C247.841 68.1438 244.371 68.971 248.437 67.8604C250.555 67.2819 251.961 66.9859 252.789 66.8498C253.353 66.7569 253.925 66.7007 254.489 66.6029L255.267 66.4681C255.348 66.4541 255.431 66.447 255.513 66.447C255.709 66.447 255.903 66.4867 256.083 66.5663C256.213 66.6245 256.375 66.6969 256.552 66.7779C256.766 66.8759 256.987 66.9624 257.22 67.0008C257.898 67.1128 258.428 67.006 258.63 66.9266L259.009 66.7499L259.597 66.447C258.935 66.201 258.168 65.778 257.467 65.084C256.772 64.4462 255.536 65.0671 254.593 65.0625C254.003 65.0596 253.429 65.0639 253.114 65.084C252.322 65.1345 251.828 65.3364 251.333 65.5383C250.838 65.7402 249.948 65.9926 249.057 65.9926C248.695 65.9926 248.233 66.123 247.805 66.2843C247.105 66.548 246.414 66.8395 245.708 67.0873C245.594 67.1273 245.488 67.167 245.397 67.2042C244.902 67.4061 243.814 67.6585 242.824 67.8604C241.835 68.0624 242.824 68.3653 242.824 68.6177C242.824 69.3268 244.158 69.1148 244.531 69.718C244.59 69.8138 244.649 69.9182 244.704 70.0311C245.1 70.8388 244.308 70.3845 243.814 70.6874C243.418 70.9297 242.989 70.7884 242.824 70.6874H240.747C239.955 70.6874 238.768 70.3845 238.174 70.3845C237.581 70.3845 237.284 70.6874 236.393 70.6874C236.021 70.6874 235.812 70.7334 235.703 70.7894C235.586 70.8492 235.602 71.0072 235.602 71.1385C235.602 71.6617 235.217 72.1046 234.701 72.1883C233.849 72.3262 232.83 72.5125 232.436 72.6562C231.743 72.9086 231.446 73.2114 230.952 73.4134Z" fill="#32410A"/>
<path d="M262.397 66.71C262.277 66.7366 262.04 66.8167 261.92 66.8479C261.269 67.0182 260.631 66.763 259.985 66.5753C259.861 66.5392 259.731 66.4967 259.597 66.447L259.009 66.7499L258.63 66.9266C258.428 67.006 257.898 67.1128 257.22 67.0008C256.987 66.9624 256.766 66.8759 256.552 66.7779C256.375 66.6969 256.213 66.6245 256.083 66.5663C255.903 66.4867 255.709 66.447 255.513 66.447C255.431 66.447 255.348 66.4541 255.267 66.4681L254.489 66.6029C253.925 66.7007 253.353 66.7569 252.789 66.8498C251.961 66.9859 250.555 67.2819 248.437 67.8604C244.371 68.971 247.841 68.1438 246.782 68.9205C245.723 69.6973 246.782 69.4439 246.782 69.6778V71.076C246.782 71.2123 245.076 71.7399 244.704 71.9059C244.332 72.0719 243.814 72.1549 243.232 72.2655C242.651 72.3762 241.985 72.5286 241.009 72.6562C240.034 72.7837 239.546 72.8188 239.058 72.9018C238.667 72.9682 238.064 73.0686 237.811 73.1105C237.25 73.2114 236.024 73.4494 235.602 73.5934C235.242 73.716 234.51 74.0472 233.994 74.304C233.641 74.4799 233.292 74.6669 232.931 74.8269H237.284H246.782C249.75 74.8269 248.266 74.9278 250.245 74.8269C252.223 74.7259 251.333 74.7764 253.114 74.524C254.895 74.2716 254.895 74.5744 255.389 74.524C255.884 74.4735 256.181 74.2715 256.181 74.0191C256.181 73.9258 256.28 73.8644 256.409 73.8253C256.695 73.7384 256.988 73.6377 257.189 73.4159C257.368 73.2194 257.47 72.9627 257.435 72.6995C257.394 72.3976 257.311 72.0008 257.157 71.5789C256.999 71.1437 256.614 70.5587 256.996 70.2979C257.096 70.2303 257.248 70.1617 257.467 70.0311C258.16 69.6185 258.692 68.8144 259.483 68.6567L265.043 67.548C265.675 67.422 265.814 66.6833 265.201 66.4837C265.144 66.4649 265.059 66.4299 265.006 66.4015C264.567 66.1691 264.204 66.3106 262.397 66.71Z" fill="#263726"/>
<path d="M262.216 50.6706C261.445 50.6706 260.695 50.4221 260.076 49.962L259.597 49.6058C258.953 49.2379 258.251 48.9833 257.536 48.7825C256.008 48.3528 255.961 47.9378 256.181 47.76L256.624 47.3627C257.082 46.9518 258.044 45.679 258.63 45.4885C259.851 45.0909 260.811 44.8064 261.449 44.6278C261.957 44.4855 262.483 44.424 263.011 44.424C263.541 44.424 264.069 44.3615 264.585 44.2378L266.638 43.7451C266.724 43.7244 266.808 43.6956 266.888 43.659C267.385 43.4333 267.704 42.9381 267.704 42.3926V42.1526H268.678C270.197 42.4478 271.21 42.759 271.81 42.9928C272.23 43.1564 272.675 43.2885 273.126 43.2885C273.313 43.2885 273.5 43.3129 273.682 43.3552C275.229 43.714 276.515 43.714 277.303 43.714H280.503H283.425C283.425 44.1616 283.618 44.6181 284.032 44.7888C284.956 45.1697 285.324 44.424 285.79 44.424H287.598C288.439 44.424 289.924 44.7615 290.673 44.9585C290.757 44.9805 290.837 45.0095 290.916 45.0447L291.503 45.3063C291.751 45.4172 291.911 45.6637 291.911 45.9356C291.911 46.3161 292.222 46.623 292.593 46.7073C292.67 46.7247 292.747 46.7452 292.825 46.7693C293.294 46.9153 293.329 47.4857 292.961 47.8106C291.718 48.9068 291.067 48.546 290.102 49.038C289.249 49.4735 289.295 49.575 288.547 49.5986C287.917 49.6185 287.285 49.6658 286.665 49.7842C282.028 50.6706 281.943 50.6706 280.503 50.6706C275.912 50.6706 277.164 49.4638 274.799 50.6706C272.434 51.8773 271.738 51.8773 270.765 52.0903C269.791 52.3032 268.641 52.7292 267.704 52.0903C266.767 51.4514 266.362 50.6706 265.085 50.6706H262.216Z" fill="#2D412E"/>
<defs>
<radialGradient id="paint0_radial_1702_16565" cx="0" cy="0" r="1" gradientUnits="userSpaceOnUse" gradientTransform="translate(164.021 31.8901) rotate(-90) scale(60.2258 197.54)">
<stop stop-color="white"/>
<stop offset="0.395833" stop-color="#FAB95D"/>
<stop offset="1" stop-color="#E25963"/>
</radialGradient>
<linearGradient id="paint1_linear_1702_16565" x1="161.577" y1="-57.5919" x2="167.69" y2="99.8567" gradientUnits="userSpaceOnUse">
<stop stop-color="#FEF2F2"/>
<stop offset="1" stop-color="#FEF2F2" stop-opacity="0"/>
</linearGradient>
<linearGradient id="paint2_linear_1702_16565" x1="161.577" y1="-57.5919" x2="167.69" y2="99.8567" gradientUnits="userSpaceOnUse">
<stop stop-color="#FEF2F2"/>
<stop offset="1" stop-color="#FEF2F2" stop-opacity="0"/>
</linearGradient>
</defs>
</svg>
