<svg width="62" height="60" viewBox="0 0 62 60" fill="none" xmlns="http://www.w3.org/2000/svg">
<mask id="mask0_2481_19110" style="mask-type:alpha" maskUnits="userSpaceOnUse" x="0" y="0" width="62" height="60">
<ellipse cx="31" cy="30" rx="31" ry="30" fill="#C4C4C4"/>
</mask>
<g mask="url(#mask0_2481_19110)">
<path d="M-141 2.04568C-141 -3.47717 -136.523 -7.95431 -131 -7.95431H177C182.523 -7.95431 187 -3.47716 187 2.04568V81.8647C187 87.3876 182.523 91.8647 177 91.8647H-131C-136.523 91.8647 -141 87.3875 -141 81.8647V2.04568Z" fill="url(#paint0_radial_2481_19110)"/>
<path d="M17.3595 17.6592L23.2162 20.008L28.2906 21.5492C28.5525 21.6287 28.8357 21.5966 29.0732 21.4605L29.2066 21.384C29.9859 20.9371 29.7555 19.7565 28.8653 19.6355C28.7566 19.6208 28.652 19.5875 28.5549 19.5365C27.2632 18.8582 24.7682 17.5534 24.0524 17.1994C23.1227 16.7395 22.1929 16.7873 21.6119 16.4229C21.2173 16.1755 18.6796 15.482 17.9641 14.6938C17.2465 13.9031 19.1325 13.5005 20.1995 13.4622C21.9731 13.3986 23.9102 13.3926 26.1443 13.0782C29.0724 12.6661 26.2605 12.4895 26.1443 12.0961C26.0281 11.7028 24.9821 11.4297 24.0524 11.4297C23.1227 11.4297 20.2173 11.5475 18.5903 11.4297C16.9632 11.312 15.4524 11.2531 13.593 10.9587C11.7335 10.6643 12.1984 10.7821 11.5011 10.4289C10.8038 10.0756 12.1984 9.87072 12.1984 7.83839C12.1984 7.04211 12.9668 7.39821 12.1984 7.01415C11.4299 6.63009 12.0822 6.30766 8.13078 4.24706C5.80646 3.36395 7.08484 4.24706 4.17944 3.83494C1.27403 3.42282 0.460526 3.83494 -1.91888 3.83494H-3.95569C-5.31155 3.87419 -8.55786 4.01156 -10.6962 4.24706C-13.3692 4.54143 -16.0422 4.24706 -16.7395 4.24706H-21.6206C-22.8989 4.24706 -24.4097 4.67835 -27.0827 4.67835C-29.2211 4.67835 -29.6782 4.39082 -29.6395 4.24706C-29.6008 4.05081 -28.4076 3.3404 -23.9449 2.06871C-23.2476 1.89209 -21.1557 1.65659 -15.4611 0.361362C-9.76651 -0.933871 -13.1368 0.243613 -10.1152 -0.168506C-7.09355 -0.580626 -9.06921 -0.345129 -3.95569 -1.00859C-2.32866 -1.00859 -1.91888 -1.34599 -0.210846 -1.64036C1.49719 -1.93473 0.809158 -1.99361 1.73889 -2.2291C2.66862 -2.4646 3.48213 -2.64122 3.48213 -2.98639C3.48213 -3.33157 4.76053 -3.28884 4.76053 -3.46546C4.76053 -3.79125 4.62973 -4.10602 4.37566 -4.30994C4.10794 -4.5248 3.77238 -4.76081 3.48213 -4.87844C2.90105 -5.11394 1.15781 -5.23169 -0.210846 -5.40831C-1.35301 -5.5557 -2.59871 -5.94504 -3.75034 -5.94504C-4.2383 -5.94504 -4.72105 -5.95866 -5.0914 -5.99705C-5.99997 -6.09125 -7.42455 -6.23255 -8.02325 -6.29142L-11.9409 -6.65227C-12.7353 -6.72544 -13.5181 -6.8934 -14.2725 -7.15257L-15.1604 -7.45755C-16.2059 -7.8167 -17.3037 -8 -18.4092 -8H-116.4C-117.462 -8 -118.324 -7.13895 -118.324 -6.07679C-118.324 -5.96602 -118.242 -5.82425 -118.106 -5.66536C-116.916 -4.27315 -114.915 -3.97992 -113.085 -3.8862C-110.717 -3.76485 -107.258 -3.50124 -103.193 -2.98639C-95.3843 -1.99729 -96.8485 -2.98639 -88.0633 -3.9755C-79.2781 -4.9646 -80.9863 -3.9755 -77.8139 -3.9755C-74.6414 -3.9755 -71.9566 -4.09912 -69.2727 -3.9755C-66.5886 -3.85187 -66.3442 -3.4809 -64.88 -2.98639C-63.4158 -2.49189 -65.1241 -1.75035 -66.3442 -1.00859C-67.5644 -0.266839 -68.7846 0.227611 -71.9567 0.722114C-75.1287 1.21662 -75.8616 2.20565 -79.034 2.9474C-82.2065 3.68916 -83.6707 4.18384 -86.3547 4.67835C-89.0387 5.17285 -88.3071 6.03811 -89.0393 6.65623C-89.7714 7.27436 -88.551 8.63466 -86.3547 8.63466C-84.1584 8.63466 -77.3254 8.63466 -71.9567 7.39821C-66.5879 6.16175 -52.6779 7.39821 -50.2376 7.39821H-33.3993C-31.203 7.39821 -24.6142 7.15095 -19.7335 7.39821C-14.8528 7.64546 -14.3648 7.89291 -11.6805 8.63466C-8.99608 9.37641 -8.01981 8.38741 -5.0914 8.63466C-3.81288 8.74261 -3.0092 9.00271 -2.52963 9.27031C-2.02473 9.55205 -1.73715 10.1075 -1.38512 10.5662C-0.639862 11.5371 0.492462 12.1381 1.71596 12.1733C3.34604 12.2202 5.31055 12.2313 6.37811 12.0961C6.75246 12.0487 7.10622 12.1376 7.43338 12.3156C9.45628 13.4161 10.8014 15.6394 12.9668 16.4229L17.3595 17.6592Z" fill="url(#paint1_linear_2481_19110)"/>
<path d="M45.6686 14.4323C44.7928 14.615 43.4146 14.784 41.8477 14.9155C38.9969 15.1548 37.9404 18.2439 40.7876 17.9648C42.8794 17.9059 43.1119 17.6592 47.7605 17.1994C52.4092 16.7395 49.62 17.1994 52.7578 17.1994C55.8957 17.1994 54.2686 16.905 56.9416 16.4229C59.6146 15.9408 58.4524 16.4229 62.1713 16.4229C65.8903 16.4229 63.4497 15.9042 65.4254 15.1868C67.401 14.4694 66.5876 14.4323 69.0281 13.5492C71.4686 12.6661 71.4686 13.0782 77.6281 13.0782C83.7875 13.0782 81.8119 12.6661 86.8092 12.4306C91.8065 12.1951 100.639 12.1362 103.777 12.0185C106.915 11.9007 108.774 11.8418 113.655 11.4297C118.536 11.0176 116.444 11.4297 119.466 11.4297C122.488 11.4297 122.023 11.4297 127.136 10.4289C132.25 9.42799 132.366 9.87072 135.736 9.25137C139.106 8.63202 139.223 8.83925 141.547 8.42713C143.871 8.01501 145.731 8.07388 148.985 7.54402C149.239 7.50268 149.466 7.46779 149.669 7.43813C150.581 7.30516 150.576 5.65089 149.682 5.42454C148.288 5.0713 148.636 5.42454 145.731 5.42454C144.738 5.42454 144.478 5.21218 143.459 4.33371C143.352 4.24163 143.29 4.10709 143.29 3.96608C143.29 3.69856 143.507 3.4817 143.775 3.4817H149.682C153.633 3.4817 153.633 3.95269 155.725 4.18819C157.817 4.42368 156.771 4.30593 158.863 4.8358C160.955 5.36567 161.42 4.8358 166.417 4.8358C171.415 4.8358 171.298 5.24792 173.506 4.8358C174.821 4.59038 179.616 4.7684 183.5 4.9321C185.137 5.00112 187 3.21895 187 1.58025C187 -0.474092 185.337 -2.15624 183.283 -2.09815C182.877 -2.08666 182.508 -2.07177 182.223 -2.05248C180.479 -1.93473 179.898 -1.75811 175.947 -1.40486C171.996 -1.05162 174.204 -1.46374 171.996 -1.40486C169.788 -1.34599 166.766 -1.11049 164.558 -0.698374C162.35 -0.286253 160.142 -0.698374 159.444 -0.698374C158.747 -0.698374 145.963 0.125865 137.247 1.00898C128.531 1.89209 133.644 0.950104 130.855 1.00898C128.066 1.06785 126.671 1.24447 122.023 1.47997C117.374 1.71547 118.188 2.00984 117.025 2.18646C115.863 2.36309 112.958 2.53971 109.82 2.95183C109.538 2.98888 105.808 3.21795 105.526 3.25364C104.854 3.33859 104.21 3.42178 103.777 3.4817C100.958 3.87109 104.318 7.69569 107.124 7.22005C108.433 6.99799 110.421 6.73588 113.655 6.54315C123.534 5.95441 117.374 6.54315 120.628 6.54315C123.882 6.54315 122.952 6.42541 124.696 6.54315C125.897 6.6243 124.983 7.64864 123.845 8.04421C123.5 8.16451 123.18 8.29534 122.952 8.42713C122.139 8.89812 121.79 8.30938 120.628 8.42713C119.466 8.54488 116.677 9.07475 114.469 9.25137C112.261 9.42799 92.1551 9.87072 89.8308 9.87072C87.5065 9.87072 84.601 10.9587 80.5335 10.9587C76.4659 10.9587 75.7686 11.4297 72.0497 11.4297C68.3308 11.4297 67.2849 12.0961 64.3794 12.0961C61.474 12.0961 63.3335 12.0961 59.847 13.0782C56.3605 14.0603 55.8957 13.0782 54.8497 13.5492C53.8038 14.0202 51.4794 13.5492 50.2011 13.5492C48.9227 13.5492 47.6443 14.0202 45.6686 14.4323Z" fill="url(#paint2_linear_2481_19110)"/>
<path d="M-140.958 11.0739H-125.319L-116.832 8.26748C-115.274 7.75217 -113.613 7.62835 -111.995 7.90693L-104.033 9.27827L-91.8006 13.1995C-91.2333 13.3814 -90.6509 13.5122 -90.0604 13.5903L-79.4113 15C-78.6055 15.1067 -77.8158 15.3112 -77.0595 15.609L-58.7045 22.8372L-45.0483 27.34C-43.4985 27.851 -41.8471 27.975 -40.2383 27.7011L-14.8703 23.3816L-6.97905 22.2568C-6.13188 22.1361 -5.27306 22.1242 -4.42314 22.2237C0.0636292 22.7492 7.16231 23.6195 7.46832 23.8172C7.8055 24.0349 12.9476 24.2709 15.4765 24.3616L24.9748 25.625C25.735 25.7261 26.5044 25.7394 27.2676 25.6647L35.0168 24.906C35.7561 24.8337 36.5008 24.8441 37.238 24.9354C40.0157 25.2792 44.1808 25.7771 44.7695 25.7771C45.3797 25.7771 51.3268 24.4697 55.0553 23.6293C55.7829 23.4653 56.5261 23.3816 57.272 23.3816H67.4124C67.9812 23.3816 68.5491 23.4301 69.1097 23.5267L72.0908 24.0401C73.3241 24.2525 74.5864 24.2316 75.8121 23.9783L77.0291 23.7267C78.1343 23.4983 79.2703 23.4586 80.3888 23.6094L84.42 24.1527C85.4468 24.2911 86.4888 24.2691 87.5089 24.0875L103.596 21.2228C104.277 21.1016 104.968 21.0513 105.659 21.0727L120.426 21.5305L130.331 22.6738L131.545 22.8111C132.967 22.9718 134.406 22.8255 135.767 22.3822L146.36 18.9298C147.052 18.7043 147.766 18.555 148.49 18.4846L154.235 17.9259C155.634 17.7898 156.989 17.3601 158.211 16.665L165.948 12.2636C167.197 11.5537 168.583 11.1208 170.013 10.9945L184.047 9.75547C184.341 9.72948 184.638 9.75174 184.925 9.82139C186.143 10.1166 187 11.2068 187 12.4596V32.5525C187 38.039 182.58 42.5009 177.093 42.5521L-130.865 45.4259C-136.424 45.4778 -140.958 40.9857 -140.958 35.4264V11.0739Z" fill="#6C4147"/>
<path d="M-99.2439 38.695C-99.2439 34.4581 -96.5816 30.6398 -92.477 29.5892C-90.034 28.9639 -87.3478 28.4123 -85.1838 28.3121C-79.7816 28.0618 -79.2995 30.8283 -77.6853 30.5793C-76.0711 30.3302 -59.2839 24.2059 -53.9397 22.7313C-48.5956 21.2566 -46.2519 20.6381 -38.9425 20.6385C-31.6332 20.639 -27.8821 22.0334 -26.1324 22.7313C-24.518 23.3752 -19.4101 25.4542 -16.5029 26.6395C-16.0482 26.8248 -15.6098 27.0427 -15.1873 27.2929L-6.34914 32.5252C-5.7919 32.8551 -5.2729 33.2524 -4.70351 33.5608C-4.1001 33.8877 -3.189 34.242 -2.07445 34.242C-0.00546265 34.242 3.16339 31.8853 9.4859 31.6258C14.9855 31.4001 22.7377 33.5465 24.6624 34.1091C24.9618 34.1966 25.2509 34.3018 25.5428 34.4119C26.7865 34.8811 30.4864 36.1604 33.8563 36.1604C37.9832 36.1604 46.5432 34.242 52.2904 34.242C58.0376 34.242 63.1413 37.8309 68.8498 37.73C74.5583 37.6291 78.6858 36.1604 85.7216 36.1604C91.4715 36.1604 101.595 38.2569 105.104 39.0233C105.93 39.2036 106.72 39.5038 107.517 39.7849C108.66 40.1876 110.563 40.6948 112.904 40.6948H152.897C156.72 40.6948 168.48 36.0976 172.893 36.1604C173.991 36.176 175.418 36.0187 176.94 35.7737C182.054 34.9504 187 38.6354 187 43.8155C187 48.136 183.495 51.6372 179.174 51.6325L-89.2547 51.3439C-94.7733 51.338 -99.2439 46.8626 -99.2439 41.3439V38.695Z" fill="#462635"/>
<path d="M-75.4517 34.4699C-87.3891 36.7484 -130.02 35.0946 -140.958 34.3712V40.7108C-138.223 40.3491 -130.458 39.5048 -124.241 39.6784C-118.023 39.852 -111 40.3295 -108.265 40.5465C-100.206 40.8359 -82.7053 41.241 -77.1788 40.5465C-73.5254 40.0874 -70.677 39.4134 -68.8333 38.8629C-67.4828 38.4597 -65.9391 37.6917 -65.8649 36.2842C-65.8387 35.7876 -66.0767 35.3441 -66.8165 35.121C-66.927 35.0877 -67.0069 35.0566 -67.0584 35.0279L-71.6837 33.2475C-71.8216 33.5975 -73.0066 34.0032 -75.4517 34.4699Z" fill="#5F0915"/>
<path d="M-124.241 39.6784C-130.458 39.5048 -138.223 40.3491 -140.958 40.7108V42.2827H-113.82C-112.999 42.2827 -112.18 42.384 -111.383 42.5843L-109.199 43.1332C-108.578 43.2892 -107.948 43.3862 -107.308 43.4154C-101.434 43.683 -88.6001 43.8649 -77.1788 42.7167C-62.0672 41.1976 -66.8165 41.6316 -59.9084 40.9806C-54.3819 40.4597 -51.5611 38.8827 -50.8415 38.1593C-50.712 37.834 -51.625 36.704 -53.8195 35.7221C-54.3357 35.4912 -54.8832 35.3417 -55.4413 35.2502C-60.7331 34.3831 -67.9651 34.5216 -67.0584 35.0279L-66.8165 35.121C-66.0767 35.3441 -65.8387 35.7876 -65.8649 36.2842C-65.9391 37.6917 -67.4828 38.4597 -68.8333 38.8629C-70.677 39.4134 -73.5254 40.0874 -77.1788 40.5465C-82.7053 41.241 -100.206 40.8359 -108.265 40.5465C-111 40.3295 -118.023 39.852 -124.241 39.6784Z" fill="#8DB150"/>
<path d="M-50.8415 38.1593C-51.5611 38.8827 -54.3819 40.4597 -59.9084 40.9806C-66.8165 41.6316 -62.0672 41.1976 -77.1788 42.7167C-88.6001 43.8649 -101.434 43.683 -107.308 43.4154C-107.948 43.3862 -108.578 43.2892 -109.199 43.1332L-111.383 42.5843C-112.18 42.384 -112.999 42.2827 -113.82 42.2827H-140.958V45.9573C-138.469 45.6794 -131.071 45.3882 -123.45 45.5197C-122.827 45.5305 -122.205 45.6042 -121.595 45.73C-115.635 46.9593 -112.542 47.2742 -111.719 47.2742H-93.1539C-73.0817 46.6473 -63.271 45.3549 -46.9556 42.2827C-45.196 41.8479 -44.7666 41.4558 -44.7968 40.5465L-50.8415 38.1593Z" fill="#5F0915"/>
<path d="M-121.595 45.73C-122.205 45.6042 -122.827 45.5305 -123.45 45.5197C-131.071 45.3882 -138.469 45.6794 -140.958 45.9573V49.0178C-137.792 48.8732 -129.681 48.7065 -125.536 48.3593C-124.162 48.2442 -123.067 48.2213 -122.205 48.2527C-120.384 48.3189 -119.449 49.7158 -117.965 50.7743C-117.428 51.1574 -116.577 51.4803 -115.925 51.5842C-114.09 51.8768 -112.529 51.7986 -111.485 51.637C-110.77 51.5262 -110.055 51.358 -109.334 51.2821C-87.7333 49.0059 -74.4572 48.4275 -52.2864 46.1891C-46.2417 45.8274 -34.6073 44.1057 -33.5711 42.7167C-33.4597 42.5675 -33.4158 42.4226 -33.4287 42.2827C-33.4986 41.5268 -35.2292 40.9164 -36.9607 40.5465C-37.8908 40.3478 -38.8211 40.2185 -39.4945 40.1734L-44.7968 40.5465C-44.7666 41.4558 -45.196 41.8479 -46.9556 42.2827C-63.271 45.3549 -73.0817 46.6473 -93.1539 47.2742H-111.719C-112.542 47.2742 -115.635 46.9593 -121.595 45.73Z" fill="#8DB150"/>
<path d="M-33.5711 42.7167C-34.6073 44.1057 -46.2417 45.8274 -52.2864 46.1891C-74.4572 48.4275 -87.7333 49.0059 -109.334 51.2821C-110.055 51.358 -110.77 51.5262 -111.485 51.637C-112.529 51.7986 -114.09 51.8768 -115.925 51.5842C-116.577 51.4803 -117.428 51.1574 -117.965 50.7743C-119.449 49.7158 -120.384 48.3189 -122.205 48.2527C-123.067 48.2213 -124.162 48.2442 -125.536 48.3593C-129.681 48.7065 -137.792 48.8732 -140.958 49.0178V55.3574C-138.079 55.0681 -130.118 54.0198 -125.536 54.87C-125.133 54.9448 -124.791 55.041 -124.5 55.1535C-122.225 56.0341 -121.214 58.5199 -118.789 58.7802C-116.965 58.9759 -114.766 59.0507 -112.583 58.7764C-108.438 58.2555 -97.9032 55.9551 -93.1539 54.87C-86.1018 53.7849 -69.5798 51.441 -59.9084 50.7465C-51.6711 50.155 -39.9258 48.3671 -32.889 47.1794C-31.0311 46.8658 -29.6853 45.2519 -29.6853 43.3678L-33.5711 42.7167Z" fill="#5F0915"/>
<path d="M-125.536 54.87C-130.118 54.0198 -138.079 55.0681 -140.958 55.3574C-140.67 56.2979 -140.958 57.9484 -140.958 59.5109C-135.345 61.0301 -126.831 62.0317 -125.536 62.0317H-111.719C-105.243 61.887 -91.6859 61.5108 -89.268 61.1636C-86.2457 60.7296 -80.1189 60.2306 -78.3919 59.7966C-77.0102 59.4494 -75.0303 58.487 -76.3256 58.5593C-77.4377 58.6215 -82.5524 58.7049 -85.7258 58.6174C-86.6455 58.592 -87.5867 58.4701 -88.3772 57.9995C-89.9296 57.0753 -88.3168 56.4149 -87.1092 56.1721L-65.5213 52.4827L-41.3428 49.8785C-37.313 49.6614 -27.7855 49.0104 -21.9136 48.1423C-16.7514 47.3791 -14.2847 46.4724 -14.155 46.0678C-14.2048 45.9795 -14.9753 45.5579 -14.9753 45.5579C-15.8389 45.0515 -19.6862 43.7582 -22.1041 43.5845C-24.5219 42.7165 -28.1021 43.3678 -29.6853 43.3678C-29.6853 45.2519 -31.0311 46.8658 -32.889 47.1794C-39.9258 48.3671 -51.6711 50.155 -59.9084 50.7465C-69.5798 51.441 -86.1018 53.7849 -93.1539 54.87C-97.9032 55.9551 -108.438 58.2555 -112.583 58.7764C-114.766 59.0507 -116.965 58.9759 -118.789 58.7802C-121.214 58.5199 -122.225 56.0341 -124.5 55.1535C-124.791 55.041 -125.133 54.9448 -125.536 54.87Z" fill="#8DB150"/>
<path d="M-21.9136 48.1423C-27.7855 49.0104 -37.313 49.6614 -41.3428 49.8785L-65.5213 52.4827L-87.1092 56.1721C-88.3168 56.4149 -89.9296 57.0753 -88.3772 57.9995C-87.5867 58.4701 -86.6455 58.592 -85.7258 58.6174C-82.5524 58.7049 -77.4377 58.6215 -76.3256 58.5593C-75.0303 58.487 -77.0102 59.4494 -78.3919 59.7966C-80.1189 60.2306 -86.2457 60.7296 -89.268 61.1636C-91.6859 61.5108 -105.243 61.887 -111.719 62.0317H-125.536C-126.831 62.0317 -135.345 61.0301 -140.958 59.5109V65.6319C-138.655 66.3553 -129.335 68.4555 -116.901 68.1083C-101.357 67.6743 -95.7444 68.5424 -81.0646 66.3721C-79.841 66.1551 -78.7962 65.9594 -77.9074 65.7842C-75.1968 65.2501 -75.9206 62.4575 -74.2076 60.2899C-73.9008 57.6174 -68.8356 56.9937 -61.8729 56.1364L-61.6548 56.1095C-54.58 55.2381 -38.4339 53.1454 -28.7489 52.3964C-19.0638 51.6475 -12.0118 51.6146 -12.4767 49.8785C-12.7319 48.9253 -13.2363 47.829 -13.6393 47.034C-13.8617 46.5953 -14.0532 46.2483 -14.155 46.0678C-14.2847 46.4724 -16.7514 47.3791 -21.9136 48.1423Z" fill="#5F0915"/>
<path d="M-59.4766 62.0317C-65.3486 60.99 -73.2757 59.1107 -74.2076 60.2899C-75.9206 62.4575 -75.1968 65.2501 -77.9074 65.7842C-78.7962 65.9594 -79.841 66.1551 -81.0646 66.3721C-95.7444 68.5424 -101.357 67.6743 -116.901 68.1083C-129.335 68.4555 -138.655 66.3553 -140.958 65.6319V70.6599C-140.958 70.6599 -126.928 71.3195 -115.174 71.1466C-103.419 70.9737 -87.1092 70.2275 -80.2011 69.4104C-73.2929 68.5934 -68.3891 68.0446 -64.226 67.0232C-60.0629 66.0018 -53.6047 63.0734 -59.4766 62.0317Z" fill="#8DB150"/>
<path d="M-59.4766 62.0317C-53.6047 63.0734 -60.0629 66.0018 -64.226 67.0232C-68.3891 68.0446 -73.2929 68.5934 -80.2011 69.4104C-87.1092 70.2275 -103.419 70.9737 -115.174 71.1466C-126.928 71.3195 -140.958 70.6599 -140.958 70.6599V76.3436C-118.659 76.7397 -86.9418 75.4462 -82.2929 74.9716C-77.6441 74.4969 -55.7074 71.3935 -54.981 70.8093C-54.2546 70.2251 -53.0924 64.1642 -54.4725 63.361C-55.8526 62.5577 -59.4766 62.0317 -59.4766 62.0317Z" fill="#5F0915"/>
<path d="M-74.2076 60.2899C-73.2757 59.1107 -65.3486 60.99 -59.4766 62.0317C-59.4766 62.0317 -55.8526 62.5577 -54.4725 63.361C-53.0924 64.1642 -54.2546 70.2251 -54.981 70.8093C-55.7074 71.3935 -77.6441 74.4969 -82.2929 74.9716C-86.9418 75.4462 -118.659 76.7397 -140.958 76.3436V84.6507C-140.958 84.6507 -94.7701 84.5333 -77.8759 82.5319C-60.9816 80.5305 -30.5593 74.0022 -24.2618 72.8053C-23.8533 72.7276 -23.4734 72.6498 -23.1215 72.5717C-18.0481 71.445 -18.8147 70.2548 -24.2618 68.7005L-24.6981 68.5913C-29.782 67.319 -34.2403 66.1957 -37.8952 65.1899C-47.8787 62.4425 -51.8673 60.5712 -46.2343 58.9314C-45.9103 58.8371 -45.5879 58.7709 -45.2546 58.718C-40.8307 58.016 -7.7747 52.7468 -4.99979 51.612C-2.02527 50.3956 -12.4767 49.8785 -12.4767 49.8785C-12.0118 51.6146 -19.0638 51.6475 -28.7489 52.3964C-38.4339 53.1454 -54.58 55.2381 -61.6548 56.1095L-61.8729 56.1364C-68.8356 56.9937 -73.9008 57.6174 -74.2076 60.2899Z" fill="#8DB150"/>
<path d="M-4.99979 51.612C-7.7747 52.7468 -40.8307 58.016 -45.2546 58.718C-45.5879 58.7709 -45.9103 58.8371 -46.2343 58.9314C-51.8673 60.5712 -47.8787 62.4425 -37.8952 65.1899C-38.0344 64.7467 -42.7051 63.1175 -37.3447 60.9564C-31.9843 58.7954 -14.4967 56.9723 -10.991 56.5409C-7.4852 56.1095 -3.29314 54.1283 -3.29314 54.1283L-4.99979 51.612Z" fill="#5F0915"/>
<path d="M-24.6981 68.5913C-24.6981 68.5913 -27.0206 66.4645 -27.2923 63.0959C-27.5639 59.7274 -3.61618 56.8355 2.59343 56.1095C2.59343 56.1095 2.63477 56.1017 2.71016 56.0955C8.64864 55.3645 -3.32344 53.8921 -3.29314 54.1283C-3.29314 54.1283 -7.4852 56.1095 -10.991 56.5409C-14.4967 56.9723 -31.9843 58.7954 -37.3447 60.9564C-42.7051 63.1175 -38.0344 64.7467 -37.8952 65.1899C-34.2403 66.1957 -29.782 67.319 -24.6981 68.5913Z" fill="#8DB150"/>
<path d="M-24.6981 68.5913L-24.2618 68.7005L-16.6558 67.9846L-16.7039 67.9387C-17.8661 66.8277 -18.8113 65.9241 -17.3304 65.1899C-15.8291 64.4456 6.88744 59.7414 6.88744 59.7414C5.56851 56.0891 3.25404 56.0507 2.71016 56.0955C2.672 56.1002 2.63309 56.1049 2.59343 56.1095C-3.61618 56.8355 -27.5639 59.7274 -27.2923 63.0959C-27.0206 66.4645 -24.6981 68.5913 -24.6981 68.5913Z" fill="#5F0915"/>
<path d="M19.2994 61.6445C19.0432 61.5901 11.1572 60.4929 6.88744 59.7414C6.88744 59.7414 -15.8291 64.4456 -17.3304 65.1899C-18.8113 65.9241 -17.8661 66.8277 -16.7039 67.9387L-16.6558 67.9846C-16.6558 67.9846 15.4717 65.2325 20.9474 64.4456C21.7364 64.3322 22.3173 64.2092 22.7283 64.0805C25.1691 63.316 20.8699 61.9781 19.2994 61.6445Z" fill="#8DB150"/>
<path d="M-16.6558 67.9846L-24.2618 68.7005C-18.8147 70.2548 -18.0481 71.445 -23.1215 72.5717L23.6633 66.0644L22.7283 64.0805C22.3173 64.2092 21.7364 64.3322 20.9474 64.4456C15.4717 65.2325 -16.6558 67.9846 -16.6558 67.9846Z" fill="#5F0915"/>
<path d="M23.6633 66.0644L-23.1215 72.5717C-6.70956 71.7135 26.2463 69.9688 26.7742 69.8551C27.3021 69.7414 30.6392 67.786 32.2417 66.8226L23.6633 66.0644Z" fill="#8DB150"/>
<path d="M-24.2618 72.8053C-30.5593 74.0022 -60.9816 80.5305 -77.8759 82.5319C-94.7701 84.5333 -140.958 84.6507 -140.958 84.6507V91.8647L-16.1566 80.4145C-15.9594 80.3964 -15.7701 80.3736 -15.5743 80.3436C-12.9745 79.9455 6.63531 76.923 14.8531 75.067C20.2216 73.8545 26.4044 72.4094 30.4158 71.4654C32.4793 70.9798 33.4175 68.5865 32.2417 66.8226C30.6392 67.786 27.3021 69.7414 26.7742 69.8551C26.2463 69.9688 -6.70956 71.7135 -23.1215 72.5717C-23.4734 72.6498 -23.8533 72.7276 -24.2618 72.8053Z" fill="#5F0915"/>
<path d="M-140.958 34.3712C-130.02 35.0946 -87.3891 36.7484 -75.4517 34.4699C-73.0066 34.0032 -71.8216 33.5975 -71.6837 33.2475C-70.846 31.1208 -109.352 30.6965 -138.081 31.4157C-139.684 31.4559 -140.958 32.7683 -140.958 34.3712Z" fill="#8DB150"/>
<path d="M0.289124 81.1172C1.16966 83.068 7.34607 84.2285 6.72926 85.4355C6.16908 86.5317 -19.7964 90.1536 -23.3868 91.2647C-23.4844 91.2949 -23.3232 91.8383 -23.3868 91.8647C-23.5595 91.9364 -23.4976 91.8306 -23.3868 91.8647L45.0288 91.8434C45.0288 91.8434 36.5007 89.0197 35.1332 87.9367C33.7656 86.8536 35.8754 84.6667 35.3294 83.4381C34.7834 82.2094 34.166 80.9686 35.8754 79.7671C37.5849 78.5657 54.0311 73.8662 54.0311 73.8662C54.0311 73.8662 50.2469 74.4403 46.4443 74.6119C43.0792 74.7636 18.5367 77.3573 12.9331 77.9522C12.1673 78.0335 11.41 78.0435 10.6416 78.0947C7.47644 78.3058 -0.459625 79.4584 0.289124 81.1172Z" fill="#8DB150"/>
<path d="M66.4533 88.9959C70.0774 90.0025 70.2816 90.9171 71.7832 91.8434H96.0498C95.8263 91.4531 95.3457 90.6219 92.6012 89.9495C92.1182 89.8312 91.6376 89.6949 91.1635 89.5444C89.4824 89.0107 87.7061 88.7246 85.5584 88.4595C82.4306 88.0735 80.3336 85.0971 81.0572 82.0297C81.5101 79.3834 83.549 78.0345 88.8685 75.7603L89.1693 75.6831C104.893 71.6461 113.802 69.3587 132.712 66.9578C130.93 67.064 151.486 64.1953 153.248 63.7281C155.011 63.2609 154.122 62.2072 153.421 61.2624C152.72 60.3176 144.468 58.1553 144.468 58.1553C144.468 58.5812 144.151 58.9357 143.727 58.9727C140.147 59.2854 124.746 60.6324 122.831 60.8292C120.663 61.0522 119.586 61.8585 120.374 62.6476C121.162 63.4366 124.772 65.2752 124.196 65.8382C123.621 66.4012 123.552 66.5739 121.398 67.1419C119.244 67.7099 57.0168 74.6129 54.5089 75.067C52.0009 75.521 43.1694 78.6802 40.5167 79.7671C37.864 80.854 38.5198 82.0662 38.8786 83.4381C39.2375 84.8099 44.6052 85.6697 48.1612 86.4571C51.7172 87.2446 62.8293 87.9893 66.4533 88.9959Z" fill="#8DB150"/>
<path d="M178.274 65.8382C179.38 65.0349 182.604 61.3142 181.222 59.7357C179.841 58.1572 164.071 54.7304 161.244 54.0539C160.37 53.8447 160.766 53.7432 160.738 53.118C160.738 53.118 148.483 55.129 147.327 55.4639C146.171 55.7987 146.667 57.2108 147.327 57.9653C147.987 58.7198 156.219 60.2796 156.461 61.1633C156.703 62.0471 157.276 63.4243 156.02 64.1081C154.815 64.7642 134.463 67.744 132.818 67.9842C132.739 67.9956 132.671 68.0046 132.592 68.0142C112.834 70.4158 106.242 72.8064 92.0418 76.3424C91.5686 76.4603 91.0963 76.6129 90.6463 76.8008C88.9965 77.4897 87.7056 78.0854 86.6882 78.6734C84.0817 80.18 84.4755 83.7158 87.4341 84.2735C87.6678 84.3176 87.9146 84.3609 88.1755 84.4045C93.6152 85.3306 96.6505 86.1917 103.223 86.2808C103.563 86.2854 104.736 86.4625 105.07 86.5257C108.438 87.1637 106.696 90.1016 103.557 91.4792L102.727 91.8434H130.902C130.789 91.4015 130.886 90.7265 130.419 89.5917C130.247 88.9265 129.674 88.5425 126.529 87.7677C124.798 87.5163 120.036 87.0662 118.464 87.171C116.782 87.2832 112.19 85.2426 110.401 84.2847L111.051 80.3074L111.143 79.7388C110.999 79.4799 111.062 79.136 111.143 78.3439C111.28 77.0165 119.965 74.3093 121.398 73.8662C122.831 73.4231 177.274 65.2653 177.842 66.0166C177.991 65.9575 178.135 65.898 178.274 65.8382Z" fill="#8DB150"/>
<path d="M146.441 71.5316C147.261 71.3207 148.092 71.1166 148.933 71.0179C158.93 69.8446 160.232 69.5165 164.813 68.7623C170.161 68.0084 173.442 67.3684 175.698 66.7316C151.049 69.8297 141.509 71.6422 124.843 74.808L124.196 74.9309C119.308 76.2705 117.522 76.979 115.858 77.9356C115.429 78.1821 115.175 78.6451 115.175 79.1397C115.175 79.7969 115.624 80.369 116.263 80.525L122.831 82.1302L134.842 84.2246C135.801 84.3918 136.73 84.698 137.6 85.1335L140.298 86.4836C142.327 87.4993 143.609 89.5741 143.609 91.8434H173.191C171.811 91.6138 170.821 91.3192 169.951 90.9669C168.254 90.2795 167.089 88.9786 167.215 87.1519C167.256 86.558 167.422 85.6089 167.569 85.0321C167.625 84.8137 167.686 84.6347 167.768 84.5862C169.701 83.4497 159.196 80.0485 149.904 79.8891C149.154 79.8763 148.393 79.8343 147.713 79.5191C146.008 78.7282 144.491 77.1152 144.863 76.6435C144.998 76.472 144.873 75.2738 144.58 74.5117C144.507 74.3234 144.468 74.1095 144.468 73.8662C144.468 72.0758 145.302 71.8244 146.441 71.5316Z" fill="#8DB150"/>
<path d="M174.079 86.0222C175.24 87.3735 187 89.6933 187 89.6933V44.4739C177.93 45.0934 172.252 45.6375 169.277 46.5445C166.453 47.4053 168.679 50.0383 171.56 50.6809C179.497 52.4512 182.426 53.3274 183.649 53.9149C184.916 54.5232 185.851 55.8371 186.081 57.2235C186.265 58.3323 185.893 59.1543 185.753 59.9482C185.305 63.0189 185.582 63.8716 184.334 65.046C183.722 65.6226 182.943 65.9975 182.154 66.2887C170.338 70.6476 160.436 71.0012 154.9 71.6013C151.103 72.0128 152.715 74.3825 156.516 74.7578C167.085 75.8018 186.319 78.2878 184.4 81.611C181.939 85.8745 172.919 84.6709 174.079 86.0222Z" fill="#8DB150"/>
<path d="M6.72926 85.4355C7.34607 84.2285 1.16966 83.068 0.289124 81.1172C-0.459625 79.4584 7.47644 78.3058 10.6416 78.0947C11.41 78.0435 12.1673 78.0335 12.9331 77.9522C18.5367 77.3573 43.0792 74.7636 46.4443 74.6119C50.2469 74.4403 54.0311 73.8662 54.0311 73.8662C53.9703 73.8749 53.4946 73.8995 52.703 73.9367C47.7169 74.1709 30.1958 74.9043 24.8435 75.3041C18.7742 75.7574 11.3876 76.8736 2.25002 78.409C1.84985 78.4763 1.45474 78.5672 1.0679 78.6897C-0.273865 79.1146 -3.46477 80.1887 -3.29314 80.7416C-3.07616 81.4406 3.15556 84.0064 3.08632 85.1833C3.05255 85.7572 0.0595551 86.415 -3.67239 87.0971C-7.59496 87.8141 -13.4022 88.5628 -16.3794 89.2643C-19.5488 90.011 -21.9023 90.7486 -23.3868 91.2647C-23.4703 91.2937 -23.3087 91.8371 -23.3868 91.8647C-23.2592 91.8105 -24.3194 92.1946 -23.3868 91.8647C-23.3232 91.8383 -23.4844 91.2949 -23.3868 91.2647C-19.7964 90.1536 6.16908 86.5317 6.72926 85.4355Z" fill="#5F0915"/>
<path d="M54.0311 73.8662C54.0311 73.8662 37.5849 78.5657 35.8754 79.7671C34.166 80.9686 34.7834 82.2094 35.3294 83.4381C36.7454 84.7278 37.49 85.4659 39.8207 86.4571C43.3466 87.9653 45.6178 88.6361 51.077 88.9959C56.3531 89.2533 58.7838 89.4057 60.4573 89.7462C63.5704 90.6008 65.2849 91.0785 68.228 91.8434H71.7832C70.2816 90.9171 70.0774 90.0025 66.4533 88.9959C62.8293 87.9893 51.7172 87.2446 48.1612 86.4571C44.6052 85.6697 39.2375 84.8099 38.8786 83.4381C38.5198 82.0662 37.864 80.854 40.5167 79.7671C43.1694 78.6802 52.0009 75.521 54.5089 75.067C57.0168 74.6129 119.244 67.7099 121.398 67.1419C123.552 66.5739 123.621 66.4012 124.196 65.8382C124.772 65.2752 121.162 63.4366 120.374 62.6476C119.586 61.8585 120.663 61.0522 122.831 60.8292C124.746 60.6324 140.147 59.2854 143.727 58.9727C144.151 58.9357 144.468 58.5812 144.468 58.1553C144.468 58.1553 124.943 59.6611 120.374 60.1088C115.805 60.5565 116.452 61.0932 117.098 61.8585C117.299 62.0972 117.694 62.4608 118.142 62.8481C119.517 64.0383 120.141 65.7735 118.395 66.2842C117.013 66.6884 111.868 67.2346 108.043 67.6011C105.572 67.8379 103.652 67.9996 103.652 67.9996L54.0311 73.8662Z" fill="#5F0915"/>
<path d="M160.74 52.9018C160.74 52.9018 146.909 55.0409 145.689 55.4639C144.469 55.8869 144.468 58.1553 144.468 58.1553C144.468 58.1553 152.72 60.3176 153.421 61.2624C154.122 62.2072 155.011 63.2609 153.248 63.7281C151.486 64.1953 130.93 67.064 132.712 66.9578C113.802 69.3587 104.893 71.6461 89.1693 75.6831L88.8685 75.7603C83.549 78.0345 81.5101 79.3834 81.0572 82.0297C82.0564 84.7861 83.9603 85.027 87.0416 85.766C92.4758 86.306 103.735 87.0831 103.735 88.1408C103.735 89.1985 96.0498 91.8434 96.0498 91.8434H102.727L103.557 91.4792C106.696 90.1016 108.438 87.1637 105.07 86.5257C104.736 86.4625 103.563 86.2854 103.223 86.2808C96.6505 86.1917 93.6152 85.3306 88.1755 84.4045C87.9146 84.3609 87.6678 84.3176 87.4341 84.2735C84.4755 83.7158 84.0817 80.18 86.6882 78.6734C87.7056 78.0854 88.9965 77.4897 90.6463 76.8008C91.0963 76.6129 91.5686 76.4603 92.0418 76.3424C106.242 72.8064 112.834 70.4158 132.592 68.0142C132.671 68.0046 132.739 67.9956 132.818 67.9842C134.463 67.744 154.815 64.7642 156.02 64.1081C157.276 63.4243 156.703 62.0471 156.461 61.1633C156.219 60.2796 147.987 58.7198 147.327 57.9653C146.667 57.2108 146.171 55.7987 147.327 55.4639C148.483 55.129 160.738 53.118 160.738 53.118C160.735 53.0544 160.736 52.9893 160.739 52.9227C160.739 52.9157 160.74 52.9088 160.74 52.9018Z" fill="#5F0915"/>
<path d="M177.842 66.0166C177.274 65.2653 122.831 73.4231 121.398 73.8662C119.965 74.3093 111.28 77.0165 111.143 78.3439C111.062 79.136 110.999 79.4799 111.143 79.7388C111.241 79.9138 111.434 80.0499 111.78 80.2592C112.638 80.7784 117.015 82.8667 119.207 83.2501C121.398 83.6336 130.154 84.6609 131.832 84.9593C132.53 85.0834 134.015 85.5803 135.462 86.1236C137.583 86.92 139.219 89.5843 139.047 91.8434H143.609C143.609 89.5741 142.327 87.4993 140.298 86.4836L137.6 85.1335C136.73 84.698 135.801 84.3918 134.842 84.2246L122.831 82.1302L116.263 80.525C115.624 80.369 115.175 79.7969 115.175 79.1397C115.175 78.6451 115.429 78.1821 115.858 77.9356C117.522 76.979 119.308 76.2705 124.196 74.9309L124.843 74.808C141.509 71.6422 151.049 69.8297 175.698 66.7316C176.537 66.4947 177.234 66.2583 177.842 66.0166Z" fill="#5F0915"/>
<path d="M187 44.4739C187 43.8573 186.478 43.3696 185.863 43.4115L170.255 44.4739C168.329 44.7627 166.889 45.0295 165.723 45.5579C164.633 46.0517 163.783 46.7738 162.999 47.9555C162.841 49.1537 163.172 49.6852 164.004 50.1455C164.525 50.4335 165.107 50.5908 165.687 50.7205C170.995 51.9073 174.238 52.6503 180.315 53.924C183.539 54.8486 185.524 55.2545 185.263 58.4008C184.576 62.0065 183.615 62.5914 181.964 63.7886C180.647 64.5728 179.696 65.2262 178.274 65.8382C178.135 65.898 177.991 65.9575 177.842 66.0166C177.234 66.2583 176.537 66.4947 175.698 66.7316C173.442 67.3684 170.161 68.0084 164.813 68.7623C160.232 69.5165 158.93 69.8446 148.933 71.0179C148.092 71.1166 147.261 71.3207 146.441 71.5316C145.302 71.8244 144.468 72.0758 144.468 73.8662C144.468 74.1095 144.507 74.3234 144.58 74.5117C145.208 76.1399 148.337 75.8523 150.194 76.0453C150.266 76.0527 150.331 76.06 150.403 76.0669C151.523 76.1746 161.516 77.1373 163.988 77.4663C166.609 77.8149 174.107 79.4747 175.698 79.7671C177.288 80.0596 180.315 80.1328 180.315 81.611C180.315 83.0893 172.045 83.329 170.255 84.015C168.465 84.701 169.036 85.5492 169.101 86.4571C169.164 87.345 178.315 89.5781 180.199 90.038L180.315 90.0664C181.899 90.4533 187 91.8434 187 91.8434V89.6933C187 89.6933 175.24 87.3735 174.079 86.0222C172.919 84.6709 181.939 85.8745 184.4 81.611C186.319 78.2878 167.085 75.8018 156.516 74.7578C152.715 74.3825 151.103 72.0128 154.9 71.6013C160.436 71.0012 170.338 70.6476 182.154 66.2887C182.943 65.9975 183.722 65.6226 184.334 65.046C185.582 63.8716 185.305 63.0189 185.753 59.9482C185.893 59.1543 186.265 58.3323 186.081 57.2235C185.851 55.8371 184.916 54.5232 183.649 53.9149C182.426 53.3274 179.497 52.4512 171.56 50.6809C168.679 50.0383 166.453 47.4053 169.277 46.5445C172.252 45.6375 177.93 45.0934 187 44.4739Z" fill="#5F0915"/>
<path d="M3.08632 85.1833C3.15556 84.0064 -3.07616 81.4406 -3.29314 80.7416L-3.67239 87.0971C0.0595551 86.415 3.05255 85.7572 3.08632 85.1833Z" fill="#3D1017"/>
<path d="M35.3294 83.4381C35.8754 84.6667 33.7656 86.8536 35.1332 87.9367C36.5007 89.0197 45.0288 91.8434 45.0288 91.8434H68.228C65.2849 91.0785 63.5704 90.6008 60.4573 89.7462C58.7838 89.4057 56.3531 89.2533 51.077 88.9959C45.6178 88.6361 43.3466 87.9653 39.8207 86.4571C37.49 85.4659 36.7454 84.7278 35.3294 83.4381Z" fill="#3D1017"/>
<path d="M87.0416 85.766C83.9603 85.027 82.0564 84.7861 81.0572 82.0297C80.3336 85.0971 82.4306 88.0735 85.5584 88.4595C87.7061 88.7246 89.4824 89.0107 91.1635 89.5444C91.6376 89.6949 92.1182 89.8312 92.6012 89.9495C95.3457 90.6219 95.8263 91.4531 96.0498 91.8434C96.0498 91.8434 103.735 89.1985 103.735 88.1408C103.735 87.0831 92.4758 86.306 87.0416 85.766Z" fill="#3D1017"/>
<path d="M119.207 83.2501C117.015 82.8667 112.638 80.7784 111.78 80.2592C111.434 80.0499 111.241 79.9138 111.143 79.7388C111.143 79.8309 111.107 80.0328 111.051 80.3074L110.401 84.2847C112.19 85.2426 116.782 87.2832 118.464 87.171C120.036 87.0662 124.798 87.5163 126.529 87.7677C129.674 88.5425 130.247 88.9265 130.419 89.5917C130.886 90.7265 130.789 91.4015 130.902 91.8434H139.047C139.219 89.5843 137.583 86.92 135.462 86.1236C134.015 85.5803 132.53 85.0834 131.832 84.9593C130.154 84.6609 121.398 83.6336 119.207 83.2501Z" fill="#3D1017"/>
<path d="M163.988 77.4663C161.516 77.1373 151.523 76.1746 150.403 76.0669C150.331 76.06 150.266 76.0527 150.194 76.0453C148.337 75.8523 145.208 76.1399 144.58 74.5117C144.873 75.2738 144.998 76.472 144.863 76.6435C144.491 77.1152 146.008 78.7282 147.713 79.5191C148.393 79.8343 149.154 79.8763 149.904 79.8891C159.196 80.0485 169.701 83.4497 167.768 84.5862C167.686 84.6347 167.625 84.8137 167.569 85.0321C167.422 85.6089 167.256 86.558 167.215 87.1519C167.089 88.9786 168.254 90.2795 169.951 90.9669C170.821 91.3192 171.811 91.6138 173.191 91.8434H187C187 91.8434 181.899 90.4533 180.315 90.0664L180.199 90.038C178.315 89.5781 169.164 87.345 169.101 86.4571C169.036 85.5492 168.465 84.701 170.255 84.015C172.045 83.329 180.315 83.0893 180.315 81.611C180.315 80.1328 177.288 80.0596 175.698 79.7671C174.107 79.4747 166.609 77.8149 163.988 77.4663Z" fill="#3D1017"/>
<path d="M165.687 50.7205C165.107 50.5908 164.525 50.4335 164.004 50.1455C163.172 49.6852 162.841 49.1537 162.999 47.9555C162.783 48.3949 162.513 48.8732 162.236 49.3649C161.543 50.5934 160.803 51.9056 160.74 52.9018C160.74 52.9088 160.739 52.9157 160.739 52.9227C160.736 52.9893 160.735 53.0544 160.738 53.118C160.766 53.7432 160.37 53.8447 161.244 54.0539C164.071 54.7304 179.841 58.1572 181.222 59.7357C182.604 61.3142 179.38 65.0349 178.274 65.8382C179.696 65.2262 180.647 64.5728 181.964 63.7886C183.615 62.5914 184.576 62.0065 185.263 58.4008C185.524 55.2545 183.539 54.8486 180.315 53.924C174.238 52.6503 170.995 51.9073 165.687 50.7205Z" fill="#3D1017"/>
<path d="M54.0311 73.8662L103.652 67.9996C91.499 67.0812 84.2098 66.8083 69.5696 67.1419C64.8089 67.7531 62.7156 68.3815 59.6543 69.8551C56.6788 71.0296 55.6955 72.0333 54.0311 73.8662Z" fill="#8DB150"/>
<path d="M-12.4767 49.8785C-12.4767 49.8785 -2.02527 50.3956 -4.99979 51.612L-3.29314 54.1283C-3.32344 53.8921 8.64864 55.3645 2.71016 56.0955C3.25404 56.0507 5.56851 56.0891 6.88744 59.7414C11.1572 60.4929 19.0432 61.5901 19.2994 61.6445C20.8699 61.9781 25.1691 63.316 22.7283 64.0805L23.6633 66.0644L32.2417 66.8226C33.4175 68.5865 32.4793 70.9798 30.4158 71.4654C26.4044 72.4094 20.2216 73.8545 14.8531 75.067C6.63531 76.923 -12.9745 79.9455 -15.5743 80.3436C-15.7701 80.3736 -15.9594 80.3964 -16.1566 80.4145L-140.958 91.8647H-23.3868C-23.3232 91.8383 -23.4844 91.2949 -23.3868 91.2647C-21.9023 90.7486 -19.5488 90.011 -16.3794 89.2643C-13.4022 88.5628 -7.59496 87.8141 -3.67239 87.0971L-3.29314 80.7416C-3.46477 80.1887 -0.273865 79.1146 1.0679 78.6897C1.45474 78.5672 1.84985 78.4763 2.25002 78.409C11.3876 76.8736 18.7742 75.7574 24.8435 75.3041C30.1958 74.9043 47.7169 74.1709 52.703 73.9367C52.703 73.9367 53.5527 69.9201 58.0769 68.3713C62.6012 66.8226 59.6544 67.1419 68.228 66.0644C70.7935 65.742 75.6209 65.6966 81.0572 65.8074L67.706 61.8498C63.583 60.6276 62.7242 55.1683 66.2729 52.7393L49.7411 52.2581L39.3496 50.8748L33.0161 49.4962C24.6891 49.6818 22.8494 49.8886 9.21071 49.8801C8.24986 49.8795 7.21942 49.8723 6.41934 49.3402C6.00822 49.0668 5.91275 48.7405 6.07509 48.2332L3.58533 48.1423C3.03882 48.1713 2.63004 48.165 2.26813 48.0963C1.44936 47.9408 0.826706 47.1134 1.54898 46.6976C1.61781 46.658 1.6898 46.6167 1.76341 46.5727C-6.71692 46.8323 -13.2251 47.0289 -13.6393 47.034C-13.2363 47.829 -12.7319 48.9253 -12.4767 49.8785Z" fill="#504613"/>
<path d="M73.5522 54.0539L67.6447 55.0415C66.853 55.1738 66.2729 55.8589 66.2729 56.6616C66.2729 57.4251 66.799 58.088 67.5425 58.2613L73.055 59.5466C73.3854 59.6236 73.7234 59.6625 74.0627 59.6625H77.698C78.1411 59.6625 78.5003 60.0217 78.5003 60.4649C78.5003 60.8653 78.7955 61.2044 79.1921 61.2596L88.1869 62.5109C88.8402 62.6018 89.5009 62.6278 90.1594 62.5886L101.593 61.9075C102.055 61.88 102.416 61.4968 102.416 61.0334V60.4995C102.416 60.2872 102.238 60.1185 102.026 60.13L90.2614 60.7698C89.5369 60.8092 88.8105 60.7465 88.1035 60.5836L84.9933 59.8666C84.4397 59.7389 83.9853 59.3452 83.7802 58.8154C83.5743 58.2839 83.1178 57.8895 82.562 57.7632L78.8359 56.9159C77.7424 56.6673 76.7057 56.2141 75.7805 55.5804L73.5522 54.0539Z" fill="#7D8A48"/>
<path d="M85.7167 52.2642C84.2405 52.0091 82.8753 51.3154 81.7991 50.2733L76.8661 50.9683C76.5236 51.0166 76.269 51.3097 76.269 51.6555C76.269 52.0012 76.5233 52.2942 76.8656 52.3426L84.1082 53.3684L84.1796 53.3852C85 53.5784 85.0561 54.7246 84.2586 54.9971L84.1871 55.0215C83.6095 55.2188 83.4599 55.9662 83.9171 56.3706C84.0414 56.4805 84.1968 56.5488 84.3618 56.566C87.0977 56.8504 92.1069 57.3621 92.1069 57.3247C92.1069 57.2917 94.7777 57.1621 96.6912 57.075C97.2818 57.0481 97.872 57.0742 98.4577 57.1545C100.422 57.4241 103.274 57.8347 103.652 57.9653C104.091 58.1173 105.481 58.4378 106.121 58.5791L109.637 56.5048C109.341 56.5279 109.044 56.5221 108.75 56.4874L99.3095 55.3732C98.7323 55.305 98.1621 55.1867 97.6055 55.0196L92.1069 53.3684L85.7167 52.2642Z" fill="#7D8A48"/>
<path d="M90.3759 46.1764L86.6831 46.4795C85.5618 46.5715 84.5219 47.1019 83.789 47.9555C84.5469 48.415 85.372 48.7534 86.2343 48.9584L89.5781 49.7532C90.1061 49.8787 90.6092 50.0924 91.0662 50.3853C91.7489 50.823 92.531 51.0816 93.3401 51.137L97.2361 51.4041C98.0371 51.459 98.8274 51.6104 99.5932 51.8517C102.11 52.645 105.726 53.7544 106.121 53.7544L114.591 53.3684L114.184 51.4867H104.969C104.432 51.4867 101.93 50.1597 100.746 49.4962L95.7606 47.6063L90.3759 46.1764Z" fill="#7D8A48"/>
<path d="M96.8084 42.7167L92.255 43.4374C91.681 43.5282 91.2013 43.9228 91.0015 44.4685C91.7322 44.9495 96.6067 46.1053 98.9526 46.6231L99.9898 46.9175C101.114 47.2367 101.52 48.6204 100.746 49.4962C101.93 50.1597 104.432 51.4867 104.969 51.4867H114.184L117.098 51.0525V49.2554C114.802 49.2 112.23 49.0369 109.203 48.759C108.469 48.6915 107.682 48.3298 107.539 47.6063L107.323 47.3804C106.178 46.1841 104.755 45.2908 103.18 44.7806L96.8084 42.7167Z" fill="#7D8A48"/>
<path d="M120.189 44.9201C117.037 44.3643 114.355 42.314 112.968 39.4293L112.807 39.0948L98.9526 40.935C98.9526 41.7242 99.493 42.4085 100.259 42.5984C101.486 42.9026 102.971 43.2936 106.774 44.356C107.867 44.6614 107.319 46.4932 107.539 47.6063C107.682 48.3298 108.469 48.6915 109.203 48.759C112.23 49.0369 114.802 49.2 117.098 49.2554C123.109 49.4004 127.234 48.8074 132.712 47.6063C131.465 47.1297 128.773 46.1764 127.982 46.1764C127.46 46.1764 123.771 45.5517 120.189 44.9201Z" fill="#7D8A48"/>
<path d="M132.712 47.6063C132.059 49.0478 130.674 50.0204 129.097 50.1445C127.124 50.2996 124.859 50.4766 122.831 50.6329C123.008 51.1746 123.529 52.2581 124.196 52.2581H136.645L140.662 51.1432C141.254 50.9787 141.299 50.1554 140.727 49.9282C140.066 49.6653 140.257 48.6792 140.969 48.6862C148.425 48.7595 158.934 48.8201 159.394 48.649C159.931 48.4489 160.852 47.215 161.244 46.6231L132.712 47.6063Z" fill="#7D8A48"/>
<path d="M112.807 39.0948L112.968 39.4293C114.355 42.314 117.037 44.3643 120.189 44.9201C123.771 45.5517 127.46 46.1764 127.982 46.1764C128.773 46.1764 131.465 47.1297 132.712 47.6063L161.244 46.6231L162.274 44.8285L164.813 43.0916L156.968 41.4216C156.338 41.2874 155.695 41.2144 155.051 41.2038L138.757 40.935L126.278 39.9555L112.807 39.0948Z" fill="#7D8A48"/>
<path d="M49.7411 45.5579C49.0233 46.9354 48.3217 47.5702 45.8515 48.1423C41.9568 48.9856 39.0168 49.2418 33.0161 49.4962L39.3496 50.8748C44.8465 50.7671 53.7845 50.3068 52.703 50.2733C51.8982 50.2484 58.5354 48.9689 60.6489 47.6063C60.3396 46.6765 59.769 46.2259 58.516 45.8436C57.7953 45.6238 57.0377 45.5579 56.2841 45.5579H49.7411Z" fill="#7D8A48"/>
<path d="M38.0724 42.7167C38.1339 43.7642 36.7704 44.8509 31.8825 45.2537C26.9946 45.6565 12.3268 46.2493 1.76341 46.5727C1.6898 46.6167 1.61781 46.658 1.54898 46.6976C0.826706 47.1134 1.44936 47.9408 2.26813 48.0963C2.63004 48.165 3.03882 48.1713 3.58533 48.1423L6.07509 48.2332L17.458 48.649C21.4596 48.7599 30.3493 48.4292 31.4603 48.1423C32.6433 47.8368 40.9537 47.6188 43.6474 46.6231C46.265 45.6506 46.7373 44.919 47.4073 43.5845L38.0724 42.7167Z" fill="#7D8A48"/>
<path d="M-29.6853 43.3678C-28.1021 43.3678 -24.5219 42.7165 -22.1041 43.5845C-3.20074 43.3302 6.32175 43.2647 29.3858 42.7167C33.4282 42.6376 33.6781 41.949 34.6669 40.8939L32.5181 40.2148C31.815 39.9926 31.0895 39.8488 30.3549 39.7861L22.255 39.0948C22.4813 39.8833 22.332 40.3553 21.2363 40.8199C20.4793 41.1409 19.6494 41.2344 18.8277 41.2633L-10.1577 42.2827H-33.4287C-33.4158 42.4226 -33.4597 42.5675 -33.5711 42.7167L-29.6853 43.3678Z" fill="#7D8A48"/>
<path d="M-36.8024 38.4537C-34.6003 39.4401 -33.5203 39.6503 -31.6572 39.8805C18.6727 39.2573 4.9901 39.315 13.6708 39.0948C17.88 38.7825 18.7782 38.483 20.065 37.9163C18.787 36.7859 17.3972 36.6568 15.0207 36.345C5.86725 35.3799 0.732758 35.6289 -8.4248 35.8451C-17.7133 35.5667 -21.0163 35.7309 -27.9627 35.8451C-32.6728 36.4385 -34.8628 36.9265 -36.8024 38.4537Z" fill="#7D8A48"/>
<path d="M-31.6572 39.8805C-33.5203 39.6503 -34.6003 39.4401 -36.8024 38.4537L-36.9607 40.5465C-35.2292 40.9164 -33.4986 41.5268 -33.4287 42.2827H-10.1577L18.8277 41.2633C19.6494 41.2344 20.4793 41.1409 21.2363 40.8199C22.332 40.3553 22.4813 39.8833 22.255 39.0948L20.065 37.9163C18.7782 38.483 17.88 38.7825 13.6708 39.0948C4.9901 39.315 18.6727 39.2573 -31.6572 39.8805Z" fill="#6C6716"/>
<path d="M-22.1041 43.5845C-19.6862 43.7582 -15.8389 45.0515 -14.9753 45.5579C-14.9058 45.5929 -14.1372 46.0121 -14.155 46.0678C-14.0532 46.2483 -13.8617 46.5953 -13.6393 47.034C-13.2251 47.0289 -6.71692 46.8323 1.76341 46.5727C12.3268 46.2493 26.9946 45.6565 31.8825 45.2537C36.7704 44.8509 38.1339 43.7642 38.0724 42.7167L34.6669 40.8939C33.6781 41.949 33.4282 42.6376 29.3858 42.7167C6.32175 43.2647 -3.20074 43.3302 -22.1041 43.5845Z" fill="#6C6716"/>
<path d="M47.4073 43.5845C46.7373 44.919 46.265 45.6506 43.6474 46.6231C40.9537 47.6188 32.6433 47.8368 31.4603 48.1423C30.3493 48.4292 21.4596 48.7599 17.458 48.649L6.07509 48.2332C5.91275 48.7405 6.00822 49.0668 6.41934 49.3402C7.21942 49.8723 8.24986 49.8795 9.21071 49.8801C22.8494 49.8886 24.6891 49.6818 33.0161 49.4962C39.0168 49.2418 41.9568 48.9856 45.8515 48.1423C48.3217 47.5702 49.0233 46.9354 49.7411 45.5579L47.4073 43.5845Z" fill="#6C6716"/>
<path d="M52.703 50.2733C53.7845 50.3068 44.8465 50.7671 39.3496 50.8748L49.7411 52.2581L66.2729 52.7393C73.0005 52.2203 74.0304 51.5284 75.7259 50.2733C75.7259 50.2733 66.2729 49.8785 63.9994 49.4962C61.7259 49.1139 60.6489 47.6063 60.6489 47.6063C58.5354 48.9689 51.8982 50.2484 52.703 50.2733Z" fill="#6C6716"/>
<path d="M120.374 60.1088C124.943 59.6611 144.468 58.1553 144.468 58.1553C144.468 58.1553 144.469 55.8869 145.689 55.4639C146.909 55.0409 160.74 52.9018 160.74 52.9018C160.803 51.9056 161.543 50.5934 162.236 49.3649C162.513 48.8732 162.783 48.3949 162.999 47.9555C163.783 46.7738 164.633 46.0517 165.723 45.5579L164.813 43.0916L162.274 44.8285L161.244 46.6231C160.852 47.215 159.931 48.4489 159.394 48.649C158.934 48.8201 148.425 48.7595 140.969 48.6862C140.257 48.6792 140.066 49.6653 140.727 49.9282C141.299 50.1554 141.254 50.9787 140.662 51.1432L136.645 52.2581H124.196C123.529 52.2581 123.008 51.1746 122.831 50.6329C119.81 50.8657 117.316 51.0525 117.098 51.0525L114.184 51.4867L114.591 53.3684C114.9 54.798 113.877 56.1721 112.419 56.2865L109.637 56.5048L106.121 58.5791L102.026 60.13C102.238 60.1185 102.416 60.2872 102.416 60.4995V61.0334C102.416 61.4968 102.055 61.88 101.593 61.9075L90.1594 62.5886C89.5009 62.6278 88.8402 62.6018 88.1869 62.5109L79.1921 61.2596C78.7955 61.2044 78.5003 60.8653 78.5003 60.4649C78.5003 60.0217 78.1411 59.6625 77.698 59.6625H74.0627C73.7234 59.6625 73.3854 59.6236 73.055 59.5466L67.5425 58.2613C66.799 58.088 66.2729 57.4251 66.2729 56.6616C66.2729 55.8589 66.853 55.1738 67.6447 55.0415L73.5522 54.0539L75.7259 50.2733C74.0304 51.5284 73.0005 52.2203 66.2729 52.7393C62.7242 55.1683 63.583 60.6276 67.706 61.8498L81.0572 65.8074C93.788 66.0668 109.859 67.1824 108.043 67.6011C111.868 67.2346 117.013 66.6884 118.395 66.2842C120.141 65.7735 119.517 64.0383 118.142 62.8481C117.694 62.4608 117.299 62.0972 117.098 61.8585C116.452 61.0932 115.805 60.5565 120.374 60.1088Z" fill="#6C6716"/>
<path d="M83.7802 58.8154C83.9853 59.3452 84.4397 59.7389 84.9933 59.8666L88.1035 60.5836C88.8105 60.7465 89.5369 60.8092 90.2614 60.7698L102.026 60.13L106.121 58.5791C105.481 58.4378 104.091 58.1173 103.652 57.9653C103.274 57.8347 100.422 57.4241 98.4577 57.1545C97.872 57.0742 97.2818 57.0481 96.6912 57.075C94.7777 57.1621 92.1069 57.2917 92.1069 57.3247C92.1069 57.3621 87.0977 56.8504 84.3618 56.566C84.1968 56.5488 84.0414 56.4805 83.9171 56.3706C83.4599 55.9662 83.6095 55.2188 84.1871 55.0215L84.2586 54.9971C85.0561 54.7246 85 53.5784 84.1796 53.3852L84.1082 53.3684L76.8656 52.3426C76.5233 52.2942 76.269 52.0012 76.269 51.6555C76.269 51.3097 76.5236 51.0166 76.8661 50.9683L81.7991 50.2733H75.7259L73.5522 54.0539L75.7805 55.5804C76.7057 56.2141 77.7424 56.6673 78.8359 56.9159L82.562 57.7632C83.1178 57.8895 83.5743 58.2839 83.7802 58.8154Z" fill="#6C6716"/>
<path d="M106.121 53.7544C105.726 53.7544 102.11 52.645 99.5932 51.8517C98.8274 51.6104 98.0371 51.459 97.2361 51.4041L93.3401 51.137C92.531 51.0816 91.7489 50.823 91.0662 50.3853C90.6092 50.0924 90.1061 49.8787 89.5781 49.7532L86.2343 48.9584C85.372 48.7534 84.5469 48.415 83.789 47.9555L81.7991 50.2733C82.8753 51.3154 84.2405 52.0091 85.7167 52.2642L92.1069 53.3684L97.6055 55.0196C98.1621 55.1867 98.7323 55.305 99.3095 55.3732L108.75 56.4874C109.044 56.5221 109.341 56.5279 109.637 56.5048L112.419 56.2865C113.877 56.1721 114.9 54.798 114.591 53.3684L106.121 53.7544Z" fill="#6C6716"/>
<path d="M91.0015 44.4685L90.3759 46.1764L95.7606 47.6063L100.746 49.4962C101.52 48.6204 101.114 47.2367 99.9898 46.9175L98.9526 46.6231C96.6067 46.1053 91.7322 44.9495 91.0015 44.4685Z" fill="#6C6716"/>
<path d="M98.2923 41.0227C97.443 41.1355 96.8084 41.8599 96.8084 42.7167L103.18 44.7806C104.755 45.2908 106.178 46.1841 107.323 47.3804L107.539 47.6063C107.319 46.4932 107.867 44.6614 106.774 44.356C102.971 43.2936 101.486 42.9026 100.259 42.5984C99.493 42.4085 98.9526 41.7242 98.9526 40.935L98.2923 41.0227Z" fill="#6C6716"/>
<path d="M132.712 47.6063C127.234 48.8074 123.109 49.4004 117.098 49.2554V51.0525C117.316 51.0525 119.81 50.8657 122.831 50.6329C124.859 50.4766 127.124 50.2996 129.097 50.1445C130.674 50.0204 132.059 49.0478 132.712 47.6063Z" fill="#6C6716"/>
<path d="M52.703 73.9367C53.4946 73.8995 53.9703 73.8749 54.0311 73.8662C55.6955 72.0333 56.6788 71.0296 59.6543 69.8551C62.7156 68.3815 64.8089 67.7531 69.5696 67.1419C84.2098 66.8083 91.499 67.0812 103.652 67.9996C103.652 67.9996 105.572 67.8379 108.043 67.6011C109.859 67.1824 93.788 66.0668 81.0572 65.8074C75.6209 65.6966 70.7935 65.742 68.228 66.0644C59.6544 67.1419 62.6012 66.8226 58.0769 68.3713C53.5527 69.9201 52.703 73.9367 52.703 73.9367Z" fill="#4E1212"/>
<path d="M-140.958 86.0821V91.8647H-109.457C-109.503 91.8153 -109.564 91.7686 -109.606 91.7115C-109.945 91.2457 -108.923 90.9434 -108.354 90.8561C-107.845 90.7783 -107.388 90.7783 -106.625 90.5709C-105.863 90.3634 -105.812 90.4153 -106.625 89.8706C-107.439 89.326 -107.035 89.5335 -107.744 89.2482C-108.452 88.9629 -108.201 89.1963 -109.218 88.8851C-110.234 88.5739 -110.133 88.7555 -110.804 88.5548C-111.476 88.3541 -111.505 88.5548 -112.823 88.2108C-113.329 88.0034 -113.843 87.7649 -113.843 87.381C-113.843 86.997 -113.182 87.1124 -112.318 86.9401C-111.694 86.8156 -111.362 86.5192 -111.856 86.1297C-112.42 85.6849 -113.202 85.6848 -113.843 85.3609C-114.089 85.2364 -114.296 85.2205 -114.449 85.2471C-114.63 85.2786 -114.81 85.3609 -114.995 85.3609C-115.107 85.3609 -115.217 85.3863 -115.317 85.4359C-115.842 85.6957 -116.695 86.1327 -116.842 86.2658C-117.045 86.4494 -117.909 86.6807 -118.163 86.6807C-118.418 86.6807 -119.841 86.7326 -120.362 86.6807C-120.883 86.6289 -121.111 86.9401 -121.213 86.2658C-121.315 85.5915 -121.573 86.0821 -122.077 85.8249C-122.581 85.5677 -122.65 85.6433 -123.653 85.6433H-124.974H-126.296C-127.16 85.6433 -126.823 86.0821 -126.823 86.2658V87.1124C-126.823 87.2847 -127.973 87.1124 -128.939 86.9401C-129.905 86.7678 -130.108 86.8363 -130.972 86.551C-131.526 86.3683 -131.558 86.3558 -131.855 86.1728C-132.401 85.8373 -133.027 85.3891 -133.487 84.9431C-133.918 84.5254 -133.487 84.6579 -133.487 84.1932C-133.487 83.9529 -133.971 83.9185 -134.225 83.6094C-134.401 83.3952 -134.753 83.5571 -135.029 83.5833L-135.06 83.5862C-135.219 83.6013 -135.368 83.6684 -135.507 83.7478C-135.604 83.8032 -135.713 83.8498 -135.801 83.8498C-136.27 83.8498 -136.458 84.5327 -136.891 84.7122C-137.465 84.9499 -138.118 85.2309 -138.342 85.3609C-138.667 85.5499 -140.222 85.9204 -140.958 86.0821Z" fill="#32410A"/>
<path d="M-29.1241 78.6002L-29.9898 78.3793C-30.8109 78.1699 -31.3891 77.014 -32.2335 77.0858C-33.0815 77.1579 -35.9082 77.1579 -36.6148 77.1579C-37.0874 77.1579 -38.3828 77.4602 -39.263 77.6858C-39.5674 77.7638 -39.8846 77.7783 -40.1939 77.723L-42.1042 77.3819C-42.342 77.3394 -42.4896 77.099 -42.4199 76.8677C-42.3433 76.6137 -42.5282 76.3561 -42.7933 76.3474L-46.3658 76.2298C-46.5546 76.2235 -46.7425 76.2004 -46.9272 76.1605L-49.9141 75.5157C-50.1866 75.4569 -50.4513 75.3662 -50.7026 75.2455L-52.0569 74.5951C-52.4662 74.3986 -52.952 74.4552 -53.3052 74.7405C-53.8831 75.2074 -53.8671 76.0687 -53.3753 76.6256C-53.2645 76.751 -53.1822 76.8619 -53.151 76.9416C-53.0097 77.3021 -54.1403 77.6627 -54.7057 78.0233C-55.9083 78.7903 -57.1455 79.5254 -58.55 79.7747L-58.9018 79.8371C-59.4013 79.9258 -59.8955 80.0495 -60.3608 80.2516C-61.0897 80.5683 -61.8259 80.9819 -61.4897 81.1963C-61.0933 81.4491 -62.6225 81.5357 -63.7359 81.5533C-64.0267 81.5579 -64.3156 81.509 -64.591 81.4154L-66.3674 80.8111C-66.5704 80.7421 -66.6938 80.5365 -66.6592 80.3249C-66.6162 80.0615 -66.8162 79.821 -67.083 79.8154L-68.6801 79.7814C-69.3393 79.7674 -69.8136 79.143 -69.6503 78.5042C-69.5834 78.2423 -69.6184 77.9548 -69.8296 77.7862C-70.0909 77.5778 -70.5119 77.3742 -71.1005 77.3742C-71.6002 77.3742 -72.2667 77.477 -72.8664 77.5973C-73.6701 77.7585 -74.9001 78.2816 -75.1992 77.5185C-75.2285 77.4436 -75.284 77.3281 -75.354 77.1911C-75.7631 76.3914 -76.5849 75.8954 -77.481 75.8344L-77.6294 75.8243C-77.9823 75.8003 -78.3235 75.6881 -78.6217 75.4979C-79.0573 75.22 -79.5797 75.1115 -80.0899 75.1929L-80.8535 75.3147C-81.3043 75.3865 -81.7061 75.6395 -81.9658 76.0149C-82.2458 76.4197 -82.6898 76.6806 -83.1796 76.7282L-84.6642 76.8725C-85.1089 76.9157 -85.5032 77.1766 -85.7169 77.569C-85.9433 77.985 -86.3716 78.2514 -86.8448 78.2708L-89.1054 78.363C-89.4184 78.3758 -89.6978 78.5628 -89.829 78.8473C-90.0229 79.2676 -89.7811 79.7118 -89.4798 80.0632C-89.364 80.1981 -89.3633 80.3259 -89.6153 80.403C-89.8692 80.4808 -90.2656 80.5614 -90.6765 80.6332C-91.5265 80.7817 -93.3549 82.0829 -92.4965 81.9953C-92.309 81.9762 -91.6101 82.0892 -90.9909 82.2021C-90.6941 82.2562 -90.5915 82.6255 -90.815 82.8282C-90.8584 82.8677 -90.9107 82.8961 -90.9674 82.9112L-91.0604 82.9359C-91.6478 83.0923 -91.8296 83.9123 -91.2359 84.0429C-91.2062 84.0495 -91.1776 84.0539 -91.1503 84.0559C-90.6792 84.0902 -88.9965 84.5023 -89.5349 84.674C-89.9107 84.7939 -90.8599 85.0095 -91.4536 85.1386C-91.609 85.1724 -91.7566 85.2347 -91.8886 85.3233L-92.4669 85.7116C-92.7399 85.8949 -92.8143 86.2812 -92.5638 86.4942C-92.4605 86.5821 -91.9844 86.7496 -91.5197 86.8978C-91.0517 87.0471 -90.5694 87.145 -90.0827 87.2113C-89.6932 87.2643 -89.2825 87.3209 -89.0638 87.3528C-88.5926 87.4215 -87.6503 87.4558 -87.8522 87.6619C-88.0542 87.8679 -90.0734 88.7265 -90.5446 88.9325C-90.7133 89.0063 -91.0141 89.1562 -91.3372 89.3219C-92.0459 89.6853 -92.8563 89.8053 -93.6361 89.6432C-94.0397 89.5594 -94.4211 89.396 -94.7884 89.2088C-95.1688 89.015 -95.6208 88.8295 -95.9292 88.8295C-96.4138 88.8295 -97.6119 88.6464 -98.1503 88.5548L-100.065 88.0089C-100.313 87.938 -100.569 87.8912 -100.826 87.8693L-101.336 87.826C-101.804 87.7862 -102.249 87.6071 -102.615 87.3118C-102.779 87.1795 -102.924 87.0257 -103.047 86.8547L-103.602 86.0821C-104.046 85.6066 -104.585 85.2299 -105.184 84.9765L-106.175 84.5572C-106.743 84.3167 -107.351 84.1836 -107.969 84.1647L-109.896 84.1056C-110.214 84.0959 -110.51 83.9403 -110.699 83.6838C-110.769 83.5891 -110.854 83.507 -110.951 83.4408L-111.899 82.7961C-112.512 82.379 -113.183 82.0555 -113.892 81.8361C-114.434 81.668 -115.003 81.5314 -115.556 81.6633C-115.817 81.7258 -116.091 81.8295 -116.323 81.9953C-116.996 82.4761 -117.468 82.9569 -117.602 83.2316C-117.928 83.8975 -118.856 83.998 -119.597 83.9751C-119.898 83.9658 -120.181 83.9307 -120.362 83.8498C-120.9 83.6094 -121.035 83.3347 -121.573 83.6094C-122.365 84.0131 -123.12 84.6851 -124 84.5657C-124.049 84.559 -124.093 84.5495 -124.131 84.5367C-124.535 84.3993 -125.275 83.8498 -125.746 83.472C-126.218 83.0943 -126.42 82.7852 -126.823 82.6478C-127.227 82.5104 -127.631 82.4761 -128.641 82.4418C-129.65 82.4074 -129.65 82.5791 -130.525 82.5104C-131.4 82.4418 -132.208 82.4074 -132.746 81.9953C-133.286 81.582 -133.894 81.167 -134.571 81.103L-135.304 81.0337C-135.82 81.0223 -136.973 81.0612 -137.458 81.3085C-138.064 81.6175 -138.602 81.7206 -139.006 81.9953C-139.212 82.1352 -139.446 82.2919 -139.63 82.4138C-139.788 82.518 -139.985 82.5392 -140.161 82.4717C-140.546 82.3246 -140.958 82.6082 -140.958 83.0195V86.0821C-140.222 85.9204 -138.667 85.5499 -138.342 85.3609C-138.118 85.2309 -137.465 84.9499 -136.891 84.7122C-136.458 84.5327 -136.27 83.8498 -135.801 83.8498C-135.713 83.8498 -135.604 83.8032 -135.507 83.7478C-135.368 83.6684 -135.219 83.6013 -135.06 83.5862L-135.029 83.5833C-134.753 83.5571 -134.401 83.3952 -134.225 83.6094C-133.971 83.9185 -133.487 83.9529 -133.487 84.1932C-133.487 84.6579 -133.918 84.5254 -133.487 84.9431C-133.027 85.3891 -132.401 85.8373 -131.855 86.1728C-131.558 86.3558 -131.526 86.3683 -130.972 86.551C-130.108 86.8363 -129.905 86.7678 -128.939 86.9401C-127.973 87.1124 -126.823 87.2847 -126.823 87.1124V86.2658C-126.823 86.0821 -127.16 85.6433 -126.296 85.6433H-124.974H-123.653C-122.65 85.6433 -122.581 85.5677 -122.077 85.8249C-121.573 86.0821 -121.315 85.5915 -121.213 86.2658C-121.111 86.9401 -120.883 86.6289 -120.362 86.6807C-119.841 86.7326 -118.418 86.6807 -118.163 86.6807C-117.909 86.6807 -117.045 86.4494 -116.842 86.2658C-116.695 86.1327 -115.842 85.6957 -115.317 85.4359C-115.217 85.3863 -115.107 85.3609 -114.995 85.3609C-114.81 85.3609 -114.63 85.2786 -114.449 85.2471C-114.296 85.2205 -114.089 85.2364 -113.843 85.3609C-113.202 85.6848 -112.42 85.6849 -111.856 86.1297C-111.362 86.5192 -111.694 86.8156 -112.318 86.9401C-113.182 87.1124 -113.843 86.997 -113.843 87.381C-113.843 87.7649 -113.329 88.0034 -112.823 88.2108C-111.505 88.5548 -111.476 88.3541 -110.804 88.5548C-110.133 88.7555 -110.234 88.5739 -109.218 88.8851C-108.201 89.1963 -108.452 88.9629 -107.744 89.2482C-107.035 89.5335 -107.439 89.326 -106.625 89.8706C-105.812 90.4153 -105.863 90.3634 -106.625 90.5709C-107.388 90.7783 -107.845 90.7783 -108.354 90.8561C-108.923 90.9434 -109.945 91.2457 -109.606 91.7115C-109.564 91.7686 -109.503 91.8153 -109.457 91.8647H-94.2465C-94.0051 91.6607 -93.467 91.5576 -93.2451 91.4559C-92.9676 91.3288 -91.9893 91.0237 -91.4015 90.8966C-90.9313 90.7949 -90.4548 90.7356 -90.2753 90.7186C-90.0821 90.6762 -89.6796 90.5763 -89.6153 90.5152C-89.5349 90.439 -88.9718 90.3228 -88.412 90.1085C-88.3429 90.082 -88.2794 90.053 -88.2207 90.0226C-87.6313 89.7169 -87.0964 89.2829 -86.4688 89.0661C-86.0819 88.9325 -85.8709 88.7555 -85.8211 88.3289C-85.7713 87.9023 -86.0819 87.5932 -86.0819 87.3528C-86.0819 87.1124 -86.4688 86.795 -86.4688 86.4942C-86.4688 86.1934 -87.1166 86.8992 -87.0667 85.7866C-87.0169 84.674 -87.4155 84.365 -87.0667 84.2104C-86.718 84.0559 -86.0819 83.8196 -86.0819 83.6257C-86.0819 83.4318 -85.5772 83.4986 -85.3753 83.0919C-85.1734 82.6851 -85.3753 82.4088 -85.3753 82.2021C-85.3753 81.9953 -85.695 81.5843 -86.0819 81.3085C-86.4688 81.0326 -87.0667 80.587 -87.0667 80.403C-87.0667 80.2191 -87.354 79.8982 -86.7179 79.8261C-86.0819 79.754 -85.6716 79.253 -85.1235 79.253C-84.5755 79.253 -84.2524 79.1251 -83.3298 79.1251H-81.0877C-80.3901 79.754 -80.2407 79.7361 -81.0877 80.1428C-81.9347 80.5496 -82.5326 80.5029 -83.0807 80.6915C-83.6288 80.8801 -83.6786 80.8357 -84.0274 81.1963C-84.3762 81.5568 -84.4758 82.0654 -84.0274 82.2021C-83.579 82.3387 -83.2552 82.4819 -82.4072 82.6851C-81.5592 82.8882 -79.5509 82.6755 -79.2979 82.5071C-79.0449 82.3387 -78.6846 81.9953 -78.1672 81.9953C-77.6498 81.9953 -76.8027 81.719 -76.6533 82.2021C-76.4766 82.7728 -77.0194 83.6832 -76.4898 83.9598C-76.4317 83.9902 -76.3069 84.0085 -76.0472 84.0559C-75.1992 84.2104 -74.7537 83.9185 -74.4111 83.9185C-74.137 83.9185 -73.7654 83.7233 -73.6139 83.6257C-73.5807 83.6049 -73.4844 83.537 -73.3648 83.4318C-73.2153 83.3003 -72.9164 83.0919 -72.6174 83.0919C-72.3185 83.0919 -72.0417 82.8882 -71.5711 82.8882H-70.3254C-66.7191 83.4318 -66.0524 83.1956 -66.7191 83.6257C-67.3858 84.0559 -67.3858 83.7468 -68.2826 84.2104C-68.7299 84.4416 -69.1727 84.5647 -69.5067 84.6247C-69.809 84.6789 -70.0885 84.7423 -70.3833 84.8283C-70.6203 84.8975 -70.893 84.9404 -71.1257 85.0229C-71.5711 85.181 -71.5711 85.1897 -71.5711 85.4593C-71.5711 85.7866 -71.8755 85.6013 -71.1005 86.0478C-70.3255 86.4942 -70.0616 86.6425 -69.5458 86.4942C-69.293 86.4216 -68.8337 86.3235 -68.376 86.2573C-67.5961 86.1445 -66.1183 86.4462 -66.7191 86.9561C-67.1865 87.3528 -66.738 87.2156 -67.7345 87.3528C-68.3932 87.4434 -69.0144 87.5561 -69.3637 87.6249C-69.4847 87.6487 -69.6004 87.6928 -69.7077 87.7537C-69.8798 87.8512 -70.0799 87.8787 -70.2679 87.9402C-70.3943 87.9816 -70.3923 88.0611 -69.9698 88.2018C-68.2861 88.8528 -66.8912 89.6076 -67.124 89.8542C-66.937 89.7455 -66.5488 89.5969 -66.0903 89.6509C-65.4426 89.7271 -65.3429 89.6798 -65.0938 89.8941C-64.8447 90.1085 -64.6454 90.5152 -64.6952 90.5152C-64.999 90.5152 -64.9433 90.8229 -64.683 90.9795C-64.0397 91.3667 -63.6999 91.4559 -63.4496 91.4559C-62.752 91.4559 -63.2171 91.405 -62.3534 91.6338L-61.5575 91.8647H-54.6532C-54.7346 91.6125 -54.7326 91.0324 -52.4677 89.6468C-51.6581 89.1515 -51.7962 88.8514 -51.7962 87.9023C-51.7962 87.4183 -52.6912 87.6619 -52.6912 87.1124V86.4942L-52.0241 86.1614C-51.8845 86.0918 -51.7962 85.9491 -51.7962 85.7931C-51.7962 85.5985 -51.66 85.4305 -51.4697 85.3903L-51.3951 85.3746C-51.0098 85.2932 -50.8636 84.8241 -51.142 84.5456C-51.3569 84.3306 -51.5897 84.1047 -51.7962 83.9185C-52.2534 83.5064 -52.5834 83.7468 -52.6912 83.9185H-54.0515C-54.4755 83.9185 -56.3989 84.0902 -57.3022 83.9185C-58.1435 83.7585 -58.8525 83.5092 -54.9813 81.727C-54.3669 81.4441 -53.6935 81.295 -53.0836 81.0024C-52.8137 80.8729 -52.7077 80.7555 -52.6912 80.6915C-52.606 80.3069 -52.3076 79.4551 -51.7962 79.1251C-51.1452 78.7049 -50.6416 77.8253 -49.8672 77.7964C-49.6809 77.7894 -49.5035 77.7913 -49.3527 77.8069C-48.6551 77.879 -48.1391 77.8069 -47.5501 77.9512C-46.9611 78.0954 -47.7084 77.5506 -46.6621 78.3378C-45.6158 79.1251 -45.4663 79.1126 -45.267 79.253C-45.0677 79.3934 -45.1175 79.105 -44.9182 79.5377C-44.7189 79.9703 -44.6691 80.0518 -44.3203 80.3716C-43.9715 80.6915 -43.734 80.7021 -43.4514 80.8801C-43.1687 81.058 -44.2292 80.8357 -42.427 81.1963C-40.6247 81.5568 -40.0852 81.3631 -39.9855 81.7953C-39.8462 82.3995 -40.1606 83.0968 -39.8117 83.6094C-39.7363 83.7202 -39.6313 83.813 -39.4873 83.9185C-38.222 84.7299 -38.0711 84.7697 -37.7932 84.8969C-37.3941 85.0794 -37.0516 85.2986 -36.6851 85.5401C-36.5055 85.6585 -36.3802 85.7485 -36.2858 85.8198C-35.8311 86.1629 -35.2694 86.2966 -34.7072 86.388C-34.0541 86.4942 -33.9323 86.4942 -33.7075 86.4942C-33.2252 86.4942 -32.871 85.9839 -32.4023 85.8701L-32.2516 85.8336C-31.9953 85.7713 -31.7299 85.7556 -31.468 85.7871L-30.6623 85.884C-30.6288 85.6931 -29.6176 85.4546 -29.6894 85.2346C-29.7529 85.0405 -30.086 84.9129 -30.4495 84.834C-30.9631 84.7226 -31.4905 84.8556 -31.9587 85.0944C-32.7589 85.5027 -33.7257 85.5549 -34.4211 84.9861C-34.5949 84.8439 -34.7655 84.6856 -34.9188 84.5135C-35.0808 84.3317 -35.3009 84.1731 -35.5457 84.0371C-36.4968 83.509 -37.4735 82.6045 -37.1802 81.5568C-37.0388 81.052 -33.5055 80.2588 -31.3855 79.5377L-29.1241 78.6002Z" fill="#5B711A"/>
<path d="M-93.2451 91.4559C-93.467 91.5576 -94.0051 91.6607 -94.2465 91.8647H-61.5575L-62.3534 91.6338C-63.2171 91.405 -62.752 91.4559 -63.4496 91.4559C-63.6999 91.4559 -64.0397 91.3667 -64.683 90.9795C-64.9433 90.8229 -64.999 90.5152 -64.6952 90.5152C-64.6454 90.5152 -64.8447 90.1085 -65.0938 89.8941C-65.3429 89.6798 -65.4426 89.7271 -66.0903 89.6509C-66.5488 89.5969 -66.937 89.7455 -67.124 89.8542C-67.1309 89.8616 -67.1327 89.8593 -67.124 89.8542C-66.8912 89.6076 -68.2861 88.8528 -69.9698 88.2018C-70.3923 88.0611 -70.3943 87.9816 -70.2679 87.9402C-70.0799 87.8787 -69.8798 87.8512 -69.7077 87.7537C-69.6004 87.6928 -69.4847 87.6487 -69.3637 87.6249C-69.0144 87.5561 -68.3932 87.4434 -67.7345 87.3528C-66.738 87.2156 -67.1865 87.3528 -66.7191 86.9561C-66.1183 86.4462 -67.5961 86.1445 -68.376 86.2573C-68.8337 86.3235 -69.293 86.4216 -69.5458 86.4942C-70.0616 86.6425 -70.3255 86.4942 -71.1005 86.0478C-71.8755 85.6013 -71.5711 85.7866 -71.5711 85.4593C-71.5711 85.1897 -71.5711 85.181 -71.1257 85.0229C-70.893 84.9404 -70.6203 84.8975 -70.3833 84.8283C-70.0885 84.7423 -69.809 84.6789 -69.5067 84.6247C-69.1727 84.5647 -68.7299 84.4416 -68.2826 84.2104C-67.3858 83.7468 -67.3858 84.0559 -66.7191 83.6257C-66.0524 83.1956 -66.7191 83.4318 -70.3254 82.8882H-71.5711C-72.0417 82.8882 -72.3185 83.0919 -72.6174 83.0919C-72.9164 83.0919 -73.2153 83.3003 -73.3648 83.4318C-73.4844 83.537 -73.5807 83.6049 -73.6139 83.6257C-73.7654 83.7233 -74.137 83.9185 -74.4111 83.9185C-74.7537 83.9185 -75.1992 84.2104 -76.0472 84.0559C-76.3069 84.0085 -76.4317 83.9902 -76.4898 83.9598C-77.0194 83.6832 -76.4766 82.7728 -76.6533 82.2021C-76.8027 81.719 -77.6498 81.9953 -78.1672 81.9953C-78.6846 81.9953 -79.0449 82.3387 -79.2979 82.5071C-79.5509 82.6755 -81.5592 82.8882 -82.4072 82.6851C-83.2552 82.4819 -83.579 82.3387 -84.0274 82.2021C-84.4758 82.0654 -84.3762 81.5568 -84.0274 81.1963C-83.6786 80.8357 -83.6288 80.8801 -83.0807 80.6915C-82.5326 80.5029 -81.9347 80.5496 -81.0877 80.1428C-80.2407 79.7361 -80.3901 79.754 -81.0877 79.1251H-83.3298C-84.2524 79.1251 -84.5755 79.253 -85.1235 79.253C-85.6716 79.253 -86.0819 79.754 -86.7179 79.8261C-87.354 79.8982 -87.0667 80.2191 -87.0667 80.403C-87.0667 80.587 -86.4688 81.0326 -86.0819 81.3085C-85.695 81.5843 -85.3753 81.9953 -85.3753 82.2021C-85.3753 82.4088 -85.1734 82.6851 -85.3753 83.0919C-85.5772 83.4986 -86.0819 83.4318 -86.0819 83.6257C-86.0819 83.8196 -86.718 84.0559 -87.0667 84.2104C-87.4155 84.365 -87.0169 84.674 -87.0667 85.7866C-87.1166 86.8992 -86.4688 86.1934 -86.4688 86.4942C-86.4688 86.795 -86.0819 87.1124 -86.0819 87.3528C-86.0819 87.5932 -85.7713 87.9023 -85.8211 88.3289C-85.8709 88.7555 -86.0819 88.9325 -86.4688 89.0661C-87.0964 89.2829 -87.6313 89.7169 -88.2207 90.0226C-88.2794 90.053 -88.3429 90.082 -88.412 90.1085C-88.9718 90.3228 -89.5349 90.439 -89.6153 90.5152C-89.6796 90.5763 -90.0821 90.6762 -90.2753 90.7186C-90.4548 90.7356 -90.9313 90.7949 -91.4015 90.8966C-91.9893 91.0237 -92.9676 91.3288 -93.2451 91.4559Z" fill="#32410A"/>
<path d="M-27.3392 87.1817C-27.6878 86.6037 -28.324 86.2653 -28.9988 86.2737C-29.4928 86.2799 -30.0026 86.2753 -30.3073 86.2442C-30.6547 86.2088 -30.6947 86.0687 -30.6623 85.884L-31.468 85.7871C-31.7299 85.7556 -31.9953 85.7713 -32.2516 85.8336L-32.4023 85.8701C-32.871 85.9839 -33.2252 86.4942 -33.7075 86.4942C-33.9323 86.4942 -34.0541 86.4942 -34.7072 86.388C-35.2694 86.2966 -35.8311 86.1629 -36.2858 85.8198C-36.3802 85.7485 -36.5055 85.6585 -36.6851 85.5401C-37.0516 85.2986 -37.3941 85.0794 -37.7932 84.8969C-38.0711 84.7697 -38.222 84.7299 -39.4873 83.9185C-39.6313 83.813 -39.7363 83.7202 -39.8117 83.6094C-40.1606 83.0968 -39.8462 82.3995 -39.9855 81.7953C-40.0852 81.3631 -40.6247 81.5568 -42.427 81.1963C-44.2292 80.8357 -43.1687 81.058 -43.4514 80.8801C-43.734 80.7021 -43.9715 80.6915 -44.3203 80.3716C-44.6691 80.0518 -44.7189 79.9703 -44.9182 79.5377C-45.1175 79.105 -45.0677 79.3934 -45.267 79.253C-45.4663 79.1126 -45.6158 79.1251 -46.6621 78.3378C-47.7084 77.5506 -46.9611 78.0954 -47.5501 77.9512C-48.1391 77.8069 -48.6551 77.879 -49.3527 77.8069C-49.5035 77.7913 -49.6809 77.7894 -49.8672 77.7964C-50.6416 77.8253 -51.1452 78.7049 -51.7962 79.1251C-52.3076 79.4551 -52.606 80.3069 -52.6912 80.6915C-52.7077 80.7555 -52.8137 80.8729 -53.0836 81.0024C-53.6935 81.295 -54.3669 81.4441 -54.9813 81.727C-58.8525 83.5092 -58.1435 83.7585 -57.3022 83.9185C-56.3989 84.0902 -54.4755 83.9185 -54.0515 83.9185H-52.6912C-52.5834 83.7468 -52.2534 83.5064 -51.7962 83.9185C-51.5897 84.1047 -51.3569 84.3306 -51.142 84.5456C-50.8636 84.8241 -51.0098 85.2932 -51.3951 85.3746L-51.4697 85.3903C-51.66 85.4305 -51.7962 85.5985 -51.7962 85.7931C-51.7962 85.9491 -51.8845 86.0918 -52.0241 86.1614L-52.6912 86.4942V87.1124C-52.6912 87.6619 -51.7962 87.4183 -51.7962 87.9023C-51.7962 88.8514 -51.6581 89.1515 -52.4677 89.6468C-54.7326 91.0324 -54.7346 91.6125 -54.6532 91.8647H-23.1519C-23.9503 91.1593 -24.5991 90.2648 -25.2779 89.4439C-25.6406 89.0053 -26.1289 88.467 -26.7739 87.8307C-27.1131 87.5423 -27.2921 87.2779 -27.3392 87.1817Z" fill="#32410A"/>
<path d="M-16.4935 89.8331L-3.784 87.6122C-2.08298 87.315 -1.0013 85.625 -1.44368 83.9558C-1.89124 83.8123 -2.78636 83.4692 -2.78636 83.2455C-2.78636 82.9658 -3.7757 82.8133 -4.0491 82.656C-4.32249 82.4987 -4.79648 81.9744 -4.79648 81.7567C-4.79649 81.028 -3.89816 80.5353 -4.32179 79.9424L-4.35786 79.8919C-4.45493 79.7561 -4.58134 79.6442 -4.72882 79.5659C-5.97307 78.9057 -8.27016 77.7726 -9.04305 77.7183C-10.0704 77.6462 -12.2108 77.5745 -12.4677 76.9251C-12.7245 76.2756 -11.7828 75.6564 -13.067 75.317C-14.3512 74.9777 -16.3204 74.8338 -16.7485 74.8338C-17.1766 74.8338 -20.0875 74.7055 -20.5156 74.4433C-20.8581 74.2337 -21.0008 73.174 -21.0293 72.6703C-21.0714 72.3772 -21.3114 71.7504 -21.935 71.5882C-22.1493 71.5325 -22.4115 71.467 -22.6812 71.401C-23.5722 71.1829 -24.5327 70.9697 -25.3841 71.3114C-25.5635 71.3834 -25.6826 71.4745 -25.6826 71.5882C-25.6826 72.021 -25.3999 73.354 -25.1172 74.0939C-24.8345 74.8337 -24.2692 75.3389 -24.5519 75.9876C-24.8346 76.6363 -25.1172 76.6366 -24.8346 77.0693C-24.5519 77.502 -24.0259 77.6559 -24.0259 77.8625C-24.0259 78.0691 -23.494 79.1606 -22.7145 79.1606C-21.935 79.1606 -22.4275 79.4171 -21.935 79.6855C-21.4425 79.9538 -20.5156 80.0789 -20.5156 80.3407C-20.5156 80.6025 -20.95 81.3961 -21.4425 81.7567C-21.935 82.1172 -22.7145 81.6513 -22.7145 82.656C-22.7145 83.6608 -21.935 83.3418 -21.935 84.316C-21.935 85.2903 -20.95 85.2348 -21.4425 86.0197C-21.935 86.8046 -21.935 87.0931 -21.935 87.7421C-21.935 88.3912 -21.8557 88.5971 -21.4425 88.9466L-21.4089 88.975C-21.0243 89.3002 -20.9319 89.3784 -20.5156 89.8331C-20.1732 90.2073 -19.7213 90.4472 -19.5381 90.5204L-16.4935 89.8331Z" fill="#32410A"/>
<path d="M-1.44368 83.9558C-2.35161 82.3383 -1.47867 80.2998 0.318512 79.8407L4.25946 78.8338C5.69365 78.4675 5.85736 76.4958 4.50325 75.8979C4.233 75.7785 3.9344 75.7384 3.64226 75.7823L2.49092 75.9552C1.95769 76.0352 1.41565 76.0374 0.881775 75.9617L-0.857193 75.7152H-2.50229C-3.07681 75.7152 -3.54256 75.2494 -3.54256 74.6749C-3.54256 74.5057 -3.58383 74.339 -3.6628 74.1894L-4.41949 72.7555C-4.49332 72.6156 -4.53191 72.4598 -4.53191 72.3016C-4.53191 71.8187 -4.88623 71.409 -5.36407 71.3393L-6.88452 71.1176C-7.28949 71.0585 -7.67575 70.9082 -8.01411 70.678L-8.92648 70.0573C-9.09505 69.9426 -9.19594 69.752 -9.19594 69.5481C-9.19594 69.2394 -9.42451 68.9783 -9.73055 68.9376L-12.4466 68.5761V66.4129C-12.4466 66.1815 -13.3562 65.9656 -14.0808 65.8396C-14.3988 65.7844 -14.7247 65.8244 -15.0261 65.9398L-15.8783 66.2658C-16.1098 66.3544 -16.2627 66.5766 -16.2627 66.8244C-16.2627 67.1548 -16.5304 67.4225 -16.8608 67.4225H-19.1412C-19.4808 67.4225 -19.8178 67.4827 -20.1365 67.6001L-21.3511 68.0477C-21.9133 68.2548 -22.5022 68.3807 -23.1 68.4213C-23.905 68.4761 -24.6919 68.6851 -25.418 69.0371L-25.9206 69.2807C-26.7305 69.6733 -27.4627 70.209 -28.082 70.862L-28.7127 71.5271C-29.0764 71.9107 -29.3482 72.3718 -29.5075 72.8758C-29.8035 73.8119 -29.7126 74.8456 -29.1302 75.6359C-28.8168 76.0611 -28.497 76.4243 -28.2761 76.5089C-27.7108 76.7252 -24.8841 77.6627 -25.3081 77.9512C-25.6473 78.1819 -27.9934 78.48 -29.1241 78.6002L-31.3855 79.5377C-33.5055 80.2588 -37.0388 81.052 -37.1802 81.5568C-37.4735 82.6045 -36.4968 83.509 -35.5457 84.0371C-35.3009 84.1731 -35.0808 84.3317 -34.9188 84.5135C-34.7655 84.6856 -34.5949 84.8439 -34.4211 84.9861C-33.7257 85.5549 -32.7589 85.5027 -31.9587 85.0944C-31.4905 84.8556 -30.9631 84.7226 -30.4495 84.834C-30.086 84.9129 -29.7529 85.0405 -29.6894 85.2346C-29.6176 85.4546 -30.6288 85.6931 -30.6623 85.884C-30.6947 86.0687 -30.6547 86.2088 -30.3073 86.2442C-30.0026 86.2753 -29.4928 86.2799 -28.9988 86.2737C-28.324 86.2653 -27.6878 86.6037 -27.3392 87.1817C-27.2921 87.2779 -27.1131 87.5423 -26.7739 87.8307C-26.1289 88.467 -25.6406 89.0053 -25.2779 89.4439C-24.5991 90.2648 -23.9503 91.1593 -23.1519 91.8647L-19.5381 90.5204C-19.7213 90.4472 -20.1732 90.2073 -20.5156 89.8331C-20.9319 89.3784 -21.0243 89.3002 -21.4089 88.975L-21.4425 88.9466C-21.8557 88.5971 -21.935 88.3912 -21.935 87.7421C-21.935 87.0931 -21.935 86.8046 -21.4425 86.0197C-20.95 85.2348 -21.935 85.2903 -21.935 84.316C-21.935 83.3418 -22.7145 83.6608 -22.7145 82.656C-22.7145 81.6513 -21.935 82.1172 -21.4425 81.7567C-20.95 81.3961 -20.5156 80.6025 -20.5156 80.3407C-20.5156 80.0789 -21.4425 79.9538 -21.935 79.6855C-22.4275 79.4171 -21.935 79.1606 -22.7145 79.1606C-23.494 79.1606 -24.0259 78.0691 -24.0259 77.8625C-24.0259 77.6559 -24.5519 77.502 -24.8346 77.0693C-25.1172 76.6366 -24.8346 76.6363 -24.5519 75.9876C-24.2692 75.3389 -24.8345 74.8337 -25.1172 74.0939C-25.3999 73.354 -25.6826 72.021 -25.6826 71.5882C-25.6826 71.4745 -25.5635 71.3834 -25.3841 71.3114C-24.5327 70.9697 -23.5722 71.1829 -22.6812 71.401C-22.4115 71.467 -22.1493 71.5325 -21.935 71.5882C-21.3114 71.7504 -21.0714 72.3772 -21.0293 72.6703C-21.0008 73.174 -20.8581 74.2337 -20.5156 74.4433C-20.0875 74.7055 -17.1766 74.8338 -16.7485 74.8338C-16.3204 74.8338 -14.3512 74.9777 -13.067 75.317C-11.7828 75.6564 -12.7245 76.2756 -12.4677 76.9251C-12.2108 77.5745 -10.0704 77.6462 -9.04305 77.7183C-8.27016 77.7726 -5.97307 78.9057 -4.72882 79.5659C-4.58134 79.6442 -4.45493 79.7561 -4.35786 79.8919L-4.32179 79.9424C-3.89816 80.5353 -4.79649 81.028 -4.79648 81.7567C-4.79648 81.9744 -4.32249 82.4987 -4.0491 82.656C-3.7757 82.8133 -2.78636 82.9658 -2.78636 83.2455C-2.78636 83.4692 -1.89124 83.8123 -1.44368 83.9558Z" fill="#5B711A"/>
<path d="M10.4447 55.1397L7.34947 56.1173C6.52016 56.3793 5.32782 56.8695 5.5789 57.7022C5.71683 58.1596 5.71683 58.23 6.08192 58.7499C6.44701 59.2697 6.54439 59.3912 7.99263 59.6585C9.44087 59.9258 8.88916 59.6585 9.64775 59.8486C10.4064 60.0388 11.165 59.9542 13.0959 60.3061C15.0269 60.658 15.3028 60.7283 16.2683 60.9395C16.2683 60.7995 18.555 59.95 19.1702 59.6585C19.7854 59.3671 20.613 59.2203 21.0957 58.9851C21.5785 58.7498 21.5137 58.6668 22.0788 58.5076C22.6438 58.3485 23.1866 57.9926 23.6638 57.9926C24.1411 57.9926 25.0769 57.7022 25.6383 57.7022C26.1998 57.7022 26.1998 57.2122 27.8218 57.4572C29.4438 57.7022 30.7436 57.796 32.1264 57.9926C33.5092 58.1893 34.8885 58.2848 36.0609 58.2211C36.2859 58.2089 36.4874 58.1926 36.666 58.174C37.3258 58.1055 37.841 57.4572 38.5044 57.4572H39.5503C40.486 57.4572 41.0617 57.1707 42.1081 57.2344C43.1545 57.298 44.4613 57.4572 45.5393 57.4572C46.6173 57.4572 44.9154 57.1832 47.5356 57.7022C50.1558 58.2211 50.2447 58.2211 50.9044 58.2211C51.5641 58.2211 52.776 58.4497 53.0255 58.2211C53.2751 57.9926 53.8636 57.7022 54.1485 57.7022H55.8952C56.5031 57.7022 57.0916 57.9926 57.6994 57.9926H57.8961C58.1929 58.0431 59.0438 58.1138 60.0727 57.9926C61.3589 57.8412 61.161 57.5888 61.8536 56.5177C62.4076 55.6609 62.0844 55.4949 61.8536 55.5191C61.1281 55.6032 59.4989 55.721 58.7865 55.5191C57.8961 55.2667 57.3025 55.6705 56.3131 55.5191C55.3237 55.3676 55.0269 55.1397 54.4333 55.1397C53.8397 55.1397 53.1471 55.1397 52.5535 54.8123C51.9554 54.4825 51.2511 54.3199 50.6555 53.9855C49.1401 53.1349 47.0701 52.0358 46.6173 52.0358C45.9247 52.0358 43.7481 51.5356 43.1545 51.5356C42.6796 51.5356 41.4396 51.8691 40.8789 52.0358L39.6165 52.3579C38.8775 52.5464 38.1195 52.6517 37.3569 52.6596C36.635 52.6671 35.883 52.6669 35.6352 52.6416C35.1405 52.5911 33.6565 52.3892 32.865 52.0358C32.6444 51.9374 32.3134 51.8528 31.9464 51.7822C30.6709 51.537 29.3926 51.2476 28.2435 50.6421C27.5377 50.2701 26.8988 49.9141 26.7309 49.7642C26.4903 49.5494 25.3583 49.7291 24.4379 49.9311C23.9206 50.0447 23.4245 50.2356 22.9495 50.47C22.3712 50.7554 21.7602 50.9693 21.1302 51.1071L20.9414 51.1483C19.7711 51.4042 18.6651 51.8867 17.6424 52.5104C16.2337 53.3695 14.4945 54.3249 13.561 54.5035C12.2313 54.7579 10.9294 55.0336 10.4447 55.1397Z" fill="#32410A"/>
<path d="M16.2683 60.9395C17.2338 61.1506 17.4407 61.2234 18.6131 61.6778C18.987 61.2205 20.007 60.3061 21.0957 60.3061C22.4567 60.3061 22.831 59.8486 24.0787 59.8486C25.3264 59.8486 26.0767 59.6585 26.7309 59.6585C27.3851 59.6585 26.6365 59.4684 27.8218 59.6585C29.0071 59.8486 26.4824 59.8486 29.9958 59.8486C33.5092 59.8486 33.9139 60.141 34.2679 59.6585C34.6218 59.1761 35.8783 58.7499 36.5558 58.7499C37.2333 58.7499 37.242 58.5146 38.053 58.7499C38.864 58.9851 38.9669 58.6986 39.9229 58.9851C40.8789 59.2716 40.7356 59.1761 42.1081 59.3352C42.7995 59.4154 43.6261 59.4156 44.2888 59.3916C44.7275 59.3757 45.6272 59.4891 46.0383 59.3352C46.9741 58.9851 46.8494 58.9851 47.5356 58.9851C48.2218 58.9851 48.409 58.7499 48.8457 58.7499C49.2824 58.7499 49.5319 58.5146 50.9044 58.7499C52.2978 58.9044 53.1433 58.9637 53.5285 58.98C53.6527 58.9853 53.7758 58.9654 53.8939 58.9267C54.2347 58.815 54.5772 58.5678 54.933 58.5234C55.0131 58.5135 55.1047 58.5076 55.209 58.5076H56.7686L57.8961 58.5806V57.9926H57.6994C57.0916 57.9926 56.5031 57.7022 55.8952 57.7022H54.1485C53.8636 57.7022 53.2751 57.9926 53.0255 58.2211C52.776 58.4497 51.5641 58.2211 50.9044 58.2211C50.2447 58.2211 50.1558 58.2211 47.5356 57.7022C44.9154 57.1832 46.6173 57.4572 45.5393 57.4572C44.4613 57.4572 43.1545 57.298 42.1081 57.2344C41.0617 57.1707 40.486 57.4572 39.5503 57.4572H38.5044C37.841 57.4572 37.3258 58.1055 36.666 58.174C36.4874 58.1926 36.2859 58.2089 36.0609 58.2211C34.8885 58.2848 33.5092 58.1893 32.1264 57.9926C30.7436 57.796 29.4438 57.7022 27.8218 57.4572C26.1998 57.2122 26.1998 57.7022 25.6383 57.7022C25.0769 57.7022 24.1411 57.9926 23.6638 57.9926C23.1866 57.9926 22.6438 58.3485 22.0788 58.5076C21.5137 58.6668 21.5785 58.7498 21.0957 58.9851C20.613 59.2203 19.7854 59.3671 19.1702 59.6585C18.555 59.95 16.2683 60.7995 16.2683 60.9395Z" fill="#263726"/>
<path d="M61.26 59.6585C60.8642 59.4902 59.8155 59.0729 58.7865 58.7499C58.2561 58.5833 58.0008 58.5527 57.8961 58.5806C57.8961 58.6425 57.806 58.6471 57.8502 58.6038C57.8601 58.5941 57.8751 58.5862 57.8961 58.5806L56.7686 58.5076H55.209C55.1047 58.5076 55.0131 58.5135 54.933 58.5234C54.5772 58.5678 54.2347 58.815 53.8939 58.9267C53.7758 58.9654 53.6527 58.9853 53.5285 58.98C53.1433 58.9637 52.2978 58.9044 50.9044 58.7499C49.5319 58.5146 49.2824 58.7499 48.8457 58.7499C48.409 58.7499 48.2218 58.9851 47.5356 58.9851C46.8494 58.9851 46.9741 58.9851 46.0383 59.3352C45.6272 59.4891 44.7275 59.3757 44.2888 59.3916C43.6261 59.4156 42.7995 59.4154 42.1081 59.3352C40.7356 59.1761 40.8789 59.2716 39.9229 58.9851C38.9669 58.6986 38.864 58.9851 38.053 58.7499C37.242 58.5146 37.2333 58.7499 36.5558 58.7499C35.8783 58.7499 34.6218 59.1761 34.2679 59.6585C33.9139 60.141 33.5092 59.8486 29.9958 59.8486C26.4824 59.8486 29.0071 59.8486 27.8218 59.6585C26.6365 59.4684 27.3851 59.6585 26.7309 59.6585C26.0767 59.6585 25.3264 59.8486 24.0787 59.8486C22.831 59.8486 22.4567 60.3061 21.0957 60.3061C20.007 60.3061 18.987 61.2205 18.6131 61.6778C19.7854 62.1321 19.1702 62.0655 19.7854 62.3822C20.4007 62.6988 20.544 62.9452 21.0957 63.596C21.6475 64.2469 21.4406 64.1767 21.5785 64.5286C21.7164 64.8805 22.0788 64.9157 26.7309 65.3027C27.2361 65.3209 27.6388 65.3375 27.9557 65.3526C28.1953 65.364 29.756 65.764 29.9958 65.764C30.4133 65.764 31.3024 66.0191 31.5783 66.0191C31.6848 66.0191 31.9011 66.1381 32.1264 66.2941C33.1541 65.8996 35.2947 65.1105 35.6352 65.1105C36.0609 65.1105 35.4345 65.4612 37.6787 64.5286C38.8285 64.0508 40.0234 63.8025 40.9255 63.6857C41.5584 63.6038 42.5657 63.3498 43.1545 63.596C46.0384 64.6562 43.2308 64.457 46.6173 65.1105C49.1532 65.5999 50.3255 65.5797 51.4242 65.6458C52.1777 65.6912 52.9358 65.7494 53.6846 65.6543C54.9413 65.4948 55.9959 65.2315 56.8262 64.9527C58.1135 64.5206 59.0522 63.6952 60.4078 63.6181C60.6871 63.6023 61.399 63.6245 61.6733 63.6793C65.0654 64.3561 66.698 64.5286 67.0973 64.5286C67.8124 64.5206 69.3052 64.4138 69.5551 64.0504C69.805 63.6869 70.6721 63.1585 71.0744 62.9398C70.7214 62.8691 70.3218 62.7859 69.8675 62.6874L67.8888 61.6778C67.3473 61.4015 66.8448 61.0504 66.3556 60.6897C65.9505 60.3909 65.4642 60.0215 65.0196 59.6585C64.2281 59.0124 63.8323 59.3893 63.7334 59.6585H61.8536H61.26Z" fill="#32410A"/>
<path d="M79.4644 65.764C79.2248 65.764 78.1149 65.4064 75.542 64.0418C74.9903 63.7493 74.4209 63.4708 73.8021 63.3869C73.3455 63.325 72.7083 63.2668 71.0744 62.9398C70.6721 63.1585 69.805 63.6869 69.5551 64.0504C69.3052 64.4138 67.8124 64.5206 67.0973 64.5286C66.698 64.5286 65.0654 64.3561 61.6733 63.6793C61.399 63.6245 60.6871 63.6023 60.4078 63.6181C59.0522 63.6952 58.1135 64.5206 56.8262 64.9527C55.9959 65.2315 54.9413 65.4948 53.6846 65.6543C52.9358 65.7494 52.1777 65.6912 51.4242 65.6458C50.3255 65.5797 49.1532 65.5999 46.6173 65.1105C43.2308 64.457 46.0384 64.6562 43.1545 63.596C42.5657 63.3498 41.5584 63.6038 40.9255 63.6857C40.0234 63.8025 38.8285 64.0508 37.6787 64.5286C35.4345 65.4612 36.0609 65.1105 35.6352 65.1105C35.2947 65.1105 33.1541 65.8996 32.1264 66.2941C32.4843 66.5421 32.865 66.8838 32.865 66.9918C32.865 67.1677 33.5092 67.4844 33.5092 67.8935V68.6104C33.5092 68.791 33.8541 69.2174 34.2679 69.6196C34.6816 70.0217 35.6352 69.8068 36.0609 69.8068C36.4866 69.8068 36.7505 69.6196 37.2333 69.6196C37.716 69.6196 37.785 69.6196 38.5044 69.3845C39.2238 69.1495 39.3712 69.2174 39.9229 69.2174C40.4746 69.2174 40.8789 68.9325 42.7504 68.9325C44.6219 68.9325 45.9917 69.2174 48.4744 69.2174C50.9571 69.2174 51.9916 69.6196 53.7157 69.8068C55.4398 69.994 56.845 69.9547 57.3048 69.6196C57.7646 69.2844 58.093 69.4017 58.7865 69.2174C59.48 69.0331 59.3411 69.0331 59.5381 68.9325C59.7352 68.832 60.3263 68.6644 61.26 68.4298C62.1936 68.1952 61.8536 68.1952 62.6582 67.8935C63.4627 67.5919 64.2346 67.3908 65.0196 67.173C65.8046 66.9551 66.5664 66.754 66.8292 66.5865C67.0394 66.4524 68.734 66.4077 69.5551 66.4021L79.4644 66.0191H88.5666C87.0166 65.9341 83.5011 65.764 81.8389 65.764H79.4644Z" fill="#263726"/>
<path d="M89.9518 65.4134C89.556 65.5749 88.8634 65.8845 88.5666 66.0191C89.0237 66.3523 89.5419 66.5969 90.0997 66.6903C90.5377 66.7637 91.0373 66.8269 91.4358 66.8269H91.9312C92.2919 66.6669 92.6411 66.4799 92.9943 66.304C93.5098 66.0472 94.2418 65.716 94.6018 65.5934C95.0244 65.4494 96.2505 65.2114 96.8107 65.1105C97.0637 65.0686 97.6673 64.9682 98.0577 64.9018C98.5456 64.8188 99.0336 64.7837 100.009 64.6562C100.985 64.5286 101.651 64.3762 102.232 64.2655C102.814 64.1549 103.332 64.0719 103.704 63.9059C104.076 63.7399 105.782 63.2123 105.782 63.076V61.6778C105.782 61.4439 104.723 61.6973 105.782 60.9205C106.841 60.1438 103.371 60.971 107.437 59.8604C109.555 59.2819 110.961 58.9859 111.789 58.8498C112.353 58.7569 112.925 58.7007 113.489 58.6029L114.267 58.4681C114.348 58.4541 114.431 58.447 114.513 58.447C114.709 58.447 114.903 58.4867 115.083 58.5663C115.213 58.6245 115.375 58.6969 115.552 58.7779C115.766 58.8759 115.987 58.9624 116.22 59.0008C116.898 59.1128 117.428 59.006 117.63 58.9266L118.009 58.7499L118.597 58.447C117.935 58.201 117.168 57.778 116.467 57.084C115.772 56.4462 114.536 57.0671 113.593 57.0625C113.003 57.0596 112.429 57.0639 112.114 57.084C111.322 57.1345 110.828 57.3364 110.333 57.5383C109.838 57.7402 108.948 57.9926 108.057 57.9926C107.695 57.9926 107.233 58.123 106.805 58.2843C106.105 58.548 105.414 58.8395 104.708 59.0873C104.594 59.1273 104.488 59.167 104.397 59.2042C103.902 59.4061 102.814 59.6585 101.824 59.8604C100.835 60.0624 101.824 60.3653 101.824 60.6177C101.824 61.3268 103.158 61.1148 103.531 61.718C103.59 61.8138 103.649 61.9182 103.704 62.0311C104.1 62.8388 103.308 62.3845 102.814 62.6874C102.418 62.9297 101.989 62.7884 101.824 62.6874H99.7466C98.9551 62.6874 97.7678 62.3845 97.1742 62.3845C96.5805 62.3845 96.2837 62.6874 95.3933 62.6874C95.0207 62.6874 94.8123 62.7334 94.703 62.7894C94.5862 62.8492 94.6018 63.0072 94.6018 63.1385C94.6018 63.6617 94.2171 64.1046 93.7006 64.1883C92.8487 64.3262 91.83 64.5125 91.4358 64.6562C90.7432 64.9086 90.4464 65.2114 89.9518 65.4134Z" fill="#32410A"/>
<path d="M121.397 58.71C121.277 58.7366 121.04 58.8167 120.92 58.8479C120.269 59.0182 119.631 58.763 118.985 58.5753C118.861 58.5392 118.731 58.4967 118.597 58.447L118.009 58.7499L117.63 58.9266C117.428 59.006 116.898 59.1128 116.22 59.0008C115.987 58.9624 115.766 58.8759 115.552 58.7779C115.375 58.6969 115.213 58.6245 115.083 58.5663C114.903 58.4867 114.709 58.447 114.513 58.447C114.431 58.447 114.348 58.4541 114.267 58.4681L113.489 58.6029C112.925 58.7007 112.353 58.7569 111.789 58.8498C110.961 58.9859 109.555 59.2819 107.437 59.8604C103.371 60.971 106.841 60.1438 105.782 60.9205C104.723 61.6973 105.782 61.4439 105.782 61.6778V63.076C105.782 63.2123 104.076 63.7399 103.704 63.9059C103.332 64.0719 102.814 64.1549 102.232 64.2655C101.651 64.3762 100.985 64.5286 100.009 64.6562C99.0336 64.7837 98.5456 64.8188 98.0577 64.9018C97.6673 64.9682 97.0637 65.0686 96.8107 65.1105C96.2505 65.2114 95.0244 65.4494 94.6018 65.5934C94.2418 65.716 93.5098 66.0472 92.9943 66.304C92.6411 66.4799 92.2919 66.6669 91.9312 66.8269H96.2837H105.782C108.75 66.8269 107.266 66.9278 109.245 66.8269C111.223 66.7259 110.333 66.7764 112.114 66.524C113.895 66.2716 113.895 66.5744 114.389 66.524C114.884 66.4735 115.181 66.2715 115.181 66.0191C115.181 65.9258 115.28 65.8644 115.409 65.8253C115.695 65.7384 115.988 65.6377 116.189 65.4159C116.368 65.2194 116.47 64.9627 116.435 64.6995C116.394 64.3976 116.311 64.0008 116.157 63.5789C115.999 63.1437 115.614 62.5587 115.996 62.2979C116.096 62.2303 116.248 62.1617 116.467 62.0311C117.16 61.6185 117.692 60.8144 118.483 60.6567L124.043 59.548C124.675 59.422 124.814 58.6833 124.201 58.4837C124.144 58.4649 124.059 58.4299 124.006 58.4015C123.567 58.1691 123.204 58.3106 121.397 58.71Z" fill="#263726"/>
<path d="M121.216 42.6706C120.445 42.6706 119.695 42.4221 119.076 41.962L118.597 41.6058C117.953 41.2379 117.251 40.9833 116.536 40.7825C115.008 40.3528 114.961 39.9378 115.181 39.76L115.624 39.3627C116.082 38.9518 117.044 37.679 117.63 37.4885C118.851 37.0909 119.811 36.8064 120.449 36.6278C120.957 36.4855 121.483 36.424 122.011 36.424C122.541 36.424 123.069 36.3615 123.585 36.2378L125.638 35.7451C125.724 35.7244 125.808 35.6956 125.888 35.659C126.385 35.4333 126.704 34.9381 126.704 34.3926V34.1526H127.678C129.197 34.4478 130.21 34.759 130.81 34.9928C131.23 35.1564 131.675 35.2885 132.126 35.2885C132.313 35.2885 132.5 35.3129 132.682 35.3552C134.229 35.714 135.515 35.714 136.303 35.714H139.503H142.425C142.425 36.1616 142.618 36.6181 143.032 36.7888C143.956 37.1697 144.324 36.424 144.79 36.424H146.598C147.439 36.424 148.924 36.7615 149.673 36.9585C149.757 36.9805 149.837 37.0095 149.916 37.0447L150.503 37.3063C150.751 37.4172 150.911 37.6637 150.911 37.9356C150.911 38.3161 151.222 38.623 151.593 38.7073C151.67 38.7247 151.747 38.7452 151.825 38.7693C152.294 38.9153 152.329 39.4857 151.961 39.8106C150.718 40.9068 150.067 40.546 149.102 41.038C148.249 41.4735 148.295 41.575 147.547 41.5986C146.917 41.6185 146.285 41.6658 145.665 41.7842C141.028 42.6706 140.943 42.6706 139.503 42.6706C134.912 42.6706 136.164 41.4638 133.799 42.6706C131.434 43.8773 130.738 43.8773 129.765 44.0903C128.791 44.3032 127.641 44.7292 126.704 44.0903C125.767 43.4514 125.362 42.6706 124.085 42.6706H121.216Z" fill="#2D412E"/>
</g>
<defs>
<radialGradient id="paint0_radial_2481_19110" cx="0" cy="0" r="1" gradientUnits="userSpaceOnUse" gradientTransform="translate(23.0211 23.8901) rotate(-90) scale(60.2258 197.54)">
<stop stop-color="white"/>
<stop offset="0.395833" stop-color="#FAB95D"/>
<stop offset="1" stop-color="#E25963"/>
</radialGradient>
<linearGradient id="paint1_linear_2481_19110" x1="20.5773" y1="-65.5919" x2="26.6901" y2="91.8567" gradientUnits="userSpaceOnUse">
<stop stop-color="#FEF2F2"/>
<stop offset="1" stop-color="#FEF2F2" stop-opacity="0"/>
</linearGradient>
<linearGradient id="paint2_linear_2481_19110" x1="20.5773" y1="-65.5919" x2="26.6901" y2="91.8567" gradientUnits="userSpaceOnUse">
<stop stop-color="#FEF2F2"/>
<stop offset="1" stop-color="#FEF2F2" stop-opacity="0"/>
</linearGradient>
</defs>
</svg>
