<svg width="68" height="74" viewBox="0 0 68 74" fill="none" xmlns="http://www.w3.org/2000/svg">
<mask id="mask0_2092_18144" style="mask-type:alpha" maskUnits="userSpaceOnUse" x="3" y="7" width="62" height="60">
<ellipse cx="34" cy="37" rx="31" ry="30" fill="#C4C4C4"/>
</mask>
<g mask="url(#mask0_2092_18144)">
<path d="M-116.905 61.4316C-122.428 61.4316 -126.905 56.9544 -126.905 51.4316V-4.29004C-126.905 -9.81289 -122.428 -14.29 -116.905 -14.29H185.73C191.253 -14.29 195.73 -9.81289 195.73 -4.29005V51.4316C195.73 56.9544 191.253 61.4316 185.73 61.4316H-116.905Z" fill="url(#paint0_linear_2092_18144)"/>
<path d="M-71.5597 6.13738C-64.8707 9.90258 -64.0127 5.91935 -53.3338 4.69823C-50.5529 4.38025 -47.5274 3.35148 -44.7371 3.57154C-44.4194 3.59659 -44.0798 3.63424 -43.7169 3.68671C-39.6151 4.27975 -31.7883 4.86703 -26.5346 6.60062C-21.2808 8.33421 -13.7861 6.02102 -10.0394 8.4007C-6.29258 10.7804 6.52425 10.0802 8.13524 11.5754C9.74623 13.0707 0.0540085 12.2819 -0.902328 14.2831C-1.85867 16.2843 -28.7873 20.2339 -35.2341 18.8049C-41.6809 17.376 -40.2205 19.0276 -46.9232 17.4155C-53.6259 15.8034 -51.5027 19.5621 -57.0911 18.7344C-62.6795 17.9068 -66.6834 15.976 -70.8384 15.6874C-74.9933 15.3988 -78.1586 15.2663 -83.3581 15.1255C-88.5576 14.9848 -92.7471 12.6318 -91.2351 6.39236C-89.723 0.152892 -79.0671 1.91153 -71.5597 6.13738Z" fill="url(#paint1_linear_2092_18144)"/>
<path d="M-88.4778 6.5433C-87.8536 6.6238 -87.2525 6.76304 -86.6297 6.85463C-85.0212 7.0912 -80.9571 7.41625 -71.7952 6.93368C-69.038 6.78846 -66.1942 5.44931 -63.4333 5.43169C-62.8746 5.42813 -62.2471 5.46491 -61.544 5.55698C-57.0086 6.15091 -48.2984 6.58832 -42.5891 8.59431C-36.8798 10.6003 -28.2441 7.3428 -24.2898 10.2351C-20.3355 13.1275 -5.90154 11.7191 -4.24977 13.5662C-2.59801 15.4134 -13.3779 14.7931 -14.6549 17.3898C-15.9319 19.9866 -46.5126 26.1144 -53.59 24.5457C-60.6675 22.977 -59.2005 25.0301 -66.5459 23.2374C-73.8913 21.4447 -71.8978 26.1652 -78.0751 25.3308C-84.2523 24.4965 -88.5408 22.1883 -93.1671 21.9857C-97.7933 21.7831 -101.327 21.7405 -107.139 21.7688C-112.951 21.797 -117.404 18.9566 -115.069 10.9189C-113.003 3.80506 -93.0392 5.95514 -88.4778 6.5433Z" fill="url(#paint2_linear_2092_18144)"/>
<path d="M54.5369 17.5033C54.0232 17.4053 53.5216 17.2662 53.0089 17.1628C51.8301 16.9251 49.0462 16.5171 43.092 16.2641C40.4116 16.1502 37.4677 16.9795 34.8234 16.5265C34.7225 16.5092 34.6194 16.4903 34.5139 16.4699C31.1515 15.8181 24.698 15.0108 20.4579 13.395C16.2179 11.7792 9.84111 13.3119 6.89569 11.2428C3.95027 9.17365 -6.7316 9.18427 -7.96565 7.91608C-9.1997 6.64791 -1.21237 7.69691 -0.281677 6.1334C0.649017 4.5699 23.262 2.56032 28.5128 3.98314C33.7636 5.40595 32.6652 4.0189 38.1157 5.5996C43.5662 7.18029 42.0624 4.07519 46.6422 4.97899C51.222 5.8828 54.4116 7.60304 57.8391 8.01302C61.2665 8.423 63.8837 8.66527 68.1879 9.00158C72.4922 9.33788 75.8067 11.4046 74.1243 16.3426C72.6469 20.6791 58.0671 18.1772 54.5369 17.5033Z" fill="url(#paint3_linear_2092_18144)"/>
<path d="M5.89807 12.5481C1.05039 11.2085 1.43674 13.1601 -4.04197 14.6545C-5.91258 15.1647 -8.07307 16.0771 -10.0118 16.1025C-12.6128 16.1365 -17.4292 16.4807 -21.0232 16.0244C-24.6173 15.5681 -28.4541 17.3734 -31.3255 16.4612C-34.1968 15.549 -41.6359 16.9656 -42.9977 16.3311C-44.3595 15.6966 -38.3786 15.3019 -38.3489 14.196C-38.3191 13.0901 -23.3573 8.84192 -19.1354 9.04347C-14.9135 9.24502 -16.2278 8.51788 -11.8042 8.79234C-7.38056 9.06679 -9.65733 7.31293 -6.10834 7.27671C-2.55936 7.24049 0.343994 7.90112 2.89456 7.7065C5.44514 7.51188 7.36469 7.31878 10.4971 6.96211C13.6294 6.60544 16.757 7.46741 17.539 10.7943C18.3209 14.1211 11.5051 14.0975 5.89807 12.5481Z" fill="url(#paint4_linear_2092_18144)"/>
<path d="M-124.561 44.6221C-124.674 44.6283 -124.838 44.5959 -124.945 44.5587C-125.728 44.2868 -126.782 44.8702 -126.782 45.6993V54.7944C-126.782 56.241 -126.144 57.6138 -125.037 58.5458L-124.757 58.7815C-123.447 59.8856 -121.704 60.3379 -120.019 60.0259C-106.287 57.484 -96.3679 56.1553 -87.3632 51.8405C-84.9074 50.6638 -85.0961 48.544 -87.5652 47.3956C-88.5265 46.9485 -89.6829 46.2482 -90.6561 46.6687C-90.9989 46.8168 -91.3367 47.007 -91.7203 47.2241C-92.3281 47.5681 -92.9945 47.8128 -93.6929 47.8264C-94.1108 47.8346 -94.5406 47.8221 -95.1582 47.8648C-95.3425 47.8776 -95.5291 47.93 -95.6908 48.0191C-96.4482 48.4363 -97.4128 48.5872 -98.092 48.0522C-99.648 46.8267 -101.715 45.4003 -101.768 45.3668C-101.975 45.2376 -102.225 45.216 -104.097 45.1452C-104.981 45.1117 -105.856 44.9611 -106.681 44.6398C-109.017 43.7291 -113.081 41.989 -115.48 41.6135C-116.471 41.4583 -117.496 41.7202 -118.345 42.2547C-119.653 43.0779 -121.51 44.4568 -124.561 44.6221Z" fill="#7F956D"/>
<path d="M-119.148 56.7657C-119.05 56.7412 -107.193 54.5067 -101.484 53.4244C-100.531 53.2437 -100.594 52.4055 -101.52 52.6947C-101.853 52.7987 -102.513 53.3926 -103.63 53.664C-103.956 53.7329 -104.249 53.7894 -104.517 53.8347C-105.53 54.0057 -105.149 52.5393 -105.365 51.5355C-105.413 51.31 -105.551 51.4831 -105.776 51.534C-106.519 51.7019 -107.029 51.7892 -107.7 51.8519C-107.916 51.8721 -108.224 51.72 -108.377 51.5656C-109.021 50.9135 -110.774 50.2955 -111.132 51.1393C-111.458 51.9093 -111.667 52.5277 -111.886 52.6947C-113.256 53.741 -115.199 53.8954 -116.823 53.3173C-118.208 52.8245 -118.599 52.2252 -118.217 51.8805C-118.109 51.7717 -118.007 51.7024 -117.894 51.6599C-117.752 51.6064 -117.694 51.374 -117.83 51.3063C-117.839 51.3014 -117.849 51.2951 -117.857 51.2881C-119.644 49.7873 -119.918 49.2021 -118.962 48.5073C-117.904 47.9389 -117.062 47.8243 -116.137 47.8011C-115.421 47.7831 -115.147 47.0525 -115.794 46.7445C-115.849 46.7183 -115.951 46.6786 -116.011 46.666C-116.22 46.6219 -116.412 46.5795 -116.591 46.538C-117.399 46.35 -117.166 45.2976 -116.551 44.7396C-116.369 44.574 -116.355 44.4112 -116.384 44.1664C-116.417 43.8972 -116.469 43.6806 -116.526 43.4953C-116.662 43.0536 -116.368 42.6679 -115.906 42.6846L-114.811 42.724C-114.423 42.738 -114.247 42.2457 -114.555 42.0103C-114.635 41.9497 -114.735 41.9212 -114.834 41.9308C-117.64 42.2033 -118.989 42.7069 -120.513 43.5445C-121.864 44.0871 -122.636 44.3788 -124.037 44.8193C-124.076 44.8317 -124.074 44.888 -124.034 44.898C-123.993 44.9084 -123.994 44.9682 -124.036 44.9774L-126.268 45.4624C-126.532 45.5197 -126.72 45.7533 -126.72 46.0235V46.3248C-126.72 46.9532 -126.12 47.4077 -125.515 47.2373L-125.187 47.145C-124.389 46.92 -123.607 47.5501 -123.657 48.3783L-123.669 48.5836C-123.676 48.6864 -123.705 48.7865 -123.757 48.8759C-124.153 49.5684 -123.074 50.3846 -122.732 49.6634C-122.618 49.4226 -122.519 49.1677 -122.437 48.895C-122.626 49.5759 -122.807 50.209 -122.995 50.8082C-123.907 53.7184 -122.107 57.505 -119.148 56.7657Z" fill="#6FA247"/>
<path d="M-88.346 47.2515C-88.3442 47.5605 -87.9696 47.646 -87.6722 47.7298C-86.8758 47.9543 -85.422 48.2125 -84.2586 48.5043C-83.588 48.6725 -83.6351 49.3087 -84.2754 49.5695C-84.4175 49.6274 -84.594 49.6589 -84.7461 49.6377C-86.4006 49.4068 -87.5501 49.2872 -89.1209 49.2342C-89.4083 49.2244 -89.4605 48.7448 -89.2227 48.5831C-89.0186 48.4442 -89.1693 48.168 -89.4162 48.1681C-89.8753 48.1683 -90.1601 48.1523 -90.3171 48.1121C-90.4661 48.074 -90.3981 47.919 -90.2709 47.8325C-89.948 47.6131 -89.7369 47.4286 -89.5879 47.2314C-89.366 46.9376 -89.0371 46.872 -88.6718 46.9177C-88.3685 46.9556 -88.3468 47.1045 -88.346 47.2515Z" fill="url(#paint5_linear_2092_18144)"/>
<path d="M-98.0041 48.4707C-97.6618 48.8527 -98.0635 48.9784 -98.4548 48.6467L-98.9104 48.2604C-99.2334 47.9866 -99.7448 48.1306 -99.5599 48.5115C-99.5189 48.596 -99.4648 48.685 -99.3979 48.7812C-99.2527 48.9898 -99.3439 49.3095 -99.5831 49.3955C-99.9429 49.5248 -100.376 48.8357 -100.498 48.4732C-100.561 48.2853 -100.654 48.0784 -100.773 47.8535C-101.091 47.2521 -100.505 46.5862 -99.9337 46.9548C-99.0859 47.5015 -98.385 48.0455 -98.0041 48.4707Z" fill="url(#paint6_linear_2092_18144)"/>
<path d="M-106.424 45.1787C-106.424 45.1786 -106.424 45.1786 -106.424 45.1785C-106.423 45.1775 -106.424 45.1775 -106.424 45.1787C-106.476 45.2506 -108.724 44.0056 -109.093 43.9322C-109.397 43.8717 -112.01 42.9884 -113.534 42.4354C-113.805 42.337 -114.144 42.4304 -114.191 42.7147C-114.258 43.1178 -113.96 43.4236 -113.303 43.7591C-113.041 43.893 -113.385 44.2695 -113.399 44.5635C-113.404 44.6843 -113.293 44.6602 -113.176 44.6331C-112.85 44.5582 -112.398 44.4006 -112.044 44.3634C-111.898 44.348 -111.753 44.3819 -111.615 44.4312C-111.021 44.6434 -110.557 44.8642 -110.127 45.0692C-109.263 45.4819 -109.049 46.0371 -109.923 46.429C-110.831 46.8364 -109.999 47.4136 -109.064 47.0688C-108.869 46.9965 -108.651 46.9208 -108.41 46.8401C-106.998 46.4446 -106.5 46.1068 -106.424 45.1787Z" fill="url(#paint7_linear_2092_18144)"/>
<path d="M-51.2678 41.1533C-48.1814 41.1533 -46.4979 44.7556 -48.4778 47.1233L-53.3387 52.9363C-54.4683 54.2872 -56.0502 55.1749 -57.7922 55.4326C-70.4078 57.2991 -91.0706 60.3841 -90.2856 60.3841C-89.4415 60.3841 -114.265 62.271 -126.782 63.2145C-126.782 60.0816 -124.133 57.673 -121.012 57.4042C-120.424 57.3536 -119.792 57.2876 -119.086 57.2048L-109.465 55.3438C-102.45 53.9441 -98.2833 53.0767 -91.573 52.2882C-90.3952 52.1497 -89.2488 51.8088 -88.1797 51.2955C-87.5507 50.9935 -87.0183 50.751 -86.5598 50.5658C-85.3783 50.0886 -84.0919 49.8553 -82.8609 49.5264C-82.1197 49.3283 -81.4696 49.2095 -80.7399 49.1138C-79.9904 49.0155 -79.2461 48.8669 -78.5362 48.6073C-76.6611 47.9214 -75.6646 47.3971 -74.2097 46.5426L-67.1506 43.201C-66.5667 42.9246 -66.0336 42.5385 -65.6496 42.0191C-65.4404 41.7361 -65.2793 41.4785 -65.1672 41.2276C-64.7642 40.3258 -64.7334 39.0799 -63.8419 38.6545C-63.4648 38.4745 -63.0706 38.465 -62.6557 38.5148L-57.1417 39.1761C-56.0745 39.3041 -55.0402 39.6288 -54.0912 40.1337L-52.9763 40.727C-52.4503 41.0069 -51.8636 41.1533 -51.2678 41.1533Z" fill="#7C9C6D"/>
<path d="M-62.789 38.5555C-63.3336 38.6106 -63.6173 38.6836 -64.0924 38.8657L-64.0955 38.867C-64.4079 38.9956 -64.612 39.0796 -64.868 39.3087C-65.0139 39.4391 -65.1066 39.6228 -65.0131 39.7947C-64.9304 39.9467 -64.8313 40.1252 -64.8523 40.2969C-64.8844 40.5588 -64.9664 40.7331 -65.0856 40.9982L-65.8925 42.3164C-66.4655 43.0324 -67.1808 43.6218 -67.9932 44.0474L-70.6097 45.4182L-75.0166 47.318L-78.1201 48.8301C-78.943 49.2632 -79.3914 49.505 -80.6649 49.9545C-81.5711 50.1421 -82.1731 50.2149 -83.5821 50.2259C-84.0817 50.2393 -84.2809 50.165 -84.6351 50.0329C-84.6366 50.0323 -84.6382 50.0321 -84.6397 50.0323C-86.0214 50.1874 -86.5161 50.7114 -88.7064 51.6714C-89.2978 51.9306 -89.9221 52.1096 -90.5563 52.2314L-95.2511 53.1338L-106.672 55.3826C-109.951 55.8729 -111.656 56.03 -115.362 56.8947L-126.36 57.8655C-126.599 57.8866 -126.782 58.0867 -126.782 58.3266C-126.782 58.5842 -126.572 58.7923 -126.315 58.7887C-121.793 58.7255 -116.955 58.4556 -114.213 58.3931C-112.678 58.3581 -112.793 58.7187 -114.309 58.962C-117.131 59.4151 -120.183 59.7632 -125.382 60.2905C-125.486 60.3011 -125.591 60.3223 -125.691 60.3535C-126.34 60.5563 -126.782 61.1574 -126.782 61.8374V63.2145L-121.81 62.9502C-121.236 62.9197 -120.666 62.8397 -120.106 62.7113L-103.801 58.9719C-103.402 58.8806 -103.028 58.7043 -102.704 58.4552C-102.495 58.2944 -102.265 58.1629 -102.019 58.0679C-100.006 57.2904 -98.5862 56.9212 -96.058 56.3519L-87.7053 54.3228C-87.3238 54.2301 -86.9233 54.2529 -86.5548 54.3884C-86.2337 54.5063 -85.8875 54.5391 -85.5499 54.4836L-72.4694 52.3294C-72.4298 52.3229 -72.3911 52.3112 -72.3545 52.2948C-71.8539 52.0698 -72.0882 51.3153 -72.6282 51.4136L-75.7261 51.9773C-76.2561 52.0738 -76.7274 51.6121 -76.3421 51.2355C-76.095 50.994 -75.7283 50.7643 -75.2191 50.489C-75.0851 50.4166 -74.9419 50.3616 -74.7942 50.3247C-73.5723 50.0194 -72.7539 49.8843 -71.2304 49.7606C-69.2843 49.5532 -68.5764 49.3147 -67.258 48.9077C-65.7399 48.2953 -64.9793 47.9068 -63.72 47.1629C-62.8279 46.5497 -62.0631 46.3216 -60.6786 45.9222L-57.843 45.1756C-57.2108 45.0092 -57.2836 44.5302 -57.9017 44.7432C-57.9263 44.7516 -57.9605 44.7615 -57.986 44.7665L-62.9076 45.7224C-63.7369 45.8835 -64.4347 44.8386 -64.2166 44.0224C-64.1434 43.8274 -64.0776 43.6465 -64.011 43.48C-63.4652 42.1178 -61.6859 42.8862 -60.2414 43.1449C-60.0644 43.1766 -59.8701 43.2063 -59.6556 43.2347C-59.5936 43.2429 -59.5301 43.2421 -59.4683 43.2324L-57.5508 42.933C-56.9077 42.8325 -56.9865 41.883 -57.6373 41.8899C-58.272 41.8969 -57.6235 40.8501 -58.2075 40.6013C-58.7196 40.3832 -59.9292 40.2087 -62.4734 40.0413C-62.5952 40.0333 -62.7143 39.9848 -62.8053 39.9035C-62.9808 39.7469 -63.0471 39.4898 -62.9323 39.2845C-62.875 39.1821 -62.8047 39.0801 -62.7 38.9605C-62.5535 38.7932 -62.5667 38.5536 -62.789 38.5555Z" fill="#739A60"/>
<path d="M54.7698 59.6862C53.106 59.6862 51.8342 61.1702 52.0889 62.8144L53.4497 71.5981C54.2083 76.4943 58.4377 80.0969 63.3923 80.0669L185.913 79.3262C191.412 79.293 195.853 74.8257 195.853 69.3264V56.4408C195.853 54.8649 194.423 53.7 192.874 53.9868C191.198 54.297 190.142 55.1112 189.025 56.0805C187.908 57.0498 187.287 57.2824 186.294 57.5926C185.301 57.9027 184.122 57.9415 183.377 58.0191C182.632 58.0966 182.57 57.9803 181.515 57.7477C180.46 57.515 179.529 56.8947 178.411 56.3131C177.294 55.7315 174.377 55.3438 173.57 55.305C172.763 55.2663 169.287 56.8947 168.418 57.4375C167.549 57.9803 165.129 59.1047 163.763 59.6863C163.514 59.7924 163.228 59.9019 162.925 60.0102C161.107 60.6607 159.115 60.5969 157.293 59.9575C157.255 59.9441 157.218 59.9312 157.184 59.9189C156.315 59.6087 155.57 59.5312 154.577 59.5699C153.584 59.6087 151.97 60.1127 151.039 60.2291C150.564 60.2884 149.76 60.3089 149.063 60.3125C148.396 60.316 147.732 60.2336 147.08 60.0887L144.439 59.5011C143.833 59.3664 143.217 59.2871 142.596 59.2829C142.077 59.2793 141.408 59.2815 140.673 59.2985C138.998 59.3373 138.873 59.8413 138.377 60.3066C137.88 60.7719 136.329 61.1984 135.211 61.5473C134.094 61.8963 133.225 62.1677 132.542 62.5941C131.86 63.0206 130.184 63.2145 129.625 63.292C129.398 63.3235 129.034 63.3564 128.673 63.3844C128.115 63.4278 127.586 63.1422 127.304 62.6587C127.12 62.3425 126.826 62.1056 126.477 61.9933L123.927 61.171C123.423 61.0087 122.936 60.7996 122.472 60.5464L122.385 60.4992C120.986 59.7368 119.418 59.3373 117.824 59.3373H115.908C114.745 59.3373 113.367 59.7208 112.433 60.0533C111.93 60.2321 111.428 60.4126 110.912 60.5465L105.108 62.0513L104.981 62.0773C102.621 62.5607 100.166 62.1759 98.0671 60.9938L97.5354 60.6943C97.1216 60.4488 96.2692 59.9577 96.1699 59.9577C96.0706 59.9577 94.1423 60.0869 93.1906 60.1515C92.632 60.1386 91.4526 60.105 91.2044 60.074C90.9561 60.043 90.3147 59.8026 90.0251 59.6863L88.3492 59.1047C87.7906 58.9237 86.5492 58.5309 86.0526 58.4068C85.4319 58.2517 81.3974 57.6313 80.8388 57.5538C80.2802 57.4762 78.1699 57.2436 77.2388 57.1273C76.3078 57.011 75.0664 56.5457 74.0112 56.2355C73.1671 55.9874 71.5492 56.4682 70.8457 56.7396L70.1009 56.9722L67.0595 58.019L65.8181 58.368L58.609 59.6189C58.202 59.6895 57.7897 59.725 57.3767 59.725L54.7698 59.6862Z" fill="url(#paint8_linear_2092_18144)"/>
<path d="M175.801 66.9735C177.264 67.1727 178.722 66.7434 180.061 66.1199C181.357 65.5163 182.605 64.9749 183.885 64.4618C189.727 62.1203 195.853 66.7913 195.853 73.0846C195.853 78.2758 191.645 82.4842 186.453 82.4842H106.9C104.06 82.4842 101.726 80.2439 101.609 77.4063L101.046 63.7385C101.034 63.4546 101.392 63.3028 101.57 63.5247C101.62 63.5867 104.239 64.1967 105.542 64.494L106.222 64.7365C107.458 65.1779 108.26 66.2216 109.08 67.2468C109.108 67.2813 109.752 67.3734 110.492 67.4684C111.611 67.6119 112.765 67.6 113.82 67.2017C114.274 67.0302 114.655 66.8396 115.041 66.6095C115.631 66.2574 116.235 65.9279 116.883 65.6969C117.39 65.5158 117.915 65.3844 118.449 65.3153C119.61 65.1653 120.517 65.0951 121.717 65.1676C122.478 65.2135 123.241 65.2166 124.001 65.1568C125.424 65.0448 126.469 65.085 128.073 65.1919C129.212 65.3283 130.026 65.5016 130.941 65.8252C132.038 66.2131 133.219 66.3457 134.342 66.0448L137.392 65.2828C138.047 65.1192 138.717 65.0194 139.391 64.9995C140.425 64.969 141.247 64.9724 142.089 65.0191C143.371 65.0904 144.601 65.5141 145.73 66.1268C147.022 66.828 148.097 67.3651 149.279 67.7112C150.381 68.034 151.55 67.9332 152.671 67.6831L155.322 67.0917C156.92 66.6003 158.031 66.2678 159.234 65.7728C160.302 65.3333 161.538 65.085 162.664 65.343C163.608 65.5594 164.51 65.6382 165.471 65.5149C166.309 65.4074 167.105 65.3386 168.007 65.2799C169.502 65.1828 170.99 65.475 172.385 66.0223C173.545 66.4773 174.581 66.8075 175.801 66.9735Z" fill="#B9CBAB"/>
<path d="M70.963 62.2563C70.2015 61.6192 69.2558 61.2438 68.2647 61.1842C63.5795 60.9026 61.9678 66.2147 66.3909 67.7854C71.2813 69.522 77.1758 71.0216 85.2242 72.7088C85.4747 72.7613 85.741 72.7218 85.964 72.596C86.91 72.0623 86.5312 70.62 85.445 70.62H85.0639C84.9785 70.62 84.8933 70.6105 84.81 70.5917L68.9216 67.0142C70.9199 67.4065 74.6828 68.1597 75.0026 68.2779C74.9617 68.288 74.9594 68.2936 75.0043 68.2936C75.0322 68.2936 75.0305 68.2882 75.0026 68.2779C75.278 68.2095 77.3013 67.9359 78.4181 67.7896L82.2158 66.83C82.9213 66.6518 83.1156 65.7415 82.5443 65.2908L80.7104 63.8438C80.376 63.5799 80.6423 63.047 81.0541 63.1561C81.513 63.2776 81.7534 62.6318 81.3267 62.4237L80.4043 61.9738C84.0045 63.1651 87.0057 64.1398 89.0848 64.9208C91.4384 65.8049 90.7391 66.8189 88.2307 66.6486C87.409 66.5928 86.7005 66.5399 86.363 66.5101C85.9082 66.47 82.9054 67.489 82.4577 67.5778C81.862 67.6958 82.1434 68.0576 83.1354 68.2936C83.4207 68.3616 84.9357 68.496 86.6125 68.6888C89.1753 68.9834 91.7967 68.5141 94.0908 67.3343C94.8072 66.9658 95.287 66.7645 95.5557 66.7308C95.8761 66.6907 95.6893 67.1408 95.4977 67.4007C95.2718 67.707 95.1104 67.9723 95.0004 68.2421C94.7637 68.8225 95.253 69.3933 95.8741 69.4776C97.3465 69.6774 98.8717 69.7068 101.237 69.6495C101.518 69.6427 101.605 70.0306 101.348 70.1433C101.33 70.1509 101.313 70.1564 101.294 70.16C99.8778 70.433 97.0245 70.9689 96.7285 70.9689C96.4897 70.9689 96.2603 71.062 96.089 71.2284L96.0825 71.2348C95.9003 71.4118 95.799 71.655 95.7906 71.9088C95.7689 72.5724 95.6905 73.4516 95.4871 73.5279C95.3261 73.5882 93.1391 75.2162 90.9384 76.8715C89.2889 78.1124 89.2828 80.5828 90.921 81.8386C91.4671 82.2573 92.136 82.4842 92.824 82.4842H112.749C116.704 82.4842 117.468 73.8019 120.749 76.0093C121.556 76.5521 120.873 74.1089 120.749 74.187C120.032 74.6413 116.471 72.0832 114.915 70.3679C114.789 70.2284 114.689 70.0653 114.649 69.8813C114.43 68.8743 115.12 68.0614 116.638 66.6904C116.708 66.6272 116.664 66.5101 116.57 66.5101C116.481 66.5101 116.434 66.4059 116.493 66.3395L116.768 66.0273C116.896 65.8813 116.843 65.6492 116.648 65.6468C115.631 65.634 114.452 67.3502 111.841 69.8515C111.587 70.0954 111.24 70.2198 110.888 70.1978C110.457 70.1709 110.074 69.9228 109.786 69.6014C108.719 68.41 106.546 67.1596 106.163 67.4407C105.984 67.5724 104.186 67.6036 102.301 67.5365C101.816 67.5192 102.17 66.2795 101.88 65.8898C101.472 65.3402 100.137 65.6426 99.7991 66.2381C99.7732 66.2838 99.7461 66.3301 99.7179 66.3771C100.121 65.6363 94.6467 65.2153 94.2458 65.6959C93.8418 66.1801 94.1092 64.7189 94.0595 64.6879C93.6561 64.4359 93.0938 64.351 93.0234 63.8807C93.0164 63.8342 93.0115 63.7871 93.0061 63.7354C93.005 63.7247 93.0085 63.7138 93.0156 63.7056C93.9249 62.6608 94.7548 62.1904 95.8159 61.4383C96.1278 61.2173 96.213 60.7949 96.0221 60.4637C95.8836 60.2234 95.6245 60.0769 95.3473 60.0866C95.0919 60.0956 94.8641 60.1074 94.6617 60.1246C93.8853 60.1903 94.3175 60.435 94.8044 61.0433C94.8461 61.0953 93.4342 61.515 92.3798 61.8166C92.0332 61.9158 91.6602 61.8325 91.3839 61.601C91.2712 61.5066 91.1667 61.4198 91.0693 61.3397C90.4742 60.8501 89.7492 61.3816 89.5199 62.1173C89.415 62.4538 89.0544 62.6554 88.7028 62.6301L88.0244 62.5812C87.7878 62.5641 87.5603 62.5021 87.3379 62.4194C85.2762 61.6525 80.3988 61.1687 78.1559 60.9793C77.3797 60.9137 76.6092 60.78 75.9061 60.4447C75.18 60.0984 74.2009 59.5369 73.3286 58.717C73.1534 58.537 73.0357 58.3884 73.0172 58.204C72.9716 57.7478 72.9835 57.1771 72.5261 57.1449C72.1791 57.1204 71.9771 56.9281 72.1295 56.6154C72.2333 56.4024 72.3573 56.194 72.4227 56.1142C72.5171 56.0747 72.5334 56.0616 72.4596 56.0805C72.4517 56.0825 72.4391 56.0944 72.4227 56.1142C71.4487 56.5221 62.1549 59.7459 57.6871 59.7638C62.6964 59.9782 72.0303 59.7245 71.6527 59.7638C70.7555 59.8571 72.858 61.8834 75.504 63.6466C76.2706 64.1575 75.8665 65.851 74.9452 65.851H74.106C73.3233 65.851 73.3323 64.2837 73.9492 64.7654C74.1025 64.8851 72.4159 63.4719 70.963 62.2563Z" fill="url(#paint9_linear_2092_18144)"/>
<path d="M138.403 65.0843C138.427 65.0785 138.451 65.0756 138.476 65.0756C138.852 65.0756 138.906 65.6621 138.544 65.7643C137.925 65.9394 137.433 66.1467 137.048 66.4333C136.982 66.4821 136.931 66.5615 136.984 66.6238C137.107 66.769 137.502 66.9386 137.916 67.1048C138.72 67.428 138.673 67.9892 137.851 68.2642C137.803 68.2801 137.756 68.2954 137.708 68.3102C135.799 68.9023 133.093 70.7654 134.342 72.3259C134.391 72.3864 134.169 72.5963 133.806 72.8787C132.225 74.1078 128.818 73.9798 128.818 71.977C128.818 71.2597 128.708 70.5027 127.991 70.4743C126.541 70.4169 125.272 70.0784 122.905 70.1519C122.553 70.1629 122.422 69.5988 122.752 69.4742C122.782 69.4627 122.815 69.4562 122.847 69.4551C124.6 69.3953 125.317 69.3962 125.949 69.4452C126.04 69.4523 126.134 69.4389 126.22 69.4067C129.483 68.176 129.629 68.3762 131 68.1004C131.049 68.0906 131.042 68.0222 130.993 68.0222C130.952 68.0222 130.935 67.9711 130.968 67.9473C131.899 67.2685 132.756 66.8646 134.022 66.1938C134.111 66.1465 134.206 66.1103 134.304 66.0863L138.403 65.0843Z" fill="url(#paint10_linear_2092_18144)"/>
<path d="M160.039 66.4342C159.89 66.3962 159.826 66.2201 159.915 66.0951C160.054 65.902 159.822 65.6476 159.613 65.7613C157.006 67.1823 154.803 67.6829 151.097 68.1355C150.665 68.1882 150.272 68.4153 150.015 68.7659L149.817 69.0358C149.764 69.108 149.691 69.163 149.606 69.1939L149.544 69.2169C149.118 69.3728 149.181 69.9935 149.629 70.0611C149.699 70.0716 149.765 70.099 149.823 70.1409L151.085 71.0667C152.071 71.7894 153.233 72.2328 154.449 72.3503L158.433 72.7352C158.551 72.7466 158.67 72.7376 158.785 72.7088L160.638 72.2431C161.382 72.0564 161.31 70.9774 160.548 70.8913L159.509 70.7738C159.066 70.7238 158.986 70.1146 159.4 69.9509C159.856 69.7707 159.7 69.0896 159.211 69.1265L158.677 69.1668C158.133 69.2078 157.915 68.4811 158.39 68.2151L160.318 67.1379C160.598 66.9814 160.543 66.5632 160.232 66.4838L160.039 66.4342Z" fill="url(#paint11_linear_2092_18144)"/>
<path d="M71.2181 68.565C74.7798 69.5719 70.9237 82.4842 67.2224 82.4842H-116.876C-122.347 82.4842 -126.782 78.049 -126.782 72.5779V67.8485C-126.782 64.9894 -124.464 62.6717 -121.605 62.6717C-121.21 62.6717 -120.815 62.6263 -120.43 62.5364L-102.886 58.4455L-85.2427 53.5639C-84.6747 53.4067 -84.0939 53.3001 -83.5072 53.2452L-73.5666 52.3154C-73.0444 52.2666 -72.5269 52.1767 -72.0188 52.0467L-58.9207 48.6951C-57.8653 48.4251 -56.8611 47.9844 -55.9479 47.3904L-52.7959 45.3406L-45.4097 39.6412C-44.8993 39.1558 -44.4421 38.7177 -44.0352 38.319C-42.0306 36.3551 -39.887 34.2271 -37.6241 32.5673C-36.9398 32.0654 -36.2881 31.4906 -35.6028 30.7236C-34.353 29.4189 -33.5448 28.7668 -32.7138 28.4279C-31.9461 28.1148 -31.0881 28.1772 -30.2647 28.274C-23.7119 29.0443 -19.4717 29.3497 -12.9634 29.5181C-11.7779 29.5488 -10.6207 29.9027 -9.6263 30.5487L-9.27518 30.7768C-8.47173 31.2988 -7.53416 31.5766 -6.57606 31.5766C-5.21508 31.5766 -3.92564 32.15 -2.94563 33.0944C-2.40865 33.6118 -1.94671 34.0246 -1.54304 34.3615C0.197624 35.814 2.57713 36.3319 4.84222 36.2368L7.3504 36.1314C8.25563 36.0934 9.16782 36.16 10.036 36.4191C10.7149 36.6217 11.2467 36.8326 11.7372 37.0901C12.6163 37.5516 13.48 38.0486 14.3995 38.423C15.1616 38.7332 15.7836 39.0375 16.4089 39.4054C17.3833 39.9786 18.4039 40.4705 19.4675 40.8537C20.7408 41.3125 21.6613 41.8158 22.6028 42.5409C23.4262 43.1751 24.2781 43.7782 25.2224 44.2125L34.5189 48.4881C34.9 48.6634 35.3056 48.7795 35.7217 48.8324L39.4716 49.3092C40.7031 49.4657 42.0667 50.9592 42.8459 51.9256C42.9036 51.9972 43.0113 52.1176 43.0801 52.1786L53.6526 61.5473C57.5991 63.3046 60.1159 64.4573 61.7865 65.3974C63.0677 66.1186 64.3842 66.8155 65.8085 67.1801L71.2181 68.565Z" fill="url(#paint12_linear_2092_18144)"/>
<path d="M-76.8787 57.7864C-76.5153 57.3324 -77.2166 56.564 -76.6352 56.5795C-76.0957 56.594 -75.5479 56.6089 -75.0034 56.6241C-74.2912 56.6439 -74.2642 57.4713 -74.973 57.5431C-75.0429 57.5502 -75.109 57.5689 -75.1718 57.6002C-78.3674 59.1915 -84.6139 62.284 -84.7615 62.284C-84.9477 62.284 -88.1753 62.7492 -88.4235 62.788C-88.578 62.8121 -91.8688 63.5565 -94.5801 64.1721C-94.8459 64.2324 -94.7866 63.7106 -94.9408 63.4859C-95.0833 63.2781 -96.8668 63.8113 -97.8541 64.1407C-97.9384 64.1688 -98.0281 64.1742 -98.1151 64.1561C-98.6201 64.051 -98.6511 63.339 -98.1644 63.1679C-98.0792 63.1379 -98.0157 63.1139 -97.9822 63.0982C-97.7339 62.9819 -98.6649 62.4391 -98.9132 62.284C-99.0959 62.1699 -92.1872 61.5223 -87.8736 61.1375C-87.165 61.0743 -86.4675 60.9373 -85.7883 60.7253C-82.362 59.6553 -77.0133 57.9546 -76.8787 57.7864Z" fill="#698B68"/>
<path d="M-54.4928 63.6876L-54.658 63.7573C-61.5773 66.203 -60.2445 76.3618 -52.9285 76.9399L8.40421 81.7863C12.0663 81.7992 19.4649 81.8173 19.7628 81.7863C19.8575 81.7764 20.4893 81.5836 21.3964 81.2957C22.9824 80.7924 22.7108 78.4908 21.0531 78.3453C20.9793 78.3388 20.906 78.3266 20.8341 78.3089L17.8806 77.58C17.3183 77.4413 17.2909 76.652 17.8423 76.4745C17.9217 76.449 18.0071 76.4412 18.0899 76.4514C24.431 77.2313 28.0331 77.6765 32.3908 78.5109C32.4545 78.5232 32.5197 78.5294 32.5845 78.5294C33.5337 78.5294 33.9586 77.3638 33.2146 76.7744C33.0501 76.6441 32.9412 76.5609 32.9215 76.552C30.4298 75.4399 22.4486 73.265 20.6225 73.3972C20.3789 73.4148 20.3572 73.65 20.5098 73.8407C20.9327 74.369 20.3446 75.0733 19.762 74.7288C17.4242 73.3464 15.7454 71.9956 13.8373 69.7739C13.392 69.2555 12.5858 69.2408 12.1421 69.7605L11.8564 70.0952C11.658 70.3275 11.6665 70.672 11.8762 70.8943C12.306 71.3499 11.8357 72.0759 11.2442 71.87L10.5928 71.6432C10.1562 71.4912 9.68536 71.757 9.59009 72.2094L9.20995 74.0141C9.17107 74.1986 9.21013 74.3911 9.31787 74.5459C9.55612 74.8882 9.43527 75.3622 9.06221 75.5486L8.72421 75.7175C8.05832 76.0503 7.18623 75.56 6.80717 74.9193C6.42538 74.274 5.89897 73.8301 5.54903 74.0706C-0.381195 77.9659 -0.889305 77.9139 4.84755 72.3147C5.01489 72.1514 5.11201 71.9218 5.10756 71.688C5.08882 70.7052 3.15935 70.3438 2.48189 71.0561C2.3067 71.2403 2.11577 71.4277 1.90704 71.6198C1.73643 71.7768 1.51085 71.8606 1.27899 71.8606H0.882607C0.66803 71.8606 0.478661 71.7204 0.416077 71.5152C0.33725 71.2566 0.0632401 71.1115 -0.194908 71.1916L-4.94363 72.6641C-7.01412 73.3061 -9.26815 72.6566 -10.6796 71.0114L-14.498 66.5604C-14.9609 66.0208 -14.9538 65.2221 -14.4813 64.6909C-14.4108 64.6116 -14.3315 64.5404 -14.2451 64.4787L-11.6962 62.659C-11.4624 62.4921 -11.2965 62.2467 -11.2287 61.9676C-10.9271 60.7261 -12.5201 59.9394 -13.3226 60.9335L-13.4549 61.0974C-13.5704 61.2405 -13.7162 61.3562 -13.8817 61.4361L-17.1821 63.0304C-17.882 63.3685 -18.6952 63.382 -19.4059 63.0672L-20.3669 62.6415C-21.1141 62.3106 -21.4736 61.4522 -21.1776 60.6905C-20.3346 58.5207 -19.6113 56.8486 -18.4825 54.8732C-18.2009 54.3803 -17.1588 54.671 -16.7786 55.0925C-16.6984 55.1815 -16.6034 55.3319 -16.592 55.4511L-16.588 55.4932C-16.5245 56.1601 -15.5909 56.2575 -15.391 55.6182L-14.857 53.9101C-14.7864 53.6846 -14.8002 53.4411 -14.8958 53.225L-16.0289 50.6624C-16.4236 49.7696 -17.7661 50.1403 -17.6468 51.1091C-17.6186 51.3376 -17.6862 51.5663 -17.8203 51.7534C-18.5074 52.7119 -19.2478 54.2147 -18.9683 54.297C-18.8677 54.3266 -19.9567 54.9425 -20.9611 55.5015C-21.6902 55.9073 -22.3071 56.4869 -22.7571 57.1896C-22.9616 57.5089 -23.2019 57.8054 -23.4725 58.071C-25.5746 60.1346 -27.0667 61.5334 -29.1227 62.9636C-30.1531 63.6803 -31.6124 63.1733 -31.3931 61.9375C-31.1199 60.3981 -31.7607 59.1394 -32.9373 60.169C-34.8709 61.861 -36.8002 64.358 -38.6387 65.7486C-38.7657 65.8447 -38.9021 65.9252 -39.0448 65.9958L-42.1 67.5067C-42.6523 67.7798 -43.2993 67.3779 -43.2993 66.7618C-43.2993 66.5737 -43.2362 66.3904 -43.1156 66.2461C-42.4802 65.4857 -41.8211 64.8874 -41.1001 64.3486C-40.0956 63.5978 -40.5602 62.3255 -41.7471 62.7305C-42.1378 62.8638 -42.5351 63.0088 -42.943 63.1661C-44.0079 63.5765 -45.06 62.0265 -44.3298 61.1495C-43.7151 60.4112 -44.4416 59.4738 -45.3299 59.8399C-47.3825 60.686 -50.4105 61.9642 -54.4928 63.6876Z" fill="#829B73"/>
<path d="M-54.1094 47.7009C-54.2517 47.7424 -54.3546 47.5657 -54.2484 47.4624L-53.5902 46.8222C-53.2635 46.5044 -53.6873 45.9915 -54.0611 46.2525L-57.035 48.3298C-57.1049 48.3785 -57.1851 48.4138 -57.2681 48.433C-64.5221 50.1059 -68.1052 51.0555 -72.9683 52.7461C-69.846 51.9964 -67.5765 51.4746 -65.0747 51.0364C-64.4461 50.9263 -64.2127 51.8504 -64.7719 52.1581C-65.0645 52.3192 -65.3223 52.4836 -65.5528 52.658C-65.6776 52.7524 -65.6071 52.9399 -65.4506 52.9399C-65.2606 52.9399 -65.2129 53.2036 -65.3902 53.2717C-68.6173 54.511 -70.597 55.247 -72.5959 55.5377L-79.3434 56.2401C-79.7794 56.2855 -79.8508 56.8909 -79.4373 57.0365C-79.0256 57.1814 -79.0939 57.7834 -79.5276 57.8324L-106.237 60.8494C-98.5822 59.5699 -83.247 56.8404 -83.1477 56.158C-83.0851 55.7279 -86.2911 56.0454 -89.6907 56.5105C-90.2935 56.593 -90.5273 55.6713 -89.9544 55.4665C-89.3801 55.2613 -89.5936 54.4698 -90.1912 54.5911C-93.1235 55.1862 -96.1588 55.8766 -97.6718 56.4294C-99.3515 57.0431 -100.497 57.4473 -101.192 57.6863C-101.699 57.8606 -102.197 58.0584 -102.7 58.2442C-103.659 58.5991 -105.514 59.2108 -108.596 60.074C-112.022 60.7642 -111.917 65.6974 -108.464 66.2407L-100.837 67.4406L-88.3898 70.5582C-87.9222 70.6753 -87.4337 70.6816 -86.9632 70.5768L-61.4986 64.9008C-61.2356 64.8422 -61.2782 64.4552 -61.5476 64.4552C-69.72 65.4891 -86.8097 68.7201 -87.1821 66.8591C-87.3557 65.9916 -81.5036 63.888 -81.4718 63.5247C-81.4632 63.4272 -68.5354 58.5035 -67.5062 57.8252C-66.9199 57.4387 -73.585 58.6703 -75.6994 58.5619C-76.5052 58.5205 -64.8352 57.1149 -64.5269 56.6233C-64.3943 56.4117 -62.7178 55.3108 -61.0305 54.1745C-59.3712 53.057 -56.6905 54.067 -58.3201 55.2275C-58.5516 55.3924 -73.7752 62.7363 -81.4718 66.355C-77.7063 64.9592 -70.0387 62.1056 -69.4925 61.8575C-68.8097 61.5473 -62.2924 59.4536 -61.5476 59.0659C-60.8028 58.6782 -55.8373 54.9561 -55.7132 54.6847C-55.639 54.5225 -54.4984 54.1772 -53.5119 53.9105C-52.9178 53.7499 -52.2965 53.7236 -51.6879 53.8148L-51.1424 53.8966C-51.0864 53.905 -51.0295 53.9058 -50.9733 53.899C-50.3758 53.8268 -50.0266 54.553 -50.4561 54.9745L-52.223 56.7089C-52.4708 56.9522 -52.8043 57.0885 -53.1516 57.0885C-53.3265 57.0885 -53.4997 57.1232 -53.6612 57.1904L-67.1959 62.8268L-51.706 57.4129C-51.6053 57.3777 -51.5081 57.3321 -51.4169 57.2767C-51.3392 57.2295 -51.2646 57.1838 -51.1931 57.1394C-50.3836 56.6369 -49.5113 55.1955 -48.7546 54.6165L-48.6344 54.5245C-48.1707 54.1696 -48.0321 53.5312 -48.307 53.0161C-48.5426 52.5745 -49.0301 52.329 -49.5267 52.3912C-52.2378 52.731 -53.5862 52.6441 -54.4612 51.7029C-54.5943 51.5598 -54.6403 51.3548 -54.5737 51.1711C-54.4617 50.8622 -54.281 50.581 -54.0268 50.2869C-53.7193 49.9311 -54.1978 49.4434 -54.5349 49.1155C-54.652 49.0016 -54.6002 48.8622 -54.5078 48.7275L-53.9523 47.9179C-53.8767 47.8077 -53.9811 47.6635 -54.1094 47.7009Z" fill="#63895D"/>
<path d="M-87.4406 70.5002C-87.9188 70.6277 -88.4938 70.9218 -88.3789 71.4032C-88.359 71.4868 -88.3248 71.5718 -88.2799 71.6617C-88.1477 71.926 -88.062 72.2131 -88.0821 72.5079C-88.134 73.27 -87.57 73.9351 -86.8096 74.0083L-23.3752 80.1191H-3.24573C-1.82699 80.1191 -0.748642 78.8438 -0.984398 77.4448C-1.1577 76.4164 -2.00311 75.6344 -3.0419 75.5417L-18.0925 74.1986C-19.0438 74.1137 -19.9781 73.893 -20.8669 73.5431L-26.2204 71.4354C-26.6549 71.2644 -26.9795 70.8933 -27.0911 70.4399C-27.2709 69.7099 -27.9835 69.2413 -28.725 69.3649C-29.1977 69.4437 -29.6558 69.5203 -30.0985 69.594C-32.7941 70.0426 -33.0903 68.3443 -31.1319 66.4384C-30.1599 65.4925 -29.365 64.4175 -28.927 63.2508C-28.9085 63.2015 -28.8786 63.1575 -28.8391 63.1228C-28.5543 62.873 -28.8782 62.4274 -29.2037 62.6212L-31.3797 63.9164C-31.5007 63.9885 -31.5883 64.1052 -31.6289 64.2401C-32.1762 66.0585 -33.1428 66.9089 -36.2235 67.8671L-42.4882 70.3081C-43.3372 70.6389 -43.95 69.4752 -43.197 68.9623C-42.4462 68.451 -43.0532 67.2901 -43.9016 67.6149L-44.9221 68.0056C-45.9272 68.3904 -46.6288 66.9969 -45.7211 66.4187L-40.6304 63.1757L-54.658 69.6506C-52.6728 68.3959 -54.1798 65.3478 -56.3821 66.1634L-63.2855 68.7201L-53.6224 63.7136C-53.0316 63.4074 -52.9457 63.2418 -53.6037 63.341C-57.5771 63.94 -73.573 66.8016 -87.4406 70.5002Z" fill="#638D62"/>
<path d="M-27.7821 71.124C-30.5737 71.5145 -35.4069 72.1833 -38.2576 72.5572C-39.7381 72.7514 -41.1911 73.1926 -42.4931 73.9238C-44.7309 75.1807 -47.3211 76.7211 -47.3959 77.0948C-47.52 77.7152 -31.1959 80.6619 -27.7821 81.0884C-24.3683 81.5149 8.21797 82.678 8.59039 82.4454C8.65363 82.4059 8.649 82.2003 8.59636 81.8827C8.11079 78.9535 4.59854 77.6676 1.63638 77.8716C1.4651 77.8834 1.28728 77.8944 1.10239 77.9045C1.04715 77.9075 0.989754 77.9033 0.935509 77.8924C-0.889748 77.5264 -2.29067 77.3706 -3.83019 77.3955C-4.18426 77.4012 -3.96361 76.49 -3.74228 76.2136C-3.59308 76.0273 -3.97903 76.1138 -4.21404 76.1557C-4.90566 76.2792 -5.52953 76.3685 -6.1193 76.4249C-7.4214 76.5492 -7.47495 75.2287 -6.17134 75.1213C-4.23392 74.9616 -2.14238 74.9668 0.645546 75.0399C-4.33102 74.2486 -7.40858 73.8435 -12.3816 73.7992C-12.8504 73.795 -13.0023 73.1541 -12.5817 72.9471C-12.1351 72.7273 -12.3385 72.0683 -12.8307 72.1425C-18.8335 73.0474 -20.8359 74.0149 -22.6304 75.8541C-20.6899 73.7819 -22.4167 70.4194 -25.2314 70.789L-27.7821 71.124Z" fill="#758966"/>
<path d="M2.14801 40.1128C2.30324 40.2861 2.49634 40.4224 2.71274 40.5078C4.14233 41.0718 5.10471 39.5929 3.9072 38.6297C1.14677 36.4094 -1.85122 34.3634 -3.9917 32.4496C-4.70639 31.8106 -5.59206 31.378 -6.54752 31.2992L-7.43346 31.2261C-8.03939 31.1761 -8.62582 30.988 -9.14775 30.6761L-9.64925 30.3765C-9.73703 30.3241 -9.87891 30.2804 -9.97971 30.2633C-10.8771 30.1114 -10.955 30.9425 -10.0959 31.2432C-9.28622 31.5266 -8.68972 31.8148 -8.459 32.1601C-8.33885 32.34 -8.40923 32.5684 -8.51311 32.7581L-8.57382 32.8689C-8.92401 33.5084 -8.72375 34.2374 -8.37943 34.88C-8.36335 34.91 -8.35445 34.9338 -8.35445 34.9498C-8.35445 35.8846 -7.22897 36.5393 -6.81774 35.6998C-6.78609 35.6352 -6.75652 35.5672 -6.72884 35.4952C-6.64342 35.2731 -6.75514 34.8615 -6.84464 34.641C-7.13839 33.9171 -6.24863 33.7784 -5.58357 34.1882C-5.04508 34.5201 -4.43546 34.7726 -3.58846 35.0097C-3.25503 35.103 -2.94244 35.2632 -2.68224 35.4916C-0.683243 37.2465 0.576057 38.3582 2.14801 40.1128Z" fill="url(#paint13_linear_2092_18144)"/>
<path d="M17.1507 40.1608C15.8044 39.6651 14.5704 38.8843 13.3474 38.1344C11.9804 37.2962 10.2216 36.4163 9.04202 36.05C8.56807 35.9029 7.97984 36.2178 8.37244 36.5214C8.59023 36.6898 8.96677 36.8942 9.56349 37.1649C9.83469 37.288 9.94131 37.6199 9.78624 37.8742C9.66759 38.0687 9.69896 38.3195 9.86192 38.4788L10.7706 39.3673C10.9144 39.5078 10.9525 39.7243 10.8655 39.9055C10.7445 40.1575 10.871 40.4593 11.1349 40.5511C12.4084 40.9942 13.4165 41.3322 14.2245 41.5758C14.9733 41.8015 14.384 41.0045 13.7066 40.6137C13.0595 40.2404 14.0387 39.9764 14.7594 40.1729C16.5347 40.657 17.8951 41.1662 19.7634 41.9654C19.8866 42.0181 20.0058 42.0812 20.1187 42.1533L24.6243 45.0296C25.2708 45.4424 25.9628 45.7794 26.6864 46.034L36.3974 49.4505L35.3422 48.9077L34.813 48.6808C33.0902 47.9422 31.3632 46.9787 29.6634 46.1886C27.8328 45.3377 25.4254 44.3314 23.9215 43.8285C23.8461 43.8033 23.0201 43.1551 22.2012 42.5128C21.4096 41.892 20.5241 41.403 19.58 41.0553L17.1507 40.1608Z" fill="url(#paint14_linear_2092_18144)"/>
<path d="M39.8112 51.2727C39.6848 51.2532 40.8062 50.5465 41.6412 50.0403C41.7924 49.9487 41.9712 50.1018 41.9055 50.2659C41.8776 50.3356 41.8948 50.4152 41.9481 50.468C42.2417 50.759 42.4422 50.9869 42.5746 51.1836C42.879 51.6364 43.047 52.2197 43.4674 52.5674C47.7987 56.1504 49.8409 58.0915 53.6526 61.5473L63.5304 66.3746C63.979 66.5939 64.4489 66.7793 64.9233 66.9353C77.1802 70.9659 81.3802 76.8884 90.5216 80.1191C74.4247 75.5403 67.3576 69.1065 54.025 66.8978C55.0171 66.9932 55.537 64.6976 54.6257 64.2941C48.5487 61.6031 43.431 58.6535 44.7767 58.872L45.3249 59.0401C45.9258 59.2244 46.3383 58.4423 45.8468 58.0505L45.411 57.7031C44.933 57.3221 46.244 57.0468 45.8939 56.5457C44.5108 54.8221 40.3861 51.3616 39.8112 51.2727Z" fill="url(#paint15_linear_2092_18144)"/>
<path d="M5.40071 36.8408C5.64203 36.8215 5.64383 36.4687 5.40273 36.4469L2.2803 36.1658C1.83026 36.1253 1.59755 36.6839 1.94485 36.9729C3.98593 38.6718 5.37238 39.746 7.22292 41.9367C7.34842 42.0853 7.48802 42.2221 7.6407 42.3425L7.9601 42.5946C9.1322 43.5194 10.5817 44.0224 12.0747 44.0224H15.0623C15.6235 44.0224 16.3629 44.2211 16.8593 44.4829C17.5318 44.8376 18.0504 45.1133 18.7948 45.2683L34.0387 48.4424C28.4658 46.9456 25.0639 46.0234 18.3472 43.6797C16.7509 43.1227 15.0382 42.9585 13.3719 43.2443C12.6588 43.3665 12.0801 43.4704 11.9527 43.5056C11.8863 43.394 10.3552 42.5706 8.87013 41.7927C7.68793 41.1735 6.74536 40.1762 6.20807 38.9546L5.51686 37.3829C5.49736 37.3386 5.46494 37.3011 5.42383 37.2754L5.31172 37.2054C5.15016 37.1045 5.21083 36.8559 5.40071 36.8408Z" fill="#A0AE9A"/>
<path d="M14.12 47.9869C13.9927 47.9804 13.8655 47.9581 13.7438 47.9201C12.4056 47.5028 11.269 47.062 10.1976 46.5568C9.11508 46.0464 8.39041 46.965 9.5591 47.2232C9.69365 47.2529 9.8315 47.2791 9.97295 47.3017C10.0396 47.3123 10.1078 47.2891 10.1546 47.2404C10.2204 47.1719 10.3238 47.1561 10.4068 47.2022C12.265 48.2348 14.2113 49.3256 15.883 50.3232C18.8427 52.0894 18.1279 53.2094 15.0108 51.7388C14.4075 51.4541 13.8332 51.184 13.3349 50.964C12.2288 50.4757 11.9874 51.0748 12.6615 52.0785C13.5704 53.4317 14.3488 54.5392 15.4978 55.9204C16.0527 56.5875 16.9477 56.3731 17.1069 55.5201C17.2313 54.8531 17.8945 55.161 18.2465 55.741L20.8383 60.0118C21.1138 60.4657 21.4329 60.8927 21.7922 61.2838C24.5053 64.2364 26.3275 66.0317 29.6452 68.3709C30.0854 68.6814 31.0228 68.9836 31.5216 69.1873C32.1459 69.4423 31.4053 69.6704 30.7436 69.8006C28.7427 70.1942 25.8856 70.473 23.9762 70.7366C22.4794 70.9433 22.8455 71.3701 24.3556 71.4223C28.7044 71.5726 31.8341 71.8526 36.5773 72.5299C37.2353 72.6238 37.8658 72.8611 38.4245 73.221C39.1681 73.7 40.0325 73.9576 40.9169 73.9637L43.7894 73.9837C44.6917 73.9899 45.5891 74.1183 46.457 74.3653L61.7073 78.705C61.8349 78.7413 61.972 78.7219 62.0845 78.6516C62.4046 78.4517 62.3683 77.9744 62.0223 77.8238C56.9975 75.6366 53.8322 74.423 48.0196 72.8508C47.9688 72.8371 47.919 72.817 47.873 72.7914C47.2889 72.4659 47.5269 71.5849 48.1952 71.6106C50.4015 71.6952 52.1434 71.878 54.6457 72.3259L71.3423 75.8154L78.8522 77.4258C79.2426 77.5095 79.5962 77.1772 79.537 76.7823C79.4993 76.531 79.3001 76.3348 79.0482 76.3009L76.0185 75.8927C74.2587 75.6556 72.1297 75.0403 70.3877 74.6961C69.2587 74.473 67.8477 74.2205 66.2787 73.9308C65.8069 73.8437 65.3423 73.7196 64.8861 73.5712C62.895 72.923 61.4538 72.6127 58.8697 72.3393C58.7855 72.3304 58.7003 72.3151 58.6184 72.2938C57.433 71.9862 56.528 71.7324 55.642 71.4427C54.8882 71.1963 54.9836 70.1468 55.7629 69.9996C52.396 70.1888 50.2536 70.2353 48.2279 70.029C46.6272 69.866 44.5261 70.4641 42.971 70.8771C40.3695 71.5679 38.1838 68.8891 35.5878 68.1779C35.3825 68.1217 35.1748 68.0637 34.9662 68.0035C32.3089 67.2366 31.7034 64.3721 32.8655 61.8624C32.9982 61.5758 33.1128 61.316 33.2082 61.083C33.6243 60.0669 33.3774 59.2885 32.3985 59.7859C31.3735 60.3066 29.42 60.9495 28.8546 59.9484C28.7579 59.7772 28.6625 59.5821 28.5659 59.3593C28.152 58.4044 28.5754 57.2419 28.1295 56.3015C27.9061 55.8304 27.1973 55.6788 25.672 55.3189C25.4243 55.2604 25.241 55.1609 25.0815 54.9626C24.3564 54.061 25.0242 52.4586 26.1649 52.6521C28.3439 53.0218 29.984 53.2518 29.5077 53.1338C24.8176 51.6912 22.1386 50.673 18.6958 48.9947C17.5529 48.4376 16.3133 48.0987 15.0435 48.034L14.12 47.9869Z" fill="#A0AE9A"/>
<path d="M193.616 44.3932C193.73 44.3992 193.894 44.3668 194.001 44.3295C194.784 44.0571 195.838 44.6392 195.839 45.4684L195.852 54.5619C195.854 56.0099 195.216 57.3849 194.109 58.3187L193.832 58.5526C192.523 59.6572 190.782 60.1105 189.097 59.7997C175.359 57.2644 165.437 55.941 156.425 51.6292C153.969 50.4544 154.156 48.3356 156.624 47.1864C157.585 46.7387 158.741 46.0376 159.715 46.4576C160.058 46.6056 160.396 46.7958 160.78 47.0128C161.388 47.3562 162.054 47.6003 162.752 47.6137C163.17 47.6216 163.6 47.6088 164.218 47.6513C164.403 47.664 164.589 47.7163 164.751 47.8053C165.509 48.2221 166.474 48.3721 167.153 47.8363C168.708 46.6102 170.772 45.1833 170.825 45.1498C171.032 45.0205 171.282 44.9988 173.153 44.927C174.037 44.8931 174.912 44.7419 175.737 44.42C178.073 43.5079 182.134 41.7657 184.532 41.3893C185.523 41.2337 186.548 41.4948 187.397 42.0285C188.706 42.8509 190.565 44.2294 193.616 44.3932Z" fill="#6D956F"/>
<path d="M188.22 56.5396C188.122 56.5152 176.261 54.2867 170.551 53.2074C169.598 53.0273 169.661 52.1892 170.587 52.4778C170.92 52.5817 171.581 53.1752 172.698 53.446C173.023 53.5147 173.316 53.5709 173.584 53.6161C174.597 53.7866 174.215 52.3207 174.43 51.3166C174.478 51.091 174.616 51.2641 174.841 51.3149C175.585 51.4824 176.094 51.5694 176.765 51.6318C176.981 51.6519 177.289 51.4997 177.442 51.3452C178.084 50.693 179.837 50.073 180.195 50.9158C180.523 51.6863 180.733 52.3054 180.952 52.4724C182.324 53.5179 184.268 53.6715 185.892 53.0919C187.275 52.5985 187.665 51.9992 187.282 51.6549C187.175 51.546 187.072 51.4767 186.959 51.4343C186.817 51.381 186.759 51.1487 186.894 51.0808C186.904 51.0759 186.913 51.0697 186.922 51.0626C188.707 49.5609 188.979 48.9755 188.022 48.2813C186.964 47.7132 186.122 47.5992 185.196 47.5765C184.48 47.5589 184.206 46.8286 184.853 46.5202C184.908 46.4939 185.009 46.4542 185.069 46.4415C185.278 46.3974 185.47 46.3551 185.647 46.3136C186.457 46.125 186.223 45.0725 185.607 44.5148C185.424 44.3493 185.41 44.1866 185.439 43.9417C185.471 43.6725 185.524 43.4558 185.581 43.2706C185.716 42.8287 185.421 42.4433 184.959 42.4602L183.864 42.5002C183.476 42.5144 183.299 42.0223 183.607 41.7867C183.687 41.726 183.787 41.6974 183.887 41.707C186.692 41.978 188.043 42.4808 189.568 43.3177C190.919 43.8596 191.691 44.1509 193.093 44.5907C193.132 44.603 193.13 44.6593 193.091 44.6693C193.049 44.6798 193.05 44.7396 193.092 44.7487L195.325 45.2326C195.589 45.2898 195.777 45.5231 195.778 45.7932L195.778 46.094C195.779 46.7225 195.179 47.1778 194.574 47.0077L194.247 46.9157C193.448 46.6912 192.667 47.3221 192.718 48.1501L192.73 48.3553C192.737 48.458 192.767 48.5579 192.818 48.6472C193.215 49.3391 192.137 50.156 191.794 49.4355C191.68 49.1948 191.581 48.9398 191.499 48.6672C191.688 49.3487 191.871 49.9823 192.06 50.5821C192.976 53.4902 191.178 57.277 188.22 56.5396Z" fill="#47A26B"/>
<path d="M157.405 47.0412C157.404 47.3504 157.029 47.4363 156.732 47.5203C155.936 47.7451 154.483 48.004 153.32 48.2963C152.65 48.4649 152.697 49.1012 153.338 49.3617C153.48 49.4195 153.657 49.451 153.809 49.4296C155.463 49.1979 156.612 49.0777 158.182 49.0238C158.47 49.0139 158.522 48.5343 158.284 48.3727C158.08 48.234 158.23 47.9576 158.477 47.9576C158.936 47.9576 159.221 47.9414 159.378 47.9011C159.526 47.8629 159.458 47.708 159.331 47.6218C159.008 47.4023 158.796 47.2178 158.647 47.0204C158.425 46.7269 158.096 46.6617 157.731 46.7076C157.428 46.7456 157.406 46.8944 157.405 47.0412Z" fill="url(#paint16_linear_2092_18144)"/>
<path d="M167.065 48.2557C166.723 48.638 167.125 48.7633 167.516 48.4313L167.971 48.0451C168.294 47.771 168.805 47.9144 168.621 48.2955C168.58 48.3801 168.526 48.4691 168.459 48.5654C168.314 48.7741 168.406 49.0938 168.645 49.1796C169.005 49.3087 169.438 48.6192 169.559 48.2566C169.622 48.0684 169.715 47.8613 169.834 47.6361C170.151 47.0345 169.565 46.3692 168.993 46.7382C168.146 47.2855 167.445 47.8302 167.065 48.2557Z" fill="url(#paint17_linear_2092_18144)"/>
<path d="M175.48 44.9593C175.48 44.9592 175.48 44.9591 175.48 44.9591C175.48 44.9581 175.48 44.9581 175.48 44.9593C175.532 45.0311 177.779 43.785 178.147 43.7114C178.451 43.6507 181.064 42.766 182.587 42.2122C182.857 42.1137 183.196 42.2067 183.244 42.4909C183.311 42.8941 183.014 43.2 182.358 43.5359C182.096 43.67 182.44 44.0463 182.454 44.3403C182.46 44.4612 182.349 44.4371 182.231 44.4101C181.905 44.3354 181.453 44.178 181.099 44.141C180.953 44.1257 180.808 44.1596 180.67 44.2091C180.078 44.4213 179.614 44.6421 179.185 44.8471C178.321 45.2605 178.107 45.8165 178.982 46.208C179.89 46.6149 179.059 47.1926 178.124 46.8483C177.928 46.7761 177.711 46.7003 177.468 46.6196C176.056 46.2249 175.558 45.8874 175.48 44.9593Z" fill="url(#paint18_linear_2092_18144)"/>
<path d="M120.319 40.9628C117.234 40.9644 115.553 44.5671 117.535 46.932L122.408 52.7471C123.538 54.0959 125.119 54.9817 126.86 55.2383C139.478 57.0982 160.148 60.1728 159.363 60.1732C158.518 60.1736 183.344 62.0475 195.863 62.9844C195.859 59.8506 193.207 57.4444 190.085 57.1771C189.497 57.1268 188.864 57.0611 188.158 56.9788L178.535 55.1228C171.518 53.7267 167.35 52.8614 160.638 52.0764C159.461 51.9387 158.315 51.5986 157.246 51.0862C156.615 50.7841 156.082 50.5416 155.623 50.3565C154.441 49.8802 153.155 49.6477 151.924 49.3195C151.182 49.1217 150.531 49.0031 149.801 48.9078C149.052 48.8099 148.308 48.6618 147.598 48.4027C145.721 47.7177 144.724 47.1939 143.268 46.34L136.204 43.002C135.62 42.726 135.087 42.3404 134.702 41.8214C134.493 41.5386 134.331 41.281 134.219 41.0302C133.814 40.1287 133.782 38.8824 132.89 38.4575C132.512 38.2777 132.118 38.2683 131.703 38.3183L126.19 38.9826C125.123 39.1111 124.089 39.4363 123.141 39.9418L122.027 40.5356C121.501 40.8158 120.915 40.9625 120.319 40.9628Z" fill="#719C6D"/>
<path d="M131.837 38.359C132.381 38.4138 132.665 38.4866 133.14 38.6685L133.143 38.6698C133.456 38.7983 133.66 38.8822 133.917 39.1113C134.063 39.2415 134.156 39.425 134.062 39.5969C133.98 39.749 133.881 39.9276 133.902 40.0994C133.935 40.3612 134.017 40.5354 134.136 40.8004L134.945 42.1183C135.519 42.8339 136.235 43.4229 137.048 43.8481L139.667 45.2175L144.076 47.115L147.181 48.6255C148.005 49.0582 148.454 49.2998 149.728 49.7486C150.634 49.9357 151.236 50.0082 152.645 50.0184C153.145 50.0316 153.344 49.9572 153.698 49.8248C153.7 49.8243 153.701 49.8241 153.703 49.8243C155.085 49.9787 155.58 50.5025 157.772 51.4616C158.364 51.7203 158.988 51.8987 159.622 52.0202L164.318 52.9202L175.742 55.163C179.022 55.6517 180.727 55.8078 184.434 56.6705L195.434 57.6356C195.673 57.6566 195.856 57.8564 195.856 58.0961C195.857 58.3538 195.647 58.5623 195.389 58.5588C190.867 58.498 186.028 58.2306 183.286 58.1696C181.752 58.1354 181.867 58.4958 183.382 58.7382C186.205 59.1899 189.258 59.5365 194.459 60.0611C194.563 60.0716 194.668 60.0928 194.768 60.124C195.417 60.3264 195.86 60.9272 195.861 61.6075L195.863 62.9844L190.89 62.7226C190.317 62.6924 189.746 62.6128 189.186 62.4847L172.876 58.7539C172.477 58.6627 172.103 58.4866 171.778 58.2377C171.569 58.0771 171.339 57.9457 171.092 57.8508C169.078 57.0744 167.659 56.7058 165.13 56.1379L156.774 54.1131C156.392 54.0207 155.992 54.0437 155.624 54.1793C155.303 54.2975 154.957 54.3305 154.619 54.2751L141.535 52.1278C141.496 52.1213 141.457 52.1097 141.421 52.0932C140.92 51.8686 141.154 51.114 141.694 51.212L144.791 51.7739C145.322 51.8701 145.792 51.4079 145.407 51.0318C145.159 50.7904 144.792 50.5608 144.282 50.2858C144.149 50.2135 144.005 50.1587 143.858 50.1219C142.635 49.8172 141.817 49.6825 140.293 49.5597C138.347 49.3532 137.638 49.1152 136.319 48.7088C134.801 48.0972 134.039 47.7091 132.779 46.9659C131.886 46.3531 131.121 46.1255 129.736 45.7268L126.899 44.9816C126.267 44.8155 126.339 44.3366 126.958 44.5492C126.982 44.5577 127.016 44.5675 127.042 44.5725L131.964 45.5257C132.794 45.6863 133.491 44.6409 133.272 43.8251C133.198 43.6298 133.132 43.4486 133.065 43.2819C132.517 41.9207 130.739 42.6904 129.295 42.9497C129.118 42.9815 128.924 43.0113 128.709 43.0398C128.647 43.0481 128.584 43.0472 128.522 43.0376L126.603 42.739C125.96 42.639 126.039 41.6895 126.689 41.6961C127.324 41.7027 126.674 40.6564 127.258 40.4072C127.77 40.1888 128.979 40.0137 131.523 39.8449C131.645 39.8369 131.764 39.7882 131.855 39.707C132.03 39.5503 132.096 39.2932 131.981 39.0882C131.924 38.9856 131.853 38.8836 131.748 38.7638C131.601 38.5967 131.614 38.3572 131.837 38.359Z" fill="#6C9A60"/>
<path d="M14.3062 59.5514C15.9705 59.5505 17.2439 61.0336 16.9913 62.6786L15.6436 71.4546C14.891 76.3548 10.6618 79.9639 5.70422 79.9366L-116.819 79.2602C-122.315 79.2298 -126.756 74.7698 -126.764 69.2738L-126.781 56.3804C-126.783 54.8047 -125.355 53.6385 -123.805 53.9244C-122.129 54.2337 -121.073 55.0474 -119.954 56.0161C-118.835 56.9848 -118.214 57.2171 -117.221 57.5267C-116.227 57.8364 -115.048 57.8745 -114.303 57.9517C-113.558 58.0289 -113.496 57.9125 -112.441 57.6793C-111.387 57.4461 -110.456 56.8253 -109.34 56.2431C-108.223 55.661 -105.307 55.2717 -104.5 55.2325C-103.693 55.1933 -100.215 56.8199 -99.3453 57.3623C-98.4756 57.9046 -96.0534 59.0277 -94.6871 59.6086C-94.4375 59.7147 -94.1509 59.8241 -93.848 59.9323C-92.0299 60.5816 -90.037 60.5168 -88.2158 59.8762C-88.1778 59.8628 -88.1416 59.85 -88.1074 59.8378C-87.2389 59.5272 -86.4942 59.4492 -85.501 59.4875C-84.5079 59.5257 -82.8934 60.0289 -81.9622 60.1447C-81.4868 60.2039 -80.683 60.2239 -79.986 60.2272C-79.3187 60.2303 -78.6547 60.1475 -78.0033 60.0022L-75.3638 59.4134C-74.758 59.2783 -74.1412 59.1987 -73.5205 59.1941C-73.0013 59.1903 -72.3325 59.1922 -71.5979 59.2088C-69.922 59.2467 -69.7972 59.7506 -69.3 60.2156C-68.8028 60.6806 -67.2505 61.1063 -66.1328 61.4547C-65.0151 61.803 -64.1458 62.074 -63.4624 62.5001C-62.7791 62.9262 -61.103 63.1192 -60.5442 63.1965C-60.3173 63.2279 -59.9526 63.2605 -59.5918 63.2884C-59.0342 63.3315 -58.5049 63.0456 -58.224 62.5619C-58.0404 62.2457 -57.7463 62.0085 -57.3984 61.8961L-54.8486 61.0724C-54.3455 60.9098 -53.8586 60.7005 -53.3945 60.4472L-53.3077 60.3998C-51.9097 59.6367 -50.3426 59.2364 -48.7498 59.2355L-46.8323 59.2345C-45.6692 59.2339 -44.2905 59.6169 -43.3557 59.9489C-42.8534 60.1274 -42.351 60.3075 -41.8349 60.441L-36.0286 61.9429L-35.902 61.9688C-33.5413 62.4509 -31.0859 62.0645 -28.9874 60.8806L-28.458 60.5819C-28.0446 60.3361 -27.1928 59.8446 -27.0935 59.8445C-26.9942 59.8445 -25.0657 59.9727 -24.1139 60.0368C-23.5553 60.0236 -22.376 59.9894 -22.1278 59.9582C-21.8796 59.9271 -21.2385 59.6864 -20.949 59.5699L-19.2739 58.9874C-18.7156 58.8062 -17.4747 58.4127 -16.9783 58.2883C-16.3578 58.1329 -12.3242 57.5105 -11.7657 57.4326C-11.2071 57.3548 -9.09711 57.1211 -8.16624 57.0042C-7.23535 56.8874 -5.9946 56.4215 -4.93983 56.1108C-4.09603 55.8622 -2.47746 56.3421 -1.77364 56.6132L-1.0285 56.8454L2.0143 57.8906L3.25615 58.2389L10.4671 59.4861C10.8741 59.5565 11.2863 59.5917 11.6994 59.5915L14.3062 59.5514Z" fill="url(#paint19_linear_2092_18144)"/>
<path d="M-106.716 66.9023C-108.179 67.1021 -109.636 66.6739 -110.975 66.0514C-112.27 65.4491 -113.518 64.9088 -114.797 64.3968C-120.642 62.0577 -126.767 66.7369 -126.759 73.0325C-126.752 78.2202 -122.543 82.4211 -117.355 82.4184L-37.7988 82.3767C-34.9565 82.3752 -32.6221 80.1308 -32.5089 77.2908L-31.9642 63.6276C-31.9528 63.3437 -32.3114 63.1924 -32.4887 63.4144C-32.5383 63.4764 -35.1568 64.0878 -36.4598 64.3858L-37.139 64.6287C-38.375 65.0707 -39.1748 66.1149 -39.9941 67.1404C-40.0216 67.175 -40.6653 67.2674 -41.4054 67.3628C-42.524 67.5069 -43.678 67.4955 -44.7334 67.098C-45.1882 66.9267 -45.5695 66.7362 -45.9555 66.5062C-46.5458 66.1545 -47.151 65.8253 -47.7983 65.5947C-48.3061 65.4138 -48.8312 65.2827 -49.3659 65.2138C-50.5264 65.0645 -51.4337 64.9948 -52.6339 65.0679C-53.3944 65.1142 -54.1579 65.1177 -54.9174 65.0583C-56.3404 64.9471 -57.3856 64.9878 -58.99 65.0955C-60.1281 65.2325 -60.9414 65.4061 -61.856 65.73C-62.9528 66.1186 -64.1336 66.252 -65.2578 65.9518L-68.3091 65.1912C-68.9638 65.028 -69.6336 64.9286 -70.308 64.9091C-71.341 64.8791 -72.1635 64.8829 -73.0042 64.93C-74.2872 65.002 -75.518 65.4267 -76.6469 66.0405C-77.9373 66.742 -79.0114 67.2793 -80.1918 67.6259C-81.2936 67.9494 -82.4626 67.8491 -83.5836 67.5997L-86.2357 67.0096C-87.8347 66.5189 -88.9469 66.187 -90.1509 65.6923C-91.2188 65.2536 -92.4548 65.0062 -93.58 65.2647C-94.5241 65.4816 -95.4263 65.561 -96.3872 65.4382C-97.225 65.3311 -98.0206 65.2627 -98.9228 65.2046C-100.419 65.1081 -101.907 65.4014 -103.302 65.9497C-104.46 66.4051 -105.496 66.7357 -106.716 66.9023Z" fill="#ACCBAB"/>
<path d="M-1.88503 62.1313C-1.12341 61.493 -0.177109 61.1165 0.814796 61.0564C5.50099 60.7722 7.11629 66.0841 2.69304 67.6577C-2.19444 69.3964 -8.08617 70.8989 -16.1306 72.59C-16.3811 72.6426 -16.6474 72.6033 -16.8704 72.4777C-17.8169 71.9446 -17.4389 70.5018 -16.3526 70.5012L-15.9732 70.501C-15.8877 70.501 -15.8026 70.4914 -15.7192 70.4726L0.164345 66.8867C-1.83345 67.2801 -5.59541 68.0353 -5.915 68.1536C-5.87408 68.1638 -5.87174 68.1694 -5.91671 68.1694C-5.94456 68.1694 -5.94285 68.164 -5.915 68.1536C-6.19045 68.0854 -8.21415 67.8129 -9.33118 67.6672L-13.1308 66.7094C-13.8364 66.5316 -14.0313 65.6215 -13.4604 65.1703L-11.629 63.7226C-11.2947 63.4584 -11.5614 62.9256 -11.9732 63.035C-12.4323 63.1568 -12.6731 62.511 -12.2464 62.3025L-11.3252 61.8524C-14.9244 63.0458 -17.9246 64.0222 -20.0027 64.8043C-22.3546 65.6895 -21.6543 66.703 -19.1473 66.5314C-18.3248 66.4752 -17.6155 66.4219 -17.2777 66.3919C-16.8228 66.3515 -13.8186 67.3688 -13.3705 67.4575C-12.7753 67.5754 -13.0564 67.9371 -14.0478 68.1737C-14.333 68.2418 -15.8481 68.377 -17.5248 68.5707C-20.0868 68.8666 -22.7081 68.3993 -25.0023 67.2211C-25.7208 66.8522 -26.2016 66.6508 -26.4706 66.6173C-26.7907 66.5775 -26.6034 67.0273 -26.4116 67.2867C-26.1852 67.593 -26.0233 67.8583 -25.9129 68.1282C-25.6755 68.7084 -26.1642 69.2798 -26.7854 69.3644C-28.2573 69.5649 -29.7823 69.5951 -32.1471 69.5391C-32.4283 69.5324 -32.5153 69.9204 -32.2575 70.0329C-32.2402 70.0405 -32.2228 70.046 -32.2043 70.0495C-30.7873 70.3219 -27.9333 70.8562 -27.6373 70.8561C-27.3985 70.8559 -27.169 70.9489 -26.9976 71.1152L-26.9909 71.1216C-26.8085 71.2986 -26.7068 71.5417 -26.6982 71.7957C-26.6756 72.4592 -26.5959 73.3383 -26.3925 73.4144C-26.2313 73.4746 -24.0402 75.1029 -21.8364 76.7578C-20.1866 77.9967 -20.1785 80.4659 -21.8148 81.7225C-22.3605 82.1416 -23.0293 82.3689 -23.7173 82.3693L-43.6415 82.3797C-47.5973 82.3818 -48.3708 73.6985 -51.6513 75.909C-52.4575 76.4523 -51.7771 74.0087 -51.6538 74.0868C-50.9361 74.5407 -47.3787 71.9809 -45.825 70.2648C-45.6986 70.1252 -45.5987 69.9618 -45.559 69.7776C-45.3417 68.7706 -46.0329 67.9581 -47.5529 66.588C-47.6229 66.5248 -47.5789 66.4078 -47.4846 66.4077C-47.3962 66.4077 -47.3492 66.3034 -47.4076 66.2371L-47.683 65.9249C-47.8117 65.7791 -47.7585 65.5469 -47.564 65.5444C-46.5466 65.5313 -45.3653 67.247 -42.751 69.7471C-42.4964 69.9906 -42.1495 70.1146 -41.7979 70.0924C-41.367 70.0653 -40.9842 69.8167 -40.6964 69.4949C-39.6303 68.3032 -37.4599 67.052 -37.0766 67.3328C-36.897 67.4644 -35.0999 67.4947 -33.2154 67.4266C-32.73 67.4091 -33.0851 66.1698 -32.7959 65.7797C-32.3882 65.2296 -31.0536 65.5304 -30.715 66.1255C-30.6888 66.1716 -30.6614 66.2184 -30.6329 66.2658C-31.0372 65.5253 -25.5633 65.1014 -25.1616 65.5818C-24.757 66.0658 -25.0264 64.6047 -24.9768 64.5736C-24.5736 64.3214 -24.0115 64.2362 -23.9417 63.7658C-23.9348 63.7193 -23.9299 63.6723 -23.9246 63.6207C-23.9235 63.6099 -23.9271 63.599 -23.9342 63.5908C-24.845 62.5463 -25.6757 62.0764 -26.7382 61.3246C-27.05 61.104 -27.1355 60.6819 -26.9452 60.3508C-26.8069 60.1103 -26.5479 59.9635 -26.2707 59.9731C-26.0149 59.9819 -25.787 59.9936 -25.5844 60.0107C-24.8083 60.076 -25.2405 60.3209 -25.7266 60.9295C-25.7682 60.9815 -24.3558 61.4004 -23.301 61.7015C-22.9542 61.8005 -22.5812 61.7169 -22.3049 61.485C-22.1927 61.3909 -22.0887 61.3044 -21.9917 61.2244C-21.3967 60.7341 -20.671 61.2649 -20.4406 62.0007C-20.3353 62.3371 -19.9743 62.5386 -19.6227 62.513L-18.9448 62.4638C-18.708 62.4466 -18.4803 62.3844 -18.2578 62.3015C-16.197 61.5336 -11.3213 61.0474 -9.07856 60.8567C-8.30216 60.7907 -7.53151 60.6566 -6.82844 60.3207C-6.10283 59.974 -5.12486 59.412 -4.25382 58.5919C-4.07873 58.4116 -3.96119 58.2628 -3.94315 58.0783C-3.89855 57.6221 -3.91084 57.0519 -3.45364 57.0194C-3.10664 56.9947 -2.90485 56.8023 -3.05762 56.4897C-3.16171 56.2768 -3.28592 56.0684 -3.35152 55.9887C-3.44595 55.9492 -3.46223 55.9361 -3.3884 55.9549C-3.38055 55.9569 -3.36785 55.9688 -3.35152 55.9887C-2.37694 56.396 6.92117 59.6149 11.389 59.6305C6.38004 59.8475 -2.95422 59.5988 -2.57655 59.6378C-1.67929 59.7307 -3.77894 61.7579 -6.42239 63.5225C-7.18862 64.0339 -6.78343 65.7272 -5.86217 65.7268L-5.02251 65.7263C-4.23981 65.7259 -4.24981 64.1584 -4.86633 64.6406C-5.01945 64.7604 -3.33595 63.3473 -1.88503 62.1313Z" fill="url(#paint20_linear_2092_18144)"/>
<path d="M-69.3197 64.9934C-69.3436 64.9876 -69.3681 64.9846 -69.3926 64.9846C-69.7683 64.9848 -69.8222 65.5713 -69.4606 65.6732C-68.8403 65.8481 -68.3485 66.0552 -67.9625 66.3417C-67.8969 66.3904 -67.8455 66.4697 -67.8983 66.5321C-68.0212 66.6773 -68.4166 66.8471 -68.8301 67.0136C-69.6339 67.3372 -69.5859 67.8982 -68.764 68.1727C-68.7161 68.1887 -68.668 68.2042 -68.6198 68.2191C-66.7099 68.81 -64.0016 70.6707 -65.2493 72.2328C-65.2978 72.2935 -65.0749 72.504 -64.71 72.7869C-63.128 74.0138 -59.723 73.8829 -59.7257 71.881C-59.7266 71.1637 -59.6167 70.4066 -58.9 70.3779C-57.45 70.3196 -56.1819 69.9807 -53.8154 70.0528C-53.4631 70.0636 -53.3326 69.4994 -53.6623 69.375C-53.6928 69.3635 -53.7257 69.357 -53.7582 69.356C-55.5105 69.2971 -56.2276 69.2983 -56.8597 69.3477C-56.9508 69.3548 -57.045 69.3415 -57.1305 69.3093C-60.3956 68.0803 -60.5413 68.2807 -61.9126 68.0056C-61.9615 67.9958 -61.9552 67.9274 -61.9054 67.9274C-61.8651 67.9274 -61.8483 67.8762 -61.8809 67.8525C-62.8131 67.1741 -63.6699 66.7706 -64.9371 66.1005C-65.0263 66.0533 -65.1211 66.0171 -65.2192 65.9932L-69.3197 64.9934Z" fill="url(#paint21_linear_2092_18144)"/>
<path d="M-90.9536 66.3547C-90.8046 66.3165 -90.7407 66.1404 -90.8305 66.0154C-90.9692 65.8226 -90.7374 65.568 -90.5287 65.6815C-87.9202 67.101 -85.7163 67.6005 -82.0096 68.0512C-81.5778 68.1037 -81.1843 68.3305 -80.9266 68.681L-80.7281 68.9509C-80.6751 69.0231 -80.6019 69.078 -80.5177 69.1087L-80.454 69.132C-80.0284 69.2876 -80.0907 69.9082 -80.5388 69.976C-80.6089 69.9866 -80.6753 70.014 -80.7324 70.056L-81.9937 70.9825C-82.9782 71.7056 -84.1396 72.1496 -85.3554 72.2677L-89.3397 72.6547C-89.4575 72.6662 -89.5765 72.6573 -89.6913 72.6285L-91.5468 72.1636C-92.2901 71.9773 -92.2186 70.8984 -91.4571 70.812L-90.4187 70.694C-89.9759 70.6437 -89.8955 70.0345 -90.31 69.871C-90.7663 69.6911 -90.6102 69.0098 -90.1212 69.0465L-89.5883 69.0865C-89.0448 69.1272 -88.8265 68.4005 -89.3024 68.1349L-91.2322 67.0582C-91.5122 66.9019 -91.458 66.4839 -91.1473 66.4043L-90.9536 66.3547Z" fill="url(#paint22_linear_2092_18144)"/>
<path d="M-2.13015 68.4388C-5.69063 69.4476 -1.8259 82.3578 1.87473 82.3558L185.975 82.2592C191.449 82.2563 195.883 77.8139 195.876 72.3397L195.869 67.6181C195.865 64.7585 193.545 62.4428 190.686 62.4443C190.29 62.4445 189.895 62.3993 189.509 62.3096L171.96 58.228L154.31 53.3554C153.742 53.1986 153.161 53.0923 152.575 53.0378L142.632 52.1132C142.11 52.0646 141.593 51.9751 141.085 51.8454L127.981 48.5003C126.926 48.231 125.922 47.7912 125.009 47.1984L121.853 45.1493L114.459 39.4537C113.946 38.9672 113.487 38.5281 113.079 38.1287C111.074 36.1679 108.931 34.0429 106.668 32.387C105.981 31.8847 105.328 31.3095 104.64 30.5413C103.388 29.2372 102.579 28.5855 101.748 28.2471C100.98 27.9345 100.122 27.9973 99.2983 28.0945C92.7464 28.8683 88.5066 29.1759 81.9982 29.3477C80.8132 29.379 79.6566 29.7336 78.6631 30.3801L78.3127 30.6082C77.5097 31.1307 76.5724 31.4091 75.6144 31.4096C74.2534 31.4103 72.9643 31.9847 71.9852 32.9299C71.4491 33.4474 70.9879 33.8603 70.5848 34.1972C68.8462 35.6505 66.468 36.1697 64.2039 36.0758L61.6941 35.9717C60.7887 35.9342 59.8764 36.0012 59.0083 36.2609C58.3305 36.4637 57.7994 36.6746 57.3098 36.9319C56.4304 37.3942 55.5665 37.8923 54.6466 38.2675C53.8861 38.5777 53.2653 38.8819 52.6413 39.2495C51.6667 39.8237 50.6458 40.3166 49.5818 40.7008C48.3105 41.16 47.3913 41.6634 46.4516 42.3881C45.628 43.0233 44.776 43.6276 43.8313 44.0629L34.542 48.3427C34.1612 48.5181 33.7558 48.6344 33.3398 48.6875L29.5901 49.1663C28.3594 49.3235 26.9975 50.8178 26.2197 51.7845C26.1621 51.8562 26.0546 51.9766 25.9858 52.0377L15.426 61.4119C11.4834 63.1705 8.96852 64.3243 7.29926 65.2651C6.01759 65.9875 4.70079 66.6859 3.27574 67.0516L-2.13015 68.4388Z" fill="url(#paint23_linear_2092_18144)"/>
<path d="M53.1789 70.1265C53.1587 70.1419 53.1323 70.1158 53.1495 70.0972C56.0327 66.9618 57.8168 65.0218 60.1683 62.1016C60.7131 61.4251 61.1587 60.674 61.5033 59.8766L61.7272 59.3585C61.3471 59.8011 59.2064 60.2729 55.398 61.0807C61.7599 58.9505 63.4059 57.1638 65.3282 54.4389C65.6357 54.003 65.4372 53.3864 64.9294 53.5499C64.3008 53.7523 63.5694 52.9533 64.0108 52.4621C65.1219 51.2257 65.7469 50.0959 65.9388 48.7503C65.9771 48.4816 65.6313 48.3181 65.3761 48.4107C64.9648 48.56 64.9539 48.1149 65.3696 47.9784C69.0105 46.783 71.0299 45.7593 74.2051 44.2154C74.2718 44.183 74.3864 44.1077 74.4453 44.0627C75.3318 43.3849 74.8151 41.5928 75.7514 40.9859C75.9457 40.8599 76.1518 40.7276 76.374 40.5853C76.4813 40.5166 76.5811 40.4352 76.6664 40.3406C77.6857 39.2106 77.1817 39.0136 74.9824 39.4405C74.0328 39.6248 73.1318 39.9958 72.2682 40.4316C69.161 41.9996 65.0372 43.5612 64.6844 43.2795C64.2646 42.9442 72.7855 38.6547 77.4619 36.7203C78.6813 36.1497 79.4728 34.864 80.6202 34.1596C81.1028 33.8633 81.6906 33.5399 82.3561 33.1679C82.6057 33.0284 82.8407 32.855 83.0045 32.6207C83.4227 32.0228 83.1887 31.7257 82.0856 31.4322C82.0273 31.4166 81.9857 31.364 81.9856 31.3036C81.9855 31.2314 82.0447 31.1725 82.1168 31.1715C85.3531 31.1252 86.9254 31.4622 89.5169 31.9267C89.8754 31.991 90.2371 32.0282 90.6013 32.0378C91.9839 32.074 95.0014 32.1392 99.2453 32.2303C100.979 32.2675 102.659 32.8416 104.053 33.8735L108.232 36.9681C108.613 37.2506 108.773 37.7445 108.629 38.1968C108.361 39.0377 107.266 39.2442 106.71 38.5588L105.519 37.0911C105.314 36.8376 105.052 36.6331 104.754 36.5009C101.631 35.1179 99.632 34.8532 96.7768 35.5876C95.922 35.8075 94.9295 35.8166 94.2184 35.2938C93.4407 34.722 92.6863 34.1391 91.7309 34.0019C90.1183 33.7704 88.9324 33.6659 87.8292 33.714C86.6673 33.7646 85.5684 34.2206 84.5922 34.853C82.6695 36.0985 81.5332 37.0726 80.4738 38.2868C79.7663 39.0975 79.3076 40.0838 78.8564 41.0606C78.3676 42.1186 77.8098 42.9194 76.9714 44.0091C76.8919 44.1125 76.8272 44.2266 76.7801 44.3483L75.3091 48.1414C74.9599 49.0416 73.6137 48.7113 73.721 47.7516C73.7905 47.1308 73.1712 46.6614 72.5923 46.8958L69.1622 48.2847C68.1624 48.6896 67.4586 49.5973 67.283 50.6616C66.7834 53.6906 66.2253 55.8199 65.2918 59.0961C65.2334 59.3012 65.1278 59.4924 64.9851 59.6508C60.993 64.082 58.1599 66.3231 53.1789 70.1265Z" fill="#88A793"/>
<path d="M101.596 28.6431C101.495 28.5176 101.637 28.3458 101.779 28.4211C103.269 29.2109 104.103 29.8039 104.762 30.8688C104.848 31.0082 104.962 31.1305 105.101 31.2178C105.671 31.5763 106.21 31.9143 106.713 32.233C109.774 34.1697 112.841 37.7423 115.533 40.1655L118.637 42.9596C119.082 43.3597 119.562 43.7192 120.07 44.0337L125.001 47.081C125.838 47.5982 126.746 47.9891 127.697 48.241L141.6 51.9241L157.37 55.2502L174.4 59.0099C179.618 60.1619 180.732 69.3121 175.389 69.3149C175.051 69.3151 155.908 67.4758 145.527 66.4741C144.908 66.4144 144.298 66.2972 143.701 66.1239L125.536 60.8501L147.638 65.3748C136.14 62.5995 129.928 60.3772 120.002 56.0701C119.145 55.6983 118.374 55.1489 117.74 54.4627C116.827 53.4737 116.164 52.2416 116.06 50.8993C115.972 49.7566 116.107 48.7633 116.828 47.4395C116.934 47.2454 116.639 47.1902 116.196 47.1836C114.639 47.1602 113.51 46.3555 112.861 44.941L111.953 42.9619C111.889 42.8227 111.858 42.652 111.849 42.4991C111.801 41.6992 110.902 42.174 110.969 42.9726C110.984 43.1505 111 43.3243 111.017 43.4946C111.167 45.0049 109.146 46.0679 108.237 44.8523C107.057 43.2738 105.987 41.6086 104.776 39.4101C104.537 38.9757 103.767 38.557 103.271 38.5664C102.499 38.5811 102.625 39.4109 102.981 40.0964C104.365 42.7629 107.4 47.6714 110.504 52.9485L103.181 43.419C101.989 41.8683 98.8561 42.1014 99.1264 44.0384C99.1341 44.0938 99.1475 44.1417 99.1665 44.1827C99.2986 44.4686 99.7143 44.3092 99.9932 44.1629C100.856 43.7103 101.945 43.9391 102.429 44.7845C102.482 44.8778 102.533 44.9698 102.581 45.0609C103.399 46.6195 101.498 47.6406 99.7394 47.5533C99.4793 47.5404 99.2024 47.5415 98.902 47.5573C98.8138 47.5619 98.7289 47.5944 98.6594 47.6488C98.4522 47.8109 98.4322 48.1168 98.6171 48.304C100.266 49.9725 103.01 52.7791 103.056 52.9524C103.119 53.185 104.112 53.766 104.423 53.8822C104.671 53.9751 107.879 54.8238 109.452 55.2366L110.369 55.6062C110.458 55.6423 110.558 55.6417 110.647 55.6046C110.787 55.546 110.95 55.5806 111.055 55.6902C112.981 57.6919 114.33 58.5726 116.845 59.8853C119.323 61.3053 121.37 62.0516 124.399 63.0982C124.605 63.1693 124.536 63.4759 124.32 63.4509C124.305 63.4493 124.291 63.4459 124.277 63.4408L111.647 58.7617C111.548 58.7251 111.443 58.7982 111.443 58.9034C111.444 59.0064 111.343 59.0792 111.245 59.0468L101.845 55.93C100.491 55.481 99.2988 54.6445 98.4154 53.5243L97.9665 52.955C96.5146 50.9494 92.328 47.5961 91.8141 47.2976C90.4305 46.494 89.4684 44.3167 89.142 42.5218C88.8273 40.7916 90.2369 40.8414 91.1564 42.3405L92.7533 44.9441C93.0916 45.4957 93.8109 45.6722 94.3661 45.3399C94.6376 45.1775 94.8376 44.9134 94.889 44.6013C95.2253 42.5581 94.5137 40.9087 94.802 39.1431C94.9491 38.2421 95.2771 37.1621 96.1516 36.9001C96.2875 36.8594 96.4156 36.8557 96.5173 36.9042C96.9311 37.1015 97.2908 37.3853 97.6967 37.6629C98.5544 38.2493 99.6505 38.1639 100.613 37.7739L101.089 37.5814C101.186 37.5421 101.289 37.517 101.394 37.507C102.007 37.4483 102.544 37.3945 103.004 37.3415C103.65 37.2672 106.264 37.9682 106.696 38.4546C107.113 38.9245 107.768 38.5738 107.356 38.1C106.778 37.4365 105.719 36.658 103.616 34.0987C103.276 33.6841 103.069 33.1101 102.64 32.7878C102.16 32.4271 101.405 32.166 100.918 32.2493C100.619 32.3004 96.5727 31.9414 96.3244 31.9415C96.1586 31.9416 95.6924 31.8337 95.3745 31.753C95.2628 31.7247 95.1489 31.706 95.0339 31.699L92.2696 31.5317C91.0485 31.4578 91.0346 30.426 92.2262 30.7029C92.4079 30.7452 93.1404 30.7594 93.8442 30.7777C94.5434 30.796 95.2444 30.7677 95.9366 30.6682L97.8741 30.3898L100.556 29.8018C101.227 29.6548 102.08 29.1305 101.596 28.6431Z" fill="#6F9775"/>
<path d="M145.952 57.5825C145.588 57.1289 146.289 56.3598 145.708 56.3757C145.168 56.3905 144.621 56.4057 144.076 56.4211C143.364 56.4413 143.337 57.2687 144.046 57.3402C144.116 57.3472 144.182 57.3659 144.245 57.3971C147.443 58.9867 153.693 62.076 153.841 62.0759C154.027 62.0758 157.255 62.5394 157.504 62.578C157.658 62.602 160.95 63.3446 163.662 63.9587C163.928 64.0189 163.868 63.4973 164.022 63.2725C164.164 63.0646 165.948 63.5969 166.936 63.9258C167.02 63.9538 167.11 63.9592 167.197 63.941C167.702 63.8356 167.733 63.1237 167.246 62.953C167.16 62.923 167.096 62.8989 167.063 62.8832C166.814 62.767 167.745 62.2237 167.993 62.0685C168.175 61.9543 161.265 61.3103 156.951 60.9278C156.243 60.8649 155.545 60.7284 154.866 60.5168C151.439 59.4486 146.087 57.7506 145.952 57.5825Z" fill="#688B74"/>
<path d="M123.574 63.4954L123.739 63.565C130.661 66.0067 129.334 76.1673 122.017 76.7493L60.7015 81.6271C57.0395 81.6419 49.6409 81.6639 49.3429 81.633C49.2481 81.6232 48.6151 81.4305 47.7065 81.1427C46.1205 80.6404 46.3908 78.3391 48.048 78.1928C48.1218 78.1862 48.1951 78.174 48.267 78.1562L51.2186 77.426C51.781 77.2869 51.8079 76.4974 51.2563 76.3203C51.1768 76.2948 51.0914 76.287 51.0086 76.2973C44.6686 77.0805 41.0671 77.5276 36.7106 78.3643C36.6469 78.3766 36.5817 78.3829 36.5168 78.3829C35.5672 78.3834 35.1415 77.2178 35.8853 76.6275C36.0491 76.4975 36.1575 76.4145 36.1772 76.4057C38.6673 75.2923 46.6454 73.1133 48.4719 73.2444C48.7156 73.2619 48.7375 73.4972 48.585 73.6881C48.1626 74.217 48.7514 74.9208 49.3338 74.5759C51.6696 73.1923 53.3466 71.8407 55.2516 69.6184C55.6965 69.0993 56.503 69.0838 56.9474 69.6033L57.2337 69.9379C57.4323 70.1701 57.4241 70.5147 57.2146 70.7372C56.7853 71.1932 57.2562 71.9188 57.8475 71.7125L58.4993 71.4851C58.9358 71.3329 59.4068 71.5983 59.5027 72.0505L59.8853 73.8553C59.9245 74.0398 59.8856 74.2323 59.778 74.3873C59.5403 74.7297 59.6615 75.2033 60.0345 75.3894L60.3727 75.5581C61.0391 75.8906 61.9114 75.3991 62.2902 74.7579C62.671 74.1132 63.1963 73.6698 63.5463 73.91C69.4819 77.8022 69.9898 77.7499 64.2451 72.1534C64.0778 71.9903 63.9805 71.761 63.9846 71.5274C64.002 70.5447 65.9303 70.181 66.6083 70.8926C66.7841 71.0772 66.9757 71.265 67.1852 71.4574C67.3559 71.6142 67.5815 71.6978 67.8132 71.6977L68.2098 71.6975C68.4243 71.6974 68.6135 71.557 68.6758 71.3518C68.7543 71.0933 69.0281 70.9479 69.2861 71.0278L74.0376 72.498C76.1085 73.1388 78.3622 72.4875 79.772 70.8408L83.5825 66.3901C84.0452 65.8497 84.0372 65.0507 83.564 64.5196C83.4934 64.4404 83.4141 64.3693 83.3277 64.3077L80.7757 62.4889C80.542 62.3224 80.376 62.0774 80.3079 61.7986C80.0048 60.5578 81.5966 59.7694 82.3999 60.7624L82.5331 60.9271C82.6486 61.0699 82.7943 61.1853 82.9598 61.2651L86.2638 62.8584C86.9634 63.1958 87.776 63.2087 88.486 62.8936L89.446 62.4676C90.1932 62.1361 90.5519 61.2772 90.255 60.5157C89.4089 58.3461 88.6832 56.6741 87.5514 54.6988C87.2694 54.2066 86.228 54.4984 85.8484 54.9201C85.7683 55.0092 85.6735 55.1596 85.6623 55.2789L85.6584 55.321C85.5957 55.9878 84.6625 56.0865 84.4619 55.4475L83.9252 53.7387C83.8544 53.5133 83.8679 53.2697 83.9632 53.0535L85.0923 50.4914C85.486 49.598 86.8293 49.9671 86.7112 50.9363C86.6834 51.1647 86.7513 51.3934 86.8855 51.5803C87.5739 52.5385 88.3165 54.041 88.037 54.1234C87.9365 54.1531 89.0263 54.7684 90.0314 55.3269C90.7612 55.7323 91.3788 56.3115 91.8298 57.0141C92.0347 57.3333 92.2754 57.6296 92.5463 57.8951C94.6514 59.9578 96.1454 61.3558 98.2037 62.7851C99.2345 63.5009 100.693 62.9929 100.472 61.7575C100.197 60.2187 100.836 58.9595 102.014 59.9878C103.95 61.679 105.883 64.1753 107.723 65.565C107.85 65.6608 107.986 65.7412 108.129 65.8116L111.187 67.321C111.739 67.5938 112.386 67.1912 112.385 66.5752C112.385 66.3873 112.321 66.2042 112.201 66.0602C111.564 65.2996 110.903 64.7013 110.181 64.1625C109.176 63.4129 109.64 62.1407 110.827 62.5448C111.218 62.6779 111.615 62.8227 112.023 62.9797C113.088 63.3894 114.139 61.8388 113.408 60.9627C112.792 60.2251 113.518 59.2872 114.406 59.6527C116.46 60.4977 119.49 61.7743 123.574 63.4954Z" fill="#739B77"/>
<path d="M123.169 47.5089C123.312 47.5503 123.414 47.3736 123.308 47.2704L122.649 46.6306C122.322 46.3131 122.745 45.8 123.119 46.0607L126.096 48.1363C126.166 48.185 126.246 48.2202 126.329 48.2393C133.585 49.9084 137.17 50.8562 142.035 52.5442C138.912 51.7962 136.642 51.2756 134.14 50.8388C133.511 50.729 133.278 51.6532 133.838 51.9605C134.131 52.1214 134.389 52.2858 134.619 52.4601C134.744 52.5544 134.674 52.7419 134.517 52.742C134.328 52.7421 134.28 53.0057 134.457 53.0737C137.686 54.3113 139.667 55.0463 141.666 55.336L148.415 56.035C148.851 56.0801 148.923 56.6853 148.51 56.8312C148.098 56.9764 148.167 57.5783 148.6 57.627L175.315 60.6301C167.658 59.3546 152.319 56.6331 152.219 55.9508C152.156 55.5207 155.362 55.8365 158.762 56.2997C159.364 56.3819 159.598 55.4602 159.025 55.2558C158.45 55.0508 158.663 54.2594 159.261 54.3804C162.194 54.9739 165.23 55.6626 166.743 56.2146C168.424 56.8276 169.571 57.2312 170.266 57.4698C170.772 57.6437 171.271 57.8411 171.773 58.0265C172.733 58.3808 174.588 58.9917 177.672 59.8534C181.1 60.5418 180.997 65.4758 177.544 66.0209L169.924 67.2241L157.481 70.3481C157.013 70.4655 156.525 70.4722 156.054 70.3676L130.581 64.7049C130.318 64.6464 130.361 64.2595 130.63 64.2593C138.804 65.2889 155.898 68.511 156.268 66.6497C156.44 65.7821 150.585 63.6816 150.553 63.3183C150.544 63.2208 137.61 58.304 136.58 57.6262C135.993 57.24 142.66 58.4681 144.774 58.3586C145.58 58.3168 133.908 56.9172 133.599 56.4258C133.466 56.2143 131.787 55.1139 130.098 53.9782C128.438 52.862 125.76 53.8741 127.39 55.0333C127.622 55.1981 142.855 62.534 150.557 66.1487C146.789 64.7549 139.118 61.9053 138.571 61.6574C137.888 61.3476 131.368 59.2573 130.623 58.87C129.877 58.4827 124.907 54.7632 124.782 54.4918C124.708 54.3297 123.567 53.985 122.58 53.7188C121.986 53.5585 121.365 53.5325 120.756 53.6241L120.211 53.7062C120.155 53.7146 120.098 53.7154 120.042 53.7087C119.444 53.6368 119.096 54.363 119.525 54.7841L121.295 56.5181C121.543 56.7612 121.877 56.8972 122.224 56.897C122.399 56.897 122.572 56.9315 122.734 56.9986L136.276 62.6279L120.779 57.2221C120.678 57.187 120.581 57.1415 120.49 57.0862C120.412 57.0391 120.338 56.9935 120.266 56.9493C119.456 56.4471 118.581 55.0058 117.824 54.4271L117.702 54.3346C117.239 53.9804 117.1 53.3426 117.374 52.8275C117.609 52.3856 118.096 52.1397 118.593 52.2017C121.304 52.54 122.653 52.4524 123.526 51.5108C123.659 51.3676 123.705 51.1626 123.638 50.9789C123.526 50.6699 123.345 50.3887 123.09 50.0945C122.782 49.7392 123.26 49.2514 123.597 48.9232C123.714 48.8092 123.662 48.6701 123.569 48.5356L123.012 47.726C122.937 47.6159 123.041 47.4716 123.169 47.5089Z" fill="#5E895D"/>
<path d="M156.532 70.2908C157.01 70.418 157.585 70.7113 157.471 71.1926C157.451 71.2765 157.417 71.3616 157.372 71.4517C157.24 71.7161 157.155 72.0032 157.175 72.2979C157.228 73.06 156.665 73.7256 155.904 73.7992L92.4787 79.9432L72.3471 79.9538C70.9291 79.9545 69.8502 78.681 70.084 77.2824C70.2561 76.2531 71.1014 75.4697 72.1409 75.3764L87.1874 74.0256C88.139 73.9402 89.0735 73.7188 89.9624 73.3682L95.3121 71.2581C95.7464 71.0869 96.0706 70.7155 96.1816 70.2621C96.3604 69.5321 97.0723 69.063 97.8136 69.1862C98.2872 69.2649 98.7461 69.3413 99.1895 69.4149C101.885 69.8621 102.18 68.1646 100.22 66.2612C99.2451 65.3151 98.4478 64.2395 98.0077 63.0719C97.9892 63.0228 97.9593 62.9788 97.9198 62.9442C97.6349 62.6947 97.9584 62.2489 98.2839 62.4424L100.462 63.7365C100.583 63.8084 100.67 63.9249 100.711 64.0596C101.261 65.878 102.228 66.7278 105.31 67.6845L111.578 70.122C112.427 70.4521 113.039 69.2883 112.285 68.7761C111.534 68.2654 112.141 67.1043 112.989 67.4285L114.009 67.8185C115.014 68.2025 115.715 66.8089 114.807 66.2316L109.711 62.9908L123.747 69.4584C121.762 68.2054 123.266 65.1569 125.469 65.9709L132.374 68.5233L122.703 63.5214C122.112 63.2159 122.026 63.0504 122.684 63.1492C126.657 63.7459 142.658 66.5993 156.532 70.2908Z" fill="#628D6B"/>
<path d="M96.8735 70.9458C99.666 71.3349 104.501 72.0014 107.352 72.3737C108.832 72.567 110.285 73.0071 111.587 73.7371C113.827 74.9929 116.42 76.5326 116.495 76.9064C116.62 77.5267 100.3 80.4819 96.8869 80.9102C93.4737 81.3385 60.889 82.5187 60.5162 82.2863C60.4531 82.2469 60.4573 82.0424 60.5091 81.7261C60.9894 78.796 64.5019 77.5064 67.4643 77.7089C67.6355 77.7206 67.8133 77.7315 67.9982 77.7415C68.0534 77.7445 68.1107 77.7402 68.165 77.7293C69.9895 77.3624 71.3901 77.2058 72.9295 77.2299C73.2835 77.2354 73.0622 76.3243 72.8406 76.0481C72.6911 75.8619 73.0774 75.9481 73.3125 75.99C74.0046 76.1131 74.6288 76.2021 75.2188 76.2581C76.5206 76.3817 76.5734 75.0614 75.2701 74.9546C73.3319 74.7958 71.2399 74.802 68.4511 74.8767C73.4264 74.0827 76.5034 73.676 81.4761 73.6291C81.9448 73.6247 82.0963 72.9837 81.6756 72.777C81.2289 72.5575 81.4319 71.8983 81.9241 71.9723C87.9276 72.874 89.9312 73.8404 91.7281 75.6787C89.7858 73.6083 91.51 70.2444 94.3249 70.6125L96.8735 70.9458Z" fill="#738966"/>
<path d="M66.9021 39.95C66.7468 40.1236 66.5536 40.2602 66.337 40.3458C64.9074 40.9108 63.9437 39.4325 65.1407 38.468C67.8974 36.2468 70.8919 34.1997 73.0296 32.2853C73.7444 31.6451 74.6306 31.2115 75.5868 31.1321L76.4715 31.0586C77.0771 31.0083 77.6632 30.8199 78.1847 30.5078L78.6857 30.2079C78.7735 30.1554 78.9154 30.1116 79.0163 30.0945C79.9137 29.9421 79.992 30.7732 79.1331 31.0745C78.324 31.3583 77.7281 31.6467 77.4979 31.9922C77.3781 32.1721 77.4487 32.4003 77.5528 32.5898L77.6137 32.7007C77.9648 33.34 77.7639 34.0689 77.4216 34.713C77.4059 34.7425 77.3972 34.766 77.3972 34.7818C77.3985 35.7163 76.2742 36.3719 75.8618 35.5334C75.83 35.4686 75.8002 35.4003 75.7723 35.3281C75.6866 35.106 75.7978 34.6943 75.8871 34.4736C76.1799 33.7494 75.2898 33.6116 74.625 34.0219C74.0871 34.3539 73.478 34.6066 72.6317 34.8441C72.2981 34.9377 71.9854 35.0982 71.7253 35.327C69.729 37.0826 68.4714 38.1948 66.9021 39.95Z" fill="url(#paint24_linear_2092_18144)"/>
<path d="M51.897 40.007C53.2439 39.5101 54.4783 38.7278 55.7017 37.9765C57.0675 37.1378 58.8243 36.2575 60.0028 35.891C60.4762 35.7438 61.0648 36.0579 60.673 36.3617C60.4556 36.5303 60.0793 36.735 59.4826 37.0062C59.2114 37.1295 59.1051 37.4616 59.2605 37.7158C59.3794 37.9103 59.3482 38.1611 59.1854 38.3206L58.2782 39.2092C58.1346 39.3499 58.0966 39.5665 58.1839 39.7476C58.3052 39.9995 58.179 40.3015 57.915 40.3935C56.6424 40.8371 55.6349 41.1756 54.8273 41.4196C54.0787 41.6458 54.6671 40.8484 55.3443 40.457C55.991 40.0833 55.0119 39.8199 54.2913 40.0168C52.5163 40.5018 51.1565 41.0118 49.289 41.8121C49.1657 41.8649 49.0465 41.9282 48.9335 42.0005L44.433 44.8783C43.7864 45.2918 43.0942 45.6295 42.3703 45.8847L32.6649 49.306L33.7193 48.7626L34.2453 48.5367C35.969 47.7965 37.6968 46.8309 39.3974 46.0392C41.2265 45.1876 43.6308 44.1809 45.1332 43.6775C45.2086 43.6523 46.0328 43.0043 46.8504 42.3619C47.642 41.74 48.5278 41.25 49.4723 40.9015L51.897 40.007Z" fill="url(#paint25_linear_2092_18144)"/>
<path d="M29.2536 51.13C29.3799 51.1105 28.2576 50.4043 27.4218 49.8986C27.2706 49.8071 27.092 49.9604 27.1579 50.1244C27.1858 50.194 27.1687 50.2737 27.1155 50.3265C26.8223 50.6176 26.6221 50.8456 26.49 51.0424C26.1861 51.4954 26.0189 52.0787 25.5989 52.4268C21.2725 56.0119 19.2329 57.9541 15.426 61.4119L5.55525 66.2441C5.10649 66.4638 4.63646 66.6496 4.1619 66.8059C-8.08915 70.843 -12.2812 76.7675 -21.4181 80.003C-5.32738 75.4157 1.73116 68.9783 15.0607 66.7626C14.0685 66.8585 13.5471 64.5626 14.4583 64.1583C20.5309 61.4644 25.6435 58.5127 24.2982 58.7319L23.7499 58.9005C23.149 59.0851 22.7359 58.3032 23.2272 57.9109L23.662 57.5637C24.1398 57.1821 22.8282 56.9079 23.1779 56.4062C24.5587 54.6819 28.6787 51.2192 29.2536 51.13Z" fill="url(#paint26_linear_2092_18144)"/>
<path d="M63.6447 36.68C63.4034 36.6609 63.4014 36.308 63.6425 36.2862L66.7647 36.0034C67.2147 35.9626 67.4477 36.5209 67.1007 36.8103C65.062 38.5102 63.677 39.585 61.8295 41.7766C61.704 41.9254 61.5644 42.0625 61.4117 42.1832L61.0928 42.4352C59.922 43.3606 58.4736 43.8644 56.9813 43.8651L53.9921 43.8667C53.4313 43.867 52.6923 44.0661 52.1965 44.3281C51.5244 44.6832 51.006 44.9592 50.2619 45.1146L35.0222 48.2967C40.5928 46.797 43.9934 45.8731 50.7063 43.5261C52.3025 42.9681 54.0154 42.8029 55.6821 43.0877C56.3952 43.2096 56.9741 43.3131 57.1015 43.3483C57.1678 43.2366 58.6977 42.4125 60.1817 41.6338C61.3631 41.0139 62.3044 40.0161 62.8401 38.7942L63.5291 37.2223C63.5486 37.1779 63.581 37.1404 63.6221 37.1147L63.734 37.0447C63.8955 36.9436 63.8346 36.6951 63.6447 36.68Z" fill="#9DAE9A"/>
<path d="M54.9401 47.8307C55.0675 47.8242 55.1948 47.8017 55.3166 47.7637C56.6541 47.3457 57.7901 46.9043 58.8608 46.3985C59.9434 45.8872 60.6691 46.8057 59.5002 47.0646C59.3657 47.0944 59.2279 47.1206 59.0864 47.1433C59.0197 47.154 58.9515 47.1308 58.9047 47.0822C58.8388 47.0137 58.7354 46.9979 58.6523 47.0442C56.795 48.078 54.8496 49.1701 53.1789 50.1688C50.2222 51.9363 50.9381 53.056 54.0525 51.584C54.6561 51.2987 55.2307 51.028 55.7293 50.8075C56.8348 50.3185 57.077 50.9177 56.404 51.9219C55.4972 53.2753 54.7204 54.383 53.5737 55.7644C53.0194 56.4321 52.1238 56.2187 51.9636 55.3658C51.8383 54.6986 51.1752 55.0072 50.8237 55.5879L48.2383 59.859C47.9633 60.3132 47.6447 60.7404 47.2858 61.1317C44.5769 64.0855 42.7572 65.8818 39.4431 68.2225C39.0029 68.5335 38.0655 68.8362 37.5667 69.0405C36.9431 69.2959 37.6839 69.5232 38.3451 69.6529C40.3463 70.0455 43.204 70.3229 45.1141 70.5855C46.6116 70.7915 46.2459 71.2186 44.7352 71.2716C40.3871 71.4241 37.2578 71.7058 32.5158 72.3855C31.8581 72.4798 31.228 72.7174 30.6696 73.0776C29.9268 73.557 29.0629 73.815 28.1788 73.8216L25.3062 73.843C24.4037 73.8498 23.5062 73.9787 22.6382 74.2262L7.39436 78.5738C7.26674 78.6102 7.12968 78.5909 7.01706 78.5207C6.69672 78.3209 6.73265 77.8434 7.0787 77.6925C12.1002 75.5028 15.2638 74.2876 21.0741 72.7125C21.1248 72.6987 21.1747 72.6785 21.2207 72.6529C21.8046 72.327 21.566 71.4463 20.8978 71.4722C18.6911 71.558 16.9494 71.7417 14.4474 72.191L-2.24454 75.6892L-9.7527 77.3036C-10.1429 77.3875 -10.4967 77.0557 -10.438 76.6609C-10.4006 76.4094 -10.2014 76.2128 -9.94942 76.1787L-6.92064 75.769C-5.16142 75.531 -3.03255 74.9145 -1.29118 74.5694C-0.162651 74.3457 1.24773 74.0925 2.81615 73.802C3.28801 73.7146 3.75281 73.5903 4.20903 73.4415C6.19902 72.7923 7.63977 72.4813 10.2233 72.2066C10.3075 72.1976 10.3927 72.1823 10.4746 72.161C11.6592 71.8529 12.5635 71.5987 13.4487 71.3087C14.2026 71.0618 14.1066 70.012 13.327 69.8653C16.6946 70.0528 18.8371 70.0981 20.8629 69.8906C22.4628 69.7268 24.565 70.3239 26.1197 70.7359C28.7209 71.4253 30.9051 68.7455 33.5001 68.0329C33.7045 67.9768 33.9113 67.9189 34.1189 67.8589C36.7761 67.0904 37.3791 64.2254 36.2138 61.7168C36.0807 61.4304 35.9658 61.1707 35.8701 60.9378C35.4524 59.9216 35.6984 59.1425 36.6782 59.6396C37.7035 60.1597 39.6579 60.8013 40.222 59.7996C40.3183 59.6285 40.4134 59.4335 40.5096 59.2108C40.9223 58.2556 40.4975 57.094 40.9418 56.153C41.1644 55.6816 41.8729 55.5296 43.3977 55.1689C43.6456 55.1102 43.8289 55.0105 43.9884 54.8119C44.7126 53.9095 44.0439 52.3078 42.9033 52.502C40.724 52.8729 39.0833 53.104 39.5596 52.9857C44.2474 51.5407 46.925 50.5212 50.3652 48.8412C51.5078 48.2833 52.7472 47.9437 54.0169 47.8783L54.9401 47.8307Z" fill="#9DAE9A"/>
</g>
<defs>
<linearGradient id="paint0_linear_2092_18144" x1="34.492" y1="-14.29" x2="34.492" y2="82.4842" gradientUnits="userSpaceOnUse">
<stop stop-color="#499FF5"/>
<stop offset="1" stop-color="#AFD7FF"/>
</linearGradient>
<linearGradient id="paint1_linear_2092_18144" x1="274.073" y1="45.4201" x2="-171.417" y2="176.31" gradientUnits="userSpaceOnUse">
<stop stop-color="#FEFEFE"/>
<stop offset="1" stop-color="#FEFEFE" stop-opacity="0"/>
</linearGradient>
<linearGradient id="paint2_linear_2092_18144" x1="274.16" y1="45.4204" x2="-171.75" y2="176.58" gradientUnits="userSpaceOnUse">
<stop stop-color="#FEFEFE" stop-opacity="0.57"/>
<stop offset="1" stop-color="white" stop-opacity="0.67"/>
</linearGradient>
<linearGradient id="paint3_linear_2092_18144" x1="274.16" y1="45.4204" x2="-171.75" y2="176.58" gradientUnits="userSpaceOnUse">
<stop stop-color="#FEFEFE" stop-opacity="0.57"/>
<stop offset="1" stop-color="white" stop-opacity="0.67"/>
</linearGradient>
<linearGradient id="paint4_linear_2092_18144" x1="274.073" y1="45.4201" x2="-171.417" y2="176.31" gradientUnits="userSpaceOnUse">
<stop stop-color="#FEFEFE"/>
<stop offset="1" stop-color="#FEFEFE" stop-opacity="0"/>
</linearGradient>
<linearGradient id="paint5_linear_2092_18144" x1="19.1598" y1="34.3504" x2="45.7467" y2="126.388" gradientUnits="userSpaceOnUse">
<stop stop-color="#A7BF89"/>
<stop offset="1" stop-color="#8AB284"/>
</linearGradient>
<linearGradient id="paint6_linear_2092_18144" x1="19.1598" y1="34.3504" x2="45.7467" y2="126.388" gradientUnits="userSpaceOnUse">
<stop stop-color="#A7BF89"/>
<stop offset="1" stop-color="#8AB284"/>
</linearGradient>
<linearGradient id="paint7_linear_2092_18144" x1="19.1598" y1="34.3504" x2="45.7467" y2="126.388" gradientUnits="userSpaceOnUse">
<stop stop-color="#A7BF89"/>
<stop offset="1" stop-color="#8AB284"/>
</linearGradient>
<linearGradient id="paint8_linear_2092_18144" x1="34.492" y1="-14.29" x2="38.4724" y2="284.178" gradientUnits="userSpaceOnUse">
<stop stop-color="#C2D6B3"/>
<stop offset="0.9999" stop-color="#BBEEFF"/>
<stop offset="1" stop-color="#B3CDD6" stop-opacity="0"/>
<stop offset="1" stop-color="#C0DEB9"/>
</linearGradient>
<linearGradient id="paint9_linear_2092_18144" x1="91.4348" y1="1.13917" x2="90.6047" y2="75.2258" gradientUnits="userSpaceOnUse">
<stop stop-color="#AEC999"/>
<stop offset="1" stop-color="#B4DBC6"/>
</linearGradient>
<linearGradient id="paint10_linear_2092_18144" x1="91.4348" y1="1.13917" x2="90.6047" y2="75.2258" gradientUnits="userSpaceOnUse">
<stop stop-color="#AEC999"/>
<stop offset="1" stop-color="#B4DBC6"/>
</linearGradient>
<linearGradient id="paint11_linear_2092_18144" x1="91.4348" y1="1.13917" x2="90.6047" y2="75.2258" gradientUnits="userSpaceOnUse">
<stop stop-color="#AEC999"/>
<stop offset="1" stop-color="#B4DBC6"/>
</linearGradient>
<linearGradient id="paint12_linear_2092_18144" x1="54.8058" y1="52.8731" x2="12.2885" y2="7.25161" gradientUnits="userSpaceOnUse">
<stop stop-color="#7C9C6D"/>
<stop offset="1" stop-color="#92AFB9"/>
<stop offset="1" stop-color="#92B99B"/>
</linearGradient>
<linearGradient id="paint13_linear_2092_18144" x1="128.84" y1="-3.4103" x2="53.922" y2="157.43" gradientUnits="userSpaceOnUse">
<stop stop-color="#BED8A3"/>
<stop offset="1" stop-color="#C6CBC7"/>
</linearGradient>
<linearGradient id="paint14_linear_2092_18144" x1="128.84" y1="-3.4103" x2="53.922" y2="157.43" gradientUnits="userSpaceOnUse">
<stop stop-color="#BED8A3"/>
<stop offset="1" stop-color="#C6CBC7"/>
</linearGradient>
<linearGradient id="paint15_linear_2092_18144" x1="128.84" y1="-3.4103" x2="53.922" y2="157.43" gradientUnits="userSpaceOnUse">
<stop stop-color="#BED8A3"/>
<stop offset="1" stop-color="#C6CBC7"/>
</linearGradient>
<linearGradient id="paint16_linear_2092_18144" x1="19.1598" y1="34.3504" x2="45.7467" y2="126.388" gradientUnits="userSpaceOnUse">
<stop stop-color="#A1BF89"/>
<stop offset="1" stop-color="#8AB284"/>
</linearGradient>
<linearGradient id="paint17_linear_2092_18144" x1="19.1598" y1="34.3504" x2="45.7467" y2="126.388" gradientUnits="userSpaceOnUse">
<stop stop-color="#A1BF89"/>
<stop offset="1" stop-color="#8AB284"/>
</linearGradient>
<linearGradient id="paint18_linear_2092_18144" x1="19.1598" y1="34.3504" x2="45.7467" y2="126.388" gradientUnits="userSpaceOnUse">
<stop stop-color="#A1BF89"/>
<stop offset="1" stop-color="#8AB284"/>
</linearGradient>
<linearGradient id="paint19_linear_2092_18144" x1="34.492" y1="-14.29" x2="38.4724" y2="284.178" gradientUnits="userSpaceOnUse">
<stop stop-color="#B3D6B7"/>
<stop offset="0.9999" stop-color="#BBEEFF"/>
<stop offset="1" stop-color="#B3CDD6" stop-opacity="0"/>
<stop offset="1" stop-color="#C0DEB9"/>
</linearGradient>
<linearGradient id="paint20_linear_2092_18144" x1="91.4348" y1="1.13917" x2="90.6047" y2="75.2258" gradientUnits="userSpaceOnUse">
<stop stop-color="#99C9A1"/>
<stop offset="1" stop-color="#B4DBC6"/>
</linearGradient>
<linearGradient id="paint21_linear_2092_18144" x1="91.4348" y1="1.13917" x2="90.6047" y2="75.2258" gradientUnits="userSpaceOnUse">
<stop stop-color="#99C9A1"/>
<stop offset="1" stop-color="#B4DBC6"/>
</linearGradient>
<linearGradient id="paint22_linear_2092_18144" x1="91.4348" y1="1.13917" x2="90.6047" y2="75.2258" gradientUnits="userSpaceOnUse">
<stop stop-color="#99C9A1"/>
<stop offset="1" stop-color="#B4DBC6"/>
</linearGradient>
<linearGradient id="paint23_linear_2092_18144" x1="54.8058" y1="52.8731" x2="12.2885" y2="7.25161" gradientUnits="userSpaceOnUse">
<stop stop-color="#6E9C6D"/>
<stop offset="1" stop-color="#92AFB9"/>
<stop offset="1" stop-color="#92B99B"/>
</linearGradient>
<linearGradient id="paint24_linear_2092_18144" x1="128.84" y1="-3.4103" x2="53.922" y2="157.43" gradientUnits="userSpaceOnUse">
<stop stop-color="#AED8A3"/>
<stop offset="1" stop-color="#C6CBC7"/>
</linearGradient>
<linearGradient id="paint25_linear_2092_18144" x1="128.84" y1="-3.4103" x2="53.922" y2="157.43" gradientUnits="userSpaceOnUse">
<stop stop-color="#AED8A3"/>
<stop offset="1" stop-color="#C6CBC7"/>
</linearGradient>
<linearGradient id="paint26_linear_2092_18144" x1="128.84" y1="-3.4103" x2="53.922" y2="157.43" gradientUnits="userSpaceOnUse">
<stop stop-color="#AED8A3"/>
<stop offset="1" stop-color="#C6CBC7"/>
</linearGradient>
</defs>
</svg>
