<svg width="62" height="60" viewBox="0 0 62 60" fill="none" xmlns="http://www.w3.org/2000/svg">
<mask id="mask0_2481_19099" style="mask-type:alpha" maskUnits="userSpaceOnUse" x="0" y="0" width="62" height="60">
<ellipse cx="31" cy="30" rx="31" ry="30" fill="#C4C4C4"/>
</mask>
<g mask="url(#mask0_2481_19099)">
<path d="M-119.905 54.4316C-125.428 54.4316 -129.905 49.9544 -129.905 44.4316V-11.29C-129.905 -16.8129 -125.428 -21.29 -119.905 -21.29H182.73C188.253 -21.29 192.73 -16.8129 192.73 -11.29V44.4316C192.73 49.9544 188.253 54.4316 182.73 54.4316H-119.905Z" fill="url(#paint0_linear_2481_19099)"/>
<path d="M-74.5597 -0.862623C-67.8707 2.90258 -67.0127 -1.08065 -56.3338 -2.30177C-53.5529 -2.61975 -50.5274 -3.64852 -47.7371 -3.42846C-47.4194 -3.40341 -47.0798 -3.36576 -46.7169 -3.31329C-42.6151 -2.72025 -34.7883 -2.13297 -29.5346 -0.399382C-24.2808 1.33421 -16.7861 -0.978983 -13.0394 1.4007C-9.29258 3.78038 3.52425 3.08018 5.13524 4.57544C6.74623 6.07071 -2.94599 5.28193 -3.90233 7.28311C-4.85867 9.28429 -31.7873 13.2339 -38.2341 11.8049C-44.6809 10.376 -43.2205 12.0276 -49.9232 10.4155C-56.6259 8.80336 -54.5027 12.5621 -60.0911 11.7344C-65.6795 10.9068 -69.6834 8.97599 -73.8384 8.68738C-77.9933 8.39877 -81.1586 8.26628 -86.3581 8.12554C-91.5576 7.9848 -95.7471 5.63184 -94.2351 -0.607635C-92.723 -6.84711 -82.0671 -5.08847 -74.5597 -0.862623Z" fill="url(#paint1_linear_2481_19099)"/>
<path d="M-91.4778 -0.456697C-90.8536 -0.3762 -90.2525 -0.236963 -89.6297 -0.145372C-88.0212 0.0912037 -83.9571 0.416246 -74.7952 -0.0663166C-72.038 -0.21154 -69.1942 -1.55069 -66.4333 -1.56831C-65.8746 -1.57187 -65.2471 -1.53509 -64.544 -1.44302C-60.0086 -0.849089 -51.2984 -0.411676 -45.5891 1.59431C-39.8798 3.6003 -31.2441 0.342798 -27.2898 3.23515C-23.3355 6.1275 -8.90154 4.71906 -7.24977 6.56623C-5.59801 8.41339 -16.3779 7.79307 -17.6549 10.3898C-18.9319 12.9866 -49.5126 19.1144 -56.59 17.5457C-63.6675 15.977 -62.2005 18.0301 -69.5459 16.2374C-76.8913 14.4447 -74.8978 19.1652 -81.0751 18.3308C-87.2523 17.4965 -91.5408 15.1883 -96.1671 14.9857C-100.793 14.7831 -104.327 14.7405 -110.139 14.7688C-115.951 14.797 -120.404 11.9566 -118.069 3.91894C-116.003 -3.19494 -96.0392 -1.04486 -91.4778 -0.456697Z" fill="url(#paint2_linear_2481_19099)"/>
<path d="M51.5369 10.5033C51.0232 10.4053 50.5216 10.2662 50.0089 10.1628C48.8301 9.92506 46.0462 9.51712 40.092 9.26408C37.4116 9.15017 34.4677 9.97949 31.8234 9.52645C31.7225 9.50917 31.6194 9.49035 31.5139 9.4699C28.1515 8.81811 21.698 8.01085 17.4579 6.39502C13.2179 4.77919 6.84111 6.31188 3.89569 4.24276C0.950272 2.17365 -9.7316 2.18427 -10.9657 0.916084C-12.1997 -0.352095 -4.21237 0.696907 -3.28168 -0.866596C-2.35098 -2.4301 20.262 -4.43968 25.5128 -3.01686C30.7636 -1.59405 29.6652 -2.9811 35.1157 -1.4004C40.5662 0.180292 39.0624 -2.92481 43.6422 -2.02101C48.222 -1.1172 51.4116 0.603043 54.8391 1.01302C58.2665 1.423 60.8837 1.66527 65.1879 2.00158C69.4922 2.33788 72.8067 4.4046 71.1243 9.34259C69.6469 13.6791 55.0671 11.1772 51.5369 10.5033Z" fill="url(#paint3_linear_2481_19099)"/>
<path d="M2.89807 5.54809C-1.94961 4.20848 -1.56326 6.16015 -7.04197 7.65446C-8.91258 8.16466 -11.0731 9.07714 -13.0118 9.10248C-15.6128 9.13647 -20.4292 9.4807 -24.0232 9.02438C-27.6173 8.56807 -31.4541 10.3734 -34.3255 9.46123C-37.1968 8.54903 -44.6359 9.96561 -45.9977 9.33112C-47.3595 8.69663 -41.3786 8.30195 -41.3489 7.19604C-41.3191 6.09015 -26.3573 1.84192 -22.1354 2.04347C-17.9135 2.24502 -19.2278 1.51788 -14.8042 1.79234C-10.3806 2.06679 -12.6573 0.312933 -9.10834 0.276712C-5.55936 0.240492 -2.65601 0.901115 -0.105438 0.706499C2.44514 0.511885 4.36469 0.318777 7.49706 -0.0378914C10.6294 -0.39456 13.757 0.467411 14.539 3.79425C15.3209 7.1211 8.5051 7.09754 2.89807 5.54809Z" fill="url(#paint4_linear_2481_19099)"/>
<path d="M-127.561 37.6221C-127.674 37.6283 -127.838 37.5959 -127.945 37.5587C-128.728 37.2868 -129.782 37.8702 -129.782 38.6993V47.7944C-129.782 49.241 -129.144 50.6138 -128.037 51.5458L-127.757 51.7815C-126.447 52.8856 -124.704 53.3379 -123.019 53.0259C-109.287 50.484 -99.3679 49.1553 -90.3632 44.8405C-87.9074 43.6638 -88.0961 41.544 -90.5652 40.3956C-91.5265 39.9485 -92.6829 39.2482 -93.6561 39.6687C-93.9989 39.8168 -94.3367 40.007 -94.7203 40.2241C-95.3281 40.5681 -95.9945 40.8128 -96.6929 40.8264C-97.1108 40.8346 -97.5406 40.8221 -98.1582 40.8648C-98.3425 40.8776 -98.5291 40.93 -98.6908 41.0191C-99.4482 41.4363 -100.413 41.5872 -101.092 41.0522C-102.648 39.8267 -104.715 38.4003 -104.768 38.3668C-104.975 38.2376 -105.225 38.216 -107.097 38.1452C-107.981 38.1117 -108.856 37.9611 -109.681 37.6398C-112.017 36.7291 -116.081 34.989 -118.48 34.6135C-119.471 34.4583 -120.496 34.7202 -121.345 35.2547C-122.653 36.0779 -124.51 37.4568 -127.561 37.6221Z" fill="#7F956D"/>
<path d="M-122.148 49.7657C-122.05 49.7412 -110.193 47.5067 -104.484 46.4244C-103.531 46.2437 -103.594 45.4055 -104.52 45.6947C-104.853 45.7987 -105.513 46.3926 -106.63 46.664C-106.956 46.7329 -107.249 46.7894 -107.517 46.8347C-108.53 47.0057 -108.149 45.5393 -108.365 44.5355C-108.413 44.31 -108.551 44.4831 -108.776 44.534C-109.519 44.7019 -110.029 44.7892 -110.7 44.8519C-110.916 44.8721 -111.224 44.72 -111.377 44.5656C-112.021 43.9135 -113.774 43.2955 -114.132 44.1393C-114.458 44.9093 -114.667 45.5277 -114.886 45.6947C-116.256 46.741 -118.199 46.8954 -119.823 46.3173C-121.208 45.8245 -121.599 45.2252 -121.217 44.8805C-121.109 44.7717 -121.007 44.7024 -120.894 44.6599C-120.752 44.6064 -120.694 44.374 -120.83 44.3063C-120.839 44.3014 -120.849 44.2951 -120.857 44.2881C-122.644 42.7873 -122.918 42.2021 -121.962 41.5073C-120.904 40.9389 -120.062 40.8243 -119.137 40.8011C-118.421 40.7831 -118.147 40.0525 -118.794 39.7445C-118.849 39.7183 -118.951 39.6786 -119.011 39.666C-119.22 39.6219 -119.412 39.5795 -119.591 39.538C-120.399 39.35 -120.166 38.2976 -119.551 37.7396C-119.369 37.574 -119.355 37.4112 -119.384 37.1664C-119.417 36.8972 -119.469 36.6806 -119.526 36.4953C-119.662 36.0536 -119.368 35.6679 -118.906 35.6846L-117.811 35.724C-117.423 35.738 -117.247 35.2457 -117.555 35.0103C-117.635 34.9497 -117.735 34.9212 -117.834 34.9308C-120.64 35.2033 -121.989 35.7069 -123.513 36.5445C-124.864 37.0871 -125.636 37.3788 -127.037 37.8193C-127.076 37.8317 -127.074 37.888 -127.034 37.898C-126.993 37.9084 -126.994 37.9682 -127.036 37.9774L-129.268 38.4624C-129.532 38.5197 -129.72 38.7533 -129.72 39.0235V39.3248C-129.72 39.9532 -129.12 40.4077 -128.515 40.2373L-128.187 40.145C-127.389 39.92 -126.607 40.5501 -126.657 41.3783L-126.669 41.5836C-126.676 41.6864 -126.705 41.7865 -126.757 41.8759C-127.153 42.5684 -126.074 43.3846 -125.732 42.6634C-125.618 42.4226 -125.519 42.1677 -125.437 41.895C-125.626 42.5759 -125.807 43.209 -125.995 43.8082C-126.907 46.7184 -125.107 50.505 -122.148 49.7657Z" fill="#6FA247"/>
<path d="M-91.346 40.2515C-91.3442 40.5605 -90.9696 40.646 -90.6722 40.7298C-89.8758 40.9543 -88.422 41.2125 -87.2586 41.5043C-86.588 41.6725 -86.6351 42.3087 -87.2754 42.5695C-87.4175 42.6274 -87.594 42.6589 -87.7461 42.6377C-89.4006 42.4068 -90.5501 42.2872 -92.1209 42.2342C-92.4083 42.2244 -92.4605 41.7448 -92.2227 41.5831C-92.0186 41.4442 -92.1693 41.168 -92.4162 41.1681C-92.8753 41.1683 -93.1601 41.1523 -93.3171 41.1121C-93.4661 41.074 -93.3981 40.919 -93.2709 40.8325C-92.948 40.6131 -92.7369 40.4286 -92.5879 40.2314C-92.366 39.9376 -92.0371 39.872 -91.6718 39.9177C-91.3685 39.9556 -91.3468 40.1045 -91.346 40.2515Z" fill="url(#paint5_linear_2481_19099)"/>
<path d="M-101.004 41.4707C-100.662 41.8527 -101.064 41.9784 -101.455 41.6467L-101.91 41.2604C-102.233 40.9866 -102.745 41.1306 -102.56 41.5115C-102.519 41.596 -102.465 41.685 -102.398 41.7812C-102.253 41.9898 -102.344 42.3095 -102.583 42.3955C-102.943 42.5248 -103.376 41.8357 -103.498 41.4732C-103.561 41.2853 -103.654 41.0784 -103.773 40.8535C-104.091 40.2521 -103.505 39.5862 -102.934 39.9548C-102.086 40.5015 -101.385 41.0455 -101.004 41.4707Z" fill="url(#paint6_linear_2481_19099)"/>
<path d="M-109.424 38.1787C-109.424 38.1786 -109.424 38.1786 -109.424 38.1785C-109.423 38.1775 -109.424 38.1775 -109.424 38.1787C-109.476 38.2506 -111.724 37.0056 -112.093 36.9322C-112.397 36.8717 -115.01 35.9884 -116.534 35.4354C-116.805 35.337 -117.144 35.4304 -117.191 35.7147C-117.258 36.1178 -116.96 36.4236 -116.303 36.7591C-116.041 36.893 -116.385 37.2695 -116.399 37.5635C-116.404 37.6843 -116.293 37.6602 -116.176 37.6331C-115.85 37.5582 -115.398 37.4006 -115.044 37.3634C-114.898 37.348 -114.753 37.3819 -114.615 37.4312C-114.021 37.6434 -113.557 37.8642 -113.127 38.0692C-112.263 38.4819 -112.049 39.0371 -112.923 39.429C-113.831 39.8364 -112.999 40.4136 -112.064 40.0688C-111.869 39.9965 -111.651 39.9208 -111.41 39.8401C-109.998 39.4446 -109.5 39.1068 -109.424 38.1787Z" fill="url(#paint7_linear_2481_19099)"/>
<path d="M-54.2678 34.1533C-51.1814 34.1533 -49.4979 37.7556 -51.4778 40.1233L-56.3387 45.9363C-57.4683 47.2872 -59.0502 48.1749 -60.7922 48.4326C-73.4078 50.2991 -94.0706 53.3841 -93.2856 53.3841C-92.4415 53.3841 -117.265 55.271 -129.782 56.2145C-129.782 53.0816 -127.133 50.673 -124.012 50.4042C-123.424 50.3536 -122.792 50.2876 -122.086 50.2048L-112.465 48.3438C-105.45 46.9441 -101.283 46.0767 -94.573 45.2882C-93.3952 45.1497 -92.2488 44.8088 -91.1797 44.2955C-90.5507 43.9935 -90.0183 43.751 -89.5598 43.5658C-88.3783 43.0886 -87.0919 42.8553 -85.8609 42.5264C-85.1197 42.3283 -84.4696 42.2095 -83.7399 42.1138C-82.9904 42.0155 -82.2461 41.8669 -81.5362 41.6073C-79.6611 40.9214 -78.6646 40.3971 -77.2097 39.5426L-70.1506 36.201C-69.5667 35.9246 -69.0336 35.5385 -68.6496 35.0191C-68.4404 34.7361 -68.2793 34.4785 -68.1672 34.2276C-67.7642 33.3258 -67.7334 32.0799 -66.8419 31.6545C-66.4648 31.4745 -66.0706 31.465 -65.6557 31.5148L-60.1417 32.1761C-59.0745 32.3041 -58.0402 32.6288 -57.0912 33.1337L-55.9763 33.727C-55.4503 34.0069 -54.8636 34.1533 -54.2678 34.1533Z" fill="#7C9C6D"/>
<path d="M-65.789 31.5555C-66.3336 31.6106 -66.6173 31.6836 -67.0924 31.8657L-67.0955 31.867C-67.4079 31.9956 -67.612 32.0796 -67.868 32.3087C-68.0139 32.4391 -68.1066 32.6228 -68.0131 32.7947C-67.9304 32.9467 -67.8313 33.1252 -67.8523 33.2969C-67.8844 33.5588 -67.9664 33.7331 -68.0856 33.9982L-68.8925 35.3164C-69.4655 36.0324 -70.1808 36.6218 -70.9932 37.0474L-73.6097 38.4182L-78.0166 40.318L-81.1201 41.8301C-81.943 42.2632 -82.3914 42.505 -83.6649 42.9545C-84.5711 43.1421 -85.1731 43.2149 -86.5821 43.2259C-87.0817 43.2393 -87.2809 43.165 -87.6351 43.0329C-87.6366 43.0323 -87.6382 43.0321 -87.6397 43.0323C-89.0214 43.1874 -89.5161 43.7114 -91.7064 44.6714C-92.2978 44.9306 -92.9221 45.1096 -93.5563 45.2314L-98.2511 46.1338L-109.672 48.3826C-112.951 48.8729 -114.656 49.03 -118.362 49.8947L-129.36 50.8655C-129.599 50.8866 -129.782 51.0867 -129.782 51.3266C-129.782 51.5842 -129.572 51.7923 -129.315 51.7887C-124.793 51.7255 -119.955 51.4556 -117.213 51.3931C-115.678 51.3581 -115.793 51.7187 -117.309 51.962C-120.131 52.4151 -123.183 52.7632 -128.382 53.2905C-128.486 53.3011 -128.591 53.3223 -128.691 53.3535C-129.34 53.5563 -129.782 54.1574 -129.782 54.8374V56.2145L-124.81 55.9502C-124.236 55.9197 -123.666 55.8397 -123.106 55.7113L-106.801 51.9719C-106.402 51.8806 -106.028 51.7043 -105.704 51.4552C-105.495 51.2944 -105.265 51.1629 -105.019 51.0679C-103.006 50.2904 -101.586 49.9212 -99.058 49.3519L-90.7053 47.3228C-90.3238 47.2301 -89.9233 47.2529 -89.5548 47.3884C-89.2337 47.5063 -88.8875 47.5391 -88.5499 47.4836L-75.4694 45.3294C-75.4298 45.3229 -75.3911 45.3112 -75.3545 45.2948C-74.8539 45.0698 -75.0882 44.3153 -75.6282 44.4136L-78.7261 44.9773C-79.2561 45.0738 -79.7274 44.6121 -79.3421 44.2355C-79.095 43.994 -78.7283 43.7643 -78.2191 43.489C-78.0851 43.4166 -77.9419 43.3616 -77.7942 43.3247C-76.5723 43.0194 -75.7539 42.8843 -74.2304 42.7606C-72.2843 42.5532 -71.5764 42.3147 -70.258 41.9077C-68.7399 41.2953 -67.9793 40.9068 -66.72 40.1629C-65.8279 39.5497 -65.0631 39.3216 -63.6786 38.9222L-60.843 38.1756C-60.2108 38.0092 -60.2836 37.5302 -60.9017 37.7432C-60.9263 37.7516 -60.9605 37.7615 -60.986 37.7665L-65.9076 38.7224C-66.7369 38.8835 -67.4347 37.8386 -67.2166 37.0224C-67.1434 36.8274 -67.0776 36.6465 -67.011 36.48C-66.4652 35.1178 -64.6859 35.8862 -63.2414 36.1449C-63.0644 36.1766 -62.8701 36.2063 -62.6556 36.2347C-62.5936 36.2429 -62.5301 36.2421 -62.4683 36.2324L-60.5508 35.933C-59.9077 35.8325 -59.9865 34.883 -60.6373 34.8899C-61.272 34.8969 -60.6235 33.8501 -61.2075 33.6013C-61.7196 33.3832 -62.9292 33.2087 -65.4734 33.0413C-65.5952 33.0333 -65.7143 32.9848 -65.8053 32.9035C-65.9808 32.7469 -66.0471 32.4898 -65.9323 32.2845C-65.875 32.1821 -65.8047 32.0801 -65.7 31.9605C-65.5535 31.7932 -65.5667 31.5536 -65.789 31.5555Z" fill="#739A60"/>
<path d="M51.7698 52.6862C50.106 52.6862 48.8342 54.1702 49.0889 55.8144L50.4497 64.5981C51.2083 69.4943 55.4377 73.0969 60.3923 73.0669L182.913 72.3262C188.412 72.293 192.853 67.8257 192.853 62.3264V49.4408C192.853 47.8649 191.423 46.7 189.874 46.9868C188.198 47.297 187.142 48.1112 186.025 49.0805C184.908 50.0498 184.287 50.2824 183.294 50.5926C182.301 50.9027 181.122 50.9415 180.377 51.0191C179.632 51.0966 179.57 50.9803 178.515 50.7477C177.46 50.515 176.529 49.8947 175.411 49.3131C174.294 48.7315 171.377 48.3438 170.57 48.305C169.763 48.2663 166.287 49.8947 165.418 50.4375C164.549 50.9803 162.129 52.1047 160.763 52.6863C160.514 52.7924 160.228 52.9019 159.925 53.0102C158.107 53.6607 156.115 53.5969 154.293 52.9575C154.255 52.9441 154.218 52.9312 154.184 52.9189C153.315 52.6087 152.57 52.5312 151.577 52.5699C150.584 52.6087 148.97 53.1127 148.039 53.2291C147.564 53.2884 146.76 53.3089 146.063 53.3125C145.396 53.316 144.732 53.2336 144.08 53.0887L141.439 52.5011C140.833 52.3664 140.217 52.2871 139.596 52.2829C139.077 52.2793 138.408 52.2815 137.673 52.2985C135.998 52.3373 135.873 52.8413 135.377 53.3066C134.88 53.7719 133.329 54.1984 132.211 54.5473C131.094 54.8963 130.225 55.1677 129.542 55.5941C128.86 56.0206 127.184 56.2145 126.625 56.292C126.398 56.3235 126.034 56.3564 125.673 56.3844C125.115 56.4278 124.586 56.1422 124.304 55.6587C124.12 55.3425 123.826 55.1056 123.477 54.9933L120.927 54.171C120.423 54.0087 119.936 53.7996 119.472 53.5464L119.385 53.4992C117.986 52.7368 116.418 52.3373 114.824 52.3373H112.908C111.745 52.3373 110.367 52.7208 109.433 53.0533C108.93 53.2321 108.428 53.4126 107.912 53.5465L102.108 55.0513L101.981 55.0773C99.621 55.5607 97.166 55.1759 95.0671 53.9938L94.5354 53.6943C94.1216 53.4488 93.2692 52.9577 93.1699 52.9577C93.0706 52.9577 91.1423 53.0869 90.1906 53.1515C89.632 53.1386 88.4526 53.105 88.2044 53.074C87.9561 53.043 87.3147 52.8026 87.0251 52.6863L85.3492 52.1047C84.7906 51.9237 83.5492 51.5309 83.0526 51.4068C82.4319 51.2517 78.3974 50.6313 77.8388 50.5538C77.2802 50.4762 75.1699 50.2436 74.2388 50.1273C73.3078 50.011 72.0664 49.5457 71.0112 49.2355C70.1671 48.9874 68.5492 49.4682 67.8457 49.7396L67.1009 49.9722L64.0595 51.019L62.8181 51.368L55.609 52.6189C55.202 52.6895 54.7897 52.725 54.3767 52.725L51.7698 52.6862Z" fill="url(#paint8_linear_2481_19099)"/>
<path d="M172.801 59.9735C174.264 60.1727 175.722 59.7434 177.061 59.1199C178.357 58.5163 179.605 57.9749 180.885 57.4618C186.727 55.1203 192.853 59.7913 192.853 66.0846C192.853 71.2758 188.645 75.4842 183.453 75.4842H103.9C101.06 75.4842 98.7259 73.2439 98.6089 70.4063L98.0457 56.7385C98.034 56.4546 98.3923 56.3028 98.5699 56.5247C98.6196 56.5867 101.239 57.1967 102.542 57.494L103.222 57.7365C104.458 58.1779 105.26 59.2216 106.08 60.2468C106.108 60.2813 106.752 60.3734 107.492 60.4684C108.611 60.6119 109.765 60.6 110.82 60.2017C111.274 60.0302 111.655 59.8396 112.041 59.6095C112.631 59.2574 113.235 58.9279 113.883 58.6969C114.39 58.5158 114.915 58.3844 115.449 58.3153C116.61 58.1653 117.517 58.0951 118.717 58.1676C119.478 58.2135 120.241 58.2166 121.001 58.1568C122.424 58.0448 123.469 58.085 125.073 58.1919C126.212 58.3283 127.026 58.5016 127.941 58.8252C129.038 59.2131 130.219 59.3457 131.342 59.0448L134.392 58.2828C135.047 58.1192 135.717 58.0194 136.391 57.9995C137.425 57.969 138.247 57.9724 139.089 58.0191C140.371 58.0904 141.601 58.5141 142.73 59.1268C144.022 59.828 145.097 60.3651 146.279 60.7112C147.381 61.034 148.55 60.9332 149.671 60.6831L152.322 60.0917C153.92 59.6003 155.031 59.2678 156.234 58.7728C157.302 58.3333 158.538 58.085 159.664 58.343C160.608 58.5594 161.51 58.6382 162.471 58.5149C163.309 58.4074 164.105 58.3386 165.007 58.2799C166.502 58.1828 167.99 58.475 169.385 59.0223C170.545 59.4773 171.581 59.8075 172.801 59.9735Z" fill="#B9CBAB"/>
<path d="M67.963 55.2563C67.2015 54.6192 66.2558 54.2438 65.2647 54.1842C60.5795 53.9026 58.9678 59.2147 63.3909 60.7854C68.2813 62.522 74.1758 64.0216 82.2242 65.7088C82.4747 65.7613 82.741 65.7218 82.964 65.596C83.91 65.0623 83.5312 63.62 82.445 63.62H82.0639C81.9785 63.62 81.8933 63.6105 81.81 63.5917L65.9216 60.0142C67.9199 60.4065 71.6828 61.1597 72.0026 61.2779C71.9617 61.288 71.9594 61.2936 72.0043 61.2936C72.0322 61.2936 72.0305 61.2882 72.0026 61.2779C72.278 61.2095 74.3013 60.9359 75.4181 60.7896L79.2158 59.83C79.9213 59.6518 80.1156 58.7415 79.5443 58.2908L77.7104 56.8438C77.376 56.5799 77.6423 56.047 78.0541 56.1561C78.513 56.2776 78.7534 55.6318 78.3267 55.4237L77.4043 54.9738C81.0045 56.1651 84.0057 57.1398 86.0848 57.9208C88.4384 58.8049 87.7391 59.8189 85.2307 59.6486C84.409 59.5928 83.7005 59.5399 83.363 59.5101C82.9082 59.47 79.9054 60.489 79.4577 60.5778C78.862 60.6958 79.1434 61.0576 80.1354 61.2936C80.4207 61.3616 81.9357 61.496 83.6125 61.6888C86.1753 61.9834 88.7967 61.5141 91.0908 60.3343C91.8072 59.9658 92.287 59.7645 92.5557 59.7308C92.8761 59.6907 92.6893 60.1408 92.4977 60.4007C92.2718 60.707 92.1104 60.9723 92.0004 61.2421C91.7637 61.8225 92.253 62.3933 92.8741 62.4776C94.3465 62.6774 95.8717 62.7068 98.2369 62.6495C98.5181 62.6427 98.6054 63.0306 98.3477 63.1433C98.3304 63.1509 98.3129 63.1564 98.2944 63.16C96.8778 63.433 94.0245 63.9689 93.7285 63.9689C93.4897 63.9689 93.2603 64.062 93.089 64.2284L93.0825 64.2348C92.9003 64.4118 92.799 64.655 92.7906 64.9088C92.7689 65.5724 92.6905 66.4516 92.4871 66.5279C92.3261 66.5882 90.1391 68.2162 87.9384 69.8715C86.2889 71.1124 86.2828 73.5828 87.921 74.8386C88.4671 75.2573 89.136 75.4842 89.824 75.4842H109.749C113.704 75.4842 114.468 66.8019 117.749 69.0093C118.556 69.5521 117.873 67.1089 117.749 67.187C117.032 67.6413 113.471 65.0832 111.915 63.3679C111.789 63.2284 111.689 63.0653 111.649 62.8813C111.43 61.8743 112.12 61.0614 113.638 59.6904C113.708 59.6272 113.664 59.5101 113.57 59.5101C113.481 59.5101 113.434 59.4059 113.493 59.3395L113.768 59.0273C113.896 58.8813 113.843 58.6492 113.648 58.6468C112.631 58.634 111.452 60.3502 108.841 62.8515C108.587 63.0954 108.24 63.2198 107.888 63.1978C107.457 63.1709 107.074 62.9228 106.786 62.6014C105.719 61.41 103.546 60.1596 103.163 60.4407C102.984 60.5724 101.186 60.6036 99.3009 60.5365C98.8157 60.5192 99.1698 59.2795 98.8802 58.8898C98.472 58.3402 97.1371 58.6426 96.7991 59.2381C96.7732 59.2838 96.7461 59.3301 96.7179 59.3771C97.1212 58.6363 91.6467 58.2153 91.2458 58.6959C90.8418 59.1801 91.1092 57.7189 91.0595 57.6879C90.6561 57.4359 90.0938 57.351 90.0234 56.8807C90.0164 56.8342 90.0115 56.7871 90.0061 56.7354C90.005 56.7247 90.0085 56.7138 90.0156 56.7056C90.9249 55.6608 91.7548 55.1904 92.8159 54.4383C93.1278 54.2173 93.213 53.7949 93.0221 53.4637C92.8836 53.2234 92.6245 53.0769 92.3473 53.0866C92.0919 53.0956 91.8641 53.1074 91.6617 53.1246C90.8853 53.1903 91.3175 53.435 91.8044 54.0433C91.8461 54.0953 90.4342 54.515 89.3798 54.8166C89.0332 54.9158 88.6602 54.8325 88.3839 54.601C88.2712 54.5066 88.1667 54.4198 88.0693 54.3397C87.4742 53.8501 86.7492 54.3816 86.5199 55.1173C86.415 55.4538 86.0544 55.6554 85.7028 55.6301L85.0244 55.5812C84.7878 55.5641 84.5603 55.5021 84.3379 55.4194C82.2762 54.6525 77.3988 54.1687 75.1559 53.9793C74.3797 53.9137 73.6092 53.78 72.9061 53.4447C72.18 53.0984 71.2009 52.5369 70.3286 51.717C70.1534 51.537 70.0357 51.3884 70.0172 51.204C69.9716 50.7478 69.9835 50.1771 69.5261 50.1449C69.1791 50.1204 68.9771 49.9281 69.1295 49.6154C69.2333 49.4024 69.3573 49.194 69.4227 49.1142C69.5171 49.0747 69.5334 49.0616 69.4596 49.0805C69.4517 49.0825 69.4391 49.0944 69.4227 49.1142C68.4487 49.5221 59.1549 52.7459 54.6871 52.7638C59.6964 52.9782 69.0303 52.7245 68.6527 52.7638C67.7555 52.8571 69.858 54.8834 72.504 56.6466C73.2706 57.1575 72.8665 58.851 71.9452 58.851H71.106C70.3233 58.851 70.3323 57.2837 70.9492 57.7654C71.1025 57.8851 69.4159 56.4719 67.963 55.2563Z" fill="url(#paint9_linear_2481_19099)"/>
<path d="M135.403 58.0843C135.427 58.0785 135.451 58.0756 135.476 58.0756C135.852 58.0756 135.906 58.6621 135.544 58.7643C134.925 58.9394 134.433 59.1467 134.048 59.4333C133.982 59.4821 133.931 59.5615 133.984 59.6238C134.107 59.769 134.502 59.9386 134.916 60.1048C135.72 60.428 135.673 60.9892 134.851 61.2642C134.803 61.2801 134.756 61.2954 134.708 61.3102C132.799 61.9023 130.093 63.7654 131.342 65.3259C131.391 65.3864 131.169 65.5963 130.806 65.8787C129.225 67.1078 125.818 66.9798 125.818 64.977C125.818 64.2597 125.708 63.5027 124.991 63.4743C123.541 63.4169 122.272 63.0784 119.905 63.1519C119.553 63.1629 119.422 62.5988 119.752 62.4742C119.782 62.4627 119.815 62.4562 119.847 62.4551C121.6 62.3953 122.317 62.3962 122.949 62.4452C123.04 62.4523 123.134 62.4389 123.22 62.4067C126.483 61.176 126.629 61.3762 128 61.1004C128.049 61.0906 128.042 61.0222 127.993 61.0222C127.952 61.0222 127.935 60.9711 127.968 60.9473C128.899 60.2685 129.756 59.8646 131.022 59.1938C131.111 59.1465 131.206 59.1103 131.304 59.0863L135.403 58.0843Z" fill="url(#paint10_linear_2481_19099)"/>
<path d="M157.039 59.4342C156.89 59.3962 156.826 59.2201 156.915 59.0951C157.054 58.902 156.822 58.6476 156.613 58.7613C154.006 60.1823 151.803 60.6829 148.097 61.1355C147.665 61.1882 147.272 61.4153 147.015 61.7659L146.817 62.0358C146.764 62.108 146.691 62.163 146.606 62.1939L146.544 62.2169C146.118 62.3728 146.181 62.9935 146.629 63.0611C146.699 63.0716 146.765 63.099 146.823 63.1409L148.085 64.0667C149.071 64.7894 150.233 65.2328 151.449 65.3503L155.433 65.7352C155.551 65.7466 155.67 65.7376 155.785 65.7088L157.638 65.2431C158.382 65.0564 158.31 63.9774 157.548 63.8913L156.509 63.7738C156.066 63.7238 155.986 63.1146 156.4 62.9509C156.856 62.7707 156.7 62.0896 156.211 62.1265L155.677 62.1668C155.133 62.2078 154.915 61.4811 155.39 61.2151L157.318 60.1379C157.598 59.9814 157.543 59.5632 157.232 59.4838L157.039 59.4342Z" fill="url(#paint11_linear_2481_19099)"/>
<path d="M68.2181 61.565C71.7798 62.5719 67.9237 75.4842 64.2224 75.4842H-119.876C-125.347 75.4842 -129.782 71.049 -129.782 65.5779V60.8485C-129.782 57.9894 -127.464 55.6717 -124.605 55.6717C-124.21 55.6717 -123.815 55.6263 -123.43 55.5364L-105.886 51.4455L-88.2427 46.5639C-87.6747 46.4067 -87.0939 46.3001 -86.5072 46.2452L-76.5666 45.3154C-76.0444 45.2666 -75.5269 45.1767 -75.0188 45.0467L-61.9207 41.6951C-60.8653 41.4251 -59.8611 40.9844 -58.9479 40.3904L-55.7959 38.3406L-48.4097 32.6412C-47.8993 32.1558 -47.4421 31.7177 -47.0352 31.319C-45.0306 29.3551 -42.887 27.2271 -40.6241 25.5673C-39.9398 25.0654 -39.2881 24.4906 -38.6028 23.7236C-37.353 22.4189 -36.5448 21.7668 -35.7138 21.4279C-34.9461 21.1148 -34.0881 21.1772 -33.2647 21.274C-26.7119 22.0443 -22.4717 22.3497 -15.9634 22.5181C-14.7779 22.5488 -13.6207 22.9027 -12.6263 23.5487L-12.2752 23.7768C-11.4717 24.2988 -10.5342 24.5766 -9.57606 24.5766C-8.21508 24.5766 -6.92564 25.15 -5.94563 26.0944C-5.40865 26.6118 -4.94671 27.0246 -4.54304 27.3615C-2.80238 28.814 -0.422867 29.3319 1.84222 29.2368L4.3504 29.1314C5.25563 29.0934 6.16782 29.16 7.036 29.4191C7.71487 29.6217 8.24675 29.8326 8.73723 30.0901C9.61629 30.5516 10.48 31.0486 11.3995 31.423C12.1616 31.7332 12.7836 32.0375 13.4089 32.4054C14.3833 32.9786 15.4039 33.4705 16.4675 33.8537C17.7408 34.3125 18.6613 34.8158 19.6028 35.5409C20.4262 36.1751 21.2781 36.7782 22.2224 37.2125L31.5189 41.4881C31.9 41.6634 32.3056 41.7795 32.7217 41.8324L36.4716 42.3092C37.7031 42.4657 39.0667 43.9592 39.8459 44.9256C39.9036 44.9972 40.0113 45.1176 40.0801 45.1786L50.6526 54.5473C54.5991 56.3046 57.1159 57.4573 58.7865 58.3974C60.0677 59.1186 61.3842 59.8155 62.8085 60.1801L68.2181 61.565Z" fill="url(#paint12_linear_2481_19099)"/>
<path d="M-79.8787 50.7864C-79.5153 50.3324 -80.2166 49.564 -79.6352 49.5795C-79.0957 49.594 -78.5479 49.6089 -78.0034 49.6241C-77.2912 49.6439 -77.2642 50.4713 -77.973 50.5431C-78.0429 50.5502 -78.109 50.5689 -78.1718 50.6002C-81.3674 52.1915 -87.6139 55.284 -87.7615 55.284C-87.9477 55.284 -91.1753 55.7492 -91.4235 55.788C-91.578 55.8121 -94.8688 56.5565 -97.5801 57.1721C-97.8459 57.2324 -97.7866 56.7106 -97.9408 56.4859C-98.0833 56.2781 -99.8668 56.8113 -100.854 57.1407C-100.938 57.1688 -101.028 57.1742 -101.115 57.1561C-101.62 57.051 -101.651 56.339 -101.164 56.1679C-101.079 56.1379 -101.016 56.1139 -100.982 56.0982C-100.734 55.9819 -101.665 55.4391 -101.913 55.284C-102.096 55.1699 -95.1872 54.5223 -90.8736 54.1375C-90.165 54.0743 -89.4675 53.9373 -88.7883 53.7253C-85.362 52.6553 -80.0133 50.9546 -79.8787 50.7864Z" fill="#698B68"/>
<path d="M-57.4928 56.6876L-57.658 56.7573C-64.5773 59.203 -63.2445 69.3618 -55.9285 69.9399L5.40421 74.7863C9.06627 74.7992 16.4649 74.8173 16.7628 74.7863C16.8575 74.7764 17.4893 74.5836 18.3964 74.2957C19.9824 73.7924 19.7108 71.4908 18.0531 71.3453C17.9793 71.3388 17.906 71.3266 17.8341 71.3089L14.8806 70.58C14.3183 70.4413 14.2909 69.652 14.8423 69.4745C14.9217 69.449 15.0071 69.4412 15.0899 69.4514C21.431 70.2313 25.0331 70.6765 29.3908 71.5109C29.4545 71.5232 29.5197 71.5294 29.5845 71.5294C30.5337 71.5294 30.9586 70.3638 30.2146 69.7744C30.0501 69.6441 29.9412 69.5609 29.9215 69.552C27.4298 68.4399 19.4486 66.265 17.6225 66.3972C17.3789 66.4148 17.3572 66.65 17.5098 66.8407C17.9327 67.369 17.3446 68.0733 16.762 67.7288C14.4242 66.3464 12.7454 64.9956 10.8373 62.7739C10.392 62.2555 9.58585 62.2408 9.14211 62.7605L8.8564 63.0952C8.658 63.3275 8.66653 63.672 8.87621 63.8943C9.30597 64.3499 8.83566 65.0759 8.24422 64.87L7.59277 64.6432C7.1562 64.4912 6.68536 64.757 6.59009 65.2094L6.20995 67.0141C6.17107 67.1986 6.21013 67.3911 6.31787 67.5459C6.55612 67.8882 6.43527 68.3622 6.06221 68.5486L5.72421 68.7175C5.05832 69.0503 4.18623 68.56 3.80717 67.9193C3.42538 67.274 2.89897 66.8301 2.54903 67.0706C-3.3812 70.9659 -3.88931 70.9139 1.84755 65.3147C2.01489 65.1514 2.11201 64.9218 2.10756 64.688C2.08882 63.7052 0.159348 63.3438 -0.518112 64.0561C-0.693298 64.2403 -0.884232 64.4277 -1.09296 64.6198C-1.26357 64.7768 -1.48915 64.8606 -1.72101 64.8606H-2.11739C-2.33197 64.8606 -2.52134 64.7204 -2.58392 64.5152C-2.66275 64.2566 -2.93676 64.1115 -3.19491 64.1916L-7.94363 65.6641C-10.0141 66.3061 -12.2682 65.6566 -13.6796 64.0114L-17.498 59.5604C-17.9609 59.0208 -17.9538 58.2221 -17.4813 57.6909C-17.4108 57.6116 -17.3315 57.5404 -17.2451 57.4787L-14.6962 55.659C-14.4624 55.4921 -14.2965 55.2467 -14.2287 54.9676C-13.9271 53.7261 -15.5201 52.9394 -16.3226 53.9335L-16.4549 54.0974C-16.5704 54.2405 -16.7162 54.3562 -16.8817 54.4361L-20.1821 56.0304C-20.882 56.3685 -21.6952 56.382 -22.4059 56.0672L-23.3669 55.6415C-24.1141 55.3106 -24.4736 54.4522 -24.1776 53.6905C-23.3346 51.5207 -22.6113 49.8486 -21.4825 47.8732C-21.2009 47.3803 -20.1588 47.671 -19.7786 48.0925C-19.6984 48.1815 -19.6034 48.3319 -19.592 48.4511L-19.588 48.4932C-19.5245 49.1601 -18.5909 49.2575 -18.391 48.6182L-17.857 46.9101C-17.7864 46.6846 -17.8002 46.4411 -17.8958 46.225L-19.0289 43.6624C-19.4236 42.7696 -20.7661 43.1403 -20.6468 44.1091C-20.6186 44.3376 -20.6862 44.5663 -20.8203 44.7534C-21.5074 45.7119 -22.2478 47.2147 -21.9683 47.297C-21.8677 47.3266 -22.9567 47.9425 -23.9611 48.5015C-24.6902 48.9073 -25.3071 49.4869 -25.7571 50.1896C-25.9616 50.5089 -26.2019 50.8054 -26.4725 51.071C-28.5746 53.1346 -30.0667 54.5334 -32.1227 55.9636C-33.1531 56.6803 -34.6124 56.1733 -34.3931 54.9375C-34.1199 53.3981 -34.7607 52.1394 -35.9373 53.169C-37.8709 54.861 -39.8002 57.358 -41.6387 58.7486C-41.7657 58.8447 -41.9021 58.9252 -42.0448 58.9958L-45.1 60.5067C-45.6523 60.7798 -46.2993 60.3779 -46.2993 59.7618C-46.2993 59.5737 -46.2362 59.3904 -46.1156 59.2461C-45.4802 58.4857 -44.8211 57.8874 -44.1001 57.3486C-43.0956 56.5978 -43.5602 55.3255 -44.7471 55.7305C-45.1378 55.8638 -45.5351 56.0088 -45.943 56.1661C-47.0079 56.5765 -48.06 55.0265 -47.3298 54.1495C-46.7151 53.4112 -47.4416 52.4738 -48.3299 52.8399C-50.3825 53.686 -53.4105 54.9642 -57.4928 56.6876Z" fill="#829B73"/>
<path d="M-57.1094 40.7009C-57.2517 40.7424 -57.3546 40.5657 -57.2484 40.4624L-56.5902 39.8222C-56.2635 39.5044 -56.6873 38.9915 -57.0611 39.2525L-60.035 41.3298C-60.1049 41.3785 -60.1851 41.4138 -60.2681 41.433C-67.5221 43.1059 -71.1052 44.0555 -75.9683 45.7461C-72.846 44.9964 -70.5765 44.4746 -68.0747 44.0364C-67.4461 43.9263 -67.2127 44.8504 -67.7719 45.1581C-68.0645 45.3192 -68.3223 45.4836 -68.5528 45.658C-68.6776 45.7524 -68.6071 45.9399 -68.4506 45.9399C-68.2606 45.9399 -68.2129 46.2036 -68.3902 46.2717C-71.6173 47.511 -73.597 48.247 -75.5959 48.5377L-82.3434 49.2401C-82.7794 49.2855 -82.8508 49.8909 -82.4373 50.0365C-82.0256 50.1814 -82.0939 50.7834 -82.5276 50.8324L-109.237 53.8494C-101.582 52.5699 -86.247 49.8404 -86.1477 49.158C-86.0851 48.7279 -89.2911 49.0454 -92.6907 49.5105C-93.2935 49.593 -93.5273 48.6713 -92.9544 48.4665C-92.3801 48.2613 -92.5936 47.4698 -93.1912 47.5911C-96.1235 48.1862 -99.1588 48.8766 -100.672 49.4294C-102.352 50.0431 -103.497 50.4473 -104.192 50.6863C-104.699 50.8606 -105.197 51.0584 -105.7 51.2442C-106.659 51.5991 -108.514 52.2108 -111.596 53.074C-115.022 53.7642 -114.917 58.6974 -111.464 59.2407L-103.837 60.4406L-91.3898 63.5582C-90.9222 63.6753 -90.4337 63.6816 -89.9632 63.5768L-64.4986 57.9008C-64.2356 57.8422 -64.2782 57.4552 -64.5476 57.4552C-72.72 58.4891 -89.8097 61.7201 -90.1821 59.8591C-90.3557 58.9916 -84.5036 56.888 -84.4718 56.5247C-84.4632 56.4272 -71.5354 51.5035 -70.5062 50.8252C-69.9199 50.4387 -76.585 51.6703 -78.6994 51.5619C-79.5052 51.5205 -67.8352 50.1149 -67.5269 49.6233C-67.3943 49.4117 -65.7178 48.3108 -64.0305 47.1745C-62.3712 46.057 -59.6905 47.067 -61.3201 48.2275C-61.5516 48.3924 -76.7752 55.7363 -84.4718 59.355C-80.7063 57.9592 -73.0387 55.1056 -72.4925 54.8575C-71.8097 54.5473 -65.2924 52.4536 -64.5476 52.0659C-63.8028 51.6782 -58.8373 47.9561 -58.7132 47.6847C-58.639 47.5225 -57.4984 47.1772 -56.5119 46.9105C-55.9178 46.7499 -55.2965 46.7236 -54.6879 46.8148L-54.1424 46.8966C-54.0864 46.905 -54.0295 46.9058 -53.9733 46.899C-53.3758 46.8268 -53.0266 47.553 -53.4561 47.9745L-55.223 49.7089C-55.4708 49.9522 -55.8043 50.0885 -56.1516 50.0885C-56.3265 50.0885 -56.4997 50.1232 -56.6612 50.1904L-70.1959 55.8268L-54.706 50.4129C-54.6053 50.3777 -54.5081 50.3321 -54.4169 50.2767C-54.3392 50.2295 -54.2646 50.1838 -54.1931 50.1394C-53.3836 49.6369 -52.5113 48.1955 -51.7546 47.6165L-51.6344 47.5245C-51.1707 47.1696 -51.0321 46.5312 -51.307 46.0161C-51.5426 45.5745 -52.0301 45.329 -52.5267 45.3912C-55.2378 45.731 -56.5862 45.6441 -57.4612 44.7029C-57.5943 44.5598 -57.6403 44.3548 -57.5737 44.1711C-57.4617 43.8622 -57.281 43.581 -57.0268 43.2869C-56.7193 42.9311 -57.1978 42.4434 -57.5349 42.1155C-57.652 42.0016 -57.6002 41.8622 -57.5078 41.7275L-56.9523 40.9179C-56.8767 40.8077 -56.9811 40.6635 -57.1094 40.7009Z" fill="#63895D"/>
<path d="M-90.4406 63.5002C-90.9188 63.6277 -91.4938 63.9218 -91.3789 64.4032C-91.359 64.4868 -91.3248 64.5718 -91.2799 64.6617C-91.1477 64.926 -91.062 65.2131 -91.0821 65.5079C-91.134 66.27 -90.57 66.9351 -89.8096 67.0083L-26.3752 73.1191H-6.24573C-4.82699 73.1191 -3.74864 71.8438 -3.9844 70.4448C-4.1577 69.4164 -5.00311 68.6344 -6.0419 68.5417L-21.0925 67.1986C-22.0438 67.1137 -22.9781 66.893 -23.8669 66.5431L-29.2204 64.4354C-29.6549 64.2644 -29.9795 63.8933 -30.0911 63.4399C-30.2709 62.7099 -30.9835 62.2413 -31.725 62.3649C-32.1977 62.4437 -32.6558 62.5203 -33.0985 62.594C-35.7941 63.0426 -36.0903 61.3443 -34.1319 59.4384C-33.1599 58.4925 -32.365 57.4175 -31.927 56.2508C-31.9085 56.2015 -31.8786 56.1575 -31.8391 56.1228C-31.5543 55.873 -31.8782 55.4274 -32.2037 55.6212L-34.3797 56.9164C-34.5007 56.9885 -34.5883 57.1052 -34.6289 57.2401C-35.1762 59.0585 -36.1428 59.9089 -39.2235 60.8671L-45.4882 63.3081C-46.3372 63.6389 -46.95 62.4752 -46.197 61.9623C-45.4462 61.451 -46.0532 60.2901 -46.9016 60.6149L-47.9221 61.0056C-48.9272 61.3904 -49.6288 59.9969 -48.7211 59.4187L-43.6304 56.1757L-57.658 62.6506C-55.6728 61.3959 -57.1798 58.3478 -59.3821 59.1634L-66.2855 61.7201L-56.6224 56.7136C-56.0316 56.4074 -55.9457 56.2418 -56.6037 56.341C-60.5771 56.94 -76.573 59.8016 -90.4406 63.5002Z" fill="#638D62"/>
<path d="M-30.7821 64.124C-33.5737 64.5145 -38.4069 65.1833 -41.2576 65.5572C-42.7381 65.7514 -44.1911 66.1926 -45.4931 66.9238C-47.7309 68.1807 -50.3211 69.7211 -50.3959 70.0948C-50.52 70.7152 -34.1959 73.6619 -30.7821 74.0884C-27.3683 74.5149 5.21797 75.678 5.59039 75.4454C5.65363 75.4059 5.649 75.2003 5.59636 74.8827C5.11079 71.9535 1.59854 70.6676 -1.36362 70.8716C-1.5349 70.8834 -1.71272 70.8944 -1.89761 70.9045C-1.95285 70.9075 -2.01025 70.9033 -2.06449 70.8924C-3.88975 70.5264 -5.29067 70.3706 -6.83019 70.3955C-7.18426 70.4012 -6.96361 69.49 -6.74228 69.2136C-6.59308 69.0273 -6.97903 69.1138 -7.21404 69.1557C-7.90566 69.2792 -8.52953 69.3685 -9.1193 69.4249C-10.4214 69.5492 -10.4749 68.2287 -9.17134 68.1213C-7.23392 67.9616 -5.14238 67.9668 -2.35445 68.0399C-7.33102 67.2486 -10.4086 66.8435 -15.3816 66.7992C-15.8504 66.795 -16.0023 66.1541 -15.5817 65.9471C-15.1351 65.7273 -15.3385 65.0683 -15.8307 65.1425C-21.8335 66.0474 -23.8359 67.0149 -25.6304 68.8541C-23.6899 66.7819 -25.4167 63.4194 -28.2314 63.789L-30.7821 64.124Z" fill="#758966"/>
<path d="M-0.85199 33.1128C-0.696762 33.2861 -0.503662 33.4224 -0.287262 33.5078C1.14233 34.0718 2.10471 32.5929 0.907196 31.6297C-1.85323 29.4094 -4.85122 27.3634 -6.9917 25.4496C-7.70639 24.8106 -8.59206 24.378 -9.54752 24.2992L-10.4335 24.2261C-11.0394 24.1761 -11.6258 23.988 -12.1478 23.6761L-12.6493 23.3765C-12.737 23.3241 -12.8789 23.2804 -12.9797 23.2633C-13.8771 23.1114 -13.955 23.9425 -13.0959 24.2432C-12.2862 24.5266 -11.6897 24.8148 -11.459 25.1601C-11.3389 25.34 -11.4092 25.5684 -11.5131 25.7581L-11.5738 25.8689C-11.924 26.5084 -11.7237 27.2374 -11.3794 27.88C-11.3633 27.91 -11.3544 27.9338 -11.3544 27.9498C-11.3544 28.8846 -10.229 29.5393 -9.81774 28.6998C-9.78609 28.6352 -9.75652 28.5672 -9.72884 28.4952C-9.64342 28.2731 -9.75514 27.8615 -9.84464 27.641C-10.1384 26.9171 -9.24863 26.7784 -8.58357 27.1882C-8.04508 27.5201 -7.43546 27.7726 -6.58846 28.0097C-6.25503 28.103 -5.94244 28.2632 -5.68224 28.4916C-3.68324 30.2465 -2.42394 31.3582 -0.85199 33.1128Z" fill="url(#paint13_linear_2481_19099)"/>
<path d="M14.1507 33.1608C12.8044 32.6651 11.5704 31.8843 10.3474 31.1344C8.98041 30.2962 7.22163 29.4163 6.04202 29.05C5.56807 28.9029 4.97984 29.2178 5.37244 29.5214C5.59023 29.6898 5.96677 29.8942 6.56349 30.1649C6.83469 30.288 6.94131 30.6199 6.78624 30.8742C6.66759 31.0687 6.69896 31.3195 6.86192 31.4788L7.77065 32.3673C7.91438 32.5078 7.95255 32.7243 7.86552 32.9055C7.74452 33.1575 7.87097 33.4593 8.13495 33.5511C9.40839 33.9942 10.4165 34.3322 11.2245 34.5758C11.9733 34.8015 11.384 34.0045 10.7066 33.6137C10.0595 33.2404 11.0387 32.9764 11.7594 33.1729C13.5347 33.657 14.8951 34.1662 16.7634 34.9654C16.8866 35.0181 17.0058 35.0812 17.1187 35.1533L21.6243 38.0296C22.2708 38.4424 22.9628 38.7794 23.6864 39.034L33.3974 42.4505L32.3422 41.9077L31.813 41.6808C30.0902 40.9422 28.3632 39.9787 26.6634 39.1886C24.8328 38.3377 22.4254 37.3314 20.9215 36.8285C20.8461 36.8033 20.0201 36.1551 19.2012 35.5128C18.4096 34.892 17.5241 34.403 16.58 34.0553L14.1507 33.1608Z" fill="url(#paint14_linear_2481_19099)"/>
<path d="M36.8112 44.2727C36.6848 44.2532 37.8062 43.5465 38.6412 43.0403C38.7924 42.9487 38.9712 43.1018 38.9055 43.2659C38.8776 43.3356 38.8948 43.4152 38.9481 43.468C39.2417 43.759 39.4422 43.9869 39.5746 44.1836C39.879 44.6364 40.047 45.2197 40.4674 45.5674C44.7987 49.1504 46.8409 51.0915 50.6526 54.5473L60.5304 59.3746C60.979 59.5939 61.4489 59.7793 61.9233 59.9353C74.1802 63.9659 78.3802 69.8884 87.5216 73.1191C71.4247 68.5403 64.3576 62.1065 51.025 59.8978C52.0171 59.9932 52.537 57.6976 51.6257 57.2941C45.5487 54.6031 40.431 51.6535 41.7767 51.872L42.3249 52.0401C42.9258 52.2244 43.3383 51.4423 42.8468 51.0505L42.411 50.7031C41.933 50.3221 43.244 50.0468 42.8939 49.5457C41.5108 47.8221 37.3861 44.3616 36.8112 44.2727Z" fill="url(#paint15_linear_2481_19099)"/>
<path d="M2.40071 29.8408C2.64203 29.8215 2.64383 29.4687 2.40273 29.4469L-0.719696 29.1658C-1.16974 29.1253 -1.40245 29.6839 -1.05515 29.9729C0.985931 31.6718 2.37238 32.746 4.22292 34.9367C4.34842 35.0853 4.48802 35.2221 4.6407 35.3425L4.9601 35.5946C6.1322 36.5194 7.5817 37.0224 9.07474 37.0224H12.0623C12.6235 37.0224 13.3629 37.2211 13.8593 37.4829C14.5318 37.8376 15.0504 38.1133 15.7948 38.2683L31.0387 41.4424C25.4658 39.9456 22.0639 39.0234 15.3472 36.6797C13.7509 36.1227 12.0382 35.9585 10.3719 36.2443C9.65884 36.3665 9.08006 36.4704 8.95271 36.5056C8.88632 36.394 7.35522 35.5706 5.87013 34.7927C4.68793 34.1735 3.74536 33.1762 3.20807 31.9546L2.51686 30.3829C2.49736 30.3386 2.46494 30.3011 2.42383 30.2754L2.31172 30.2054C2.15016 30.1045 2.21083 29.8559 2.40071 29.8408Z" fill="#A0AE9A"/>
<path d="M11.12 40.9869C10.9927 40.9804 10.8655 40.9581 10.7438 40.9201C9.40564 40.5028 8.26901 40.062 7.19763 39.5568C6.11508 39.0464 5.39041 39.965 6.5591 40.2232C6.69365 40.2529 6.8315 40.2791 6.97295 40.3017C7.03964 40.3123 7.10782 40.2891 7.1546 40.2404C7.22043 40.1719 7.32376 40.1561 7.4068 40.2022C9.26497 41.2348 11.2113 42.3256 12.883 43.3232C15.8427 45.0894 15.1279 46.2094 12.0108 44.7388C11.4075 44.4541 10.8332 44.184 10.3349 43.964C9.22882 43.4757 8.98737 44.0748 9.66147 45.0785C10.5704 46.4317 11.3488 47.5392 12.4978 48.9204C13.0527 49.5875 13.9477 49.3731 14.1069 48.5201C14.2313 47.8531 14.8945 48.161 15.2465 48.741L17.8383 53.0118C18.1138 53.4657 18.4329 53.8927 18.7922 54.2838C21.5053 57.2364 23.3275 59.0317 26.6452 61.3709C27.0854 61.6814 28.0228 61.9836 28.5216 62.1873C29.1459 62.4423 28.4053 62.6704 27.7436 62.8006C25.7427 63.1942 22.8856 63.473 20.9762 63.7366C19.4794 63.9433 19.8455 64.3701 21.3556 64.4223C25.7044 64.5726 28.8341 64.8526 33.5773 65.5299C34.2353 65.6238 34.8658 65.8611 35.4245 66.221C36.1681 66.7 37.0325 66.9576 37.9169 66.9637L40.7894 66.9837C41.6917 66.9899 42.5891 67.1183 43.457 67.3653L58.7073 71.705C58.8349 71.7413 58.972 71.7219 59.0845 71.6516C59.4046 71.4517 59.3683 70.9744 59.0223 70.8238C53.9975 68.6366 50.8322 67.423 45.0196 65.8508C44.9688 65.8371 44.919 65.817 44.873 65.7914C44.2889 65.4659 44.5269 64.5849 45.1952 64.6106C47.4015 64.6952 49.1434 64.878 51.6457 65.3259L68.3423 68.8154L75.8522 70.4258C76.2426 70.5095 76.5962 70.1772 76.537 69.7823C76.4993 69.531 76.3001 69.3348 76.0482 69.3009L73.0185 68.8927C71.2587 68.6556 69.1297 68.0403 67.3877 67.6961C66.2587 67.473 64.8477 67.2205 63.2787 66.9308C62.8069 66.8437 62.3423 66.7196 61.8861 66.5712C59.895 65.923 58.4538 65.6127 55.8697 65.3393C55.7855 65.3304 55.7003 65.3151 55.6184 65.2938C54.433 64.9862 53.528 64.7324 52.642 64.4427C51.8882 64.1963 51.9836 63.1468 52.7629 62.9996C49.396 63.1888 47.2536 63.2353 45.2279 63.029C43.6272 62.866 41.5261 63.4641 39.971 63.8771C37.3695 64.5679 35.1838 61.8891 32.5878 61.1779C32.3825 61.1217 32.1748 61.0637 31.9662 61.0035C29.3089 60.2366 28.7034 57.3721 29.8655 54.8624C29.9982 54.5758 30.1128 54.316 30.2082 54.083C30.6243 53.0669 30.3774 52.2885 29.3985 52.7859C28.3735 53.3066 26.42 53.9495 25.8546 52.9484C25.7579 52.7772 25.6625 52.5821 25.5659 52.3593C25.152 51.4044 25.5754 50.2419 25.1295 49.3015C24.9061 48.8304 24.1973 48.6788 22.672 48.3189C22.4243 48.2604 22.241 48.1609 22.0815 47.9626C21.3564 47.061 22.0242 45.4586 23.1649 45.6521C25.3439 46.0218 26.984 46.2518 26.5077 46.1338C21.8176 44.6912 19.1386 43.673 15.6958 41.9947C14.5529 41.4376 13.3133 41.0987 12.0435 41.034L11.12 40.9869Z" fill="#A0AE9A"/>
<path d="M190.616 37.3932C190.73 37.3992 190.894 37.3668 191.001 37.3295C191.784 37.0571 192.838 37.6392 192.839 38.4684L192.852 47.5619C192.854 49.0099 192.216 50.3849 191.109 51.3187L190.832 51.5526C189.523 52.6572 187.782 53.1105 186.097 52.7997C172.359 50.2644 162.437 48.941 153.425 44.6292C150.969 43.4544 151.156 41.3356 153.624 40.1864C154.585 39.7387 155.741 39.0376 156.715 39.4576C157.058 39.6056 157.396 39.7958 157.78 40.0128C158.388 40.3562 159.054 40.6003 159.752 40.6137C160.17 40.6216 160.6 40.6088 161.218 40.6513C161.403 40.664 161.589 40.7163 161.751 40.8053C162.509 41.2221 163.474 41.3721 164.153 40.8363C165.708 39.6102 167.772 38.1833 167.825 38.1498C168.032 38.0205 168.282 37.9988 170.153 37.927C171.037 37.8931 171.912 37.7419 172.737 37.42C175.073 36.5079 179.134 34.7657 181.532 34.3893C182.523 34.2337 183.548 34.4948 184.397 35.0285C185.706 35.8509 187.565 37.2294 190.616 37.3932Z" fill="#6D956F"/>
<path d="M185.22 49.5396C185.122 49.5152 173.261 47.2867 167.551 46.2074C166.598 46.0273 166.661 45.1892 167.587 45.4778C167.92 45.5817 168.581 46.1752 169.698 46.446C170.023 46.5147 170.316 46.5709 170.584 46.6161C171.597 46.7866 171.215 45.3207 171.43 44.3166C171.478 44.091 171.616 44.2641 171.841 44.3149C172.585 44.4824 173.094 44.5694 173.765 44.6318C173.981 44.6519 174.289 44.4997 174.442 44.3452C175.084 43.693 176.837 43.073 177.195 43.9158C177.523 44.6863 177.733 45.3054 177.952 45.4724C179.324 46.5179 181.268 46.6715 182.892 46.0919C184.275 45.5985 184.665 44.9992 184.282 44.6549C184.175 44.546 184.072 44.4767 183.959 44.4343C183.817 44.381 183.759 44.1487 183.894 44.0808C183.904 44.0759 183.913 44.0697 183.922 44.0626C185.707 42.5609 185.979 41.9755 185.022 41.2813C183.964 40.7132 183.122 40.5992 182.196 40.5765C181.48 40.5589 181.206 39.8286 181.853 39.5202C181.908 39.4939 182.009 39.4542 182.069 39.4415C182.278 39.3974 182.47 39.3551 182.647 39.3136C183.457 39.125 183.223 38.0725 182.607 37.5148C182.424 37.3493 182.41 37.1866 182.439 36.9417C182.471 36.6725 182.524 36.4558 182.581 36.2706C182.716 35.8287 182.421 35.4433 181.959 35.4602L180.864 35.5002C180.476 35.5144 180.299 35.0223 180.607 34.7867C180.687 34.726 180.787 34.6974 180.887 34.707C183.692 34.978 185.043 35.4808 186.568 36.3177C187.919 36.8596 188.691 37.1509 190.093 37.5907C190.132 37.603 190.13 37.6593 190.091 37.6693C190.049 37.6798 190.05 37.7396 190.092 37.7487L192.325 38.2326C192.589 38.2898 192.777 38.5231 192.778 38.7932L192.778 39.094C192.779 39.7225 192.179 40.1778 191.574 40.0077L191.247 39.9157C190.448 39.6912 189.667 40.3221 189.718 41.1501L189.73 41.3553C189.737 41.458 189.767 41.5579 189.818 41.6472C190.215 42.3391 189.137 43.156 188.794 42.4355C188.68 42.1948 188.581 41.9398 188.499 41.6672C188.688 42.3487 188.871 42.9823 189.06 43.5821C189.976 46.4902 188.178 50.277 185.22 49.5396Z" fill="#47A26B"/>
<path d="M154.405 40.0412C154.404 40.3504 154.029 40.4363 153.732 40.5203C152.936 40.7451 151.483 41.004 150.32 41.2963C149.65 41.4649 149.697 42.1012 150.338 42.3617C150.48 42.4195 150.657 42.451 150.809 42.4296C152.463 42.1979 153.612 42.0777 155.182 42.0238C155.47 42.0139 155.522 41.5343 155.284 41.3727C155.08 41.234 155.23 40.9576 155.477 40.9576C155.936 40.9576 156.221 40.9414 156.378 40.9011C156.526 40.8629 156.458 40.708 156.331 40.6218C156.008 40.4023 155.796 40.2178 155.647 40.0204C155.425 39.7269 155.096 39.6617 154.731 39.7076C154.428 39.7456 154.406 39.8944 154.405 40.0412Z" fill="url(#paint16_linear_2481_19099)"/>
<path d="M164.065 41.2557C163.723 41.638 164.125 41.7633 164.516 41.4313L164.971 41.0451C165.294 40.771 165.805 40.9144 165.621 41.2955C165.58 41.3801 165.526 41.4691 165.459 41.5654C165.314 41.7741 165.406 42.0938 165.645 42.1796C166.005 42.3087 166.438 41.6192 166.559 41.2566C166.622 41.0684 166.715 40.8613 166.834 40.6361C167.151 40.0345 166.565 39.3692 165.993 39.7382C165.146 40.2855 164.445 40.8302 164.065 41.2557Z" fill="url(#paint17_linear_2481_19099)"/>
<path d="M172.48 37.9593C172.48 37.9592 172.48 37.9591 172.48 37.9591C172.48 37.9581 172.48 37.9581 172.48 37.9593C172.532 38.0311 174.779 36.785 175.147 36.7114C175.451 36.6507 178.064 35.766 179.587 35.2122C179.857 35.1137 180.196 35.2067 180.244 35.4909C180.311 35.8941 180.014 36.2 179.358 36.5359C179.096 36.67 179.44 37.0463 179.454 37.3403C179.46 37.4612 179.349 37.4371 179.231 37.4101C178.905 37.3354 178.453 37.178 178.099 37.141C177.953 37.1257 177.808 37.1596 177.67 37.2091C177.078 37.4213 176.614 37.6421 176.185 37.8471C175.321 38.2605 175.107 38.8165 175.982 39.208C176.89 39.6149 176.059 40.1926 175.124 39.8483C174.928 39.7761 174.711 39.7003 174.468 39.6196C173.056 39.2249 172.558 38.8874 172.48 37.9593Z" fill="url(#paint18_linear_2481_19099)"/>
<path d="M117.319 33.9628C114.234 33.9644 112.553 37.5671 114.535 39.932L119.408 45.7471C120.538 47.0959 122.119 47.9817 123.86 48.2383C136.478 50.0982 157.148 53.1728 156.363 53.1732C155.518 53.1736 180.344 55.0475 192.863 55.9844C192.859 52.8506 190.207 50.4444 187.085 50.1771C186.497 50.1268 185.864 50.0611 185.158 49.9788L175.535 48.1228C168.518 46.7267 164.35 45.8614 157.638 45.0764C156.461 44.9387 155.315 44.5986 154.246 44.0862C153.615 43.7841 153.082 43.5416 152.623 43.3565C151.441 42.8802 150.155 42.6477 148.924 42.3195C148.182 42.1217 147.531 42.0031 146.801 41.9078C146.052 41.8099 145.308 41.6618 144.598 41.4027C142.721 40.7177 141.724 40.1939 140.268 39.34L133.204 36.002C132.62 35.726 132.087 35.3404 131.702 34.8214C131.493 34.5386 131.331 34.281 131.219 34.0302C130.814 33.1287 130.782 31.8824 129.89 31.4575C129.512 31.2777 129.118 31.2683 128.703 31.3183L123.19 31.9826C122.123 32.1111 121.089 32.4363 120.141 32.9418L119.027 33.5356C118.501 33.8158 117.915 33.9625 117.319 33.9628Z" fill="#719C6D"/>
<path d="M128.837 31.359C129.381 31.4138 129.665 31.4866 130.14 31.6685L130.143 31.6698C130.456 31.7983 130.66 31.8822 130.917 32.1113C131.063 32.2415 131.156 32.425 131.062 32.5969C130.98 32.749 130.881 32.9276 130.902 33.0994C130.935 33.3612 131.017 33.5354 131.136 33.8004L131.945 35.1183C132.519 35.8339 133.235 36.4229 134.048 36.8481L136.667 38.2175L141.076 40.115L144.181 41.6255C145.005 42.0582 145.454 42.2998 146.728 42.7486C147.634 42.9357 148.236 43.0082 149.645 43.0184C150.145 43.0316 150.344 42.9572 150.698 42.8248C150.7 42.8243 150.701 42.8241 150.703 42.8243C152.085 42.9787 152.58 43.5025 154.772 44.4616C155.364 44.7203 155.988 44.8987 156.622 45.0202L161.318 45.9202L172.742 48.163C176.022 48.6517 177.727 48.8078 181.434 49.6705L192.434 50.6356C192.673 50.6566 192.856 50.8564 192.856 51.0961C192.857 51.3538 192.647 51.5623 192.389 51.5588C187.867 51.498 183.028 51.2306 180.286 51.1696C178.752 51.1354 178.867 51.4958 180.382 51.7382C183.205 52.1899 186.258 52.5365 191.459 53.0611C191.563 53.0716 191.668 53.0928 191.768 53.124C192.417 53.3264 192.86 53.9272 192.861 54.6075L192.863 55.9844L187.89 55.7226C187.317 55.6924 186.746 55.6128 186.186 55.4847L169.876 51.7539C169.477 51.6627 169.103 51.4866 168.778 51.2377C168.569 51.0771 168.339 50.9457 168.092 50.8508C166.078 50.0744 164.659 49.7058 162.13 49.1379L153.774 47.1131C153.392 47.0207 152.992 47.0437 152.624 47.1793C152.303 47.2975 151.957 47.3305 151.619 47.2751L138.535 45.1278C138.496 45.1213 138.457 45.1097 138.421 45.0932C137.92 44.8686 138.154 44.114 138.694 44.212L141.791 44.7739C142.322 44.8701 142.792 44.4079 142.407 44.0318C142.159 43.7904 141.792 43.5608 141.282 43.2858C141.149 43.2135 141.005 43.1587 140.858 43.1219C139.635 42.8172 138.817 42.6825 137.293 42.5597C135.347 42.3532 134.638 42.1152 133.319 41.7088C131.801 41.0972 131.039 40.7091 129.779 39.9659C128.886 39.3531 128.121 39.1255 126.736 38.7268L123.899 37.9816C123.267 37.8155 123.339 37.3366 123.958 37.5492C123.982 37.5577 124.016 37.5675 124.042 37.5725L128.964 38.5257C129.794 38.6863 130.491 37.6409 130.272 36.8251C130.198 36.6298 130.132 36.4486 130.065 36.2819C129.517 34.9207 127.739 35.6904 126.295 35.9497C126.118 35.9815 125.924 36.0113 125.709 36.0398C125.647 36.0481 125.584 36.0472 125.522 36.0376L123.603 35.739C122.96 35.639 123.039 34.6895 123.689 34.6961C124.324 34.7027 123.674 33.6564 124.258 33.4072C124.77 33.1888 125.979 33.0137 128.523 32.8449C128.645 32.8369 128.764 32.7882 128.855 32.707C129.03 32.5503 129.096 32.2932 128.981 32.0882C128.924 31.9856 128.853 31.8836 128.748 31.7638C128.601 31.5967 128.614 31.3572 128.837 31.359Z" fill="#6C9A60"/>
<path d="M11.3062 52.5514C12.9705 52.5505 14.2439 54.0336 13.9913 55.6786L12.6436 64.4546C11.891 69.3548 7.66183 72.9639 2.70422 72.9366L-119.819 72.2602C-125.315 72.2298 -129.756 67.7698 -129.764 62.2738L-129.781 49.3804C-129.783 47.8047 -128.355 46.6385 -126.805 46.9244C-125.129 47.2337 -124.073 48.0474 -122.954 49.0161C-121.835 49.9848 -121.214 50.2171 -120.221 50.5267C-119.227 50.8364 -118.048 50.8745 -117.303 50.9517C-116.558 51.0289 -116.496 50.9125 -115.441 50.6793C-114.387 50.4461 -113.456 49.8253 -112.34 49.2431C-111.223 48.661 -108.307 48.2717 -107.5 48.2325C-106.693 48.1933 -103.215 49.8199 -102.345 50.3623C-101.476 50.9046 -99.0534 52.0277 -97.6871 52.6086C-97.4375 52.7147 -97.1509 52.8241 -96.848 52.9323C-95.0299 53.5816 -93.037 53.5168 -91.2158 52.8762C-91.1778 52.8628 -91.1416 52.85 -91.1074 52.8378C-90.2389 52.5272 -89.4942 52.4492 -88.501 52.4875C-87.5079 52.5257 -85.8934 53.0289 -84.9622 53.1447C-84.4868 53.2039 -83.683 53.2239 -82.986 53.2272C-82.3187 53.2303 -81.6547 53.1475 -81.0033 53.0022L-78.3638 52.4134C-77.758 52.2783 -77.1412 52.1987 -76.5205 52.1941C-76.0013 52.1903 -75.3325 52.1922 -74.5979 52.2088C-72.922 52.2467 -72.7972 52.7506 -72.3 53.2156C-71.8028 53.6806 -70.2505 54.1063 -69.1328 54.4547C-68.0151 54.803 -67.1458 55.074 -66.4624 55.5001C-65.7791 55.9262 -64.103 56.1192 -63.5442 56.1965C-63.3173 56.2279 -62.9526 56.2605 -62.5918 56.2884C-62.0342 56.3315 -61.5049 56.0456 -61.224 55.5619C-61.0404 55.2457 -60.7463 55.0085 -60.3984 54.8961L-57.8486 54.0724C-57.3455 53.9098 -56.8586 53.7005 -56.3945 53.4472L-56.3077 53.3998C-54.9097 52.6367 -53.3426 52.2364 -51.7498 52.2355L-49.8323 52.2345C-48.6692 52.2339 -47.2905 52.6169 -46.3557 52.9489C-45.8534 53.1274 -45.351 53.3075 -44.8349 53.441L-39.0286 54.9429L-38.902 54.9688C-36.5413 55.4509 -34.0859 55.0645 -31.9874 53.8806L-31.458 53.5819C-31.0446 53.3361 -30.1928 52.8446 -30.0935 52.8445C-29.9942 52.8445 -28.0657 52.9727 -27.1139 53.0368C-26.5553 53.0236 -25.376 52.9894 -25.1278 52.9582C-24.8796 52.9271 -24.2385 52.6864 -23.949 52.5699L-22.2739 51.9874C-21.7156 51.8062 -20.4747 51.4127 -19.9783 51.2883C-19.3578 51.1329 -15.3242 50.5105 -14.7657 50.4326C-14.2071 50.3548 -12.0971 50.1211 -11.1662 50.0042C-10.2354 49.8874 -8.9946 49.4215 -7.93983 49.1108C-7.09603 48.8622 -5.47746 49.3421 -4.77364 49.6132L-4.0285 49.8454L-0.985703 50.8906L0.256149 51.2389L7.46706 52.4861C7.87405 52.5565 8.28633 52.5917 8.69936 52.5915L11.3062 52.5514Z" fill="url(#paint19_linear_2481_19099)"/>
<path d="M-109.716 59.9023C-111.179 60.1021 -112.636 59.6739 -113.975 59.0514C-115.27 58.4491 -116.518 57.9088 -117.797 57.3968C-123.642 55.0577 -129.767 59.7369 -129.759 66.0325C-129.752 71.2202 -125.543 75.4211 -120.355 75.4184L-40.7988 75.3767C-37.9565 75.3752 -35.6221 73.1308 -35.5089 70.2908L-34.9642 56.6276C-34.9528 56.3437 -35.3114 56.1924 -35.4887 56.4144C-35.5383 56.4764 -38.1568 57.0878 -39.4598 57.3858L-40.139 57.6287C-41.375 58.0707 -42.1748 59.1149 -42.9941 60.1404C-43.0216 60.175 -43.6653 60.2674 -44.4054 60.3628C-45.524 60.5069 -46.678 60.4955 -47.7334 60.098C-48.1882 59.9267 -48.5695 59.7362 -48.9555 59.5062C-49.5458 59.1545 -50.151 58.8253 -50.7983 58.5947C-51.3061 58.4138 -51.8312 58.2827 -52.3659 58.2138C-53.5264 58.0645 -54.4337 57.9948 -55.6339 58.0679C-56.3944 58.1142 -57.1579 58.1177 -57.9174 58.0583C-59.3404 57.9471 -60.3856 57.9878 -61.99 58.0955C-63.1281 58.2325 -63.9414 58.4061 -64.856 58.73C-65.9528 59.1186 -67.1336 59.252 -68.2578 58.9518L-71.3091 58.1912C-71.9638 58.028 -72.6336 57.9286 -73.308 57.9091C-74.341 57.8791 -75.1635 57.8829 -76.0042 57.93C-77.2872 58.002 -78.518 58.4267 -79.6469 59.0405C-80.9373 59.742 -82.0114 60.2793 -83.1918 60.6259C-84.2936 60.9494 -85.4626 60.8491 -86.5836 60.5997L-89.2357 60.0096C-90.8347 59.5189 -91.9469 59.187 -93.1509 58.6923C-94.2188 58.2536 -95.4548 58.0062 -96.58 58.2647C-97.5241 58.4816 -98.4263 58.561 -99.3872 58.4382C-100.225 58.3311 -101.021 58.2627 -101.923 58.2046C-103.419 58.1081 -104.907 58.4014 -106.302 58.9497C-107.46 59.4051 -108.496 59.7357 -109.716 59.9023Z" fill="#ACCBAB"/>
<path d="M-4.88503 55.1313C-4.12341 54.493 -3.17711 54.1165 -2.1852 54.0564C2.50099 53.7722 4.11629 59.0841 -0.306961 60.6577C-5.19444 62.3964 -11.0862 63.8989 -19.1306 65.59C-19.3811 65.6426 -19.6474 65.6033 -19.8704 65.4777C-20.8169 64.9446 -20.4389 63.5018 -19.3526 63.5012L-18.9732 63.501C-18.8877 63.501 -18.8026 63.4914 -18.7192 63.4726L-2.83566 59.8867C-4.83345 60.2801 -8.59541 61.0353 -8.915 61.1536C-8.87408 61.1638 -8.87174 61.1694 -8.91671 61.1694C-8.94456 61.1694 -8.94285 61.164 -8.915 61.1536C-9.19045 61.0854 -11.2141 60.8129 -12.3312 60.6672L-16.1308 59.7094C-16.8364 59.5316 -17.0313 58.6215 -16.4604 58.1703L-14.629 56.7226C-14.2947 56.4584 -14.5614 55.9256 -14.9732 56.035C-15.4323 56.1568 -15.6731 55.511 -15.2464 55.3025L-14.3252 54.8524C-17.9244 56.0458 -20.9246 57.0222 -23.0027 57.8043C-25.3546 58.6895 -24.6543 59.703 -22.1473 59.5314C-21.3248 59.4752 -20.6155 59.4219 -20.2777 59.3919C-19.8228 59.3515 -16.8186 60.3688 -16.3705 60.4575C-15.7753 60.5754 -16.0564 60.9371 -17.0478 61.1737C-17.333 61.2418 -18.8481 61.377 -20.5248 61.5707C-23.0868 61.8666 -25.7081 61.3993 -28.0023 60.2211C-28.7208 59.8522 -29.2016 59.6508 -29.4706 59.6173C-29.7907 59.5775 -29.6034 60.0273 -29.4116 60.2867C-29.1852 60.593 -29.0233 60.8583 -28.9129 61.1282C-28.6755 61.7084 -29.1642 62.2798 -29.7854 62.3644C-31.2573 62.5649 -32.7823 62.5951 -35.1471 62.5391C-35.4283 62.5324 -35.5153 62.9204 -35.2575 63.0329C-35.2402 63.0405 -35.2228 63.046 -35.2043 63.0495C-33.7873 63.3219 -30.9333 63.8562 -30.6373 63.8561C-30.3985 63.8559 -30.169 63.9489 -29.9976 64.1152L-29.9909 64.1216C-29.8085 64.2986 -29.7068 64.5417 -29.6982 64.7957C-29.6756 65.4592 -29.5959 66.3383 -29.3925 66.4144C-29.2313 66.4746 -27.0402 68.1029 -24.8364 69.7578C-23.1866 70.9967 -23.1785 73.4659 -24.8148 74.7225C-25.3605 75.1416 -26.0293 75.3689 -26.7173 75.3693L-46.6415 75.3797C-50.5973 75.3818 -51.3708 66.6985 -54.6513 68.909C-55.4575 69.4523 -54.7771 67.0087 -54.6538 67.0868C-53.9361 67.5407 -50.3787 64.9809 -48.825 63.2648C-48.6986 63.1252 -48.5987 62.9618 -48.559 62.7776C-48.3417 61.7706 -49.0329 60.9581 -50.5529 59.588C-50.6229 59.5248 -50.5789 59.4078 -50.4846 59.4077C-50.3962 59.4077 -50.3492 59.3034 -50.4076 59.2371L-50.683 58.9249C-50.8117 58.7791 -50.7585 58.5469 -50.564 58.5444C-49.5466 58.5313 -48.3653 60.247 -45.751 62.7471C-45.4964 62.9906 -45.1495 63.1146 -44.7979 63.0924C-44.367 63.0653 -43.9842 62.8167 -43.6964 62.4949C-42.6303 61.3032 -40.4599 60.052 -40.0766 60.3328C-39.897 60.4644 -38.0999 60.4947 -36.2154 60.4266C-35.73 60.4091 -36.0851 59.1698 -35.7959 58.7797C-35.3882 58.2296 -34.0536 58.5304 -33.715 59.1255C-33.6888 59.1716 -33.6614 59.2184 -33.6329 59.2658C-34.0372 58.5253 -28.5633 58.1014 -28.1616 58.5818C-27.757 59.0658 -28.0264 57.6047 -27.9768 57.5736C-27.5736 57.3214 -27.0115 57.2362 -26.9417 56.7658C-26.9348 56.7193 -26.9299 56.6723 -26.9246 56.6207C-26.9235 56.6099 -26.9271 56.599 -26.9342 56.5908C-27.845 55.5463 -28.6757 55.0764 -29.7382 54.3246C-30.05 54.104 -30.1355 53.6819 -29.9452 53.3508C-29.8069 53.1103 -29.5479 52.9635 -29.2707 52.9731C-29.0149 52.9819 -28.787 52.9936 -28.5844 53.0107C-27.8083 53.076 -28.2405 53.3209 -28.7266 53.9295C-28.7682 53.9815 -27.3558 54.4004 -26.301 54.7015C-25.9542 54.8005 -25.5812 54.7169 -25.3049 54.485C-25.1927 54.3909 -25.0887 54.3044 -24.9917 54.2244C-24.3967 53.7341 -23.671 54.2649 -23.4406 55.0007C-23.3353 55.3371 -22.9743 55.5386 -22.6227 55.513L-21.9448 55.4638C-21.708 55.4466 -21.4803 55.3844 -21.2578 55.3015C-19.197 54.5336 -14.3213 54.0474 -12.0786 53.8567C-11.3022 53.7907 -10.5315 53.6566 -9.82844 53.3207C-9.10283 52.974 -8.12486 52.412 -7.25382 51.5919C-7.07873 51.4116 -6.96119 51.2628 -6.94315 51.0783C-6.89855 50.6221 -6.91084 50.0519 -6.45364 50.0194C-6.10664 49.9947 -5.90485 49.8023 -6.05762 49.4897C-6.16171 49.2768 -6.28592 49.0684 -6.35152 48.9887C-6.44595 48.9492 -6.46223 48.9361 -6.3884 48.9549C-6.38055 48.9569 -6.36785 48.9688 -6.35152 48.9887C-5.37694 49.396 3.92117 52.6149 8.38902 52.6305C3.38004 52.8475 -5.95422 52.5988 -5.57655 52.6378C-4.67929 52.7307 -6.77894 54.7579 -9.42239 56.5225C-10.1886 57.0339 -9.78343 58.7272 -8.86217 58.7268L-8.02251 58.7263C-7.23981 58.7259 -7.24981 57.1584 -7.86633 57.6406C-8.01945 57.7604 -6.33595 56.3473 -4.88503 55.1313Z" fill="url(#paint20_linear_2481_19099)"/>
<path d="M-72.3197 57.9934C-72.3436 57.9876 -72.3681 57.9846 -72.3926 57.9846C-72.7683 57.9848 -72.8222 58.5713 -72.4606 58.6732C-71.8403 58.8481 -71.3485 59.0552 -70.9625 59.3417C-70.8969 59.3904 -70.8455 59.4697 -70.8983 59.5321C-71.0212 59.6773 -71.4166 59.8471 -71.8301 60.0136C-72.6339 60.3372 -72.5859 60.8982 -71.764 61.1727C-71.7161 61.1887 -71.668 61.2042 -71.6198 61.2191C-69.7099 61.81 -67.0016 63.6707 -68.2493 65.2328C-68.2978 65.2935 -68.0749 65.504 -67.71 65.7869C-66.128 67.0138 -62.723 66.8829 -62.7257 64.881C-62.7266 64.1637 -62.6167 63.4066 -61.9 63.3779C-60.45 63.3196 -59.1819 62.9807 -56.8154 63.0528C-56.4631 63.0636 -56.3326 62.4994 -56.6623 62.375C-56.6928 62.3635 -56.7257 62.357 -56.7582 62.356C-58.5105 62.2971 -59.2276 62.2983 -59.8597 62.3477C-59.9508 62.3548 -60.045 62.3415 -60.1305 62.3093C-63.3956 61.0803 -63.5413 61.2807 -64.9126 61.0056C-64.9615 60.9958 -64.9552 60.9274 -64.9054 60.9274C-64.8651 60.9274 -64.8483 60.8762 -64.8809 60.8525C-65.8131 60.1741 -66.6699 59.7706 -67.9371 59.1005C-68.0263 59.0533 -68.1211 59.0171 -68.2192 58.9932L-72.3197 57.9934Z" fill="url(#paint21_linear_2481_19099)"/>
<path d="M-93.9536 59.3547C-93.8046 59.3165 -93.7407 59.1404 -93.8305 59.0154C-93.9692 58.8226 -93.7374 58.568 -93.5287 58.6815C-90.9202 60.101 -88.7163 60.6005 -85.0096 61.0512C-84.5778 61.1037 -84.1843 61.3305 -83.9266 61.681L-83.7281 61.9509C-83.6751 62.0231 -83.6019 62.078 -83.5177 62.1087L-83.454 62.132C-83.0284 62.2876 -83.0907 62.9082 -83.5388 62.976C-83.6089 62.9866 -83.6753 63.014 -83.7324 63.056L-84.9937 63.9825C-85.9782 64.7056 -87.1396 65.1496 -88.3554 65.2677L-92.3397 65.6547C-92.4575 65.6662 -92.5765 65.6573 -92.6913 65.6285L-94.5468 65.1636C-95.2901 64.9773 -95.2186 63.8984 -94.4571 63.812L-93.4187 63.694C-92.9759 63.6437 -92.8955 63.0345 -93.31 62.871C-93.7663 62.6911 -93.6102 62.0098 -93.1212 62.0465L-92.5883 62.0865C-92.0448 62.1272 -91.8265 61.4005 -92.3024 61.1349L-94.2322 60.0582C-94.5122 59.9019 -94.458 59.4839 -94.1473 59.4043L-93.9536 59.3547Z" fill="url(#paint22_linear_2481_19099)"/>
<path d="M-5.13015 61.4388C-8.69063 62.4476 -4.8259 75.3578 -1.12527 75.3558L182.975 75.2592C188.449 75.2563 192.883 70.8139 192.876 65.3397L192.869 60.6181C192.865 57.7585 190.545 55.4428 187.686 55.4443C187.29 55.4445 186.895 55.3993 186.509 55.3096L168.96 51.228L151.31 46.3554C150.742 46.1986 150.161 46.0923 149.575 46.0378L139.632 45.1132C139.11 45.0646 138.593 44.9751 138.085 44.8454L124.981 41.5003C123.926 41.231 122.922 40.7912 122.009 40.1984L118.853 38.1493L111.459 32.4537C110.946 31.9672 110.487 31.5281 110.079 31.1287C108.074 29.1679 105.931 27.0429 103.668 25.387C102.981 24.8847 102.328 24.3095 101.64 23.5413C100.388 22.2372 99.579 21.5855 98.7476 21.2471C97.9797 20.9345 97.1217 20.9973 96.2983 21.0945C89.7464 21.8683 85.5066 22.1759 78.9982 22.3477C77.8132 22.379 76.6566 22.7336 75.6631 23.3801L75.3127 23.6082C74.5097 24.1307 73.5724 24.4091 72.6144 24.4096C71.2534 24.4103 69.9643 24.9847 68.9852 25.9299C68.4491 26.4474 67.9879 26.8603 67.5848 27.1972C65.8462 28.6505 63.468 29.1697 61.2039 29.0758L58.6941 28.9717C57.7887 28.9342 56.8764 29.0012 56.0083 29.2609C55.3305 29.4637 54.7994 29.6746 54.3098 29.9319C53.4304 30.3942 52.5665 30.8923 51.6466 31.2675C50.8861 31.5777 50.2653 31.8819 49.6413 32.2495C48.6667 32.8237 47.6458 33.3166 46.5818 33.7008C45.3105 34.16 44.3913 34.6634 43.4516 35.3881C42.628 36.0233 41.776 36.6276 40.8313 37.0629L31.542 41.3427C31.1612 41.5181 30.7558 41.6344 30.3398 41.6875L26.5901 42.1663C25.3594 42.3235 23.9975 43.8178 23.2197 44.7845C23.1621 44.8562 23.0546 44.9766 22.9858 45.0377L12.426 54.4119C8.48341 56.1705 5.96852 57.3243 4.29926 58.2651C3.01759 58.9875 1.70079 59.6859 0.275742 60.0516L-5.13015 61.4388Z" fill="url(#paint23_linear_2481_19099)"/>
<path d="M50.1789 63.1265C50.1587 63.1419 50.1323 63.1158 50.1495 63.0972C53.0327 59.9618 54.8168 58.0218 57.1683 55.1016C57.7131 54.4251 58.1587 53.674 58.5033 52.8766L58.7272 52.3585C58.3471 52.8011 56.2064 53.2729 52.398 54.0807C58.7599 51.9505 60.4059 50.1638 62.3282 47.4389C62.6357 47.003 62.4372 46.3864 61.9294 46.5499C61.3008 46.7523 60.5694 45.9533 61.0108 45.4621C62.1219 44.2257 62.7469 43.0959 62.9388 41.7503C62.9771 41.4816 62.6313 41.3181 62.3761 41.4107C61.9648 41.56 61.9539 41.1149 62.3696 40.9784C66.0105 39.783 68.0299 38.7593 71.2051 37.2154C71.2718 37.183 71.3864 37.1077 71.4453 37.0627C72.3318 36.3849 71.8151 34.5928 72.7514 33.9859C72.9457 33.8599 73.1518 33.7276 73.374 33.5853C73.4813 33.5166 73.5811 33.4352 73.6664 33.3406C74.6857 32.2106 74.1817 32.0136 71.9824 32.4405C71.0328 32.6248 70.1318 32.9958 69.2682 33.4316C66.161 34.9996 62.0372 36.5612 61.6844 36.2795C61.2646 35.9442 69.7855 31.6547 74.4619 29.7203C75.6813 29.1497 76.4728 27.864 77.6202 27.1596C78.1028 26.8633 78.6906 26.5399 79.3561 26.1679C79.6057 26.0284 79.8407 25.855 80.0045 25.6207C80.4227 25.0228 80.1887 24.7257 79.0856 24.4322C79.0273 24.4166 78.9857 24.364 78.9856 24.3036C78.9855 24.2314 79.0447 24.1725 79.1168 24.1715C82.3531 24.1252 83.9254 24.4622 86.5169 24.9267C86.8754 24.991 87.2371 25.0282 87.6013 25.0378C88.9839 25.074 92.0014 25.1392 96.2453 25.2303C97.9787 25.2675 99.6594 25.8416 101.053 26.8735L105.232 29.9681C105.613 30.2506 105.773 30.7445 105.629 31.1968C105.361 32.0377 104.266 32.2442 103.71 31.5588L102.519 30.0911C102.314 29.8376 102.052 29.6331 101.754 29.5009C98.6309 28.1179 96.632 27.8532 93.7768 28.5876C92.922 28.8075 91.9295 28.8166 91.2184 28.2938C90.4407 27.722 89.6863 27.1391 88.7309 27.0019C87.1183 26.7704 85.9324 26.6659 84.8292 26.714C83.6673 26.7646 82.5684 27.2206 81.5922 27.853C79.6695 29.0985 78.5332 30.0726 77.4738 31.2868C76.7663 32.0975 76.3076 33.0838 75.8564 34.0606C75.3676 35.1186 74.8098 35.9194 73.9714 37.0091C73.8919 37.1125 73.8272 37.2266 73.7801 37.3483L72.3091 41.1414C71.9599 42.0416 70.6137 41.7113 70.721 40.7516C70.7905 40.1308 70.1712 39.6614 69.5923 39.8958L66.1622 41.2847C65.1624 41.6896 64.4586 42.5973 64.283 43.6616C63.7834 46.6906 63.2253 48.8199 62.2918 52.0961C62.2334 52.3012 62.1278 52.4924 61.9851 52.6508C57.993 57.082 55.1599 59.3231 50.1789 63.1265Z" fill="#88A793"/>
<path d="M98.5959 21.6431C98.4952 21.5176 98.6366 21.3458 98.7787 21.4211C100.269 22.2109 101.103 22.8039 101.762 23.8688C101.848 24.0082 101.962 24.1305 102.101 24.2178C102.671 24.5763 103.21 24.9143 103.713 25.233C106.774 27.1697 109.841 30.7423 112.533 33.1655L115.637 35.9596C116.082 36.3597 116.562 36.7192 117.07 37.0337L122.001 40.081C122.838 40.5982 123.746 40.9891 124.697 41.241L138.6 44.9241L154.37 48.2502L171.4 52.0099C176.618 53.1619 177.732 62.3121 172.389 62.3149C172.051 62.3151 152.908 60.4758 142.527 59.4741C141.908 59.4144 141.298 59.2972 140.701 59.1239L122.536 53.8501L144.638 58.3748C133.14 55.5995 126.928 53.3772 117.002 49.0701C116.145 48.6983 115.374 48.1489 114.74 47.4627C113.827 46.4737 113.164 45.2416 113.06 43.8993C112.972 42.7566 113.107 41.7633 113.828 40.4395C113.934 40.2454 113.639 40.1902 113.196 40.1836C111.639 40.1602 110.51 39.3555 109.861 37.941L108.953 35.9619C108.889 35.8227 108.858 35.652 108.849 35.4991C108.801 34.6992 107.902 35.174 107.969 35.9726C107.984 36.1505 108 36.3243 108.017 36.4946C108.167 38.0049 106.146 39.0679 105.237 37.8523C104.057 36.2738 102.987 34.6086 101.776 32.4101C101.537 31.9757 100.767 31.557 100.271 31.5664C99.4987 31.5811 99.6252 32.4109 99.981 33.0964C101.365 35.7629 104.4 40.6714 107.504 45.9485L100.181 36.419C98.9889 34.8683 95.8561 35.1014 96.1264 37.0384C96.1341 37.0938 96.1475 37.1417 96.1665 37.1827C96.2986 37.4686 96.7143 37.3092 96.9932 37.1629C97.8556 36.7103 98.9454 36.9391 99.4288 37.7845C99.4822 37.8778 99.5327 37.9698 99.5806 38.0609C100.399 39.6195 98.4979 40.6406 96.7394 40.5533C96.4793 40.5404 96.2024 40.5415 95.902 40.5573C95.8138 40.5619 95.7289 40.5944 95.6594 40.6488C95.4522 40.8109 95.4322 41.1168 95.6171 41.304C97.2661 42.9725 100.01 45.7791 100.056 45.9524C100.119 46.185 101.112 46.766 101.423 46.8822C101.671 46.9751 104.879 47.8238 106.452 48.2366L107.369 48.6062C107.458 48.6423 107.558 48.6417 107.647 48.6046C107.787 48.546 107.95 48.5806 108.055 48.6902C109.981 50.6919 111.33 51.5726 113.845 52.8853C116.323 54.3053 118.37 55.0516 121.399 56.0982C121.605 56.1693 121.536 56.4759 121.32 56.4509C121.305 56.4493 121.291 56.4459 121.277 56.4408L108.647 51.7617C108.548 51.7251 108.443 51.7982 108.443 51.9034C108.444 52.0064 108.343 52.0792 108.245 52.0468L98.8454 48.93C97.4913 48.481 96.2988 47.6445 95.4154 46.5243L94.9665 45.955C93.5146 43.9494 89.328 40.5961 88.8141 40.2976C87.4305 39.494 86.4684 37.3167 86.142 35.5218C85.8273 33.7916 87.2369 33.8414 88.1564 35.3405L89.7533 37.9441C90.0916 38.4957 90.8109 38.6722 91.3661 38.3399C91.6376 38.1775 91.8376 37.9134 91.889 37.6013C92.2253 35.5581 91.5137 33.9087 91.802 32.1431C91.9491 31.2421 92.2771 30.1621 93.1516 29.9001C93.2875 29.8594 93.4156 29.8557 93.5173 29.9042C93.9311 30.1015 94.2908 30.3853 94.6967 30.6629C95.5544 31.2493 96.6505 31.1639 97.6134 30.7739L98.089 30.5814C98.1861 30.5421 98.2894 30.517 98.3936 30.507C99.0075 30.4483 99.5439 30.3945 100.004 30.3415C100.65 30.2672 103.264 30.9682 103.696 31.4546C104.113 31.9245 104.768 31.5738 104.356 31.1C103.778 30.4365 102.719 29.658 100.616 27.0987C100.276 26.6841 100.069 26.1101 99.64 25.7878C99.1602 25.4271 98.4052 25.166 97.918 25.2493C97.6186 25.3004 93.5727 24.9414 93.3244 24.9415C93.1586 24.9416 92.6924 24.8337 92.3745 24.753C92.2628 24.7247 92.1489 24.706 92.0339 24.699L89.2696 24.5317C88.0485 24.4578 88.0346 23.426 89.2262 23.7029C89.4079 23.7452 90.1404 23.7594 90.8442 23.7777C91.5434 23.796 92.2444 23.7677 92.9366 23.6682L94.8741 23.3898L97.5563 22.8018C98.2271 22.6548 99.0796 22.1305 98.5959 21.6431Z" fill="#6F9775"/>
<path d="M142.952 50.5825C142.588 50.1289 143.289 49.3598 142.708 49.3757C142.168 49.3905 141.621 49.4057 141.076 49.4211C140.364 49.4413 140.337 50.2687 141.046 50.3402C141.116 50.3472 141.182 50.3659 141.245 50.3971C144.443 51.9867 150.693 55.076 150.841 55.0759C151.027 55.0758 154.255 55.5394 154.504 55.578C154.658 55.602 157.95 56.3446 160.662 56.9587C160.928 57.0189 160.868 56.4973 161.022 56.2725C161.164 56.0646 162.948 56.5969 163.936 56.9258C164.02 56.9538 164.11 56.9592 164.197 56.941C164.702 56.8356 164.733 56.1237 164.246 55.953C164.16 55.923 164.096 55.8989 164.063 55.8832C163.814 55.767 164.745 55.2237 164.993 55.0685C165.175 54.9543 158.265 54.3103 153.951 53.9278C153.243 53.8649 152.545 53.7284 151.866 53.5168C148.439 52.4486 143.087 50.7506 142.952 50.5825Z" fill="#688B74"/>
<path d="M120.574 56.4954L120.739 56.565C127.661 59.0067 126.334 69.1673 119.017 69.7493L57.7015 74.6271C54.0395 74.6419 46.6409 74.6639 46.3429 74.633C46.2481 74.6232 45.6151 74.4305 44.7065 74.1427C43.1205 73.6404 43.3908 71.3391 45.048 71.1928C45.1218 71.1862 45.1951 71.174 45.267 71.1562L48.2186 70.426C48.781 70.2869 48.8079 69.4974 48.2563 69.3203C48.1768 69.2948 48.0914 69.287 48.0086 69.2973C41.6686 70.0805 38.0671 70.5276 33.7106 71.3643C33.6469 71.3766 33.5817 71.3829 33.5168 71.3829C32.5672 71.3834 32.1415 70.2178 32.8853 69.6275C33.0491 69.4975 33.1575 69.4145 33.1772 69.4057C35.6673 68.2923 43.6454 66.1133 45.4719 66.2444C45.7156 66.2619 45.7375 66.4972 45.585 66.6881C45.1626 67.217 45.7514 67.9208 46.3338 67.5759C48.6696 66.1923 50.3466 64.8407 52.2516 62.6184C52.6965 62.0993 53.503 62.0838 53.9474 62.6033L54.2337 62.9379C54.4323 63.1701 54.4241 63.5147 54.2146 63.7372C53.7853 64.1932 54.2562 64.9188 54.8475 64.7125L55.4993 64.4851C55.9358 64.3329 56.4068 64.5983 56.5027 65.0505L56.8853 66.8553C56.9245 67.0398 56.8856 67.2323 56.778 67.3873C56.5403 67.7297 56.6615 68.2033 57.0345 68.3894L57.3727 68.5581C58.0391 68.8906 58.9114 68.3991 59.2902 67.7579C59.671 67.1132 60.1963 66.6698 60.5463 66.91C66.4819 70.8022 66.9898 70.7499 61.2451 65.1534C61.0778 64.9903 60.9805 64.761 60.9846 64.5274C61.002 63.5447 62.9303 63.181 63.6083 63.8926C63.7841 64.0772 63.9757 64.265 64.1852 64.4574C64.3559 64.6142 64.5815 64.6978 64.8132 64.6977L65.2098 64.6975C65.4243 64.6974 65.6135 64.557 65.6758 64.3518C65.7543 64.0933 66.0281 63.9479 66.2861 64.0278L71.0376 65.498C73.1085 66.1388 75.3622 65.4875 76.772 63.8408L80.5825 59.3901C81.0452 58.8497 81.0372 58.0507 80.564 57.5196C80.4934 57.4404 80.4141 57.3693 80.3277 57.3077L77.7757 55.4889C77.542 55.3224 77.376 55.0774 77.3079 54.7986C77.0048 53.5578 78.5966 52.7694 79.3999 53.7624L79.5331 53.9271C79.6486 54.0699 79.7943 54.1853 79.9598 54.2651L83.2638 55.8584C83.9634 56.1958 84.776 56.2087 85.486 55.8936L86.446 55.4676C87.1932 55.1361 87.5519 54.2772 87.255 53.5157C86.4089 51.3461 85.6832 49.6741 84.5514 47.6988C84.2694 47.2066 83.228 47.4984 82.8484 47.9201C82.7683 48.0092 82.6735 48.1596 82.6623 48.2789L82.6584 48.321C82.5957 48.9878 81.6625 49.0865 81.4619 48.4475L80.9252 46.7387C80.8544 46.5133 80.8679 46.2697 80.9632 46.0535L82.0923 43.4914C82.486 42.598 83.8293 42.9671 83.7112 43.9363C83.6834 44.1647 83.7513 44.3934 83.8855 44.5803C84.5739 45.5385 85.3165 47.041 85.037 47.1234C84.9365 47.1531 86.0263 47.7684 87.0314 48.3269C87.7612 48.7323 88.3788 49.3115 88.8298 50.0141C89.0347 50.3333 89.2754 50.6296 89.5463 50.8951C91.6514 52.9578 93.1454 54.3558 95.2037 55.7851C96.2345 56.5009 97.693 55.9929 97.4721 54.7575C97.197 53.2187 97.8363 51.9595 99.0136 52.9878C100.95 54.679 102.883 57.1753 104.723 58.565C104.85 58.6608 104.986 58.7412 105.129 58.8116L108.187 60.321C108.739 60.5938 109.386 60.1912 109.385 59.5752C109.385 59.3873 109.321 59.2042 109.201 59.0602C108.564 58.2996 107.903 57.7013 107.181 57.1625C106.176 56.4129 106.64 55.1407 107.827 55.5448C108.218 55.6779 108.615 55.8227 109.023 55.9797C110.088 56.3894 111.139 54.8388 110.408 53.9627C109.792 53.2251 110.518 52.2872 111.406 52.6527C113.46 53.4977 116.49 54.7743 120.574 56.4954Z" fill="#739B77"/>
<path d="M120.169 40.5089C120.312 40.5503 120.414 40.3736 120.308 40.2704L119.649 39.6306C119.322 39.3131 119.745 38.8 120.119 39.0607L123.096 41.1363C123.166 41.185 123.246 41.2202 123.329 41.2393C130.585 42.9084 134.17 43.8562 139.035 45.5442C135.912 44.7962 133.642 44.2756 131.14 43.8388C130.511 43.729 130.278 44.6532 130.838 44.9605C131.131 45.1214 131.389 45.2858 131.619 45.4601C131.744 45.5544 131.674 45.7419 131.517 45.742C131.328 45.7421 131.28 46.0057 131.457 46.0737C134.686 47.3113 136.667 48.0463 138.666 48.336L145.415 49.035C145.851 49.0801 145.923 49.6853 145.51 49.8312C145.098 49.9764 145.167 50.5783 145.6 50.627L172.315 53.6301C164.658 52.3546 149.319 49.6331 149.219 48.9508C149.156 48.5207 152.362 48.8365 155.762 49.2997C156.364 49.3819 156.598 48.4602 156.025 48.2558C155.45 48.0508 155.663 47.2594 156.261 47.3804C159.194 47.9739 162.23 48.6626 163.743 49.2146C165.424 49.8276 166.571 50.2312 167.266 50.4698C167.772 50.6437 168.271 50.8411 168.773 51.0265C169.733 51.3808 171.588 51.9917 174.672 52.8534C178.1 53.5418 177.997 58.4758 174.544 59.0209L166.924 60.2241L154.481 63.3481C154.013 63.4655 153.525 63.4722 153.054 63.3676L127.581 57.7049C127.318 57.6464 127.361 57.2595 127.63 57.2593C135.804 58.2889 152.898 61.511 153.268 59.6497C153.44 58.7821 147.585 56.6816 147.553 56.3183C147.544 56.2208 134.61 51.304 133.58 50.6262C132.993 50.24 139.66 51.4681 141.774 51.3586C142.58 51.3168 130.908 49.9172 130.599 49.4258C130.466 49.2143 128.787 48.1139 127.098 46.9782C125.438 45.862 122.76 46.8741 124.39 48.0333C124.622 48.1981 139.855 55.534 147.557 59.1487C143.789 57.7549 136.118 54.9053 135.571 54.6574C134.888 54.3476 128.368 52.2573 127.623 51.87C126.877 51.4827 121.907 47.7632 121.782 47.4918C121.708 47.3297 120.567 46.985 119.58 46.7188C118.986 46.5585 118.365 46.5325 117.756 46.6241L117.211 46.7062C117.155 46.7146 117.098 46.7154 117.042 46.7087C116.444 46.6368 116.096 47.363 116.525 47.7841L118.295 49.5181C118.543 49.7612 118.877 49.8972 119.224 49.897C119.399 49.897 119.572 49.9315 119.734 49.9986L133.276 55.6279L117.779 50.2221C117.678 50.187 117.581 50.1415 117.49 50.0862C117.412 50.0391 117.338 49.9935 117.266 49.9493C116.456 49.4471 115.581 48.0058 114.824 47.4271L114.702 47.3346C114.239 46.9804 114.1 46.3426 114.374 45.8275C114.609 45.3856 115.096 45.1397 115.593 45.2017C118.304 45.54 119.653 45.4524 120.526 44.5108C120.659 44.3676 120.705 44.1626 120.638 43.9789C120.526 43.6699 120.345 43.3887 120.09 43.0945C119.782 42.7392 120.26 42.2514 120.597 41.9232C120.714 41.8092 120.662 41.6701 120.569 41.5356L120.012 40.726C119.937 40.6159 120.041 40.4716 120.169 40.5089Z" fill="#5E895D"/>
<path d="M153.532 63.2908C154.01 63.418 154.585 63.7113 154.471 64.1926C154.451 64.2765 154.417 64.3616 154.372 64.4517C154.24 64.7161 154.155 65.0032 154.175 65.2979C154.228 66.06 153.665 66.7256 152.904 66.7992L89.4787 72.9432L69.3471 72.9538C67.9291 72.9545 66.8502 71.681 67.084 70.2824C67.2561 69.2531 68.1014 68.4697 69.1409 68.3764L84.1874 67.0256C85.139 66.9402 86.0735 66.7188 86.9624 66.3682L92.3121 64.2581C92.7464 64.0869 93.0706 63.7155 93.1816 63.2621C93.3604 62.5321 94.0723 62.063 94.8136 62.1862C95.2872 62.2649 95.7461 62.3413 96.1895 62.4149C98.8854 62.8621 99.1804 61.1646 97.2197 59.2612C96.2451 58.3151 95.4478 57.2395 95.0077 56.0719C94.9892 56.0228 94.9593 55.9788 94.9198 55.9442C94.6349 55.6947 94.9584 55.2489 95.2839 55.4424L97.4616 56.7365C97.5826 56.8084 97.6702 56.9249 97.7109 57.0596C98.2606 58.878 99.2283 59.7278 102.31 60.6845L108.578 63.122C109.427 63.4521 110.039 62.2883 109.285 61.7761C108.534 61.2654 109.141 60.1043 109.989 60.4285L111.009 60.8185C112.014 61.2025 112.715 59.8089 111.807 59.2316L106.711 55.9908L120.747 62.4584C118.762 61.2054 120.266 58.1569 122.469 58.9709L129.374 61.5233L119.703 56.5214C119.112 56.2159 119.026 56.0504 119.684 56.1492C123.657 56.7459 139.658 59.5993 153.532 63.2908Z" fill="#628D6B"/>
<path d="M93.8735 63.9458C96.666 64.3349 101.501 65.0014 104.352 65.3737C105.832 65.567 107.285 66.0071 108.587 66.7371C110.827 67.9929 113.42 69.5326 113.495 69.9064C113.62 70.5267 97.3001 73.4819 93.8869 73.9102C90.4737 74.3385 57.889 75.5187 57.5162 75.2863C57.4531 75.2469 57.4573 75.0424 57.5091 74.7261C57.9894 71.796 61.5019 70.5064 64.4643 70.7089C64.6355 70.7206 64.8133 70.7315 64.9982 70.7415C65.0534 70.7445 65.1107 70.7402 65.165 70.7293C66.9895 70.3624 68.3901 70.2058 69.9295 70.2299C70.2835 70.2354 70.0622 69.3243 69.8406 69.0481C69.6911 68.8619 70.0774 68.9481 70.3125 68.99C71.0046 69.1131 71.6288 69.2021 72.2188 69.2581C73.5206 69.3817 73.5734 68.0614 72.2701 67.9546C70.3319 67.7958 68.2399 67.802 65.4511 67.8767C70.4264 67.0827 73.5034 66.676 78.4761 66.6291C78.9448 66.6247 79.0963 65.9837 78.6756 65.777C78.2289 65.5575 78.4319 64.8983 78.9241 64.9723C84.9276 65.874 86.9312 66.8404 88.7281 68.6787C86.7858 66.6083 88.51 63.2444 91.3249 63.6125L93.8735 63.9458Z" fill="#738966"/>
<path d="M63.9021 32.95C63.7468 33.1236 63.5536 33.2602 63.337 33.3458C61.9074 33.9108 60.9437 32.4325 62.1407 31.468C64.8974 29.2468 67.8919 27.1997 70.0296 25.2853C70.7444 24.6451 71.6306 24.2115 72.5868 24.1321L73.4715 24.0586C74.0771 24.0083 74.6632 23.8199 75.1847 23.5078L75.6857 23.2079C75.7735 23.1554 75.9154 23.1116 76.0163 23.0945C76.9137 22.9421 76.992 23.7732 76.1331 24.0745C75.324 24.3583 74.7281 24.6467 74.4979 24.9922C74.3781 25.1721 74.4487 25.4003 74.5528 25.5898L74.6137 25.7007C74.9648 26.34 74.7639 27.0689 74.4216 27.713C74.4059 27.7425 74.3972 27.766 74.3972 27.7818C74.3985 28.7163 73.2742 29.3719 72.8618 28.5334C72.83 28.4686 72.8002 28.4003 72.7723 28.3281C72.6866 28.106 72.7978 27.6943 72.8871 27.4736C73.1799 26.7494 72.2898 26.6116 71.625 27.0219C71.0871 27.3539 70.478 27.6066 69.6317 27.8441C69.2981 27.9377 68.9854 28.0982 68.7253 28.327C66.729 30.0826 65.4714 31.1948 63.9021 32.95Z" fill="url(#paint24_linear_2481_19099)"/>
<path d="M48.897 33.007C50.2439 32.5101 51.4783 31.7278 52.7017 30.9765C54.0675 30.1378 55.8243 29.2575 57.0028 28.891C57.4762 28.7438 58.0648 29.0579 57.673 29.3617C57.4556 29.5303 57.0793 29.735 56.4826 30.0062C56.2114 30.1295 56.1051 30.4616 56.2605 30.7158C56.3794 30.9103 56.3482 31.1611 56.1854 31.3206L55.2782 32.2092C55.1346 32.3499 55.0966 32.5665 55.1839 32.7476C55.3052 32.9995 55.179 33.3015 54.915 33.3935C53.6424 33.8371 52.6349 34.1756 51.8273 34.4196C51.0787 34.6458 51.6671 33.8484 52.3443 33.457C52.991 33.0833 52.0119 32.8199 51.2913 33.0168C49.5163 33.5018 48.1565 34.0118 46.289 34.8121C46.1657 34.8649 46.0465 34.9282 45.9335 35.0005L41.433 37.8783C40.7864 38.2918 40.0942 38.6295 39.3703 38.8847L29.6649 42.306L30.7193 41.7626L31.2453 41.5367C32.969 40.7965 34.6968 39.8309 36.3974 39.0392C38.2265 38.1876 40.6308 37.1809 42.1332 36.6775C42.2086 36.6523 43.0328 36.0043 43.8504 35.3619C44.642 34.74 45.5278 34.25 46.4723 33.9015L48.897 33.007Z" fill="url(#paint25_linear_2481_19099)"/>
<path d="M26.2536 44.13C26.3799 44.1105 25.2576 43.4043 24.4218 42.8986C24.2706 42.8071 24.092 42.9604 24.1579 43.1244C24.1858 43.194 24.1687 43.2737 24.1155 43.3265C23.8223 43.6176 23.6221 43.8456 23.49 44.0424C23.1861 44.4954 23.0189 45.0787 22.5989 45.4268C18.2725 49.0119 16.2329 50.9541 12.426 54.4119L2.55525 59.2441C2.10649 59.4638 1.63646 59.6496 1.1619 59.8059C-11.0891 63.843 -15.2812 69.7675 -24.4181 73.003C-8.32738 68.4157 -1.26884 61.9783 12.0607 59.7626C11.0685 59.8585 10.5471 57.5626 11.4583 57.1583C17.5309 54.4644 22.6435 51.5127 21.2982 51.7319L20.7499 51.9005C20.149 52.0851 19.7359 51.3032 20.2272 50.9109L20.662 50.5637C21.1398 50.1821 19.8282 49.9079 20.1779 49.4062C21.5587 47.6819 25.6787 44.2192 26.2536 44.13Z" fill="url(#paint26_linear_2481_19099)"/>
<path d="M60.6447 29.68C60.4034 29.6609 60.4014 29.308 60.6425 29.2862L63.7647 29.0034C64.2147 28.9626 64.4477 29.5209 64.1007 29.8103C62.062 31.5102 60.677 32.585 58.8295 34.7766C58.704 34.9254 58.5644 35.0625 58.4117 35.1832L58.0928 35.4352C56.922 36.3606 55.4736 36.8644 53.9813 36.8651L50.9921 36.8667C50.4313 36.867 49.6923 37.0661 49.1965 37.3281C48.5244 37.6832 48.006 37.9592 47.2619 38.1146L32.0222 41.2967C37.5928 39.797 40.9934 38.8731 47.7063 36.5261C49.3025 35.9681 51.0154 35.8029 52.6821 36.0877C53.3952 36.2096 53.9741 36.3131 54.1015 36.3483C54.1678 36.2366 55.6977 35.4125 57.1817 34.6338C58.3631 34.0139 59.3044 33.0161 59.8401 31.7942L60.5291 30.2223C60.5486 30.1779 60.581 30.1404 60.6221 30.1147L60.734 30.0447C60.8955 29.9436 60.8346 29.6951 60.6447 29.68Z" fill="#9DAE9A"/>
<path d="M51.9401 40.8307C52.0675 40.8242 52.1948 40.8017 52.3166 40.7637C53.6541 40.3457 54.7901 39.9043 55.8608 39.3985C56.9434 38.8872 57.6691 39.8057 56.5002 40.0646C56.3657 40.0944 56.2279 40.1206 56.0864 40.1433C56.0197 40.154 55.9515 40.1308 55.9047 40.0822C55.8388 40.0137 55.7354 39.9979 55.6523 40.0442C53.795 41.078 51.8496 42.1701 50.1789 43.1688C47.2222 44.9363 47.9381 46.056 51.0525 44.584C51.6561 44.2987 52.2307 44.028 52.7293 43.8075C53.8348 43.3185 54.077 43.9177 53.404 44.9219C52.4972 46.2753 51.7204 47.383 50.5737 48.7644C50.0194 49.4321 49.1238 49.2187 48.9636 48.3658C48.8383 47.6986 48.1752 48.0072 47.8237 48.5879L45.2383 52.859C44.9633 53.3132 44.6447 53.7404 44.2858 54.1317C41.5769 57.0855 39.7572 58.8818 36.4431 61.2225C36.0029 61.5335 35.0655 61.8362 34.5667 62.0405C33.9431 62.2959 34.6839 62.5232 35.3451 62.6529C37.3463 63.0455 40.204 63.3229 42.1141 63.5855C43.6116 63.7915 43.2459 64.2186 41.7352 64.2716C37.3871 64.4241 34.2578 64.7058 29.5158 65.3855C28.8581 65.4798 28.228 65.7174 27.6696 66.0776C26.9268 66.557 26.0629 66.815 25.1788 66.8216L22.3062 66.843C21.4037 66.8498 20.5062 66.9787 19.6382 67.2262L4.39436 71.5738C4.26674 71.6102 4.12968 71.5909 4.01706 71.5207C3.69672 71.3209 3.73265 70.8434 4.0787 70.6925C9.1002 68.5028 12.2638 67.2876 18.0741 65.7125C18.1248 65.6987 18.1747 65.6785 18.2207 65.6529C18.8046 65.327 18.566 64.4463 17.8978 64.4722C15.6911 64.558 13.9494 64.7417 11.4474 65.191L-5.24454 68.6892L-12.7527 70.3036C-13.1429 70.3875 -13.4967 70.0557 -13.438 69.6609C-13.4006 69.4094 -13.2014 69.2128 -12.9494 69.1787L-9.92064 68.769C-8.16142 68.531 -6.03255 67.9145 -4.29118 67.5694C-3.16265 67.3457 -1.75227 67.0925 -0.183853 66.802C0.28801 66.7146 0.752808 66.5903 1.20903 66.4415C3.19902 65.7923 4.63977 65.4813 7.22331 65.2066C7.30748 65.1976 7.39268 65.1823 7.47461 65.161C8.65916 64.8529 9.56351 64.5987 10.4487 64.3087C11.2026 64.0618 11.1066 63.012 10.327 62.8653C13.6946 63.0528 15.8371 63.0981 17.8629 62.8906C19.4628 62.7268 21.565 63.3239 23.1197 63.7359C25.7209 64.4253 27.9051 61.7455 30.5001 61.0329C30.7045 60.9768 30.9113 60.9189 31.1189 60.8589C33.7761 60.0904 34.3791 57.2254 33.2138 54.7168C33.0807 54.4304 32.9658 54.1707 32.8701 53.9378C32.4524 52.9216 32.6984 52.1425 33.6782 52.6396C34.7035 53.1597 36.6579 53.8013 37.222 52.7996C37.3183 52.6285 37.4134 52.4335 37.5096 52.2108C37.9223 51.2556 37.4975 50.094 37.9418 49.153C38.1644 48.6816 38.8729 48.5296 40.3977 48.1689C40.6456 48.1102 40.8289 48.0105 40.9884 47.8119C41.7126 46.9095 41.0439 45.3078 39.9033 45.502C37.724 45.8729 36.0833 46.104 36.5596 45.9857C41.2474 44.5407 43.925 43.5212 47.3652 41.8412C48.5078 41.2833 49.7472 40.9437 51.0169 40.8783L51.9401 40.8307Z" fill="#9DAE9A"/>
</g>
<defs>
<linearGradient id="paint0_linear_2481_19099" x1="31.492" y1="-21.29" x2="31.492" y2="75.4842" gradientUnits="userSpaceOnUse">
<stop stop-color="#499FF5"/>
<stop offset="1" stop-color="#AFD7FF"/>
</linearGradient>
<linearGradient id="paint1_linear_2481_19099" x1="271.073" y1="38.4201" x2="-174.417" y2="169.31" gradientUnits="userSpaceOnUse">
<stop stop-color="#FEFEFE"/>
<stop offset="1" stop-color="#FEFEFE" stop-opacity="0"/>
</linearGradient>
<linearGradient id="paint2_linear_2481_19099" x1="271.16" y1="38.4204" x2="-174.75" y2="169.58" gradientUnits="userSpaceOnUse">
<stop stop-color="#FEFEFE" stop-opacity="0.57"/>
<stop offset="1" stop-color="white" stop-opacity="0.67"/>
</linearGradient>
<linearGradient id="paint3_linear_2481_19099" x1="271.16" y1="38.4204" x2="-174.75" y2="169.58" gradientUnits="userSpaceOnUse">
<stop stop-color="#FEFEFE" stop-opacity="0.57"/>
<stop offset="1" stop-color="white" stop-opacity="0.67"/>
</linearGradient>
<linearGradient id="paint4_linear_2481_19099" x1="271.073" y1="38.4201" x2="-174.417" y2="169.31" gradientUnits="userSpaceOnUse">
<stop stop-color="#FEFEFE"/>
<stop offset="1" stop-color="#FEFEFE" stop-opacity="0"/>
</linearGradient>
<linearGradient id="paint5_linear_2481_19099" x1="16.1598" y1="27.3504" x2="42.7467" y2="119.388" gradientUnits="userSpaceOnUse">
<stop stop-color="#A7BF89"/>
<stop offset="1" stop-color="#8AB284"/>
</linearGradient>
<linearGradient id="paint6_linear_2481_19099" x1="16.1598" y1="27.3504" x2="42.7467" y2="119.388" gradientUnits="userSpaceOnUse">
<stop stop-color="#A7BF89"/>
<stop offset="1" stop-color="#8AB284"/>
</linearGradient>
<linearGradient id="paint7_linear_2481_19099" x1="16.1598" y1="27.3504" x2="42.7467" y2="119.388" gradientUnits="userSpaceOnUse">
<stop stop-color="#A7BF89"/>
<stop offset="1" stop-color="#8AB284"/>
</linearGradient>
<linearGradient id="paint8_linear_2481_19099" x1="31.492" y1="-21.29" x2="35.4724" y2="277.178" gradientUnits="userSpaceOnUse">
<stop stop-color="#C2D6B3"/>
<stop offset="0.9999" stop-color="#BBEEFF"/>
<stop offset="1" stop-color="#B3CDD6" stop-opacity="0"/>
<stop offset="1" stop-color="#C0DEB9"/>
</linearGradient>
<linearGradient id="paint9_linear_2481_19099" x1="88.4348" y1="-5.86083" x2="87.6047" y2="68.2258" gradientUnits="userSpaceOnUse">
<stop stop-color="#AEC999"/>
<stop offset="1" stop-color="#B4DBC6"/>
</linearGradient>
<linearGradient id="paint10_linear_2481_19099" x1="88.4348" y1="-5.86083" x2="87.6047" y2="68.2258" gradientUnits="userSpaceOnUse">
<stop stop-color="#AEC999"/>
<stop offset="1" stop-color="#B4DBC6"/>
</linearGradient>
<linearGradient id="paint11_linear_2481_19099" x1="88.4348" y1="-5.86083" x2="87.6047" y2="68.2258" gradientUnits="userSpaceOnUse">
<stop stop-color="#AEC999"/>
<stop offset="1" stop-color="#B4DBC6"/>
</linearGradient>
<linearGradient id="paint12_linear_2481_19099" x1="51.8058" y1="45.8731" x2="9.28853" y2="0.251605" gradientUnits="userSpaceOnUse">
<stop stop-color="#7C9C6D"/>
<stop offset="1" stop-color="#92AFB9"/>
<stop offset="1" stop-color="#92B99B"/>
</linearGradient>
<linearGradient id="paint13_linear_2481_19099" x1="125.84" y1="-10.4103" x2="50.922" y2="150.43" gradientUnits="userSpaceOnUse">
<stop stop-color="#BED8A3"/>
<stop offset="1" stop-color="#C6CBC7"/>
</linearGradient>
<linearGradient id="paint14_linear_2481_19099" x1="125.84" y1="-10.4103" x2="50.922" y2="150.43" gradientUnits="userSpaceOnUse">
<stop stop-color="#BED8A3"/>
<stop offset="1" stop-color="#C6CBC7"/>
</linearGradient>
<linearGradient id="paint15_linear_2481_19099" x1="125.84" y1="-10.4103" x2="50.922" y2="150.43" gradientUnits="userSpaceOnUse">
<stop stop-color="#BED8A3"/>
<stop offset="1" stop-color="#C6CBC7"/>
</linearGradient>
<linearGradient id="paint16_linear_2481_19099" x1="16.1598" y1="27.3504" x2="42.7467" y2="119.388" gradientUnits="userSpaceOnUse">
<stop stop-color="#A1BF89"/>
<stop offset="1" stop-color="#8AB284"/>
</linearGradient>
<linearGradient id="paint17_linear_2481_19099" x1="16.1598" y1="27.3504" x2="42.7467" y2="119.388" gradientUnits="userSpaceOnUse">
<stop stop-color="#A1BF89"/>
<stop offset="1" stop-color="#8AB284"/>
</linearGradient>
<linearGradient id="paint18_linear_2481_19099" x1="16.1598" y1="27.3504" x2="42.7467" y2="119.388" gradientUnits="userSpaceOnUse">
<stop stop-color="#A1BF89"/>
<stop offset="1" stop-color="#8AB284"/>
</linearGradient>
<linearGradient id="paint19_linear_2481_19099" x1="31.492" y1="-21.29" x2="35.4724" y2="277.178" gradientUnits="userSpaceOnUse">
<stop stop-color="#B3D6B7"/>
<stop offset="0.9999" stop-color="#BBEEFF"/>
<stop offset="1" stop-color="#B3CDD6" stop-opacity="0"/>
<stop offset="1" stop-color="#C0DEB9"/>
</linearGradient>
<linearGradient id="paint20_linear_2481_19099" x1="88.4348" y1="-5.86083" x2="87.6047" y2="68.2258" gradientUnits="userSpaceOnUse">
<stop stop-color="#99C9A1"/>
<stop offset="1" stop-color="#B4DBC6"/>
</linearGradient>
<linearGradient id="paint21_linear_2481_19099" x1="88.4348" y1="-5.86083" x2="87.6047" y2="68.2258" gradientUnits="userSpaceOnUse">
<stop stop-color="#99C9A1"/>
<stop offset="1" stop-color="#B4DBC6"/>
</linearGradient>
<linearGradient id="paint22_linear_2481_19099" x1="88.4348" y1="-5.86083" x2="87.6047" y2="68.2258" gradientUnits="userSpaceOnUse">
<stop stop-color="#99C9A1"/>
<stop offset="1" stop-color="#B4DBC6"/>
</linearGradient>
<linearGradient id="paint23_linear_2481_19099" x1="51.8058" y1="45.8731" x2="9.28853" y2="0.251605" gradientUnits="userSpaceOnUse">
<stop stop-color="#6E9C6D"/>
<stop offset="1" stop-color="#92AFB9"/>
<stop offset="1" stop-color="#92B99B"/>
</linearGradient>
<linearGradient id="paint24_linear_2481_19099" x1="125.84" y1="-10.4103" x2="50.922" y2="150.43" gradientUnits="userSpaceOnUse">
<stop stop-color="#AED8A3"/>
<stop offset="1" stop-color="#C6CBC7"/>
</linearGradient>
<linearGradient id="paint25_linear_2481_19099" x1="125.84" y1="-10.4103" x2="50.922" y2="150.43" gradientUnits="userSpaceOnUse">
<stop stop-color="#AED8A3"/>
<stop offset="1" stop-color="#C6CBC7"/>
</linearGradient>
<linearGradient id="paint26_linear_2481_19099" x1="125.84" y1="-10.4103" x2="50.922" y2="150.43" gradientUnits="userSpaceOnUse">
<stop stop-color="#AED8A3"/>
<stop offset="1" stop-color="#C6CBC7"/>
</linearGradient>
</defs>
</svg>
