<svg width="328" height="100" viewBox="0 0 328 100" fill="none" xmlns="http://www.w3.org/2000/svg">
<path d="M10 78.2457C4.47715 78.2457 0 73.7685 0 68.2457V10C0 4.47715 4.47716 0 10 0H317.839C323.362 0 327.839 4.47716 327.839 10V68.2457C327.839 73.7685 323.362 78.2457 317.839 78.2457H10Z" fill="url(#paint0_linear_1702_16564)"/>
<path d="M56.2377 21.1083C63.0397 25.002 63.9078 20.8768 74.7821 19.6184C77.5896 19.2935 80.646 18.2346 83.4636 18.4546C83.7947 18.4805 84.1496 18.5201 84.5296 18.576C88.6975 19.1888 96.6506 19.7956 101.989 21.587C107.328 23.3784 114.943 20.9881 118.75 23.4471C122.558 25.9061 135.581 25.1826 137.218 26.7277C138.855 28.2728 129.007 27.4577 128.035 29.5256C127.063 31.5935 99.7 35.6747 93.1492 34.1981C86.5984 32.7216 88.0824 34.4282 81.2716 32.7624C74.4608 31.0965 76.6182 34.9805 70.9397 34.1253C65.2612 33.2701 61.1927 31.2749 56.9707 30.9767C52.7488 30.6784 49.5324 30.5415 44.249 30.3961C38.9657 30.2507 34.7086 27.8193 36.245 21.3718C37.7815 14.9244 48.6092 16.7416 56.2377 21.1083Z" fill="url(#paint1_linear_1702_16564)"/>
<path d="M39.0483 21.528C39.6816 21.611 40.2911 21.7546 40.9228 21.8492C42.5577 22.0939 46.6934 22.4307 56.0258 21.9297C58.8074 21.7804 61.6727 20.4066 64.4581 20.3794C65.035 20.3738 65.685 20.4114 66.415 20.5086C71.0235 21.1223 79.8742 21.5743 85.6756 23.6472C91.477 25.72 100.252 22.3539 104.27 25.3427C108.288 28.3315 122.955 26.8761 124.633 28.7848C126.312 30.6936 115.358 30.0525 114.06 32.7359C112.763 35.4192 81.6888 41.7513 74.4972 40.1303C67.3057 38.5093 68.7963 40.6308 61.3324 38.7784C53.8686 36.9259 55.8942 41.8037 49.6173 40.9416C43.3404 40.0794 38.9828 37.6943 34.2819 37.4849C29.581 37.2756 25.9906 37.2315 20.0849 37.2608C14.1793 37.29 9.65432 34.3548 12.0266 26.0493C14.1265 18.6975 34.4162 20.9205 39.0483 21.528Z" fill="url(#paint2_linear_1702_16564)"/>
<path d="M184.366 32.8527C183.845 32.7516 183.337 32.6083 182.818 32.5017C181.62 32.2559 178.788 31.8335 172.723 31.5719C170.012 31.455 167.03 32.309 164.357 31.8472C164.248 31.8284 164.136 31.8078 164.022 31.7853C160.606 31.1118 154.048 30.2776 149.74 28.6079C145.431 26.9382 138.951 28.522 135.959 26.3839C132.966 24.2458 122.111 24.2568 120.858 22.9463C119.604 21.6359 127.72 22.7198 128.665 21.1042C129.611 19.4886 152.589 17.412 157.924 18.8823C163.26 20.3525 162.144 18.9192 167.682 20.5526C173.221 22.186 171.693 18.9774 176.346 19.9113C181 20.8453 184.241 22.6229 187.724 23.0465C191.206 23.4701 193.866 23.7205 198.239 24.068C202.613 24.4155 205.981 26.5511 204.271 31.6537C202.77 36.1357 187.949 33.5485 184.366 32.8527Z" fill="url(#paint3_linear_1702_16564)"/>
<path d="M134.945 27.7327C130.02 26.3488 130.411 28.3644 124.848 29.9084C122.947 30.436 120.751 31.3794 118.778 31.4056C116.135 31.4407 111.241 31.7964 107.589 31.3249C103.937 30.8534 100.039 32.7189 97.1209 31.7763C94.2033 30.8337 86.6442 32.2975 85.2604 31.6419C83.8767 30.9862 89.954 30.5784 89.9842 29.4356C90.0145 28.2929 105.218 23.903 109.508 24.1113C113.798 24.3196 112.462 23.5682 116.957 23.8518C121.452 24.1354 119.139 22.3231 122.745 22.2856C126.351 22.2482 129.301 22.9309 131.893 22.7298C134.485 22.5287 136.435 22.3291 139.618 21.9606C142.801 21.592 145.979 22.4827 146.773 25.9204C147.568 29.3582 140.642 29.3338 134.945 27.7327Z" fill="url(#paint4_linear_1702_16564)"/>
<path d="M2.38321 60.8758C2.2671 60.8822 2.10014 60.8487 1.99049 60.81C1.19856 60.5305 0.124532 61.1199 0.124532 61.9597V71.4308C0.124532 72.8995 0.766552 74.2948 1.88197 75.2503L2.15544 75.4845C3.50217 76.6381 5.30564 77.1113 7.04833 76.7834C20.9947 74.1594 31.0693 72.7841 40.2183 68.3159C42.7133 67.0974 42.5264 64.9266 40.0078 63.7576C39.0071 63.2931 37.8027 62.5557 36.7962 63.0072C36.4605 63.1578 36.1278 63.3483 35.7519 63.5647C35.1345 63.92 34.4559 64.1731 33.7437 64.1871C33.3206 64.1954 32.885 64.1827 32.26 64.2266C32.0719 64.2398 31.8824 64.2938 31.7179 64.3859C30.9497 64.816 29.9641 64.9702 29.277 64.4199C27.696 63.1537 25.5963 61.68 25.5418 61.6454C25.3317 61.5119 25.0777 61.4896 23.1758 61.4164C22.2775 61.3818 21.389 61.2264 20.5533 60.8953C18.1784 59.9543 14.045 58.1542 11.6075 57.7667C10.6019 57.6068 9.56045 57.8775 8.70272 58.4263C7.37393 59.2764 5.48611 60.7044 2.38321 60.8758Z" fill="#7F956D"/>
<path d="M7.88217 73.4243C7.98186 73.399 20.0315 71.0897 25.8322 69.9714C26.8114 69.7826 26.7445 68.9157 25.7941 69.2176C25.4556 69.3251 24.785 69.9387 23.6497 70.2192C23.3258 70.289 23.0337 70.3464 22.7654 70.3927C21.7213 70.5732 22.0851 69.0643 21.8882 68.0232C21.843 67.7844 21.6931 67.9667 21.4561 68.0211C20.7121 68.1919 20.1975 68.2813 19.5249 68.3457C19.2992 68.3673 18.9795 68.2083 18.8218 68.0454C18.1643 67.3662 16.3885 66.7433 16.0252 67.616C15.6951 68.409 15.4831 69.0455 15.2614 69.2176C13.8737 70.295 11.8886 70.4579 10.2372 69.8584C8.83583 69.3497 8.44067 68.7318 8.82822 68.3762C8.93683 68.2643 9.04047 68.1928 9.15429 68.1489C9.30014 68.0926 9.36128 67.8538 9.2219 67.783C9.21176 67.7778 9.20199 67.7713 9.19334 67.7639C7.37756 66.2132 7.09991 65.6085 8.07138 64.8906C9.14356 64.3046 9.99689 64.1854 10.9345 64.161C11.6711 64.1418 11.9563 63.3917 11.293 63.0706C11.2354 63.0427 11.1296 63.0008 11.067 62.9874C10.8561 62.9421 10.6624 62.8987 10.4824 62.8561C9.64993 62.6594 9.89091 61.5778 10.5197 60.998C10.7054 60.8268 10.7202 60.6597 10.6908 60.4089C10.6576 60.126 10.603 59.8991 10.544 59.7054C10.4059 59.2522 10.7105 58.8567 11.184 58.8741L12.2847 58.9144C12.6834 58.929 12.8668 58.424 12.5517 58.1794C12.4692 58.1153 12.3643 58.0851 12.2603 58.0954C9.41289 58.377 8.04215 58.8973 6.49462 59.7624C5.122 60.3231 4.33751 60.6245 2.91424 61.0797C2.87382 61.0926 2.87552 61.1505 2.91665 61.1609C2.95973 61.1719 2.95877 61.2334 2.91536 61.243L0.6523 61.743C0.380857 61.803 0.187602 62.0436 0.187602 62.3216V62.6313C0.187602 63.2815 0.81013 63.7507 1.43514 63.5717L1.74582 63.4827C2.5557 63.2507 3.35184 63.8886 3.30189 64.7296L3.28742 64.9731C3.28125 65.077 3.2515 65.1781 3.20043 65.2688C2.79917 65.9815 3.9081 66.8062 4.25037 66.0634C4.36205 65.821 4.45919 65.5647 4.53945 65.2913C4.33859 66.0292 4.14541 66.7128 3.94457 67.3587C3.01886 70.336 4.86029 74.1922 7.88217 73.4243Z" fill="#6FA247"/>
<path d="M39.1807 63.5839C39.1845 63.907 39.5667 64.0021 39.8774 64.0906C40.6909 64.3223 42.1638 64.5885 43.3415 64.8894C44.0265 65.0644 43.9769 65.7155 43.3235 65.9855C43.1751 66.0468 42.9907 66.0802 42.8317 66.0577C41.1558 65.82 39.9895 65.6966 38.3978 65.6418C38.1011 65.6316 38.0445 65.1385 38.2887 64.9696C38.4982 64.8248 38.3431 64.54 38.0884 64.5401C37.6246 64.5402 37.3366 64.5236 37.1777 64.4822C37.0253 64.4425 37.0956 64.2826 37.2251 64.1931C37.5561 63.9643 37.7715 63.7722 37.9231 63.5663C38.1448 63.2651 38.4786 63.2008 38.8496 63.248C39.1517 63.2863 39.1789 63.435 39.1807 63.5839Z" fill="url(#paint5_linear_1702_16564)"/>
<path d="M29.3697 64.856C29.7152 65.2492 29.305 65.3761 28.9085 65.0343L28.4598 64.6475C28.1263 64.36 27.598 64.5093 27.7908 64.9051C27.8325 64.9907 27.8869 65.0808 27.9536 65.178C28.1006 65.3921 28.0069 65.7189 27.763 65.8081C27.3941 65.9431 26.9585 65.2431 26.8373 64.8695C26.7743 64.6751 26.6804 64.4608 26.5598 64.2277C26.2362 63.6018 26.847 62.9182 27.4356 63.3057C28.2858 63.8654 28.9877 64.4212 29.3697 64.856Z" fill="url(#paint6_linear_1702_16564)"/>
<path d="M20.8111 61.451C20.8111 61.451 20.8112 61.4509 20.8112 61.4509C20.8119 61.4498 20.8112 61.4498 20.8111 61.451C20.7587 61.5253 18.474 60.2389 18.0995 60.163C17.7916 60.1006 15.1511 59.1933 13.601 58.6215C13.3181 58.5172 12.9625 58.6161 12.9176 58.9143C12.8556 59.327 13.1598 59.6412 13.8248 59.986C14.0936 60.1253 13.7417 60.5111 13.724 60.8133C13.7166 60.9387 13.8331 60.9149 13.9554 60.8861C14.2854 60.8085 14.741 60.6473 15.099 60.6087C15.2482 60.5926 15.397 60.6278 15.538 60.6791C16.1495 60.9016 16.6267 61.1334 17.0685 61.3479C17.9418 61.7719 18.1785 62.3302 17.2924 62.7265C16.3573 63.1446 17.2018 63.7494 18.1615 63.3916C18.3516 63.3207 18.5614 63.2466 18.7933 63.1678C20.228 62.7591 20.7338 62.4101 20.8111 61.451Z" fill="url(#paint7_linear_1702_16564)"/>
<path d="M76.8782 57.2914C80.0253 57.2914 81.7545 60.9521 79.7557 63.383L74.7822 69.4313C73.616 70.8495 71.9712 71.7843 70.1555 72.0575C57.33 73.9873 36.4136 77.1633 37.2098 77.1633C38.0676 77.1633 12.8437 79.1131 0.124532 80.088C0.124532 76.8517 2.86342 74.3646 6.0868 74.0753C6.65619 74.0242 7.26713 73.9589 7.94524 73.8781L17.7211 71.955C24.8502 70.5084 29.0847 69.6119 35.9055 68.797C37.0995 68.6544 38.2608 68.3036 39.3413 67.7758C39.985 67.4614 40.5294 67.2092 40.9978 67.0169C42.1952 66.5253 43.5023 66.284 44.7514 65.9444C45.5061 65.7392 46.1678 65.6162 46.9106 65.5171C47.6713 65.4157 48.4266 65.2624 49.1459 64.9949C51.053 64.2857 52.0659 63.7439 53.545 62.8604L60.6959 59.418C61.3036 59.1254 61.858 58.7184 62.2534 58.172C62.4689 57.8742 62.6334 57.6034 62.7459 57.3393C63.1385 56.4174 63.1687 55.1562 64.0683 54.715C64.4603 54.5228 64.8701 54.5143 65.3035 54.5672L70.8835 55.2478C71.9709 55.3804 73.0237 55.7161 73.9871 56.2374L75.1052 56.8425C75.6497 57.1371 76.2591 57.2914 76.8782 57.2914Z" fill="#7C9C6D"/>
<path d="M65.1499 54.6071C64.5965 54.664 64.3082 54.7394 63.8254 54.9276L63.8223 54.9289C63.5053 55.0616 63.2981 55.1484 63.0384 55.3844C62.8891 55.52 62.7949 55.7097 62.8899 55.8875C62.974 56.0447 63.0747 56.2285 63.0535 56.4056C63.021 56.6767 62.9375 56.8569 62.8163 57.1312L61.9964 58.4933C61.4141 59.2331 60.6844 59.8437 59.8535 60.2864L57.2031 61.6985L52.7251 63.6616L49.5716 65.2242C48.7354 65.6717 48.2798 65.9216 46.9857 66.386C46.0648 66.5799 45.4531 66.6551 44.0214 66.6665C43.5138 66.6803 43.3113 66.6035 42.9514 66.467C42.95 66.4664 42.9483 66.4662 42.9468 66.4664C41.542 66.6268 41.0395 67.1689 38.8105 68.162C38.2123 68.4285 37.5799 68.6128 36.9372 68.7384L32.1642 69.6713L20.5593 71.995C17.4404 72.4693 15.7233 72.6418 12.4295 73.3944C11.9631 73.501 11.4903 73.579 11.0137 73.6218L0.560366 74.5601C0.313603 74.5822 0.124532 74.789 0.124532 75.0368C0.124532 75.3032 0.341496 75.5184 0.607855 75.5146C5.207 75.449 10.1266 75.1696 12.9089 75.1056C14.4604 75.07 14.3433 75.4416 12.8117 75.6918C9.94072 76.1608 6.83897 76.5208 1.55015 77.0663C1.44229 77.0774 1.33385 77.0997 1.23051 77.1326C0.57191 77.3418 0.124532 77.9532 0.124532 78.6443V80.088L5.17662 79.8149C5.75984 79.7834 6.33918 79.7008 6.90799 79.5681L23.4729 75.7049C23.8802 75.61 24.2619 75.4273 24.5914 75.1697C24.8035 75.0039 25.0379 74.8679 25.2886 74.7695C27.3336 73.9664 28.7757 73.5848 31.3443 72.9966L39.831 70.9001C40.2189 70.8043 40.6266 70.8279 41.0009 70.9677C41.3269 71.0895 41.6793 71.1234 42.0226 71.0659L55.3115 68.8404C55.353 68.8335 55.3934 68.8211 55.4317 68.8036C55.9464 68.5684 55.7013 67.7921 55.1449 67.895L52.0191 68.4735C51.4734 68.5745 50.9852 68.0997 51.3792 67.7088C51.6299 67.46 52.0013 67.2232 52.5166 66.9398C52.6545 66.864 52.8022 66.8064 52.9548 66.7676C54.1943 66.4528 55.0258 66.3134 56.5724 66.1857C58.5498 65.9713 59.2692 65.7249 60.6089 65.3043C62.1514 64.6715 62.9243 64.2701 64.2039 63.5014C65.1104 62.8677 65.8876 62.632 67.2943 62.2193L70.1791 61.447C70.8302 61.2726 70.7537 60.7776 70.1175 61.0005C70.0918 61.0095 70.0559 61.0201 70.0292 61.0253L65.0604 62.0067C64.2027 62.1761 63.4771 61.1017 63.6993 60.2562C63.7752 60.0506 63.8432 59.8601 63.9124 59.6852C64.4613 58.2977 66.2671 59.0809 67.735 59.3487C67.915 59.3816 68.1125 59.4124 68.3307 59.4418C68.3958 59.4506 68.4625 59.4497 68.5273 59.4394L70.4756 59.13C71.1389 59.0246 71.0562 58.0453 70.3847 58.0526C69.7344 58.0599 70.404 56.9816 69.8076 56.7221C69.2889 56.4963 68.0612 56.3159 65.4755 56.1427C65.3487 56.1342 65.2248 56.0831 65.1307 55.9977C64.9534 55.8368 64.8867 55.5758 65.0014 55.3657C65.0604 55.2575 65.1329 55.1501 65.2421 55.0236C65.3908 54.8512 65.3775 54.6051 65.1499 54.6071Z" fill="#739A60"/>
<path d="M184.605 76.4422C182.913 76.4422 181.618 77.9492 181.873 79.622L183.303 89.0092C184.05 93.9171 188.286 97.5334 193.25 97.5029L318.025 96.7358C323.524 96.702 327.963 92.2349 327.963 86.736L327.963 73.0383C327.963 71.4377 326.509 70.2567 324.936 70.5527C323.233 70.8732 322.161 71.7146 321.026 72.7162C319.89 73.7178 319.26 73.9582 318.251 74.2787C317.241 74.5992 316.043 74.6393 315.286 74.7194C314.529 74.7995 314.466 74.6793 313.394 74.439C312.322 74.1986 311.376 73.5575 310.241 72.9566C309.105 72.3556 306.141 71.955 305.321 71.9149C304.501 71.8748 300.969 73.5575 300.086 74.1184C299.203 74.6793 296.744 75.8412 295.356 76.4422C295.102 76.5521 294.811 76.6656 294.502 76.7777C292.659 77.4484 290.632 77.3828 288.784 76.7234C288.744 76.7092 288.706 76.6955 288.671 76.6826C287.788 76.362 287.031 76.2819 286.022 76.322C285.013 76.362 283.373 76.8829 282.427 77.0031C281.944 77.0644 281.127 77.0855 280.419 77.0893C279.741 77.0929 279.066 77.0078 278.405 76.8582L275.72 76.2508C275.105 76.1116 274.478 76.0297 273.848 76.0253C273.32 76.0216 272.64 76.024 271.894 76.0415C270.191 76.0816 270.065 76.6024 269.56 77.0832C269.056 77.564 267.479 78.0047 266.344 78.3653C265.209 78.7258 264.326 79.0063 263.632 79.447C262.938 79.8877 261.235 80.088 260.668 80.1682C260.44 80.2003 260.076 80.2338 259.714 80.2625C259.14 80.3082 258.594 80.012 258.308 79.5119C258.122 79.1864 257.821 78.9416 257.465 78.8248L254.882 77.978C254.367 77.8092 253.87 77.592 253.396 77.3294L253.312 77.2832C251.89 76.4951 250.291 76.0816 248.665 76.0816H246.729C245.546 76.0816 244.143 76.479 243.194 76.8229C242.686 77.0069 242.178 77.1925 241.655 77.3303L235.755 78.8861L235.623 78.9135C233.229 79.4121 230.736 79.0163 228.614 77.8011L228.06 77.4838C227.64 77.2301 226.774 76.7226 226.673 76.7226C226.572 76.7226 224.612 76.8562 223.645 76.9229C223.078 76.9096 221.879 76.8749 221.627 76.8428C221.375 76.8108 220.723 76.5624 220.429 76.4422L218.726 75.8412C218.158 75.6542 216.897 75.2483 216.392 75.12C215.762 74.9598 211.662 74.3188 211.094 74.2386C210.527 74.1585 208.382 73.9181 207.436 73.7979C206.49 73.6777 205.229 73.1969 204.157 72.8764C203.299 72.62 201.655 73.1168 200.94 73.3973L200.183 73.6376L197.093 74.7194L195.831 75.08L188.506 76.3726C188.092 76.4455 187.673 76.4822 187.254 76.4822L184.605 76.4422Z" fill="url(#paint8_linear_1702_16564)"/>
<path d="M307.59 83.9727C309.075 84.1779 310.553 83.736 311.908 83.0944C313.159 82.502 314.365 81.9675 315.597 81.4611C321.612 78.9883 327.963 83.8104 327.963 90.3142C327.963 95.6635 323.627 100 318.278 100H237.62C234.71 100 232.319 97.7038 232.201 94.7966L231.627 80.6231C231.615 80.3342 231.981 80.1813 232.16 80.4085C232.21 80.4726 234.872 81.103 236.196 81.4101L236.864 81.6526C238.135 82.1139 238.955 83.1923 239.791 84.2547C239.819 84.2904 240.473 84.3855 241.225 84.4836C242.362 84.632 243.536 84.6192 244.606 84.2085C245.07 84.0305 245.459 83.8325 245.853 83.5933C246.449 83.2309 247.061 82.8921 247.717 82.654C248.234 82.4663 248.77 82.33 249.315 82.2584C250.492 82.1038 251.413 82.0314 252.632 82.1062C253.405 82.1536 254.181 82.1568 254.953 82.095C256.399 81.9794 257.461 82.0209 259.091 82.1313C260.249 82.2725 261.076 82.4516 262.007 82.7866C263.12 83.1869 264.32 83.3233 265.461 83.0127L268.561 82.2251C269.225 82.0562 269.906 81.9531 270.591 81.9325C271.643 81.9009 272.48 81.9045 273.337 81.9531C274.636 82.0268 275.882 82.4623 277.022 83.0915C278.339 83.819 279.434 84.376 280.638 84.7346C281.757 85.0679 282.946 84.9639 284.085 84.7056L286.779 84.0945C288.404 83.5861 289.534 83.2424 290.758 82.7299C291.84 82.2768 293.096 82.0211 294.239 82.2874C295.198 82.5109 296.116 82.5924 297.093 82.465C297.944 82.3539 298.752 82.2829 299.669 82.2223C301.187 82.1219 302.698 82.4229 304.111 82.9871C305.293 83.4588 306.348 83.801 307.59 83.9727Z" fill="#B9CBAB"/>
<path d="M201.079 79.1145C200.293 78.4458 199.311 78.0508 198.281 77.9879C193.485 77.6947 191.804 83.1397 196.321 84.7779C201.306 86.5857 207.315 88.143 215.538 89.8961C215.8 89.9521 216.079 89.9101 216.312 89.7766C217.281 89.2206 216.887 87.7403 215.769 87.7403H215.392C215.302 87.7403 215.213 87.7303 215.126 87.7103L198.985 84.0144C201.015 84.4197 204.839 85.198 205.164 85.3202C205.122 85.3307 205.12 85.3365 205.166 85.3365C205.194 85.3365 205.192 85.3308 205.164 85.3202C205.444 85.2496 207.5 84.9668 208.635 84.8156L212.49 83.8249C213.215 83.6388 213.416 82.7058 212.833 82.2378L210.958 80.7339C210.617 80.4601 210.894 79.9147 211.316 80.0285C211.788 80.1554 212.038 79.4932 211.601 79.2763L210.653 78.806C214.329 80.0429 217.39 81.0539 219.504 81.8629C221.88 82.7722 221.157 83.8126 218.619 83.6375C217.778 83.5795 217.052 83.5245 216.708 83.4935C216.238 83.4514 213.185 84.5012 212.724 84.6C212.139 84.7252 212.429 85.0946 213.428 85.3365C213.718 85.4067 215.258 85.5457 216.962 85.7449C219.563 86.049 222.226 85.5678 224.545 84.3528C225.281 83.9671 225.774 83.7566 226.049 83.7216C226.377 83.6797 226.184 84.1451 225.99 84.413C225.759 84.7322 225.594 85.0082 225.482 85.2894C225.244 85.8876 225.745 86.4737 226.383 86.5614C227.875 86.7664 229.423 86.7965 231.819 86.7376C232.108 86.7305 232.2 87.1297 231.935 87.2475C231.917 87.2555 231.898 87.2614 231.879 87.2652C230.439 87.5474 227.541 88.1009 227.24 88.1009C226.998 88.1009 226.765 88.1965 226.593 88.3669L226.58 88.379C226.397 88.56 226.296 88.8066 226.288 89.0639C226.266 89.7506 226.186 90.6661 225.979 90.7452C225.815 90.8077 223.579 92.5 221.336 94.2159C219.66 95.4987 219.653 98.0188 221.318 99.3169C221.886 99.7596 222.586 100 223.306 100H243.409C247.489 100 248.282 91.006 251.649 93.3093C252.468 93.8702 251.774 91.3456 251.649 91.4263C250.92 91.8956 247.303 89.2536 245.721 87.4811C245.592 87.3361 245.49 87.1671 245.45 86.9771C245.227 85.9361 245.929 85.0959 247.473 83.6783C247.544 83.6129 247.498 83.4935 247.402 83.4935C247.311 83.4935 247.263 83.3871 247.322 83.3187L247.603 82.9938C247.734 82.8424 247.679 82.6034 247.479 82.6014C246.445 82.5908 245.247 84.3643 242.595 86.9482C242.338 87.1987 241.984 87.3268 241.626 87.304C241.19 87.2763 240.803 87.0232 240.515 86.6948C239.432 85.4616 237.217 84.1641 236.827 84.4551C236.645 84.5909 234.825 84.6233 232.914 84.5545C232.412 84.5364 232.771 83.2582 232.475 82.8525C232.064 82.2898 230.704 82.5936 230.366 83.2027C230.338 83.2531 230.309 83.3041 230.278 83.356C230.688 82.5906 225.125 82.1556 224.717 82.6522C224.307 83.1525 224.579 81.6425 224.528 81.6105C224.12 81.3514 223.551 81.2644 223.477 80.7868C223.469 80.7354 223.464 80.6836 223.458 80.6263C223.457 80.6152 223.46 80.6039 223.468 80.5954C224.392 79.5153 225.236 79.0293 226.315 78.2515C226.632 78.0228 226.719 77.5916 226.526 77.2514C226.383 76.9998 226.113 76.8459 225.824 76.8564C225.568 76.8656 225.34 76.8778 225.136 76.8954C224.344 76.964 224.793 77.2194 225.285 77.8444C225.327 77.8981 223.899 78.3299 222.828 78.6415C222.473 78.7451 222.089 78.6585 221.806 78.4181C221.699 78.3264 221.598 78.2416 221.504 78.163C220.897 77.6543 220.148 78.1952 219.916 78.9529C219.809 79.3012 219.438 79.51 219.074 79.4833L218.397 79.4337C218.156 79.416 217.924 79.3518 217.698 79.2662C215.602 78.4738 210.646 77.9739 208.368 77.7782C207.579 77.7105 206.797 77.5724 206.085 77.2274C205.347 76.8697 204.351 76.289 203.463 75.4406C203.279 75.2485 203.158 75.091 203.145 74.8916C203.116 74.4281 203.118 73.8519 202.655 73.8166C202.297 73.7894 202.09 73.5921 202.245 73.2689C202.35 73.0489 202.476 72.8335 202.542 72.7511C202.638 72.7103 202.655 72.6967 202.58 72.7162C202.572 72.7183 202.559 72.7305 202.542 72.7511C201.553 73.1726 192.109 76.5038 187.569 76.5223C192.659 76.7438 202.144 76.4818 201.76 76.5223C200.847 76.6189 202.993 78.7201 205.688 80.5444C206.474 81.0761 206.054 82.8124 205.105 82.8124H204.258C203.451 82.8124 203.462 81.1888 204.094 81.6906C204.249 81.8138 202.551 80.3668 201.079 79.1145Z" fill="url(#paint9_linear_1702_16564)"/>
<path d="M269.586 82.0205C269.611 82.0143 269.637 82.0111 269.662 82.0111C270.05 82.0111 270.106 82.6149 269.734 82.7218C269.103 82.9029 268.603 83.1172 268.21 83.4137C268.143 83.4644 268.091 83.5462 268.145 83.6108C268.269 83.7605 268.67 83.9354 269.089 84.1068C269.91 84.4421 269.861 85.0226 269.022 85.3075C268.993 85.3173 268.964 85.327 268.935 85.3364C266.969 85.9739 264.183 87.8797 265.461 89.5031C265.509 89.5648 265.292 89.7761 264.932 90.0612C263.327 91.3353 259.848 91.1921 259.848 89.1426C259.848 88.4019 259.725 87.6202 258.985 87.5889C257.521 87.527 256.233 87.1815 253.842 87.2566C253.479 87.268 253.342 86.6873 253.682 86.5569C253.714 86.5446 253.748 86.5377 253.782 86.5366C255.557 86.475 256.286 86.4758 256.927 86.5261C257.023 86.5336 257.122 86.5193 257.211 86.485C260.524 85.2149 260.672 85.4217 262.065 85.1367C262.115 85.1264 262.109 85.056 262.057 85.056C262.016 85.056 261.998 85.0036 262.032 84.9789C262.977 84.2779 263.847 83.8606 265.131 83.1686C265.225 83.1184 265.324 83.0799 265.426 83.0545L269.586 82.0205Z" fill="url(#paint10_linear_1702_16564)"/>
<path d="M291.572 83.4152C291.419 83.3756 291.354 83.1957 291.444 83.067C291.586 82.8668 291.344 82.6061 291.13 82.7249C288.487 84.1881 286.25 84.7052 282.494 85.1721C282.05 85.2272 281.647 85.4627 281.385 85.8253L281.186 86.1021C281.131 86.1776 281.056 86.2352 280.969 86.2677L280.902 86.2925C280.465 86.4551 280.531 87.0918 280.991 87.1623C281.064 87.1736 281.133 87.2025 281.193 87.2467L282.473 88.2017C283.474 88.9483 284.66 89.4074 285.903 89.5295L289.934 89.9255C290.058 89.9376 290.183 89.9281 290.303 89.8973L292.185 89.4167C292.95 89.2212 292.874 88.111 292.09 88.0208L291.036 87.8996C290.58 87.8472 290.496 87.2206 290.922 87.0494C291.391 86.8608 291.227 86.1589 290.723 86.1977L290.189 86.2386C289.631 86.2815 289.403 85.5361 289.89 85.2591L291.859 84.1403C292.145 83.9776 292.088 83.5494 291.77 83.4665L291.572 83.4152Z" fill="url(#paint11_linear_1702_16564)"/>
<path d="M201.318 85.6169C205.002 86.676 200.965 100 197.132 100H10.1245C4.60168 100 0.124532 95.5229 0.124532 90V84.7785C0.124532 81.8783 2.47567 79.5271 5.37595 79.5271C5.78397 79.5271 6.19059 79.4796 6.5876 79.3854L24.4066 75.1601L42.3354 70.1153C42.9116 69.9532 43.5012 69.8431 44.0971 69.7864L54.1988 68.8256C54.7292 68.7752 55.2546 68.6824 55.7702 68.5482L69.0899 65.0822C70.156 64.8048 71.1689 64.3532 72.0878 63.7455L75.3042 61.6184L82.8095 55.7289C83.3707 55.1861 83.8687 54.7005 84.3071 54.2619C86.2808 52.2873 88.3754 50.1396 90.6269 48.4886C91.3566 47.9535 92.047 47.3422 92.7746 46.5141C94.0447 45.1658 94.8661 44.4919 95.7105 44.1418C96.4893 43.8189 97.3624 43.8829 98.1995 43.9829C104.855 44.7784 109.162 45.0941 115.77 45.2682C116.98 45.3 118.16 45.6662 119.17 46.3333L119.531 46.572C120.344 47.1092 121.297 47.3955 122.272 47.3955C123.652 47.3955 124.959 47.983 125.944 48.9496C126.493 49.4882 126.965 49.9176 127.377 50.2678C129.146 51.7697 131.583 52.3088 133.901 52.2098L136.42 52.1022C137.34 52.0629 138.267 52.1318 139.149 52.3992C139.846 52.6108 140.391 52.8312 140.894 53.1011C141.777 53.5751 142.645 54.0823 143.571 54.465C144.358 54.79 144.997 55.1083 145.641 55.4947C146.621 56.0823 147.649 56.5854 148.722 56.9777C150.031 57.4564 150.973 57.9815 151.94 58.7418C152.762 59.3884 153.615 60.0011 154.563 60.4442L164.016 64.8653C164.411 65.05 164.832 65.1725 165.264 65.2284L169.027 65.7149C170.3 65.8795 171.69 67.4155 172.487 68.4214C172.547 68.4962 172.657 68.6217 172.728 68.6857L183.47 78.3653C187.497 80.189 190.059 81.3826 191.757 82.3564C193.044 83.0951 194.369 83.8077 195.806 84.1817L201.318 85.6169Z" fill="url(#paint12_linear_1702_16564)"/>
<path d="M50.833 74.479C51.2044 74.0072 50.4876 73.2157 51.0878 73.2321C51.6344 73.247 52.1893 73.2624 52.7408 73.278C53.4754 73.2988 53.5037 74.1519 52.7727 74.2272C52.6995 74.2348 52.6303 74.2547 52.5647 74.2879C49.3168 75.9327 42.9729 79.1265 42.8231 79.1265C42.6339 79.1265 39.3542 79.6073 39.1019 79.6473C38.9452 79.6722 35.6086 80.4397 32.8554 81.0753C32.581 81.1387 32.6371 80.602 32.4795 80.3685C32.3349 80.1541 30.5273 80.7032 29.5232 81.0437C29.435 81.0737 29.341 81.0794 29.2498 81.0601C28.7312 80.9503 28.699 80.2199 29.1983 80.0419C29.2877 80.01 29.3543 79.9844 29.3891 79.9678C29.6414 79.8476 28.6953 79.2867 28.4431 79.1265C28.2574 79.0086 35.2782 78.3393 39.6613 77.9417C40.381 77.8765 41.0889 77.7352 41.7776 77.5164C45.2591 76.4108 50.6962 74.6528 50.833 74.479Z" fill="#698B68"/>
<path d="M73.58 80.5769L73.4121 80.6489C66.2904 83.2087 67.684 93.6694 75.2274 94.2756L137.491 99.2788C141.213 99.2922 148.73 99.3109 149.033 99.2788C149.13 99.2686 149.778 99.0674 150.707 98.7674C152.337 98.2413 152.054 95.8757 150.348 95.7235C150.271 95.7166 150.194 95.7036 150.118 95.6847L147.118 94.9317C146.54 94.7868 146.512 93.9766 147.078 93.7913C147.161 93.7641 147.251 93.7558 147.338 93.7666C153.777 94.5721 157.436 95.032 161.862 95.8938C161.929 95.9068 161.997 95.9134 162.065 95.9134C163.036 95.9134 163.475 94.7241 162.719 94.114C162.543 93.9712 162.425 93.8796 162.404 93.8702C159.872 92.7206 151.758 90.4723 149.905 90.6102C149.657 90.6287 149.636 90.8694 149.789 91.0647C150.221 91.6128 149.609 92.3336 149.012 91.9737C146.652 90.5525 144.953 89.1611 143.024 86.8807C142.568 86.3409 141.732 86.3256 141.277 86.867L140.996 87.2019C140.795 87.4408 140.804 87.7918 141.016 88.0205C141.456 88.4945 140.966 89.2404 140.356 89.0246L139.725 88.8012C139.278 88.6427 138.793 88.9158 138.697 89.3808L138.31 91.2491C138.27 91.4391 138.31 91.6369 138.42 91.797C138.663 92.1525 138.538 92.641 138.154 92.8363L137.83 93.0008C137.15 93.3466 136.254 92.8464 135.87 92.1861C135.482 91.5176 134.946 91.0571 134.59 91.306C128.563 95.3323 128.048 95.2774 133.882 89.4868C134.049 89.3209 134.146 89.0895 134.142 88.854C134.123 87.8511 132.14 87.4824 131.453 88.2131C131.281 88.3962 131.094 88.5825 130.89 88.7731C130.716 88.9354 130.485 89.0224 130.248 89.0224H129.853C129.633 89.0224 129.438 88.8776 129.375 88.6663C129.295 88.3994 129.012 88.2496 128.746 88.3334L123.938 89.8494C121.833 90.5132 119.536 89.8468 118.112 88.1598L114.218 83.5431C113.747 82.9846 113.754 82.1657 114.235 81.6156C114.308 81.5323 114.39 81.4575 114.479 81.3924L117.069 79.5126C117.305 79.341 117.472 79.0905 117.54 78.8063C117.845 77.5322 116.205 76.7347 115.391 77.7607L115.279 77.9018C115.162 78.0487 115.014 78.1678 114.846 78.2505L111.514 79.8874C110.79 80.2429 109.946 80.257 109.211 79.9259L108.244 79.4903C107.489 79.1504 107.126 78.2823 107.421 77.509C108.281 75.2563 109.017 73.5243 110.166 71.4783C110.45 70.9723 111.52 71.2653 111.906 71.6989C111.986 71.7894 112.08 71.941 112.092 72.0616L112.096 72.1035C112.159 72.7849 113.114 72.883 113.315 72.2289L113.858 70.4626C113.928 70.2363 113.914 69.9927 113.82 69.7757L112.674 67.1399C112.276 66.225 110.902 66.5985 111.021 67.589C111.049 67.819 110.982 68.0494 110.848 68.2386C110.149 69.2288 109.393 70.788 109.677 70.8732C109.779 70.9037 108.681 71.5359 107.663 72.1119C106.915 72.5352 106.284 73.1367 105.826 73.8639C105.619 74.1928 105.375 74.4987 105.1 74.7733C102.981 76.8894 101.471 78.3289 99.4067 79.795C98.3434 80.5501 96.8251 80.0228 97.0574 78.7394C97.3435 77.1584 96.6773 75.8773 95.4775 76.946C93.5144 78.6945 91.5557 81.2715 89.6892 82.707C89.5605 82.806 89.4221 82.8891 89.277 82.9621L86.1936 84.5127C85.6248 84.7988 84.9539 84.3852 84.9539 83.7485C84.9539 83.5573 85.0173 83.3708 85.1386 83.2231C85.7936 82.4256 86.4733 81.8006 87.2182 81.2374C88.2429 80.4627 87.7608 79.1619 86.547 79.5824C86.1567 79.7175 85.7599 79.8644 85.3529 80.0235C84.2576 80.4515 83.1593 78.867 83.9043 77.9572C84.5313 77.1916 83.7792 76.2284 82.8666 76.611C80.7812 77.4854 77.7121 78.8029 73.58 80.5769Z" fill="#829B73"/>
<path d="M73.9688 64.0575C73.8235 64.1006 73.7171 63.9208 73.8249 63.8142L74.4928 63.1535C74.8262 62.8237 74.3859 62.2997 74.0036 62.5713L70.9982 64.706C70.9263 64.7572 70.8434 64.7942 70.7575 64.8143C63.3881 66.5427 59.7474 67.524 54.8064 69.2707C57.9747 68.497 60.2788 67.9583 62.8168 67.5059C63.4655 67.3903 63.7095 68.3416 63.1345 68.6634C62.8367 68.8301 62.5744 69.0004 62.3399 69.1809C62.2126 69.2789 62.2858 69.471 62.4463 69.471C62.6417 69.471 62.6915 69.7416 62.5096 69.8127C59.2288 71.0939 57.2166 71.8548 55.1848 72.1553L48.3317 72.8808C47.8822 72.9284 47.8076 73.5517 48.2331 73.7041C48.6568 73.8557 48.5854 74.4755 48.1383 74.5269L21.0008 77.6441C28.7794 76.322 44.362 73.5014 44.4629 72.7963C44.5264 72.3522 41.2742 72.6794 37.823 73.1594C37.2012 73.2458 36.9563 72.2963 37.5463 72.0818C38.1377 71.8669 37.9141 71.0516 37.2978 71.1789C34.3207 71.7934 31.2405 72.506 29.7045 73.0768C27.9941 73.7122 26.829 74.1303 26.1233 74.3771C25.6113 74.5561 25.108 74.7593 24.6003 74.9503C23.6265 75.3167 21.7413 75.9495 18.6041 76.8428C15.0741 77.5659 15.1843 82.6465 18.7424 83.2158L26.4879 84.455L39.1126 87.6705C39.6031 87.7954 40.1161 87.8022 40.6097 87.6903L66.4628 81.8302C66.7337 81.7688 66.6891 81.3701 66.4113 81.3701C58.1071 82.4385 40.7417 85.7772 40.3633 83.8541C40.1869 82.9576 46.1334 80.784 46.1658 80.4085C46.1745 80.3078 59.3109 75.22 60.3566 74.5191C60.9523 74.1197 54.1798 75.3923 52.0313 75.2803C51.2124 75.2376 63.0707 73.7851 63.3839 73.2771C63.5182 73.0594 65.2073 71.9309 66.9142 70.7621C68.6096 69.6013 71.3551 70.6295 69.6909 71.8348C69.4557 72.0052 53.9865 79.5939 46.1658 83.3332C49.992 81.8909 57.7833 78.9422 58.3383 78.6858C59.0321 78.3653 65.6545 76.2018 66.4113 75.8011C67.1682 75.4005 72.2137 71.5543 72.3399 71.2739C72.4153 71.1063 73.5748 70.7493 74.5773 70.4737C75.1803 70.3079 75.8118 70.2807 76.4301 70.375L76.9821 70.4592C77.0405 70.4681 77.0999 70.4689 77.1585 70.4617C77.7691 70.3867 78.1296 71.1264 77.6941 71.561L75.8826 73.3693C75.6334 73.6181 75.2956 73.7579 74.9434 73.7579C74.7653 73.7579 74.589 73.7937 74.4249 73.8631L60.6719 79.6874L76.4068 74.0948C76.5124 74.0572 76.6142 74.0087 76.7095 73.9498C76.7885 73.901 76.8644 73.8537 76.937 73.8078C77.7661 73.2841 78.6359 71.8063 79.4098 71.204L79.5366 71.1054C80.0073 70.7391 80.1481 70.0883 79.871 69.5601C79.6287 69.0984 79.121 68.8412 78.6037 68.9068C75.8627 69.2548 74.4975 69.1626 73.6108 68.1914C73.4762 68.0439 73.4298 67.8347 73.4965 67.6465C73.6112 67.3233 73.7973 67.0298 74.0598 66.7221C74.3731 66.3548 73.8786 65.8585 73.5362 65.5181C73.4187 65.4013 73.4696 65.259 73.5623 65.1217L74.131 64.2787C74.2075 64.1654 74.0999 64.0187 73.9688 64.0575Z" fill="#63895D"/>
<path d="M40.1182 87.6118C39.6211 87.7466 39.027 88.0567 39.149 88.5571C39.1697 88.6418 39.2041 88.7279 39.2489 88.8189C39.3829 89.0904 39.4694 89.3848 39.4492 89.687C39.3962 90.4775 39.9808 91.1671 40.7693 91.2443L105.199 97.5561H125.613C127.077 97.5561 128.191 96.2418 127.952 94.7971C127.776 93.7321 126.902 92.9206 125.827 92.8231L110.566 91.4382C109.6 91.3505 108.653 91.123 107.753 90.7627L102.314 88.5852C101.869 88.407 101.537 88.0245 101.425 87.5586C101.242 86.8031 100.505 86.3178 99.7383 86.4477C99.2501 86.5305 98.7773 86.6108 98.3207 86.6881C95.5687 87.1538 95.2649 85.4267 97.2606 83.4755C98.2744 82.4844 99.1047 81.3539 99.5583 80.1249C99.577 80.0744 99.6072 80.0292 99.6474 79.9934C99.938 79.734 99.6014 79.2785 99.2681 79.4802L97.0659 80.8133C96.9429 80.8878 96.8541 81.0075 96.8133 81.1455C96.2573 83.0262 95.2756 83.9051 92.1439 84.8957L85.7984 87.4101C84.9258 87.7558 84.2865 86.5617 85.0581 86.0273C85.8274 85.4944 85.1943 84.3033 84.3223 84.6428L83.3033 85.0395C82.2731 85.4406 81.5431 84.0144 82.471 83.4133L87.6659 80.048L73.4121 86.7387C75.4476 85.4304 73.8749 82.3012 71.6104 83.154L64.6454 85.7772L74.4711 80.6002C75.0669 80.2862 75.1532 80.1161 74.4874 80.2181C70.4585 80.8355 54.2101 83.7909 40.1182 87.6118Z" fill="#638D62"/>
<path d="M100.721 88.2611C97.8834 88.6649 92.9687 89.3565 90.0727 89.7427C88.5717 89.9429 87.0995 90.397 85.7845 91.1479C83.508 92.4478 80.8674 94.0442 80.7913 94.4311C80.6651 95.0721 97.2526 98.117 100.721 98.5577C104.19 98.9984 137.302 100.2 137.681 99.9599C137.75 99.9158 137.739 99.6705 137.672 99.295C137.148 96.3342 133.617 95.0231 130.618 95.2335C130.444 95.2457 130.263 95.257 130.075 95.2676C130.017 95.2708 129.956 95.2663 129.9 95.2547C128.048 94.8772 126.626 94.7163 125.065 94.7417C124.699 94.7476 124.921 93.8087 125.148 93.522C125.3 93.3289 124.905 93.4179 124.663 93.4619C123.954 93.5903 123.316 93.6829 122.713 93.7408C121.377 93.8689 121.321 92.5066 122.658 92.3936C124.633 92.2267 126.764 92.2318 129.608 92.3076C124.553 91.4902 121.426 91.0716 116.376 91.0256C115.892 91.0212 115.734 90.3618 116.166 90.1456C116.625 89.9157 116.413 89.2371 115.905 89.315C109.812 90.2497 107.779 91.2494 105.956 93.149C107.941 90.9938 106.143 87.5372 103.239 87.925L100.721 88.2611Z" fill="#758966"/>
<path d="M131.133 56.2154C131.292 56.395 131.489 56.5367 131.712 56.6258C133.169 57.2107 134.166 55.7029 132.951 54.7077C130.145 52.4095 127.092 50.2921 124.911 48.3116C124.174 47.6429 123.257 47.1893 122.266 47.1061L121.403 47.0337C120.784 46.9819 120.186 46.7871 119.656 46.4649L119.15 46.1574C119.059 46.1019 118.911 46.0556 118.805 46.0375C117.883 45.8788 117.801 46.7343 118.683 47.0476C119.513 47.3424 120.124 47.6419 120.358 48.0015C120.479 48.1866 120.407 48.4194 120.303 48.6138L120.239 48.7313C119.883 49.3939 120.092 50.144 120.439 50.8119C120.454 50.8416 120.462 50.8652 120.462 50.8812C120.462 51.8435 121.622 52.5084 122.033 51.638C122.063 51.574 122.091 51.5068 122.118 51.4359C122.202 51.2113 122.091 50.7961 122.001 50.5736C121.701 49.8272 122.616 49.6838 123.3 50.1079C123.842 50.4441 124.456 50.7014 125.306 50.9432C125.644 51.0395 125.961 51.2042 126.223 51.4385C128.256 53.2531 129.536 54.4019 131.133 56.2154Z" fill="url(#paint13_linear_1702_16564)"/>
<path d="M146.356 56.2573C145.003 55.7508 143.767 54.9555 142.542 54.1895C141.156 53.3225 139.364 52.4083 138.158 52.0239C137.666 51.8672 137.06 52.1953 137.468 52.5118C137.69 52.684 138.068 52.8927 138.664 53.1676C138.944 53.2968 139.054 53.6393 138.895 53.9035C138.775 54.105 138.807 54.3629 138.973 54.5285L139.895 55.4452C140.042 55.5913 140.081 55.814 139.993 56.0013C139.869 56.2631 140 56.575 140.273 56.6716C141.565 57.1286 142.587 57.4773 143.407 57.7286C144.176 57.9643 143.582 57.1448 142.887 56.7386C142.223 56.3499 143.225 56.0772 143.967 56.2833C145.761 56.7817 147.14 57.3069 149.031 58.1293C149.158 58.1846 149.281 58.2508 149.397 58.3264L153.984 61.3038C154.634 61.7257 155.33 62.0707 156.06 62.3318L165.936 65.8652L164.864 65.3043L164.285 65.052C162.562 64.3006 160.836 63.3201 159.137 62.5152C157.272 61.6316 154.799 60.5796 153.259 60.0559C153.182 60.0296 152.332 59.3512 151.495 58.6833C150.701 58.0504 149.811 57.5511 148.861 57.1952L146.356 56.2573Z" fill="url(#paint14_linear_1702_16564)"/>
<path d="M169.405 67.7482C169.277 67.7281 170.41 67.0014 171.258 66.4786C171.414 66.3828 171.599 66.5397 171.532 66.7096C171.504 66.7807 171.522 66.8617 171.576 66.9159C171.875 67.2174 172.079 67.4534 172.214 67.6571C172.524 68.1268 172.694 68.7277 173.125 69.09C177.523 72.7898 179.598 74.7956 183.47 78.3653L193.512 83.3559C193.964 83.5809 194.439 83.7712 194.918 83.9315C207.376 88.0965 211.643 94.2173 220.933 97.5561C204.577 92.8246 197.396 86.1764 183.848 83.8941C184.871 83.9941 185.414 81.6337 184.477 81.2119C178.294 78.4289 173.082 75.3748 174.451 75.6008L174.997 75.7713C175.615 75.9638 176.044 75.1622 175.542 74.7549L175.082 74.3826C174.595 73.9877 175.941 73.7138 175.586 73.197C174.18 71.4159 169.989 67.84 169.405 67.7482Z" fill="url(#paint15_linear_1702_16564)"/>
<path d="M134.44 52.8351C134.689 52.8149 134.691 52.4511 134.442 52.4283L131.275 52.1382C130.812 52.0959 130.57 52.6687 130.925 52.969C133 54.7255 134.409 55.8353 136.289 58.0988C136.418 58.2538 136.561 58.3967 136.719 58.5228L137.035 58.7763C138.228 59.7342 139.713 60.2562 141.243 60.2562H144.25C144.825 60.2562 145.579 60.4618 146.086 60.7336C146.767 61.0995 147.294 61.3836 148.051 61.5439L163.539 64.8235C157.876 63.2765 154.419 62.3236 147.591 59.9009C145.972 59.3264 144.231 59.157 142.539 59.4522C141.815 59.5785 141.227 59.6858 141.097 59.7221C141.03 59.6073 139.488 58.7639 137.986 57.9633C136.771 57.3161 135.806 56.2814 135.259 55.0182L134.558 53.3955C134.538 53.3496 134.504 53.3107 134.462 53.2839L134.347 53.2109C134.182 53.1059 134.245 52.8509 134.44 52.8351Z" fill="#A0AE9A"/>
<path d="M143.303 64.3531C143.171 64.3462 143.04 64.3227 142.913 64.2827C141.557 63.8525 140.405 63.3981 139.319 62.8775C138.215 62.3484 137.46 63.2911 138.654 63.5613C138.794 63.5929 138.938 63.6207 139.085 63.6446C139.153 63.6557 139.223 63.6318 139.27 63.5816C139.337 63.5109 139.443 63.4947 139.527 63.5425C141.43 64.6177 143.423 65.7539 145.131 66.7911C148.117 68.6054 147.376 69.7514 144.225 68.2397C143.594 67.9369 142.994 67.6496 142.476 67.4177C141.369 66.9218 141.123 67.5295 141.792 68.5422C142.725 69.956 143.519 71.1069 144.694 72.5441C145.258 73.2335 146.174 73.0098 146.335 72.1341C146.461 71.4506 147.135 71.7667 147.491 72.3635L150.132 76.7891C150.408 77.2512 150.728 77.6865 151.089 78.0858C153.85 81.1413 155.701 82.9976 159.076 85.4169C159.522 85.7372 160.475 86.0492 160.982 86.2602C161.617 86.524 160.863 86.7593 160.189 86.894C158.154 87.301 155.247 87.5892 153.307 87.8619C151.789 88.0753 152.165 88.5155 153.697 88.5693C158.116 88.7245 161.296 89.0138 166.115 89.7133C166.786 89.8107 167.428 90.0561 167.995 90.4276C168.751 90.9226 169.633 91.1892 170.536 91.1956L173.447 91.2162C174.364 91.2226 175.276 91.3552 176.156 91.61L191.648 96.0931C191.781 96.1317 191.925 96.1112 192.042 96.0367C192.368 95.8296 192.331 95.3422 191.978 95.1858C186.871 92.9251 183.654 91.6708 177.748 90.0462C177.695 90.0316 177.643 90.0103 177.595 89.9831C176.995 89.6434 177.244 88.7373 177.932 88.7643C180.171 88.8519 181.939 89.0409 184.479 89.5031L201.445 93.1089L209.062 94.7701C209.465 94.858 209.832 94.5158 209.771 94.1079C209.733 93.8484 209.528 93.6453 209.268 93.6097L206.201 93.1895C204.411 92.9442 202.245 92.3082 200.474 91.9522C199.326 91.7216 197.893 91.4607 196.298 91.1612C195.82 91.0714 195.349 90.9436 194.886 90.7906C192.863 90.1207 191.399 89.8 188.775 89.5174C188.687 89.5079 188.597 89.4916 188.511 89.4689C187.307 89.1511 186.388 88.8888 185.487 88.5893C184.713 88.3318 184.813 87.2532 185.614 87.0993C182.222 87.2932 180.053 87.342 178.01 87.1351C176.35 86.967 174.189 87.5948 172.575 88.0168C169.941 88.7054 167.779 85.9576 165.155 85.2286C164.934 85.1671 164.71 85.1037 164.485 85.0376C161.769 84.2407 161.152 81.3059 162.329 78.7317C162.475 78.411 162.601 78.1221 162.704 77.8652C163.119 76.8292 162.868 76.0314 161.876 76.5432C160.833 77.0814 158.843 77.7409 158.273 76.715C158.169 76.5286 158.067 76.3148 157.963 76.0689C157.556 75.1024 157.942 73.9551 157.551 72.9819C157.344 72.4665 156.629 72.311 155.047 71.9314C154.789 71.8696 154.599 71.7643 154.434 71.5568C153.694 70.6213 154.39 68.9757 155.566 69.1783C157.766 69.5575 159.417 69.7927 158.935 69.6713C154.166 68.1797 151.444 67.1271 147.942 65.3909C146.786 64.8174 145.528 64.4684 144.239 64.4016L143.303 64.3531Z" fill="#A0AE9A"/>
<path d="M325.69 60.6392C325.806 60.6456 325.973 60.612 326.082 60.5732C326.874 60.2932 327.949 60.8813 327.95 61.7211L327.962 71.1907C327.964 72.6608 327.323 74.0581 326.207 75.0155L325.936 75.248C324.591 76.4021 322.789 76.8764 321.047 76.5497C307.095 73.9325 297.017 72.5627 287.861 68.0977C285.366 66.8811 285.551 64.7113 288.068 63.5415C289.069 63.0764 290.272 62.338 291.28 62.789C291.616 62.9395 291.949 63.13 292.325 63.3464C292.943 63.7011 293.621 63.9536 294.333 63.9672C294.756 63.9753 295.192 63.9623 295.817 64.006C296.005 64.0191 296.195 64.0729 296.359 64.1649C297.128 64.5947 298.115 64.748 298.802 64.1968C300.381 62.9299 302.478 61.4558 302.532 61.4212C302.742 61.2876 302.996 61.2651 304.897 61.1909C305.796 61.1559 306.685 60.9999 307.52 60.6681C309.894 59.7257 314.025 57.9235 316.462 57.535C317.467 57.3747 318.508 57.6447 319.366 58.1926C320.696 59.0419 322.586 60.4694 325.69 60.6392Z" fill="#6D956F"/>
<path d="M320.207 73.1907C320.107 73.1654 308.054 70.8624 302.252 69.7472C301.273 69.559 301.339 68.6922 302.29 68.9935C302.628 69.1008 303.3 69.7141 304.435 69.9939C304.759 70.0635 305.051 70.1206 305.319 70.1668C306.363 70.3468 305.998 68.8385 306.194 67.797C306.239 67.5581 306.389 67.7405 306.626 67.7947C307.37 67.9651 307.885 68.0543 308.558 68.1183C308.784 68.1397 309.103 67.9807 309.26 67.8177C309.917 67.1383 311.692 66.5135 312.056 67.3851C312.387 68.1787 312.6 68.8157 312.822 68.9878C314.211 70.0645 316.197 70.2266 317.849 69.6255C319.248 69.1162 319.642 68.4984 319.254 68.1431C319.146 68.0311 319.042 67.9597 318.928 67.9158C318.782 67.8597 318.721 67.621 318.86 67.5501C318.87 67.5449 318.88 67.5383 318.889 67.5309C320.702 65.9793 320.979 65.3744 320.007 64.6571C318.933 64.0715 318.08 63.9528 317.142 63.929C316.405 63.9102 316.12 63.1604 316.783 62.8389C316.84 62.8109 316.946 62.7689 317.009 62.7554C317.219 62.7101 317.412 62.6667 317.592 62.6242C318.424 62.4269 318.183 61.3452 317.553 60.7657C317.367 60.5947 317.352 60.4276 317.381 60.1768C317.414 59.8938 317.468 59.6669 317.527 59.4731C317.665 59.0197 317.36 58.6246 316.886 58.6422L315.785 58.6831C315.386 58.6979 315.203 58.1932 315.517 57.9483C315.6 57.8842 315.705 57.8538 315.809 57.8641C318.657 58.1442 320.028 58.6637 321.577 59.528C322.95 60.088 323.735 60.3889 325.159 60.8434C325.199 60.8563 325.198 60.9142 325.156 60.9246C325.113 60.9356 325.114 60.9971 325.158 61.0067L327.422 61.5056C327.693 61.5654 327.887 61.8057 327.887 62.0837L327.888 62.3928C327.888 63.0432 327.266 63.5132 326.641 63.3344L326.33 63.2457C325.52 63.0142 324.725 63.653 324.776 64.4938L324.791 64.7371C324.797 64.8409 324.827 64.942 324.878 65.0325C325.28 65.7445 324.172 66.57 323.829 65.8279C323.717 65.5855 323.62 65.3293 323.539 65.0558C323.741 65.7944 323.935 66.4785 324.137 67.1249C325.067 70.1002 323.229 73.9565 320.207 73.1907Z" fill="#47A26B"/>
<path d="M288.896 63.3666C288.892 63.6898 288.51 63.7854 288.199 63.8741C287.386 64.1062 285.914 64.3731 284.737 64.6745C284.052 64.8499 284.102 65.501 284.756 65.7707C284.904 65.832 285.089 65.8653 285.248 65.8427C286.923 65.6041 288.09 65.4801 289.681 65.4245C289.978 65.4141 290.034 64.9209 289.79 64.7523C289.58 64.6076 289.735 64.3227 289.99 64.3226C290.453 64.3224 290.741 64.3056 290.9 64.2641C291.052 64.2243 290.982 64.0646 290.852 63.9753C290.521 63.7464 290.305 63.5543 290.153 63.3483C289.931 63.0473 289.597 62.9835 289.226 63.0308C288.924 63.0694 288.897 63.2178 288.896 63.3666Z" fill="url(#paint16_linear_1702_16564)"/>
<path d="M298.708 64.6338C298.363 65.0273 298.774 65.1538 299.17 64.8117L299.618 64.4249C299.951 64.1372 300.48 64.2859 300.287 64.6819C300.246 64.7676 300.192 64.8578 300.125 64.9551C299.978 65.1693 300.072 65.496 300.316 65.585C300.685 65.7197 301.12 65.0194 301.241 64.6456C301.304 64.451 301.397 64.2365 301.518 64.0031C301.841 63.377 301.23 62.694 300.641 63.0819C299.791 63.6423 299.09 64.1987 298.708 64.6338Z" fill="url(#paint17_linear_1702_16564)"/>
<path d="M307.262 61.2243C307.262 61.2242 307.262 61.2242 307.262 61.2241C307.262 61.2231 307.262 61.2231 307.262 61.2243C307.315 61.2985 309.598 60.0109 309.972 59.9348C310.28 59.8723 312.92 58.9636 314.469 58.3909C314.752 58.2864 315.107 58.385 315.152 58.683C315.215 59.0958 314.912 59.4102 314.247 59.7553C313.978 59.8949 314.331 60.2805 314.349 60.5827C314.356 60.7082 314.24 60.6844 314.117 60.6557C313.787 60.5782 313.331 60.4173 312.973 60.3789C312.824 60.3629 312.675 60.3981 312.535 60.4495C311.924 60.6721 311.447 60.9039 311.006 61.1185C310.133 61.5431 309.897 62.1023 310.784 62.4982C311.719 62.9158 310.875 63.521 309.915 63.1638C309.725 63.0929 309.515 63.0187 309.283 62.94C307.847 62.5321 307.341 62.1833 307.262 61.2243Z" fill="url(#paint18_linear_1702_16564)"/>
<path d="M251.19 57.0946C248.044 57.0963 246.318 60.7574 248.319 63.1855L253.304 69.2357C254.471 70.6519 256.115 71.5847 257.93 71.8568C270.758 73.7797 291.681 76.9449 290.885 76.9453C290.027 76.9458 315.253 78.8821 327.974 79.8502C327.969 76.6131 325.228 74.1283 322.003 73.8407C321.434 73.7899 320.823 73.7249 320.145 73.6444L310.366 71.7266C303.235 70.2837 298.999 69.3895 292.177 68.5782C290.983 68.4363 289.822 68.0864 288.742 67.5596C288.097 67.2451 287.552 66.9928 287.082 66.8006C285.885 66.31 284.578 66.0696 283.329 65.7307C282.573 65.5257 281.911 65.4029 281.168 65.3042C280.407 65.2033 279.652 65.0505 278.933 64.7835C277.025 64.0752 276.011 63.5339 274.53 62.6511L267.375 59.2124C266.767 58.9202 266.212 58.5137 265.816 57.9677C265.6 57.6701 265.435 57.3994 265.322 57.1353C264.928 56.2136 264.897 54.9522 263.996 54.5114C263.604 54.3194 263.194 54.3111 262.761 54.3642L257.182 55.0478C256.095 55.1809 255.042 55.5172 254.08 56.0391L252.962 56.6446C252.418 56.9396 251.809 57.0943 251.19 57.0946Z" fill="#719C6D"/>
<path d="M262.915 54.404C263.468 54.4606 263.756 54.5359 264.24 54.7238L264.243 54.7251C264.56 54.8577 264.767 54.9444 265.027 55.1804C265.177 55.3158 265.271 55.5053 265.176 55.6831C265.092 55.8405 264.992 56.0244 265.013 56.2014C265.046 56.4725 265.13 56.6527 265.252 56.9268L266.073 58.2886C266.657 59.0281 267.387 59.6383 268.219 60.0805L270.871 61.4912L275.351 63.4519L278.507 65.0128C279.344 65.4599 279.8 65.7095 281.094 66.1732C282.016 66.3666 282.627 66.4415 284.059 66.4521C284.567 66.4657 284.769 66.3888 285.129 66.2521C285.13 66.2515 285.132 66.2513 285.133 66.2515C286.539 66.4111 287.042 66.953 289.273 67.9451C289.871 68.2111 290.503 68.3949 291.145 68.5201L295.92 69.4506L307.528 71.7681C310.648 72.2407 312.365 72.4124 315.66 73.1633C316.126 73.2695 316.599 73.3473 317.076 73.3898L327.531 74.3226C327.778 74.3446 327.967 74.551 327.967 74.7986C327.967 75.0652 327.75 75.2807 327.484 75.277C322.884 75.2138 317.963 74.9371 315.181 74.8746C313.631 74.8398 313.748 75.2112 315.279 75.4605C318.151 75.9281 321.253 76.2865 326.544 76.8292C326.652 76.8403 326.76 76.8626 326.864 76.8954C327.523 77.1042 327.971 77.7154 327.972 78.4067L327.974 79.8502L322.921 79.5798C322.338 79.5486 321.759 79.4663 321.19 79.334L304.62 75.4797C304.212 75.3849 303.83 75.2024 303.5 74.945C303.288 74.7793 303.053 74.6434 302.803 74.5451C300.757 73.7431 299.314 73.3623 296.745 72.7755L288.255 70.6834C287.867 70.5879 287.459 70.6117 287.085 70.7517C286.759 70.8737 286.407 70.9078 286.064 70.8505L272.772 68.6321C272.73 68.6251 272.69 68.6128 272.652 68.5953C272.137 68.3605 272.381 67.5841 272.938 67.6867L276.063 68.2634C276.609 68.3641 277.097 67.8888 276.703 67.4982C276.452 67.2496 276.08 67.013 275.564 66.7299C275.426 66.6542 275.279 66.5967 275.126 66.5581C273.886 66.2439 273.054 66.1049 271.507 65.978C269.53 65.7647 268.81 65.5187 267.47 65.0988C265.926 64.4669 265.153 64.0658 263.872 63.2978C262.965 62.6646 262.188 62.4293 260.78 62.0174L257.894 61.2465C257.243 61.0725 257.319 60.5776 257.956 60.8001C257.981 60.809 258.017 60.8196 258.044 60.8248L263.014 61.8035C263.871 61.9724 264.596 60.8974 264.373 60.0523C264.296 59.8464 264.228 59.6556 264.158 59.4805C263.608 58.094 261.803 58.8785 260.335 59.1471C260.156 59.18 259.958 59.2109 259.74 59.2404C259.675 59.2492 259.608 59.2483 259.544 59.2381L257.594 58.9296C256.931 58.8246 257.013 57.8454 257.684 57.8523C258.335 57.8592 257.664 56.7814 258.26 56.5215C258.778 56.2954 260.006 56.1143 262.591 55.9398C262.718 55.9312 262.842 55.88 262.936 55.7945C263.113 55.6336 263.179 55.3727 263.064 55.1628C263.005 55.0545 262.932 54.947 262.823 54.8204C262.674 54.6482 262.687 54.4021 262.915 54.404Z" fill="#6C9A60"/>
<path d="M143.489 76.3028C145.181 76.3019 146.478 77.808 146.225 79.4816L144.808 88.8615C144.067 93.7733 139.832 97.396 134.864 97.3682L10.0876 96.6677C4.59186 96.6368 0.150965 92.1768 0.143707 86.681L0.125607 72.9759C0.123493 71.3756 1.57678 70.1931 3.14964 70.4883C4.85296 70.8079 5.92627 71.6487 7.06286 72.6497C8.19944 73.6507 8.83046 73.8907 9.84001 74.2107C10.8496 74.5307 12.0479 74.5701 12.8049 74.6498C13.5618 74.7295 13.6248 74.6093 14.6966 74.3683C15.7685 74.1274 16.7137 73.4859 17.8482 72.8843C18.9826 72.2827 21.9464 71.8805 22.7663 71.84C23.5861 71.7995 27.1203 73.4803 28.004 74.0407C28.8877 74.6012 31.349 75.7617 32.7374 76.3619C32.9915 76.4718 33.2835 76.5852 33.5921 76.6972C35.4361 77.3668 37.4631 77.3 39.3104 76.6394C39.35 76.6252 39.3876 76.6117 39.4231 76.5988C40.3057 76.2778 41.0624 76.1972 42.0716 76.2368C43.0808 76.2763 44.7213 76.7962 45.6675 76.9159C46.1504 76.977 46.9671 76.9977 47.6752 77.0011C48.3534 77.0044 49.0282 76.9188 49.6897 76.7688L52.3728 76.1601C52.988 76.0206 53.6147 75.9383 54.2456 75.9336C54.7731 75.9296 55.4526 75.9316 56.1989 75.9488C57.9019 75.9879 58.0287 76.5087 58.5339 76.9892C59.0391 77.4697 60.6164 77.9096 61.7522 78.2695C62.8879 78.6295 63.7713 78.9095 64.4656 79.3498C65.16 79.7902 66.8631 79.9896 67.4309 80.0694C67.6586 80.1014 68.0228 80.1347 68.385 80.1633C68.9591 80.2086 69.504 79.9121 69.7895 79.4119C69.9754 79.0863 70.2755 78.8413 70.6316 78.7243L73.2134 77.8761C73.7279 77.7071 74.2253 77.4897 74.6989 77.2268L74.7823 77.1805C76.2034 76.3917 77.8019 75.9773 79.4273 75.9764L81.364 75.9754C82.5475 75.9748 83.9506 76.3716 84.9006 76.715C85.4086 76.8987 85.9166 77.0838 86.4389 77.2212L92.3419 78.7741L92.4733 78.8013C94.8679 79.2987 97.3617 78.9012 99.4831 77.6841L100.035 77.3677C100.455 77.1137 101.32 76.6058 101.421 76.6057C101.522 76.6057 103.482 76.7382 104.449 76.8044C105.016 76.7908 106.215 76.7554 106.467 76.7232C106.719 76.691 107.371 76.4423 107.665 76.322L109.367 75.7201C109.934 75.5328 111.195 75.1261 111.699 74.9977C112.33 74.8371 116.429 74.1939 116.996 74.1134C117.564 74.033 119.708 73.7915 120.654 73.6708C121.6 73.5501 122.86 73.0686 123.932 72.7475C124.79 72.4906 126.434 72.9866 127.149 73.2666L127.907 73.5066L130.998 74.5867L132.26 74.9466L139.588 76.2354C140.001 76.3081 140.42 76.3445 140.84 76.3443L143.489 76.3028Z" fill="url(#paint19_linear_1702_16564)"/>
<path d="M20.5122 83.8991C19.0282 84.1049 17.5502 83.6641 16.1958 83.0237C14.9455 82.4325 13.7394 81.899 12.5081 81.3937C6.48919 78.9235 0.139787 83.7538 0.148403 90.2599C0.155483 95.6057 4.49265 99.9349 9.83849 99.932L90.4998 99.8889C93.4116 99.8874 95.8026 97.587 95.9167 94.6775L96.4722 80.5085C96.4835 80.2196 96.1175 80.0672 95.9389 80.2946C95.8885 80.3587 93.2278 80.9905 91.9038 81.2983L91.2361 81.5412C89.9659 82.0031 89.1474 83.082 88.3125 84.1448C88.2845 84.1805 87.6309 84.276 86.8791 84.3745C85.7424 84.5234 84.5684 84.5113 83.4977 84.1014C83.0333 83.9235 82.6442 83.7257 82.2501 83.4865C81.6534 83.1245 81.0408 82.7861 80.3846 82.5484C79.8672 82.3609 79.3316 82.2249 78.7859 82.1535C77.6086 81.9996 76.6875 81.9277 75.4695 82.0031C74.6964 82.051 73.9199 82.0546 73.1477 81.9933C71.7021 81.8783 70.6402 81.9204 69.0102 82.0317C67.8528 82.1734 67.0259 82.353 66.0956 82.6883C64.9831 83.0892 63.7825 83.2265 62.6413 82.9165L59.5399 82.1304C58.8753 81.962 58.1949 81.8593 57.5095 81.8391C56.4579 81.808 55.621 81.812 54.765 81.861C53.4649 81.9355 52.2189 82.3719 51.0793 83.0022C49.7633 83.73 48.6692 84.2874 47.4664 84.6465C46.3478 84.9804 45.1587 84.8771 44.0201 84.6194L41.325 84.0096C39.6985 83.502 38.5677 83.1589 37.3427 82.6468C36.2605 82.1944 35.005 81.9397 33.8628 82.2065C32.9036 82.4305 31.9853 82.5126 31.0085 82.3857C30.1575 82.2751 29.3493 82.2045 28.4326 82.1444C26.9137 82.0448 25.4031 82.3468 23.9897 82.912C22.809 83.3842 21.7543 83.7268 20.5122 83.8991Z" fill="#ACCBAB"/>
<path d="M127.017 78.9852C127.803 78.3153 128.785 77.9193 129.816 77.8557C134.613 77.5599 136.298 83.0047 131.78 84.6459C126.798 86.4558 120.792 88.0161 112.573 89.7733C112.311 89.8294 112.032 89.7876 111.799 89.6543C110.83 89.099 111.223 87.6182 112.341 87.6176L112.717 87.6174C112.806 87.6174 112.895 87.6072 112.983 87.5872L129.119 83.8827C127.089 84.2892 123.266 85.0695 122.941 85.1918C122.983 85.2023 122.985 85.2081 122.939 85.2081C122.911 85.2081 122.913 85.2025 122.941 85.1918C122.661 85.1213 120.605 84.8397 119.47 84.6891L115.612 83.7003C114.888 83.5146 114.686 82.5818 115.269 82.1133L117.141 80.6088C117.482 80.3346 117.205 79.7893 116.782 79.9034C116.311 80.0306 116.059 79.3683 116.497 79.1511L117.444 78.6805C113.769 79.9196 110.709 80.9324 108.596 81.7425C106.222 82.653 106.945 83.6928 109.482 83.5165C110.324 83.458 111.05 83.4025 111.395 83.3713C111.865 83.3289 114.919 84.3769 115.381 84.4757C115.965 84.6008 115.676 84.9702 114.677 85.2125C114.387 85.2829 112.847 85.4227 111.143 85.6229C108.543 85.9283 105.88 85.4492 103.561 84.2358C102.822 83.8497 102.329 83.6391 102.054 83.6043C101.726 83.5628 101.919 84.0277 102.113 84.2952C102.345 84.6144 102.511 84.8904 102.623 85.1716C102.862 85.7697 102.362 86.3564 101.724 86.4444C100.232 86.6501 98.6845 86.6811 96.2889 86.6235C95.999 86.6165 95.908 87.0157 96.1731 87.1334C96.1912 87.1414 96.2094 87.1472 96.2288 87.151C97.6689 87.4325 100.568 87.9845 100.869 87.9843C101.111 87.9842 101.344 88.0796 101.516 88.2498L101.529 88.2621C101.712 88.4429 101.814 88.6895 101.823 88.9469C101.845 89.6336 101.926 90.5489 102.133 90.6279C102.298 90.6904 104.537 92.3829 106.783 94.0983C108.461 95.3792 108.469 97.898 106.806 99.1969C106.238 99.64 105.539 99.8809 104.819 99.8813L84.716 99.892C80.6355 99.8942 79.8332 90.8992 76.4672 93.2057C75.648 93.7671 76.3394 91.2421 76.4647 91.3227C77.1938 91.7916 80.8071 89.1479 82.3864 87.3746C82.5157 87.2294 82.6175 87.0602 82.6578 86.8701C82.8788 85.829 82.1758 84.9892 80.6301 83.5724C80.5589 83.5072 80.6044 83.3877 80.701 83.3877C80.7915 83.3876 80.84 83.2812 80.7807 83.2129L80.4988 82.888C80.3676 82.7368 80.4225 82.4977 80.6227 82.4956C81.6563 82.4847 82.8572 84.2577 85.513 86.8403C85.7702 87.0904 86.1233 87.218 86.4813 87.1951C86.9177 87.1672 87.3046 86.9136 87.5927 86.5848C88.6738 85.3512 90.8868 84.0529 91.277 84.3436C91.4592 84.4793 93.2783 84.5107 95.189 84.441C95.6912 84.4226 95.3308 83.1448 95.6268 82.7387C96.0373 82.1755 97.3967 82.4777 97.7358 83.0865C97.7641 83.1373 97.7937 83.1888 97.8247 83.2411C97.4139 82.4758 102.976 82.0378 103.384 82.5342C103.795 83.0343 103.522 81.5245 103.572 81.4925C103.98 81.2331 104.549 81.1457 104.622 80.6681C104.63 80.6167 104.635 80.5649 104.641 80.5077C104.642 80.4966 104.639 80.4853 104.631 80.4768C103.705 79.397 102.861 78.9114 101.781 78.1339C101.463 77.9057 101.376 77.4748 101.569 77.1347C101.711 76.8829 101.981 76.7287 102.27 76.739C102.526 76.7482 102.755 76.7603 102.959 76.7778C103.751 76.846 103.301 77.1015 102.81 77.7268C102.768 77.7805 104.197 78.2115 105.268 78.5225C105.624 78.6259 106.008 78.539 106.29 78.2983C106.397 78.2069 106.497 78.1223 106.591 78.0439C107.198 77.5344 107.948 78.0746 108.181 78.8323C108.288 79.1806 108.66 79.3892 109.023 79.3624L109.7 79.3124C109.941 79.2946 110.173 79.2302 110.4 79.1443C112.495 78.351 117.449 77.8485 119.727 77.6516C120.516 77.5835 121.298 77.4449 122.01 77.0992C122.748 76.7411 123.743 76.16 124.629 75.3113C124.813 75.1189 124.934 74.9613 124.946 74.7617C124.974 74.2983 124.972 73.7225 125.435 73.6869C125.792 73.6595 126 73.462 125.845 73.1391C125.739 72.919 125.613 72.7038 125.546 72.6213C125.45 72.5805 125.434 72.567 125.509 72.5864C125.517 72.5885 125.529 72.6008 125.546 72.6213C126.536 73.0423 135.984 76.3685 140.524 76.3846C135.435 76.6088 125.95 76.3518 126.334 76.3921C127.247 76.4882 125.104 78.5905 122.411 80.4162C121.626 80.9484 122.047 82.6845 122.995 82.684L123.843 82.6836C124.65 82.6831 124.638 81.0593 124.007 81.5617C123.852 81.6849 125.547 80.238 127.017 78.9852Z" fill="url(#paint20_linear_1702_16564)"/>
<path d="M58.515 81.9265C58.49 81.9203 58.4643 81.9172 58.4385 81.9172C58.0512 81.9174 57.9948 82.5211 58.3672 82.6277C58.9988 82.8085 59.4995 83.0226 59.8924 83.3191C59.9595 83.3697 60.0121 83.4514 59.9584 83.516C59.834 83.6658 59.4335 83.8409 59.0142 84.0126C58.1943 84.3484 58.2435 84.9285 59.0826 85.2129C59.1121 85.2229 59.1416 85.2327 59.1711 85.2422C61.1372 85.8785 63.9263 87.7819 62.6499 89.407C62.6014 89.4687 62.8204 89.6806 63.1812 89.9663C64.7873 91.2381 68.2654 91.092 68.2627 89.0434C68.2617 88.3027 68.384 87.5209 69.1239 87.4892C70.5874 87.4265 71.8745 87.0804 74.2647 87.1542C74.628 87.1654 74.7645 86.5846 74.4252 86.4544C74.3933 86.4422 74.3589 86.4353 74.3247 86.4341C72.5497 86.3736 71.8205 86.3747 71.1795 86.4253C71.0839 86.4329 70.985 86.4187 70.8955 86.3844C67.5813 85.1161 67.4332 85.323 66.0399 85.0387C65.9896 85.0284 65.9961 84.958 66.0475 84.958C66.0889 84.958 66.1064 84.9055 66.0731 84.8809C65.1265 84.1804 64.2565 83.7636 62.9707 83.0721C62.8777 83.0221 62.7787 82.9837 62.6762 82.9583L58.515 81.9265Z" fill="url(#paint21_linear_1702_16564)"/>
<path d="M36.5306 83.333C36.6831 83.2933 36.7488 83.1134 36.6578 82.9847C36.5163 82.7847 36.7576 82.5239 36.972 82.6424C39.6166 84.1042 41.8539 84.62 45.6108 85.0849C46.0547 85.1398 46.4583 85.3752 46.7204 85.7376L46.9206 86.0145C46.9751 86.0898 47.0507 86.1473 47.1378 86.1797L47.2054 86.2048C47.6418 86.367 47.577 87.0036 47.1167 87.0744C47.0436 87.0857 46.9744 87.1147 46.9152 87.159L45.6359 88.1146C44.6357 88.8617 43.4504 89.3215 42.208 89.4442L38.1771 89.8423C38.0533 89.8546 37.9284 89.8451 37.8079 89.8144L35.9247 89.3345C35.1597 89.1395 35.2345 88.0294 36.0187 87.9388L37.0722 87.8171C37.5283 87.7645 37.6123 87.1378 37.1861 86.9669C36.7163 86.7785 36.8797 86.0765 37.3844 86.115L37.9168 86.1556C38.4755 86.1982 38.7029 85.4528 38.2156 85.1763L36.2446 84.0579C35.9584 83.8955 36.0146 83.4674 36.3331 83.3844L36.5306 83.333Z" fill="url(#paint22_linear_1702_16564)"/>
<path d="M126.787 85.4865C123.104 86.5475 127.151 99.8694 130.983 99.8673L317.992 99.7675C323.518 99.7646 327.994 95.2803 327.987 89.7543L327.98 84.5404C327.976 81.6396 325.623 79.2906 322.722 79.2921C322.314 79.2924 321.907 79.245 321.509 79.151L303.685 74.9353L285.749 69.8999C285.173 69.7382 284.584 69.6285 283.988 69.5721L273.884 68.6166C273.354 68.5665 272.829 68.4741 272.313 68.3402L258.987 64.8809C257.922 64.6043 256.909 64.1536 255.99 63.547L252.77 61.4207L245.256 55.5352C244.693 54.9914 244.193 54.505 243.754 54.0657C241.78 52.094 239.685 49.9492 237.433 48.302C236.702 47.7666 236.009 47.1549 235.279 46.3258C234.007 44.978 233.185 44.3046 232.34 43.9549C231.561 43.6326 230.688 43.697 229.851 43.7975C223.197 44.5966 218.89 44.9145 212.281 45.0921C211.072 45.1246 209.893 45.4914 208.884 46.1591L208.523 46.3977C207.71 46.9354 206.758 47.2224 205.783 47.2229C204.403 47.2237 203.097 47.8121 202.112 48.7796C201.564 49.3183 201.093 49.7477 200.681 50.098C198.915 51.6008 196.479 52.1412 194.162 52.0435L191.641 51.9372C190.721 51.8984 189.794 51.9677 188.912 52.2358C188.216 52.4475 187.672 52.6679 187.17 52.9377C186.287 53.4124 185.418 53.9207 184.492 54.3043C183.707 54.6293 183.069 54.9476 182.426 55.3337C181.446 55.9223 180.418 56.4264 179.345 56.8197C178.037 57.2988 177.096 57.824 176.131 58.5839C175.309 59.2315 174.456 59.8454 173.508 60.2895L164.062 64.715C163.668 64.8999 163.247 65.0226 162.815 65.0787L159.052 65.5673C157.78 65.7325 156.391 67.2694 155.595 68.2755C155.536 68.3505 155.426 68.476 155.355 68.54L144.626 78.2253C140.603 80.0505 138.043 81.2452 136.346 82.2197C135.059 82.9598 133.733 83.6738 132.296 84.0488L126.787 85.4865Z" fill="url(#paint23_linear_1702_16564)"/>
<path d="M182.989 87.23C182.968 87.2459 182.941 87.2194 182.958 87.2001C185.9 83.9474 187.715 81.9397 190.119 78.9022C190.653 78.2264 191.09 77.4785 191.427 76.6855L191.674 76.1035C191.288 76.5609 189.113 77.0483 185.243 77.8831C191.716 75.6791 193.384 73.831 195.341 71.0092C195.652 70.5607 195.446 69.9318 194.927 70.1016C194.284 70.3122 193.531 69.5007 193.979 68.9946C195.118 67.7107 195.758 66.5394 195.954 65.1433C195.993 64.8656 195.634 64.6981 195.371 64.7948C194.949 64.9501 194.937 64.4906 195.363 64.3482C199.07 63.1114 201.123 62.0533 204.351 60.4568C204.421 60.4225 204.54 60.3431 204.601 60.2956C205.507 59.5901 204.962 57.7532 205.921 57.1211C206.119 56.9907 206.328 56.8537 206.555 56.7064C206.666 56.6342 206.769 56.5488 206.856 56.4497C207.891 55.2827 207.376 55.0803 205.137 55.5228C204.177 55.7126 203.266 56.0934 202.395 56.5408C199.237 58.1626 195.038 59.7799 194.679 59.4885C194.253 59.1421 202.911 54.7096 207.663 52.7107C208.905 52.1195 209.699 50.7975 210.866 50.0683C211.357 49.7617 211.955 49.4271 212.632 49.0421C212.888 48.8965 213.129 48.7159 213.296 48.473C213.719 47.8564 213.481 47.5496 212.363 47.2466C212.302 47.2304 212.26 47.176 212.26 47.1137C212.26 47.039 212.321 46.978 212.395 46.9769C215.679 46.9293 217.276 47.2767 219.904 47.7558C220.274 47.8232 220.648 47.8623 221.023 47.8723C222.425 47.9096 225.463 47.9763 229.731 48.0695C231.535 48.1089 233.282 48.7141 234.723 49.7996L238.937 52.9726C239.321 53.2617 239.481 53.7613 239.338 54.22C239.065 55.0888 237.933 55.3004 237.365 54.5887L236.17 53.0897C235.963 52.8305 235.698 52.6208 235.396 52.4846C232.227 51.0572 230.197 50.7821 227.303 51.5367C226.426 51.7653 225.41 51.7766 224.685 51.2328C223.899 50.6434 223.132 50.0432 222.16 49.9013C220.519 49.6618 219.313 49.5541 218.191 49.6045C217.014 49.6573 215.904 50.1257 214.921 50.773C212.936 52.079 211.775 53.0957 210.685 54.3737C209.994 55.1849 209.543 56.163 209.107 57.1359C208.603 58.26 208.031 59.0975 207.162 60.2455C207.083 60.3504 207.019 60.4658 206.972 60.5886L205.484 64.4892C205.133 65.411 203.755 65.0783 203.863 64.0977C203.933 63.4631 203.298 62.9853 202.707 63.2284L199.219 64.665C198.209 65.0809 197.5 66.0026 197.326 67.0808C196.816 70.2314 196.248 72.4361 195.295 75.8373C195.237 76.046 195.131 76.241 194.987 76.4032C190.929 80.9835 188.051 83.2994 182.989 87.23Z" fill="#88A793"/>
<path d="M232.186 44.3643C232.084 44.2343 232.23 44.0586 232.376 44.1371C233.889 44.9523 234.735 45.565 235.404 46.6649C235.491 46.8085 235.607 46.9347 235.749 47.0253C236.336 47.4012 236.891 47.7551 237.409 48.0887C240.522 50.092 243.597 53.752 246.327 56.2512L249.515 59.1696C249.959 59.5754 250.437 59.9403 250.946 60.26L255.981 63.4241C256.823 63.9536 257.74 64.3544 258.701 64.6132L272.835 68.4212L288.86 71.8582L306.133 75.7362C311.506 76.9423 312.675 86.3889 307.169 86.3918C306.826 86.392 287.373 84.4913 276.825 83.4562C276.197 83.3945 275.578 83.2737 274.972 83.0949L256.512 77.6448L278.971 82.3203C267.296 79.4545 260.984 77.1593 250.91 72.7148C250.026 72.3246 249.232 71.75 248.582 71.0343C247.659 70.0185 246.994 68.7597 246.886 67.3917C246.792 66.1986 246.925 65.1665 247.664 63.7872C247.775 63.5794 247.449 63.5257 246.972 63.5222C245.422 63.5108 244.304 62.6928 243.667 61.2799L242.708 59.1556C242.645 59.0148 242.613 58.8409 242.605 58.6867C242.557 57.8653 241.642 58.3451 241.71 59.1651C241.725 59.3491 241.741 59.5288 241.758 59.705C241.91 61.2552 239.828 62.3324 238.907 61.0764C237.718 59.4565 236.639 57.7447 235.418 55.4905C235.175 55.0415 234.389 54.6062 233.879 54.6186C233.096 54.6375 233.226 55.4785 233.582 56.1761C234.982 58.9261 238.075 64.0115 241.238 69.4798L233.806 59.6447C232.6 58.0496 229.414 58.2874 229.676 60.2694C229.684 60.3282 229.698 60.379 229.718 60.4223C229.851 60.7144 230.274 60.5525 230.558 60.4014C231.431 59.9354 232.54 60.1698 233.026 61.0318C233.085 61.1367 233.141 61.2402 233.193 61.3424C234.019 62.9462 232.062 63.9836 230.261 63.9029C230.009 63.8916 229.742 63.8934 229.453 63.9087C229.361 63.9136 229.272 63.948 229.2 64.0055C228.989 64.1728 228.969 64.4847 229.156 64.6774C230.832 66.4013 233.623 69.3047 233.67 69.4838C233.733 69.7242 234.743 70.3246 235.059 70.4446C235.311 70.5406 238.571 71.4177 240.169 71.8442L241.1 72.2261C241.191 72.2633 241.293 72.2627 241.383 72.2244C241.526 72.164 241.691 72.1994 241.797 72.3117C243.755 74.3809 245.125 75.2911 247.681 76.6479C250.2 78.1157 252.281 78.8869 255.36 79.9689C255.572 80.0433 255.5 80.3585 255.277 80.3324C255.262 80.3307 255.247 80.327 255.233 80.3216L242.402 75.4879C242.301 75.4497 242.192 75.5248 242.193 75.6333C242.193 75.7394 242.089 75.8143 241.988 75.7804L232.44 72.5609C231.064 72.0969 229.856 71.2373 228.966 70.0898L228.498 69.4866C227.023 67.4141 222.769 63.949 222.247 63.6405C220.837 62.8081 219.858 60.5493 219.529 58.692C219.214 56.9183 220.644 56.9699 221.575 58.5125L223.202 61.2106C223.544 61.777 224.281 61.9579 224.846 61.614C225.118 61.4484 225.318 61.1813 225.369 60.867C225.72 58.7263 224.973 57.0043 225.293 55.153C225.446 54.2655 225.758 53.222 226.604 52.9132C226.761 52.8561 226.91 52.8446 227.026 52.9007C227.446 53.1047 227.812 53.3982 228.225 53.6852C229.093 54.289 230.211 54.2019 231.189 53.7991L231.671 53.6006C231.77 53.5599 231.875 53.5339 231.982 53.5235C232.598 53.4636 233.137 53.4086 233.601 53.3545C234.258 53.2778 236.933 54.0035 237.368 54.5021C237.788 54.9841 238.46 54.6304 238.045 54.1437C237.458 53.4552 236.379 52.6527 234.228 49.9873C233.889 49.5677 233.688 48.9898 233.262 48.6587C232.775 48.28 231.998 48.0037 231.497 48.0906C231.193 48.1435 227.082 47.7725 226.83 47.7726C226.662 47.7727 226.193 47.6624 225.87 47.5792C225.753 47.549 225.633 47.5291 225.513 47.5217L222.711 47.3492C221.454 47.2718 221.44 46.2031 222.665 46.4928C222.85 46.5364 223.594 46.5511 224.309 46.57C225.02 46.5888 225.732 46.5596 226.436 46.4568L228.404 46.1692L231.117 45.5645C231.806 45.4107 232.68 44.8699 232.186 44.3643Z" fill="#6F9775"/>
<path d="M277.258 74.2683C276.886 73.7968 277.602 73.0048 277.002 73.0215C276.456 73.0367 275.901 73.0524 275.349 73.0683C274.615 73.0894 274.587 73.9426 275.318 74.0175C275.391 74.025 275.46 74.0449 275.526 74.0781C278.776 75.7211 285.124 78.9116 285.274 78.9115C285.463 78.9114 288.743 79.3904 288.996 79.4303C289.152 79.4551 292.49 80.2208 295.244 80.8549C295.518 80.9181 295.462 80.3816 295.619 80.1479C295.763 79.9334 297.572 80.4817 298.576 80.8217C298.665 80.8515 298.759 80.8572 298.85 80.8379C299.368 80.7278 299.4 79.9975 298.901 79.8199C298.811 79.7879 298.744 79.7623 298.709 79.7457C298.457 79.6256 299.402 79.0642 299.654 78.9038C299.839 78.7858 292.817 78.1202 288.434 77.725C287.714 77.6601 287.006 77.5193 286.318 77.3011C282.835 76.1973 277.395 74.442 277.258 74.2683Z" fill="#688B74"/>
<path d="M254.519 80.3783L254.687 80.4502C261.811 83.0058 260.423 93.4684 252.879 94.0787L190.632 99.1143C186.911 99.1297 179.393 99.1524 179.09 99.1205C178.994 99.1103 178.344 98.9092 177.413 98.6092C175.784 98.0842 176.066 95.719 177.771 95.5659C177.848 95.5589 177.925 95.5459 178.001 95.5269L180.999 94.7726C181.577 94.6273 181.605 93.8169 181.039 93.632C180.955 93.6048 180.866 93.5965 180.779 93.6074C174.34 94.4163 170.682 94.8782 166.257 95.7423C166.191 95.7553 166.122 95.762 166.055 95.7621C165.083 95.7626 164.642 94.5732 165.398 93.9623C165.574 93.8198 165.692 93.7284 165.712 93.719C168.243 92.5681 176.354 90.3155 178.207 90.4524C178.455 90.4707 178.477 90.7115 178.323 90.907C177.892 91.4557 178.504 92.176 179.102 91.8156C181.46 90.3932 183.157 89.001 185.082 86.72C185.538 86.1795 186.375 86.1634 186.83 86.7045L187.112 87.0393C187.313 87.2781 187.304 87.6292 187.092 87.8582C186.653 88.3326 187.144 89.078 187.753 88.8619L188.384 88.638C188.832 88.4792 189.317 88.7518 189.414 89.2167L189.803 91.0851C189.843 91.275 189.803 91.4729 189.694 91.6331C189.451 91.9888 189.576 92.4769 189.96 92.6718L190.284 92.8361C190.965 93.1816 191.862 92.6801 192.245 92.0194C192.632 91.3514 193.167 90.8914 193.523 91.14C199.556 95.1631 200.071 95.1079 194.228 89.3201C194.061 89.1545 193.964 88.9233 193.968 88.688C193.986 87.6852 195.967 87.3142 196.655 88.0442C196.828 88.2277 197.016 88.4143 197.22 88.6053C197.394 88.7674 197.625 88.8541 197.862 88.854L198.257 88.8538C198.477 88.8537 198.672 88.7088 198.735 88.4975C198.815 88.2306 199.097 88.0806 199.363 88.1642L204.173 89.6778C206.279 90.3404 208.576 89.6721 209.998 87.9836L213.884 83.3671C214.355 82.8078 214.347 81.9885 213.865 81.4387C213.792 81.3554 213.71 81.2807 213.621 81.2157L211.028 79.3369C210.792 79.1656 210.625 78.9155 210.556 78.6317C210.251 77.3582 211.889 76.559 212.704 77.584L212.817 77.7257C212.934 77.8724 213.081 77.9912 213.25 78.0737L216.586 79.7096C217.309 80.0643 218.153 80.0778 218.887 79.7465L219.853 79.3106C220.607 78.9701 220.97 78.1015 220.674 77.3285C219.81 75.0758 219.073 73.344 217.921 71.2982C217.636 70.7927 216.567 71.087 216.182 71.5208C216.101 71.6113 216.007 71.763 215.996 71.8836L215.992 71.9256C215.929 72.6069 214.975 72.7062 214.773 72.0525L214.227 70.2854C214.157 70.0593 214.171 69.8156 214.265 69.5984L215.407 66.9633C215.803 66.0476 217.179 66.4195 217.06 67.4104C217.033 67.6404 217.1 67.8707 217.234 68.0598C217.935 69.0496 218.693 70.6085 218.409 70.6939C218.307 70.7244 219.406 71.356 220.425 71.9315C221.173 72.3544 221.805 72.9555 222.264 73.6825C222.471 74.0113 222.715 74.3171 222.991 74.5916C225.113 76.7066 226.625 78.1454 228.692 79.6106C229.755 80.3647 231.273 79.8364 231.039 78.5535C230.751 76.973 231.416 75.6914 232.616 76.7589C234.582 78.5064 236.544 81.0826 238.413 82.5172C238.541 82.616 238.68 82.6989 238.825 82.7717L241.911 84.3209C242.48 84.6065 243.15 84.1924 243.149 83.5557C243.149 83.3647 243.085 83.1784 242.964 83.0309C242.308 82.2333 241.627 81.6084 240.88 81.0453C239.855 80.2717 240.336 78.971 241.55 79.3906C241.941 79.5255 242.338 79.6722 242.745 79.831C243.84 80.2582 244.937 78.673 244.191 77.7642C243.563 76.9993 244.315 76.0356 245.227 76.4176C247.314 77.2908 250.385 78.6066 254.519 80.3783Z" fill="#739B77"/>
<path d="M254.108 63.8591C254.254 63.9021 254.36 63.7223 254.252 63.6158L253.583 62.9555C253.249 62.6261 253.689 62.1019 254.072 62.3731L257.08 64.5062C257.152 64.5572 257.235 64.5941 257.32 64.6142C264.692 66.3386 268.334 67.318 273.278 69.062C270.109 68.2902 267.804 67.7527 265.266 67.3017C264.617 67.1864 264.373 68.1378 264.948 68.4592C265.247 68.6258 265.509 68.7959 265.744 68.9764C265.871 69.0743 265.798 69.2664 265.638 69.2664C265.442 69.2665 265.393 69.5372 265.575 69.6081C268.857 70.8876 270.871 71.6475 272.903 71.9469L279.758 72.6688C280.207 72.7162 280.282 73.3393 279.857 73.4919C279.433 73.6439 279.505 74.2635 279.952 74.3146L307.094 77.4174C299.314 76.0995 283.728 73.2873 283.626 72.5822C283.562 72.1381 286.814 72.4635 290.265 72.9416C290.887 73.0277 291.131 72.0781 290.541 71.864C289.95 71.6494 290.173 70.8342 290.789 70.961C293.767 71.574 296.848 72.2849 298.384 72.8548C300.096 73.4895 301.262 73.907 301.968 74.1534C302.48 74.332 302.983 74.5348 303.49 74.7253C304.465 75.0912 306.351 75.723 309.49 76.6149C313.021 77.3361 312.913 82.4174 309.355 82.9887L301.616 84.2313L288.996 87.4534C288.505 87.5786 287.992 87.5857 287.499 87.4741L261.637 81.6277C261.367 81.5665 261.411 81.1678 261.689 81.1677C269.994 82.2316 287.364 85.561 287.74 83.6377C287.915 82.7412 281.966 80.5707 281.933 80.1953C281.924 80.0946 268.781 75.0138 267.734 74.3134C267.138 73.9144 273.912 75.1834 276.061 75.0702C276.879 75.0271 265.019 73.5809 264.705 73.0731C264.571 72.8554 262.879 71.7274 261.171 70.5593C259.474 69.3997 256.731 70.4302 258.396 71.6341C258.632 71.8044 274.111 79.3848 281.937 83.12C278.109 81.6797 270.313 78.7352 269.758 78.479C269.064 78.1589 262.439 75.999 261.681 75.5987C260.924 75.1985 255.873 71.355 255.747 71.0746C255.671 70.907 254.511 70.5507 253.508 70.2756C252.905 70.1102 252.273 70.0833 251.655 70.1779L251.103 70.2624C251.045 70.2713 250.986 70.2722 250.927 70.265C250.317 70.1903 249.957 70.9301 250.392 71.3642L252.207 73.1721C252.456 73.4207 252.794 73.5602 253.146 73.56C253.325 73.5599 253.501 73.5956 253.665 73.665L267.426 79.4819L251.683 73.8976C251.578 73.8602 251.476 73.8118 251.381 73.753C251.302 73.7043 251.226 73.6571 251.153 73.6113C250.324 73.088 249.451 71.6103 248.676 71.0084L248.549 70.9093C248.078 70.5436 247.937 69.8934 248.213 69.3653C248.455 68.9032 248.962 68.6455 249.48 68.7109C252.221 69.0574 253.586 68.9645 254.472 67.993C254.606 67.8453 254.652 67.636 254.585 67.4479C254.47 67.1246 254.284 66.831 254.02 66.5233C253.707 66.1565 254.201 65.66 254.543 65.3194C254.66 65.2026 254.609 65.0605 254.516 64.9234L253.946 64.0804C253.87 63.9672 253.977 63.8204 254.108 63.8591Z" fill="#5E895D"/>
<path d="M287.991 87.3955C288.487 87.5299 289.082 87.8392 288.961 88.3396C288.94 88.4245 288.906 88.5107 288.861 88.6019C288.727 88.8736 288.641 89.168 288.662 89.47C288.716 90.2604 288.132 90.9506 287.343 91.0283L222.922 97.3744L202.507 97.3853C201.043 97.386 199.928 96.0736 200.165 94.6292C200.341 93.5633 201.214 92.7504 202.29 92.6522L217.547 91.2594C218.513 91.1712 219.46 90.943 220.361 90.582L225.796 88.402C226.24 88.2236 226.571 87.8408 226.684 87.3748C226.865 86.6194 227.602 86.1336 228.368 86.263C228.857 86.3456 229.331 86.4259 229.788 86.503C232.54 86.9671 232.843 85.2409 230.845 83.2922C229.828 82.301 228.996 81.1699 228.54 79.9401C228.521 79.8897 228.491 79.8445 228.451 79.8088C228.16 79.5497 228.496 79.094 228.83 79.2955L231.034 80.6274C231.157 80.7017 231.245 80.8212 231.286 80.959C231.845 82.8396 232.828 83.7181 235.961 84.7071L242.309 87.2177C243.182 87.5629 243.82 86.3686 243.048 85.8348C242.278 85.3027 242.911 84.1113 243.783 84.4502L244.801 84.8461C245.832 85.2465 246.56 83.8201 245.632 83.2199L240.432 79.8569L254.695 86.54C252.659 85.2335 254.229 82.1038 256.494 82.955L263.46 85.5738L253.627 80.4017C253.031 80.0883 252.945 79.9183 253.61 80.0199C257.639 80.6349 273.893 83.5818 287.991 87.3955Z" fill="#628D6B"/>
<path d="M227.388 88.077C230.227 88.4793 235.143 89.1685 238.04 89.5531C239.54 89.7524 241.012 90.2053 242.327 90.9549C244.605 92.2538 247.249 93.8494 247.326 94.2363C247.453 94.8773 230.869 97.931 227.401 98.3736C223.933 98.8161 190.823 100.036 190.444 99.7956C190.374 99.7515 190.385 99.5072 190.451 99.1329C190.97 96.1713 194.501 94.8566 197.501 95.0653C197.675 95.0775 197.856 95.0887 198.044 95.0991C198.102 95.1023 198.162 95.0978 198.219 95.0862C200.069 94.7078 201.491 94.546 203.053 94.5705C203.418 94.5763 203.195 93.6374 202.968 93.351C202.815 93.1581 203.211 93.2468 203.454 93.2906C204.162 93.4186 204.801 93.5109 205.405 93.5685C206.74 93.6958 206.795 92.3337 205.458 92.2214C203.483 92.0553 201.351 92.0615 198.507 92.1389C203.561 91.3188 206.687 90.8985 211.737 90.8499C212.22 90.8452 212.378 90.1857 211.946 89.9697C211.486 89.7402 211.698 89.0615 212.206 89.1391C218.299 90.0705 220.334 91.0691 222.159 92.9677C220.173 90.8145 221.968 87.3564 224.872 87.7426L227.388 88.077Z" fill="#738966"/>
<path d="M196.934 56.0471C196.775 56.2271 196.577 56.3691 196.355 56.4584C194.897 57.0443 193.899 55.5371 195.114 54.5407C197.916 52.2415 200.965 50.1229 203.144 48.1417C203.881 47.4719 204.798 47.0172 205.79 46.9334L206.652 46.8607C207.27 46.8085 207.868 46.6134 208.398 46.2909L208.903 45.9832C208.995 45.9276 209.143 45.8812 209.248 45.863C210.171 45.7038 210.253 46.5594 209.37 46.8733C208.541 47.1685 207.931 47.4683 207.698 47.8279C207.577 48.0131 207.649 48.2457 207.754 48.44L207.817 48.5575C208.175 49.2199 207.965 49.9699 207.62 50.6393C207.605 50.6685 207.597 50.6918 207.597 50.7076C207.598 51.6696 206.44 52.3354 206.028 51.4659C205.998 51.4018 205.969 51.3344 205.943 51.2632C205.858 51.0387 205.969 50.6233 206.058 50.4007C206.357 49.6538 205.442 49.5114 204.758 49.936C204.217 50.2724 203.603 50.5299 202.754 50.7721C202.416 50.8686 202.099 51.0337 201.837 51.2684C199.807 53.0837 198.529 54.2332 196.934 56.0471Z" fill="url(#paint24_linear_1702_16564)"/>
<path d="M181.709 56.0983C183.062 55.5906 184.299 54.7938 185.524 54.0264C186.908 53.1589 188.698 52.2443 189.904 51.8595C190.395 51.7027 191.002 52.0301 190.595 52.3469C190.373 52.5192 189.995 52.7282 189.399 53.0036C189.119 53.133 189.009 53.4757 189.168 53.7399C189.289 53.9412 189.257 54.1992 189.091 54.365L188.171 55.2819C188.024 55.4281 187.985 55.6509 188.074 55.8381C188.198 56.0998 188.067 56.412 187.794 56.5087C186.503 56.9663 185.481 57.3155 184.662 57.5672C183.893 57.8034 184.486 56.9835 185.18 56.5767C185.845 56.1875 184.843 55.9155 184.101 56.122C182.307 56.6215 180.929 57.1474 179.039 57.9709C178.911 58.0263 178.788 58.0927 178.672 58.1684L174.091 61.1475C173.441 61.5702 172.744 61.9159 172.014 62.1776L162.143 65.7159L163.215 65.1544L163.79 64.9031C165.515 64.15 167.241 63.1675 168.941 62.3609C170.805 61.4766 173.274 60.4241 174.813 59.8998C174.89 59.8735 175.738 59.1953 176.574 58.5273C177.367 57.8934 178.258 57.393 179.209 57.0362L181.709 56.0983Z" fill="url(#paint25_linear_1702_16564)"/>
<path d="M158.677 67.6008C158.805 67.5806 157.671 66.8545 156.822 66.3322C156.667 66.2365 156.481 66.3936 156.548 66.5633C156.576 66.6343 156.559 66.7154 156.505 66.7696C156.206 67.0713 156.003 67.3074 155.868 67.5112C155.559 67.9811 155.389 68.582 154.959 68.9447C150.566 72.6468 148.493 74.6536 144.626 78.2253L134.592 83.221C134.139 83.4464 133.664 83.6372 133.185 83.7978C120.733 87.9695 116.473 94.0925 107.188 97.4361C123.538 92.696 130.711 86.0439 144.255 83.7544C143.232 83.8549 142.688 81.4942 143.625 81.0717C149.803 78.2857 155.01 75.2293 153.642 75.4561L153.095 75.6269C152.478 75.8199 152.048 75.0185 152.55 74.6106L153.008 74.2384C153.495 73.843 152.149 73.5702 152.503 73.0528C153.906 71.271 158.093 67.6929 158.677 67.6008Z" fill="url(#paint26_linear_1702_16564)"/>
<path d="M193.622 52.669C193.373 52.649 193.371 52.2851 193.62 52.2622L196.787 51.9704C197.25 51.9278 197.492 52.5003 197.138 52.8009C195.065 54.5585 193.658 55.669 191.78 57.9333C191.651 58.0886 191.508 58.2318 191.351 58.3581L191.035 58.6117C189.843 59.5701 188.359 60.0929 186.83 60.0937L183.822 60.0953C183.247 60.0956 182.493 60.3016 181.987 60.5736C181.306 60.9399 180.78 61.2244 180.023 61.385L164.539 64.6729C170.2 63.123 173.656 62.1682 180.479 59.7421C182.098 59.1666 183.839 58.9962 185.532 59.2904C186.257 59.4163 186.845 59.5233 186.974 59.5596C187.041 59.4448 188.582 58.6005 190.083 57.7991C191.297 57.1513 192.261 56.116 192.806 54.8525L193.505 53.2296C193.525 53.1836 193.558 53.1446 193.601 53.1177L193.715 53.0448C193.88 52.9397 193.817 52.6847 193.622 52.669Z" fill="#9DAE9A"/>
<path d="M184.774 64.1917C184.906 64.1848 185.038 64.1611 185.164 64.121C186.519 63.6901 187.671 63.2351 188.757 62.714C189.861 62.184 190.616 63.1264 189.422 63.3974C189.282 63.4291 189.139 63.457 188.992 63.481C188.924 63.4921 188.854 63.4682 188.807 63.4181C188.74 63.3475 188.634 63.3313 188.549 63.3792C186.647 64.4557 184.655 65.5932 182.949 66.6316C179.965 68.4473 180.708 69.5928 183.855 68.0798C184.487 67.7763 185.087 67.4884 185.605 67.2559C186.712 66.7593 186.958 67.3671 186.291 68.3804C185.36 69.7944 184.568 70.9455 183.395 72.3829C182.832 73.0729 181.915 72.8502 181.753 71.9746C181.626 71.2911 180.952 71.6078 180.596 72.2052L177.962 76.6312C177.686 77.0935 177.367 77.5291 177.007 77.9287C174.25 80.9854 172.401 82.8426 169.03 85.2635C168.583 85.5844 167.631 85.8969 167.124 86.1085C166.49 86.3726 167.244 86.6072 167.917 86.7415C169.953 87.1474 172.86 87.4341 174.801 87.7058C176.319 87.9184 175.944 88.3589 174.411 88.4135C169.993 88.5711 166.813 88.8621 161.996 89.5642C161.325 89.6619 160.683 89.9076 160.117 90.2795C159.362 90.7748 158.48 91.0419 157.577 91.0488L154.666 91.0709C153.749 91.0778 152.837 91.2109 151.957 91.4664L136.471 95.9575C136.338 95.9962 136.194 95.9757 136.077 95.9013C135.751 95.6944 135.788 95.2068 136.141 95.0502C141.245 92.7868 144.459 91.5309 150.363 89.9032C150.416 89.8886 150.469 89.8672 150.516 89.84C151.116 89.4999 150.867 88.594 150.178 88.6214C147.94 88.7102 146.171 88.9001 143.632 89.3637L126.671 92.9786L119.055 94.6439C118.652 94.732 118.286 94.3903 118.345 93.9824C118.383 93.7226 118.588 93.5193 118.849 93.4835L121.915 93.0617C123.704 92.8155 125.87 92.1781 127.64 91.8213C128.787 91.5901 130.221 91.3284 131.815 91.0282C132.293 90.9381 132.764 90.81 133.226 90.6566C135.248 89.9857 136.712 89.6642 139.336 89.3803C139.424 89.3707 139.513 89.3544 139.599 89.3317C140.803 89.0133 141.721 88.7506 142.621 88.4508C143.395 88.1927 143.295 87.114 142.494 86.9605C145.886 87.1526 148.055 87.2002 150.098 86.9922C151.757 86.8231 153.919 87.4496 155.533 87.8708C158.168 88.5586 160.328 85.8091 162.952 85.0783C163.172 85.0171 163.394 84.9539 163.618 84.8881C166.333 84.0897 166.948 81.1542 165.768 78.5812C165.621 78.2607 165.495 77.9719 165.392 77.7152C164.975 76.679 165.225 75.8805 166.218 76.3921C167.261 76.9296 169.252 77.5877 169.821 76.5612C169.925 76.3749 170.026 76.1612 170.13 75.9155C170.536 74.9486 170.148 73.8021 170.538 72.8285C170.744 72.3127 171.458 72.1569 173.04 71.7764C173.298 71.7144 173.489 71.6089 173.653 71.401C174.393 70.4648 173.695 68.8199 172.52 69.0232C170.319 69.4037 168.667 69.64 169.149 69.5183C173.916 68.0242 176.637 66.9702 180.136 65.2323C181.292 64.658 182.55 64.3082 183.839 64.2407L184.774 64.1917Z" fill="#9DAE9A"/>
<defs>
<linearGradient id="paint0_linear_1702_16564" x1="164" y1="0" x2="164" y2="100" gradientUnits="userSpaceOnUse">
<stop stop-color="#499FF5"/>
<stop offset="1" stop-color="#AFD7FF"/>
</linearGradient>
<linearGradient id="paint1_linear_1702_16564" x1="407.445" y1="61.7005" x2="-46.4211" y2="192.831" gradientUnits="userSpaceOnUse">
<stop stop-color="#FEFEFE"/>
<stop offset="1" stop-color="#FEFEFE" stop-opacity="0"/>
</linearGradient>
<linearGradient id="paint2_linear_1702_16564" x1="407.534" y1="61.7008" x2="-46.7626" y2="193.102" gradientUnits="userSpaceOnUse">
<stop stop-color="#FEFEFE" stop-opacity="0.57"/>
<stop offset="1" stop-color="white" stop-opacity="0.67"/>
</linearGradient>
<linearGradient id="paint3_linear_1702_16564" x1="407.534" y1="61.7008" x2="-46.7626" y2="193.102" gradientUnits="userSpaceOnUse">
<stop stop-color="#FEFEFE" stop-opacity="0.57"/>
<stop offset="1" stop-color="white" stop-opacity="0.67"/>
</linearGradient>
<linearGradient id="paint4_linear_1702_16564" x1="407.445" y1="61.7005" x2="-46.4211" y2="192.831" gradientUnits="userSpaceOnUse">
<stop stop-color="#FEFEFE"/>
<stop offset="1" stop-color="#FEFEFE" stop-opacity="0"/>
</linearGradient>
<linearGradient id="paint5_linear_1702_16564" x1="148.42" y1="50.2618" x2="176.285" y2="145.118" gradientUnits="userSpaceOnUse">
<stop stop-color="#A7BF89"/>
<stop offset="1" stop-color="#8AB284"/>
</linearGradient>
<linearGradient id="paint6_linear_1702_16564" x1="148.42" y1="50.2618" x2="176.285" y2="145.118" gradientUnits="userSpaceOnUse">
<stop stop-color="#A7BF89"/>
<stop offset="1" stop-color="#8AB284"/>
</linearGradient>
<linearGradient id="paint7_linear_1702_16564" x1="148.42" y1="50.2618" x2="176.285" y2="145.118" gradientUnits="userSpaceOnUse">
<stop stop-color="#A7BF89"/>
<stop offset="1" stop-color="#8AB284"/>
</linearGradient>
<linearGradient id="paint8_linear_1702_16564" x1="164" y1="-2.04432e-07" x2="168.183" y2="308.415" gradientUnits="userSpaceOnUse">
<stop stop-color="#C2D6B3"/>
<stop offset="0.9999" stop-color="#BBEEFF"/>
<stop offset="1" stop-color="#B3CDD6" stop-opacity="0"/>
<stop offset="1" stop-color="#C0DEB9"/>
</linearGradient>
<linearGradient id="paint9_linear_1702_16564" x1="221.861" y1="15.9435" x2="220.989" y2="92.4994" gradientUnits="userSpaceOnUse">
<stop stop-color="#AEC999"/>
<stop offset="1" stop-color="#B4DBC6"/>
</linearGradient>
<linearGradient id="paint10_linear_1702_16564" x1="221.861" y1="15.9435" x2="220.989" y2="92.4994" gradientUnits="userSpaceOnUse">
<stop stop-color="#AEC999"/>
<stop offset="1" stop-color="#B4DBC6"/>
</linearGradient>
<linearGradient id="paint11_linear_1702_16564" x1="221.861" y1="15.9435" x2="220.989" y2="92.4994" gradientUnits="userSpaceOnUse">
<stop stop-color="#AEC999"/>
<stop offset="1" stop-color="#B4DBC6"/>
</linearGradient>
<linearGradient id="paint12_linear_1702_16564" x1="184.641" y1="69.4019" x2="140.661" y2="22.9963" gradientUnits="userSpaceOnUse">
<stop stop-color="#7C9C6D"/>
<stop offset="1" stop-color="#92AFB9"/>
<stop offset="1" stop-color="#92B99B"/>
</linearGradient>
<linearGradient id="paint13_linear_1702_16564" x1="259.869" y1="11.2424" x2="181.62" y2="176.438" gradientUnits="userSpaceOnUse">
<stop stop-color="#BED8A3"/>
<stop offset="1" stop-color="#C6CBC7"/>
</linearGradient>
<linearGradient id="paint14_linear_1702_16564" x1="259.869" y1="11.2424" x2="181.62" y2="176.438" gradientUnits="userSpaceOnUse">
<stop stop-color="#BED8A3"/>
<stop offset="1" stop-color="#C6CBC7"/>
</linearGradient>
<linearGradient id="paint15_linear_1702_16564" x1="259.869" y1="11.2424" x2="181.62" y2="176.438" gradientUnits="userSpaceOnUse">
<stop stop-color="#BED8A3"/>
<stop offset="1" stop-color="#C6CBC7"/>
</linearGradient>
<linearGradient id="paint16_linear_1702_16564" x1="148.42" y1="50.2618" x2="176.285" y2="145.118" gradientUnits="userSpaceOnUse">
<stop stop-color="#A1BF89"/>
<stop offset="1" stop-color="#8AB284"/>
</linearGradient>
<linearGradient id="paint17_linear_1702_16564" x1="148.42" y1="50.2618" x2="176.285" y2="145.118" gradientUnits="userSpaceOnUse">
<stop stop-color="#A1BF89"/>
<stop offset="1" stop-color="#8AB284"/>
</linearGradient>
<linearGradient id="paint18_linear_1702_16564" x1="148.42" y1="50.2618" x2="176.285" y2="145.118" gradientUnits="userSpaceOnUse">
<stop stop-color="#A1BF89"/>
<stop offset="1" stop-color="#8AB284"/>
</linearGradient>
<linearGradient id="paint19_linear_1702_16564" x1="164" y1="-2.04432e-07" x2="168.183" y2="308.415" gradientUnits="userSpaceOnUse">
<stop stop-color="#B3D6B7"/>
<stop offset="0.9999" stop-color="#BBEEFF"/>
<stop offset="1" stop-color="#B3CDD6" stop-opacity="0"/>
<stop offset="1" stop-color="#C0DEB9"/>
</linearGradient>
<linearGradient id="paint20_linear_1702_16564" x1="221.861" y1="15.9435" x2="220.989" y2="92.4994" gradientUnits="userSpaceOnUse">
<stop stop-color="#99C9A1"/>
<stop offset="1" stop-color="#B4DBC6"/>
</linearGradient>
<linearGradient id="paint21_linear_1702_16564" x1="221.861" y1="15.9435" x2="220.989" y2="92.4994" gradientUnits="userSpaceOnUse">
<stop stop-color="#99C9A1"/>
<stop offset="1" stop-color="#B4DBC6"/>
</linearGradient>
<linearGradient id="paint22_linear_1702_16564" x1="221.861" y1="15.9435" x2="220.989" y2="92.4994" gradientUnits="userSpaceOnUse">
<stop stop-color="#99C9A1"/>
<stop offset="1" stop-color="#B4DBC6"/>
</linearGradient>
<linearGradient id="paint23_linear_1702_16564" x1="184.641" y1="69.4019" x2="140.661" y2="22.9963" gradientUnits="userSpaceOnUse">
<stop stop-color="#6E9C6D"/>
<stop offset="1" stop-color="#92AFB9"/>
<stop offset="1" stop-color="#92B99B"/>
</linearGradient>
<linearGradient id="paint24_linear_1702_16564" x1="259.869" y1="11.2424" x2="181.62" y2="176.438" gradientUnits="userSpaceOnUse">
<stop stop-color="#AED8A3"/>
<stop offset="1" stop-color="#C6CBC7"/>
</linearGradient>
<linearGradient id="paint25_linear_1702_16564" x1="259.869" y1="11.2424" x2="181.62" y2="176.438" gradientUnits="userSpaceOnUse">
<stop stop-color="#AED8A3"/>
<stop offset="1" stop-color="#C6CBC7"/>
</linearGradient>
<linearGradient id="paint26_linear_1702_16564" x1="259.869" y1="11.2424" x2="181.62" y2="176.438" gradientUnits="userSpaceOnUse">
<stop stop-color="#AED8A3"/>
<stop offset="1" stop-color="#C6CBC7"/>
</linearGradient>
</defs>
</svg>
