<svg width="294" height="309" viewBox="0 0 294 309" fill="none" xmlns="http://www.w3.org/2000/svg">
<path d="M63.4408 93.3779C62.8082 99.0717 63.4408 111.724 71.0325 116.786C74.3222 118.81 77.8861 119.316 79.2568 119.316C80.6956 119.316 82.8674 118.806 84.9506 117.32C87.4472 115.54 89.8166 112.36 90.6443 106.98C92.1627 97.1105 90.8552 93.7997 90.0117 93.3779L87.9233 97.3779L83.4233 98.8779L63.4408 93.3779Z" fill="#E2857E"/>
<path d="M79.2568 119.316C77.8861 119.316 74.3222 118.81 71.0325 116.786C71.0325 120.611 70.7884 123.37 70.2586 125.378C68.8 130.907 65.1764 130.746 58.5229 131.491C55.6033 131.817 53.3709 131.682 49.2115 132.914C32.1302 137.975 52.4402 186.719 54.3382 199.056C54.093 202.376 53.8532 205.629 53.6534 208.556C72.8069 218.556 96.6727 211.389 106.211 206.556L105.439 198.056L103.211 173.556C103.211 173.556 110.65 160.256 110.653 156.131C110.653 155.353 110.622 154.67 110.573 154.111C110.623 154.666 110.654 155.349 110.653 156.131C110.657 160.342 103.211 173.556 103.211 173.556L105.439 198.056C104.701 188.355 117.471 155.117 116.711 150.056C115.811 144.056 116.663 139.484 110.653 135.056C105.912 131.562 103.663 133.347 97.4303 132.914C95.762 132.798 94.0292 132.619 92.2259 132.285C88.9087 131.671 86.9981 129.177 85.9586 126.263C84.8571 123.175 84.7336 119.616 84.9506 117.32C82.8674 118.806 80.6956 119.316 79.2568 119.316Z" fill="#E2857E"/>
<path d="M71.0325 116.786C63.4408 111.724 62.8082 99.0717 63.4408 93.3779L83.4233 98.8779L87.9233 97.3779L90.0117 93.3779C90.8552 93.7997 92.1627 97.1105 90.6443 106.98C89.8166 112.36 87.4472 115.54 84.9506 117.32C84.7336 119.616 84.8571 123.175 85.9586 126.263C102.787 116.971 104.947 97.6348 102.923 89.3779C102.757 83.7112 96.4233 72.7779 80.4233 72.3779C64.4233 71.9779 55.9088 82.3779 54.3382 88.3779C51.8648 96.0446 52.6848 115.378 70.2586 125.378C70.7884 123.37 71.0325 120.611 71.0325 116.786Z" fill="#292929"/>
<path d="M50.8893 131.785C52.1546 136.53 58.9871 146.146 76.195 146.652C93.4028 147.158 102.133 137.584 104.348 132.734C112.783 132.207 128.831 135.075 125.541 150.764C124.322 158.08 121.242 162.213 117.824 164.403C114.079 167 110.005 167.001 107.511 166.264C107.511 168.795 105.929 170.06 104.98 171.325C104.031 172.59 105.296 185.56 104.347 187.141C99.9512 189.14 93.7234 189.941 87.2396 190.052C84.8962 190.093 82.5193 190.043 80.1834 189.927C68.5214 189.347 57.8809 187.117 57.5203 186.216C56.255 174.322 52.5203 168.716 50.8893 165.631C48.8559 166.517 46.19 167.225 43.4818 167.217C37.3917 167.236 31.1022 163.735 31.2775 150.764C31.5305 132.038 44.4575 130.309 50.8893 131.785Z" fill="#2E2E2E"/>
<path d="M57.5203 186.216C57.3094 190.75 53.4232 194.878 49.4232 207.378C48.4742 208.011 24.4233 297.878 24.4233 297.878C34.0184 299.776 55.7582 270.152 69.4232 288.878C77.3312 293.306 80.0562 279.082 94.9232 282.878C101.423 286.545 99.5232 301.878 119.923 297.878C122.656 297.878 128.323 307.478 133.923 297.878C139.523 288.278 119.124 231.026 109.725 209.6C107.722 206.964 103.841 198.782 104.347 187.141C99.9512 189.14 93.7234 189.941 87.2396 190.052C85.0815 190.17 82.82 190.138 80.1834 189.927C68.5214 189.347 57.8809 187.117 57.5203 186.216Z" fill="#E85D5D"/>
<path d="M194.441 92.3667C193.808 98.0605 194.441 110.713 202.033 115.774C205.322 117.799 208.886 118.305 210.257 118.305C211.696 118.305 213.867 117.794 215.951 116.309C218.447 114.529 220.817 111.349 221.644 105.968C223.163 96.0993 221.855 92.7885 221.012 92.3667H194.441Z" fill="#E2857E"/>
<path d="M210.257 118.305C208.886 118.305 205.322 117.799 202.033 115.774C202.033 130.132 198.593 129.465 189.523 130.479C186.603 130.806 184.371 130.67 180.211 131.903C163.13 136.964 183.44 185.708 185.338 198.045C185.093 201.365 184.853 204.618 184.653 207.545C203.807 217.545 227.673 210.378 237.211 205.545L236.439 197.045L234.211 172.545C234.211 172.545 241.65 159.245 241.653 155.12C241.653 154.342 241.622 153.659 241.573 153.1C241.623 153.655 241.654 154.338 241.653 155.12C241.657 159.33 234.211 172.545 234.211 172.545L236.439 197.045C235.701 187.344 248.471 154.106 247.711 149.045C246.811 143.045 247.663 138.473 241.653 134.045C236.912 130.551 234.663 132.336 228.43 131.903C226.762 131.787 225.029 131.608 223.226 131.274C216.393 130.009 215.529 120.77 215.951 116.309C213.867 117.794 211.696 118.305 210.257 118.305Z" fill="#E2857E"/>
<path d="M202.033 115.774C194.441 110.713 193.808 98.0605 194.441 92.3667H221.012C221.855 92.7885 223.163 96.0993 221.644 105.968C220.817 111.349 218.447 114.529 215.951 116.309C218.423 116.309 226.423 115.774 228.43 96.8667C230.334 78.9311 218.021 74.0334 209.423 72.3667C200.449 73.0334 186.303 77.3614 186.711 91.3667C187.423 115.774 199.923 117.867 202.033 115.774Z" fill="#292929"/>
<path d="M181.889 130.774C183.155 135.519 189.987 145.135 207.195 145.641C224.403 146.147 233.133 136.573 235.348 131.723C243.783 131.196 259.831 134.064 256.541 149.753C255.322 157.068 252.242 161.202 248.824 163.392C245.079 165.989 241.005 165.99 238.511 165.253C238.511 167.783 236.929 169.049 235.98 170.314C235.031 171.579 236.296 184.548 235.347 186.13C230.951 188.128 224.723 188.93 218.24 189.041C215.896 189.081 213.519 189.031 211.183 188.915C199.521 188.336 188.881 186.106 188.52 185.205C187.255 173.311 183.52 167.705 181.889 164.62C179.856 165.506 177.19 166.214 174.482 166.205C168.392 166.225 162.102 162.724 162.277 149.753C162.531 131.027 175.457 129.298 181.889 130.774Z" fill="#348563"/>
<path d="M188.52 185.205C188.309 189.739 184.423 193.867 180.423 206.367C179.474 206.999 155.423 296.867 155.423 296.867C165.018 298.765 186.758 269.141 200.423 287.867C208.331 292.295 211.056 278.071 225.923 281.867C232.423 285.533 230.523 300.867 250.923 296.867C253.656 296.867 259.323 306.467 264.923 296.867C270.523 287.267 250.124 230.015 240.725 208.589C238.722 205.953 234.841 197.771 235.347 186.13C230.951 188.128 224.723 188.93 218.24 189.041C216.082 189.158 213.82 189.127 211.183 188.915C199.521 188.336 188.881 186.106 188.52 185.205Z" fill="#E85D5D"/>
<path d="M133.441 98.8667C132.808 104.56 133.441 117.213 141.033 122.274C144.322 124.299 147.886 124.805 149.257 124.805C150.696 124.805 152.867 124.295 154.951 122.809C157.447 121.029 159.817 117.849 160.644 112.468C162.163 102.599 160.855 99.2885 160.012 98.8667H133.441Z" fill="#E2857E"/>
<path d="M149.257 124.805C147.886 124.805 144.322 124.299 141.033 122.274C141.033 136.632 137.593 135.965 128.523 136.979C125.603 137.306 123.371 137.17 119.211 138.403C102.13 143.464 122.44 192.208 124.338 204.545C124.093 207.865 123.853 211.118 123.653 214.045C142.807 224.045 166.673 216.878 176.211 212.045L175.439 203.545L173.211 179.045C173.211 179.045 180.65 165.745 180.653 161.62C180.653 160.842 180.622 160.159 180.573 159.6C180.623 160.155 180.654 160.838 180.653 161.62C180.657 165.83 173.211 179.045 173.211 179.045L175.439 203.545C174.701 193.844 187.471 160.606 186.711 155.545C185.811 149.545 186.663 144.973 180.653 140.545C175.912 137.051 173.663 138.836 167.43 138.403C165.762 138.287 164.029 138.108 162.226 137.774C155.393 136.509 154.529 127.27 154.951 122.809C152.867 124.295 150.696 124.805 149.257 124.805Z" fill="#E2857E"/>
<path d="M141.033 122.274C133.441 117.213 132.808 104.56 133.441 98.8667H160.012C160.855 99.2885 162.163 102.599 160.644 112.468C159.817 117.849 157.447 121.029 154.951 122.809C154.529 127.27 155.393 136.509 162.226 137.774C164.029 138.108 165.762 138.287 167.43 138.403C176.923 115.367 176.923 72.3667 143.423 72.3667C113.17 72.3667 117.923 129.867 128.523 136.979C137.593 135.965 141.033 136.632 141.033 122.274Z" fill="#292929"/>
<path d="M120.889 138.274C122.155 143.019 128.987 152.635 146.195 153.141C163.403 153.647 172.133 144.073 174.348 139.223C182.783 138.696 198.831 141.564 195.541 157.253C194.322 164.568 191.242 168.702 187.824 170.892C184.079 173.489 180.005 173.49 177.511 172.753C177.511 175.283 175.929 176.549 174.98 177.814C174.031 179.079 175.296 192.048 174.347 193.63C169.951 195.628 163.723 196.43 157.24 196.541C154.896 196.581 152.519 196.531 150.183 196.415C138.521 195.836 127.881 193.606 127.52 192.705C126.255 180.811 122.52 175.205 120.889 172.12C118.856 173.006 116.19 173.714 113.482 173.705C107.392 173.725 101.102 170.224 101.277 157.253C101.531 138.527 114.457 136.798 120.889 138.274Z" fill="#FFF4F4"/>
<path d="M127.52 192.705C127.309 197.239 123.423 201.367 119.423 213.867C118.474 214.499 94.4233 304.367 94.4233 304.367C104.018 306.265 125.758 276.641 139.423 295.367C147.331 299.795 150.056 285.571 164.923 289.367C171.423 293.033 169.523 308.367 189.923 304.367C192.656 304.367 198.323 313.967 203.923 304.367C209.523 294.767 189.124 237.515 179.725 216.089C177.722 213.453 173.841 205.271 174.347 193.63C169.951 195.628 163.723 196.43 157.24 196.541C155.082 196.658 152.82 196.627 150.183 196.415C138.521 195.836 127.881 193.606 127.52 192.705Z" fill="#E85D5D"/>
<path d="M279.966 118.241C271.488 113.477 267.225 107.109 269.957 97.0933C270.639 94.5939 273.144 88.7532 276.051 87.8918C283.061 85.8147 291.588 93.1945 291.588 100.08C291.588 110.824 285.419 116.517 274.88 113.882" stroke="#3FCD67" stroke-width="3" stroke-linecap="round"/>
<path d="M176.085 55.7671C177.308 51.3931 178.285 48.9739 183.349 48.7046C185.281 48.6018 189.594 48.8547 190.452 51.3278C191.136 53.2964 190.569 59.4617 188.838 60.9329C186.088 63.27 176.191 57.7352 178.264 53.5878" stroke="#FFC122" stroke-width="3" stroke-linecap="round"/>
<path d="M8.36615 233.609C6.91491 228.094 10.3041 221.829 15.3757 219.225C20.9853 216.344 21.0637 223.657 20.7788 227.147C20.4071 231.7 18.0859 232.611 14.2804 230.98" stroke="#3FCD67" stroke-width="3" stroke-linecap="round"/>
<path d="M258.737 224.409C264.536 219.543 267.978 217.957 271.296 225.869C271.312 225.908 273.868 231.179 272.464 231.491C268.047 232.473 262.409 229.04 258.737 227.037" stroke="#FFC122" stroke-width="3" stroke-linecap="round"/>
<path d="M49.6802 14.8603C51.8452 10.2934 57.69 -4.83406 61.9641 6.47968C62.33 7.44816 62.9388 8.68135 63.0834 9.69417C63.3799 11.7692 52.9303 10.7274 51.23 10.7274" stroke="#3FCD67" stroke-width="3" stroke-linecap="round"/>
<path d="M95.404 54.0036C95.7976 53.0795 96.0039 52.6189 95.7062 53.3517C95.6084 53.5924 95.5076 53.8084 95.404 54.0036Z" fill="#3FCD67"/>
<path d="M93.4828 58.7044C94.1532 56.8924 96.4334 51.5617 95.7062 53.3517C94.7124 55.798 93.4087 55.6859 92.0005 57.2221" stroke="#39C973" stroke-width="3" stroke-linecap="round"/>
<path d="M2.41211 97.5632C3.65172 99.5251 4.81059 101.54 6.13093 103.449C7.12909 104.892 8.8788 108.374 9.99616 107.021C10.7569 106.1 9.38038 103.916 8.56134 103.478C7.9522 103.152 6.78001 103.361 6.10165 103.361" stroke="#FFC122" stroke-width="3" stroke-linecap="round"/>
<path d="M254.259 31.392C256.462 33.3113 259.762 37.1919 263.07 37.3904C264.066 37.4502 264.526 36.4535 263.616 36.0415C260.901 34.8122 257.639 34.3006 254.776 33.4584" stroke="#FFC122" stroke-width="3" stroke-linecap="round"/>
</svg>
