<svg width="130" height="154" viewBox="0 0 130 154" fill="none" xmlns="http://www.w3.org/2000/svg">
<g clip-path="url(#clip0_2092_17230)">
<path fill-rule="evenodd" clip-rule="evenodd" d="M8.5625 77C8.5625 92.0842 14.5086 106.551 25.0927 117.217C35.6767 127.883 50.0318 133.875 65 133.875C79.9682 133.875 94.3232 127.883 104.907 117.217C115.491 106.551 121.438 92.0842 121.438 77C121.438 61.9158 115.491 47.4494 104.907 36.7833C94.3232 26.1172 79.9682 20.125 65 20.125C50.0318 20.125 35.6767 26.1172 25.0927 36.7833C14.5086 47.4494 8.5625 61.9158 8.5625 77ZM129.5 77C129.5 94.2391 122.704 110.772 110.608 122.962C98.5123 135.152 82.1065 142 65 142C47.8935 142 31.4877 135.152 19.3916 122.962C7.29552 110.772 0.5 94.2391 0.5 77C0.5 59.7609 7.29552 43.2279 19.3916 31.0381C31.4877 18.8482 47.8935 12 65 12C82.1065 12 98.5123 18.8482 110.608 31.0381C122.704 43.2279 129.5 59.7609 129.5 77ZM69.0312 105.438C69.0312 106.515 68.6065 107.548 67.8505 108.31C67.0945 109.072 66.0692 109.5 65 109.5C63.9308 109.5 62.9055 109.072 62.1495 108.31C61.3935 107.548 60.9688 106.515 60.9688 105.438V58.3694L43.6666 75.8138C42.9097 76.5766 41.883 77.0051 40.8125 77.0051C39.742 77.0051 38.7153 76.5766 37.9584 75.8138C37.2014 75.0509 36.7762 74.0163 36.7762 72.9375C36.7762 71.8587 37.2014 70.8241 37.9584 70.0612L62.1459 45.6862C62.5203 45.3079 62.9652 45.0078 63.455 44.803C63.9447 44.5982 64.4697 44.4927 65 44.4927C65.5303 44.4927 66.0553 44.5982 66.545 44.803C67.0348 45.0078 67.4797 45.3079 67.8541 45.6862L92.0416 70.0612C92.7986 70.8241 93.2238 71.8587 93.2238 72.9375C93.2238 74.0163 92.7986 75.0509 92.0416 75.8138C91.2847 76.5766 90.258 77.0051 89.1875 77.0051C88.117 77.0051 87.0903 76.5766 86.3334 75.8138L69.0312 58.3694V105.438Z" fill="#87E54C"/>
</g>
<defs>
<clipPath id="clip0_2092_17230">
<rect width="129" height="154" fill="white" transform="translate(0.5)"/>
</clipPath>
</defs>
</svg>
