<svg width="128" height="127" viewBox="0 0 128 127" fill="none" xmlns="http://www.w3.org/2000/svg">
<rect x="0.5" width="127" height="127" rx="63.5" fill="#FC4C51"/>
<path d="M97.9915 85.4884H91.1056C90.6354 85.4884 90.1946 85.6935 89.9008 86.0549C89.2151 86.8851 88.4805 87.6861 87.7067 88.4479C84.5418 91.607 80.793 94.1246 76.6676 95.8614C72.3936 97.6615 67.7998 98.585 63.1602 98.5768C58.4684 98.5768 53.9234 97.6586 49.6528 95.8614C45.5274 94.1246 41.7786 91.607 38.6137 88.4479C35.4432 85.2995 32.9151 81.5678 31.1695 77.4596C29.3574 73.201 28.4464 68.6787 28.4464 64.0001C28.4464 59.3215 29.3672 54.7992 31.1695 50.5406C32.913 46.4285 35.4205 42.7266 38.6137 39.5522C41.8069 36.3778 45.5193 33.8773 49.6528 32.1387C53.9234 30.3415 58.4684 29.4234 63.1602 29.4234C67.8521 29.4234 72.397 30.3318 76.6676 32.1387C80.8011 33.8773 84.5135 36.3778 87.7067 39.5522C88.4805 40.3238 89.2053 41.1248 89.9008 41.9452C90.1946 42.3066 90.6452 42.5117 91.1056 42.5117H97.9915C98.6086 42.5117 98.9906 41.828 98.6478 41.3103C91.135 29.6676 77.99 21.9611 63.0525 22.0001C39.5834 22.0588 20.7671 41.0564 21.0022 64.4298C21.2373 87.4321 40.0242 106 63.1602 106C78.0585 106 91.1448 98.3033 98.6478 86.6898C98.9808 86.1721 98.6086 85.4884 97.9915 85.4884ZM106.699 63.3847L92.8001 52.4452C92.281 52.035 91.5268 52.4061 91.5268 53.0606V60.4838H60.7702C60.3392 60.4838 59.9866 60.8354 59.9866 61.2652V66.735C59.9866 67.1647 60.3392 67.5163 60.7702 67.5163H91.5268V74.9396C91.5268 75.594 92.2908 75.9652 92.8001 75.5549L106.699 64.6154C106.793 64.5423 106.869 64.4489 106.921 64.3423C106.973 64.2357 107 64.1187 107 64.0001C107 63.8815 106.973 63.7644 106.921 63.6578C106.869 63.5512 106.793 63.4578 106.699 63.3847Z" fill="white"/>
</svg>
