<svg width="40" height="40" viewBox="0 0 40 40" fill="none" xmlns="http://www.w3.org/2000/svg">
<mask id="mask0_1689_16553" style="mask-type:alpha" maskUnits="userSpaceOnUse" x="0" y="0" width="40" height="40">
<path d="M28.6955 25.2412H26.934C26.8137 25.2412 26.701 25.2937 26.6258 25.3861C26.4504 25.5985 26.2625 25.8034 26.0645 25.9983C25.2549 26.8064 24.2959 27.4505 23.2406 27.8948C22.1472 28.3553 20.972 28.5915 19.7852 28.5894C18.5849 28.5894 17.4223 28.3545 16.3298 27.8948C15.2744 27.4505 14.3155 26.8064 13.5058 25.9983C12.6948 25.1929 12.0481 24.2383 11.6015 23.1873C11.1379 22.0979 10.9049 20.9411 10.9049 19.7442C10.9049 18.5474 11.1404 17.3905 11.6015 16.3011C12.0475 15.2491 12.689 14.3022 13.5058 13.4901C14.3227 12.678 15.2724 12.0384 16.3298 11.5936C17.4223 11.1339 18.5849 10.899 19.7852 10.899C20.9854 10.899 22.1481 11.1314 23.2406 11.5936C24.298 12.0384 25.2476 12.678 26.0645 13.4901C26.2625 13.6875 26.4479 13.8924 26.6258 14.1023C26.701 14.1947 26.8162 14.2472 26.934 14.2472H28.6955C28.8534 14.2472 28.9511 14.0723 28.8634 13.9399C26.9415 10.9615 23.5788 8.99004 19.7576 9.00004C13.7539 9.01503 8.94042 13.8749 9.00056 19.8541C9.06069 25.7384 13.8667 30.4884 19.7852 30.4884C23.5964 30.4884 26.944 28.5194 28.8634 25.5486C28.9486 25.4161 28.8534 25.2412 28.6955 25.2412ZM30.9231 19.5868L27.3675 16.7883C27.2347 16.6834 27.0417 16.7783 27.0417 16.9457V18.8447H19.1738C19.0635 18.8447 18.9733 18.9346 18.9733 19.0446V20.4438C18.9733 20.5538 19.0635 20.6437 19.1738 20.6437H27.0417V22.5427C27.0417 22.7101 27.2372 22.805 27.3675 22.7001L30.9231 19.9016C30.947 19.8829 30.9664 19.859 30.9797 19.8318C30.9931 19.8045 31 19.7745 31 19.7442C31 19.7139 30.9931 19.6839 30.9797 19.6567C30.9664 19.6294 30.947 19.6055 30.9231 19.5868V19.5868Z" fill="white"/>
</mask>
<g mask="url(#mask0_1689_16553)">
<path d="M0 0H40V40H0V0Z" fill="#FC4C51"/>
</g>
</svg>
