<svg width="222" height="222" viewBox="0 0 222 222" fill="none" xmlns="http://www.w3.org/2000/svg">
<ellipse cx="111.5" cy="111" rx="110.5" ry="111" fill="#FFA132" fill-opacity="0.6"/>
<path d="M109.963 61.4056C108.719 61.4056 105.486 60.9465 102.502 59.1101C102.502 72.1341 99.3823 71.5287 91.1547 72.4491C88.5064 72.7454 85.3289 73.1998 81.5559 74.3177C66.0614 78.9087 67.4961 115.063 69.2177 126.253C58.3141 121.088 28.7597 128.549 29.6205 126.253C30.4813 123.958 20.4385 118.793 19.5777 117.932C18.7169 117.071 17.2822 116.497 16.9953 117.358C17.8561 119.654 17.5692 119.08 19.5777 120.514C21.1845 121.662 20.8211 122.714 20.4385 123.097C17.3779 123.575 10.7401 123.671 8.67413 120.228C6.60819 116.784 5.13525 116.497 4.65702 116.784C3.22234 118.506 11.7157 132.107 26.1773 132.566C29.9074 130.557 41.9587 127.975 70.0785 137.157C71.3605 137.718 72.9827 138.365 74.6695 139.01C84.3105 136.591 87.486 117.637 87.8685 108.463C86.5642 107.005 85.465 105.24 84.5655 103.386C83.4347 101.135 82.4043 98.3954 81.8888 95.4007C81.4661 93.2895 81.359 91.5591 81.5559 90.6731C81.498 92.2942 81.6271 93.8803 81.8888 95.4007C82.3686 97.7977 83.2552 100.686 84.5655 103.386C85.7059 105.656 86.9485 107.428 87.8685 108.463C96.5914 129.352 88.2511 139.548 82.9906 142.035C81.1851 141.412 77.8151 140.214 74.6695 139.01C72.9827 138.365 71.3605 137.718 70.0785 137.157C41.9587 127.975 29.9074 130.557 26.1773 132.566C23.021 132.566 17.8561 143.182 20.7255 147.486C25.0295 163.268 67.783 177.041 80.4082 180.771C93.0334 184.501 103.937 187.084 104.511 190.24C106.039 192.532 107.474 194.502 108.815 196.177C114.525 203.305 118.543 205.066 120.866 203.439C123.736 201.43 121.44 194.257 117.136 190.814C115.701 188.04 112.488 182.148 111.11 180.771C109.389 179.049 108.815 178.763 102.789 176.754C96.7636 174.745 81.5559 165.563 78.9735 159.825C78.8656 159.599 78.735 159.365 78.5825 159.122C77.5044 157.457 75.0411 155.088 71.734 152.505C62.9087 145.872 47.9925 138.295 35.6461 136.583C46.2543 136.175 62.3739 145.194 71.734 152.505C74.9925 154.954 77.4206 157.274 78.5825 159.122C78.7449 159.373 78.8758 159.608 78.9735 159.825C81.5559 165.563 96.7636 174.745 102.789 176.754C108.815 178.763 109.389 179.049 111.11 180.771C117.04 178.763 131.77 172.45 143.247 163.268C145.313 158.218 157.307 149.686 163.046 146.052C168.498 143.182 180.63 138.349 185.165 139.483C182.142 139.105 177.228 139.483 163.046 146.052C157.307 149.686 145.313 158.218 143.247 163.268C131.77 172.45 117.04 178.763 111.11 180.771C112.488 182.148 115.701 188.04 117.136 190.814C120.579 187.944 117.71 189.666 132.631 185.649C147.551 181.632 173.949 173.311 191.453 156.955C205.455 143.871 198.435 136.774 193.174 134.861C189.731 133.905 178.368 133.656 160.463 140.313C155.681 142.896 144.625 147.2 138.656 143.756C132.688 140.313 133.3 119.558 134.352 109.611C137.633 104.787 138.439 98.5428 138.443 94.8003C138.442 94.095 138.414 93.4755 138.369 92.9686C138.415 93.4715 138.443 94.091 138.443 94.8003C138.446 98.62 137.646 104.961 134.352 109.611C139.517 148.921 154.151 138.878 160.463 140.313C178.368 133.656 189.731 133.905 193.174 134.861L204.365 132.853C206.373 131.514 211.481 127.803 215.842 123.671C220.204 119.539 215.746 120.801 212.973 121.949C209.338 123.575 202.069 126.483 202.069 125.105C202.069 123.728 204.365 121.088 205.512 119.941C205.417 119.749 205.053 119.252 204.365 118.793C203.504 118.219 200.061 120.514 200.061 122.523C196.617 122.81 194.035 124.245 191.453 127.401C176.073 123.269 159.029 124.149 152.429 125.105C151.76 116.306 150.248 97.5596 149.56 92.9686C148.699 87.2299 146.69 80.9173 141.239 76.9002C136.938 73.7312 132.102 74.1335 126.448 73.7404C124.935 73.6351 123.363 73.4729 121.727 73.17C115.529 72.0223 114.745 63.6419 115.127 59.5952C113.238 60.9426 111.268 61.4056 109.963 61.4056Z" fill="#E2857E"/>
<path d="M95.6159 37.8768C95.042 43.0417 95.6159 54.5191 102.502 59.1101C105.486 60.9465 108.719 61.4056 109.963 61.4056C111.268 61.4056 113.238 60.9426 115.127 59.5952C117.392 57.9804 119.542 55.0954 120.292 50.2151C121.67 41.2627 120.484 38.2594 119.718 37.8768H95.6159Z" fill="#E2857E"/>
<path d="M104.511 190.24C100.685 191.675 93.1482 195.52 93.6073 199.422C94.1811 204.3 105.372 200.105 108.815 196.177C107.474 194.502 106.039 192.532 104.511 190.24Z" fill="#E85D5D"/>
<path d="M102.502 59.1101C95.6159 54.5191 95.042 43.0417 95.6159 37.8768H119.718C120.484 38.2594 121.67 41.2627 120.292 50.2151C119.542 55.0954 117.392 57.9804 115.127 59.5952C114.745 63.6419 115.529 72.0223 121.727 73.17C123.363 73.4729 124.935 73.6351 126.448 73.7404C131.804 54.6124 135.63 15.8975 108.084 14.0611C80.5381 12.2247 85.3204 52.2213 91.1547 72.4491C99.3823 71.5287 102.502 72.1341 102.502 59.1101Z" fill="#111111"/>
<path d="M49.2618 176.201C43.7526 173.676 42.2002 168.709 42.2958 166.318C59.3207 172.726 94.196 185.096 96.0324 185.096C97.8688 185.096 99.2844 186.244 99.7626 186.818C94.0239 188.635 79.6197 190.72 67.9127 184.522C53.2789 176.775 56.1483 179.357 49.2618 176.201Z" fill="#E85D5D"/>
<path d="M83.6942 142.056C90.3511 137.235 91.2395 126.965 91.4308 122.852C116.968 128.017 118.413 126.848 133.908 123.692C133.449 134.251 136.969 141.673 138.786 144.064C141.464 144.925 148.714 145.786 156.289 142.342C163.864 138.899 172.836 136.699 176.375 136.03C175.801 136.795 174.883 138.842 175.801 140.908C167.766 143.777 153.42 150.377 145.672 160.993C139.475 169.487 120.9 177.923 112.388 181.079C112.101 180.888 111.47 180.39 111.24 179.931C97.754 176.488 89.7198 167.593 82.5464 163.576C70.1508 146.589 44.5742 138.558 35.8705 136.837C35.0097 135.307 33.2881 131.844 33.2881 130.237C49.6435 127.942 82.8334 142.629 83.6942 142.056Z" fill="#E85D5D"/>
<path d="M159.537 182.633C151.273 187.684 136.769 187.215 130.361 185.972C145.741 183.217 164.702 174.121 172.449 170.295C171.589 172.304 167.801 177.583 159.537 182.633Z" fill="#E85D5D"/>
<path d="M85.4158 73.4778C86.5636 77.7818 92.7614 86.5047 108.371 86.9638C123.98 87.4229 131.899 78.7383 133.908 74.3386C141.56 73.8604 156.117 76.4619 153.133 90.6939C152.027 97.3297 149.234 101.079 146.133 103.066C142.736 105.422 139.04 105.422 136.777 104.754C136.777 107.049 135.343 108.197 134.482 109.345C133.621 110.493 134.769 122.257 133.908 123.692C121.283 129.43 92.0047 124.287 91.4308 122.852C90.283 112.063 86.8952 106.978 85.4158 104.18C83.5713 104.983 81.153 105.625 78.6964 105.618C73.172 105.635 67.4668 102.46 67.6258 90.6939C67.8553 73.7073 79.5814 72.1387 85.4158 73.4778Z" fill="#FFF4F4"/>
<path d="M91.4971 122.815C91.4063 125.299 91.2989 126.881 90.7534 129.355C91.559 129.695 92.3343 130.008 93.0983 130.296L94.1775 128.377L93.4454 126.221L94.661 123.973C93.381 123.645 91.8296 123.083 91.4971 122.815Z" fill="#DFD3D3"/>
<path d="M94.1775 130.689C94.4271 130.776 94.5794 130.861 94.8292 130.943C94.8905 130.963 95.0489 130.983 95.1102 131.003L95.6648 124.206C95.4755 124.163 95.2899 124.119 95.1102 124.076L94.1775 130.689Z" fill="#FADE4B" fill-opacity="0.91"/>
<path d="M103.038 132.737C103.389 132.783 103.749 132.827 104.118 132.87L104.353 125.563C104.073 125.53 103.793 125.497 103.513 125.463L103.038 132.737Z" fill="#57DE28"/>
<path d="M105.05 125.644L105.669 128.037L104.516 129.971L105.852 133.051C106.905 133.15 108.031 133.238 109.247 133.317L110.905 130.297L109.66 128.222L110.754 126.137C109.069 126.068 107.093 125.886 105.05 125.644Z" fill="#DFD3D3"/>
<path d="M102.906 125.384C100.529 125.06 98.1796 124.709 96.2429 124.329L96.7061 126.438L95.6648 128.781L95.9973 131.28C97.6446 131.772 99.3515 132.165 101.307 132.483L102.866 129.778L101.307 127.591L102.906 125.384Z" fill="#DFD3D3"/>
<path d="M111.849 126.206C111.725 126.205 111.696 126.199 111.567 126.191V133.452L111.802 133.469C112.053 133.466 112.399 133.463 112.644 133.459V126.241C112.417 126.229 112.09 126.216 111.849 126.206Z" fill="#FADE4B" fill-opacity="0.91"/>
<path d="M113.639 126.29L114.932 128.222L113.639 130.297L114.932 133.415C116.629 133.376 118.151 133.323 119.543 133.255L120.869 129.971L119.839 128.222L120.37 127.237L120.902 126.251C118.756 126.355 116.379 126.384 113.639 126.29Z" fill="#DFD3D3"/>
<path d="M121.468 126.22L121.637 133.131C121.879 133.115 122.117 133.098 122.351 133.081L122.019 126.191C121.836 126.201 121.651 126.211 121.468 126.22Z" fill="#57DE28"/>
<path d="M122.963 126.122L124.282 128.222L122.813 129.971L124.571 132.893C125.874 132.767 127.086 132.619 128.275 132.449L129.383 129.394L128.065 127.148L129.383 125.16C127.139 125.717 125.104 125.914 122.963 126.122Z" fill="#DFD3D3"/>
<path d="M129.94 125.021V132.195C130.207 132.152 130.475 132.107 130.744 132.061L130.423 124.895C130.261 124.938 130.1 124.98 129.94 125.021Z" fill="#FADE4B" fill-opacity="0.91"/>
<path d="M134.319 131.412C133.868 128.517 133.79 126.822 133.959 123.739C132.866 124.094 131.887 124.495 130.885 124.771L132.19 126.782L131.238 129.394L132.787 131.699C133.286 131.607 133.795 131.512 134.319 131.412Z" fill="#DFD3D3"/>
<path d="M94.1775 130.689L95.1102 124.076L95.0021 124.051C94.9285 124.034 94.8561 124.017 94.7849 124.001L93.6206 126.221L94.3049 128.377L93.2181 130.341C93.5392 130.461 93.8586 130.577 94.1775 130.689Z" fill="#DFD3D3"/>
<path d="M94.661 123.973L93.4454 126.221L94.1775 128.377L93.0983 130.296L93.2181 130.341L94.3049 128.377L93.6206 126.221L94.7849 124.001C94.7431 123.992 94.7018 123.982 94.661 123.973Z" fill="#0B0A0A"/>
<path d="M95.6648 124.206L95.1102 131.003C95.3612 131.085 95.6129 131.164 95.8658 131.24L95.5238 128.781L96.5646 126.438L96.1209 124.305C95.9673 124.273 95.8149 124.24 95.6648 124.206Z" fill="#DFD3D3"/>
<path d="M96.7061 126.438L96.2429 124.329C96.2022 124.321 96.1615 124.313 96.1209 124.305L96.5646 126.438L95.5238 128.781L95.8658 131.24L95.9973 131.28L95.6648 128.781L96.7061 126.438Z" fill="#0B0A0A"/>
<path d="M102.906 125.384L101.307 127.591L102.866 129.778L101.307 132.483C101.369 132.493 101.432 132.503 101.496 132.513L103.023 129.778L101.569 127.591L103.093 125.409C103.031 125.401 102.968 125.392 102.906 125.384Z" fill="#0B0A0A"/>
<path d="M103.038 132.737L103.513 125.463C103.373 125.445 103.233 125.427 103.093 125.409L101.569 127.591L103.023 129.778L101.496 132.513C101.992 132.592 102.506 132.667 103.038 132.737Z" fill="#DFD3D3"/>
<path d="M104.353 125.563L104.118 132.87C104.592 132.925 105.082 132.976 105.589 133.026L104.313 129.971L105.425 128.037L104.906 125.627C104.722 125.606 104.538 125.584 104.353 125.563Z" fill="#DFD3D3"/>
<path d="M105.669 128.037L105.05 125.644L104.906 125.627L105.425 128.037L104.313 129.971L105.589 133.026C105.676 133.034 105.764 133.042 105.852 133.051L104.516 129.971L105.669 128.037Z" fill="#0B0A0A"/>
<path d="M110.754 126.137L109.66 128.222L110.905 130.297L109.247 133.317L109.409 133.328L111.071 130.297L109.93 128.222L110.905 126.145C110.855 126.142 110.805 126.139 110.754 126.137Z" fill="#0B0A0A"/>
<path d="M111.567 133.452V126.191C111.352 126.177 111.131 126.158 110.905 126.145L109.93 128.222L111.071 130.297L109.409 133.328C110.099 133.372 110.817 133.413 111.567 133.452Z" fill="#DFD3D3"/>
<path d="M112.644 126.241V133.459C113.354 133.448 114.036 133.436 114.691 133.421L113.437 130.297L114.699 128.222L113.437 126.282C113.188 126.272 112.942 126.258 112.691 126.244L112.644 126.241Z" fill="#DFD3D3"/>
<path d="M114.932 128.222L113.639 126.29C113.571 126.288 113.504 126.285 113.437 126.282L114.699 128.222L113.437 130.297L114.691 133.421L114.932 133.415L113.639 130.297L114.932 128.222Z" fill="#0B0A0A"/>
<path d="M121.637 133.131L121.468 126.22C121.346 126.226 121.225 126.231 121.105 126.237L121.002 126.242L119.991 128.222L120.989 129.971L119.67 133.244C120.356 133.21 121.01 133.172 121.637 133.131Z" fill="#DFD3D3"/>
<path d="M120.902 126.251L120.37 127.237L119.839 128.222L120.869 129.971L119.543 133.255L119.67 133.244L120.989 129.971L119.991 128.222L121.002 126.242L120.902 126.251Z" fill="#0B0A0A"/>
<path d="M122.019 126.191L122.351 133.081C123.06 133.029 123.736 132.973 124.389 132.911L122.621 129.971L124.118 128.222L122.813 126.135C122.559 126.157 122.291 126.175 122.019 126.191Z" fill="#DFD3D3"/>
<path d="M124.282 128.222L122.963 126.122L122.861 126.131L122.813 126.135L124.118 128.222L122.621 129.971L124.389 132.911L124.571 132.893L122.813 129.971L124.282 128.222Z" fill="#0B0A0A"/>
<path d="M128.065 127.148L129.383 129.394L128.275 132.449L128.463 132.422L129.579 129.394L128.21 127.148L129.526 125.125L129.383 125.16L128.065 127.148Z" fill="#0B0A0A"/>
<path d="M129.94 132.195V125.021C129.801 125.057 129.663 125.091 129.526 125.125L128.21 127.148L129.579 129.394L128.463 132.422C128.956 132.35 129.447 132.275 129.94 132.195Z" fill="#DFD3D3"/>
<path d="M130.423 124.895L130.744 132.061C131.327 131.963 131.916 131.858 132.521 131.748L131.004 129.394L131.967 126.782L130.719 124.816C130.62 124.843 130.521 124.869 130.423 124.895Z" fill="#DFD3D3"/>
<path d="M132.19 126.782L130.885 124.771L130.719 124.816L131.967 126.782L131.004 129.394L132.521 131.748L132.787 131.699L131.238 129.394L132.19 126.782Z" fill="#0B0A0A"/>
<path d="M87.2213 138.314C95.3979 140.171 97.2912 141.832 112.433 142.274C125.939 141.869 128.11 140.942 136.325 139.502L136.919 140.558C129.429 142.374 128.074 143.04 112.433 143.792C92.8998 143.074 92.9989 141.784 86.2314 139.502L87.2213 138.314Z" fill="black"/>
<path d="M136.919 140.558C129.429 142.374 128.074 143.04 112.433 143.792C92.8998 143.074 92.9989 141.784 86.2314 139.502C85.3485 140.533 84.8378 141.063 83.9014 141.59C93.4525 145.587 99.512 147.04 112.433 147.269C126.606 146.813 131.338 145.832 138.448 143.792C137.754 142.856 137.398 142.217 136.919 140.558Z" fill="white"/>
<path d="M138.448 143.792C131.338 145.832 126.606 146.813 112.433 147.269C99.512 147.04 93.4525 145.587 83.9014 141.59C83.3258 141.952 83.1082 142.019 81.7794 141.59C91.9324 148.156 99.0116 149.246 112.433 149.792C126.463 149.292 132.752 148.109 141.66 144.688C140.544 144.576 139.914 144.507 138.448 143.792Z" fill="black"/>
<path d="M66.4843 136.271C77.5353 145.757 89.2097 155.11 101.804 158.366C114.167 160.733 116.25 160.373 127.728 158.366C139.206 156.359 153.375 142.836 153.426 143.291L155.379 142.627C146.392 150.474 136.845 158.066 127.728 159.669C118.611 161.271 114.225 162.876 101.804 159.669C84.1774 153.074 76.0292 147.463 63.5416 135.294L66.4843 136.271Z" fill="#F2B71E"/>
<path d="M49.0089 131.458C47.2814 132.109 88.9565 164.332 110.98 165.007C133.003 165.681 164.904 141.268 163.913 139.502L166.951 138.521C169.267 141.15 126.874 169.192 110.98 167.414C95.0855 165.637 67.7734 150.397 45.2881 130.774L49.0089 131.458Z" fill="#171717"/>
<path d="M76.9148 139.953C89.7311 148.163 98.8725 155.113 112.433 154.942C125.994 154.77 132.979 149.01 144.409 144.688H146.465C134.137 150.856 125.908 156.141 112.433 156.569C98.9582 156.997 86.9257 148.355 73.66 138.753L76.9148 139.953Z" fill="#2C2323"/>
</svg>
