<svg width="214" height="190" viewBox="0 0 214 190" fill="none" xmlns="http://www.w3.org/2000/svg">
<path d="M105.463 47.4056C104.219 47.4056 100.986 46.9465 98.0023 45.1101C98.0023 58.1341 94.8823 57.5287 86.6547 58.4491C84.0064 58.7454 80.8289 59.1998 77.0559 60.3177C61.5614 64.9087 62.9961 101.063 64.7177 112.253C53.8141 107.088 24.2597 114.549 25.1205 112.253C25.9813 109.958 15.9385 104.793 15.0777 103.932C14.2169 103.071 12.7822 102.497 12.4953 103.358C13.3561 105.654 13.0692 105.08 15.0777 106.514C16.6845 107.662 16.3211 108.714 15.9385 109.097C12.8779 109.575 6.24007 109.671 4.17413 106.228C2.10819 102.784 0.635247 102.497 0.157019 102.784C-1.27766 104.506 7.21567 118.107 21.6773 118.566C25.4074 116.557 37.4587 113.975 65.5785 123.157C66.8605 123.718 68.4827 124.365 70.1695 125.01C79.8105 122.591 82.986 103.637 83.3685 94.4632C82.0642 93.0054 80.965 91.2398 80.0655 89.386C78.9347 87.1352 77.9043 84.3954 77.3888 81.4007C76.9661 79.2895 76.859 77.5591 77.0559 76.6731C76.998 78.2942 77.1271 79.8803 77.3888 81.4007C77.8686 83.7977 78.7552 86.6856 80.0655 89.386C81.2059 91.6557 82.4485 93.4282 83.3685 94.4632C92.0914 115.352 83.7511 125.548 78.4906 128.035C76.6851 127.412 73.3151 126.214 70.1695 125.01C68.4827 124.365 66.8605 123.718 65.5785 123.157C37.4587 113.975 25.4074 116.557 21.6773 118.566C18.521 118.566 13.3561 129.182 16.2255 133.486C20.5295 149.268 63.283 163.041 75.9082 166.771C88.5334 170.501 99.437 173.084 100.011 176.24C101.539 178.532 102.974 180.502 104.315 182.177C110.025 189.305 114.043 191.066 116.366 189.439C119.236 187.43 116.94 180.257 112.636 176.814C111.201 174.04 107.988 168.148 106.61 166.771C104.889 165.049 104.315 164.763 98.2892 162.754C92.2636 160.745 77.0559 151.563 74.4735 145.825C74.3656 145.599 74.235 145.365 74.0825 145.122C73.0044 143.457 70.5411 141.088 67.234 138.505C58.4087 131.872 43.4925 124.295 31.1461 122.583C41.7543 122.175 57.8739 131.194 67.234 138.505C70.4925 140.954 72.9206 143.274 74.0825 145.122C74.2449 145.373 74.3758 145.608 74.4735 145.825C77.0559 151.563 92.2636 160.745 98.2892 162.754C104.315 164.763 104.889 165.049 106.61 166.771C112.54 164.763 127.27 158.45 138.747 149.268C140.813 144.218 152.807 135.686 158.546 132.052C163.998 129.182 176.13 124.349 180.665 125.483C177.642 125.105 172.728 125.483 158.546 132.052C152.807 135.686 140.813 144.218 138.747 149.268C127.27 158.45 112.54 164.763 106.61 166.771C107.988 168.148 111.201 174.04 112.636 176.814C116.079 173.944 113.21 175.666 128.131 171.649C143.051 167.632 169.449 159.311 186.953 142.955C200.955 129.871 193.935 122.774 188.674 120.861C185.231 119.905 173.868 119.656 155.963 126.313C151.181 128.896 140.125 133.2 134.156 129.756C128.188 126.313 128.8 105.558 129.852 95.6109C133.133 90.7866 133.939 84.5428 133.943 80.8003C133.942 80.095 133.914 79.4755 133.869 78.9686C133.915 79.4715 133.943 80.091 133.943 80.8003C133.946 84.62 133.146 90.9605 129.852 95.6109C135.017 134.921 149.651 124.878 155.963 126.313C173.868 119.656 185.231 119.905 188.674 120.861L199.865 118.853C201.873 117.514 206.981 113.803 211.342 109.671C215.704 105.539 211.246 106.801 208.473 107.949C204.838 109.575 197.569 112.483 197.569 111.105C197.569 109.728 199.865 107.088 201.012 105.941C200.917 105.749 200.553 105.252 199.865 104.793C199.004 104.219 195.561 106.514 195.561 108.523C192.117 108.81 189.535 110.245 186.953 113.401C171.573 109.269 154.529 110.149 147.929 111.105C147.26 102.306 145.748 83.5596 145.06 78.9686C144.199 73.2299 142.19 66.9173 136.739 62.9002C132.438 59.7312 127.602 60.1335 121.948 59.7404C120.435 59.6351 118.863 59.4729 117.227 59.17C111.029 58.0223 110.245 49.6419 110.627 45.5952C108.738 46.9426 106.768 47.4056 105.463 47.4056Z" fill="#E2857E"/>
<path d="M91.1159 23.8768C90.542 29.0417 91.1159 40.5191 98.0023 45.1101C100.986 46.9465 104.219 47.4056 105.463 47.4056C106.768 47.4056 108.738 46.9426 110.627 45.5952C112.892 43.9804 115.042 41.0954 115.792 36.2151C117.17 27.2627 115.984 24.2594 115.218 23.8768H91.1159Z" fill="#E2857E"/>
<path d="M100.011 176.24C96.185 177.675 88.6482 181.52 89.1073 185.422C89.6811 190.3 100.872 186.105 104.315 182.177C102.974 180.502 101.539 178.532 100.011 176.24Z" fill="#E85D5D"/>
<path d="M98.0023 45.1101C91.1159 40.5191 90.542 29.0417 91.1159 23.8768H115.218C115.984 24.2594 117.17 27.2627 115.792 36.2151C115.042 41.0954 112.892 43.9804 110.627 45.5952C110.245 49.6419 111.029 58.0223 117.227 59.17C118.863 59.4729 120.435 59.6351 121.948 59.7404C127.304 40.6124 131.13 1.89752 103.584 0.0611285C76.0381 -1.77526 80.8204 38.2213 86.6547 58.4491C94.8823 57.5287 98.0023 58.1341 98.0023 45.1101Z" fill="#111111"/>
<path d="M44.7618 162.201C39.2526 159.676 37.7002 154.709 37.7958 152.318C54.8207 158.726 89.696 171.096 91.5324 171.096C93.3688 171.096 94.7844 172.244 95.2626 172.818C89.5239 174.635 75.1197 176.72 63.4127 170.522C48.7789 162.775 51.6483 165.357 44.7618 162.201Z" fill="#E85D5D"/>
<path d="M79.1942 128.056C85.8511 123.235 86.7395 112.965 86.9308 108.852C112.468 114.017 113.913 112.848 129.408 109.692C128.949 120.251 132.469 127.673 134.286 130.064C136.964 130.925 144.214 131.786 151.789 128.342C159.364 124.899 168.336 122.699 171.875 122.03C171.301 122.795 170.383 124.842 171.301 126.908C163.266 129.777 148.92 136.377 141.172 146.993C134.975 155.487 116.4 163.923 107.888 167.079C107.601 166.888 106.97 166.39 106.74 165.931C93.254 162.488 85.2198 153.593 78.0464 149.576C65.6508 132.589 40.0742 124.558 31.3705 122.837C30.5097 121.307 28.7881 117.844 28.7881 116.237C45.1435 113.942 78.3334 128.629 79.1942 128.056Z" fill="#E85D5D"/>
<path d="M155.037 168.633C146.773 173.684 132.269 173.215 125.861 171.972C141.241 169.217 160.202 160.121 167.949 156.295C167.089 158.304 163.301 163.583 155.037 168.633Z" fill="#E85D5D"/>
<path d="M80.9158 59.4778C82.0636 63.7818 88.2614 72.5047 103.871 72.9638C119.48 73.4229 127.399 64.7383 129.408 60.3386C137.06 59.8604 151.617 62.4619 148.633 76.6939C147.527 83.3297 144.734 87.0792 141.633 89.0656C138.236 91.4218 134.54 91.4224 132.277 90.7538C132.277 93.0493 130.843 94.1971 129.982 95.3448C129.121 96.4926 130.269 108.257 129.408 109.692C116.783 115.43 87.5047 110.287 86.9308 108.852C85.783 98.0635 82.3952 92.9779 80.9158 90.18C79.0713 90.9832 76.653 91.6255 74.1964 91.6179C68.672 91.6353 62.9668 88.4596 63.1258 76.6939C63.3553 59.7073 75.0814 58.1387 80.9158 59.4778Z" fill="#FFF4F4"/>
<path d="M86.9971 108.815C86.9063 111.299 86.7989 112.881 86.2534 115.355C87.059 115.695 87.8343 116.008 88.5983 116.296L89.6775 114.377L88.9454 112.221L90.161 109.973C88.881 109.645 87.3296 109.083 86.9971 108.815Z" fill="#DFD3D3"/>
<path d="M89.6775 116.689C89.9271 116.776 90.0794 116.861 90.3292 116.943C90.3905 116.963 90.5489 116.983 90.6102 117.003L91.1648 110.206C90.9755 110.163 90.7899 110.119 90.6102 110.076L89.6775 116.689Z" fill="#FADE4B" fill-opacity="0.91"/>
<path d="M98.5378 118.737C98.8893 118.783 99.2491 118.827 99.6181 118.87L99.8527 111.563C99.5734 111.53 99.2929 111.497 99.0131 111.463L98.5378 118.737Z" fill="#57DE28"/>
<path d="M100.55 111.644L101.169 114.037L100.016 115.971L101.352 119.051C102.405 119.15 103.531 119.238 104.747 119.317L106.405 116.297L105.16 114.222L106.254 112.137C104.569 112.068 102.593 111.886 100.55 111.644Z" fill="#DFD3D3"/>
<path d="M98.4062 111.384C96.0294 111.06 93.6796 110.709 91.7429 110.329L92.2061 112.438L91.1648 114.781L91.4973 117.28C93.1446 117.772 94.8515 118.165 96.8068 118.483L98.3655 115.778L96.8068 113.591L98.4062 111.384Z" fill="#DFD3D3"/>
<path d="M107.349 112.206C107.225 112.205 107.196 112.199 107.067 112.191V119.452L107.302 119.469C107.553 119.466 107.899 119.463 108.144 119.459V112.241C107.917 112.229 107.59 112.216 107.349 112.206Z" fill="#FADE4B" fill-opacity="0.91"/>
<path d="M109.139 112.29L110.432 114.222L109.139 116.297L110.432 119.415C112.129 119.376 113.651 119.323 115.043 119.255L116.369 115.971L115.339 114.222L115.87 113.237L116.402 112.251C114.256 112.355 111.879 112.384 109.139 112.29Z" fill="#DFD3D3"/>
<path d="M116.968 112.22L117.137 119.131C117.379 119.115 117.617 119.098 117.851 119.081L117.519 112.191C117.336 112.201 117.151 112.211 116.968 112.22Z" fill="#57DE28"/>
<path d="M118.463 112.122L119.782 114.222L118.313 115.971L120.071 118.893C121.374 118.767 122.586 118.619 123.775 118.449L124.883 115.394L123.565 113.148L124.883 111.16C122.639 111.717 120.604 111.914 118.463 112.122Z" fill="#DFD3D3"/>
<path d="M125.44 111.021V118.195C125.707 118.152 125.975 118.107 126.244 118.061L125.923 110.895C125.761 110.938 125.6 110.98 125.44 111.021Z" fill="#FADE4B" fill-opacity="0.91"/>
<path d="M129.819 117.412C129.368 114.517 129.29 112.822 129.459 109.739C128.366 110.094 127.387 110.495 126.385 110.771L127.69 112.782L126.738 115.394L128.287 117.699C128.786 117.607 129.295 117.512 129.819 117.412Z" fill="#DFD3D3"/>
<path d="M89.6775 116.689L90.6102 110.076L90.5021 110.051C90.4285 110.034 90.3561 110.017 90.2849 110.001L89.1206 112.221L89.8049 114.377L88.7181 116.341C89.0392 116.461 89.3586 116.577 89.6775 116.689Z" fill="#DFD3D3"/>
<path d="M90.161 109.973L88.9454 112.221L89.6775 114.377L88.5983 116.296L88.7181 116.341L89.8049 114.377L89.1206 112.221L90.2849 110.001C90.2431 109.992 90.2018 109.982 90.161 109.973Z" fill="#0B0A0A"/>
<path d="M91.1648 110.206L90.6102 117.003C90.8612 117.085 91.1129 117.164 91.3658 117.24L91.0238 114.781L92.0646 112.438L91.6209 110.305C91.4673 110.273 91.3149 110.24 91.1648 110.206Z" fill="#DFD3D3"/>
<path d="M92.2061 112.438L91.7429 110.329C91.7022 110.321 91.6615 110.313 91.6209 110.305L92.0646 112.438L91.0238 114.781L91.3658 117.24L91.4973 117.28L91.1648 114.781L92.2061 112.438Z" fill="#0B0A0A"/>
<path d="M98.4062 111.384L96.8068 113.591L98.3655 115.778L96.8068 118.483C96.8694 118.493 96.9323 118.503 96.9955 118.513L98.5229 115.778L97.0687 113.591L98.5932 111.409C98.5308 111.401 98.4684 111.392 98.4062 111.384Z" fill="#0B0A0A"/>
<path d="M98.5378 118.737L99.0131 111.463C98.8729 111.445 98.7328 111.427 98.5932 111.409L97.0687 113.591L98.5229 115.778L96.9955 118.513C97.4924 118.592 98.0055 118.667 98.5378 118.737Z" fill="#DFD3D3"/>
<path d="M99.8527 111.563L99.6181 118.87C100.092 118.925 100.582 118.976 101.089 119.026L99.8131 115.971L100.925 114.037L100.406 111.627C100.222 111.606 100.038 111.584 99.8527 111.563Z" fill="#DFD3D3"/>
<path d="M101.169 114.037L100.55 111.644L100.406 111.627L100.925 114.037L99.8131 115.971L101.089 119.026C101.176 119.034 101.264 119.042 101.352 119.051L100.016 115.971L101.169 114.037Z" fill="#0B0A0A"/>
<path d="M106.254 112.137L105.16 114.222L106.405 116.297L104.747 119.317L104.909 119.328L106.571 116.297L105.43 114.222L106.405 112.145C106.355 112.142 106.305 112.139 106.254 112.137Z" fill="#0B0A0A"/>
<path d="M107.067 119.452V112.191C106.852 112.177 106.631 112.158 106.405 112.145L105.43 114.222L106.571 116.297L104.909 119.328C105.599 119.372 106.317 119.413 107.067 119.452Z" fill="#DFD3D3"/>
<path d="M108.144 112.241V119.459C108.854 119.448 109.536 119.436 110.191 119.421L108.937 116.297L110.199 114.222L108.937 112.282C108.688 112.272 108.442 112.258 108.191 112.244L108.144 112.241Z" fill="#DFD3D3"/>
<path d="M110.432 114.222L109.139 112.29C109.071 112.288 109.004 112.285 108.937 112.282L110.199 114.222L108.937 116.297L110.191 119.421L110.432 119.415L109.139 116.297L110.432 114.222Z" fill="#0B0A0A"/>
<path d="M117.137 119.131L116.968 112.22C116.846 112.226 116.725 112.231 116.605 112.237L116.502 112.242L115.491 114.222L116.489 115.971L115.17 119.244C115.856 119.21 116.51 119.172 117.137 119.131Z" fill="#DFD3D3"/>
<path d="M116.402 112.251L115.87 113.237L115.339 114.222L116.369 115.971L115.043 119.255L115.17 119.244L116.489 115.971L115.491 114.222L116.502 112.242L116.402 112.251Z" fill="#0B0A0A"/>
<path d="M117.519 112.191L117.851 119.081C118.56 119.029 119.236 118.973 119.889 118.911L118.121 115.971L119.618 114.222L118.313 112.135C118.059 112.157 117.791 112.175 117.519 112.191Z" fill="#DFD3D3"/>
<path d="M119.782 114.222L118.463 112.122L118.361 112.131L118.313 112.135L119.618 114.222L118.121 115.971L119.889 118.911L120.071 118.893L118.313 115.971L119.782 114.222Z" fill="#0B0A0A"/>
<path d="M123.565 113.148L124.883 115.394L123.775 118.449L123.963 118.422L125.079 115.394L123.71 113.148L125.026 111.125L124.883 111.16L123.565 113.148Z" fill="#0B0A0A"/>
<path d="M125.44 118.195V111.021C125.301 111.057 125.163 111.091 125.026 111.125L123.71 113.148L125.079 115.394L123.963 118.422C124.456 118.35 124.947 118.275 125.44 118.195Z" fill="#DFD3D3"/>
<path d="M125.923 110.895L126.244 118.061C126.827 117.963 127.416 117.858 128.021 117.748L126.504 115.394L127.467 112.782L126.219 110.816C126.12 110.843 126.021 110.869 125.923 110.895Z" fill="#DFD3D3"/>
<path d="M127.69 112.782L126.385 110.771L126.219 110.816L127.467 112.782L126.504 115.394L128.021 117.748L128.287 117.699L126.738 115.394L127.69 112.782Z" fill="#0B0A0A"/>
<path d="M82.7213 124.314C90.8979 126.171 92.7912 127.832 107.933 128.274C121.439 127.869 123.61 126.942 131.825 125.502L132.419 126.558C124.929 128.374 123.574 129.04 107.933 129.792C88.3998 129.074 88.4989 127.784 81.7314 125.502L82.7213 124.314Z" fill="black"/>
<path d="M132.419 126.558C124.929 128.374 123.574 129.04 107.933 129.792C88.3998 129.074 88.4989 127.784 81.7314 125.502C80.8485 126.533 80.3378 127.063 79.4014 127.59C88.9525 131.587 95.012 133.04 107.933 133.269C122.106 132.813 126.838 131.832 133.948 129.792C133.254 128.856 132.898 128.217 132.419 126.558Z" fill="white"/>
<path d="M133.948 129.792C126.838 131.832 122.106 132.813 107.933 133.269C95.012 133.04 88.9525 131.587 79.4014 127.59C78.8258 127.952 78.6082 128.019 77.2794 127.59C87.4324 134.156 94.5116 135.246 107.933 135.792C121.963 135.292 128.252 134.109 137.16 130.688C136.044 130.576 135.414 130.507 133.948 129.792Z" fill="black"/>
<path d="M61.9843 122.271C73.0353 131.757 84.7097 141.11 97.3036 144.366C109.667 146.733 111.75 146.373 123.228 144.366C134.706 142.359 148.875 128.836 148.926 129.291L150.879 128.627C141.892 136.474 132.345 144.066 123.228 145.669C114.111 147.271 109.725 148.876 97.3036 145.669C79.6774 139.074 71.5292 133.463 59.0416 121.294L61.9843 122.271Z" fill="#F2B71E"/>
<path d="M44.5089 117.458C42.7814 118.109 84.4565 150.332 106.48 151.007C128.503 151.681 160.404 127.268 159.413 125.502L162.451 124.521C164.767 127.15 122.374 155.192 106.48 153.414C90.5855 151.637 63.2734 136.397 40.7881 116.774L44.5089 117.458Z" fill="#171717"/>
<path d="M72.4148 125.953C85.2311 134.163 94.3725 141.113 107.933 140.942C121.494 140.77 128.479 135.01 139.909 130.688H141.965C129.637 136.856 121.408 142.141 107.933 142.569C94.4582 142.997 82.4257 134.355 69.16 124.753L72.4148 125.953Z" fill="#2C2323"/>
</svg>
