<svg width="73" height="74" viewBox="0 0 73 74" fill="none" xmlns="http://www.w3.org/2000/svg">
<path d="M19.1032 6.9376H50.0324C50.3567 6.9342 50.6765 7.01407 50.9621 7.16976C51.2477 7.32546 51.4898 7.55191 51.6657 7.82802C51.8417 8.10413 51.9458 8.4209 51.9685 8.74881C51.9911 9.07673 51.9314 9.40511 51.7951 9.70335L45.4486 31.5025C45.2261 32.2541 44.7852 32.9203 44.1834 33.4139C43.5816 33.9076 42.847 34.2059 42.0754 34.2698H11.1462C10.8218 34.2733 10.5017 34.1935 10.216 34.0377C9.93018 33.8819 9.68799 33.6553 9.51198 33.379C9.33597 33.1027 9.23189 32.7856 9.20944 32.4575C9.18699 32.1294 9.24691 31.8008 9.3836 31.5025L15.73 9.70335C15.9527 8.95191 16.3937 8.286 16.9954 7.79259C17.5972 7.29918 18.3318 7.00121 19.1032 6.9376ZM25.6231 22.3542H56.5523C56.8767 22.3506 57.1968 22.4305 57.4825 22.5863C57.7683 22.742 58.0105 22.9687 58.1865 23.245C58.3625 23.5213 58.4666 23.8383 58.4891 24.1665C58.5115 24.4946 58.4516 24.8231 58.3149 25.1215L51.9685 46.9206C51.7459 47.6721 51.3048 48.338 50.7031 48.8314C50.1013 49.3248 49.3667 49.6228 48.5953 49.6864H17.6661C17.3418 49.6898 17.022 49.6099 16.7364 49.4542C16.4508 49.2985 16.2087 49.0721 16.0328 48.796C15.8568 48.5198 15.7527 48.2031 15.73 47.8752C15.7074 47.5472 15.7671 47.2189 15.9034 46.9206L22.2499 25.1215C22.4724 24.3698 22.9133 23.7037 23.5151 23.21C24.1169 22.7164 24.8515 22.4181 25.6231 22.3542Z" stroke="#B377BE" stroke-width="4" stroke-linecap="round" stroke-linejoin="round"/>
</svg>
