<svg width="119" height="117" viewBox="0 0 119 117" fill="none" xmlns="http://www.w3.org/2000/svg">
<path d="M99.131 45.3437H43.4178L97.2449 28.9387C97.7347 28.7833 98.1922 28.5183 98.5908 28.1591C98.9895 27.7999 99.3211 27.3537 99.5663 26.8468C99.8288 26.357 99.9989 25.8104 100.065 25.2416C100.132 24.6729 100.094 24.0947 99.9532 23.5437L95.9391 6.53319C95.6866 5.4146 95.2409 4.36446 94.628 3.44404C94.0152 2.52362 93.2474 1.75134 92.3695 1.17228C91.4917 0.593213 90.5213 0.218955 89.515 0.0713394C88.5087 -0.0762763 87.4867 0.00570719 86.5085 0.312506L11.7406 23.1033C10.756 23.397 9.8325 23.9102 9.02352 24.6132C8.21453 25.3162 7.5362 26.195 7.02785 27.1987C6.5195 28.2024 6.19125 29.3109 6.06213 30.4601C5.93301 31.6093 6.0056 32.7762 6.27567 33.8932L10.1446 50.3532V98.1919C10.1446 100.528 10.9599 102.768 12.411 104.42C13.8622 106.072 15.8304 107 17.8826 107H95.262C97.3143 107 99.2825 106.072 100.734 104.42C102.185 102.768 103 100.528 103 98.1919V49.7477C103 48.5797 102.592 47.4595 101.867 46.6336C101.141 45.8077 100.157 45.3437 99.131 45.3437ZM57.0559 18.369L71.2744 27.7276L48.2057 34.774L33.9872 25.4154L57.0559 18.369ZM88.4913 8.79025L91.4898 21.5619L81.8174 24.4796L67.5989 15.1761L88.4913 8.79025ZM23.3959 28.6634L37.6144 37.9669L16.7703 44.3528L13.7234 31.5811L23.3959 28.6634ZM95.262 98.1919H17.8826V54.1517H95.262V98.1919Z" fill="#E2E4E4"/>
<path d="M118.617 86C118.617 103.121 104.738 117 87.6174 117C70.4966 117 56.6174 103.121 56.6174 86C56.6174 68.8792 70.4966 55 87.6174 55C104.738 55 118.617 68.8792 118.617 86Z" fill="#E2E4E4"/>
<path d="M115 86C115 100.912 102.912 113 88.0001 113C73.0884 113 61.0001 100.912 61.0001 86C61.0001 71.0883 73.0884 59 88.0001 59C102.912 59 115 71.0883 115 86Z" fill="white"/>
<path d="M85.9085 93.0607L90.1805 91.6207C89.5085 91.1407 89.1245 90.2287 89.1245 89.4607C89.1245 85.1887 97.6685 84.6127 97.6685 77.5087C97.6685 73.1887 93.9725 69.9727 87.9245 69.9727C83.6045 69.9727 79.9085 71.7007 77.4605 74.7247L80.7245 78.3247C82.3085 76.2607 84.4205 74.9647 87.3965 74.9647C90.4685 74.9647 91.9565 76.5487 91.9565 78.4207C91.9565 82.5007 84.2285 83.0767 84.2285 88.9327C84.2285 90.5167 84.7565 91.9567 85.9085 93.0607ZM87.6365 102.997C89.4605 102.997 90.9965 101.413 90.9965 99.5887C90.9965 97.8127 89.4605 96.2767 87.6365 96.2767C85.8125 96.2767 84.2765 97.8127 84.2765 99.5887C84.2765 101.413 85.8125 102.997 87.6365 102.997Z" fill="#E2E4E4"/>
</svg>
