<svg width="119" height="117" viewBox="0 0 119 117" fill="none" xmlns="http://www.w3.org/2000/svg">
<path fill-rule="evenodd" clip-rule="evenodd" d="M6.51459 6C6.47978 6 6.44639 6.01383 6.42178 6.03844C6.39717 6.06306 6.38334 6.09644 6.38334 6.13125V66.2941L38.7328 52.4301C39.5083 52.0977 40.3879 52.1073 41.156 52.4564L94.3208 76.6222V6.13125C94.3208 6.09644 94.307 6.06306 94.2824 6.03844C94.2578 6.01383 94.2244 6 94.1896 6H6.51459ZM100.321 81.2168V6.13125C100.321 4.50514 99.6749 2.94563 98.525 1.7958C97.3752 0.645971 95.8157 0 94.1896 0H6.51459C4.88848 0 3.32897 0.64597 2.17914 1.7958C1.02931 2.94563 0.383338 4.50514 0.383338 6.13125V70.7774C0.382314 70.8225 0.38231 70.8677 0.383338 70.9129V93.8063C0.383338 95.4324 1.02931 96.9919 2.17914 98.1417C3.32897 99.2915 4.88848 99.9375 6.51459 99.9375H94.1896C95.8157 99.9375 97.3752 99.2915 98.525 98.1417C99.6749 96.9919 100.321 95.4324 100.321 93.8063V81.3493C100.322 81.3051 100.322 81.2609 100.321 81.2168ZM94.3208 83.213L39.879 58.4667L6.38334 72.8219V93.8063C6.38334 93.8411 6.39716 93.8744 6.42178 93.8991C6.44639 93.9237 6.47978 93.9375 6.51459 93.9375H94.1896C94.2244 93.9375 94.2578 93.9237 94.2824 93.8991C94.307 93.8744 94.3208 93.8411 94.3208 93.8063V83.213ZM71.2271 21.6562C69.2545 21.6562 67.3628 22.4398 65.968 23.8346C64.5732 25.2294 63.7896 27.1212 63.7896 29.0938C63.7896 31.0663 64.5732 32.958 65.968 34.3529C67.3628 35.7477 69.2545 36.5312 71.2271 36.5312C73.1996 36.5312 75.0914 35.7477 76.4862 34.3529C77.881 32.958 78.6646 31.0663 78.6646 29.0938C78.6646 27.1212 77.881 25.2294 76.4862 23.8346C75.0914 22.4398 73.1996 21.6562 71.2271 21.6562ZM61.7253 19.592C64.2454 17.072 67.6632 15.6562 71.2271 15.6562C74.7909 15.6562 78.2088 17.072 80.7288 19.592C83.2489 22.112 84.6646 25.5299 84.6646 29.0938C84.6646 32.6576 83.2489 36.0755 80.7288 38.5955C78.2088 41.1155 74.7909 42.5312 71.2271 42.5312C67.6632 42.5312 64.2454 41.1155 61.7253 38.5955C59.2053 36.0755 57.7896 32.6576 57.7896 29.0938C57.7896 25.5299 59.2053 22.112 61.7253 19.592Z" fill="#E2E4E4"/>
<path d="M118.617 86C118.617 103.121 104.738 117 87.6174 117C70.4966 117 56.6174 103.121 56.6174 86C56.6174 68.8792 70.4966 55 87.6174 55C104.738 55 118.617 68.8792 118.617 86Z" fill="#E2E4E4"/>
<path d="M115 86C115 100.912 102.912 113 88.0001 113C73.0884 113 61.0001 100.912 61.0001 86C61.0001 71.0883 73.0884 59 88.0001 59C102.912 59 115 71.0883 115 86Z" fill="white"/>
<path d="M85.9085 93.0607L90.1805 91.6207C89.5085 91.1407 89.1245 90.2287 89.1245 89.4607C89.1245 85.1887 97.6685 84.6127 97.6685 77.5087C97.6685 73.1887 93.9725 69.9727 87.9245 69.9727C83.6045 69.9727 79.9085 71.7007 77.4605 74.7247L80.7245 78.3247C82.3085 76.2607 84.4205 74.9647 87.3965 74.9647C90.4685 74.9647 91.9565 76.5487 91.9565 78.4207C91.9565 82.5007 84.2285 83.0767 84.2285 88.9327C84.2285 90.5167 84.7565 91.9567 85.9085 93.0607ZM87.6365 102.997C89.4605 102.997 90.9965 101.413 90.9965 99.5887C90.9965 97.8127 89.4605 96.2767 87.6365 96.2767C85.8125 96.2767 84.2765 97.8127 84.2765 99.5887C84.2765 101.413 85.8125 102.997 87.6365 102.997Z" fill="#E2E4E4"/>
</svg>
