<svg width="119" height="117" viewBox="0 0 119 117" fill="none" xmlns="http://www.w3.org/2000/svg">
<path d="M31.4573 107C33.8013 107 35.7191 105.102 35.7191 102.783C35.7191 100.463 33.8013 98.5652 31.4573 98.5652C29.1133 98.5652 27.1955 100.463 27.1955 102.783C27.1955 105.102 29.1133 107 31.4573 107ZM48.5045 107C50.8485 107 52.7663 105.102 52.7663 102.783C52.7663 100.463 50.8485 98.5652 48.5045 98.5652C46.1605 98.5652 44.2427 100.463 44.2427 102.783C44.2427 105.102 46.1605 107 48.5045 107ZM65.5518 107C67.8957 107 69.8136 105.102 69.8136 102.783C69.8136 100.463 67.8957 98.5652 65.5518 98.5652C63.2078 98.5652 61.29 100.463 61.29 102.783C61.29 105.102 63.2078 107 65.5518 107ZM35.7191 47.9565V22.6522C35.7191 15.6513 41.4299 10 48.5045 10C55.5791 10 61.29 15.6513 61.29 22.6522V47.9565C61.29 54.9574 55.5791 60.6087 48.5045 60.6087C41.4299 60.6087 35.7191 54.9574 35.7191 47.9565ZM73.6918 47.9565C76.2915 47.9565 78.3372 50.2339 77.9536 52.7643C75.8653 65.4165 65.637 75.2852 52.7663 77.1409V85.913C52.7663 88.2326 50.8485 90.1304 48.5045 90.1304C46.1605 90.1304 44.2427 88.2326 44.2427 85.913V77.1409C31.3721 75.2852 21.1437 65.4165 19.0555 52.7643C18.6293 50.2339 20.7176 47.9565 23.3173 47.9565C25.4056 47.9565 27.1529 49.4748 27.4938 51.5413C29.2412 61.4943 37.9779 69.0435 48.5045 69.0435C59.0312 69.0435 67.7679 61.4943 69.5152 51.5413C69.8562 49.4748 71.6035 47.9565 73.6918 47.9565Z" fill="#E2E4E4"/>
<path d="M118.617 86C118.617 103.121 104.738 117 87.6174 117C70.4966 117 56.6174 103.121 56.6174 86C56.6174 68.8792 70.4966 55 87.6174 55C104.738 55 118.617 68.8792 118.617 86Z" fill="#E2E4E4"/>
<path d="M115 86C115 100.912 102.912 113 88.0001 113C73.0884 113 61.0001 100.912 61.0001 86C61.0001 71.0883 73.0884 59 88.0001 59C102.912 59 115 71.0883 115 86Z" fill="white"/>
<path d="M85.9085 93.0607L90.1805 91.6207C89.5085 91.1407 89.1245 90.2287 89.1245 89.4607C89.1245 85.1887 97.6685 84.6127 97.6685 77.5087C97.6685 73.1887 93.9725 69.9727 87.9245 69.9727C83.6045 69.9727 79.9085 71.7007 77.4605 74.7247L80.7245 78.3247C82.3085 76.2607 84.4205 74.9647 87.3965 74.9647C90.4685 74.9647 91.9565 76.5487 91.9565 78.4207C91.9565 82.5007 84.2285 83.0767 84.2285 88.9327C84.2285 90.5167 84.7565 91.9567 85.9085 93.0607ZM87.6365 102.997C89.4605 102.997 90.9965 101.413 90.9965 99.5887C90.9965 97.8127 89.4605 96.2767 87.6365 96.2767C85.8125 96.2767 84.2765 97.8127 84.2765 99.5887C84.2765 101.413 85.8125 102.997 87.6365 102.997Z" fill="#E2E4E4"/>
</svg>
