<svg width="174" height="173" viewBox="0 0 174 173" fill="none" xmlns="http://www.w3.org/2000/svg">
<path d="M86.9997 165.792C94.9288 165.792 101.344 159.376 101.344 151.447H72.6551C72.6551 159.376 79.0705 165.792 86.9997 165.792ZM146.757 131.84L137.458 122.542V79.2917C137.458 55.1437 120.446 34.9604 97.8122 30.0588V21.625C97.8122 15.6421 92.9826 10.8125 86.9997 10.8125C81.0167 10.8125 76.1872 15.6421 76.1872 21.625V30.0588C53.553 34.9604 36.5413 55.1437 36.5413 79.2917V122.542L27.2426 131.84C22.7013 136.382 25.873 144.167 32.2884 144.167H141.639C148.126 144.167 151.298 136.382 146.757 131.84ZM94.208 115.333H79.7913V100.917H94.208V115.333ZM94.208 79.2917C94.208 83.2562 90.9642 86.5 86.9997 86.5C83.0351 86.5 79.7913 83.2562 79.7913 79.2917V64.875C79.7913 60.9104 83.0351 57.6667 86.9997 57.6667C90.9642 57.6667 94.208 60.9104 94.208 64.875V79.2917Z" fill="#77BFF8"/>
</svg>
