<svg width="91" height="90" viewBox="0 0 91 90" fill="none" xmlns="http://www.w3.org/2000/svg">
<path d="M90.5 45C90.5 69.8528 70.3528 90 45.5 90C20.6472 90 0.5 69.8528 0.5 45C0.5 20.1472 20.6472 0 45.5 0C70.3528 0 90.5 20.1472 90.5 45Z" fill="#FFC122"/>
<path d="M88 44.375C88 67.8471 68.9721 86.875 45.5 86.875C22.0279 86.875 3 67.8471 3 44.375C3 20.9029 22.0279 1.875 45.5 1.875C68.9721 1.875 88 20.9029 88 44.375Z" fill="white"/>
<path d="M85.5 44.375C85.5 66.4664 67.5914 84.375 45.5 84.375C23.4086 84.375 5.5 66.4664 5.5 44.375C5.5 22.2836 23.4086 4.375 45.5 4.375C67.5914 4.375 85.5 22.2836 85.5 44.375Z" fill="#FFC122"/>
<path d="M48.2888 29.1738C48.2888 27.6534 47.0403 26.4209 45.5002 26.4209C43.96 26.4209 42.7115 27.6534 42.7115 29.1738V41.1031H30.6273C29.0872 41.1031 27.8386 42.3356 27.8386 43.856C27.8386 45.3764 29.0872 46.6089 30.6273 46.6089H42.7115V58.5382C42.7115 60.0586 43.96 61.2911 45.5002 61.2911C47.0403 61.2911 48.2888 60.0586 48.2888 58.5382V46.6089H60.373C61.9132 46.6089 63.1617 45.3764 63.1617 43.856C63.1617 42.3356 61.9132 41.1031 60.373 41.1031H48.2888V29.1738Z" fill="#FCFDFD"/>
</svg>
