<svg width="162" height="167" viewBox="0 0 162 167" fill="none" xmlns="http://www.w3.org/2000/svg">
<path fill-rule="evenodd" clip-rule="evenodd" d="M75.7217 112.98C75.6768 112.999 75.6317 113.018 75.5865 113.038L75.5818 113.04C75.6286 113.019 75.6752 112.999 75.7217 112.98Z" fill="#E2857E"/>
<path d="M61.5132 111.019C65.2743 110.183 64.0206 105.17 60.2595 105.588C57.7674 105.865 56.4984 111.019 61.5132 111.019Z" fill="#FFB259"/>
<path fill-rule="evenodd" clip-rule="evenodd" d="M92.8556 144.44C107.231 142.769 123.084 123.413 129.213 113.943C128.144 110.826 125.57 103.425 121.755 92.6371C119.605 86.5574 117.06 79.4018 114.168 71.3309C97.5433 75.7402 102.955 92.8171 105.58 101.098C106.188 103.016 106.646 104.463 106.646 105.17C103.303 106.173 101.353 112.551 100.796 115.614C95.7809 114.222 84.2469 111.604 78.2291 112.272C77.4195 112.362 76.5302 112.63 75.5865 113.038L75.5818 113.04L75.5193 113.067C72.6071 114.343 69.1851 116.942 65.9887 119.792C57.8105 112.829 40.2839 97.8174 35.6035 93.4726C30.2544 95.4779 23.9023 112.412 21.3949 120.628L0.5 142.352L44.7972 167L59.0058 151.96C64.1599 150.846 78.1455 147.783 92.8556 144.44ZM43.1256 77.1796C45.633 80.5218 51.4836 83.864 54.4089 82.6106C63.4355 82.6106 62.0704 65.6214 60.2595 57.1267L63.1848 53.3668C63.0455 49.7461 61.346 42.4212 55.6626 42.087C48.5583 41.6693 44.3793 47.9358 41.8719 53.3668C39.3646 58.7978 41.4541 70.0776 43.1256 77.1796ZM64.0206 52.1135C70.289 59.2156 77.8112 55.4557 79.0649 47.1003C82.8117 39.4387 83.2964 34.2056 82.2443 30.8073C80.7149 25.8669 75.9378 24.804 73.2143 25.7941C62.1818 30.1389 62.4883 45.1507 64.0206 52.1135ZM86.1241 26.2118L101.643 7.82999C100.943 4.76635 98.2882 -0.608949 93.2735 2.39899C87.005 6.15891 84.8253 24.123 86.1241 26.2118ZM149.69 29.8713L149.636 29.8255C149.743 29.7396 149.74 29.7838 149.69 29.8713Z" fill="#E2857E"/>
<path fill-rule="evenodd" clip-rule="evenodd" d="M35.6035 93.4726C40.2839 97.8174 57.8105 112.829 65.9887 119.792C69.1851 116.942 72.6071 114.343 75.5193 113.067L75.5818 113.04L75.5865 113.038C75.6317 113.018 75.6768 112.999 75.7217 112.98L38.1109 80.8455C32.6563 86.0881 33.9104 91.2159 35.6035 93.4726ZM61.5132 111.019C65.2743 110.183 64.0206 105.17 60.2595 105.588C57.7674 105.865 56.4984 111.019 61.5132 111.019Z" fill="#FEFEFE"/>
<path d="M125.87 9.72151L123.78 12.8432C123.084 13.5395 122.276 15.4334 124.616 17.4387L133.392 24.9585L142.168 32.4784C143.143 33.3139 145.594 34.4001 147.6 32.0606C148.89 30.5564 149.443 29.9801 149.636 29.8255C141.734 23.1211 132.606 15.3902 125.87 9.72151Z" fill="white"/>
<path d="M78.2291 112.272C84.2469 111.604 95.7809 114.222 100.796 115.614C101.353 112.551 103.303 106.173 106.646 105.17C106.646 104.463 106.188 103.016 105.58 101.098C102.955 92.8171 97.5433 75.7402 114.168 71.3309C117.06 79.4018 119.605 86.5574 121.755 92.6371C131.763 80.9396 153.033 56.1241 158.048 50.4425C163.063 45.7634 161.53 40.6945 160.137 38.7449C157.262 36.3002 153.63 33.2144 149.69 29.8713L149.636 29.8255C149.443 29.9801 148.89 30.5564 147.6 32.0606C145.594 34.4001 143.143 33.3139 142.168 32.4784L133.392 24.9585L124.616 17.4387C122.276 15.4334 123.084 13.5395 123.78 12.8432L125.87 9.72151C121.814 6.30831 118.625 3.64273 117.094 2.39899C111.745 -1.94581 107.621 0.588655 106.228 2.39899L101.643 7.82999L86.1241 26.2118L82.2443 30.8073C83.2964 34.2056 82.8117 39.4387 79.0649 47.1003C77.8112 55.4557 70.289 59.2156 64.0206 52.1135L63.1848 53.3668L60.2595 57.1267C62.0704 65.6214 63.4355 82.6106 54.4089 82.6106C51.4836 83.864 45.633 80.5218 43.1256 77.1796C41.0327 78.3843 39.3879 79.618 38.1109 80.8455L75.7217 112.98C76.6152 112.604 77.4583 112.358 78.2291 112.272Z" fill="#FFE8CC"/>
</svg>
