<svg width="196" height="198" viewBox="0 0 196 198" fill="none" xmlns="http://www.w3.org/2000/svg">
<mask id="mask0_695_7045" style="mask-type:alpha" maskUnits="userSpaceOnUse" x="0" y="0" width="196" height="198">
<ellipse cx="98" cy="98.77" rx="97.5" ry="98.77" fill="#FAE5E5"/>
</mask>
<g mask="url(#mask0_695_7045)">
<path d="M51.3102 20.8676C29.8876 27.9624 26.7063 38.6624 27.7934 43.1256C41.3542 49.7335 7.02318 35.4745 5.99326 84.1639C5.16931 123.115 24.532 119.174 34.3163 112.334C25.6191 129.839 18.5927 168.292 60.0646 182.064C101.536 195.837 136.508 179.92 148.81 170.24C160.654 163.632 185.407 141.652 189.664 106.596C193.921 71.5394 171.984 58.8338 160.483 56.863C164.03 44.8646 161.066 18.1897 120.83 7.47802C70.5355 -5.91157 78.0883 11.9992 51.3102 20.8676Z" fill="#3DA8F5"/>
<path d="M36.5471 57.7322C7.43445 66.079 4.27598 101.321 6.33584 116.333C20.7548 149.164 96.9696 194.005 124.263 191.802C162.199 138.649 218.33 29.0055 139.368 28.1708C40.6668 27.1274 72.938 47.2988 36.5471 57.7322Z" fill="#EBBB90" fill-opacity="0.9" stroke="#EBBB90"/>
<path d="M97.4849 22.0841C46.5377 27.5095 42.9558 46.0231 47.5333 54.6017C38.8933 50.3124 19.8625 49.2806 12.859 79.4681C5.85548 109.656 23.9021 137.837 33.8009 148.155C46.0456 169.486 80.3194 206.652 119.457 184.672C168.378 157.197 171.468 133.548 184.686 130.07C195.26 127.288 180.28 78.5986 171.468 54.6017C168.035 41.5019 148.432 16.6587 97.4849 22.0841Z" fill="#D8F8F2" fill-opacity="0.9" stroke="#D8F8F2"/>
<path d="M119.899 137.734H46.27L49.0261 142.521H119.899V137.734Z" fill="#10576D"/>
<path d="M132.892 142.92H49.4198L50.9947 144.914H132.892V142.92Z" fill="#156B87"/>
<path d="M130.136 144.515H51.3884L52.9634 146.908C66.1929 165.735 92.3371 169.112 103.755 168.447C126.12 166.852 144.835 153.157 151.398 146.509C165.257 130.874 168.722 99.5763 168.722 85.8819C168.407 61.95 142.867 51.1806 130.136 48.7874V144.515Z" fill="#1D7286"/>
<path d="M80.9191 48.7877C97.6135 44.3204 120.949 47.7241 130.53 49.9843L130.924 50.4829V137.336H46.664C38.4743 126.806 34.5894 108.485 33.6707 100.64C30.8358 88.5147 35.3769 77.506 38.0018 73.5174C45.5615 58.201 69.7632 50.6491 80.9191 48.7877Z" fill="#A7B5BC"/>
<path d="M127.774 74.3156C125.569 72.4011 67.0071 72.7202 38.0018 73.119L37.2144 74.7145C26.1897 95.7746 38.9205 125.503 46.664 137.735H127.774V74.3156Z" fill="#76B1A7"/>
<path d="M129.349 74.315V67.5343L125.017 65.9389C97.6134 57.6425 77.9003 61.9502 71.4692 65.1411L62.807 74.315H129.349Z" fill="#ABCECB"/>
<path d="M90.7623 74.7144H45.8764C48.5013 70.8587 55.326 62.3496 61.6258 59.1587C67.9256 55.9678 83.6751 68.1996 90.7623 74.7144Z" fill="#7AB3AE"/>
<path d="M41.1513 68.3322L38.0014 73.1185H82.8874C84.4624 70.8849 80.6562 69.2628 78.5563 68.731L73.044 70.7254L70.6816 69.5288L66.7442 72.3208H64.7755C63.8305 70.4063 61.7569 71.2572 60.8381 71.922C56.4283 66.1783 53.7509 68.4651 52.9634 70.3265L49.4198 68.731C46.2699 67.4547 42.595 67.9333 41.1513 68.3322Z" fill="#5D9896"/>
<path d="M102.665 54.6786C100.242 54.1877 93.9826 56.315 91.1557 57.44L92.0644 57.9002C94.3662 57.6548 95.3455 61.0707 95.5474 62.8094C98.3339 62.4412 99.9391 65.1105 100.393 66.4912C101.847 65.2639 102.514 58.1048 102.665 54.6786Z" fill="#DD2E71"/>
<path d="M102.968 54.372L96.0022 61.8891L97.9709 62.6561L102.514 58.9743L102.968 54.372Z" fill="#102E60"/>
<path d="M94.4879 59.2813L98.7282 55.1393L97.5167 55.2927L93.8822 58.5143L94.4879 59.2813Z" fill="#C4C4C4"/>
<path d="M60.0511 107.421L61.626 108.618L61.2323 107.022L62.8073 105.427L65.9571 101.438L68.7133 96.2529L69.5008 96.6518L70.682 99.8427L71.0757 107.022L71.8632 109.017L73.4381 109.415L72.2569 108.618L72.6507 107.82V107.022L72.2569 98.6461L70.2883 91.0676L72.6507 87.079L74.6194 86.2812L81.7066 78.7028L74.2256 84.6858H72.2569V83.8881L76.588 77.9051L76.9818 75.9107L76.1943 77.1073L71.4695 81.8937H69.5008L68.3196 83.4892L70.2883 83.8881L69.8945 85.0847L66.7446 91.0676L64.7759 100.242L60.0511 107.421Z" fill="#E2857E"/>
<path d="M71.0757 91.0677C68.8708 92.6632 67.0071 91.2007 66.3509 90.27L65.1697 93.062L64.776 99.4439L59.2636 107.421L62.0198 109.416L62.4135 108.618L61.6261 107.82L67.1384 101.438L69.1071 97.0507L69.8945 99.4439L70.682 107.022L71.0757 108.418L71.4695 109.416L75.0131 110.213V109.416L72.6507 108.618L73.0444 108.219V98.2473L71.0757 91.0677Z" fill="#5E737B"/>
<path d="M76.9816 74.3153L75.8004 77.9051L73.8317 79.5006L69.1068 85.8824L70.6818 86.6801L73.0442 86.2813L80.5252 80.6972L81.3127 79.5006L82.8876 78.7028L82.4939 77.5062L81.7064 78.304L80.5252 77.5062V78.304L80.1315 79.5006L78.9503 80.6972L75.0129 83.8881L72.6505 84.6858V83.4892L75.8004 79.5006L77.7691 75.5119H77.3753V74.7142L76.9816 74.3153Z" fill="#E2857E"/>
<path d="M71.0756 90.6688C68.8707 92.5833 67.0071 91.2007 66.3509 90.27L69.5006 84.2869L69.8944 84.6858H70.6819L71.4693 84.2869V83.4892L71.0756 81.6943L76.1942 76.3096L77.3754 77.9051L73.0443 83.888C75.2492 83.888 78.4253 81.2289 79.7378 79.8994L80.919 81.4949C80.289 82.4521 75.6692 85.8824 73.438 87.4778L71.0756 90.6688Z" fill="#B7D9DD"/>
<path d="M67.9257 84.2868H69.8944V83.8879L69.353 83.0902L70.2881 82.6913V81.0959L68.7131 81.4947L67.9257 82.2925L67.5319 83.0902V83.8879L67.9257 84.2868Z" fill="black"/>
<path d="M105.725 84.6857C102.89 82.452 102.968 77.9049 103.362 75.9106L103.756 76.3095C103.756 80.1386 105.856 82.6913 106.906 83.4891L109.662 84.2868L110.056 83.0902L109.662 82.2925L109.268 80.9463L112.024 81.0959L112.418 82.2925L111.631 83.0902V84.2868C113.521 84.6059 114.518 87.6107 114.781 89.0732V93.0618L112.418 92.2641L113.599 102.635L117.93 108.618L115.568 111.011L116.749 109.016L116.355 108.618L115.568 108.219C113.678 106.623 111.729 103.299 110.991 101.837L110.449 97.4493H109.662L109.268 101.837C108.323 102.794 108.612 108.883 108.874 111.808H105.725L107.693 111.41L107.3 110.612C106.67 108.697 107.037 103.964 107.3 101.837C106.355 97.0505 107.693 92.9289 108.481 91.4664L108.087 87.4777L105.725 84.6857Z" fill="#E2857E"/>
<path d="M113.41 90.8693C111.835 91.8266 109.079 91.2682 107.898 90.8693V92.0659C107.268 93.9804 107.111 95.5227 107.111 96.0545C106.166 101.798 106.979 108.552 107.504 111.211C104.354 112.169 104.617 112.408 105.142 112.408H109.473V110.813L109.867 103.234L110.654 98.8466V102.038C111.284 104.59 114.592 107.888 116.166 109.217C114.592 111.451 114.985 112.009 115.379 112.009L118.529 109.217L117.741 108.419L114.198 102.038V94.8579C114.198 92.6243 113.673 91.2682 113.41 90.8693Z" fill="#7E8F95"/>
<path d="M107.694 87.8764L108.481 91.0674L110.844 90.6685C108.639 88.7539 109.137 88.0094 109.662 87.8764L112.419 90.2696L115.175 89.073L114.387 86.281C114.072 84.6855 112.419 84.0207 111.631 83.8878C110.371 85.4832 109.794 84.5526 109.662 83.8878L107.3 83.0901L105.331 85.0844L107.694 87.8764Z" fill="#DDE8EA"/>
<path d="M109.799 84.2614C109.913 84.4353 110.177 84.7831 110.314 84.7831C110.451 84.7831 110.829 84.6672 111.001 84.6092V89.1304L109.627 87.9131L109.799 84.2614Z" fill="#E85D5D"/>
<path d="M109.627 89.3043V90.8693L110.829 90.6954L109.627 89.3043Z" fill="#E85D5D"/>
<path d="M109.971 84.4354L109.799 88.0871L109.971 88.261L110.184 84.6677L109.971 84.4354Z" fill="black"/>
<path d="M110.657 84.7186V88.7826L110.829 88.9565V84.6678L110.657 84.7186Z" fill="black"/>
<path d="M109.799 89.4782V90.8462L109.981 90.8232L109.971 89.6521L109.799 89.4782Z" fill="black"/>
<path d="M110.797 90.6234L110.877 90.7389L110.581 90.777L110.624 90.4387L110.797 90.6234Z" fill="black"/>
<path d="M112.812 81.096C112.182 80.4578 109.662 80.5642 108.481 80.6971L109.269 81.4949L111.237 81.4949L112.025 82.6915C112.55 82.4256 113.442 81.7342 112.812 81.096Z" fill="black"/>
<path d="M130.53 49.5857L127.774 49.1868V101.039H130.53V49.5857Z" fill="#FDF4EE"/>
<path d="M80.919 137.735H78.1628V49.5853L80.9191 48.7877L80.919 137.735Z" fill="#FDF4EE"/>
<path d="M121.474 165.278C119.899 166.874 109.268 168.336 104.149 168.868L103.756 168.469L106.512 159.694C109.347 149.483 110.055 138.687 110.055 134.566C110.055 130.098 111.63 122.068 112.418 118.611C114.938 104.89 122.392 101.46 125.805 101.46C132.42 102.098 139.323 101.194 141.948 100.662C153.603 100.024 154.416 113.426 153.366 120.206C152.106 125.631 150.479 138.953 149.823 144.936C144.153 150.68 131.448 151.052 125.805 150.52C125.411 154.509 123.442 163.284 121.474 165.278Z" fill="white"/>
<path d="M141.555 101.039C138.405 102.635 130.005 102.236 126.199 101.837L125.018 94.2585C119.663 92.0249 120.687 87.4778 121.868 85.4835C128.168 79.1016 133.155 83.3562 134.861 86.2812L139.192 95.0563L141.555 101.039Z" fill="#E2857E"/>
<path d="M147.461 89.8711C148.091 82.2129 142.211 79.5006 139.192 79.1018L135.649 77.5063C127.774 74.3154 122.918 77.2404 121.474 79.1018C119.584 84.5263 122.786 86.6802 124.624 87.0791C126.829 85.4836 127.905 86.6802 128.168 87.4779C129.427 88.4352 127.643 90.27 126.593 91.0677C123.758 97.4496 125.936 99.5769 127.38 99.8428C132.42 99.8428 138.405 98.2473 140.767 97.4496C145.807 95.8541 147.329 91.7325 147.461 89.8711Z" fill="#05161E"/>
<path d="M125.411 150.498C124.781 154.008 122.261 161.799 121.08 165.256L126.199 163.262C134.388 161.666 146.41 152.227 151.398 147.706L149.429 145.313C144.704 150.418 131.448 150.897 125.411 150.498Z" fill="#E85D5D"/>
<path d="M150.183 146.416C148.066 148.618 140.09 152.85 125.122 152.154L124.607 153.719C131.187 154.125 145.617 153.371 150.698 147.111C150.561 146.833 150.298 146.532 150.183 146.416Z" fill="black"/>
<path d="M147.69 150.827C141.993 154.485 132.913 156.394 123.92 155.98L123.577 157.371C128.669 157.313 139.507 156.78 142.116 155.11C143.6 154.161 145.746 152.454 147.69 150.827Z" fill="black"/>
<path d="M137.083 158.438C136.211 158.722 127.34 159.232 122.89 159.458C122.776 159.747 122.547 160.466 122.547 161.023C123.508 161.301 131.187 160.327 134.906 159.805C135.587 159.374 136.718 158.661 137.083 158.438Z" fill="black"/>
<path d="M121.86 162.935L130.1 162.066L127.182 163.109L121.517 163.805L121.86 162.935Z" fill="black"/>
</g>
</svg>
