<svg width="196" height="198" viewBox="0 0 196 198" fill="none" xmlns="http://www.w3.org/2000/svg">
<mask id="mask0_695_7032" style="mask-type:alpha" maskUnits="userSpaceOnUse" x="0" y="0" width="196" height="198">
<ellipse cx="98" cy="98.77" rx="97.5" ry="98.77" fill="#FAE5E5"/>
</mask>
<g mask="url(#mask0_695_7032)">
<path d="M51.3102 21.3948C29.8876 28.6689 26.7063 39.6393 27.7934 44.2153C41.3542 50.9902 7.02318 36.3708 5.99326 86.2906C5.16931 126.227 24.532 122.185 34.3163 115.173C25.6191 133.12 18.5927 172.545 60.0646 186.665C101.536 200.785 136.508 184.466 148.81 174.542C160.654 167.767 185.407 145.232 189.664 109.289C193.921 73.3471 171.984 60.3204 160.483 58.2999C164.03 45.9982 161.066 18.6492 120.83 7.66686C70.5355 -6.0611 78.0883 12.3023 51.3102 21.3948Z" fill="#3DA8F5"/>
<path d="M36.5471 59.1902C7.43445 67.7479 4.27598 103.88 6.33584 119.272C20.7548 152.933 96.9696 198.906 124.263 196.648C162.199 142.152 218.33 29.7375 139.368 28.8817C40.6668 27.812 72.938 48.4931 36.5471 59.1902Z" fill="#EBBB90" fill-opacity="0.9" stroke="#EBBB90"/>
<path d="M97.4849 22.6424C46.5377 28.2049 42.9558 47.1864 47.5333 55.9818C38.8933 51.5841 19.8625 50.5262 12.859 81.4766C5.85548 112.427 23.9021 141.321 33.8009 151.899C46.0456 173.769 80.3194 211.874 119.457 189.339C168.378 161.17 171.468 136.923 184.686 133.358C195.26 130.505 180.28 80.5851 171.468 55.9818C168.035 42.551 148.432 17.0799 97.4849 22.6424Z" fill="#D8F8F2" fill-opacity="0.9" stroke="#D8F8F2"/>
<path d="M156.706 95.2051C156.706 129.077 130.269 156.535 97.6567 156.535C65.0447 156.535 38.6074 129.077 38.6074 95.2051C38.6074 61.3334 65.0447 33.875 97.6567 33.875C130.269 33.875 156.706 61.3334 156.706 95.2051Z" fill="#5C8C8D"/>
<path d="M68.1331 75.8849C64.629 74.3366 65.8145 68.656 70.0194 61.2238C74.979 56.5788 77.0276 48.7402 77.4319 45.4015C77.971 41.8693 79.6427 37.6211 90.6401 39.0146C92.7964 41.3372 105.376 37.4652 110.452 36.2556C114.945 37.2717 123.686 39.478 121.638 50.0456C119.589 60.6132 124.198 70.0302 127.702 72.4012C129.633 75.256 129.723 82.0688 111.933 86.4816C94.1435 90.8944 78.8251 89.0461 76.3542 87.2074C75.9948 84.788 73.8474 79.1364 68.1331 75.8849Z" fill="#EAD1B3"/>
<path d="M83.6319 41.3359L85.5188 44.2391V46.4165L86.5969 48.8842L83.2276 46.4165L83.9015 44.2391L82.5538 41.3359H83.6319Z" fill="#E85D5D"/>
<path d="M91.853 38.5779L94.2789 37.8521L93.3355 40.9005L94.2789 40.6101L93.7399 44.8198L92.7965 41.7714L91.5835 42.0617L91.853 38.5779Z" fill="#E85D5D"/>
<path d="M116.082 43.4624L113.561 45.7399L113.037 47.8429L111.402 49.9255L115.25 48.4823L115.123 46.1912L117.123 43.7633L116.082 43.4624Z" fill="#E85D5D"/>
<path d="M108.805 38.5043L106.636 37.1263L106.814 40.3338L105.973 39.7901L105.481 44.0064L107.125 41.3254L108.227 41.9444L108.805 38.5043Z" fill="#E85D5D"/>
<path d="M72.2518 170.798C71.7368 169.728 80.3196 137.28 80.3196 137.28H86.3275C86.3275 137.28 75.8565 169.015 78.2597 169.728C80.6628 170.441 84.4393 173.472 84.4393 174.185C84.4393 174.899 81.8645 175.968 81.1778 176.147C80.4912 176.325 72.7667 171.868 72.2518 170.798Z" fill="#E2857E"/>
<path d="M96.6268 175.077V137.28H103.665C103.665 137.28 99.3733 174.185 100.403 173.472C101.433 172.759 106.411 173.294 107.269 174.185C108.128 175.077 109.673 176.147 109.844 177.216C110.016 178.286 98.6867 177.216 97.6567 177.216C96.6268 177.216 96.6268 175.077 96.6268 175.077Z" fill="#E2857E"/>
<path d="M106.088 49.1262L108.918 53.7713L103.393 57.255L103.123 56.8196L103.393 55.9486L103.797 55.368L104.201 53.6261C104.156 53.239 104.067 52.4358 104.067 52.3196C104.067 52.2035 103.887 51.8841 103.797 51.739L103.393 51.5938C103.074 51.7082 102.171 51.4623 101.735 51.2109C101.618 51.1431 101.534 51.0749 101.506 51.0132C101.398 50.7802 101.194 49.9767 101.069 49.184C101.018 48.8593 100.98 48.5364 100.967 48.2552C100.972 48.2496 100.978 48.2438 100.984 48.2377C101.196 48.0344 102.031 47.5774 103.393 47.2391C104.794 46.8907 105.774 48.352 106.088 49.1262Z" fill="#E2857E"/>
<path d="M75.3598 102.835C74.7129 106.783 78.4146 109.222 80.3463 109.948L85.62 112.125L91.2749 114.46L96.519 116.625L99.3492 108.786C98.2117 108.018 96.7786 107.058 95.2536 106.05C93.9623 105.196 92.605 104.308 91.3055 103.47C90.3414 102.849 89.4091 102.256 88.559 101.727C87.374 100.989 86.3487 100.374 85.62 99.9783C85.0559 99.6717 84.6695 99.4963 84.5243 99.4963C84.3626 99.4963 84.2742 99.0983 84.2419 98.4142C84.2298 98.1559 84.2256 97.8567 84.2286 97.5228C84.2323 97.0992 84.2475 96.6197 84.2722 96.0965C84.3222 95.0368 84.4115 93.798 84.5243 92.4823C84.8158 89.084 85.2647 85.1732 85.6024 82.5127L84.5243 68.7226C79.6725 70.1161 78.4595 73.7547 78.4595 75.3999C77.6958 82.8998 76.0067 98.8867 75.3598 102.835Z" fill="#FFF4F4"/>
<path d="M89.3761 72.4967L84.5243 68.7226L85.6024 82.5127C85.2647 85.1732 84.8158 89.084 84.5243 92.4823H102.203C102.003 90.6088 101.925 89.3997 102.045 89.3352C102.476 89.1029 99.7985 84.6901 98.4058 82.5127L97.5972 79.0289L95.9799 69.5935L91.6672 72.4967H89.6315H89.3761Z" fill="#FFF4F4"/>
<path d="M94.3953 67.9275L95.9799 69.5935L97.5972 79.0289C101.101 78.5934 109.403 77.4902 114.579 76.5612C119.754 75.6321 120.239 71.8193 119.835 70.029L109.188 53.626L103.393 57.255L108.514 66.5452L95.0085 67.8674L94.3953 67.9275Z" fill="#FFF4F4"/>
<path d="M106.088 134.071V131.397H76.8741L76.4412 134.071H106.088Z" fill="#DF4041"/>
<path d="M77.9219 124.924L77.3647 128.366H106.088V124.924H77.9219Z" fill="#DF4041"/>
<path d="M78.7101 120.055L78.2883 122.661H105.879C105.744 121.772 105.657 120.77 105.607 120.055H78.7101Z" fill="#DF4041"/>
<path d="M96.519 116.625L91.2749 114.46H79.6159L79.2118 116.956H97.118C96.9053 116.841 96.7047 116.73 96.519 116.625Z" fill="#DF4041"/>
<path d="M99.3492 108.786L104.875 112.125C104.726 111.128 104.558 109.998 104.382 108.786H99.3492Z" fill="#DF4041"/>
<path d="M80.3463 109.948L79.9939 112.125H85.62L80.3463 109.948Z" fill="#DF4041"/>
<path d="M103.379 101.727C103.275 100.976 103.173 100.229 103.075 99.4963H85.5992H84.5243C84.6695 99.4963 85.0559 99.6717 85.62 99.9783C86.3487 100.374 87.374 100.989 88.559 101.727H103.379Z" fill="#DF4041"/>
<path d="M84.2722 96.0965C84.2475 96.6197 84.2323 97.0992 84.2286 97.5228H102.814C102.75 97.0354 102.689 96.5589 102.631 96.0965H84.2722Z" fill="#DF4041"/>
<path d="M103.621 103.47H91.3055C92.605 104.308 93.9623 105.196 95.2536 106.05H103.986C103.865 105.203 103.743 104.339 103.621 103.47Z" fill="#DF4041"/>
<path d="M76.4412 134.071L75.9051 137.383H106.088V134.071H76.4412Z" fill="#161818"/>
<path d="M77.3647 128.366L76.8741 131.397H106.088V128.366H77.3647Z" fill="#161818"/>
<path d="M106.088 123.738C106.008 123.424 105.939 123.053 105.879 122.661H78.2883L77.9219 124.924H106.088V123.738Z" fill="#161818"/>
<path d="M105.549 119.093C104.549 120.493 99.8389 118.422 97.118 116.956H79.2118L78.7101 120.055H105.607C105.566 119.482 105.549 119.093 105.549 119.093Z" fill="#161818"/>
<path d="M85.62 112.125H79.9939L79.6159 114.46H91.2749L85.62 112.125Z" fill="#161818"/>
<path d="M95.2536 106.05C96.7786 107.058 98.2117 108.018 99.3492 108.786H104.382C104.254 107.91 104.121 106.991 103.986 106.05H95.2536Z" fill="#161818"/>
<path d="M103.379 101.727H88.559C89.4091 102.256 90.3414 102.849 91.3055 103.47H103.621C103.54 102.889 103.459 102.307 103.379 101.727Z" fill="#161818"/>
<path d="M103.075 99.4963C102.985 98.8244 102.897 98.1641 102.814 97.5228H84.2286C84.2256 97.8567 84.2298 98.1559 84.2419 98.4142C84.2742 99.0983 84.3626 99.4963 84.5243 99.4963H85.5992H103.075Z" fill="#161818"/>
<path d="M84.5243 92.4823C84.4115 93.798 84.3222 95.0368 84.2722 96.0965H102.631C102.46 94.7441 102.313 93.5127 102.203 92.4823H84.5243Z" fill="#161818"/>
<path d="M103.392 55.8034C104.255 54.526 104.021 52.6583 103.797 51.8841L101.826 51.486L101.735 51.2109C101.618 51.1431 101.534 51.0749 101.506 51.0132C101.398 50.7802 101.194 49.9767 101.069 49.184C101.018 48.8593 100.98 48.5364 100.967 48.2552C100.972 48.2496 100.978 48.2438 100.984 48.2377C100.978 48.1956 100.973 48.153 100.967 48.1099C100.697 46.2229 97.3277 45.9325 94.767 46.2229C92.6106 47.0938 89.3492 49.9099 88.1632 51.8841L83.4461 58.5614C83.3114 59.5291 83.1227 61.5807 83.4461 62.0452C83.6702 62.367 84.985 63.5432 86.1901 64.5895C86.7246 65.0537 87.2376 65.4923 87.6241 65.8194C88.5226 66.1097 90.4543 66.429 90.9934 65.3839C91.1423 65.0952 91.3289 64.6892 91.5304 64.2282C92.0587 63.02 92.6898 61.4342 93.015 60.5936L94.0931 55.8034C95.5941 54.3156 98.4756 51.5299 99.0973 51.1823C99.1631 51.1455 99.2036 51.1361 99.2145 51.1583C99.2657 51.2656 99.3216 51.3793 99.3817 51.4981C100.239 53.1934 101.953 55.9286 103.252 55.8261C103.299 55.8224 103.346 55.8149 103.392 55.8034Z" fill="#161818"/>
<path d="M104.875 112.125L99.3492 108.786L96.519 116.625C96.7047 116.73 96.9053 116.841 97.118 116.956C99.8389 118.422 104.549 120.493 105.549 119.093C108.704 115.81 106.408 113.091 104.866 112.142L104.875 112.125Z" fill="#E2857E"/>
<path d="M90.9934 65.3839C90.4543 66.429 88.5226 66.1097 87.6241 65.8194C87.2376 65.4923 86.7246 65.0537 86.1901 64.5895L84.6109 68.6977L89.6315 72.4967H91.6672L95.9799 69.5935L94.3953 67.9275L95.0085 67.8674L94.8666 67.7424C92.6625 65.8008 92.3086 65.489 91.5304 64.2282C91.3289 64.6892 91.1423 65.0952 90.9934 65.3839Z" fill="#E2857E"/>
<path d="M98.0015 65.8193C100.832 64.8031 100.832 62.6257 101.371 61.9C101.8 61.3218 102.8 57.6251 103.252 55.8261C101.953 55.9286 100.239 53.1934 99.3817 51.4981L99.0973 51.1823C98.4756 51.5299 95.5941 54.3156 94.0931 55.8034L93.015 60.5936C92.6898 61.4342 92.0587 63.02 91.5304 64.2282C92.8332 65.2443 95.7373 66.6321 98.0015 65.8193Z" fill="#E2857E"/>
</g>
</svg>
