<svg width="196" height="198" viewBox="0 0 196 198" fill="none" xmlns="http://www.w3.org/2000/svg">
<mask id="mask0_695_7058" style="mask-type:alpha" maskUnits="userSpaceOnUse" x="0" y="0" width="196" height="198">
<ellipse cx="98" cy="98.77" rx="97.5" ry="98.77" fill="#FAE5E5"/>
</mask>
<g mask="url(#mask0_695_7058)">
<path d="M51.3102 20.8676C29.8876 27.9624 26.7063 38.6624 27.7934 43.1256C41.3542 49.7335 7.02318 35.4745 5.99326 84.1639C5.16931 123.115 24.532 119.174 34.3163 112.334C25.6191 129.839 18.5927 168.292 60.0646 182.064C101.536 195.837 136.508 179.92 148.81 170.24C160.654 163.632 185.407 141.652 189.664 106.596C193.921 71.5394 171.984 58.8338 160.483 56.863C164.03 44.8646 161.066 18.1897 120.83 7.47802C70.5355 -5.91157 78.0883 11.9992 51.3102 20.8676Z" fill="#3DA8F5"/>
<path d="M36.5471 57.7322C7.43445 66.079 4.27598 101.321 6.33584 116.333C20.7549 149.164 96.9696 194.005 124.263 191.802C162.199 138.649 218.33 29.0055 139.368 28.1708C40.6668 27.1274 72.938 47.2988 36.5471 57.7322Z" fill="#EBBB90" fill-opacity="0.9"/>
<path d="M97.4849 22.0841C46.5377 27.5095 42.9558 46.0231 47.5333 54.6017C38.8933 50.3124 19.8625 49.2806 12.859 79.4681C5.85548 109.656 23.9021 137.837 33.8009 148.155C46.0456 169.486 80.3194 206.652 119.457 184.672C168.378 157.197 171.468 133.548 184.686 130.07C195.26 127.288 180.28 78.5986 171.468 54.6017C168.035 41.5019 148.432 16.6587 97.4849 22.0841Z" fill="#D8F8F2" fill-opacity="0.9"/>
</g>
<path d="M105.803 37.909C64.0065 33.924 42.2889 65.0984 36.6546 81.1836C28.5412 120.037 49.4598 142.204 60.9333 148.43C109.614 176.824 142.887 151.129 153.438 134.732C179.745 71.2211 132.642 43.7205 105.803 37.909Z" fill="#2B5866"/>
<path d="M45.5671 133.798C44.092 128.568 46.1818 127.675 47.4111 127.883H52.0209V126.326L59.0894 122.902C64.4983 119.664 75.2752 117.194 79.9875 116.364C76.5455 107.149 74.8654 87.4104 74.4557 78.6932C73.2264 70.4741 76.8579 63.8622 78.8043 61.7866C86.6719 70.2548 99.8612 72.7779 105.495 72.7779C107.708 74.7704 114.818 87.099 118.096 93.0143C123.751 104.222 124.14 116.779 123.628 121.656L109.183 149.987C110.167 151.482 114.92 152.478 117.174 152.789C120.124 154.035 120.247 154.969 119.94 155.28C112.318 157.023 103.242 155.591 99.6563 154.657C97.6894 154.159 100.476 149.676 102.115 147.497C100.394 147.746 99.349 146.355 99.0417 145.629L109.183 115.43L96.8904 93.0143C96.3987 111.943 93.4074 121.241 91.9732 123.524C89.7604 126.762 66.4652 132.345 55.0942 134.732C52.3897 133.736 51.5087 135.147 51.4063 135.978V141.893C51.4063 146.874 49.5623 145.836 48.6404 144.695L45.5671 133.798Z" fill="#E2857E"/>
<path d="M135.613 73.0894C132.171 73.3384 127.828 72.5705 126.086 72.1554V83.6745L127.316 93.0144L131.003 103.911L134.384 112.939L133.769 116.675L133.462 118.855L133.155 120.723H134.077L134.691 120.1L134.999 120.723L134.384 123.836L134.999 123.525L135.306 122.591H135.805L135.613 124.458L136.228 125.081L136.843 124.147L137.765 123.525L138.072 122.591L138.687 121.968V116.987C137.703 114.247 135.613 97.373 134.691 89.2784C134.2 84.2972 135.101 76.4102 135.613 73.0894Z" fill="#E2857E"/>
<path d="M128.852 55.3439C128.36 52.1061 130.696 50.4665 131.925 50.0514L135.613 49.8957C135.367 48.5259 136.74 46.7305 137.457 46.0041L145.755 50.9854L145.14 58.1459C141.698 62.8781 138.174 60.1176 136.843 58.1459L135.613 58.4572V59.0799L132.233 59.7025C131.311 59.5988 129.344 58.5818 128.852 55.3439Z" fill="#E2857E"/>
<path d="M105.495 72.7779C92.219 73.027 82.1387 65.6174 78.7582 61.8815C81.9543 55.904 89.3096 51.5039 92.5878 50.051C99.9636 45.817 110.208 44.5509 114.408 44.4471C120.8 43.949 129.159 47.9755 132.54 50.051C130.081 50.5492 129.262 53.3719 129.159 54.721C129.651 60.2003 133.667 59.7022 135.613 58.7682C137.088 63.0023 137.252 69.6647 137.15 72.4666C135.183 73.712 130.389 73.1931 128.237 72.778L126.086 72.2721V74.6459C123.873 79.3781 115.125 77.0328 111.027 75.2686L111.642 70.2874C108.692 70.7855 106.315 72.1553 105.495 72.7779Z" fill="#E2857E"/>
<path d="M141.452 43.8245C137.273 44.0736 136.433 47.2491 136.535 48.8057C137.519 47.3114 138.789 47.5604 139.301 47.8718C140.039 48.1208 138.994 49.2208 138.379 49.7397C139.363 51.2341 142.272 51.8152 143.604 51.919V55.0323L143.911 56.5889C145.878 62.3174 147.189 58.9758 147.599 56.5889V51.6077C147.107 45.6302 143.296 43.9283 141.452 43.8245Z" fill="#183138"/>
<path d="M141.145 58.457L140.838 57.8344L140.531 58.457L140.838 59.0797H141.76L143.604 58.457L143.297 57.8344L142.682 58.1457L141.76 58.457H141.145Z" fill="black"/>
<path d="M106.417 66.8626C103.959 70.1004 101.295 71.7401 100.271 72.1552C101.254 72.6533 104.369 72.7778 105.803 72.7778C109.245 70.7853 110.925 70.0797 111.335 69.9759C111.089 67.2362 112.871 63.2304 113.793 61.57C110.843 59.3285 107.647 64.1644 106.417 66.8626Z" fill="#E2857E"/>
<path d="M136.535 72.778C138.502 72.0308 136.74 63.1268 135.613 58.7682C134.384 61.0098 132.028 61.9853 131.004 62.1928C126.086 65.6797 125.677 70.0798 126.086 71.844C128.791 75.3309 134.179 73.9195 136.535 72.778Z" fill="#E2857E"/>
<path d="M135.613 55.032C133.155 57.0245 133.36 58.5604 133.769 59.0793C133.902 59.3284 135.874 58.5604 136.843 58.1453C136.105 58.1453 135.716 56.0698 135.613 55.032Z" fill="#BC6963"/>
<path d="M90.322 70.8604C81.3944 68.3607 78.7721 61.779 78.7721 61.779L77.8517 63.4376C77.8517 63.4376 81.8287 71.3096 89.8128 72.4417C97.7969 73.5737 106.055 73.5737 106.055 73.5737L105.52 72.9503C105.52 72.9503 99.2496 73.3601 90.322 70.8604Z" fill="#322828"/>
<path d="M89.8128 72.4417C81.8287 71.3096 77.8517 63.4376 77.8517 63.4376C77.2764 64.0369 77.0703 64.5918 76.7025 65.5085C76.7025 65.5085 81.9774 72.9613 89.8128 74.3177C97.6481 75.6741 106.695 74.3177 106.695 74.3177L106.055 73.5737C106.055 73.5737 97.7969 73.5737 89.8128 72.4417Z" fill="#C63030"/>
<path d="M89.8128 74.3177C81.9774 72.9613 76.7025 65.5085 76.7025 65.5085C76.1279 66.072 76.1279 66.544 76.1279 66.544C76.1279 66.544 81.5311 74.1497 89.8128 75.7071C98.0944 77.2644 107.014 74.6897 107.014 74.6897L106.695 74.3177C106.695 74.3177 97.6481 75.6741 89.8128 74.3177Z" fill="#C63030"/>
<path d="M75.5533 67.5795C75.5533 67.5795 79.348 75.3706 90.1221 76.7092C100.896 78.0477 107.334 75.0617 107.334 75.0617L107.014 74.6897C107.014 74.6897 98.0944 77.2644 89.8128 75.7071C81.5311 74.1497 76.1279 66.544 76.1279 66.544L75.5533 67.5795Z" fill="#322828"/>
<path d="M90.1845 76.7285V105.733L90.8183 105.746V76.7995C90.6107 76.777 90.3995 76.7533 90.1845 76.7285Z" fill="#060606"/>
<path d="M90.8183 76.7995V105.746L92.3423 105.778L91.6635 76.8864C91.5161 76.8721 91.367 76.8572 91.2161 76.8416C91.0849 76.8281 90.9523 76.814 90.8183 76.7995Z" fill="#CA0D1D"/>
<path d="M93.6256 105.805L92.3423 76.9484C92.1199 76.9294 91.8938 76.9087 91.6635 76.8864L92.3423 105.778L93.6256 105.805Z" fill="#EBEBEB"/>
<path d="M92.3423 76.9484L93.6256 105.805L94.4545 105.823L93.1497 77.0115C92.8856 76.993 92.6168 76.972 92.3423 76.9484Z" fill="#CA0D1D"/>
<path d="M93.1497 77.0115L94.4545 105.823L95.5757 105.846L94.0876 77.0676C93.7808 77.0526 93.4687 77.0339 93.1497 77.0115Z" fill="#060606"/>
<path d="M97.2296 105.881L95.1122 77.104C94.7759 77.0967 94.4351 77.0845 94.0876 77.0676L95.5757 105.846L97.2296 105.881Z" fill="#CA0D1D"/>
<path d="M95.1122 77.104L97.2296 105.881L98.4028 105.906L95.857 77.1121C95.6106 77.1121 95.3626 77.1094 95.1122 77.104Z" fill="#EBEBEB"/>
<path d="M95.857 77.1121L98.4028 105.906L99.9412 105.938L97.2296 77.0829C96.773 77.1024 96.3176 77.112 95.857 77.1121Z" fill="#CA0D1D"/>
<path d="M101.48 105.971L98.4028 77.0115C98.0083 77.0425 97.6185 77.0663 97.2296 77.0829L99.9412 105.938L101.48 105.971Z" fill="#EBEBEB"/>
<path d="M98.4028 77.0115L101.48 105.971L102.851 105.999L99.2975 76.9296C98.9955 76.961 98.6978 76.9883 98.4028 77.0115Z" fill="#CA0D1D"/>
<path d="M99.2975 76.9296L102.851 105.999L104.237 106.029L100.398 76.7995C100.024 76.8488 99.6575 76.8922 99.2975 76.9296Z" fill="#060606"/>
<path d="M105.623 106.058L101.48 76.6447C101.11 76.7017 100.75 76.7532 100.398 76.7995L104.237 106.029L105.623 106.058Z" fill="#CA0D1D"/>
<path d="M101.48 76.6447L105.623 106.058L106.593 106.078L101.968 76.5674C101.803 76.5942 101.641 76.62 101.48 76.6447Z" fill="#EBEBEB"/>
<path d="M101.968 76.5674L106.593 106.078L107.976 106.107L102.468 76.4841C102.299 76.5129 102.133 76.5406 101.968 76.5674Z" fill="#CA0D1D"/>
<path d="M109.358 106.137L102.851 76.4178C102.722 76.4405 102.594 76.4626 102.468 76.4841L107.976 106.107L109.358 106.137Z" fill="#060606"/>
<path d="M102.851 76.4178L109.358 106.137L110.703 106.165L103.162 76.3623C103.058 76.3812 102.954 76.3997 102.851 76.4178Z" fill="#CA0D1D"/>
<path d="M103.162 76.3623L110.703 106.165L111.898 106.19L103.458 76.3086C103.359 76.3268 103.26 76.3447 103.162 76.3623Z" fill="#CA0D1D"/>
<path d="M113.093 106.215L103.803 76.2446C103.687 76.2664 103.572 76.2877 103.458 76.3086L111.898 106.19L113.093 106.215Z" fill="#060606"/>
<path d="M121.169 77.1363C117.481 77.8835 112.869 75.7846 111.025 74.8507C110.779 79.5828 110.72 90.3158 110.72 94.882C110.966 101.607 113.896 112.213 115.33 116.675V125.703H115.944L116.252 123.835H116.866V124.769L116.559 125.703L117.174 126.326L117.788 125.703L118.403 125.392L119.018 123.524L119.325 124.769L119.632 124.458V122.279H119.94V118.232L118.71 108.892C117.235 102.416 117.686 93.948 118.096 90.5234C118.342 86.2893 120.247 79.8344 121.169 77.1363Z" fill="#E2857E"/>
</svg>
