<svg width="196" height="198" viewBox="0 0 196 198" fill="none" xmlns="http://www.w3.org/2000/svg">
<mask id="mask0_695_7017" style="mask-type:alpha" maskUnits="userSpaceOnUse" x="0" y="0" width="196" height="198">
<ellipse cx="98" cy="98.77" rx="97.5" ry="98.77" fill="#FAE5E5"/>
</mask>
<g mask="url(#mask0_695_7017)">
<path d="M51.3097 20.8676C29.8871 27.9624 26.7058 38.6624 27.7929 43.1256C41.3537 49.7335 7.0227 35.4745 5.99277 84.1639C5.16882 123.115 24.5315 119.174 34.3158 112.334C25.6186 129.839 18.5922 168.292 60.0641 182.064C101.536 195.837 136.508 179.92 148.81 170.24C160.654 163.632 185.406 141.652 189.664 106.596C193.921 71.5394 171.983 58.8338 160.482 56.863C164.03 44.8646 161.066 18.1897 120.83 7.47802C70.535 -5.91157 78.0878 11.9992 51.3097 20.8676Z" fill="#3DA8F5"/>
<path d="M36.5476 57.7322C7.43494 66.079 4.27647 101.321 6.33633 116.333C20.7553 149.164 96.9701 194.005 124.263 191.802C162.199 138.649 218.33 29.0055 139.369 28.1708C40.6673 27.1274 72.9385 47.2988 36.5476 57.7322Z" fill="#EBBB90" fill-opacity="0.9" stroke="#EBBB90"/>
<path d="M97.4849 22.0841C46.5377 27.5095 42.9558 46.0231 47.5333 54.6017C38.8933 50.3124 19.8625 49.2806 12.859 79.4681C5.85548 109.656 23.9021 137.837 33.8009 148.155C46.0456 169.486 80.3194 206.652 119.457 184.672C168.378 157.197 171.468 133.548 184.686 130.07C195.26 127.288 180.28 78.5986 171.468 54.6017C168.035 41.5019 148.432 16.6587 97.4849 22.0841Z" fill="#D8F8F2" fill-opacity="0.9" stroke="#D8F8F2"/>
<path d="M31.5224 111.924C20.6665 54.9922 66.8271 41.9581 91.2644 42.5575C148.081 52.6698 168.477 93.7998 171.574 113.101C175.61 163.819 126.976 171.829 102.154 169.495C58.7262 163.765 36.9714 128.727 31.5224 111.924Z" fill="#2B5866"/>
<path d="M69.7438 56.8404C70.6554 53.0442 132.256 52.2237 134.054 58.0715C135.337 62.2436 137.517 71.8807 135.978 77.0514C134.054 83.5149 136.586 92.338 135.978 94.1847C135.532 95.5404 135.674 96.134 130.509 96.647C126.377 97.0574 73.3899 96.9547 71.6681 95.9288C69.9463 94.903 68.2045 89.096 69.7438 85.9772C71.2832 82.8583 68.8323 60.6365 69.7438 56.8404Z" fill="#BB4C4C"/>
<path d="M57.7933 104.547C60.6965 108.411 69.7033 116.551 82.5045 118.192C95.3057 119.834 108.566 114.909 113.596 112.242C116.533 109.984 117.951 99.5198 119.875 99.5198C124.523 99.5199 145.599 103.111 146.612 103.829C148.435 107.42 150.764 117.236 150.764 128.041C150.764 141.481 151.675 146.406 149.65 151.946C147.591 153.108 141.973 155.393 135.978 155.229C128.483 155.023 99.7213 153.69 99.0123 154.613C98.4811 155.305 65.2877 157.178 64.4775 155.229C62.2156 154.921 57.4084 154.572 56.2742 153.177C55.1399 151.781 54.7213 133.376 54.6538 124.348C54.8225 118.158 55.6868 105.532 57.7933 104.547Z" fill="#016098"/>
<path d="M59.9202 109.574C60.2443 109.164 61.8782 109.745 62.6547 110.087C63.6337 110.498 65.5511 111.4 65.3891 111.729C65.1866 112.139 60.6291 110.703 59.9202 110.6C59.2113 110.498 59.5151 110.087 59.9202 109.574Z" fill="#AED6F4"/>
<path d="M76.4281 124.143C76.1851 124.143 74.9765 119.492 74.4026 117.166H75.7192C76.023 117.474 77.5421 123.014 77.5421 124.143C77.5421 125.252 76.7319 124.143 76.4281 124.143Z" fill="#AED6F4"/>
<path d="M87.9735 119.834C87.8115 119.67 89.3238 118.945 90.1003 118.603L93.4424 118.295C92.1258 118.945 89.2901 120.265 88.4799 120.347C87.4671 120.449 88.1761 120.039 87.9735 119.834Z" fill="#AED6F4"/>
<path d="M105.089 121.886C104.684 121.968 102.895 118.5 102.051 116.756L102.861 116.038C103.84 117.713 105.818 121.147 105.899 121.475C106.001 121.886 105.595 121.783 105.089 121.886Z" fill="#AED6F4"/>
<path d="M116.432 120.757C116.251 120.39 116.094 117.987 116.128 116.756C116.466 116.688 117.161 116.592 117.242 116.756C117.323 116.92 117.343 119.492 117.343 120.757C117.04 121.68 116.533 120.962 116.432 120.757Z" fill="#AED6F4"/>
<path d="M129.091 111.831C128.929 111.339 127.268 110.942 126.458 110.805C126.289 110.976 125.952 111.359 125.952 111.524C125.952 111.688 127.707 112.071 128.585 112.242C128.821 112.31 129.253 112.324 129.091 111.831Z" fill="#AED6F4"/>
<path d="M142.257 106.394C140.556 106.066 138.375 106.257 137.497 106.394C136.788 106.907 137.497 107.215 137.497 107.42C137.497 107.584 140.67 107.488 142.257 107.42C142.966 107.215 143.574 106.648 142.257 106.394Z" fill="#AED6F4"/>
<path d="M136.586 118.5C136.586 117.679 139.219 113.986 140.535 112.242C141.649 111.831 141.548 112.652 141.649 112.96C141.73 113.206 138.915 117.303 137.497 119.321C137.193 119.389 136.586 119.321 136.586 118.5Z" fill="#AED6F4"/>
<path d="M146.511 131.53C146.349 130.545 146.241 127.221 146.207 125.682C146.612 125.271 147.118 125.169 147.422 125.682C147.665 126.092 147.658 129.751 147.625 131.53C147.321 131.94 146.673 132.515 146.511 131.53Z" fill="#AED6F4"/>
<path d="M147.22 148.047C146.328 147.719 144.148 144.696 143.169 143.225C143.031 143.02 144.283 142.712 144.384 143.02C144.465 143.266 146.916 145.995 148.131 147.329C148.199 147.705 148.111 148.376 147.22 148.047Z" fill="#AED6F4"/>
<path d="M132.838 149.176C131.635 149.582 129.598 151.399 128.686 152.151C128.686 153.177 129.294 152.767 129.395 152.972C129.476 153.136 131.995 151.262 133.244 150.304C133.581 149.689 134.054 148.765 132.838 149.176Z" fill="#AED6F4"/>
<path d="M108.735 147.842C108.026 147.603 104.886 147.842 103.469 147.842C102.82 148.335 103.199 148.8 103.469 148.971C105.224 148.8 108.453 149.085 108.735 148.971C109.241 148.765 109.646 148.15 108.735 147.842Z" fill="#AED6F4"/>
<path d="M94.1513 128.452C96.2781 127.734 97.1896 127.323 98.9112 126.81C98.9112 126.502 98.7492 125.907 98.101 125.989C97.4529 126.072 95.3328 126.913 94.3538 127.323C93.6787 127.939 93.7437 128.589 94.1513 128.452Z" fill="#AED6F4"/>
<path d="M98.101 136.044C97.858 135.715 99.8902 134.197 100.937 133.479C102.253 133.274 101.544 134.094 101.646 134.3C101.747 134.505 98.9112 136.659 98.6074 136.762C98.3036 136.865 97.8985 136.454 98.101 136.044Z" fill="#AED6F4"/>
<path d="M96.3793 142.815C94.5969 141.994 91.9908 141.584 90.9105 141.481C90.5054 142.302 90.6067 142.405 90.9105 142.815C91.1535 143.143 94.5226 143.773 96.1768 144.046C96.987 143.978 98.1618 143.636 96.3793 142.815Z" fill="#AED6F4"/>
<path d="M80.9855 148.458C80.7424 147.801 82.4371 144.012 83.3148 142.199C83.6082 141.584 84.3276 142.199 84.6314 142.405C84.8745 142.569 83.0448 146.714 82.0995 148.765C81.8295 148.936 81.2286 149.114 80.9855 148.458Z" fill="#AED6F4"/>
<path d="M86.6569 130.401C86.0898 129.252 83.7199 127.87 82.6059 127.323C81.4919 127.836 82.0995 128.144 82.0995 128.452C82.0995 128.698 84.5977 130.401 85.8467 131.222C86.3531 131.427 87.2241 131.55 86.6569 130.401Z" fill="#AED6F4"/>
<path d="M60.3253 124.861C60.3253 122.891 61.5406 119.458 62.1483 117.987C62.9585 117.064 63.2623 117.987 63.4649 118.397C63.6269 118.726 62.6547 122.843 62.1483 124.861C61.5406 125.682 60.3253 126.831 60.3253 124.861Z" fill="#AED6F4"/>
<path d="M65.8955 137.172C65.4904 136.023 63.2286 134.436 62.1483 133.787C61.5406 133.547 60.4469 133.335 60.933 134.402C61.4191 135.469 63.5661 136.899 64.5789 137.48C65.1866 137.856 66.3006 138.321 65.8955 137.172Z" fill="#AED6F4"/>
<path d="M65.4904 148.458C65.1663 148.211 64.9502 145.209 64.8827 143.738C64.7815 143.533 65.4904 143.431 65.7942 143.636C66.098 143.841 66.4019 148.047 66.4019 148.458C66.4019 148.868 65.8955 148.765 65.4904 148.458Z" fill="#AED6F4"/>
<path d="M76.4281 132.453C75.5369 131.632 71.9382 131.701 70.2503 131.837C69.3388 131.893 70.4529 133.171 70.5541 132.863C70.6352 132.617 74.3688 132.966 76.2256 133.171C76.6644 133.274 77.3193 133.274 76.4281 132.453Z" fill="#AED6F4"/>
<path d="M127.977 141.481C124.601 143.704 117.465 148.047 115.925 147.637C116.297 147.979 117.111 148.09 117.242 148.355C117.546 148.97 118.187 148.663 118.559 148.97C118.997 149.176 119.916 149.483 120.078 149.073C120.28 148.56 119.47 149.894 124.23 147.021C128.038 144.723 128.99 143.191 128.99 142.712L127.977 141.481Z" fill="#C4C4C4"/>
<path d="M131.927 140.455C131.758 140.934 131.38 141.891 131.218 141.891C131.319 142.404 136.383 142.097 137.497 141.994C138.611 141.892 138.611 141.891 139.825 141.584L139.826 141.584C141.042 141.276 141.143 140.66 141.345 140.66C141.507 140.66 141.413 140.045 141.345 139.737C141.582 139.737 142.075 139.716 142.156 139.634C142.237 139.552 142.189 138.799 142.156 138.433C140.552 139.234 137.503 140.176 131.927 140.455Z" fill="#C4C4C4"/>
<path d="M127.977 141.481L128.99 142.712C129.8 142.097 131.015 141.891 131.218 141.891C131.38 141.891 131.758 140.934 131.927 140.455L131.42 139.942C130.576 140.113 128.706 140.66 127.977 141.481Z" fill="#C4C4C4"/>
<path d="M118.964 124.553C123.622 131.222 124.838 135.838 127.977 141.481C128.706 140.66 130.576 140.113 131.42 139.942C130.712 139.326 125.12 124.578 123.318 123.014C121.901 121.783 119.571 123.595 118.964 124.553Z" fill="#113F61"/>
<path d="M118.964 124.553C116.735 125.681 110.288 129.272 107.519 130.914C107.351 131.187 107.114 132.001 107.519 133.068C107.013 133.273 114.001 147.124 115.925 147.637C117.465 148.047 124.601 143.704 127.977 141.481C124.838 135.838 123.622 131.222 118.964 124.553Z" fill="#AED6F4"/>
<path d="M123.318 123.014C125.12 124.578 130.712 139.326 131.42 139.942L131.927 140.455C137.503 140.176 140.552 139.234 142.156 138.433C142.912 138.056 143.346 137.71 143.574 137.48C144.439 136.603 137.598 120.86 134.864 120.757C132.676 120.675 126.255 122.227 123.318 123.014Z" fill="#AED6F4"/>
<path d="M120.787 139.121C120.274 139.381 117.58 140.865 116.229 141.481C116.229 142.302 116.634 141.891 116.736 141.994C116.817 142.076 119.673 140.455 121.09 139.634C121.158 139.292 121.394 138.813 120.787 139.121Z" fill="#E65555"/>
<path d="M123.521 140.25C123.42 140.66 120.483 142.199 120.078 142.404C119.727 142.582 118.003 143.375 117.035 143.706C116.707 144.254 117.306 144.229 117.647 144.148L120.989 142.507C121.597 142.165 123.015 141.337 123.825 140.763C124.635 140.188 123.96 140.181 123.521 140.25Z" fill="#E65555"/>
<path d="M75.1112 99.1094C82.8082 98.1863 106.405 98.1862 117.039 99.1095C117.444 101.367 118.015 103.698 117.039 106.804C116.33 109.061 110.625 113.336 108.026 115.114C106.203 115.764 100.734 117.351 93.4421 118.5C86.1503 119.649 76.7654 118.021 72.9844 117.063C67.5831 114.088 56.8614 107.481 57.1855 104.855C57.5906 101.571 65.5976 100.25 75.1112 99.1094Z" fill="white"/>
<path d="M69.7199 63.2965H135.204L135.421 64.166H69.677L69.7199 63.2965Z" fill="#72BE43"/>
<path d="M69.5053 87.1196H135.11L135.249 88.3368H69.3336L69.4189 87.6413L69.5053 87.1196Z" fill="#72BE43"/>
<path d="M70.2676 74.601L136.059 74.5994C136.059 74.9472 136.121 75.3646 135.984 75.6428C135.846 75.921 92.1823 75.7146 70.2676 75.5987V74.601Z" fill="#72BE43"/>
<path d="M69.6769 64.3398H135.479C135.536 64.6296 135.679 65.2459 135.679 65.557C135.679 65.7309 91.8204 65.6729 69.8486 65.557C69.7914 65.3252 69.6769 64.7571 69.6769 64.3398Z" fill="#FFBE18"/>
<path d="M70.2674 75.8167H136.107L135.936 76.6861H70.3174L70.2674 75.8167Z" fill="#FFBE18"/>
<path d="M69.3336 88.5107H135.433L135.547 89.5541H69.3336V88.5107Z" fill="#FFBE18"/>
<path d="M69.8486 57.2104H133.876L134.734 61.2098H69.6769V58.2537L69.8486 57.2104Z" fill="black"/>
<path d="M69.9002 68.6871H136.107L136.347 70.7375V72.8605H70.1422L69.9002 68.6871Z" fill="black"/>
<path d="M70.274 79.2945H135.503C135.274 80.6277 134.954 83.5026 135.503 84.3373C136.052 85.172 92.3603 84.6851 70.274 84.3373C70.3635 82.5984 70.5352 79.2945 70.274 79.2945Z" fill="black"/>
<path d="M69.8486 93.0319H136.107C136.107 93.8434 135.867 95.8489 134.906 95.988C133.533 96.8575 104.695 98.5964 71.5651 95.988C70.1919 94.736 69.8486 93.3797 69.8486 93.0319Z" fill="black"/>
<path d="M80.4913 58.0798L79.4614 58.9493L80.4913 60.1665L81.6929 58.9493L80.4913 58.0798Z" fill="white"/>
<path d="M87.8724 58.0798L86.8425 58.9493L87.8724 60.1665L89.074 58.9493L87.8724 58.0798Z" fill="white"/>
<path d="M95.5969 58.0798L94.567 58.9493L95.5969 60.1665L96.7985 58.9493L95.5969 58.0798Z" fill="white"/>
<path d="M103.321 58.0798L102.291 58.9493L103.321 60.1665L104.523 58.9493L103.321 58.0798Z" fill="white"/>
<path d="M110.703 58.0798L109.673 58.9493L110.703 60.1665L111.904 58.9493L110.703 58.0798Z" fill="white"/>
<path d="M117.912 58.0798L116.882 58.9493L117.912 60.1665L119.114 58.9493L117.912 58.0798Z" fill="white"/>
<path d="M125.122 58.0798L124.092 58.9493L125.122 60.1665L126.323 58.9493L125.122 58.0798Z" fill="white"/>
<path d="M132.331 58.0798L131.301 58.9493L132.331 60.1665L133.533 58.9493L132.331 58.0798Z" fill="white"/>
<path d="M72.5952 58.0798L71.5652 58.9493L72.5952 60.1665L73.7967 58.9493L72.5952 58.0798Z" fill="white"/>
<path d="M80.4913 93.7274L79.4614 94.5969L80.4913 95.8141L81.6929 94.5969L80.4913 93.7274Z" fill="white"/>
<path d="M87.8724 93.7274L86.8425 94.5969L87.8724 95.8141L89.074 94.5969L87.8724 93.7274Z" fill="white"/>
<path d="M95.5969 93.7274L94.567 94.5969L95.5969 95.8141L96.7985 94.5969L95.5969 93.7274Z" fill="white"/>
<path d="M103.321 93.7274L102.291 94.5969L103.321 95.8141L104.523 94.5969L103.321 93.7274Z" fill="white"/>
<path d="M110.703 93.7274L109.673 94.5969L110.703 95.8141L111.904 94.5969L110.703 93.7274Z" fill="white"/>
<path d="M117.912 93.7274L116.882 94.5969L117.912 95.8141L119.114 94.5969L117.912 93.7274Z" fill="white"/>
<path d="M125.122 93.7274L124.092 94.5969L125.122 95.8141L126.323 94.5969L125.122 93.7274Z" fill="white"/>
<path d="M132.331 93.7274L131.301 94.5969L132.331 95.8141L133.533 94.5969L132.331 93.7274Z" fill="white"/>
<path d="M72.5952 93.7274L71.5652 94.5969L72.5952 95.8141L73.7967 94.5969L72.5952 93.7274Z" fill="white"/>
<path d="M110.862 80.6424C107.621 82.7969 106.439 82.3181 105.798 82.0787C105.899 82.1813 106.203 83.7202 105.494 84.4384C105.494 85.1565 107.317 85.4643 107.418 85.5669C107.519 85.6695 109.444 85.9773 109.849 85.8747C110.173 85.7926 111.132 84.6094 111.57 84.028C111.672 83.686 111.854 82.8584 111.773 82.2839C111.692 81.7094 111.132 80.9502 110.862 80.6424Z" fill="#CC8181"/>
<path d="M78.9599 81.1555C79.3313 79.7534 79.7701 76.9491 79.6688 76.3336C79.5676 75.718 79.8714 74.0081 80.1752 73.1531C80.0402 72.9479 79.6688 72.6401 79.2637 73.0505C78.8586 73.4609 78.3523 74.9314 78.1497 75.6154C78.0147 75.6838 77.7244 75.7795 77.6433 75.6154C77.5421 75.4102 77.137 74.3843 77.2382 74.0765C77.3193 73.8302 77.272 71.3748 77.2382 70.1779C77.1032 70.0069 76.7319 69.7675 76.3268 70.1779C76.0229 70.7935 76.5293 72.7428 76.3268 72.6402C76.1647 72.5581 76.0567 71.6484 76.023 71.2039V69.3572C75.8542 69.152 75.4558 68.8647 75.2128 69.3572C74.9089 69.9727 75.314 71.8194 75.1115 71.7168C74.9494 71.6348 74.8414 70.5199 74.8077 69.9727C74.7401 69.8017 74.5038 69.5624 74.0987 69.9727C74.0987 70.5883 74.2 71.4091 74.0987 71.5117C73.9975 71.6143 73.7949 70.7935 73.8962 70.7935C73.9975 70.7935 73.5923 70.3831 73.3898 70.7935C73.2277 71.1218 73.1872 71.8878 73.1872 72.2298C73.1535 72.948 73.1062 74.4253 73.1872 74.5895C73.0859 74.7947 73.736 78.4285 73.8961 78.5907C73.9974 78.6933 74.4025 81.3606 74.9089 81.1555H78.9599Z" fill="#E2857E"/>
<path d="M102.456 109.267C102.76 109.472 104.009 109.848 104.684 109.985L105.488 114.162C105.552 114.174 105.552 114.191 105.494 114.191L105.488 114.162C105.331 114.132 104.783 114.133 103.772 114.499C101.853 115.193 97.3919 115.114 97.2906 115.114C97.1894 115.114 95.2651 114.909 94.8601 114.704C94.455 114.499 94.8601 114.294 94.8601 114.191C94.8601 114.109 95.8053 114.157 96.2779 114.191C96.3116 114.157 96.3589 114.068 96.2779 113.986C96.1969 113.904 95.0964 113.883 94.5563 113.883C94.4887 113.883 94.2929 113.842 94.0498 113.678C93.746 113.473 94.0498 113.37 94.0498 113.268C94.0498 113.165 95.7715 113.268 96.1766 113.268C96.5817 113.268 96.8856 113.062 96.3792 113.062C95.974 113.062 94.2524 112.789 93.4422 112.652C93.1384 112.344 93.2611 112.128 93.4422 112.037C93.6447 111.934 95.7378 112.105 96.8856 112.242C96.9193 112.173 96.9666 112.037 96.8856 112.037C96.8046 112.037 95.2989 111.626 94.5563 111.421C93.9486 111.421 94.4758 110.611 94.8601 110.805C95.0626 110.908 99.5187 111.318 99.8226 111.216C100.053 111.138 100.059 110.6 100.025 110.292C99.4175 110.019 98.0807 109.349 97.5945 108.856C97.1084 108.364 97.5945 108.104 97.8984 108.035C98.8774 108.172 98.9111 108.754 100.126 108.856C101.038 108.959 102.079 109.012 102.456 109.267Z" fill="#E2857E"/>
<path d="M92.6395 88.0298C91.9104 88.9326 90.3777 89.8423 89.7026 90.1842H87.4745C86.3605 89.5686 83.9299 88.5427 83.2209 87.7219C82.5641 86.9615 80.6891 84.8493 80.6891 83.8233L79.9801 81.1559C78.9674 80.7455 76.0989 79.958 74.2074 81.874C72.0807 84.0284 75.2202 97.7762 76.7393 98.5969L116.229 98.7939L116.634 96.2337L116.229 91.8057C114.353 91.7362 113.103 91.5161 112.388 91.005C111.011 90.02 110.059 86.9012 109.755 85.4649C108.607 85.1229 106.15 84.3364 105.502 83.926C104.691 83.413 98.6148 87.1064 95.9816 85.4649C93.3485 86.696 93.551 86.9012 92.6395 88.0298Z" fill="#FFB35A"/>
<path d="M127.377 108.856C129.605 101.572 124.845 93.9802 121.908 91.7231C120.723 91.8054 117.968 91.8702 116.229 91.8057L116.634 96.2337L116.229 98.7939L117.343 103.004C117.444 104.953 117.444 106.701 116.432 107.214C111.672 108.548 108.33 107.83 105.19 109.164C104.18 109.593 105.156 113.404 105.697 114.293C104.38 114.088 115.528 118.09 120.895 116.859C124.606 116.008 126.634 110.806 127.377 108.856Z" fill="#FFB35A"/>
<path d="M102.253 68.4336L112.381 70.5881C112.617 70.8617 113.13 71.6551 113.292 72.64C113.495 73.8711 111.874 76.5386 111.571 76.3334C111.267 76.1282 110.659 80.3346 110.862 80.3346C111.064 80.3346 109.95 81.4631 108.937 81.6683C108.046 82.1608 106.878 82.2155 106.405 82.1813C105.562 81.9077 103.752 81.1553 103.266 80.3346C102.456 79.4112 101.24 77.0516 101.342 76.8464C100.329 75.3075 101.342 73.3582 101.139 73.2556C100.937 73.153 101.342 72.64 101.139 71.7166C100.937 70.7933 100.532 69.5622 102.253 68.4336Z" fill="#E2857E"/>
<path d="M111.267 76.3326C113.697 73.2959 112.887 71.2713 112.077 70.4848L107.317 69.3562L102.456 68.2276C101.781 68.467 101.463 69.6025 101.95 72.2289C102.557 75.5119 100.835 74.1782 102.456 77.0508C102.456 79.5662 105.388 81.8278 105.865 82.0687C105.866 82.069 105.867 82.0692 105.866 82.0695C105.88 82.0766 105.873 82.0819 105.856 82.0853C105.841 82.2757 107.548 83.9138 103.367 86.0784C98.81 88.438 98.101 86.7965 97.4934 87.6173C96.116 88.0282 95.9066 85.5657 96.1767 84.0265C96.9869 83.9239 95.9741 80.128 94.3537 77.6656C92.7333 75.2033 94.0498 74.0756 95.4677 72.2289C96.8855 70.3822 94.0498 67.8165 98.6072 64.1238C103.377 60.259 101.24 64.7409 106.912 60.5345C112.988 59.7138 113.573 63.6793 114.71 64.1254C117.849 65.3567 120.787 67.201 120.584 68.2276C120.468 68.8143 120.989 75.1337 122.407 75.7164C124.736 76.6734 124.635 81.4622 124.635 82.6928C122.812 85.668 127.147 84.8882 124.635 89.1561C121.496 94.491 123.015 94.6962 116.634 94.2858C110.254 93.8755 110.457 89.5665 109.748 89.1561C109.039 88.7457 108.026 87.5146 110.76 84.3342C113.495 81.1538 108.229 80.1286 111.267 76.3326Z" fill="black"/>
</g>
</svg>
