<svg width="196" height="198" viewBox="0 0 196 198" fill="none" xmlns="http://www.w3.org/2000/svg">
<mask id="mask0_695_7077" style="mask-type:alpha" maskUnits="userSpaceOnUse" x="0" y="0" width="196" height="198">
<ellipse cx="98" cy="98.77" rx="97.5" ry="98.77" fill="#FAE5E5"/>
</mask>
<g mask="url(#mask0_695_7077)">
<path d="M51.3102 20.8676C29.8876 27.9624 26.7063 38.6624 27.7934 43.1256C41.3542 49.7335 7.02318 35.4745 5.99326 84.1639C5.16931 123.115 24.532 119.174 34.3163 112.334C25.6191 129.839 18.5927 168.292 60.0646 182.064C101.536 195.837 136.508 179.92 148.81 170.24C160.654 163.632 185.407 141.652 189.664 106.596C193.921 71.5394 171.984 58.8338 160.483 56.863C164.03 44.8646 161.066 18.1897 120.83 7.47802C70.5355 -5.91157 78.0883 11.9992 51.3102 20.8676Z" fill="#3DA8F5"/>
<path d="M36.5471 57.7322C7.43445 66.079 4.27598 101.321 6.33584 116.333C20.7548 149.164 96.9696 194.005 124.263 191.802C162.199 138.649 218.33 29.0055 139.368 28.1708C40.6668 27.1274 72.938 47.2988 36.5471 57.7322Z" fill="#EBBB90" fill-opacity="0.9" stroke="#EBBB90"/>
<path d="M97.4849 22.0841C46.5377 27.5095 42.9558 46.0231 47.5333 54.6017C38.8933 50.3124 19.8625 49.2806 12.859 79.4681C5.85548 109.656 23.9021 137.837 33.8009 148.155C46.0456 169.486 80.3194 206.652 119.457 184.672C168.378 157.197 171.468 133.548 184.686 130.07C195.26 127.288 180.28 78.5986 171.468 54.6017C168.035 41.5019 148.432 16.6587 97.4849 22.0841Z" fill="#D8F8F2" fill-opacity="0.9" stroke="#D8F8F2"/>
</g>
<path d="M127.873 40.9159C72.8708 24.6406 41.9515 57.4306 33.3672 75.86C17.4902 114.346 38.25 142.158 50.6146 151.253C110.532 193.377 154.02 160.029 168.275 138.089C193.98 79.3065 152.051 48.8142 127.873 40.9159Z" fill="#B0D8D9"/>
<path d="M121.967 89.5028C114.595 87.588 114.643 79.4503 115.588 75.6209L123.385 78.9717L126.929 78.0143L128.346 84.9552L121.967 89.5028Z" fill="#E2857E"/>
<path d="M113.461 142.398L108.5 140.961C105.664 152.641 105.901 161.465 106.373 164.417L113.461 150.775V142.398Z" fill="#C87B75"/>
<path d="M95.2688 158.673L101.412 134.26L109.445 140.243L107.318 161.545L103.774 171.119H99.9941C94.5128 171.31 94.56 162.901 95.2688 158.673Z" fill="#E2857E"/>
<path d="M115.588 120.004L107.555 140.837C108.326 140.837 112.374 142.356 114.302 143.115L115.588 120.004Z" fill="#FF5D43"/>
<path d="M114.406 125.165C114.595 127.271 113.225 143.115 112.516 150.774L142.049 161.066L156.225 152.928C157.926 152.354 156.619 145.987 155.753 142.876L160.95 118.702C163.786 108.937 158.982 100.592 156.225 97.6401L119.368 95.9647C107.649 95.1988 100.466 117.346 98.3401 128.515C97.962 134.834 104.798 139.445 108.263 140.961C107.885 139.046 112.201 129.632 114.406 125.165Z" fill="#FF7C56"/>
<path d="M127.401 81.8437C125.889 78.3972 123.778 80.0885 122.912 81.365L115.824 75.1421C112.232 68.249 122.518 63.6537 128.109 62.2176C141.718 59.9199 146.853 64.4515 147.72 67.0045C153.39 75.6208 155.91 90.5398 156.461 96.9223C155.516 106.305 146.144 108.81 141.577 108.889C131.37 108.889 125.983 102.188 124.565 98.8371C124.376 96.9223 121.179 95.8054 119.604 95.4863C118.848 94.1459 121.494 89.5027 122.912 87.3486C127.259 86.3912 127.716 83.2798 127.401 81.8437Z" fill="#10242B"/>
<path d="M155.68 152.421C136.196 170.234 112.085 172.327 102.465 171.148C103.146 163.481 109.062 153.209 111.935 149.032C132.277 160.89 149.574 156.232 155.68 152.421Z" fill="#0E2128"/>
<path d="M86.9467 130.531C79.7642 135.701 62.6901 132.366 55.0509 130.052L50.7981 141.062V152.072C59.3036 160.688 79.8587 166.831 89.0731 168.826C90.7742 164.613 90.4119 155.422 90.0182 151.354C90.2072 142.354 88.0493 133.722 86.9467 130.531Z" fill="#19617B"/>
<path d="M56.4881 133.201C62.4961 135.404 77.1554 138.487 87.7293 133.201C88.416 135.148 88.7021 136.215 88.7593 136.505C83.3235 138.534 69.3279 141.374 56.8315 136.505C56.5568 134.14 56.4881 133.317 56.4881 133.201Z" fill="black"/>
<path d="M57.8614 139.983C60.2646 141.78 69.9459 144.295 89.4459 139.983C89.7205 141.93 89.7892 142.649 89.7892 142.765C82.0647 144.214 65.0022 146.243 58.548 142.765C58.2734 141.513 57.9758 140.388 57.8614 139.983Z" fill="black"/>
<path d="M59.4063 145.895C63.9265 147.634 76.4001 150.068 90.1325 145.895V148.677C84.9257 150.358 71.5938 152.711 59.9212 148.677C59.5093 147.425 59.4063 146.301 59.4063 145.895Z" fill="black"/>
<path d="M50.9952 149.547C57.5181 152.155 74.5119 156.363 90.3042 152.329C90.5788 154.137 90.533 154.474 90.4758 154.416C87.6721 157.372 75.9195 161.232 51.3385 153.024C50.9265 151.772 50.938 150.184 50.9952 149.547Z" fill="black"/>
<path d="M90.4758 159.285C87.1572 160.907 77.1212 162.971 63.5261 158.241C64.0754 159.771 64.8994 160.502 65.2427 160.676C68.8474 162.646 78.9062 165.858 90.3042 162.936C90.4415 161.128 90.4758 159.748 90.4758 159.285Z" fill="black"/>
<path d="M89.961 165.892C87.5006 166.182 81.3783 166.484 76.5719 165.371C79.8677 166.762 86.299 168.153 89.1027 168.675C89.4561 167.74 90.1225 165.874 89.961 165.892Z" fill="black"/>
<path d="M88.1195 133.896C77.2709 139.461 62.4284 136.215 56.3633 133.896V135.461C69.9398 140.046 83.505 137.382 88.6135 135.469C88.5397 135.462 88.3667 135.149 88.1195 133.896Z" fill="#E85D5D"/>
<path d="M57.7365 140.678C61.6846 142.417 73.5975 144.852 89.6644 140.678V141.895C83.0842 143.345 67.4865 145.373 57.7365 141.895V140.678Z" fill="#E85D5D"/>
<path d="M59.1098 146.417C64.3166 148.329 77.8202 151.007 90.1793 146.417V147.46C86.0596 149.315 73.9064 151.912 58.2515 147.46C58.2515 146.625 58.8237 146.417 59.1098 146.417Z" fill="#E85D5D"/>
<path d="M50.6987 150.068C57.6793 152.909 75.3827 157.372 90.351 152.503C90.4883 153.337 90.5226 153.662 90.5226 153.72C85.8307 156.154 71.2973 159.111 50.6987 151.459C50.5614 150.625 50.6415 150.184 50.6987 150.068Z" fill="#E85D5D"/>
<path d="M63.5727 158.415C67.9786 160.618 79.5368 163.98 90.5226 159.806C90.5226 160.919 90.4082 161.429 90.3509 161.545C85.7162 162.762 74.0437 164.119 64.431 159.806C63.4698 158.972 63.4583 158.531 63.5727 158.415Z" fill="#E85D5D"/>
<path d="M89.6643 166.762L78.5067 166.066L81.9398 167.11L89.321 167.805L89.6643 166.762Z" fill="#E85D5D"/>
<path d="M90.0182 103.964C86.994 102.815 83.5602 91.0391 82.2214 85.2949C86.9467 88.3585 88.9156 91.9965 89.3094 93.4326C91.3885 97.4535 90.6482 103.724 90.0182 106.357L88.8368 109.947L87.6555 116.17C87.2775 119.425 88.6006 125.026 89.3094 127.419L88.128 135.557L83.8753 120.478L90.0182 103.964Z" fill="#E2857E"/>
<path d="M89.7819 113.059C91.483 109.229 90.9632 105.081 90.4907 103.485L88.6006 108.751L86.4742 112.819L84.1115 119.76L84.8203 126.462L87.183 130.291L86.7104 121.436C87.0885 119.521 88.9156 115.053 89.7819 113.059Z" fill="black" fill-opacity="0.08"/>
<path d="M57.6498 116.17C58.9729 119.042 57.0985 126.462 55.9959 129.813C74.3301 136.706 84.1115 132.685 86.7104 129.813L84.8203 123.59C84.4423 118.611 85.9229 115.133 86.7104 114.016C89.5456 110.57 90.4119 106.038 90.4907 104.203C88.4116 101.139 86.1592 95.9058 85.2928 93.6719L82.2214 84.8162L78.6774 83.3802C80.1895 89.1244 76.3148 92.3156 74.1884 93.1932C68.329 93.1932 63.0839 86.1725 61.1938 82.6621L55.2871 84.8162C62.4696 85.1992 62.2176 96.3047 61.1938 101.81C56.8465 109.277 57.0197 114.495 57.6498 116.17Z" fill="#FBF6EE"/>
<path d="M55.0507 125.505C55.0507 133.738 60.721 151.433 63.5562 159.252L65.6235 161.346L53.8693 154.704L43.7099 132.924C40.6857 129.669 42.4498 113.378 43.7099 105.639C46.5451 89.7467 53.2393 85.2949 56.232 85.0556C64.7376 89.4595 62.9262 99.4959 60.9573 103.964C57.1771 110.282 57.1771 114.575 57.6496 115.931L55.0507 125.505Z" fill="#E2857E"/>
<path d="M74.2967 94.1503C67.0477 94.3602 61.4384 86.7196 59.5399 82.873H61.8699L62.6466 77.6278V75.7919C60.9897 71.5957 64.1999 72.6448 66.0122 73.6938C72.6398 75.7919 77.576 68.2737 79.2156 64.2524L84.3934 67.6618C88.7428 74.1659 81.7182 78.5894 77.6623 79.9881V82.873L79.9923 84.4466C80.4065 92.2096 76.3678 94.1503 74.2967 94.1503Z" fill="#E2857E"/>
<path d="M59.0672 70.9343C58.3112 74.3809 62.2174 77.4764 64.265 78.5933V76.6786L63.32 75.7212C63.698 72.2747 65.6826 73.1682 66.6277 74.0458V75.7212C75.1333 74.9553 78.9923 68.3814 79.8586 65.1901L84.8201 69.7376C85.1982 63.419 81.6699 62.6371 79.8586 63.036C74.5662 58.6321 69.4629 60.7224 67.5728 62.318C65.6826 56.1908 59.5397 58.6481 56.7045 60.6426C53.1133 69.0675 56.7833 71.0141 59.0672 70.9343Z" fill="#10242B"/>
<path d="M81.5126 73.8064L80.8038 71.1737L79.6225 71.413L80.8038 74.2851H79.8587V75.0032L81.0401 74.7638L81.5126 73.8064Z" fill="#10242B"/>
<path d="M55.2575 84.8717C52.7972 86.5527 47.7971 90.1929 46.8359 93.3925C45.6343 97.3919 42.3728 108.347 42.2012 113.738C42.0295 119.128 40.3128 129.388 45.8058 137.387C49.1015 138.639 54.1596 136.401 56.2767 135.126L55.0751 125.562L57.6499 115.998L62.113 99.8264L63.4862 93.3925L59.0339 85.9151L55.2575 84.8717Z" fill="#FBF6EE"/>
<path d="M82.1966 84.8718C85.9158 87.4802 92.7706 94.9922 90.4361 104.174C87.4607 98.4353 81.6473 86.5412 82.1966 84.8718Z" fill="#FBF6EE"/>
<path d="M89.4061 127.301C89.0628 127.475 88.0329 119.824 87.6896 119.476C87.419 119.202 87.4683 116.983 88.9308 110.434C88.517 111.245 87.4493 113.146 86.488 114.259C85.2521 114.677 84.8287 120.693 84.7715 123.649L86.6597 129.736L89.4061 127.301Z" fill="#FBF6EE"/>
</svg>
