<svg width="196" height="198" viewBox="0 0 196 198" fill="none" xmlns="http://www.w3.org/2000/svg">
<mask id="mask0_695_7065" style="mask-type:alpha" maskUnits="userSpaceOnUse" x="0" y="0" width="196" height="198">
<ellipse cx="98" cy="98.77" rx="97.5" ry="98.77" fill="#FAE5E5"/>
</mask>
<g mask="url(#mask0_695_7065)">
<path d="M51.3094 20.8676C29.8869 27.9624 26.7056 38.6624 27.7927 43.1256C41.3534 49.7335 7.02246 35.4745 5.99253 84.1639C5.16858 123.115 24.5313 119.174 34.3156 112.334C25.6184 129.839 18.592 168.292 60.0638 182.064C101.536 195.837 136.507 179.92 148.809 170.24C160.654 163.632 185.406 141.652 189.663 106.596C193.92 71.5394 171.983 58.8338 160.482 56.863C164.029 44.8646 161.066 18.1897 120.83 7.47802C70.5348 -5.91157 78.0876 11.9992 51.3094 20.8676Z" fill="#3DA8F5"/>
<path d="M36.5471 57.7325C7.43445 66.0793 4.27598 101.321 6.33584 116.334C20.7548 149.164 96.9696 194.005 124.263 191.802C162.199 138.65 218.33 29.0057 139.368 28.171C40.6668 27.1277 72.938 47.299 36.5471 57.7325Z" fill="#EBBB90" fill-opacity="0.9"/>
<path d="M97.4846 22.0849C46.5374 27.5103 42.9556 46.0238 47.533 54.6025C38.8931 50.3131 19.8622 49.2814 12.8587 79.4688C5.8552 109.656 23.9019 137.838 33.8006 148.156C46.0453 169.486 80.3191 206.653 119.456 184.673C168.378 157.198 171.468 133.549 184.685 130.071C195.259 127.289 180.279 78.5994 171.468 54.6025C168.035 41.5027 148.432 16.6595 97.4846 22.0849Z" fill="#D8F8F2" fill-opacity="0.9"/>
</g>
<path d="M164.723 116.133C176.193 61.0777 127.627 48.4666 101.91 49.043H97.8133C47.0165 51.5329 35 86.5072 35.3414 103.683C36.1607 149.332 80.0617 161.666 101.91 162.127C152.433 159.637 164.837 130.427 164.723 116.133Z" fill="#478996"/>
<path d="M52.7518 88.4672C46.7436 89.5739 43.4208 83.8563 42.5105 80.8591C61.3545 52.3633 91.0997 48.2365 103.617 49.7351C140.486 53.055 158.123 73.251 162.334 82.9341C163.972 84.8707 154.141 87.4298 149.02 88.4672C142.466 88.1906 136.958 94.8073 135.024 98.1503C131.746 112.813 103.617 100.341 89.9618 92.2713C84.2267 96.4212 75.2826 93.0782 71.5275 90.888C67.9772 86.1848 57.5311 87.3145 52.7518 88.4672Z" fill="#43808D"/>
<path d="M52.0691 106.104C51.796 119.107 40.8037 112.905 35.3416 108.179V106.104C34.5223 99.7407 37.0485 90.7724 38.414 87.0836C43.6029 68.2708 64.9276 57.1123 74.9413 53.8846C76.762 53.3082 80.6764 54.8529 81.7688 65.6426C82.8612 76.4323 68.3414 86.0462 60.9449 89.5044C58.1001 89.6197 52.3422 93.1009 52.0691 106.104Z" fill="#2B5866"/>
<path d="M124.441 61.8385C130.722 52.9854 113.403 49.85 103.958 49.3889L101.91 56.997L96.7893 61.8385C88.3231 67.6483 86.4342 72.559 86.548 74.2881C84.3632 83.4179 103.389 84.317 113.175 83.6254C114.268 80.0288 114.313 75.2103 114.199 73.2507L124.441 61.8385Z" fill="#336A76"/>
<path d="M150.727 111.637C156.462 84.248 131.041 86.3921 117.613 90.8878L112.834 92.6169C105.46 95.019 100.431 104.915 98.8376 109.562C96.9259 117.585 112.834 125.355 121.027 128.237C138.779 131.833 148.223 118.669 150.727 111.637Z" fill="#33666F"/>
<path d="M129.562 67.3722C125.465 69.0321 125.124 72.4442 125.465 73.9428V74.9803C126.284 77.4702 129.903 77.6316 131.61 77.401C136.526 76.0177 137.072 72.4442 136.73 70.8304C136.184 66.9572 131.724 66.9111 129.562 67.3722Z" fill="#18353C"/>
<path d="M75.2824 90.1962C72.0052 90.1962 71.6411 92.2712 71.8687 93.3086C71.8687 95.2452 73.6893 95.7294 74.5997 95.7294C77.6038 96.5594 78.81 94.4614 79.0376 93.3086C79.0376 90.2654 76.5341 89.9657 75.2824 90.1962Z" fill="#264B54"/>
<path d="M120.344 138.612C104.504 148.848 88.9374 142.877 83.134 138.612L81.7685 141.032C78.7644 147.119 77.3306 154.865 76.9892 157.978C92.8291 164.341 116.589 160.629 126.489 157.978C127.035 156.041 122.62 144.26 120.344 138.612Z" fill="#E85D5D"/>
<path d="M98.1544 82.9341C97.062 85.7007 94.2855 87.0839 93.0338 87.4298L90.9855 88.4672L91.3269 90.1964L101.91 93.3088L112.492 89.1589L110.444 87.7756C104.709 92.2021 99.8613 86.3923 98.1544 82.9341Z" fill="#E2857E"/>
<path d="M101.569 144.145C91.1907 145.528 84.9549 140.802 83.1342 138.266L79.3791 127.2C75.5557 122.496 74.8274 115.096 74.9412 111.983C74.1219 102.854 80.7446 96.1908 84.1583 94.0005V91.9256L85.8652 90.5423V88.1215L87.5721 83.6259C91.1224 89.159 98.3824 91.4645 101.569 91.9256C105.665 91.9256 113.744 88.2368 117.272 86.3924H119.32V88.1215L117.272 91.9256C121.915 91.0956 121.255 93.6547 120.344 95.038C134.272 106.658 128.423 121.321 123.758 127.2L120.344 138.266C115.975 143.522 106.006 144.375 101.569 144.145Z" fill="white"/>
<path d="M96.7891 77.0553C91.0539 78.9919 89.3926 83.1649 89.2788 85.0093L90.9857 87.7758C95.6284 89.1591 97.4718 86.5078 97.8132 85.0093C103.002 93.0323 109.989 90.1966 112.834 87.7758C119.388 83.9026 112.606 79.4761 108.396 77.747C111.4 71.1072 105.779 69.4472 102.592 69.4472C94.9456 69.7239 95.5373 74.6346 96.7891 77.0553Z" fill="#183138"/>
<path d="M98.1548 98.842C94.6044 100.779 87.3445 96.4213 84.1583 94.0005C83.6121 94.2772 81.8825 95.7296 81.0859 96.4212L96.4479 100.571L98.1548 98.842Z" fill="#C4C4C4"/>
<path d="M121.027 95.7296L120.344 95.038C111.878 99.7412 105.21 101.609 102.934 101.954C107.303 103.891 116.816 98.6115 121.027 95.7296Z" fill="#C4C4C4"/>
<path d="M96.4476 93.309C94.2628 94.4157 88.4825 91.9256 85.8652 90.5423L84.4995 91.5799C86.4112 92.9632 92.8063 94.0007 95.7649 94.3465L96.4476 93.309Z" fill="#C4C4C4"/>
<path d="M109.421 88.1218V89.1592H110.786V90.5425L108.738 94.0008V96.7673L108.055 100.917L106.69 105.067L103.959 113.713L102.593 121.321C101.501 134.6 106.234 136.306 108.738 135.5C112.834 135.776 114.996 130.543 115.565 127.891V124.433L114.883 120.283L114.2 113.713V96.0757L117.955 88.1218V86.7385L114.2 83.9719L109.421 88.1218Z" fill="#E2857E"/>
<path d="M94.7407 90.1962L93.7166 89.5046V91.5795L95.4235 94.3461L95.7648 98.496L96.4476 104.375L97.1303 110.946L99.1786 119.245V126.162C98.9055 139.165 91.5545 136.421 87.9132 133.424C85.4553 130.104 85.9787 122.588 86.5477 119.245L88.5959 109.908L89.2787 103.683L89.9614 100.225V97.1127L89.2787 96.0752L86.5477 89.1588L86.2063 87.4296L89.2787 84.6631H90.9856L94.7407 88.8129V90.1962Z" fill="#E2857E"/>
<path d="M121.368 135.153L123.416 128.237C118.227 134.047 110.33 136.882 107.03 137.574L121.368 135.153Z" fill="#C4C4C4"/>
<path d="M82.4512 136.191L79.7202 128.237C82.7243 134.047 91.4408 137.113 95.4235 137.92L82.4512 136.191Z" fill="#C4C4C4"/>
<path d="M98.4966 130.658C92.4884 140.341 87.8001 131.004 86.207 125.125C85.6608 127.338 86.4346 129.966 86.8898 131.004C87.436 133.77 91.2139 135.384 93.0346 135.845C96.858 136.122 98.269 132.502 98.4966 130.658Z" fill="#CA7872"/>
<path d="M115.565 127.891V125.125C111.743 138.397 105.558 134.12 102.938 130.318L103.617 132.387C105.801 135.983 109.306 135.73 110.785 135.153C113.243 134.6 114.996 130.081 115.565 127.891Z" fill="#CA7872"/>
<path d="M83.7104 138.244C88.2878 142.649 101.604 149.083 120.143 138.511C120.692 139.763 120.944 140.423 121.001 140.597C116.137 145.988 101.837 153.442 81.6505 141.2C83.0237 138.835 83.3671 138.128 83.3671 138.07L83.7104 138.244Z" fill="black"/>
<path d="M79.8039 145.895C85.8118 151.517 102.874 159.389 123.061 145.895C123.61 147.425 124.205 148.851 124.434 149.373C118.197 155.865 100.265 165.127 78.4306 150.242C78.8426 148.99 79.5178 146.822 79.8039 145.895Z" fill="black"/>
<path d="M77.4007 155.459C83.7519 159.69 102.428 165.823 126.322 156.502C126.597 158.45 126.551 158.357 126.494 158.067C120.314 160.965 101.741 165.023 76.8857 158.067C77.023 156.815 77.2863 155.807 77.4007 155.459Z" fill="black"/>
<path d="M122.085 143.029C105.912 152.721 96.5084 153.484 80.4763 144.039L80.269 144.543C96.3956 153.997 105.609 153.267 122.291 143.661L122.085 143.029Z" fill="black"/>
<path d="M125.823 153.993C106.803 161.684 96.2493 162.134 77.694 153.589L77.5291 154.4C96.2827 162.403 106.907 162.15 125.982 154.642L125.823 153.993Z" fill="black"/>
</svg>
