<svg width="196" height="198" viewBox="0 0 196 198" fill="none" xmlns="http://www.w3.org/2000/svg">
<path d="M48.5997 18.9971C25.9424 26.4043 22.5777 37.5756 23.7275 42.2354C38.0699 49.1343 1.76003 34.2473 0.670736 85.081C-0.2007 125.748 20.2781 121.633 30.6264 114.492C21.4279 132.768 13.9964 172.915 57.8587 187.293C101.721 201.672 138.709 185.054 151.72 174.948C164.247 168.049 190.426 145.101 194.928 108.501C199.431 71.9006 176.229 58.6354 164.065 56.5778C167.817 44.0509 164.682 16.2013 122.127 5.01782C68.9333 -8.96147 76.9214 9.7381 48.5997 18.9971Z" fill="#2190E0"/>
<path d="M32.9866 57.4854C2.19582 66.1998 -1.14471 102.994 1.03388 118.668C16.284 152.944 96.8919 199.759 125.758 197.46C165.881 141.966 225.247 27.4935 141.735 26.622C37.3437 25.5327 71.475 46.5925 32.9866 57.4854Z" fill="#EBBB90" fill-opacity="0.9"/>
<path d="M97.4366 20.2679C43.5528 25.9323 39.7644 45.2612 44.6058 54.2176C35.4678 49.7394 15.34 48.6622 7.9328 80.1792C0.525586 111.696 19.6125 141.119 30.0818 151.891C43.0323 174.161 79.2816 212.964 120.675 190.016C172.416 161.332 175.684 136.641 189.664 133.01C200.847 130.105 185.004 79.2714 175.684 54.2176C172.053 40.5409 151.32 14.6036 97.4366 20.2679Z" fill="#D8F8F2" fill-opacity="0.9"/>
<path d="M105.185 39.2607C87.608 37.0388 66.4737 49.5676 58.1037 56.1097C51.8153 60.4053 46.0058 69.1323 43.8871 72.9588C24.6853 103.028 39.3328 128.567 49.0568 137.578C81.9213 169.609 124.941 154.242 124.941 153.131C166.003 136.393 165.313 98.5101 159.836 81.661C150.531 50.5551 119.525 40.4333 105.185 39.2607Z" fill="#3D9767"/>
<path d="M56.8448 78.9607L73.0113 67.0843L122.263 64.2566L144.257 80.4688L148.204 106.672L138.429 126.466L71.3194 128.917L54.965 117.983L56.8448 78.9607Z" fill="white"/>
<path d="M130.48 115.544H127.341L126.418 126.654L131.218 125.728L130.48 115.544Z" fill="#183138"/>
<path d="M120.14 109.249L119.402 109.804L120.14 112.952C123.094 114.285 124.941 112.026 125.495 110.73C125.642 108.212 124.941 107.583 124.572 107.583C124.867 106.842 125.802 106.287 126.233 106.101L124.202 102.583L119.402 103.324C117.334 105.398 119.033 106.904 120.14 107.397V109.249Z" fill="#E2857E"/>
<path d="M120.14 109.619C112.164 109.175 111.524 121.037 112.201 127.024L116.448 126.283C117.925 124.358 118.54 122.518 118.663 121.84L119.217 126.283L127.895 125.543C129.667 123.913 129.003 118.568 128.449 116.1H129.741C130.627 118.914 130.11 123.568 129.741 125.543L132.88 124.987C135.539 111.656 129.187 108.694 125.679 108.879C122.43 113.471 120.633 111.286 120.14 109.619Z" fill="#6EA8D2"/>
<path d="M118.663 102.213C120.436 101.917 122.233 101.349 122.91 101.102C126.455 100.362 127.833 102.645 128.08 103.879C127.636 105.509 126.418 106.286 125.864 106.472L125.125 105.546L124.572 105.176C124.867 103.25 121.864 103.509 120.325 103.879C118.257 103.731 118.356 102.707 118.663 102.213Z" fill="#183138"/>
<path d="M120.694 104.435H120.325V104.99L120.14 105.361C119.992 105.509 120.079 106.04 120.14 106.287L120.509 106.472H120.879V106.101L120.694 105.916C120.251 106.064 120.509 105.484 120.694 105.176V104.435Z" fill="#183138"/>
<path d="M59.2115 124.247C60.3931 123.062 60.0731 120.544 59.7654 119.433L55.7035 116.285L57.5498 78.6987L73.0589 67.2191L122.356 65.5527L141.742 80.3651L145.804 105.731L136.018 124.802L107.031 127.024L108.324 130.542L139.526 128.32L150.789 107.212L145.804 78.6987L124.017 61.4793L70.6587 63.8863L52.5647 79.2541L51.6416 117.581L59.2115 124.247Z" fill="#183138"/>
<path d="M104.446 88.6971L116.078 91.4745V90.5487L104.446 87.7714V88.6971Z" fill="#183138"/>
<path d="M128.818 88.3268C123.205 87.8824 108.016 83.3276 101.123 81.1058V80.18C107.918 82.9943 122.417 86.1667 128.818 87.401V88.3268Z" fill="#1A333A"/>
<path d="M124.387 79.9949C122.319 78.6618 115.032 77.341 111.647 76.8473V76.1067C116.669 76.4029 122.233 78.0816 124.387 78.884V79.9949Z" fill="#1A333A"/>
<path d="M99.8305 57.2206L95.7686 62.9604H97.2457L101.492 56.1096L106.477 62.4049H107.77L101.308 54.6284L100.2 56.4799L93.3684 52.7769C92.1868 50.1106 90.5374 51.2956 89.8604 52.2214C89.2696 54.2951 91.2144 54.6901 92.2606 54.6284L99.8305 57.2206Z" fill="#183138"/>
<path d="M92.4452 52.9619C92.4452 53.4732 92.0319 53.8877 91.5221 53.8877C91.0122 53.8877 90.5989 53.4732 90.5989 52.9619C90.5989 52.4506 91.0122 52.0361 91.5221 52.0361C92.0319 52.0361 92.4452 52.4506 92.4452 52.9619Z" fill="white"/>
<path d="M102.415 57.7757C102.415 58.287 102.002 58.7015 101.492 58.7015C100.982 58.7015 100.569 58.287 100.569 57.7757C100.569 57.2644 100.982 56.8499 101.492 56.8499C102.002 56.8499 102.415 57.2644 102.415 57.7757Z" fill="#183138"/>
<path d="M93.1836 157.574C97.4671 158.611 107.77 157.513 112.385 156.834L110.354 142.021C110.354 134.615 109 128.443 108.323 126.283C107.437 111.471 95.2761 107.151 89.3064 106.842C80.5917 108.175 74.7204 106.78 72.8741 105.916C64.7503 106.953 60.9961 115.236 60.1345 119.247C58.0666 125.617 59.8883 140.664 61.0576 147.391C69.3292 152.575 79.767 155.229 83.952 155.908C84.8383 152.945 85.306 148.995 85.4291 147.391C83.952 135.541 84.3213 132.332 84.6906 132.208L83.952 130.171H85.4291C85.4291 135.948 90.5988 150.847 93.1836 157.574Z" fill="#6EA8D2"/>
<path d="M84.3213 139.244C85.7984 145.317 84.3213 153.007 83.3982 156.093C88.1248 157.13 91.3989 157.513 92.4451 157.574L84.3213 132.578C83.4351 133.319 83.9521 137.331 84.3213 139.244Z" fill="#547E9D"/>
<path d="M84.3213 129.801C85.2076 138.392 89.8603 151.773 92.0759 157.389H93.5529C91.1896 155.76 87.2755 139.676 85.6138 131.838V129.801H84.3213Z" fill="#183138"/>
<path d="M90.599 107.953C82.6229 110.767 75.3361 108.385 72.6897 106.842L74.1667 105.916L76.1977 96.6584L77.4901 95.3623C68.9232 91.5111 73.0589 84.6233 76.1977 81.6609C82.2536 77.6615 93.3685 84.5616 98.1689 88.5116C100.68 95.7696 93.1838 98.942 89.1219 99.6209V106.842L90.599 107.953Z" fill="#E2857E"/>
<path d="M89.1219 99.4358C88.8265 100.769 85.183 99.9913 83.3983 99.4358C83.8414 102.398 87.3986 102.769 89.1219 102.583V99.4358Z" fill="#BA635D"/>
<path d="M89.8604 91.8445C88.6788 93.0295 89.3681 94.4367 89.8604 94.9921L87.2756 96.8437C80.038 98.9174 74.6591 96.4734 72.8743 94.9921C66.8183 90.9928 69.3663 84.5618 71.3972 81.8462C77.8963 76.5137 88.0141 80.2415 92.2607 82.7719C95.0671 84.8457 98.8459 84.3766 100.384 83.8829C102.009 85.8085 99.7075 88.1414 98.3535 89.0672C96.4333 89.2153 95.8302 90.2398 95.7687 90.7336C94.8824 93.5479 93.6762 93.264 93.1838 92.7703C91.2636 90.9928 90.1681 91.4125 89.8604 91.8445Z" fill="#183138"/>
</svg>
