<svg width="196" height="198" viewBox="0 0 196 198" fill="none" xmlns="http://www.w3.org/2000/svg">
<mask id="mask0_695_6994" style="mask-type:alpha" maskUnits="userSpaceOnUse" x="0" y="0" width="196" height="198">
<ellipse cx="98" cy="98.77" rx="97.5" ry="98.77" fill="#FAE5E5"/>
</mask>
<g mask="url(#mask0_695_6994)">
<path d="M51.3097 20.8666C29.8871 27.9614 26.7058 38.6615 27.7929 43.1247C41.3537 49.7325 7.0227 35.4735 5.99277 84.1629C5.16882 123.114 24.5315 119.173 34.3158 112.333C25.6186 129.838 18.5922 168.291 60.0641 182.063C101.536 195.836 136.508 179.919 148.81 170.239C160.654 163.631 185.406 141.651 189.664 106.595C193.921 71.5384 171.983 58.8328 160.482 56.8621C164.03 44.8636 161.066 18.1887 120.83 7.47705C70.535 -5.91255 78.0878 11.9982 51.3097 20.8666Z" fill="#2190E0"/>
<path d="M36.5476 57.7322C7.43494 66.079 4.27647 101.321 6.33633 116.333C20.7553 149.164 96.9701 194.005 124.263 191.802C162.199 138.649 218.33 29.0055 139.369 28.1708C40.6673 27.1274 72.9385 47.2988 36.5476 57.7322Z" fill="#EBBB90" fill-opacity="0.9" stroke="#EBBB90"/>
<path d="M97.4849 22.0841C46.5377 27.5095 42.9558 46.0231 47.5333 54.6017C38.8933 50.3124 19.8625 49.2806 12.859 79.4681C5.85548 109.656 23.9021 137.837 33.8009 148.155C46.0456 169.486 80.3194 206.652 119.457 184.672C168.378 157.197 171.468 133.548 184.686 130.07C195.26 127.288 180.28 78.5986 171.468 54.6017C168.035 41.5019 148.432 16.6587 97.4849 22.0841Z" fill="#D8F8F2" fill-opacity="0.9" stroke="#D8F8F2"/>
<ellipse cx="98.0002" cy="108.16" rx="78.2747" ry="53.5584" fill="#D8AF89"/>
<path d="M60.8053 116.739C56.1355 112.857 46.5998 103.512 45.8153 97.1897C43.7979 90.4235 43.5738 86.606 43.7139 85.543C44.6011 82.0305 47.2443 74.4509 50.7186 72.2325C53.6325 69.2376 59.8713 66.0856 62.6265 64.884C64.2609 64.4218 68.4789 64.3447 72.7132 64.6067C77.1962 64.884 88.2635 69.5982 92.4663 72.2325L116.422 81.2449C117.029 81.6146 119.841 82.2432 126.229 81.7995C132.841 81.0231 136.923 82.3079 138.137 83.0474C139.865 84.249 143.572 87.3456 144.581 90.1186C146.598 92.2261 146.542 101.072 146.262 105.232C145.235 108.744 142.48 115.825 139.678 116.046C136.876 116.268 85.9286 116.601 60.8053 116.739Z" fill="#EAD1B3"/>
<path d="M97.3695 77.0856C95.5483 79.2116 90.8972 83.4635 86.8625 83.4635C88.5436 89.0096 93.7271 91.9675 96.1087 92.7531C97.2294 93.2153 100.003 93.7514 102.133 92.1985C103.366 90.3129 103.394 89.2869 103.253 89.0096L100.592 87.0685V85.9592L97.3695 77.0856Z" fill="#CC8181"/>
<path d="M105.775 86.7912C104.281 87.2995 101.236 87.9004 101.012 86.2365C100.79 85.0273 100.733 86.2603 100.732 87.0473L107.316 91.6439V91.0893C106.802 90.0726 105.775 87.7894 105.775 86.7912Z" fill="black"/>
<path d="M108.857 77.6402L113.06 82.493L109.698 84.85C110.025 84.8963 110.866 85.7234 111.939 85.4046C113.34 84.9887 115.021 82.3543 115.301 82.3543L118.103 78.7494C118.524 77.6864 119.224 75.4032 119.224 74.7285C119.224 73.8966 119.539 71.6782 119.224 70.8463C118.804 69.7371 117.557 67.7162 117.123 66.964C116.562 65.9935 115.301 64.191 112.78 62.9432C111.995 62.0558 108.81 61.6491 107.316 61.5566C104.935 61.5567 105.075 61.5566 100.732 63.2204C98.9105 64.191 95.6604 66.7699 95.5483 67.1027C94.3342 68.2119 91.9059 70.8463 91.7658 72.2328C90.5049 72.6487 89.6644 73.8966 89.3842 74.4512C88.9639 75.3293 88.0393 77.0301 87.7031 76.8083C87.2548 77.3629 84.4342 78.5183 83.08 79.0267C81.4923 79.7199 78.541 81.7165 79.4376 84.1568C81.3522 84.203 85.5456 84.129 87.0026 83.4635C88.5717 83.3526 90.3649 82.5854 91.0653 82.2157L96.9492 77.5015C96.9959 77.3167 97.2855 77.0578 98.07 77.5015C98.8545 77.9452 105.588 77.7788 108.857 77.6402Z" fill="black"/>
<path d="M108.901 77.7789L112.921 82.3544L109.419 84.8501C108.905 84.6653 107.485 84.7392 105.916 86.5139C103.675 87.5122 102.461 87.2996 102.134 87.0685C101.349 86.8467 100.873 86.5139 100.733 86.3753C99.0516 85.5988 97.8339 80.2284 97.4136 77.5016L108.901 77.7789Z" fill="#E2857E"/>
<path d="M109.558 84.9888C108.53 84.9888 106.364 85.3493 105.915 86.7912C106.027 88.3441 106.989 90.2113 107.456 90.9508C107.41 91.1819 107.372 91.7272 107.596 92.06C107.82 92.3927 108.157 92.3835 108.297 92.3373L108.577 94.417L109.558 103.291C109.978 105.786 110.847 110.889 110.959 111.332C111.099 111.887 112.219 115.353 113.2 115.631C113.985 116.185 114.928 116.231 115.301 116.185C115.582 116.047 116.282 115.547 116.842 114.66C117.403 113.773 117.543 111.887 117.543 111.055L116.842 107.034L115.301 100.934L111.939 91.3667C112.126 89.4718 112.416 85.6543 112.079 85.5434C111.183 85.8761 110.118 85.3123 109.698 84.9888H109.558Z" fill="#E2857E"/>
<path d="M72.9932 101.072H61.9259C62.1285 101.293 62.3007 101.731 62.4464 102.324L73.2765 102.314L72.9932 101.072Z" fill="#1E1E1E"/>
<path d="M62.6828 103.555H73.5598L73.2765 102.314L62.4464 102.324C62.5345 102.683 62.613 103.098 62.6828 103.555Z" fill="#DD2B47"/>
<path d="M73.5598 103.555H62.6828C62.7612 104.07 62.8286 104.638 62.8863 105.24L73.9243 105.153L73.5598 103.555Z" fill="#1E1E1E"/>
<path d="M63.0073 106.751H74.2888L73.9243 105.153L62.8863 105.24C62.9328 105.725 62.9729 106.232 63.0073 106.751Z" fill="#DD2B47"/>
<path d="M74.2888 106.751H63.0073C63.0423 107.276 63.0714 107.812 63.0954 108.35H74.6536L74.2888 106.751Z" fill="#1E1E1E"/>
<path d="M63.1435 109.632H74.9463L74.6536 108.35H63.0954C63.1146 108.779 63.1305 109.208 63.1435 109.632Z" fill="#DD2B47"/>
<path d="M74.9463 109.632H63.1435C63.1575 110.087 63.1681 110.535 63.1759 110.971L75.2324 110.886L74.9463 109.632Z" fill="#1E1E1E"/>
<path d="M63.1905 112.14H75.5185L75.2324 110.886L63.1759 110.971C63.1831 111.373 63.1879 111.765 63.1905 112.14Z" fill="#DD2B47"/>
<path d="M75.5185 112.14H63.1905C63.1931 112.499 63.1937 112.842 63.1927 113.166L75.7268 113.054L75.5185 112.14Z" fill="#1E1E1E"/>
<path d="M63.1867 113.967H75.9352L75.7268 113.054L63.1927 113.166C63.1919 113.449 63.1898 113.717 63.1867 113.967Z" fill="#DD2B47"/>
<path d="M63.1867 113.967C63.1898 113.717 63.1919 113.449 63.1927 113.166C63.1937 112.842 63.1931 112.499 63.1905 112.14C63.1879 111.765 63.1831 111.373 63.1759 110.971C63.1681 110.535 63.1575 110.087 63.1435 109.632C63.1305 109.208 63.1146 108.779 63.0954 108.35C63.0714 107.812 63.0423 107.276 63.0073 106.751C62.9729 106.232 62.9328 105.725 62.8863 105.24C62.8286 104.638 62.7612 104.07 62.6828 103.555C62.613 103.098 62.5345 102.683 62.4464 102.324C62.3007 101.731 62.1285 101.293 61.9259 101.072C61.8225 101.079 61.7049 101.097 61.5789 101.13L62.1579 113.967H63.1867Z" fill="#1E1E1E"/>
<path d="M60.5682 101.699L61.129 113.967H62.1579L61.5789 101.13C61.2634 101.213 60.8955 101.389 60.5682 101.699Z" fill="#DD2B47"/>
<path d="M59.6844 104.123C59.6844 106.452 60.4316 111.656 60.8051 113.967H61.129L60.5682 101.699C60.0813 102.161 59.6844 102.922 59.6844 104.123Z" fill="#1E1E1E"/>
<path d="M74.9546 111.194C75.1881 113.228 75.7952 117.239 76.3556 117.017C76.8039 117.572 77.4763 118.08 77.7565 118.265C78.6905 118.358 80.6424 118.487 80.9786 118.265C81.3989 117.988 83.08 117.849 86.5824 117.017C89.3842 116.352 97.0894 112.858 100.592 111.194C101.292 111.24 102.721 111.305 102.833 111.194C103.057 111.305 103.861 110.87 104.234 110.639C104.654 110.27 105.495 109.447 105.495 109.114C105.719 109.003 105.775 108.791 105.775 108.698L105.215 107.312C105.495 107.497 106.111 107.839 106.336 107.728C106.56 107.617 106.709 107.219 106.756 107.034C106.709 106.85 106.56 106.452 106.336 106.341C106.055 106.203 106.055 105.787 104.234 104.816C102.777 104.372 102.32 104.446 102.273 104.539C101.105 105.093 98.4903 106.508 97.3696 107.728C96.0247 108.615 83.547 110.686 77.4763 111.61H75.2348L74.9546 111.194Z" fill="#E2857E"/>
<path d="M82.0994 101.488V110.778C87.1427 109.992 97.2294 107.838 97.2294 107.727C97.2294 107.589 101.712 104.538 102.133 104.4C102.469 104.289 103.487 104.446 103.954 104.538C103.58 103.383 102.861 100.906 102.973 100.24C103.422 99.7964 103.907 100.055 104.094 100.24L105.635 105.648C105.915 105.786 106.532 106.174 106.756 106.618C106.98 107.062 106.756 107.542 106.616 107.727L109.978 113.273H111.379L110.258 108.698L108.577 95.9419C108.484 95.11 108.269 93.2521 108.157 92.4757C107.484 92.3647 107.316 91.9673 107.316 91.7824C106.009 90.8118 103.422 88.9539 103.534 89.2867C103.646 89.6194 102.927 91.0891 102.553 91.7824C102.32 92.1983 101.46 93.0857 99.8912 93.3076C98.3222 93.5294 96.4356 93.0303 95.6884 92.753C95.2681 92.7067 93.9233 92.2261 91.9059 90.6732C89.8886 89.7858 87.703 85.6817 86.8624 83.7406L82.0994 101.488Z" fill="#FFB35A"/>
<path d="M86.8624 83.7406L79.4375 84.4339C77.9432 84.7112 74.6183 85.9868 73.2734 88.8707C71.9285 91.7547 72.4328 99.2233 72.8531 102.597L74.1141 111.887L82.0994 110.778V101.488L86.8624 83.7406Z" fill="#FFB35A"/>
<path d="M95.2681 113.828L100.592 111.332C101.245 111.378 102.609 111.443 102.833 111.332C103.057 111.221 102.646 113.042 102.413 113.967L95.2681 113.828Z" fill="#FFB35A"/>
<path d="M82.0993 101.765L81.8192 110.777C82.2861 110.731 83.2201 110.611 83.2201 110.5C83.2201 110.389 82.4729 104.631 82.0993 101.765Z" fill="black"/>
<path d="M104.234 104.677C103.814 103.198 103.001 100.241 103.114 100.241C103.254 100.241 103.394 99.9632 103.814 100.241C104.15 100.462 104.981 103.753 105.355 105.371L104.234 104.677Z" fill="#0E4597"/>
<path d="M105.495 107.589C105.775 107.728 106.336 107.977 106.336 107.866C106.336 108.088 107.176 111.009 107.596 112.442C108.11 112.996 109.165 114.244 109.278 114.799C109.39 115.353 109.698 116.416 109.838 116.879H109.418L108.997 115.631L108.297 115.908L108.717 117.572L108.437 117.849L107.877 116.601L107.737 116.74L108.017 117.988L107.737 118.126L107.316 116.879L107.036 116.601C106.896 116.463 106.476 113.412 106.616 113.412C106.728 113.412 106.662 112.765 106.616 112.442L105.775 109.114L105.915 108.698L105.495 107.589Z" fill="#0E4597"/>
<path d="M108.717 117.433C108.577 116.878 108.325 115.797 108.437 115.908C108.549 115.686 108.764 115.723 108.857 115.769C109.044 116.139 109.39 116.878 109.277 116.878C109.137 116.878 109.838 117.156 109.978 117.017C110.09 116.906 109.838 116.231 109.698 115.908C109.744 115.815 109.894 115.631 110.118 115.631C110.342 115.631 110.678 115.723 110.818 115.769C110.912 116.047 111.099 116.657 111.099 116.878C111.323 117.1 111.472 118.357 111.519 118.958C111.145 119.004 110.37 119.069 110.258 118.958C110.146 118.847 110.025 118.542 109.978 118.404L109.698 118.542C109.464 118.773 108.717 119.291 107.596 119.513C107.148 119.18 107.41 118.542 107.596 118.265L108.297 117.849L108.717 117.433Z" fill="#669F4B"/>
<path d="M102.973 121.315V120.483L101.992 120.206V119.652C102.132 119.605 102.413 119.457 102.413 119.236C102.413 118.958 102.132 118.404 101.992 118.542C101.852 118.681 101.432 118.542 101.432 118.958C101.041 118.862 100.906 118.898 100.878 118.94C100.876 118.946 100.874 118.953 100.872 118.958C100.872 118.952 100.873 118.946 100.878 118.94C100.923 118.797 100.979 118.542 100.872 118.542C100.731 118.542 99.7508 118.542 99.6107 118.958C99.4706 119.374 99.4706 120.068 99.6107 120.068C99.7508 120.068 99.0503 120.622 99.6107 121.177C100.059 121.62 100.545 121.084 100.732 120.761L101.152 120.9L101.852 121.177L102.973 121.315Z" fill="#669F4B"/>
<path d="M75.0947 113.828H52.5397L38.9507 133.517L157.049 133.101L142.48 113.967H122.166H117.263C117.039 114.854 115.862 115.908 115.301 116.324C114.694 116.324 113.368 116.185 112.92 115.631C112.36 115.631 111.939 114.521 111.799 113.967H108.997L109.277 114.244C109.324 114.568 109.474 115.298 109.698 115.631C109.922 115.409 110.632 115.631 110.959 115.769C111.052 116.231 111.267 117.128 111.379 117.017C111.519 116.878 114.041 117.433 116.562 117.849C118.944 118.126 120.065 119.374 120.345 119.652C120.569 119.873 120.532 120.483 120.485 120.761C120.578 120.761 120.457 120.955 119.224 121.731C116.422 124.061 112.92 124.92 111.519 125.059C108.297 125.244 101.152 125.53 98.3502 125.198C94.8479 124.782 93.447 124.366 92.8866 124.088C89.5243 122.979 87.0027 121.685 86.1621 121.177C85.8352 120.715 85.6858 119.541 87.7031 118.542C89.7205 117.544 94.3342 116.925 96.3889 116.74H106.896L106.476 113.967C103.253 114.013 96.473 114.05 95.1281 113.828C92.6624 115.492 84.5744 117.664 80.8386 118.542L77.7565 118.404C77.2895 118.126 76.2715 117.461 75.9353 117.017C75.5991 116.906 75.2348 114.845 75.0947 113.828Z" fill="#DC8282"/>
<path d="M157.049 136.29V133.101L38.9507 133.517V136.29H157.049Z" fill="#E85D5D"/>
<path fill-rule="evenodd" clip-rule="evenodd" d="M96.1089 116.878H107.176L107.597 118.126C107.41 118.219 107.064 118.515 107.176 118.958C107.316 119.513 107.497 119.553 107.597 119.651C107.737 119.79 109.698 118.82 109.838 118.542C109.931 118.727 110.146 119.097 110.258 119.097C110.398 119.097 111.519 119.236 111.659 119.097C111.771 118.986 111.519 117.757 111.379 117.156C111.753 117.156 112.5 117.183 112.5 117.294C112.724 117.294 114.741 117.664 115.722 117.849C116.749 118.034 118.804 118.459 118.804 118.681C119.14 118.792 119.971 119.467 120.345 119.79C120.392 120.16 120.457 120.899 120.345 120.899C120.121 121.232 118.104 122.424 117.123 122.979C115.722 123.626 112.696 124.92 111.799 124.92C110.903 124.92 107.036 125.105 105.215 125.197H99.7513C98.257 125.059 95.2683 124.754 95.2683 124.643C95.2683 124.504 91.6259 123.672 90.9254 123.256C90.225 122.84 86.5531 121.534 86.3024 121.038C86.022 120.483 86.4425 119.236 87.0028 119.097C87.3297 118.866 88.2356 118.348 89.2443 118.126C90.5051 117.849 95.6887 116.74 96.1089 116.878ZM103.114 121.454V120.345L102.133 120.067V119.79L102.553 119.374C102.693 119.235 102.273 118.542 101.993 118.404C101.769 118.293 101.432 118.635 101.292 118.82L101.012 118.681C101.059 118.635 101.096 118.514 100.872 118.404C100.872 118.182 100.218 118.311 99.8914 118.404C99.8447 118.45 99.6672 118.653 99.331 119.097C98.9948 119.541 99.2843 120.021 99.4711 120.206C99.3777 120.298 99.2189 120.567 99.331 120.899C99.2189 121.121 99.6579 121.361 99.8914 121.454C100.078 121.454 100.536 121.343 100.872 120.899C100.872 121.232 102.366 121.408 103.114 121.454Z" fill="white"/>
</g>
</svg>
