<svg width="196" height="198" viewBox="0 0 196 198" fill="none" xmlns="http://www.w3.org/2000/svg">
<mask id="mask0_695_7070" style="mask-type:alpha" maskUnits="userSpaceOnUse" x="0" y="0" width="196" height="198">
<ellipse cx="98" cy="98.77" rx="97.5" ry="98.77" fill="#FAE5E5"/>
</mask>
<g mask="url(#mask0_695_7070)">
<path d="M51.3102 20.8676C29.8876 27.9624 26.7063 38.6624 27.7934 43.1256C41.3542 49.7335 7.02318 35.4745 5.99326 84.1639C5.16931 123.115 24.532 119.174 34.3163 112.334C25.6191 129.839 18.5927 168.292 60.0646 182.064C101.536 195.837 136.508 179.92 148.81 170.24C160.654 163.632 185.407 141.652 189.664 106.596C193.921 71.5394 171.984 58.8338 160.483 56.863C164.03 44.8646 161.066 18.1897 120.83 7.47802C70.5355 -5.91157 78.0883 11.9992 51.3102 20.8676Z" fill="#3DA8F5"/>
<path d="M36.5471 57.7322C7.43445 66.079 4.27598 101.321 6.33584 116.333C20.7548 149.164 96.9696 194.005 124.263 191.802C162.199 138.649 218.33 29.0055 139.368 28.1708C40.6668 27.1274 72.938 47.2988 36.5471 57.7322Z" fill="#EBBB90" fill-opacity="0.9" stroke="#EBBB90"/>
<path d="M97.4849 22.0841C46.5377 27.5095 42.9558 46.0231 47.5333 54.6017C38.8933 50.3124 19.8625 49.2806 12.859 79.4681C5.85548 109.656 23.9021 137.837 33.8009 148.155C46.0456 169.486 80.3194 206.652 119.457 184.672C168.378 157.197 171.468 133.548 184.686 130.07C195.26 127.288 180.28 78.5986 171.468 54.6017C168.035 41.5019 148.432 16.6587 97.4849 22.0841Z" fill="#D8F8F2" fill-opacity="0.9" stroke="#D8F8F2"/>
</g>
<path d="M156.02 86.0761C156.02 112.87 131.35 134.592 100.919 134.592C70.487 134.592 45.8174 112.87 45.8174 86.0761C45.8174 59.2817 70.487 37.5605 100.919 37.5605C131.35 37.5605 156.02 59.2817 156.02 86.0761Z" fill="#1D7286"/>
<path d="M73.4616 68.1921C75.1797 73.7875 80.2087 74.2201 80.0281 80.0939H81.7309L80.7621 71.1883L81.1292 71.5213L81.4555 71.1883L81.7817 71.5213L82.108 71.1883L82.4343 71.5213L82.7606 71.1883L83.0869 71.5213L83.4132 71.1883L83.7394 71.5213L84.0657 71.1883L84.392 71.5213L84.7183 71.1883L85.0446 71.5213L85.3708 71.1883L85.6971 71.5213L86.0234 71.1883L85.1364 80.0939H86.8392C86.4854 74.646 91.192 74.493 93.6096 68.1921C94.2991 59.2819 91.8965 54.043 84.2288 54.1262C76.5612 54.2095 71.7353 59.2345 73.4616 68.1921Z" fill="#FFC122"/>
<path d="M81.7309 80.0939H85.1364L86.0234 71.1883L85.6971 71.5213L85.3708 71.1883L85.0446 71.5213L84.7183 71.1883L84.392 71.5213L84.0657 71.1883L83.7394 71.5213L83.4132 71.1883L83.0869 71.5213L82.7606 71.1883L82.4343 71.5213L82.108 71.1883L81.7817 71.5213L81.4555 71.1883L81.1292 71.5213L80.7621 71.1883L81.7309 80.0939Z" fill="white"/>
<path d="M79.8003 82.0072H87.1499C87.3864 82.0072 87.3864 81.5911 87.3864 81.5911C87.3864 81.5911 87.3864 81.1749 87.1417 81.1749H79.8003C79.474 81.1749 79.474 81.383 79.474 81.5911C79.474 81.7992 79.474 82.0072 79.8003 82.0072Z" fill="#8A8A8A"/>
<path d="M80.9423 83.5054H85.9181C86.1628 83.5054 86.1628 83.0892 86.1628 83.0892C86.1628 83.0892 86.1628 82.6731 85.9181 82.6731H80.9423C80.6976 82.6731 80.6976 83.0892 80.6976 83.0892C80.6976 83.0892 80.6976 83.5054 80.9423 83.5054Z" fill="#8A8A8A"/>
<path d="M81.9211 85.5861H84.9393C84.9393 85.5861 85.0616 86.252 84.4498 86.252H82.4106C81.7988 86.252 81.9211 85.5861 81.9211 85.5861Z" fill="#8A8A8A"/>
<path d="M81.0239 84.8371H85.8365C85.8365 84.8371 85.8365 84.2544 85.3471 84.2544H81.5133C80.9423 84.2544 81.0239 84.8371 81.0239 84.8371Z" fill="#8A8A8A"/>
<path d="M95.3201 71.134C95.5461 70.8401 95.9646 70.7875 96.2547 71.0165L98.1293 72.4963C98.4195 72.7253 98.4714 73.1492 98.2453 73.4431C98.0192 73.737 97.6008 73.7896 97.3106 73.5606L95.436 72.0808C95.1459 71.8518 95.094 71.4279 95.3201 71.134Z" fill="white"/>
<path d="M72.1538 71.134C71.9278 70.8401 71.5093 70.7875 71.2192 71.0165L69.3446 72.4963C69.0544 72.7253 69.0025 73.1492 69.2286 73.4431C69.4547 73.737 69.8731 73.7896 70.1632 73.5606L72.0379 72.0808C72.328 71.8518 72.3799 71.4279 72.1538 71.134Z" fill="white"/>
<path d="M70.1625 66.058C70.1362 65.6863 69.8175 65.4066 69.4507 65.4332L67.0802 65.6052C66.7133 65.6318 66.4372 65.9547 66.4635 66.3263C66.4897 66.698 66.8084 66.9777 67.1753 66.9511L69.5458 66.7791C69.9127 66.7525 70.1888 66.4296 70.1625 66.058Z" fill="white"/>
<path d="M96.0358 65.7329C96.0621 65.3612 96.3808 65.0815 96.7476 65.1081L99.1181 65.2801C99.485 65.3067 99.7611 65.6296 99.7348 66.0012C99.7086 66.3729 99.3899 66.6526 99.023 66.626L96.6525 66.454C96.2856 66.4274 96.0095 66.1045 96.0358 65.7329Z" fill="white"/>
<path d="M96.1247 60.4642C96.0231 60.1061 96.2272 59.7323 96.5807 59.6293L98.8646 58.9637C99.218 58.8607 99.587 59.0675 99.6887 59.4256C99.7904 59.7836 99.5863 60.1574 99.2328 60.2604L96.9489 60.926C96.5954 61.029 96.2264 60.8222 96.1247 60.4642Z" fill="white"/>
<path d="M94.3824 55.5325C94.1568 55.2382 94.2094 54.8144 94.4999 54.5858L96.3769 53.1092C96.6674 52.8806 97.0858 52.9339 97.3114 53.2282C97.537 53.5225 97.4844 53.9463 97.1939 54.1749L95.3168 55.6515C95.0263 55.8801 94.608 55.8268 94.3824 55.5325Z" fill="white"/>
<path d="M72.1566 54.6586C72.3822 54.3644 72.3295 53.9405 72.039 53.712L70.162 52.2353C69.8715 52.0068 69.4531 52.0601 69.2275 52.3544C69.0019 52.6487 69.0546 53.0725 69.3451 53.3011L71.2221 54.7777C71.5126 55.0062 71.931 54.9529 72.1566 54.6586Z" fill="white"/>
<path d="M76.7457 51.6687C77.0669 51.4871 77.1818 51.0761 77.0025 50.7508L75.8438 48.6488C75.6645 48.3235 75.2588 48.207 74.9377 48.3887C74.6165 48.5703 74.5016 48.9813 74.6809 49.3066L75.8396 51.4086C76.0189 51.7339 76.4246 51.8504 76.7457 51.6687Z" fill="white"/>
<path d="M91.3724 51.6049C91.0513 51.4232 90.9363 51.0122 91.1157 50.6869L92.2743 48.5849C92.4537 48.2596 92.8594 48.1432 93.1805 48.3248C93.5017 48.5065 93.6166 48.9175 93.4373 49.2428L92.2786 51.3448C92.0993 51.6701 91.6936 51.7865 91.3724 51.6049Z" fill="white"/>
<path d="M82.4382 50.0719C82.0753 50.1324 81.7326 49.8835 81.6728 49.5159L81.2865 47.1404C81.2267 46.7727 81.4724 46.4256 81.8353 46.365C82.1983 46.3045 82.5409 46.5534 82.6007 46.921L82.9871 49.2965C83.0469 49.6642 82.8011 50.0113 82.4382 50.0719Z" fill="white"/>
<path d="M85.9551 50.0716C86.318 50.1322 86.6607 49.8832 86.7205 49.5156L87.1069 47.1401C87.1667 46.7725 86.9209 46.4253 86.558 46.3648C86.1951 46.3042 85.8524 46.5531 85.7926 46.9208L85.4063 49.2962C85.3465 49.6639 85.5922 50.011 85.9551 50.0716Z" fill="white"/>
<path d="M70.164 60.4642C70.2657 60.1061 70.0616 59.7323 69.7081 59.6293L67.4242 58.9637C67.0707 58.8607 66.7017 59.0675 66.6 59.4256C66.4983 59.7836 66.7025 60.1574 67.0559 60.2604L69.3398 60.926C69.6933 61.029 70.0623 60.8222 70.164 60.4642Z" fill="white"/>
<path d="M119.511 101.35H118.604C117.53 100.672 115.219 99.3985 114.574 99.7237C113.768 100.13 112.962 99.6221 112.962 99.3172C112.962 99.1384 113.17 97.702 113.768 96.6464C113.499 96.012 112.599 94.7229 111.148 94.6416C111.148 94.3397 111.315 93.0993 111.638 91.612L108.692 92.4602C107.565 96.0469 106.881 99.7193 107.924 101.35C108.98 103.001 111.804 103.819 114.574 103.858C115.659 103.873 116.736 103.769 117.695 103.549C117.713 103.545 117.731 103.54 117.75 103.536C117.919 103.496 118.084 103.453 118.246 103.405C119.265 103.106 120.108 102.662 120.62 102.075C120.188 101.81 119.815 101.564 119.511 101.35Z" fill="#E2857E"/>
<path d="M119.511 97.7925C121.224 98.7751 124.851 100.679 125.657 100.435C125.831 100.383 126.113 100.333 126.463 100.29L128.713 99.4211L128.982 99.3172C129.184 98.9106 129.426 97.7722 128.781 96.4711C128.76 96.4282 128.737 96.3873 128.713 96.3484C127.952 95.1078 125.914 95.8828 125.187 96.307C125.146 96.3309 125.109 96.3538 125.077 96.3751C125.02 96.4127 124.978 96.4455 124.952 96.4711C124.949 96.4747 124.944 96.4784 124.939 96.4822C124.913 96.5024 124.866 96.5256 124.802 96.5514C124.784 96.5583 124.766 96.5653 124.746 96.5726C124.713 96.5849 124.676 96.5977 124.636 96.611C124.578 96.6302 124.514 96.6504 124.443 96.6715C124.425 96.6768 124.407 96.6822 124.388 96.6877C124.328 96.7054 124.263 96.7236 124.196 96.7423C124.16 96.7522 124.123 96.7622 124.085 96.7723C124.008 96.793 123.928 96.8142 123.844 96.8357C123.815 96.8433 123.785 96.8509 123.755 96.8585C123.719 96.8677 123.682 96.877 123.645 96.8863C123.582 96.9021 123.517 96.9181 123.452 96.9341C123.443 96.9364 123.433 96.9386 123.424 96.9409C123.415 96.9431 123.406 96.9454 123.397 96.9476C123.333 96.9631 123.269 96.9786 123.204 96.9942C123.167 97.003 123.131 97.0117 123.094 97.0205C123.04 97.0333 122.985 97.0461 122.931 97.059C122.929 97.0593 122.928 97.0596 122.927 97.0598C122.873 97.0725 122.818 97.0852 122.763 97.098C122.727 97.1064 122.69 97.1149 122.653 97.1234C122.589 97.1381 122.525 97.1527 122.46 97.1674C122.451 97.1695 122.442 97.1716 122.433 97.1737C122.423 97.1758 122.414 97.1779 122.405 97.1799C122.341 97.1944 122.277 97.2089 122.212 97.2233C122.176 97.2315 122.139 97.2397 122.102 97.2479C122.079 97.2531 122.056 97.2582 122.033 97.2633C122.001 97.2704 121.969 97.2774 121.937 97.2844C121.882 97.2966 121.827 97.3088 121.771 97.3209C121.735 97.329 121.698 97.337 121.661 97.345C120.873 97.5167 120.094 97.6772 119.511 97.7925Z" fill="#E2857E"/>
<path d="M118.604 101.35H119.511C119.815 101.564 120.188 101.81 120.62 102.075C120.94 102.272 121.287 102.517 121.661 102.729C121.698 102.75 121.734 102.771 121.771 102.791C121.88 102.852 121.99 102.913 122.102 102.975C122.139 102.995 122.175 103.015 122.212 103.035C122.276 103.069 122.34 103.104 122.405 103.138C122.423 103.148 122.442 103.158 122.46 103.167C122.524 103.201 122.588 103.235 122.653 103.269C122.689 103.288 122.726 103.307 122.763 103.326C122.872 103.382 122.982 103.438 123.094 103.493C123.128 103.511 123.169 103.528 123.204 103.545C123.27 103.578 123.33 103.572 123.397 103.605C123.406 103.609 123.415 103.614 123.424 103.618C123.433 103.623 123.443 103.627 123.452 103.632C123.516 103.662 123.58 103.693 123.645 103.724C123.681 103.741 123.718 103.759 123.755 103.776C123.864 103.827 123.919 103.851 124.03 103.901C124.043 103.907 124.063 103.917 124.085 103.927C124.125 103.946 124.172 103.969 124.196 103.979C124.233 103.996 124.269 104.012 124.306 104.029C124.333 104.041 124.388 104.065 124.388 104.065C124.388 104.065 124.408 104.073 124.443 104.088C124.486 104.104 124.551 104.131 124.636 104.164C124.67 104.178 124.707 104.192 124.746 104.208C124.841 104.245 124.953 104.289 125.077 104.337C125.113 104.351 125.149 104.365 125.187 104.38C126.136 104.747 127.716 105.335 128.713 105.59C129.839 105.877 130.985 106.073 132.106 106.127C135.443 106.29 136.854 101.522 137.352 96.4711L131.3 92.812C130.998 95.9629 131.804 99.0122 132.106 100.435C131.679 100.166 130.18 100.097 128.713 100.136C127.887 100.158 127.071 100.215 126.463 100.29C126.113 100.333 125.831 100.383 125.657 100.435C124.851 100.679 121.224 98.7751 119.511 97.7925C119.259 97.5378 118.812 97.1506 118.246 96.7627C118.089 96.6554 117.923 96.5481 117.75 96.4435C117.731 96.4324 117.713 96.4214 117.695 96.4105C117.09 96.0512 116.398 95.7282 115.682 95.5564C114.807 95.3461 114.19 95.9014 113.768 96.6464C113.17 97.702 112.962 99.1384 112.962 99.3172C112.962 99.6221 113.768 100.13 114.574 99.7237C115.219 99.3985 117.53 100.672 118.604 101.35Z" fill="#E2857E"/>
<path d="M117.597 64.8601C116.952 66.2424 118.089 67.8755 118.738 68.5192C119.902 68.4515 122.212 68.4989 122.131 69.2307C122.03 70.1455 122.03 72.8899 123.34 73.6014C124.65 74.3129 126.867 74.4145 127.068 74.7195C127.27 75.0244 126.967 77.0569 127.874 77.0569C134.927 75.0237 130.695 64.8601 129.386 64.3519C129.386 62.9289 124.851 62.5223 123.542 63.4371C122.232 64.3519 121.123 64.3519 120.317 64.3519C119.914 65.165 119.276 64.5551 119.007 64.1486L118.604 64.8601C118.47 65.0634 118.08 65.348 117.597 64.8601Z" fill="#303030"/>
<path d="M118.738 68.5192C118.142 69.4947 117.798 70.6436 117.798 71.8735C117.798 75.2698 118.282 78.5174 121.426 78.7695C121.555 78.7799 121.69 78.7852 121.829 78.7852C122.571 78.7852 125.6 78.1486 126.262 77.9126C126.843 77.7056 127.385 77.4156 127.874 77.0569C126.967 77.0569 127.27 75.0244 127.068 74.7195C126.867 74.4145 124.65 74.3129 123.34 73.6014C122.03 72.8899 122.03 70.1455 122.131 69.2307C122.212 68.4989 119.902 68.4515 118.738 68.5192Z" fill="#E2857E"/>
<path d="M122.534 128.59L126.06 163.759C126.28 164.358 126.601 165.478 126.683 166.523H131.023C130.966 159.72 134.759 117.755 133.819 116.901L128.713 117.13L125.187 117.271L125.077 117.275L124.746 117.289L124.636 117.293L124.443 117.301L124.388 117.303L124.196 117.311L123.755 117.328L123.645 117.333L123.452 117.34L123.424 117.341L123.397 117.343L123.197 117.391L123.094 117.396L122.763 117.412L122.653 117.418L122.46 117.427L122.405 117.43L122.212 117.439L122.102 117.445L121.771 117.461L121.661 117.467L118.246 117.598L113.365 117.816L112.357 128.082L110.342 146.683L109.116 164.287L112.861 165.182C113.869 164.471 117.496 150.952 117.496 147.394C118.544 146.093 121.291 134.316 122.534 128.59Z" fill="#040404"/>
<path d="M112.156 168.028C111.954 167.621 111.854 165.894 112.861 165.182L109.116 164.287L109.032 165.487C109.167 166.334 109.254 167.906 108.529 167.418C103.692 165.711 102.953 167.588 103.188 168.74C105.539 169.485 110.423 170.976 111.148 170.976C112.055 170.976 112.357 168.435 112.156 168.028Z" fill="#E2857E"/>
<path d="M133.114 170.976C134.323 170.264 131.804 168.841 131.098 167.418C131.051 167.322 131.027 167.014 131.023 166.523H126.683C126.727 167.075 126.704 167.606 126.564 168.028C123.441 172.195 131.904 171.687 133.114 170.976Z" fill="#E2857E"/>
<path d="M122.818 84.5613L122.928 84.3946L123.039 84.5613L122.928 84.728L122.818 84.5613Z" fill="black"/>
<path d="M122.818 84.8946H123.039L122.928 85.0613L123.039 85.228H122.818L122.928 85.0613L122.818 84.8946Z" fill="black"/>
<path d="M122.818 86.5614L122.928 86.3948L123.039 86.5614L122.928 86.7281L122.818 86.5614Z" fill="black"/>
<path d="M122.818 86.8948H123.039L122.928 87.0615L123.039 87.2281H122.818L122.928 87.0615L122.818 86.8948Z" fill="black"/>
<path d="M122.818 88.5616L122.928 88.3949L123.039 88.5616L122.928 88.7283L122.818 88.5616Z" fill="black"/>
<path d="M122.818 88.8949H123.039L122.928 89.0616L123.039 89.2283H122.818L122.928 89.0616L122.818 88.8949Z" fill="black"/>
<path d="M122.818 90.5617L122.928 90.395L123.039 90.5617L122.928 90.7284L122.818 90.5617Z" fill="black"/>
<path d="M122.818 90.8951H123.039L122.928 91.0618L123.039 91.2284H122.818L122.928 91.0618L122.818 90.8951Z" fill="black"/>
<path d="M122.818 92.5619L122.928 92.3952L123.039 92.5619L122.928 92.7286L122.818 92.5619Z" fill="black"/>
<path d="M122.818 92.8952H123.039L122.928 93.0619L123.039 93.2286H122.818L122.928 93.0619L122.818 92.8952Z" fill="black"/>
<path d="M122.818 94.562L122.928 94.3953L123.039 94.562L122.928 94.7287L122.818 94.562Z" fill="black"/>
<path d="M122.818 94.8954H123.039L122.928 95.0621L123.039 95.2287H122.818L122.928 95.0621L122.818 94.8954Z" fill="black"/>
<path d="M122.818 96.5622L122.928 96.3955L123.039 96.5622L122.928 96.7288L122.818 96.5622Z" fill="black"/>
<path d="M122.818 104.656L122.928 104.49L123.039 104.656L122.928 104.823L122.818 104.656Z" fill="#1E1E1E"/>
<path d="M122.818 104.975H123.039L122.928 105.142L123.039 105.309H122.818L122.928 105.142L122.818 104.975Z" fill="#1E1E1E"/>
<path d="M122.818 106.618L122.928 106.452L123.039 106.618L122.928 106.785L122.818 106.618Z" fill="#1E1E1E"/>
<path d="M122.818 106.952H123.039L122.928 107.118L123.039 107.285H122.818L122.928 107.118L122.818 106.952Z" fill="#1E1E1E"/>
<path d="M122.818 108.619L122.928 108.452L123.039 108.619L122.928 108.785L122.818 108.619Z" fill="#1E1E1E"/>
<path d="M122.818 108.952H123.039L122.928 109.119L123.039 109.285H122.818L122.928 109.119L122.818 108.952Z" fill="#1E1E1E"/>
<path d="M122.818 110.619L122.928 110.452L123.039 110.619L122.928 110.785L122.818 110.619Z" fill="#1E1E1E"/>
<path d="M122.818 110.952H123.039L122.928 111.119L123.039 111.285H122.818L122.928 111.119L122.818 110.952Z" fill="#1E1E1E"/>
<path d="M122.818 112.619L122.928 112.452L123.039 112.619L122.928 112.786L122.818 112.619Z" fill="#1E1E1E"/>
<path d="M122.818 112.952H123.039L122.928 113.119L123.039 113.286H122.818L122.928 113.119L122.818 112.952Z" fill="#1E1E1E"/>
<path d="M122.818 114.619L122.928 114.452L123.039 114.619L122.928 114.786L122.818 114.619Z" fill="#1E1E1E"/>
<path d="M122.818 114.952H123.039L122.928 115.119L123.039 115.286H122.818L122.928 115.119L122.818 114.952Z" fill="#1E1E1E"/>
<path d="M122.818 116.619L122.928 116.452L123.039 116.619L122.928 116.786L122.818 116.619Z" fill="#1E1E1E"/>
<path d="M122.928 115.452L122.818 115.619L122.928 115.786L123.039 115.619L122.928 115.452Z" fill="#1E1E1E"/>
<path d="M123.039 115.952H122.818L122.928 116.119L123.039 115.952Z" fill="#1E1E1E"/>
<path d="M122.928 116.119L122.818 116.286H123.039L122.928 116.119Z" fill="#1E1E1E"/>
<path d="M123.039 116.953H122.818L122.928 117.119L123.039 116.953Z" fill="#1E1E1E"/>
<path d="M122.928 117.119L122.818 117.286H123.039L122.928 117.119Z" fill="#1E1E1E"/>
<path d="M122.928 114.119L122.818 114.286H123.039L122.928 114.119Z" fill="#1E1E1E"/>
<path d="M123.039 113.952H122.818L122.928 114.119L123.039 113.952Z" fill="#1E1E1E"/>
<path fill-rule="evenodd" clip-rule="evenodd" d="M123.094 117.396V103.493C122.982 103.438 122.872 103.382 122.763 103.326V117.412L123.094 117.396ZM122.818 103.656L122.928 103.489L123.039 103.656L122.928 103.823L122.818 103.656ZM122.818 103.989H123.039L122.928 104.156L123.039 104.323H122.818L122.928 104.156L122.818 103.989ZM122.818 104.656L122.928 104.49L123.039 104.656L122.928 104.823L122.818 104.656ZM122.818 104.975H123.039L122.928 105.142L123.039 105.309H122.818L122.928 105.142L122.818 104.975ZM122.818 105.642L122.928 105.475L123.039 105.642L122.928 105.809L122.818 105.642ZM122.818 105.965H123.039L122.928 106.132L123.039 106.285H122.818L122.928 106.132L122.818 105.965ZM122.818 106.618L122.928 106.452L123.039 106.618L122.928 106.785L122.818 106.618ZM122.818 106.952H123.039L122.928 107.118L123.039 107.285H122.818L122.928 107.118L122.818 106.952ZM122.818 107.619L122.928 107.452L123.039 107.619L122.928 107.785L122.818 107.619ZM122.818 107.952H123.039L122.928 108.119L123.039 108.285H122.818L122.928 108.119L122.818 107.952ZM122.818 108.619L122.928 108.452L123.039 108.619L122.928 108.785L122.818 108.619ZM122.818 108.952H123.039L122.928 109.119L123.039 109.285H122.818L122.928 109.119L122.818 108.952ZM122.818 109.619L122.928 109.452L123.039 109.619L122.928 109.785L122.818 109.619ZM122.818 109.952H123.039L122.928 110.119L123.039 110.285H122.818L122.928 110.119L122.818 109.952ZM122.818 110.619L122.928 110.452L123.039 110.619L122.928 110.785L122.818 110.619ZM122.818 110.952H123.039L122.928 111.119L123.039 111.285H122.818L122.928 111.119L122.818 110.952ZM122.818 111.619L122.928 111.452L123.039 111.619L122.928 111.785L122.818 111.619ZM122.818 111.952H123.039L122.928 112.119L123.039 112.286H122.818L122.928 112.119L122.818 111.952ZM122.818 112.619L122.928 112.452L123.039 112.619L122.928 112.786L122.818 112.619ZM122.818 112.952H123.039L122.928 113.119L123.039 113.286H122.818L122.928 113.119L122.818 112.952ZM122.818 113.619L122.928 113.452L123.039 113.619L122.928 113.786L122.818 113.619ZM122.818 113.952H123.039L122.928 114.119L123.039 114.286H122.818L122.928 114.119L122.818 113.952ZM122.818 114.619L122.928 114.452L123.039 114.619L122.928 114.786L122.818 114.619ZM122.818 114.952H123.039L122.928 115.119L123.039 115.286H122.818L122.928 115.119L122.818 114.952ZM122.818 115.619L122.928 115.452L123.039 115.619L122.928 115.786L122.818 115.619ZM122.818 115.952H123.039L122.928 116.119L123.039 116.286H122.818L122.928 116.119L122.818 115.952ZM122.818 116.619L122.928 116.452L123.039 116.619L122.928 116.786L122.818 116.619ZM122.818 116.953H123.039L122.928 117.119L123.039 117.286H122.818L122.928 117.119L122.818 116.953Z" fill="#E85D5D"/>
<path d="M122.653 103.269V117.418L122.763 117.412V103.326C122.726 103.307 122.689 103.288 122.653 103.269Z" fill="#1E1E1E"/>
<path d="M123.197 117.391L123.204 103.545C123.169 103.528 123.128 103.511 123.094 103.493V117.396L123.197 117.391Z" fill="#1E1E1E"/>
<path d="M122.928 113.452L122.818 113.619L122.928 113.786L123.039 113.619L122.928 113.452Z" fill="#1E1E1E"/>
<path d="M122.928 112.119L122.818 112.286H123.039L122.928 112.119Z" fill="#1E1E1E"/>
<path d="M123.039 111.952H122.818L122.928 112.119L123.039 111.952Z" fill="#1E1E1E"/>
<path d="M122.928 111.452L122.818 111.619L122.928 111.785L123.039 111.619L122.928 111.452Z" fill="#1E1E1E"/>
<path d="M122.928 110.119L122.818 110.285H123.039L122.928 110.119Z" fill="#1E1E1E"/>
<path d="M123.039 109.952H122.818L122.928 110.119L123.039 109.952Z" fill="#1E1E1E"/>
<path d="M122.928 109.452L122.818 109.619L122.928 109.785L123.039 109.619L122.928 109.452Z" fill="#1E1E1E"/>
<path d="M122.928 108.119L122.818 108.285H123.039L122.928 108.119Z" fill="#1E1E1E"/>
<path d="M123.039 107.952H122.818L122.928 108.119L123.039 107.952Z" fill="#1E1E1E"/>
<path d="M122.928 107.452L122.818 107.619L122.928 107.785L123.039 107.619L122.928 107.452Z" fill="#1E1E1E"/>
<path d="M122.928 106.132L122.818 106.285H123.039L122.928 106.132Z" fill="#1E1E1E"/>
<path d="M123.039 105.965H122.818L122.928 106.132L123.039 105.965Z" fill="#1E1E1E"/>
<path d="M122.928 105.475L122.818 105.642L122.928 105.809L123.039 105.642L122.928 105.475Z" fill="#1E1E1E"/>
<path d="M122.928 104.156L122.818 104.323H123.039L122.928 104.156Z" fill="#1E1E1E"/>
<path d="M123.039 103.989H122.818L122.928 104.156L123.039 103.989Z" fill="#1E1E1E"/>
<path d="M122.928 103.489L122.818 103.656L122.928 103.823L123.039 103.656L122.928 103.489Z" fill="#1E1E1E"/>
<path d="M122.653 82.5148V97.1234C122.69 97.1149 122.727 97.1064 122.763 97.098V82.8112L122.653 82.5148Z" fill="black"/>
<path d="M122.928 95.3954L122.818 95.5621L122.928 95.7288L123.039 95.5621L122.928 95.3954Z" fill="black"/>
<path fill-rule="evenodd" clip-rule="evenodd" d="M123.094 83.7001L122.763 82.8112V97.098C122.818 97.0852 122.873 97.0725 122.927 97.0598L122.818 96.8955H123.039L122.931 97.059C122.985 97.0461 123.04 97.0333 123.094 97.0205V83.7001ZM122.818 83.5612L122.928 83.3945L123.039 83.5612L122.928 83.7279L122.818 83.5612ZM122.818 83.8946H123.039L122.928 84.0613L123.039 84.2279H122.818L122.928 84.0613L122.818 83.8946ZM122.818 84.5613L122.928 84.3946L123.039 84.5613L122.928 84.728L122.818 84.5613ZM122.818 84.8946H123.039L122.928 85.0613L123.039 85.228H122.818L122.928 85.0613L122.818 84.8946ZM122.818 85.5614L122.928 85.3947L123.039 85.5614L122.928 85.728L122.818 85.5614ZM122.818 85.8947H123.039L122.928 86.0614L123.039 86.2281H122.818L122.928 86.0614L122.818 85.8947ZM122.818 86.5614L122.928 86.3948L123.039 86.5614L122.928 86.7281L122.818 86.5614ZM122.818 86.8948H123.039L122.928 87.0615L123.039 87.2281H122.818L122.928 87.0615L122.818 86.8948ZM122.818 87.5615L122.928 87.3948L123.039 87.5615L122.928 87.7282L122.818 87.5615ZM122.818 87.8949H123.039L122.928 88.0615L123.039 88.2282H122.818L122.928 88.0615L122.818 87.8949ZM122.818 88.5616L122.928 88.3949L123.039 88.5616L122.928 88.7283L122.818 88.5616ZM122.818 88.8949H123.039L122.928 89.0616L123.039 89.2283H122.818L122.928 89.0616L122.818 88.8949ZM122.818 89.5617L122.928 89.395L123.039 89.5617L122.928 89.7283L122.818 89.5617ZM122.818 89.895H123.039L122.928 90.0617L123.039 90.2284H122.818L122.928 90.0617L122.818 89.895ZM122.818 90.5617L122.928 90.395L123.039 90.5617L122.928 90.7284L122.818 90.5617ZM122.818 90.8951H123.039L122.928 91.0618L123.039 91.2284H122.818L122.928 91.0618L122.818 90.8951ZM122.818 91.5618L122.928 91.3951L123.039 91.5618L122.928 91.7285L122.818 91.5618ZM122.818 91.8952H123.039L122.928 92.0618L123.039 92.2285H122.818L122.928 92.0618L122.818 91.8952ZM122.818 92.5619L122.928 92.3952L123.039 92.5619L122.928 92.7286L122.818 92.5619ZM122.818 92.8952H123.039L122.928 93.0619L123.039 93.2286H122.818L122.928 93.0619L122.818 92.8952ZM122.818 93.5619L122.928 93.3953L123.039 93.5619L122.928 93.7286L122.818 93.5619ZM122.818 93.8953H123.039L122.928 94.062L123.039 94.2287H122.818L122.928 94.062L122.818 93.8953ZM122.818 94.562L122.928 94.3953L123.039 94.562L122.928 94.7287L122.818 94.562ZM122.818 94.8954H123.039L122.928 95.0621L123.039 95.2287H122.818L122.928 95.0621L122.818 94.8954ZM122.818 95.5621L122.928 95.3954L123.039 95.5621L122.928 95.7288L122.818 95.5621ZM122.818 95.8954H123.039L122.928 96.0621L123.039 96.2288H122.818L122.928 96.0621L122.818 95.8954ZM122.818 96.5622L122.928 96.3955L123.039 96.5622L122.928 96.7288L122.818 96.5622Z" fill="#E85D5D"/>
<path d="M123.039 95.8954H122.818L122.928 96.0621L123.039 95.8954Z" fill="black"/>
<path d="M122.928 96.0621L122.818 96.2288H123.039L122.928 96.0621Z" fill="black"/>
<path d="M123.039 96.8955H122.818L122.927 97.0598L122.931 97.059L123.039 96.8955Z" fill="black"/>
<path d="M123.039 93.8953H122.818L122.928 94.062L123.039 93.8953Z" fill="black"/>
<path d="M122.928 94.062L122.818 94.2287H123.039L122.928 94.062Z" fill="black"/>
<path d="M122.928 93.3953L122.818 93.5619L122.928 93.7286L123.039 93.5619L122.928 93.3953Z" fill="black"/>
<path d="M122.928 92.0618L122.818 92.2285H123.039L122.928 92.0618Z" fill="black"/>
<path d="M123.039 91.8952H122.818L122.928 92.0618L123.039 91.8952Z" fill="black"/>
<path d="M122.928 91.3951L122.818 91.5618L122.928 91.7285L123.039 91.5618L122.928 91.3951Z" fill="black"/>
<path d="M122.928 90.0617L122.818 90.2284H123.039L122.928 90.0617Z" fill="black"/>
<path d="M123.039 89.895H122.818L122.928 90.0617L123.039 89.895Z" fill="black"/>
<path d="M122.928 89.395L122.818 89.5617L122.928 89.7283L123.039 89.5617L122.928 89.395Z" fill="black"/>
<path d="M122.928 88.0615L122.818 88.2282H123.039L122.928 88.0615Z" fill="black"/>
<path d="M123.039 87.8949H122.818L122.928 88.0615L123.039 87.8949Z" fill="black"/>
<path d="M122.928 87.3948L122.818 87.5615L122.928 87.7282L123.039 87.5615L122.928 87.3948Z" fill="black"/>
<path d="M122.928 86.0614L122.818 86.2281H123.039L122.928 86.0614Z" fill="black"/>
<path d="M123.039 85.8947H122.818L122.928 86.0614L123.039 85.8947Z" fill="black"/>
<path d="M122.928 85.3947L122.818 85.5614L122.928 85.728L123.039 85.5614L122.928 85.3947Z" fill="black"/>
<path d="M122.928 84.0613L122.818 84.2279H123.039L122.928 84.0613Z" fill="black"/>
<path d="M123.039 83.8946H122.818L122.928 84.0613L123.039 83.8946Z" fill="black"/>
<path d="M122.928 83.3945L122.818 83.5612L122.928 83.7279L123.039 83.5612L122.928 83.3945Z" fill="black"/>
<path d="M123.204 96.9942V83.9964L123.094 83.7001V97.0205C123.131 97.0117 123.167 97.003 123.204 96.9942Z" fill="black"/>
<path fill-rule="evenodd" clip-rule="evenodd" d="M123.452 84.5285V96.9341C123.517 96.9181 123.582 96.9021 123.645 96.8863V84.1042L123.452 84.5285Z" fill="#E85D5D"/>
<path d="M123.424 84.5891V96.9409L123.452 96.9341V84.5285L123.424 84.5891Z" fill="black"/>
<path d="M123.424 96.9409V84.5891L123.397 84.515V96.9476L123.424 96.9409Z" fill="black"/>
<path d="M123.204 83.9964V96.9942C123.269 96.9786 123.333 96.9631 123.397 96.9476V84.515L123.204 83.9964Z" fill="#E85D5D"/>
<path fill-rule="evenodd" clip-rule="evenodd" d="M123.452 103.632V117.34L123.645 117.333V103.724C123.58 103.693 123.516 103.662 123.452 103.632Z" fill="#E85D5D"/>
<path d="M123.424 103.618V117.341L123.452 117.34V103.632L123.424 103.618Z" fill="#1E1E1E"/>
<path d="M123.424 117.341V103.618C123.415 103.614 123.406 103.609 123.397 103.605V117.343L123.424 117.341Z" fill="#1E1E1E"/>
<path d="M123.204 103.545L123.197 117.391L123.397 117.343V103.605C123.33 103.572 123.27 103.578 123.204 103.545Z" fill="#E85D5D"/>
<path d="M123.81 84.7835L123.92 84.6168L124.03 84.7835L123.92 84.9502L123.81 84.7835Z" fill="black"/>
<path d="M123.81 85.1169H124.03L123.92 85.2836L124.03 85.4502H123.81L123.92 85.2836L123.81 85.1169Z" fill="black"/>
<path d="M123.81 86.7837L123.92 86.617L124.03 86.7837L123.92 86.9504L123.81 86.7837Z" fill="black"/>
<path d="M123.81 87.117H124.03L123.92 87.2837L124.03 87.4504H123.81L123.92 87.2837L123.81 87.117Z" fill="black"/>
<path d="M123.81 88.7838L123.92 88.6171L124.03 88.7838L123.92 88.9505L123.81 88.7838Z" fill="black"/>
<path d="M123.81 89.1172H124.03L123.92 89.2839L124.03 89.4505H123.81L123.92 89.2839L123.81 89.1172Z" fill="black"/>
<path d="M123.81 90.784L123.92 90.6173L124.03 90.784L123.92 90.9506L123.81 90.784Z" fill="black"/>
<path d="M123.81 91.1173H124.03L123.92 91.284L124.03 91.4507H123.81L123.92 91.284L123.81 91.1173Z" fill="black"/>
<path d="M123.81 92.7841L123.92 92.6174L124.03 92.7841L123.92 92.9508L123.81 92.7841Z" fill="black"/>
<path d="M123.81 93.1175H124.03L123.92 93.2841L124.03 93.4508H123.81L123.92 93.2841L123.81 93.1175Z" fill="black"/>
<path d="M123.81 94.7843L123.92 94.6176L124.03 94.7843L123.92 94.9509L123.81 94.7843Z" fill="black"/>
<path d="M123.81 95.1176H124.03L123.92 95.2843L124.03 95.451H123.81L123.92 95.2843L123.81 95.1176Z" fill="black"/>
<path d="M123.92 95.6177L123.81 95.7843L123.92 95.951L124.03 95.7843L123.92 95.6177Z" fill="black"/>
<path d="M124.03 96.1177H123.81L123.92 96.2844L124.03 96.1177Z" fill="black"/>
<path d="M123.92 96.2844L123.81 96.451H124.03L123.92 96.2844Z" fill="black"/>
<path d="M124.03 94.1175H123.81L123.92 94.2842L124.03 94.1175Z" fill="black"/>
<path d="M123.92 94.2842L123.81 94.4509H124.03L123.92 94.2842Z" fill="black"/>
<path d="M123.92 93.6175L123.81 93.7842L123.92 93.9509L124.03 93.7842L123.92 93.6175Z" fill="black"/>
<path d="M123.92 92.2841L123.81 92.4508H124.03L123.92 92.2841Z" fill="black"/>
<path d="M124.03 92.1174H123.81L123.92 92.2841L124.03 92.1174Z" fill="black"/>
<path d="M123.92 91.6174L123.81 91.784L123.92 91.9507L124.03 91.784L123.92 91.6174Z" fill="black"/>
<path d="M123.92 90.2839L123.81 90.4506H124.03L123.92 90.2839Z" fill="black"/>
<path d="M124.03 90.1172H123.81L123.92 90.2839L124.03 90.1172Z" fill="black"/>
<path d="M123.92 89.6172L123.81 89.7839L123.92 89.9506L124.03 89.7839L123.92 89.6172Z" fill="black"/>
<path d="M123.92 88.2838L123.81 88.4505H124.03L123.92 88.2838Z" fill="black"/>
<path d="M124.03 88.1171H123.81L123.92 88.2838L124.03 88.1171Z" fill="black"/>
<path d="M123.92 87.6171L123.81 87.7837L123.92 87.9504L124.03 87.7837L123.92 87.6171Z" fill="black"/>
<path d="M123.92 86.2836L123.81 86.4503H124.03L123.92 86.2836Z" fill="black"/>
<path d="M124.03 86.117H123.81L123.92 86.2836L124.03 86.117Z" fill="black"/>
<path d="M123.92 85.6169L123.81 85.7836L123.92 85.9503L124.03 85.7836L123.92 85.6169Z" fill="black"/>
<path d="M123.92 84.2835L123.81 84.4502H124.03L123.92 84.2835Z" fill="black"/>
<path d="M124.03 84.1168H123.81L123.92 84.2835L124.03 84.1168Z" fill="black"/>
<path d="M123.92 83.6168L123.81 83.7835L123.92 83.9501L124.03 83.7835L123.92 83.6168Z" fill="black"/>
<path d="M123.81 105.063L123.92 104.896L124.03 105.063L123.92 105.229L123.81 105.063Z" fill="#1E1E1E"/>
<path d="M123.81 105.396H124.03L123.92 105.563L124.03 105.729H123.81L123.92 105.563L123.81 105.396Z" fill="#1E1E1E"/>
<path d="M123.81 107.063L123.92 106.896L124.03 107.063L123.92 107.23L123.81 107.063Z" fill="#1E1E1E"/>
<path d="M123.81 107.396H124.03L123.92 107.563L124.03 107.73H123.81L123.92 107.563L123.81 107.396Z" fill="#1E1E1E"/>
<path d="M123.81 109.063L123.92 108.896L124.03 109.063L123.92 109.23L123.81 109.063Z" fill="#1E1E1E"/>
<path d="M123.81 109.396H124.03L123.92 109.563L124.03 109.73H123.81L123.92 109.563L123.81 109.396Z" fill="#1E1E1E"/>
<path d="M123.81 111.063L123.92 110.897L124.03 111.063L123.92 111.23L123.81 111.063Z" fill="#1E1E1E"/>
<path d="M123.81 111.397H124.03L123.92 111.563L124.03 111.73H123.81L123.92 111.563L123.81 111.397Z" fill="#1E1E1E"/>
<path d="M123.81 113.063L123.92 112.897L124.03 113.063L123.92 113.23L123.81 113.063Z" fill="#1E1E1E"/>
<path d="M123.81 113.397H124.03L123.92 113.563L124.03 113.73H123.81L123.92 113.563L123.81 113.397Z" fill="#1E1E1E"/>
<path d="M123.81 115.064L123.92 114.897L124.03 115.064L123.92 115.23L123.81 115.064Z" fill="#1E1E1E"/>
<path d="M123.81 115.397H124.03L123.92 115.564L124.03 115.73H123.81L123.92 115.564L123.81 115.397Z" fill="#1E1E1E"/>
<path d="M123.81 117.064L123.92 116.897L124.03 117.064L123.92 117.23L123.81 117.064Z" fill="#1E1E1E"/>
<path d="M123.92 115.897L123.81 116.064L123.92 116.23L124.03 116.064L123.92 115.897Z" fill="#1E1E1E"/>
<path d="M124.03 116.397H123.81L123.92 116.564L124.03 116.397Z" fill="#1E1E1E"/>
<path d="M123.92 116.564L123.81 116.73H124.03L123.92 116.564Z" fill="#1E1E1E"/>
<path d="M124.03 114.397H123.81L123.92 114.563L124.03 114.397Z" fill="#1E1E1E"/>
<path d="M123.92 114.563L123.81 114.73H124.03L123.92 114.563Z" fill="#1E1E1E"/>
<path d="M123.92 113.897L123.81 114.063L123.92 114.23L124.03 114.063L123.92 113.897Z" fill="#1E1E1E"/>
<path d="M123.92 112.563L123.81 112.73H124.03L123.92 112.563Z" fill="#1E1E1E"/>
<path d="M124.03 112.397H123.81L123.92 112.563L124.03 112.397Z" fill="#1E1E1E"/>
<path d="M123.92 111.897L123.81 112.063L123.92 112.23L124.03 112.063L123.92 111.897Z" fill="#1E1E1E"/>
<path d="M123.92 110.563L123.81 110.73H124.03L123.92 110.563Z" fill="#1E1E1E"/>
<path d="M124.03 110.396H123.81L123.92 110.563L124.03 110.396Z" fill="#1E1E1E"/>
<path d="M123.92 109.896L123.81 110.063L123.92 110.23L124.03 110.063L123.92 109.896Z" fill="#1E1E1E"/>
<path d="M123.92 108.563L123.81 108.73H124.03L123.92 108.563Z" fill="#1E1E1E"/>
<path d="M124.03 108.396H123.81L123.92 108.563L124.03 108.396Z" fill="#1E1E1E"/>
<path d="M123.92 107.896L123.81 108.063L123.92 108.23L124.03 108.063L123.92 107.896Z" fill="#1E1E1E"/>
<path d="M123.92 106.563L123.81 106.73H124.03L123.92 106.563Z" fill="#1E1E1E"/>
<path d="M124.03 106.396H123.81L123.92 106.563L124.03 106.396Z" fill="#1E1E1E"/>
<path d="M123.92 105.896L123.81 106.063L123.92 106.23L124.03 106.063L123.92 105.896Z" fill="#1E1E1E"/>
<path d="M123.92 104.563L123.81 104.729H124.03L123.92 104.563Z" fill="#1E1E1E"/>
<path d="M124.03 104.396H123.81L123.92 104.563L124.03 104.396Z" fill="#1E1E1E"/>
<path d="M123.92 103.896L123.81 104.063L123.92 104.229L124.03 104.063L123.92 103.896Z" fill="#1E1E1E"/>
<path fill-rule="evenodd" clip-rule="evenodd" d="M123.755 83.8617V96.8585C123.785 96.8509 123.815 96.8433 123.844 96.8357L123.81 96.7844L123.92 96.6177L124.033 96.7864C124.05 96.7817 124.068 96.777 124.085 96.7723V83.1344L123.755 83.8617ZM123.81 83.7835L123.92 83.6168L124.03 83.7835L123.92 83.9501L123.81 83.7835ZM123.81 84.1168H124.03L123.92 84.2835L124.03 84.4502H123.81L123.92 84.2835L123.81 84.1168ZM123.81 84.7835L123.92 84.6168L124.03 84.7835L123.92 84.9502L123.81 84.7835ZM123.81 85.1169H124.03L123.92 85.2836L124.03 85.4502H123.81L123.92 85.2836L123.81 85.1169ZM123.81 85.7836L123.92 85.6169L124.03 85.7836L123.92 85.9503L123.81 85.7836ZM123.81 86.117H124.03L123.92 86.2836L124.03 86.4503H123.81L123.92 86.2836L123.81 86.117ZM123.81 86.7837L123.92 86.617L124.03 86.7837L123.92 86.9504L123.81 86.7837ZM123.81 87.117H124.03L123.92 87.2837L124.03 87.4504H123.81L123.92 87.2837L123.81 87.117ZM123.81 87.7837L123.92 87.6171L124.03 87.7837L123.92 87.9504L123.81 87.7837ZM123.81 88.1171H124.03L123.92 88.2838L124.03 88.4505H123.81L123.92 88.2838L123.81 88.1171ZM123.81 88.7838L123.92 88.6171L124.03 88.7838L123.92 88.9505L123.81 88.7838ZM123.81 89.1172H124.03L123.92 89.2839L124.03 89.4505H123.81L123.92 89.2839L123.81 89.1172ZM123.81 89.7839L123.92 89.6172L124.03 89.7839L123.92 89.9506L123.81 89.7839ZM123.81 90.1172H124.03L123.92 90.2839L124.03 90.4506H123.81L123.92 90.2839L123.81 90.1172ZM123.81 90.784L123.92 90.6173L124.03 90.784L123.92 90.9506L123.81 90.784ZM123.81 91.1173H124.03L123.92 91.284L124.03 91.4507H123.81L123.92 91.284L123.81 91.1173ZM123.81 91.784L123.92 91.6174L124.03 91.784L123.92 91.9507L123.81 91.784ZM123.81 92.1174H124.03L123.92 92.2841L124.03 92.4508H123.81L123.92 92.2841L123.81 92.1174ZM123.81 92.7841L123.92 92.6174L124.03 92.7841L123.92 92.9508L123.81 92.7841ZM123.81 93.1175H124.03L123.92 93.2841L124.03 93.4508H123.81L123.92 93.2841L123.81 93.1175ZM123.81 93.7842L123.92 93.6175L124.03 93.7842L123.92 93.9509L123.81 93.7842ZM123.81 94.1175H124.03L123.92 94.2842L124.03 94.4509H123.81L123.92 94.2842L123.81 94.1175ZM123.81 94.7843L123.92 94.6176L124.03 94.7843L123.92 94.9509L123.81 94.7843ZM123.81 95.1176H124.03L123.92 95.2843L124.03 95.451H123.81L123.92 95.2843L123.81 95.1176ZM123.81 95.7843L123.92 95.6177L124.03 95.7843L123.92 95.951L123.81 95.7843ZM123.81 96.1177H124.03L123.92 96.2844L124.03 96.451H123.81L123.92 96.2844L123.81 96.1177Z" fill="#E85D5D"/>
<path d="M123.645 84.1042V96.8863C123.682 96.877 123.719 96.8677 123.755 96.8585V83.8617L123.645 84.1042Z" fill="black"/>
<path d="M124.085 83.1344V96.7723C124.123 96.7622 124.16 96.7522 124.196 96.7423V82.892L124.085 83.1344Z" fill="black"/>
<path d="M123.92 96.6177L123.81 96.7844L123.844 96.8357C123.909 96.819 123.972 96.8026 124.033 96.7864L123.92 96.6177Z" fill="black"/>
<path d="M123.645 103.724V117.333L123.755 117.328V103.776C123.718 103.759 123.681 103.741 123.645 103.724Z" fill="#1E1E1E"/>
<path d="M121.827 82.6167L121.937 82.45L122.047 82.6167L121.937 82.7834L121.827 82.6167Z" fill="black"/>
<path d="M121.827 82.9501H122.047L121.937 83.1167L122.047 83.2834H121.827L121.937 83.1167L121.827 82.9501Z" fill="black"/>
<path d="M121.827 84.6169L121.937 84.4502L122.047 84.6169L121.937 84.7835L121.827 84.6169Z" fill="black"/>
<path d="M121.827 84.9502H122.047L121.937 85.1169L122.047 85.2836H121.827L121.937 85.1169L121.827 84.9502Z" fill="black"/>
<path d="M121.827 86.617L121.937 86.4503L122.047 86.617L121.937 86.7837L121.827 86.617Z" fill="black"/>
<path d="M121.827 86.9504H122.047L121.937 87.117L122.047 87.2837H121.827L121.937 87.117L121.827 86.9504Z" fill="black"/>
<path d="M121.827 88.6171L121.937 88.4505L122.047 88.6171L121.937 88.7838L121.827 88.6171Z" fill="black"/>
<path d="M121.827 88.9505H122.047L121.937 89.1172L122.047 89.2839H121.827L121.937 89.1172L121.827 88.9505Z" fill="black"/>
<path d="M121.827 90.6173L121.937 90.4506L122.047 90.6173L121.937 90.784L121.827 90.6173Z" fill="black"/>
<path d="M121.827 90.9506H122.047L121.937 91.1173L122.047 91.284H121.827L121.937 91.1173L121.827 90.9506Z" fill="black"/>
<path d="M121.827 92.6174L121.937 92.4508L122.047 92.6174L121.937 92.7841L121.827 92.6174Z" fill="black"/>
<path d="M121.827 92.9508H122.047L121.937 93.1175L122.047 93.2841H121.827L121.937 93.1175L121.827 92.9508Z" fill="black"/>
<path d="M121.827 94.6176L121.937 94.4509L122.047 94.6176L121.937 94.7843L121.827 94.6176Z" fill="black"/>
<path d="M121.937 93.4508L121.827 93.6175L121.937 93.7842L122.047 93.6175L121.937 93.4508Z" fill="black"/>
<path d="M122.047 93.9509H121.827L121.937 94.1175L122.047 93.9509Z" fill="black"/>
<path d="M121.937 94.1175L121.827 94.2842H122.047L121.937 94.1175Z" fill="black"/>
<path d="M122.047 91.9507H121.827L121.937 92.1174L122.047 91.9507Z" fill="black"/>
<path d="M121.937 92.1174L121.827 92.2841H122.047L121.937 92.1174Z" fill="black"/>
<path d="M121.937 91.4507L121.827 91.6174L121.937 91.784L122.047 91.6174L121.937 91.4507Z" fill="black"/>
<path d="M121.937 90.1172L121.827 90.2839H122.047L121.937 90.1172Z" fill="black"/>
<path d="M122.047 89.9506H121.827L121.937 90.1172L122.047 89.9506Z" fill="black"/>
<path d="M121.937 89.4505L121.827 89.6172L121.937 89.7839L122.047 89.6172L121.937 89.4505Z" fill="black"/>
<path d="M121.937 88.1171L121.827 88.2838H122.047L121.937 88.1171Z" fill="black"/>
<path d="M122.047 87.9504H121.827L121.937 88.1171L122.047 87.9504Z" fill="black"/>
<path d="M121.937 87.4504L121.827 87.6171L121.937 87.7837L122.047 87.6171L121.937 87.4504Z" fill="black"/>
<path d="M121.937 86.117L121.827 86.2836H122.047L121.937 86.117Z" fill="black"/>
<path d="M122.047 85.9503H121.827L121.937 86.117L122.047 85.9503Z" fill="black"/>
<path d="M121.937 85.4502L121.827 85.6169L121.937 85.7836L122.047 85.6169L121.937 85.4502Z" fill="black"/>
<path d="M121.937 84.1168L121.827 84.2835H122.047L121.937 84.1168Z" fill="black"/>
<path d="M122.047 83.9501H121.827L121.937 84.1168L122.047 83.9501Z" fill="black"/>
<path d="M121.937 83.4501L121.827 83.6168L121.937 83.7835L122.047 83.6168L121.937 83.4501Z" fill="black"/>
<path d="M121.937 82.1167L121.827 82.2833H122.047L121.937 82.1167Z" fill="black"/>
<path d="M122.047 81.95H121.827L121.937 82.1167L122.047 81.95Z" fill="black"/>
<path d="M121.937 81.45L121.827 81.6166L121.937 81.7833L122.047 81.6166L121.937 81.45Z" fill="black"/>
<path d="M121.827 94.9509H122.047L121.937 95.1176L122.047 95.2843H121.827L121.937 95.1176L121.827 94.9509Z" fill="black"/>
<path d="M121.827 96.6177L121.937 96.451L122.047 96.6177L121.937 96.7844L121.827 96.6177Z" fill="black"/>
<path d="M121.937 95.451L121.827 95.6177L121.937 95.7843L122.047 95.6177L121.937 95.451Z" fill="black"/>
<path d="M122.047 95.951H121.827L121.937 96.1177L122.047 95.951Z" fill="black"/>
<path d="M121.937 96.1177L121.827 96.2844H122.047L121.937 96.1177Z" fill="black"/>
<path d="M122.047 96.9409H121.827L121.937 97.1076L122.047 96.9409Z" fill="black"/>
<path d="M121.937 97.1076L121.827 97.2844H121.937C121.969 97.2774 122.001 97.2704 122.033 97.2633L121.937 97.1076Z" fill="black"/>
<path fill-rule="evenodd" clip-rule="evenodd" d="M122.102 97.2479V81.5758L121.771 81.2294V97.3209C121.827 97.3088 121.882 97.2966 121.937 97.2844H121.827L121.937 97.1076L121.827 96.9409H122.047L121.937 97.1076L122.033 97.2633C122.056 97.2582 122.079 97.2531 122.102 97.2479ZM121.827 81.6166L121.937 81.45L122.047 81.6166L121.937 81.7833L121.827 81.6166ZM121.827 81.95H122.047L121.937 82.1167L122.047 82.2833H121.827L121.937 82.1167L121.827 81.95ZM121.827 82.6167L121.937 82.45L122.047 82.6167L121.937 82.7834L121.827 82.6167ZM121.827 82.9501H122.047L121.937 83.1167L122.047 83.2834H121.827L121.937 83.1167L121.827 82.9501ZM121.827 83.6168L121.937 83.4501L122.047 83.6168L121.937 83.7835L121.827 83.6168ZM121.827 83.9501H122.047L121.937 84.1168L122.047 84.2835H121.827L121.937 84.1168L121.827 83.9501ZM121.827 84.6169L121.937 84.4502L122.047 84.6169L121.937 84.7835L121.827 84.6169ZM121.827 84.9502H122.047L121.937 85.1169L122.047 85.2836H121.827L121.937 85.1169L121.827 84.9502ZM121.827 85.6169L121.937 85.4502L122.047 85.6169L121.937 85.7836L121.827 85.6169ZM121.827 85.9503H122.047L121.937 86.117L122.047 86.2836H121.827L121.937 86.117L121.827 85.9503ZM121.827 86.617L121.937 86.4503L122.047 86.617L121.937 86.7837L121.827 86.617ZM121.827 86.9504H122.047L121.937 87.117L122.047 87.2837H121.827L121.937 87.117L121.827 86.9504ZM121.827 87.6171L121.937 87.4504L122.047 87.6171L121.937 87.7837L121.827 87.6171ZM121.827 87.9504H122.047L121.937 88.1171L122.047 88.2838H121.827L121.937 88.1171L121.827 87.9504ZM121.827 88.6171L121.937 88.4505L122.047 88.6171L121.937 88.7838L121.827 88.6171ZM121.827 88.9505H122.047L121.937 89.1172L122.047 89.2839H121.827L121.937 89.1172L121.827 88.9505ZM121.827 89.6172L121.937 89.4505L122.047 89.6172L121.937 89.7839L121.827 89.6172ZM121.827 89.9506H122.047L121.937 90.1172L122.047 90.2839H121.827L121.937 90.1172L121.827 89.9506ZM121.827 90.6173L121.937 90.4506L122.047 90.6173L121.937 90.784L121.827 90.6173ZM121.827 90.9506H122.047L121.937 91.1173L122.047 91.284H121.827L121.937 91.1173L121.827 90.9506ZM121.827 91.6174L121.937 91.4507L122.047 91.6174L121.937 91.784L121.827 91.6174ZM121.827 91.9507H122.047L121.937 92.1174L122.047 92.2841H121.827L121.937 92.1174L121.827 91.9507ZM121.827 92.6174L121.937 92.4508L122.047 92.6174L121.937 92.7841L121.827 92.6174ZM121.827 92.9508H122.047L121.937 93.1175L122.047 93.2841H121.827L121.937 93.1175L121.827 92.9508ZM121.827 93.6175L121.937 93.4508L122.047 93.6175L121.937 93.7842L121.827 93.6175ZM121.827 93.9509H122.047L121.937 94.1175L122.047 94.2842H121.827L121.937 94.1175L121.827 93.9509ZM121.827 94.6176L121.937 94.4509L122.047 94.6176L121.937 94.7843L121.827 94.6176ZM121.827 94.9509H122.047L121.937 95.1176L122.047 95.2843H121.827L121.937 95.1176L121.827 94.9509ZM121.827 95.6177L121.937 95.451L122.047 95.6177L121.937 95.7843L121.827 95.6177ZM121.827 95.951H122.047L121.937 96.1177L122.047 96.2844H121.827L121.937 96.1177L121.827 95.951ZM121.827 96.6177L121.937 96.451L122.047 96.6177L121.937 96.7844L121.827 96.6177Z" fill="#E85D5D"/>
<path d="M122.212 97.2233V81.6913L122.102 81.5758V97.2479C122.139 97.2397 122.176 97.2315 122.212 97.2233Z" fill="black"/>
<path d="M121.771 97.3209V81.2294L121.661 81.1139V97.345C121.698 97.337 121.735 97.329 121.771 97.3209Z" fill="black"/>
<path d="M122.405 97.1799V81.8933L122.212 81.6913V97.2233C122.277 97.2089 122.341 97.1944 122.405 97.1799Z" fill="#E85D5D"/>
<path d="M122.433 97.1737V81.9222L122.405 81.8933V97.1799L122.433 97.1737Z" fill="black"/>
<path d="M122.433 81.9222V97.1737L122.46 97.1674L122.464 82.0056L122.433 81.9222Z" fill="black"/>
<path d="M122.653 97.1234V82.5148L122.464 82.0056L122.46 97.1674C122.525 97.1527 122.589 97.1381 122.653 97.1234Z" fill="#E85D5D"/>
<path d="M124.802 82.9524L124.912 82.7857L125.022 82.9524L124.912 83.1191L124.802 82.9524Z" fill="black"/>
<path d="M124.802 83.2857H125.022L124.912 83.4524L125.022 83.6191H124.802L124.912 83.4524L124.802 83.2857Z" fill="black"/>
<path d="M124.802 84.9525L124.912 84.7858L125.022 84.9525L124.912 85.1192L124.802 84.9525Z" fill="black"/>
<path d="M124.802 85.2859H125.022L124.912 85.4526L125.022 85.6192H124.802L124.912 85.4526L124.802 85.2859Z" fill="black"/>
<path d="M124.802 86.9527L124.912 86.786L125.022 86.9527L124.912 87.1193L124.802 86.9527Z" fill="black"/>
<path d="M124.802 87.286H125.022L124.912 87.4527L125.022 87.6194H124.802L124.912 87.4527L124.802 87.286Z" fill="black"/>
<path d="M124.802 88.9528L124.912 88.7861L125.022 88.9528L124.912 89.1195L124.802 88.9528Z" fill="black"/>
<path d="M124.802 89.2862H125.022L124.912 89.4528L125.022 89.6195H124.802L124.912 89.4528L124.802 89.2862Z" fill="black"/>
<path d="M124.802 90.953L124.912 90.7863L125.022 90.953L124.912 91.1196L124.802 90.953Z" fill="black"/>
<path d="M124.802 91.2863H125.022L124.912 91.453L125.022 91.6197H124.802L124.912 91.453L124.802 91.2863Z" fill="black"/>
<path d="M124.802 92.9531L124.912 92.7864L125.022 92.9531L124.912 93.1198L124.802 92.9531Z" fill="black"/>
<path d="M124.802 93.2865H125.022L124.912 93.4531L125.022 93.6198H124.802L124.912 93.4531L124.802 93.2865Z" fill="black"/>
<path d="M124.802 94.9533L124.912 94.7866L125.022 94.9533L124.912 95.1199L124.802 94.9533Z" fill="black"/>
<path d="M124.912 93.7865L124.802 93.9532L124.912 94.1199L125.022 93.9532L124.912 93.7865Z" fill="black"/>
<path d="M125.022 94.2865H124.802L124.912 94.4532L125.022 94.2865Z" fill="black"/>
<path d="M124.912 94.4532L124.802 94.6199H125.022L124.912 94.4532Z" fill="black"/>
<path d="M125.022 92.2864H124.802L124.912 92.4531L125.022 92.2864Z" fill="black"/>
<path d="M124.912 92.4531L124.802 92.6197H125.022L124.912 92.4531Z" fill="black"/>
<path d="M124.912 91.7864L124.802 91.953L124.912 92.1197L125.022 91.953L124.912 91.7864Z" fill="black"/>
<path d="M124.912 90.4529L124.802 90.6196H125.022L124.912 90.4529Z" fill="black"/>
<path d="M125.022 90.2862H124.802L124.912 90.4529L125.022 90.2862Z" fill="black"/>
<path d="M124.912 89.7862L124.802 89.9529L124.912 90.1196L125.022 89.9529L124.912 89.7862Z" fill="black"/>
<path d="M124.912 88.4528L124.802 88.6195H125.022L124.912 88.4528Z" fill="black"/>
<path d="M125.022 88.2861H124.802L124.912 88.4528L125.022 88.2861Z" fill="black"/>
<path d="M124.912 87.7861L124.802 87.9527L124.912 88.1194L125.022 87.9527L124.912 87.7861Z" fill="black"/>
<path d="M124.912 86.4526L124.802 86.6193H125.022L124.912 86.4526Z" fill="black"/>
<path d="M125.022 86.286H124.802L124.912 86.4526L125.022 86.286Z" fill="black"/>
<path d="M124.912 85.7859L124.802 85.9526L124.912 86.1193L125.022 85.9526L124.912 85.7859Z" fill="black"/>
<path d="M124.912 84.4525L124.802 84.6192H125.022L124.912 84.4525Z" fill="black"/>
<path d="M125.022 84.2858H124.802L124.912 84.4525L125.022 84.2858Z" fill="black"/>
<path d="M124.912 83.7858L124.802 83.9524L124.912 84.1191L125.022 83.9524L124.912 83.7858Z" fill="black"/>
<path d="M124.912 82.4523L124.802 82.619H125.022L124.912 82.4523Z" fill="black"/>
<path d="M125.022 82.2857H124.802L124.912 82.4523L125.022 82.2857Z" fill="black"/>
<path d="M124.912 81.7856L124.802 81.9523L124.912 82.119L125.022 81.9523L124.912 81.7856Z" fill="black"/>
<path d="M124.802 95.2843H125.022L124.912 95.451L125.022 95.6177H124.802L124.912 95.451L124.802 95.2843Z" fill="black"/>
<path d="M124.912 95.7843L124.802 95.951L124.912 96.1177L125.022 95.951L124.912 95.7843Z" fill="black"/>
<path d="M125.022 96.2844H124.802L124.912 96.451L125.022 96.2844Z" fill="black"/>
<path d="M124.912 96.451L124.802 96.5514C124.866 96.5256 124.913 96.5024 124.939 96.4822L124.912 96.451Z" fill="black"/>
<path d="M124.196 82.892V96.7423C124.263 96.7236 124.328 96.7054 124.388 96.6877V82.4677L124.196 82.892Z" fill="#E85D5D"/>
<path d="M124.388 82.4677V96.6877C124.407 96.6822 124.425 96.6768 124.443 96.6715V82.3465L124.388 82.4677Z" fill="black"/>
<path d="M124.636 96.611V81.9222L124.443 82.3465V96.6715C124.514 96.6504 124.578 96.6302 124.636 96.611Z" fill="#E85D5D"/>
<path d="M124.636 81.9222V96.611C124.676 96.5977 124.713 96.5849 124.746 96.5726V81.8312L124.636 81.9222Z" fill="black"/>
<path fill-rule="evenodd" clip-rule="evenodd" d="M124.746 81.8312V96.5726C124.766 96.5653 124.784 96.5583 124.802 96.5514L124.912 96.451L124.802 96.2844H125.022L124.912 96.451L124.939 96.4822C124.944 96.4784 124.949 96.4747 124.952 96.4711C124.978 96.4455 125.02 96.4127 125.077 96.3751V81.558L124.746 81.8312ZM124.802 81.9523L124.912 81.7856L125.022 81.9523L124.912 82.119L124.802 81.9523ZM124.802 82.2857H125.022L124.912 82.4523L125.022 82.619H124.802L124.912 82.4523L124.802 82.2857ZM124.802 82.9524L124.912 82.7857L125.022 82.9524L124.912 83.1191L124.802 82.9524ZM124.802 83.2857H125.022L124.912 83.4524L125.022 83.6191H124.802L124.912 83.4524L124.802 83.2857ZM124.802 83.9524L124.912 83.7858L125.022 83.9524L124.912 84.1191L124.802 83.9524ZM124.802 84.2858H125.022L124.912 84.4525L125.022 84.6192H124.802L124.912 84.4525L124.802 84.2858ZM124.802 84.9525L124.912 84.7858L125.022 84.9525L124.912 85.1192L124.802 84.9525ZM124.802 85.2859H125.022L124.912 85.4526L125.022 85.6192H124.802L124.912 85.4526L124.802 85.2859ZM124.802 85.9526L124.912 85.7859L125.022 85.9526L124.912 86.1193L124.802 85.9526ZM124.802 86.286H125.022L124.912 86.4526L125.022 86.6193H124.802L124.912 86.4526L124.802 86.286ZM124.802 86.9527L124.912 86.786L125.022 86.9527L124.912 87.1193L124.802 86.9527ZM124.802 87.286H125.022L124.912 87.4527L125.022 87.6194H124.802L124.912 87.4527L124.802 87.286ZM124.802 87.9527L124.912 87.7861L125.022 87.9527L124.912 88.1194L124.802 87.9527ZM124.802 88.2861H125.022L124.912 88.4528L125.022 88.6195H124.802L124.912 88.4528L124.802 88.2861ZM124.802 88.9528L124.912 88.7861L125.022 88.9528L124.912 89.1195L124.802 88.9528ZM124.802 89.2862H125.022L124.912 89.4528L125.022 89.6195H124.802L124.912 89.4528L124.802 89.2862ZM124.802 89.9529L124.912 89.7862L125.022 89.9529L124.912 90.1196L124.802 89.9529ZM124.802 90.2862H125.022L124.912 90.4529L125.022 90.6196H124.802L124.912 90.4529L124.802 90.2862ZM124.802 90.953L124.912 90.7863L125.022 90.953L124.912 91.1196L124.802 90.953ZM124.802 91.2863H125.022L124.912 91.453L125.022 91.6197H124.802L124.912 91.453L124.802 91.2863ZM124.802 91.953L124.912 91.7864L125.022 91.953L124.912 92.1197L124.802 91.953ZM124.802 92.2864H125.022L124.912 92.4531L125.022 92.6197H124.802L124.912 92.4531L124.802 92.2864ZM124.802 92.9531L124.912 92.7864L125.022 92.9531L124.912 93.1198L124.802 92.9531ZM124.802 93.2865H125.022L124.912 93.4531L125.022 93.6198H124.802L124.912 93.4531L124.802 93.2865ZM124.802 93.9532L124.912 93.7865L125.022 93.9532L124.912 94.1199L124.802 93.9532ZM124.802 94.2865H125.022L124.912 94.4532L125.022 94.6199H124.802L124.912 94.4532L124.802 94.2865ZM124.802 94.9533L124.912 94.7866L125.022 94.9533L124.912 95.1199L124.802 94.9533ZM124.802 95.2843H125.022L124.912 95.451L125.022 95.6177H124.802L124.912 95.451L124.802 95.2843ZM124.802 95.951L124.912 95.7843L125.022 95.951L124.912 96.1177L124.802 95.951Z" fill="#E85D5D"/>
<path d="M125.077 81.558V96.3751C125.109 96.3538 125.146 96.3309 125.187 96.307V81.4669L125.077 81.558Z" fill="black"/>
<path d="M126.262 77.9126C125.6 78.1486 122.571 78.7852 121.829 78.7852C121.69 78.7852 121.555 78.7799 121.426 78.7695C121.706 79.511 121.663 79.8872 121.028 80.4499L121.661 81.1139L121.771 81.2294L122.102 81.5758L122.212 81.6913L122.405 81.8933L122.433 81.9222L122.464 82.0056L122.653 82.5148L122.763 82.8112L123.094 83.7001L123.204 83.9964L123.397 84.515L123.424 84.5891L123.452 84.5285L123.645 84.1042L123.755 83.8617L124.085 83.1344L124.196 82.892L124.388 82.4677L124.443 82.3465L124.636 81.9222L124.746 81.8312L125.077 81.558L125.187 81.4669L126.62 80.2832C126.126 79.5589 126.066 79.0308 126.262 77.9126Z" fill="#E2857E"/>
<path d="M124.802 105.482L124.912 105.316L125.022 105.482L124.912 105.649L124.802 105.482Z" fill="#1E1E1E"/>
<path d="M124.802 105.816H125.022L124.912 105.983L125.022 106.149H124.802L124.912 105.983L124.802 105.816Z" fill="#1E1E1E"/>
<path d="M124.802 107.483L124.912 107.316L125.022 107.483L124.912 107.649L124.802 107.483Z" fill="#1E1E1E"/>
<path d="M124.802 107.816H125.022L124.912 107.983L125.022 108.149H124.802L124.912 107.983L124.802 107.816Z" fill="#1E1E1E"/>
<path d="M124.802 109.483L124.912 109.316L125.022 109.483L124.912 109.649L124.802 109.483Z" fill="#1E1E1E"/>
<path d="M124.802 109.816H125.022L124.912 109.983L125.022 110.149H124.802L124.912 109.983L124.802 109.816Z" fill="#1E1E1E"/>
<path d="M124.802 111.483L124.912 111.316L125.022 111.483L124.912 111.65L124.802 111.483Z" fill="#1E1E1E"/>
<path d="M124.802 111.816H125.022L124.912 111.983L125.022 112.15H124.802L124.912 111.983L124.802 111.816Z" fill="#1E1E1E"/>
<path d="M124.802 113.483L124.912 113.316L125.022 113.483L124.912 113.65L124.802 113.483Z" fill="#1E1E1E"/>
<path d="M124.802 113.816H125.022L124.912 113.983L125.022 114.15H124.802L124.912 113.983L124.802 113.816Z" fill="#1E1E1E"/>
<path d="M124.802 115.483L124.912 115.317L125.022 115.483L124.912 115.65L124.802 115.483Z" fill="#1E1E1E"/>
<path d="M124.802 115.817H125.022L124.912 115.983L125.022 116.15H124.802L124.912 115.983L124.802 115.817Z" fill="#1E1E1E"/>
<path d="M124.912 116.317L124.802 116.483L124.912 116.65L125.022 116.483L124.912 116.317Z" fill="#1E1E1E"/>
<path d="M125.022 116.817H124.802L124.912 116.983L125.022 116.817Z" fill="#1E1E1E"/>
<path d="M124.912 116.983L124.802 117.15H125.022L124.912 116.983Z" fill="#1E1E1E"/>
<path d="M125.022 114.816H124.802L124.912 114.983L125.022 114.816Z" fill="#1E1E1E"/>
<path d="M124.912 114.983L124.802 115.15H125.022L124.912 114.983Z" fill="#1E1E1E"/>
<path d="M124.912 114.316L124.802 114.483L124.912 114.65L125.022 114.483L124.912 114.316Z" fill="#1E1E1E"/>
<path d="M124.912 112.983L124.802 113.15H125.022L124.912 112.983Z" fill="#1E1E1E"/>
<path d="M125.022 112.816H124.802L124.912 112.983L125.022 112.816Z" fill="#1E1E1E"/>
<path d="M124.912 112.316L124.802 112.483L124.912 112.65L125.022 112.483L124.912 112.316Z" fill="#1E1E1E"/>
<path d="M124.912 110.983L124.802 111.15H125.022L124.912 110.983Z" fill="#1E1E1E"/>
<path d="M125.022 110.816H124.802L124.912 110.983L125.022 110.816Z" fill="#1E1E1E"/>
<path d="M124.912 110.316L124.802 110.483L124.912 110.65L125.022 110.483L124.912 110.316Z" fill="#1E1E1E"/>
<path d="M124.912 108.983L124.802 109.149H125.022L124.912 108.983Z" fill="#1E1E1E"/>
<path d="M125.022 108.816H124.802L124.912 108.983L125.022 108.816Z" fill="#1E1E1E"/>
<path d="M124.912 108.316L124.802 108.483L124.912 108.649L125.022 108.483L124.912 108.316Z" fill="#1E1E1E"/>
<path d="M124.912 106.983L124.802 107.149H125.022L124.912 106.983Z" fill="#1E1E1E"/>
<path d="M125.022 106.816H124.802L124.912 106.983L125.022 106.816Z" fill="#1E1E1E"/>
<path d="M124.912 106.316L124.802 106.483L124.912 106.649L125.022 106.483L124.912 106.316Z" fill="#1E1E1E"/>
<path d="M124.912 104.982L124.802 105.149H125.022L124.912 104.982Z" fill="#1E1E1E"/>
<path d="M125.022 104.816H124.802L124.912 104.982L125.022 104.816Z" fill="#1E1E1E"/>
<path d="M124.912 104.316L124.802 104.482L124.912 104.649L125.022 104.482L124.912 104.316Z" fill="#1E1E1E"/>
<path d="M121.827 104.111L121.937 103.945L122.047 104.111L121.937 104.278L121.827 104.111Z" fill="#1E1E1E"/>
<path d="M121.827 104.445H122.047L121.937 104.611L122.047 104.778H121.827L121.937 104.611L121.827 104.445Z" fill="#1E1E1E"/>
<path d="M121.827 106.087L121.937 105.921L122.047 106.087L121.937 106.254L121.827 106.087Z" fill="#1E1E1E"/>
<path d="M121.827 106.407H122.047L121.937 106.574L122.047 106.74H121.827L121.937 106.574L121.827 106.407Z" fill="#1E1E1E"/>
<path d="M121.827 108.074L121.937 107.907L122.047 108.074L121.937 108.24L121.827 108.074Z" fill="#1E1E1E"/>
<path d="M121.827 108.407H122.047L121.937 108.574L122.047 108.74H121.827L121.937 108.574L121.827 108.407Z" fill="#1E1E1E"/>
<path d="M121.827 110.074L121.937 109.907L122.047 110.074L121.937 110.24L121.827 110.074Z" fill="#1E1E1E"/>
<path d="M121.827 110.407H122.047L121.937 110.574L122.047 110.741H121.827L121.937 110.574L121.827 110.407Z" fill="#1E1E1E"/>
<path d="M121.827 112.074L121.937 111.907L122.047 112.074L121.937 112.241L121.827 112.074Z" fill="#1E1E1E"/>
<path d="M121.827 112.407H122.047L121.937 112.574L122.047 112.741H121.827L121.937 112.574L121.827 112.407Z" fill="#1E1E1E"/>
<path d="M121.827 114.074L121.937 113.907L122.047 114.074L121.937 114.241L121.827 114.074Z" fill="#1E1E1E"/>
<path d="M121.827 114.407H122.047L121.937 114.574L122.047 114.741H121.827L121.937 114.574L121.827 114.407Z" fill="#1E1E1E"/>
<path d="M121.827 116.074L121.937 115.908L122.047 116.074L121.937 116.241L121.827 116.074Z" fill="#1E1E1E"/>
<path d="M121.937 114.908L121.827 115.074L121.937 115.241L122.047 115.074L121.937 114.908Z" fill="#1E1E1E"/>
<path d="M122.047 115.408H121.827L121.937 115.574L122.047 115.408Z" fill="#1E1E1E"/>
<path d="M121.937 115.574L121.827 115.741H122.047L121.937 115.574Z" fill="#1E1E1E"/>
<path d="M122.047 113.407H121.827L121.937 113.574L122.047 113.407Z" fill="#1E1E1E"/>
<path d="M121.937 113.574L121.827 113.741H122.047L121.937 113.574Z" fill="#1E1E1E"/>
<path d="M121.937 112.907L121.827 113.074L121.937 113.241L122.047 113.074L121.937 112.907Z" fill="#1E1E1E"/>
<path d="M121.937 111.574L121.827 111.741H122.047L121.937 111.574Z" fill="#1E1E1E"/>
<path d="M122.047 111.407H121.827L121.937 111.574L122.047 111.407Z" fill="#1E1E1E"/>
<path d="M121.937 110.907L121.827 111.074L121.937 111.241L122.047 111.074L121.937 110.907Z" fill="#1E1E1E"/>
<path d="M121.937 109.574L121.827 109.74H122.047L121.937 109.574Z" fill="#1E1E1E"/>
<path d="M122.047 109.407H121.827L121.937 109.574L122.047 109.407Z" fill="#1E1E1E"/>
<path d="M121.937 108.907L121.827 109.074L121.937 109.24L122.047 109.074L121.937 108.907Z" fill="#1E1E1E"/>
<path d="M121.937 107.574L121.827 107.74H122.047L121.937 107.574Z" fill="#1E1E1E"/>
<path d="M122.047 107.407H121.827L121.937 107.574L122.047 107.407Z" fill="#1E1E1E"/>
<path d="M121.937 106.907L121.827 107.074L121.937 107.24L122.047 107.074L121.937 106.907Z" fill="#1E1E1E"/>
<path d="M121.937 105.597L121.827 105.764H122.047L121.937 105.597Z" fill="#1E1E1E"/>
<path d="M122.047 105.431H121.827L121.937 105.597L122.047 105.431Z" fill="#1E1E1E"/>
<path d="M121.937 104.931L121.827 105.097L121.937 105.264L122.047 105.097L121.937 104.931Z" fill="#1E1E1E"/>
<path d="M121.937 103.611L121.827 103.778H122.047L121.937 103.611Z" fill="#1E1E1E"/>
<path d="M122.047 103.445H121.827L121.937 103.611L122.047 103.445Z" fill="#1E1E1E"/>
<path d="M121.937 102.945L121.827 103.111L121.937 103.278L122.047 103.111L121.937 102.945Z" fill="#1E1E1E"/>
<path d="M121.827 117.064L121.937 116.897L122.047 117.064L121.937 117.23L121.827 117.064Z" fill="#1E1E1E"/>
<path d="M122.047 116.397H121.827L121.937 116.564L122.047 116.397Z" fill="#1E1E1E"/>
<path d="M121.937 116.564L121.827 116.73H122.047L121.937 116.564Z" fill="#1E1E1E"/>
<path d="M121.771 102.791C121.734 102.771 121.698 102.75 121.661 102.729V117.467L121.771 117.461V102.791Z" fill="#1E1E1E"/>
<path fill-rule="evenodd" clip-rule="evenodd" d="M122.102 102.975C121.99 102.913 121.88 102.852 121.771 102.791V117.461L122.102 117.445V102.975ZM121.827 103.111L121.937 102.945L122.047 103.111L121.937 103.278L121.827 103.111ZM121.827 103.445H122.047L121.937 103.611L122.047 103.778H121.827L121.937 103.611L121.827 103.445ZM121.827 104.111L121.937 103.945L122.047 104.111L121.937 104.278L121.827 104.111ZM121.827 104.445H122.047L121.937 104.611L122.047 104.778H121.827L121.937 104.611L121.827 104.445ZM121.827 105.097L121.937 104.931L122.047 105.097L121.937 105.264L121.827 105.097ZM121.827 105.431H122.047L121.937 105.597L122.047 105.764H121.827L121.937 105.597L121.827 105.431ZM121.827 106.087L121.937 105.921L122.047 106.087L121.937 106.254L121.827 106.087ZM121.827 106.407H122.047L121.937 106.574L122.047 106.74H121.827L121.937 106.574L121.827 106.407ZM121.827 107.074L121.937 106.907L122.047 107.074L121.937 107.24L121.827 107.074ZM121.827 107.407H122.047L121.937 107.574L122.047 107.74H121.827L121.937 107.574L121.827 107.407ZM121.827 108.074L121.937 107.907L122.047 108.074L121.937 108.24L121.827 108.074ZM121.827 108.407H122.047L121.937 108.574L122.047 108.74H121.827L121.937 108.574L121.827 108.407ZM121.827 109.074L121.937 108.907L122.047 109.074L121.937 109.24L121.827 109.074ZM121.827 109.407H122.047L121.937 109.574L122.047 109.74H121.827L121.937 109.574L121.827 109.407ZM121.827 110.074L121.937 109.907L122.047 110.074L121.937 110.24L121.827 110.074ZM121.827 110.407H122.047L121.937 110.574L122.047 110.741H121.827L121.937 110.574L121.827 110.407ZM121.827 111.074L121.937 110.907L122.047 111.074L121.937 111.241L121.827 111.074ZM121.827 111.407H122.047L121.937 111.574L122.047 111.741H121.827L121.937 111.574L121.827 111.407ZM121.827 112.074L121.937 111.907L122.047 112.074L121.937 112.241L121.827 112.074ZM121.827 112.407H122.047L121.937 112.574L122.047 112.741H121.827L121.937 112.574L121.827 112.407ZM121.827 113.074L121.937 112.907L122.047 113.074L121.937 113.241L121.827 113.074ZM121.827 113.407H122.047L121.937 113.574L122.047 113.741H121.827L121.937 113.574L121.827 113.407ZM121.827 114.074L121.937 113.907L122.047 114.074L121.937 114.241L121.827 114.074ZM121.827 114.407H122.047L121.937 114.574L122.047 114.741H121.827L121.937 114.574L121.827 114.407ZM121.827 115.074L121.937 114.908L122.047 115.074L121.937 115.241L121.827 115.074ZM121.827 115.408H122.047L121.937 115.574L122.047 115.741H121.827L121.937 115.574L121.827 115.408ZM121.827 116.074L121.937 115.908L122.047 116.074L121.937 116.241L121.827 116.074ZM121.827 116.397H122.047L121.937 116.564L122.047 116.73H121.827L121.937 116.564L121.827 116.397ZM121.827 117.064L121.937 116.897L122.047 117.064L121.937 117.23L121.827 117.064Z" fill="#E85D5D"/>
<path d="M122.212 103.035C122.175 103.015 122.139 102.995 122.102 102.975V117.445L122.212 117.439V103.035Z" fill="#1E1E1E"/>
<path d="M122.212 103.035V117.439L122.405 117.43V103.138C122.34 103.104 122.276 103.069 122.212 103.035Z" fill="#E85D5D"/>
<path d="M122.46 103.167C122.442 103.158 122.423 103.148 122.405 103.138V117.43L122.46 117.427V103.167Z" fill="#1E1E1E"/>
<path d="M122.653 117.418V103.269C122.588 103.235 122.524 103.201 122.46 103.167V117.427L122.653 117.418Z" fill="#E85D5D"/>
<path fill-rule="evenodd" clip-rule="evenodd" d="M123.755 103.776V117.328L124.196 117.311L124.085 117.314V103.927C124.063 103.917 124.043 103.907 124.03 103.901C123.919 103.851 123.864 103.827 123.755 103.776ZM123.81 104.063L123.92 103.896L124.03 104.063L123.92 104.229L123.81 104.063ZM123.81 104.396H124.03L123.92 104.563L124.03 104.729H123.81L123.92 104.563L123.81 104.396ZM123.81 105.063L123.92 104.896L124.03 105.063L123.92 105.229L123.81 105.063ZM123.81 105.396H124.03L123.92 105.563L124.03 105.729H123.81L123.92 105.563L123.81 105.396ZM123.81 106.063L123.92 105.896L124.03 106.063L123.92 106.23L123.81 106.063ZM123.81 106.396H124.03L123.92 106.563L124.03 106.73H123.81L123.92 106.563L123.81 106.396ZM123.81 107.063L123.92 106.896L124.03 107.063L123.92 107.23L123.81 107.063ZM123.81 107.396H124.03L123.92 107.563L124.03 107.73H123.81L123.92 107.563L123.81 107.396ZM123.81 108.063L123.92 107.896L124.03 108.063L123.92 108.23L123.81 108.063ZM123.81 108.396H124.03L123.92 108.563L124.03 108.73H123.81L123.92 108.563L123.81 108.396ZM123.81 109.063L123.92 108.896L124.03 109.063L123.92 109.23L123.81 109.063ZM123.81 109.396H124.03L123.92 109.563L124.03 109.73H123.81L123.92 109.563L123.81 109.396ZM123.81 110.063L123.92 109.896L124.03 110.063L123.92 110.23L123.81 110.063ZM123.81 110.396H124.03L123.92 110.563L124.03 110.73H123.81L123.92 110.563L123.81 110.396ZM123.81 111.063L123.92 110.897L124.03 111.063L123.92 111.23L123.81 111.063ZM123.81 111.397H124.03L123.92 111.563L124.03 111.73H123.81L123.92 111.563L123.81 111.397ZM123.81 112.063L123.92 111.897L124.03 112.063L123.92 112.23L123.81 112.063ZM123.81 112.397H124.03L123.92 112.563L124.03 112.73H123.81L123.92 112.563L123.81 112.397ZM123.81 113.063L123.92 112.897L124.03 113.063L123.92 113.23L123.81 113.063ZM123.81 113.397H124.03L123.92 113.563L124.03 113.73H123.81L123.92 113.563L123.81 113.397ZM123.81 114.063L123.92 113.897L124.03 114.063L123.92 114.23L123.81 114.063ZM123.81 114.397H124.03L123.92 114.563L124.03 114.73H123.81L123.92 114.563L123.81 114.397ZM123.81 115.064L123.92 114.897L124.03 115.064L123.92 115.23L123.81 115.064ZM123.81 115.397H124.03L123.92 115.564L124.03 115.73H123.81L123.92 115.564L123.81 115.397ZM123.81 116.064L123.92 115.897L124.03 116.064L123.92 116.23L123.81 116.064ZM123.81 116.397H124.03L123.92 116.564L124.03 116.73H123.81L123.92 116.564L123.81 116.397ZM123.81 117.064L123.92 116.897L124.03 117.064L123.92 117.23L123.81 117.064Z" fill="#E85D5D"/>
<path d="M124.196 103.979C124.172 103.969 124.125 103.946 124.085 103.927V117.314L124.196 117.311V103.979Z" fill="#1E1E1E"/>
<path d="M124.306 104.029C124.269 104.012 124.233 103.996 124.196 103.979V117.311L124.388 117.303V104.065C124.388 104.065 124.333 104.041 124.306 104.029Z" fill="#E85D5D"/>
<path d="M124.388 104.065V117.303L124.443 117.301V104.088C124.408 104.073 124.388 104.065 124.388 104.065Z" fill="#1E1E1E"/>
<path d="M124.443 104.088V117.301L124.636 117.293V104.164C124.551 104.131 124.486 104.104 124.443 104.088Z" fill="#E85D5D"/>
<path d="M124.636 104.164V117.293L124.746 117.289V104.208C124.707 104.192 124.67 104.178 124.636 104.164Z" fill="#1E1E1E"/>
<path fill-rule="evenodd" clip-rule="evenodd" d="M124.746 104.208V117.289L125.077 117.275V104.337C124.953 104.289 124.841 104.245 124.746 104.208ZM124.802 104.482L124.912 104.316L125.022 104.482L124.912 104.649L124.802 104.482ZM124.802 104.816H125.022L124.912 104.982L125.022 105.149H124.802L124.912 104.982L124.802 104.816ZM124.802 105.482L124.912 105.316L125.022 105.482L124.912 105.649L124.802 105.482ZM124.802 105.816H125.022L124.912 105.983L125.022 106.149H124.802L124.912 105.983L124.802 105.816ZM124.802 106.483L124.912 106.316L125.022 106.483L124.912 106.649L124.802 106.483ZM124.802 106.816H125.022L124.912 106.983L125.022 107.149H124.802L124.912 106.983L124.802 106.816ZM124.802 107.483L124.912 107.316L125.022 107.483L124.912 107.649L124.802 107.483ZM124.802 107.816H125.022L124.912 107.983L125.022 108.149H124.802L124.912 107.983L124.802 107.816ZM124.802 108.483L124.912 108.316L125.022 108.483L124.912 108.649L124.802 108.483ZM124.802 108.816H125.022L124.912 108.983L125.022 109.149H124.802L124.912 108.983L124.802 108.816ZM124.802 109.483L124.912 109.316L125.022 109.483L124.912 109.649L124.802 109.483ZM124.802 109.816H125.022L124.912 109.983L125.022 110.149H124.802L124.912 109.983L124.802 109.816ZM124.802 110.483L124.912 110.316L125.022 110.483L124.912 110.65L124.802 110.483ZM124.802 110.816H125.022L124.912 110.983L125.022 111.15H124.802L124.912 110.983L124.802 110.816ZM124.802 111.483L124.912 111.316L125.022 111.483L124.912 111.65L124.802 111.483ZM124.802 111.816H125.022L124.912 111.983L125.022 112.15H124.802L124.912 111.983L124.802 111.816ZM124.802 112.483L124.912 112.316L125.022 112.483L124.912 112.65L124.802 112.483ZM124.802 112.816H125.022L124.912 112.983L125.022 113.15H124.802L124.912 112.983L124.802 112.816ZM124.802 113.483L124.912 113.316L125.022 113.483L124.912 113.65L124.802 113.483ZM124.802 113.816H125.022L124.912 113.983L125.022 114.15H124.802L124.912 113.983L124.802 113.816ZM124.802 114.483L124.912 114.316L125.022 114.483L124.912 114.65L124.802 114.483ZM124.802 114.816H125.022L124.912 114.983L125.022 115.15H124.802L124.912 114.983L124.802 114.816ZM124.802 115.483L124.912 115.317L125.022 115.483L124.912 115.65L124.802 115.483ZM124.802 115.817H125.022L124.912 115.983L125.022 116.15H124.802L124.912 115.983L124.802 115.817ZM124.802 116.483L124.912 116.317L125.022 116.483L124.912 116.65L124.802 116.483ZM124.802 116.817H125.022L124.912 116.983L125.022 117.15H124.802L124.912 116.983L124.802 116.817Z" fill="#E85D5D"/>
<path d="M125.077 104.337V117.275L125.187 117.271V104.38C125.149 104.365 125.113 104.351 125.077 104.337Z" fill="#1E1E1E"/>
<path d="M113.768 96.6464C114.19 95.9014 114.807 95.3461 115.682 95.5564C116.398 95.7282 117.09 96.0512 117.695 96.4105C117.713 96.4214 117.731 96.4324 117.75 96.4435C117.923 96.5481 118.089 96.6554 118.246 96.7627C118.812 97.1506 119.259 97.5378 119.511 97.7925C120.094 97.6772 120.873 97.5167 121.661 97.345V81.1139L121.028 80.4499C120.393 81.0126 119.265 80.8666 119.265 80.8666C118.909 80.9605 118.569 81.0516 118.246 81.1406C118.076 81.1871 117.911 81.2331 117.75 81.2786C117.731 81.2838 117.713 81.289 117.695 81.2941C114.306 82.2541 112.778 82.9932 111.954 84.3756C111.177 85.8468 109.742 89.1163 108.692 92.4602L111.638 91.612C111.315 93.0993 111.148 94.3397 111.148 94.6416C112.599 94.7229 113.499 96.012 113.768 96.6464Z" fill="#F9F6EE"/>
<path d="M132.106 100.435C131.804 99.0122 130.998 95.9629 131.3 92.812L137.352 96.4711C137.382 92.0473 137.684 87.1609 137.245 85.697C136.734 83.9973 136.246 83.361 132.652 81.9222L126.62 80.2832L125.187 81.4669V96.307C125.914 95.8828 127.952 95.1078 128.713 96.3484C128.737 96.3873 128.76 96.4282 128.781 96.4711C129.426 97.7722 129.184 98.9106 128.982 99.3172L128.713 99.4211V100.136C130.18 100.097 131.679 100.166 132.106 100.435Z" fill="#F9F6EE"/>
<path d="M133.819 116.901C133.013 116.17 132.341 109.414 132.106 106.127C130.985 106.073 129.839 105.877 128.713 105.59C127.716 105.335 126.136 104.747 125.187 104.38V117.271L128.713 117.13L133.819 116.901Z" fill="#F9F6EE"/>
<path d="M114.574 103.858L113.365 117.816L118.246 117.598L121.661 117.467V102.729C121.287 102.517 120.94 102.272 120.62 102.075C120.108 102.662 119.265 103.106 118.246 103.405C118.084 103.453 117.919 103.496 117.75 103.536C117.731 103.54 117.713 103.545 117.695 103.549C116.736 103.769 115.659 103.873 114.574 103.858Z" fill="#F9F6EE"/>
<path d="M128.713 99.4211L126.463 100.29C127.071 100.215 127.887 100.158 128.713 100.136V99.4211Z" fill="#F9F6EE"/>
</svg>
