<svg width="117" height="117" viewBox="0 0 117 117" fill="none" xmlns="http://www.w3.org/2000/svg">
<rect width="117" height="117" fill="white"/>
<path d="M98.6831 3.00001H88.2429C88.723 3.5457 88.9063 4.13775 88.7766 4.72401C88.6469 5.31026 88.2082 5.87274 87.4991 6.36187C86.79 6.85101 85.8323 7.2518 84.7104 7.52893C83.5885 7.80607 82.3368 7.95104 81.0655 7.95109H35.2454C33.9742 7.95104 32.7225 7.80607 31.6006 7.52893C30.4786 7.2518 29.521 6.851 28.8119 6.36187C28.1028 5.87273 27.6641 5.31026 27.5344 4.724C27.4046 4.13774 27.5879 3.54569 28.068 3H18.3169C13.9894 3 9.83912 3.79695 6.77911 5.21554C3.7191 6.63412 2.00001 8.55813 2 10.5643V106.436C2 107.429 2.42205 108.413 3.24204 109.33C4.06204 110.248 5.26393 111.082 6.77909 111.784C8.29425 112.487 10.093 113.044 12.0727 113.424C14.0523 113.804 16.1741 114 18.3169 114H98.6831C100.826 114 102.948 113.804 104.927 113.424C106.907 113.044 108.706 112.487 110.221 111.784C111.736 111.082 112.938 110.248 113.758 109.33C114.578 108.413 115 107.429 115 106.436V10.5643C115 9.57096 114.578 8.58733 113.758 7.66959C112.938 6.75184 111.736 5.91796 110.221 5.21554C108.706 4.51313 106.907 3.95595 104.927 3.57581C102.948 3.19567 100.826 3.00001 98.6831 3.00001Z" fill="#4CA7FC"/>
<path d="M12.5 66C12.3674 66 12.2402 65.963 12.1464 65.8971C12.0527 65.8312 12 65.7418 12 65.6486V53.3514C12 53.2582 12.0527 53.1688 12.1464 53.1029C12.2402 53.037 12.3674 53 12.5 53C12.6326 53 12.7598 53.037 12.8536 53.1029C12.9473 53.1688 13 53.2582 13 53.3514V65.6486C13 65.7418 12.9473 65.8312 12.8536 65.8971C12.7598 65.963 12.6326 66 12.5 66Z" fill="white"/>
<path d="M14.5 67C14.3674 67 14.2402 66.9649 14.1464 66.9024C14.0527 66.8399 14 66.7551 14 66.6667V51.3333C14 51.2449 14.0527 51.1601 14.1464 51.0976C14.2402 51.0351 14.3674 51 14.5 51C14.6326 51 14.7598 51.0351 14.8535 51.0976C14.9473 51.1601 15 51.2449 15 51.3333V66.6667C15 66.7551 14.9473 66.8399 14.8535 66.9024C14.7598 66.9649 14.6326 67 14.5 67Z" fill="white"/>
<path d="M19.5 72C19.3674 72 19.2402 71.9639 19.1464 71.8997C19.0527 71.8355 19 71.7484 19 71.6575V47.3425C19 47.2516 19.0527 47.1645 19.1464 47.1003C19.2402 47.0361 19.3674 47 19.5 47C19.6326 47 19.7598 47.0361 19.8535 47.1003C19.9473 47.1645 20 47.2516 20 47.3425V71.6575C20 71.7484 19.9473 71.8355 19.8535 71.8997C19.7598 71.9639 19.6326 72 19.5 72Z" fill="white"/>
<path d="M21.5 77C21.3674 77 21.2402 76.9631 21.1464 76.8975C21.0527 76.8318 21 76.7428 21 76.65V42.35C21 42.2572 21.0527 42.1681 21.1464 42.1025C21.2402 42.0369 21.3674 42 21.5 42C21.6326 42 21.7598 42.0369 21.8535 42.1025C21.9473 42.1681 22 42.2572 22 42.35V76.65C22 76.7428 21.9473 76.8318 21.8535 76.8975C21.7598 76.9631 21.6326 77 21.5 77Z" fill="white"/>
<path d="M26.5 74C26.3674 74 26.2402 73.9632 26.1464 73.8978C26.0527 73.8324 26 73.7437 26 73.6512V44.3488C26 44.2563 26.0527 44.1676 26.1464 44.1022C26.2402 44.0367 26.3674 44 26.5 44C26.6326 44 26.7598 44.0367 26.8535 44.1022C26.9473 44.1676 27 44.2563 27 44.3488V73.6512C27 73.7437 26.9473 73.8324 26.8535 73.8978C26.7598 73.9632 26.6326 74 26.5 74Z" fill="white"/>
<path d="M31.5 70C31.3674 70 31.2402 69.9631 31.1464 69.8975C31.0527 69.8318 31 69.7428 31 69.65V49.35C31 49.2572 31.0527 49.1681 31.1464 49.1025C31.2402 49.0369 31.3674 49 31.5 49C31.6326 49 31.7598 49.0369 31.8535 49.1025C31.9473 49.1681 32 49.2572 32 49.35V69.65C32 69.7428 31.9473 69.8318 31.8535 69.8975C31.7598 69.9631 31.6326 70 31.5 70Z" fill="white"/>
<path d="M35.5 66C35.3674 66 35.2402 65.963 35.1464 65.8971C35.0527 65.8312 35 65.7418 35 65.6486V53.3514C35 53.2582 35.0527 53.1688 35.1464 53.1029C35.2402 53.037 35.3674 53 35.5 53C35.6326 53 35.7598 53.037 35.8535 53.1029C35.9473 53.1688 36 53.2582 36 53.3514V65.6486C36 65.7418 35.9473 65.8312 35.8535 65.8971C35.7598 65.963 35.6326 66 35.5 66Z" fill="white"/>
<path d="M38.5 67C38.3674 67 38.2402 66.9649 38.1464 66.9024C38.0527 66.8399 38 66.7551 38 66.6667V51.3333C38 51.2449 38.0527 51.1601 38.1464 51.0976C38.2402 51.0351 38.3674 51 38.5 51C38.6326 51 38.7598 51.0351 38.8535 51.0976C38.9473 51.1601 39 51.2449 39 51.3333V66.6667C39 66.7551 38.9473 66.8399 38.8535 66.9024C38.7598 66.9649 38.6326 67 38.5 67Z" fill="white"/>
<path d="M45.5 82C45.3674 82 45.2402 81.9633 45.1464 81.8979C45.0527 81.8326 45 81.7439 45 81.6515V36.3485C45 36.2561 45.0527 36.1674 45.1464 36.1021C45.2402 36.0367 45.3674 36 45.5 36C45.6326 36 45.7598 36.0367 45.8535 36.1021C45.9473 36.1674 46 36.2561 46 36.3485V81.6515C46 81.7439 45.9473 81.8326 45.8535 81.8979C45.7598 81.9633 45.6326 82 45.5 82Z" fill="white"/>
<path d="M52.5 68C52.3674 68 52.2402 67.9635 52.1464 67.8986C52.0527 67.8337 52 67.7457 52 67.6538V50.3462C52 50.2543 52.0527 50.1663 52.1464 50.1014C52.2402 50.0365 52.3674 50 52.5 50C52.6326 50 52.7598 50.0365 52.8535 50.1014C52.9473 50.1663 53 50.2543 53 50.3462V67.6538C53 67.7457 52.9473 67.8337 52.8535 67.8986C52.7598 67.9635 52.6326 68 52.5 68Z" fill="white"/>
<path d="M57.5 66C57.3674 66 57.2402 65.963 57.1464 65.8971C57.0527 65.8312 57 65.7418 57 65.6486V53.3514C57 53.2582 57.0527 53.1688 57.1464 53.1029C57.2402 53.037 57.3674 53 57.5 53C57.6326 53 57.7598 53.037 57.8535 53.1029C57.9473 53.1688 58 53.2582 58 53.3514V65.6486C58 65.7418 57.9473 65.8312 57.8535 65.8971C57.7598 65.963 57.6326 66 57.5 66Z" fill="white"/>
<path d="M59.5 66C59.3674 66 59.2402 65.963 59.1464 65.8971C59.0527 65.8312 59 65.7418 59 65.6486V53.3514C59 53.2582 59.0527 53.1688 59.1464 53.1029C59.2402 53.037 59.3674 53 59.5 53C59.6326 53 59.7598 53.037 59.8535 53.1029C59.9473 53.1688 60 53.2582 60 53.3514V65.6486C60 65.7418 59.9473 65.8312 59.8535 65.8971C59.7598 65.963 59.6326 66 59.5 66Z" fill="white"/>
<path d="M66.5 72C66.3674 72 66.2402 71.9639 66.1464 71.8997C66.0527 71.8355 66 71.7484 66 71.6575V47.3425C66 47.2516 66.0527 47.1645 66.1464 47.1003C66.2402 47.0361 66.3674 47 66.5 47C66.6326 47 66.7598 47.0361 66.8535 47.1003C66.9473 47.1645 67 47.2516 67 47.3425V71.6575C67 71.7484 66.9473 71.8355 66.8535 71.8997C66.7598 71.9639 66.6326 72 66.5 72Z" fill="white"/>
<path d="M69.5 77C69.3674 77 69.2402 76.9631 69.1464 76.8975C69.0527 76.8318 69 76.7428 69 76.65V42.35C69 42.2572 69.0527 42.1681 69.1464 42.1025C69.2402 42.0369 69.3674 42 69.5 42C69.6326 42 69.7598 42.0369 69.8535 42.1025C69.9473 42.1681 70 42.2572 70 42.35V76.65C70 76.7428 69.9473 76.8318 69.8535 76.8975C69.7598 76.9631 69.6326 77 69.5 77Z" fill="white"/>
<path d="M70.5 92C70.3674 92 70.2402 91.9637 70.1464 91.899C70.0527 91.8343 70 91.7466 70 91.6552V27.3448C70 27.2534 70.0527 27.1657 70.1464 27.101C70.2402 27.0363 70.3674 27 70.5 27C70.6326 27 70.7598 27.0363 70.8535 27.101C70.9473 27.1657 71 27.2534 71 27.3448V91.6552C71 91.7466 70.9473 91.8343 70.8535 91.899C70.7598 91.9637 70.6326 92 70.5 92Z" fill="#FFC122"/>
<path d="M71.5 72C71.3674 72 71.2402 71.9639 71.1464 71.8997C71.0527 71.8355 71 71.7484 71 71.6575V47.3425C71 47.2516 71.0527 47.1645 71.1464 47.1003C71.2402 47.0361 71.3674 47 71.5 47C71.6326 47 71.7598 47.0361 71.8535 47.1003C71.9473 47.1645 72 47.2516 72 47.3425V71.6575C72 71.7484 71.9473 71.8355 71.8535 71.8997C71.7598 71.9639 71.6326 72 71.5 72Z" fill="white"/>
<path d="M76.5 68C76.3674 68 76.2402 67.9635 76.1464 67.8986C76.0527 67.8337 76 67.7457 76 67.6538V50.3462C76 50.2543 76.0527 50.1663 76.1464 50.1014C76.2402 50.0365 76.3674 50 76.5 50C76.6326 50 76.7598 50.0365 76.8535 50.1014C76.9473 50.1663 77 50.2543 77 50.3462V67.6538C77 67.7457 76.9473 67.8337 76.8535 67.8986C76.7598 67.9635 76.6326 68 76.5 68Z" fill="white"/>
<path d="M78.5 70C78.3674 70 78.2402 69.9631 78.1464 69.8975C78.0527 69.8318 78 69.7428 78 69.65V49.35C78 49.2572 78.0527 49.1681 78.1464 49.1025C78.2402 49.0369 78.3674 49 78.5 49C78.6326 49 78.7598 49.0369 78.8535 49.1025C78.9473 49.1681 79 49.2572 79 49.35V69.65C79 69.7428 78.9473 69.8318 78.8535 69.8975C78.7598 69.9631 78.6326 70 78.5 70Z" fill="white"/>
<path d="M83.5 66C83.3674 66 83.2402 65.963 83.1464 65.8971C83.0527 65.8312 83 65.7418 83 65.6486V53.3514C83 53.2582 83.0527 53.1688 83.1464 53.1029C83.2402 53.037 83.3674 53 83.5 53C83.6326 53 83.7598 53.037 83.8535 53.1029C83.9473 53.1688 84 53.2582 84 53.3514V65.6486C84 65.7418 83.9473 65.8312 83.8535 65.8971C83.7598 65.963 83.6326 66 83.5 66Z" fill="white"/>
<path d="M85.5 67C85.3674 67 85.2402 66.9649 85.1464 66.9024C85.0527 66.8399 85 66.7551 85 66.6667V51.3333C85 51.2449 85.0527 51.1601 85.1464 51.0976C85.2402 51.0351 85.3674 51 85.5 51C85.6326 51 85.7598 51.0351 85.8535 51.0976C85.9473 51.1601 86 51.2449 86 51.3333V66.6667C86 66.7551 85.9473 66.8399 85.8535 66.9024C85.7598 66.9649 85.6326 67 85.5 67Z" fill="white"/>
<path d="M90.5 72C90.3674 72 90.2402 71.9639 90.1464 71.8997C90.0527 71.8355 90 71.7484 90 71.6575V47.3425C90 47.2516 90.0527 47.1645 90.1464 47.1003C90.2402 47.0361 90.3674 47 90.5 47C90.6326 47 90.7598 47.0361 90.8535 47.1003C90.9473 47.1645 91 47.2516 91 47.3425V71.6575C91 71.7484 90.9473 71.8355 90.8535 71.8997C90.7598 71.9639 90.6326 72 90.5 72Z" fill="white"/>
<path d="M92.5 82C92.3674 82 92.2402 81.9633 92.1464 81.8979C92.0527 81.8326 92 81.7439 92 81.6515V36.3485C92 36.2561 92.0527 36.1674 92.1464 36.1021C92.2402 36.0367 92.3674 36 92.5 36C92.6326 36 92.7598 36.0367 92.8535 36.1021C92.9473 36.1674 93 36.2561 93 36.3485V81.6515C93 81.7439 92.9473 81.8326 92.8535 81.8979C92.7598 81.9633 92.6326 82 92.5 82Z" fill="white"/>
<path d="M97.5 74C97.3674 74 97.2402 73.9632 97.1464 73.8978C97.0527 73.8324 97 73.7437 97 73.6512V44.3488C97 44.2563 97.0527 44.1676 97.1464 44.1022C97.2402 44.0367 97.3674 44 97.5 44C97.6326 44 97.7598 44.0367 97.8535 44.1022C97.9473 44.1676 98 44.2563 98 44.3488V73.6512C98 73.7437 97.9473 73.8324 97.8535 73.8978C97.7598 73.9632 97.6326 74 97.5 74Z" fill="white"/>
<path d="M99.5 68C99.3674 68 99.2402 67.9635 99.1464 67.8986C99.0527 67.8337 99 67.7457 99 67.6538V50.3462C99 50.2543 99.0527 50.1663 99.1464 50.1014C99.2402 50.0365 99.3674 50 99.5 50C99.6326 50 99.7598 50.0365 99.8535 50.1014C99.9473 50.1663 100 50.2543 100 50.3462V67.6538C100 67.7457 99.9473 67.8337 99.8535 67.8986C99.7598 67.9635 99.6326 68 99.5 68Z" fill="white"/>
<path d="M102.5 70C102.367 70 102.24 69.9631 102.146 69.8975C102.053 69.8318 102 69.7428 102 69.65V49.35C102 49.2572 102.053 49.1681 102.146 49.1025C102.24 49.0369 102.367 49 102.5 49C102.633 49 102.76 49.0369 102.854 49.1025C102.947 49.1681 103 49.2572 103 49.35V69.65C103 69.7428 102.947 69.8318 102.854 69.8975C102.76 69.9631 102.633 70 102.5 70Z" fill="white"/>
<path d="M88.5912 101H28.4076C28.2994 101 28.1957 100.947 28.1193 100.853C28.0429 100.759 28 100.632 28 100.5C28 100.368 28.0429 100.241 28.1193 100.147C28.1957 100.053 28.2994 100 28.4076 100H88.5912C88.6996 100 88.8036 100.053 88.8803 100.146C88.9569 100.24 89 100.367 89 100.5C89 100.633 88.9569 100.76 88.8803 100.854C88.8036 100.947 88.6996 101 88.5912 101V101Z" fill="white"/>
</svg>
