<svg width="118" height="117" viewBox="0 0 118 117" fill="none" xmlns="http://www.w3.org/2000/svg">
<g clip-path="url(#clip0_1661_16384)">
<path d="M83.6581 116.599C82.8187 116.598 81.9931 116.35 81.2577 115.879L12.9677 72.368C11.8015 71.6229 10.9365 70.3693 10.5626 68.8821C10.1887 67.3949 10.3364 65.7957 10.9733 64.4353L39.7921 3.04336C40.1082 2.36991 40.5351 1.7756 41.0484 1.29435C41.5617 0.81311 42.1513 0.454365 42.7836 0.238601C43.4158 0.0228359 44.0784 -0.0457225 44.7334 0.0368399C45.3885 0.119402 46.0231 0.351469 46.6011 0.719788L114.891 44.2311C116.057 44.9761 116.922 46.2298 117.296 47.717C117.67 49.2041 117.522 50.8034 116.886 52.1638L88.0667 113.556C87.7521 114.23 87.3256 114.826 86.8122 115.307C86.2987 115.789 85.7083 116.147 85.0753 116.36C84.615 116.518 84.1378 116.598 83.6581 116.599ZM81.6704 115C82.6377 115.617 83.7755 115.76 84.8335 115.399C85.8915 115.038 86.7831 114.202 87.3122 113.075L116.131 51.683C116.659 50.5558 116.781 49.2307 116.471 47.9985C116.161 46.7662 115.445 45.7275 114.478 45.1101L46.1885 1.59882C45.2212 0.982544 44.0834 0.839166 43.0253 1.20023C41.9673 1.56129 41.0757 2.39722 40.5467 3.52414L11.7279 64.916C11.2002 66.0433 11.0778 67.3684 11.3876 68.6006C11.6974 69.8328 12.4141 70.8716 13.3804 71.489L81.6704 115Z" fill="#F2F2F2"/>
<path d="M85.0661 95.1269C84.2804 95.1263 83.5074 94.8956 82.8181 94.4561L27.6077 59.2785C27.0705 58.937 26.5964 58.4755 26.2125 57.9203C25.8287 57.3651 25.5425 56.7271 25.3705 56.0429C25.1985 55.3587 25.144 54.6417 25.2101 53.933C25.2762 53.2242 25.4616 52.5376 25.7557 51.9124L42.9672 15.2473C43.2607 14.6219 43.6571 14.07 44.1337 13.6231C44.6103 13.1762 45.1578 12.843 45.7449 12.6427C46.3321 12.4423 46.9473 12.3786 47.5556 12.4553C48.1638 12.532 48.7531 12.7476 49.2899 13.0896L104.5 48.2672C105.037 48.6091 105.511 49.0709 105.894 49.6262C106.278 50.1815 106.564 50.8193 106.736 51.5033C106.908 52.1874 106.963 52.9042 106.897 53.6128C106.831 54.3214 106.646 55.008 106.352 55.6333L106.289 55.5933L106.352 55.6333L89.1409 92.2985C88.7429 93.1534 88.1544 93.8674 87.4372 94.3652C86.7201 94.863 85.9009 95.1261 85.0661 95.1269Z" fill="#F2F2F2"/>
<path d="M83.3524 116.582H5.51702C4.2819 116.58 3.09777 116.008 2.2244 114.991C1.35104 113.973 0.859769 112.594 0.858368 111.155V41.1814C0.859769 39.7425 1.35104 38.3629 2.2244 37.3454C3.09777 36.3279 4.2819 35.7555 5.51702 35.7539H83.3524C84.5876 35.7555 85.7717 36.3279 86.6451 37.3454C87.5184 38.3629 88.0097 39.7425 88.0111 41.1814V111.155C88.0097 112.594 87.5184 113.973 86.6451 114.991C85.7717 116.008 84.5876 116.58 83.3524 116.582Z" fill="#FCFDFD"/>
<path d="M83.3524 117H5.51702C4.18688 116.998 2.91165 116.382 1.9711 115.286C1.03056 114.19 0.501497 112.705 0.5 111.155V41.1819C0.501497 39.6323 1.03056 38.1466 1.9711 37.0508C2.91165 35.955 4.18688 35.3387 5.51702 35.3369H83.3524C84.6826 35.3387 85.9578 35.955 86.8983 37.0508C87.8389 38.1466 88.3679 39.6323 88.3694 41.1819V111.155C88.3679 112.705 87.8389 114.19 86.8983 115.286C85.9578 116.382 84.6826 116.998 83.3524 117ZM5.51702 36.3389C4.4149 36.3404 3.35829 36.8511 2.57898 37.759C1.79967 38.6669 1.3613 39.8979 1.36006 41.1819V111.155C1.3613 112.439 1.79967 113.67 2.57898 114.578C3.35829 115.486 4.4149 115.997 5.51702 115.998H83.3524C84.4545 115.997 85.5111 115.486 86.2905 114.578C87.0698 113.67 87.5081 112.439 87.5094 111.155V41.1819C87.5081 39.8979 87.0698 38.6669 86.2905 37.759C85.5111 36.8511 84.4545 36.3404 83.3524 36.3389H5.51702Z" fill="#E6E6E6"/>
<path d="M56.5476 58.7647C55.6434 58.7639 54.7513 59.0076 53.9417 59.4766C53.132 59.9457 52.4268 60.6273 51.8816 61.4677C51.2964 61.1743 50.6579 61.0548 50.0233 61.12C49.3887 61.1851 48.7779 61.4328 48.2457 61.8408C47.7136 62.2489 47.2767 62.8045 46.9744 63.4578C46.672 64.1111 46.5137 64.8417 46.5135 65.5839H62.4008C62.4008 64.6884 62.2494 63.8016 61.9553 62.9743C61.6611 62.1469 61.23 61.3952 60.6865 60.762C60.1429 60.1287 59.4977 59.6264 58.7876 59.2837C58.0774 58.941 57.3163 58.7646 56.5476 58.7647Z" fill="#E6E6E6"/>
<path d="M21.743 85.4571C26.9488 85.4571 31.1689 80.5406 31.1689 74.4756C31.1689 68.4107 26.9488 63.4941 21.743 63.4941C16.5372 63.4941 12.3171 68.4107 12.3171 74.4756C12.3171 80.5406 16.5372 85.4571 21.743 85.4571Z" fill="#4CA7FC"/>
<path d="M76.9536 97.1073C76.6078 97.2022 76.2538 97.2498 75.8986 97.2492H12.9709C12.1959 97.2507 11.4333 97.0226 10.7548 96.5862L10.9225 96.3057L17.9434 84.5271L28.3473 67.0772L28.4993 66.8217L30.1362 64.0762C30.2462 63.8915 30.393 63.7405 30.564 63.6363C30.735 63.532 30.9251 63.4775 31.1181 63.4775C31.3111 63.4775 31.5013 63.532 31.6723 63.6363C31.8433 63.7405 31.99 63.8915 32.1001 64.0762L37.5385 73.1961V73.1978L40.7379 78.5652L48.3753 91.3741L59.9588 72.1106C60.0691 71.9269 60.2158 71.7769 60.3865 71.6733C60.5572 71.5698 60.7468 71.5157 60.9393 71.5157C61.1317 71.5157 61.3213 71.5698 61.492 71.6733C61.6627 71.7769 61.8094 71.9269 61.9197 72.1106L69.3506 84.467L69.7778 85.1767L76.9536 97.1073Z" fill="#3F3D56"/>
<path d="M44.0376 70.1514C42.922 70.1504 41.8214 70.4511 40.8225 71.0298C39.8235 71.6085 38.9535 72.4494 38.2809 73.4863C37.5589 73.1243 36.771 72.9769 35.9881 73.0573C35.2051 73.1376 34.4515 73.4432 33.795 73.9466C33.1384 74.4501 32.5995 75.1356 32.2265 75.9416C31.8535 76.7476 31.6581 77.649 31.6579 78.5647H51.2591C51.2591 77.4598 51.0723 76.3658 50.7094 75.345C50.3465 74.3243 49.8145 73.3968 49.144 72.6156C48.4734 71.8343 47.6773 71.2146 46.8011 70.7918C45.925 70.369 44.9859 70.1514 44.0376 70.1514Z" fill="#CCCCCC"/>
<path d="M75.8986 97.4157H12.9709C12.3495 97.4163 11.7341 97.2742 11.16 96.9975C10.5858 96.7208 10.0641 96.3149 9.62476 95.803C9.1854 95.2911 8.83699 94.6833 8.59947 94.0144C8.36194 93.3455 8.23998 92.6286 8.24054 91.9047V50.1145C8.24196 48.6534 8.74079 47.2526 9.62759 46.2195C10.5144 45.1863 11.7167 44.6052 12.9709 44.6035H75.8986C77.1527 44.6052 78.355 45.1863 79.2418 46.2195C80.1286 47.2526 80.6275 48.6534 80.6289 50.1145V91.9047C80.6296 92.6286 80.5077 93.3456 80.2703 94.0146C80.0328 94.6836 79.6844 95.2915 79.245 95.8034C78.8056 96.3153 78.2839 96.7212 77.7096 96.9979C77.1354 97.2745 76.52 97.4165 75.8986 97.4157ZM12.9709 44.9375C11.7928 44.9391 10.6633 45.485 9.83021 46.4555C8.99716 47.4261 8.52856 48.742 8.52723 50.1145V91.9047C8.52668 92.5847 8.64124 93.2582 8.86436 93.8866C9.08748 94.515 9.41477 95.0859 9.82751 95.5668C10.2402 96.0477 10.7303 96.429 11.2697 96.6889C11.8091 96.9489 12.3872 97.0823 12.9709 97.0817H75.8986C76.4823 97.0825 77.0604 96.9491 77.5999 96.6892C78.1393 96.4293 78.6294 96.048 79.0422 95.5672C79.455 95.0863 79.7823 94.5152 80.0053 93.8868C80.2284 93.2583 80.3429 92.5848 80.3422 91.9047V50.1145C80.3409 48.742 79.8723 47.4261 79.0392 46.4555C78.2062 45.485 77.0767 44.9391 75.8986 44.9375H12.9709Z" fill="#3F3D56"/>
</g>
<defs>
<clipPath id="clip0_1661_16384">
<rect width="117" height="117" fill="white" transform="translate(0.5)"/>
</clipPath>
</defs>
</svg>
