<svg width="118" height="117" viewBox="0 0 118 117" fill="none" xmlns="http://www.w3.org/2000/svg">
<rect width="117" height="117" transform="translate(0.5)" fill="white"/>
<path d="M99.1831 3.00001H88.7429C89.223 3.5457 89.4063 4.13775 89.2766 4.72401C89.1469 5.31026 88.7082 5.87274 87.9991 6.36187C87.29 6.85101 86.3323 7.2518 85.2104 7.52893C84.0885 7.80607 82.8368 7.95104 81.5655 7.95109H35.7454C34.4742 7.95104 33.2225 7.80607 32.1006 7.52893C30.9786 7.2518 30.021 6.851 29.3119 6.36187C28.6028 5.87273 28.1641 5.31026 28.0344 4.724C27.9046 4.13774 28.0879 3.54569 28.568 3H18.8169C14.4894 3 10.3391 3.79695 7.27911 5.21554C4.2191 6.63412 2.50001 8.55813 2.5 10.5643V106.436C2.5 107.429 2.92205 108.413 3.74204 109.33C4.56204 110.248 5.76393 111.082 7.27909 111.784C8.79425 112.487 10.593 113.044 12.5727 113.424C14.5523 113.804 16.6741 114 18.8169 114H99.1831C101.326 114 103.448 113.804 105.427 113.424C107.407 113.044 109.206 112.487 110.721 111.784C112.236 111.082 113.438 110.248 114.258 109.33C115.078 108.413 115.5 107.429 115.5 106.436V10.5643C115.5 9.57096 115.078 8.58733 114.258 7.66959C113.438 6.75184 112.236 5.91796 110.721 5.21554C109.206 4.51313 107.407 3.95595 105.427 3.57581C103.448 3.19567 101.326 3.00001 99.1831 3.00001Z" fill="white"/>
<path d="M13 66C12.8674 66 12.7402 65.963 12.6464 65.8971C12.5527 65.8312 12.5 65.7418 12.5 65.6486V53.3514C12.5 53.2582 12.5527 53.1688 12.6464 53.1029C12.7402 53.037 12.8674 53 13 53C13.1326 53 13.2598 53.037 13.3536 53.1029C13.4473 53.1688 13.5 53.2582 13.5 53.3514V65.6486C13.5 65.7418 13.4473 65.8312 13.3536 65.8971C13.2598 65.963 13.1326 66 13 66Z" fill="#CCCCCC"/>
<path d="M15 67C14.8674 67 14.7402 66.9649 14.6464 66.9024C14.5527 66.8399 14.5 66.7551 14.5 66.6667V51.3333C14.5 51.2449 14.5527 51.1601 14.6464 51.0976C14.7402 51.0351 14.8674 51 15 51C15.1326 51 15.2598 51.0351 15.3535 51.0976C15.4473 51.1601 15.5 51.2449 15.5 51.3333V66.6667C15.5 66.7551 15.4473 66.8399 15.3535 66.9024C15.2598 66.9649 15.1326 67 15 67Z" fill="#CCCCCC"/>
<path d="M20 72C19.8674 72 19.7402 71.9639 19.6464 71.8997C19.5527 71.8355 19.5 71.7484 19.5 71.6575V47.3425C19.5 47.2516 19.5527 47.1645 19.6464 47.1003C19.7402 47.0361 19.8674 47 20 47C20.1326 47 20.2598 47.0361 20.3535 47.1003C20.4473 47.1645 20.5 47.2516 20.5 47.3425V71.6575C20.5 71.7484 20.4473 71.8355 20.3535 71.8997C20.2598 71.9639 20.1326 72 20 72Z" fill="#CCCCCC"/>
<path d="M22 77C21.8674 77 21.7402 76.9631 21.6464 76.8975C21.5527 76.8318 21.5 76.7428 21.5 76.65V42.35C21.5 42.2572 21.5527 42.1681 21.6464 42.1025C21.7402 42.0369 21.8674 42 22 42C22.1326 42 22.2598 42.0369 22.3535 42.1025C22.4473 42.1681 22.5 42.2572 22.5 42.35V76.65C22.5 76.7428 22.4473 76.8318 22.3535 76.8975C22.2598 76.9631 22.1326 77 22 77Z" fill="#CCCCCC"/>
<path d="M27 74C26.8674 74 26.7402 73.9632 26.6464 73.8978C26.5527 73.8324 26.5 73.7437 26.5 73.6512V44.3488C26.5 44.2563 26.5527 44.1676 26.6464 44.1022C26.7402 44.0367 26.8674 44 27 44C27.1326 44 27.2598 44.0367 27.3535 44.1022C27.4473 44.1676 27.5 44.2563 27.5 44.3488V73.6512C27.5 73.7437 27.4473 73.8324 27.3535 73.8978C27.2598 73.9632 27.1326 74 27 74Z" fill="#CCCCCC"/>
<path d="M32 70C31.8674 70 31.7402 69.9631 31.6464 69.8975C31.5527 69.8318 31.5 69.7428 31.5 69.65V49.35C31.5 49.2572 31.5527 49.1681 31.6464 49.1025C31.7402 49.0369 31.8674 49 32 49C32.1326 49 32.2598 49.0369 32.3535 49.1025C32.4473 49.1681 32.5 49.2572 32.5 49.35V69.65C32.5 69.7428 32.4473 69.8318 32.3535 69.8975C32.2598 69.9631 32.1326 70 32 70Z" fill="#CCCCCC"/>
<path d="M36 66C35.8674 66 35.7402 65.963 35.6464 65.8971C35.5527 65.8312 35.5 65.7418 35.5 65.6486V53.3514C35.5 53.2582 35.5527 53.1688 35.6464 53.1029C35.7402 53.037 35.8674 53 36 53C36.1326 53 36.2598 53.037 36.3535 53.1029C36.4473 53.1688 36.5 53.2582 36.5 53.3514V65.6486C36.5 65.7418 36.4473 65.8312 36.3535 65.8971C36.2598 65.963 36.1326 66 36 66Z" fill="#CCCCCC"/>
<path d="M39 67C38.8674 67 38.7402 66.9649 38.6464 66.9024C38.5527 66.8399 38.5 66.7551 38.5 66.6667V51.3333C38.5 51.2449 38.5527 51.1601 38.6464 51.0976C38.7402 51.0351 38.8674 51 39 51C39.1326 51 39.2598 51.0351 39.3535 51.0976C39.4473 51.1601 39.5 51.2449 39.5 51.3333V66.6667C39.5 66.7551 39.4473 66.8399 39.3535 66.9024C39.2598 66.9649 39.1326 67 39 67Z" fill="#CCCCCC"/>
<path d="M46 82C45.8674 82 45.7402 81.9633 45.6464 81.8979C45.5527 81.8326 45.5 81.7439 45.5 81.6515V36.3485C45.5 36.2561 45.5527 36.1674 45.6464 36.1021C45.7402 36.0367 45.8674 36 46 36C46.1326 36 46.2598 36.0367 46.3535 36.1021C46.4473 36.1674 46.5 36.2561 46.5 36.3485V81.6515C46.5 81.7439 46.4473 81.8326 46.3535 81.8979C46.2598 81.9633 46.1326 82 46 82Z" fill="#CCCCCC"/>
<path d="M53 68C52.8674 68 52.7402 67.9635 52.6464 67.8986C52.5527 67.8337 52.5 67.7457 52.5 67.6538V50.3462C52.5 50.2543 52.5527 50.1663 52.6464 50.1014C52.7402 50.0365 52.8674 50 53 50C53.1326 50 53.2598 50.0365 53.3535 50.1014C53.4473 50.1663 53.5 50.2543 53.5 50.3462V67.6538C53.5 67.7457 53.4473 67.8337 53.3535 67.8986C53.2598 67.9635 53.1326 68 53 68Z" fill="#CCCCCC"/>
<path d="M58 66C57.8674 66 57.7402 65.963 57.6464 65.8971C57.5527 65.8312 57.5 65.7418 57.5 65.6486V53.3514C57.5 53.2582 57.5527 53.1688 57.6464 53.1029C57.7402 53.037 57.8674 53 58 53C58.1326 53 58.2598 53.037 58.3535 53.1029C58.4473 53.1688 58.5 53.2582 58.5 53.3514V65.6486C58.5 65.7418 58.4473 65.8312 58.3535 65.8971C58.2598 65.963 58.1326 66 58 66Z" fill="#CCCCCC"/>
<path d="M60 66C59.8674 66 59.7402 65.963 59.6464 65.8971C59.5527 65.8312 59.5 65.7418 59.5 65.6486V53.3514C59.5 53.2582 59.5527 53.1688 59.6464 53.1029C59.7402 53.037 59.8674 53 60 53C60.1326 53 60.2598 53.037 60.3535 53.1029C60.4473 53.1688 60.5 53.2582 60.5 53.3514V65.6486C60.5 65.7418 60.4473 65.8312 60.3535 65.8971C60.2598 65.963 60.1326 66 60 66Z" fill="#CCCCCC"/>
<path d="M67 72C66.8674 72 66.7402 71.9639 66.6464 71.8997C66.5527 71.8355 66.5 71.7484 66.5 71.6575V47.3425C66.5 47.2516 66.5527 47.1645 66.6464 47.1003C66.7402 47.0361 66.8674 47 67 47C67.1326 47 67.2598 47.0361 67.3535 47.1003C67.4473 47.1645 67.5 47.2516 67.5 47.3425V71.6575C67.5 71.7484 67.4473 71.8355 67.3535 71.8997C67.2598 71.9639 67.1326 72 67 72Z" fill="#CCCCCC"/>
<path d="M70 77C69.8674 77 69.7402 76.9631 69.6464 76.8975C69.5527 76.8318 69.5 76.7428 69.5 76.65V42.35C69.5 42.2572 69.5527 42.1681 69.6464 42.1025C69.7402 42.0369 69.8674 42 70 42C70.1326 42 70.2598 42.0369 70.3535 42.1025C70.4473 42.1681 70.5 42.2572 70.5 42.35V76.65C70.5 76.7428 70.4473 76.8318 70.3535 76.8975C70.2598 76.9631 70.1326 77 70 77Z" fill="#CCCCCC"/>
<path d="M71 92C70.8674 92 70.7402 91.9637 70.6464 91.899C70.5527 91.8343 70.5 91.7466 70.5 91.6552V27.3448C70.5 27.2534 70.5527 27.1657 70.6464 27.101C70.7402 27.0363 70.8674 27 71 27C71.1326 27 71.2598 27.0363 71.3535 27.101C71.4473 27.1657 71.5 27.2534 71.5 27.3448V91.6552C71.5 91.7466 71.4473 91.8343 71.3535 91.899C71.2598 91.9637 71.1326 92 71 92Z" fill="#4CA7FC"/>
<path d="M72 72C71.8674 72 71.7402 71.9639 71.6464 71.8997C71.5527 71.8355 71.5 71.7484 71.5 71.6575V47.3425C71.5 47.2516 71.5527 47.1645 71.6464 47.1003C71.7402 47.0361 71.8674 47 72 47C72.1326 47 72.2598 47.0361 72.3535 47.1003C72.4473 47.1645 72.5 47.2516 72.5 47.3425V71.6575C72.5 71.7484 72.4473 71.8355 72.3535 71.8997C72.2598 71.9639 72.1326 72 72 72Z" fill="#CCCCCC"/>
<path d="M77 68C76.8674 68 76.7402 67.9635 76.6464 67.8986C76.5527 67.8337 76.5 67.7457 76.5 67.6538V50.3462C76.5 50.2543 76.5527 50.1663 76.6464 50.1014C76.7402 50.0365 76.8674 50 77 50C77.1326 50 77.2598 50.0365 77.3535 50.1014C77.4473 50.1663 77.5 50.2543 77.5 50.3462V67.6538C77.5 67.7457 77.4473 67.8337 77.3535 67.8986C77.2598 67.9635 77.1326 68 77 68Z" fill="#CCCCCC"/>
<path d="M79 70C78.8674 70 78.7402 69.9631 78.6464 69.8975C78.5527 69.8318 78.5 69.7428 78.5 69.65V49.35C78.5 49.2572 78.5527 49.1681 78.6464 49.1025C78.7402 49.0369 78.8674 49 79 49C79.1326 49 79.2598 49.0369 79.3535 49.1025C79.4473 49.1681 79.5 49.2572 79.5 49.35V69.65C79.5 69.7428 79.4473 69.8318 79.3535 69.8975C79.2598 69.9631 79.1326 70 79 70Z" fill="#CCCCCC"/>
<path d="M84 66C83.8674 66 83.7402 65.963 83.6464 65.8971C83.5527 65.8312 83.5 65.7418 83.5 65.6486V53.3514C83.5 53.2582 83.5527 53.1688 83.6464 53.1029C83.7402 53.037 83.8674 53 84 53C84.1326 53 84.2598 53.037 84.3535 53.1029C84.4473 53.1688 84.5 53.2582 84.5 53.3514V65.6486C84.5 65.7418 84.4473 65.8312 84.3535 65.8971C84.2598 65.963 84.1326 66 84 66Z" fill="#CCCCCC"/>
<path d="M86 67C85.8674 67 85.7402 66.9649 85.6464 66.9024C85.5527 66.8399 85.5 66.7551 85.5 66.6667V51.3333C85.5 51.2449 85.5527 51.1601 85.6464 51.0976C85.7402 51.0351 85.8674 51 86 51C86.1326 51 86.2598 51.0351 86.3535 51.0976C86.4473 51.1601 86.5 51.2449 86.5 51.3333V66.6667C86.5 66.7551 86.4473 66.8399 86.3535 66.9024C86.2598 66.9649 86.1326 67 86 67Z" fill="#CCCCCC"/>
<path d="M91 72C90.8674 72 90.7402 71.9639 90.6464 71.8997C90.5527 71.8355 90.5 71.7484 90.5 71.6575V47.3425C90.5 47.2516 90.5527 47.1645 90.6464 47.1003C90.7402 47.0361 90.8674 47 91 47C91.1326 47 91.2598 47.0361 91.3535 47.1003C91.4473 47.1645 91.5 47.2516 91.5 47.3425V71.6575C91.5 71.7484 91.4473 71.8355 91.3535 71.8997C91.2598 71.9639 91.1326 72 91 72Z" fill="#CCCCCC"/>
<path d="M93 82C92.8674 82 92.7402 81.9633 92.6464 81.8979C92.5527 81.8326 92.5 81.7439 92.5 81.6515V36.3485C92.5 36.2561 92.5527 36.1674 92.6464 36.1021C92.7402 36.0367 92.8674 36 93 36C93.1326 36 93.2598 36.0367 93.3535 36.1021C93.4473 36.1674 93.5 36.2561 93.5 36.3485V81.6515C93.5 81.7439 93.4473 81.8326 93.3535 81.8979C93.2598 81.9633 93.1326 82 93 82Z" fill="#CCCCCC"/>
<path d="M98 74C97.8674 74 97.7402 73.9632 97.6464 73.8978C97.5527 73.8324 97.5 73.7437 97.5 73.6512V44.3488C97.5 44.2563 97.5527 44.1676 97.6464 44.1022C97.7402 44.0367 97.8674 44 98 44C98.1326 44 98.2598 44.0367 98.3535 44.1022C98.4473 44.1676 98.5 44.2563 98.5 44.3488V73.6512C98.5 73.7437 98.4473 73.8324 98.3535 73.8978C98.2598 73.9632 98.1326 74 98 74Z" fill="#CCCCCC"/>
<path d="M100 68C99.8674 68 99.7402 67.9635 99.6464 67.8986C99.5527 67.8337 99.5 67.7457 99.5 67.6538V50.3462C99.5 50.2543 99.5527 50.1663 99.6464 50.1014C99.7402 50.0365 99.8674 50 100 50C100.133 50 100.26 50.0365 100.354 50.1014C100.447 50.1663 100.5 50.2543 100.5 50.3462V67.6538C100.5 67.7457 100.447 67.8337 100.354 67.8986C100.26 67.9635 100.133 68 100 68Z" fill="#CCCCCC"/>
<path d="M103 70C102.867 70 102.74 69.9631 102.646 69.8975C102.553 69.8318 102.5 69.7428 102.5 69.65V49.35C102.5 49.2572 102.553 49.1681 102.646 49.1025C102.74 49.0369 102.867 49 103 49C103.133 49 103.26 49.0369 103.354 49.1025C103.447 49.1681 103.5 49.2572 103.5 49.35V69.65C103.5 69.7428 103.447 69.8318 103.354 69.8975C103.26 69.9631 103.133 70 103 70Z" fill="#CCCCCC"/>
<path d="M89.0912 101H28.9076C28.7994 101 28.6957 100.947 28.6193 100.853C28.5429 100.759 28.5 100.632 28.5 100.5C28.5 100.368 28.5429 100.241 28.6193 100.147C28.6957 100.053 28.7994 100 28.9076 100H89.0912C89.1996 100 89.3036 100.053 89.3803 100.146C89.4569 100.24 89.5 100.367 89.5 100.5C89.5 100.633 89.4569 100.76 89.3803 100.854C89.3036 100.947 89.1996 101 89.0912 101Z" fill="#CCCCCC"/>
</svg>
