<svg width="194" height="116" viewBox="0 0 194 116" fill="none" xmlns="http://www.w3.org/2000/svg">
<g clip-path="url(#clip0_1661_17047)">
<path d="M193.5 90.5218C193.504 91.2987 193.199 92.0454 192.651 92.5976C192.104 93.1499 191.359 93.4624 190.581 93.4665H62.1463C61.761 93.4645 61.3798 93.3867 61.0245 93.2376C60.6693 93.0886 60.3469 92.8711 60.0759 92.5977C59.8048 92.3243 59.5903 92.0002 59.4447 91.6441C59.2991 91.2879 59.2252 90.9066 59.2272 90.5219V2.94464C59.2231 2.16774 59.5284 1.42104 60.0758 0.868812C60.6232 0.316585 61.368 0.00406286 62.1462 0H190.581C190.966 0.002001 191.347 0.0797523 191.703 0.228813C192.058 0.377874 192.38 0.595326 192.651 0.868753C192.922 1.14218 193.137 1.46623 193.282 1.8224C193.428 2.17857 193.502 2.55988 193.5 2.94456V2.94464V90.5218Z" fill="#E6E6E6"/>
<path d="M191.985 89.0874C191.985 89.8425 191.684 90.5667 191.15 91.1007C190.615 91.6346 189.889 91.9346 189.133 91.9346H63.6824C62.9259 91.9346 62.2005 91.6346 61.6656 91.1007C61.1307 90.5667 60.8302 89.8425 60.8302 89.0874V4.41853C60.8302 3.6634 61.1307 2.93919 61.6656 2.40523C62.2005 1.87127 62.9259 1.57129 63.6824 1.57129H189.138C189.894 1.57281 190.618 1.87345 191.152 2.40725C191.685 2.94105 191.985 3.66439 191.985 4.41853V89.0874Z" fill="white"/>
<path d="M67.5351 5.24805H185.414C185.863 5.24805 186.294 5.4261 186.611 5.74304C186.929 6.05998 187.107 6.48984 187.107 6.93806V86.2409C187.107 86.6891 186.929 87.1189 186.611 87.4359C186.294 87.7528 185.863 87.9309 185.414 87.9309H67.5351C67.0861 87.9309 66.6554 87.7528 66.338 87.4359C66.0205 87.1189 65.8421 86.6891 65.8421 86.2409V6.93806C65.8421 6.48984 66.0205 6.05998 66.338 5.74304C66.6554 5.4261 67.0861 5.24805 67.5351 5.24805Z" fill="#E6E6E6"/>
<path d="M69.0271 7.14941H183.794C184.243 7.14941 184.673 7.32747 184.991 7.64441C185.308 7.96135 185.487 8.39121 185.487 8.83943V83.9105C185.487 84.3587 185.308 84.7886 184.991 85.1055C184.673 85.4225 184.243 85.6005 183.794 85.6005H69.0271C68.5781 85.6005 68.1475 85.4225 67.8301 85.1055C67.5126 84.7886 67.3342 84.3587 67.3342 83.9105V8.83943C67.3342 8.39121 67.5126 7.96135 67.8301 7.64441C68.1475 7.32747 68.5781 7.14941 69.0271 7.14941Z" fill="white"/>
<path d="M150.06 59.2998C149.608 59.2995 149.162 59.2045 148.749 59.021C148.653 58.9784 148.562 58.9265 148.476 58.8659L140.135 53.005C139.712 52.7078 139.367 52.3134 139.129 51.855C138.89 51.3967 138.766 50.8879 138.766 50.3715V42.3784C138.766 41.862 138.89 41.3532 139.129 40.8949C139.367 40.4366 139.712 40.0422 140.135 39.7449L148.476 33.884C148.562 33.8235 148.653 33.7715 148.749 33.729C149.241 33.5109 149.779 33.4189 150.315 33.4612C150.851 33.5035 151.368 33.6789 151.818 33.9713C152.269 34.2638 152.64 34.6641 152.896 35.1358C153.153 35.6075 153.287 36.1358 153.287 36.6725V56.0774C153.287 56.9318 152.947 57.7512 152.342 58.3553C151.737 58.9594 150.916 59.2988 150.06 59.2988L150.06 59.2998Z" fill="#3F3D56"/>
<path d="M131.394 60.8715H108.131C103.385 60.8676 99.5386 57.805 99.5337 54.026V38.7244C99.5386 34.9453 103.385 31.8828 108.131 31.8789H131.454C136.167 31.8833 139.985 34.9239 139.991 38.6761V54.026C139.986 57.805 136.14 60.8676 131.394 60.8715Z" fill="#3F3D56"/>
<path d="M172.832 80.7731C176.653 80.7731 179.751 77.681 179.751 73.8665C179.751 70.0521 176.653 66.96 172.832 66.96C169.011 66.96 165.914 70.0521 165.914 73.8665C165.914 77.681 169.011 80.7731 172.832 80.7731Z" fill="#E6E6E6"/>
<path d="M176.426 73.7426L170.911 70.5641C170.889 70.5515 170.865 70.5449 170.84 70.5449C170.814 70.5449 170.79 70.5515 170.768 70.5641C170.746 70.5766 170.728 70.5947 170.716 70.6164C170.703 70.6381 170.696 70.6628 170.696 70.6879V77.0448C170.696 77.0699 170.703 77.0946 170.716 77.1163C170.728 77.1381 170.746 77.1561 170.768 77.1686C170.79 77.1812 170.814 77.1878 170.84 77.1878C170.865 77.1878 170.889 77.1812 170.911 77.1686L176.426 73.9902C176.448 73.9776 176.466 73.9596 176.478 73.9378C176.491 73.9161 176.498 73.8915 176.498 73.8664C176.498 73.8413 176.491 73.8166 176.478 73.7949C176.466 73.7732 176.448 73.7551 176.426 73.7426L170.911 70.5641C170.889 70.5515 170.865 70.5449 170.84 70.5449C170.814 70.5449 170.79 70.5515 170.768 70.5641C170.746 70.5766 170.728 70.5947 170.716 70.6164C170.703 70.6381 170.696 70.6628 170.696 70.6879V77.0448C170.696 77.0699 170.703 77.0946 170.716 77.1163C170.728 77.1381 170.746 77.1561 170.768 77.1686C170.79 77.1812 170.814 77.1878 170.84 77.1878C170.865 77.1878 170.889 77.1812 170.911 77.1686L176.426 73.9902C176.448 73.9776 176.466 73.9596 176.478 73.9378C176.491 73.9161 176.498 73.8915 176.498 73.8664C176.498 73.8413 176.491 73.8166 176.478 73.7949C176.466 73.7732 176.448 73.7551 176.426 73.7426Z" fill="white"/>
<path d="M163.849 101.025C163.854 101.802 163.548 102.548 163.001 103.101C162.453 103.653 161.709 103.965 160.93 103.969H32.4958C32.1105 103.967 31.7293 103.89 31.374 103.741C31.0188 103.591 30.6964 103.374 30.4253 103.101C30.1543 102.827 29.9398 102.503 29.7942 102.147C29.6486 101.791 29.5747 101.409 29.5767 101.025V13.4476C29.5726 12.6707 29.8779 11.924 30.4253 11.3717C30.9727 10.8195 31.7175 10.507 32.4957 10.5029H160.93C161.316 10.5049 161.697 10.5827 162.052 10.7317C162.407 10.8808 162.73 11.0983 163.001 11.3717C163.272 11.6451 163.486 11.9692 163.632 12.3253C163.778 12.6815 163.851 13.0628 163.849 13.4475V13.4476V101.025Z" fill="#E6E6E6"/>
<path d="M162.334 99.5903C162.334 100.345 162.034 101.07 161.499 101.604C160.964 102.138 160.239 102.438 159.482 102.438H34.0319C33.2755 102.438 32.55 102.138 32.0151 101.604C31.4802 101.07 31.1797 100.345 31.1797 99.5903V14.9215C31.1797 14.1663 31.4802 13.4421 32.0151 12.9082C32.55 12.3742 33.2755 12.0742 34.0319 12.0742H159.488C160.243 12.0757 160.967 12.3764 161.501 12.9102C162.035 13.444 162.334 14.1673 162.334 14.9215V99.5903Z" fill="white"/>
<path d="M37.8845 15.751H155.763C156.212 15.751 156.643 15.929 156.961 16.246C157.278 16.5629 157.456 16.9928 157.456 17.441V96.7438C157.456 97.192 157.278 97.6219 156.961 97.9388C156.643 98.2557 156.212 98.4338 155.763 98.4338H37.8845C37.4355 98.4338 37.0049 98.2557 36.6874 97.9388C36.37 97.6219 36.1916 97.192 36.1916 96.7438V17.441C36.1916 16.9928 36.37 16.5629 36.6874 16.246C37.0049 15.929 37.4355 15.751 37.8845 15.751Z" fill="#E6E6E6"/>
<path d="M39.3766 17.6523H154.143C154.592 17.6523 155.023 17.8304 155.34 18.1473C155.658 18.4643 155.836 18.8941 155.836 19.3424V94.4134C155.836 94.8617 155.658 95.2915 155.34 95.6085C155.023 95.9254 154.592 96.1035 154.143 96.1035H39.3766C38.9276 96.1035 38.497 95.9254 38.1795 95.6085C37.862 95.2915 37.6837 94.8617 37.6837 94.4134V19.3424C37.6837 18.8941 37.862 18.4643 38.1795 18.1473C38.497 17.8304 38.9276 17.6523 39.3766 17.6523Z" fill="white"/>
<path d="M120.41 69.8028C119.958 69.8024 119.511 69.7074 119.099 69.5239C119.003 69.4814 118.911 69.4294 118.825 69.3689L110.485 63.508C110.062 63.2107 109.716 62.8163 109.478 62.358C109.24 61.8997 109.115 61.3909 109.115 60.8745V52.8814C109.115 52.365 109.24 51.8562 109.478 51.3978C109.716 50.9395 110.062 50.5451 110.485 50.2479L118.825 44.3869C118.911 44.3264 119.003 44.2745 119.099 44.2319C119.59 44.0139 120.128 43.9218 120.664 43.9641C121.2 44.0065 121.717 44.1818 122.168 44.4743C122.619 44.7667 122.989 45.167 123.246 45.6387C123.502 46.1105 123.637 46.6387 123.637 47.1755V66.5804C123.637 67.4347 123.297 68.2541 122.692 68.8582C122.086 69.4624 121.266 69.8018 120.41 69.8018L120.41 69.8028Z" fill="#3F3D56"/>
<path d="M101.743 71.3744H78.4803C73.7343 71.3705 69.8881 68.308 69.8832 64.5289V49.2273C69.8881 45.4483 73.7343 42.3857 78.4803 42.3818H101.804C106.516 42.3863 110.335 45.4269 110.34 49.179V64.5289C110.335 68.308 106.489 71.3705 101.743 71.3744Z" fill="#3F3D56"/>
<path d="M143.182 91.2761C147.003 91.2761 150.101 88.1839 150.101 84.3695C150.101 80.5551 147.003 77.4629 143.182 77.4629C139.361 77.4629 136.263 80.5551 136.263 84.3695C136.263 88.1839 139.361 91.2761 143.182 91.2761Z" fill="#E6E6E6"/>
<path d="M146.775 84.2455L141.261 81.067C141.239 81.0545 141.214 81.0479 141.189 81.0479C141.164 81.0479 141.139 81.0545 141.117 81.067C141.096 81.0796 141.078 81.0976 141.065 81.1193C141.052 81.1411 141.046 81.1657 141.046 81.1908V87.5478C141.046 87.5729 141.052 87.5975 141.065 87.6193C141.078 87.641 141.096 87.659 141.117 87.6716C141.139 87.6841 141.164 87.6907 141.189 87.6907C141.214 87.6907 141.239 87.6841 141.261 87.6716L146.775 84.4931C146.797 84.4806 146.815 84.4625 146.828 84.4408C146.84 84.419 146.847 84.3944 146.847 84.3693C146.847 84.3442 146.84 84.3196 146.828 84.2978C146.815 84.2761 146.797 84.2581 146.775 84.2455L141.261 81.067C141.239 81.0545 141.214 81.0479 141.189 81.0479C141.164 81.0479 141.139 81.0545 141.117 81.067C141.096 81.0796 141.078 81.0976 141.065 81.1193C141.052 81.1411 141.046 81.1657 141.046 81.1908V87.5478C141.046 87.5729 141.052 87.5975 141.065 87.6193C141.078 87.641 141.096 87.659 141.117 87.6716C141.139 87.6841 141.164 87.6907 141.189 87.6907C141.214 87.6907 141.239 87.6841 141.261 87.6716L146.775 84.4931C146.797 84.4806 146.815 84.4625 146.828 84.4408C146.84 84.419 146.847 84.3944 146.847 84.3693C146.847 84.3442 146.84 84.3195 146.828 84.2978C146.815 84.2761 146.797 84.258 146.775 84.2455Z" fill="white"/>
<path d="M134.773 113.055C134.777 113.832 134.472 114.579 133.924 115.131C133.377 115.683 132.632 115.996 131.854 116H3.41918C3.03383 115.998 2.65264 115.92 2.29739 115.771C1.94214 115.622 1.61978 115.404 1.34871 115.131C1.07764 114.858 0.86318 114.533 0.717565 114.177C0.571949 113.821 0.498035 113.44 0.50004 113.055V25.4778C0.495971 24.7009 0.801226 23.9542 1.34866 23.402C1.89609 22.8498 2.64085 22.5373 3.4191 22.5332H131.854C132.239 22.5352 132.62 22.613 132.975 22.762C133.331 22.9111 133.653 23.1285 133.924 23.402C134.195 23.6754 134.41 23.9994 134.555 24.3556C134.701 24.7118 134.775 25.0931 134.773 25.4778V25.4778V113.055Z" fill="#E6E6E6"/>
<path d="M133.258 111.622C133.258 112.377 132.957 113.101 132.422 113.635C131.888 114.169 131.162 114.469 130.406 114.469H4.95528C4.19883 114.469 3.47336 114.169 2.93848 113.635C2.40359 113.101 2.10309 112.377 2.10309 111.622V26.9527C2.10309 26.1976 2.40359 25.4734 2.93848 24.9394C3.47336 24.4054 4.19883 24.1055 4.95528 24.1055H130.411C131.167 24.107 131.891 24.4076 132.424 24.9414C132.958 25.4752 133.258 26.1986 133.258 26.9527V111.622Z" fill="white"/>
<path d="M8.80791 27.7812H126.687C127.136 27.7813 127.566 27.9593 127.884 28.2762C128.201 28.5932 128.38 29.023 128.38 29.4713V108.774C128.38 109.222 128.201 109.652 127.884 109.969C127.566 110.286 127.136 110.464 126.687 110.464H8.80791C8.35891 110.464 7.9283 110.286 7.61081 109.969C7.29332 109.652 7.11496 109.222 7.11496 108.774V29.4713C7.11496 29.023 7.29332 28.5932 7.61081 28.2762C7.9283 27.9593 8.35891 27.7812 8.80791 27.7812Z" fill="#E6E6E6"/>
<path d="M10.3 29.6836H125.067C125.289 29.6836 125.509 29.7273 125.714 29.8122C125.92 29.8972 126.106 30.0217 126.264 30.1786C126.421 30.3355 126.546 30.5218 126.631 30.7269C126.716 30.9319 126.76 31.1517 126.76 31.3736V106.445C126.76 106.667 126.716 106.886 126.631 107.091C126.546 107.296 126.421 107.483 126.264 107.64C126.106 107.797 125.92 107.921 125.714 108.006C125.509 108.091 125.289 108.135 125.067 108.135H10.3C9.85101 108.135 9.4204 107.957 9.10291 107.64C8.78542 107.323 8.60706 106.893 8.60706 106.445V31.3736C8.60706 30.9254 8.78542 30.4955 9.10291 30.1786C9.4204 29.8616 9.85101 29.6836 10.3 29.6836Z" fill="white"/>
<path d="M91.3331 81.834C90.8813 81.8337 90.4347 81.7387 90.0221 81.5552C89.9261 81.5126 89.8346 81.4607 89.7488 81.4001L81.4081 75.5392C80.9851 75.242 80.6399 74.8476 80.4015 74.3892C80.1632 73.9309 80.0387 73.4221 80.0386 72.9057V64.9126C80.0387 64.3962 80.1632 63.8874 80.4015 63.4291C80.6398 62.9708 80.9851 62.5764 81.4081 62.2791L89.7488 56.4182C89.8346 56.3576 89.9261 56.3057 90.0221 56.2632C90.5134 56.0451 91.0515 55.9531 91.5875 55.9954C92.1235 56.0377 92.6405 56.2131 93.0913 56.5055C93.5422 56.798 93.9127 57.1982 94.1692 57.67C94.4257 58.1417 94.56 58.67 94.5601 59.2067V78.6116C94.5601 79.466 94.2201 80.2854 93.6149 80.8895C93.0097 81.4936 92.1889 81.833 91.3331 81.833L91.3331 81.834Z" fill="#4CA7FC"/>
<path d="M72.6664 83.4047H49.4037C44.6576 83.4008 40.8114 80.3383 40.8065 76.5592V61.2576C40.8114 57.4785 44.6576 54.416 49.4037 54.4121H72.7271C77.4394 54.4165 81.258 57.4571 81.2635 61.2093V76.5592C81.2587 80.3383 77.4125 83.4008 72.6664 83.4047Z" fill="#4CA7FC"/>
<path d="M114.105 103.307C117.926 103.307 121.024 100.215 121.024 96.4007C121.024 92.5863 117.926 89.4941 114.105 89.4941C110.284 89.4941 107.187 92.5863 107.187 96.4007C107.187 100.215 110.284 103.307 114.105 103.307Z" fill="#3F3D56"/>
<path d="M117.699 96.2768L112.184 93.0983C112.162 93.0857 112.138 93.0791 112.112 93.0791C112.087 93.0791 112.063 93.0857 112.041 93.0983C112.019 93.1108 112.001 93.1289 111.988 93.1506C111.976 93.1723 111.969 93.197 111.969 93.2221V99.579C111.969 99.6041 111.976 99.6288 111.988 99.6505C112.001 99.6723 112.019 99.6903 112.041 99.7028C112.063 99.7154 112.087 99.722 112.112 99.722C112.138 99.722 112.162 99.7154 112.184 99.7028L117.699 96.5244C117.721 96.5118 117.739 96.4938 117.751 96.472C117.764 96.4503 117.77 96.4256 117.77 96.4006C117.77 96.3755 117.764 96.3508 117.751 96.3291C117.739 96.3074 117.721 96.2893 117.699 96.2768L112.184 93.0983C112.162 93.0857 112.138 93.0791 112.112 93.0791C112.087 93.0791 112.063 93.0857 112.041 93.0983C112.019 93.1108 112.001 93.1289 111.988 93.1506C111.976 93.1723 111.969 93.197 111.969 93.2221V99.5791C111.969 99.6041 111.976 99.6288 111.988 99.6505C112.001 99.6723 112.019 99.6903 112.041 99.7029C112.063 99.7154 112.087 99.722 112.112 99.722C112.138 99.722 112.162 99.7154 112.184 99.7028L117.699 96.5244C117.721 96.5118 117.739 96.4938 117.751 96.472C117.764 96.4503 117.77 96.4256 117.77 96.4006C117.77 96.3755 117.764 96.3508 117.751 96.3291C117.739 96.3073 117.721 96.2893 117.699 96.2768Z" fill="white"/>
</g>
<defs>
<clipPath id="clip0_1661_17047">
<rect width="193" height="116" fill="white" transform="translate(0.5)"/>
</clipPath>
</defs>
</svg>
