<svg width="32" height="32" viewBox="0 0 32 32" fill="none" xmlns="http://www.w3.org/2000/svg">
<path fill-rule="evenodd" clip-rule="evenodd" d="M19.6667 16C19.6667 18.025 18.025 19.6667 16 19.6667C13.975 19.6667 12.3333 18.025 12.3333 16C12.3333 13.975 13.975 12.3333 16 12.3333C18.025 12.3333 19.6667 13.975 19.6667 16ZM17.5714 16C17.5714 16.8679 16.8679 17.5714 16 17.5714C15.1321 17.5714 14.4286 16.8679 14.4286 16C14.4286 15.1321 15.1321 14.4286 16 14.4286C16.8679 14.4286 17.5714 15.1321 17.5714 16Z" fill="#778083"/>
<path fill-rule="evenodd" clip-rule="evenodd" d="M10.9866 7.28269C11.8496 8.14567 13.381 7.59031 13.381 6.36988C13.381 5.61332 13.9943 5 14.7508 5H17.2492C18.0057 5 18.619 5.61332 18.619 6.36988C18.619 7.59031 20.1504 8.14567 21.0134 7.28269C21.5612 6.73495 22.4492 6.73495 22.997 7.28269L24.7173 9.00302C25.2651 9.55077 25.2651 10.4388 24.7173 10.9866C23.8543 11.8496 24.4097 13.381 25.6301 13.381C26.3867 13.381 27 13.9943 27 14.7508V17.2492C27 18.0057 26.3867 18.619 25.6301 18.619C24.4097 18.619 23.8543 20.1504 24.7173 21.0134C25.2651 21.5612 25.2651 22.4492 24.7173 22.997L22.997 24.7173C22.4492 25.2651 21.5612 25.2651 21.0134 24.7173C20.1504 23.8543 18.619 24.4097 18.619 25.6301C18.619 26.3867 18.0057 27 17.2492 27H14.7508C13.9943 27 13.381 26.3867 13.381 25.6301C13.381 24.4097 11.8496 23.8543 10.9866 24.7173C10.4388 25.2651 9.55077 25.2651 9.00302 24.7173L7.28269 22.997C6.73495 22.4492 6.73495 21.5612 7.28269 21.0134C8.14567 20.1504 7.59031 18.619 6.36988 18.619C5.61332 18.619 5 18.0057 5 17.2492V14.7508C5 13.9943 5.61332 13.381 6.36988 13.381C7.59031 13.381 8.14567 11.8496 7.28269 10.9866C6.73495 10.4388 6.73495 9.55077 7.28269 9.00302L9.00302 7.28269C9.55077 6.73495 10.4388 6.73495 10.9866 7.28269ZM13.2413 9.57005C14.2468 9.19404 15.143 8.31793 15.4015 7.09524H16.5985C16.857 8.31793 17.7532 9.19404 18.7587 9.57005C19.7486 9.94026 20.9596 9.87632 21.9579 9.20672L22.7933 10.0421C22.1237 11.0404 22.0597 12.2514 22.43 13.2413C22.806 14.2468 23.6821 15.143 24.9048 15.4015V16.5985C23.6821 16.857 22.806 17.7532 22.43 18.7587C22.0597 19.7486 22.1237 20.9596 22.7933 21.9579L21.9579 22.7933C20.9596 22.1237 19.7486 22.0597 18.7587 22.43C17.7533 22.806 16.857 23.6821 16.5985 24.9048H15.4015C15.143 23.6821 14.2468 22.806 13.2413 22.43C12.2514 22.0597 11.0404 22.1237 10.0421 22.7933L9.20672 21.9579C9.87632 20.9596 9.94026 19.7486 9.57005 18.7587C9.19404 17.7533 8.31793 16.857 7.09524 16.5985V15.4015C8.31793 15.143 9.19404 14.2468 9.57005 13.2413C9.94026 12.2514 9.87632 11.0404 9.20672 10.0421L10.0421 9.20672C11.0404 9.87632 12.2514 9.94026 13.2413 9.57005Z" fill="#778083"/>
</svg>
