<svg width="142" height="307" viewBox="0 0 142 307" fill="none" xmlns="http://www.w3.org/2000/svg">
<path d="M107.732 21.6541C107.732 21.6541 104.515 8.23509 95.422 5.41649C86.3291 2.5979 69.1992 -1.24146 59.3665 0.389839C49.5338 2.02114 42.1327 3.66112 42.1327 3.66112L32.6819 4.56077C42.1919 5.10725 35.8928 7.84565 28.6978 12.4123C28.6978 12.4123 28.4983 17.4745 28.2971 22.0938C28.7014 21.5102 38.2505 15.7364 42.6071 15.0028C46.2758 13.957 49.9255 13.2729 54.5348 13.1399C61.5903 12.9875 63.6749 13.0681 68.2082 13.1399C72.3896 13.3653 74.3643 13.5999 77.5137 14.1196C84.0135 15.3386 85.7323 15.9267 89.5412 17.012C93.9882 18.7318 96.2498 19.6337 97.2021 20.4175C101.452 22.7373 102.609 23.5255 104.481 24.8494C107.831 27.4357 107.908 27.7235 109.409 29.1176C108.572 24.8067 107.732 21.6541 107.732 21.6541Z" fill="black"/>
<path d="M28.2076 24.1133C34.3415 20.8188 34.7543 19.015 43.2669 16.8468C48.7168 15.8939 54.0104 14.8627 54.5348 15.0028C58.7144 14.9532 57.7951 14.7854 68.2082 15.0028C71.5105 15.1658 73.3954 15.2979 77.5137 16.4556C82.0153 17.4973 84.0094 17.7693 89.5412 19.4171C92.6107 20.7298 94.6908 21.4324 96.8843 22.8256C100.121 24.5019 101.891 25.4579 104.481 27.3517C107.417 29.4997 108.359 30.4983 109.978 32.2619C109.796 31.1685 109.602 30.1122 109.409 29.1176C107.908 27.7235 107.831 27.4357 104.481 24.8494C102.609 23.5255 101.452 22.7373 97.2021 20.4175C96.2498 19.6337 93.9882 18.7318 89.5412 17.012C85.7323 15.9267 84.0135 15.3386 77.5137 14.1196C74.3643 13.5999 72.3896 13.3653 68.2082 13.1399C63.6749 13.0681 61.5903 12.9875 54.5348 13.1399C49.9255 13.2729 46.2758 13.957 42.6071 15.0028C38.2505 15.7364 28.7014 21.5102 28.2971 22.0938C28.2671 22.7829 28.2371 23.4622 28.2076 24.1133Z" fill="#A41F22"/>
<path d="M28.2076 24.1133C28.1259 25.9218 28.0489 27.5133 27.9907 28.4962C27.9271 29.5709 28.0297 30.3754 28.2076 30.976C33.7556 27.5888 37.0607 25.7772 44.3431 23.1609C49.752 21.3412 52.8424 21.2566 58.333 20.7582C66.1622 20.6048 70.4126 20.929 77.8302 21.9875C85.0715 24.1554 88.8162 25.8096 95.422 28.8604C99.5733 31.2321 101.675 32.5788 105.24 34.7834C107.699 36.2474 108.89 37.1417 110.843 38.8042C110.642 36.6021 110.33 34.3633 109.978 32.2619C108.359 30.4983 107.417 29.4997 104.481 27.3517C101.891 25.4579 100.121 24.5019 96.8843 22.8256C94.6908 21.4324 92.6107 20.7298 89.5412 19.4171C84.0094 17.7693 82.0153 17.4973 77.5137 16.4556C73.3954 15.2979 71.5105 15.1658 68.2082 15.0028C57.7951 14.7854 58.7144 14.9532 54.5348 15.0028C54.0104 14.8627 48.7168 15.8939 43.2669 16.8468C34.7543 19.015 34.3415 20.8188 28.2076 24.1133Z" fill="#1D395E"/>
<path d="M29.5317 32.6955C34.7451 29.1493 38.073 27.5162 44.3431 24.8931C49.7656 23.2573 52.8495 23.0156 58.333 22.3227C66.0254 22.1334 70.2023 22.4803 77.5137 23.552C85.0211 25.3239 88.6895 27.1772 95.3017 30.3691C99.7064 32.5743 101.772 34.1056 105.24 36.795C108.261 38.4499 109.15 39.2896 110.994 40.8155C110.956 40.1519 110.905 39.4798 110.843 38.8042C108.89 37.1417 107.699 36.2474 105.24 34.7834C101.675 32.5788 99.5733 31.2321 95.422 28.8604C88.8162 25.8096 85.0715 24.1554 77.8302 21.9875C70.4126 20.929 66.1622 20.6048 58.333 20.7582C52.8424 21.2566 49.752 21.3412 44.3431 23.1609C37.0607 25.7772 33.7556 27.5888 28.2076 30.976C28.6437 32.448 29.5317 32.6955 29.5317 32.6955Z" fill="#A41F22"/>
<path d="M29.5317 32.6955C28.0819 34.5763 29.4444 53.8291 34.1834 64.9381C44.5665 68.9252 50.0106 70.3068 53.9657 70.7516L54.3829 70.7798C65.3062 73.041 71.2725 72.3806 81.7866 69.18C87.3753 68.2338 90.4207 67.4662 95.422 64.9381C99.057 58.9424 105.161 58.0522 109.515 51.3773C110.954 49.171 111.247 45.1759 110.994 40.8155C109.15 39.2896 108.261 38.4499 105.24 36.795C101.772 34.1056 99.7064 32.5743 95.3017 30.3691C88.6895 27.1772 85.0211 25.3239 77.5137 23.552C70.2023 22.4803 66.0254 22.1334 58.333 22.3227C52.8495 23.0156 49.7656 23.2573 44.3431 24.8931C38.073 27.5162 34.7451 29.1493 29.5317 32.6955Z" fill="#E2857E"/>
<path d="M54.3829 70.7798L54.2257 75.4975H53.25C53.25 75.5931 53.3049 75.8385 53.4042 76.2042C53.5055 76.577 53.6529 77.0749 53.8355 77.6668C53.93 77.973 54.0339 78.3044 54.1457 78.6566C54.2213 78.8949 54.3005 79.1428 54.3829 79.3988C54.4521 79.614 54.5236 79.835 54.597 80.061L60.7132 82.9527L59.1975 97.467L62.3667 82.9527L72.8227 82.0838L73.9505 80.8508L74.6726 80.061L75.4201 79.2433L76.3661 78.2081L77.6618 76.7897C78.6798 75.6751 79.6533 74.6087 80.5416 73.6352L81.203 72.9103L81.7866 72.2705V69.18C71.2725 72.3806 65.3062 73.041 54.3829 70.7798Z" fill="#E2857E"/>
<path d="M54.597 80.061C54.7519 80.5382 54.9155 81.0377 55.085 81.5521L58.6464 83.4353L59.1975 99.6563L63.0557 84.2931L71.9532 83.0339L72.8227 82.0838L62.3667 82.9527L59.1975 97.467L60.7132 82.9527L54.597 80.061Z" fill="#EC4A4A"/>
<path d="M69.9317 85.2412C70.5854 84.5279 71.2631 83.7879 71.9532 83.0339L63.0557 84.2931L59.1975 99.6563L58.6464 83.4353L55.085 81.5521C55.1872 81.8621 55.2916 82.1775 55.3975 82.4966L58.4107 84.0473L58.6464 101.319L64.801 85.7864L69.9317 85.2412Z" fill="white"/>
<path d="M53.25 75.4975L52.5629 74.9195C51.1444 75.3965 51.1253 75.4165 46.8937 76.7897V77.9018L47.0239 78.4073C47.025 78.4114 51.2779 76.9403 53.4042 76.2042C53.3049 75.8385 53.25 75.5931 53.25 75.4975Z" fill="black"/>
<path d="M47.45 80.061L53.8355 77.6668C53.6529 77.0749 53.5055 76.577 53.4042 76.2042C51.2779 76.9403 47.025 78.4114 47.0239 78.4073L47.45 80.061Z" fill="#5F0915"/>
<path d="M47.7333 81.1604L54.1457 78.6566C54.0339 78.3044 53.93 77.973 53.8355 77.6668L47.45 80.061L47.7333 81.1604Z" fill="black"/>
<path d="M47.9712 82.0838L54.3829 79.3988C54.3005 79.1428 54.2213 78.8949 54.1457 78.6566L47.7333 81.1604L47.9712 82.0838Z" fill="white"/>
<path d="M48.0776 82.4966L54.597 80.061C54.5236 79.835 54.4521 79.614 54.3829 79.3988L47.9712 82.0838L48.0776 82.4966Z" fill="white"/>
<path d="M48.5404 84.2931L55.085 81.5521C54.9155 81.0377 54.7519 80.5382 54.597 80.061L48.0776 82.4966L48.5404 84.2931Z" fill="black"/>
<path d="M49.1728 86.7476L55.9972 84.2931C55.7942 83.6881 55.5931 83.0859 55.3975 82.4966C55.2916 82.1775 55.1872 81.8621 55.085 81.5521L48.5404 84.2931L49.1728 86.7476Z" fill="#5F0915"/>
<path d="M55.9972 84.2931L49.1728 86.7476L49.4957 88.0007C50.0102 88.0007 54.4025 86.5924 56.5344 85.8882C56.3555 85.359 56.1756 84.825 55.9972 84.2931Z" fill="black"/>
<path d="M56.5344 85.8882C54.4025 86.5924 50.0102 88.0007 49.4957 88.0007L49.7823 89.113L56.8253 86.7476C56.7289 86.4633 56.6318 86.1765 56.5344 85.8882Z" fill="white"/>
<path d="M56.8253 86.7476L49.7823 89.113L50.0433 90.126L57.089 87.5238C57.0019 87.2678 56.9139 87.0088 56.8253 86.7476Z" fill="black"/>
<path d="M57.089 87.5238L50.0433 90.126L50.3245 91.2175L57.4112 88.4693C57.3056 88.1601 57.198 87.8443 57.089 87.5238Z" fill="white"/>
<path d="M57.4112 88.4693L50.3245 91.2175L50.654 92.4961L57.7472 89.4518C57.6381 89.1334 57.5258 88.8052 57.4112 88.4693Z" fill="black"/>
<path d="M50.9834 93.7747L58.4107 91.3803C58.2102 90.8 57.9863 90.1495 57.7472 89.4518L50.654 92.4961L50.9834 93.7747Z" fill="#5F0915"/>
<path d="M63.2545 92.4635L68.5505 97.1382L71.1132 94.839L65.0901 90.5088C63.9976 91.691 63.3136 92.4218 63.2545 92.4635Z" fill="#5F0915"/>
<path d="M72.5541 93.5462L66.0652 89.4518C65.713 89.8342 65.3865 90.1881 65.0901 90.5088L71.1132 94.839L72.5541 93.5462Z" fill="black"/>
<path d="M66.0652 89.4518L72.5541 93.5462L73.5165 92.6827L67.3999 88.0007C66.9244 88.5183 66.4772 89.0045 66.0652 89.4518Z" fill="white"/>
<path d="M67.3999 88.0007L73.5165 92.6827L74.2206 92.051L67.8379 87.5238L67.3999 88.0007Z" fill="black"/>
<path d="M67.8379 87.5238L74.2206 92.051L75.1496 91.2175L68.5505 86.7476L67.8379 87.5238Z" fill="white"/>
<path d="M68.5505 86.7476L75.1496 91.2175L76.3661 90.126L69.9317 85.2412C69.4571 85.759 68.9952 86.2628 68.5505 86.7476Z" fill="black"/>
<path d="M69.9317 85.2412L76.3661 90.126L79.8568 86.9941L72.8227 82.0838L71.9532 83.0339C71.2631 83.7879 70.5854 84.5279 69.9317 85.2412Z" fill="#5F0915"/>
<path d="M72.8227 82.0838L79.8568 86.9941L81.203 85.7864L73.9505 80.8508L72.8227 82.0838Z" fill="black"/>
<path d="M73.9505 80.8508L81.203 85.7864L82.0992 84.9822L74.6726 80.061L73.9505 80.8508Z" fill="white"/>
<path d="M74.6726 80.061L82.0992 84.9822L82.8674 84.2931L75.4201 79.2433L74.6726 80.061Z" fill="black"/>
<path d="M75.4201 79.2433L82.8674 84.2931L83.8235 83.4353L76.3661 78.2081L75.4201 79.2433Z" fill="white"/>
<path d="M76.3661 78.2081L83.8235 83.4353L85.3298 82.0838L77.6618 76.7897L76.3661 78.2081Z" fill="black"/>
<path d="M77.6618 76.7897L85.3298 82.0838L89.0003 78.7906L80.5416 73.6352C79.6533 74.6087 78.6798 75.6751 77.6618 76.7897Z" fill="#5F0915"/>
<path d="M80.5416 73.6352L89.0003 78.7906L89.991 77.9018L81.203 72.9103L80.5416 73.6352Z" fill="black"/>
<path d="M81.7866 72.2705L81.203 72.9103L89.991 77.9018L90.7466 77.2239L82.805 72.2705H81.7866Z" fill="white"/>
<path d="M83.8235 72.2705H82.805L90.7466 77.2239L91.484 76.5623L85.3298 72.8199L83.8235 72.2705Z" fill="black"/>
<path d="M92.6708 75.4975L85.3298 72.8199L91.484 76.5623L92.6708 75.4975Z" fill="white"/>
<path fill-rule="evenodd" clip-rule="evenodd" d="M20.5063 107.034L19.5886 145.783C14.8854 161.321 15.4422 168.121 15.4137 178.399C19.6922 180.984 22.1583 181.814 26.7028 182.249V178.399V177.481L25.9361 169.492C26.7028 169.492 24.706 169.451 23.4124 168.803C23.7742 152.86 24.5524 158.333 25.3533 153.399C25.225 152.892 25.2041 152.349 25.3271 151.725C25.4276 151.216 25.6239 150.654 25.9361 150.016C26.2254 151.832 71.0346 154.888 104.656 151.725L104.773 150.699L105.006 148.655L105.284 146.221L105.544 143.943L105.693 142.635L106.728 133.556L97.6894 129.253L90.956 137.113C90.0211 138.368 89.2805 139.27 89.0003 139.396L90.956 137.113C92.665 134.819 95.0231 131.342 96.4052 129.253L97.5888 109.099L107.763 124.477L111.37 129.253L109.086 132.119V136.789L105.693 142.635L105.544 143.943C115.835 147.973 119.545 152.996 120.894 169.031C128.628 158.297 140.036 141.752 141.282 135.9C143.185 126.958 141.202 123.198 136.573 115.116C131.944 107.034 119.406 90.2251 113.752 85.8882C113.747 85.8848 113.743 85.8814 113.738 85.8779C113.346 85.7154 107.403 90.8909 106.754 92.051C106.096 93.2277 103.511 92.6804 102.307 92.051C101.104 91.4216 100 91.2175 99.9985 89.4518L99.9982 89.288C99.9959 87.6134 99.9943 86.4809 100.512 84.9822C101.045 83.4353 104.656 80.4037 104.656 80.4037C101.609 78.8709 99.2625 77.9018 99.2625 77.9018L92.6708 75.4975L91.484 76.5623L90.7466 77.2239L89.991 77.9018L89.0003 78.7906L85.3298 82.0838L83.8235 83.4353L82.8674 84.2931L82.0992 84.9822L81.203 85.7864L79.8568 86.9941L76.3661 90.126L75.1496 91.2175L74.2206 92.051L73.5165 92.6827L72.5541 93.5462L71.1132 94.839L68.5505 97.1382L63.2545 92.4635C63.3136 92.4218 63.9976 91.691 65.0901 90.5088C65.3865 90.1881 65.713 89.8342 66.0652 89.4518C66.4772 89.0045 66.9244 88.5183 67.3999 88.0007L67.8379 87.5238L68.5505 86.7476C68.9952 86.2628 69.4571 85.759 69.9317 85.2412L64.801 85.7864L58.6464 101.319L58.4107 84.0473L55.3975 82.4966C55.5931 83.0859 55.7942 83.6881 55.9972 84.2931C56.1756 84.825 56.3555 85.359 56.5344 85.8882C56.6318 86.1765 56.7289 86.4633 56.8253 86.7476C56.9139 87.0088 57.0019 87.2678 57.089 87.5238C57.198 87.8443 57.3056 88.1601 57.4112 88.4693C57.5258 88.8052 57.6381 89.1334 57.7472 89.4518C57.9863 90.1495 58.2102 90.8 58.4107 91.3803L50.9834 93.7747L50.654 92.4961L50.3245 91.2175L50.0433 90.126L49.7823 89.113L49.4957 88.0007L49.1728 86.7476L48.5404 84.2931L48.0776 82.4966L47.9712 82.0838L47.7333 81.1604L47.45 80.061L47.0239 78.4073L46.8937 77.9018C41.6932 79.9055 38.2125 81.3715 34.1834 83.3229L34.5246 90.7912C33.7878 92.4346 33.144 93.0018 31.3751 93.0659L25.9361 90.7912C23.3927 95.4199 22.1319 99.9888 20.5063 107.034ZM26.707 101.319L25.9361 148.83L23.4124 137.397V123.898L22.5912 113.704L26.707 101.319Z" fill="#1D395E"/>
<path d="M97.5888 109.099L96.4052 129.253C95.0231 131.342 92.665 134.819 90.956 137.113L97.6894 129.253L106.728 133.556L107.763 124.477L97.5888 109.099Z" fill="#122537"/>
<path d="M25.9361 148.83L26.707 101.319L22.5912 113.704L23.4124 123.898V137.397L25.9361 148.83Z" fill="#122537"/>
<path d="M120.894 169.031C119.545 152.996 115.835 147.973 105.544 143.943L105.284 146.221C117.407 150.136 119.987 155.911 120.319 169.828C120.508 169.566 120.7 169.3 120.894 169.031Z" fill="white"/>
<path d="M120.319 169.828C119.987 155.911 117.407 150.136 105.284 146.221L105.006 148.655C116.308 150.97 118.562 156.897 119.447 171.031C119.731 170.64 120.022 170.239 120.319 169.828Z" fill="#E0B157"/>
<path d="M119.447 171.031C118.562 156.897 116.308 150.97 105.006 148.655L104.773 150.699C115.284 152.267 117.213 158.438 118.755 171.982C118.981 171.672 119.212 171.355 119.447 171.031Z" fill="white"/>
<path d="M104.773 150.699L104.656 151.725C113.589 152.695 115.935 158.54 118.286 172.625C118.439 172.415 118.596 172.2 118.755 171.982C117.213 158.438 115.284 152.267 104.773 150.699Z" fill="#A41F22"/>
<path d="M102.523 178.745C109.947 181.188 113.82 182.324 113.752 178.745C113.752 178.745 115.575 176.333 118.286 172.625C115.935 158.54 113.589 152.695 104.656 151.725C104.656 151.725 104.854 152.486 105.006 153.399C105.104 153.981 105.183 154.624 105.183 155.172C105.182 155.873 105.05 156.419 104.656 156.481L102.523 170.506V178.745Z" fill="#E2857E"/>
<path d="M104.656 156.481C103.472 156.667 58.8849 158.795 25.9361 154.712C25.6722 154.283 25.469 153.856 25.3533 153.399C24.5524 158.333 23.7742 152.86 23.4124 168.803C24.706 169.451 26.7028 169.492 25.9361 169.492L93.0206 171.982C93.5222 171.982 99.5643 170.998 102.523 170.506L104.656 156.481Z" fill="#A41F22"/>
<path d="M104.656 151.725C71.0346 154.888 26.2254 151.832 25.9361 150.016C25.6239 150.654 25.4276 151.216 25.3271 151.725C56.2086 154.495 73.6457 154.95 105.006 153.399C104.854 152.486 104.656 151.725 104.656 151.725Z" fill="white"/>
<path d="M105.006 153.399C73.6457 154.95 56.2086 154.495 25.3271 151.725C25.2041 152.349 25.225 152.892 25.3533 153.399C56.2896 155.934 73.7576 156.405 105.183 155.172C105.183 154.624 105.104 153.981 105.006 153.399Z" fill="#E0B157"/>
<path d="M25.9361 154.712C58.8849 158.795 103.472 156.667 104.656 156.481C105.05 156.419 105.182 155.873 105.183 155.172C73.7576 156.405 56.2896 155.934 25.3533 153.399C25.469 153.856 25.6722 154.283 25.9361 154.712Z" fill="white"/>
<path d="M26.7028 182.249C22.1583 181.814 19.6922 180.984 15.4137 178.399C15.4123 178.889 15.4096 179.386 15.405 179.893C19.8037 182.566 22.281 183.305 26.7028 184.396V182.249Z" fill="white"/>
<path d="M26.7028 184.396C22.281 183.305 19.8037 182.566 15.405 179.893C15.398 180.656 15.3865 181.44 15.3685 182.249C19.5442 184.385 22.0902 185.032 26.7028 185.994V184.396Z" fill="#E0B157"/>
<path d="M15.3059 184.396C19.6826 186.507 22.1868 187.104 26.7028 187.592V185.994C22.0902 185.032 19.5442 184.385 15.3685 182.249C15.353 182.945 15.3326 183.66 15.3059 184.396Z" fill="white"/>
<path d="M15.3059 184.396V191.822L19.5886 193.442C20.0025 193.974 22.4898 194.558 24.4957 194.882C25.414 195.031 26.2315 195.125 26.7028 195.135V187.592C22.1868 187.104 19.6826 186.507 15.3059 184.396Z" fill="#A41F22"/>
<path d="M19.5886 193.442V202.353L23.4124 206.943L24.4957 194.882C22.4898 194.558 20.0025 193.974 19.5886 193.442Z" fill="#E2857E"/>
<path d="M23.4124 206.943L18.1754 263.5C14.8254 273.743 12.1943 279.104 6.55934 288.202C3.38215 290.551 1.46138 291.704 0.0473286 296.125C-0.34471 301.912 1.77563 302.053 3.56733 303.738C11.8215 305.256 14.417 304.267 18.1754 301.718C31.9249 294.333 30.5713 295.121 34.8954 292.863C42.1356 290.563 45.2794 291.401 47.0394 288.202C48.7994 285.003 48.7994 265.209 48.7994 265.209L45.364 266.846C44.6916 266.242 43.3184 264.99 43.2052 264.815C43.0919 264.64 41.6479 263.743 40.9401 263.316C40.0317 263.732 38.1866 264.565 38.0734 264.565C37.9601 264.565 37.1296 263.524 36.7285 263.003L35.6668 264.565L33.6848 262.441L30.9597 261.535L29.5794 258.889L27.7037 260.067L26.7028 258.889L24.4957 260.955L23.4124 258.889C23.4124 258.889 25.0374 246.581 25.2965 243.057C25.3262 242.652 25.338 242.363 25.3271 242.222C25.312 242.025 25.2839 241.727 25.2471 241.362C25.2193 241.088 25.1865 240.775 25.1504 240.438C25.1125 240.083 25.0708 239.702 25.0275 239.31C24.9889 238.961 24.949 238.604 24.9091 238.25C24.8701 237.903 24.8311 237.559 24.7936 237.229C24.728 236.654 24.6669 236.122 24.6172 235.693C24.5439 235.058 24.4957 234.646 24.4957 234.646L25.9361 208.336L31.6422 178.745L26.7028 178.399V182.249V184.396V185.994V187.592V195.135C26.2315 195.125 25.414 195.031 24.4957 194.882L23.4124 206.943Z" fill="#E2857E"/>
<path d="M25.9361 169.492L26.7028 177.481V178.399L31.6422 178.745L25.9361 208.336L24.4957 234.646C51.4496 241.49 66.3782 241.546 92.725 235.693C92.1897 215.205 92.627 197.586 93.0206 171.982L25.9361 169.492Z" fill="#1D395E"/>
<path d="M72.3835 266.297V278.725C70.0537 285.177 62.9355 294.748 62.1754 295.038C59.8062 295.941 58.4296 302.083 59.0074 303.738C60.673 305.756 61.9264 306.288 64.2874 307C82.2429 306.913 79.6412 306.971 83.8235 307C94.2207 300.999 105.582 293.752 107.232 288.202C108.881 282.652 104.768 223.108 104.768 223.108L102.523 178.745V170.506C99.5643 170.998 93.5222 171.982 93.0206 171.982C92.627 197.586 92.1897 215.205 92.725 235.693C92.7343 236.049 92.7439 236.406 92.7538 236.764C92.7637 237.121 92.7738 237.48 92.7843 237.839C92.7935 238.153 92.8029 238.467 92.8125 238.783C92.8246 239.179 92.8371 239.578 92.85 239.977C92.8607 240.312 92.8718 240.647 92.8831 240.984C92.8969 241.395 92.9112 241.808 92.9258 242.222C92.936 242.511 92.9464 242.801 92.9571 243.092L92.9708 243.466C93.1807 249.126 93.4676 255.082 93.8504 261.535L88.4001 264.315L85.1795 264.784L82.8791 266.783C81.2982 266.502 78.1224 265.902 78.0658 265.752C78.0092 265.602 77.0277 265.377 76.544 265.284L73.0402 267.346L72.3835 266.297Z" fill="#E2857E"/>
<path d="M92.725 235.693C66.3782 241.546 51.4496 241.49 24.4957 234.646C24.4957 234.646 24.5439 235.058 24.6172 235.693C51.9458 242.683 66.8403 242.695 92.7538 236.764C92.7439 236.406 92.7343 236.049 92.725 235.693Z" fill="#C4C4C4"/>
<path d="M92.7538 236.764C66.8403 242.695 51.9458 242.683 24.6172 235.693C24.6669 236.122 24.728 236.654 24.7936 237.229C51.6533 243.361 66.5278 243.27 92.7843 237.839C92.7738 237.48 92.7637 237.121 92.7538 236.764Z" fill="#C4C4C4"/>
<path d="M92.7843 237.839C66.5278 243.27 51.6533 243.361 24.7936 237.229C24.8311 237.559 24.8701 237.903 24.9091 238.25C51.6317 245.268 66.4931 245.165 92.8125 238.783C92.8029 238.467 92.7935 238.153 92.7843 237.839Z" fill="#E0B157"/>
<path d="M92.8125 238.783C66.4931 245.165 51.6317 245.268 24.9091 238.25C24.949 238.604 24.9889 238.961 25.0275 239.31C51.2069 246.023 66.0679 245.98 92.85 239.977C92.8371 239.578 92.8246 239.179 92.8125 238.783Z" fill="#C4C4C4"/>
<path d="M92.85 239.977C66.0679 245.98 51.2069 246.023 25.0275 239.31C25.0708 239.702 25.1125 240.083 25.1504 240.438C51.8102 247.315 66.6277 247.041 92.8831 240.984C92.8718 240.647 92.8607 240.312 92.85 239.977Z" fill="#E0B157"/>
<path d="M92.8831 240.984C66.6277 247.041 51.8102 247.315 25.1504 240.438C25.1865 240.775 25.2193 241.088 25.2471 241.362C51.4654 248.325 66.2958 248.176 92.9258 242.222C92.9112 241.808 92.8969 241.395 92.8831 240.984Z" fill="#C4C4C4"/>
<path d="M25.2471 241.362C25.2839 241.727 25.312 242.025 25.3271 242.222C25.338 242.363 25.3262 242.652 25.2965 243.057C52.0369 249.475 66.8377 249.231 92.9708 243.466L92.9571 243.092C92.9464 242.801 92.936 242.511 92.9258 242.222C66.2958 248.176 51.4654 248.325 25.2471 241.362Z" fill="#C4C4C4"/>
<path d="M48.7994 265.209C65.9418 268.647 64.849 266.509 72.3835 266.297L73.0402 267.346L76.544 265.284C77.0277 265.377 78.0092 265.602 78.0658 265.752C78.1224 265.902 81.2982 266.502 82.8791 266.783L85.1795 264.784L88.4001 264.315L93.8504 261.535C93.4676 255.082 93.1807 249.126 92.9708 243.466C66.8377 249.231 52.0369 249.475 25.2965 243.057C25.0374 246.581 23.4124 258.889 23.4124 258.889L24.4957 260.955L26.7028 258.889L27.7037 260.067L29.5794 258.889L30.9597 261.535L33.6848 262.441L35.6668 264.565L36.7285 263.003C37.1296 263.524 37.9601 264.565 38.0734 264.565C38.1866 264.565 40.0317 263.732 40.9401 263.316C41.6479 263.743 43.0919 264.64 43.2052 264.815C43.3184 264.99 44.6916 266.242 45.364 266.846L48.7994 265.209Z" fill="#A41F22"/>
<path d="M106.754 81.4938L102.307 85.2412C102.307 85.2412 101.643 88.0007 102.307 89.4518C102.972 90.9028 104.656 90.3934 104.656 90.3934L106.754 89.113L112.513 84.9822C111.922 84.5693 111.309 84.1649 110.685 83.7719L106.754 86.9941C106.754 86.9941 105.674 88.2848 104.656 88.0007C103.639 87.7166 104.268 86.3716 104.656 85.2412L108.561 82.4966C107.954 82.1484 107.348 81.8133 106.754 81.4938Z" fill="#E0B157"/>
<path d="M108.561 82.4966L104.656 85.2412C104.268 86.3716 103.639 87.7166 104.656 88.0007C105.674 88.2848 106.754 86.9941 106.754 86.9941L110.685 83.7719C109.986 83.3313 109.273 82.9049 108.561 82.4966Z" fill="#C4C4C4"/>
<path d="M104.656 80.4037C104.656 80.4037 101.045 83.4353 100.512 84.9822C99.9943 86.4809 99.9959 87.6134 99.9982 89.288L99.9985 89.4518C100 91.2175 101.104 91.4216 102.307 92.051C103.511 92.6804 106.096 93.2277 106.754 92.051C107.403 90.8909 113.346 85.7154 113.738 85.8779C113.344 85.5757 112.934 85.2768 112.513 84.9822L106.754 89.113L104.656 90.3934C104.656 90.3934 102.972 90.9028 102.307 89.4518C101.643 88.0007 102.307 85.2412 102.307 85.2412L106.754 81.4938C106.033 81.106 105.327 80.7412 104.656 80.4037Z" fill="#C4C4C4"/>
<path d="M34.5246 90.7912L34.1834 83.3229C33.5437 83.6327 32.8902 83.9547 32.2138 84.2931L32.234 89.7298C32.2971 91.1384 31.8916 91.5531 29.8862 91.2175L26.707 89.4518C26.4372 89.9003 26.1807 90.3461 25.9361 90.7912L31.3751 93.0659C33.144 93.0018 33.7878 92.4346 34.5246 90.7912Z" fill="#C4C4C4"/>
<path d="M26.707 89.4518L29.8862 91.2175C31.8916 91.5531 32.2971 91.1384 32.234 89.7298L32.2138 84.2931C31.4697 84.6653 30.6979 85.0574 29.8862 85.4746L30.5734 88.4693C30.5017 89.2783 30.3053 89.4993 29.4281 89.113L27.937 87.5238C27.4975 88.1764 27.0889 88.8169 26.707 89.4518Z" fill="#E0B157"/>
<path d="M29.8862 85.4746C29.6233 85.6098 29.3562 85.7476 29.0845 85.8882C28.6796 86.4439 28.2979 86.9879 27.937 87.5238L29.4281 89.113C30.3053 89.4993 30.5017 89.2783 30.5734 88.4693L29.8862 85.4746Z" fill="#C4C4C4"/>
</svg>
