<svg width="40" height="40" viewBox="0 0 40 40" fill="none" xmlns="http://www.w3.org/2000/svg">
<mask id="mask0_2113_17217" style="mask-type:alpha" maskUnits="userSpaceOnUse" x="0" y="0" width="40" height="40">
<path d="M19.0741 10.633C19.3941 9.789 20.6051 9.789 20.9261 10.633L22.9961 16.367C23.0683 16.5538 23.1955 16.7143 23.3608 16.8273C23.5261 16.9403 23.7218 17.0005 23.9221 17H29.0091C29.9491 17 30.3591 18.17 29.6201 18.743L26.0001 22C25.8379 22.1247 25.7194 22.2975 25.6616 22.4937C25.6037 22.6898 25.6095 22.8993 25.6781 23.092L27.0001 28.695C27.3221 29.595 26.2801 30.368 25.4921 29.814L20.5751 26.694C20.4067 26.5757 20.2059 26.5122 20.0001 26.5122C19.7943 26.5122 19.5935 26.5757 19.4251 26.694L14.5081 29.814C13.7211 30.368 12.6781 29.594 13.0001 28.695L14.3221 23.092C14.3907 22.8993 14.3964 22.6898 14.3386 22.4937C14.2807 22.2975 14.1622 22.1247 14.0001 22L10.3801 18.743C9.64008 18.17 10.0521 17 10.9901 17H16.0771C16.2774 17.0007 16.4731 16.9405 16.6385 16.8275C16.8038 16.7144 16.931 16.5539 17.0031 16.367L19.0731 10.633H19.0741Z" stroke="black" stroke-width="2" stroke-linecap="round" stroke-linejoin="round"/>
</mask>
<g mask="url(#mask0_2113_17217)">
<path d="M0 0H40V40H0V0Z" fill="#778083"/>
</g>
</svg>
