<svg width="32" height="32" viewBox="0 0 32 32" fill="none" xmlns="http://www.w3.org/2000/svg">
<path d="M15.0746 6.633C15.3946 5.789 16.6056 5.789 16.9266 6.633L18.9966 12.367C19.0688 12.5538 19.1959 12.7143 19.3613 12.8273C19.5266 12.9403 19.7223 13.0005 19.9226 13H25.0096C25.9496 13 26.3596 14.17 25.6206 14.743L22.0006 18C21.8384 18.1247 21.7199 18.2975 21.6621 18.4937C21.6042 18.6898 21.61 18.8993 21.6786 19.092L23.0006 24.695C23.3226 25.595 22.2806 26.368 21.4926 25.814L16.5756 22.694C16.4072 22.5757 16.2064 22.5122 16.0006 22.5122C15.7948 22.5122 15.594 22.5757 15.4256 22.694L10.5086 25.814C9.72156 26.368 8.67856 25.594 9.00056 24.695L10.3226 19.092C10.3911 18.8993 10.3969 18.6898 10.3391 18.4937C10.2812 18.2975 10.1627 18.1247 10.0006 18L6.38056 14.743C5.64056 14.17 6.05256 13 6.99056 13H12.0776C12.2779 13.0007 12.4736 12.9405 12.639 12.8275C12.8043 12.7144 12.9315 12.5539 13.0036 12.367L15.0736 6.633H15.0746Z" stroke="#778083" stroke-width="2" stroke-linecap="round" stroke-linejoin="round"/>
</svg>
