<svg width="40" height="40" viewBox="0 0 40 40" fill="none" xmlns="http://www.w3.org/2000/svg">
<mask id="mask0_1525_15565" style="mask-type:alpha" maskUnits="userSpaceOnUse" x="0" y="0" width="40" height="40">
<path d="M30.7812 28.0568H11.9688V11.2159C11.9688 11.0972 11.8703 11 11.75 11H10.2188C10.0984 11 10 11.0972 10 11.2159V29.7841C10 29.9028 10.0984 30 10.2188 30H30.7812C30.9016 30 31 29.9028 31 29.7841V28.2727C31 28.154 30.9016 28.0568 30.7812 28.0568ZM14.375 25.8977H15.9062C16.0266 25.8977 16.125 25.8006 16.125 25.6818V21.7955C16.125 21.6767 16.0266 21.5795 15.9062 21.5795H14.375C14.2547 21.5795 14.1562 21.6767 14.1562 21.7955V25.6818C14.1562 25.8006 14.2547 25.8977 14.375 25.8977ZM18.5312 25.8977H20.0625C20.1828 25.8977 20.2812 25.8006 20.2812 25.6818V17.0455C20.2812 16.9267 20.1828 16.8295 20.0625 16.8295H18.5312C18.4109 16.8295 18.3125 16.9267 18.3125 17.0455V25.6818C18.3125 25.8006 18.4109 25.8977 18.5312 25.8977ZM22.6875 25.8977H24.2188C24.3391 25.8977 24.4375 25.8006 24.4375 25.6818V19.1506C24.4375 19.0318 24.3391 18.9347 24.2188 18.9347H22.6875C22.5672 18.9347 22.4688 19.0318 22.4688 19.1506V25.6818C22.4688 25.8006 22.5672 25.8977 22.6875 25.8977ZM26.8438 25.8977H28.375C28.4953 25.8977 28.5938 25.8006 28.5938 25.6818V14.8864C28.5938 14.7676 28.4953 14.6705 28.375 14.6705H26.8438C26.7234 14.6705 26.625 14.7676 26.625 14.8864V25.6818C26.625 25.8006 26.7234 25.8977 26.8438 25.8977Z" fill="black"/>
<path d="M16 18C16 18.5523 15.5523 19 15 19C14.4477 19 14 18.5523 14 18C14 17.4477 14.4477 17 15 17C15.0905 17 15.1783 17.012 15.2617 17.0346C15.4846 17.0949 15.6766 17.2303 15.8089 17.4119C15.9291 17.577 16 17.7802 16 18Z" fill="#778083"/>
<path d="M20 13C20 13.2415 19.9144 13.463 19.7719 13.6358C19.5885 13.8582 19.3108 14 19 14C18.862 14 18.7306 13.9721 18.6111 13.9215C18.4098 13.8365 18.2422 13.6875 18.1338 13.5C18.0487 13.3529 18 13.1821 18 13C18 12.4477 18.4477 12 19 12C19.5523 12 20 12.4477 20 13Z" fill="#778083"/>
<path d="M24 16C24 16.5523 23.5523 17 23 17C22.4477 17 22 16.5523 22 16C22 15.8179 22.0487 15.6471 22.1338 15.5C22.2553 15.29 22.451 15.1282 22.685 15.0506C22.784 15.0178 22.8899 15 23 15C23.1821 15 23.3529 15.0487 23.5 15.1338C23.7022 15.2507 23.8596 15.4365 23.9403 15.659C23.9789 15.7654 24 15.8802 24 16Z" fill="#778083"/>
<path d="M29 12C29 12.5523 28.5523 13 28 13C27.8179 13 27.6471 12.9513 27.5 12.8662C27.3003 12.7507 27.1443 12.5682 27.0627 12.3494C27.0222 12.2406 27 12.1229 27 12C27 11.4477 27.4477 11 28 11C28.5523 11 29 11.4477 29 12Z" fill="#778083"/>
<path d="M27.0627 12.3494L23.5 15.1338C23.7022 15.2507 23.8596 15.4365 23.9403 15.659L27.5 12.8662C27.3003 12.7507 27.1443 12.5682 27.0627 12.3494Z" fill="black"/>
<path d="M20 13C20 13.2415 19.9144 13.463 19.7719 13.6358L22.1338 15.5C22.2553 15.29 22.451 15.1282 22.685 15.0506L20 13Z" fill="black"/>
<path d="M18.1338 13.5L15.2617 17.0346C15.4846 17.0949 15.6766 17.2303 15.8089 17.4119L18.6111 13.9215C18.4098 13.8365 18.2422 13.6875 18.1338 13.5Z" fill="black"/>
</mask>
<g mask="url(#mask0_1525_15565)">
<path d="M0 0H40V40H0V0Z" fill="#778083"/>
</g>
</svg>
