<svg width="32" height="32" viewBox="0 0 32 32" fill="none" xmlns="http://www.w3.org/2000/svg">
<path d="M26.7812 24.0568H7.96875V7.21591C7.96875 7.09716 7.87031 7 7.75 7H6.21875C6.09844 7 6 7.09716 6 7.21591V25.7841C6 25.9028 6.09844 26 6.21875 26H26.7812C26.9016 26 27 25.9028 27 25.7841V24.2727C27 24.154 26.9016 24.0568 26.7812 24.0568ZM10.375 21.8977H11.9062C12.0266 21.8977 12.125 21.8006 12.125 21.6818V17.7955C12.125 17.6767 12.0266 17.5795 11.9062 17.5795H10.375C10.2547 17.5795 10.1562 17.6767 10.1562 17.7955V21.6818C10.1562 21.8006 10.2547 21.8977 10.375 21.8977ZM14.5312 21.8977H16.0625C16.1828 21.8977 16.2812 21.8006 16.2812 21.6818V13.0455C16.2812 12.9267 16.1828 12.8295 16.0625 12.8295H14.5312C14.4109 12.8295 14.3125 12.9267 14.3125 13.0455V21.6818C14.3125 21.8006 14.4109 21.8977 14.5312 21.8977ZM18.6875 21.8977H20.2188C20.3391 21.8977 20.4375 21.8006 20.4375 21.6818V15.1506C20.4375 15.0318 20.3391 14.9347 20.2188 14.9347H18.6875C18.5672 14.9347 18.4688 15.0318 18.4688 15.1506V21.6818C18.4688 21.8006 18.5672 21.8977 18.6875 21.8977ZM22.8438 21.8977H24.375C24.4953 21.8977 24.5938 21.8006 24.5938 21.6818V10.8864C24.5938 10.7676 24.4953 10.6705 24.375 10.6705H22.8438C22.7234 10.6705 22.625 10.7676 22.625 10.8864V21.6818C22.625 21.8006 22.7234 21.8977 22.8438 21.8977Z" fill="#778083"/>
<path d="M12 14C12 14.5523 11.5523 15 11 15C10.4477 15 10 14.5523 10 14C10 13.4477 10.4477 13 11 13C11.0905 13 11.1783 13.012 11.2617 13.0346C11.4846 13.0949 11.6766 13.2303 11.8089 13.4119C11.9291 13.577 12 13.7802 12 14Z" fill="#778083"/>
<path d="M16 9C16 9.2415 15.9144 9.46301 15.7719 9.63583C15.5885 9.85823 15.3108 10 15 10C14.862 10 14.7306 9.97207 14.6111 9.92154C14.4098 9.83651 14.2422 9.6875 14.1338 9.5C14.0487 9.35291 14 9.18214 14 9C14 8.44772 14.4477 8 15 8C15.5523 8 16 8.44772 16 9Z" fill="#778083"/>
<path d="M20 12C20 12.5523 19.5523 13 19 13C18.4477 13 18 12.5523 18 12C18 11.8179 18.0487 11.6471 18.1338 11.5C18.2553 11.29 18.451 11.1282 18.685 11.0506C18.784 11.0178 18.8899 11 19 11C19.1821 11 19.3529 11.0487 19.5 11.1338C19.7022 11.2507 19.8596 11.4365 19.9403 11.659C19.9789 11.7654 20 11.8802 20 12Z" fill="#778083"/>
<path d="M25 8C25 8.55228 24.5523 9 24 9C23.8179 9 23.6471 8.9513 23.5 8.86622C23.3003 8.75072 23.1443 8.56819 23.0627 8.34939C23.0222 8.24063 23 8.1229 23 8C23 7.44772 23.4477 7 24 7C24.5523 7 25 7.44772 25 8Z" fill="#778083"/>
<path d="M23.0627 8.34939L19.5 11.1338C19.7022 11.2507 19.8596 11.4365 19.9403 11.659L23.5 8.86622C23.3003 8.75072 23.1443 8.56819 23.0627 8.34939Z" fill="#778083"/>
<path d="M16 9C16 9.2415 15.9144 9.46301 15.7719 9.63583L18.1338 11.5C18.2553 11.29 18.451 11.1282 18.685 11.0506L16 9Z" fill="#778083"/>
<path d="M14.1338 9.5L11.2617 13.0346C11.4846 13.0949 11.6766 13.2303 11.8089 13.4119L14.6111 9.92154C14.4098 9.83651 14.2422 9.6875 14.1338 9.5Z" fill="#778083"/>
</svg>
