<svg width="73" height="74" viewBox="0 0 73 74" fill="none" xmlns="http://www.w3.org/2000/svg">
<path d="M16.425 56.6874H14.9498M8.36462 27.5807H64.6354H8.36462ZM8.36462 46.4199H64.6354H8.36462ZM45.7923 8.47949V65.5212V8.47949ZM27.2077 8.47949V65.5212V8.47949ZM59.0388 35.0887C59.0374 34.5625 58.9306 34.042 58.7248 33.5589C58.5191 33.0758 58.2187 32.6401 57.8418 32.2783C57.4649 31.9164 57.0195 31.636 56.5324 31.4539C56.0454 31.2718 55.527 31.1919 55.0086 31.2191C54.0043 31.3089 53.0714 31.7826 52.3992 32.5442C51.7269 33.3059 51.3658 34.2982 51.389 35.3199V38.912C51.393 39.9397 51.7986 40.9239 52.5169 41.6491C53.2352 42.3744 54.2077 42.7816 55.2215 42.7816V42.7816C56.2327 42.7775 57.2013 42.3685 57.9163 41.6437C58.6313 40.9189 59.0348 39.937 59.0388 38.912V35.0887ZM32.6675 50.6441V58.3524C32.6756 59.3774 33.0829 60.3577 33.8007 61.0796C34.5186 61.8015 35.4888 62.2066 36.5 62.2066V62.2066C37.5138 62.2066 38.4864 61.7994 39.2047 61.0741C39.923 60.3489 40.3285 59.3647 40.3325 58.337V50.6287L32.6675 50.6441ZM32.6675 10.792V18.5003C32.6914 19.5132 33.1062 20.4761 33.8228 21.1823C34.5394 21.8886 35.5006 22.2817 36.5 22.2774V22.2774C37.0026 22.2794 37.5006 22.1808 37.9655 21.9873C38.4304 21.7937 38.853 21.509 39.2091 21.1495C39.5652 20.79 39.8477 20.3627 40.0405 19.8922C40.2333 19.4217 40.3325 18.9173 40.3325 18.4078V10.792H32.6675ZM32.6827 42.7816V31.2191H34.6142C36.1268 31.2191 37.5774 31.8282 38.6469 32.9124C39.7165 33.9966 40.3173 35.467 40.3173 37.0003V37.0003C40.3173 38.5336 39.7165 40.0041 38.6469 41.0883C37.5774 42.1725 36.1268 42.7816 34.6142 42.7816H32.6827ZM21.5959 10.792H16.8205C16.0752 10.7917 15.3592 11.0865 14.8251 11.6135C14.2911 12.1404 13.9811 12.858 13.9613 13.6132V13.6132C13.9653 14.3793 14.2683 15.1125 14.8041 15.6527C15.3398 16.1929 16.0648 16.4962 16.8205 16.4962H17.7786L21.5959 10.792ZM17.7786 16.4962H18.7519C19.1267 16.4962 19.4977 16.5712 19.8438 16.7171C20.1898 16.8629 20.504 17.0766 20.7683 17.346C21.0326 17.6153 21.2417 17.935 21.3838 18.2865C21.5258 18.6381 21.5979 19.0146 21.5959 19.3945V19.3945C21.5959 20.1591 21.2962 20.8924 20.7629 21.433C20.2295 21.9737 19.5062 22.2774 18.7519 22.2774H13.9613L17.7786 16.4962ZM14.9498 50.9216V62.4687V50.9216ZM16.425 56.6874L20.6225 50.9524L16.425 56.6874ZM16.425 56.6874L20.6225 62.4841L16.425 56.6874Z" stroke="#0E8955" stroke-width="1.7" stroke-linecap="round" stroke-linejoin="round"/>
</svg>
