<svg width="310" height="415" viewBox="0 0 310 415" fill="none" xmlns="http://www.w3.org/2000/svg">
<path d="M290.694 231.895C290.694 231.895 288.882 223.284 283.759 221.476C278.636 219.667 268.985 217.203 263.446 218.25C257.906 219.297 253.737 220.349 253.737 220.349L248.412 220.927C253.77 221.277 250.221 223.035 246.168 225.965C246.168 225.965 246.055 229.213 245.942 232.177C246.17 231.803 251.55 228.098 254.004 227.627C256.071 226.956 258.127 226.517 260.724 226.432C264.699 226.334 265.873 226.386 268.427 226.432C270.783 226.576 271.895 226.727 273.67 227.06C277.332 227.843 278.3 228.22 280.446 228.916C282.951 230.02 284.225 230.599 284.762 231.102C287.156 232.59 287.808 233.096 288.862 233.946C290.75 235.605 290.793 235.79 291.639 236.685C291.167 233.918 290.694 231.895 290.694 231.895Z" fill="black"/>
<path d="M245.892 233.473C249.347 231.359 249.58 230.202 254.376 228.81C257.446 228.199 260.428 227.537 260.724 227.627C263.079 227.595 262.561 227.488 268.427 227.627C270.288 227.732 271.35 227.817 273.67 228.559C276.206 229.228 277.329 229.402 280.446 230.46C282.175 231.302 283.347 231.753 284.583 232.647C286.406 233.723 287.404 234.336 288.862 235.551C290.516 236.93 291.047 237.571 291.96 238.702C291.857 238.001 291.748 237.323 291.639 236.685C290.793 235.79 290.75 235.605 288.862 233.946C287.808 233.096 287.156 232.59 284.762 231.102C284.225 230.599 282.951 230.02 280.446 228.916C278.3 228.22 277.332 227.843 273.67 227.06C271.895 226.727 270.783 226.576 268.427 226.432C265.873 226.386 264.699 226.334 260.724 226.432C258.127 226.517 256.071 226.956 254.004 227.627C251.55 228.098 246.17 231.803 245.942 232.177C245.925 232.62 245.908 233.056 245.892 233.473Z" fill="#A41F22"/>
<path d="M245.892 233.473C245.846 234.634 245.802 235.655 245.769 236.286C245.734 236.975 245.791 237.492 245.892 237.877C249.017 235.704 250.879 234.541 254.982 232.862C258.029 231.695 259.77 231.64 262.864 231.32C267.275 231.222 269.669 231.43 273.848 232.109C277.928 233.5 280.037 234.562 283.759 236.52C286.098 238.041 287.282 238.906 289.29 240.32C290.675 241.26 291.346 241.834 292.447 242.9C292.334 241.487 292.157 240.051 291.96 238.702C291.047 237.571 290.516 236.93 288.862 235.551C287.404 234.336 286.406 233.723 284.583 232.647C283.347 231.753 282.175 231.302 280.446 230.46C277.329 229.402 276.206 229.228 273.67 228.559C271.35 227.817 270.288 227.732 268.427 227.627C262.561 227.488 263.079 227.595 260.724 227.627C260.428 227.537 257.446 228.199 254.376 228.81C249.58 230.202 249.347 231.359 245.892 233.473Z" fill="#1D395E"/>
<path d="M246.638 238.981C249.575 236.705 251.45 235.657 254.982 233.974C258.037 232.924 259.774 232.769 262.864 232.324C267.197 232.203 269.551 232.425 273.67 233.113C277.899 234.25 279.966 235.439 283.691 237.488C286.173 238.903 287.336 239.885 289.29 241.611C290.992 242.673 291.493 243.212 292.532 244.191C292.51 243.765 292.482 243.334 292.447 242.9C291.346 241.834 290.675 241.26 289.29 240.32C287.282 238.906 286.098 238.041 283.759 236.52C280.037 234.562 277.928 233.5 273.848 232.109C269.669 231.43 267.275 231.222 262.864 231.32C259.77 231.64 258.029 231.695 254.982 232.862C250.879 234.541 249.017 235.704 245.892 237.877C246.137 238.822 246.638 238.981 246.638 238.981Z" fill="#A41F22"/>
<path d="M246.638 238.981C245.821 240.187 246.588 252.542 249.258 259.67C255.108 262.229 258.175 263.115 260.403 263.401L260.638 263.419C266.792 264.87 270.154 264.446 276.077 262.392C279.225 261.785 280.941 261.293 283.759 259.67C285.807 255.823 289.246 255.252 291.699 250.968C292.509 249.553 292.674 246.989 292.532 244.191C291.493 243.212 290.992 242.673 289.29 241.611C287.336 239.885 286.173 238.903 283.691 237.488C279.966 235.439 277.899 234.25 273.67 233.113C269.551 232.425 267.197 232.203 262.864 232.324C259.774 232.769 258.037 232.924 254.982 233.974C251.45 235.657 249.575 236.705 246.638 238.981Z" fill="#E2857E"/>
<path d="M260.638 263.419L260.55 266.446H260C260 266.508 260.031 266.665 260.087 266.9C260.144 267.139 260.227 267.458 260.33 267.838C260.383 268.035 260.442 268.247 260.505 268.473C260.547 268.626 260.592 268.785 260.638 268.95C260.677 269.088 260.718 269.23 260.759 269.375L264.205 271.23L263.351 280.544L265.136 271.23L271.027 270.673L271.662 269.881L272.069 269.375L272.49 268.85L273.023 268.186L273.753 267.276C274.327 266.56 274.875 265.876 275.376 265.251L275.748 264.786L276.077 264.376V262.392C270.154 264.446 266.792 264.87 260.638 263.419Z" fill="#E2857E"/>
<path d="M260.759 269.375C260.846 269.681 260.938 270.001 261.034 270.331L263.04 271.54L263.351 281.949L265.524 272.09L270.537 271.282L271.027 270.673L265.136 271.23L263.351 280.544L264.205 271.23L260.759 269.375Z" fill="#EC4A4A"/>
<path d="M269.398 272.699C269.766 272.241 270.148 271.766 270.537 271.282L265.524 272.09L263.351 281.949L263.04 271.54L261.034 270.331C261.091 270.53 261.15 270.733 261.21 270.938L262.907 271.933L263.04 283.015L266.508 273.049L269.398 272.699Z" fill="white"/>
<path d="M260 266.446L259.613 266.075C258.814 266.381 258.803 266.394 256.419 267.276V267.989L256.492 268.313C256.493 268.316 258.889 267.372 260.087 266.9C260.031 266.665 260 266.508 260 266.446Z" fill="black"/>
<path d="M256.732 269.375L260.33 267.838C260.227 267.458 260.144 267.139 260.087 266.9C258.889 267.372 256.493 268.316 256.492 268.313L256.732 269.375Z" fill="#5F0915"/>
<path d="M256.892 270.08L260.505 268.473C260.442 268.247 260.383 268.035 260.33 267.838L256.732 269.375L256.892 270.08Z" fill="black"/>
<path d="M257.026 270.673L260.638 268.95C260.592 268.785 260.547 268.626 260.505 268.473L256.892 270.08L257.026 270.673Z" fill="white"/>
<path d="M257.086 270.938L260.759 269.375C260.718 269.23 260.677 269.088 260.638 268.95L257.026 270.673L257.086 270.938Z" fill="white"/>
<path d="M257.347 272.09L261.034 270.331C260.938 270.001 260.846 269.681 260.759 269.375L257.086 270.938L257.347 272.09Z" fill="black"/>
<path d="M257.703 273.665L261.548 272.09C261.433 271.702 261.32 271.316 261.21 270.938C261.15 270.733 261.091 270.53 261.034 270.331L257.347 272.09L257.703 273.665Z" fill="#5F0915"/>
<path d="M261.548 272.09L257.703 273.665L257.885 274.47C258.175 274.47 260.649 273.566 261.85 273.114C261.75 272.774 261.648 272.432 261.548 272.09Z" fill="black"/>
<path d="M261.85 273.114C260.649 273.566 258.175 274.47 257.885 274.47L258.046 275.183L262.014 273.665C261.96 273.483 261.905 273.299 261.85 273.114Z" fill="white"/>
<path d="M262.014 273.665L258.046 275.183L258.193 275.833L262.163 274.164C262.114 273.999 262.064 273.833 262.014 273.665Z" fill="black"/>
<path d="M262.163 274.164L258.193 275.833L258.352 276.534L262.344 274.77C262.285 274.572 262.224 274.369 262.163 274.164Z" fill="white"/>
<path d="M262.344 274.77L258.352 276.534L258.537 277.354L262.534 275.401C262.472 275.196 262.409 274.986 262.344 274.77Z" fill="black"/>
<path d="M258.723 278.175L262.907 276.638C262.794 276.266 262.668 275.848 262.534 275.401L258.537 277.354L258.723 278.175Z" fill="#5F0915"/>
<path d="M265.636 277.333L268.62 280.333L270.064 278.858L266.67 276.079C266.055 276.838 265.67 277.306 265.636 277.333Z" fill="#5F0915"/>
<path d="M270.876 278.028L267.22 275.401C267.021 275.646 266.837 275.873 266.67 276.079L270.064 278.858L270.876 278.028Z" fill="black"/>
<path d="M267.22 275.401L270.876 278.028L271.418 277.474L267.972 274.47C267.704 274.802 267.452 275.114 267.22 275.401Z" fill="white"/>
<path d="M267.972 274.47L271.418 277.474L271.814 277.069L268.219 274.164L267.972 274.47Z" fill="black"/>
<path d="M268.219 274.164L271.814 277.069L272.338 276.534L268.62 273.665L268.219 274.164Z" fill="white"/>
<path d="M268.62 273.665L272.338 276.534L273.023 275.833L269.398 272.699C269.131 273.031 268.871 273.354 268.62 273.665Z" fill="black"/>
<path d="M269.398 272.699L273.023 275.833L274.99 273.824L271.027 270.673L270.537 271.282C270.148 271.766 269.766 272.241 269.398 272.699Z" fill="#5F0915"/>
<path d="M271.027 270.673L274.99 273.824L275.748 273.049L271.662 269.881L271.027 270.673Z" fill="black"/>
<path d="M271.662 269.881L275.748 273.049L276.253 272.533L272.069 269.375L271.662 269.881Z" fill="white"/>
<path d="M272.069 269.375L276.253 272.533L276.686 272.09L272.49 268.85L272.069 269.375Z" fill="black"/>
<path d="M272.49 268.85L276.686 272.09L277.224 271.54L273.023 268.186L272.49 268.85Z" fill="white"/>
<path d="M273.023 268.186L277.224 271.54L278.073 270.673L273.753 267.276L273.023 268.186Z" fill="black"/>
<path d="M273.753 267.276L278.073 270.673L280.141 268.559L275.376 265.251C274.875 265.876 274.327 266.56 273.753 267.276Z" fill="#5F0915"/>
<path d="M275.376 265.251L280.141 268.559L280.699 267.989L275.748 264.786L275.376 265.251Z" fill="black"/>
<path d="M276.077 264.376L275.748 264.786L280.699 267.989L281.125 267.554L276.651 264.376H276.077Z" fill="white"/>
<path d="M277.224 264.376H276.651L281.125 267.554L281.54 267.13L278.073 264.728L277.224 264.376Z" fill="black"/>
<path d="M282.209 266.446L278.073 264.728L281.54 267.13L282.209 266.446Z" fill="white"/>
<path fill-rule="evenodd" clip-rule="evenodd" d="M241.553 286.683L241.036 311.548C238.386 321.519 238.7 325.882 238.684 332.478C241.094 334.136 242.484 334.669 245.044 334.948V332.478V331.888L244.612 326.762C245.044 326.762 243.919 326.736 243.19 326.32C243.394 316.089 243.832 319.601 244.284 316.435C244.211 316.11 244.199 315.761 244.269 315.361C244.325 315.035 244.436 314.674 244.612 314.265C244.775 315.429 270.019 317.39 288.961 315.361L289.027 314.703L289.159 313.391L289.315 311.829L289.461 310.367L289.545 309.528L290.128 303.702L285.036 300.941L281.243 305.985C280.716 306.79 280.299 307.369 280.141 307.45L281.243 305.985C282.206 304.512 283.534 302.281 284.313 300.941L284.98 288.008L290.711 297.876L292.744 300.941L291.457 302.78V305.777L289.545 309.528L289.461 310.367C295.259 312.953 297.35 316.177 298.109 326.466C302.467 319.578 308.894 308.961 309.595 305.206C310.668 299.468 309.55 297.055 306.942 291.869C304.334 286.683 297.271 275.897 294.086 273.114C294.083 273.112 294.08 273.11 294.078 273.107C293.857 273.003 290.509 276.324 290.143 277.069C289.772 277.824 288.316 277.472 287.638 277.069C286.96 276.665 286.338 276.534 286.337 275.401L286.337 275.296C286.336 274.221 286.335 273.494 286.626 272.533C286.927 271.54 288.961 269.595 288.961 269.595C287.244 268.611 285.923 267.989 285.923 267.989L282.209 266.446L281.54 267.13L281.125 267.554L280.699 267.989L280.141 268.559L278.073 270.673L277.224 271.54L276.686 272.09L276.253 272.533L275.748 273.049L274.99 273.824L273.023 275.833L272.338 276.534L271.814 277.069L271.418 277.474L270.876 278.028L270.064 278.858L268.62 280.333L265.636 277.333C265.67 277.306 266.055 276.838 266.67 276.079C266.837 275.873 267.021 275.646 267.22 275.401C267.452 275.114 267.704 274.802 267.972 274.47L268.219 274.164L268.62 273.665C268.871 273.354 269.131 273.031 269.398 272.699L266.508 273.049L263.04 283.015L262.907 271.933L261.21 270.938C261.32 271.316 261.433 271.702 261.548 272.09C261.648 272.432 261.75 272.774 261.85 273.114C261.905 273.299 261.96 273.483 262.014 273.665C262.064 273.833 262.114 273.999 262.163 274.164C262.224 274.369 262.285 274.572 262.344 274.77C262.409 274.986 262.472 275.196 262.534 275.401C262.668 275.848 262.794 276.266 262.907 276.638L258.723 278.175L258.537 277.354L258.352 276.534L258.193 275.833L258.046 275.183L257.885 274.47L257.703 273.665L257.347 272.09L257.086 270.938L257.026 270.673L256.892 270.08L256.732 269.375L256.492 268.313L256.419 267.989C253.489 269.275 251.528 270.216 249.258 271.468L249.45 276.26C249.035 277.315 248.673 277.679 247.676 277.72L244.612 276.26C243.179 279.23 242.469 282.162 241.553 286.683ZM245.046 283.015L244.612 313.503L243.19 306.167V297.504L242.727 290.963L245.046 283.015Z" fill="#1D395E"/>
<path d="M284.98 288.008L284.313 300.941C283.534 302.281 282.206 304.512 281.243 305.985L285.036 300.941L290.128 303.702L290.711 297.876L284.98 288.008Z" fill="#122537"/>
<path d="M244.612 313.503L245.046 283.015L242.727 290.963L243.19 297.504V306.167L244.612 313.503Z" fill="#122537"/>
<path d="M298.109 326.466C297.35 316.177 295.259 312.953 289.461 310.367L289.315 311.829C296.145 314.341 297.598 318.047 297.785 326.978C297.892 326.81 298 326.639 298.109 326.466Z" fill="white"/>
<path d="M297.785 326.978C297.598 318.047 296.145 314.341 289.315 311.829L289.159 313.391C295.526 314.876 296.795 318.68 297.294 327.749C297.454 327.499 297.618 327.241 297.785 326.978Z" fill="#E0B157"/>
<path d="M297.294 327.749C296.795 318.68 295.526 314.876 289.159 313.391L289.027 314.703C294.948 315.709 296.035 319.669 296.904 328.36C297.031 328.161 297.161 327.958 297.294 327.749Z" fill="white"/>
<path d="M289.027 314.703L288.961 315.361C293.994 315.983 295.316 319.734 296.64 328.772C296.726 328.637 296.815 328.5 296.904 328.36C296.035 319.669 294.948 315.709 289.027 314.703Z" fill="#A41F22"/>
<path d="M287.759 332.7C291.942 334.267 294.124 334.996 294.086 332.7C294.086 332.7 295.113 331.152 296.64 328.772C295.316 319.734 293.994 315.983 288.961 315.361C288.961 315.361 289.072 315.849 289.159 316.435C289.213 316.808 289.258 317.221 289.258 317.573C289.257 318.023 289.183 318.373 288.961 318.413L287.759 327.413V332.7Z" fill="#E2857E"/>
<path d="M288.961 318.413C288.294 318.532 263.175 319.898 244.612 317.277C244.463 317.003 244.349 316.729 244.284 316.435C243.832 319.601 243.394 316.089 243.19 326.32C243.919 326.736 245.044 326.762 244.612 326.762L282.406 328.36C282.689 328.36 286.093 327.728 287.759 327.413L288.961 318.413Z" fill="#A41F22"/>
<path d="M288.961 315.361C270.019 317.39 244.775 315.429 244.612 314.265C244.436 314.674 244.325 315.035 244.269 315.361C261.667 317.139 271.491 317.43 289.159 316.435C289.072 315.849 288.961 315.361 288.961 315.361Z" fill="white"/>
<path d="M289.159 316.435C271.491 317.43 261.667 317.139 244.269 315.361C244.199 315.761 244.211 316.11 244.284 316.435C261.712 318.062 271.554 318.364 289.258 317.573C289.258 317.221 289.213 316.808 289.159 316.435Z" fill="#E0B157"/>
<path d="M244.612 317.277C263.175 319.898 288.294 318.532 288.961 318.413C289.183 318.373 289.257 318.023 289.258 317.573C271.554 318.364 261.712 318.062 244.284 316.435C244.349 316.729 244.463 317.003 244.612 317.277Z" fill="white"/>
<path d="M245.044 334.948C242.484 334.669 241.094 334.136 238.684 332.478C238.683 332.792 238.681 333.111 238.679 333.436C241.157 335.152 242.553 335.626 245.044 336.326V334.948Z" fill="white"/>
<path d="M245.044 336.326C242.553 335.626 241.157 335.152 238.679 333.436C238.675 333.926 238.668 334.429 238.658 334.948C241.011 336.319 242.445 336.734 245.044 337.351V336.326Z" fill="#E0B157"/>
<path d="M238.623 336.326C241.089 337.681 242.5 338.063 245.044 338.376V337.351C242.445 336.734 241.011 336.319 238.658 334.948C238.65 335.395 238.638 335.853 238.623 336.326Z" fill="white"/>
<path d="M238.623 336.326V341.091L241.036 342.131C241.269 342.472 242.67 342.846 243.8 343.055C244.318 343.15 244.778 343.21 245.044 343.217V338.376C242.5 338.063 241.089 337.681 238.623 336.326Z" fill="#A41F22"/>
<path d="M241.036 342.131V347.849L243.19 350.794L243.8 343.055C242.67 342.846 241.269 342.472 241.036 342.131Z" fill="#E2857E"/>
<path d="M243.19 350.794L240.24 387.087C238.352 393.659 236.87 397.099 233.695 402.937C231.905 404.445 230.823 405.184 230.027 408.022C229.806 411.735 231 411.826 232.01 412.906C236.66 413.881 238.122 413.247 240.24 411.611C247.986 406.872 247.223 407.378 249.659 405.928C253.738 404.452 255.51 404.99 256.501 402.937C257.493 400.884 257.493 388.183 257.493 388.183L255.557 389.233C255.178 388.846 254.405 388.043 254.341 387.93C254.277 387.818 253.464 387.242 253.065 386.968C252.553 387.235 251.514 387.77 251.45 387.77C251.386 387.77 250.918 387.102 250.692 386.768L250.094 387.77L248.977 386.407L247.442 385.825L246.664 384.128L245.608 384.883L245.044 384.128L243.8 385.453L243.19 384.128C243.19 384.128 244.106 376.23 244.252 373.968C244.268 373.708 244.275 373.523 244.269 373.432C244.26 373.306 244.244 373.115 244.224 372.881C244.208 372.704 244.19 372.504 244.169 372.288C244.148 372.06 244.124 371.815 244.1 371.564C244.078 371.34 244.056 371.111 244.033 370.884C244.011 370.661 243.989 370.44 243.968 370.229C243.931 369.859 243.897 369.518 243.869 369.242C243.828 368.835 243.8 368.571 243.8 368.571L244.612 351.688L247.827 332.7L245.044 332.478V334.948V336.326V337.351V338.376V343.217C244.778 343.21 244.318 343.15 243.8 343.055L243.19 350.794Z" fill="#E2857E"/>
<path d="M244.612 326.762L245.044 331.888V332.478L247.827 332.7L244.612 351.688L243.8 368.571C258.986 372.962 267.396 372.998 282.239 369.242C281.938 356.096 282.184 344.79 282.406 328.36L244.612 326.762Z" fill="#1D395E"/>
<path d="M270.779 388.881V396.856C269.467 400.996 265.457 407.138 265.028 407.324C263.694 407.904 262.918 411.845 263.244 412.906C264.182 414.202 264.888 414.543 266.218 415C276.334 414.944 274.868 414.982 277.224 415C283.082 411.149 289.483 406.499 290.412 402.937C291.341 399.376 289.024 361.167 289.024 361.167L287.759 332.7V327.413C286.093 327.728 282.689 328.36 282.406 328.36C282.184 344.79 281.938 356.096 282.239 369.242C282.245 369.471 282.25 369.7 282.256 369.93C282.261 370.159 282.267 370.389 282.273 370.62C282.278 370.821 282.283 371.023 282.289 371.225C282.296 371.48 282.303 371.735 282.31 371.992C282.316 372.206 282.322 372.422 282.329 372.638C282.336 372.902 282.344 373.166 282.353 373.432C282.358 373.618 282.364 373.804 282.37 373.991L282.378 374.231C282.496 377.863 282.658 381.684 282.873 385.825L279.803 387.61L277.988 387.91L276.692 389.193C275.802 389.013 274.013 388.628 273.981 388.532C273.949 388.435 273.396 388.291 273.123 388.231L271.149 389.554L270.779 388.881Z" fill="#E2857E"/>
<path d="M282.239 369.242C267.396 372.998 258.986 372.962 243.8 368.571C243.8 368.571 243.828 368.835 243.869 369.242C259.265 373.728 267.657 373.736 282.256 369.93C282.25 369.7 282.245 369.471 282.239 369.242Z" fill="#C4C4C4"/>
<path d="M282.256 369.93C267.657 373.736 259.265 373.728 243.869 369.242C243.897 369.518 243.931 369.859 243.968 370.229C259.1 374.163 267.48 374.105 282.273 370.62C282.267 370.389 282.261 370.159 282.256 369.93Z" fill="#C4C4C4"/>
<path d="M282.273 370.62C267.48 374.105 259.1 374.163 243.968 370.229C243.989 370.44 244.011 370.661 244.033 370.884C259.088 375.387 267.461 375.321 282.289 371.225C282.283 371.023 282.278 370.821 282.273 370.62Z" fill="#E0B157"/>
<path d="M282.289 371.225C267.461 375.321 259.088 375.387 244.033 370.884C244.056 371.111 244.078 371.34 244.1 371.564C258.849 375.871 267.221 375.844 282.31 371.992C282.303 371.735 282.296 371.48 282.289 371.225Z" fill="#C4C4C4"/>
<path d="M282.31 371.992C267.221 375.844 258.849 375.871 244.1 371.564C244.124 371.815 244.148 372.06 244.169 372.288C259.189 376.701 267.537 376.525 282.329 372.638C282.322 372.422 282.316 372.206 282.31 371.992Z" fill="#E0B157"/>
<path d="M282.329 372.638C267.537 376.525 259.189 376.701 244.169 372.288C244.19 372.504 244.208 372.704 244.224 372.881C258.995 377.348 267.35 377.253 282.353 373.432C282.344 373.166 282.336 372.902 282.329 372.638Z" fill="#C4C4C4"/>
<path d="M244.224 372.881C244.244 373.115 244.26 373.306 244.269 373.432C244.275 373.523 244.268 373.708 244.252 373.968C259.317 378.086 267.655 377.93 282.378 374.231L282.37 373.991C282.364 373.804 282.358 373.618 282.353 373.432C267.35 377.253 258.995 377.348 244.224 372.881Z" fill="#C4C4C4"/>
<path d="M257.493 388.183C267.15 390.389 266.535 389.017 270.779 388.881L271.149 389.554L273.123 388.231C273.396 388.291 273.949 388.435 273.981 388.532C274.013 388.628 275.802 389.013 276.692 389.193L277.988 387.91L279.803 387.61L282.873 385.825C282.658 381.684 282.496 377.863 282.378 374.231C267.655 377.93 259.317 378.086 244.252 373.968C244.106 376.23 243.19 384.128 243.19 384.128L243.8 385.453L245.044 384.128L245.608 384.883L246.664 384.128L247.442 385.825L248.977 386.407L250.094 387.77L250.692 386.768C250.918 387.102 251.386 387.77 251.45 387.77C251.514 387.77 252.553 387.235 253.065 386.968C253.464 387.242 254.277 387.818 254.341 387.93C254.405 388.043 255.178 388.846 255.557 389.233L257.493 388.183Z" fill="#A41F22"/>
<path d="M290.143 270.294L287.638 272.699C287.638 272.699 287.263 274.47 287.638 275.401C288.012 276.332 288.961 276.005 288.961 276.005L290.143 275.183L293.387 272.533C293.055 272.268 292.709 272.008 292.358 271.756L290.143 273.824C290.143 273.824 289.534 274.652 288.961 274.47C288.388 274.287 288.742 273.424 288.961 272.699L291.161 270.938C290.819 270.714 290.478 270.499 290.143 270.294Z" fill="#E0B157"/>
<path d="M291.161 270.938L288.961 272.699C288.742 273.424 288.388 274.287 288.961 274.47C289.534 274.652 290.143 273.824 290.143 273.824L292.358 271.756C291.964 271.473 291.562 271.2 291.161 270.938Z" fill="#C4C4C4"/>
<path d="M288.961 269.595C288.961 269.595 286.927 271.54 286.626 272.533C286.335 273.494 286.336 274.221 286.337 275.296L286.337 275.401C286.338 276.534 286.96 276.665 287.638 277.069C288.316 277.472 289.772 277.824 290.143 277.069C290.509 276.324 293.857 273.003 294.078 273.107C293.856 272.913 293.625 272.722 293.387 272.533L290.143 275.183L288.961 276.005C288.961 276.005 288.012 276.332 287.638 275.401C287.263 274.47 287.638 272.699 287.638 272.699L290.143 270.294C289.737 270.045 289.339 269.811 288.961 269.595Z" fill="#C4C4C4"/>
<path d="M249.45 276.26L249.258 271.468C248.898 271.667 248.53 271.873 248.149 272.09L248.16 275.579C248.196 276.483 247.967 276.749 246.837 276.534L245.046 275.401C244.894 275.688 244.75 275.975 244.612 276.26L247.676 277.72C248.673 277.679 249.035 277.315 249.45 276.26Z" fill="#C4C4C4"/>
<path d="M245.046 275.401L246.837 276.534C247.967 276.749 248.196 276.483 248.16 275.579L248.149 272.09C247.729 272.329 247.295 272.581 246.837 272.849L247.224 274.77C247.184 275.289 247.073 275.431 246.579 275.183L245.739 274.164C245.492 274.582 245.261 274.993 245.046 275.401Z" fill="#E0B157"/>
<path d="M246.837 272.849C246.689 272.935 246.539 273.024 246.386 273.114C246.158 273.471 245.942 273.82 245.739 274.164L246.579 275.183C247.073 275.431 247.184 275.289 247.224 274.77L246.837 272.849Z" fill="#C4C4C4"/>
<path d="M0 24C0 10.7452 10.7452 0 24 0H246C259.255 0 270 10.7452 270 24V157C270 170.255 259.255 181 246 181H24C10.7452 181 0 170.255 0 157V24Z" fill="#FF9B25"/>
<path d="M270.192 202L270 140V154.5L269.954 158.5L269.747 160.5L269.367 162.5L268.874 164.286L268.255 166L267.567 167.541L266.789 169L265.126 171.5L262.941 174L260.351 176.239L257.5 178.071L254.5 179.451L251.679 180.324L249 180.814L246 181L270.192 202Z" fill="#FF9B25"/>
</svg>
