<svg width="317" height="459" viewBox="0 0 317 459" fill="none" xmlns="http://www.w3.org/2000/svg">
<g filter="url(#filter0_d_1925_17170)">
<path d="M302 100C302 155.228 235.29 200 153 200C70.7096 200 4 155.228 4 100C4 44.7715 70.7096 0 153 0C235.29 0 302 44.7715 302 100Z" fill="#FF9B25"/>
<path d="M153 81.0714H251.446V200H153V81.0714Z" fill="#FF9B25"/>
</g>
<path d="M292.309 226.604C292.309 226.604 290 215.695 283.475 213.403C276.95 211.112 264.657 207.991 257.601 209.317C250.545 210.643 245.234 211.976 245.234 211.976L238.453 212.708C245.277 213.152 240.757 215.378 235.594 219.091C235.594 219.091 235.45 223.206 235.306 226.961C235.596 226.487 242.449 221.793 245.575 221.197C248.208 220.347 250.827 219.79 254.134 219.682C259.197 219.558 260.693 219.624 263.946 219.682C266.947 219.865 268.364 220.056 270.624 220.479C275.288 221.47 276.522 221.948 279.255 222.83C282.446 224.228 284.069 224.961 284.752 225.599C287.802 227.485 288.632 228.125 289.975 229.202C292.38 231.304 292.435 231.538 293.512 232.671C292.911 229.167 292.309 226.604 292.309 226.604Z" fill="black"/>
<path d="M235.242 228.603C239.644 225.925 239.94 224.458 246.048 222.696C249.959 221.921 253.758 221.083 254.134 221.197C257.134 221.156 256.474 221.02 263.946 221.197C266.316 221.329 267.669 221.437 270.624 222.378C273.854 223.225 275.285 223.446 279.255 224.785C281.458 225.853 282.95 226.424 284.524 227.556C286.847 228.919 288.117 229.696 289.975 231.236C292.082 232.982 292.759 233.794 293.921 235.228C293.789 234.339 293.651 233.48 293.512 232.671C292.435 231.538 292.38 231.304 289.975 229.202C288.632 228.125 287.802 227.485 284.752 225.599C284.069 224.961 282.446 224.228 279.255 222.83C276.522 221.948 275.288 221.47 270.624 220.479C268.364 220.056 266.947 219.865 263.946 219.682C260.693 219.624 259.197 219.558 254.134 219.682C250.827 219.79 248.208 220.347 245.575 221.197C242.449 221.793 235.596 226.487 235.306 226.961C235.285 227.522 235.263 228.074 235.242 228.603Z" fill="#A41F22"/>
<path d="M235.242 228.603C235.183 230.073 235.128 231.367 235.086 232.166C235.041 233.04 235.114 233.694 235.242 234.182C239.223 231.429 241.595 229.956 246.821 227.829C250.702 226.35 252.92 226.281 256.86 225.876C262.478 225.751 265.528 226.014 270.851 226.875C276.047 228.637 278.735 229.982 283.475 232.462C286.454 234.391 287.962 235.485 290.521 237.278C292.285 238.468 293.14 239.195 294.541 240.546C294.397 238.756 294.173 236.936 293.921 235.228C292.759 233.794 292.082 232.982 289.975 231.236C288.117 229.696 286.847 228.919 284.524 227.556C282.95 226.424 281.458 225.853 279.255 224.785C275.285 223.446 273.854 223.225 270.624 222.378C267.669 221.437 266.316 221.329 263.946 221.197C256.474 221.02 257.134 221.156 254.134 221.197C253.758 221.083 249.959 221.921 246.048 222.696C239.94 224.458 239.644 225.925 235.242 228.603Z" fill="#1D395E"/>
<path d="M236.192 235.58C239.933 232.697 242.321 231.37 246.821 229.237C250.712 227.907 252.925 227.711 256.86 227.148C262.38 226.994 265.377 227.276 270.624 228.147C276.011 229.587 278.644 231.094 283.389 233.689C286.549 235.482 288.032 236.727 290.521 238.913C292.688 240.258 293.326 240.941 294.65 242.181C294.622 241.642 294.585 241.096 294.541 240.546C293.14 239.195 292.285 238.468 290.521 237.278C287.962 235.485 286.454 234.391 283.475 232.462C278.735 229.982 276.047 228.637 270.851 226.875C265.528 226.014 262.478 225.751 256.86 225.876C252.92 226.281 250.702 226.35 246.821 227.829C241.595 229.956 239.223 231.429 235.242 234.182C235.555 235.379 236.192 235.58 236.192 235.58Z" fill="#A41F22"/>
<path d="M236.192 235.58C235.152 237.109 236.129 252.761 239.53 261.792C246.981 265.034 250.888 266.157 253.726 266.518L254.025 266.541C261.864 268.38 266.145 267.843 273.69 265.241C277.701 264.471 279.886 263.847 283.475 261.792C286.083 256.918 290.464 256.194 293.588 250.768C294.621 248.974 294.831 245.726 294.65 242.181C293.326 240.941 292.688 240.258 290.521 238.913C288.032 236.727 286.549 235.482 283.389 233.689C278.644 231.094 276.011 229.587 270.624 228.147C265.377 227.276 262.38 226.994 256.86 227.148C252.925 227.711 250.712 227.907 246.821 229.237C242.321 231.37 239.933 232.697 236.192 235.58Z" fill="#E2857E"/>
<path d="M254.025 266.541L253.912 270.377H253.212C253.212 270.454 253.252 270.654 253.323 270.951C253.396 271.254 253.501 271.659 253.632 272.14C253.7 272.389 253.775 272.658 253.855 272.945C253.909 273.139 253.966 273.34 254.025 273.548C254.075 273.723 254.126 273.903 254.179 274.087L258.568 276.437L257.48 288.237L259.754 276.437L267.258 275.731L268.067 274.729L268.585 274.087L269.122 273.422L269.8 272.58L270.73 271.427C271.461 270.521 272.159 269.654 272.797 268.863L273.271 268.273L273.69 267.753V265.241C266.145 267.843 261.864 268.38 254.025 266.541Z" fill="#E2857E"/>
<path d="M254.179 274.087C254.29 274.474 254.407 274.881 254.529 275.299L257.085 276.83L257.48 290.017L260.249 277.527L266.634 276.503L267.258 275.731L259.754 276.437L257.48 288.237L258.568 276.437L254.179 274.087Z" fill="#EC4A4A"/>
<path d="M265.183 278.298C265.652 277.718 266.138 277.116 266.634 276.503L260.249 277.527L257.48 290.017L257.085 276.83L254.529 275.299C254.602 275.551 254.677 275.807 254.753 276.067L256.916 277.327L257.085 291.368L261.501 278.741L265.183 278.298Z" fill="white"/>
<path d="M253.212 270.377L252.719 269.907C251.701 270.294 251.688 270.311 248.651 271.427V272.331L248.744 272.742C248.745 272.746 251.797 271.55 253.323 270.951C253.252 270.654 253.212 270.454 253.212 270.377Z" fill="black"/>
<path d="M249.05 274.087L253.632 272.14C253.501 271.659 253.396 271.254 253.323 270.951C251.797 271.55 248.745 272.746 248.744 272.742L249.05 274.087Z" fill="#5F0915"/>
<path d="M249.253 274.98L253.855 272.945C253.775 272.658 253.7 272.389 253.632 272.14L249.05 274.087L249.253 274.98Z" fill="black"/>
<path d="M249.424 275.731L254.025 273.548C253.966 273.34 253.909 273.139 253.855 272.945L249.253 274.98L249.424 275.731Z" fill="white"/>
<path d="M249.501 276.067L254.179 274.087C254.126 273.903 254.075 273.723 254.025 273.548L249.424 275.731L249.501 276.067Z" fill="white"/>
<path d="M249.833 277.527L254.529 275.299C254.407 274.881 254.29 274.474 254.179 274.087L249.501 276.067L249.833 277.527Z" fill="black"/>
<path d="M250.287 279.522L255.184 277.527C255.038 277.035 254.894 276.546 254.753 276.067C254.677 275.807 254.602 275.551 254.529 275.299L249.833 277.527L250.287 279.522Z" fill="#5F0915"/>
<path d="M255.184 277.527L250.287 279.522L250.518 280.541C250.887 280.541 254.039 279.396 255.569 278.824C255.441 278.394 255.312 277.96 255.184 277.527Z" fill="black"/>
<path d="M255.569 278.824C254.039 279.396 250.887 280.541 250.518 280.541L250.724 281.446L255.778 279.522C255.709 279.291 255.639 279.058 255.569 278.824Z" fill="white"/>
<path d="M255.778 279.522L250.724 281.446L250.911 282.269L255.967 280.154C255.905 279.945 255.841 279.735 255.778 279.522Z" fill="black"/>
<path d="M255.967 280.154L250.911 282.269L251.113 283.156L256.198 280.922C256.123 280.671 256.045 280.414 255.967 280.154Z" fill="white"/>
<path d="M256.198 280.922L251.113 283.156L251.349 284.196L256.439 281.721C256.361 281.462 256.281 281.195 256.198 280.922Z" fill="black"/>
<path d="M251.586 285.235L256.916 283.289C256.772 282.817 256.611 282.288 256.439 281.721L251.349 284.196L251.586 285.235Z" fill="#5F0915"/>
<path d="M260.392 284.169L264.192 287.97L266.031 286.101L261.709 282.58C260.925 283.541 260.434 284.135 260.392 284.169Z" fill="#5F0915"/>
<path d="M267.065 285.049L262.409 281.721C262.156 282.032 261.921 282.32 261.709 282.58L266.031 286.101L267.065 285.049Z" fill="black"/>
<path d="M262.409 281.721L267.065 285.049L267.756 284.348L263.366 280.541C263.025 280.962 262.704 281.357 262.409 281.721Z" fill="white"/>
<path d="M263.366 280.541L267.756 284.348L268.261 283.834L263.681 280.154L263.366 280.541Z" fill="black"/>
<path d="M263.681 280.154L268.261 283.834L268.927 283.156L264.192 279.522L263.681 280.154Z" fill="white"/>
<path d="M264.192 279.522L268.927 283.156L269.8 282.269L265.183 278.298C264.843 278.719 264.511 279.128 264.192 279.522Z" fill="black"/>
<path d="M265.183 278.298L269.8 282.269L272.305 279.723L267.258 275.731L266.634 276.503C266.138 277.116 265.652 277.718 265.183 278.298Z" fill="#5F0915"/>
<path d="M267.258 275.731L272.305 279.723L273.271 278.741L268.067 274.729L267.258 275.731Z" fill="black"/>
<path d="M268.067 274.729L273.271 278.741L273.915 278.087L268.585 274.087L268.067 274.729Z" fill="white"/>
<path d="M268.585 274.087L273.915 278.087L274.466 277.527L269.122 273.422L268.585 274.087Z" fill="black"/>
<path d="M269.122 273.422L274.466 277.527L275.152 276.83L269.8 272.58L269.122 273.422Z" fill="white"/>
<path d="M269.8 272.58L275.152 276.83L276.233 275.731L270.73 271.427L269.8 272.58Z" fill="black"/>
<path d="M270.73 271.427L276.233 275.731L278.867 273.054L272.797 268.863C272.159 269.654 271.461 270.521 270.73 271.427Z" fill="#5F0915"/>
<path d="M272.797 268.863L278.867 273.054L279.578 272.331L273.271 268.273L272.797 268.863Z" fill="black"/>
<path d="M273.69 267.753L273.271 268.273L279.578 272.331L280.12 271.78L274.421 267.753H273.69Z" fill="white"/>
<path d="M275.152 267.753H274.421L280.12 271.78L280.649 271.242L276.233 268.2L275.152 267.753Z" fill="black"/>
<path d="M281.501 270.377L276.233 268.2L280.649 271.242L281.501 270.377Z" fill="white"/>
<path fill-rule="evenodd" clip-rule="evenodd" d="M229.715 296.015L229.057 327.516C225.682 340.148 226.081 345.676 226.061 354.032C229.131 356.133 230.901 356.808 234.162 357.161V354.032V353.285L233.612 346.79C234.162 346.79 232.729 346.758 231.801 346.23C232.06 333.269 232.619 337.718 233.194 333.708C233.101 333.296 233.087 332.854 233.175 332.347C233.247 331.933 233.388 331.476 233.612 330.958C233.819 332.433 265.975 334.918 290.102 332.347L290.186 331.513L290.353 329.851L290.552 327.872L290.738 326.02L290.845 324.957L291.588 317.576L285.102 314.078L280.27 320.468C279.599 321.488 279.068 322.221 278.867 322.324L280.27 320.468C281.497 318.603 283.189 315.776 284.18 314.078L285.03 297.693L292.331 310.195L294.919 314.078L293.28 316.408V320.204L290.845 324.957L290.738 326.02C298.123 329.296 300.786 333.38 301.754 346.416C307.304 337.689 315.49 324.239 316.384 319.481C317.75 312.212 316.326 309.155 313.005 302.585C309.683 296.015 300.686 282.35 296.628 278.824C296.625 278.821 296.622 278.818 296.619 278.815C296.337 278.683 292.073 282.891 291.607 283.834C291.135 284.791 289.28 284.346 288.416 283.834C287.552 283.322 286.76 283.156 286.759 281.721L286.759 281.588C286.757 280.226 286.756 279.306 287.127 278.087C287.51 276.83 290.102 274.365 290.102 274.365C287.914 273.119 286.231 272.331 286.231 272.331L281.501 270.377L280.649 271.242L280.12 271.78L279.578 272.331L278.867 273.054L276.233 275.731L275.152 276.83L274.466 277.527L273.915 278.087L273.271 278.741L272.305 279.723L269.8 282.269L268.927 283.156L268.261 283.834L267.756 284.348L267.065 285.049L266.031 286.101L264.192 287.97L260.392 284.169C260.434 284.135 260.925 283.541 261.709 282.58C261.921 282.32 262.156 282.032 262.409 281.721C262.704 281.357 263.025 280.962 263.366 280.541L263.681 280.154L264.192 279.522C264.511 279.128 264.843 278.719 265.183 278.298L261.501 278.741L257.085 291.368L256.916 277.327L254.753 276.067C254.894 276.546 255.038 277.035 255.184 277.527C255.312 277.96 255.441 278.394 255.569 278.824C255.639 279.058 255.709 279.291 255.778 279.522C255.841 279.735 255.905 279.945 255.967 280.154C256.045 280.414 256.123 280.671 256.198 280.922C256.281 281.195 256.361 281.462 256.439 281.721C256.611 282.288 256.772 282.817 256.916 283.289L251.586 285.235L251.349 284.196L251.113 283.156L250.911 282.269L250.724 281.446L250.518 280.541L250.287 279.522L249.833 277.527L249.501 276.067L249.424 275.731L249.253 274.98L249.05 274.087L248.744 272.742L248.651 272.331C244.919 273.96 242.421 275.152 239.53 276.738L239.775 282.81C239.246 284.146 238.784 284.607 237.515 284.659L233.612 282.81C231.787 286.573 230.882 290.287 229.715 296.015ZM234.165 291.368L233.612 329.993L231.801 320.698V309.724L231.211 301.437L234.165 291.368Z" fill="#1D395E"/>
<path d="M285.03 297.693L284.18 314.078C283.189 315.776 281.497 318.603 280.27 320.468L285.102 314.078L291.588 317.576L292.331 310.195L285.03 297.693Z" fill="#122537"/>
<path d="M233.612 329.993L234.165 291.368L231.211 301.437L231.801 309.724V320.698L233.612 329.993Z" fill="#122537"/>
<path d="M301.754 346.416C300.786 333.38 298.123 329.296 290.738 326.02L290.552 327.872C299.252 331.055 301.103 335.75 301.341 347.064C301.477 346.851 301.615 346.635 301.754 346.416Z" fill="white"/>
<path d="M301.341 347.064C301.103 335.75 299.252 331.055 290.552 327.872L290.353 329.851C298.463 331.733 300.08 336.551 300.716 348.042C300.919 347.724 301.128 347.398 301.341 347.064Z" fill="#E0B157"/>
<path d="M300.716 348.042C300.08 336.551 298.463 331.733 290.353 329.851L290.186 331.513C297.728 332.787 299.112 337.804 300.219 348.815C300.381 348.563 300.546 348.305 300.716 348.042Z" fill="white"/>
<path d="M290.186 331.513L290.102 332.347C296.512 333.135 298.195 337.887 299.882 349.338C299.992 349.167 300.105 348.992 300.219 348.815C299.112 337.804 297.728 332.787 290.186 331.513Z" fill="#A41F22"/>
<path d="M288.57 354.313C293.898 356.299 296.677 357.223 296.628 354.313C296.628 354.313 297.937 352.352 299.882 349.338C298.195 337.887 296.512 333.135 290.102 332.347C290.102 332.347 290.243 332.965 290.353 333.708C290.423 334.18 290.48 334.704 290.479 335.149C290.479 335.719 290.384 336.163 290.102 336.213L288.57 347.615V354.313Z" fill="#E2857E"/>
<path d="M290.102 336.213C289.252 336.364 257.256 338.094 233.612 334.775C233.422 334.427 233.277 334.079 233.194 333.708C232.619 337.718 232.06 333.269 231.801 346.23C232.729 346.758 234.162 346.79 233.612 346.79L281.752 348.815C282.112 348.815 286.447 348.015 288.57 347.615L290.102 336.213Z" fill="#A41F22"/>
<path d="M290.102 332.347C265.975 334.918 233.819 332.433 233.612 330.958C233.388 331.476 233.247 331.933 233.175 332.347C255.335 334.599 267.848 334.969 290.353 333.708C290.243 332.965 290.102 332.347 290.102 332.347Z" fill="white"/>
<path d="M290.353 333.708C267.848 334.969 255.335 334.599 233.175 332.347C233.087 332.854 233.101 333.296 233.194 333.708C255.394 335.768 267.929 336.152 290.479 335.149C290.48 334.704 290.423 334.18 290.353 333.708Z" fill="#E0B157"/>
<path d="M233.612 334.775C257.256 338.094 289.252 336.364 290.102 336.213C290.384 336.163 290.479 335.719 290.479 335.149C267.929 336.152 255.394 335.768 233.194 333.708C233.277 334.079 233.422 334.427 233.612 334.775Z" fill="white"/>
<path d="M234.162 357.161C230.901 356.808 229.131 356.133 226.061 354.032C226.06 354.43 226.058 354.834 226.055 355.246C229.211 357.42 230.989 358.02 234.162 358.907V357.161Z" fill="white"/>
<path d="M234.162 358.907C230.989 358.02 229.211 357.42 226.055 355.246C226.05 355.866 226.041 356.504 226.028 357.161C229.025 358.898 230.852 359.424 234.162 360.206V358.907Z" fill="#E0B157"/>
<path d="M225.984 358.907C229.124 360.623 230.921 361.108 234.162 361.505V360.206C230.852 359.424 229.025 358.898 226.028 357.161C226.017 357.727 226.003 358.308 225.984 358.907Z" fill="white"/>
<path d="M225.984 358.907V364.944L229.057 366.261C229.354 366.693 231.139 367.168 232.578 367.432C233.237 367.552 233.824 367.629 234.162 367.637V361.505C230.921 361.108 229.124 360.623 225.984 358.907Z" fill="#A41F22"/>
<path d="M229.057 366.261V373.505L231.801 377.237L232.578 367.432C231.139 367.168 229.354 366.693 229.057 366.261Z" fill="#E2857E"/>
<path d="M231.801 377.237L228.043 423.216C225.639 431.542 223.751 435.901 219.707 443.297C217.427 445.207 216.049 446.144 215.034 449.739C214.753 454.443 216.274 454.558 217.56 455.927C223.483 457.162 225.346 456.358 228.043 454.285C237.909 448.281 236.938 448.923 240.041 447.086C245.237 445.217 247.493 445.898 248.756 443.297C250.019 440.696 250.019 424.605 250.019 424.605L247.553 425.936C247.071 425.444 246.085 424.427 246.004 424.285C245.923 424.142 244.887 423.413 244.379 423.066C243.727 423.404 242.403 424.082 242.322 424.082C242.24 424.082 241.644 423.235 241.356 422.812L240.595 424.082L239.172 422.355L237.217 421.618L236.226 419.467L234.88 420.424L234.162 419.467L232.578 421.147L231.801 419.467C231.801 419.467 232.967 409.461 233.153 406.596C233.174 406.267 233.183 406.032 233.175 405.917C233.164 405.757 233.144 405.515 233.117 405.218C233.097 404.995 233.074 404.741 233.048 404.467C233.021 404.179 232.991 403.869 232.96 403.55C232.932 403.266 232.903 402.976 232.875 402.688C232.847 402.406 232.819 402.126 232.792 401.859C232.745 401.391 232.701 400.958 232.665 400.609C232.613 400.093 232.578 399.758 232.578 399.758L233.612 378.369L237.706 354.313L234.162 354.032V357.161V358.907V360.206V361.505V367.637C233.824 367.629 233.237 367.552 232.578 367.432L231.801 377.237Z" fill="#E2857E"/>
<path d="M233.612 346.79L234.162 353.285V354.032L237.706 354.313L233.612 378.369L232.578 399.758C251.92 405.322 262.633 405.368 281.54 400.609C281.155 383.954 281.469 369.63 281.752 348.815L233.612 346.79Z" fill="#1D395E"/>
<path d="M266.942 425.489V435.593C265.271 440.838 260.163 448.619 259.617 448.854C257.917 449.589 256.929 454.582 257.344 455.927C258.539 457.568 259.438 458.001 261.133 458.579C274.018 458.509 272.151 458.556 275.152 458.579C282.613 453.7 290.766 447.809 291.949 443.297C293.133 438.785 290.181 390.378 290.181 390.378L288.57 354.313V347.615C286.447 348.015 282.112 348.815 281.752 348.815C281.469 369.63 281.155 383.954 281.54 400.609C281.546 400.899 281.553 401.189 281.56 401.48C281.567 401.771 281.575 402.062 281.582 402.354C281.589 402.609 281.595 402.865 281.602 403.121C281.611 403.444 281.62 403.767 281.629 404.092C281.637 404.364 281.645 404.637 281.653 404.911C281.663 405.245 281.673 405.58 281.684 405.917C281.691 406.152 281.699 406.388 281.706 406.625L281.716 406.929C281.867 411.53 282.072 416.372 282.347 421.618L278.436 423.878L276.125 424.259L274.474 425.885C273.34 425.656 271.061 425.169 271.02 425.047C270.98 424.925 270.275 424.742 269.928 424.666L267.414 426.342L266.942 425.489Z" fill="#E2857E"/>
<path d="M281.54 400.609C262.633 405.368 251.92 405.322 232.578 399.758C232.578 399.758 232.613 400.093 232.665 400.609C252.276 406.292 262.965 406.302 281.56 401.48C281.553 401.189 281.546 400.899 281.54 400.609Z" fill="#C4C4C4"/>
<path d="M281.56 401.48C262.965 406.302 252.276 406.292 232.665 400.609C232.701 400.958 232.745 401.391 232.792 401.859C252.066 406.843 262.74 406.769 281.582 402.354C281.575 402.062 281.567 401.771 281.56 401.48Z" fill="#C4C4C4"/>
<path d="M281.582 402.354C262.74 406.769 252.066 406.843 232.792 401.859C232.819 402.126 232.847 402.406 232.875 402.688C252.051 408.394 262.716 408.31 281.602 403.121C281.595 402.865 281.589 402.609 281.582 402.354Z" fill="#E0B157"/>
<path d="M281.602 403.121C262.716 408.31 252.051 408.394 232.875 402.688C232.903 402.976 232.932 403.266 232.96 403.55C251.746 409.007 262.41 408.972 281.629 404.092C281.62 403.767 281.611 403.444 281.602 403.121Z" fill="#C4C4C4"/>
<path d="M281.629 404.092C262.41 408.972 251.746 409.007 232.96 403.55C232.991 403.869 233.021 404.179 233.048 404.467C252.179 410.058 262.812 409.835 281.653 404.911C281.645 404.637 281.637 404.364 281.629 404.092Z" fill="#E0B157"/>
<path d="M281.653 404.911C262.812 409.835 252.179 410.058 233.048 404.467C233.074 404.741 233.097 404.995 233.117 405.218C251.932 410.879 262.574 410.758 281.684 405.917C281.673 405.58 281.663 405.245 281.653 404.911Z" fill="#C4C4C4"/>
<path d="M233.117 405.218C233.144 405.515 233.164 405.757 233.175 405.917C233.183 406.032 233.174 406.267 233.153 406.596C252.342 411.813 262.963 411.616 281.716 406.929L281.706 406.625C281.699 406.388 281.691 406.152 281.684 405.917C262.574 410.758 251.932 410.879 233.117 405.218Z" fill="#C4C4C4"/>
<path d="M250.019 424.605C262.32 427.4 261.536 425.662 266.942 425.489L267.414 426.342L269.928 424.666C270.275 424.742 270.98 424.925 271.02 425.047C271.061 425.169 273.34 425.656 274.474 425.885L276.125 424.259L278.436 423.878L282.347 421.618C282.072 416.372 281.867 411.53 281.716 406.929C262.963 411.616 252.342 411.813 233.153 406.596C232.967 409.461 231.801 419.467 231.801 419.467L232.578 421.147L234.162 419.467L234.88 420.424L236.226 419.467L237.217 421.618L239.172 422.355L240.595 424.082L241.356 422.812C241.644 423.235 242.24 424.082 242.322 424.082C242.403 424.082 243.727 423.404 244.379 423.066C244.887 423.413 245.923 424.142 246.004 424.285C246.085 424.427 247.071 425.444 247.553 425.936L250.019 424.605Z" fill="#A41F22"/>
<path d="M291.607 275.251L288.416 278.298C288.416 278.298 287.939 280.541 288.416 281.721C288.893 282.901 290.102 282.486 290.102 282.486L291.607 281.446L295.739 278.087C295.315 277.752 294.876 277.423 294.428 277.103L291.607 279.723C291.607 279.723 290.832 280.772 290.102 280.541C289.372 280.31 289.823 279.217 290.102 278.298L292.904 276.067C292.468 275.784 292.033 275.511 291.607 275.251Z" fill="#E0B157"/>
<path d="M292.904 276.067L290.102 278.298C289.823 279.217 289.372 280.31 290.102 280.541C290.832 280.772 291.607 279.723 291.607 279.723L294.428 277.103C293.926 276.745 293.414 276.399 292.904 276.067Z" fill="#C4C4C4"/>
<path d="M290.102 274.365C290.102 274.365 287.51 276.83 287.127 278.087C286.756 279.306 286.757 280.226 286.759 281.588L286.759 281.721C286.76 283.156 287.552 283.322 288.416 283.834C289.28 284.346 291.135 284.791 291.607 283.834C292.073 282.891 296.337 278.683 296.619 278.815C296.336 278.57 296.042 278.327 295.739 278.087L291.607 281.446L290.102 282.486C290.102 282.486 288.893 282.901 288.416 281.721C287.939 280.541 288.416 278.298 288.416 278.298L291.607 275.251C291.089 274.936 290.583 274.64 290.102 274.365Z" fill="#C4C4C4"/>
<path d="M239.775 282.81L239.53 276.738C239.071 276.99 238.602 277.252 238.117 277.527L238.131 281.947C238.176 283.092 237.885 283.429 236.446 283.156L234.165 281.721C233.971 282.086 233.787 282.448 233.612 282.81L237.515 284.659C238.784 284.607 239.246 284.146 239.775 282.81Z" fill="#C4C4C4"/>
<path d="M234.165 281.721L236.446 283.156C237.885 283.429 238.176 283.092 238.131 281.947L238.117 277.527C237.583 277.83 237.029 278.148 236.446 278.488L236.939 280.922C236.888 281.58 236.747 281.76 236.118 281.446L235.048 280.154C234.732 280.684 234.439 281.205 234.165 281.721Z" fill="#E0B157"/>
<path d="M236.446 278.488C236.258 278.598 236.066 278.71 235.871 278.824C235.581 279.276 235.307 279.718 235.048 280.154L236.118 281.446C236.747 281.76 236.888 281.58 236.939 280.922L236.446 278.488Z" fill="#C4C4C4"/>
<defs>
<filter id="filter0_d_1925_17170" x="0" y="0" width="306" height="208" filterUnits="userSpaceOnUse" color-interpolation-filters="sRGB">
<feFlood flood-opacity="0" result="BackgroundImageFix"/>
<feColorMatrix in="SourceAlpha" type="matrix" values="0 0 0 0 0 0 0 0 0 0 0 0 0 0 0 0 0 0 127 0" result="hardAlpha"/>
<feOffset dy="4"/>
<feGaussianBlur stdDeviation="2"/>
<feComposite in2="hardAlpha" operator="out"/>
<feColorMatrix type="matrix" values="0 0 0 0 0 0 0 0 0 0 0 0 0 0 0 0 0 0 0.25 0"/>
<feBlend mode="normal" in2="BackgroundImageFix" result="effect1_dropShadow_1925_17170"/>
<feBlend mode="normal" in="SourceGraphic" in2="effect1_dropShadow_1925_17170" result="shape"/>
</filter>
</defs>
</svg>
