<svg width="128" height="127" viewBox="0 0 128 127" fill="none" xmlns="http://www.w3.org/2000/svg">
<path d="M0.5 63.5C0.5 28.4299 28.9299 0 64 0C99.0701 0 127.5 28.4299 127.5 63.5C127.5 98.5701 99.0701 127 64 127C28.9299 127 0.5 98.5701 0.5 63.5Z" fill="#FC4C51"/>
<path d="M32.25 43.6562H95.75M91.7812 43.6562L88.3403 91.8448C88.1978 93.8474 87.3017 95.7215 85.8325 97.0898C84.3634 98.4581 82.4303 99.2188 80.4227 99.2188H47.5773C45.5697 99.2188 43.6366 98.4581 42.1675 97.0898C40.6983 95.7215 39.8022 93.8474 39.6597 91.8448L36.2188 43.6562H91.7812ZM56.0625 59.5312V83.3438V59.5312ZM71.9375 59.5312V83.3438V59.5312ZM75.9062 43.6562V31.75C75.9062 30.6974 75.4881 29.688 74.7438 28.9437C73.9995 28.1994 72.9901 27.7813 71.9375 27.7812H56.0625C55.0099 27.7812 54.0005 28.1994 53.2562 28.9437C52.5119 29.688 52.0938 30.6974 52.0938 31.75V43.6562H75.9062Z" stroke="white" stroke-width="4" stroke-linecap="round" stroke-linejoin="round"/>
</svg>
