<svg width="44" height="52" viewBox="0 0 44 52" fill="none" xmlns="http://www.w3.org/2000/svg">
<circle cx="22" cy="26" r="22" fill="#FFC122"/>
<circle cx="22" cy="26" r="19" fill="#FFC122" stroke="white" stroke-width="2"/>
<path d="M21.7778 32.24C24.8778 32.24 26.8178 30.62 26.8178 28.34C26.8178 26.28 24.9978 25.24 23.7178 25.1C25.0778 24.88 26.5978 23.84 26.5978 22.04C26.5978 19.82 24.6778 18.46 21.7978 18.46C19.5778 18.46 17.9578 19.34 16.9178 20.56L18.1178 22.02C19.0778 21.04 20.1978 20.54 21.5778 20.54C23.0578 20.54 24.2778 21.18 24.2778 22.4C24.2778 23.62 23.0978 24.16 21.5178 24.16C20.9978 24.16 20.2178 24.16 19.9978 24.14V26.26C20.1978 26.24 20.9578 26.22 21.5178 26.22C23.4378 26.22 24.4778 26.8 24.4778 28.12C24.4778 29.34 23.4578 30.16 21.6978 30.16C20.2778 30.16 18.8778 29.54 18.0178 28.54L16.7378 30.08C17.6578 31.28 19.4178 32.24 21.7778 32.24Z" fill="white"/>
</svg>
