<svg width="44" height="52" viewBox="0 0 44 52" fill="none" xmlns="http://www.w3.org/2000/svg">
<circle cx="22" cy="26" r="22" fill="#FFC122"/>
<circle cx="22" cy="26" r="19" fill="#FFC122" stroke="white" stroke-width="2"/>
<path d="M22.0839 32.24C25.0639 32.24 27.1839 30.48 27.1839 27.72C27.1839 24.98 25.1639 23.42 22.9039 23.42C21.6239 23.42 20.5439 23.94 19.8839 24.56V20.72H26.2839V18.66H17.5439V26.1L19.2039 26.58C20.0639 25.78 21.0039 25.44 22.1239 25.44C23.7639 25.44 24.8039 26.38 24.8039 27.8C24.8039 29.12 23.7639 30.16 22.0639 30.16C20.5839 30.16 19.3639 29.6 18.4839 28.56L17.1439 30.18C18.2239 31.44 19.8039 32.24 22.0839 32.24Z" fill="white"/>
</svg>
