<svg width="44" height="52" viewBox="0 0 44 52" fill="none" xmlns="http://www.w3.org/2000/svg">
<circle cx="22" cy="26" r="22" fill="#FFC122"/>
<circle cx="22" cy="26" r="19" fill="#FFC122" stroke="white" stroke-width="2"/>
<path d="M21.8341 32.24C24.8141 32.24 26.7541 30.22 26.7541 27.76C26.7541 24.92 24.6741 23.44 22.2741 23.44C20.7141 23.44 19.3141 24.42 18.6941 25.32C18.6941 25.18 18.6941 25.06 18.6941 24.94C18.6941 22.6 19.9741 20.54 22.2141 20.54C23.4741 20.54 24.2541 20.98 24.9541 21.7L26.0341 19.94C25.1341 19.04 23.8541 18.46 22.2141 18.46C18.3541 18.46 16.3341 21.5 16.3341 25.34C16.3341 29.06 17.9141 32.24 21.8341 32.24ZM21.6941 30.16C19.6541 30.16 18.8541 28.46 18.7341 27.02C19.3941 26.06 20.5141 25.46 21.6541 25.46C23.0941 25.46 24.3741 26.2 24.3741 27.84C24.3741 28.9 23.4541 30.16 21.6941 30.16Z" fill="white"/>
</svg>
