<svg width="258" height="230" viewBox="0 0 258 230" fill="none" xmlns="http://www.w3.org/2000/svg">
<path d="M113.441 38.3058H115.514H131.118L132.477 36.6741L132.749 42.1131C132.775 42.8383 132.981 44.3974 133.604 44.8326C132.938 46.3555 135.839 50.7248 137.373 52.7191C137.373 53.4442 138.569 55.3841 143.355 57.3421C149.338 59.7897 147.435 71.4945 145.803 77.4774C153.145 79.653 163.208 65.2286 160.488 66.5884C158.313 67.6762 151.786 63.0531 148.794 60.6055C146.709 58.5206 142.431 53.5893 141.996 50.5434C141.452 46.7362 147.707 24.9804 129.214 22.2609C114.42 20.0853 112.535 32.051 113.441 38.3058Z" fill="#111111"/>
<path d="M150.154 98.9613C149.719 98.3175 145.259 95.067 143.084 93.5223C143.437 97.1027 144.139 100.745 145.412 103.312L153.689 105.749C155.774 105.027 160.923 103.367 164.839 102.497C169.734 101.409 165.383 98.4174 159.944 98.4174C155.593 98.4174 153.417 99.6865 152.873 100.321C152.148 100.136 150.589 99.6051 150.154 98.9613Z" fill="#E85D5D"/>
<path d="M145.803 77.4774C147.435 71.4945 149.338 59.7897 143.355 57.3421C138.569 55.3841 137.373 53.4442 137.373 52.7191C135.839 50.7248 132.938 46.3555 133.604 44.8326C132.09 47.9566 130.206 50.0583 127.132 51.6312C127.101 52.8097 126.712 55.2753 125.407 55.7105C123.775 56.2543 116.433 58.9738 114.257 61.1494C112.081 63.325 113.985 69.5798 111.266 71.7554C108.546 73.931 110.178 85.0808 115.617 88.6161C118.183 92.1589 122.982 99.8948 121.642 102.497C119.055 105.964 114.666 111.119 111.809 113.363C109.966 114.812 109.371 117.396 109.313 119.753C109.276 121.29 109.466 122.731 109.688 123.697C109.8 124.953 110.377 125.954 111.809 126.145C115.381 126.621 119.37 119.592 121.402 116.01C121.691 115.501 121.94 115.061 122.143 114.723C124.319 113.418 133.565 102.032 137.916 96.5026L142.845 84.265L144.715 80.4688L145.803 77.4774Z" fill="#E2857E"/>
<path d="M137.916 96.5026C133.565 102.032 124.319 113.418 122.143 114.723C121.94 115.061 121.691 115.501 121.402 116.01C119.37 119.592 115.381 126.621 111.809 126.145C110.377 125.954 109.8 124.953 109.688 123.697C109.466 122.731 109.276 121.29 109.313 119.753C105.16 130.767 97.2874 154.482 99.0278 161.226C101.203 169.657 92.501 195.764 89.7816 197.395C87.606 198.701 77.8158 197.395 77 200.387C77.8158 203.389 85.104 208.001 93.5888 208.001H102.563L103.923 204.205L102.563 197.395C106.407 186.245 113.213 163.402 109.688 161.226C106.164 159.051 123.05 139.108 131.934 129.408C133.456 135.282 145.622 155.969 151.514 165.577C157.134 172.467 168.375 186.898 168.375 189.509C168.375 191.444 166.94 192.71 164.978 194.441C163.632 195.629 162.037 197.035 160.488 199.027C159.145 203.057 160.013 203.032 164.761 202.897C165.781 202.868 166.98 202.834 168.375 202.834C174.684 202.834 179.887 190.869 181.7 184.886C181.428 181.09 176.968 180.045 173.27 173.736C172.748 161.988 164.457 153.749 160.907 150.221L160.906 150.221C160.758 150.074 160.619 149.935 160.488 149.804C160.488 144.583 153.417 131.856 149.882 126.145C150.698 120.887 151.296 109.447 147.163 105.749C146.485 105.142 145.905 104.308 145.412 103.312C144.139 100.745 143.437 97.1027 143.084 93.5223C142.739 90.0251 142.728 86.5866 142.845 84.265L137.916 96.5026Z" fill="#E2857E"/>
<path d="M115.514 38.3058C115.855 50.6132 121.5 53.1257 124.591 52.7191C125.521 52.3843 126.363 52.0243 127.132 51.6312C130.206 50.0583 132.09 47.9566 133.604 44.8326C132.981 44.3974 132.775 42.8383 132.749 42.1131L132.477 36.6741L131.118 38.3058H115.514Z" fill="#E2857E"/>
<path d="M118.336 58.7132C119.424 60.7075 127.365 61.5959 140.636 56.8096C150.426 58.7676 147.435 73.0358 144.715 79.9251C141.089 78.4748 133.293 76.0091 131.118 77.7496C131.118 82.282 130.846 91.2926 129.758 91.075C128.67 90.8574 126.041 94.2477 124.863 95.9701C122.416 100.321 122.416 105.216 120.24 96.7859C119.75 94.8871 116.977 91.6189 116.161 89.7153C114.801 89.262 110.178 84.5483 109.362 75.8459C109.362 70.407 111.266 60.6168 118.336 58.7132Z" fill="#FFF4F4"/>
<path d="M144.171 99.7773L135.741 98.6895C134.653 98.5492 131.118 107.12 121.6 114.463C115.345 125.884 114.257 125.34 111.538 125.884C109.362 126.319 108.999 122.621 109.09 120.717C106.099 124.797 98.5385 136.436 98.7561 149.272C98.9736 162.108 96.2301 166.878 95.8536 167.729C95.477 168.579 116.161 170.684 116.161 170.684C122.959 171.954 135.242 171.336 139.365 171.336C143.487 171.336 158.383 171.336 158.383 171.336L174.27 168.607C174.27 168.607 174.358 163.032 172.182 157.158C169.463 149.816 157.497 139.21 155.593 125.068C154.07 113.755 147.344 103.494 144.171 99.7773Z" fill="#E85D5D"/>
<path d="M143.083 95.4262C142.431 93.6857 142.449 87.449 142.54 84.5483L137.916 95.9701L135.741 98.6895L144.171 99.7773C144.081 99.0521 143.736 97.1666 143.083 95.4262Z" fill="#FFF4F5"/>
<path d="M135.744 98.6724C135.255 98.5175 133.29 101.736 131.536 104.218L134.809 104.296L136.196 102.269L134.809 100.605L136.196 98.7325L135.744 98.6724Z" fill="#DFD3D3"/>
<path d="M136.196 98.7325L134.809 100.605L136.196 102.269L134.809 104.296L135.401 104.31L136.567 102.269L135.401 100.605L136.567 98.7818L136.196 98.7325Z" fill="#252323"/>
<path d="M136.567 98.7818L135.401 100.605L136.567 102.269L135.401 104.31L136.661 104.34L136.732 98.8037L136.567 98.7818Z" fill="#DFD3D3"/>
<path d="M136.732 98.8037L136.661 104.34L136.906 104.346V98.8268L136.732 98.8037Z" fill="#F8D24C"/>
<path d="M138.382 104.381L137.132 102.269L138.543 100.605L137.079 98.8499L136.906 98.8268V104.346L138.382 104.381Z" fill="#DFD3D3"/>
<path d="M138.895 100.605L137.592 98.9181L137.079 98.8499L138.543 100.605L137.132 102.269L138.382 104.381L138.895 104.393L137.592 102.269L138.895 100.605Z" fill="#252323"/>
<path d="M137.592 98.9181L138.895 100.605L137.592 102.269L138.895 104.393L140.993 104.443L141.991 102.269L140.993 100.605L141.991 99.5032L137.592 98.9181Z" fill="#DFD3D3"/>
<path d="M141.991 99.5032L140.993 100.605L141.991 102.269L140.993 104.443L141.363 104.452L142.237 102.269L141.526 100.605L142.237 99.5358L141.991 99.5032Z" fill="#252323"/>
<path d="M142.237 99.5358L141.526 100.605L142.237 102.269L141.363 104.452L142.309 104.475L142.398 99.5573L142.237 99.5358Z" fill="#DFD3D3"/>
<path d="M142.398 99.5573L142.309 104.475L142.619 104.482V99.5867L142.398 99.5573Z" fill="#57DE28"/>
<path d="M143.642 104.506L142.84 102.269L143.642 100.605L142.84 99.6161L142.619 99.5867V104.482L143.642 104.506Z" fill="#DFD3D3"/>
<path d="M143.923 100.605L143.144 99.6565L142.84 99.6161L143.642 100.605L142.84 102.269L143.642 104.506L144.102 104.517L143.144 102.269L143.923 100.605Z" fill="#252323"/>
<path d="M147.664 104.602L144.297 99.8098L143.144 99.6565L143.923 100.605L143.144 102.269L144.102 104.517L147.664 104.602Z" fill="#DFD3D3"/>
<path d="M124.772 111.941H151.569L150.698 110.006H126.707L124.772 111.941Z" fill="white"/>
<path d="M152.789 114.659H121.463L120.522 116.33H153.4C153.22 115.826 153.023 115.29 152.789 114.659Z" fill="white"/>
<path d="M118.813 119.368H154.427C154.179 118.601 153.972 117.975 153.765 117.372H119.936L118.813 119.368Z" fill="white"/>
<path d="M155.883 127.022H105.032L103.873 129.251H156.418L155.883 127.022Z" fill="#10100F"/>
<path d="M101.184 135.596H158.845L160.572 138.936H100.101L101.184 135.596Z" fill="#10100F"/>
<path d="M98.8895 145.472H164.544C165.754 147.17 166.5 148.156 168.244 150.124H98.7853C98.6585 148.346 98.8032 147.325 98.8895 145.472Z" fill="#10100F"/>
<path d="M98.0434 159.004H172.684C173.246 161.152 173.428 162.351 173.742 164.502H97.3039C97.7622 162.458 97.9267 161.254 98.0434 159.004Z" fill="#10100F"/>
<path fill-rule="evenodd" clip-rule="evenodd" d="M152.789 114.659H121.463L122.933 113.452H152.247L152.789 114.659ZM151.987 112.873L151.569 111.941H124.772L123.637 112.873H151.987Z" fill="#10100F"/>
<path d="M151.987 112.873H123.637L122.933 113.452H152.247L151.987 112.873Z" fill="#F2B71E"/>
<path fill-rule="evenodd" clip-rule="evenodd" d="M120.522 116.33H153.4C153.445 116.457 153.49 116.581 153.533 116.705H120.312L120.522 116.33ZM120.164 116.967L119.936 117.372H153.765C153.719 117.236 153.672 117.102 153.625 116.967H120.164Z" fill="#10100F"/>
<path d="M153.533 116.705H120.312L120.164 116.967H153.625C153.595 116.88 153.564 116.792 153.533 116.705Z" fill="#F2B71E"/>
<path d="M102.812 131.747C103.048 131.795 139.164 131.767 157.192 131.747L157.783 133.166H101.985L102.812 131.747Z" fill="#F2B71E"/>
<path d="M99.6202 141.087H161.921L162.63 142.21H99.3246L99.6202 141.087Z" fill="#F2B71E"/>
<path d="M98.7853 153.913H170.728L171.26 155.214H98.438L98.7853 153.913Z" fill="#F2B71E"/>
</svg>
