<svg width="126" height="127" viewBox="0 0 126 127" fill="none" xmlns="http://www.w3.org/2000/svg">
<path fill-rule="evenodd" clip-rule="evenodd" d="M78.6233 65.4876C83.53 61.1242 86.625 54.7389 86.625 47.625C86.625 34.4737 76.0477 23.8125 63 23.8125C49.9523 23.8125 39.375 34.4737 39.375 47.625C39.375 54.7389 42.47 61.1242 47.3767 65.4876C33.5467 70.3548 23.625 83.6189 23.625 99.2188C23.625 101.411 25.3879 103.188 27.5625 103.188C29.7371 103.188 31.5 101.411 31.5 99.2188C31.5 83.8756 43.8402 71.4375 59.0625 71.4375H66.9375C82.1599 71.4375 94.5 83.8756 94.5 99.2188C94.5 101.411 96.2629 103.188 98.4375 103.188C100.612 103.188 102.375 101.411 102.375 99.2188C102.375 83.6189 92.4533 70.3548 78.6233 65.4876ZM78.75 47.625C78.75 56.3925 71.6985 63.5 63 63.5C54.3015 63.5 47.25 56.3925 47.25 47.625C47.25 38.8575 54.3015 31.75 63 31.75C71.6985 31.75 78.75 38.8575 78.75 47.625Z" fill="#FFC122"/>
</svg>
