<svg width="724" height="402" viewBox="0 0 724 402" fill="none" xmlns="http://www.w3.org/2000/svg">
<path d="M406.453 292.458C412.066 285.627 412.656 281.074 412.249 279.651C407.673 260.744 390.592 228.725 383.271 216.222C377.414 206.22 353.784 187.253 342.701 179.019C328.67 171.193 298.105 153.892 288.1 147.305C278.095 140.719 270.713 133.176 268.273 130.229L250.581 109.187C248.141 106.646 242.04 100.527 237.16 96.3798C232.279 92.2326 227.805 90.7892 226.178 90.5859H215.807L210.927 91.8057H195.37C193.845 91.0942 189.635 89.6711 184.999 89.6711C174.994 90.8909 167.409 98.1079 164.867 101.564C157.444 109.899 140.83 128.826 133.753 137.852C126.676 146.878 112.299 157.267 105.995 161.333L78.237 179.934C70.4078 184.508 52.5532 196.95 43.7682 210.124C32.787 219.394 22.7208 240.211 19.0604 249.461L8.99427 289.104C18.0232 299.594 34.7188 305.469 41.938 307.095L101.115 319.293L155.105 325.087H223.738L275.594 322.952L330.5 316.854C353.479 311.568 400.841 299.289 406.453 292.458Z" fill="#EBB31F"/>
<path d="M195.37 91.8057H210.927C211.415 90.098 206.249 80.5228 203.606 75.9487C202.284 74.6272 199.152 71.7405 197.2 70.7646C195.492 68.5691 190.184 67.8169 187.744 67.7152L182.864 70.7646C182.355 70.9679 181.399 71.9844 181.643 74.424C181.887 76.8635 183.372 78.2866 184.084 78.6932C185.812 79.608 189.818 82.1085 192.015 84.792C194.211 87.4755 195.167 90.5859 195.37 91.8057Z" fill="#AF7B20"/>
<path d="M3.12083 299.472C1.02968 304.307 -0.493255 309.845 0.148288 314.719C0.265445 315.609 0.662901 316.527 1.29961 317.463L14.79 308.597C7.2828 304.426 3.9283 301.053 3.12083 299.472Z" fill="#483320"/>
<path d="M106.3 352.686C108.222 352.991 110.155 353.291 112.096 353.583C133.934 356.869 156.691 359.195 174.628 358.631C175.733 358.596 176.852 358.562 177.983 358.529C169.198 356.252 155.817 344.012 150.225 338.177C144.377 337.348 137.76 336.383 130.703 335.319C123.077 339.114 118.501 343.85 93.1836 350.478C97.4621 351.236 101.851 351.978 106.3 352.686Z" fill="#87622D"/>
<path d="M179.203 358.494C208.509 357.663 245.817 357.372 276.094 355.965C267.501 356.31 248.613 344.38 240.21 338.346C231.995 338.585 223.674 338.766 215.502 338.899C209.605 344.877 194.089 357.165 179.203 358.494Z" fill="#87622D"/>
<path d="M282.915 355.622C299.722 354.706 313.803 353.375 322.264 351.312C332.004 351.312 345.612 347.83 359.478 343.107C352.645 344.106 337.312 334.825 330.5 330.06C324.92 331.21 319.474 332.126 314.333 332.711C306.097 339.345 288.283 353.215 282.915 355.622Z" fill="#87622D"/>
<path d="M359.478 343.107C377.921 336.825 396.82 328.349 407.673 322.952C402.305 322.952 392.218 316.306 387.846 312.982C386.093 313.635 384.259 314.306 382.356 314.989C380.424 321.119 373.144 335.323 359.478 343.107Z" fill="#87622D"/>
<path d="M407.673 322.952C411.436 319.598 419.326 310.511 420.79 300.997C421.355 297.327 420.727 293.781 419.545 290.628C417.9 293.577 415.756 296.241 413.48 298.557C414.086 303.436 413.774 315.146 407.673 322.952Z" fill="#87622D"/>
<path d="M412.249 279.651C412.656 281.074 412.066 285.627 406.453 292.458C400.841 299.289 353.479 311.568 330.5 316.854L275.594 322.952L223.738 325.087H155.105L101.115 319.293L41.938 307.095C34.7188 305.469 18.0232 299.594 8.99427 289.104C7.35492 291.321 5.00679 295.111 3.12083 299.472C3.9283 301.053 7.2828 304.426 14.79 308.597C16.2547 309.41 17.8776 310.255 19.6705 311.122C22.8689 312.668 26.6084 314.288 30.9568 315.939C37.1877 318.304 49.0038 321.073 63.2903 323.896C83.744 327.937 109.261 332.087 130.703 335.319C137.76 336.383 144.377 337.348 150.225 338.177C152.595 338.512 154.839 338.826 156.936 339.114C171.796 339.264 193.085 339.262 215.502 338.899C223.674 338.766 231.995 338.585 240.21 338.346C270.829 337.455 299.967 335.753 314.333 332.711C319.474 332.126 324.92 331.21 330.5 330.06C348.301 326.391 367.457 320.333 382.356 314.989C384.259 314.306 386.093 313.635 387.846 312.982C393.183 310.994 397.767 309.174 401.268 307.705C403.959 306.355 408.977 303.139 413.48 298.557C415.756 296.241 417.9 293.577 419.545 290.628C417.662 285.608 414.373 281.586 412.249 279.651Z" fill="#483320"/>
<path fill-rule="evenodd" clip-rule="evenodd" d="M63.2903 323.896L47.1235 324.172C44.8866 327.33 38.8266 334.01 32.4819 335.466C38.451 337.826 44.1954 339.832 48.6487 341.249C57.8359 343.491 71.5188 346.492 87.083 349.373C84.3987 348.882 70.1028 332.183 63.2903 323.896Z" fill="#87622D"/>
<path d="M30.9568 315.939C26.6084 314.288 22.8689 312.668 19.6705 311.122C21.1957 318.111 24.9171 332.368 27.6014 333.474C29.2306 334.161 30.8645 334.826 32.4819 335.466C38.8266 334.01 44.8866 327.33 47.1235 324.172L63.2903 323.896C49.0038 321.073 37.1877 318.304 30.9568 315.939Z" fill="#483320"/>
<path d="M63.2903 323.896C70.1028 332.183 84.3987 348.882 87.083 349.373C89.0872 349.744 91.1226 350.113 93.1836 350.478C118.501 343.85 123.077 339.114 130.703 335.319C109.261 332.087 83.744 327.937 63.2903 323.896Z" fill="#483320"/>
<path d="M156.936 339.114C154.839 338.826 152.595 338.512 150.225 338.177C155.817 344.012 169.198 356.252 177.983 358.529C178.388 358.517 178.795 358.506 179.203 358.494C194.089 357.165 209.605 344.877 215.502 338.899C193.085 339.262 171.796 339.264 156.936 339.114Z" fill="#483320"/>
<path d="M276.204 355.96C278.483 355.854 280.722 355.741 282.915 355.622C288.283 353.215 306.097 339.345 314.333 332.711C299.967 335.753 270.829 337.455 240.21 338.346C248.613 344.38 267.501 356.31 276.094 355.965C276.131 355.964 276.168 355.962 276.204 355.96Z" fill="#483320"/>
<path d="M330.5 330.06C337.312 334.825 352.645 344.106 359.478 343.107C373.144 335.323 380.424 321.119 382.356 314.989C367.457 320.333 348.301 326.391 330.5 330.06Z" fill="#483320"/>
<path d="M401.268 307.705C397.767 309.174 393.183 310.994 387.846 312.982C392.218 316.306 402.305 322.952 407.673 322.952C413.774 315.146 414.086 303.436 413.48 298.557C408.977 303.139 403.959 306.355 401.268 307.705Z" fill="#483320"/>
<path d="M14.79 308.597L1.29961 317.463C4.89703 322.755 16.1321 328.64 27.6014 333.474C24.9171 332.368 21.1957 318.111 19.6705 311.122C17.8776 310.255 16.2547 309.41 14.79 308.597Z" fill="#87622D"/>
<path d="M643.893 334.298C651.262 329.43 653.167 325.256 653.198 323.777C654.402 304.379 647.533 268.778 644.23 254.685C641.588 243.41 624.623 218.341 616.472 207.216C605.386 195.61 581.312 170.089 573.704 160.854C566.095 151.618 561.272 142.243 559.812 138.709L549.126 113.409C547.546 110.265 543.526 102.625 540.09 97.2282C536.654 91.8311 532.809 89.1352 531.316 88.4618L521.418 85.4067L516.4 85.1336L501.552 80.551C500.306 79.4224 496.708 76.8237 492.283 75.4579C482.374 73.6752 473.008 78.331 469.564 80.8817C460.023 86.6529 438.589 99.8285 429.175 106.361C419.761 112.894 402.978 118.577 395.763 120.602L363.788 130.184C354.968 132.245 334.261 138.864 321.995 148.853C308.782 154.469 293.041 171.378 286.821 179.131L265.533 214.013C271.059 226.688 285.263 237.215 291.674 240.895L344.56 269.972L394.383 291.408L459.888 311.625L510.01 324.863L564.212 335.214C587.701 336.937 636.523 339.166 643.893 334.298Z" fill="#831A01"/>
<path d="M501.552 80.551L516.4 85.1336C517.369 83.647 515.261 72.9838 514.086 67.8381C513.213 66.1871 511.075 62.5085 509.499 61.0018C508.516 58.4024 503.672 56.1208 501.373 55.3049L495.816 56.7786C495.271 56.8229 494.059 57.5118 493.573 59.9128C493.087 62.3137 494.085 64.1097 494.644 64.7075C496.024 66.0901 499.111 69.6575 500.417 72.8664C501.722 76.0754 501.718 79.3265 501.552 80.551Z" fill="#590101"/>
<path d="M256.872 222.182C253.451 226.182 250.366 231.02 249.542 235.863C249.391 236.747 249.5 237.74 249.832 238.822L265.32 234.331C259.384 228.138 257.177 223.929 256.872 222.182Z" fill="#1F1B0E"/>
<path d="M339.669 303.38C341.414 304.238 343.17 305.093 344.936 305.944C364.811 315.514 385.846 324.438 403.132 329.183C404.197 329.476 405.275 329.773 406.364 330.075C398.65 325.313 389.486 309.686 385.868 302.467C380.53 299.953 374.5 297.083 368.077 293.989C359.681 295.365 353.918 298.539 327.801 297.409C331.661 299.393 335.631 301.393 339.669 303.38Z" fill="#9A7531"/>
<path d="M407.539 330.401C435.754 338.24 471.448 348.952 500.76 356.528C492.457 354.326 477.945 337.373 471.703 329.137C463.792 326.945 455.796 324.666 447.958 322.385C440.568 326.356 422.138 333.517 407.539 330.401Z" fill="#9A7531"/>
<path d="M507.371 358.209C523.683 362.286 537.514 365.164 546.197 365.686C555.493 368.555 569.508 369.24 584.133 368.815C577.318 367.756 565.418 354.379 560.32 347.823C554.656 347.277 549.188 346.547 544.109 345.591C534.294 349.498 513.204 357.493 507.371 358.209Z" fill="#9A7531"/>
<path d="M584.133 368.815C603.587 368.251 624.122 365.725 636.072 363.77C630.948 362.189 623.279 352.872 620.086 348.411C618.22 348.518 616.272 348.619 614.254 348.71C610.604 353.993 599.47 365.41 584.133 368.815Z" fill="#9A7531"/>
<path d="M636.072 363.77C640.651 361.676 650.859 355.325 655.06 346.673C656.68 343.335 657.126 339.765 656.927 336.407C654.488 338.738 651.656 340.65 648.802 342.19C647.943 347.027 644.195 358.115 636.072 363.77Z" fill="#9A7531"/>
<path d="M653.198 323.777C653.167 325.256 651.262 329.43 643.893 334.298C636.523 339.166 587.701 336.937 564.212 335.214L510.01 324.863L459.888 311.625L394.383 291.408L344.56 269.972L291.674 240.895C285.263 237.215 271.059 226.688 265.533 214.013C263.315 215.647 259.957 218.574 256.872 222.182C257.177 223.929 259.384 228.138 265.32 234.331C266.479 235.539 267.779 236.823 269.235 238.179C271.831 240.598 274.923 243.246 278.587 246.103C283.837 250.197 294.299 256.321 307.103 263.224C325.434 273.107 348.565 284.586 368.077 293.989C374.5 297.083 380.53 299.953 385.868 302.467C388.031 303.486 390.081 304.446 391.997 305.339C406.136 309.859 426.455 316.129 447.958 322.385C455.796 324.666 463.792 326.945 471.703 329.137C501.189 337.306 529.5 344.264 544.109 345.591C549.188 346.547 554.656 347.277 560.32 347.823C578.391 349.564 598.459 349.423 614.254 348.71C616.272 348.619 618.22 348.518 620.086 348.411C625.765 348.085 630.676 347.698 634.45 347.327C637.417 346.83 643.154 345.238 648.802 342.19C651.656 340.65 654.488 338.738 656.927 336.407C656.609 331.06 654.654 326.251 653.198 323.777Z" fill="#0E0302"/>
<path fill-rule="evenodd" clip-rule="evenodd" d="M307.103 263.224L291.591 258.726C288.525 261.082 280.773 265.674 274.289 265.195C279.291 269.206 284.182 272.814 288.015 275.478C296.123 280.325 308.298 287.221 322.304 294.556C319.887 293.297 311.163 273.143 307.103 263.224Z" fill="#9A7531"/>
<path d="M278.587 246.103C274.923 243.246 271.831 240.598 269.235 238.179C268.63 245.302 267.982 260.009 270.218 261.855C271.57 262.991 272.934 264.108 274.289 265.195C280.773 265.674 288.525 261.082 291.591 258.726L307.103 263.224C294.299 256.321 283.837 250.197 278.587 246.103Z" fill="#1F1B0E"/>
<path d="M307.103 263.224C311.163 273.143 319.887 293.297 322.304 294.556C324.108 295.501 325.941 296.453 327.801 297.409C353.918 298.539 359.681 295.365 368.077 293.989C348.565 284.586 325.434 273.107 307.103 263.224Z" fill="#1F1B0E"/>
<path d="M391.997 305.339C390.081 304.446 388.031 303.486 385.868 302.467C389.486 309.686 398.65 325.313 406.364 330.075C406.754 330.183 407.146 330.292 407.539 330.401C422.138 333.517 440.568 326.356 447.958 322.385C426.455 316.129 406.136 309.859 391.997 305.339Z" fill="#1F1B0E"/>
<path d="M500.866 356.555C503.073 357.125 505.243 357.678 507.371 358.209C513.204 357.493 534.294 349.498 544.109 345.591C529.5 344.264 501.189 337.306 471.703 329.137C477.945 337.373 492.457 354.326 500.76 356.528C500.796 356.537 500.831 356.547 500.866 356.555Z" fill="#1F1B0E"/>
<path d="M560.32 347.823C565.418 354.379 577.318 367.756 584.133 368.815C599.47 365.41 610.604 353.993 614.254 348.71C598.459 349.423 578.391 349.564 560.32 347.823Z" fill="#1F1B0E"/>
<path d="M634.45 347.327C630.676 347.698 625.765 348.085 620.086 348.411C623.279 352.872 630.948 362.189 636.072 363.77C644.195 358.115 647.943 347.027 648.802 342.19C643.154 345.238 637.417 346.83 634.45 347.327Z" fill="#1F1B0E"/>
<path d="M265.32 234.331L249.832 238.822C251.706 244.933 260.695 253.862 270.218 261.855C267.982 260.009 268.63 245.302 269.235 238.179C267.779 236.823 266.479 235.539 265.32 234.331Z" fill="#9A7531"/>
</svg>
