<svg width="301" height="330" viewBox="0 0 301 330" fill="none" xmlns="http://www.w3.org/2000/svg">
<path d="M0.64961 23.6608V42.1958C2.54694 42.9669 4.81006 43.822 7.41569 44.7387C9.15316 45.35 11.0429 45.9886 13.0781 46.6479C15.6632 47.4854 18.4829 48.3562 21.523 49.2466C23.5022 49.8263 25.5749 50.4144 27.7371 51.0069C30.7532 51.8335 33.9434 52.669 37.2973 53.503C40.1058 54.2014 43.0291 54.8988 46.0609 55.5892C50.3629 56.5689 54.8833 57.5344 59.6045 58.4685C65.177 59.5711 71.0291 60.63 77.1316 61.6169C79.9985 62.0806 82.9207 62.5283 85.8951 62.9572C90.652 63.6432 95.5425 64.2809 100.554 64.8586C104.003 65.2561 107.51 65.6252 111.07 65.9618C116.832 66.5066 122.733 66.9665 128.757 67.3249C132.884 67.5704 137.069 67.7683 141.306 67.9132C144.547 68.1233 148.027 68.3216 151.701 68.5015C154.958 68.6609 158.368 68.8058 161.899 68.9316C163.366 68.9838 164.854 69.0328 166.36 69.0781C171.085 69.2202 175.994 69.3266 181.019 69.387C183.958 69.4223 186.937 69.442 189.942 69.4438C194.937 69.4469 200.003 69.4008 205.079 69.2963C209.112 69.2132 213.151 69.0932 217.163 68.9316C222.72 68.7077 228.227 68.404 233.601 68.0078C237.506 67.72 241.341 67.3833 245.073 66.9929C250.671 66.4075 256.038 65.7015 261.066 64.8586C263.35 64.4756 265.565 64.0643 267.699 63.6233C271.412 62.8561 274.882 61.9987 278.056 61.0432C282.55 59.69 286.45 58.14 289.604 56.3704C293.136 54.3879 295.732 52.1299 297.176 49.5642C300.049 38.5167 301 31.8917 301 29.1925C299.084 31.4092 296.864 33.4778 294.365 35.4052C291.638 37.5091 288.58 39.4448 285.226 41.2209C282.967 42.4169 280.573 43.5407 278.056 44.5947C275.953 45.4749 273.765 46.3065 271.496 47.0911C268.942 47.9743 266.286 48.7979 263.538 49.5642C259.633 50.6527 255.542 51.6256 251.287 52.4892C247.882 53.1805 244.372 53.8019 240.771 54.3565C235.733 55.1324 230.516 55.7778 225.156 56.3016C222.274 56.5832 219.351 56.8297 216.392 57.0424C211.953 57.3616 207.432 57.6049 202.849 57.7769C199.794 57.8916 196.712 57.9746 193.607 58.0274C190.022 58.0884 186.408 58.109 182.772 58.0916C179.81 58.0773 176.835 58.0378 173.849 57.9741C169.299 57.877 164.726 57.7238 160.146 57.5186C156.27 57.3449 152.39 57.134 148.515 56.8884C146.015 56.7299 143.518 56.557 141.026 56.3704C139.27 56.2389 137.517 56.1006 135.768 55.9556C133.103 55.735 130.447 55.499 127.801 55.2485C123.627 54.8534 119.48 54.4222 115.372 53.9582C112.214 53.6013 109.078 53.225 105.972 52.8308C100.893 52.1862 95.8917 51.4937 90.9939 50.7596C87.9785 50.3077 85.0023 49.84 82.071 49.3581C77.6604 48.633 73.3516 47.8756 69.1647 47.0911C65.9007 46.4795 62.7108 45.8515 59.6045 45.2094C55.9803 44.4602 52.4699 43.6919 49.0883 42.9083C45.4253 42.0596 41.9135 41.1929 38.572 40.3131C36.2219 39.6944 33.956 39.0692 31.781 38.4393C27.3884 37.1671 23.3665 35.8755 19.7702 34.5786C14.7857 32.781 10.6188 30.9732 7.41569 29.1925C4.01733 27.3032 1.70382 25.4445 0.64961 23.6608Z" fill="#321C0C"/>
<path d="M301 29.1925C226.59 -18.4859 39.9528 2.75277 0.64961 19.5125V23.6608C1.70382 25.4445 4.01733 27.3032 7.41569 29.1925C11.1705 28.2569 15.3011 27.3015 19.7702 26.3456C22.9612 25.6631 26.3247 24.9804 29.8472 24.3046C29.9934 24.2766 30.1398 24.2485 30.2865 24.2205C31.7469 23.9416 33.2344 23.6639 34.7479 23.3879C38.2207 22.7547 41.8307 22.1305 45.5664 21.5214C45.731 21.4946 45.8958 21.4678 46.0609 21.441C48.8099 20.9951 51.6264 20.5575 54.5057 20.1305C58.4294 19.5486 62.4698 18.9865 66.6153 18.4502C69.6413 18.0587 72.7234 17.681 75.8569 17.3193C80.2733 16.8097 84.7921 16.3319 89.4005 15.8927C92.4432 15.6028 95.5249 15.3296 98.6421 15.0751C102.727 14.7416 106.872 14.4403 111.07 14.1752C114.906 13.9331 118.785 13.7212 122.702 13.543C127.014 13.3467 131.372 13.1912 135.768 13.0806C139.984 12.9745 144.236 12.9098 148.515 12.8903C152.949 12.8701 157.414 12.8985 161.899 12.9798C166.975 13.0717 172.077 13.2312 177.195 13.4646C181.436 13.658 185.687 13.902 189.942 14.2003C193.287 14.4347 196.634 14.7026 199.98 15.0057C204.074 15.3764 208.165 15.7998 212.249 16.279C215.282 16.6347 218.31 17.0211 221.332 17.4396C225.114 17.9634 228.887 18.5374 232.645 19.1641C237.184 19.9211 241.701 20.755 246.188 21.6701C249.711 22.3885 253.215 23.1571 256.696 23.9778C261.039 25.0017 265.347 26.1069 269.611 27.2974C272.069 27.9837 274.513 28.6984 276.94 29.4423C278.487 29.9163 280.028 30.4021 281.561 30.8999C284.264 31.7775 286.946 32.6924 289.604 33.6459C291.2 34.2184 292.787 34.8047 294.365 35.4052C296.864 33.4778 299.084 31.4092 301 29.1925Z" fill="#8E6455"/>
<path d="M122.702 13.543L127.801 55.2485C130.447 55.499 133.103 55.735 135.768 55.9556V13.0806C131.372 13.1912 127.014 13.3467 122.702 13.543Z" fill="#6F4C16"/>
<path d="M148.515 12.8903V56.8884C152.39 57.134 156.27 57.3449 160.146 57.5186L161.899 12.9798C157.414 12.8985 152.949 12.8701 148.515 12.8903Z" fill="#6F4C16"/>
<path d="M177.195 13.4646L173.849 57.9741C176.835 58.0378 179.81 58.0773 182.772 58.0916L189.942 14.2003C185.687 13.902 181.436 13.658 177.195 13.4646Z" fill="#6F4C16"/>
<path d="M199.98 15.0057L193.607 58.0274C196.712 57.9746 199.794 57.8916 202.849 57.7769L212.249 16.279C208.165 15.7998 204.074 15.3764 199.98 15.0057Z" fill="#6F4C16"/>
<path d="M221.332 17.4396L216.392 57.0424C219.351 56.8297 222.274 56.5832 225.156 56.3016L232.645 19.1641C228.887 18.5374 225.114 17.9634 221.332 17.4396Z" fill="#6F4C16"/>
<path d="M246.188 21.6701L240.771 54.3565C244.372 53.8019 247.882 53.1805 251.287 52.4892L256.696 23.9778C253.215 23.1571 249.711 22.3885 246.188 21.6701Z" fill="#6F4C16"/>
<path d="M269.611 27.2974L263.538 49.5642C266.286 48.7979 268.942 47.9743 271.496 47.0911L276.94 29.4423C274.513 28.6984 272.069 27.9837 269.611 27.2974Z" fill="#6F4C16"/>
<path d="M98.6421 15.0751L105.972 52.8308C109.078 53.225 112.214 53.6013 115.372 53.9582L111.07 14.1752C106.872 14.4403 102.727 14.7416 98.6421 15.0751Z" fill="#6F4C16"/>
<path d="M75.8569 17.3193L82.071 49.3581C85.0023 49.84 87.9785 50.3077 90.9939 50.7596L89.4005 15.8927C84.7921 16.3319 80.2733 16.8097 75.8569 17.3193Z" fill="#6F4C16"/>
<path d="M54.5057 20.1305L59.6045 45.2094C62.7108 45.8515 65.9007 46.4795 69.1647 47.0911L66.6153 18.4502C62.4698 18.9865 58.4294 19.5486 54.5057 20.1305Z" fill="#6F4C16"/>
<path d="M34.7479 23.3879L38.572 40.3131C41.9135 41.1929 45.4253 42.0596 49.0883 42.9083L46.0609 21.441C45.8958 21.4678 45.731 21.4946 45.5664 21.5214C41.8307 22.1305 38.2207 22.7547 34.7479 23.3879Z" fill="#6F4C16"/>
<path d="M31.781 38.4393L30.2865 24.2205C30.1398 24.2485 29.9934 24.2766 29.8472 24.3046C26.3247 24.9804 22.9612 25.6631 19.7702 26.3456V34.5786C23.3665 35.8755 27.3884 37.1671 31.781 38.4393Z" fill="#6F4C16"/>
<path d="M281.561 30.8999L278.056 44.5947C280.573 43.5407 282.967 42.4169 285.226 41.2209L289.604 33.6459C286.946 32.6924 284.264 31.7775 281.561 30.8999Z" fill="#6F4C16"/>
<path d="M0.64961 42.1958L17.8582 82.3612C18.9617 82.8177 20.1853 83.3046 21.523 83.8171L7.41569 44.7387C4.81006 43.822 2.54694 42.9669 0.64961 42.1958Z" fill="#744728"/>
<path d="M13.0781 46.6479L27.7371 86.0863C29.4794 86.6952 31.3407 87.3254 33.3139 87.9711L21.523 49.2466C18.4829 48.3562 15.6632 47.4854 13.0781 46.6479Z" fill="#744728"/>
<path d="M27.7371 51.0069L42.3961 90.8049C44.5387 91.4429 46.7714 92.0874 49.0883 92.7337L37.2973 53.503C33.9434 52.669 30.7532 51.8335 27.7371 51.0069Z" fill="#744728"/>
<path d="M46.0609 55.5892L59.6045 95.5219C61.7305 96.0571 63.9093 96.5887 66.1373 97.1138L59.6045 58.4685C54.8833 57.5344 50.3629 56.5689 46.0609 55.5892Z" fill="#744728"/>
<path d="M77.1316 61.6169L85.8951 101.306C88.1986 101.741 90.5365 102.164 92.906 102.572L85.8951 62.9572C82.9207 62.5283 79.9985 62.0806 77.1316 61.6169Z" fill="#744728"/>
<path d="M100.554 64.8586L106.768 104.731C109.811 105.155 112.893 105.55 116.01 105.912L111.07 65.9618C107.51 65.6252 104.003 65.2561 100.554 64.8586Z" fill="#744728"/>
<path d="M142.281 108.079L141.306 67.9132C137.069 67.7683 132.884 67.5704 128.757 67.3249L131.944 107.443C135.362 107.701 138.81 107.915 142.281 108.079Z" fill="#744728"/>
<path d="M151.701 68.5015L147.718 108.184C150.296 108.224 153.013 108.255 155.844 108.274L161.899 68.9316C158.368 68.8058 154.958 68.6609 151.701 68.5015Z" fill="#744728"/>
<path d="M166.36 69.0781L164.289 108.295C166.423 108.291 168.604 108.28 170.822 108.262L181.019 69.387C175.994 69.3266 171.085 69.2202 166.36 69.0781Z" fill="#744728"/>
<path d="M189.942 69.4438L185.64 108.031C189.266 107.948 192.941 107.843 196.634 107.714L205.079 69.2963C200.003 69.4008 194.937 69.4469 189.942 69.4438Z" fill="#744728"/>
<path d="M217.163 68.9316L211.771 107.045C215.795 106.827 219.791 106.577 223.722 106.29L233.601 68.0078C228.227 68.404 222.72 68.7077 217.163 68.9316Z" fill="#744728"/>
<path d="M245.073 66.9929L235.672 105.28C239.917 104.867 244.026 104.404 247.941 103.885L261.066 64.8586C256.038 65.7015 250.671 66.4075 245.073 66.9929Z" fill="#744728"/>
<path d="M267.699 63.6233L256.696 102.572C260.684 101.895 264.377 101.145 267.699 100.315L278.056 61.0432C274.882 61.9987 271.412 62.8561 267.699 63.6233Z" fill="#744728"/>
<path d="M282.676 94.2086C289.866 74.9331 294.411 60.1994 297.176 49.5642C295.732 52.1299 293.136 54.3879 289.604 56.3704L274.55 98.2949C278.017 97.0758 280.78 95.7183 282.676 94.2086Z" fill="#744728"/>
<path d="M17.8582 82.3612L62.7913 201.413L59.4452 240.567L145.965 259.927L142.281 108.079C138.81 107.915 135.362 107.701 131.944 107.443C126.551 107.037 121.232 106.52 116.01 105.912C112.893 105.55 109.811 105.155 106.768 104.731C102.046 104.075 97.4185 103.35 92.906 102.572C90.5365 102.164 88.1986 101.741 85.8951 101.306C78.9742 99.999 72.3632 98.5814 66.1373 97.1138C63.9093 96.5887 61.7305 96.0571 59.6045 95.5219C55.9362 94.5985 52.4249 93.6643 49.0883 92.7337C46.7714 92.0874 44.5387 91.4429 42.3961 90.8049C39.1557 89.8399 36.1215 88.8898 33.3139 87.9711C31.3407 87.3254 29.4794 86.6952 27.7371 86.0863C25.4565 85.2892 23.3798 84.5285 21.523 83.8171C20.1853 83.3046 18.9617 82.8177 17.8582 82.3612Z" fill="#827167"/>
<path d="M231.848 231.176C232.167 212.152 242.778 158.127 282.676 94.2086C280.78 95.7183 278.017 97.0758 274.55 98.2949C272.501 99.0155 270.206 99.6878 267.699 100.315C264.377 101.145 260.684 101.895 256.696 102.572C253.912 103.045 250.985 103.481 247.941 103.885C244.026 104.404 239.917 104.867 235.672 105.28C231.788 105.658 227.79 105.993 223.722 106.29C219.791 106.577 215.795 106.827 211.771 107.045C206.743 107.317 201.671 107.538 196.634 107.714C192.941 107.843 189.266 107.948 185.64 108.031C180.579 108.148 175.612 108.222 170.822 108.262C168.604 108.28 166.423 108.291 164.289 108.295C161.382 108.3 158.56 108.293 155.844 108.274C153.013 108.255 150.296 108.224 147.718 108.184C145.828 108.154 144.013 108.118 142.281 108.079L145.965 259.927L236.345 245.624C234.719 240.211 233.169 235.258 231.848 231.176Z" fill="#827167"/>
<path d="M145.965 259.927L59.4452 240.567L55.6211 307.606C56.7898 307.782 58.0467 307.977 59.3821 308.191C60.4682 308.365 61.6063 308.551 62.7913 308.749C64.063 308.961 65.3888 309.187 66.7622 309.426C88.0879 313.139 120.914 320.011 141.651 328.198C143.156 328.792 144.597 329.393 145.965 330V259.927Z" fill="#6B5140"/>
<path d="M249.375 307.606C251.437 299.567 243.217 268.5 236.345 245.624L145.965 259.927V330C149.358 330 153.106 329.69 157.106 329.142C158.358 328.971 159.633 328.776 160.93 328.56C194.828 322.922 243.334 302.875 249.375 307.606Z" fill="#1D1717"/>
<path d="M7.41569 44.7387L21.523 83.8171C23.3798 84.5285 25.4565 85.2892 27.7371 86.0863L13.0781 46.6479C11.0429 45.9886 9.15316 45.35 7.41569 44.7387Z" fill="#21170F"/>
<path d="M21.523 49.2466L33.3139 87.9711C36.1215 88.8898 39.1557 89.8399 42.3961 90.8049L27.7371 51.0069C25.5749 50.4144 23.5022 49.8263 21.523 49.2466Z" fill="#21170F"/>
<path d="M37.2973 53.503L49.0883 92.7337C52.4249 93.6643 55.9362 94.5985 59.6045 95.5219L46.0609 55.5892C43.0291 54.8988 40.1058 54.2014 37.2973 53.503Z" fill="#21170F"/>
<path d="M59.6045 58.4685L66.1373 97.1138C72.3632 98.5814 78.9742 99.999 85.8951 101.306L77.1316 61.6169C71.0291 60.63 65.177 59.5711 59.6045 58.4685Z" fill="#21170F"/>
<path d="M85.8951 62.9572L92.906 102.572C97.4185 103.35 102.046 104.075 106.768 104.731L100.554 64.8586C95.5425 64.2809 90.652 63.6432 85.8951 62.9572Z" fill="#21170F"/>
<path d="M111.07 65.9618L116.01 105.912C121.232 106.52 126.551 107.037 131.944 107.443L128.757 67.3249C122.733 66.9665 116.832 66.5066 111.07 65.9618Z" fill="#21170F"/>
<path d="M141.306 67.9132L142.281 108.079C144.013 108.118 145.828 108.154 147.718 108.184L151.701 68.5015C148.027 68.3216 144.547 68.1233 141.306 67.9132Z" fill="#21170F"/>
<path d="M161.899 68.9316L155.844 108.274C158.56 108.293 161.382 108.3 164.289 108.295L166.36 69.0781C164.854 69.0328 163.366 68.9838 161.899 68.9316Z" fill="#21170F"/>
<path d="M181.019 69.387L170.822 108.262C175.612 108.222 180.579 108.148 185.64 108.031L189.942 69.4438C186.937 69.442 183.958 69.4223 181.019 69.387Z" fill="#21170F"/>
<path d="M205.079 69.2963L196.634 107.714C201.671 107.538 206.743 107.317 211.771 107.045L217.163 68.9316C213.151 69.0932 209.112 69.2132 205.079 69.2963Z" fill="#21170F"/>
<path d="M233.601 68.0078L223.722 106.29C227.79 105.993 231.788 105.658 235.672 105.28L245.073 66.9929C241.341 67.3833 237.506 67.72 233.601 68.0078Z" fill="#21170F"/>
<path d="M261.066 64.8586L247.941 103.885C250.985 103.481 253.912 103.045 256.696 102.572L267.699 63.6233C265.565 64.0643 263.35 64.4756 261.066 64.8586Z" fill="#21170F"/>
<path d="M278.056 61.0432L267.699 100.315C270.206 99.6878 272.501 99.0155 274.55 98.2949L289.604 56.3704C286.45 58.14 282.55 59.69 278.056 61.0432Z" fill="#21170F"/>
</svg>
