<svg width="563" height="718" viewBox="0 0 563 718" fill="none" xmlns="http://www.w3.org/2000/svg">
<path d="M20.8726 651.123C20.2171 659.128 19.6645 676.149 22.6989 680.194C25.7334 684.239 79.5949 681.879 106.146 680.194V641.433C105.35 637.407 100.415 629.046 87.0406 627.81C73.6665 626.574 37.3561 628.325 20.8726 629.355V651.123Z" fill="#9B4C11"/>
<path d="M106.146 641.433V680.194L153.911 617.137C154.754 611.145 155.934 599.139 153.911 599.054L49.6719 594.666L45.8788 602.39L20.8726 629.355C37.3561 628.325 73.6665 626.574 87.0406 627.81C100.415 629.046 105.35 637.407 106.146 641.433Z" fill="#9B4C11"/>
<path d="M399.617 652.106V703.648H482.362V655.617L399.617 652.106Z" fill="#9B4C11"/>
<path d="M510.319 622.192L430.967 617.137L399.617 652.106L482.362 655.617L510.319 622.192Z" fill="#9B4C11"/>
<path d="M482.362 655.617V703.648L510.319 675.291V622.192L482.362 655.617Z" fill="#9B4C11"/>
<path d="M510.319 588.487V622.192V675.291H549.092L552.627 540.176L560.05 256.487H519.169L519.006 262.597L518.925 265.651L518.843 268.706L510.393 585.678L510.319 588.487Z" fill="#C87300"/>
<path d="M9.49345 237.247V651.123H20.8726V629.355L45.8788 602.39V458.678L25.3487 457.316C26.0444 462.021 26.3441 467.592 24.5252 468.832C22.0527 470.518 15.8152 469.534 13.0055 468.832C12.4436 465.462 11.9098 457.822 14.2699 454.227C17.2201 449.732 15.6747 428.386 19.3273 406.898C22.2494 389.709 30.0041 345.994 33.5162 326.286L43.912 268.284V247.78L9.49345 237.247Z" fill="#B96203"/>
<path d="M49.6719 567.421V594.666L153.911 599.054H159.987L160.078 593.779L160.178 588.021L160.27 582.684L160.309 580.437L160.358 577.629L160.401 575.139L160.444 572.648L160.497 569.553L160.534 567.421H49.6719Z" fill="#E4AA1F"/>
<path d="M510.319 588.487L343.76 578.937C343.794 579.53 343.827 580.123 343.859 580.718C343.888 581.242 343.916 581.766 343.944 582.292C343.998 583.32 344.051 584.351 344.103 585.384C344.161 586.542 344.216 587.702 344.27 588.864C344.309 589.718 344.347 590.574 344.384 591.43C344.398 591.749 344.412 592.069 344.425 592.388C344.469 593.431 344.511 594.474 344.551 595.518C344.59 596.53 344.627 597.542 344.662 598.554C344.688 599.304 344.713 600.053 344.737 600.801C344.766 601.692 344.792 602.581 344.818 603.47C344.831 603.938 344.844 604.406 344.856 604.874C344.882 605.859 344.906 606.842 344.928 607.823C344.947 608.668 344.964 609.51 344.98 610.351C344.988 610.788 344.996 611.224 345.003 611.659L430.967 617.137L510.319 622.192V588.487Z" fill="#E4AA1F"/>
<path d="M49.6719 567.421L55.4317 560.961L53.825 459.205L45.8788 458.678V602.39L49.6719 594.666V567.421Z" fill="#601C02"/>
<path d="M51.4279 307.397L45.8788 332.184V447.064L53.5993 444.909L51.4279 307.397Z" fill="#601C02"/>
<path d="M45.8788 332.184L24.5252 452.822L45.8788 454.155V451.137V447.064V332.184Z" fill="#B96203"/>
<path d="M519.169 256.487H560.05L563 248.342H525.631L519.169 256.487Z" fill="#B96203"/>
<path d="M563 248.342L560.05 256.487L552.627 540.176L560.05 436.672L563 248.342Z" fill="#B96203"/>
<path d="M343.76 578.937L510.319 588.487L510.393 585.678L343.614 576.409C343.664 577.249 343.712 578.092 343.76 578.937Z" fill="#B96203"/>
<path d="M55.4317 560.961L49.6719 567.421H160.534L160.593 564.006L55.4317 560.961Z" fill="#B96203"/>
<path d="M548.109 160.988C547.875 155.886 546.395 146.972 542.349 152.141C540.393 154.64 539.408 157.283 538.977 159.601C538.78 160.662 538.698 161.654 538.693 162.533C538.685 163.707 538.811 164.679 538.977 165.342L538.158 167.308L537.105 169.836L525.631 197.38L524.469 200.171L505.631 245.393L492.584 276.711L482.756 300.305L454.598 367.9L453.563 370.384C453.112 371.152 452.571 372.09 452 373.105C450.775 375.282 449.409 377.815 448.479 379.793C447.729 381.389 447.262 382.625 447.382 383.024C447.803 384.428 443.027 395.523 455.53 392.012C458.677 388.079 461.43 382.79 462.414 380.636H466.207L480.793 345.526L488.494 326.988L500.221 298.76L512.707 268.706L510.88 265.651H514.903L543.473 187.391L545.018 167.308L548.109 160.988Z" fill="#CFA23A"/>
<path d="M493.46 239.213L492.584 276.711L505.631 245.393C506.104 226.865 506.695 203.622 507.316 179.105L507.422 174.892L507.582 168.572L507.664 165.342C509.431 95.4136 511.302 20.4534 511.302 16.8972C508.829 12.6278 504.652 15.1183 502.873 16.8972L501.981 37.9632L501.832 41.4742L500.685 68.579L500.59 70.8261L500.405 75.1797L500.239 79.112L496.707 162.533L496.642 164.078L496.398 169.836L496.249 173.347L494.855 206.28L493.46 239.213Z" fill="#CF902A"/>
<path d="M492.584 401.843L500.221 298.76L488.494 326.988L485.031 384.007L480.115 403.528C479.404 414.03 478.308 430.464 477.454 443.834C477.374 445.08 477.297 446.3 477.222 447.485C477.155 448.544 477.09 449.576 477.027 450.575C476.925 452.214 476.829 453.767 476.741 455.21C476.399 460.839 476.181 464.803 476.181 465.743C478.429 467.877 483.673 466.632 486.015 465.743L492.584 401.843Z" fill="#CF902A"/>
<path d="M480.115 264.352L476.181 279.52H481.66L482.756 300.305L492.584 276.711L493.46 239.213H481.66V248.342L480.115 264.352Z" fill="#6B2F08"/>
<path d="M480.793 345.526L466.207 380.636L457.356 403.528C455.977 414.054 454.181 427.625 452.271 441.868C452.077 443.313 451.882 444.765 451.686 446.221C448.959 466.505 446.064 487.649 443.854 502.959C443.694 504.067 443.537 505.145 443.385 506.189C441.921 516.209 440.817 523.183 440.358 524.868C444.516 530.261 448.459 527.115 449.91 524.868L459.604 469.956L463.222 447.485L463.81 443.834L466.207 428.947L470 405.213L480.793 345.526Z" fill="#DAB541"/>
<path d="M9.49345 237.247L43.912 247.78L56.9771 251.572V282.609L65.8275 439.48L66.0063 441.447L66.415 445.941L67.2835 455.49L67.7049 460.125L68.4967 468.832C69.2702 471.138 70.3544 473.72 71.5874 475.706C74.4602 480.334 78.1406 481.725 80.5783 468.832C81.5486 461.073 81.4987 454.04 81.1774 449.149C80.962 447.12 80.7601 445.235 80.5783 443.553L80.5041 441.447L80.3755 437.795L77.7687 363.783L71.3064 268.284V256.487C71.8215 248.576 73.3575 231.826 75.3804 228.119C73.1639 227.831 71.2921 228.122 69.7611 228.699C67.1002 229.701 65.4684 231.564 64.8442 232.753L53.3245 229.538L9.49345 217.305C7.94811 219.318 5.78464 226.124 9.49345 237.247Z" fill="#C67E18"/>
<path d="M24.5252 452.822L45.8788 332.184L51.4279 307.397L56.9771 282.609V251.572L43.912 247.78V268.284L33.5162 326.286C30.0041 345.994 22.2494 389.709 19.3273 406.898C15.6747 428.386 17.2201 449.732 14.2699 454.227C11.9098 457.822 12.4436 465.462 13.0055 468.832C15.8152 469.534 22.0527 470.518 24.5252 468.832C26.3441 467.592 26.0444 462.021 25.3487 457.316C25.0987 455.626 24.7976 454.047 24.5252 452.822Z" fill="#F7B936"/>
<path d="M64.8442 168.151V232.753C65.4684 231.564 67.1002 229.701 69.7611 228.699V219.973V214.075V204.525L103.196 84.3083C104.955 72.3403 107.831 52.1118 109.95 35.5757C110.084 34.53 110.215 33.4991 110.343 32.486C110.469 31.4846 110.591 30.5005 110.71 29.5368C110.834 28.5305 110.953 27.5463 111.068 26.5875C111.132 26.0595 111.194 25.5392 111.254 25.0272C111.965 18.9916 112.464 14.1059 112.609 11.2796C113.171 0.269139 105.725 3.50862 101.932 6.50466L97.9363 23.9192L97.3241 26.5875L96.6475 29.5368L95.9708 32.486L64.8442 168.151Z" fill="#C67E18"/>
<path d="M64.8442 0.465756C62.175 -0.189629 56.1061 -0.657762 53.184 2.71279C50.2619 6.08335 50.2807 32.7669 50.6553 45.6874L53.1652 218.569L53.2233 222.571L53.2814 226.574L53.3245 229.538L64.8442 232.753V168.151V25.3236V23.9192V21.2508V0.465756Z" fill="#F7B936"/>
<path d="M2.04781 237.247H9.49345C5.78464 226.124 7.94811 219.318 9.49345 217.305H2.04781C-1.66097 220.001 0.502483 231.723 2.04781 237.247Z" fill="#C67E18"/>
<path d="M75.3804 228.119C73.3575 231.826 71.8215 248.576 71.3064 256.487V268.284C73.3668 268.752 78.1058 268.762 80.5783 265.054C80.5783 264.243 79.3249 263.832 77.9488 263.643L75.3804 263.509C74.7249 254.568 74.3409 236.152 78.0496 234.017C81.2153 232.195 82.4227 232.221 82.7375 232.559C81.8071 230.602 79.1853 227.249 75.3804 228.119Z" fill="#6B2F08"/>
<path d="M111.204 265.377C111.625 266.346 112.468 269.22 112.468 272.962C116.683 274.938 126.348 276.397 131.293 266.425L111.204 265.377Z" fill="#6B2F08"/>
<path d="M97.2959 264.652C101.276 267.858 109.883 274.008 112.468 272.962C112.468 269.22 111.625 266.346 111.204 265.377L97.2959 264.652Z" fill="#6B2F08"/>
<path d="M78.0496 234.017C74.3409 236.152 74.7249 254.568 75.3804 263.509C76.071 263.491 77.0368 263.518 77.9488 263.643L97.2959 264.652L111.204 265.377L131.293 266.425L135.648 266.652L140.003 266.879L148.011 267.296L231.599 271.655L235.532 242.443L82.8261 232.753C82.7985 232.69 82.769 232.626 82.7375 232.559C82.4227 232.221 81.2153 232.195 78.0496 234.017Z" fill="#D79110"/>
<path d="M278.38 242.443L276.694 271.655L309.848 272.962L312.525 273.067L315.201 273.173L320.555 273.384L331.261 273.806L339.45 274.129L347.638 274.452L476.181 279.52L480.115 264.352L481.66 248.342L350.307 244.531L344.909 244.374L339.511 244.217L333.168 244.033L329.32 243.922L325.863 243.821L320.103 243.654L317.223 243.571L314.344 243.487L278.38 242.443Z" fill="#D79110"/>
<path d="M80.5783 468.832C78.1406 481.725 74.4602 480.334 71.5874 475.706V495.656C74.4439 498.184 81.2246 501.723 85.4953 495.656C85.4953 493.63 85.0126 487.72 84.3251 480.348C84.1857 478.854 84.038 477.3 83.8841 475.706C83.4399 471.105 82.9449 466.17 82.4546 461.389C82.3138 460.015 82.1733 458.654 82.0345 457.316C81.7365 454.444 81.4464 451.684 81.1774 449.149C81.4987 454.04 81.5486 461.073 80.5783 468.832Z" fill="#F7B936"/>
<path d="M259.133 572.898H248.071C248.081 573.761 248.087 574.636 248.092 575.522C248.098 576.674 248.099 577.845 248.096 579.033C248.094 580.106 248.088 581.192 248.08 582.292C248.072 583.312 248.061 584.344 248.048 585.384C248.041 585.957 248.033 586.532 248.024 587.11C248.01 588.108 247.993 589.115 247.973 590.128C247.94 591.905 247.901 593.704 247.856 595.518C247.831 596.526 247.804 597.538 247.776 598.554C247.755 599.301 247.734 600.05 247.712 600.801L247.7 601.181C247.688 601.584 247.676 601.987 247.663 602.39H256.982C257.014 601.669 257.048 600.952 257.083 600.239C257.11 599.674 257.138 599.113 257.167 598.554C257.204 597.839 257.242 597.13 257.281 596.426C257.344 595.294 257.41 594.177 257.478 593.077C257.539 592.079 257.603 591.096 257.668 590.128C257.709 589.513 257.751 588.904 257.793 588.302C257.863 587.311 257.935 586.337 258.007 585.384C258.088 584.328 258.17 583.296 258.253 582.292C258.321 581.468 258.39 580.662 258.459 579.876C258.518 579.206 258.577 578.55 258.636 577.909C258.712 577.089 258.788 576.293 258.864 575.522C258.954 574.611 259.044 573.735 259.133 572.898Z" fill="#E4AA1F"/>
<path d="M248.071 572.898H259.133C259.133 572.171 259.15 571.138 259.19 569.808H248.024C248.033 570.258 248.041 570.711 248.048 571.168C248.057 571.739 248.065 572.316 248.071 572.898Z" fill="#B96203"/>
<path d="M264.612 506.189C274.868 512.603 303.863 521.581 337.804 506.189C338.889 505.621 339.588 505.075 339.95 504.552C340.311 504.031 340.337 503.532 340.076 503.055C337.803 498.907 313.766 496.455 299.452 495.656C286.762 495.422 262.027 497.201 264.612 506.189Z" fill="#CC9113"/>
<path d="M264.612 676.656V712.355C278.286 716.615 311.534 722.579 335.135 712.355C337.945 704.94 336.306 685.711 335.135 677.023C334.283 677.641 333.413 678.219 332.525 678.761C330.111 680.235 327.57 681.438 324.939 682.4C324.237 682.781 323.294 683.085 322.151 683.322C306.329 688.021 287.84 684.805 274.084 680.271C271.624 679.46 269.315 678.607 267.2 677.749C266.302 677.385 265.438 677.02 264.612 676.656Z" fill="#CC9113"/>
<path d="M160.935 519.25V544.248C162.751 544.997 164.923 545.783 167.397 546.557C172.71 548.218 179.417 549.823 186.984 550.88C190.04 551.307 193.236 551.644 196.537 551.86C198.425 551.983 200.347 552.067 202.297 552.104C204.648 552.15 207.04 552.128 209.461 552.029C210.857 551.972 212.263 551.889 213.676 551.779C221.898 551.136 230.37 549.552 238.658 546.626L244.664 544.248V522.48C238.287 524.737 232.299 526.511 226.688 527.871C226.686 527.871 226.684 527.872 226.682 527.872C225.158 528.242 223.663 528.58 222.195 528.89C217.16 529.952 212.45 530.671 208.057 531.103C205.363 531.368 202.788 531.525 200.33 531.587C199.666 531.604 199.01 531.613 198.363 531.616C197.747 531.619 197.138 531.616 196.537 531.607C195.658 531.594 194.795 531.568 193.949 531.53C193.757 531.521 193.565 531.512 193.375 531.502C192.733 531.469 192.102 531.43 191.48 531.383C191.06 531.352 190.645 531.318 190.234 531.281C187.237 531.01 184.47 530.587 181.927 530.046C180.936 529.836 179.98 529.607 179.058 529.363C178.483 529.212 177.921 529.054 177.372 528.89C168.886 526.362 163.502 522.511 160.935 519.25Z" fill="#CC9113"/>
<path d="M158.687 674.155V699.575C170.488 707.393 203.698 718.338 242.135 699.575V675.291C241.92 675.446 241.59 675.586 241.155 675.712C239.476 676.424 237.809 677.085 236.153 677.698C235.307 678.011 234.464 678.311 233.625 678.599C232.589 678.954 231.559 679.291 230.534 679.609C229.782 679.842 229.033 680.066 228.286 680.28C227.628 680.469 226.973 680.651 226.32 680.825C225.188 681.126 224.064 681.406 222.948 681.665C222.195 681.84 221.446 682.005 220.7 682.161C219.994 682.308 219.292 682.448 218.593 682.579C217.697 682.747 216.808 682.902 215.924 683.044C215.375 683.132 214.828 683.215 214.284 683.294C213.372 683.425 212.467 683.543 211.569 683.648C210.72 683.748 209.877 683.835 209.04 683.912C208.38 683.972 207.725 684.026 207.073 684.073C206.508 684.113 205.946 684.149 205.387 684.179C203.72 684.271 202.08 684.319 200.471 684.328C199.283 684.334 198.112 684.319 196.958 684.283C196.058 684.256 195.168 684.216 194.289 684.165C193.388 684.113 192.498 684.049 191.62 683.973C190.67 683.891 189.733 683.797 188.81 683.69C188.003 683.596 187.207 683.493 186.422 683.382C185.225 683.212 184.054 683.022 182.91 682.815C182.1 682.668 181.304 682.512 180.522 682.348C179.564 682.148 178.627 681.935 177.712 681.712C176.953 681.528 176.209 681.336 175.481 681.137C174.97 680.998 174.467 680.856 173.973 680.711C173.381 680.538 172.802 680.362 172.233 680.181C171.66 679.999 171.098 679.814 170.547 679.626C169.522 679.275 168.538 678.913 167.597 678.545C166.919 678.28 166.263 678.011 165.631 677.741C165.049 677.491 164.487 677.241 163.945 676.989C163.389 676.731 162.854 676.472 162.341 676.213C161.719 675.899 161.129 675.586 160.572 675.275C160.093 675.008 159.64 674.743 159.211 674.481C159.032 674.372 158.857 674.263 158.687 674.155Z" fill="#CC9113"/>
<path d="M264.612 506.189V535.866C293.134 543.99 323.044 539.746 337.314 535.866L339.95 504.552C339.588 505.075 338.889 505.621 337.804 506.189C303.863 521.581 274.868 512.603 264.612 506.189Z" fill="#CC9113"/>
<path d="M512.707 268.706H518.843L518.925 265.651H514.903H510.88L512.707 268.706Z" fill="#6B2F08"/>
<path d="M167.397 517.424L160.935 519.25C163.502 522.511 168.886 526.362 177.372 528.89C174.113 526.603 169.364 520.293 167.397 517.424Z" fill="#884F09"/>
<path d="M244.664 522.48H236.375C235.605 522.945 234.605 523.542 233.539 524.169C233.495 524.195 233.45 524.221 233.406 524.247C233.319 524.298 233.232 524.349 233.144 524.4C230.421 525.993 227.4 527.695 226.688 527.871C232.299 526.511 238.287 524.737 244.664 522.48Z" fill="#884F09"/>
<path d="M53.6665 449.166L45.8788 451.137V454.155L53.753 454.646L53.6665 449.166Z" fill="#601C02"/>
<path d="M24.5252 452.822C24.7976 454.047 25.0987 455.626 25.3487 457.316L45.8788 458.678V454.155L24.5252 452.822Z" fill="#FFF1CC"/>
<path d="M45.8788 458.678L53.825 459.205L53.753 454.646L45.8788 454.155V458.678Z" fill="#FFF1CC"/>
<path d="M45.8788 447.064V451.137L53.6665 449.166L53.5993 444.909L45.8788 447.064Z" fill="#FFF1CC"/>
<path d="M66.415 445.941L66.0063 441.447L53.5993 444.909L53.6665 449.166L66.415 445.941Z" fill="#FFF1CC"/>
<path d="M67.7049 460.125L67.2835 455.49L53.753 454.646L53.825 459.205L67.7049 460.125Z" fill="#FFF1CC"/>
<path d="M80.5041 441.447L231.599 401.843V398.753L80.3755 437.795L80.5041 441.447Z" fill="#FFF1CC"/>
<path d="M298.89 478.264L443.385 506.189C443.537 505.145 443.694 504.067 443.854 502.959L301.534 473.888L298.89 478.264Z" fill="#FFF1CC"/>
<path d="M318.528 440.183L316.939 443.834L451.686 446.221C451.882 444.765 452.077 443.313 452.271 441.868L443.385 441.753L318.528 440.183Z" fill="#FFF1CC"/>
<path d="M463.222 447.485L476.741 455.21C476.829 453.767 476.925 452.214 477.027 450.575L470.222 447.485H463.222Z" fill="#FFF1CC"/>
<path d="M463.81 443.834L463.222 447.485H470.222H477.222C477.297 446.3 477.374 445.08 477.454 443.834H463.81Z" fill="#FFF1CC"/>
<path d="M443.385 441.753L452.271 441.868L401.74 411.611L351.21 381.354L343.905 382.471L443.385 441.753Z" fill="#FFF1CC"/>
<path d="M334.805 379.372L333.862 384.007L343.905 382.471L351.21 381.354L415.411 372.771L408.387 369.667L371.596 374.519L334.805 379.372Z" fill="#FFF1CC"/>
<path d="M408.387 369.667L415.411 372.771L447.382 383.024C447.262 382.625 447.729 381.389 448.479 379.793L431.507 373.105L418.302 367.9L341.578 337.662L340.533 342.392L408.387 369.667Z" fill="#FFF1CC"/>
<path d="M452 373.105C452.571 372.09 453.112 371.152 453.563 370.384L454.598 367.9C443.014 368.103 419.538 368.387 418.302 367.9L431.507 373.105H452Z" fill="#FFF1CC"/>
<path d="M273.688 393.135H290.179L291.266 388.641H273.514L273.688 393.135Z" fill="#FFF1CC"/>
<path d="M271.689 341.453L299.452 354.795L299.881 352.127L271.543 337.662L271.689 341.453Z" fill="#FFF1CC"/>
<path d="M270.372 307.397L270.581 312.804L303.895 327.129L304.707 322.073L270.372 307.397Z" fill="#FFF1CC"/>
<path d="M231.599 298.619V295.67L148.011 267.296L140.003 266.879L231.599 298.619Z" fill="#FFF1CC"/>
<path d="M131.293 266.425L231.599 320.809V316.455L135.648 266.652L131.293 266.425Z" fill="#FFF1CC"/>
<path d="M53.1652 218.569L37.0283 222.508L45.1549 224.541L53.2233 222.571L53.1652 218.569Z" fill="#C4C4C4"/>
<path d="M241.777 171.381L242.135 167.308L69.7611 214.075V219.973L241.777 171.381Z" fill="#FFF1CC"/>
<path d="M279.797 232.472L316.535 223.063L316.844 220.184L280.257 229.242L279.797 232.472Z" fill="#FFF1CC"/>
<path d="M313.681 145.961L313.501 143.153L291.1 152.983L290.461 157.477L313.681 145.961Z" fill="#FFF1CC"/>
<path d="M353.309 214.075L496.249 173.347L496.398 169.836L353.635 210.774L353.309 214.075Z" fill="#FFF1CC"/>
<path d="M525.631 197.38L507.422 174.892L507.316 179.105L524.469 200.171L525.631 197.38Z" fill="#FFF1CC"/>
<path d="M537.105 169.836L538.158 167.308L522.911 166.325L510.88 165.549L507.664 165.342L507.582 168.572L537.105 169.836Z" fill="#FFF1CC"/>
<path d="M522.911 166.325L538.693 162.533C538.698 161.654 538.78 160.662 538.977 159.601L524.929 162.575L510.88 165.549L522.911 166.325Z" fill="#FFF1CC"/>
<path d="M353.96 129.36L496.642 164.078L496.707 162.533L358.736 127.321L353.96 129.36Z" fill="#FFF1CC"/>
<path d="M349.135 126.581L349.613 131.215L353.96 129.36L358.736 127.321L471.685 79.112H500.239L500.405 75.1797L479.693 74.8273L471.685 74.6911L343.564 72.5113L343.839 75.1797L464.24 79.112L353.96 124.591L349.135 126.581Z" fill="#FFF1CC"/>
<path d="M500.685 68.579L471.685 74.6911L479.693 74.8273L500.59 70.8261L500.685 68.579Z" fill="#FFF1CC"/>
<path d="M333.168 45.6874H338.928L339.511 49.0579L501.832 41.4742L501.981 37.9632L321.368 44.6791L333.168 45.6874Z" fill="#FFF1CC"/>
<path d="M297.511 107.902L309.69 112.677L309.304 109.587L297.85 105.515L297.511 107.902Z" fill="#FFF1CC"/>
<path d="M111.068 26.5875C110.953 27.5463 110.834 28.5305 110.71 29.5368L125.181 35.5757L136.35 40.2368L256.767 90.4876L257.462 86.8362L157.478 45.6874L142.672 39.5941L118.235 29.5368L111.068 26.5875Z" fill="#FFF1CC"/>
<path d="M64.8442 23.9192V25.3236L95.9708 32.486L96.6475 29.5368L78.3306 25.0272L64.8442 23.9192Z" fill="#FFF1CC"/>
<path d="M64.8442 21.2508V23.9192L78.3306 25.0272L97.3241 26.5875L97.9363 23.9192L64.8442 21.2508Z" fill="#FFF1CC"/>
<path d="M111.068 26.5875L118.235 29.5368L279.847 45.6874L281.853 43.5808L111.254 25.0272C111.194 25.5392 111.132 26.0595 111.068 26.5875Z" fill="#FFF1CC"/>
<path d="M109.95 35.5757L136.35 40.2368L125.181 35.5757L110.343 32.486C110.215 33.4991 110.084 34.53 109.95 35.5757Z" fill="#FFF1CC"/>
<path d="M261.154 67.4555L261.662 64.7872L142.672 39.5941L157.478 45.6874L261.154 67.4555Z" fill="#FFF1CC"/>
<path d="M2.04781 217.305H9.49345L53.3245 229.538L53.2814 226.574L45.1549 224.541L37.0283 222.508L9.49345 215.619L2.04781 217.305Z" fill="#B96203"/>
<path d="M245.697 546.311C245.389 545.414 245.045 544.72 244.664 544.248C242.677 545.124 240.673 545.915 238.658 546.626L223.931 552.457L220.138 553.959L216.755 555.299L212.974 556.796L210.534 557.762L206.511 559.354L202.297 561.023L197.793 562.806L192.603 564.861L189.232 566.196L186.138 567.421L181.927 569.089L178.292 570.528L172.936 572.648L168.581 574.373L164.469 576.001L160.358 577.629L160.309 580.437L245.697 546.311Z" fill="#161818"/>
<path d="M172.936 572.648L160.497 569.553L160.444 572.648L168.581 574.373L172.936 572.648Z" fill="#2E3233"/>
<path d="M186.138 567.421L160.637 561.478L160.593 564.006L181.927 569.089L186.138 567.421Z" fill="#2E3233"/>
<path d="M189.232 566.196L160.692 558.292L160.637 561.478L186.138 567.421L189.232 566.196Z" fill="#2E3233"/>
<path d="M160.899 546.311L160.82 550.88L197.793 562.806L202.297 561.023L160.899 546.311Z" fill="#2E3233"/>
<path d="M160.935 544.248L160.899 546.311L202.297 561.023L206.511 559.354L167.397 546.557C164.923 545.783 162.751 544.997 160.935 544.248Z" fill="#2E3233"/>
<path d="M245.697 546.311L160.309 580.437L160.27 582.684L246.373 548.839C246.169 547.874 245.944 547.027 245.697 546.311Z" fill="#2E3233"/>
<path d="M213.676 551.779L223.931 552.457L238.658 546.626C230.37 549.552 221.898 551.136 213.676 551.779Z" fill="#2E3233"/>
<path d="M213.676 551.779C212.263 551.889 210.857 551.972 209.461 552.029L214.8 552.994L220.138 553.959L223.931 552.457L213.676 551.779Z" fill="#2E3233"/>
<path d="M202.297 552.104C200.347 552.067 198.425 551.983 196.537 551.86L212.974 556.796L216.755 555.299L202.297 552.104Z" fill="#2E3233"/>
<path d="M160.401 575.139L160.358 577.629L164.469 576.001L160.401 575.139Z" fill="#161818"/>
<path d="M168.581 574.373L160.444 572.648L160.401 575.139L164.469 576.001L168.581 574.373Z" fill="#161818"/>
<path d="M178.292 570.528L160.534 567.421L160.497 569.553L172.936 572.648L178.292 570.528Z" fill="#161818"/>
<path d="M181.927 569.089L160.593 564.006L160.534 567.421L178.292 570.528L181.927 569.089Z" fill="#161818"/>
<path d="M192.603 564.861L160.744 555.299L160.692 558.292L189.232 566.196L192.603 564.861Z" fill="#161818"/>
<path d="M160.82 550.88L160.744 555.299L192.603 564.861L197.793 562.806L160.82 550.88Z" fill="#161818"/>
<path d="M186.984 550.88C179.417 549.823 172.71 548.218 167.397 546.557L206.511 559.354L210.534 557.762L186.984 550.88Z" fill="#161818"/>
<path d="M196.537 551.86C193.236 551.644 190.04 551.307 186.984 550.88L210.534 557.762L212.974 556.796L196.537 551.86Z" fill="#161818"/>
<path d="M209.461 552.029C207.04 552.128 204.648 552.15 202.297 552.104L216.755 555.299L220.138 553.959L214.8 552.994L209.461 552.029Z" fill="#2E3233"/>
<path d="M246.373 548.839L160.27 582.684L160.178 588.021L246.927 552.104C246.762 550.903 246.578 549.81 246.373 548.839Z" fill="#161818"/>
<path d="M246.927 552.104L160.178 588.021L160.078 593.779L247.194 554.316C247.112 553.543 247.023 552.805 246.927 552.104Z" fill="#161818"/>
<path d="M159.987 599.054L159.918 603.048L246.646 628.327C246.703 627.072 246.76 625.807 246.816 624.536L230.113 619.634L210.534 613.888L199.347 610.605L187.476 607.121L178.292 604.426L159.987 599.054Z" fill="#161818"/>
<path d="M159.833 607.964L246.432 632.962C246.452 632.53 246.472 632.097 246.492 631.662L246.549 630.434L159.875 605.506L159.833 607.964Z" fill="#161818"/>
<path d="M246.144 639.001L159.748 612.879L159.674 617.137L162.231 617.893L164.788 618.649L166.473 619.147L168.119 619.634L169.705 620.103L171.671 620.684L174.982 621.679L178.292 622.673L180.522 623.343L183.531 624.247L186.422 625.116L189.372 626.002L192.603 626.973L195.554 627.859L198.504 628.746L202.253 629.872L204.123 630.434L206.511 630.986L209.742 631.941L213.194 632.962L216.519 633.945L221.122 635.306L225.055 636.469L228.005 637.341L232.29 638.608L236.575 639.875L240.508 641.038L245.967 642.652C246.025 641.453 246.084 640.235 246.144 639.001Z" fill="#161818"/>
<path d="M245.836 645.321L158.926 660.348L158.887 662.595L245.692 648.27L245.836 645.321Z" fill="#161818"/>
<path d="M245.603 650.096L158.844 665.123L158.815 666.808L245.514 651.921C245.543 651.32 245.573 650.711 245.603 650.096Z" fill="#161818"/>
<path d="M244.664 674.155C244.664 673.794 244.666 673.405 244.672 672.987L158.737 671.302L158.712 672.729L244.664 674.155Z" fill="#161818"/>
<path d="M158.78 668.774L158.754 670.319L244.703 671.302C244.715 670.771 244.731 670.209 244.749 669.617L243.012 669.6L239.806 669.568L237.277 669.543L235.732 669.528L233.625 669.508L231.236 669.484L229.41 669.466L227.109 669.444L225.196 669.425L223.51 669.409L222.246 669.396L220.279 669.377L218.312 669.358L215.924 669.334L213.816 669.314L211.569 669.292L209.883 669.275L208.478 669.261L207.073 669.247L205.387 669.231L203.561 669.213L202.156 669.199L199.768 669.176L197.801 669.156L196.256 669.141L192.814 669.108L189.372 669.074L186.422 669.045L182.91 669.01L175.481 668.938L169.705 668.881L158.78 668.774Z" fill="#161818"/>
<path d="M247.754 561.759C247.693 560.556 247.623 559.399 247.544 558.292L243.324 560.257L247.754 561.759Z" fill="#2E3233"/>
<path d="M239.104 562.222L247.856 564.006C247.825 563.241 247.791 562.491 247.754 561.759L243.324 560.257L239.104 562.222Z" fill="#161818"/>
<path d="M247.935 566.253C247.912 565.49 247.885 564.741 247.856 564.006L239.104 562.222L236.375 563.492L247.935 566.253Z" fill="#2E3233"/>
<path d="M247.993 568.36C247.976 567.646 247.957 566.944 247.935 566.253L236.375 563.492L233.906 564.642L247.993 568.36Z" fill="#161818"/>
<path d="M248.048 571.168C248.041 570.711 248.033 570.258 248.024 569.808L231.953 565.551L229.27 566.8L248.048 571.168Z" fill="#161818"/>
<path d="M248.092 575.522C248.087 574.636 248.081 573.761 248.071 572.898L227.303 567.716L223.931 569.285L248.092 575.522Z" fill="#161818"/>
<path d="M248.096 579.033L221.262 570.528L218.378 571.871L248.08 582.292C248.088 581.192 248.094 580.106 248.096 579.033Z" fill="#161818"/>
<path d="M248.08 582.292L218.378 571.871L214.456 573.696L248.048 585.384C248.061 584.344 248.072 583.312 248.08 582.292Z" fill="#161818"/>
<path d="M248.024 587.11L210.534 575.522L208.338 576.545L247.973 590.128C247.993 589.115 248.01 588.108 248.024 587.11Z" fill="#161818"/>
<path d="M247.856 595.518L204.802 578.19L201.484 579.735L247.776 598.554C247.804 597.538 247.831 596.526 247.856 595.518Z" fill="#161818"/>
<path d="M247.712 600.801L198.785 580.992L196.537 582.038L247.607 604.172C247.626 603.577 247.645 602.983 247.663 602.39C247.676 601.987 247.688 601.584 247.7 601.181L247.712 600.801Z" fill="#161818"/>
<path d="M247.508 607.121L194.711 582.889L192.603 583.87L247.429 609.368C247.456 608.619 247.482 607.87 247.508 607.121Z" fill="#161818"/>
<path d="M247.341 611.755L189.653 585.243L186.984 586.486L247.255 614.003C247.284 613.254 247.313 612.505 247.341 611.755Z" fill="#161818"/>
<path d="M247.166 616.25L184.455 587.663L181.927 588.84L247.08 618.356C247.109 617.655 247.137 616.953 247.166 616.25Z" fill="#161818"/>
<path d="M247.08 618.356L181.927 588.84L179.679 589.886L246.968 621.024C247.006 620.137 247.043 619.248 247.08 618.356Z" fill="#161818"/>
<path d="M246.816 624.536C246.838 624.022 246.861 623.507 246.883 622.991L177.291 590.998L175.058 592.038L230.113 619.634L246.816 624.536Z" fill="#161818"/>
<path d="M169.705 594.53L199.347 610.605L210.534 613.888L172.825 593.077L169.705 594.53Z" fill="#161818"/>
<path d="M164.469 596.967L178.292 604.426L187.476 607.121L167.582 595.518L164.469 596.967Z" fill="#161818"/>
<path d="M159.521 626.002L164.788 618.649L162.231 617.893L159.576 622.818L159.521 626.002Z" fill="#161818"/>
<path d="M159.454 629.872L166.473 619.147L164.788 618.649L159.521 626.002L159.454 629.872Z" fill="#161818"/>
<path d="M159.302 638.608L169.705 620.103L168.119 619.634L159.371 634.647L159.302 638.608Z" fill="#161818"/>
<path d="M174.982 621.679L171.671 620.684L160.573 640.577L162.821 640.632L174.982 621.679Z" fill="#161818"/>
<path d="M167.457 640.745L180.522 623.343L178.292 622.673L164.788 640.68L167.457 640.745Z" fill="#161818"/>
<path d="M172.514 640.868L186.422 625.116L183.531 624.247L169.705 640.799L172.514 640.868Z" fill="#161818"/>
<path d="M178.292 641.008L192.603 626.973L189.372 626.002L175.043 640.929L178.292 641.008Z" fill="#161818"/>
<path d="M184.034 641.147L198.504 628.746L195.554 627.859L181.084 641.076L184.034 641.147Z" fill="#161818"/>
<path d="M193.306 641.373L204.123 630.434L202.253 629.872L187.476 641.231L193.306 641.373Z" fill="#161818"/>
<path d="M196.958 641.461L206.511 630.986L204.123 630.434L193.306 641.373L196.958 641.461Z" fill="#161818"/>
<path d="M209.742 641.772L221.122 635.306L216.519 633.945L205.809 641.676L209.742 641.772Z" fill="#161818"/>
<path d="M228.005 637.341L225.055 636.469L214.659 641.892L216.907 641.946L228.005 637.341Z" fill="#161818"/>
<path d="M225.055 642.144L236.575 639.875L232.29 638.608L221.122 642.049L225.055 642.144Z" fill="#161818"/>
<path d="M245.967 642.652L236.575 642.424L225.055 642.144L240.779 643.54L245.967 642.652Z" fill="#161818"/>
<path d="M225.055 642.144L221.122 642.049L216.907 641.946L235.591 644.428L240.779 643.54L225.055 642.144Z" fill="#161818"/>
<path d="M199.909 641.533L196.958 641.461L193.306 641.373L187.476 641.231L223.65 646.471L226.32 646.014L199.909 641.533Z" fill="#161818"/>
<path d="M181.084 641.076L178.292 641.008L175.043 640.929L213.139 648.27L220.138 647.072L181.084 641.076Z" fill="#161818"/>
<path d="M169.705 640.799L167.457 640.745L164.788 640.68L162.821 640.632L160.573 640.577L159.269 640.546L202.471 650.096L207.354 649.26L169.705 640.799Z" fill="#161818"/>
<path d="M198.992 650.691L159.246 641.892L159.211 643.916L194.289 651.496L198.992 650.691Z" fill="#161818"/>
<path d="M189.857 652.254L159.172 646.163L159.135 648.27L185.298 653.034L189.857 652.254Z" fill="#161818"/>
<path d="M185.298 653.034L159.135 648.27L159.072 651.921L177.15 654.429L185.298 653.034Z" fill="#161818"/>
<path d="M164.788 667.771L158.78 668.774L169.705 668.881L164.788 667.771Z" fill="#161818"/>
<path d="M169.705 666.95L175.481 668.938L182.91 669.01L173.357 666.34L169.705 666.95Z" fill="#161818"/>
<path d="M187.476 663.982L196.256 669.141L197.801 669.156L189.267 663.683L187.476 663.982Z" fill="#161818"/>
<path d="M245.259 657.258L240.779 655.08L238.401 655.477L245.2 658.522L245.221 658.07L245.259 657.258Z" fill="#161818"/>
<path d="M245.2 658.522L238.401 655.477L236.575 655.782L245.104 660.628C245.134 659.943 245.167 659.24 245.2 658.522Z" fill="#161818"/>
<path d="M244.993 663.156L232.29 656.498L230.534 656.791L244.922 664.842C244.944 664.295 244.968 663.733 244.993 663.156Z" fill="#161818"/>
<path d="M244.749 669.617C244.768 668.994 244.79 668.338 244.814 667.651L227.303 657.331L225.477 657.636L244.749 669.617Z" fill="#161818"/>
<path d="M243.012 669.6L222.948 658.058L221.543 658.293L239.806 669.568L243.012 669.6Z" fill="#161818"/>
<path d="M235.732 669.528L218.312 658.832L216.907 659.067L233.625 669.508L235.732 669.528Z" fill="#161818"/>
<path d="M231.236 669.484L215.502 659.302L214.284 659.505L229.41 669.466L231.236 669.484Z" fill="#161818"/>
<path d="M227.109 669.444L212.602 659.786L211.147 660.029L225.196 669.425L227.109 669.444Z" fill="#161818"/>
<path d="M225.196 669.425L211.147 660.029L209.602 660.287L223.51 669.409L225.196 669.425Z" fill="#161818"/>
<path d="M220.279 669.377L206.371 660.826L204.966 661.061L218.312 669.358L220.279 669.377Z" fill="#161818"/>
<path d="M213.816 669.314L202.156 661.53L201.032 661.718L211.569 669.292L213.816 669.314Z" fill="#161818"/>
<path d="M208.478 669.261L197.801 662.258L196.256 662.516L207.073 669.247L208.478 669.261Z" fill="#161818"/>
<path d="M203.561 669.213L193.587 662.961L192.182 663.196L202.156 669.199L203.561 669.213Z" fill="#161818"/>
<path d="M202.156 669.199L192.182 663.196L191.058 663.384L199.768 669.176L202.156 669.199Z" fill="#161818"/>
<path d="M238.963 676.132L236.153 677.698C237.809 677.085 239.476 676.424 241.155 675.712C240.594 675.874 239.857 676.014 238.963 676.132Z" fill="#161818"/>
<path d="M236.575 676.371L233.625 678.599C234.464 678.311 235.307 678.011 236.153 677.698L238.963 676.132C238.261 676.224 237.462 676.304 236.575 676.371Z" fill="#161818"/>
<path d="M230.534 679.609L234.046 676.52C233.334 676.552 232.584 676.578 231.798 676.599L228.286 680.28C229.033 680.066 229.782 679.842 230.534 679.609Z" fill="#161818"/>
<path d="M226.32 680.825L229.41 676.647C229.042 676.652 228.667 676.656 228.286 676.659L222.948 681.665C224.064 681.406 225.188 681.126 226.32 680.825Z" fill="#161818"/>
<path d="M218.593 682.579L224.493 676.663C223.986 676.66 223.47 676.656 222.948 676.651L215.924 683.044C216.808 682.902 217.697 682.747 218.593 682.579Z" fill="#161818"/>
<path d="M214.284 683.294L219.376 676.599C218.794 676.589 218.205 676.577 217.61 676.563L211.569 683.648C212.467 683.543 213.372 683.425 214.284 683.294Z" fill="#161818"/>
<path d="M209.04 683.912L214.94 676.498C214.291 676.48 213.635 676.461 212.974 676.442L207.073 684.073C207.725 684.026 208.38 683.972 209.04 683.912Z" fill="#161818"/>
<path d="M205.387 684.179L210.585 676.366C209.99 676.346 209.392 676.325 208.789 676.303L208.478 676.292L200.471 684.328C202.08 684.319 203.72 684.271 205.387 684.179Z" fill="#161818"/>
<path d="M196.958 684.283L206.371 676.213C205.256 676.17 204.131 676.124 202.999 676.076L194.289 684.165C195.168 684.216 196.058 684.256 196.958 684.283Z" fill="#161818"/>
<path d="M158.7 673.442L158.687 674.155C158.857 674.263 159.032 674.372 159.211 674.481L161.837 673.673C160.754 673.594 159.706 673.517 158.7 673.442Z" fill="#161818"/>
<path d="M167.176 674.049L162.341 676.213C162.854 676.472 163.389 676.731 163.945 676.989L170.015 674.241C169.052 674.177 168.105 674.113 167.176 674.049Z" fill="#161818"/>
<path d="M172.233 674.388L165.631 677.741C166.263 678.011 166.919 678.28 167.597 678.545L174.621 674.542C173.817 674.491 173.021 674.44 172.233 674.388Z" fill="#161818"/>
<path d="M177.15 674.702L170.547 679.626C171.098 679.814 171.66 679.999 172.233 680.181L178.976 674.815C178.364 674.777 177.755 674.74 177.15 674.702Z" fill="#161818"/>
<path d="M178.976 674.815L172.233 680.181C172.802 680.362 173.381 680.538 173.973 680.711L180.522 674.908C180.005 674.877 179.489 674.846 178.976 674.815Z" fill="#161818"/>
<path d="M180.522 682.348L186.844 675.275C186.186 675.238 185.53 675.201 184.877 675.164L177.712 681.712C178.627 681.935 179.564 682.148 180.522 682.348Z" fill="#161818"/>
<path d="M186.422 683.382L192.814 675.596C191.827 675.545 190.841 675.493 189.857 675.44L182.91 682.815C184.054 683.022 185.225 683.212 186.422 683.382Z" fill="#161818"/>
<path d="M191.62 683.973L199.487 675.921C198.413 675.872 197.336 675.821 196.256 675.768L188.81 683.69C189.733 683.797 190.67 683.891 191.62 683.973Z" fill="#161818"/>
<path d="M247.194 554.316L160.078 593.779L159.987 599.054L164.469 596.967L167.582 595.518L169.705 594.53L172.825 593.077L175.058 592.038L177.291 590.998L179.679 589.886L181.927 588.84L184.455 587.663L186.984 586.486L189.653 585.243L192.603 583.87L194.711 582.889L196.537 582.038L198.785 580.992L201.484 579.735L204.802 578.19L208.338 576.545L210.534 575.522L214.456 573.696L218.378 571.871L221.262 570.528L223.931 569.285L227.303 567.716L229.27 566.8L231.953 565.551L233.906 564.642L236.375 563.492L239.104 562.222L243.324 560.257L247.544 558.292C247.443 556.883 247.327 555.554 247.194 554.316Z" fill="#2E3233"/>
<path d="M248.024 569.808C248.015 569.321 248.005 568.838 247.993 568.36L233.906 564.642L231.953 565.551L248.024 569.808Z" fill="#2E3233"/>
<path d="M248.071 572.898C248.065 572.316 248.057 571.739 248.048 571.168L229.27 566.8L227.303 567.716L248.071 572.898Z" fill="#2E3233"/>
<path d="M248.096 579.033C248.099 577.845 248.098 576.674 248.092 575.522L223.931 569.285L221.262 570.528L248.096 579.033Z" fill="#2E3233"/>
<path d="M210.534 575.522L248.024 587.11C248.033 586.532 248.041 585.957 248.048 585.384L214.456 573.696L210.534 575.522Z" fill="#2E3233"/>
<path d="M247.973 590.128L208.338 576.545L204.802 578.19L247.856 595.518C247.901 593.704 247.94 591.905 247.973 590.128Z" fill="#2E3233"/>
<path d="M247.776 598.554L201.484 579.735L198.785 580.992L247.712 600.801C247.734 600.05 247.755 599.301 247.776 598.554Z" fill="#2E3233"/>
<path d="M247.607 604.172L196.537 582.038L194.711 582.889L247.508 607.121C247.542 606.137 247.575 605.153 247.607 604.172Z" fill="#2E3233"/>
<path d="M247.429 609.368L192.603 583.87L189.653 585.243L247.341 611.755C247.371 610.96 247.4 610.164 247.429 609.368Z" fill="#2E3233"/>
<path d="M247.255 614.003L186.984 586.486L184.455 587.663L247.166 616.25C247.196 615.501 247.225 614.752 247.255 614.003Z" fill="#2E3233"/>
<path d="M246.968 621.024L179.679 589.886L177.291 590.998L246.883 622.991C246.912 622.337 246.94 621.681 246.968 621.024Z" fill="#2E3233"/>
<path d="M172.825 593.077L210.534 613.888L230.113 619.634L175.058 592.038L172.825 593.077Z" fill="#2E3233"/>
<path d="M167.582 595.518L187.476 607.121L199.347 610.605L169.705 594.53L167.582 595.518Z" fill="#2E3233"/>
<path d="M164.469 596.967L159.987 599.054L178.292 604.426L164.469 596.967Z" fill="#2E3233"/>
<path d="M246.646 628.327L159.918 603.048L159.875 605.506L246.549 630.434C246.582 629.735 246.614 629.033 246.646 628.327Z" fill="#2E3233"/>
<path d="M246.432 632.962L159.833 607.964L159.79 610.421L246.299 635.771C246.343 634.842 246.387 633.905 246.432 632.962Z" fill="#2E3233"/>
<path d="M159.674 617.137L159.631 619.634L159.576 622.818L162.231 617.893L159.674 617.137Z" fill="#2E3233"/>
<path d="M159.748 612.879L246.144 639.001C246.195 637.936 246.247 636.858 246.299 635.771L159.79 610.421L159.748 612.879Z" fill="#2E3233"/>
<path d="M159.371 634.647L168.119 619.634L166.473 619.147L159.454 629.872L159.371 634.647Z" fill="#2E3233"/>
<path d="M245.967 642.652L240.508 641.038L236.575 642.424L245.967 642.652Z" fill="#2E3233"/>
<path d="M236.575 642.424L240.508 641.038L236.575 639.875L225.055 642.144L236.575 642.424Z" fill="#2E3233"/>
<path d="M232.29 638.608L228.005 637.341L216.907 641.946L221.122 642.049L232.29 638.608Z" fill="#2E3233"/>
<path d="M214.659 641.892L225.055 636.469L221.122 635.306L209.742 641.772L214.659 641.892Z" fill="#2E3233"/>
<path d="M205.809 641.676L216.519 633.945L213.194 632.962L202.859 641.605L205.809 641.676Z" fill="#2E3233"/>
<path d="M202.859 641.605L213.194 632.962L209.742 631.941L199.909 641.533L202.859 641.605Z" fill="#2E3233"/>
<path d="M199.909 641.533L209.742 631.941L206.511 630.986L196.958 641.461L199.909 641.533Z" fill="#2E3233"/>
<path d="M187.476 641.231L202.253 629.872L198.504 628.746L184.034 641.147L187.476 641.231Z" fill="#2E3233"/>
<path d="M181.084 641.076L195.554 627.859L192.603 626.973L178.292 641.008L181.084 641.076Z" fill="#2E3233"/>
<path d="M175.043 640.929L189.372 626.002L186.422 625.116L172.514 640.868L175.043 640.929Z" fill="#2E3233"/>
<path d="M169.705 640.799L183.531 624.247L180.522 623.343L167.457 640.745L169.705 640.799Z" fill="#2E3233"/>
<path d="M164.788 640.68L178.292 622.673L174.982 621.679L162.821 640.632L164.788 640.68Z" fill="#2E3233"/>
<path d="M159.269 640.546L160.573 640.577L171.671 620.684L169.705 620.103L159.302 638.608L159.269 640.546Z" fill="#2E3233"/>
<path d="M159.023 654.73L158.975 657.539L169.268 655.778L159.023 654.73Z" fill="#2E3233"/>
<path d="M158.975 657.539L158.926 660.348L245.836 645.321C245.879 644.442 245.923 643.552 245.967 642.652L240.779 643.54L235.591 644.428L231.236 645.173L226.32 646.014L223.65 646.471L220.138 647.072L213.139 648.27L207.354 649.26L202.471 650.096L198.992 650.691L194.289 651.496L189.857 652.254L185.298 653.034L177.15 654.429L169.268 655.778L158.975 657.539Z" fill="#2E3233"/>
<path d="M245.692 648.27L158.887 662.595L158.844 665.123L245.603 650.096L245.692 648.27Z" fill="#2E3233"/>
<path d="M245.514 651.921L158.815 666.808L158.78 668.774L164.788 667.771L169.705 666.95L173.357 666.34L180.522 665.143L183.531 664.641L185.503 664.311L187.476 663.982L189.267 663.683L191.058 663.384L192.182 663.196L193.587 662.961L194.711 662.774L196.256 662.516L197.801 662.258L199.487 661.976L201.032 661.718L202.156 661.53L203.561 661.296L204.966 661.061L206.371 660.826L208.057 660.545L209.602 660.287L211.147 660.029L212.602 659.786L214.284 659.505L215.502 659.302L216.907 659.067L218.312 658.832L219.717 658.598L221.543 658.293L222.948 658.058L225.477 657.636L227.303 657.331L230.534 656.791L232.29 656.498L234.046 656.205L236.575 655.782L238.401 655.477L240.779 655.08L245.399 654.309C245.436 653.527 245.475 652.731 245.514 651.921Z" fill="#2E3233"/>
<path d="M244.703 671.302L158.754 670.319L158.737 671.302L244.672 672.987C244.678 672.468 244.689 671.905 244.703 671.302Z" fill="#2E3233"/>
<path d="M242.135 675.291C242.975 674.925 243.818 674.547 244.664 674.155L158.712 672.729L158.7 673.442C159.706 673.517 160.754 673.594 161.837 673.673C162.794 673.742 163.778 673.812 164.788 673.883C165.569 673.938 166.366 673.994 167.176 674.049C168.105 674.113 169.052 674.177 170.015 674.241C170.745 674.29 171.485 674.339 172.233 674.388C173.021 674.44 173.817 674.491 174.621 674.542C175.456 674.596 176.299 674.649 177.15 674.702C177.755 674.74 178.364 674.777 178.976 674.815C179.489 674.846 180.005 674.877 180.522 674.908C181.313 674.956 182.11 675.003 182.91 675.05C183.563 675.088 184.219 675.126 184.877 675.164C185.53 675.201 186.186 675.238 186.844 675.275C187.845 675.331 188.85 675.386 189.857 675.44C190.841 675.493 191.827 675.545 192.814 675.596C193.962 675.655 195.11 675.712 196.256 675.768C197.336 675.821 198.413 675.872 199.487 675.921C200.663 675.975 201.835 676.027 202.999 676.076C204.131 676.124 205.256 676.17 206.371 676.213C207.077 676.24 207.78 676.267 208.478 676.292L208.789 676.303C209.392 676.325 209.99 676.346 210.585 676.366C211.389 676.392 212.185 676.418 212.974 676.442C213.635 676.461 214.291 676.48 214.94 676.498C215.843 676.522 216.733 676.544 217.61 676.563C218.205 676.577 218.794 676.589 219.376 676.599C220.599 676.622 221.791 676.64 222.948 676.651C223.47 676.656 223.986 676.66 224.493 676.663C225.017 676.666 225.532 676.668 226.039 676.668C226.808 676.668 227.558 676.665 228.286 676.659C228.667 676.656 229.042 676.652 229.41 676.647C230.238 676.636 231.035 676.62 231.798 676.599C232.584 676.578 233.334 676.552 234.046 676.52C234.953 676.479 235.798 676.43 236.575 676.371C237.462 676.304 238.261 676.224 238.963 676.132C239.857 676.014 240.594 675.874 241.155 675.712C241.481 675.573 241.808 675.433 242.135 675.291Z" fill="#2E3233"/>
<path d="M177.15 654.429L159.072 651.921L159.023 654.73L169.268 655.778L177.15 654.429Z" fill="#2E3233"/>
<path d="M194.289 651.496L159.211 643.916L159.172 646.163L189.857 652.254L194.289 651.496Z" fill="#2E3233"/>
<path d="M202.471 650.096L159.269 640.546L159.246 641.892L198.992 650.691L202.471 650.096Z" fill="#2E3233"/>
<path d="M175.043 640.929L172.514 640.868L169.705 640.799L207.354 649.26L213.139 648.27L175.043 640.929Z" fill="#2E3233"/>
<path d="M187.476 641.231L184.034 641.147L181.084 641.076L220.138 647.072L223.65 646.471L187.476 641.231Z" fill="#2E3233"/>
<path d="M209.742 641.772L205.809 641.676L202.859 641.605L199.909 641.533L226.32 646.014L231.236 645.173L209.742 641.772Z" fill="#2E3233"/>
<path d="M216.907 641.946L214.659 641.892L209.742 641.772L231.236 645.173L235.591 644.428L216.907 641.946Z" fill="#2E3233"/>
<path d="M164.788 667.771L169.705 668.881L175.481 668.938L169.705 666.95L164.788 667.771Z" fill="#2E3233"/>
<path d="M173.357 666.34L182.91 669.01L186.422 669.045L180.522 665.143L173.357 666.34Z" fill="#2E3233"/>
<path d="M180.522 665.143L186.422 669.045L189.372 669.074L186.452 666.857L183.531 664.641L180.522 665.143Z" fill="#2E3233"/>
<path d="M183.531 664.641L186.452 666.857L189.372 669.074L192.814 669.108L185.503 664.311L183.531 664.641Z" fill="#2E3233"/>
<path d="M196.256 669.141L187.476 663.982L185.503 664.311L192.814 669.108L196.256 669.141Z" fill="#161818"/>
<path d="M199.768 669.176L191.058 663.384L189.267 663.683L197.801 669.156L199.768 669.176Z" fill="#2E3233"/>
<path d="M205.387 669.231L194.711 662.774L193.587 662.961L203.561 669.213L205.387 669.231Z" fill="#2E3233"/>
<path d="M207.073 669.247L196.256 662.516L194.711 662.774L205.387 669.231L207.073 669.247Z" fill="#2E3233"/>
<path d="M209.883 669.275L199.487 661.976L197.801 662.258L208.478 669.261L209.883 669.275Z" fill="#2E3233"/>
<path d="M211.569 669.292L201.032 661.718L199.487 661.976L209.883 669.275L211.569 669.292Z" fill="#2E3233"/>
<path d="M245.399 654.309L240.779 655.08L245.259 657.258C245.304 656.3 245.35 655.316 245.399 654.309Z" fill="#2E3233"/>
<path d="M245.104 660.628L236.575 655.782L234.046 656.205L245.035 662.173C245.057 661.668 245.08 661.153 245.104 660.628Z" fill="#2E3233"/>
<path d="M245.035 662.173L234.046 656.205L232.29 656.498L244.993 663.156C245.006 662.833 245.021 662.505 245.035 662.173Z" fill="#2E3233"/>
<path d="M244.922 664.842L230.534 656.791L227.303 657.331L244.814 667.651C244.846 666.765 244.882 665.828 244.922 664.842Z" fill="#2E3233"/>
<path d="M244.749 669.617L225.477 657.636L222.948 658.058L243.012 669.6L244.749 669.617Z" fill="#2E3233"/>
<path d="M239.806 669.568L221.543 658.293L219.717 658.598L237.277 669.543L239.806 669.568Z" fill="#2E3233"/>
<path d="M237.277 669.543L219.717 658.598L218.312 658.832L235.732 669.528L237.277 669.543Z" fill="#2E3233"/>
<path d="M233.625 669.508L216.907 659.067L215.502 659.302L231.236 669.484L233.625 669.508Z" fill="#2E3233"/>
<path d="M229.41 669.466L214.284 659.505L212.602 659.786L227.109 669.444L229.41 669.466Z" fill="#2E3233"/>
<path d="M223.51 669.409L209.602 660.287L208.057 660.545L222.246 669.396L223.51 669.409Z" fill="#2E3233"/>
<path d="M222.246 669.396L208.057 660.545L206.371 660.826L220.279 669.377L222.246 669.396Z" fill="#2E3233"/>
<path d="M218.312 669.358L204.966 661.061L203.561 661.296L215.924 669.334L218.312 669.358Z" fill="#2E3233"/>
<path d="M215.924 669.334L203.561 661.296L202.156 661.53L213.816 669.314L215.924 669.334Z" fill="#2E3233"/>
<path d="M161.837 673.673L159.211 674.481C159.64 674.743 160.093 675.008 160.572 675.275L164.788 673.883C163.778 673.812 162.794 673.742 161.837 673.673Z" fill="#2E3233"/>
<path d="M164.788 673.883L160.572 675.275C161.129 675.586 161.719 675.899 162.341 676.213L167.176 674.049C166.366 673.994 165.569 673.938 164.788 673.883Z" fill="#2E3233"/>
<path d="M170.015 674.241L163.945 676.989C164.487 677.241 165.049 677.491 165.631 677.741L172.233 674.388C171.485 674.339 170.745 674.29 170.015 674.241Z" fill="#2E3233"/>
<path d="M174.621 674.542L167.597 678.545C168.538 678.913 169.522 679.275 170.547 679.626L177.15 674.702C176.299 674.649 175.456 674.596 174.621 674.542Z" fill="#2E3233"/>
<path d="M180.522 674.908L173.973 680.711C174.467 680.856 174.97 680.998 175.481 681.137L182.91 675.05C182.11 675.003 181.313 674.956 180.522 674.908Z" fill="#2E3233"/>
<path d="M182.91 675.05L175.481 681.137C176.209 681.336 176.953 681.528 177.712 681.712L184.877 675.164C184.219 675.126 183.563 675.088 182.91 675.05Z" fill="#2E3233"/>
<path d="M182.91 682.815L189.857 675.44C188.85 675.386 187.845 675.331 186.844 675.275L180.522 682.348C181.304 682.512 182.1 682.668 182.91 682.815Z" fill="#2E3233"/>
<path d="M188.81 683.69L196.256 675.768C195.11 675.712 193.962 675.655 192.814 675.596L186.422 683.382C187.207 683.493 188.003 683.596 188.81 683.69Z" fill="#2E3233"/>
<path d="M194.289 684.165L202.999 676.076C201.835 676.027 200.663 675.975 199.487 675.921L191.62 683.973C192.498 684.049 193.388 684.113 194.289 684.165Z" fill="#2E3233"/>
<path d="M200.471 684.328L208.478 676.292C207.78 676.267 207.077 676.24 206.371 676.213L196.958 684.283C198.112 684.319 199.283 684.334 200.471 684.328Z" fill="#2E3233"/>
<path d="M207.073 684.073L212.974 676.442C212.185 676.418 211.389 676.392 210.585 676.366L205.387 684.179C205.946 684.149 206.508 684.113 207.073 684.073Z" fill="#2E3233"/>
<path d="M211.569 683.648L217.61 676.563C216.733 676.544 215.843 676.522 214.94 676.498L209.04 683.912C209.877 683.835 210.72 683.748 211.569 683.648Z" fill="#2E3233"/>
<path d="M215.924 683.044L222.948 676.651C221.791 676.64 220.599 676.622 219.376 676.599L214.284 683.294C214.828 683.215 215.375 683.132 215.924 683.044Z" fill="#2E3233"/>
<path d="M220.7 682.161L226.039 676.668C225.532 676.668 225.017 676.666 224.493 676.663L218.593 682.579C219.292 682.448 219.994 682.308 220.7 682.161Z" fill="#2E3233"/>
<path d="M222.948 681.665L228.286 676.659C227.558 676.665 226.808 676.668 226.039 676.668L220.7 682.161C221.446 682.005 222.195 681.84 222.948 681.665Z" fill="#2E3233"/>
<path d="M228.286 680.28L231.798 676.599C231.035 676.62 230.238 676.636 229.41 676.647L226.32 680.825C226.973 680.651 227.628 680.469 228.286 680.28Z" fill="#2E3233"/>
<path d="M233.625 678.599L236.575 676.371C235.798 676.43 234.953 676.479 234.046 676.52L230.534 679.609C231.559 679.291 232.589 678.954 233.625 678.599Z" fill="#2E3233"/>
<path d="M264.612 535.866C263.627 535.586 262.643 535.29 261.662 534.979C261.594 535.675 261.528 536.363 261.464 537.042C275.641 541.629 310.795 548.277 337.998 538.165L340.333 534.979C339.425 535.269 338.416 535.566 337.314 535.866C323.044 539.746 293.134 543.99 264.612 535.866Z" fill="#FFF1CC"/>
<path d="M337.998 538.165C310.795 548.277 275.641 541.629 261.464 537.042C261.406 537.657 261.349 538.266 261.293 538.867C276.19 545.247 311.687 554.994 334.497 542.94L337.998 538.165Z" fill="white"/>
<path d="M260.326 550.243L328.732 550.804L330.173 548.839C320.918 551.872 279.961 548.417 260.64 546.311C260.527 547.668 260.423 548.979 260.326 550.243Z" fill="white"/>
<path d="M340.498 536.62L259.133 648.309L261.662 648.362L340.812 539.85C340.707 538.746 340.602 537.669 340.498 536.62Z" fill="white"/>
<path d="M341.101 542.94L264.612 648.424L269.308 648.523L341.49 547.294C341.361 545.807 341.231 544.354 341.101 542.94Z" fill="white"/>
<path d="M328.732 550.804L260.326 550.243C260.226 551.531 260.135 552.77 260.05 553.959H326.419L328.732 550.804Z" fill="white"/>
<path d="M259.856 556.796C259.822 557.305 259.79 557.804 259.759 558.292C259.716 558.968 259.676 559.623 259.638 560.257L322.554 559.231L324.34 556.796H259.856Z" fill="white"/>
<path d="M320.362 562.222L259.551 561.759C259.494 562.781 259.444 563.742 259.4 564.642L317.921 565.551L320.362 562.222Z" fill="white"/>
<path d="M259.19 569.808C259.15 571.138 259.133 572.171 259.133 572.898L311.95 573.696L314.273 570.528L259.19 569.808Z" fill="white"/>
<path d="M344.014 650.096L295.016 649.064L343.587 654.309C343.743 652.948 343.885 651.542 344.014 650.096Z" fill="white"/>
<path d="M273.522 648.612L269.308 648.523L342.439 662.173C342.725 660.626 342.985 658.984 343.219 657.258L273.522 648.612Z" fill="white"/>
<path d="M338.647 674.155L257.281 648.27L266.357 651.517L273.522 654.08L281.53 656.944L289.116 659.658L297.404 662.623L304.148 665.036L311.457 667.651L316.953 669.617L323.675 672.021L329.997 674.283L338.647 674.155Z" fill="white"/>
<path d="M257.281 648.27L338.647 674.155C339.065 673.441 339.459 672.632 339.831 671.733L259.133 648.309L257.281 648.27Z" fill="white"/>
<path d="M273.522 654.08L257.815 654.309C257.962 655.738 258.123 657.143 258.299 658.522L281.53 656.944L273.522 654.08Z" fill="white"/>
<path d="M289.116 659.658L258.808 662.173C258.946 663.077 259.091 663.967 259.243 664.842L297.404 662.623L289.116 659.658Z" fill="white"/>
<path d="M259.767 667.651H311.457L304.148 665.036L259.444 665.965C259.548 666.534 259.656 667.096 259.767 667.651Z" fill="white"/>
<path d="M261.003 672.987L323.675 672.021L316.953 669.617H260.182C260.44 670.777 260.713 671.902 261.003 672.987Z" fill="white"/>
<path d="M261.662 675.291C262.58 675.739 263.565 676.196 264.612 676.656L335.135 677.023C336.346 676.146 337.518 675.192 338.647 674.155L329.997 674.283L261.662 675.291Z" fill="white"/>
<path d="M335.135 677.023L264.612 676.656C265.438 677.02 266.302 677.385 267.2 677.749C285.288 680.333 323.676 684.153 332.525 678.761C333.413 678.219 334.283 677.641 335.135 677.023Z" fill="white"/>
<path d="M342.272 556.796H337.198L335.509 559.231H342.459C342.397 558.413 342.335 557.601 342.272 556.796Z" fill="white"/>
<path d="M341.998 553.333C341.913 552.289 341.828 551.259 341.743 550.243L339.6 553.333H341.998Z" fill="white"/>
<path d="M341.998 553.333H339.6L338.236 555.299H342.155C342.103 554.638 342.05 553.983 341.998 553.333Z" fill="white"/>
<path d="M342.68 562.222H333.435L331.126 565.551H342.917C342.839 564.432 342.76 563.322 342.68 562.222Z" fill="white"/>
<path d="M343.25 570.528H327.675L325.477 573.696H343.45C343.385 572.634 343.318 571.578 343.25 570.528Z" fill="white"/>
<path d="M343.76 578.937C343.712 578.092 343.664 577.249 343.614 576.409H323.596L321.843 578.937H332.801H343.76Z" fill="white"/>
<path d="M309.961 576.409L258.864 575.522C258.788 576.293 258.712 577.089 258.636 577.909L308.108 578.937L309.961 576.409Z" fill="white"/>
<path d="M343.944 582.292H319.516L317.371 585.384H344.103C344.051 584.351 343.998 583.32 343.944 582.292Z" fill="white"/>
<path d="M305.649 582.292H258.253C258.17 583.296 258.088 584.328 258.007 585.384H303.382L305.649 582.292Z" fill="white"/>
<path d="M300.831 588.864L257.793 588.302C257.751 588.904 257.709 589.513 257.668 590.128L298.95 591.43L300.831 588.864Z" fill="white"/>
<path d="M344.27 588.864H314.958L313.179 591.43H344.384C344.347 590.574 344.309 589.718 344.27 588.864Z" fill="white"/>
<path d="M295.953 595.518L257.281 596.426C257.242 597.13 257.204 597.839 257.167 598.554H293.727L295.953 595.518Z" fill="white"/>
<path d="M344.551 595.518H310.343L308.238 598.554H344.662C344.627 597.542 344.59 596.53 344.551 595.518Z" fill="white"/>
<path d="M290.38 603.12L256.982 602.39C256.956 602.981 256.93 603.575 256.905 604.172H289.609L290.38 603.12Z" fill="white"/>
<path d="M344.737 600.801H306.68L305.072 603.12L344.818 603.47C344.792 602.581 344.766 601.692 344.737 600.801Z" fill="#FFF1CC"/>
<path d="M344.818 603.47L305.072 603.12L304.342 604.172L344.856 604.874C344.844 604.406 344.831 603.938 344.818 603.47Z" fill="white"/>
<path d="M289.609 604.172H256.905C256.865 605.148 256.827 606.131 256.792 607.121H287.447L289.609 604.172Z" fill="white"/>
<path d="M344.856 604.874L304.342 604.172L302.297 607.121L344.928 607.823C344.906 606.842 344.882 605.859 344.856 604.874Z" fill="white"/>
<path d="M285.8 609.368L271.25 609.612L256.701 609.856C256.671 610.812 256.645 611.773 256.621 612.739L284.049 611.755L285.8 609.368Z" fill="white"/>
<path d="M345.003 611.659C344.996 611.224 344.988 610.788 344.98 610.351L300.738 609.368L299.083 611.755H345.004L345.003 611.659Z" fill="white"/>
<path d="M281.67 615.001L256.556 615.688C256.539 616.575 256.525 617.464 256.513 618.356H279.21L281.67 615.001Z" fill="white"/>
<path d="M345.069 617.092L296.832 615.001L294.505 618.356L345.084 620.041C345.081 619.063 345.077 618.08 345.069 617.092Z" fill="white"/>
<path d="M277.254 621.024H256.485C256.476 622.193 256.472 623.364 256.473 624.536L275.092 623.974L277.254 621.024Z" fill="white"/>
<path d="M345.085 621.024H292.654L290.609 623.974L345.074 624.676C345.082 623.468 345.086 622.25 345.085 621.024Z" fill="white"/>
<path d="M257.025 644.428C257.101 645.72 257.187 647.002 257.281 648.27L260.098 644.428H257.025Z" fill="white"/>
<path d="M273.522 648.612L295.016 649.064L344.014 650.096C344.106 649.069 344.191 648.022 344.27 646.956L275.93 645.14L273.522 648.612Z" fill="white"/>
<path d="M262.12 641.669L256.844 641.038C256.898 642.175 256.958 643.306 257.025 644.428H260.098L262.12 641.669Z" fill="white"/>
<path d="M344.425 644.708L278.337 641.669L275.93 645.14L344.27 646.956C344.325 646.216 344.376 645.467 344.425 644.708Z" fill="white"/>
<path d="M268.888 632.437H256.556C256.579 633.551 256.607 634.663 256.641 635.771H266.444L268.888 632.437Z" fill="white"/>
<path d="M344.893 634.647L284.74 632.437L282.428 635.771L344.763 638.27C344.812 637.078 344.855 635.87 344.893 634.647Z" fill="white"/>
<path d="M334.497 542.94C311.687 554.994 276.19 545.247 261.293 538.867C261.164 540.263 261.042 541.621 260.926 542.94C260.826 544.093 260.73 545.217 260.64 546.311C279.961 548.417 320.918 551.872 330.173 548.839L334.497 542.94Z" fill="#FFF1CC"/>
<path d="M340.812 539.85L261.662 648.362L264.612 648.424L341.101 542.94C341.005 541.889 340.908 540.858 340.812 539.85Z" fill="#FFF1CC"/>
<path d="M340.498 536.62C340.443 536.065 340.388 535.518 340.333 534.979L337.998 538.165L334.497 542.94L330.173 548.839L328.732 550.804L326.419 553.959L324.34 556.796L322.554 559.231L320.362 562.222L317.921 565.551L316.335 567.716L314.273 570.528L311.95 573.696L309.961 576.409L308.108 578.937L306.802 580.718L305.649 582.292L303.382 585.384L300.831 588.864L298.95 591.43L298.247 592.388L295.953 595.518L293.727 598.554L292.08 600.801L290.38 603.12L289.609 604.172L287.447 607.121L285.8 609.368L284.049 611.755L281.67 615.001L279.21 618.356L277.254 621.024L275.092 623.974L273.033 626.783L270.691 629.977L268.888 632.437L266.444 635.771L264.612 638.27L262.12 641.669L260.098 644.428L257.281 648.27L259.133 648.309L340.498 536.62Z" fill="#FFF1CC"/>
<path d="M341.49 547.294L269.308 648.523L273.522 648.612L275.93 645.14L278.337 641.669L280.695 638.27L282.428 635.771L284.74 632.437L286.445 629.977L288.661 626.783L290.609 623.974L292.654 621.024L294.505 618.356L296.832 615.001L299.083 611.755L300.738 609.368L302.297 607.121L304.342 604.172L305.072 603.12L306.68 600.801L308.238 598.554L310.343 595.518L312.514 592.388L313.179 591.43L314.958 588.864L317.371 585.384L319.516 582.292L320.607 580.718L321.843 578.937L323.596 576.409L325.477 573.696L327.675 570.528L329.625 567.716L331.126 565.551L333.435 562.222L335.509 559.231L337.198 556.796L338.236 555.299L339.6 553.333L341.743 550.243C341.659 549.246 341.575 548.262 341.49 547.294Z" fill="#FFF1CC"/>
<path d="M326.419 553.959H260.05C259.981 554.938 259.916 555.884 259.856 556.796H324.34L326.419 553.959Z" fill="#FFF1CC"/>
<path d="M259.638 560.257C259.608 560.771 259.579 561.272 259.551 561.759L320.362 562.222L322.554 559.231L259.638 560.257Z" fill="#FFF1CC"/>
<path d="M342.155 555.299H338.236L337.198 556.796H342.272L342.238 556.358C342.211 556.004 342.183 555.65 342.155 555.299Z" fill="#FFF1CC"/>
<path d="M342.459 559.231H335.509L333.435 562.222H342.68C342.607 561.216 342.533 560.219 342.459 559.231Z" fill="#FFF1CC"/>
<path d="M342.917 565.551H331.126L329.625 567.716H343.065C343.016 566.99 342.966 566.269 342.917 565.551Z" fill="#FFF1CC"/>
<path d="M343.065 567.716H329.625L327.675 570.528H343.25C343.189 569.585 343.127 568.647 343.065 567.716Z" fill="#FFF1CC"/>
<path d="M317.921 565.551L259.4 564.642C259.345 565.762 259.3 566.787 259.263 567.716H316.335L317.921 565.551Z" fill="#FFF1CC"/>
<path d="M259.263 567.716C259.233 568.479 259.209 569.177 259.19 569.808L314.273 570.528L316.335 567.716H259.263Z" fill="#FFF1CC"/>
<path d="M311.95 573.696L259.133 572.898C259.044 573.735 258.954 574.611 258.864 575.522L309.961 576.409L311.95 573.696Z" fill="#FFF1CC"/>
<path d="M343.614 576.409C343.561 575.501 343.506 574.597 343.45 573.696H325.477L323.596 576.409H343.614Z" fill="#FFF1CC"/>
<path d="M308.108 578.937L258.636 577.909C258.577 578.55 258.518 579.206 258.459 579.876L306.802 580.718L308.108 578.937Z" fill="#FFF1CC"/>
<path d="M306.802 580.718L258.459 579.876C258.39 580.662 258.321 581.468 258.253 582.292H305.649L306.802 580.718Z" fill="#FFF1CC"/>
<path d="M343.859 580.718H320.607L319.516 582.292H343.944C343.916 581.766 343.888 581.242 343.859 580.718Z" fill="#FFF1CC"/>
<path d="M343.76 578.937H332.801H321.843L320.607 580.718H343.859C343.827 580.123 343.794 579.53 343.76 578.937Z" fill="#FFF1CC"/>
<path d="M303.382 585.384H258.007C257.935 586.337 257.863 587.311 257.793 588.302L300.831 588.864L303.382 585.384Z" fill="#FFF1CC"/>
<path d="M344.103 585.384H317.371L314.958 588.864H344.27C344.216 587.702 344.161 586.542 344.103 585.384Z" fill="#FFF1CC"/>
<path d="M344.384 591.43H313.179L312.514 592.388H344.425C344.412 592.069 344.398 591.749 344.384 591.43Z" fill="#FFF1CC"/>
<path d="M298.95 591.43L257.668 590.128C257.603 591.096 257.539 592.079 257.478 593.077L298.247 592.388L298.95 591.43Z" fill="#FFF1CC"/>
<path d="M298.247 592.388L257.478 593.077C257.41 594.177 257.344 595.294 257.281 596.426L295.953 595.518L298.247 592.388Z" fill="#FFF1CC"/>
<path d="M344.425 592.388H312.514L310.343 595.518H344.551C344.511 594.474 344.469 593.431 344.425 592.388Z" fill="#FFF1CC"/>
<path d="M293.727 598.554H257.167C257.138 599.113 257.11 599.674 257.083 600.239L292.08 600.801L293.727 598.554Z" fill="#FFF1CC"/>
<path d="M257.083 600.239C257.048 600.952 257.014 601.669 256.982 602.39L290.38 603.12L292.08 600.801L257.083 600.239Z" fill="#FFF1CC"/>
<path d="M344.662 598.554H308.238L306.68 600.801H344.737C344.713 600.053 344.688 599.304 344.662 598.554Z" fill="#FFF1CC"/>
<path d="M287.447 607.121H256.792C256.759 608.028 256.729 608.94 256.701 609.856L271.25 609.612L285.8 609.368L287.447 607.121Z" fill="#FFF1CC"/>
<path d="M344.928 607.823L302.297 607.121L300.738 609.368L344.98 610.351C344.964 609.51 344.947 608.668 344.928 607.823Z" fill="#FFF1CC"/>
<path d="M345.004 611.755H299.083L296.832 615.001L345.069 617.092C345.056 615.326 345.034 613.546 345.004 611.755Z" fill="#FFF1CC"/>
<path d="M284.049 611.755L256.621 612.739C256.596 613.718 256.574 614.701 256.556 615.688L281.67 615.001L284.049 611.755Z" fill="#FFF1CC"/>
<path d="M279.21 618.356H256.513C256.501 619.244 256.492 620.134 256.485 621.024H277.254L279.21 618.356Z" fill="#FFF1CC"/>
<path d="M345.084 620.041L294.505 618.356L292.654 621.024H345.085L345.085 620.595C345.085 620.411 345.084 620.226 345.084 620.041Z" fill="#FFF1CC"/>
<path d="M275.092 623.974L256.473 624.536C256.474 625.284 256.476 626.034 256.481 626.783H273.033L275.092 623.974Z" fill="#FFF1CC"/>
<path d="M273.522 648.612L343.219 657.258C343.35 656.3 343.472 655.317 343.587 654.309L295.016 649.064L273.522 648.612Z" fill="#FFF1CC"/>
<path d="M269.308 648.523L264.612 648.424L341.202 667.651C341.66 665.993 342.071 664.161 342.439 662.173L269.308 648.523Z" fill="#FFF1CC"/>
<path d="M261.662 648.362L259.133 648.309L339.831 671.733C340.328 670.528 340.785 669.162 341.202 667.651L264.612 648.424L261.662 648.362Z" fill="#FFF1CC"/>
<path d="M257.281 648.27C257.352 649.214 257.427 650.15 257.508 651.079L266.357 651.517L257.281 648.27Z" fill="#FFF1CC"/>
<path d="M345.074 624.676L290.609 623.974L288.661 626.783L345.043 627.766C345.057 626.743 345.067 625.713 345.074 624.676Z" fill="#FFF1CC"/>
<path d="M345.043 627.766L288.661 626.783L286.445 629.977L344.98 631.334C345.006 630.156 345.027 628.966 345.043 627.766Z" fill="#FFF1CC"/>
<path d="M273.033 626.783H256.481C256.487 627.848 256.498 628.913 256.513 629.977H270.691L273.033 626.783Z" fill="#FFF1CC"/>
<path d="M344.98 631.334L286.445 629.977L284.74 632.437L344.893 634.647C344.926 633.554 344.955 632.449 344.98 631.334Z" fill="#FFF1CC"/>
<path d="M270.691 629.977H256.513C256.524 630.798 256.539 631.618 256.556 632.437H268.888L270.691 629.977Z" fill="#FFF1CC"/>
<path d="M264.612 638.27L256.701 637.569C256.742 638.732 256.79 639.888 256.844 641.038L262.12 641.669L264.612 638.27Z" fill="#FFF1CC"/>
<path d="M344.603 641.669L280.695 638.27L278.337 641.669L344.425 644.708C344.49 643.71 344.549 642.697 344.603 641.669Z" fill="#FFF1CC"/>
<path d="M344.763 638.27L282.428 635.771L280.695 638.27L344.603 641.669C344.662 640.552 344.715 639.419 344.763 638.27Z" fill="#FFF1CC"/>
<path d="M266.444 635.771H256.641C256.659 636.372 256.679 636.971 256.701 637.569L264.612 638.27L266.444 635.771Z" fill="#FFF1CC"/>
<path d="M266.357 651.517L257.508 651.079C257.603 652.167 257.705 653.244 257.815 654.309L273.522 654.08L266.357 651.517Z" fill="#FFF1CC"/>
<path d="M281.53 656.944L258.299 658.522C258.456 659.762 258.626 660.98 258.808 662.173L289.116 659.658L281.53 656.944Z" fill="#FFF1CC"/>
<path d="M297.404 662.623L259.243 664.842C259.308 665.219 259.375 665.594 259.444 665.965L304.148 665.036L297.404 662.623Z" fill="#FFF1CC"/>
<path d="M260.182 669.617H316.953L311.457 667.651H259.767C259.901 668.317 260.039 668.972 260.182 669.617Z" fill="#FFF1CC"/>
<path d="M261.662 675.291L329.997 674.283L323.675 672.021L261.003 672.987C261.214 673.776 261.434 674.545 261.662 675.291Z" fill="#FFF1CC"/>
<path d="M332.525 678.761C323.676 684.153 285.288 680.333 267.2 677.749C269.315 678.607 271.624 679.46 274.084 680.271C286.736 682.299 312.127 685.399 322.151 683.322C323.09 683.043 324.02 682.736 324.939 682.4C327.57 681.438 330.111 680.235 332.525 678.761Z" fill="#FFF1CC"/>
<path d="M322.151 683.322C306.329 688.021 287.84 684.805 274.084 680.271C286.736 682.299 312.127 685.399 322.151 683.322Z" fill="#FFF1CC"/>
<path d="M193.949 463.215C192.687 463.555 190.936 464.202 188.891 465.195C185.245 466.967 180.663 469.842 176.248 474.055C174.915 475.326 173.597 476.72 172.326 478.242C171.404 479.344 170.507 480.513 169.645 481.753C167.823 485.363 166.721 489.356 166.12 493.365C167.522 495.115 169.139 497.115 170.892 499.263C167.909 475.183 193.075 464.275 206.03 461.831C201.137 461.875 196.747 462.536 193.949 463.215Z" fill="#FFF1CC"/>
<path d="M209.461 461.906C196.311 464.791 170.487 476.667 172.387 501.089C173.066 501.917 173.761 502.761 174.469 503.617C175.358 478.527 200.977 465.626 213.676 462.312C212.267 462.111 210.855 461.98 209.461 461.906Z" fill="#FFF1CC"/>
<path d="M221.343 464.23C218.896 463.298 216.292 462.686 213.676 462.312C200.977 465.626 175.358 478.527 174.469 503.617C175.17 504.465 175.882 505.324 176.603 506.189C181.171 480.047 208.333 467.324 221.343 464.23Z" fill="#FFF1CC"/>
<path d="M226.682 467.007C212.478 470.83 183.11 484.658 179.269 509.375C179.94 510.173 180.614 510.97 181.287 511.762C181.625 510.952 181.975 510.157 182.336 509.375C182.838 508.286 183.363 507.224 183.906 506.189C184.367 505.313 184.841 504.455 185.329 503.617C186.003 502.457 186.701 501.334 187.421 500.246C188.484 498.639 189.594 497.11 190.74 495.656C191.782 494.333 192.854 493.072 193.949 491.872C195.388 490.293 196.865 488.818 198.363 487.444C199.663 486.251 200.978 485.134 202.297 484.088C204.695 482.188 207.107 480.526 209.461 479.085C216.234 474.943 222.54 472.633 226.733 471.737C226.765 470.201 226.749 468.624 226.682 467.007Z" fill="#FFF1CC"/>
<path d="M243.198 509.375C243.436 508.316 243.623 507.251 243.764 506.189C244.172 503.135 244.206 500.104 244.013 497.297C241.822 505.447 236.785 521.724 233.539 524.169C234.605 523.542 235.605 522.945 236.375 522.48C240.042 518.734 242.133 514.112 243.198 509.375Z" fill="#FFF1CC"/>
<path d="M242.135 486.949C241.812 485.718 241.112 483.894 239.964 481.753C239.141 511.561 218.349 527.073 208.057 531.103C212.45 530.671 217.16 529.952 222.195 528.89C241.26 511.808 243.432 493.812 242.135 486.949Z" fill="#FFF1CC"/>
<path d="M236.375 476.232C237.451 509.376 212.793 526.945 200.33 531.587C202.788 531.525 205.363 531.368 208.057 531.103C218.349 527.073 239.141 511.561 239.964 481.753C239.059 480.065 237.874 478.179 236.375 476.232Z" fill="#FFF1CC"/>
<path d="M233.144 472.497C231.94 471.255 230.602 470.022 229.121 468.832C233.836 504.259 207.637 521.731 193.949 526.039C195.544 527.707 196.94 529.081 198.05 530.046C212.351 522.679 239.39 500.856 233.144 472.497Z" fill="#FFF1CC"/>
<path d="M206.03 461.831C193.075 464.275 167.909 475.183 170.892 499.263C171.381 499.861 171.879 500.47 172.387 501.089C170.487 476.667 196.311 464.791 209.461 461.906C208.3 461.844 207.152 461.821 206.03 461.831Z" fill="white"/>
<path d="M226.682 467.007C225.041 465.865 223.239 464.952 221.343 464.23C208.333 467.324 181.171 480.047 176.603 506.189C177.482 507.246 178.374 508.311 179.269 509.375C183.11 484.658 212.478 470.83 226.682 467.007Z" fill="white"/>
<path d="M229.121 468.832C228.348 468.21 227.535 467.6 226.682 467.007C226.749 468.624 226.765 470.201 226.733 471.737C226.701 473.276 226.622 474.774 226.498 476.232C226.38 477.625 226.221 478.982 226.024 480.304C225.832 481.599 225.603 482.861 225.34 484.088C225.094 485.236 224.82 486.354 224.517 487.444C224.136 488.819 223.712 490.148 223.249 491.432C222.917 492.351 222.565 493.248 222.195 494.122C221.896 494.829 221.584 495.521 221.262 496.198C220.924 496.908 220.574 497.602 220.213 498.28C219.855 498.951 219.487 499.606 219.108 500.246C218.198 501.785 217.231 503.235 216.219 504.6C214.939 506.326 213.588 507.915 212.193 509.375C210.847 510.783 209.46 512.07 208.057 513.241C206.846 514.251 205.624 515.175 204.404 516.017C203.035 516.963 201.669 517.805 200.33 518.548C199.566 519.143 198.745 519.553 197.89 519.811C195.25 521.079 192.773 521.955 190.644 522.48C191.813 523.768 192.922 524.965 193.949 526.039C207.637 521.731 233.836 504.259 229.121 468.832Z" fill="white"/>
<path d="M236.375 476.232C235.427 475 234.353 473.744 233.144 472.497C239.39 500.856 212.351 522.679 198.05 530.046C199.078 530.94 199.861 531.483 200.33 531.587C212.793 526.945 237.451 509.376 236.375 476.232Z" fill="white"/>
<path d="M226.682 527.872L226.688 527.871C227.4 527.695 230.421 525.993 233.144 524.4C233.232 524.349 233.319 524.298 233.406 524.247L233.539 524.169C236.785 521.724 241.822 505.447 244.013 497.297C243.727 493.134 242.942 489.465 242.135 486.949C243.432 493.812 241.26 511.808 222.195 528.89C223.663 528.58 225.158 528.242 226.682 527.872Z" fill="white"/>
<path d="M181.927 530.046C175.521 525.39 168.526 513.575 165.829 508.249C166.021 510.255 166.286 512.106 166.581 513.729C168.8 517.364 174.402 525.58 179.058 529.363C179.98 529.607 180.936 529.836 181.927 530.046Z" fill="#FFF1CC"/>
<path d="M193.375 531.502C193.565 531.512 193.757 531.521 193.949 531.53C194.795 531.568 195.658 531.594 196.537 531.607C188.942 530.967 172.76 509.122 165.618 498.28C165.563 499.226 165.533 500.164 165.522 501.089C171.51 511.031 185.258 530.664 193.375 531.502Z" fill="#FFF1CC"/>
<path d="M165.829 495.656C173.536 506.226 190.833 528.216 198.363 531.616C199.01 531.613 199.666 531.604 200.33 531.587C199.861 531.483 199.078 530.94 198.05 530.046C196.94 529.081 195.544 527.707 193.949 526.039C192.922 524.965 191.813 523.768 190.644 522.48C188.852 520.506 186.92 518.315 184.932 516.017C183.732 514.63 182.51 513.204 181.287 511.762C180.614 510.97 179.94 510.173 179.269 509.375C178.374 508.311 177.482 507.246 176.603 506.189C175.882 505.324 175.17 504.465 174.469 503.617C173.761 502.761 173.066 501.917 172.387 501.089C171.879 500.47 171.381 499.861 170.892 499.263C169.139 497.115 167.522 495.115 166.12 493.365C166.005 494.129 165.909 494.894 165.829 495.656Z" fill="#FFF1CC"/>
<path d="M226.733 471.737C222.54 472.633 216.234 474.943 209.461 479.085C213.322 477.76 222.135 475.334 226.498 476.232C226.622 474.774 226.701 473.276 226.733 471.737Z" fill="white"/>
<path d="M226.498 476.232C222.135 475.334 213.322 477.76 209.461 479.085C207.107 480.526 204.695 482.188 202.297 484.088C206.806 481.891 217.865 478.057 226.024 480.304C226.221 478.982 226.38 477.625 226.498 476.232Z" fill="#FFF1CC"/>
<path d="M225.34 484.088C217.223 480.262 203.973 484.731 198.363 487.444C196.865 488.818 195.388 490.293 193.949 491.872C201.263 488.92 217.616 483.901 224.517 487.444C224.82 486.354 225.094 485.236 225.34 484.088Z" fill="#FFF1CC"/>
<path d="M223.249 491.432C215.332 488.052 198.277 492.84 190.74 495.656C189.594 497.11 188.484 498.639 187.421 500.246C194.007 496.819 210.182 490.796 222.195 494.122C222.565 493.248 222.917 492.351 223.249 491.432Z" fill="white"/>
<path d="M200.33 502.977C202.868 503.248 205.499 503.365 208.057 503.23C208.066 503.229 208.076 503.229 208.085 503.228C209.181 503.162 212.086 502.088 215.192 498.28C208.561 498.848 202.774 501.458 200.33 502.977Z" fill="#FFF1CC"/>
<path d="M219.108 500.246C219.487 499.606 219.855 498.951 220.213 498.28C218.513 498.125 216.827 498.14 215.192 498.28C212.086 502.088 209.181 503.162 208.085 503.228C212.17 503.009 216.068 502.148 219.108 500.246Z" fill="white"/>
<path d="M183.906 506.189C187.692 508.609 198.65 512.633 212.193 509.375C213.588 507.915 214.939 506.326 216.219 504.6C210.595 510.442 193.282 506.379 185.329 503.617C184.841 504.455 184.367 505.313 183.906 506.189Z" fill="#FFF1CC"/>
<path d="M181.287 511.762C184.335 514.318 193.225 518.747 204.404 516.017C205.624 515.175 206.846 514.251 208.057 513.241C198.391 516.334 186.882 511.952 182.336 509.375C181.975 510.157 181.625 510.952 181.287 511.762Z" fill="#FFF1CC"/>
<path d="M226.024 480.304C217.865 478.057 206.806 481.891 202.297 484.088C200.978 485.134 199.663 486.251 198.363 487.444C203.973 484.731 217.223 480.262 225.34 484.088C225.603 482.861 225.832 481.599 226.024 480.304Z" fill="white"/>
<path d="M224.517 487.444C217.616 483.901 201.263 488.92 193.949 491.872C192.854 493.072 191.782 494.333 190.74 495.656C198.277 492.84 215.332 488.052 223.249 491.432C223.712 490.148 224.136 488.819 224.517 487.444Z" fill="white"/>
<path d="M222.195 494.122C210.182 490.796 194.007 496.819 187.421 500.246C188.82 500.712 190.592 501.215 192.603 501.675C198.196 499.356 211.757 495.015 221.262 496.198C221.584 495.521 221.896 494.829 222.195 494.122Z" fill="#FFF1CC"/>
<path d="M221.262 496.198C211.757 495.015 198.196 499.356 192.603 501.675C194.93 502.208 197.576 502.683 200.33 502.977C202.774 501.458 208.561 498.848 215.192 498.28C216.827 498.14 218.513 498.125 220.213 498.28C220.574 497.602 220.924 496.908 221.262 496.198Z" fill="white"/>
<path d="M185.329 503.617C193.282 506.379 210.595 510.442 216.219 504.6C217.231 503.235 218.198 501.785 219.108 500.246C216.068 502.148 212.17 503.009 208.085 503.228L208.057 503.23C205.499 503.365 202.868 503.248 200.33 502.977C197.576 502.683 194.93 502.208 192.603 501.675C190.592 501.215 188.82 500.712 187.421 500.246C186.701 501.334 186.003 502.457 185.329 503.617Z" fill="white"/>
<path d="M182.336 509.375C186.882 511.952 198.391 516.334 208.057 513.241C209.46 512.07 210.847 510.783 212.193 509.375C198.65 512.633 187.692 508.609 183.906 506.189C183.363 507.224 182.838 508.286 182.336 509.375Z" fill="#FFF1CC"/>
<path d="M204.404 516.017C193.225 518.747 184.335 514.318 181.287 511.762C182.51 513.204 183.732 514.63 184.932 516.017C187.53 518.089 193.208 521.224 197.89 519.811C198.69 519.427 199.505 519.006 200.33 518.548C201.669 517.805 203.035 516.963 204.404 516.017Z" fill="#FFF1CC"/>
<path d="M184.932 516.017C186.92 518.315 188.852 520.506 190.644 522.48C192.773 521.955 195.25 521.079 197.89 519.811C193.208 521.224 187.53 518.089 184.932 516.017Z" fill="#FFF1CC"/>
<path d="M165.618 498.28C172.76 509.122 188.942 530.967 196.537 531.607C197.138 531.616 197.747 531.619 198.363 531.616C190.833 528.216 173.536 506.226 165.829 495.656C165.737 496.535 165.668 497.411 165.618 498.28Z" fill="#FFF1CC"/>
<path d="M165.543 503.617C169.922 512.462 180.737 529.791 190.234 531.281C190.645 531.318 191.06 531.352 191.48 531.383C192.102 531.43 192.733 531.469 193.375 531.502C185.258 530.664 171.51 511.031 165.522 501.089C165.513 501.944 165.52 502.788 165.543 503.617Z" fill="#FFF1CC"/>
<path d="M165.543 503.617C165.588 505.225 165.689 506.779 165.829 508.249C168.526 513.575 175.521 525.39 181.927 530.046C184.47 530.587 187.237 531.01 190.234 531.281C180.737 529.791 169.922 512.462 165.543 503.617Z" fill="#FFF1CC"/>
<path d="M167.397 517.424C169.364 520.293 174.113 526.603 177.372 528.89C177.921 529.054 178.483 529.212 179.058 529.363C174.402 525.58 168.8 517.364 166.581 513.729C166.84 515.152 167.122 516.4 167.397 517.424Z" fill="#FFF1CC"/>
<path d="M259.759 558.292L243.764 506.189C243.623 507.251 243.436 508.316 243.198 509.375L259.551 561.759C259.579 561.272 259.608 560.771 259.638 560.257C259.676 559.623 259.716 558.968 259.759 558.292Z" fill="#FFF1CC"/>
<path d="M113.792 475.816L172.326 478.242C173.597 476.72 174.915 475.326 176.248 474.055L126.376 473.88L113.792 475.816Z" fill="#FFF1CC"/>
<path d="M236.375 476.232H256.753C253.397 475.019 250.79 473.729 248.838 472.497H233.144C234.353 473.744 235.427 475 236.375 476.232Z" fill="#FFF1CC"/>
<path d="M83.8841 475.706C84.038 477.3 84.1857 478.854 84.3251 480.348L113.792 475.816L126.376 473.88L183.974 465.019L159.671 464.15C135.554 468.002 86.6341 475.706 83.8841 475.706Z" fill="#FFF1CC"/>
<path d="M202.237 461.693L241.788 454.086L240.993 450.013L179.058 460.849L202.237 461.693Z" fill="#FFF1CC"/>
<path d="M188.891 465.195C190.936 464.202 192.687 463.555 193.949 463.215C196.747 462.536 201.137 461.875 206.03 461.831L202.237 461.693L179.058 460.849L82.0345 457.316C82.1733 458.654 82.3138 460.015 82.4546 461.389L159.671 464.15L183.974 465.019L188.891 465.195Z" fill="#FFF1CC"/>
<path d="M226.682 467.007C227.535 467.6 228.348 468.21 229.121 468.832H244.664L243.954 465.195L221.343 464.23C223.239 464.952 225.041 465.865 226.682 467.007Z" fill="#FFF1CC"/>
<path d="M353.96 207.474L350.307 137.956L349.613 131.215L349.135 126.581L348.73 122.648L343.839 75.1797V122.648L348.73 207.474L344.909 244.374L350.307 244.531L353.309 214.075L353.635 210.774L353.96 207.474Z" fill="#D6AF5E"/>
<path d="M338.928 45.6874H333.168L343.273 70.8261L339.511 49.0579L338.928 45.6874Z" fill="#D6AF5E"/>
<path d="M343.564 72.5113L343.273 70.8261L333.168 45.6874L329.32 49.0579L337.804 70.8261L339.511 122.648L343.839 207.474L339.511 244.217L344.909 244.374L348.73 207.474L343.839 122.648V75.1797L343.564 72.5113Z" fill="#D6AF5E"/>
<path d="M337.804 70.8261L329.32 49.0579L323.919 53.7884L329.32 70.8261L333.168 122.648L337.804 207.474L333.168 244.033L339.511 244.217L343.839 207.474L339.511 122.648L337.804 70.8261Z" fill="#D6AF5E"/>
<path d="M329.32 70.8261L323.919 53.7884L318.949 58.1421L323.919 70.8261L329.32 122.648L333.168 207.474L329.32 243.922L333.168 244.033L337.804 207.474L333.168 122.648L329.32 70.8261Z" fill="#D6AF5E"/>
<path d="M323.919 70.8261L318.949 58.1421L314.344 62.1755L316.535 70.8261L323.919 122.648L329.32 207.474L325.863 243.821L329.32 243.922L333.168 207.474L329.32 122.648L323.919 70.8261Z" fill="#D6AF5E"/>
<path d="M316.535 70.8261L314.344 62.1755L308.443 67.3434L309.848 70.8261L318.949 122.648L323.919 207.474L320.103 243.654L325.863 243.821L329.32 207.474L323.919 122.648L316.535 70.8261Z" fill="#D6AF5E"/>
<path d="M309.848 70.8261L308.443 67.3434L305.493 69.9274L314.344 122.648L320.103 207.474L317.223 243.571L320.103 243.654L323.919 207.474L318.949 122.648L309.848 70.8261Z" fill="#D6AF5E"/>
<path d="M302.543 72.5113L308.303 101.582L309.304 109.587L309.69 112.677L313.501 143.153L313.681 145.961L317.153 200.171V217.305L316.844 220.184L316.535 223.063L314.344 243.487L317.223 243.571L320.103 207.474L314.344 122.648L305.493 69.9274L302.543 72.5113Z" fill="#D6AF5E"/>
<path d="M343.76 322.073L347.638 274.452L339.45 274.129L334.805 322.073L320.103 423.33L295.349 478.264C295.835 479.508 296.314 480.674 296.783 481.753L298.89 478.264L301.534 473.888L309.848 460.125L316.939 443.834L318.528 440.183L325.863 423.33L333.862 384.007L334.805 379.372L337.804 364.626L340.533 342.392L341.578 337.662L343.76 322.073Z" fill="#EED288"/>
<path d="M292.352 469.956C293.371 472.98 294.376 475.777 295.349 478.264L320.103 423.33L334.805 322.073L339.45 274.129L331.261 273.806L325.863 322.073L313.501 423.33L292.352 469.956Z" fill="#EED288"/>
<path d="M292.352 469.956L313.501 423.33L325.863 322.073L331.261 273.806L320.555 273.384L317.153 322.073L306.195 423.33L289.212 460.125C290.264 463.579 291.316 466.885 292.352 469.956Z" fill="#EED288"/>
<path d="M289.212 460.125L306.195 423.33L317.153 322.073L320.555 273.384L315.201 273.173L313.501 322.073L301.534 423.33L286.404 450.575C286.876 452.231 287.35 453.872 287.826 455.49C288.287 457.059 288.75 458.607 289.212 460.125Z" fill="#EED288"/>
<path d="M313.501 322.073L315.201 273.173L312.525 273.067L309.848 322.073L295.349 423.33L283.53 440.183C284.467 443.663 285.429 447.151 286.404 450.575L301.534 423.33L313.501 322.073Z" fill="#EED288"/>
<path d="M309.848 272.962L306.195 312.804L304.707 322.073L303.895 327.129L299.881 352.127L299.452 354.795L288.073 423.33L281.658 433.116C282.267 435.454 282.893 437.816 283.53 440.183L295.349 423.33L309.848 322.073L312.525 273.067L309.848 272.962Z" fill="#EED288"/>
<path d="M288.073 401.843L280.581 428.947C280.934 430.325 281.293 431.716 281.658 433.116L288.073 423.33L299.452 354.795L291.266 388.641L290.179 393.135L288.073 401.843Z" fill="#EED288"/>
<path d="M276.694 271.655L278.38 242.443L279.797 232.472L280.257 229.242L290.461 157.477L291.1 152.983L297.511 107.902L297.85 105.515L302.543 72.5113L305.493 69.9274L308.443 67.3434L314.344 62.1755L318.949 58.1421L323.919 53.7884L329.32 49.0579L333.168 45.6874L321.368 44.6791L299.881 64.7872L295.349 68.579L278.38 168.572L276.694 174.892L266.076 242.443V272.962V398.753L283.53 440.183C282.893 437.816 282.267 435.454 281.658 433.116C281.293 431.716 280.934 430.325 280.581 428.947C277.873 418.375 275.554 408.621 274.025 401.843L273.688 393.135L273.514 388.641L271.689 341.453L271.543 337.662L270.581 312.804L270.372 307.397L276.694 271.655Z" fill="#FFF1CC"/>
<path d="M286.404 450.575C285.429 447.151 284.467 443.663 283.53 440.183L266.076 398.753V272.962V242.443L276.694 174.892L278.38 168.572L295.349 68.579L299.881 64.7872L321.368 44.6791L310.624 43.7611L295.349 64.7872L291.266 68.579L271.689 167.825L270.372 173.347L261.154 242.443V272.962V398.753L271.689 447.485L287.826 455.49C287.35 453.872 286.876 452.231 286.404 450.575Z" fill="#FFF1CC"/>
<path d="M299.881 42.8431L281.853 64.7872L280.581 68.579L261.154 167.308L257.462 171.381L249.78 242.443V271.655L246.69 398.753L261.154 460.125H289.212C288.75 458.607 288.287 457.059 287.826 455.49L271.689 447.485L261.154 398.753V272.962V242.443L270.372 173.347L271.689 167.825L291.266 68.579L295.349 64.7872L310.624 43.7611L299.881 42.8431Z" fill="#FFF1CC"/>
<path d="M295.438 42.4635L276.694 64.7872V68.579L254.416 167.308V171.381L246.69 242.443L244.863 271.655L242.135 398.753L256.753 465.743L292.352 469.956C291.316 466.885 290.264 463.579 289.212 460.125H261.154L246.69 398.753L249.78 271.655V242.443L257.462 171.381L261.154 167.308L280.581 68.579L281.853 64.7872L299.881 42.8431L295.438 42.4635Z" fill="#FFF1CC"/>
<path d="M235.532 242.443L231.599 271.655V295.67V298.619V316.455V320.809V398.753V401.843L240.993 450.013L241.788 454.086L243.954 465.195L244.664 468.832C245.349 469.865 246.7 471.146 248.838 472.497C250.79 473.729 253.397 475.019 256.753 476.232C265.052 479.23 277.927 481.753 296.783 481.753C296.314 480.674 295.835 479.508 295.349 478.264L249.78 468.832L238.963 398.753V271.655L242.135 242.443L249.78 171.381V167.308L270.372 68.579V64.7872L290.179 42.0142L283.859 41.4742L281.853 43.5808L279.847 45.6874L261.662 64.7872L261.154 67.4555L257.462 86.8362L256.767 90.4876L242.135 167.308L241.777 171.381L235.532 242.443Z" fill="#FFF1CC"/>
<path d="M290.179 42.0142L270.372 64.7872V68.579L249.78 167.308V171.381L242.135 242.443L238.963 271.655V398.753L249.78 468.832L295.349 478.264C294.376 475.777 293.371 472.98 292.352 469.956L256.753 465.743L242.135 398.753L244.863 271.655L246.69 242.443L254.416 171.381V167.308L276.694 68.579V64.7872L295.438 42.4635L290.179 42.0142Z" fill="#FFF1CC"/>
</svg>
