<svg width="196" height="406" viewBox="0 0 196 406" fill="none" xmlns="http://www.w3.org/2000/svg">
<path d="M26.4614 34.6706C25.97 36.8276 25.7494 38.7922 25.7345 40.4461L27.19 61.9791C28.9145 67.8237 32.121 77.1885 35.9489 85.56C39.3228 92.9387 43.1796 99.5456 46.9298 102.29C48.2534 102.992 49.8771 103.711 51.781 104.402C62.2061 107.1 80.8735 104.348 90.2301 102.29C101.753 91.9707 123.742 64.7197 119.521 38.271C114.526 6.97056 34.9242 2.50955 26.4614 34.6706Z" fill="#8B725A"/>
<path d="M12.4534 262.374L16.274 304.715L14.4092 319.505L18.1843 322.405H35.0132L40.3933 317.113L53.2975 313.923V297.62V295.362V283.53V274.337C55.5111 271.002 59.4287 262.185 57.391 253.601C55.3534 245.017 55.5414 237.216 56.3904 234.823L57.391 220.147C38.127 219.85 18.7341 220.105 17.4566 220.105C15.4917 220.105 13.7119 213.242 13.0676 209.81L14.5456 237.723L12.4534 262.374Z" fill="#8B725A"/>
<path d="M110.698 212.058C107.18 213.58 99.3268 217.901 96.052 223.006L98.2352 245.989C95.5668 249.251 90.2301 257.096 90.2301 262.374C90.2301 267.652 91.6856 275.255 92.4133 278.397L96.052 296.087V297.62V310.805L76.4941 322.405H103.42H122.887L131.347 319.505L133.439 287.822C136.168 282.167 141.062 270.233 138.806 267.739C138.806 263.447 136.926 257.347 135.986 254.834V235.693L131.347 204.124C128.725 207.845 117.365 210.834 110.698 212.058Z" fill="#8B725A"/>
<path d="M162.549 107.728C155.635 100.304 140.929 96.9975 134.44 96.2724L121.523 126.868L119.339 151.446C120.492 159.156 121.868 176.01 118.157 181.752C114.601 183.272 105.694 183.087 98.2352 182.533C93.2866 182.26 86.2275 189.439 83.3166 193.062C74.6444 193.401 55.5717 193.439 48.6582 190.887C41.7447 188.335 26.6139 187.794 19.9127 187.842L13.454 190.887V198.21H12.4534L13.0676 209.81C13.7119 213.242 15.4917 220.105 17.4566 220.105C18.7341 220.105 38.127 219.85 57.391 220.147C75.1613 220.42 92.8219 221.162 96.052 223.006C99.3268 217.901 107.18 213.58 110.698 212.058C117.365 210.834 128.725 207.845 131.347 204.124C132.04 203.14 132.123 202.105 131.347 201.038C133.021 191.873 142.536 171.167 147.084 161.959L167.63 138.333C167.557 124.634 166.321 111.779 162.549 107.728Z" fill="#8B725A"/>
<path d="M12.4534 168.049C12.0289 171.312 11.4345 178.62 12.4534 181.752C11.8521 183.582 14.7712 185.526 17.4566 186.811C17.5013 186.832 17.546 186.853 17.5906 186.874C19.3987 187.641 26.8607 187.626 43.655 181.752C60.9024 175.72 81.8915 179.239 90.2301 181.752C92.3357 182.013 95.1625 182.304 98.2352 182.533C105.694 183.087 114.601 183.272 118.157 181.752C121.868 176.01 120.492 159.156 119.339 151.446C105.603 152.239 85.2692 153.19 68.7619 153.475C52.0739 153.763 39.2965 153.371 41.1989 151.446C44.9831 147.618 58.1188 142.359 64.2136 140.209L59.2104 106.56C57.0051 106.055 54.9993 105.491 53.2066 104.897C47.2391 106.228 26.8868 138.949 17.4566 155.144L12.4534 168.049Z" fill="#8B725A"/>
<path d="M14.4092 394.835L44.7466 401.432V382.582L57.9368 357.079L28.3726 354.451L12.4534 374.172V393.921L14.4092 394.835Z" fill="#8B725A"/>
<path d="M44.7466 401.432L105.694 406L106.786 382.582L105.694 361.121H103.42L57.9368 357.079L44.7466 382.582V401.432Z" fill="#8B725A"/>
<path d="M105.694 406L144.628 404.55L149.813 403.228V377.724L140.353 361.121H105.694L106.786 382.582L105.694 406Z" fill="#8B725A"/>
<path d="M131.438 9.05282C121.826 4.1952 94.9422 -3.9685 64.3045 2.23765C38.659 7.43256 28.9861 23.59 26.4614 34.6706C34.9242 2.50955 114.526 6.97056 119.521 38.271C123.742 64.7197 101.753 91.9707 90.2301 102.29L134.44 96.2724L135.532 90.4723L143.076 81.2646C148.266 76.6002 150.126 68.5898 150.359 63.9366C151.026 62.2691 152.36 56.5415 152.36 46.9712C153.379 30.9628 138.837 15.0221 131.438 9.05282Z" fill="#4C463A"/>
<path d="M134.44 96.2724L90.2301 102.29C80.8735 104.348 62.2061 107.1 51.781 104.402C52.24 104.569 52.7153 104.734 53.2066 104.897C54.9993 105.491 57.0051 106.055 59.2104 106.56C75.3713 110.26 102.241 110.762 134.44 96.2724Z" fill="#4C463A"/>
<path d="M64.2136 140.209C58.1188 142.359 44.9831 147.618 41.1989 151.446C39.2965 153.371 52.0739 153.763 68.7619 153.475L64.2136 140.209Z" fill="#4C463A"/>
<path d="M90.2301 181.752C81.8915 179.239 60.9024 175.72 43.655 181.752C26.8607 187.626 19.3987 187.641 17.5906 186.874C18.433 187.272 19.246 187.602 19.9127 187.842C26.6139 187.794 41.7447 188.335 48.6582 190.887C55.5717 193.439 74.6444 193.401 83.3166 193.062C86.2275 189.439 93.2866 182.26 98.2352 182.533C95.1625 182.304 92.3357 182.013 90.2301 181.752Z" fill="#4C463A"/>
<path d="M178.377 298.552H160.729H132.731L131.347 319.505L122.887 322.405H149.813C156.029 320.375 171.318 315.213 182.743 310.805C187.382 309.724 189.196 308.284 189.288 306.745C189.468 303.746 183.107 300.373 178.377 298.552Z" fill="#4C463A"/>
<path d="M41.4718 322.405H76.4941L96.052 310.805V297.62H71.8825H53.2975V313.923L40.3933 317.113L35.0132 322.405H41.4718Z" fill="#4C463A"/>
<path d="M16.274 304.715L3.08378 310.805L14.4092 319.505L16.274 304.715Z" fill="#4C463A"/>
<path d="M165.642 355.466L140.353 361.121L149.813 377.724V403.228L182.743 394.835L195.024 386.932L193.841 366.559L172.555 349.159L165.642 355.466Z" fill="#4C463A"/>
<path d="M28.3726 354.451L24.2852 350.319C16.1265 355.925 0.136452 368.357 1.44638 373.229C-0.372991 377.753 1.77991 385.99 3.08378 389.542L12.4534 393.921V374.172L28.3726 354.451Z" fill="#4C463A"/>
<path d="M27.19 61.9791C27.19 68.3351 28.1543 81.8156 32.0113 84.8897C33.7258 85.2541 35.1412 85.4635 35.9489 85.56C32.121 77.1885 28.9145 67.8237 27.19 61.9791Z" fill="#4C463A"/>
<path d="M119.339 151.446L121.523 126.868L134.44 96.2724C102.241 110.762 75.3713 110.26 59.2104 106.56L64.2136 140.209L68.7619 153.475C85.2692 153.19 105.603 152.239 119.339 151.446Z" fill="#4C463A"/>
<path d="M166.187 169.717C166.945 161.734 167.69 149.741 167.63 138.333L147.084 161.959C142.536 171.167 133.021 191.873 131.347 201.038C132.123 202.105 132.04 203.14 131.347 204.124L157.909 228.661L166.187 169.717Z" fill="#4C463A"/>
<path d="M98.2352 245.989L96.052 223.006C92.8219 221.162 75.1613 220.42 57.391 220.147L56.3904 234.823C55.5414 237.216 55.3534 245.017 57.391 253.601C59.4287 262.185 55.5111 271.002 53.2975 274.337V283.53C57.3191 286.654 64.2536 291.925 68.398 294.709C69.2654 295.292 71.3118 297.298 71.8825 297.62H96.052V296.087L92.4133 278.397C91.6856 275.255 90.2301 267.652 90.2301 262.374C90.2301 257.096 95.5668 249.251 98.2352 245.989Z" fill="#4C463A"/>
<path d="M176.012 250.629C176.012 243.147 163.944 232.866 157.909 228.661L131.347 204.124L135.986 235.693V254.834C136.926 257.347 138.806 263.447 138.806 267.739C141.062 270.233 136.168 282.167 133.439 287.822L132.731 298.552H160.729L179.651 283.835C179.651 275.714 178.923 257.705 176.012 250.629Z" fill="#4C463A"/>
<path d="M103.42 322.405H76.4941H41.4718H35.0132H18.1843L14.4092 319.505L3.08378 310.805L1.44638 327.843L12.4534 338.356L24.2852 350.319L28.3726 354.451L57.9368 357.079L103.42 361.121V339.951V322.405Z" fill="#3E352B"/>
<path d="M149.813 322.405H122.887H103.42V339.951V361.121H105.694H140.353L149.813 339.951V322.405Z" fill="#3E352B"/>
<path d="M182.743 310.805C171.318 315.213 156.029 320.375 149.813 322.405V339.951L140.353 361.121L165.642 355.466L172.555 349.159L190.84 329.293C190.958 321.777 190.813 306.745 189.288 306.745C189.196 308.284 187.382 309.724 182.743 310.805Z" fill="#3E352B"/>
</svg>
