<svg width="455" height="466" viewBox="0 0 455 466" fill="none" xmlns="http://www.w3.org/2000/svg">
<path d="M159 117.5C159 120.814 156.314 123.5 153 123.5C149.686 123.5 147 120.814 147 117.5C147 114.186 149.686 111.5 153 111.5C156.314 111.5 159 114.186 159 117.5Z" fill="black"/>
<path d="M63.1259 272.347C65.1841 272.353 66.8491 273.569 66.8447 275.063C66.8404 276.557 65.1684 277.764 63.1102 277.758C61.052 277.752 59.387 276.536 59.3914 275.042C59.3957 273.548 61.0678 272.341 63.1259 272.347Z" fill="black"/>
<path d="M123.688 271.172C125.746 271.178 127.411 272.394 127.407 273.888C127.403 275.383 125.731 276.589 123.672 276.583C121.614 276.577 119.949 275.361 119.954 273.867C119.958 272.373 121.63 271.166 123.688 271.172Z" fill="black"/>
<path d="M184.251 269.995C186.31 270.001 187.975 271.218 187.97 272.712C187.966 274.206 186.294 275.412 184.236 275.406C182.177 275.4 180.512 274.184 180.517 272.69C180.521 271.196 182.193 269.989 184.251 269.995Z" fill="black"/>
<path d="M245.742 270.175C247.8 270.181 249.465 271.397 249.46 272.891C249.456 274.385 247.784 275.592 245.726 275.586C243.668 275.58 242.003 274.364 242.007 272.87C242.011 271.376 243.683 270.169 245.742 270.175Z" fill="black"/>
<path d="M306.304 268.998C308.363 269.004 310.027 270.22 310.023 271.715C310.019 273.209 308.347 274.415 306.289 274.409C304.23 274.403 302.565 273.187 302.57 271.693C302.574 270.199 304.246 268.992 306.304 268.998Z" fill="black"/>
<path d="M366.868 267.823C368.926 267.829 370.591 269.045 370.587 270.539C370.582 272.033 368.91 273.239 366.852 273.233C364.794 273.227 363.129 272.011 363.133 270.517C363.138 269.023 364.81 267.817 366.868 267.823Z" fill="black"/>
<path d="M107 24.5L105.232 22.7322L103.464 24.5L105.232 26.2678L107 24.5ZM127.5 4L129.268 2.23223L127.5 0.464466L125.732 2.23223L127.5 4ZM127.5 231L125.663 232.696L127.412 234.591L129.252 232.783L127.5 231ZM109.5 211.5L107.696 209.769L106.067 211.466L107.663 213.196L109.5 211.5ZM198 24.5L199.83 26.2035L201.493 24.4166L199.746 22.7111L198 24.5ZM177 4L178.746 2.21106L176.975 0.481856L175.228 2.23611L177 4ZM177 231L175.244 232.779L176.947 234.46L178.701 232.832L177 231ZM198 211.5L199.701 213.332L201.677 211.497L199.698 209.666L198 211.5ZM49.5 70V67.5H47V70H49.5ZM78.5 70H81V67.5H78.5V70ZM49.5 165H47V167.5H49.5V165ZM78.5 165V167.5H81V165H78.5ZM78.5 133.796L80.256 132.017L80.256 132.017L78.5 133.796ZM255 70H257.5V67.5H255V70ZM226.5 70V67.5H224.005L224 69.9948L226.5 70ZM226.432 102.932L224.664 104.7L224.664 104.7L226.432 102.932ZM255 165V167.5H257.5V165H255ZM226.5 165H224V167.5H226.5V165ZM153.5 70L155.286 68.2507L153.481 66.4076L151.695 68.2698L153.5 70ZM107 118.5L105.195 116.77L103.501 118.537L105.232 120.268L107 118.5ZM153.5 165L151.732 166.768L153.481 168.517L155.249 166.786L153.5 165ZM201 118.5L202.749 120.286L204.536 118.537L202.786 116.751L201 118.5ZM116.5 327.914L114.325 329.147L114.325 329.147L116.5 327.914ZM227 462.415L225.263 464.214L226.943 465.835L228.676 464.27L227 462.415ZM116.5 354.915L116.204 357.398L118.417 357.661L118.932 355.493L116.5 354.915ZM130 374.415V376.915H132.5V374.415H130ZM130 347.44L131.948 345.873L131.948 345.873L130 347.44ZM149.5 388.415L150.002 390.864L152 390.454V388.415H149.5ZM149.5 368.788L151.249 367.002L151.249 367.002L149.5 368.788ZM168.5 400.415L169.253 402.799L171.389 402.125L170.952 399.928L168.5 400.415ZM167 384.415L165.449 386.375L165.605 386.499L165.778 386.596L167 384.415ZM193 407.915L194.539 409.885L196.257 408.543L195.161 406.659L193 407.915ZM216 412.915L217.861 414.584L219.272 413.01L217.955 411.358L216 412.915ZM203 396.593L203.445 394.133L203.445 394.133L203 396.593ZM239 412.915L236.94 411.498L235.785 413.178L237.198 414.648L239 412.915ZM262.5 406.415L260.273 405.278L259.346 407.094L260.938 408.367L262.5 406.415ZM270.5 390.745L269.589 388.417L269.589 388.417L270.5 390.745ZM284 384.415L283.122 382.074L282.952 382.138L282.794 382.225L284 384.415ZM285.5 398.771L283.065 398.204L282.553 400.406L284.692 401.137L285.5 398.771ZM289.5 381.582L288.18 379.459L288.18 379.459L289.5 381.582ZM306 386.415H303.5V388.372L305.4 388.842L306 386.415ZM306 368.585L304.321 366.733L304.321 366.733L306 368.585ZM317 357.915L318.808 359.641L318.908 359.537L318.995 359.422L317 357.915ZM323.5 371.415L321.008 371.613L321.191 373.915H323.5V371.415ZM339.5 352.915L337.115 353.665L337.781 355.785L339.965 355.371L339.5 352.915ZM12.7655 289.447L11.5771 291.646L12.9974 292.414L14.2812 291.435L12.7655 289.447ZM397.138 270.954L399.19 269.526L398.946 269.175L398.598 268.925L397.138 270.954ZM430.63 287.622L430.117 285.175L430.117 285.175L430.63 287.622ZM452.117 267.394L454.591 267.757L454.636 267.448L454.604 267.138L452.117 267.394ZM411.599 263.895L414.098 263.977L414.101 263.885L414.097 263.794L411.599 263.895ZM12.8493 260.703L14.3418 258.697L12.9368 257.652L11.4742 258.615L12.8493 260.703ZM52.36 290.105L53.8525 288.099L53.8525 288.099L52.36 290.105ZM62.1215 297.368L60.629 299.374L62.1209 300.484L63.6132 299.375L62.1215 297.368ZM74.2596 288.343L72.7679 286.337L72.7679 286.337L74.2596 288.343ZM52.4501 259.191L53.9659 261.179L53.9659 261.179L52.4501 259.191ZM62.2546 251.717L63.7218 249.692L62.2169 248.602L60.7389 249.728L62.2546 251.717ZM74.3409 260.477L72.8737 262.501L72.8737 262.501L74.3409 260.477ZM123.151 295.856L121.684 297.88L123.181 298.965L124.657 297.851L123.151 295.856ZM123.279 251.894L124.754 249.876L123.266 248.789L121.787 249.888L123.279 251.894ZM134.356 287.398L132.85 285.402L132.85 285.402L134.356 287.398ZM173.483 288.563L174.958 286.544L174.958 286.544L173.483 288.563ZM183.71 296.032L182.235 298.051L183.723 299.138L185.201 298.039L183.71 296.032ZM173.573 257.795L175.079 259.79L175.079 259.79L173.573 257.795ZM183.844 250.042L185.347 248.044L183.841 246.912L182.338 248.047L183.844 250.042ZM196.315 286.662L194.823 284.655L194.823 284.655L196.315 286.662ZM245.2 296.211L243.697 298.209L245.252 299.38L246.768 298.158L245.2 296.211ZM235.064 257.856L236.555 259.863L236.555 259.863L235.064 257.856ZM245.334 250.221L246.779 248.181L245.298 247.133L243.843 248.215L245.334 250.221ZM295.077 285.428L296.521 283.388L296.521 283.388L295.077 285.428ZM305.304 292.667L303.86 294.707L305.346 295.76L306.804 294.667L305.304 292.667ZM295.162 255.966L296.731 257.913L296.731 257.913L295.162 255.966ZM305.435 247.691L306.946 245.7L305.389 244.518L303.867 245.744L305.435 247.691ZM316.975 283.917L315.476 281.916L315.476 281.916L316.975 283.917ZM317.055 256.51L315.544 258.501L315.544 258.501L317.055 256.51ZM356.564 286.492L358.076 284.5L358.076 284.5L356.564 286.492ZM364.931 292.841L363.42 294.832L364.851 295.918L366.336 294.908L364.931 292.841ZM365.062 247.865L366.523 245.836L365.032 244.763L363.562 245.865L365.062 247.865ZM123.268 37.2322L108.768 22.7322L105.232 26.2678L119.732 40.7678L123.268 37.2322ZM108.768 26.2678L129.268 5.76777L125.732 2.23223L105.232 22.7322L108.768 26.2678ZM129.337 229.304L111.337 209.804L107.663 213.196L125.663 232.696L129.337 229.304ZM111.303 213.231L123.303 200.731L119.696 197.269L107.696 209.769L111.303 213.231ZM186.33 40.7035L199.83 26.2035L196.17 22.7965L182.67 37.2965L186.33 40.7035ZM199.746 22.7111L178.746 2.21106L175.254 5.78894L196.254 26.2889L199.746 22.7111ZM178.701 232.832L199.701 213.332L196.299 209.668L175.299 229.168L178.701 232.832ZM199.698 209.666L186.198 197.166L182.801 200.834L196.301 213.334L199.698 209.666ZM63 116H26V121H63V116ZM242 121H278.5V116H242V121ZM52 90V70H47V90H52ZM49.5 72.5H78.5V67.5H49.5V72.5ZM175.228 2.23611L150.532 27.0403L154.076 30.5681L178.772 5.76389L175.228 2.23611ZM150.532 27.0403L76.7283 101.168L80.2716 104.696L154.076 30.5681L150.532 27.0403ZM76.7283 101.168L61.2283 116.736L64.7716 120.264L80.2716 104.696L76.7283 101.168ZM76 70V102.932H81V70H76ZM47 147.5V165H52V147.5H47ZM49.5 167.5H78.5V162.5H49.5V167.5ZM61.2439 120.279L76.7439 135.575L80.256 132.017L64.756 116.721L61.2439 120.279ZM76.7439 135.575L150.548 208.409L154.06 204.85L80.256 132.017L76.7439 135.575ZM150.548 208.409L175.244 232.779L178.756 229.221L154.06 204.85L150.548 208.409ZM81 165V133.796H76V165H81ZM257.5 90V70H252.5V90H257.5ZM255 67.5H226.5V72.5H255V67.5ZM125.732 5.76777L150.536 30.5719L154.072 27.0364L129.268 2.23223L125.732 5.76777ZM150.536 30.5719L224.664 104.7L228.2 101.164L154.072 27.0364L150.536 30.5719ZM224.664 104.7L240.232 120.268L243.768 116.732L228.2 101.164L224.664 104.7ZM224 69.9948L223.932 102.927L228.932 102.937L229 70.0052L224 69.9948ZM252.5 147.5V165H257.5V147.5H252.5ZM255 162.5H226.5V167.5H255V162.5ZM240.248 116.717L224.748 131.946L228.252 135.513L243.752 120.283L240.248 116.717ZM224.748 131.946L150.552 204.846L154.056 208.412L228.252 135.513L224.748 131.946ZM150.552 204.846L125.748 229.217L129.252 232.783L154.056 208.412L150.552 204.846ZM229 165V133.729H224V165H229ZM151.695 68.2698L105.195 116.77L108.805 120.23L155.305 71.7302L151.695 68.2698ZM105.232 120.268L151.732 166.768L155.268 163.232L108.768 116.732L105.232 120.268ZM155.249 166.786L202.749 120.286L199.251 116.714L151.751 163.214L155.249 166.786ZM202.786 116.751L155.286 68.2507L151.714 71.7493L199.214 120.249L202.786 116.751ZM156.5 117.5C156.5 119.433 154.933 121 153 121V126C157.694 126 161.5 122.194 161.5 117.5H156.5ZM153 121C151.067 121 149.5 119.433 149.5 117.5H144.5C144.5 122.194 148.306 126 153 126V121ZM149.5 117.5C149.5 115.567 151.067 114 153 114V109C148.306 109 144.5 112.806 144.5 117.5H149.5ZM153 114C154.933 114 156.5 115.567 156.5 117.5H161.5C161.5 112.806 157.694 109 153 109V114ZM413.131 216.771L346.631 183.021L344.369 187.479L410.869 221.229L413.131 216.771ZM346.631 183.021L280.131 149.271L277.869 153.729L344.369 187.479L346.631 183.021ZM280.131 221.229L346.631 187.479L344.369 183.021L277.869 216.771L280.131 221.229ZM346.631 187.479L413.131 153.729L410.869 149.271L344.369 183.021L346.631 187.479ZM348 185.25V156H343V185.25H348ZM288.35 129.22L344.35 158.22L346.65 153.78L290.65 124.78L288.35 129.22ZM348 156V133H343V156H348ZM298.932 113.76L344.432 135.26L346.568 130.74L301.068 109.24L298.932 113.76ZM348 133V111.5H343V133H348ZM306.504 97.2932L344.504 113.793L346.496 109.207L308.496 92.7068L306.504 97.2932ZM348 111.5V90H343V111.5H348ZM314.928 78.2586L344.428 92.2586L346.572 87.7414L317.072 73.7414L314.928 78.2586ZM348 90V69.5H343V90H348ZM348 69.5V6H343V69.5H348ZM325.479 63.282L344.479 71.782L346.521 67.218L327.521 58.718L325.479 63.282ZM361.908 58.7512L344.408 67.2512L346.592 71.7488L364.092 63.2488L361.908 58.7512ZM371.866 73.7721L344.366 87.7721L346.634 92.2279L374.134 78.2279L371.866 73.7721ZM380.97 92.722L344.47 109.222L346.53 113.778L383.03 97.278L380.97 92.722ZM389.422 109.244L344.422 130.744L346.578 135.256L391.578 113.756L389.422 109.244ZM399.334 124.789L344.334 153.789L346.666 158.211L401.666 129.211L399.334 124.789ZM82.0961 329.277C85.2155 324.478 90.5011 319.097 96.2271 317.581C98.9782 316.853 101.848 317.006 104.791 318.586C107.794 320.197 111.07 323.402 114.325 329.147L118.675 326.682C115.13 320.426 111.256 316.381 107.156 314.18C102.996 311.948 98.8093 311.726 94.9479 312.748C87.4488 314.732 81.2845 321.351 77.9039 326.552L82.0961 329.277ZM336.352 336.262C337.586 332.838 339.407 328.995 341.701 325.602C344.012 322.184 346.688 319.392 349.572 317.841C352.353 316.345 355.363 315.969 358.728 317.392C362.224 318.87 366.35 322.397 370.915 329.294L375.085 326.534C370.25 319.232 365.447 314.804 360.675 312.787C355.773 310.714 351.176 311.301 347.203 313.438C343.332 315.52 340.107 319.032 337.559 322.802C334.993 326.597 332.997 330.825 331.648 334.567L336.352 336.262ZM224.5 398.771V462.415H229.5V398.771H224.5ZM228.676 464.27L244.176 450.27L240.824 446.56L225.324 460.56L228.676 464.27ZM228.736 460.617L214.236 446.617L210.763 450.214L225.263 464.214L228.736 460.617ZM95.2044 354.898L116.204 357.398L116.795 352.433L95.7955 349.933L95.2044 354.898ZM114.325 329.147C115.78 331.715 117.367 334.272 119.053 336.801L123.213 334.028C121.586 331.587 120.064 329.133 118.675 326.682L114.325 329.147ZM118.932 355.493L123.565 335.993L118.701 334.837L114.068 354.337L118.932 355.493ZM110.5 376.915H130V371.915H110.5V376.915ZM119.053 336.801C121.826 340.961 124.872 345.054 128.052 349.007L131.948 345.873C128.845 342.016 125.89 338.044 123.213 334.028L119.053 336.801ZM132.5 374.415V347.44H127.5V374.415H132.5ZM130.502 394.864L150.002 390.864L148.998 385.966L129.498 389.966L130.502 394.864ZM128.052 349.007C134.428 356.932 141.363 364.319 147.751 370.574L151.249 367.002C144.967 360.851 138.172 353.61 131.948 345.873L128.052 349.007ZM152 388.415V368.788H147V388.415H152ZM150.253 408.799L169.253 402.799L167.747 398.031L148.747 404.031L150.253 408.799ZM147.751 370.574C153.731 376.431 159.252 381.313 163.413 384.732L166.587 380.869C162.542 377.545 157.13 372.76 151.249 367.002L147.751 370.574ZM163.413 384.732C164.133 385.324 164.813 385.872 165.449 386.375L168.551 382.454C167.941 381.972 167.285 381.443 166.587 380.869L163.413 384.732ZM170.952 399.928L167.452 382.313L162.548 383.288L166.048 400.902L170.952 399.928ZM178.539 422.385L194.539 409.885L191.461 405.945L175.461 418.445L178.539 422.385ZM165.778 386.596C170.096 389.016 175.854 391.612 182.696 393.937L184.304 389.202C177.712 386.962 172.239 384.485 168.222 382.234L165.778 386.596ZM195.161 406.659L185.661 390.313L181.339 392.826L190.839 409.171L195.161 406.659ZM204.861 429.084L217.861 414.584L214.139 411.246L201.139 425.746L204.861 429.084ZM182.696 393.937C188.569 395.932 195.262 397.735 202.555 399.053L203.445 394.133C196.406 392.861 189.954 391.122 184.304 389.202L182.696 393.937ZM202.555 399.053C210.129 400.423 218.36 401.272 227 401.271L227 396.271C218.685 396.272 210.753 395.454 203.445 394.133L202.555 399.053ZM217.955 411.358L204.955 395.036L201.044 398.151L214.044 414.473L217.955 411.358ZM253.302 424.182L240.802 411.182L237.198 414.648L249.698 427.648L253.302 424.182ZM227 401.271C234.633 401.27 242.59 400.605 250.697 399.048L249.754 394.138C241.983 395.631 234.344 396.27 227 396.271L227 401.271ZM241.06 414.332L252.286 398.01L248.166 395.176L236.94 411.498L241.06 414.332ZM279.062 416.463L264.062 404.463L260.938 408.367L275.938 420.367L279.062 416.463ZM250.697 399.048C257.53 397.736 264.47 395.79 271.411 393.073L269.589 388.417C262.947 391.016 256.303 392.88 249.754 394.138L250.697 399.048ZM271.411 393.073C276.02 391.269 280.629 389.126 285.206 386.604L282.794 382.225C278.41 384.64 273.999 386.691 269.589 388.417L271.411 393.073ZM264.727 407.552L272.727 391.882L268.273 389.608L260.273 405.278L264.727 407.552ZM304.308 402.549L286.308 396.405L284.692 401.137L302.692 407.281L304.308 402.549ZM284.878 386.756C286.747 386.055 288.763 384.985 290.82 383.705L288.18 379.459C286.276 380.643 284.569 381.531 283.122 382.074L284.878 386.756ZM287.935 399.337L291.935 382.149L287.065 381.015L283.065 398.204L287.935 399.337ZM324.1 388.318L306.6 383.988L305.4 388.842L322.9 393.172L324.1 388.318ZM290.82 383.705C296.194 380.363 302.324 375.289 307.679 370.438L304.321 366.733C299.034 371.523 293.168 376.357 288.18 379.459L290.82 383.705ZM307.679 370.438C312.145 366.392 316.14 362.436 318.808 359.641L315.192 356.189C312.604 358.899 308.695 362.77 304.321 366.733L307.679 370.438ZM308.5 386.415V368.585H303.5V386.415H308.5ZM343 368.915H323.5V373.915H343V368.915ZM318.995 359.422L323.906 352.922L319.916 349.908L315.005 356.408L318.995 359.422ZM323.906 352.922L335.995 336.922L332.005 333.908L319.916 349.908L323.906 352.922ZM325.992 371.217L324.403 351.217L319.419 351.613L321.008 371.613L325.992 371.217ZM357.535 346.959L339.035 350.459L339.965 355.371L358.465 351.871L357.535 346.959ZM341.885 352.165L336.385 334.665L331.615 336.164L337.115 353.665L341.885 352.165ZM0.879586 285.866L11.5771 291.646L13.9539 287.247L3.2564 281.467L0.879586 285.866ZM395.086 272.382C397.645 276.06 402.428 281.276 408.612 285.185C414.803 289.098 422.644 291.848 431.142 290.069L430.117 285.175C423.326 286.597 416.819 284.458 411.284 280.959C405.742 277.456 401.424 272.738 399.19 269.526L395.086 272.382ZM431.142 290.069C447.662 286.609 453.68 273.979 454.591 267.757L449.644 267.032C448.971 271.627 444.175 282.231 430.117 285.175L431.142 290.069ZM454.604 267.138C454.255 263.751 452.636 258.878 448.866 254.988C445.004 251.002 439.062 248.234 430.527 248.947L430.943 253.93C438.065 253.335 442.511 255.614 445.275 258.467C448.132 261.416 449.375 265.175 449.631 267.651L454.604 267.138ZM430.527 248.947C414.154 250.314 408.881 258.507 409.101 263.995L414.097 263.794C414.028 262.067 416.004 255.177 430.943 253.93L430.527 248.947ZM409.101 263.812C408.995 267.019 410.209 271.502 414.296 274.441C418.399 277.392 424.79 278.351 434.116 275.841L432.817 271.013C424.24 273.321 419.612 272.105 417.215 270.382C414.802 268.647 414.033 265.955 414.098 263.977L409.101 263.812ZM3.48942 269.861L14.2244 262.791L11.4742 258.615L0.739249 265.685L3.48942 269.861ZM11.3568 262.709L30.3938 276.875L33.3787 272.864L14.3418 258.697L11.3568 262.709ZM30.3938 276.875L50.8675 292.11L53.8525 288.099L33.3787 272.864L30.3938 276.875ZM50.8675 292.11L60.629 299.374L63.6139 295.363L53.8525 288.099L50.8675 292.11ZM54.8103 307.154L54.86 290.112L49.86 290.097L49.8103 307.139L54.8103 307.154ZM63.6132 299.375L75.7513 290.349L72.7679 286.337L60.6298 295.362L63.6132 299.375ZM76.7046 307.218L76.7596 288.35L71.7596 288.336L71.7046 307.203L76.7046 307.218ZM14.2812 291.435L33.402 276.857L30.3705 272.881L11.2497 287.459L14.2812 291.435ZM33.402 276.857L53.9659 261.179L50.9344 257.203L30.3705 272.881L33.402 276.857ZM53.9659 261.179L63.7703 253.705L60.7389 249.728L50.9344 257.203L53.9659 261.179ZM49.9967 243.227L49.9501 259.184L54.9501 259.199L54.9967 243.241L49.9967 243.227ZM60.7874 253.741L72.8737 262.501L75.8081 258.453L63.7218 249.692L60.7874 253.741ZM71.891 243.29L71.8409 260.47L76.8409 260.484L76.891 243.305L71.891 243.29ZM72.8737 262.501L91.8101 276.227L94.7445 272.178L75.8081 258.453L72.8737 262.501ZM91.8101 276.227L110.527 289.793L113.462 285.745L94.7445 272.178L91.8101 276.227ZM110.527 289.793L121.684 297.88L124.618 293.831L113.462 285.745L110.527 289.793ZM114.437 307.328L114.494 287.776L109.494 287.762L109.437 307.313L114.437 307.328ZM75.7513 290.349L94.769 276.209L91.7856 272.196L72.7679 286.337L75.7513 290.349ZM94.769 276.209L113.566 262.232L110.583 258.219L91.7856 272.196L94.769 276.209ZM113.566 262.232L124.771 253.901L121.787 249.888L110.583 258.219L113.566 262.232ZM109.632 240.695L109.575 260.218L114.575 260.233L114.632 240.71L109.632 240.695ZM124.657 297.851L135.862 289.393L132.85 285.402L121.645 293.86L124.657 297.851ZM136.798 307.393L136.856 287.405L131.856 287.39L131.798 307.378L136.798 307.393ZM121.805 253.913L132.961 262.062L135.91 258.024L124.754 249.876L121.805 253.913ZM131.992 240.76L131.936 260.036L136.936 260.05L136.992 240.775L131.992 240.76ZM132.961 262.062L151.338 275.484L154.287 271.447L135.91 258.024L132.961 262.062ZM151.338 275.484L172.008 290.582L174.958 286.544L154.287 271.447L151.338 275.484ZM172.008 290.582L182.235 298.051L185.184 294.013L174.958 286.544L172.008 290.582ZM175.934 305.478L175.983 288.57L170.983 288.555L170.934 305.464L175.934 305.478ZM135.862 289.393L154.319 275.461L151.307 271.47L132.85 285.402L135.862 289.393ZM154.319 275.461L175.079 259.79L172.067 255.8L151.307 271.47L154.319 275.461ZM175.079 259.79L185.35 252.037L182.338 248.047L172.067 255.8L175.079 259.79ZM171.122 240.874L171.073 257.788L176.073 257.802L176.122 240.889L171.122 240.874ZM185.201 298.039L197.806 288.668L194.823 284.655L182.218 294.026L185.201 298.039ZM198.76 305.545L198.815 286.669L193.815 286.654L193.76 305.53L198.76 305.545ZM182.341 252.04L194.891 261.483L197.897 257.488L185.347 248.044L182.341 252.04ZM193.948 240.941L193.894 259.478L198.894 259.493L198.948 240.956L193.948 240.941ZM194.891 261.483L213.019 275.124L216.025 271.129L197.897 257.488L194.891 261.483ZM213.019 275.124L233.772 290.741L236.778 286.745L216.025 271.129L213.019 275.124ZM233.772 290.741L243.697 298.209L246.703 294.214L236.778 286.745L233.772 290.741ZM237.424 305.702L237.774 288.795L232.775 288.691L232.425 305.598L237.424 305.702ZM197.806 288.668L216.013 275.133L213.03 271.12L194.823 284.655L197.806 288.668ZM216.013 275.133L236.555 259.863L233.572 255.85L213.03 271.12L216.013 275.133ZM236.555 259.863L246.826 252.228L243.843 248.215L233.572 255.85L236.555 259.863ZM232.914 241.01L232.564 257.804L237.563 257.909L237.913 241.114L232.914 241.01ZM246.768 298.158L257.508 289.507L254.371 285.614L243.632 294.265L246.768 298.158ZM258.387 305.719L258.44 287.568L253.44 287.553L253.387 305.704L258.387 305.719ZM243.89 252.262L254.582 259.83L257.471 255.749L246.779 248.181L243.89 252.262ZM253.575 241.115L253.527 257.782L258.527 257.796L258.575 241.129L253.575 241.115ZM254.582 259.83L274.209 273.721L277.098 269.64L257.471 255.749L254.582 259.83ZM274.209 273.721L293.632 287.469L296.521 283.388L277.098 269.64L274.209 273.721ZM293.632 287.469L303.86 294.707L306.748 290.626L296.521 283.388L293.632 287.469ZM297.524 303.466L297.577 285.435L292.577 285.421L292.524 303.451L297.524 303.466ZM257.508 289.507L277.222 273.628L274.085 269.734L254.371 285.614L257.508 289.507ZM277.222 273.628L296.731 257.913L293.594 254.019L274.085 269.734L277.222 273.628ZM296.731 257.913L307.003 249.638L303.867 245.744L293.594 254.019L296.731 257.913ZM292.71 239.538L292.662 255.959L297.662 255.973L297.71 239.553L292.71 239.538ZM306.804 294.667L318.475 285.917L315.476 281.916L303.804 290.667L306.804 294.667ZM319.418 303.529L319.475 283.924L314.475 283.909L314.418 303.515L319.418 303.529ZM303.924 249.683L315.544 258.501L318.567 254.518L306.946 245.7L303.924 249.683ZM314.605 239.602L314.555 256.502L319.555 256.517L319.605 239.617L314.605 239.602ZM315.544 258.501L333.672 272.257L336.694 268.274L318.567 254.518L315.544 258.501ZM333.672 272.257L355.053 288.483L358.076 284.5L336.694 268.274L333.672 272.257ZM355.053 288.483L363.42 294.832L366.442 290.849L358.076 284.5L355.053 288.483ZM359.014 303.645L359.064 286.499L354.064 286.484L354.014 303.63L359.014 303.645ZM318.475 285.917L336.683 272.266L333.683 268.266L315.476 281.916L318.475 285.917ZM336.683 272.266L358.158 256.166L355.159 252.165L333.683 268.266L336.683 272.266ZM358.158 256.166L366.562 249.865L363.562 245.865L355.159 252.165L358.158 256.166ZM354.201 239.717L354.159 254.158L359.159 254.173L359.201 239.732L354.201 239.717ZM366.336 294.908L379.406 286.027L376.595 281.891L363.526 290.773L366.336 294.908ZM379.406 286.027L398.543 273.022L395.733 268.886L376.595 281.891L379.406 286.027ZM380.447 302.355L380.5 283.966L375.5 283.952L375.447 302.34L380.447 302.355ZM363.602 249.894L376.618 259.263L379.539 255.205L366.523 245.836L363.602 249.894ZM376.618 259.263L395.677 272.983L398.598 268.925L379.539 255.205L376.618 259.263ZM375.634 238.089L375.578 257.227L380.578 257.242L380.634 238.104L375.634 238.089ZM63.1187 274.847C63.6778 274.849 64.0817 275.018 64.2843 275.166C64.4895 275.316 64.344 275.308 64.3448 275.056L69.3447 275.071C69.3498 273.325 68.374 271.962 67.2334 271.128C66.09 270.293 64.6323 269.852 63.1332 269.847L63.1187 274.847ZM64.3448 275.056C64.3455 274.804 64.491 274.797 64.2849 274.946C64.0815 275.093 63.6766 275.259 63.1175 275.258L63.1029 280.258C64.6019 280.262 66.0622 279.829 67.2104 279.001C68.3559 278.174 69.3396 276.817 69.3447 275.071L64.3448 275.056ZM63.1175 275.258C62.5583 275.256 62.1544 275.087 61.9518 274.939C61.7466 274.789 61.8921 274.797 61.8914 275.049L56.8914 275.034C56.8863 276.78 57.8621 278.143 59.0028 278.977C60.1461 279.812 61.6038 280.253 63.1029 280.258L63.1175 275.258ZM61.8914 275.049C61.8906 275.301 61.7451 275.308 61.9512 275.159C62.1547 275.012 62.5595 274.846 63.1187 274.847L63.1332 269.847C61.6342 269.843 60.1739 270.276 59.0257 271.104C57.8802 271.931 56.8965 273.288 56.8914 275.034L61.8914 275.049ZM123.681 273.672C124.24 273.674 124.644 273.843 124.846 273.991C125.052 274.141 124.906 274.133 124.907 273.881L129.907 273.896C129.912 272.15 128.936 270.787 127.796 269.953C126.652 269.118 125.194 268.677 123.695 268.672L123.681 273.672ZM124.907 273.881C124.908 273.629 125.053 273.622 124.847 273.771C124.644 273.918 124.239 274.084 123.68 274.083L123.665 279.083C125.164 279.087 126.624 278.654 127.773 277.826C128.918 276.999 129.902 275.642 129.907 273.896L124.907 273.881ZM123.68 274.083C123.121 274.081 122.717 273.912 122.514 273.764C122.309 273.614 122.454 273.622 122.454 273.874L117.454 273.859C117.449 275.605 118.424 276.969 119.565 277.802C120.708 278.637 122.166 279.078 123.665 279.083L123.68 274.083ZM122.454 273.874C122.453 274.126 122.307 274.133 122.513 273.984C122.717 273.838 123.122 273.671 123.681 273.672L123.695 268.672C122.196 268.668 120.736 269.101 119.588 269.93C118.442 270.756 117.459 272.113 117.454 273.859L122.454 273.874ZM184.244 272.495C184.803 272.497 185.207 272.666 185.41 272.814C185.615 272.964 185.469 272.956 185.47 272.704L190.47 272.719C190.475 270.973 189.499 269.61 188.359 268.777C187.215 267.942 185.758 267.5 184.259 267.495L184.244 272.495ZM185.47 272.704C185.471 272.452 185.616 272.445 185.41 272.594C185.207 272.741 184.802 272.908 184.243 272.906L184.228 277.906C185.727 277.91 187.188 277.477 188.336 276.649C189.481 275.822 190.465 274.465 190.47 272.719L185.47 272.704ZM184.243 272.906C183.684 272.904 183.28 272.735 183.077 272.587C182.872 272.437 183.017 272.445 183.017 272.697L178.017 272.683C178.012 274.429 178.988 275.792 180.128 276.625C181.272 277.46 182.729 277.902 184.228 277.906L184.243 272.906ZM183.017 272.697C183.016 272.949 182.87 272.956 183.077 272.808C183.28 272.661 183.685 272.494 184.244 272.495L184.259 267.495C182.76 267.491 181.299 267.924 180.151 268.753C179.006 269.579 178.022 270.937 178.017 272.683L183.017 272.697ZM245.734 272.675C246.293 272.677 246.697 272.846 246.9 272.994C247.105 273.144 246.96 273.136 246.96 272.884L251.96 272.899C251.965 271.153 250.99 269.79 249.849 268.956C248.706 268.121 247.248 267.68 245.749 267.675L245.734 272.675ZM246.96 272.884C246.961 272.632 247.107 272.625 246.901 272.774C246.697 272.92 246.292 273.087 245.733 273.086L245.719 278.086C247.218 278.09 248.678 277.657 249.826 276.828C250.972 276.002 251.955 274.645 251.96 272.899L246.96 272.884ZM245.733 273.086C245.174 273.084 244.77 272.915 244.567 272.767C244.362 272.617 244.508 272.625 244.507 272.877L239.507 272.862C239.502 274.608 240.478 275.971 241.618 276.805C242.762 277.64 244.219 278.081 245.719 278.086L245.733 273.086ZM244.507 272.877C244.506 273.129 244.361 273.136 244.567 272.987C244.77 272.84 245.175 272.673 245.734 272.675L245.749 267.675C244.25 267.671 242.79 268.104 241.641 268.932C240.496 269.759 239.512 271.116 239.507 272.862L244.507 272.877ZM306.297 271.498C306.856 271.5 307.26 271.669 307.463 271.817C307.668 271.967 307.522 271.959 307.523 271.707L312.523 271.722C312.528 269.976 311.552 268.613 310.412 267.78C309.268 266.944 307.811 266.503 306.312 266.498L306.297 271.498ZM307.523 271.707C307.524 271.455 307.669 271.448 307.463 271.597C307.26 271.744 306.855 271.911 306.296 271.909L306.281 276.909C307.78 276.913 309.241 276.48 310.389 275.652C311.534 274.825 312.518 273.468 312.523 271.722L307.523 271.707ZM306.296 271.909C305.737 271.907 305.333 271.738 305.13 271.59C304.925 271.44 305.07 271.448 305.07 271.7L300.07 271.686C300.065 273.432 301.04 274.795 302.181 275.628C303.324 276.463 304.782 276.905 306.281 276.909L306.296 271.909ZM305.07 271.7C305.069 271.952 304.923 271.959 305.13 271.81C305.333 271.664 305.738 271.497 306.297 271.498L306.312 266.498C304.813 266.494 303.352 266.927 302.204 267.756C301.059 268.582 300.075 269.94 300.07 271.686L305.07 271.7ZM366.861 270.322C367.42 270.324 367.824 270.493 368.026 270.641C368.232 270.791 368.086 270.783 368.087 270.531L373.087 270.546C373.092 268.8 372.116 267.437 370.975 266.604C369.832 265.769 368.374 265.327 366.875 265.323L366.861 270.322ZM368.087 270.531C368.088 270.28 368.233 270.272 368.027 270.421C367.824 270.568 367.419 270.735 366.86 270.733L366.845 275.733C368.344 275.737 369.804 275.304 370.952 274.476C372.098 273.649 373.082 272.292 373.087 270.546L368.087 270.531ZM366.86 270.733C366.3 270.732 365.897 270.562 365.694 270.414C365.489 270.264 365.634 270.272 365.633 270.524L360.633 270.51C360.628 272.256 361.604 273.619 362.745 274.452C363.888 275.287 365.346 275.729 366.845 275.733L366.86 270.733ZM365.633 270.524C365.633 270.776 365.487 270.783 365.693 270.635C365.897 270.488 366.302 270.321 366.861 270.322L366.875 265.323C365.376 265.318 363.916 265.751 362.768 266.58C361.622 267.406 360.639 268.764 360.633 270.51L365.633 270.524Z" fill="black"/>
</svg>
