<svg width="402" height="530" viewBox="0 0 402 530" fill="none" xmlns="http://www.w3.org/2000/svg">
<path fill-rule="evenodd" clip-rule="evenodd" d="M68.0894 96.2634L59.9187 102.314C60.645 100.481 62.4244 96.3734 63.7317 94.6132C65.039 92.8529 66.0921 88.0122 66.4553 85.8119L71.9024 82.5115L72.9919 88.5623L68.0894 96.2634ZM151.431 6.05083C150.559 6.05083 143.805 8.25114 140.537 9.35129L139.447 11.5516L142.715 13.2018H153.61C156.878 13.2018 157.967 11.0015 160.691 10.4514C162.87 10.0114 166.683 8.06778 168.317 7.15099C167.046 6.78427 164.068 6.05083 162.325 6.05083H151.431Z" fill="#3D3029"/>
<path fill-rule="evenodd" clip-rule="evenodd" d="M57.1955 117.166C62.0979 112.399 72.7743 102.424 76.2605 100.664C77.1683 98.2803 78.9837 93.183 78.9837 91.8628V80.3112C78.0759 79.3944 76.6959 77.5608 78.439 77.5608C80.6179 77.5608 81.1626 78.1109 81.7073 77.5608C82.1431 77.1207 83.3415 76.2773 83.8862 75.9106C84.2493 75.7272 84.9756 75.1405 84.9756 74.2603C84.9756 73.1602 84.4309 72.6101 85.5203 72.6101C86.6098 72.6101 87.1545 72.06 89.3333 72.06H95.3252H99.6829C100.228 72.06 102.951 73.7103 101.317 70.9599C99.6829 68.2095 96.4146 63.2588 95.3252 61.0585C94.2358 58.8582 93.1463 57.7581 91.5122 56.6579C89.8781 55.5578 89.3333 56.6579 89.3333 55.0077C89.3333 53.3574 87.6992 40.7057 91.5122 37.4052C95.3252 34.1048 98.0488 25.3036 102.951 23.1033C107.854 20.903 107.309 21.453 112.211 20.3529C117.114 19.2527 120.927 19.2527 123.106 18.1526C125.285 17.0524 119.293 21.453 123.106 23.1033C126.919 24.7535 130.732 25.8536 132.366 25.3035C133.673 24.8635 135.089 21.8197 135.634 20.3529C144.894 21.453 151.431 22.5531 157.423 22.0031C163.415 21.453 166.683 18.1526 168.317 18.1526C169.624 18.1526 174.309 15.9523 176.488 14.8521H223.878C227.146 14.8521 223.333 13.2019 232.594 14.8521C241.854 16.5023 248.39 18.1526 250.569 18.1526C252.748 18.1526 250.024 17.6025 257.65 20.3529C265.276 23.1033 256.016 17.6025 271.813 25.3035C284.45 31.4643 292.331 33.0045 294.691 33.0045C295.054 32.8212 296.434 33.0045 299.049 35.2048C302.317 37.9552 306.13 39.6054 308.854 41.8058C311.577 44.0061 315.935 42.3558 319.748 46.2064C323.561 50.0569 323.561 50.607 326.285 53.3573C329.008 56.1077 329.008 55.5576 332.821 59.4082L340.992 67.6593C343.715 70.4097 346.439 72.0599 348.618 74.8103C350.797 77.5607 363.87 88.5622 366.049 91.8627C368.228 95.1631 372.041 99.0136 374.22 102.314C376.398 105.615 380.756 113.316 381.846 115.516C382.935 117.716 386.203 124.317 387.293 125.967C388.382 127.618 392.74 133.668 392.74 134.769C392.74 135.649 390.924 142.47 390.016 145.77L392.74 158.972L396.553 158.972L402 145.77V132.018C402 129.818 402 125.967 399.276 123.767C396.553 121.567 395.463 118.816 392.74 115.516C390.016 112.215 386.748 104.514 385.114 102.314C383.48 100.114 383.48 96.2633 380.756 93.5129C378.033 90.7625 370.407 84.7117 368.228 81.9613C366.049 79.2109 365.504 74.8103 363.87 74.8103C362.236 74.8103 363.87 73.7102 360.057 71.5099C356.244 69.3095 354.065 66.5592 352.431 64.9089C350.797 63.2587 349.707 62.7086 346.439 59.4082C343.171 56.1077 339.902 54.4575 338.813 53.3573C337.941 52.4772 335.545 50.4236 334.455 49.5068L326.285 41.8058C325.195 41.0723 322.363 39.3854 319.748 38.5053C317.133 37.6252 308.127 32.2711 303.951 29.7041C301.954 29.3374 297.633 28.2739 296.325 26.9537C295.018 25.6336 288.881 23.1032 285.976 22.003C282.707 20.7195 275.953 18.1526 275.081 18.1526C274.21 18.1526 252.566 12.2851 241.854 9.35128L210.805 3.85052C207.9 3.4838 201.872 2.64035 201 2.20029C199.911 1.65022 193.919 1.10014 189.561 0.550065C185.203 -1.0946e-05 183.569 1.65022 180.846 1.65022C178.122 1.65022 168.317 0.550065 165.593 0.550065C162.87 0.550065 155.244 1.10013 152.52 0.550065C150.341 0.110013 144.35 0 141.626 0C140.718 0.916786 138.576 2.97039 137.268 3.85052C135.961 4.73065 133.092 6.41755 131.821 7.15099C129.642 7.5177 125.176 8.47117 124.74 9.35129C124.304 10.2314 124.558 11.1849 124.74 11.5516C121.472 11.9183 114.717 12.7618 113.846 13.2018C112.756 13.7519 105.675 15.4021 104.041 17.0524C102.407 18.7026 90.4228 31.9044 90.4228 33.0046C90.4228 34.1047 86.6098 39.0554 86.6098 40.1555C86.6098 41.2557 84.9756 45.1062 84.9756 46.7565V54.4575C84.9756 55.5577 83.8862 59.4084 83.3415 61.0585C82.7968 62.7087 82.7967 63.8088 82.7967 64.909C82.7967 66.0091 74.0813 66.0091 73.5366 66.5592C72.9919 67.1093 71.3577 68.2094 70.813 69.8596C70.2683 71.5099 70.2683 73.7104 70.2683 74.2603C70.2683 74.7003 67.7263 75.5438 66.4553 75.9106C65.9106 76.2773 64.6033 77.1207 63.7317 77.5608C62.6423 78.1109 62.6423 79.7611 61.0081 83.6116C59.374 87.4622 55.0163 95.7133 53.9268 99.0138C52.8374 102.314 45.2114 110.565 44.6667 112.216C44.122 113.866 43.5772 113.866 41.9431 117.166C40.3089 120.467 38.1301 121.017 37.5854 122.667C37.0407 124.317 35.9516 127.618 35.9516 129.818C35.9516 132.018 35.9516 132.018 34.3171 134.769C32.6826 137.519 33.7724 137.519 33.2276 140.269C32.6829 143.02 32.1382 143.02 31.5935 146.32C31.0488 149.621 28.8699 151.821 26.6914 154.571C24.5129 157.322 25.6016 157.872 25.6016 160.072V167.773C25.6016 170.414 23.7859 173.274 22.878 174.374C21.6071 176.574 19.0651 181.415 19.0651 183.175C19.0651 185.376 15.7967 200.228 15.7967 201.328C15.7967 202.428 16.8862 218.38 16.8862 222.781V236.533C16.8862 238.733 19.0651 251.385 19.0651 255.235C19.0651 259.086 18.5204 262.386 19.0651 267.337C19.6098 272.288 20.1545 273.388 21.244 275.588C22.3334 277.788 23.9675 287.69 23.9675 289.34C23.9675 290.99 26.6914 297.041 28.87 299.791C30.6128 301.992 29.9593 305.476 29.4147 306.942C35.0434 319.961 46.6277 346.438 47.935 348.198C49.5692 350.398 52.2927 353.149 53.9269 354.249C55.561 355.349 55.561 357.549 56.1058 359.2C56.6505 360.85 57.1952 363.05 58.2846 365.251C59.374 367.451 61.0082 372.401 61.0082 374.052C61.0082 375.372 64.6396 379.002 66.4553 380.653L67.5447 380.878L70.2683 377.441L66.4553 374.052C66.0922 372.768 65.3659 369.871 65.3659 368.551C65.3659 366.901 65.9106 366.351 66.4553 364.7C66.8911 363.38 68.4526 363.05 69.1789 363.05L78.9837 366.351L81.5232 363.172C80.0706 362.255 75.8244 360.19 71.9025 359.75C67.0001 359.2 64.8212 356.449 63.7318 354.249C62.6423 352.049 59.9188 350.398 57.1952 345.998C54.4716 341.597 52.8375 342.147 51.748 338.847C50.6586 335.546 46.3009 327.845 43.5773 323.445C40.8537 319.044 41.3984 317.394 40.309 312.993C39.2196 308.593 35.4066 302.542 34.3171 300.892C33.2277 299.241 33.2277 294.841 33.2277 293.191C33.2277 291.54 29.4147 280.539 29.4147 277.788C29.4147 275.038 29.9596 265.687 26.6914 259.086C23.4232 252.485 26.6914 238.183 26.6914 230.482C26.6914 222.781 25.602 201.878 26.6914 195.277C27.7809 188.676 34.3174 162.823 35.9516 160.072C37.2589 157.872 50.6589 130.551 57.1955 117.166ZM68.0894 96.2634L59.9187 102.314C60.645 100.481 62.4244 96.3734 63.7317 94.6132C65.039 92.8529 66.0921 88.0122 66.4553 85.8119L71.9024 82.5115L72.9919 88.5623L68.0894 96.2634ZM151.431 6.05083C150.559 6.05083 143.805 8.25114 140.537 9.35129L139.447 11.5516L142.715 13.2018H153.61C156.878 13.2018 157.967 11.0015 160.691 10.4514C162.87 10.0114 166.683 8.06778 168.317 7.15099C167.046 6.78427 164.068 6.05083 162.325 6.05083H151.431Z" fill="#46413F"/>
<path d="M396.553 158.972L392.74 158.972C382.42 274.929 350.956 316.941 269.539 368.259C269.809 368.759 270.079 369.253 270.339 369.73C270.395 369.833 270.45 369.934 270.505 370.035C271.295 371.484 271.986 372.75 272.358 373.501C405.382 277.826 386.521 237.337 396.553 158.972Z" fill="#46413F"/>
<path d="M118.748 343.247L104.041 334.446C101.123 338.18 97.653 342.616 93.9329 347.363L96.4146 346.548L104.041 347.098L100.772 349.848C98.7751 350.215 94.7805 351.058 94.7805 351.499C94.7805 351.939 91.8753 354.249 90.4228 355.349L100.228 354.799C98.4119 355.899 94.6715 358.099 94.2358 358.099C93.6911 358.099 89.8781 358.649 88.7886 359.2C87.9171 359.64 85.1572 361.95 83.8862 363.05C86.1927 362.683 90.8058 362.06 90.8058 362.5C90.8058 362.94 84.6174 365.25 81.5232 366.351C82.674 367.084 84.8667 368.551 84.4309 368.551C83.8862 368.551 74.0813 377.352 73.5366 377.441C73.1008 377.512 79.8916 377.411 83.3415 377.352L69.1789 382.021L87.6614 394.954C88.1274 393.634 86.4282 383.403 85.5203 378.452C86.0398 378.636 87.1954 379.112 87.6614 379.552C88.1274 379.992 91.1491 387.437 92.6016 391.104L95.8699 386.153L92.6016 370.201L98.0488 379.552L100.228 375.152L100.772 368.001C100.046 365.067 98.7024 359.31 99.1382 359.75C99.574 360.19 102.225 366.167 103.496 369.101C104.585 366.35 106.764 360.74 106.764 360.3V351.499L108.943 359.2L109.909 360.3L118.748 343.247Z" fill="#5B5650"/>
<path d="M149.797 363.172C144.024 356.525 140.389 353.398 130.732 352.599L128.008 357.706L133.455 357.549C132.003 358.649 128.989 360.96 128.553 361.4C128.117 361.84 126.919 364.517 126.374 365.8L130.732 366.351L122.016 374.052L120.382 377.352L131.276 374.602C128.553 376.529 122.888 380.548 122.016 381.203C121.145 381.857 119.474 382.021 118.748 382.021C118.203 382.665 117.005 384.173 116.569 385.053C116.133 385.933 113.846 389.82 112.756 391.654L117.114 391.104C114.712 392.938 109.909 396.715 109.909 397.155C109.909 397.705 106.764 401.555 106.764 402.105C106.764 402.656 105.675 405.956 106.764 405.956C107.854 405.956 111.122 406.506 112.756 407.056C114.39 407.606 117.659 409.256 119.293 409.807C120.927 410.357 124.74 410.907 125.285 411.457C125.72 411.897 127.645 409.807 128.553 408.706C127.463 407.24 125.285 404.196 125.285 403.756C125.285 403.206 124.195 394.954 124.74 394.954C125.285 394.954 129.098 397.664 129.098 399.355C129.098 401.046 130.187 403.165 130.732 402.105C131.276 401.046 133.455 396.055 133.455 395.505C133.455 394.954 134 392.204 133.455 391.104C132.911 390.004 130.732 384.503 130.732 383.953C130.732 383.403 130.732 381.753 131.821 382.853C132.911 383.953 135.634 387.803 135.634 388.904C135.634 389.784 136.724 387.114 137.268 385.67C137.631 384.726 138.358 382.676 138.358 382.021C138.358 381.203 138.358 380.564 137.268 379.002C136.179 377.441 135.089 372.401 135.634 372.401C136.179 372.401 139.447 374.052 139.992 375.152C140.537 376.252 142.171 379.463 142.171 378.452C142.171 377.441 143.26 373.502 142.715 372.951C142.171 372.401 139.447 367.451 139.447 366.901C139.447 366.351 138.902 362.743 139.992 363.172C141.081 363.6 143.805 365.25 144.35 365.8C144.894 366.351 145.439 368.001 145.984 368.551C146.42 368.991 146.624 369.834 146.672 370.201L149.797 363.172Z" fill="#5B5650"/>
<path d="M177.033 364.7L158.512 359.75C157.431 362.479 155.787 366.617 154.351 370.201C155.065 369.761 160.691 368.184 163.415 367.451C162.688 368.184 161.018 369.761 160.146 370.201C159.057 370.751 157.226 371.851 155.789 372.401C154.351 372.951 153.065 374.052 153.065 375.702C153.065 377.352 152.52 379.002 153.065 379.002C153.61 379.002 156.333 378.452 156.878 378.452C157.314 378.452 160.328 377.719 161.781 377.352C162.688 377.535 164.286 378.122 163.415 379.002C162.325 380.102 156.137 380.384 155.244 381.203C154.351 382.021 154.154 381.753 153.61 382.853C153.065 383.953 152.52 385.67 151.976 385.67C151.54 385.67 150.705 386.726 150.341 387.253V387.803C149.978 387.803 149.47 387.914 150.341 388.354C151.431 388.904 155.789 388.354 156.878 388.904C157.967 389.454 158.316 389.454 156.333 391.654C154.351 393.854 153.065 396.055 150.886 397.155C148.707 398.255 148.564 397.705 147.618 399.905C146.672 402.105 146.672 402.656 146.672 403.756V407.056C147.532 406.689 149.47 405.846 150.341 405.406C151.213 404.966 153.378 404.856 154.351 404.856C154.285 405.615 153.719 407.292 151.976 407.921C149.797 408.706 147.904 409.807 146.672 410.907C145.439 412.007 145.081 412.557 144.715 413.657C144.35 414.757 143.26 414.757 144.35 415.582C145.439 416.407 144.35 415.857 145.984 416.407C147.618 416.958 142.171 416.958 149.252 417.508C156.333 418.058 155.244 418.058 157.967 418.608C160.691 419.158 162.325 419.158 162.87 419.158H165.049C166.138 417.508 164.504 416.407 162.87 414.757C161.236 413.107 159.057 412.557 158.512 410.907C157.967 409.256 156.878 404.856 158.512 405.956C160.146 407.056 165.049 409.256 165.049 410.357C166.138 410.907 165.594 408.706 166.138 407.056C166.683 405.406 166.683 404.856 166.138 403.756C165.594 402.656 163.959 402.656 163.415 401.005C162.87 399.355 164.504 402.656 161.781 397.705C159.602 391.654 159.602 391.104 160.146 391.104C160.691 391.104 161.78 390.004 163.415 391.654C165.049 393.304 165.594 392.204 166.138 394.404C166.683 396.605 166.683 397.705 167.228 397.705C167.772 397.705 167.772 397.705 168.317 396.055C168.862 394.404 168.862 394.404 168.862 393.304C168.862 392.204 168.862 390.127 168.317 390.127C167.772 390.127 167.228 388.904 166.138 387.803C165.049 386.703 165.594 386.286 165.049 385.67C164.504 385.053 162.87 383.684 163.959 382.853C165.049 382.021 163.959 380.652 165.049 380.652C166.138 380.652 166.683 380.384 167.228 381.203C167.772 382.021 166.138 380.036 168.317 382.853C170.496 385.67 171.041 385.885 171.041 383.953C171.041 382.021 171.041 380.652 170.496 379.552C169.951 378.452 169.951 377.352 169.407 375.702C168.862 374.052 168.317 373.181 167.228 372.401C166.138 371.621 166.138 369.651 166.138 369.101C167.228 368.551 167.772 368.001 168.862 369.101C169.951 370.201 169.951 373.502 171.041 374.052C171.912 374.492 173.22 375.702 173.764 376.252L174.854 376.802L177.033 364.7Z" fill="#5B5650"/>
<path d="M190.65 359.75C188.472 359.75 185.022 362.031 183.569 363.172L183.257 373.501L191.195 368.551C189.016 371.851 184.659 378.672 184.659 379.552C184.659 380.652 185.203 382.303 185.748 382.303C186.293 382.303 187.927 381.203 188.472 381.203C189.016 381.203 191.195 380.102 191.195 380.652C191.195 381.203 185.748 386.703 185.748 387.253C185.748 387.803 185.203 388.904 184.659 390.554C184.223 391.874 184.477 393.671 184.659 394.404C185.385 393.854 187.055 392.754 187.927 392.754C189.016 392.754 189.561 392.204 190.65 392.754C191.74 393.304 194.463 393.854 191.74 395.505C189.016 397.155 187.382 398.805 186.837 399.355C186.293 399.905 185.748 400.455 185.748 401.005C185.748 401.555 185.203 401.555 184.659 402.656C184.114 403.756 183.569 406.506 183.569 407.056C183.569 407.606 185.748 405.956 186.837 405.956C187.927 405.956 189.561 404.306 190.106 404.856C190.65 405.406 192.285 405.956 192.285 406.506C192.285 407.056 192.285 407.606 190.106 408.706C187.927 409.807 187.927 409.807 185.748 412.007C183.569 414.207 183.569 413.657 182.48 415.857C181.39 418.058 181.39 418.058 181.935 419.158C182.48 420.258 180.846 419.708 184.114 420.258C187.382 420.808 189.016 420.808 193.919 420.808C198.821 420.808 199.366 420.258 202.089 420.808C205.902 420.258 205.902 418.608 204.813 417.508C203.724 416.407 202.634 415.857 201.545 414.757C200.455 413.657 199.366 413.107 198.276 411.457C197.187 409.807 195.008 408.785 195.008 407.921C195.008 407.056 193.919 407.056 195.553 406.506C197.187 405.956 197.732 405.092 199.366 406.506C201 407.921 202.089 408.156 203.179 409.256C204.268 410.357 204.268 410.907 204.813 411.457L205.902 412.557C206.266 412.19 206.774 411.017 205.902 409.256C204.813 407.056 203.724 406.506 203.724 404.856C203.724 403.206 204.813 403.756 203.179 401.555C201.545 399.355 200.455 398.805 199.366 398.255C198.276 397.705 198.821 397.155 197.732 396.605C196.642 396.055 195.008 393.854 196.098 393.304C197.187 392.754 196.642 391.654 198.276 393.304C199.911 394.954 201.545 394.954 202.089 396.055C202.634 397.155 202.089 395.505 203.179 397.705C204.268 399.905 205.358 402.656 205.358 399.905C205.358 397.155 204.871 397.705 204.569 396.055C204.268 394.404 203.724 394.954 203.724 393.854C203.724 392.754 203.724 393.304 203.179 392.204C202.634 391.104 202.634 390.554 201.545 389.454C200.455 388.354 199.366 387.937 197.187 385.67C195.008 383.403 194.463 382.29 195.008 382.021L195.027 382.012C195.578 381.74 196.655 381.209 197.732 381.753C198.821 382.303 198.276 383.403 199.911 383.953C201.545 384.503 202.089 384.436 202.634 385.053C203.179 385.67 204.268 385.053 203.724 383.403C203.179 381.753 203.179 380.102 202.634 379.002C202.089 377.902 202.089 377.047 201 375.702C199.911 374.357 199.366 373.502 198.276 371.851C197.187 370.201 196.098 370.201 197.187 369.651C198.276 369.101 199.911 368.551 200.455 369.101C201 369.651 201.545 369.651 202.634 370.201C203.724 370.751 203.115 370.201 204.236 371.301C205.358 372.401 205.358 372.401 205.902 373.501C206.338 374.382 206.928 375.335 207.168 375.702C207.056 373.113 206.992 371.528 206.992 371.301C206.992 369.651 206.447 363.171 206.447 362.5C206.447 361.829 204.813 360.3 203.724 359.75C202.634 359.2 201 359.75 198.276 359.75H190.65Z" fill="#5B5650"/>
<path d="M223.878 353.149C222.571 353.149 217.523 356.082 215.163 357.549L214.841 371.851C214.853 371.301 224.967 359.75 225.512 359.75C226.057 359.75 224.967 363.05 223.878 364.7C222.789 366.351 222.789 367.451 221.154 369.101C219.52 370.751 218.976 370.201 218.431 371.851C217.886 373.502 220.61 376.802 222.244 376.252C223.878 375.702 224.423 373.501 225.512 373.501C226.602 373.501 223.878 378.452 222.244 380.102C220.61 381.753 219.52 383.336 219.52 384.503C219.52 385.67 218.976 387.253 220.61 388.354C222.244 389.454 223.878 387.803 225.512 387.253C227.146 386.703 229.325 386.286 229.87 385.67C230.415 385.053 229.325 388.354 227.146 390.554C224.967 392.754 224.423 396.605 223.333 398.255C222.244 399.905 222.244 403.206 222.244 403.756C222.244 404.306 221.699 409.492 223.333 408.706C224.641 408.078 228.236 405.877 229.87 404.856C231.141 405.065 233.356 405.972 232.049 407.921C230.415 410.357 230.959 410.357 228.236 412.557C225.512 414.757 225.512 414.207 225.512 415.857C225.512 417.508 224.423 416.407 227.146 417.508C229.87 418.608 230.959 418.608 233.138 418.058C235.317 417.508 235.862 417.508 237.496 417.508C239.13 417.508 241.854 416.958 242.398 416.407C243.488 415.857 245.122 414.757 242.943 413.657C240.764 412.557 239.13 412.007 238.041 410.357C236.951 408.706 236.407 408.156 235.862 405.956C243.488 407.921 242.943 403.756 242.398 402.656C241.854 401.555 240.22 401.005 239.13 399.355L236.951 396.055C235.862 394.404 234.228 393.854 233.138 392.204C232.267 390.884 232.049 388.72 232.049 387.803C231.686 387.253 231.613 386.483 234.228 387.803C237.496 389.454 238.585 391.104 239.13 391.654C239.675 392.204 240.22 389.454 239.675 388.354C239.13 387.253 238.041 386.153 237.496 384.503C236.951 382.853 237.496 383.39 234.772 382.021C232.049 380.653 230.959 381.753 229.87 379.552C228.781 377.352 228.236 374.602 228.236 374.052C228.236 373.501 226.602 372.951 229.325 373.501C232.049 374.052 228.781 371.301 233.138 375.702C236.624 379.222 238.585 380.102 239.13 380.102C237.859 378.819 235.099 375.812 234.228 374.052C233.138 371.851 234.228 371.301 232.049 369.651C229.87 368.001 229.325 366.901 228.236 365.8C227.146 364.7 227.146 363.843 227.146 363.172C227.146 362.5 226.602 362.5 228.236 361.95C234.337 363.71 238.682 370.384 240.092 373.501C239.523 370.516 238.782 367.579 238.041 363.172C236.951 356.692 234.228 357.549 233.138 355.899C232.049 354.249 225.512 353.149 223.878 353.149Z" fill="#5B5650"/>
<path d="M256.561 348.198C255.689 348.198 247.119 353.332 242.943 355.899L245.122 364.975L250.756 357.549C251.573 358.609 253.051 360.973 252.432 361.95C251.659 363.171 249.726 365.8 249.726 367.451C249.726 369.101 248.935 369.101 248.935 370.201C249.726 371.851 253.015 367.451 253.698 367.451C254.382 367.451 254.693 364.15 256.561 365.8C258.429 367.451 259.285 368.001 257.65 370.201C256.016 372.401 254.965 372.402 253.698 374.052C252.432 375.702 250.756 378.184 250.756 380.102C250.756 381.637 255.352 379.275 257.65 377.902C257.625 377.535 257.745 377.022 258.429 377.902C259.285 380.102 260.298 378.989 258.429 382.021C256.561 385.053 256.016 385.053 255.472 386.703C254.927 388.354 255.472 391.104 255.472 391.654C255.472 392.065 257.373 392.668 256.735 393.194L260.919 390.554C261.1 390.371 261.463 390.334 261.463 391.654C261.463 393.304 260.919 395.505 260.919 396.055C260.919 396.605 260.374 397.155 260.919 401.005C261.463 404.856 262.008 397.155 262.553 396.605C262.989 396.165 264.187 394.588 264.732 393.854C264.005 397.705 262.553 405.516 262.553 405.956C265.821 407.056 268 405.956 269.634 405.956C271.268 405.956 271.268 405.956 272.358 404.856C273.447 403.756 274.537 403.756 276.715 402.656C278.459 401.775 272.721 397.521 269.634 395.505C268.726 393.854 267.02 390.554 267.455 390.554C268 390.554 273.992 391.104 274.537 391.654C275.081 392.204 275.626 393.304 276.715 392.754C277.805 392.204 276.171 388.354 275.081 387.803C273.992 387.253 275.081 386.153 272.358 385.053C269.634 383.953 268 382.584 265.821 382.303C263.642 382.021 262.553 382.303 262.553 380.652C262.553 379.002 257.65 375.702 262.553 376.252C267.455 376.802 268 378.452 269.634 379.002C271.268 379.552 271.268 379.552 272.358 380.102C273.447 380.653 271.813 374.602 270.179 374.602C268.545 374.602 262.553 374.052 262.553 373.501C262.553 372.951 260.919 372.401 260.919 371.301C260.919 370.201 259.285 370.201 259.829 369.101C260.374 368.001 261.463 366.351 263.642 367.451L268 369.651C267.637 369.101 266.584 367.781 265.276 366.901C263.642 365.8 263.642 365.25 260.919 364.7C258.74 364.26 256.379 363.498 255.472 363.172C255.108 362.948 254.491 362.06 254.927 360.3C261.899 360.3 266.412 363.417 267.797 364.975C267.187 363.786 266.67 362.718 266.366 361.95C265.276 359.2 262.008 353.149 261.463 351.499C260.919 349.848 257.65 348.198 256.561 348.198Z" fill="#5B5650"/>
<path d="M87.6614 394.954L90.8058 397.155L101.07 377.352L104.041 371.621L109.909 360.3L108.943 359.2L106.764 351.499V360.3C106.764 360.74 104.585 366.35 103.496 369.101C102.225 366.167 99.574 360.19 99.1382 359.75C98.7024 359.31 100.046 365.067 100.772 368.001L100.228 375.152L98.0488 379.552L92.6016 370.201L95.8699 386.153L92.6016 391.104C91.1491 387.437 88.1274 379.992 87.6614 379.552C87.1954 379.112 86.0398 378.636 85.5203 378.452C86.4282 383.403 88.1274 393.634 87.6614 394.954Z" fill="#4A4646"/>
<path d="M67.5447 380.878L69.1789 382.021L83.3415 377.352C79.8916 377.411 73.1008 377.512 73.5366 377.441C74.0813 377.352 83.8862 368.551 84.4309 368.551C84.8667 368.551 82.674 367.084 81.5232 366.351C84.6174 365.25 90.8058 362.94 90.8058 362.5C90.8058 362.06 86.1927 362.683 83.8862 363.05C85.1572 361.95 87.9171 359.64 88.7886 359.2C89.8781 358.649 93.6911 358.099 94.2358 358.099C94.6715 358.099 98.4119 355.899 100.228 354.799L90.4228 355.349C91.8753 354.249 94.7805 351.939 94.7805 351.499C94.7805 351.058 98.7751 350.215 100.772 349.848L104.041 347.098L96.4146 346.548L93.9329 347.363C85.2108 358.494 75.1145 371.339 67.5447 380.878Z" fill="#4A4646"/>
<path d="M123.106 366.901L103.496 404.856L126.374 415.857L137.813 390.127L144.715 374.602L146.672 370.201C146.624 369.834 146.42 368.991 145.984 368.551C145.439 368.001 144.894 366.351 144.35 365.8C143.805 365.25 141.081 363.6 139.992 363.172C138.902 362.743 139.447 366.351 139.447 366.901C139.447 367.451 142.171 372.401 142.715 372.951C143.26 373.502 142.171 377.441 142.171 378.452C142.171 379.463 140.537 376.252 139.992 375.152C139.447 374.052 136.179 372.401 135.634 372.401C135.089 372.401 136.179 377.441 137.268 379.002C138.358 380.564 138.358 381.203 138.358 382.021C138.358 382.676 137.631 384.726 137.268 385.67C136.724 387.114 135.634 389.784 135.634 388.904C135.634 387.803 132.911 383.953 131.821 382.853C130.732 381.753 130.732 383.403 130.732 383.953C130.732 384.503 132.911 390.004 133.455 391.104C134 392.204 133.455 394.954 133.455 395.505C133.455 396.055 131.276 401.046 130.732 402.105C130.187 403.165 129.098 401.046 129.098 399.355C129.098 397.664 125.285 394.954 124.74 394.954C124.195 394.954 125.285 403.206 125.285 403.756C125.285 404.196 127.463 407.24 128.553 408.706C127.645 409.807 125.72 411.897 125.285 411.457C124.74 410.907 120.927 410.357 119.293 409.807C117.659 409.256 114.39 407.606 112.756 407.056C111.122 406.506 107.854 405.956 106.764 405.956C105.675 405.956 106.764 402.656 106.764 402.105C106.764 401.555 109.909 397.705 109.909 397.155C109.909 396.715 114.712 392.938 117.114 391.104L112.756 391.654C113.846 389.82 116.133 385.933 116.569 385.053C117.005 384.173 118.203 382.665 118.748 382.021C119.474 382.021 121.145 381.857 122.016 381.203C122.888 380.548 128.553 376.529 131.276 374.602L120.382 377.352L122.016 374.052L130.732 366.351L126.374 365.8C126.919 364.517 128.117 361.84 128.553 361.4C128.989 360.96 132.003 358.649 133.455 357.549L128.008 357.706L123.106 366.901Z" fill="#4A4646"/>
<path d="M140.537 419.158C151.397 419.205 156.867 420.895 166.138 425.209L170.694 399.905L174.061 381.203L174.854 376.802L173.764 376.252C173.22 375.702 171.912 374.492 171.041 374.052C169.951 373.502 169.951 370.201 168.862 369.101C167.772 368.001 167.228 368.551 166.138 369.101C166.138 369.651 166.138 371.621 167.228 372.401C168.317 373.181 168.862 374.052 169.407 375.702C169.951 377.352 169.951 378.452 170.496 379.552C171.041 380.652 171.041 382.021 171.041 383.953C171.041 385.885 170.496 385.67 168.317 382.853C166.138 380.036 167.772 382.021 167.228 381.203C166.683 380.384 166.138 380.652 165.049 380.652C163.959 380.652 165.049 382.021 163.959 382.853C162.87 383.684 164.504 385.053 165.049 385.67C165.594 386.286 165.049 386.703 166.138 387.803C167.228 388.904 167.772 390.127 168.317 390.127C168.862 390.127 168.862 392.204 168.862 393.304C168.862 394.404 168.862 394.404 168.317 396.055C167.772 397.705 167.772 397.705 167.228 397.705C166.683 397.705 166.683 396.605 166.138 394.404C165.594 392.204 165.049 393.304 163.415 391.654C161.78 390.004 160.691 391.104 160.146 391.104C159.602 391.104 159.602 391.654 161.781 397.705C164.504 402.656 162.87 399.355 163.415 401.005C163.959 402.656 165.594 402.656 166.138 403.756C166.683 404.856 166.683 405.406 166.138 407.056C165.594 408.706 166.138 410.907 165.049 410.357C165.049 409.256 160.146 407.056 158.512 405.956C156.878 404.856 157.967 409.256 158.512 410.907C159.057 412.557 161.236 413.107 162.87 414.757C164.504 416.407 166.138 417.508 165.049 419.158H162.87C162.325 419.158 160.691 419.158 157.967 418.608C155.244 418.058 156.333 418.058 149.252 417.508C142.171 416.958 147.618 416.958 145.984 416.407C144.35 415.857 145.439 416.407 144.35 415.582C143.26 414.757 144.35 414.757 144.715 413.657C145.081 412.557 145.439 412.007 146.672 410.907C147.904 409.807 149.797 408.706 151.976 407.921C153.719 407.292 154.285 405.615 154.351 404.856C153.378 404.856 151.213 404.966 150.341 405.406C149.47 405.846 147.532 406.689 146.672 407.056V403.756C146.672 402.656 146.672 402.105 147.618 399.905C148.564 397.705 148.707 398.255 150.886 397.155C153.065 396.055 154.351 393.854 156.333 391.654C158.316 389.454 157.967 389.454 156.878 388.904C155.789 388.354 151.431 388.904 150.341 388.354C149.47 387.914 149.978 387.803 150.341 387.803V387.253C150.705 386.726 151.54 385.67 151.976 385.67C152.52 385.67 153.065 383.953 153.61 382.853C154.154 381.753 154.351 382.021 155.244 381.203C156.137 380.384 162.325 380.102 163.415 379.002C164.286 378.122 162.688 377.535 161.781 377.352C160.328 377.719 157.314 378.452 156.878 378.452C156.333 378.452 153.61 379.002 153.065 379.002C152.52 379.002 153.065 377.352 153.065 375.702C153.065 374.052 154.351 372.951 155.789 372.401C157.226 371.851 159.057 370.751 160.146 370.201C161.018 369.761 162.688 368.184 163.415 367.451C160.691 368.184 155.065 369.761 154.351 370.201C152.893 373.84 151.65 376.909 151.431 377.352L140.537 419.158Z" fill="#4A4646"/>
<path d="M183.024 381.203C183.024 381.221 183.02 381.265 183.013 381.333L179.211 423.558L209.42 425.209C208.691 409.415 207.863 391.353 207.387 380.652C207.302 378.752 207.228 377.084 207.168 375.702C206.928 375.335 206.338 374.382 205.902 373.501C205.358 372.401 205.358 372.401 204.236 371.301C203.115 370.201 203.724 370.751 202.634 370.201C201.545 369.651 201 369.651 200.455 369.101C199.911 368.551 198.276 369.101 197.187 369.651C196.098 370.201 197.187 370.201 198.276 371.851C199.366 373.502 199.911 374.357 201 375.702C202.089 377.047 202.089 377.902 202.634 379.002C203.179 380.102 203.179 381.753 203.724 383.403C204.268 385.053 203.179 385.67 202.634 385.053C202.089 384.436 201.545 384.503 199.911 383.953C198.276 383.403 198.821 382.303 197.732 381.753C196.655 381.209 195.578 381.74 195.027 382.012L195.008 382.021C194.463 382.29 195.008 383.403 197.187 385.67C199.366 387.937 200.455 388.354 201.545 389.454C202.634 390.554 202.634 391.104 203.179 392.204C203.724 393.304 203.724 392.754 203.724 393.854C203.724 394.954 204.268 394.404 204.569 396.055C204.871 397.705 205.358 397.155 205.358 399.905C205.358 402.656 204.268 399.905 203.179 397.705C202.089 395.505 202.634 397.155 202.089 396.055C201.545 394.954 199.911 394.954 198.276 393.304C196.642 391.654 197.187 392.754 196.098 393.304C195.008 393.854 196.642 396.055 197.732 396.605C198.821 397.155 198.276 397.705 199.366 398.255C200.455 398.805 201.545 399.355 203.179 401.555C204.813 403.756 203.724 403.206 203.724 404.856C203.724 406.506 204.813 407.056 205.902 409.256C206.774 411.017 206.266 412.19 205.902 412.557L204.813 411.457C204.268 410.907 204.268 410.357 203.179 409.256C202.089 408.156 201 407.921 199.366 406.506C197.732 405.092 197.187 405.956 195.553 406.506C193.919 407.056 195.008 407.056 195.008 407.921C195.008 408.785 197.187 409.807 198.276 411.457C199.366 413.107 200.455 413.657 201.545 414.757C202.634 415.857 203.724 416.407 204.813 417.508C205.902 418.608 205.902 420.258 202.089 420.808C199.366 420.258 198.821 420.808 193.919 420.808C189.016 420.808 187.382 420.808 184.114 420.258C180.846 419.708 182.48 420.258 181.935 419.158C181.39 418.058 181.39 418.058 182.48 415.857C183.569 413.657 183.569 414.207 185.748 412.007C187.927 409.807 187.927 409.807 190.106 408.706C192.285 407.606 192.285 407.056 192.285 406.506C192.285 405.956 190.65 405.406 190.106 404.856C189.561 404.306 187.927 405.956 186.837 405.956C185.748 405.956 183.569 407.606 183.569 407.056C183.569 406.506 184.114 403.756 184.659 402.656C185.203 401.555 185.748 401.555 185.748 401.005C185.748 400.455 186.293 399.905 186.837 399.355C187.382 398.805 189.016 397.155 191.74 395.505C194.463 393.854 191.74 393.304 190.65 392.754C189.561 392.204 189.016 392.754 187.927 392.754C187.055 392.754 185.385 393.854 184.659 394.404C184.477 393.671 184.223 391.874 184.659 390.554C185.203 388.904 185.748 387.803 185.748 387.253C185.748 386.703 191.195 381.203 191.195 380.652C191.195 380.102 189.016 381.203 188.472 381.203C187.927 381.203 186.293 382.303 185.748 382.303C185.203 382.303 184.659 380.652 184.659 379.552C184.659 378.672 189.016 371.851 191.195 368.551L183.257 373.501L183.024 381.203Z" fill="#4A4646"/>
<path d="M245.667 406.506C244.033 401.555 241.309 382.853 240.764 377.902C240.68 377.135 240.582 376.408 240.474 375.702C240.358 374.951 240.23 374.225 240.092 373.501C238.682 370.384 234.337 363.71 228.236 361.95C226.602 362.5 227.146 362.5 227.146 363.172C227.146 363.843 227.146 364.7 228.236 365.8C229.325 366.901 229.87 368.001 232.049 369.651C234.228 371.301 233.138 371.851 234.228 374.052C235.099 375.812 237.859 378.819 239.13 380.102C238.585 380.102 236.624 379.222 233.138 375.702C228.781 371.301 232.049 374.052 229.325 373.501C226.602 372.951 228.236 373.501 228.236 374.052C228.236 374.602 228.781 377.352 229.87 379.552C230.959 381.753 232.049 380.653 234.772 382.021C237.496 383.39 236.951 382.853 237.496 384.503C238.041 386.153 239.13 387.253 239.675 388.354C240.22 389.454 239.675 392.204 239.13 391.654C238.585 391.104 237.496 389.454 234.228 387.803C231.613 386.483 231.686 387.253 232.049 387.803C232.049 388.72 232.267 390.884 233.138 392.204C234.228 393.854 235.862 394.404 236.951 396.055L239.13 399.355C240.22 401.005 241.854 401.555 242.398 402.656C242.943 403.756 243.488 407.921 235.862 405.956C236.407 408.156 236.951 408.706 238.041 410.357C239.13 412.007 240.764 412.557 242.943 413.657C245.122 414.757 243.488 415.857 242.398 416.407C241.854 416.958 239.13 417.508 237.496 417.508C235.862 417.508 235.317 417.508 233.138 418.058C230.959 418.608 229.87 418.608 227.146 417.508C224.423 416.407 225.512 417.508 225.512 415.857C225.512 414.207 225.512 414.757 228.236 412.557C230.959 410.357 230.415 410.357 232.049 407.921C233.356 405.972 231.141 405.065 229.87 404.856C228.236 405.877 224.641 408.078 223.333 408.706C221.699 409.492 222.244 404.306 222.244 403.756C222.244 403.206 222.244 399.905 223.333 398.255C224.423 396.605 224.967 392.754 227.146 390.554C229.325 388.354 230.415 385.053 229.87 385.67C229.325 386.286 227.146 386.703 225.512 387.253C223.878 387.803 222.244 389.454 220.61 388.354C218.976 387.253 219.52 385.67 219.52 384.503C219.52 383.336 220.61 381.753 222.244 380.102C223.878 378.452 226.602 373.501 225.512 373.501C224.423 373.501 223.878 375.702 222.244 376.252C220.61 376.802 217.886 373.502 218.431 371.851C218.976 370.201 219.52 370.751 221.154 369.101C222.789 367.451 222.789 366.351 223.878 364.7C224.967 363.05 226.057 359.75 225.512 359.75C224.967 359.75 214.853 371.301 214.841 371.851L214.618 381.753C214.97 382.465 216.535 405.545 217.697 423.558C226.583 420.664 232.364 419.301 249.726 419.158C248.016 413.717 246.337 408.537 245.667 406.506Z" fill="#4A4646"/>
<path d="M247.301 374.052L258.429 415.857C262.346 413.657 270.397 409.256 271.268 409.256C272.14 409.256 276.715 407.79 278.894 407.056L286.958 407.921C282.924 397.934 273.219 375.24 272.358 373.501C271.986 372.75 271.295 371.484 270.505 370.035C270.45 369.934 270.395 369.833 270.339 369.73C270.079 369.253 269.809 368.759 269.539 368.259C268.939 367.152 268.332 366.018 267.797 364.975C266.412 363.417 261.899 360.3 254.927 360.3C254.491 362.06 255.108 362.948 255.472 363.172C256.379 363.498 258.74 364.26 260.919 364.7C263.642 365.25 263.642 365.8 265.276 366.901C266.584 367.781 267.637 369.101 268 369.651L263.642 367.451C261.463 366.351 260.374 368.001 259.829 369.101C259.285 370.201 260.919 370.201 260.919 371.301C260.919 372.401 262.553 372.951 262.553 373.501C262.553 374.052 268.545 374.602 270.179 374.602C271.813 374.602 273.447 380.653 272.358 380.102C271.268 379.552 271.268 379.552 269.634 379.002C268 378.452 267.455 376.802 262.553 376.252C257.65 375.702 262.553 379.002 262.553 380.652C262.553 382.303 263.642 382.021 265.821 382.303C268 382.584 269.634 383.953 272.358 385.053C275.081 386.153 273.992 387.253 275.081 387.803C276.171 388.354 277.805 392.204 276.715 392.754C275.626 393.304 275.081 392.204 274.537 391.654C273.992 391.104 268 390.554 267.455 390.554C267.02 390.554 268.726 393.854 269.634 395.505C272.721 397.521 278.459 401.775 276.715 402.656C274.537 403.756 273.447 403.756 272.358 404.856C271.268 405.956 271.268 405.956 269.634 405.956C268 405.956 265.821 407.056 262.553 405.956C262.553 405.516 264.005 397.705 264.732 393.854C264.187 394.588 262.989 396.165 262.553 396.605C262.008 397.155 261.463 404.856 260.919 401.005C260.374 397.155 260.919 396.605 260.919 396.055C260.919 395.505 261.463 393.304 261.463 391.654C261.463 390.334 261.1 390.371 260.919 390.554L256.735 393.194C256.69 393.231 256.633 393.268 256.561 393.304L256.735 393.194C257.373 392.668 255.472 392.065 255.472 391.654C255.472 391.104 254.927 388.354 255.472 386.703C256.016 385.053 256.561 385.053 258.429 382.021C260.298 378.989 259.285 380.102 258.429 377.902C257.745 377.022 257.625 377.535 257.65 377.902C255.352 379.275 250.756 381.637 250.756 380.102C250.756 378.184 252.432 375.702 253.698 374.052C254.965 372.402 256.016 372.401 257.65 370.201C259.285 368.001 258.429 367.451 256.561 365.8C254.693 364.15 254.382 367.451 253.698 367.451C253.015 367.451 249.726 371.851 248.935 370.201C248.935 369.101 249.726 369.101 249.726 367.451C249.726 365.8 251.659 363.171 252.432 361.95C253.051 360.973 251.573 358.609 250.756 357.549L245.122 364.975L247.301 374.052Z" fill="#4A4646"/>
<path d="M90.8058 397.155L87.6614 394.954L69.1789 382.021L67.5447 380.878C66.1846 382.591 64.9061 384.199 63.7318 385.67C65.1843 385.464 68.1983 385.273 68.6341 386.153C69.1789 387.253 70.8131 389.454 71.9025 390.554L76.8049 395.505C77.8943 396.605 78.9837 396.055 80.6179 397.155C82.252 398.255 86.6476 399.355 87.1545 399.905C87.56 400.345 88.4129 400.849 88.7886 401.046L90.8058 397.155Z" fill="#4C4947"/>
<path d="M68.6341 386.153C68.1983 385.273 65.1843 385.464 63.7318 385.67C62.6214 387.061 61.6043 388.33 60.6993 389.454C61.347 389.82 62.8602 390.664 63.7318 391.104L64.8211 391.654C65.0027 392.021 65.6927 393.084 67 394.404C68.6341 396.055 68.6341 395.505 70.813 397.155C72.9919 398.805 71.9025 398.255 75.1707 399.355C78.439 400.455 78.9837 401.555 80.6179 402.105C81.9252 402.546 84.4309 404.856 85.5203 405.956L88.7886 401.046C88.4129 400.849 87.56 400.345 87.1545 399.905C86.6476 399.355 82.252 398.255 80.6179 397.155C78.9837 396.055 77.8943 396.605 76.8049 395.505L71.9025 390.554C70.8131 389.454 69.1789 387.253 68.6341 386.153Z" fill="#BD8C64"/>
<path d="M85.5203 405.956C84.4309 404.856 81.9252 402.546 80.6179 402.105C78.9837 401.555 78.439 400.455 75.1707 399.355C71.9025 398.255 72.9919 398.805 70.813 397.155C68.6341 395.505 68.6341 396.055 67 394.404C65.6927 393.084 65.0027 392.021 64.8211 391.654L63.7318 391.104C62.8602 390.664 61.347 389.82 60.6993 389.454C59.8524 390.505 59.1038 391.429 58.4692 392.204C59.1339 392.387 60.8992 393.194 62.6423 394.954C64.8211 397.155 65.9105 398.805 67.5447 399.355C69.1789 399.905 68.6341 399.437 70.813 401.046C72.9919 402.656 72.4472 402.656 74.0813 403.756C76.6959 405.516 81.7073 408.523 83.8862 409.807L85.5203 405.956Z" fill="#4C4947"/>
<path d="M56.1058 394.954L82.252 413.657L83.8862 409.807C81.7073 408.523 76.6959 405.516 74.0813 403.756C72.4472 402.656 72.9919 402.656 70.813 401.046C68.6341 399.437 69.1789 399.905 67.5447 399.355C65.9105 398.805 64.8211 397.155 62.6423 394.954C60.8992 393.194 59.1339 392.387 58.4692 392.204C57.0811 393.9 56.2385 394.887 56.1058 394.954Z" fill="#BD8C64"/>
<path d="M126.374 415.857L103.496 404.856L101.862 407.921C102.588 408.549 104.803 409.917 107.854 410.357C108.943 410.907 109.909 411.457 110.577 412.007C111.245 412.557 111.667 413.107 112.756 413.657C113.846 414.207 113.846 414.757 115.48 416.407C117.114 418.058 117.659 417.508 118.748 417.508C119.837 417.508 125.285 418.608 125.863 419.158L126.374 415.857Z" fill="#4C4947"/>
<path d="M125.863 419.158C125.285 418.608 119.837 417.508 118.748 417.508C117.659 417.508 117.114 418.058 115.48 416.407C113.846 414.757 113.846 414.207 112.756 413.657C111.667 413.107 111.245 412.557 110.577 412.007C109.909 411.457 108.943 410.907 107.854 410.357C104.803 409.917 102.588 408.549 101.862 407.921L99.6829 412.007C101.499 412.74 105.675 414.537 107.854 415.857C110.577 417.508 110.033 417.508 112.756 419.158C118.748 421.908 119.837 421.358 120.927 421.358C122.016 421.358 122.561 421.358 123.106 421.908C123.541 422.348 124.74 422.752 125.285 422.898L125.863 419.158Z" fill="#BD8C64"/>
<path d="M107.854 415.857C105.675 414.537 101.499 412.74 99.6829 412.007L97.7764 415.582C99.6829 416.041 103.823 417.288 105.13 418.608C106.764 420.258 105.13 419.818 107.854 421.358C114.39 424.108 116.569 423.558 117.659 424.108C118.53 424.549 121.653 425.759 123.106 426.309L124.587 427.409L125.285 422.898C124.74 422.752 123.541 422.348 123.106 421.908C122.561 421.358 122.016 421.358 120.927 421.358C119.837 421.358 118.748 421.908 112.756 419.158C110.033 417.508 110.577 417.508 107.854 415.857Z" fill="#4C4947"/>
<path d="M95.8699 419.158L123.65 433.46L124.587 427.409L123.106 426.309C121.653 425.759 118.53 424.549 117.659 424.108C116.569 423.558 114.39 424.108 107.854 421.358C105.13 419.818 106.764 420.258 105.13 418.608C103.823 417.288 99.6829 416.041 97.7764 415.582L95.8699 419.158Z" fill="#BD8C64"/>
<path d="M166.138 425.209C156.867 420.895 151.397 419.205 140.537 419.158C140.252 419.956 139.918 420.897 139.56 421.908C139.992 421.908 145.181 423.008 146.672 423.558C148.163 424.109 149.6 424.109 151.976 425.209C154.351 426.309 152.52 424.109 156.333 426.309C160.691 428.069 164.686 428.876 166.138 429.059L166.683 429.7C166.483 428.017 166.289 426.43 166.138 425.209Z" fill="#4C4947"/>
<path d="M146.672 423.558C145.181 423.008 139.992 421.908 139.56 421.908C138.943 423.653 138.255 425.609 137.63 427.409C138.78 427.226 141.735 426.969 144.35 427.409C147.618 427.959 147.618 426.859 149.797 427.959C151.976 429.059 152.369 427.959 154.351 429.059C156.333 430.159 157.423 430.159 157.967 430.709C158.512 431.259 159.057 430.709 159.602 431.259C160.146 431.81 161.236 431.259 161.781 431.81C162.216 432.25 163.778 432.726 164.504 432.91L167.122 433.46C166.981 432.226 166.83 430.937 166.683 429.7L166.138 429.059C164.686 428.876 160.691 428.069 156.333 426.309C152.52 424.109 154.351 426.309 151.976 425.209C149.6 424.109 148.163 424.109 146.672 423.558Z" fill="#BD8C64"/>
<path d="M144.35 427.409C141.735 426.969 138.78 427.226 137.63 427.409C137.127 428.857 136.665 430.204 136.312 431.259C138.083 431.81 142.389 433.02 145.439 433.46C149.252 434.01 148.163 433.46 153.065 434.01C157.967 434.56 158.512 434.01 159.602 434.56C160.691 435.11 163.959 435.11 164.504 436.21C164.94 437.09 166.712 437.31 167.544 437.31C167.43 436.203 167.283 434.867 167.122 433.46L164.504 432.91C163.778 432.726 162.216 432.25 161.781 431.81C161.236 431.259 160.146 431.81 159.602 431.259C159.057 430.709 158.512 431.259 157.967 430.709C157.423 430.159 156.333 430.159 154.351 429.059C152.369 427.959 151.976 429.059 149.797 427.959C147.618 426.859 147.618 427.959 144.35 427.409Z" fill="#4C4947"/>
<path d="M135.634 433.46C135.634 433.9 153.065 438.41 161.781 440.611L163.959 445.011C164.867 444.828 166.683 444.351 166.683 443.911C166.683 443.361 167.772 441.711 167.772 440.061C167.772 439.684 167.684 438.669 167.544 437.31C166.712 437.31 164.94 437.09 164.504 436.21C163.959 435.11 160.691 435.11 159.602 434.56C158.512 434.01 157.967 434.56 153.065 434.01C148.163 433.46 149.252 434.01 145.439 433.46C142.389 433.02 138.083 431.81 136.312 431.259C135.897 432.498 135.634 433.335 135.634 433.46Z" fill="#BD8C64"/>
<path d="M209.42 425.209L179.211 423.558L178.764 427.959C181.274 428.112 187.273 428.547 191.195 429.059C196.098 429.7 200.455 428.69 203.179 429.7C206.229 430.948 208.78 430.893 209.674 430.709L209.42 425.209Z" fill="#4C4947"/>
<path d="M191.195 429.059C187.273 428.547 181.274 428.112 178.764 427.959L178.15 434.01C178.504 433.827 179.32 433.46 179.756 433.46C180.301 433.46 180.846 433.46 183.024 434.01C185.203 434.56 184.659 434.01 187.927 434.01C191.195 434.01 209.42 434.56 209.827 434.01L209.674 430.709C208.78 430.893 206.229 430.948 203.179 429.7C200.455 428.69 196.098 429.7 191.195 429.059Z" fill="#BD8C64"/>
<path d="M209.827 434.01C209.42 434.56 191.195 434.01 187.927 434.01C184.659 434.01 185.203 434.56 183.024 434.01C180.846 433.46 180.301 433.46 179.756 433.46C179.32 433.46 178.504 433.827 178.15 434.01L177.591 439.511C179.947 439.511 185.312 439.401 187.927 438.961C191.195 438.41 192.285 437.86 196.098 437.86C199.911 437.86 201 437.31 202.089 437.31H204.236C205.358 437.31 205.726 437.86 206.447 437.86C207.024 437.86 209.094 438.594 210.056 438.961L209.827 434.01Z" fill="#4C4947"/>
<path d="M177.033 445.011L179.756 444.876L208.081 443.469L210.26 443.361L210.056 438.961C209.094 438.594 207.024 437.86 206.447 437.86C205.726 437.86 205.358 437.31 204.236 437.31H202.089C201 437.31 199.911 437.86 196.098 437.86C192.285 437.86 191.195 438.41 187.927 438.961C185.312 439.401 179.947 439.511 177.591 439.511L177.033 445.011Z" fill="#BD8C64"/>
<path d="M249.726 419.158C232.364 419.301 226.583 420.664 217.697 423.558C217.794 425.066 217.888 426.538 217.979 427.959L250.756 422.458C250.417 421.363 250.071 420.255 249.726 419.158Z" fill="#4C4947"/>
<path d="M250.756 422.458L217.979 427.959C218.116 430.113 218.245 432.149 218.362 434.01L229.325 430.709C230.415 430.373 233.029 429.7 234.772 429.7H238.041C238.041 429.913 238.694 430.212 241.309 429.7C243.924 429.187 249.814 428.326 252.432 427.959C251.923 426.25 251.35 424.374 250.756 422.458Z" fill="#BD8C64"/>
<path d="M218.362 434.01L218.431 435.11C218.606 435.817 218.916 436.889 219.287 437.86C222.815 436.76 229.979 434.56 230.415 434.56C230.959 434.56 232.594 433.46 234.228 433.46C235.862 433.46 238.168 432.91 239.13 432.91C240.092 432.91 240.22 431.81 242.943 432.36C245.667 432.91 246.756 431.81 247.301 432.36C247.737 432.8 251.747 432.543 253.698 432.36C253.363 431.129 252.928 429.623 252.432 427.959C249.814 428.326 243.924 429.187 241.309 429.7C238.694 430.212 238.041 429.913 238.041 429.7H234.772C233.029 429.7 230.415 430.373 229.325 430.709L218.362 434.01Z" fill="#4C4947"/>
<path d="M236.951 436.21C239.096 435.344 248.337 435.842 252.432 435.824C253.536 435.819 254.266 435.777 254.382 435.66C254.503 435.538 254.224 434.288 253.698 432.36C251.747 432.543 247.737 432.8 247.301 432.36C246.756 431.81 245.667 432.91 242.943 432.36C240.22 431.81 240.092 432.91 239.13 432.91C238.168 432.91 235.862 433.46 234.228 433.46C232.594 433.46 230.959 434.56 230.415 434.56C229.979 434.56 222.815 436.76 219.287 437.86C219.687 438.905 220.158 439.833 220.61 440.061C221.251 440.385 222.27 440.327 223.333 440.113C224.076 439.963 224.84 439.737 225.512 439.511C227.146 438.961 234.228 437.31 236.951 436.21Z" fill="#BD8C64"/>
<path d="M271.268 409.256C270.397 409.256 262.346 413.657 258.429 415.857L259.308 419.158L270.179 415.857C270.542 415.124 271.704 413.437 273.447 412.557C275.626 411.457 279.439 410.907 279.984 410.907C280.42 410.907 281.981 411.273 282.707 411.457L288.139 410.907C287.843 410.133 287.441 409.118 286.958 407.921L278.894 407.056C276.715 407.79 272.14 409.256 271.268 409.256Z" fill="#4C4947"/>
<path d="M259.308 419.158L260.919 425.209C261.174 425.687 261.489 426.257 261.837 426.859C262.075 426.309 262.662 425.209 263.098 425.209C263.642 425.209 265.821 421.358 266.366 421.358C266.911 421.358 267.455 420.258 268 419.708C268.545 419.158 269.089 419.158 269.634 418.058C270.179 416.958 270.505 418.058 271.268 417.508C272.032 416.958 274.537 416.407 274.537 415.857C274.537 415.417 284.36 414.574 289.271 414.207C288.931 413.433 288.699 412.828 288.699 412.557C288.699 412.43 288.498 411.846 288.139 410.907L282.707 411.457C281.981 411.273 280.42 410.907 279.984 410.907C279.439 410.907 275.626 411.457 273.447 412.557C271.704 413.437 270.542 415.124 270.179 415.857L259.308 419.158Z" fill="#BD8C64"/>
<path d="M289.271 414.207C284.36 414.574 274.537 415.417 274.537 415.857C274.537 416.407 272.032 416.958 271.268 417.508C270.505 418.058 270.179 416.958 269.634 418.058C269.089 419.158 268.545 419.158 268 419.708C267.455 420.258 266.911 421.358 266.366 421.358C265.821 421.358 263.642 425.209 263.098 425.209C262.662 425.209 262.075 426.309 261.837 426.859C262.228 427.537 262.662 428.256 263.098 428.931C266.366 426.957 273.12 422.898 273.992 422.458C275.081 421.908 277.805 421.358 278.35 420.808C278.894 420.258 279.439 420.258 281.618 419.708C283.361 419.268 286.339 419.158 287.61 419.158H291.493C290.887 417.614 289.896 415.626 289.271 414.207Z" fill="#4C4947"/>
<path d="M265.821 431.81C265.998 431.72 266.792 431.414 268 430.958C273.224 428.987 286.194 424.228 290.535 422.194C291.376 421.8 291.893 421.508 291.967 421.358C292.132 421.026 291.899 420.191 291.493 419.158H287.61C286.339 419.158 283.361 419.268 281.618 419.708C279.439 420.258 278.894 420.258 278.35 420.808C277.805 421.358 275.081 421.908 273.992 422.458C273.12 422.898 266.366 426.957 263.098 428.931C264.202 430.64 265.322 432.062 265.821 431.81Z" fill="#BD8C64"/>
<path d="M240.764 377.902C241.309 382.853 244.033 401.555 245.667 406.506C246.337 408.537 248.016 413.717 249.726 419.158C250.071 420.255 250.417 421.363 250.756 422.458C251.35 424.374 251.923 426.25 252.432 427.959H257.65C258.086 427.959 260.011 426.125 260.919 425.209L259.308 419.158L258.429 415.857L247.301 374.052L240.474 375.702C240.582 376.408 240.68 377.135 240.764 377.902Z" fill="#5B5652"/>
<path d="M209.42 425.209L209.674 430.709L209.827 434.01L213.528 436.21L218.431 435.11L218.362 434.01C218.245 432.149 218.116 430.113 217.979 427.959C217.888 426.538 217.794 425.066 217.697 423.558C216.535 405.545 214.97 382.465 214.618 381.753C214.073 380.653 208.081 381.203 207.387 380.652C207.863 391.353 208.691 409.415 209.42 425.209Z" fill="#5B5652"/>
<path d="M183.024 381.203C183.024 380.548 176.686 380.93 174.061 381.203L170.694 399.905L168.862 433.46L175.943 431.81C177.884 415.678 182.742 383.713 183.013 381.333L183.024 381.203Z" fill="#5B5652"/>
<path d="M151.431 377.352L144.715 374.602L137.813 390.127L128.008 425.209L135.634 426.309V422.898L151.431 377.352Z" fill="#5B5652"/>
<path d="M107.854 374.602L105.13 379.002L87.6614 405.956L95.2874 413.657L123.106 366.901L114.935 363.05L107.854 374.602Z" fill="#5B5652"/>
<path d="M268 430.958C270.724 457.279 276.855 509.845 277.26 511.02C278.554 514.77 308.492 508.344 323.016 502.769C329.027 485.901 309.307 458.414 290.535 422.194C286.194 424.228 273.224 428.987 268 430.958Z" fill="#DAD1C5"/>
<path d="M236.951 436.21C234.228 437.31 227.146 438.961 225.512 439.511C224.84 439.737 224.076 439.963 223.333 440.113V517.621C224.967 518.905 228.998 521.472 232.049 521.472C235.862 521.472 254.927 518.171 256.016 518.171C256.888 518.171 265.458 515.971 269.634 514.871L274.537 508.27C265.3 480.323 256.446 466.75 252.432 435.824C248.337 435.842 239.096 435.344 236.951 436.21Z" fill="#DAD1C5"/>
<path d="M179.756 444.876L165.593 524.222C184.4 532.394 196.186 531.443 218.431 524.222L208.081 443.469L179.756 444.876Z" fill="#DAD1C5"/>
<path d="M161.781 440.611C153.065 438.41 135.634 433.9 135.634 433.46L101.862 508.82C119.93 517.763 130.157 522.575 153.065 521.472L157.967 512.121L163.959 445.011L161.781 440.611Z" fill="#DAD1C5"/>
<path d="M123.65 433.46L95.8699 419.158L54.4715 489.568C69.3731 501.753 79.2549 506.483 101.317 508.82L123.65 433.46Z" fill="#DAD1C5"/>
<path d="M82.252 413.657L56.1058 394.954L55.561 399.355L0 461.514C11.623 476.606 18.4489 484.77 43.0325 487.367L82.252 413.657Z" fill="#DAD1C5"/>
<path d="M107.854 374.602L104.041 371.621L101.07 377.352L105.13 379.002L107.854 374.602Z" fill="#7E756E"/>
</svg>
